<svg width="24" height="24" viewBox="0 0 24 24" fill="none" xmlns="http://www.w3.org/2000/svg">
<g id="Broken / Video, Audio, Sound / Quit Full Screen">
<path id="Vector" d="M2 14C5.77124 14 7.65685 14 8.82843 15.1716C10 16.3431 10 18.2288 10 22" stroke="#1C274C" stroke-width="1.5" stroke-linecap="round"/>
<path id="Vector_2" d="M2 10C3.16976 10 4.15811 10 5 9.96504M10 2C10 5.77124 10 7.65685 8.82843 8.82843" stroke="#1C274C" stroke-width="1.5" stroke-linecap="round"/>
<path id="Vector_3" d="M14 22C14 18.2288 14 16.3431 15.1716 15.1716M22 14C20.8302 14 19.8419 14 19 14.035" stroke="#1C274C" stroke-width="1.5" stroke-linecap="round"/>
<path id="Vector_4" d="M22 10C18.2288 10 16.3431 10 15.1716 8.82843C14 7.65685 14 5.77124 14 2" stroke="#1C274C" stroke-width="1.5" stroke-linecap="round"/>
</g>
</svg>
