<svg width="24" height="24" viewBox="0 0 24 24" fill="none" xmlns="http://www.w3.org/2000/svg">
<g id="Line Duotone / Essentional, UI / Smart Home">
<path id="Vector" opacity="0.5" d="M14.0001 22C17.7713 22 19.657 22 20.8285 20.7881C22.0001 19.5763 22.0001 17.6258 22.0001 13.725V12.2039C22.0001 9.91549 22.0001 8.77128 21.4809 7.82274C20.9617 6.87421 20.0132 6.28551 18.1161 5.10812L16.1161 3.86687C14.1107 2.62229 13.108 2 12.0001 2C10.8922 2 9.8895 2.62229 7.88414 3.86687L5.88415 5.10813C3.98706 6.28551 3.03851 6.87421 2.51931 7.82274C2.20174 8.40293 2.07841 9.05632 2.03052 10" stroke="#1C274C" stroke-width="1.5" stroke-linecap="round"/>
<path id="Vector_2" d="M11 22C11 17.0294 6.97056 13 2 13" stroke="#1C274C" stroke-width="1.5" stroke-linecap="round"/>
<path id="Vector_3" d="M8 22C8 18.6863 5.31371 16 2 16" stroke="#1C274C" stroke-width="1.5" stroke-linecap="round"/>
<path id="Vector_4" d="M5 22C5 20.3431 3.65685 19 2 19" stroke="#1C274C" stroke-width="1.5" stroke-linecap="round"/>
</g>
</svg>
