<svg width="24" height="24" viewBox="0 0 24 24" fill="none" xmlns="http://www.w3.org/2000/svg">
<g id="Bold Duotone / Electronic, Devices / Gamepad Minimalistic">
<path id="Subtract" opacity="0.5" d="M13.1717 8C15.7107 8 16.9802 8 17.9563 8.61367C18.2033 8.76898 18.4326 8.95085 18.64 9.15603C19.4598 9.96679 19.7488 11.203 20.3267 13.6753L21.3492 18.0491C21.7086 19.5866 20.7532 21.1243 19.2155 21.483C17.9188 21.7856 16.585 21.1527 15.9993 19.9569L15.8787 19.7106C15.3409 18.6127 14.225 17.9167 13.0025 17.9167H10.9976C9.77501 17.9167 8.65911 18.6127 8.12136 19.7106L8.00072 19.9569C7.41503 21.1527 6.08119 21.7856 4.7845 21.483C3.24685 21.1243 2.29145 19.5866 2.65087 18.0491L3.67331 13.6753C4.25126 11.203 4.54024 9.96679 5.35998 9.15603C5.56744 8.95085 5.79673 8.76898 6.04375 8.61367C7.01983 8 8.28934 8 10.8284 8H13.1717Z" fill="#1C274C"/>
<g id="Subtract_2">
<path d="M9.25 12C9.25 11.5858 8.91421 11.25 8.5 11.25C8.08579 11.25 7.75 11.5858 7.75 12V12.75H7C6.58579 12.75 6.25 13.0858 6.25 13.5C6.25 13.9142 6.58579 14.25 7 14.25H7.75V15C7.75 15.4142 8.08579 15.75 8.5 15.75C8.91421 15.75 9.25 15.4142 9.25 15V14.25H10C10.4142 14.25 10.75 13.9142 10.75 13.5C10.75 13.0858 10.4142 12.75 10 12.75H9.25V12Z" fill="#1C274C"/>
<path d="M15 13C15.5523 13 16 12.5523 16 12C16 11.4477 15.5523 11 15 11C14.4477 11 14 11.4477 14 12C14 12.5523 14.4477 13 15 13Z" fill="#1C274C"/>
<path d="M18 14.5C18 15.0523 17.5523 15.5 17 15.5C16.4477 15.5 16 15.0523 16 14.5C16 13.9477 16.4477 13.5 17 13.5C17.5523 13.5 18 13.9477 18 14.5Z" fill="#1C274C"/>
</g>
<path id="Vector" d="M15.75 4C15.75 3.58579 15.4142 3.25 15 3.25C14.5858 3.25 14.25 3.58579 14.25 4V5C14.25 5.13807 14.1381 5.25 14 5.25H13C12.0335 5.25 11.25 6.0335 11.25 7V8H12.75V7C12.75 6.86193 12.8619 6.75 13 6.75H14C14.9665 6.75 15.75 5.9665 15.75 5V4Z" fill="#1C274C"/>
</g>
</svg>
