<svg width="24" height="24" viewBox="0 0 24 24" fill="none" xmlns="http://www.w3.org/2000/svg">
<g id="Bold Duotone / Electronic, Devices / Lightbulb Bolt">
<path id="Vector" opacity="0.5" d="M4 9.67442C4 5.43595 7.35786 2 11.5 2C15.6421 2 19 5.43595 19 9.67442C19 11.9468 18.034 13.9892 16.5014 15.3934C15.9906 15.8614 15.6122 16.2082 15.344 16.4598C15.2099 16.5855 15.1074 16.6838 15.0317 16.7592C14.994 16.7968 14.9651 16.8266 14.9436 16.8496C14.933 16.861 14.925 16.8699 14.9192 16.8766C14.9133 16.8834 14.9108 16.8864 14.9108 16.8864C14.6743 17.1851 14.6231 17.2622 14.5926 17.332C14.5621 17.4018 14.5402 17.4922 14.4805 17.8717C14.457 18.0216 14.4545 18.2782 14.4545 18.9767V19.0067C14.4546 19.4158 14.4546 19.7687 14.4289 20.0583C14.4018 20.3645 14.3418 20.6677 14.1805 20.9535C14.001 21.2717 13.7428 21.5359 13.4318 21.7196C13.1525 21.8846 12.8562 21.946 12.557 21.9738C12.274 22 11.9292 22 11.5294 22H11.5293H11.4707H11.4706C11.0708 22 10.726 22 10.443 21.9738C10.1438 21.946 9.84747 21.8846 9.56818 21.7196C9.25723 21.5359 8.99902 21.2717 8.81949 20.9535C8.65825 20.6677 8.5982 20.3645 8.57107 20.0583C8.54543 19.7687 8.54544 19.4158 8.54545 19.0067L8.54545 18.9767C8.54545 18.2782 8.54305 18.0216 8.51949 17.8717C8.45982 17.4922 8.43787 17.4018 8.40739 17.332C8.3769 17.2622 8.32571 17.1851 8.0892 16.8864C8.0892 16.8864 8.08649 16.8831 8.0808 16.8766C8.07499 16.8699 8.06699 16.861 8.05635 16.8496C8.03486 16.8266 8.00601 16.7968 7.9683 16.7592C7.89262 16.6838 7.7901 16.5855 7.65601 16.4598C7.38782 16.2082 7.0094 15.8614 6.49859 15.3934C4.96602 13.9892 4 11.9468 4 9.67442Z" fill="#1C274C"/>
<g id="Vector_2">
<path d="M13.0848 19.6748H9.91463C9.9176 19.7718 9.92209 19.8565 9.92884 19.9327C9.94739 20.1422 9.97868 20.2182 10.0001 20.2562C10.06 20.3623 10.146 20.4504 10.2497 20.5116C10.2868 20.5335 10.3612 20.5656 10.5658 20.5845C10.7799 20.6044 11.0623 20.6051 11.4997 20.6051C11.9371 20.6051 12.2195 20.6044 12.4336 20.5845C12.6382 20.5656 12.7125 20.5335 12.7497 20.5116C12.8533 20.4504 12.9394 20.3623 12.9993 20.2562C13.0207 20.2182 13.052 20.1422 13.0706 19.9327C13.0773 19.8565 13.0818 19.7718 13.0848 19.6748Z" fill="#1C274C"/>
<path d="M12.6102 8.17688C12.9166 8.40084 12.9875 8.83658 12.7687 9.15012L11.5907 10.8376H12.9931C13.2485 10.8376 13.4825 10.9837 13.5993 11.2161C13.7162 11.4484 13.6963 11.7282 13.5479 11.9408L11.5998 14.7315C11.381 15.0451 10.9551 15.1177 10.6487 14.8937C10.3423 14.6698 10.2713 14.234 10.4902 13.9205L11.6682 12.233H10.2658C10.0104 12.233 9.77642 12.0869 9.65955 11.8545C9.54269 11.6222 9.56254 11.3424 9.71099 11.1298L11.659 8.33909C11.8779 8.02555 12.3037 7.95292 12.6102 8.17688Z" fill="#1C274C"/>
</g>
</g>
</svg>
