<svg width="24" height="24" viewBox="0 0 24 24" fill="none" xmlns="http://www.w3.org/2000/svg">
<g id="Bold Duotone / Electronic, Devices / USB">
<path id="Subtract" opacity="0.5" d="M19.83 10.441L18.2957 12L18.1851 12.1106L18.0965 12.022C17.6068 11.1519 16.6504 10.1954 15.2272 8.77225C13.8195 7.36455 12.8684 6.41349 12.0059 5.91907L13.6929 4.20481C15.1394 2.73494 15.8627 2 16.7614 2C17.6602 2 18.3835 2.73494 19.83 4.20481C21.2765 5.67469 21.9998 6.40962 21.9998 7.32289C21.9998 8.23615 21.2765 8.97109 19.83 10.441Z" fill="#1C274C"/>
<path id="Subtract_2" fill-rule="evenodd" clip-rule="evenodd" d="M2 14.1422C2 15.4903 3.08489 16.5752 5.25467 18.745C7.42446 20.9148 8.50935 21.9997 9.85748 21.9997C11.2056 21.9997 12.2905 20.9148 14.4603 18.745L15.2274 17.9779C17.3972 15.8081 18.4821 14.7232 18.4821 13.3751C18.4821 12.0269 17.3972 10.942 15.2274 8.77226C13.0576 6.60248 11.9727 5.51758 10.6246 5.51758C9.27648 5.51758 8.19159 6.60247 6.02181 8.77225L5.25467 9.53939C3.08489 11.7092 2 12.7941 2 14.1422ZM5.78521 13.6122C5.49232 13.3194 5.01745 13.3194 4.72455 13.6122C4.43166 13.9051 4.43166 14.38 4.72455 14.6729L9.32736 19.2757C9.62025 19.5686 10.0951 19.5686 10.388 19.2757C10.6809 18.9828 10.6809 18.5079 10.388 18.2151L5.78521 13.6122Z" fill="#1C274C"/>
<path id="Vector (Stroke)" fill-rule="evenodd" clip-rule="evenodd" d="M19.2471 6.8731C19.54 7.166 19.54 7.64087 19.2471 7.93376L18.54 8.64087C18.2471 8.93376 17.7723 8.93376 17.4794 8.64087C17.1865 8.34798 17.1865 7.8731 17.4794 7.58021L18.1865 6.8731C18.4794 6.58021 18.9542 6.58021 19.2471 6.8731Z" fill="#1C274C"/>
<path id="Vector (Stroke)_2" fill-rule="evenodd" clip-rule="evenodd" d="M17.126 4.75201C17.4189 5.0449 17.4189 5.51978 17.126 5.81267L16.4189 6.51978C16.126 6.81267 15.6512 6.81267 15.3583 6.51978C15.0654 6.22688 15.0654 5.75201 15.3583 5.45912L16.0654 4.75201C16.3583 4.45912 16.8331 4.45912 17.126 4.75201Z" fill="#1C274C"/>
</g>
</svg>
