<svg width="24" height="24" viewBox="0 0 24 24" fill="none" xmlns="http://www.w3.org/2000/svg">
<g id="Outline / Transport, Parts, Service / Spedometer Low">
<path id="Vector" fill-rule="evenodd" clip-rule="evenodd" d="M2.77997 11.25H4C4.41421 11.25 4.75 11.5858 4.75 12C4.75 12.4142 4.41421 12.75 4 12.75H2.77997C2.9397 14.7407 3.72972 16.5536 4.95034 17.989L5.96967 16.9697C6.26256 16.6768 6.73744 16.6768 7.03033 16.9697C7.32322 17.2626 7.32322 17.7374 7.03033 18.0303L6.011 19.0497C7.62475 20.422 9.71567 21.25 12 21.25C14.2843 21.25 16.3753 20.422 17.989 19.0497L16.9697 18.0303C16.6768 17.7374 16.6768 17.2626 16.9697 16.9697C17.2626 16.6768 17.7374 16.6768 18.0303 16.9697L19.0497 17.989C20.2703 16.5536 21.0603 14.7407 21.22 12.75H19.9998C19.5856 12.75 19.2498 12.4142 19.2498 12C19.2498 11.5858 19.5856 11.25 19.9998 11.25H21.22C21.0603 9.25928 20.2703 7.44638 19.0497 6.011L18.0303 7.03033C17.7374 7.32322 17.2626 7.32322 16.9697 7.03033C16.6768 6.73744 16.6768 6.26256 16.9697 5.96967L17.989 4.95034C16.5536 3.72972 14.7407 2.9397 12.75 2.77997V4.00021C12.75 4.41443 12.4142 4.75021 12 4.75021C11.5858 4.75021 11.25 4.41443 11.25 4.00021V2.77997C9.25928 2.9397 7.44638 3.72972 6.011 4.95034L7.03033 5.96967C7.32322 6.26256 7.32322 6.73744 7.03033 7.03033C6.73744 7.32322 6.26256 7.32322 5.96967 7.03033L4.95034 6.011C3.72972 7.44638 2.9397 9.25928 2.77997 11.25ZM1.25 12C1.25 6.06294 6.06294 1.25 12 1.25C17.9371 1.25 22.75 6.06294 22.75 12C22.75 17.9371 17.9371 22.75 12 22.75C6.06294 22.75 1.25 17.9371 1.25 12ZM9.0052 9.59087C10.4697 8.12641 12.844 8.12641 14.3085 9.59087C15.773 11.0553 15.773 13.4297 14.3085 14.8942C13.978 15.2247 13.5231 15.4598 13.0776 15.6345C12.6191 15.8142 12.1027 15.9557 11.5932 16.0678C11.5712 16.0727 11.5492 16.0775 11.5273 16.0823C10.855 16.2304 10.2449 16.3647 9.73171 16.3737C9.13833 16.384 8.59772 16.2308 8.13314 15.7662C7.66856 15.3017 7.51537 14.761 7.52573 14.1677C7.53468 13.6545 7.66901 13.0444 7.81705 12.3721C7.82187 12.3502 7.82671 12.3282 7.83157 12.3061C7.94367 11.7966 8.08514 11.2803 8.26491 10.8218C8.43962 10.3763 8.67471 9.92136 9.0052 9.59087ZM13.2478 10.6515C12.3692 9.77285 10.9445 9.77285 10.0659 10.6515C9.9507 10.7667 9.80735 10.9972 9.66138 11.3694C9.52047 11.7288 9.39902 12.1626 9.29652 12.6285C9.12927 13.3886 9.03151 13.8493 9.0255 14.1938C9.02059 14.4749 9.07758 14.5894 9.1938 14.7056C9.31002 14.8218 9.42445 14.8788 9.70554 14.8739C10.0501 14.8679 10.5108 14.7701 11.2709 14.6029C11.7367 14.5004 12.1706 14.3789 12.53 14.238C12.9022 14.092 13.1327 13.9487 13.2478 13.8335C14.1265 12.9548 14.1265 11.5302 13.2478 10.6515Z" fill="#1C274C"/>
</g>
</svg>
