<svg width="24" height="24" viewBox="0 0 24 24" fill="none" xmlns="http://www.w3.org/2000/svg">
<g id="Bold Duotone / Sports / Dumbbells">
<path id="Vector" d="M16.3445 8.93024L16.6889 6.09016L16.6889 6.09014C16.7692 5.4285 16.8093 5.09767 16.74 4.82267C16.6477 4.456 16.4231 4.14364 16.1158 3.95431C15.8853 3.81231 15.5764 3.76933 14.9587 3.68338C14.341 3.59742 14.0321 3.55444 13.7754 3.62863C13.433 3.72756 13.1414 3.96809 12.9647 4.29732C12.8321 4.54424 12.7489 5.23007 12.6687 5.89173L6.53714 5.03851C6.61739 4.37686 6.70057 3.69102 6.6313 3.41601C6.53895 3.04934 6.31439 2.73698 6.00703 2.54765C5.77651 2.40565 5.46765 2.36268 4.84993 2.27672C4.23222 2.19076 3.92336 2.14778 3.66662 2.22198C3.32429 2.3209 3.03268 2.56143 2.85592 2.89066C2.72336 3.13758 2.68323 3.46841 2.60299 4.13006L2.25853 6.97015C2.17828 7.6318 2.13816 7.96263 2.20742 8.23764C2.29978 8.60431 2.52433 8.91667 2.8317 9.106C3.06222 9.248 3.37107 9.29097 3.98878 9.37693L3.98879 9.37693L3.9888 9.37693C4.60651 9.46289 4.91537 9.50587 5.17211 9.43167C5.51443 9.33275 5.80605 9.09222 5.9828 8.76299C6.11537 8.51607 6.19855 7.83023 6.2788 7.16858L12.4103 8.0218C12.3301 8.68345 12.2469 9.36929 12.3162 9.6443C12.4085 10.011 12.6331 10.3233 12.9404 10.5127C13.171 10.6547 13.4798 10.6976 14.0975 10.7836L14.0975 10.7836L14.0975 10.7836C14.7153 10.8695 15.0241 10.9125 15.2809 10.8383C15.6232 10.7394 15.9148 10.4989 16.0915 10.1696C16.2241 9.92273 16.2642 9.59191 16.3445 8.93026L16.3445 8.93024Z" fill="#1C274C"/>
<path id="Vector_2" opacity="0.5" d="M7.76122 19.9255L7.0692 17.1591C6.90798 16.5146 6.82737 16.1924 6.86208 15.91C6.90836 15.5335 7.09239 15.192 7.37368 14.9608C7.58465 14.7874 7.88549 14.7011 8.48717 14.5284C9.08885 14.3557 9.3897 14.2694 9.65334 14.3066C10.0049 14.3561 10.3236 14.5533 10.5395 14.8546C10.7013 15.0805 10.8685 15.7486 11.0297 16.393L17.0021 14.6789C16.8408 14.0344 16.6737 13.3664 16.7084 13.084C16.7547 12.7075 16.9387 12.366 17.22 12.1348C17.431 11.9615 17.7318 11.8751 18.3335 11.7024C18.9352 11.5297 19.236 11.4434 19.4997 11.4806C19.8512 11.5301 20.17 11.7273 20.3858 12.0286C20.5477 12.2545 20.6283 12.5768 20.7895 13.2213L21.4815 15.9876C21.6428 16.6321 21.7234 16.9543 21.6887 17.2367C21.6424 17.6133 21.4584 17.9547 21.1771 18.1859C20.9661 18.3593 20.6653 18.4456 20.0636 18.6183L20.0636 18.6183L20.0636 18.6183C19.4619 18.791 19.161 18.8774 18.8974 18.8402C18.5459 18.7906 18.2271 18.5935 18.0113 18.2922C17.8494 18.0662 17.6823 17.3982 17.5211 16.7537L11.5487 18.4678C11.7099 19.1123 11.877 19.7803 11.8423 20.0627C11.796 20.4393 11.612 20.7807 11.3307 21.0119C11.1197 21.1853 10.8189 21.2716 10.2172 21.4443L10.2172 21.4443L10.2172 21.4443C9.61554 21.617 9.3147 21.7034 9.05105 21.6662C8.69952 21.6166 8.38077 21.4195 8.16493 21.1182C8.00305 20.8922 7.92244 20.57 7.76122 19.9255Z" fill="#1C274C"/>
</g>
</svg>
