<svg width="24" height="24" viewBox="0 0 24 24" fill="none" xmlns="http://www.w3.org/2000/svg">
<g id="Bold Duotone / Sports / Golf">
<ellipse id="Vector" opacity="0.5" cx="12" cy="18.5" rx="10" ry="3.5" fill="#1C274C"/>
<path id="Vector_2" d="M12.0002 1.25C12.4144 1.25 12.7502 1.58579 12.7502 2V3.03647L17.7579 5.54032L17.8119 5.56731C18.5464 5.93447 19.1724 6.24743 19.608 6.55149C20.0498 6.85982 20.5142 7.3075 20.5142 8C20.5142 8.6925 20.0498 9.14018 19.608 9.44851C19.1724 9.75257 18.5464 10.0655 17.8119 10.4327L12.7502 12.9635V18C12.7502 18.4142 12.4144 18.75 12.0002 18.75C11.586 18.75 11.2502 18.4142 11.2502 18V12.5162C11.2499 12.5058 11.2499 12.4953 11.2502 12.4849V3.51509C11.2499 3.50466 11.2499 3.49421 11.2502 3.48375V2C11.2502 1.58579 11.586 1.25 12.0002 1.25Z" fill="#1C274C"/>
</g>
</svg>
