<svg width="24" height="24" viewBox="0 0 24 24" fill="none" xmlns="http://www.w3.org/2000/svg">
<g id="Linear / Essentional, UI / Bolt Circle">
<path id="Vector" d="M9.21236 10.1737L11.2274 8.56904C12.5299 7.53179 13.1812 7.01316 13.5905 7.26931C13.9999 7.52547 13.7873 8.31864 13.3623 9.905L13.3222 10.0546C13.1689 10.6267 13.0922 10.9128 13.227 11.1412L13.2341 11.1531C13.3738 11.3788 13.6716 11.4586 14.2671 11.6182C15.3387 11.9053 15.8746 12.0489 15.9686 12.4224C15.9701 12.4286 15.9716 12.4348 15.9729 12.441C16.0554 12.8169 15.6327 13.1535 14.7873 13.8267L12.7723 15.4314C11.4697 16.4686 10.8185 16.9873 10.4091 16.7311C9.99979 16.4749 10.2123 15.6818 10.6374 14.0954L10.6775 13.9459C10.8308 13.3737 10.9075 13.0876 10.7727 12.8592L10.7656 12.8473C10.6259 12.6216 10.3281 12.5418 9.73259 12.3823C8.66096 12.0951 8.12514 11.9515 8.03114 11.578C8.02958 11.5718 8.02812 11.5656 8.02675 11.5594C7.94424 11.1836 8.36695 10.8469 9.21236 10.1737Z" stroke="#1C274C" stroke-width="1.5"/>
<path id="Vector_2" d="M2 12C2 6.47715 6.47715 2 12 2C17.5228 2 22 6.47715 22 12C22 17.5228 17.5228 22 12 22C6.47715 22 2 17.5228 2 12Z" stroke="#1C274C" stroke-width="1.5"/>
</g>
</svg>
