<svg width="24" height="24" viewBox="0 0 24 24" fill="none" xmlns="http://www.w3.org/2000/svg">
<g id="Bold Duotone / Transport, Parts, Service / Gas Station">
<path id="Vector" opacity="0.5" fill-rule="evenodd" clip-rule="evenodd" d="M9.75 2H8.75C5.92157 2 4.50736 2 3.62868 2.87868C2.75 3.75736 2.75 5.17157 2.75 8V21.25H15.75V17.75V16.25V8C15.75 5.17157 15.75 3.75736 14.8713 2.87868C13.9926 2 12.5784 2 9.75 2Z" fill="#1C274C"/>
<path id="Vector_2" d="M2.75 21.25H1.75C1.33579 21.25 1 21.5858 1 22C1 22.4142 1.33579 22.75 1.75 22.75H16.8734C17.2876 22.75 17.6234 22.4142 17.6234 22C17.6234 21.5858 17.2876 21.25 16.8734 21.25H15.75H2.75Z" fill="#1C274C"/>
<g id="Vector_3">
<path d="M8 6H11C11.9428 6 12.4142 6 12.7071 6.29289C13 6.58579 13 7.05719 13 8C13 8.94281 13 9.41421 12.7071 9.70711C12.4142 10 11.9428 10 11 10H8C7.05719 10 6.58579 10 6.29289 9.70711C6 9.41421 6 8.94281 6 8C6 7.05719 6 6.58579 6.29289 6.29289C6.58579 6 7.05719 6 8 6Z" fill="#1C274C"/>
<path d="M7 16.25C6.58579 16.25 6.25 16.5858 6.25 17C6.25 17.4142 6.58579 17.75 7 17.75H12C12.4142 17.75 12.75 17.4142 12.75 17C12.75 16.5858 12.4142 16.25 12 16.25H7Z" fill="#1C274C"/>
</g>
<path id="Vector_4" d="M15.75 17.75H17.3214C17.6962 17.75 18 18.0538 18 18.4286V18.5C18 19.7427 19.0074 20.75 20.25 20.75C21.4926 20.75 22.5 19.7427 22.5 18.5V7.60177C22.5 7.44511 22.5 7.33702 22.4941 7.23161C22.4384 6.24063 21.9922 5.31214 21.2531 4.64962C21.1745 4.57915 21.0901 4.51163 20.9678 4.41378L19.7185 3.41438C19.3951 3.15562 18.9231 3.20806 18.6643 3.53151C18.4056 3.85495 18.458 4.32692 18.7815 4.58568L20.0146 5.57215C20.1591 5.68774 20.2085 5.72768 20.2519 5.76653C20.6953 6.16405 20.9631 6.72114 20.9965 7.31573C20.9997 7.37384 21 7.43743 21 7.62247V8H20.25C19.4216 8 18.75 8.67157 18.75 9.5V11.9189C18.75 12.5645 19.1631 13.1377 19.7757 13.3419L21 13.75V18.5C21 18.9142 20.6642 19.25 20.25 19.25C19.8358 19.25 19.5 18.9142 19.5 18.5V18.4286C19.5 17.2254 18.5246 16.25 17.3214 16.25H15.75V17.75Z" fill="#1C274C"/>
</g>
</svg>
