<svg width="24" height="24" viewBox="0 0 24 24" fill="none" xmlns="http://www.w3.org/2000/svg">
<g id="Line Duotone / Transport, Parts, Service / Gas Station">
<path id="Vector" d="M16 22V8C16 5.17157 16 3.75736 15.1213 2.87868C14.2426 2 12.8284 2 10 2H9C6.17157 2 4.75736 2 3.87868 2.87868C3 3.75736 3 5.17157 3 8V22" stroke="#1C274C" stroke-width="1.5"/>
<path id="Vector_2" d="M11 6H8C7.05719 6 6.58579 6 6.29289 6.29289C6 6.58579 6 7.05719 6 8C6 8.94281 6 9.41421 6.29289 9.70711C6.58579 10 7.05719 10 8 10H11C11.9428 10 12.4142 10 12.7071 9.70711C13 9.41421 13 8.94281 13 8C13 7.05719 13 6.58579 12.7071 6.29289C12.4142 6 11.9428 6 11 6Z" stroke="#1C274C" stroke-width="1.5"/>
<path id="Vector_3" opacity="0.5" d="M7 17H12" stroke="#1C274C" stroke-width="1.5" stroke-linecap="round"/>
<path id="Vector_4" d="M17 22H2" stroke="#1C274C" stroke-width="1.5" stroke-linecap="round"/>
<path id="Vector_5" opacity="0.5" d="M19.9685 3.41435C19.6451 3.15559 19.1731 3.20803 18.9143 3.53148C18.6556 3.85493 18.708 4.32689 19.0315 4.58565L19.9685 3.41435ZM20.7331 4.98647L21.2016 4.40082L21.2016 4.40082L20.7331 4.98647ZM16 16.25C15.5858 16.25 15.25 16.5858 15.25 17C15.25 17.4142 15.5858 17.75 16 17.75V16.25ZM21.0025 5.20805L20.5019 5.76651L20.5019 5.76651L21.0025 5.20805ZM21.9953 7.27364L22.7441 7.23158V7.23158L21.9953 7.27364ZM22 8.75C22.4142 8.75 22.75 8.41421 22.75 8C22.75 7.58579 22.4142 7.25 22 7.25V8.75ZM20.0257 13.3419L19.7885 14.0534H19.7885L20.0257 13.3419ZM21.7628 14.7115C22.1558 14.8425 22.5805 14.6301 22.7115 14.2372C22.8425 13.8442 22.6301 13.4195 22.2372 13.2885L21.7628 14.7115ZM19.0315 4.58565L20.2646 5.57212L21.2016 4.40082L19.9685 3.41435L19.0315 4.58565ZM21.25 7.62244V18.5H22.75V7.62244H21.25ZM19.75 18.5V18.4286H18.25V18.5H19.75ZM17.5714 16.25H16V17.75H17.5714V16.25ZM19.75 18.4286C19.75 17.2254 18.7746 16.25 17.5714 16.25V17.75C17.9462 17.75 18.25 18.0538 18.25 18.4286H19.75ZM20.5 19.25C20.0858 19.25 19.75 18.9142 19.75 18.5H18.25C18.25 19.7426 19.2574 20.75 20.5 20.75V19.25ZM21.25 18.5C21.25 18.9142 20.9142 19.25 20.5 19.25V20.75C21.7426 20.75 22.75 19.7426 22.75 18.5H21.25ZM20.2646 5.57212C20.4091 5.68771 20.4585 5.72766 20.5019 5.76651L21.5031 4.64959C21.4211 4.57606 21.3328 4.50574 21.2016 4.40082L20.2646 5.57212ZM22.75 7.62244C22.75 7.45448 22.7503 7.34157 22.7441 7.23158L21.2465 7.3157C21.2497 7.37381 21.25 7.43741 21.25 7.62244H22.75ZM20.5019 5.76651C20.9453 6.16402 21.2131 6.72111 21.2465 7.3157L22.7441 7.23158C22.6884 6.24061 22.2422 5.31211 21.5031 4.64959L20.5019 5.76651ZM22 7.25H20.5V8.75H22V7.25ZM18.25 9.5V11.9189H19.75V9.5H18.25ZM19.7885 14.0534L21.7628 14.7115L22.2372 13.2885L20.2628 12.6304L19.7885 14.0534ZM18.25 11.9189C18.25 12.8873 18.8697 13.7471 19.7885 14.0534L20.2628 12.6304C19.9566 12.5283 19.75 12.2417 19.75 11.9189H18.25ZM20.5 7.25C19.2574 7.25 18.25 8.25736 18.25 9.5H19.75C19.75 9.08579 20.0858 8.75 20.5 8.75V7.25Z" fill="#1C274C"/>
</g>
</svg>
