<svg width="24" height="24" viewBox="0 0 24 24" fill="none" xmlns="http://www.w3.org/2000/svg">
<g id="Line Duotone / Transport, Parts, Service / Kick Scooter">
<path id="Vector" opacity="0.5" d="M14.381 17.6471V18.3971C14.7952 18.3971 15.131 18.0613 15.131 17.6471H14.381ZM19.6191 12.4706V13.2206C19.8398 13.2206 20.0493 13.1234 20.1918 12.9548C20.3343 12.7863 20.3954 12.5635 20.3587 12.3459L19.6191 12.4706ZM18.615 6.51663L17.8754 6.64136L18.615 6.51663ZM14.381 3.25C13.9668 3.25 13.631 3.58579 13.631 4C13.631 4.41421 13.9668 4.75 14.381 4.75V3.25ZM18.163 4.84003L17.5408 5.25874V5.25874L18.163 4.84003ZM17.3566 4.1649L17.6606 3.47926V3.47926L17.3566 4.1649ZM15.131 17.6471C15.131 15.2107 17.132 13.2206 19.6191 13.2206V11.7206C16.3204 11.7206 13.631 14.3656 13.631 17.6471H15.131ZM14.381 16.8971H6.76196V18.3971H14.381V16.8971ZM20.3587 12.3459L19.3545 6.39191L17.8754 6.64136L18.8795 12.5953L20.3587 12.3459ZM15.6088 3.25H14.381V4.75H15.6088V3.25ZM19.3545 6.39191C19.281 5.9561 19.2194 5.58781 19.145 5.28811C19.0683 4.979 18.9661 4.69002 18.7853 4.42132L17.5408 5.25874C17.5857 5.32551 17.6341 5.42779 17.6892 5.64959C17.7466 5.8808 17.7981 6.18308 17.8754 6.64136L19.3545 6.39191ZM15.6088 4.75C16.0786 4.75 16.3899 4.75049 16.6313 4.76853C16.8635 4.78588 16.9762 4.81665 17.0526 4.85054L17.6606 3.47926C17.365 3.34825 17.0625 3.29657 16.7431 3.2727C16.4329 3.24951 16.0563 3.25 15.6088 3.25V4.75ZM18.7853 4.42132C18.5069 4.00766 18.1167 3.68147 17.6606 3.47926L17.0526 4.85054C17.2522 4.93904 17.4212 5.08096 17.5408 5.25874L18.7853 4.42132Z" fill="#1C274C"/>
<path id="Vector_2" d="M6.0119 17.6469C6.0119 18.5238 5.2901 19.2498 4.38095 19.2498V20.7498C6.10174 20.7498 7.5119 19.3689 7.5119 17.6469H6.0119ZM4.38095 19.2498C3.47181 19.2498 2.75 18.5238 2.75 17.6469H1.25C1.25 19.3689 2.66017 20.7498 4.38095 20.7498V19.2498ZM2.75 17.6469C2.75 16.7699 3.47181 16.0439 4.38095 16.0439V14.5439C2.66017 14.5439 1.25 15.9248 1.25 17.6469H2.75ZM4.38095 16.0439C5.2901 16.0439 6.0119 16.7699 6.0119 17.6469H7.5119C7.5119 15.9248 6.10174 14.5439 4.38095 14.5439V16.0439Z" fill="#1C274C"/>
<path id="Vector_3" d="M21.2499 17.6469C21.2499 18.5238 20.5281 19.2498 19.619 19.2498V20.7498C21.3398 20.7498 22.7499 19.3689 22.7499 17.6469H21.2499ZM19.619 19.2498C18.7098 19.2498 17.988 18.5238 17.988 17.6469H16.488C16.488 19.3689 17.8982 20.7498 19.619 20.7498V19.2498ZM17.988 17.6469C17.988 16.7699 18.7098 16.0439 19.619 16.0439V14.5439C17.8982 14.5439 16.488 15.9248 16.488 17.6469H17.988ZM19.619 16.0439C20.5281 16.0439 21.2499 16.7699 21.2499 17.6469H22.7499C22.7499 15.9248 21.3398 14.5439 19.619 14.5439V16.0439Z" fill="#1C274C"/>
</g>
</svg>
