<svg width="24" height="24" viewBox="0 0 24 24" fill="none" xmlns="http://www.w3.org/2000/svg">
<g id="Bold / Shopping, Ecommerce / Shop 2">
<path id="Vector" d="M16.5276 2H7.47201C6.26919 2 5.66778 2 5.18448 2.2987C4.70117 2.5974 4.43221 3.13531 3.8943 4.21114L2.49068 7.75929C2.16639 8.57905 1.88266 9.54525 2.42854 10.2375C2.79476 10.7019 3.36244 11 3.99978 11C5.10435 11 5.99978 10.1046 5.99978 9C5.99978 10.1046 6.89522 11 7.99978 11C9.10435 11 9.99978 10.1046 9.99978 9C9.99978 10.1046 10.8952 11 11.9998 11C13.1044 11 13.9998 10.1046 13.9998 9C13.9998 10.1046 14.8952 11 15.9998 11C17.1044 11 17.9998 10.1046 17.9998 9C17.9998 10.1046 18.8952 11 19.9998 11C20.6371 11 21.2048 10.7019 21.5711 10.2375C22.117 9.54525 21.8333 8.57905 21.509 7.75929L20.1054 4.21114C19.5674 3.13531 19.2985 2.5974 18.8152 2.2987C18.3319 2 17.7305 2 16.5276 2Z" fill="#1C274C"/>
<path id="Vector_2" fill-rule="evenodd" clip-rule="evenodd" d="M20 21.25H22C22.4142 21.25 22.75 21.5858 22.75 22C22.75 22.4142 22.4142 22.75 22 22.75H2C1.58579 22.75 1.25 22.4142 1.25 22C1.25 21.5858 1.58579 21.25 2 21.25H4L4 12.5C4.74363 12.5 5.43309 12.2681 6 11.8727C6.56692 12.2681 7.25638 12.5 8 12.5C8.74363 12.5 9.43309 12.2681 10 11.8727C10.5669 12.2681 11.2564 12.5 12 12.5C12.7436 12.5 13.4331 12.2681 14 11.8727C14.5669 12.2681 15.2564 12.5 16 12.5C16.7436 12.5 17.4331 12.2681 18 11.8727C18.5669 12.2681 19.2564 12.5 20 12.5L20 21.25ZM9.5 21.25H14.5V18.5C14.5 17.5654 14.5 17.0981 14.299 16.75C14.1674 16.522 13.978 16.3326 13.75 16.2009C13.4019 16 12.9346 16 12 16C11.0654 16 10.5981 16 10.25 16.2009C10.022 16.3326 9.83261 16.522 9.70096 16.75C9.5 17.0981 9.5 17.5654 9.5 18.5V21.25Z" fill="#1C274C"/>
</g>
</svg>
