<svg width="24" height="24" viewBox="0 0 24 24" fill="none" xmlns="http://www.w3.org/2000/svg">
<g id="Bold Duotone / Time / Alarm">
<path id="Vector" opacity="0.5" d="M11.9998 21.9997C16.836 21.9997 20.7565 18.1159 20.7565 13.325C20.7565 8.53417 16.836 4.65039 11.9998 4.65039C7.16366 4.65039 3.24316 8.53417 3.24316 13.325C3.24316 18.1159 7.16366 21.9997 11.9998 21.9997Z" fill="#1C274C"/>
<path id="Vector_2" d="M11.9993 8.74707C12.4023 8.74707 12.729 9.07072 12.729 9.46996V13.0259L14.9477 15.2238C15.2326 15.5061 15.2326 15.9638 14.9477 16.2461C14.6627 16.5285 14.2006 16.5285 13.9157 16.2461L11.4833 13.8365C11.3464 13.701 11.2695 13.5171 11.2695 13.3254V9.46996C11.2695 9.07072 11.5962 8.74707 11.9993 8.74707Z" fill="#1C274C"/>
<g id="Vector_3">
<path fill-rule="evenodd" clip-rule="evenodd" d="M8.2405 2.33986C8.45409 2.67841 8.3502 3.1244 8.00844 3.33599L4.11657 5.74562C3.77481 5.95722 3.32461 5.8543 3.11102 5.51574C2.89742 5.17718 3.00131 4.7312 3.34307 4.5196L7.23494 2.10998C7.5767 1.89838 8.0269 2.0013 8.2405 2.33986Z" fill="#1C274C"/>
<path fill-rule="evenodd" clip-rule="evenodd" d="M15.7595 2.33985C15.9731 2.0013 16.4233 1.89838 16.7651 2.10998L20.6569 4.5196C20.9987 4.7312 21.1026 5.17719 20.889 5.51574C20.6754 5.8543 20.2252 5.95722 19.8834 5.74562L15.9916 3.33599C15.6498 3.1244 15.5459 2.67841 15.7595 2.33985Z" fill="#1C274C"/>
</g>
</g>
</svg>
