<svg width="24" height="24" viewBox="0 0 24 24" fill="none" xmlns="http://www.w3.org/2000/svg">
<g id="Outline / Money / Bill Check ">
<path id="Vector (Stroke)" fill-rule="evenodd" clip-rule="evenodd" d="M7.09878 1.25004C7.14683 1.25006 7.19559 1.25008 7.24508 1.25008H16.7551C16.8045 1.25008 16.8533 1.25006 16.9014 1.25004C17.9181 1.2496 18.6178 1.24929 19.2072 1.45435C20.3201 1.84161 21.1842 2.73726 21.5547 3.86559L20.8421 4.09954L21.5547 3.86559C21.7507 4.46271 21.7505 5.17254 21.7501 6.22655C21.7501 6.27372 21.7501 6.32158 21.7501 6.37014V20.3743C21.7501 21.8395 20.0231 22.7118 18.8857 21.671C18.8062 21.5983 18.694 21.5983 18.6145 21.671L18.1314 22.1131C17.2032 22.9624 15.7969 22.9624 14.8688 22.1131C14.5138 21.7882 13.9864 21.7882 13.6314 22.1131C12.7032 22.9624 11.2969 22.9624 10.3688 22.1131C10.0138 21.7882 9.48637 21.7882 9.13138 22.1131C8.20319 22.9624 6.79694 22.9624 5.86875 22.1131L5.38566 21.671C5.30618 21.5983 5.19395 21.5983 5.11448 21.671C3.97705 22.7118 2.25007 21.8395 2.25007 20.3743V6.37014C2.25007 6.32158 2.25005 6.27372 2.25003 6.22655C2.24965 5.17255 2.24939 4.46271 2.44545 3.86559C2.81591 2.73726 3.68002 1.84161 4.79298 1.45435C5.3823 1.24929 6.08203 1.2496 7.09878 1.25004ZM7.24508 2.75008C6.024 2.75008 5.6034 2.76057 5.28593 2.87103C4.62655 3.10047 4.09919 3.63728 3.8706 4.3335C3.75951 4.67183 3.75007 5.11796 3.75007 6.37014V20.3743C3.75007 20.4933 3.80999 20.5661 3.88517 20.6009C3.92434 20.619 3.96264 20.6237 3.99456 20.6194C4.0227 20.6156 4.05911 20.6035 4.10185 20.5644C4.75453 19.9671 5.74561 19.9671 6.39828 20.5644L6.88138 21.0065C7.23637 21.3313 7.76377 21.3313 8.11875 21.0065C9.04694 20.1571 10.4532 20.1571 11.3814 21.0065C11.7364 21.3313 12.2638 21.3313 12.6188 21.0065C13.5469 20.1571 14.9532 20.1571 15.8814 21.0065C16.2364 21.3313 16.7638 21.3313 17.1188 21.0065L17.6019 20.5644C18.2545 19.9671 19.2456 19.9671 19.8983 20.5644C19.941 20.6035 19.9774 20.6156 20.0056 20.6194C20.0375 20.6237 20.0758 20.619 20.115 20.6009C20.1901 20.5661 20.2501 20.4934 20.2501 20.3743V6.37014C20.2501 5.11797 20.2406 4.67183 20.1295 4.3335C19.9009 3.63728 19.3736 3.10047 18.7142 2.87103C18.3967 2.76057 17.9761 2.75008 16.7551 2.75008H7.24508ZM14.9996 7.44063C15.3086 7.7165 15.3354 8.19062 15.0595 8.49959L11.4881 12.4996C11.3458 12.659 11.1423 12.7501 10.9286 12.7501C10.715 12.7501 10.5115 12.659 10.3692 12.4996L8.94061 10.8996C8.66474 10.5906 8.69158 10.1165 9.00056 9.84063C9.30953 9.56476 9.78365 9.59159 10.0595 9.90057L10.9286 10.874L13.9406 7.50057C14.2165 7.19159 14.6906 7.16476 14.9996 7.44063ZM6.75007 15.5001C6.75007 15.0859 7.08585 14.7501 7.50007 14.7501H16.5001C16.9143 14.7501 17.2501 15.0859 17.2501 15.5001C17.2501 15.9143 16.9143 16.2501 16.5001 16.2501H7.50007C7.08585 16.2501 6.75007 15.9143 6.75007 15.5001Z" fill="#1C274C"/>
</g>
</svg>
