<svg width="24" height="24" viewBox="0 0 24 24" fill="none" xmlns="http://www.w3.org/2000/svg">
<g id="Outline / Money / Tag Price">
<path id="Vector (Stroke)" fill-rule="evenodd" clip-rule="evenodd" d="M11.2383 2.79888C10.6243 2.88003 9.86602 3.0542 8.7874 3.30311L7.55922 3.58654C6.6482 3.79677 6.02081 3.94252 5.54162 4.10698C5.07899 4.26576 4.81727 4.42228 4.61978 4.61978C4.42228 4.81727 4.26576 5.07899 4.10698 5.54162C3.94252 6.02082 3.79677 6.6482 3.58654 7.55922L3.30311 8.7874C3.0542 9.86602 2.88003 10.6243 2.79888 11.2383C2.71982 11.8365 2.73805 12.2413 2.84358 12.6092C2.94911 12.9772 3.14817 13.3301 3.53226 13.7954C3.92651 14.2731 4.47607 14.8238 5.25882 15.6066L7.08845 17.4362C8.44794 18.7957 9.41533 19.7608 10.247 20.3954C11.0614 21.0167 11.6569 21.25 12.2623 21.25C12.8678 21.25 13.4633 21.0167 14.2776 20.3954C15.1093 19.7608 16.0767 18.7957 17.4362 17.4362C18.7957 16.0767 19.7608 15.1093 20.3954 14.2776C21.0167 13.4633 21.25 12.8678 21.25 12.2623C21.25 11.6569 21.0167 11.0614 20.3954 10.247C19.7608 9.41533 18.7957 8.44794 17.4362 7.08845L15.6066 5.25882C14.8238 4.47607 14.2731 3.92651 13.7954 3.53226C13.3301 3.14817 12.9772 2.94911 12.6092 2.84358C12.2413 2.73805 11.8365 2.71982 11.2383 2.79888ZM11.0418 1.31181C11.7591 1.21701 12.3881 1.21969 13.0227 1.4017C13.6574 1.58372 14.1922 1.91482 14.7502 2.37538C15.2897 2.8206 15.8905 3.42138 16.641 4.17193L18.5368 6.06774C19.8474 7.37835 20.8851 8.41598 21.5879 9.33714C22.311 10.2849 22.75 11.197 22.75 12.2623C22.75 13.3276 22.311 14.2397 21.5879 15.1875C20.8851 16.1087 19.8474 17.1463 18.5368 18.4569L18.4569 18.5368C17.1463 19.8474 16.1087 20.8851 15.1875 21.5879C14.2397 22.311 13.3276 22.75 12.2623 22.75C11.197 22.75 10.2849 22.311 9.33714 21.5879C8.41598 20.8851 7.37833 19.8474 6.06771 18.5368L4.17196 16.641C3.4214 15.8905 2.82061 15.2897 2.37538 14.7502C1.91482 14.1922 1.58372 13.6574 1.4017 13.0227C1.21969 12.3881 1.21701 11.7591 1.31181 11.0418C1.40345 10.3484 1.59451 9.52047 1.83319 8.48622L2.13385 7.18334C2.33302 6.32023 2.49543 5.61639 2.68821 5.05469C2.88955 4.46806 3.14313 3.9751 3.55912 3.55912C3.9751 3.14313 4.46806 2.88955 5.05469 2.68821C5.61639 2.49543 6.32023 2.33302 7.18335 2.13385L8.48622 1.83319C9.52047 1.59451 10.3484 1.40345 11.0418 1.31181ZM9.49092 7.99522C9.00276 7.50706 8.2113 7.50706 7.72315 7.99522C7.23499 8.48337 7.23499 9.27483 7.72315 9.76299C8.2113 10.2511 9.00276 10.2511 9.49092 9.76299C9.97907 9.27483 9.97907 8.48337 9.49092 7.99522ZM6.66249 6.93456C7.73643 5.86062 9.47763 5.86062 10.5516 6.93456C11.6255 8.0085 11.6255 9.7497 10.5516 10.8236C9.47763 11.8976 7.73643 11.8976 6.66249 10.8236C5.58855 9.7497 5.58855 8.0085 6.66249 6.93456ZM12.9929 12.107C12.816 12.1053 12.5835 12.1847 12.3841 12.3841C11.9965 12.7716 12.0985 13.1591 12.2073 13.268C12.3161 13.3768 12.7037 13.4787 13.0912 13.0912C13.8752 12.3071 15.2289 12.0469 16.0964 12.9144C16.7694 13.5874 16.7636 14.553 16.3612 15.3182C16.5623 15.6104 16.533 16.0134 16.2732 16.2732C16.0142 16.5321 15.6131 16.5621 15.3212 16.3633C14.8643 16.6061 14.3445 16.6971 13.849 16.5952C13.4433 16.5119 13.1819 16.1153 13.2653 15.7096C13.3487 15.3039 13.7452 15.0426 14.1509 15.1259C14.3281 15.1623 14.6137 15.1042 14.859 14.859C15.2465 14.4714 15.1446 14.0839 15.0357 13.9751C14.9269 13.8662 14.5394 13.7643 14.1518 14.1518C13.3678 14.9359 12.0141 15.1961 11.1466 14.3286C10.4737 13.6557 10.4794 12.6901 10.8818 11.9248C10.6807 11.6327 10.7101 11.2297 10.9699 10.9699C11.2287 10.711 11.6298 10.6809 11.9216 10.8796C12.2615 10.699 12.6349 10.6035 13.007 10.607C13.4212 10.6109 13.7538 10.9499 13.7499 11.3641C13.746 11.7783 13.4071 12.1109 12.9929 12.107Z" fill="#1C274C"/>
</g>
</svg>
