<svg width="24" height="24" viewBox="0 0 24 24" fill="none" xmlns="http://www.w3.org/2000/svg">
<g id="Outline / Money / Ticker Star">
<path id="Vector (Stroke)" fill-rule="evenodd" clip-rule="evenodd" d="M9.94001 3.25H14.0601C15.9014 3.24998 17.3596 3.24997 18.5007 3.40311C19.6749 3.56068 20.6251 3.89264 21.3746 4.64075C22.4888 5.7529 22.6946 7.32752 22.7496 9.47524C22.7685 10.2115 22.186 10.6634 21.699 10.7908C21.1601 10.9317 20.7648 11.4214 20.7648 12C20.7648 12.5786 21.1601 13.0683 21.699 13.2092C22.186 13.3366 22.7685 13.7885 22.7496 14.5248C22.6946 16.6725 22.4888 18.2471 21.3746 19.3592C20.6251 20.1074 19.6749 20.4393 18.5007 20.5969C17.3596 20.75 15.9014 20.75 14.0601 20.75H9.94001C8.09869 20.75 6.64052 20.75 5.49938 20.5969C4.3252 20.4393 3.37495 20.1074 2.62545 19.3592C1.51125 18.2471 1.30545 16.6725 1.25045 14.5248C1.23159 13.7885 1.8141 13.3366 2.30104 13.2092C2.84 13.0683 3.23524 12.5786 3.23524 12C3.23524 11.4214 2.84 10.9317 2.30104 10.7908C1.8141 10.6634 1.23159 10.2115 1.25045 9.47524C1.30545 7.32752 1.51125 5.7529 2.62545 4.64075C3.37495 3.89264 4.3252 3.56068 5.49938 3.40311C6.64052 3.24997 8.09869 3.24998 9.94001 3.25ZM5.69889 4.88978C4.69053 5.0251 4.10936 5.27894 3.68512 5.70239C3.0573 6.32906 2.81745 7.27767 2.75425 9.35995C3.89772 9.69337 4.73524 10.7475 4.73524 12C4.73524 13.2525 3.89772 14.3066 2.75425 14.6401C2.81745 16.7223 3.0573 17.6709 3.68512 18.2976C4.10936 18.7211 4.69053 18.9749 5.69889 19.1102C6.72868 19.2484 8.08607 19.25 9.99634 19.25H14.0037C15.914 19.25 17.2714 19.2484 18.3012 19.1102C19.3095 18.9749 19.8907 18.7211 20.3149 18.2976C20.9428 17.6709 21.1826 16.7223 21.2458 14.6401C20.1024 14.3066 19.2648 13.2525 19.2648 12C19.2648 10.7475 20.1024 9.69337 21.2458 9.35995C21.1826 7.27767 20.9428 6.32906 20.3149 5.70239C19.8907 5.27894 19.3095 5.0251 18.3012 4.88978C17.2714 4.75159 15.914 4.75 14.0037 4.75H9.99634C8.08607 4.75 6.72868 4.75159 5.69889 4.88978ZM12 10.0345C11.9419 10.1351 11.8773 10.251 11.8011 10.3877L11.7028 10.564C11.6958 10.5765 11.6884 10.5901 11.6804 10.6047C11.6019 10.7483 11.4719 10.9861 11.255 11.1507C11.0336 11.3188 10.7673 11.3766 10.6116 11.4104C10.596 11.4138 10.5815 11.4169 10.5683 11.4199L10.3774 11.4631C10.2022 11.5028 10.0595 11.5351 9.93754 11.5658C10.0169 11.6634 10.12 11.7847 10.2541 11.9415L10.3842 12.0937C10.3934 12.1045 10.4035 12.1161 10.4142 12.1284C10.5221 12.2527 10.6964 12.4535 10.777 12.7126C10.8566 12.9687 10.8291 13.2324 10.8118 13.3988C10.8101 13.4154 10.8084 13.431 10.807 13.4456L10.7874 13.6487C10.7691 13.8369 10.7549 13.9872 10.7455 14.1094C10.8497 14.0635 10.9682 14.0089 11.1091 13.9441L11.2878 13.8618C11.3001 13.8561 11.3136 13.8498 11.3282 13.8429C11.4717 13.7752 11.7214 13.6575 12 13.6575C12.2787 13.6575 12.5284 13.7752 12.6719 13.8429C12.6865 13.8498 12.7 13.8561 12.7123 13.8618L12.891 13.9441C13.0318 14.0089 13.1504 14.0635 13.2546 14.1094C13.2451 13.9872 13.231 13.8369 13.2127 13.6487L13.193 13.4456C13.1916 13.4311 13.19 13.4154 13.1883 13.3988C13.1709 13.2324 13.1435 12.9687 13.2231 12.7126C13.3037 12.4535 13.478 12.2527 13.5859 12.1284C13.5966 12.1161 13.6066 12.1045 13.6159 12.0937L13.746 11.9415C13.8801 11.7847 13.9832 11.6634 14.0625 11.5658C13.9405 11.5351 13.7978 11.5028 13.6227 11.4631L13.4318 11.4199C13.4185 11.4169 13.404 11.4138 13.3885 11.4104C13.2327 11.3766 12.9664 11.3188 12.7451 11.1507C12.5282 10.9861 12.3982 10.7483 12.3196 10.6047C12.3117 10.5901 12.3042 10.5765 12.2973 10.564L12.199 10.3877C12.1228 10.251 12.0582 10.1351 12 10.0345ZM11.0135 8.79963C11.1857 8.57481 11.4983 8.25 12 8.25C12.5017 8.25 12.8144 8.57481 12.9865 8.79963C13.1509 9.01421 13.3164 9.31124 13.486 9.61577C13.4937 9.62961 13.5015 9.64347 13.5092 9.65734L13.6075 9.83369C13.6303 9.87459 13.6482 9.90677 13.6639 9.9343C13.6913 9.94071 13.7231 9.94792 13.7628 9.95691L13.9537 10.0001C13.9693 10.0036 13.985 10.0072 14.0006 10.0107C14.3284 10.0848 14.6542 10.1584 14.9043 10.2569C15.1804 10.3658 15.5547 10.5777 15.699 11.0416C15.8407 11.4973 15.6619 11.8834 15.5057 12.1315C15.3611 12.3611 15.1414 12.6179 14.9165 12.8807C14.9064 12.8926 14.8962 12.9045 14.886 12.9164L14.7559 13.0686C14.7214 13.1089 14.6954 13.1394 14.6735 13.1657C14.6765 13.202 14.6806 13.2443 14.686 13.3009L14.7057 13.504C14.7072 13.5195 14.7087 13.5349 14.7102 13.5504C14.7444 13.9023 14.7774 14.2424 14.7653 14.5145C14.7526 14.7997 14.6841 15.2315 14.297 15.5254C13.8976 15.8286 13.4565 15.7626 13.1767 15.6824C12.919 15.6086 12.6145 15.4682 12.3077 15.3269C12.2931 15.3201 12.2784 15.3134 12.2637 15.3066L12.0849 15.2243C12.0515 15.2089 12.024 15.1963 12 15.1854C11.9761 15.1963 11.9486 15.2089 11.9152 15.2243L11.7364 15.3066C11.7217 15.3134 11.707 15.3201 11.6923 15.3269C11.3856 15.4682 11.0811 15.6086 10.8233 15.6824C10.5436 15.7626 10.1025 15.8286 9.7031 15.5254C9.31593 15.2315 9.24747 14.7997 9.23476 14.5145C9.22265 14.2424 9.25567 13.9023 9.28985 13.5504C9.29135 13.5349 9.29285 13.5195 9.29435 13.504L9.31403 13.3009C9.31952 13.2443 9.3236 13.202 9.32658 13.1657C9.30469 13.1394 9.2787 13.1089 9.24421 13.0686L9.11407 12.9164C9.10389 12.9045 9.09371 12.8926 9.08354 12.8807C8.85863 12.6179 8.63894 12.3611 8.4944 12.1315C8.33821 11.8834 8.15938 11.4973 8.30109 11.0416C8.44535 10.5777 8.81966 10.3658 9.0958 10.2569C9.34589 10.1584 9.67168 10.0848 9.99949 10.0107C10.0151 10.0072 10.0308 10.0036 10.0464 10.0001L10.2373 9.95691C10.277 9.94792 10.3088 9.94071 10.3361 9.9343C10.3518 9.90677 10.3698 9.87459 10.3926 9.83369L10.4909 9.65734C10.4986 9.64347 10.5063 9.62961 10.5141 9.61576C10.6837 9.31124 10.8492 9.01421 11.0135 8.79963Z" fill="#1C274C"/>
</g>
</svg>
