<svg width="24" height="24" viewBox="0 0 24 24" fill="none" xmlns="http://www.w3.org/2000/svg">
<g id="Outline / Transport, Parts, Service / Electric Refueling">
<path id="Vector" fill-rule="evenodd" clip-rule="evenodd" d="M8.94513 1.25H10.0549C11.4225 1.24998 12.5248 1.24996 13.3918 1.36652C14.2919 1.48754 15.0497 1.74643 15.6517 2.34835C16.2536 2.95027 16.5125 3.70814 16.6335 4.60825C16.75 5.47522 16.75 6.57754 16.75 7.94513V16.25H17.5714C18.7746 16.25 19.75 17.2254 19.75 18.4286V18.5C19.75 18.9142 20.0858 19.25 20.5 19.25C20.9142 19.25 21.25 18.9142 21.25 18.5V14.5406L19.7885 14.0534C18.8697 13.7471 18.25 12.8873 18.25 11.9189V9.5C18.25 8.25736 19.2574 7.25 20.5 7.25H21.2418C21.1931 6.68019 20.9289 6.14934 20.5019 5.76651C20.4585 5.72766 20.409 5.68771 20.2646 5.57212L19.0315 4.58565C18.708 4.3269 18.6556 3.85493 18.9143 3.53148C19.1731 3.20803 19.6451 3.15559 19.9685 3.41435L21.2177 4.41372C21.3401 4.51159 21.4245 4.57912 21.5031 4.64959C22.2422 5.31211 22.6884 6.24061 22.7441 7.23158C22.75 7.33699 22.75 7.44508 22.75 7.60175V13.9825C22.7503 13.9941 22.7503 14.0057 22.75 14.0173V18.5C22.75 19.7426 21.7426 20.75 20.5 20.75C19.2574 20.75 18.25 19.7426 18.25 18.5V18.4286C18.25 18.0538 17.9462 17.75 17.5714 17.75H16.75V21.25H17C17.4142 21.25 17.75 21.5858 17.75 22C17.75 22.4142 17.4142 22.75 17 22.75H2C1.58579 22.75 1.25 22.4142 1.25 22C1.25 21.5858 1.58579 21.25 2 21.25H2.25L2.25 7.94513C2.24998 6.57754 2.24996 5.47522 2.36652 4.60825C2.48754 3.70814 2.74643 2.95027 3.34835 2.34835C3.95027 1.74643 4.70814 1.48754 5.60825 1.36652C6.47522 1.24996 7.57754 1.24998 8.94513 1.25ZM3.75 21.25H15.25V8C15.25 6.56459 15.2484 5.56347 15.1469 4.80812C15.0482 4.07435 14.8678 3.68577 14.591 3.40901C14.3142 3.13225 13.9257 2.9518 13.1919 2.85315C12.4365 2.75159 11.4354 2.75 10 2.75H9C7.56458 2.75 6.56347 2.75159 5.80812 2.85315C5.07434 2.9518 4.68577 3.13225 4.40901 3.40901C4.13225 3.68577 3.9518 4.07435 3.85315 4.80812C3.75159 5.56347 3.75 6.56459 3.75 8V21.25ZM21.25 12.9594V8.75H20.5C20.0858 8.75 19.75 9.08579 19.75 9.5V11.9189C19.75 12.2417 19.9566 12.5283 20.2628 12.6304L21.25 12.9594ZM9.88587 9.35688C10.2411 9.56999 10.3562 10.0307 10.1431 10.3859L9.32464 11.75H11C11.2702 11.75 11.5195 11.8953 11.6526 12.1305C11.7858 12.3656 11.7821 12.6542 11.6431 12.8859L10.1431 15.3859C9.93001 15.7411 9.46931 15.8562 9.11413 15.6431C8.75894 15.43 8.64377 14.9693 8.85688 14.6141L9.67536 13.25H8C7.7298 13.25 7.48048 13.1047 7.34735 12.8695C7.21422 12.6344 7.21786 12.3458 7.35688 12.1141L8.85688 9.61413C9.06999 9.25894 9.53069 9.14377 9.88587 9.35688Z" fill="#1C274C"/>
</g>
</svg>
