<svg width="24" height="24" viewBox="0 0 24 24" fill="none" xmlns="http://www.w3.org/2000/svg">
<g id="Outline / Transport, Parts, Service / Gas Station">
<path id="Vector" fill-rule="evenodd" clip-rule="evenodd" d="M8.94513 1.25H10.0549C11.4225 1.24998 12.5248 1.24996 13.3918 1.36652C14.2919 1.48754 15.0497 1.74643 15.6517 2.34835C16.2536 2.95027 16.5125 3.70814 16.6335 4.60825C16.75 5.47522 16.75 6.57754 16.75 7.94513V16.25H17.5714C18.7746 16.25 19.75 17.2254 19.75 18.4286V18.5C19.75 18.9142 20.0858 19.25 20.5 19.25C20.9142 19.25 21.25 18.9142 21.25 18.5V14.5406L19.7885 14.0534C18.8697 13.7471 18.25 12.8873 18.25 11.9189V9.5C18.25 8.25736 19.2574 7.25 20.5 7.25H21.2418C21.1931 6.68019 20.9289 6.14934 20.5019 5.76651C20.4585 5.72766 20.409 5.68771 20.2646 5.57212L19.0315 4.58565C18.708 4.3269 18.6556 3.85493 18.9143 3.53148C19.1731 3.20803 19.6451 3.15559 19.9685 3.41435L21.2177 4.41372C21.3401 4.51159 21.4245 4.57912 21.5031 4.64959C22.2422 5.31211 22.6884 6.24061 22.7441 7.23158C22.75 7.33699 22.75 7.44508 22.75 7.60175V13.9825C22.7503 13.9941 22.7503 14.0057 22.75 14.0173V18.5C22.75 19.7426 21.7426 20.75 20.5 20.75C19.2574 20.75 18.25 19.7426 18.25 18.5V18.4286C18.25 18.0538 17.9462 17.75 17.5714 17.75H16.75V21.25H17C17.4142 21.25 17.75 21.5858 17.75 22C17.75 22.4142 17.4142 22.75 17 22.75H2C1.58579 22.75 1.25 22.4142 1.25 22C1.25 21.5858 1.58579 21.25 2 21.25H2.25L2.25 7.94513C2.24998 6.57754 2.24996 5.47522 2.36652 4.60825C2.48754 3.70814 2.74643 2.95027 3.34835 2.34835C3.95027 1.74643 4.70814 1.48754 5.60825 1.36652C6.47522 1.24996 7.57754 1.24998 8.94513 1.25ZM3.75 21.25H15.25V8C15.25 6.56459 15.2484 5.56347 15.1469 4.80812C15.0482 4.07435 14.8678 3.68577 14.591 3.40901C14.3142 3.13225 13.9257 2.9518 13.1919 2.85315C12.4365 2.75159 11.4354 2.75 10 2.75H9C7.56458 2.75 6.56347 2.75159 5.80812 2.85315C5.07434 2.9518 4.68577 3.13225 4.40901 3.40901C4.13225 3.68577 3.9518 4.07435 3.85315 4.80812C3.75159 5.56347 3.75 6.56459 3.75 8V21.25ZM21.25 12.9594V8.75H20.5C20.0858 8.75 19.75 9.08579 19.75 9.5V11.9189C19.75 12.2417 19.9566 12.5283 20.2628 12.6304L21.25 12.9594ZM7.95525 5.25C7.97013 5.25 7.98504 5.25 8 5.25H11C11.015 5.25 11.0299 5.25 11.0448 5.25C11.4776 5.24995 11.8744 5.2499 12.1972 5.2933C12.5527 5.34109 12.9284 5.45354 13.2374 5.76256C13.5465 6.07159 13.6589 6.44731 13.7067 6.80279C13.7501 7.12561 13.7501 7.52244 13.75 7.95526V8.04474C13.7501 8.47756 13.7501 8.8744 13.7067 9.19721C13.6589 9.55269 13.5465 9.92841 13.2374 10.2374C12.9284 10.5465 12.5527 10.6589 12.1972 10.7067C11.8744 10.7501 11.4776 10.7501 11.0447 10.75C11.0299 10.75 11.015 10.75 11 10.75H8C7.98504 10.75 7.97013 10.75 7.95526 10.75C7.52244 10.7501 7.12561 10.7501 6.80279 10.7067C6.44731 10.6589 6.07159 10.5465 5.76256 10.2374C5.45354 9.92841 5.34109 9.55269 5.2933 9.19721C5.2499 8.8744 5.24995 8.47757 5.25 8.04475C5.25 8.02988 5.25 8.01496 5.25 8C5.25 7.98504 5.25 7.97013 5.25 7.95525C5.24995 7.52244 5.2499 7.1256 5.2933 6.80279C5.34109 6.44731 5.45354 6.07159 5.76256 5.76256C6.07159 5.45354 6.44731 5.34109 6.80279 5.2933C7.1256 5.2499 7.52243 5.24995 7.95525 5.25ZM6.82328 6.82317C6.82361 6.8229 6.82368 6.82277 6.82328 6.82317V6.82317ZM6.82567 6.82186L6.82328 6.82317L6.82186 6.82567C6.82085 6.82761 6.81923 6.83092 6.81716 6.83597C6.8082 6.85775 6.79291 6.90611 6.77992 7.00267C6.75159 7.21339 6.75 7.50739 6.75 8C6.75 8.49261 6.75159 8.78661 6.77992 8.99734C6.79291 9.09389 6.8082 9.14226 6.81716 9.16404C6.81923 9.16908 6.82085 9.1724 6.82186 9.17433L6.82324 9.17676L6.82567 9.17814C6.8276 9.17915 6.83092 9.18077 6.83596 9.18284C6.85774 9.1918 6.90611 9.2071 7.00266 9.22008C7.21339 9.24841 7.50739 9.25 8 9.25H11C11.4926 9.25 11.7866 9.24841 11.9973 9.22008C12.0939 9.2071 12.1423 9.1918 12.164 9.18284C12.1691 9.18077 12.1724 9.17915 12.1743 9.17814L12.1768 9.17676L12.1781 9.17433C12.1791 9.1724 12.1808 9.16908 12.1828 9.16404C12.1918 9.14226 12.2071 9.09389 12.2201 8.99734C12.2484 8.78661 12.25 8.49261 12.25 8C12.25 7.50739 12.2484 7.21339 12.2201 7.00267C12.2071 6.90611 12.1918 6.85775 12.1828 6.83597C12.1808 6.83092 12.1791 6.82761 12.1781 6.82567L12.1768 6.82324L12.1743 6.82186C12.1724 6.82085 12.1691 6.81924 12.164 6.81716C12.1423 6.8082 12.0939 6.79291 11.9973 6.77992C11.7866 6.75159 11.4926 6.75 11 6.75H8C7.50739 6.75 7.21339 6.75159 7.00266 6.77992C6.90611 6.79291 6.85774 6.8082 6.83596 6.81716C6.83092 6.81924 6.8276 6.82085 6.82567 6.82186ZM6.82324 9.17676C6.82297 9.17643 6.82284 9.17636 6.82324 9.17676V9.17676ZM12.1768 9.17676C12.1767 9.17678 12.1768 9.17678 12.1768 9.17676V9.17676ZM12.1768 9.17676C12.1767 9.17678 12.1768 9.17678 12.1768 9.17676V9.17676ZM6.25 17C6.25 16.5858 6.58579 16.25 7 16.25H12C12.4142 16.25 12.75 16.5858 12.75 17C12.75 17.4142 12.4142 17.75 12 17.75H7C6.58579 17.75 6.25 17.4142 6.25 17Z" fill="#1C274C"/>
</g>
</svg>
