<svg width="24" height="24" viewBox="0 0 24 24" fill="none" xmlns="http://www.w3.org/2000/svg">
<g id="Outline / Essentional, UI / Augmented Reality">
<path id="Vector" fill-rule="evenodd" clip-rule="evenodd" d="M11.9426 1.25H12.0574C14.3658 1.24999 16.1748 1.24998 17.5863 1.43975C19.031 1.63399 20.1711 2.03933 21.0659 2.93414C21.9607 3.82895 22.366 4.96897 22.5603 6.41371C22.75 7.82519 22.75 9.63423 22.75 11.9426V12.0574C22.75 14.3658 22.75 16.1748 22.5603 17.5863C22.366 19.031 21.9607 20.1711 21.0659 21.0659C20.1711 21.9607 19.031 22.366 17.5863 22.5603C16.1748 22.75 14.3658 22.75 12.0574 22.75H11.9426C9.63423 22.75 7.82519 22.75 6.41371 22.5603C4.96897 22.366 3.82895 21.9607 2.93414 21.0659C2.03933 20.1711 1.63399 19.031 1.43975 17.5863C1.24998 16.1748 1.24999 14.3658 1.25 12.0574V11.9426C1.24999 9.63423 1.24998 7.82519 1.43975 6.41371C1.63399 4.96897 2.03933 3.82895 2.93414 2.93414C3.82895 2.03933 4.96897 1.63399 6.41371 1.43975C7.82519 1.24998 9.63423 1.24999 11.9426 1.25ZM6.61358 2.92637C5.33517 3.09825 4.56445 3.42514 3.9948 3.9948C3.42514 4.56445 3.09825 5.33517 2.92637 6.61358C2.75159 7.91356 2.75 9.62177 2.75 12C2.75 14.3782 2.75159 16.0864 2.92637 17.3864C3.09825 18.6648 3.42514 19.4355 3.9948 20.0052C4.56445 20.5749 5.33517 20.9018 6.61358 21.0736C7.91356 21.2484 9.62177 21.25 12 21.25C14.3782 21.25 16.0864 21.2484 17.3864 21.0736C18.6648 20.9018 19.4355 20.5749 20.0052 20.0052C20.5749 19.4355 20.9018 18.6648 21.0736 17.3864C21.2484 16.0864 21.25 14.3782 21.25 12C21.25 9.62177 21.2484 7.91356 21.0736 6.61358C20.9018 5.33517 20.5749 4.56445 20.0052 3.9948C19.4355 3.42514 18.6648 3.09825 17.3864 2.92637C16.0864 2.75159 14.3782 2.75 12 2.75C9.62177 2.75 7.91356 2.75159 6.61358 2.92637Z" fill="#1C274C"/>
<path id="Vector_2" fill-rule="evenodd" clip-rule="evenodd" d="M8.5002 7.25C8.82824 7.25 9.11821 7.46319 9.21606 7.77629L11.7161 15.7763C11.8396 16.1717 11.6193 16.5923 11.2239 16.7159C10.8285 16.8394 10.4079 16.6191 10.2843 16.2237L9.57381 13.95H7.42659L6.71606 16.2237C6.59251 16.6191 6.17185 16.8394 5.77649 16.7159C5.38114 16.5923 5.16079 16.1717 5.28434 15.7763L7.78434 7.77629C7.88219 7.46319 8.17216 7.25 8.5002 7.25ZM7.89534 12.45H9.10506L8.5002 10.5145L7.89534 12.45ZM13.2502 8C13.2502 7.58579 13.586 7.25 14.0002 7.25H16.0002C17.519 7.25 18.7502 8.48122 18.7502 10C18.7502 11.2469 17.9203 12.3 16.7828 12.637L18.6362 15.6025C18.8557 15.9538 18.749 16.4165 18.3977 16.636C18.0464 16.8555 17.5837 16.7488 17.3642 16.3975L15.0845 12.75H14.7502V16C14.7502 16.4142 14.4144 16.75 14.0002 16.75C13.586 16.75 13.2502 16.4142 13.2502 16V8ZM14.7502 8.75V11.25H16.0002C16.6906 11.25 17.2502 10.6904 17.2502 10C17.2502 9.30964 16.6906 8.75 16.0002 8.75H14.7502Z" fill="#1C274C"/>
</g>
</svg>
