<svg width="24" height="24" viewBox="0 0 24 24" fill="none" xmlns="http://www.w3.org/2000/svg">
<g id="Outline / Essentional, UI / Bolt">
<path id="Vector" fill-rule="evenodd" clip-rule="evenodd" d="M20.5279 10.3736C20.1572 9.73163 19.4779 9.5206 18.8294 9.42992C18.1757 9.33852 17.3008 9.33855 16.2426 9.33858L16.1824 9.33858C15.5523 9.33858 15.1403 9.33237 14.8402 9.29064C14.5688 9.2529 14.4825 9.19704 14.4456 9.16446C14.4187 9.13635 14.3706 9.07063 14.3379 8.83366C14.2993 8.55425 14.2976 8.1711 14.2976 7.55704V7.18255C14.2977 5.59503 14.2977 4.32329 14.1755 3.4166C14.0608 2.56554 13.7882 1.60969 12.844 1.32035C11.9164 1.03608 11.1384 1.64564 10.5337 2.27405C9.88942 2.9435 9.12413 3.97895 8.16596 5.27538L5.02896 9.51969C4.41863 10.3454 3.90984 11.0337 3.60669 11.6029C3.3028 12.1735 3.08164 12.8509 3.41872 13.5268L3.41989 13.5293L3.42344 13.5365L3.42748 13.5445L3.43146 13.5522L3.4358 13.5603L3.44023 13.5685L3.44441 13.576L3.44884 13.5838L3.45289 13.5907L3.45438 13.5931C3.82188 14.2296 4.49825 14.4524 5.1526 14.5523C5.82693 14.6553 6.72671 14.6619 7.81795 14.6619C8.45456 14.6619 8.86048 14.6633 9.1586 14.7013C9.42195 14.7349 9.50071 14.7867 9.53447 14.8165C9.56438 14.8478 9.61682 14.9207 9.6538 15.1663C9.69612 15.4473 9.70276 15.8364 9.70275 16.4435L9.70274 16.8178C9.7027 18.4053 9.70266 19.6771 9.82483 20.5838C9.9395 21.4349 10.2121 22.3907 11.1563 22.6801C12.0839 22.9644 12.8619 22.3548 13.4667 21.7264C14.1109 21.0569 14.8762 20.0215 15.8344 18.725L18.9338 14.5317C19.5646 13.6783 20.0834 12.9652 20.3893 12.3718C20.6887 11.7911 20.8976 11.1097 20.5636 10.44L20.5624 10.4376L20.5589 10.4303L20.5548 10.4223L20.5508 10.4146L20.5465 10.4064L20.542 10.3982L20.5378 10.3907L20.5334 10.3829L20.5293 10.3759L20.5279 10.3736ZM11.6145 3.31416C11.0465 3.90435 10.3387 4.85927 9.335 6.21733L6.27286 10.3604C5.61517 11.2502 5.17513 11.849 4.93062 12.3081C4.81161 12.5315 4.76693 12.6725 4.75421 12.7578C4.74635 12.8105 4.75115 12.8343 4.75742 12.8496C4.78161 12.8852 4.88663 12.9943 5.379 13.0695C5.9169 13.1516 6.69032 13.1619 7.81795 13.1619L7.86392 13.1619C8.44106 13.1618 8.94393 13.1618 9.3483 13.2134C9.78148 13.2686 10.2118 13.3942 10.568 13.7293L10.5739 13.7348L10.5796 13.7404C10.9296 14.0839 11.0719 14.5099 11.1371 14.9429C11.1994 15.3568 11.2028 15.8658 11.2028 16.4435L11.2027 16.753C11.2027 18.42 11.2044 19.5894 11.3114 20.3835C11.3647 20.7789 11.4363 21.0108 11.505 21.1404C11.5564 21.2374 11.586 21.2438 11.5943 21.2456L11.5958 21.2459L11.5973 21.2464C11.6078 21.25 11.6446 21.2628 11.7583 21.2056C11.9003 21.1341 12.1032 20.98 12.3858 20.6863C12.9538 20.0961 13.6616 19.1412 14.6654 17.7831L17.7275 13.6401C18.3815 12.7553 18.8172 12.1478 19.0561 11.6845C19.2608 11.2873 19.2385 11.1528 19.2249 11.1171C19.2024 11.0843 19.1016 10.9826 18.6217 10.9155C18.0846 10.8404 17.3161 10.8386 16.1824 10.8386C15.5796 10.8386 15.0567 10.8352 14.6336 10.7763C14.1968 10.7156 13.7655 10.5841 13.4123 10.252L13.4065 10.2465L13.4008 10.2409C13.0476 9.89419 12.9114 9.46874 12.852 9.03887C12.7975 8.64454 12.7976 8.15622 12.7976 7.60538L12.7976 7.24733C12.7976 5.58044 12.7959 4.41099 12.6889 3.61692C12.6356 3.22153 12.564 2.98959 12.4954 2.86008C12.4439 2.76301 12.4143 2.75666 12.406 2.75487L12.4045 2.75451L12.403 2.75401C12.3925 2.7504 12.3557 2.73767 12.242 2.79487C12.1 2.86633 11.8972 3.02042 11.6145 3.31416Z" fill="#1C274C"/>
</g>
</svg>
