<svg width="24" height="24" viewBox="0 0 24 24" fill="none" xmlns="http://www.w3.org/2000/svg">
<g id="Outline / Essentional, UI / Hanger 2">
<path id="Vector" fill-rule="evenodd" clip-rule="evenodd" d="M10.2857 3.90909C10.2857 3.34219 10.8236 2.75 11.6597 2.75C12.4958 2.75 13.0337 3.34219 13.0337 3.90909C13.0337 4.22136 12.9223 4.49112 12.7402 4.68925C12.6273 4.81206 12.5028 4.93485 12.3609 5.07483L12.2797 5.15509C12.1111 5.32181 11.9231 5.51074 11.7513 5.71278C11.4859 6.02479 11.1984 6.43649 11.093 6.94251C10.4656 7.04826 9.85574 7.28792 9.31927 7.66529L2.22358 12.6566C1.29658 13.3086 1.05806 14.3591 1.39567 15.2392C1.72778 16.105 2.58964 16.75 3.70231 16.75H5.25877C5.24974 17.114 5.24976 17.5136 5.24977 17.948V18.052C5.24974 18.9505 5.24972 19.6997 5.32968 20.2945C5.41409 20.9223 5.59976 21.4891 6.05523 21.9445C6.5107 22.4 7.0775 22.5857 7.70529 22.6701C8.30007 22.7501 9.04928 22.75 9.94775 22.75H14.0518C14.9502 22.75 15.6995 22.7501 16.2943 22.6701C16.922 22.5857 17.4888 22.4 17.9443 21.9445C18.3998 21.4891 18.5855 20.9223 18.6699 20.2945C18.7498 19.6997 18.7498 18.9505 18.7498 18.052V17.948C18.7498 17.5136 18.7498 17.114 18.7408 16.75H20.2973C21.4219 16.75 22.2875 16.0928 22.6125 15.2165C22.9429 14.3256 22.6856 13.2692 21.736 12.629L14.3035 7.61866C13.8094 7.2856 13.2574 7.06682 12.6889 6.95888C12.7396 6.87796 12.8066 6.78721 12.8939 6.68456C13.0202 6.53616 13.1675 6.38672 13.3346 6.22141L13.4085 6.14851C13.5496 6.00942 13.7045 5.85668 13.8444 5.7044C14.2865 5.22354 14.5337 4.58928 14.5337 3.90909C14.5337 2.36727 13.1697 1.25 11.6597 1.25C10.1497 1.25 8.78566 2.36727 8.78566 3.90909C8.78566 4.3233 9.12145 4.65909 9.53566 4.65909C9.94987 4.65909 10.2857 4.3233 10.2857 3.90909ZM18.5857 15.25H20.2973C20.8056 15.25 21.103 14.9729 21.2061 14.6949C21.3038 14.4314 21.2543 14.1133 20.8976 13.8728L13.4651 8.86245C12.9825 8.53714 12.3993 8.373 11.81 8.37985C11.2256 8.38665 10.6525 8.56138 10.1823 8.89216L3.08659 13.8834C2.7415 14.1262 2.69597 14.4407 2.79616 14.7019C2.90185 14.9775 3.19965 15.25 3.70231 15.25H5.41385C5.52291 14.8032 5.71283 14.3979 6.05523 14.0555C6.5107 13.6 7.0775 13.4143 7.70529 13.3299C8.30008 13.2499 9.04929 13.25 9.94777 13.25H14.0518C14.9503 13.25 15.6995 13.2499 16.2943 13.3299C16.922 13.4143 17.4888 13.6 17.9443 14.0555C18.2867 14.3979 18.4766 14.8032 18.5857 15.25ZM7.11589 15.1161C7.24621 14.9858 7.4437 14.8786 7.90517 14.8165C8.3882 14.7516 9.03576 14.75 9.99977 14.75H13.9998C14.9638 14.75 15.6113 14.7516 16.0944 14.8165C16.5558 14.8786 16.7533 14.9858 16.8837 15.1161C17.014 15.2464 17.1212 15.4439 17.1832 15.9054C17.2482 16.3884 17.2498 17.036 17.2498 18C17.2498 18.964 17.2482 19.6116 17.1832 20.0946C17.1212 20.5561 17.014 20.7536 16.8837 20.8839C16.7533 21.0142 16.5558 21.1214 16.0944 21.1835C15.6113 21.2484 14.9638 21.25 13.9998 21.25H9.99977C9.03576 21.25 8.3882 21.2484 7.90517 21.1835C7.4437 21.1214 7.24621 21.0142 7.11589 20.8839C6.98557 20.7536 6.87835 20.5561 6.81631 20.0946C6.75137 19.6116 6.74977 18.964 6.74977 18C6.74977 17.036 6.75137 16.3884 6.81631 15.9054C6.87835 15.4439 6.98557 15.2464 7.11589 15.1161Z" fill="#1C274C"/>
</g>
</svg>
