<svg width="24" height="24" viewBox="0 0 24 24" fill="none" xmlns="http://www.w3.org/2000/svg">
<g id="Outline / Essentional, UI / Magic Stick">
<path id="Vector" fill-rule="evenodd" clip-rule="evenodd" d="M13.0222 4.40984C14.1296 3.70282 14.8904 3.2193 15.477 2.95382C16.063 2.68862 16.266 2.73954 16.3704 2.79329C16.4687 2.84385 16.6217 2.96748 16.7289 3.58298C16.8368 4.20282 16.8604 5.08676 16.8919 6.38125L16.9079 7.03779L16.9107 7.15733V7.15734C16.9245 7.75902 16.9363 8.27579 17.1558 8.73565C17.3767 9.1986 17.7711 9.52725 18.2249 9.90535L18.315 9.9805L18.8095 10.3938C19.7854 11.2094 20.4473 11.7654 20.8555 12.2292C21.2548 12.683 21.2669 12.8878 21.2417 13.0207C21.2144 13.165 21.1121 13.3695 20.5559 13.6846C19.9944 14.0027 19.1596 14.3303 17.9416 14.8054L17.3232 15.0466L17.2158 15.0883L17.2158 15.0883C16.6426 15.3111 16.1645 15.4969 15.7978 15.8555C15.4314 16.2137 15.2341 16.6878 14.9971 17.2573L14.9526 17.364L14.696 17.9784C14.1907 19.1883 13.8421 20.0181 13.5102 20.5737C13.1807 21.1253 12.9746 21.2208 12.8336 21.2439C12.7051 21.2648 12.5038 21.2498 12.0622 20.8362C11.6114 20.414 11.0756 19.7346 10.2898 18.7332L9.8916 18.2257L9.81895 18.1329C9.45505 17.6676 9.13832 17.2626 8.68271 17.0282C8.22933 16.7948 7.71334 16.769 7.11533 16.7392L6.99598 16.7332L6.34288 16.6996C5.05489 16.6333 4.17649 16.5861 3.56323 16.4613C2.95581 16.3377 2.83727 16.1819 2.78899 16.0808C2.73662 15.971 2.69289 15.7624 2.97268 15.1809C3.25282 14.5986 3.75468 13.8474 4.48792 12.7547L4.86023 12.1999L4.92597 12.1021C5.27033 11.5903 5.55851 11.1621 5.65337 10.661C5.74902 10.1557 5.63303 9.65771 5.49647 9.07144L5.47044 8.95945L5.32339 8.3243C5.0335 7.0721 4.83759 6.21691 4.78789 5.58751C4.73912 4.97008 4.85001 4.77465 4.95978 4.66731C5.06855 4.56096 5.26347 4.45528 5.87493 4.52053C6.49925 4.58715 7.34449 4.80643 8.58349 5.13099L9.21179 5.29557L9.32322 5.32487C9.90236 5.47744 10.3969 5.60771 10.9044 5.52484C11.4074 5.44273 11.8424 5.16416 12.3603 4.83257L12.46 4.7688L13.0222 4.40984ZM17.0569 1.45957C16.3259 1.08338 15.568 1.2662 14.8586 1.58725C14.1615 1.90273 13.3094 2.44676 12.2677 3.11191L11.6528 3.50451C10.9803 3.93386 10.8209 4.01862 10.6627 4.04444C10.5094 4.06947 10.3443 4.04164 9.59189 3.84453L8.90166 3.66372L8.90165 3.66372C7.74011 3.35942 6.78457 3.10908 6.03409 3.029C5.25746 2.94613 4.49761 3.02133 3.9111 3.59481C3.3256 4.16731 3.23094 4.92556 3.29254 5.70561C3.35216 6.46046 3.57569 7.42589 3.8477 8.60068L4.00909 9.29777C4.18499 10.0576 4.20901 10.2263 4.17955 10.3819C4.14925 10.542 4.05958 10.7011 3.61468 11.364L3.20772 11.9705C2.5176 12.9989 1.95346 13.8395 1.62099 14.5305C1.28264 15.2338 1.08195 15.9864 1.43522 16.7267C1.79259 17.4757 2.50797 17.7774 3.26417 17.9312C4.0014 18.0812 4.99403 18.1322 6.20121 18.1943L6.91893 18.2312C7.70459 18.2716 7.86754 18.2956 7.99627 18.3619C8.12263 18.4269 8.23214 18.5407 8.71151 19.1516L9.15017 19.7107L9.15021 19.7107C9.88525 20.6476 10.4916 21.4204 11.0368 21.931C11.6012 22.4596 12.2577 22.8577 13.0753 22.7243C13.8802 22.5928 14.395 22.0175 14.7979 21.343C15.1918 20.6836 15.5807 19.7524 16.0563 18.6135L16.0563 18.6135L16.3367 17.942C16.6427 17.2095 16.7261 17.0457 16.8465 16.928C16.9665 16.8106 17.1308 16.7317 17.8682 16.444L18.4866 16.2029L18.5444 16.1803L18.5444 16.1803C19.6905 15.7334 20.6281 15.3677 21.2954 14.9897C21.9791 14.6023 22.5639 14.1009 22.7156 13.2997C22.8694 12.487 22.4931 11.8196 21.9815 11.2383C21.4878 10.6772 20.7347 10.0478 19.8217 9.28487L19.277 8.82955C18.682 8.33229 18.5713 8.21915 18.5095 8.08967C18.4462 7.9569 18.4267 7.79041 18.4075 7.00127L18.3899 6.28037C18.3604 5.06626 18.3361 4.069 18.2066 3.32558C18.0741 2.56472 17.794 1.83895 17.0569 1.45957ZM19.5303 18.4695C19.2374 18.1767 18.7625 18.1767 18.4696 18.4695C18.1767 18.7624 18.1767 19.2373 18.4696 19.5302L20.4696 21.5302C20.7625 21.8231 21.2374 21.8231 21.5303 21.5302C21.8232 21.2373 21.8232 20.7624 21.5303 20.4695L19.5303 18.4695Z" fill="#1C274C"/>
</g>
</svg>
