<svg width="24" height="24" viewBox="0 0 24 24" fill="none" xmlns="http://www.w3.org/2000/svg">
<g id="Linear / Food, Kitchen / Cup Paper">
<path id="Vector" d="M20.1729 5.86056L20.8843 5.62316L20.8843 5.62316L20.1729 5.86056ZM20.2087 5.96791L19.4973 6.20531L19.4973 6.20531L20.2087 5.96791ZM3.79139 5.96791L4.50283 6.20531L3.79139 5.96791ZM3.82722 5.86056L3.11578 5.62316H3.11578L3.82722 5.86056ZM6.99927 18.5795L6.25718 18.6881L6.99927 18.5795ZM17.0009 18.5794L17.7429 18.6881L17.0009 18.5794ZM3.48163 7.76195L4.16138 7.44501L4.16138 7.44501L3.48163 7.76195ZM3.70022 8.06533L4.21602 7.52086L4.21602 7.52086L3.70022 8.06533ZM20.5185 7.76195L21.1982 8.0789L21.1982 8.07889L20.5185 7.76195ZM20.2999 8.06533L19.7841 7.52085L19.7841 7.52086L20.2999 8.06533ZM18.2943 2.44432L18.6871 1.8054L18.6871 1.8054L18.2943 2.44432ZM18.6501 2.70069L18.1684 3.27551V3.27551L18.6501 2.70069ZM7.9208 21.5132L7.43038 22.0806L7.9208 21.5132ZM5.70585 2.44432L5.31306 1.8054L5.31306 1.8054L5.70585 2.44432ZM5.35004 2.70069L5.83178 3.27551L5.83178 3.27551L5.35004 2.70069ZM9.18527 2.75H14.8149V1.25H9.18527V2.75ZM19.4615 6.09796L19.4973 6.20531L20.9202 5.73052L20.8843 5.62316L19.4615 6.09796ZM4.50283 6.20531L4.53865 6.09796L3.11578 5.62316L3.07996 5.73051L4.50283 6.20531ZM10.9571 22.75H13.043V21.25H10.9571V22.75ZM18.5001 7.58937H5.50006V9.08937H18.5001V7.58937ZM4.75797 8.44801L6.25718 18.6881L7.74136 18.4708L6.24215 8.23072L4.75797 8.44801ZM17.7429 18.6881L19.2422 8.44801L17.758 8.23072L16.2588 18.4708L17.7429 18.6881ZM13.043 22.75C13.8479 22.75 14.5217 22.7514 15.062 22.6833C15.6233 22.6125 16.1337 22.4575 16.5697 22.0806L15.5889 20.9457C15.4617 21.0557 15.2783 21.1441 14.8744 21.195C14.4496 21.2486 13.8869 21.25 13.043 21.25V22.75ZM16.2588 18.4708C16.1365 19.3057 16.0536 19.8623 15.9391 20.2749C15.8302 20.6671 15.7161 20.8358 15.5889 20.9457L16.5697 22.0806C17.0058 21.7038 17.2331 21.2212 17.3844 20.6761C17.5301 20.1513 17.6264 19.4844 17.7429 18.6881L16.2588 18.4708ZM3.07996 5.73051C2.92663 6.19001 2.78912 6.59809 2.71933 6.93604C2.64775 7.28264 2.61745 7.68331 2.80189 8.07889L4.16138 7.44501C4.17744 7.47945 4.14263 7.46074 4.18833 7.23942C4.23583 7.00945 4.3374 6.70108 4.50283 6.20531L3.07996 5.73051ZM5.50006 7.58937C4.97742 7.58937 4.65276 7.58811 4.41958 7.56036C4.19517 7.53366 4.18844 7.49472 4.21602 7.52086L3.18442 8.6098C3.50128 8.90997 3.89094 9.00805 4.24237 9.04986C4.58503 9.09063 5.01565 9.08937 5.50006 9.08937V7.58937ZM2.80189 8.07889C2.89489 8.27834 3.02466 8.45845 3.18442 8.6098L4.21602 7.52086C4.1932 7.49924 4.17466 7.47351 4.16138 7.44501L2.80189 8.07889ZM19.4973 6.20531C19.6627 6.70108 19.7643 7.00945 19.8118 7.23942C19.8575 7.46074 19.8227 7.47946 19.8387 7.44501L21.1982 8.07889C21.3827 7.68331 21.3524 7.28264 21.2808 6.93604C21.211 6.59809 21.0735 6.19001 20.9202 5.73051L19.4973 6.20531ZM18.5001 9.08937C18.9845 9.08937 19.4151 9.09063 19.7578 9.04986C20.1092 9.00805 20.4988 8.90997 20.8157 8.6098L19.7841 7.52086C19.8117 7.49472 19.805 7.53367 19.5805 7.56036C19.3474 7.58811 19.0227 7.58937 18.5001 7.58937V9.08937ZM19.8388 7.44501C19.8255 7.47351 19.8069 7.49924 19.7841 7.52085L20.8157 8.6098C20.9755 8.45845 21.1052 8.27833 21.1982 8.0789L19.8388 7.44501ZM14.8149 2.75C15.7489 2.75 16.3939 2.75089 16.8973 2.80174C17.385 2.851 17.6719 2.9421 17.9015 3.08324L18.6871 1.8054C18.1939 1.50222 17.66 1.37116 17.0481 1.30934C16.4519 1.24911 15.7186 1.25 14.8149 1.25V2.75ZM20.8843 5.62316C20.5983 4.76589 20.367 4.06998 20.1212 3.52355C19.8688 2.96264 19.5755 2.4977 19.1318 2.12586L18.1684 3.27551C18.3749 3.44861 18.5521 3.69197 18.7532 4.13895C18.9608 4.6004 19.1658 5.21196 19.4615 6.09796L20.8843 5.62316ZM17.9015 3.08324C17.995 3.14073 18.0842 3.205 18.1684 3.27551L19.1318 2.12586C18.9916 2.00833 18.8429 1.90122 18.6871 1.8054L17.9015 3.08324ZM10.9571 21.25C10.1132 21.25 9.55055 21.2486 9.12575 21.195C8.72187 21.1441 8.53842 21.0557 8.41121 20.9457L7.43038 22.0806C7.86645 22.4575 8.37681 22.6125 8.93809 22.6833C9.47843 22.7514 10.1522 22.75 10.9571 22.75V21.25ZM6.25718 18.6881C6.37377 19.4844 6.47001 20.1513 6.6157 20.6761C6.76704 21.2212 6.99431 21.7038 7.43038 22.0806L8.41121 20.9457C8.284 20.8358 8.16993 20.6671 8.06103 20.2749C7.94649 19.8623 7.8636 19.3057 7.74136 18.4708L6.25718 18.6881ZM9.18527 1.25C8.28152 1.25 7.54819 1.24911 6.95204 1.30934C6.3401 1.37116 5.80623 1.50222 5.31306 1.8054L6.09863 3.08324C6.32821 2.9421 6.61516 2.851 7.1028 2.80174C7.60623 2.75089 8.25124 2.75 9.18527 2.75V1.25ZM4.53865 6.09796C4.8343 5.21195 5.03931 4.60039 5.2469 4.13895C5.44799 3.69197 5.62523 3.44861 5.83178 3.27551L4.8683 2.12586C4.42461 2.4977 4.13129 2.96264 3.87896 3.52354C3.63313 4.06997 3.40185 4.76588 3.11578 5.62316L4.53865 6.09796ZM5.31306 1.8054C5.15719 1.90122 5.00854 2.00833 4.8683 2.12586L5.83178 3.27551C5.91592 3.205 6.00511 3.14073 6.09863 3.08324L5.31306 1.8054Z" fill="#1C274C"/>
<path id="Vector_2" d="M6.5 12H17.5" stroke="#1C274C" stroke-width="1.5" stroke-linecap="round"/>
<path id="Vector_3" d="M7 17H17" stroke="#1C274C" stroke-width="1.5" stroke-linecap="round"/>
</g>
</svg>
