<svg width="24" height="24" viewBox="0 0 24 24" fill="none" xmlns="http://www.w3.org/2000/svg">
<g id="Line Duotone / Food, Kitchen / Chef Hat Heart">
<path id="Vector" d="M19 18H19.75H19ZM5 14.584H5.75C5.75 14.2859 5.57345 14.016 5.30028 13.8967L5 14.584ZM19 14.584L18.6997 13.8967C18.4265 14.016 18.25 14.2859 18.25 14.584H19ZM15.75 7C15.75 7.41421 16.0858 7.75 16.5 7.75C16.9142 7.75 17.25 7.41421 17.25 7H15.75ZM6.75 7C6.75 7.41421 7.08579 7.75 7.5 7.75C7.91421 7.75 8.25 7.41421 8.25 7H6.75ZM7 4.25C3.82436 4.25 1.25 6.82436 1.25 10H2.75C2.75 7.65279 4.65279 5.75 7 5.75V4.25ZM17 5.75C19.3472 5.75 21.25 7.65279 21.25 10H22.75C22.75 6.82436 20.1756 4.25 17 4.25V5.75ZM15 21.25H9V22.75H15V21.25ZM9 21.25C8.03599 21.25 7.38843 21.2484 6.90539 21.1835C6.44393 21.1214 6.24643 21.0142 6.11612 20.8839L5.05546 21.9445C5.51093 22.4 6.07773 22.5857 6.70552 22.6701C7.31174 22.7516 8.07839 22.75 9 22.75V21.25ZM4.25 18C4.25 18.9216 4.24841 19.6883 4.32991 20.2945C4.41432 20.9223 4.59999 21.4891 5.05546 21.9445L6.11612 20.8839C5.9858 20.7536 5.87858 20.5561 5.81654 20.0946C5.75159 19.6116 5.75 18.964 5.75 18H4.25ZM18.25 18C18.25 18.964 18.2484 19.6116 18.1835 20.0946C18.1214 20.5561 18.0142 20.7536 17.8839 20.8839L18.9445 21.9445C19.4 21.4891 19.5857 20.9223 19.6701 20.2945C19.7516 19.6883 19.75 18.9216 19.75 18H18.25ZM15 22.75C15.9216 22.75 16.6883 22.7516 17.2945 22.6701C17.9223 22.5857 18.4891 22.4 18.9445 21.9445L17.8839 20.8839C17.7536 21.0142 17.5561 21.1214 17.0946 21.1835C16.6116 21.2484 15.964 21.25 15 21.25V22.75ZM7 5.75C7.2137 5.75 7.42326 5.76571 7.6277 5.79593L7.84703 4.31205C7.57021 4.27114 7.28734 4.25 7 4.25V5.75ZM12 1.25C9.68949 1.25 7.72942 2.7421 7.02709 4.81312L8.44763 5.29486C8.94981 3.81402 10.3516 2.75 12 2.75V1.25ZM7.02709 4.81312C6.84722 5.34352 6.75 5.91118 6.75 6.5H8.25C8.25 6.07715 8.3197 5.67212 8.44763 5.29486L7.02709 4.81312ZM17 4.25C16.7127 4.25 16.4298 4.27114 16.153 4.31205L16.3723 5.79593C16.5767 5.76571 16.7863 5.75 17 5.75V4.25ZM12 2.75C13.6484 2.75 15.0502 3.81402 15.5524 5.29486L16.9729 4.81312C16.2706 2.7421 14.3105 1.25 12 1.25V2.75ZM15.5524 5.29486C15.6803 5.67212 15.75 6.07715 15.75 6.5H17.25C17.25 5.91118 17.1528 5.34352 16.9729 4.81312L15.5524 5.29486ZM5.75 18V14.584H4.25V18H5.75ZM5.30028 13.8967C3.79769 13.2402 2.75 11.7416 2.75 10H1.25C1.25 12.359 2.6705 14.3846 4.69972 15.2712L5.30028 13.8967ZM18.25 14.584L18.25 18H19.75L19.75 14.584H18.25ZM21.25 10C21.25 11.7416 20.2023 13.2402 18.6997 13.8967L19.3003 15.2712C21.3295 14.3846 22.75 12.359 22.75 10H21.25ZM15.75 6.5V7H17.25V6.5H15.75ZM6.75 6.5V7H8.25V6.5H6.75Z" fill="#1C274C"/>
<path id="Vector_2" opacity="0.5" d="M11.0429 13.669L10.5992 14.2737H10.5992L11.0429 13.669ZM12 9.99481L11.4813 10.5365C11.7713 10.8142 12.2287 10.8142 12.5187 10.5365L12 9.99481ZM12.9571 13.669L12.5135 13.0644L12.9571 13.669ZM12 14.131L12 13.381H12L12 14.131ZM11.4865 13.0644C11.0686 12.7577 10.6081 12.3747 10.2595 11.9716C9.89122 11.5458 9.75 11.2148 9.75 11.0002H8.25C8.25 11.77 8.6912 12.4513 9.1249 12.9528C9.57819 13.4769 10.1391 13.9362 10.5992 14.2737L11.4865 13.0644ZM9.75 11.0002C9.75 10.4241 10.0126 10.1735 10.2419 10.0931C10.4922 10.0054 10.9558 10.0333 11.4813 10.5365L12.5187 9.45309C11.6943 8.66375 10.6579 8.35779 9.74566 8.67756C8.81245 9.0047 8.25 9.90301 8.25 11.0002H9.75ZM13.4008 14.2737C13.8609 13.9362 14.4218 13.4769 14.8751 12.9528C15.3088 12.4513 15.75 11.77 15.75 11.0002H14.25C14.25 11.2148 14.1088 11.5458 13.7405 11.9716C13.3919 12.3747 12.9314 12.7577 12.5135 13.0644L13.4008 14.2737ZM15.75 11.0002C15.75 9.90301 15.1875 9.00469 14.2543 8.67756C13.3421 8.35779 12.3057 8.66375 11.4813 9.45309L12.5187 10.5365C13.0442 10.0333 13.5078 10.0054 13.7581 10.0931C13.9874 10.1735 14.25 10.4241 14.25 11.0002H15.75ZM10.5992 14.2737C10.9678 14.5442 11.3816 14.881 12 14.881L12 13.381C11.9756 13.381 11.9605 13.381 11.9061 13.3522C11.8202 13.3069 11.7128 13.2303 11.4865 13.0644L10.5992 14.2737ZM12.5135 13.0644C12.2872 13.2303 12.1798 13.3069 12.0939 13.3522C12.0395 13.381 12.0244 13.381 12 13.381L12 14.881C12.6184 14.881 13.0322 14.5442 13.4008 14.2737L12.5135 13.0644Z" fill="#1C274C"/>
<path id="Vector_3" opacity="0.5" d="M5 18H19" stroke="#1C274C" stroke-width="1.5" stroke-linecap="round" stroke-linejoin="round"/>
</g>
</svg>
