<svg width="24" height="24" viewBox="0 0 24 24" fill="none" xmlns="http://www.w3.org/2000/svg">
<g id="Line Duotone / Food, Kitchen / Donut">
<circle id="Vector" cx="12" cy="12" r="10" stroke="#1C274C" stroke-width="1.5"/>
<circle id="Vector_2" cx="12" cy="12" r="3" stroke="#1C274C" stroke-width="1.5"/>
<path id="Vector_3" opacity="0.5" d="M2 13C2 13 4.20085 15 6 15C7.21199 15 8.60628 14.0924 9.38725 13.5" stroke="#1C274C" stroke-width="1.5"/>
<path id="Vector_4" opacity="0.5" d="M14 14.2236C14.4713 14.6389 15.0875 15 15.8053 15C17.4948 15 17.4948 13 19.1842 13C20.2618 13 21.1102 13.8136 21.5835 14.4029" stroke="#1C274C" stroke-width="1.5"/>
<path id="Vector_5" d="M14.5 7L16 5" stroke="#1C274C" stroke-width="1.5" stroke-linecap="round"/>
<path id="Vector_6" opacity="0.5" d="M19 7L20 6" stroke="#1C274C" stroke-width="1.5" stroke-linecap="round"/>
<path id="Vector_7" d="M12 5L11 4" stroke="#1C274C" stroke-width="1.5" stroke-linecap="round"/>
<path id="Vector_8" opacity="0.5" d="M10.5 7L9.13397 7.36603" stroke="#1C274C" stroke-width="1.5" stroke-linecap="round"/>
<path id="Vector_9" opacity="0.5" d="M16.6497 8.9766L16.7161 10.3893" stroke="#1C274C" stroke-width="1.5" stroke-linecap="round"/>
<path id="Vector_10" d="M20.6777 10.085L18.9996 11.5629" stroke="#1C274C" stroke-width="1.5" stroke-linecap="round"/>
<path id="Vector_11" opacity="0.5" d="M7 5L6 4" stroke="#1C274C" stroke-width="1.5" stroke-linecap="round"/>
<path id="Vector_12" d="M6.79245 9.14385L6.20722 7.85641" stroke="#1C274C" stroke-width="1.5" stroke-linecap="round"/>
<path id="Vector_13" d="M5.66501 12.6415L6.50024 11.5002" stroke="#1C274C" stroke-width="1.5" stroke-linecap="round"/>
<path id="Vector_14" opacity="0.5" d="M3.68268 10.3496L3.60402 8.93757" stroke="#1C274C" stroke-width="1.5" stroke-linecap="round"/>
</g>
</svg>
