<svg width="24" height="24" viewBox="0 0 24 24" fill="none" xmlns="http://www.w3.org/2000/svg">
<g id="Outline / Astronomy / Atom">
<path id="Vector (Stroke)" fill-rule="evenodd" clip-rule="evenodd" d="M13.4618 4.04658C14.6652 4.86901 15.8624 5.85918 17.0015 6.99832C18.1407 8.13749 19.1309 9.3347 19.9533 10.5382C20.6544 9.16072 21.0758 7.8564 21.2064 6.72484C21.371 5.29776 21.0678 4.24334 20.4122 3.58772C19.7566 2.9321 18.7022 2.62887 17.2751 2.79353C16.1435 2.92409 14.8392 3.34552 13.4618 4.04658ZM20.8687 11.9999C21.8741 10.2347 22.5142 8.47649 22.6965 6.89677C22.8915 5.20639 22.5677 3.6219 21.4729 2.52706C20.378 1.43222 18.7935 1.10838 17.1032 1.30341C15.5235 1.48568 13.7652 2.12579 12.0001 3.13117C10.235 2.12585 8.47679 1.48578 6.89713 1.30354C5.2068 1.10853 3.62236 1.43238 2.52754 2.5272C1.43272 3.62203 1.10888 5.20649 1.3039 6.89684C1.48615 8.47654 2.12623 10.2347 3.13159 11.9999C2.12632 13.765 1.48629 15.5231 1.30408 17.1027C1.10909 18.793 1.43295 20.3774 2.52774 21.4722C3.62254 22.567 5.20694 22.8909 6.89723 22.6959C8.47686 22.5137 10.235 21.8736 12.0001 20.8684C13.7652 21.8737 15.5234 22.5138 17.1031 22.696C18.7934 22.891 20.3778 22.5672 21.4727 21.4724C22.5675 20.3775 22.8913 18.7931 22.6963 17.1028C22.5141 15.5231 21.874 13.765 20.8687 11.9999ZM19.1195 11.9999C18.2825 10.6747 17.2143 9.33237 15.9409 8.05898C14.6675 6.78562 13.3252 5.71736 12.0001 4.88044C10.6751 5.71734 9.3328 6.78555 8.05951 8.05884C6.78609 9.33228 5.71778 10.6747 4.88085 11.9999C5.71776 13.3249 6.78599 14.6672 8.05932 15.9406C9.33267 17.2139 10.675 18.2822 12.0001 19.1191C13.3252 18.2822 14.6677 17.2139 15.9411 15.9404C17.2144 14.6671 18.2826 13.3249 19.1195 11.9999ZM13.4618 19.953C14.6653 19.1305 15.8625 18.1403 17.0017 17.0011C18.1408 15.862 19.1309 14.6649 19.9533 13.4616C20.6543 14.839 21.0757 16.1432 21.2062 17.2747C21.3708 18.7017 21.0676 19.7561 20.412 20.4117C19.7564 21.0673 18.702 21.3705 17.275 21.2059C16.1435 21.0754 14.8392 20.654 13.4618 19.953ZM10.5383 19.9529C9.33492 19.1305 8.13777 18.1404 6.99866 17.0012C5.85956 15.8621 4.86943 14.665 4.04702 13.4616C3.34607 14.839 2.92471 16.1432 2.79419 17.2746C2.62958 18.7016 2.93281 19.756 3.5884 20.4116C4.24399 21.0672 5.29835 21.3704 6.72534 21.2058C7.85681 21.0752 9.161 20.6539 10.5383 19.9529ZM4.04699 10.5381C4.86944 9.33463 5.85966 8.13738 6.99885 6.99819C8.13792 5.85912 9.33502 4.869 10.5384 4.0466C9.16098 3.34559 7.85673 2.9242 6.72522 2.79366C5.29819 2.62903 4.2438 2.93226 3.58821 3.58786C2.9326 4.24347 2.62937 5.29787 2.79401 6.72493C2.92456 7.85646 3.34596 9.16073 4.04699 10.5381ZM12.0002 10.2497C11.0337 10.2497 10.2502 11.0332 10.2502 11.9997C10.2502 12.9662 11.0337 13.7497 12.0002 13.7497C12.9667 13.7497 13.7502 12.9662 13.7502 11.9997C13.7502 11.0332 12.9667 10.2497 12.0002 10.2497ZM8.7502 11.9997C8.7502 10.2048 10.2053 8.74971 12.0002 8.74971C13.7951 8.74971 15.2502 10.2048 15.2502 11.9997C15.2502 13.7946 13.7951 15.2497 12.0002 15.2497C10.2053 15.2497 8.7502 13.7946 8.7502 11.9997Z" fill="#1C274C"/>
</g>
</svg>
