<svg width="24" height="24" viewBox="0 0 24 24" fill="none" xmlns="http://www.w3.org/2000/svg">
<g id="Outline / Astronomy / Planet 2">
<g id="Vector">
<path d="M2.81481 16.2498C2.94057 15.8551 2.72259 15.4332 2.32793 15.3075C1.93327 15.1817 1.51138 15.3997 1.38562 15.7943C1.19392 16.3959 1.17354 17.057 1.53488 17.6345C1.98775 18.3584 2.84153 18.641 3.68907 18.7221C4.1014 18.7615 4.46765 18.4593 4.50712 18.047C4.54658 17.6346 4.24432 17.2684 3.83199 17.2289C3.13763 17.1625 2.88355 16.9621 2.80651 16.8389C2.75679 16.7595 2.70479 16.595 2.81481 16.2498Z" fill="#1C274C"/>
<path d="M6.48528 18.5088C6.99771 18.4074 7.53819 18.2749 8.10028 18.113C7.57963 17.7802 7.10433 17.3827 6.6857 16.9318C6.51831 16.9705 6.35439 17.0056 6.19417 17.0373C5.78783 17.1177 5.5236 17.5123 5.60398 17.9186C5.60881 17.9431 5.61478 17.967 5.62181 17.9903C5.78649 18.1656 5.95832 18.3341 6.13682 18.4953C6.24679 18.5263 6.36552 18.5325 6.48528 18.5088Z" fill="#1C274C"/>
<path fill-rule="evenodd" clip-rule="evenodd" d="M19.0824 10.4435C18.4992 10.9735 17.8132 11.5232 17.0388 12.075C16.7014 12.3153 16.6228 12.7836 16.8631 13.121C17.1035 13.4583 17.5718 13.537 17.9091 13.2966C18.3826 12.9593 18.829 12.6197 19.2445 12.281C19.2481 12.1878 19.2498 12.0941 19.2498 12C19.2498 11.4657 19.192 10.9449 19.0824 10.4435ZM8.10028 18.113C8.73661 17.9297 9.40063 17.7087 10.083 17.4526C10.4708 17.307 10.6671 16.8746 10.5216 16.4868C10.376 16.099 9.94359 15.9027 9.55581 16.0483C8.52799 16.4341 7.55964 16.7301 6.6857 16.9318C7.10433 17.3827 7.57963 17.7802 8.10028 18.113ZM15.7504 14.7037C16.106 14.4911 16.2218 14.0306 16.0093 13.6751C15.7967 13.3196 15.3362 13.2037 14.9807 13.4162C14.4991 13.7042 13.9974 13.9878 13.4781 14.2645C12.9445 14.5487 12.4132 14.8146 11.8883 15.0612C11.5134 15.2373 11.3522 15.684 11.5283 16.0589C11.7044 16.4338 12.1511 16.5949 12.526 16.4188C13.0739 16.1615 13.6277 15.8844 14.1834 15.5883C14.7242 15.3002 15.2474 15.0044 15.7504 14.7037Z" fill="#1C274C"/>
<path d="M4.74984 12C4.74984 7.99594 7.99578 4.75 11.9998 4.75C15.4696 4.75 18.3701 7.18746 19.0824 10.4435C19.2831 10.2611 19.4716 10.081 19.6474 9.90396C19.8647 9.68506 20.1836 9.62822 20.4536 9.734C20.1646 8.65332 19.674 7.65506 19.0244 6.78204C19.4289 6.73635 19.7243 6.37527 19.6868 5.96807C19.6488 5.5556 19.2837 5.252 18.8712 5.28997C18.5271 5.32164 18.1655 5.37181 17.7896 5.43925C16.2468 4.07679 14.2199 3.25 11.9998 3.25C7.16735 3.25 3.24984 7.16751 3.24984 12C3.24984 12.3435 3.27286 12.6824 3.31137 13.0156C2.97651 13.3513 2.67596 13.6843 2.415 14.0109C2.15647 14.3346 2.20924 14.8065 2.53287 15.065C2.8565 15.3236 3.32843 15.2708 3.58696 14.9472C3.62583 14.8985 3.66597 14.8494 3.70738 14.7998C4.11294 16.0015 4.77235 17.0862 5.62181 17.9903C5.61478 17.967 5.60881 17.9431 5.60398 17.9186C5.5236 17.5123 5.78783 17.1177 6.19417 17.0373C6.35439 17.0056 6.51831 16.9705 6.6857 16.9318C5.4844 15.638 4.74984 13.9048 4.74984 12Z" fill="#1C274C"/>
<path d="M11.9998 20.75C16.8323 20.75 20.7498 16.8325 20.7498 12C20.7498 11.6555 20.7299 11.3157 20.6912 10.9815C20.2657 11.4084 19.7808 11.8439 19.2445 12.281C19.0969 16.1548 15.9098 19.25 11.9998 19.25C10.5643 19.25 9.22627 18.8328 8.10028 18.113C7.53819 18.2749 6.99771 18.4074 6.48528 18.5088C6.36552 18.5325 6.24679 18.5263 6.13682 18.4953C7.68837 19.8967 9.74445 20.75 11.9998 20.75Z" fill="#1C274C"/>
<path d="M19.6474 9.90396C19.4716 10.081 19.2831 10.2611 19.0824 10.4435C19.192 10.9449 19.2498 11.4657 19.2498 12C19.2498 12.0941 19.2481 12.1878 19.2445 12.281C19.7808 11.8439 20.2657 11.4084 20.6912 10.9815C20.6418 10.5556 20.5619 10.139 20.4536 9.734C20.1836 9.62822 19.8647 9.68506 19.6474 9.90396Z" fill="#1C274C"/>
<path d="M20.9366 5.37889C20.5336 5.28343 20.1294 5.53278 20.034 5.93584C19.9385 6.3389 20.1879 6.74304 20.5909 6.83851C20.985 6.93184 21.1368 7.0709 21.1932 7.16107C21.2565 7.26234 21.3262 7.52697 21.0363 8.10903C20.8516 8.47979 21.0025 8.93007 21.3732 9.11475C21.744 9.29944 22.1943 9.14859 22.379 8.77783C22.7566 8.01968 22.9422 7.12851 22.4648 6.36547C22.1206 5.81539 21.5416 5.52217 20.9366 5.37889Z" fill="#1C274C"/>
<path d="M20.7118 10.9608C21.0037 10.6668 21.002 10.192 20.708 9.90014C20.633 9.82564 20.5462 9.77026 20.4536 9.734C20.5619 10.139 20.6418 10.5556 20.6912 10.9815L20.7118 10.9608Z" fill="#1C274C"/>
</g>
</g>
</svg>
