<svg width="24" height="24" viewBox="0 0 24 24" fill="none" xmlns="http://www.w3.org/2000/svg">
<g id="Outline / Astronomy / Star Fall Minimalistic 2">
<path id="Vector (Stroke)" fill-rule="evenodd" clip-rule="evenodd" d="M13.6416 5.13767C13.3349 5.53821 12.9855 6.16106 12.4666 7.09188L12.2045 7.56216C12.1872 7.5932 12.17 7.62411 12.1529 7.65486C11.9181 8.07806 11.6999 8.47129 11.3464 8.73962C10.9885 9.0113 10.5535 9.10878 10.0953 9.21144C10.0621 9.21889 10.0287 9.22637 9.99521 9.23395L9.48613 9.34913C8.47678 9.57751 7.80726 9.73119 7.35263 9.91036C6.91213 10.084 6.86776 10.2073 6.8511 10.2609C6.83189 10.3227 6.80315 10.465 7.06787 10.8855C7.33769 11.3141 7.79622 11.8533 8.48307 12.6565L8.83012 13.0623C8.85231 13.0883 8.87442 13.114 8.8964 13.1397C9.21187 13.5072 9.50095 13.8441 9.63385 14.2715C9.76582 14.6958 9.72201 15.1401 9.67361 15.631C9.67024 15.6653 9.66684 15.6997 9.66348 15.7344L9.61101 16.2759C9.50727 17.3464 9.43924 18.0675 9.4622 18.5829C9.4851 19.097 9.59244 19.1849 9.62659 19.2108C9.62717 19.2112 9.6278 19.2117 9.62848 19.2123C9.65335 19.2315 9.74692 19.3041 10.1936 19.1761C10.6622 19.0419 11.2907 18.7548 12.2359 18.3197L12.7125 18.1002C12.7445 18.0855 12.7763 18.0708 12.808 18.0561C13.2338 17.8589 13.6419 17.6699 14.089 17.6699C14.5361 17.6699 14.9442 17.8589 15.3699 18.0561C15.4017 18.0708 15.4335 18.0855 15.4655 18.1002L15.9421 18.3197C16.8872 18.7548 17.5158 19.0419 17.9843 19.1761C18.4311 19.3041 18.5246 19.2315 18.5495 19.2123C18.5502 19.2117 18.5508 19.2112 18.5514 19.2108C18.5855 19.1849 18.6929 19.097 18.7158 18.5829C18.7387 18.0675 18.6707 17.3464 18.567 16.2759L18.5145 15.7344C18.5111 15.6997 18.5077 15.6652 18.5044 15.631C18.456 15.1401 18.4122 14.6958 18.5441 14.2715C18.677 13.8441 18.9661 13.5072 19.2816 13.1396C19.3036 13.114 19.3257 13.0883 19.3479 13.0623L19.6949 12.6565C20.3818 11.8533 20.8403 11.3141 21.1101 10.8855C21.3748 10.465 21.3461 10.3227 21.3269 10.2609C21.3102 10.2073 21.2658 10.084 20.8253 9.91036C20.3707 9.73119 19.7012 9.57751 18.6918 9.34913L18.1828 9.23395C18.1493 9.22637 18.1159 9.21889 18.0827 9.21144C17.6245 9.10878 17.1894 9.0113 16.8316 8.73962C16.4781 8.47129 16.2599 8.07806 16.025 7.65486C16.008 7.62411 15.9908 7.59319 15.9735 7.56216L15.7114 7.09188C15.1925 6.16106 14.8431 5.53821 14.5363 5.13767C14.2378 4.74784 14.1144 4.74964 14.0907 4.74998C14.09 4.74999 14.0895 4.75 14.089 4.75C14.0885 4.75 14.0879 4.74999 14.0873 4.74998C14.0636 4.74964 13.9402 4.74784 13.6416 5.13767ZM12.4507 4.22568C12.8404 3.71682 13.3506 3.25 14.089 3.25C14.8274 3.25 15.3376 3.71682 15.7272 4.22568C16.1087 4.72376 16.5105 5.44469 16.9917 6.3079L17.2837 6.83181C17.6043 7.40685 17.6687 7.49186 17.7385 7.54487C17.8036 7.59431 17.8901 7.62982 18.5138 7.77093L19.0843 7.90001C20.0157 8.11071 20.8002 8.28815 21.3753 8.51482C21.9772 8.75201 22.5418 9.11634 22.7592 9.81548C22.9741 10.5064 22.727 11.1326 22.3795 11.6846C22.044 12.2176 21.5115 12.8403 20.8742 13.5854L20.8349 13.6314L20.4879 14.0372C20.0662 14.5303 20.0058 14.6226 19.9765 14.7169C19.9461 14.8144 19.9438 14.9324 20.0075 15.5897L20.0657 16.1906C20.1623 17.1865 20.2426 18.0148 20.2143 18.6496C20.1854 19.2982 20.037 19.9663 19.4584 20.4055C18.8674 20.8541 18.1866 20.7945 17.5712 20.6181C16.9784 20.4483 16.2444 20.1103 15.3725 19.7088L14.8381 19.4627C14.2517 19.1927 14.1635 19.1699 14.089 19.1699C14.0144 19.1699 13.9263 19.1927 13.3399 19.4627L12.8054 19.7088C11.9335 20.1103 11.1996 20.4483 10.6068 20.6181C9.99134 20.7945 9.31054 20.8541 8.71962 20.4055C8.14095 19.9663 7.99258 19.2982 7.96369 18.6496C7.93541 18.0148 8.01571 17.1864 8.11225 16.1905L8.17047 15.5897C8.23417 14.9324 8.23183 14.8144 8.20151 14.7169C8.17218 14.6226 8.11183 14.5303 7.69012 14.0372L7.30374 13.5854C6.66651 12.8403 6.13398 12.2176 5.79846 11.6846C5.45095 11.1326 5.20389 10.5064 5.41875 9.81548C5.63616 9.11634 6.20077 8.75201 6.80266 8.51482C7.37782 8.28816 8.16225 8.11071 9.09369 7.90001L9.66419 7.77093C10.2878 7.62982 10.3743 7.59431 10.4395 7.54487C10.5093 7.49186 10.5737 7.40685 10.8943 6.83181L11.1863 6.3079C11.6675 5.44469 12.0693 4.72376 12.4507 4.22568ZM8.74549 5.20229C6.76387 4.63125 4.63821 4.93288 2.58729 6.13395L2.37913 6.25585C2.0217 6.46518 1.56226 6.34511 1.35293 5.98768C1.14361 5.63025 1.26368 5.1708 1.62111 4.96148L1.82927 4.83958C4.18969 3.45725 6.73702 3.06248 9.16083 3.76094L9.36871 3.82084C9.76673 3.93554 9.99641 4.35117 9.88171 4.74919C9.76702 5.14721 9.35139 5.37689 8.95337 5.26219L8.74549 5.20229ZM4.83628 9.93634C4.87144 10.3491 4.56537 10.7121 4.15265 10.7473C3.99949 10.7603 3.88206 10.7678 3.78365 10.774C3.60627 10.7853 3.49069 10.7926 3.33902 10.8217C3.14253 10.8595 2.8874 10.9393 2.4244 11.1708C2.05391 11.3561 1.60341 11.2059 1.41817 10.8354C1.23293 10.4649 1.38309 10.0144 1.75358 9.82918C2.29057 9.56068 2.68032 9.42079 3.05627 9.34863C3.30317 9.30124 3.55804 9.28464 3.78724 9.26972C3.87053 9.26429 3.95043 9.25909 4.02533 9.25271C4.43804 9.21755 4.80112 9.52362 4.83628 9.93634ZM5.91788 15.856C4.73392 15.5785 3.48653 15.8537 2.55316 16.5891C2.22781 16.8455 1.75624 16.7895 1.49988 16.4642C1.24353 16.1388 1.29946 15.6673 1.62482 15.4109C2.92261 14.3883 4.63911 14.0157 6.2601 14.3955C6.66339 14.49 6.91371 14.8936 6.81921 15.2968C6.72471 15.7001 6.32117 15.9505 5.91788 15.856Z" fill="#1C274C"/>
</g>
</svg>
