<svg width="24" height="24" viewBox="0 0 24 24" fill="none" xmlns="http://www.w3.org/2000/svg">
<g id="Bold / Users / User Check Rounded">
<circle id="Vector" cx="12" cy="6" r="4" fill="#1C274C"/>
<path id="Vector_2" fill-rule="evenodd" clip-rule="evenodd" d="M21.4685 16.4143C21.792 16.6731 21.8444 17.1451 21.5857 17.4685L19.5857 19.9685C19.4524 20.1351 19.2545 20.2371 19.0415 20.2488C18.8285 20.2606 18.6205 20.1812 18.4697 20.0303L17.4697 19.0303C17.1768 18.7374 17.1768 18.2626 17.4697 17.9697C17.7626 17.6768 18.2374 17.6768 18.5303 17.9697L18.9371 18.3765L20.4143 16.5315C20.6731 16.208 21.1451 16.1556 21.4685 16.4143Z" fill="#1C274C"/>
<path id="Vector_3" d="M18.8272 16.1137L18.6433 16.3434C17.8773 16.1156 17.0138 16.3041 16.409 16.9089C15.5303 17.7876 15.5303 19.2122 16.409 20.0909L16.4207 20.1026C15.2154 20.6642 13.6765 21.001 12 21.001C8.13401 21.001 5 19.2101 5 17.001C5 14.7918 8.13401 13.001 12 13.001C15.3324 13.001 18.1209 14.3316 18.8272 16.1137Z" fill="#1C274C"/>
</g>
</svg>
