<svg width="24" height="24" viewBox="0 0 24 24" fill="none" xmlns="http://www.w3.org/2000/svg">
<g id="Bold / Users / User Minus">
<g id="Vector">
<path d="M14 6C14 8.20914 12.2091 10 10 10C7.79086 10 6 8.20914 6 6C6 3.79086 7.79086 2 10 2C12.2091 2 14 3.79086 14 6Z" fill="#1C274C"/>
<path d="M10 13C14.4183 13 18 15.0147 18 17.5C18 19.9853 18 22 10 22C2 22 2 19.9853 2 17.5C2 15.0147 5.58172 13 10 13Z" fill="#1C274C"/>
<path d="M17 9.25C16.5858 9.25 16.25 9.58579 16.25 10C16.25 10.4142 16.5858 10.75 17 10.75H21C21.4142 10.75 21.75 10.4142 21.75 10C21.75 9.58579 21.4142 9.25 21 9.25H17Z" fill="#1C274C"/>
</g>
</g>
</svg>
