<svg width="24" height="24" viewBox="0 0 24 24" fill="none" xmlns="http://www.w3.org/2000/svg">
<g id="Line Duotone / Medicine / Adhesive Plaster 2 ">
<path id="Vector" d="M20.4155 12.765L11.235 3.58447C9.12233 1.47184 5.69709 1.47184 3.58447 3.58447C1.47184 5.69709 1.47184 9.12233 3.58447 11.235L12.765 20.4155C14.8777 22.5282 18.3029 22.5282 20.4155 20.4155C22.5282 18.3029 22.5282 14.8777 20.4155 12.765Z" stroke="#1C274C" stroke-width="1.5" stroke-linecap="round"/>
<path id="Vector_2" opacity="0.5" d="M12.7651 20.4155L20.4155 12.7651M11.235 3.58447L3.58447 11.235" stroke="#1C274C" stroke-width="1.5" stroke-linecap="round"/>
<circle id="Vector_3" cx="9.17154" cy="12" r="1" transform="rotate(-45 9.17154 12)" fill="#1C274C"/>
<circle id="Vector_4" cx="11.9999" cy="14.8286" r="1" transform="rotate(-45 11.9999 14.8286)" fill="#1C274C"/>
<circle id="Vector_5" cx="11.9999" cy="9.17139" r="1" transform="rotate(-45 11.9999 9.17139)" fill="#1C274C"/>
<circle id="Vector_6" cx="14.8285" cy="12" r="1" transform="rotate(-45 14.8285 12)" fill="#1C274C"/>
</g>
</svg>
