<svg width="24" height="24" viewBox="0 0 24 24" fill="none" xmlns="http://www.w3.org/2000/svg">
<g id="Outline / Video, Audio, Sound / Music Library 2">
<path id="Vector" fill-rule="evenodd" clip-rule="evenodd" d="M8.69934 1.25001C8.71302 1.25001 8.72689 1.25001 8.74097 1.25001H15.2588C15.2728 1.25001 15.2867 1.25001 15.3004 1.25001C15.5202 1.24995 15.6888 1.2499 15.8362 1.26571C17.1903 1.41104 18.2268 2.52305 18.2897 3.87008C19.5324 4.24111 20.4024 5.4249 20.3416 6.75728C20.7401 6.93704 21.0929 7.18502 21.3948 7.5298C22.0112 8.23385 22.1994 9.09539 22.2067 10.1006C22.2136 11.0723 22.0497 12.3015 21.8454 13.8337L21.4309 16.9422C21.2712 18.1401 21.142 19.1096 20.941 19.8688C20.7319 20.659 20.423 21.3141 19.8436 21.8215C19.2641 22.3288 18.5739 22.5483 17.763 22.6512C16.9839 22.75 16.0058 22.75 14.7974 22.75H9.20247C7.99402 22.75 7.01592 22.75 6.23686 22.6512C5.42593 22.5483 4.73571 22.3288 4.15625 21.8215C3.57679 21.3141 3.26798 20.659 3.05881 19.8688C2.85786 19.1096 2.72861 18.1401 2.56891 16.9422L2.15444 13.8337C1.95013 12.3015 1.78621 11.0723 1.79318 10.1006C1.8004 9.09539 1.98862 8.23385 2.60503 7.5298C2.90689 7.18502 3.25976 6.93703 3.65819 6.75728C3.59746 5.42494 4.46737 4.24117 5.71004 3.87011C5.77292 2.52306 6.80941 1.41104 8.16358 1.26571C8.31093 1.2499 8.47949 1.24995 8.69934 1.25001ZM7.23209 3.75001H16.7676C16.6611 3.22633 16.2263 2.8162 15.6761 2.75715C15.6198 2.75111 15.5396 2.75001 15.2588 2.75001H8.74097C8.46012 2.75001 8.37992 2.75111 8.32363 2.75715C7.77343 2.8162 7.33861 3.22633 7.23209 3.75001ZM5.18083 6.36744C6.12317 6.24998 7.3196 6.24999 8.7941 6.25001H15.2057C16.6802 6.24999 17.8767 6.24998 18.819 6.36744C18.6969 5.74074 18.1452 5.25001 17.4618 5.25001H6.53801C5.85464 5.25001 5.30291 5.74074 5.18083 6.36744ZM5.25493 7.87068C4.43054 7.98663 4.01357 8.19811 3.7336 8.51788C3.45363 8.83766 3.29912 9.27892 3.29314 10.1114C3.28702 10.9652 3.43518 12.0897 3.64907 13.6939L4.04907 16.6939C4.21706 17.9538 4.33511 18.8285 4.50887 19.4849C4.67721 20.1209 4.87533 20.4574 5.14434 20.6929C5.41335 20.9284 5.77307 21.0803 6.42568 21.1631C7.09932 21.2486 7.98194 21.25 9.25302 21.25H14.7468C16.0179 21.25 16.9005 21.2486 17.5742 21.1631C18.2268 21.0803 18.5865 20.9284 18.8555 20.6929C19.1245 20.4574 19.3226 20.1209 19.491 19.4849C19.6647 18.8285 19.7828 17.9538 19.9508 16.6939L20.3508 13.6939C20.5647 12.0897 20.7128 10.9652 20.7067 10.1114C20.7007 9.27892 20.5462 8.83766 20.2662 8.51788C19.9863 8.19811 19.5693 7.98663 18.7449 7.87068C17.8994 7.75177 16.7652 7.75001 15.1468 7.75001H8.85302C7.23464 7.75001 6.10042 7.75177 5.25493 7.87068ZM11.9999 9.75001C12.4141 9.75001 12.7499 10.0858 12.7499 10.5C12.7499 11.0386 13.0653 11.6006 13.5834 12.0603C14.1144 12.5314 14.6945 12.75 14.9999 12.75C15.4141 12.75 15.7499 13.0858 15.7499 13.5C15.7499 13.9142 15.4141 14.25 14.9999 14.25C14.2616 14.25 13.4201 13.8634 12.7499 13.3197V17C12.7499 18.2427 11.7426 19.25 10.4999 19.25C9.25728 19.25 8.24992 18.2427 8.24992 17C8.24992 15.7574 9.25728 14.75 10.4999 14.75C10.7629 14.75 11.0153 14.7951 11.2499 14.878V10.5C11.2499 10.0858 11.5857 9.75001 11.9999 9.75001ZM11.2499 17C11.2499 16.5858 10.9141 16.25 10.4999 16.25C10.0857 16.25 9.74992 16.5858 9.74992 17C9.74992 17.4142 10.0857 17.75 10.4999 17.75C10.9141 17.75 11.2499 17.4142 11.2499 17Z" fill="#1C274C"/>
</g>
</svg>
