<svg width="24" height="24" viewBox="0 0 24 24" fill="none" xmlns="http://www.w3.org/2000/svg">
<g id="Outline / Video, Audio, Sound / Skip Previous">
<path id="Vector" fill-rule="evenodd" clip-rule="evenodd" d="M18.3051 2.90618C17.5156 3.17208 16.5179 3.73691 15.0596 4.56827C14.3266 4.9862 13.6246 5.40849 13.0094 5.81348C12.308 6.27527 11.5383 6.83372 10.7553 7.4325C9.30006 8.54544 8.28922 9.32197 7.62799 10.0439C6.99973 10.7298 6.75 11.2998 6.75 11.9997C6.75 12.6996 6.99973 13.2697 7.62799 13.9556C8.28922 14.6775 9.30006 15.454 10.7553 16.567C11.5383 17.1658 12.308 17.7242 13.0094 18.186C13.6246 18.591 14.3266 19.0133 15.0596 19.4312C16.5179 20.2626 17.5156 20.8274 18.3051 21.0933C19.0389 21.3405 19.4461 21.2816 19.8286 21.0124C20.2451 20.7192 20.534 20.2408 20.7353 19.2672C20.9405 18.2746 21.0258 16.9216 21.1437 15.0089C21.2091 13.9496 21.25 12.9184 21.25 11.9997C21.25 11.0811 21.2091 10.0499 21.1437 8.99054C21.0258 7.07788 20.9405 5.72484 20.7353 4.73228C20.534 3.75864 20.2451 3.28023 19.8286 2.98708C19.4461 2.71788 19.0389 2.65902 18.3051 2.90618ZM17.8263 1.48463C18.8429 1.14225 19.7919 1.12707 20.6919 1.7604C21.5577 2.36977 21.9683 3.2873 22.2042 4.42866C22.4337 5.53872 22.5238 6.99949 22.6371 8.83658L22.6409 8.89818C22.7074 9.97608 22.75 11.0401 22.75 11.9997C22.75 12.9594 22.7074 14.0234 22.6409 15.1013L22.6371 15.1629C22.5238 17 22.4337 18.4608 22.2042 19.5708C21.9683 20.7122 21.5577 21.6297 20.6919 22.2391C19.7919 22.8724 18.8429 22.8572 17.8263 22.5148C16.8817 22.1967 15.7571 21.5555 14.3878 20.7749L14.3167 20.7343C13.5661 20.3064 12.8349 19.8669 12.1846 19.4389C11.4437 18.9511 10.6437 18.37 9.84409 17.7585L9.78745 17.7152C8.40239 16.656 7.28352 15.8003 6.52186 14.9688C5.71689 14.0899 5.25 13.1745 5.25 11.9997C5.25 10.8249 5.71689 9.90958 6.52186 9.03073C7.28352 8.19917 8.4024 7.34352 9.78746 6.28431L9.84409 6.241C10.6437 5.62945 11.4437 5.04836 12.1846 4.5606C12.8349 4.13253 13.5661 3.69312 14.3167 3.26516L14.3878 3.22463C15.757 2.44397 16.8816 1.80278 17.8263 1.48463ZM2 4.24974C2.41421 4.24974 2.75 4.58553 2.75 4.99974V19.9997C2.75 20.414 2.41421 20.7497 2 20.7497C1.58579 20.7497 1.25 20.414 1.25 19.9997V4.99974C1.25 4.58553 1.58579 4.24974 2 4.24974Z" fill="#1C274C"/>
</g>
</svg>
