<svg width="24" height="24" viewBox="0 0 24 24" fill="none" xmlns="http://www.w3.org/2000/svg">
<g id="Outline / Video, Audio, Sound / Skip Next">
<path id="Vector" fill-rule="evenodd" clip-rule="evenodd" d="M9.61219 3.22463L9.68328 3.26516C10.4339 3.69312 11.1651 4.13253 11.8154 4.5606C12.5563 5.04836 13.3563 5.62945 14.1559 6.241L14.2125 6.28431C15.5976 7.34352 16.7165 8.19917 17.4781 9.03073C18.2831 9.90958 18.75 10.8249 18.75 11.9997C18.75 13.1745 18.2831 14.0899 17.4781 14.9688C16.7165 15.8003 15.5976 16.656 14.2126 17.7152L14.1559 17.7585C13.3563 18.37 12.5563 18.9511 11.8154 19.4389C11.1651 19.8669 10.4339 20.3064 9.68328 20.7343L9.61216 20.7749C8.24294 21.5555 7.11835 22.1967 6.17369 22.5148C5.15707 22.8572 4.20805 22.8724 3.30813 22.2391C2.44225 21.6297 2.03167 20.7122 1.79575 19.5708C1.56631 18.4608 1.47621 17 1.36291 15.1629L1.35911 15.1013C1.29261 14.0234 1.25 12.9594 1.25 11.9997C1.25 11.0401 1.29261 9.97608 1.35911 8.89818L1.36291 8.83656C1.47621 6.99948 1.56631 5.53872 1.79575 4.42866C2.03167 3.2873 2.44225 2.36977 3.30813 1.7604C4.20805 1.12707 5.15707 1.14225 6.17369 1.48463C7.11835 1.80278 8.24296 2.44397 9.61219 3.22463ZM5.69493 2.90618C4.96107 2.65902 4.55393 2.71788 4.17141 2.98708C3.75486 3.28023 3.46595 3.75864 3.2647 4.73228C3.05955 5.72484 2.97425 7.07788 2.85626 8.99054C2.79091 10.0499 2.75 11.0811 2.75 11.9997C2.75 12.9184 2.79091 13.9496 2.85626 15.0089C2.97425 16.9216 3.05955 18.2746 3.2647 19.2672C3.46595 20.2408 3.75486 20.7192 4.17141 21.0124C4.55393 21.2816 4.96107 21.3405 5.69493 21.0933C6.48445 20.8274 7.48209 20.2626 8.94037 19.4312C9.67345 19.0133 10.3754 18.591 10.9906 18.186C11.692 17.7242 12.4617 17.1658 13.2447 16.567C14.6999 15.454 15.7108 14.6775 16.372 13.9556C17.0003 13.2697 17.25 12.6996 17.25 11.9997C17.25 11.2998 17.0003 10.7298 16.372 10.0439C15.7108 9.32197 14.6999 8.54544 13.2447 7.4325C12.4617 6.83372 11.692 6.27527 10.9906 5.81348C10.3754 5.40849 9.67345 4.9862 8.94037 4.56827C7.48209 3.73691 6.48445 3.17208 5.69493 2.90618ZM22 4.24974C22.4142 4.24974 22.75 4.58553 22.75 4.99974V19.9997C22.75 20.414 22.4142 20.7497 22 20.7497C21.5858 20.7497 21.25 20.414 21.25 19.9997V4.99974C21.25 4.58553 21.5858 4.24974 22 4.24974Z" fill="#1C274C"/>
</g>
</svg>
