<svg width="24" height="24" viewBox="0 0 24 24" fill="none" xmlns="http://www.w3.org/2000/svg">
<g id="Linear / School / Diploma">
<circle id="Vector" cx="12" cy="16" r="3" stroke="#1C274D" stroke-width="1.5"/>
<path id="Vector_2" d="M12 19.2599L9.73713 21.4293C9.41306 21.74 9.25102 21.8953 9.1138 21.9491C8.80111 22.0716 8.45425 21.9667 8.28977 21.7C8.21758 21.583 8.19509 21.3719 8.1501 20.9496C8.1247 20.7113 8.112 20.5921 8.07345 20.4922C7.98715 20.2687 7.80579 20.0948 7.57266 20.0121C7.46853 19.9751 7.3442 19.963 7.09553 19.9386C6.65512 19.8955 6.43491 19.8739 6.31283 19.8047C6.03463 19.647 5.92529 19.3145 6.05306 19.0147C6.10913 18.8832 6.27116 18.7278 6.59523 18.4171L8.07345 16.9999L9.1138 15.9596" stroke="#1C274D" stroke-width="1.5"/>
<path id="Vector_3" d="M12 19.2599L14.2629 21.4294C14.5869 21.7401 14.749 21.8954 14.8862 21.9492C15.1989 22.0717 15.5457 21.9668 15.7102 21.7001C15.7824 21.5831 15.8049 21.372 15.8499 20.9497C15.8753 20.7113 15.888 20.5921 15.9265 20.4923C16.0129 20.2688 16.1942 20.0949 16.4273 20.0122C16.5315 19.9752 16.6558 19.9631 16.9045 19.9387C17.3449 19.8956 17.5651 19.874 17.6872 19.8048C17.9654 19.6471 18.0747 19.3146 17.9469 19.0148C17.8909 18.8832 17.7288 18.7279 17.4048 18.4172L15.9265 17L15 16.0735" stroke="#1C274D" stroke-width="1.5"/>
<path id="Vector_4" d="M17.3197 17.9957C19.2921 17.9748 20.3915 17.8512 21.1213 17.1213C22 16.2426 22 14.8284 22 12V8C22 5.17157 22 3.75736 21.1213 2.87868C20.2426 2 18.8284 2 16 2L8 2C5.17157 2 3.75736 2 2.87868 2.87868C2 3.75736 2 5.17157 2 8L2 12C2 14.8284 2 16.2426 2.87868 17.1213C3.64706 17.8897 4.82497 17.9862 7 17.9983" stroke="#1C274D" stroke-width="1.5"/>
<path id="Vector_5" d="M9 6L15 6" stroke="#1C274D" stroke-width="1.5" stroke-linecap="round"/>
<path id="Vector_6" d="M7 9.5H17" stroke="#1C274D" stroke-width="1.5" stroke-linecap="round"/>
</g>
</svg>
