<svg width="24" height="24" viewBox="0 0 24 24" fill="none" xmlns="http://www.w3.org/2000/svg">
<g id="Bold Duotone / Security / Key Minimalistic Square 2">
<path id="Vector" opacity="0.5" d="M2 12C2 7.28595 2 4.92893 3.46447 3.46447C4.92893 2 7.28595 2 12 2C16.714 2 19.0711 2 20.5355 3.46447C22 4.92893 22 7.28595 22 12C22 16.714 22 19.0711 20.5355 20.5355C19.0711 22 16.714 22 12 22C7.28595 22 4.92893 22 3.46447 20.5355C2 19.0711 2 16.714 2 12Z" fill="#1C274C"/>
<path id="Vector_2" fill-rule="evenodd" clip-rule="evenodd" d="M21.9626 8.41256C21.8202 9.65963 21.2708 10.8691 20.3142 11.8256C18.8218 13.318 16.7136 13.8195 14.8074 13.33C14.5 13.251 14.1677 13.3209 13.9433 13.5454L12.4136 15.075L12.4107 15.0722L10.9532 13.6306C10.6587 13.3393 10.1838 13.3419 9.89254 13.6364C9.60127 13.9309 9.60388 14.4058 9.89838 14.697L11.3529 16.1357L10.8496 16.639C10.5847 16.9039 10.2137 17.0341 9.84133 16.9927L8.10084 16.7993C7.91528 16.7787 7.74226 16.6955 7.61024 16.5635L7.43673 16.39C7.30472 16.258 7.22156 16.085 7.20094 15.8994L7.00755 14.1589C6.96618 13.7865 7.09632 13.4155 7.36124 13.1506L10.4547 10.0572C10.6791 9.83275 10.7492 9.50027 10.6703 9.19283C10.1808 7.28662 10.6822 5.17845 12.1747 3.686C13.1312 2.72946 14.3407 2.18 15.5878 2.0376C16.4945 2.07092 17.2684 2.13397 17.9361 2.25325C18.8063 2.51996 19.6258 2.99754 20.3142 3.686C21.0027 4.37443 21.4802 5.19387 21.747 6.06407C21.8663 6.73177 21.9293 7.50577 21.9626 8.41256ZM14.9882 6.65514C15.639 6.00427 16.6943 6.00427 17.3452 6.65514C17.9961 7.30601 17.9961 8.36129 17.3452 9.01216C16.6943 9.66304 15.639 9.66304 14.9882 9.01216C14.3373 8.36129 14.3373 7.30601 14.9882 6.65514Z" fill="#1C274C"/>
</g>
</svg>
