<svg width="24" height="24" viewBox="0 0 24 24" fill="none" xmlns="http://www.w3.org/2000/svg">
<g id="Linear / Home, Furniture / Trellis">
<path id="Vector" d="M19 22V21.5M5 22V21.5" stroke="#1C274C" stroke-width="1.5" stroke-linecap="round"/>
<path id="Vector_2" d="M12 21V15" stroke="#1C274C" stroke-width="1.5" stroke-linecap="round"/>
<path id="Vector_3" d="M2.87891 20.1213L2.34858 20.6517H2.34858L2.87891 20.1213ZM2.00197 16.0001L1.25198 16.0042L2.00197 16.0001ZM21.1216 20.1213L21.6519 20.6516L21.1216 20.1213ZM21.9985 16.0001L22.7485 16.0042V16.0042L21.9985 16.0001ZM16.0002 20.25H8.00023V21.75H16.0002V20.25ZM8.00023 20.25C6.56482 20.25 5.5637 20.2484 4.80835 20.1469C4.07458 20.0482 3.686 19.8678 3.40924 19.591L2.34858 20.6517C2.9505 21.2536 3.70837 21.5125 4.60848 21.6335C5.48701 21.7516 6.60722 21.75 8.00023 21.75V20.25ZM1.25198 16.0042C1.258 17.0857 1.28388 17.9871 1.41918 18.7237C1.55842 19.4817 1.82366 20.1267 2.34858 20.6517L3.40924 19.591C3.16579 19.3475 2.99861 19.0195 2.8945 18.4527C2.78644 17.8644 2.75804 17.0894 2.75196 15.9959L1.25198 16.0042ZM16.0002 21.75C17.3932 21.75 18.5134 21.7516 19.392 21.6335C20.2921 21.5125 21.05 21.2536 21.6519 20.6516L20.5912 19.591C20.3145 19.8678 19.9259 20.0482 19.1921 20.1469C18.4368 20.2484 17.4356 20.25 16.0002 20.25V21.75ZM21.2485 15.9959C21.2424 17.0894 21.214 17.8644 21.106 18.4527C21.0018 19.0195 20.8347 19.3475 20.5912 19.591L21.6519 20.6516C22.1768 20.1267 22.442 19.4817 22.5813 18.7237C22.7166 17.9871 22.7425 17.0857 22.7485 16.0042L21.2485 15.9959ZM3.00023 15.75H21.0002V14.25H3.00023V15.75ZM22.7485 16.0042C22.7539 15.0324 21.9647 14.25 21.0002 14.25V15.75C21.1404 15.75 21.2492 15.8631 21.2485 15.9959L22.7485 16.0042ZM2.75196 15.9959C2.75122 15.8631 2.8601 15.75 3.00023 15.75V14.25C2.03579 14.25 1.24657 15.0324 1.25198 16.0042L2.75196 15.9959Z" fill="#1C274C"/>
<path id="Vector_4" d="M20.5 15.0001V6.13759C20.5 5.74965 20.5 5.55568 20.4822 5.42302C20.359 4.50707 19.8459 3.94522 18.9449 3.73964C18.8144 3.70987 18.5429 3.68518 18 3.63583C16.9981 3.54475 15.8169 3.19603 14.7687 2.81468C13.2754 2.2714 12.5288 1.99976 12 1.99976C11.4712 1.99976 10.7246 2.2714 9.23133 2.81468C8.18314 3.19603 7.00193 3.54475 6 3.63583C5.45709 3.68519 5.18562 3.70987 5.05512 3.73964C4.15409 3.94522 3.64099 4.50707 3.51784 5.42302C3.5 5.55568 3.5 5.74965 3.5 6.13759V15.0001" stroke="#1C274C" stroke-width="1.5"/>
<path id="Vector_5" d="M15 18L17 18" stroke="#1C274C" stroke-width="1.5" stroke-linecap="round"/>
<path id="Vector_6" d="M7 18L9 18" stroke="#1C274C" stroke-width="1.5" stroke-linecap="round"/>
<path id="Vector_7" d="M14.5 11L13.5 12M13.5 8L10.5 11M10.5 7L9.5 8" stroke="#1C274C" stroke-width="1.5" stroke-linecap="round"/>
</g>
</svg>
