<svg width="24" height="24" viewBox="0 0 24 24" fill="none" xmlns="http://www.w3.org/2000/svg">
<g id="Bold / Food, Kitchen / Whisk">
<path id="Vector" fill-rule="evenodd" clip-rule="evenodd" d="M11.2334 3.65379C13.9918 0.895558 18.4782 0.320685 21.0789 2.92126C23.6796 5.52187 23.1046 10.0082 20.3463 12.7664C18.4985 14.6141 15.5113 15.8786 12.9616 15.7876C12.7379 15.7796 12.5153 15.7611 12.2954 15.7309L6.85993 21.1662C5.74815 22.278 3.94561 22.278 2.83383 21.1662C1.72206 20.0545 1.72206 18.252 2.83383 17.1403L8.26895 11.7053C8.23881 11.4856 8.22021 11.2632 8.21219 11.0396C8.12062 8.48974 9.38534 5.50182 11.2334 3.65379ZM12.2941 4.71447C13.9349 3.07369 16.1404 2.46752 17.952 2.87396C17.6843 3.00026 17.4171 3.14514 17.1559 3.30026C15.8484 4.07644 14.4911 5.228 13.5767 6.14231C12.6636 7.05539 11.3192 8.60515 10.3482 10.0978C10.1197 10.4491 9.90527 10.8071 9.72026 11.1608C9.71635 11.1031 9.71334 11.0448 9.71122 10.9858C9.6359 8.8884 10.7139 6.29463 12.2941 4.71447ZM19.432 3.93099C19.8406 3.84723 19.9729 3.93668 20.0182 3.98194C20.0635 4.02722 20.153 4.15957 20.0692 4.56831C19.9866 4.97165 19.7599 5.48974 19.4103 6.07882C18.7166 7.24751 17.6538 8.50698 16.7976 9.36308C15.9402 10.2204 14.4706 11.4931 13.0845 12.3945C12.3863 12.8485 11.7531 13.1793 11.2548 13.3314C11.0065 13.4072 10.8321 13.4258 10.7217 13.4176C10.6699 13.4138 10.6413 13.4047 10.6284 13.3994C10.6174 13.3948 10.6137 13.3915 10.611 13.3888C10.6083 13.386 10.605 13.3824 10.6004 13.3714C10.5951 13.3585 10.586 13.3299 10.5822 13.2782C10.574 13.1679 10.5926 12.9935 10.6685 12.7452C10.8206 12.247 11.1514 11.6139 11.6056 10.9158C12.5071 9.52982 13.78 8.06039 14.6374 7.20299C15.4936 6.34684 16.753 5.28383 17.9216 4.59009C18.5106 4.24041 19.0286 4.01365 19.432 3.93099ZM13.9023 13.652C13.5511 13.8803 13.1932 14.0946 12.8397 14.2795C12.8975 14.2834 12.956 14.2865 13.0152 14.2886C15.1125 14.3635 17.7057 13.2856 19.2856 11.7057C20.9263 10.065 21.5326 7.85988 21.1263 6.04843C21 6.3161 20.8552 6.58316 20.7002 6.8444C19.9241 8.15199 18.7727 9.5094 17.8583 10.4238C16.9451 11.3369 15.3951 12.6811 13.9023 13.652Z" fill="#1C274C"/>
</g>
</svg>
