<svg width="24" height="24" viewBox="0 0 24 24" fill="none" xmlns="http://www.w3.org/2000/svg">
<g id="Bold Duotone / Shopping, Ecommerce / Bag 3">
<path id="Vector" opacity="0.5" d="M5.57434 4.69147C4.74117 5.38295 4.52171 6.55339 4.0828 8.89427L3.3328 12.8943C2.7156 16.186 2.40701 17.8318 3.30672 18.9159C4.20644 20 5.88097 20 9.23003 20H14.7709C18.12 20 19.7945 20 20.6942 18.9159C21.5939 17.8318 21.2853 16.186 20.6681 12.8943L19.9181 8.89427C19.4792 6.55339 19.2598 5.38295 18.4266 4.69147C17.5934 4 16.4026 4 14.0209 4H9.98003C7.59835 4 6.40752 4 5.57434 4.69147Z" fill="#1C274C"/>
<path id="Vector_2" d="M12.0004 9.24996C11.0219 9.24996 10.1875 8.62493 9.87823 7.75003C9.7402 7.35949 9.31171 7.1548 8.92117 7.29283C8.53063 7.43087 8.32594 7.85936 8.46397 8.24989C8.97841 9.70537 10.3665 10.75 12.0004 10.75C13.6343 10.75 15.0224 9.70537 15.5368 8.24989C15.6749 7.85936 15.4702 7.43087 15.0796 7.29283C14.6891 7.1548 14.2606 7.35949 14.1226 7.75003C13.8133 8.62493 12.9789 9.24996 12.0004 9.24996Z" fill="#1C274C"/>
</g>
</svg>
