<svg width="24" height="24" viewBox="0 0 24 24" fill="none" xmlns="http://www.w3.org/2000/svg">
<g id="Line Duotone / Map &#38; Location / Signpost 2">
<path id="Vector" opacity="0.5" d="M12.75 2C12.75 1.58579 12.4142 1.25 12 1.25C11.5858 1.25 11.25 1.58579 11.25 2H12.75ZM11.25 2V3H12.75V2H11.25Z" fill="#1C274C"/>
<path id="Vector_2" opacity="0.5" d="M12.75 11C12.75 10.5858 12.4142 10.25 12 10.25C11.5858 10.25 11.25 10.5858 11.25 11H12.75ZM11.25 11V12H12.75V11H11.25Z" fill="#1C274C"/>
<path id="Vector_3" d="M8.70399 3.5H15.5C16.9045 3.5 17.6067 3.5 18.1111 3.83706C18.3295 3.98298 18.517 4.17048 18.6629 4.38886C19 4.89331 19 5.59554 19 7C19 8.40446 19 9.10669 18.6629 9.61114C18.517 9.82952 18.3295 10.017 18.1111 10.1629C17.6067 10.5 16.9045 10.5 15.5 10.5H8.70399C8.04642 10.5 7.71764 10.5 7.41593 10.4018C7.28282 10.3585 7.15463 10.3013 7.03346 10.2312C6.75882 10.0723 6.53915 9.8277 6.09981 9.33844C5.24911 8.39107 4.82376 7.91738 4.72136 7.36381C4.67687 7.12331 4.67687 6.87669 4.72136 6.63619C4.82376 6.08262 5.24911 5.60894 6.09981 4.66156C6.53915 4.1723 6.75882 3.92767 7.03346 3.76879C7.15463 3.6987 7.28282 3.64152 7.41593 3.5982C7.71764 3.5 8.04642 3.5 8.70399 3.5Z" stroke="#1C274C" stroke-width="1.5"/>
<path id="Vector_4" d="M15.296 12.5H8.5C7.09554 12.5 6.39331 12.5 5.88886 12.8371C5.67048 12.983 5.48298 13.1705 5.33706 13.3889C5 13.8933 5 14.5955 5 16C5 17.4045 5 18.1067 5.33706 18.6111C5.48298 18.8295 5.67048 19.017 5.88886 19.1629C6.39331 19.5 7.09554 19.5 8.5 19.5H15.296C15.9536 19.5 16.2824 19.5 16.5841 19.4018C16.7172 19.3585 16.8454 19.3013 16.9665 19.2312C17.2412 19.0723 17.4608 18.8277 17.9002 18.3384C18.7509 17.3911 19.1762 16.9174 19.2786 16.3638C19.3231 16.1233 19.3231 15.8767 19.2786 15.6362C19.1762 15.0826 18.7509 14.6089 17.9002 13.6616C17.4608 13.1723 17.2412 12.9277 16.9665 12.7688C16.8454 12.6987 16.7172 12.6415 16.5841 12.5982C16.2824 12.5 15.9536 12.5 15.296 12.5Z" stroke="#1C274C" stroke-width="1.5"/>
<path id="Vector_5" opacity="0.5" d="M12.75 20C12.75 19.5858 12.4142 19.25 12 19.25C11.5858 19.25 11.25 19.5858 11.25 20H12.75ZM14 22.75C14.4142 22.75 14.75 22.4142 14.75 22C14.75 21.5858 14.4142 21.25 14 21.25V22.75ZM10 21.25C9.58579 21.25 9.25 21.5858 9.25 22C9.25 22.4142 9.58579 22.75 10 22.75V21.25ZM11.25 20V22H12.75V20H11.25ZM14 21.25H10V22.75H14V21.25Z" fill="#1C274C"/>
<path id="Vector_6" opacity="0.5" d="M9 7H15" stroke="#1C274C" stroke-width="1.5" stroke-linecap="round"/>
<path id="Vector_7" opacity="0.5" d="M9 16L15 16" stroke="#1C274C" stroke-width="1.5" stroke-linecap="round"/>
</g>
</svg>
