<svg width="24" height="24" viewBox="0 0 24 24" fill="none" xmlns="http://www.w3.org/2000/svg">
<g id="Broken / Weather / Sun 2">
<path id="Ellipse 363" d="M7.28451 10.3333C7.10026 10.8546 7 11.4156 7 12C7 14.7614 9.23858 17 12 17C14.7614 17 17 14.7614 17 12C17 9.23858 14.7614 7 12 7C11.4156 7 10.8546 7.10026 10.3333 7.28451" stroke="#1C274C" stroke-width="1.5" stroke-linecap="round"/>
<path id="Vector" d="M12 2V4" stroke="#1C274C" stroke-width="1.5" stroke-linecap="round"/>
<path id="Vector_2" d="M12 20V22" stroke="#1C274C" stroke-width="1.5" stroke-linecap="round"/>
<path id="Vector_3" d="M4 12L2 12" stroke="#1C274C" stroke-width="1.5" stroke-linecap="round"/>
<path id="Vector_4" d="M22 12L20 12" stroke="#1C274C" stroke-width="1.5" stroke-linecap="round"/>
<path id="Vector_5" d="M19.7778 4.22266L17.5558 6.25424" stroke="#1C274C" stroke-width="1.5" stroke-linecap="round"/>
<path id="Vector_6" d="M4.22217 4.22266L6.44418 6.25424" stroke="#1C274C" stroke-width="1.5" stroke-linecap="round"/>
<path id="Vector_7" d="M6.44434 17.5557L4.22211 19.7779" stroke="#1C274C" stroke-width="1.5" stroke-linecap="round"/>
<path id="Vector_8" d="M19.7778 19.7773L17.5558 17.5551" stroke="#1C274C" stroke-width="1.5" stroke-linecap="round"/>
</g>
</svg>
