<svg width="24" height="24" viewBox="0 0 24 24" fill="none" xmlns="http://www.w3.org/2000/svg">
<g id="Bold Duotone / Home, Furniture / Floor Lamp">
<path id="Vector" d="M11.9998 7C13.3128 7 14.4288 6.15653 14.8354 4.98189C15.0161 4.46 14.5521 4 13.9998 4H9.99981C9.44752 4 8.98349 4.46 9.16418 4.98189C9.57086 6.15653 10.6868 7 11.9998 7Z" fill="#1C274C"/>
<path id="Vector_2" opacity="0.5" d="M12 2C13.1046 2 14 2.89543 14 4H10C10 2.89543 10.8954 2 12 2Z" fill="#1C274C"/>
<path id="Vector_3" d="M6.45475 10.9797C6.4777 10.9503 6.50003 10.9207 6.52175 10.8908C7.28695 9.83634 7.29596 8.44285 6.62892 7.39285C6.32414 6.91309 5.66094 6.99532 5.31133 7.44287L2.77924 10.6843C2.42963 11.1319 2.50535 11.8017 3.03889 11.9886C4.23974 12.4093 5.62361 12.0437 6.45475 10.9797Z" fill="#1C274C"/>
<path id="Vector_4" opacity="0.5" d="M2.43904 7.7863C3.13826 6.8912 4.42425 6.73749 5.31139 7.44298L2.7793 10.6844C1.89216 9.97894 1.73982 8.6814 2.43904 7.7863Z" fill="#1C274C"/>
<path id="Vector_5" d="M17.5452 10.9797C17.5223 10.9503 17.5 10.9207 17.4783 10.8908C16.713 9.83634 16.704 8.44285 17.3711 7.39285C17.6759 6.91309 18.3391 6.99532 18.6887 7.44287L21.2208 10.6843C21.5704 11.1319 21.4947 11.8017 20.9611 11.9886C19.7603 12.4093 18.3764 12.0437 17.5452 10.9797Z" fill="#1C274C"/>
<path id="Vector_6" opacity="0.5" d="M21.561 7.7863C20.8617 6.8912 19.5757 6.73749 18.6886 7.44298L21.2207 10.6844C22.1078 9.97894 22.2602 8.6814 21.561 7.7863Z" fill="#1C274C"/>
<path id="Vector_7" fill-rule="evenodd" clip-rule="evenodd" d="M8.25 22C8.25 21.5858 8.58579 21.25 9 21.25H15C15.4142 21.25 15.75 21.5858 15.75 22C15.75 22.4142 15.4142 22.75 15 22.75H9C8.58579 22.75 8.25 22.4142 8.25 22Z" fill="#1C274C"/>
<g id="Vector_8" opacity="0.55">
<path d="M12 6.99988C12.2571 6.99988 12.5066 6.96755 12.7447 6.90674C12.7485 6.93725 12.7504 6.96834 12.7504 6.99988V13.4069C12.8727 13.2894 13.0016 13.1779 13.1369 13.0729L13.1486 13.0638L17.0893 10.1712C17.1847 10.4222 17.3141 10.6643 17.4785 10.8908C17.5002 10.9207 17.5225 10.9503 17.5455 10.9797C17.6676 11.1361 17.8017 11.2774 17.9454 11.4033L14.0455 14.2665C13.23 14.9049 12.7506 15.8901 12.7506 16.9367V17.9999L12.7504 18.0158V21.2499H11.2504V16.9032C11.2403 15.8692 10.7623 14.8982 9.95535 14.2665L6.05518 11.4032C6.19882 11.2773 6.33287 11.136 6.45499 10.9797C6.47793 10.9503 6.50026 10.9207 6.52198 10.8908C6.68638 10.6642 6.81587 10.422 6.91126 10.171L10.8523 13.0638L10.864 13.0729C10.9993 13.1779 11.1282 13.2894 11.2504 13.4068V6.99988C11.2504 6.96841 11.2524 6.93739 11.2561 6.90693C11.494 6.96762 11.7433 6.99988 12 6.99988Z" fill="#1C274C"/>
<path d="M11.9977 22.7499L12.0004 22.7499L12.0031 22.7499H11.9977Z" fill="#1C274C"/>
</g>
</g>
</svg>
