<svg width="24" height="24" viewBox="0 0 24 24" fill="none" xmlns="http://www.w3.org/2000/svg">
<g id="Linear / Shopping, Ecommerce / Bag 3">
<path id="Vector" d="M3.74181 18.5545C4.94143 20 7.17414 20 11.6395 20H12.3607C16.8261 20 19.0589 20 20.2585 18.5545M3.74181 18.5545C2.54219 17.1091 2.95365 14.9146 3.77657 10.5257C4.36179 7.40452 4.65441 5.84393 5.7653 4.92196M3.74181 18.5545C3.74181 18.5545 3.74181 18.5545 3.74181 18.5545ZM20.2585 18.5545C21.4581 17.1091 21.0466 14.9146 20.2237 10.5257C19.6385 7.40452 19.3459 5.84393 18.235 4.92196M20.2585 18.5545C20.2585 18.5545 20.2585 18.5545 20.2585 18.5545ZM18.235 4.92196C17.1241 4 15.5363 4 12.3607 4H11.6395C8.46398 4 6.8762 4 5.7653 4.92196M18.235 4.92196C18.235 4.92196 18.235 4.92196 18.235 4.92196ZM5.7653 4.92196C5.7653 4.92196 5.7653 4.92196 5.7653 4.92196Z" stroke="#1C274C" stroke-width="1.5"/>
<path id="Vector_2" d="M9.1709 8C9.58273 9.16519 10.694 10 12.0002 10C13.3064 10 14.4177 9.16519 14.8295 8" stroke="#1C274C" stroke-width="1.5" stroke-linecap="round"/>
</g>
</svg>
