<svg width="24" height="24" viewBox="0 0 24 24" fill="none" xmlns="http://www.w3.org/2000/svg">
<g id="Broken / Users / Users Group Rounded">
<circle id="Vector" cx="9" cy="6" r="4" stroke="#1C274C" stroke-width="1.5"/>
<path id="Vector_2" d="M15 9C16.6569 9 18 7.65685 18 6C18 4.34315 16.6569 3 15 3" stroke="#1C274C" stroke-width="1.5" stroke-linecap="round"/>
<path id="Vector_3" d="M5.88915 20.5843C6.82627 20.8504 7.88256 21 9 21C12.866 21 16 19.2091 16 17C16 14.7909 12.866 13 9 13C5.13401 13 2 14.7909 2 17C2 17.3453 2.07657 17.6804 2.22053 18" stroke="#1C274C" stroke-width="1.5" stroke-linecap="round"/>
<path id="Vector_4" d="M18 14C19.7542 14.3847 21 15.3589 21 16.5C21 17.5293 19.9863 18.4229 18.5 18.8704" stroke="#1C274C" stroke-width="1.5" stroke-linecap="round"/>
</g>
</svg>
