<svg width="24" height="24" viewBox="0 0 24 24" fill="none" xmlns="http://www.w3.org/2000/svg">
<g id="Bold / Users / User Block">
<g id="Vector">
<path d="M12 10C14.2091 10 16 8.20914 16 6C16 3.79086 14.2091 2 12 2C9.79086 2 8 3.79086 8 6C8 8.20914 9.79086 10 12 10Z" fill="#1C274C"/>
<path fill-rule="evenodd" clip-rule="evenodd" d="M18 15.75C16.2051 15.75 14.75 17.2051 14.75 19C14.75 20.7949 16.2051 22.25 18 22.25C19.7949 22.25 21.25 20.7949 21.25 19C21.25 17.2051 19.7949 15.75 18 15.75ZM16.25 19C16.25 18.0335 17.0335 17.25 18 17.25C18.2063 17.25 18.4043 17.2857 18.5881 17.3513L16.3513 19.5881C16.2857 19.4043 16.25 19.2063 16.25 19ZM17.4119 20.6487L19.6487 18.4119C19.7143 18.5957 19.75 18.7937 19.75 19C19.75 19.9665 18.9665 20.75 18 20.75C17.7937 20.75 17.5957 20.7143 17.4119 20.6487Z" fill="#1C274C"/>
<path d="M12 22C4 22 4 19.9853 4 17.5C4 15.0147 7.58172 13 12 13C14.3695 13 16.4983 13.5794 17.9632 14.5001C15.4949 14.5199 13.5 16.527 13.5 19C13.5 20.1115 13.903 21.1288 14.5708 21.9139C13.8219 21.9704 12.9697 22 12 22Z" fill="#1C274C"/>
</g>
</g>
</svg>
