<svg width="24" height="24" viewBox="0 0 24 24" fill="none" xmlns="http://www.w3.org/2000/svg">
<g id="Bold / Users / User Speak">
<g id="Vector">
<path d="M18.3569 1.61413C18.57 1.25895 19.0307 1.14378 19.3859 1.35689L19 2.00001C19.3859 1.35689 19.3855 1.35668 19.3859 1.35689L19.3873 1.35772L19.3888 1.35867L19.3925 1.36093L19.4021 1.36684C19.4095 1.37142 19.4187 1.37726 19.4297 1.38438C19.4517 1.39861 19.4808 1.41798 19.516 1.44261C19.5863 1.49183 19.6813 1.56234 19.7926 1.65509C20.0147 1.84018 20.3052 2.11667 20.5945 2.49272C21.1773 3.25046 21.75 4.40735 21.75 6.00001C21.75 7.59266 21.1773 8.74955 20.5945 9.50729C20.3052 9.88334 20.0147 10.1598 19.7926 10.3449C19.6813 10.4377 19.5863 10.5082 19.516 10.5574C19.4808 10.582 19.4517 10.6014 19.4297 10.6156C19.4242 10.6192 19.4192 10.6224 19.4146 10.6253C19.41 10.6283 19.4058 10.6309 19.4021 10.6332L19.3925 10.6391L19.3888 10.6413L19.3873 10.6423C19.3869 10.6425 19.3859 10.6431 19 10L19.3859 10.6431C19.0307 10.8562 18.57 10.7411 18.3569 10.3859C18.1447 10.0322 18.258 9.57388 18.6097 9.35959L18.6152 9.35606C18.6225 9.35134 18.6363 9.3422 18.6558 9.32855C18.6949 9.30121 18.7562 9.25609 18.8324 9.19259C18.9853 9.06518 19.1948 8.86667 19.4055 8.59272C19.8227 8.05046 20.25 7.20735 20.25 6.00001C20.25 4.79266 19.8227 3.94955 19.4055 3.40729C19.1948 3.13334 18.9853 2.93483 18.8324 2.80742C18.7562 2.74393 18.6949 2.6988 18.6558 2.67146C18.6363 2.65781 18.6225 2.64867 18.6152 2.64396L18.6097 2.64043C18.258 2.42614 18.1447 1.96783 18.3569 1.61413Z" fill="#1C274C"/>
<path d="M10 10C12.2091 10 14 8.20915 14 6.00001C14 3.79087 12.2091 2.00001 10 2.00001C7.79086 2.00001 6 3.79087 6 6.00001C6 8.20915 7.79086 10 10 10Z" fill="#1C274C"/>
<path d="M2 17.5C2 19.9853 2 22 10 22C18 22 18 19.9853 18 17.5C18 15.0147 14.4183 13 10 13C5.58172 13 2 15.0147 2 17.5Z" fill="#1C274C"/>
<path d="M17.3859 3.35689C17.0307 3.14378 16.57 3.25895 16.3569 3.61413L16.6051 4.63763L16.6129 4.64295C16.6246 4.65115 16.6468 4.66736 16.6761 4.6918C16.7353 4.74108 16.8198 4.82084 16.9055 4.93229C17.0727 5.14955 17.25 5.49266 17.25 6.00001C17.25 6.50735 17.0727 6.85046 16.9055 7.06772C16.8198 7.17917 16.7353 7.25893 16.6761 7.30822C16.6468 7.33265 16.6246 7.34887 16.6129 7.35707L16.6051 7.36238C16.257 7.57784 16.1456 8.03372 16.3569 8.38588C16.57 8.74106 17.0307 8.85624 17.3859 8.64313L17 8.00001C17.3859 8.64313 17.3855 8.64333 17.3859 8.64313L17.3872 8.64232L17.3887 8.64145L17.3918 8.63953L17.3993 8.63493L17.4185 8.62272C17.4332 8.61322 17.4515 8.60098 17.4731 8.58591C17.516 8.55584 17.572 8.51424 17.6364 8.46055C17.7647 8.35358 17.9302 8.19584 18.0945 7.98229C18.4273 7.54955 18.75 6.89266 18.75 6.00001C18.75 5.10735 18.4273 4.45046 18.0945 4.01772C17.9302 3.80417 17.7647 3.64643 17.6364 3.53947C17.572 3.48577 17.516 3.44418 17.4731 3.4141C17.4515 3.39904 17.4332 3.38679 17.4185 3.3773L17.3993 3.36508L17.3918 3.36049L17.3887 3.35856L17.3872 3.35769C17.3869 3.35749 17.3859 3.35689 17 4.00001L17.3859 3.35689Z" fill="#1C274C"/>
</g>
</g>
</svg>
