<svg width="24" height="24" viewBox="0 0 24 24" fill="none" xmlns="http://www.w3.org/2000/svg">
<g id="Bold / Users / User Cross Rounded">
<circle id="Vector" cx="12" cy="6" r="4" fill="#1C274C"/>
<path id="Vector_2" fill-rule="evenodd" clip-rule="evenodd" d="M17.4697 16.9697C17.7626 16.6768 18.2374 16.6768 18.5303 16.9697L19 17.4393L19.4697 16.9697C19.7626 16.6768 20.2374 16.6768 20.5303 16.9697C20.8232 17.2626 20.8232 17.7374 20.5303 18.0303L20.0607 18.5L20.5303 18.9697C20.8232 19.2626 20.8232 19.7374 20.5303 20.0303C20.2374 20.3232 19.7626 20.3232 19.4697 20.0303L19 19.5607L18.5303 20.0303C18.2374 20.3232 17.7626 20.3232 17.4697 20.0303C17.1768 19.7374 17.1768 19.2626 17.4697 18.9697L17.9393 18.5L17.4697 18.0303C17.1768 17.7374 17.1768 17.2626 17.4697 16.9697Z" fill="#1C274C"/>
<path id="Vector_3" d="M18.314 15.2719C17.6386 15.1772 16.9284 15.3896 16.409 15.909C15.708 16.61 15.5663 17.6585 15.9838 18.5C15.7012 19.0696 15.6748 19.734 15.9047 20.3213C14.7893 20.7505 13.4458 21.001 12 21.001C8.13401 21.001 5 19.2101 5 17.001C5 14.7918 8.13401 13.001 12 13.001C14.7822 13.001 17.1853 13.9285 18.314 15.2719Z" fill="#1C274C"/>
</g>
</svg>
