<svg width="24" height="24" viewBox="0 0 24 24" fill="none" xmlns="http://www.w3.org/2000/svg">
<g id="Bold / Video, Audio, Sound / Music Library ">
<g id="Vector">
<path d="M8.8589 2.00001H15.141C15.3502 1.99995 15.5106 1.99991 15.6509 2.01515C16.6479 2.12351 17.464 2.78957 17.81 3.68676H6.18985C6.53591 2.78957 7.35199 2.12351 8.34903 2.01515C8.48926 1.99991 8.64967 1.99995 8.8589 2.00001Z" fill="#1C274C"/>
<path d="M6.87946 4.72309C5.6279 4.72309 4.60167 5.56284 4.25919 6.67687C4.25205 6.70009 4.24521 6.72343 4.23866 6.74689C4.597 6.62632 4.96993 6.54755 5.34745 6.49378C6.31978 6.35527 7.54859 6.35534 8.97602 6.35543L9.08261 6.35543L15.1789 6.35543C16.6063 6.35534 17.8351 6.35527 18.8075 6.49378C19.185 6.54755 19.5579 6.62632 19.9163 6.74689C19.9097 6.72343 19.9029 6.70009 19.8957 6.67687C19.5533 5.56284 18.527 4.72309 17.2755 4.72309H6.87946Z" fill="#1C274C"/>
<path fill-rule="evenodd" clip-rule="evenodd" d="M9.00515 7.54199H14.9948C18.0322 7.54199 19.5509 7.54199 20.4039 8.52881C21.257 9.51563 21.0563 11.0402 20.6548 14.0894L20.2742 16.981C19.9594 19.3722 19.802 20.5678 18.9945 21.2838C18.187 21.9998 16.9961 21.9998 14.6142 21.9998H9.38583C7.00393 21.9998 5.81298 21.9998 5.0055 21.2838C4.19803 20.5678 4.04063 19.3722 3.72583 16.981L3.34516 14.0894C2.94373 11.0402 2.74302 9.51563 3.59609 8.52881C4.44915 7.54199 5.96782 7.54199 9.00515 7.54199ZM11.8607 11.6925C11.9428 10.4305 13.3569 9.63888 14.5885 10.1651C14.6423 10.1881 14.7073 10.2204 14.7858 10.2595L14.8045 10.2688L15.9456 10.8367C15.9777 10.8527 16.0057 10.8667 16.0326 10.8811C16.6121 11.1919 16.9778 11.7607 16.999 12.3841C17 12.413 17 12.4427 17 12.4766V12.4837L17 12.5034C17 12.5864 17 12.6552 16.9965 12.7103C16.9144 13.9723 15.5003 14.7639 14.2686 14.2377C14.2148 14.2147 14.1498 14.1824 14.0713 14.1433L14.0527 14.134L13.1433 13.6814L13.1429 17.6004C13.1428 18.9257 11.9915 20 10.5714 20C9.15135 20 8 18.9257 8 17.6004C8 16.275 9.15135 15.2008 10.5714 15.2008C11.0399 15.2008 11.4791 15.3177 11.8574 15.5219L11.8578 12.0077C11.8571 11.9823 11.8571 11.9559 11.8571 11.9262L11.8571 11.9191L11.8571 11.8994C11.8571 11.8164 11.8571 11.7476 11.8607 11.6925Z" fill="#1C274C"/>
<path d="M10.5714 16.4007C11.2816 16.4007 11.8571 16.9378 11.8571 17.6003C11.8571 18.2628 11.2816 18.8001 10.5714 18.8001C9.86127 18.8001 9.28571 18.2629 9.28571 17.6004C9.28571 16.9379 9.86127 16.4007 10.5714 16.4007Z" fill="#1C274C"/>
<path d="M14.0533 11.2561C13.6426 11.0807 13.1714 11.3447 13.144 11.7651C13.1432 11.7783 13.1429 11.8057 13.1429 11.9191C13.1429 11.9641 13.1429 11.9733 13.1432 11.9805C13.1503 12.1883 13.2721 12.3778 13.4653 12.4814C13.472 12.4851 13.4807 12.4894 13.5232 12.5106L14.6576 13.0752C14.7649 13.1286 14.7909 13.1412 14.8038 13.1467C15.2145 13.3221 15.6858 13.0581 15.7131 12.6377C15.714 12.6245 15.7143 12.5971 15.7143 12.4837C15.7143 12.4387 15.7142 12.4296 15.714 12.4223C15.7069 12.2145 15.585 12.025 15.3919 11.9214L14.0533 11.2561Z" fill="#1C274C"/>
</g>
</g>
</svg>
