<svg width="24" height="24" viewBox="0 0 24 24" fill="none" xmlns="http://www.w3.org/2000/svg">
<g id="Bold / Video, Audio, Sound / Playback Speed">
<g id="Vector">
<path d="M9.60751 1.51737C10.3776 1.34229 11.1785 1.25 12 1.25C17.9371 1.25 22.75 6.06294 22.75 12C22.75 17.9371 17.9371 22.75 12 22.75C11.1785 22.75 10.3776 22.6577 9.60751 22.4826C9.2036 22.3908 8.95061 21.9889 9.04244 21.585C9.13427 21.1811 9.53614 20.9281 9.94005 21.02C10.6018 21.1704 11.2911 21.25 12 21.25C17.1086 21.25 21.25 17.1086 21.25 12C21.25 6.89137 17.1086 2.75 12 2.75C11.2911 2.75 10.6018 2.8296 9.94005 2.98004C9.53614 3.07187 9.13427 2.81888 9.04244 2.41497C8.95061 2.01106 9.2036 1.60919 9.60751 1.51737Z" fill="#1C274C"/>
<path d="M7.31372 3.13198C7.53443 3.4825 7.42919 3.94557 7.07868 4.16627C5.90349 4.90623 4.90623 5.90349 4.16627 7.07868C3.94556 7.42919 3.4825 7.53443 3.13198 7.31372C2.78146 7.09302 2.67623 6.62995 2.89693 6.27944C3.75646 4.91436 4.91436 3.75646 6.27943 2.89693C6.62995 2.67623 7.09302 2.78146 7.31372 3.13198Z" fill="#1C274C"/>
<path d="M2.98004 9.94005C3.07187 9.53614 2.81888 9.13427 2.41497 9.04244C2.01106 8.95061 1.60919 9.2036 1.51737 9.60751C1.34229 10.3776 1.25 11.1785 1.25 12C1.25 12.8215 1.34229 13.6224 1.51737 14.3925C1.60919 14.7964 2.01106 15.0494 2.41497 14.9576C2.81888 14.8657 3.07187 14.4639 2.98004 14.06C2.8296 13.3982 2.75 12.7089 2.75 12C2.75 11.2911 2.8296 10.6018 2.98004 9.94005Z" fill="#1C274C"/>
<path d="M3.13198 16.6863C3.4825 16.4656 3.94557 16.5708 4.16627 16.9213C4.90623 18.0965 5.90349 19.0938 7.07868 19.8337C7.42919 20.0544 7.53443 20.5175 7.31372 20.868C7.09302 21.2185 6.62995 21.3238 6.27944 21.1031C4.91436 20.2435 3.75646 19.0856 2.89693 17.7206C2.67623 17.37 2.78146 16.907 3.13198 16.6863Z" fill="#1C274C"/>
<path d="M15.5 12C15.5 11.2501 14.9625 10.8117 13.8876 9.9348C13.5909 9.69274 13.2966 9.46483 13.0261 9.27492C12.7888 9.10831 12.5201 8.93597 12.2419 8.76679C11.1695 8.11466 10.6333 7.78859 10.1524 8.1496C9.6715 8.51061 9.62779 9.26636 9.54038 10.7778C9.51566 11.2053 9.5 11.6243 9.5 12C9.5 12.3757 9.51566 12.7947 9.54038 13.2222C9.62779 14.7336 9.6715 15.4894 10.1524 15.8504C10.6333 16.2114 11.1695 15.8853 12.2419 15.2332C12.5201 15.064 12.7888 14.8917 13.0261 14.7251C13.2966 14.5352 13.5909 14.3073 13.8876 14.0652C14.9625 13.1883 15.5 12.7499 15.5 12Z" fill="#1C274C"/>
</g>
</g>
</svg>
