<svg width="24" height="24" viewBox="0 0 24 24" fill="none" xmlns="http://www.w3.org/2000/svg">
<g id="Linear / Map &#38; Location / Routing 2">
<path id="Vector" d="M2 5.25732C2 3.45835 3.567 2 5.5 2C7.433 2 9 3.45835 9 5.25732C9 7.04219 7.88292 9.12496 6.14003 9.86978C5.73374 10.0434 5.26626 10.0434 4.85997 9.86978C3.11708 9.12496 2 7.04219 2 5.25732Z" stroke="#1C274C" stroke-width="1.5"/>
<path id="Vector_2" d="M15 17.2573C15 15.4584 16.567 14 18.5 14C20.433 14 22 15.4584 22 17.2573C22 19.0422 20.8829 21.125 19.14 21.8698C18.7337 22.0434 18.2663 22.0434 17.86 21.8698C16.1171 21.125 15 19.0422 15 17.2573Z" stroke="#1C274C" stroke-width="1.5"/>
<path id="Vector_3" d="M19.5 17.5C19.5 18.0523 19.0523 18.5 18.5 18.5C17.9477 18.5 17.5 18.0523 17.5 17.5C17.5 16.9477 17.9477 16.5 18.5 16.5C19.0523 16.5 19.5 16.9477 19.5 17.5Z" fill="#1C274C"/>
<path id="Vector_4" d="M6.5 5.5C6.5 6.05228 6.05228 6.5 5.5 6.5C4.94772 6.5 4.5 6.05228 4.5 5.5C4.5 4.94772 4.94772 4.5 5.5 4.5C6.05228 4.5 6.5 4.94772 6.5 5.5Z" fill="#1C274C"/>
<path id="Vector_5" d="M12.0002 4.25C11.586 4.25 11.2502 4.58579 11.2502 5C11.2502 5.41421 11.586 5.75 12.0002 5.75V4.25ZM12.0002 19L12.5305 19.5303C12.8234 19.2374 12.8234 18.7626 12.5305 18.4697L12.0002 19ZM17.2059 8.68732L17.6085 9.32007L17.2059 8.68732ZM6.79459 15.3127L7.19725 15.9454H7.19725L6.79459 15.3127ZM11.0305 16.9697C10.7377 16.6768 10.2628 16.6768 9.96989 16.9697C9.67699 17.2626 9.67699 17.7374 9.96989 18.0303L11.0305 16.9697ZM9.96989 19.9697C9.67699 20.2626 9.67699 20.7374 9.96989 21.0303C10.2628 21.3232 10.7377 21.3232 11.0305 21.0303L9.96989 19.9697ZM16.1321 4.25H12.0002V5.75H16.1321V4.25ZM12.0002 18.25H7.86833V19.75H12.0002V18.25ZM16.8032 8.05458L6.39193 14.6799L7.19725 15.9454L17.6085 9.32007L16.8032 8.05458ZM12.5305 18.4697L11.0305 16.9697L9.96989 18.0303L11.4699 19.5303L12.5305 18.4697ZM11.4699 18.4697L9.96989 19.9697L11.0305 21.0303L12.5305 19.5303L11.4699 18.4697ZM7.86833 18.25C6.61778 18.25 6.14219 16.6168 7.19725 15.9454L6.39193 14.6799C4.07083 16.157 5.11709 19.75 7.86833 19.75V18.25ZM16.1321 5.75C17.3827 5.75 17.8582 7.38318 16.8032 8.05458L17.6085 9.32007C19.9296 7.843 18.8833 4.25 16.1321 4.25V5.75Z" fill="#1C274C"/>
</g>
</svg>
