<svg width="24" height="24" viewBox="0 0 24 24" fill="none" xmlns="http://www.w3.org/2000/svg">
<g id="Outline / Home, Furniture / Bar Chair">
<path id="Vector" fill-rule="evenodd" clip-rule="evenodd" d="M14.9364 2.99461C12.9931 2.66846 11.0072 2.66846 9.06394 2.99461L8.66638 3.06134C6.80909 3.37306 5.5529 5.04814 5.77596 6.84512L5.79399 6.99034C5.81085 7.12617 5.93477 7.25 6.10736 7.25H8.98422C8.99433 7.24979 9.00448 7.24979 9.01465 7.25H14.9857C14.9959 7.24979 15.006 7.24979 15.0161 7.25H17.893C18.0656 7.25 18.1895 7.12616 18.2064 6.99034L18.2244 6.84512L18.9687 6.93751L18.2244 6.84512C18.4474 5.04814 17.1913 3.37306 15.334 3.06134L14.9364 2.99461ZM15.9279 8.75H17.893C18.7978 8.75 19.5818 8.08644 19.6949 7.17512L18.9506 7.08273L19.6949 7.17511L19.713 7.0299C20.0383 4.409 18.2053 2.02226 15.5822 1.58203L15.1847 1.5153C13.077 1.16157 10.9233 1.16157 8.81566 1.5153L8.4181 1.58203C5.79509 2.02226 3.96205 4.40901 4.28739 7.0299L4.30541 7.17512C4.41853 8.08644 5.20252 8.75 6.10736 8.75H8.07243L6.40136 16.5484C6.30645 16.674 6.25017 16.8304 6.25017 17C6.25017 17.0574 6.25661 17.1132 6.26881 17.1669L5.26682 21.8429C5.18003 22.2479 5.43801 22.6466 5.84303 22.7334C6.24804 22.8201 6.64673 22.5622 6.73352 22.1571L7.67791 17.75H16.3224L17.2668 22.1571C17.3536 22.5622 17.7523 22.8201 18.1573 22.7334C18.5623 22.6466 18.8203 22.2479 18.7335 21.8429L17.7315 17.1669C17.7437 17.1132 17.7502 17.0574 17.7502 17C17.7502 16.8304 17.6939 16.674 17.599 16.5484L15.9279 8.75ZM14.3939 8.75H9.60648L7.99934 16.25H16.001L14.3939 8.75Z" fill="#1C274C"/>
</g>
</svg>
