<svg width="24" height="24" viewBox="0 0 24 24" fill="none" xmlns="http://www.w3.org/2000/svg">
<g id="Bold / Map &#38; Location / Signpost">
<path id="Vector" d="M18.1111 10.1629C17.6067 10.5 16.9045 10.5 15.5 10.5H12.75V12.5H15.296C15.9536 12.5 16.2823 12.5 16.5841 12.5982C16.7172 12.6415 16.8454 12.6987 16.9665 12.7688C17.2412 12.9277 17.4608 13.1723 17.9002 13.6616C18.7509 14.6089 19.1762 15.0826 19.2786 15.6362C19.3231 15.8767 19.3231 16.1233 19.2786 16.3638C19.1762 16.9174 18.7509 17.3911 17.9002 18.3384C17.4608 18.8277 17.2412 19.0723 16.9665 19.2312C16.8454 19.3013 16.7172 19.3585 16.5841 19.4018C16.2823 19.5 15.9536 19.5 15.296 19.5H12.75V21.25H14C14.4142 21.25 14.75 21.5858 14.75 22C14.75 22.4142 14.4142 22.75 14 22.75H9.99999C9.58578 22.75 9.24999 22.4142 9.24999 22C9.24999 21.5858 9.58578 21.25 9.99999 21.25H11.25V19.5H8.49999C7.09553 19.5 6.3933 19.5 5.88885 19.1629C5.67047 19.017 5.48297 18.8295 5.33705 18.6111C4.99999 18.1067 4.99999 17.4045 4.99999 16C4.99999 14.5955 4.99999 13.8933 5.33705 13.3889C5.48297 13.1705 5.67047 12.983 5.88885 12.8371C6.3933 12.5 7.09553 12.5 8.49999 12.5H11.25V10.5H8.70399C8.04642 10.5 7.71764 10.5 7.41593 10.4018C7.28282 10.3585 7.15463 10.3013 7.03346 10.2312C6.75882 10.0723 6.53915 9.8277 6.09981 9.33844C5.24911 8.39107 4.82376 7.91738 4.72136 7.36381C4.67687 7.12331 4.67687 6.87669 4.72136 6.63619C4.82376 6.08262 5.24911 5.60894 6.09981 4.66156L6.09981 4.66156C6.53915 4.1723 6.75882 3.92767 7.03346 3.76879C7.15463 3.6987 7.28282 3.64152 7.41593 3.5982C7.71764 3.5 8.04642 3.5 8.70399 3.5H11.25V2C11.25 1.58579 11.5858 1.25 12 1.25C12.4142 1.25 12.75 1.58579 12.75 2V3.5H15.5C16.9045 3.5 17.6067 3.5 18.1111 3.83706C18.3295 3.98298 18.517 4.17048 18.6629 4.38886C19 4.89331 19 5.59554 19 7C19 8.40446 19 9.10669 18.6629 9.61114C18.517 9.82952 18.3295 10.017 18.1111 10.1629Z" fill="#1C274C"/>
</g>
</svg>
