<svg width="24" height="24" viewBox="0 0 24 24" fill="none" xmlns="http://www.w3.org/2000/svg">
<g id="Bold / Medicine / Pills 3">
<g id="Vector">
<path d="M9.6819 12.682C7.92454 14.4393 5.0753 14.4393 3.31794 12.682C2.63072 11.9948 2.21224 11.1406 2.0625 10.25H10.9373C10.7876 11.1406 10.3691 11.9948 9.6819 12.682Z" fill="#1C274C"/>
<path d="M10.9373 8.75H2.0625C2.21224 7.85943 2.63072 7.00524 3.31794 6.31802C5.0753 4.56066 7.92454 4.56066 9.6819 6.31802C10.3691 7.00524 10.7876 7.85943 10.9373 8.75Z" fill="#1C274C"/>
</g>
<path id="Vector_2" d="M14.7574 7.12132C15.9289 8.29289 17.8284 8.29289 19 7.12132C19.5858 6.53553 19.8787 5.76777 19.8787 5C19.8787 4.23223 19.5858 3.46447 19 2.87868C17.8284 1.70711 15.9289 1.70711 14.7574 2.87868C14.1716 3.46447 13.8787 4.23223 13.8787 5C13.8787 5.76777 14.1716 6.53553 14.7574 7.12132Z" fill="#1C274C"/>
<g id="Vector_3">
<path d="M20.9052 12.0948C22.3649 13.5546 22.3649 15.9213 20.9052 17.381L19.8778 18.4084L19.8784 18.4054L19.1465 18.2644C19.1424 18.2635 19.132 18.2611 19.1177 18.2575C19.089 18.2503 19.0405 18.2371 18.9748 18.2161C18.8432 18.1741 18.6427 18.1007 18.3923 17.9801C17.8925 17.7392 17.1913 17.3087 16.4414 16.5589C15.6916 15.8091 15.261 15.1078 15.0201 14.6078C14.8994 14.3575 14.826 14.1569 14.784 14.0253C14.763 13.9595 14.7498 13.9111 14.7426 13.8823C14.7389 13.868 14.7368 13.8586 14.7359 13.8544L14.5946 13.1216L14.5916 13.1222L15.619 12.0948C17.0787 10.6351 19.4454 10.6351 20.9052 12.0948Z" fill="#1C274C"/>
<path d="M13.3262 14.3876C13.3347 14.4167 13.3443 14.4481 13.3551 14.4817C13.4167 14.6747 13.5155 14.9409 13.6689 15.2591C13.976 15.8964 14.5009 16.7397 15.3808 17.6195C16.2606 18.4994 17.1039 19.0243 17.7411 19.3314C18.0593 19.4847 18.3255 19.5834 18.5185 19.6451C18.552 19.6558 18.5833 19.6653 18.6123 19.6739L17.381 20.9052C15.9213 22.3649 13.5546 22.3649 12.0948 20.9052C10.6351 19.4454 10.6351 17.0787 12.0948 15.619L13.3262 14.3876Z" fill="#1C274C"/>
</g>
</g>
</svg>
