<svg width="24" height="24" viewBox="0 0 24 24" fill="none" xmlns="http://www.w3.org/2000/svg">
<g id="Outline / Building, Infrastructure / Buildings 3 ">
<path id="Vector (Stroke)" fill-rule="evenodd" clip-rule="evenodd" d="M10.948 1.25H13.052C13.9505 1.24997 14.6997 1.24995 15.2945 1.32991C15.9223 1.41432 16.4891 1.59999 16.9445 2.05546C17.4 2.51093 17.5857 3.07773 17.6701 3.70552C17.6928 3.87459 17.7091 4.05613 17.7207 4.25003C18.3101 4.25037 18.8084 4.25421 19.219 4.29599C19.6925 4.34415 20.1318 4.44886 20.5278 4.71346C20.8281 4.9141 21.0859 5.17191 21.2865 5.47218C21.5511 5.86818 21.6559 6.30755 21.704 6.78102C21.75 7.23336 21.75 7.79209 21.75 8.46168V21.25H22C22.4142 21.25 22.75 21.5858 22.75 22C22.75 22.4142 22.4142 22.75 22 22.75H2C1.58579 22.75 1.25 22.4142 1.25 22C1.25 21.5858 1.58579 21.25 2 21.25H2.25L2.25 8.46166C2.24998 7.79208 2.24997 7.23335 2.29598 6.78102C2.34415 6.30755 2.44886 5.86818 2.71346 5.47218C2.91409 5.17191 3.17191 4.9141 3.47218 4.71346C3.86818 4.44886 4.30755 4.34415 4.78102 4.29599C5.19165 4.25421 5.68995 4.25037 6.27927 4.25003C6.29091 4.05613 6.30718 3.87459 6.32991 3.70552C6.41432 3.07773 6.59999 2.51093 7.05546 2.05546C7.51093 1.59999 8.07773 1.41432 8.70552 1.32991C9.3003 1.24995 10.0495 1.24997 10.948 1.25ZM6.25003 5.75011C5.66742 5.75075 5.25586 5.75542 4.93283 5.78828C4.57796 5.82438 4.41399 5.8882 4.30554 5.96067C4.16905 6.05186 4.05186 6.16905 3.96066 6.30554C3.8882 6.41399 3.82438 6.57796 3.78828 6.93283C3.75091 7.30023 3.75 7.78216 3.75 8.5V21.25H6.25V14.75H5.5C5.08579 14.75 4.75 14.4142 4.75 14C4.75 13.5858 5.08579 13.25 5.5 13.25H6.25V11.75H5.5C5.08579 11.75 4.75 11.4142 4.75 11C4.75 10.5858 5.08579 10.25 5.5 10.25H6.25V8.75H5.5C5.08579 8.75 4.75 8.41422 4.75 8C4.75 7.58579 5.08579 7.25 5.5 7.25H6.25L6.25 5.94801C6.25 5.88122 6.24999 5.81525 6.25003 5.75011ZM7.75 21.25H11.25V19C11.25 18.5858 11.5858 18.25 12 18.25C12.4142 18.25 12.75 18.5858 12.75 19V21.25H16.25V6C16.25 5.03599 16.2484 4.38843 16.1835 3.90539C16.1214 3.44393 16.0142 3.24644 15.8839 3.11612C15.7536 2.9858 15.5561 2.87858 15.0946 2.81654C14.6116 2.7516 13.964 2.75 13 2.75H11C10.036 2.75 9.38843 2.7516 8.90539 2.81654C8.44393 2.87858 8.24643 2.9858 8.11612 3.11612C7.9858 3.24644 7.87858 3.44393 7.81654 3.90539C7.75159 4.38843 7.75 5.03599 7.75 6V21.25ZM17.75 8.75H18.5C18.9142 8.75 19.25 8.41422 19.25 8C19.25 7.58579 18.9142 7.25 18.5 7.25H17.75L17.75 5.94801C17.75 5.88122 17.75 5.81525 17.75 5.75011C18.3326 5.75075 18.7441 5.75542 19.0672 5.78828C19.422 5.82438 19.586 5.8882 19.6945 5.96067C19.8309 6.05186 19.9481 6.16905 20.0393 6.30554C20.1118 6.41399 20.1756 6.57796 20.2117 6.93283C20.2491 7.30023 20.25 7.78216 20.25 8.5V21.25H17.75V14.75H18.5C18.9142 14.75 19.25 14.4142 19.25 14C19.25 13.5858 18.9142 13.25 18.5 13.25H17.75V11.75H18.5C18.9142 11.75 19.25 11.4142 19.25 11C19.25 10.5858 18.9142 10.25 18.5 10.25H17.75V8.75ZM12 5.75C11.3096 5.75 10.75 6.30965 10.75 7C10.75 7.69036 11.3096 8.25 12 8.25C12.6904 8.25 13.25 7.69036 13.25 7C13.25 6.30965 12.6904 5.75 12 5.75ZM9.25 7C9.25 5.48122 10.4812 4.25 12 4.25C13.5188 4.25 14.75 5.48122 14.75 7C14.75 8.51879 13.5188 9.75 12 9.75C10.4812 9.75 9.25 8.51879 9.25 7ZM9.25 12C9.25 11.5858 9.58579 11.25 10 11.25H14C14.4142 11.25 14.75 11.5858 14.75 12C14.75 12.4142 14.4142 12.75 14 12.75H10C9.58579 12.75 9.25 12.4142 9.25 12ZM9.25 15C9.25 14.5858 9.58579 14.25 10 14.25H14C14.4142 14.25 14.75 14.5858 14.75 15C14.75 15.4142 14.4142 15.75 14 15.75H10C9.58579 15.75 9.25 15.4142 9.25 15Z" fill="#1C274C"/>
</g>
</svg>
