<svg width="24" height="24" viewBox="0 0 24 24" fill="none" xmlns="http://www.w3.org/2000/svg">
<g id="Linear / Hands / Hand Pills">
<path id="Vector" d="M8.79623 6.64075C7.73459 5.57912 7.73459 3.85786 8.79623 2.79623C9.85786 1.73459 11.5791 1.73459 12.6408 2.79623L15.2038 5.35925C16.2654 6.42088 16.2654 8.14214 15.2038 9.20377C14.1421 10.2654 12.4209 10.2654 11.3592 9.20377L8.79623 6.64075Z" stroke="#1C274C" stroke-width="1.5"/>
<path id="Vector_2" d="M14 4C14 4 13.7749 5.16765 12.4712 6.47139C11.1674 7.77513 10 8 10 8" stroke="#1C274C" stroke-width="1.5"/>
<path id="Vector_3" d="M4 21.3884H6.25993C7.27079 21.3884 8.29253 21.4937 9.27633 21.6964C11.0166 22.0549 12.8488 22.0983 14.6069 21.8138C15.4738 21.6734 16.326 21.4589 17.0975 21.0865C17.7939 20.7504 18.6469 20.2766 19.2199 19.7459C19.7921 19.216 20.388 18.3487 20.8109 17.6707C21.1736 17.0894 20.9982 16.3762 20.4245 15.943C19.7873 15.4619 18.8417 15.462 18.2046 15.9433L16.3974 17.3084C15.697 17.8375 14.932 18.3245 14.0206 18.4699C13.911 18.4874 13.7962 18.5033 13.6764 18.5172M13.6764 18.5172C13.6403 18.5214 13.6038 18.5254 13.5668 18.5292M13.6764 18.5172C13.8222 18.486 13.9669 18.396 14.1028 18.2775C14.746 17.7161 14.7866 16.77 14.2285 16.1431C14.0991 15.9977 13.9475 15.8764 13.7791 15.7759C10.9817 14.1074 6.62942 15.3782 4 17.2429M13.6764 18.5172C13.6399 18.525 13.6033 18.5292 13.5668 18.5292M13.5668 18.5292C13.0434 18.5829 12.4312 18.5968 11.7518 18.5326" stroke="#1C274C" stroke-width="1.5" stroke-linecap="round"/>
</g>
</svg>
