<svg width="24" height="24" viewBox="0 0 24 24" fill="none" xmlns="http://www.w3.org/2000/svg">
<g id="Bold Duotone / Arrows Action / Undo Right Square">
<path id="Vector" opacity="0.5" d="M2 12C2 7.28595 2 4.92893 3.46447 3.46447C4.92893 2 7.28595 2 12 2C16.714 2 19.0711 2 20.5355 3.46447C22 4.92893 22 7.28595 22 12C22 16.714 22 19.0711 20.5355 20.5355C19.0711 22 16.714 22 12 22C7.28595 22 4.92893 22 3.46447 20.5355C2 19.0711 2 16.714 2 12Z" fill="#1C274C"/>
<path id="Vector_2" fill-rule="evenodd" clip-rule="evenodd" d="M14.6989 6.91463C14.9799 6.61027 15.4543 6.59129 15.7587 6.87224L18.0087 8.94916C18.1625 9.09114 18.25 9.29094 18.25 9.50027C18.25 9.70959 18.1625 9.90939 18.0087 10.0514L15.7587 12.1283C15.4543 12.4092 14.9799 12.3903 14.6989 12.0859C14.4179 11.7815 14.4369 11.307 14.7413 11.0261L15.5818 10.2503H9.96155C9.26243 10.2503 8.79309 10.2511 8.43477 10.2867C8.08844 10.321 7.92764 10.3818 7.82131 10.4506C7.67279 10.5466 7.54633 10.673 7.4503 10.8216C7.38155 10.9279 7.32075 11.0887 7.2864 11.435C7.25086 11.7933 7.25 12.2627 7.25 12.9618C7.25 13.6609 7.25086 14.1303 7.2864 14.4886C7.32074 14.8349 7.38155 14.9957 7.45029 15.102C7.54633 15.2506 7.67278 15.377 7.82131 15.4731C7.92764 15.5418 8.08844 15.6026 8.43477 15.6369C8.79308 15.6725 9.26242 15.6733 9.96154 15.6733H14.5C14.9142 15.6733 15.25 16.0091 15.25 16.4233C15.25 16.8376 14.9142 17.1733 14.5 17.1733H9.92423C9.27208 17.1734 8.72787 17.1734 8.28673 17.1296C7.82522 17.0839 7.39622 16.9844 7.00689 16.7327C6.68013 16.5214 6.40191 16.2432 6.19065 15.9165C5.93892 15.5271 5.83949 15.0981 5.79372 14.6366C5.74997 14.1955 5.74998 13.6513 5.75 12.9991V12.9245C5.74999 12.2723 5.74997 11.7281 5.79372 11.287C5.8395 10.8255 5.93893 10.3965 6.19065 10.0071C6.40192 9.68039 6.68013 9.40218 7.00689 9.19091C7.39622 8.93919 7.82522 8.83976 8.28673 8.79399C8.72787 8.75024 9.27207 8.75025 9.92423 8.75027L15.5818 8.75027L14.7413 7.97445C14.4369 7.69349 14.4179 7.219 14.6989 6.91463Z" fill="#1C274C"/>
</g>
</svg>
