<svg width="24" height="24" viewBox="0 0 24 24" fill="none" xmlns="http://www.w3.org/2000/svg">
<g id="Linear / Nature, Travel / Flame">
<path id="Vector" d="M20 15C20 19.2545 17.3819 21.1215 15.3588 21.751C14.9274 21.8853 14.6438 21.3823 14.9019 21.0115C15.7823 19.7462 16.8 17.8159 16.8 16C16.8 14.0494 15.1559 11.7465 13.8721 10.3261C13.5786 10.0014 13.0667 10.2163 13.0507 10.6537C12.9976 12.1029 12.7689 14.0418 11.7828 15.5614C11.6241 15.806 11.2872 15.8262 11.1063 15.5975C10.7982 15.2079 10.4901 14.7265 10.182 14.3462C10.016 14.1414 9.71604 14.1386 9.52461 14.3198C8.77825 15.0265 7.73333 16.1286 7.73333 17.5C7.73333 18.4893 8.20479 19.7206 8.69077 20.6741C8.91147 21.1071 8.50204 21.615 8.08142 21.3715C6.24558 20.3088 4 18.1069 4 15C4 11.8536 8.31029 7.49484 9.95605 3.37694C10.2157 2.72714 11.0161 2.42181 11.5727 2.84585C14.9439 5.41391 20 10.3781 20 15Z" stroke="#1C274C" stroke-width="1.5"/>
</g>
</svg>
