<svg width="24" height="24" viewBox="0 0 24 24" fill="none" xmlns="http://www.w3.org/2000/svg">
<g id="Outline / Electronic, Devices / Bluetooth">
<path id="Vector (Stroke)" fill-rule="evenodd" clip-rule="evenodd" d="M14.9098 2.77366L16.7426 4.0752C17.2829 4.45881 17.7548 4.79385 18.0843 5.10897C18.435 5.44445 18.7501 5.87349 18.7501 6.45834C18.7501 7.04319 18.435 7.47224 18.0843 7.80771C17.7548 8.12283 17.2829 8.45787 16.7426 8.84148L12.2954 11.9996L16.7426 15.1577C17.2829 15.5413 17.7548 15.8764 18.0843 16.1915C18.435 16.527 18.7501 16.956 18.7501 17.5409C18.7501 18.1257 18.435 18.5548 18.0843 18.8902C17.7548 19.2054 17.2829 19.5404 16.7426 19.924L14.9099 21.2255C14.1804 21.7436 13.5645 22.181 13.0536 22.4416C12.5334 22.707 11.8983 22.9067 11.2631 22.5817C10.6261 22.2558 10.4192 21.6227 10.3337 21.0458C10.25 20.4803 10.25 19.7272 10.2501 18.8365L10.2501 13.4401L6.43016 16.114C6.09082 16.3516 5.62318 16.269 5.38564 15.9297C5.1481 15.5904 5.23063 15.1227 5.56997 14.8852L9.69222 11.9996L5.56997 9.11402C5.23063 8.87649 5.1481 8.40884 5.38564 8.0695C5.62318 7.73017 6.09082 7.64764 6.43016 7.88517L10.2501 10.5591V5.22417C10.2501 5.20359 10.2501 5.18309 10.2501 5.16266C10.25 4.27198 10.25 3.51888 10.3337 2.9534C10.4192 2.3765 10.6261 1.74342 11.2631 1.41752C11.8983 1.09254 12.5334 1.29223 13.0536 1.55758C13.5644 1.81817 14.1804 2.25559 14.9098 2.77366ZM11.7501 13.4521V18.775C11.7501 19.7439 11.7521 20.3839 11.8176 20.826C11.8492 21.04 11.8892 21.1526 11.9187 21.2087C11.9317 21.2334 11.94 21.2419 11.9409 21.2429C11.9411 21.2431 11.9414 21.2438 11.9463 21.2463C11.9508 21.2486 11.9521 21.2488 11.953 21.2489C11.955 21.2492 11.968 21.251 11.9966 21.2471C12.0613 21.2381 12.178 21.2044 12.372 21.1054C12.7727 20.901 13.2984 20.5301 14.0911 19.9672L15.8291 18.733C16.4278 18.3078 16.8072 18.036 17.0475 17.8062C17.1612 17.6975 17.212 17.6269 17.2343 17.5863C17.2503 17.5573 17.2501 17.5474 17.2501 17.5418C17.2501 17.5415 17.2501 17.5422 17.2501 17.5418C17.2501 17.5415 17.2501 17.5402 17.2501 17.5399C17.2501 17.5343 17.2503 17.5244 17.2343 17.4955C17.212 17.4548 17.1612 17.3842 17.0475 17.2755C16.8072 17.0457 16.4278 16.7739 15.8291 16.3487L11.7501 13.4521ZM11.7501 10.5471V5.22417C11.7501 4.2553 11.7521 3.61528 11.8176 3.17318C11.8492 2.95922 11.8892 2.84656 11.9187 2.79047C11.9317 2.76583 11.94 2.75725 11.9409 2.75632C11.9411 2.75611 11.9414 2.75541 11.9463 2.75289C11.9508 2.75059 11.9521 2.75042 11.953 2.7503C11.9529 2.75031 11.9531 2.75028 11.953 2.7503C11.955 2.74999 11.968 2.74818 11.9966 2.75212C12.0613 2.76105 12.178 2.79481 12.372 2.89379C12.7727 3.09819 13.2984 3.46908 14.0911 4.03202L15.8291 5.2662C16.4278 5.69138 16.8072 5.96315 17.0475 6.19298C17.1612 6.30172 17.212 6.37233 17.2343 6.41294C17.2503 6.44191 17.2501 6.45181 17.2501 6.45735C17.2501 6.45704 17.2501 6.4577 17.2501 6.45735C17.2501 6.45767 17.2501 6.45898 17.2501 6.45933C17.2501 6.46487 17.2503 6.47477 17.2343 6.50374C17.212 6.54435 17.1612 6.61496 17.0475 6.7237C16.8072 6.95353 16.4278 7.2253 15.8291 7.65048L11.7501 10.5471Z" fill="#1C274C"/>
</g>
</svg>
