<svg width="24" height="24" viewBox="0 0 24 24" fill="none" xmlns="http://www.w3.org/2000/svg">
<g id="Outline / Electronic, Devices / Notebook ">
<g id="Vector">
<path fill-rule="evenodd" clip-rule="evenodd" d="M8.30085 3.25H15.699C16.5975 3.24997 17.3467 3.24995 17.9415 3.32991C18.5692 3.41432 19.136 3.59999 19.5915 4.05546C20.047 4.51093 20.2327 5.07773 20.3171 5.70552C20.397 6.30031 20.397 7.04953 20.397 7.94801V15.232L21.9096 16.7932L21.9134 16.7969L21.9205 16.804L21.9283 16.812L21.9339 16.8177L21.9438 16.8281L21.9545 16.8394L21.9587 16.844L21.9668 16.8529L21.9757 16.8631L21.9839 16.8728C21.9865 16.876 21.9908 16.8812 21.996 16.8878C22.3675 17.3187 22.699 17.962 22.7444 18.6051L22.7448 18.6089C22.7459 18.6193 22.7466 18.6277 22.747 18.6325L22.7478 18.6452L22.7485 18.6586L22.7489 18.6706L22.7491 18.6769L22.7493 18.6925L22.7494 18.7067L22.7494 18.7148L22.7493 18.7259L22.7492 18.7359L22.749 18.7407C22.749 18.7512 22.749 18.7624 22.7491 18.7739C22.7493 18.9047 22.7495 19.0929 22.7444 19.1734C22.6571 20.5556 21.5555 21.6572 20.1733 21.7445C20.0861 21.75 19.9889 21.75 19.8627 21.75H4.13708C4.01091 21.75 3.91373 21.75 3.8265 21.7445C2.4443 21.6572 1.34272 20.5556 1.25538 19.1734C1.25033 19.0935 1.25063 18.9069 1.25084 18.7764C1.25086 18.7639 1.25088 18.752 1.25089 18.7406L1.25075 18.7359L1.25057 18.7259L1.25049 18.7148L1.25049 18.7067L1.25059 18.6925L1.25082 18.6769L1.25097 18.6706L1.25139 18.6586L1.25207 18.6452L1.25294 18.6325C1.25331 18.6277 1.254 18.6193 1.25513 18.6089L1.25554 18.6051C1.30085 17.9621 1.63233 17.3187 2.00386 16.8878C2.00907 16.8811 2.01336 16.8759 2.01599 16.8728L2.02419 16.8631L2.03306 16.8529L2.04111 16.844L2.04538 16.8394L2.05603 16.8281L2.06589 16.8177L2.07148 16.812L2.07929 16.804L2.0864 16.797L2.09022 16.7932L3.60285 15.232L3.60285 7.94801C3.60282 7.04953 3.6028 6.30031 3.68276 5.70552C3.76717 5.07773 3.95284 4.51093 4.40831 4.05546C4.86378 3.59999 5.43058 3.41432 6.05837 3.32991C6.65316 3.24995 7.40237 3.24997 8.30085 3.25ZM4.67048 16.2857L3.15637 17.8485C2.92853 18.1025 2.76242 18.4752 2.75091 18.7263C2.7509 18.748 2.75088 18.7699 2.75085 18.7919C2.7508 18.8452 2.75074 18.899 2.7509 18.9492C2.75102 18.9864 2.75126 19.0186 2.75166 19.0443C2.75196 19.0641 2.7523 19.0746 2.75242 19.0782C2.79211 19.7064 3.29282 20.2078 3.92109 20.2475C3.95451 20.2496 3.99994 20.25 4.16059 20.25H19.8392C19.9999 20.25 20.0453 20.2496 20.0787 20.2475C20.707 20.2078 21.2077 19.7071 21.2474 19.0788C21.2472 19.0824 21.2477 19.0735 21.2482 19.0441C21.2486 19.0184 21.2488 18.9861 21.249 18.949C21.2491 18.8974 21.2491 18.8418 21.249 18.787C21.249 18.7666 21.249 18.7463 21.249 18.7263C21.2375 18.4753 21.0713 18.1025 20.8434 17.8485L19.3293 16.2857H4.67048ZM18.897 14.7857V8C18.897 7.03599 18.8954 6.38843 18.8304 5.90539C18.7684 5.44393 18.6612 5.24644 18.5309 5.11612C18.4005 4.9858 18.203 4.87858 17.7416 4.81654C17.2585 4.7516 16.611 4.75 15.647 4.75H8.35285C7.38884 4.75 6.74128 4.7516 6.25825 4.81654C5.79678 4.87858 5.59929 4.9858 5.46897 5.11612C5.33865 5.24644 5.23143 5.44393 5.16939 5.90539C5.10445 6.38843 5.10285 7.03599 5.10285 8V14.7857H18.897ZM21.6697 18.0238C21.6772 18.0214 21.6844 18.019 21.6913 18.0165C21.6941 18.0149 21.6969 18.0133 21.6998 18.0116C21.6898 18.0158 21.6797 18.0199 21.6697 18.0238ZM21.7162 18.0259C21.7221 18.0229 21.7279 18.0201 21.7336 18.0175C21.7362 18.0167 21.7388 18.016 21.7415 18.0153C21.733 18.0188 21.7246 18.0223 21.7162 18.0259ZM2.28398 18.0259C2.27814 18.023 2.27245 18.0202 2.26693 18.0177C2.26441 18.017 2.26184 18.0163 2.25921 18.0156C2.26751 18.019 2.27577 18.0224 2.28398 18.0259ZM2.33088 18.024C2.32051 18.02 2.31014 18.0158 2.29981 18.0115C2.30279 18.0132 2.30573 18.0149 2.30862 18.0165C2.31566 18.0191 2.3231 18.0216 2.33088 18.024ZM8.74991 18.5C8.74991 18.0858 9.0857 17.75 9.49991 17.75H14.4999C14.9141 17.75 15.2499 18.0858 15.2499 18.5C15.2499 18.9142 14.9141 19.25 14.4999 19.25H9.49991C9.0857 19.25 8.74991 18.9142 8.74991 18.5Z" fill="#1C274C"/>
<path d="M12.7499 6.75C12.7499 7.16422 12.4141 7.5 11.9999 7.5C11.5857 7.5 11.2499 7.16422 11.2499 6.75C11.2499 6.33579 11.5857 6 11.9999 6C12.4141 6 12.7499 6.33579 12.7499 6.75Z" fill="#1C274C"/>
</g>
</g>
</svg>
