<svg width="24" height="24" viewBox="0 0 24 24" fill="none" xmlns="http://www.w3.org/2000/svg">
<g id="Outline / Electronic, Devices / Telescope">
<path id="Vector (Stroke)" fill-rule="evenodd" clip-rule="evenodd" d="M17.8007 3.29712C18.247 3.04382 18.5176 2.89201 18.7271 2.80736C18.8237 2.76833 18.8797 2.75562 18.9096 2.75168C18.9322 2.74869 18.9394 2.75063 18.9429 2.75158L18.9439 2.75184C18.9473 2.7527 18.9536 2.75432 18.9703 2.76693C18.9928 2.78405 19.0338 2.82145 19.097 2.90189C19.2344 3.07695 19.3909 3.34013 19.6488 3.77932L20.6975 5.5648C20.9555 6.00418 21.109 6.26871 21.1943 6.47274C21.2335 6.56648 21.2454 6.61865 21.2488 6.64396C21.2504 6.65527 21.2501 6.66089 21.2501 6.66089L21.2497 6.6627L21.2488 6.66521C21.2488 6.66521 21.2456 6.67125 21.2379 6.68103C21.221 6.70259 21.1831 6.74296 21.1006 6.80553C20.9216 6.94125 20.6528 7.09563 20.2063 7.34903L16.471 9.46897C16.0482 9.70889 15.7956 9.85047 15.6012 9.92888C15.5121 9.96478 15.4632 9.97531 15.4402 9.9783L15.434 9.97898L15.429 9.97932L15.426 9.97934L15.4234 9.97783C15.4216 9.97667 15.4185 9.97463 15.4142 9.97135C15.3958 9.95723 15.3587 9.92366 15.2995 9.84807C15.1704 9.68297 15.0223 9.43404 14.7761 9.0149L13.6561 7.10792C13.4033 6.67746 13.2535 6.41929 13.1702 6.22039C13.132 6.12916 13.1206 6.079 13.1174 6.05538C13.1166 6.04992 13.1163 6.04622 13.1162 6.04404L13.1162 6.04144L13.1175 6.03922L13.1198 6.03582L13.1242 6.02995C13.1388 6.01114 13.1737 5.97337 13.2524 5.91347C13.424 5.78286 13.6828 5.63414 14.117 5.38774L17.8007 3.29712ZM19.3254 1.30118C18.8972 1.18838 18.5087 1.2778 18.1652 1.41658C17.852 1.54312 17.4938 1.74648 17.0993 1.97043L13.3373 4.1055C12.9556 4.32208 12.606 4.52039 12.3439 4.71989C12.0569 4.93834 11.7843 5.22356 11.669 5.64702L8.18909 7.62196L8.14981 7.64425C7.76808 7.86084 7.41853 8.05916 7.15643 8.25866C6.86922 8.47728 6.59639 8.76277 6.48118 9.18677L3.05352 11.1321L3.0142 11.1544C2.61992 11.3781 2.26152 11.5815 1.99311 11.7851C1.69937 12.0079 1.42073 12.2977 1.30332 12.7285C1.18556 13.1605 1.27973 13.5514 1.42197 13.8916C1.55136 14.201 1.7589 14.5543 1.98621 14.9412L2.03224 15.0196C2.25962 15.4068 2.467 15.76 2.67468 16.0245C2.90345 16.3159 3.19668 16.5859 3.6261 16.699C4.05434 16.8118 4.4428 16.7224 4.78629 16.5836C5.09952 16.4571 5.45775 16.2537 5.85227 16.0297L9.307 14.0691L9.32597 14.0743C9.74338 14.1861 10.1212 14.0988 10.4503 13.966C10.4977 13.947 10.546 13.926 10.5954 13.9035L7.30888 21.709C7.14814 22.0908 7.32731 22.5306 7.70906 22.6913C8.09082 22.8521 8.5306 22.6729 8.69133 22.2911L12.0001 14.4328L15.3089 22.2911C15.4696 22.6729 15.9094 22.8521 16.2912 22.6913C16.6729 22.5306 16.8521 22.0908 16.6913 21.709L12.8728 12.6401L15.0179 11.4228L15.0378 11.4282C15.4552 11.5401 15.833 11.4528 16.1622 11.32C16.4609 11.1996 16.8016 11.0061 17.1728 10.7954L20.986 8.63129C21.3803 8.40757 21.7387 8.20421 22.0071 8.00059C22.3008 7.77777 22.5795 7.48792 22.6969 7.05718C22.8147 6.62519 22.7205 6.23431 22.5782 5.89411C22.4488 5.58463 22.2413 5.23135 22.014 4.84443L20.9422 3.01965L20.9193 2.98062C20.6919 2.59338 20.4845 2.24021 20.2769 1.97565C20.0481 1.68424 19.7549 1.41428 19.3254 1.30118ZM3.79389 12.4366L6.79143 10.7354C6.89745 10.9336 7.02164 11.145 7.15231 11.3674L7.17519 11.4064L7.79334 12.4588C7.90867 12.6552 8.01895 12.8431 8.12689 13.0141L5.15088 14.7031C4.70457 14.9564 4.43391 15.1082 4.2244 15.1928C4.1278 15.2318 4.07185 15.2446 4.04196 15.2485C4.01932 15.2515 4.01213 15.2495 4.00863 15.2486L4.00762 15.2483C4.00424 15.2475 3.99791 15.2459 3.98128 15.2332C3.95869 15.2161 3.91769 15.1787 3.85454 15.0983C3.71712 14.9232 3.56067 14.66 3.30272 14.2209C3.04466 13.7815 2.89118 13.517 2.80588 13.3129C2.76668 13.2192 2.75484 13.167 2.75138 13.1417C2.74982 13.1303 2.75015 13.1247 2.75015 13.1247L2.75051 13.123L2.75144 13.1205C2.75144 13.1205 2.7546 13.1144 2.76228 13.1046C2.77919 13.0831 2.81717 13.0427 2.89965 12.9801C3.07857 12.8444 3.3474 12.69 3.79389 12.4366ZM11.9786 7.19602L8.92946 8.92651C8.4953 9.17291 8.23652 9.32163 8.06493 9.45224C7.98623 9.51214 7.95132 9.54991 7.93668 9.56873C7.93329 9.57308 7.9312 9.57615 7.93003 9.57799L7.9287 9.58022L7.92874 9.58281C7.92884 9.58499 7.92911 9.58869 7.92987 9.59416C7.93314 9.61777 7.94449 9.66794 7.9827 9.75916C8.06601 9.95806 8.21578 10.2162 8.4686 10.6467L9.0643 11.6609C9.31048 12.0801 9.45851 12.329 9.58769 12.4941C9.64683 12.5697 9.68391 12.6033 9.7024 12.6174C9.70669 12.6207 9.70973 12.6227 9.71158 12.6239L9.71415 12.6254L9.71714 12.6254C9.71932 12.6253 9.72297 12.625 9.72833 12.6243C9.7514 12.6213 9.8003 12.6108 9.88931 12.5749C10.0837 12.4965 10.3364 12.3549 10.7591 12.115L11.5335 11.6755L12.2867 11.248L13.8384 10.3674C13.7305 10.1966 13.6204 10.009 13.5052 9.8128L12.3398 7.82863C12.209 7.60599 12.0847 7.39438 11.9786 7.19602Z" fill="#1C274C"/>
</g>
</svg>
