<svg width="24" height="24" viewBox="0 0 24 24" fill="none" xmlns="http://www.w3.org/2000/svg">
<g id="Outline / Sports / Balls">
<path id="Vector" fill-rule="evenodd" clip-rule="evenodd" d="M8.48517 2.74998C7.51317 2.75147 6.52878 2.99987 5.62567 3.52128C4.78613 4.00599 4.11509 4.67048 3.63312 5.43804C3.67021 5.46263 3.7106 5.48999 3.75401 5.52021C3.98377 5.68014 4.29892 5.92048 4.66113 6.25341C5.38596 6.91963 6.29918 7.95663 7.09179 9.45942C7.64116 10.501 7.98319 11.4831 8.19555 12.3238C8.57972 11.4173 9.11015 10.5622 9.83625 9.83611C10.1427 9.52962 10.4722 9.258 10.8188 9.01752C10.5092 8.58522 10.2006 8.09447 9.90845 7.54056C9.11635 6.03873 8.75527 4.66054 8.59246 3.6518C8.53646 3.30481 8.50381 3.00094 8.48517 2.74998ZM10.0104 2.95294C10.026 3.09286 10.0465 3.24666 10.0733 3.41279C10.215 4.2907 10.5322 5.50786 11.2352 6.84078C11.5253 7.39079 11.8321 7.86761 12.1356 8.2777C12.7969 7.97992 13.4891 7.76316 14.1812 7.60775C14.0747 6.92897 13.8438 6.2576 13.4788 5.62553C12.6894 4.25818 11.4236 3.33756 10.0104 2.95294ZM15.6607 7.36056C15.5252 6.5082 15.2343 5.66616 14.7779 4.87553C13.5918 2.82126 11.5515 1.56749 9.36751 1.30277C7.8632 1.12043 6.28817 1.40673 4.87567 2.22224C1.40857 4.22398 0.220648 8.65734 2.22238 12.1244C3.35912 14.0933 5.28021 15.3266 7.36088 15.659C7.34977 15.7559 7.33963 15.8523 7.3304 15.9482C7.21273 17.1713 7.2398 18.3428 7.31339 19.3052C7.45292 21.1301 8.87002 22.5472 10.695 22.6867C11.6573 22.7603 12.8288 22.7874 14.0519 22.6697C16.1429 22.4685 18.4944 21.8335 20.164 20.1639C21.8336 18.4943 22.4687 16.1428 22.6698 14.0518C22.7875 12.8286 22.7604 11.6572 22.6869 10.6948C22.5473 8.86988 21.1302 7.45278 19.3053 7.31325C18.3429 7.23967 17.1715 7.2126 15.9484 7.33027C15.853 7.33944 15.7571 7.34952 15.6607 7.36056ZM6.98989 14.0471C5.57682 13.6625 4.31079 12.7417 3.52142 11.3744C2.69269 9.93905 2.55332 8.29483 3.00057 6.82513C3.17116 6.94962 3.39294 7.12512 3.64606 7.35777C4.26159 7.92354 5.06251 8.82723 5.76503 10.1592C6.46805 11.4921 6.78526 12.7093 6.92695 13.5872C6.95377 13.7533 6.97427 13.9071 6.98989 14.0471ZM17.7542 8.75014L21.25 12.246C21.2479 11.7354 21.225 11.2508 21.1912 10.8092C21.1081 9.72245 20.2777 8.89197 19.1909 8.80888C18.7493 8.77512 18.2647 8.75218 17.7542 8.75014ZM21.139 14.2563L15.7438 8.86112C13.917 9.08189 12.1294 9.6643 10.8969 10.8968C9.66443 12.1292 9.08203 13.9169 8.86125 15.7437L14.2564 21.1389C16.0832 20.9181 17.8709 20.3357 19.1033 19.1032C20.3358 17.8707 20.9182 16.0831 21.139 14.2563ZM12.2461 21.2498L8.75027 17.754C8.75231 18.2645 8.77525 18.7492 8.80902 19.1908C8.89211 20.2775 9.72259 21.108 10.8093 21.1911C11.2509 21.2249 11.7356 21.2478 12.2461 21.2498ZM14.9698 11.9697C15.2627 11.6768 15.7376 11.6768 16.0305 11.9697L16.5001 12.4393L16.9698 11.9697C17.2627 11.6768 17.7376 11.6768 18.0305 11.9697C18.3233 12.2626 18.3233 12.7374 18.0305 13.0303L17.5608 13.5L18.0305 13.9697C18.3233 14.2626 18.3233 14.7374 18.0305 15.0303C17.7376 15.3232 17.2627 15.3232 16.9698 15.0303L16.5001 14.5606L16.0608 15L16.5305 15.4697C16.8233 15.7626 16.8233 16.2374 16.5305 16.5303C16.2376 16.8232 15.7627 16.8232 15.4698 16.5303L15.0001 16.0606L14.5608 16.5L15.0305 16.9697C15.3233 17.2626 15.3233 17.7374 15.0305 18.0303C14.7376 18.3232 14.2627 18.3232 13.9698 18.0303L13.5001 17.5606L13.0305 18.0303C12.7376 18.3232 12.2627 18.3232 11.9698 18.0303C11.6769 17.7374 11.6769 17.2626 11.9698 16.9697L12.4395 16.5L11.9698 16.0303C11.6769 15.7374 11.6769 15.2626 11.9698 14.9697C12.2627 14.6768 12.7376 14.6768 13.0305 14.9697L13.5001 15.4393L13.9395 15L13.4698 14.5303C13.1769 14.2374 13.1769 13.7626 13.4698 13.4697C13.7627 13.1768 14.2376 13.1768 14.5305 13.4697L15.0001 13.9393L15.4395 13.5L14.9698 13.0303C14.6769 12.7374 14.6769 12.2626 14.9698 11.9697Z" fill="#1C274C"/>
</g>
</svg>
