<svg width="24" height="24" viewBox="0 0 24 24" fill="none" xmlns="http://www.w3.org/2000/svg">
<g id="Outline / Sports / Stretching">
<path id="Vector" fill-rule="evenodd" clip-rule="evenodd" d="M14.5002 2.75C13.5337 2.75 12.7502 3.5335 12.7502 4.5C12.7502 5.4665 13.5337 6.25 14.5002 6.25C15.4667 6.25 16.2502 5.4665 16.2502 4.5C16.2502 3.5335 15.4667 2.75 14.5002 2.75ZM11.2502 4.5C11.2502 2.70507 12.7053 1.25 14.5002 1.25C16.2951 1.25 17.7502 2.70507 17.7502 4.5C17.7502 6.29493 16.2951 7.75 14.5002 7.75C12.7053 7.75 11.2502 6.29493 11.2502 4.5ZM10.5028 9.20673C11.9875 8.57043 13.6391 9.6595 13.6391 11.2748V13.8953C13.6391 14.3654 13.5186 14.8276 13.2891 15.2379L10.5768 20.0861C10.2519 20.6668 9.72748 21.11 9.10074 21.3336L5.25218 22.7064C4.86205 22.8456 4.43296 22.6421 4.2938 22.252C4.15464 21.8618 4.35809 21.4328 4.74823 21.2936L8.59678 19.9208C8.88166 19.8192 9.12004 19.6177 9.26771 19.3537L11.98 14.5055C12.0843 14.3191 12.1391 14.1089 12.1391 13.8953V11.2748C12.1391 10.7364 11.5886 10.3733 11.0937 10.5854L8.63786 11.6379C8.14643 11.8485 8.0269 12.491 8.40972 12.8643L9.02378 13.463C9.32036 13.7522 9.32637 14.227 9.0372 14.5236C8.74804 14.8202 8.27321 14.8262 7.97663 14.537L7.36257 13.9383C6.21412 12.8186 6.57269 10.8911 8.04698 10.2592L10.5028 9.20673ZM16.5591 14.0535C18.232 13.7817 19.7502 15.0731 19.7502 16.7679V22C19.7502 22.4142 19.4144 22.75 19.0002 22.75C18.586 22.75 18.2502 22.4142 18.2502 22V16.7679C18.2502 15.9975 17.5601 15.4105 16.7997 15.5341L15.7872 15.6986C15.3783 15.7651 14.993 15.4875 14.9266 15.0786C14.8601 14.6698 15.1377 14.2845 15.5466 14.218L16.5591 14.0535Z" fill="#1C274C"/>
</g>
</svg>
