<svg width="24" height="24" viewBox="0 0 24 24" fill="none" xmlns="http://www.w3.org/2000/svg">
<g id="Bold Duotone / Astronomy / Star Rings">
<path id="Union" opacity="0.5" fill-rule="evenodd" clip-rule="evenodd" d="M15.6987 3.7536C16.6297 3.29889 17.6656 3.04415 18.5288 3.46151C18.9889 3.68399 19.3072 4.05664 19.4998 4.50023C19.6748 4.90322 19.7461 5.36164 19.7502 5.83576C19.7537 6.23436 19.7098 6.66491 19.6257 7.11782C19.4986 7.80246 19.2783 8.5467 18.982 9.32271C18.951 9.40394 18.9074 9.47667 18.8543 9.53952C19.0395 9.60206 19.2203 9.66638 19.3964 9.73238L19.398 9.73299C19.4447 9.75052 19.4959 9.77 19.5418 9.7877C19.6752 9.83919 19.8057 9.89165 19.9333 9.94504C20.2592 10.0815 20.5657 10.224 20.8503 10.3719C21.1429 10.5239 21.416 10.6833 21.666 10.8499C22.5282 11.4244 23.2707 12.1904 23.3457 13.1462C23.3857 13.6557 23.2245 14.1185 22.9386 14.5086C22.6789 14.8629 22.3191 15.1558 21.9118 15.3985C21.5693 15.6025 21.1754 15.7818 20.742 15.9377C20.0867 16.1733 19.3329 16.3585 18.5134 16.4941C18.1048 16.5617 17.7187 16.2853 17.6511 15.8766C17.5834 15.4679 17.8599 15.0818 18.2685 15.0142C18.8304 14.9212 19.3343 14.8067 19.7754 14.676L19.7805 14.6744C20.3465 14.5064 20.8022 14.3136 21.1439 14.1099C21.4382 13.9346 21.6232 13.766 21.7288 13.6219C21.834 13.4782 21.8583 13.3649 21.8503 13.2636C21.8318 13.0276 21.6033 12.6106 20.8342 12.0982C20.6356 11.9658 20.4102 11.8336 20.1588 11.703L18.8625 11.1341C17.1096 10.478 14.7616 9.97604 12.177 9.79571C11.8562 9.77333 11.54 9.75647 11.2289 9.74492C10.8125 10.2712 10.4013 10.8295 10.002 11.4152C9.25831 12.5061 8.63349 13.5782 8.13654 14.5844C8.45124 14.7636 8.598 15.1499 8.46644 15.4997C8.32367 15.8793 7.90606 16.0752 7.52476 15.9464C7.29856 16.5091 7.12027 17.0399 6.99187 17.5285C6.97835 17.5799 6.96544 17.6307 6.95312 17.6808L6.95091 17.6901C6.75535 18.489 6.71235 19.115 6.78099 19.5518C6.80764 19.7214 6.84758 19.8469 6.89363 19.9404C6.96396 20.0829 7.04854 20.1512 7.12109 20.1871L7.125 20.189C7.16826 20.2099 7.22162 20.2276 7.28863 20.2385C7.41121 20.2586 7.5793 20.2562 7.80056 20.2085C8.20032 20.1224 8.7073 19.9032 9.3015 19.5308C9.43875 19.4448 9.57941 19.3514 9.72315 19.2508C9.96278 19.0829 10.2101 18.8955 10.4636 18.6891L11.639 17.734C11.9604 17.4728 12.4328 17.5217 12.694 17.8431C12.9552 18.1646 12.9064 18.637 12.5849 18.8982L11.4106 19.8524C11.1319 20.0793 10.8556 20.2889 10.5836 20.4794C10.4204 20.5937 10.2584 20.7014 10.098 20.8019C9.42044 21.2265 8.74759 21.5389 8.11647 21.6749C7.7601 21.7516 7.39734 21.7764 7.04586 21.7188C6.84886 21.6865 6.65581 21.6283 6.47203 21.5394L6.45569 21.5314C5.72621 21.1703 5.3902 20.4583 5.28829 19.7107C5.18729 18.9698 5.29402 18.0875 5.54113 17.1472C5.68165 16.6126 5.87203 16.0425 6.10911 15.4467L5.60235 15.2678C5.26583 15.1416 4.94545 15.0088 4.64378 14.8701C4.46272 14.7868 4.28805 14.7012 4.12035 14.6134C3.41201 14.2425 2.80283 13.8191 2.36708 13.3428C2.12103 13.0738 1.91665 12.7731 1.78913 12.4405C1.71765 12.2541 1.67054 12.058 1.65457 11.8545L1.65322 11.8364C1.59703 11.0244 2.04235 10.3751 2.6365 9.90997C3.2253 9.44904 4.04092 9.09617 4.97746 8.83525C6.46501 8.42082 8.38735 8.20311 10.5292 8.22755C11.5426 7.01274 12.588 5.96465 13.5889 5.1496L13.5903 5.1485C13.629 5.11705 13.6717 5.0826 13.7101 5.05194C13.8218 4.96273 13.9329 4.87649 14.0434 4.7933C14.3256 4.58067 14.6033 4.38799 14.8745 4.21681C15.1534 4.04083 15.4288 3.88542 15.6987 3.7536ZM12.4463 8.31129C14.2722 8.44839 16.0104 8.74028 17.5366 9.14469C17.5224 9.02764 17.5357 8.90552 17.5807 8.78771C17.7838 8.25569 17.9391 7.76283 18.0487 7.31596L18.05 7.3108C18.1903 6.73733 18.2537 6.24661 18.2503 5.84877C18.2473 5.5062 18.195 5.26149 18.1239 5.09761C18.053 4.93426 17.9673 4.85617 17.8758 4.81193C17.6627 4.70886 17.1874 4.69585 16.357 5.10143C16.1425 5.20618 15.9146 5.33413 15.6751 5.48531L14.5299 6.31768C13.8603 6.86356 13.1551 7.53546 12.4463 8.31129ZM9.34882 9.73983C7.8005 9.79171 6.44319 9.98403 5.38003 10.2802C5.32879 10.2945 5.27844 10.309 5.22895 10.3236L5.21984 10.3264C4.43134 10.5605 3.86918 10.8391 3.52662 11.1187C3.39365 11.2273 3.30539 11.3251 3.24787 11.412C3.16033 11.5446 3.14406 11.6521 3.14964 11.7328L3.14997 11.7372C3.15373 11.7851 3.16539 11.8401 3.1897 11.9035C3.23417 12.0194 3.3211 12.1633 3.47386 12.3303C3.74987 12.6321 4.1949 12.9593 4.81612 13.2845C4.9596 13.3596 5.1112 13.434 5.27062 13.5073C5.5364 13.6296 5.82308 13.7486 6.12905 13.8633L6.71774 14.0711C7.2636 12.9456 7.9513 11.7604 8.76262 10.5703C8.95504 10.288 9.15065 10.011 9.34882 9.73983Z" fill="#1C274C"/>
<path id="Vector" d="M11.7647 14.2813C11.7509 13.3709 11.7441 12.9157 12.0311 12.75C12.3181 12.5843 12.7089 12.8178 13.4905 13.2849L13.6927 13.4058C13.9148 13.5385 14.0258 13.6048 14.1481 13.6203C14.2705 13.6358 14.3902 13.5986 14.6298 13.5242L14.8479 13.4565C15.6908 13.1947 16.1123 13.0638 16.3656 13.2978C16.619 13.5318 16.5364 13.9757 16.3713 14.8635L16.3286 15.0932C16.2817 15.3455 16.2582 15.4716 16.286 15.5949C16.3139 15.7181 16.3898 15.8245 16.5418 16.0372L16.6801 16.2309C17.2148 16.9795 17.4821 17.3538 17.3517 17.6641C17.2213 17.9745 16.7794 18.0153 15.8958 18.0969L15.6672 18.118C15.4161 18.1412 15.2906 18.1528 15.1854 18.2135C15.0803 18.2742 15.0075 18.3771 14.8619 18.583L14.7293 18.7704C14.2168 19.4948 13.9605 19.8571 13.6266 19.8148C13.2926 19.7726 13.1021 19.354 12.7211 18.5166L12.6226 18.3C12.5143 18.062 12.4602 17.943 12.3674 17.8573C12.2745 17.7716 12.1536 17.7288 11.9116 17.6433L11.6914 17.5655C10.8399 17.2646 10.4142 17.1141 10.3383 16.7777C10.2623 16.4413 10.5864 16.1418 11.2345 15.5426L11.4022 15.3876C11.5864 15.2174 11.6785 15.1322 11.7263 15.0186C11.774 14.9049 11.7721 14.7755 11.7682 14.5168L11.7647 14.2813Z" fill="#1C274C"/>
</g>
</svg>
