<svg width="24" height="24" viewBox="0 0 24 24" fill="none" xmlns="http://www.w3.org/2000/svg">
<g id="Bold Duotone / Astronomy / UFO">
<path id="Subtract" fill-rule="evenodd" clip-rule="evenodd" d="M5.67459 8.59375C3.4317 9.35912 2 10.523 2 11.8265C2 13.0345 3.22958 14.1226 5.19488 14.8847L3.85699 17.1145C3.64388 17.4697 3.75906 17.9304 4.11424 18.1435C4.46943 18.3566 4.93012 18.2415 5.14323 17.8863L6.64323 15.3863C6.64924 15.3763 6.65498 15.3662 6.66046 15.356C8.00688 15.7116 9.57078 15.9366 11.2501 15.9886V19.0004C11.2501 19.4146 11.5859 19.7504 12.0001 19.7504C12.4143 19.7504 12.7501 19.4146 12.7501 19.0004V15.9886C14.4294 15.9366 15.9933 15.7115 17.3397 15.356C17.3452 15.3661 17.351 15.3763 17.357 15.3863L18.857 17.8863C19.0701 18.2415 19.5308 18.3566 19.886 18.1435C20.2412 17.9304 20.3563 17.4697 20.1432 17.1145L18.8053 14.8846C20.7705 14.1225 22 13.0344 22 11.8265C22 10.523 20.5683 9.35912 18.3254 8.59375C18.2008 8.88403 17.9937 9.17776 17.6568 9.41211C16.8685 9.96038 15.3013 10.5003 12 10.5003C8.6987 10.5003 7.1315 9.96038 6.34322 9.41211C6.00629 9.17776 5.79918 8.88403 5.67459 8.59375ZM13 13.0003C13 13.5526 12.5523 14.0003 12 14.0003C11.4477 14.0003 11 13.5526 11 13.0003C11 12.448 11.4477 12.0003 12 12.0003C12.5523 12.0003 13 12.448 13 13.0003ZM7 13.0003C7.55228 13.0003 8 12.5526 8 12.0003C8 11.448 7.55228 11.0003 7 11.0003C6.44772 11.0003 6 11.448 6 12.0003C6 12.5526 6.44772 13.0003 7 13.0003ZM18 12.0003C18 12.5526 17.5523 13.0003 17 13.0003C16.4477 13.0003 16 12.5526 16 12.0003C16 11.448 16.4477 11.0003 17 11.0003C17.5523 11.0003 18 11.448 18 12.0003Z" fill="#1C274C"/>
<path id="Subtract_2" opacity="0.5" d="M7.05518 8.0054C7.40336 5.73714 9.36329 4 11.729 4H12.2714C14.6371 4 16.597 5.73714 16.9452 8.0054C16.9133 8.07425 16.8662 8.13466 16.8005 8.18039C16.3864 8.4684 15.19 9 12.0002 9C8.81036 9 7.614 8.4684 7.19991 8.18039C7.13417 8.13466 7.08706 8.07425 7.05518 8.0054Z" fill="#1C274C"/>
</g>
</svg>
