<svg width="24" height="24" viewBox="0 0 24 24" fill="none" xmlns="http://www.w3.org/2000/svg">
<g id="Line Duotone / Security / Siren ">
<path id="Vector" opacity="0.5" d="M20 22V16C20 13.1997 20 11.7996 19.455 10.73C18.9757 9.78924 18.2108 9.02433 17.27 8.54497C16.2004 8 14.8003 8 12 8C9.19974 8 7.79961 8 6.73005 8.54497C5.78924 9.02433 5.02433 9.78924 4.54497 10.73C4 11.7996 4 13.1997 4 16V22" stroke="#1C274C" stroke-width="1.5"/>
<path id="Vector_2" d="M15 10.8149C16.23 10.8149 17.23 11.77 17.1851 13" stroke="#1C274C" stroke-width="1.5" stroke-linecap="round"/>
<path id="Vector_3" d="M2 22H22" stroke="#1C274C" stroke-width="1.5" stroke-linecap="round"/>
<path id="Vector_4" d="M12 2V5" stroke="#1C274C" stroke-width="1.5" stroke-linecap="round"/>
<path id="Vector_5" d="M21 5L19.5 6.5" stroke="#1C274C" stroke-width="1.5" stroke-linecap="round"/>
<path id="Vector_6" d="M3 5L4.5 6.5" stroke="#1C274C" stroke-width="1.5" stroke-linecap="round"/>
<path id="Vector_7" d="M13.5 17.5C13.5 18.3284 12.8284 19 12 19C11.1716 19 10.5 18.3284 10.5 17.5C10.5 16.6716 11.1716 16 12 16C12.8284 16 13.5 16.6716 13.5 17.5Z" stroke="#1C274C" stroke-width="1.5"/>
<path id="Vector_8" opacity="0.5" d="M12 19V22" stroke="#1C274C" stroke-width="1.5" stroke-linecap="round"/>
</g>
</svg>
