<svg width="24" height="24" viewBox="0 0 24 24" fill="none" xmlns="http://www.w3.org/2000/svg">
<g id="Bold / Sports / Meditation">
<g id="Vector">
<path d="M14.5002 4.5C14.5002 5.88071 13.3809 7 12.0002 7C10.6195 7 9.50016 5.88071 9.50016 4.5C9.50016 3.11929 10.6195 2 12.0002 2C13.3809 2 14.5002 3.11929 14.5002 4.5Z" fill="#1C274C"/>
<path fill-rule="evenodd" clip-rule="evenodd" d="M12.8689 9.82208C12.2983 9.72597 11.702 9.72597 11.1314 9.82208C8.62372 10.2445 6.75016 12.4461 6.75016 15.0196C6.75016 15.5842 6.43448 16.1049 5.92728 16.3612L3.33841 17.6694C2.96871 17.8562 2.51757 17.7079 2.33077 17.3382C2.14396 16.9685 2.29222 16.5174 2.66192 16.3306L5.24941 15.0231L5.25016 15.0196C5.25016 11.7143 7.65199 8.88701 10.8823 8.34292C11.6178 8.21903 12.3825 8.21903 13.1181 8.34292C16.3483 8.88701 18.7502 11.7143 18.7502 15.0196L18.7506 15.0224L21.3384 16.3306C21.7081 16.5174 21.8564 16.9685 21.6696 17.3382C21.4827 17.7079 21.0316 17.8562 20.6619 17.6694L18.073 16.3612C17.5658 16.1049 17.2502 15.5842 17.2502 15.0196C17.2502 12.4461 15.3766 10.2445 12.8689 9.82208ZM9.95016 15.4C10.2815 15.6485 10.3487 16.1186 10.1002 16.45L9.05359 17.8454C9.02643 17.8816 9.00501 17.9102 8.98291 17.9381C8.6212 18.3954 8.12354 18.7258 7.56179 18.8817C7.52742 18.8913 7.49271 18.8999 7.44871 18.9109L7.44108 18.9129L5.95629 19.284C5.24744 19.4613 4.75016 20.0982 4.75016 20.8288C4.75016 21.0614 4.93872 21.25 5.17133 21.25H6.72743C7.34385 21.25 7.59247 21.2488 7.82961 21.2209C8.40779 21.153 8.96585 20.967 9.46917 20.6744C9.6756 20.5544 9.87523 20.4062 10.3683 20.0364L12.5502 18.4C12.8815 18.1515 13.3516 18.2186 13.6002 18.55C13.8487 18.8814 13.7815 19.3515 13.4502 19.6L12.5455 20.2785L13.8032 20.7501C14.4299 20.9851 14.6827 21.0784 14.9397 21.1385C15.0782 21.1709 15.2182 21.1963 15.3593 21.2146C15.621 21.2486 15.8905 21.25 16.5598 21.25H18.829C19.0616 21.25 19.2502 21.0614 19.2502 20.8288C19.2502 20.0982 18.7529 19.4613 18.044 19.284L16.5514 18.9109C16.5075 18.8999 16.4728 18.8913 16.4385 18.8817C15.8768 18.7258 15.3791 18.3954 15.0174 17.9381C14.9953 17.9102 14.9737 17.8814 14.9465 17.8452L13.9002 16.45C13.6516 16.1186 13.7188 15.6485 14.0502 15.4C14.3815 15.1515 14.8516 15.2186 15.1002 15.55L16.1419 16.939C16.1759 16.9843 16.1852 16.9966 16.1938 17.0075C16.3582 17.2153 16.5844 17.3655 16.8398 17.4364C16.8531 17.4401 16.868 17.4439 16.923 17.4576L18.4078 17.8288C19.7844 18.173 20.7502 19.4099 20.7502 20.8288C20.7502 21.8899 19.89 22.75 18.829 22.75L16.508 22.75C15.9063 22.75 15.5354 22.7501 15.1661 22.7021C14.9752 22.6773 14.7857 22.6429 14.5983 22.5991C14.2357 22.5144 13.8884 22.3841 13.325 22.1728L11.1215 21.3465C10.741 21.6316 10.4899 21.8161 10.2229 21.9713C9.54197 22.3671 8.78696 22.6187 8.00471 22.7107C7.6698 22.7501 7.3291 22.75 6.77561 22.75L5.17133 22.75C4.1103 22.75 3.25016 21.8899 3.25016 20.8288C3.25016 19.4099 4.21589 18.173 5.59249 17.8288L7.07727 17.4576C7.13231 17.4439 7.1472 17.4401 7.16056 17.4364C7.4159 17.3655 7.64211 17.2153 7.80653 17.0075C7.81514 16.9966 7.82435 16.9844 7.85843 16.939L8.90016 15.55C9.14869 15.2186 9.61879 15.1515 9.95016 15.4Z" fill="#1C274C"/>
</g>
</g>
</svg>
