<svg width="24" height="24" viewBox="0 0 24 24" fill="none" xmlns="http://www.w3.org/2000/svg">
<g id="Bold Duotone / Building, Infrastructure / Hospital">
<path id="Vector" fill-rule="evenodd" clip-rule="evenodd" d="M10.75 2H12.75C14.6356 2 15.5784 2 16.1642 2.58579C16.75 3.17157 16.75 4.11438 16.75 6V21.25H21.25H21.75C22.1642 21.25 22.5 21.5858 22.5 22C22.5 22.4142 22.1642 22.75 21.75 22.75H1.75C1.33579 22.75 1 22.4142 1 22C1 21.5858 1.33579 21.25 1.75 21.25H5.25H6.75V6C6.75 4.11438 6.75 3.17157 7.33579 2.58579C7.92157 2 8.86438 2 10.75 2ZM11.75 4.25C12.1642 4.25 12.5 4.58579 12.5 5V6.25H13.75C14.1642 6.25 14.5 6.58579 14.5 7C14.5 7.41421 14.1642 7.75 13.75 7.75H12.5V9C12.5 9.41421 12.1642 9.75 11.75 9.75C11.3358 9.75 11 9.41421 11 9V7.75H9.75C9.33579 7.75 9 7.41421 9 7C9 6.58579 9.33579 6.25 9.75 6.25H11V5C11 4.58579 11.3358 4.25 11.75 4.25ZM9 12C9 11.5858 9.33579 11.25 9.75 11.25H13.75C14.1642 11.25 14.5 11.5858 14.5 12C14.5 12.4142 14.1642 12.75 13.75 12.75H9.75C9.33579 12.75 9 12.4142 9 12ZM9 15C9 14.5858 9.33579 14.25 9.75 14.25H13.75C14.1642 14.25 14.5 14.5858 14.5 15C14.5 15.4142 14.1642 15.75 13.75 15.75H9.75C9.33579 15.75 9 15.4142 9 15ZM11.75 18.25C12.1642 18.25 12.5 18.5858 12.5 19V21.25H11V19C11 18.5858 11.3358 18.25 11.75 18.25Z" fill="#1C274C"/>
<path id="Vector_2" opacity="0.5" d="M20.9129 5.88881C21.25 6.39325 21.25 7.09549 21.25 8.49995V21.2499H21.75C22.1642 21.2499 22.5 21.5857 22.5 21.9999C22.5 22.4142 22.1642 22.7499 21.75 22.7499H1.75C1.33579 22.7499 1 22.4142 1 21.9999C1 21.5857 1.33579 21.2499 1.75 21.2499H2.25V8.49995C2.25 7.09549 2.25 6.39325 2.58706 5.88881C2.73298 5.67043 2.92048 5.48293 3.13886 5.33701C3.58008 5.04219 5.67561 5.00524 6.75702 5.00061C6.75291 5.292 6.75294 5.59649 6.75298 5.91045L6.75299 5.99995V7.24995H4.25C3.83579 7.24995 3.5 7.58573 3.5 7.99995C3.5 8.41416 3.83579 8.74995 4.25 8.74995H6.75299V10.2499H4.25C3.83579 10.2499 3.5 10.5857 3.5 10.9999C3.5 11.4142 3.83579 11.7499 4.25 11.7499H6.75299V13.2499H4.25C3.83579 13.2499 3.5 13.5857 3.5 13.9999C3.5 14.4142 3.83579 14.7499 4.25 14.7499H6.75299V21.2499H16.7529V14.7499H19.25C19.6642 14.7499 20 14.4142 20 13.9999C20 13.5857 19.6642 13.2499 19.25 13.2499H16.7529V11.7499H19.25C19.6642 11.7499 20 11.4142 20 10.9999C20 10.5857 19.6642 10.2499 19.25 10.2499H16.7529V8.74995H19.25C19.6642 8.74995 20 8.41416 20 7.99995C20 7.58573 19.6642 7.24995 19.25 7.24995H16.7529V5.99995L16.7529 5.91046V5.91043C16.753 5.59648 16.753 5.292 16.7489 5.00061C17.8303 5.00524 19.9199 5.04219 20.3611 5.33701C20.5795 5.48293 20.767 5.67043 20.9129 5.88881Z" fill="#1C274C"/>
</g>
</svg>
