<svg width="24" height="24" viewBox="0 0 24 24" fill="none" xmlns="http://www.w3.org/2000/svg">
<g id="Outline / Users / User Block">
<g id="Vector">
<path fill-rule="evenodd" clip-rule="evenodd" d="M12.0002 1.25C9.37681 1.25 7.25016 3.37665 7.25016 6C7.25016 8.62335 9.37681 10.75 12.0002 10.75C14.6235 10.75 16.7502 8.62335 16.7502 6C16.7502 3.37665 14.6235 1.25 12.0002 1.25ZM8.75016 6C8.75016 4.20507 10.2052 2.75 12.0002 2.75C13.7951 2.75 15.2502 4.20507 15.2502 6C15.2502 7.79493 13.7951 9.25 12.0002 9.25C10.2052 9.25 8.75016 7.79493 8.75016 6Z" fill="#1C274C"/>
<path d="M5.75016 17C5.75016 16.2807 6.26717 15.483 7.42252 14.8228C8.55665 14.1747 10.1735 13.75 12.0002 13.75C13.2008 13.75 14.3162 13.9337 15.2648 14.2472C15.6581 14.3772 16.0823 14.1638 16.2123 13.7705C16.3423 13.3772 16.1288 12.953 15.7356 12.823C14.6249 12.4559 13.3496 12.25 12.0002 12.25C9.96083 12.25 8.07768 12.7208 6.67831 13.5204C5.30016 14.3079 4.25016 15.5101 4.25016 17L4.25008 17.0992C4.24884 18.125 4.24722 19.4551 5.3971 20.4063C5.96409 20.8754 6.75176 21.2043 7.80223 21.4203C8.85565 21.6369 10.224 21.75 12.0002 21.75C12.3571 21.75 12.6972 21.7454 13.021 21.7364C13.4351 21.7249 13.7614 21.3799 13.7499 20.9658C13.7383 20.5518 13.3933 20.2255 12.9793 20.237C12.6704 20.2456 12.3444 20.25 12.0002 20.25C10.2764 20.25 9.01968 20.1392 8.10435 19.951C7.18607 19.7622 6.66124 19.5053 6.35323 19.2505C5.79053 18.785 5.75016 18.1711 5.75016 17Z" fill="#1C274C"/>
<path fill-rule="evenodd" clip-rule="evenodd" d="M18.0002 15.25C15.9291 15.25 14.2502 16.9289 14.2502 19C14.2502 21.0711 15.9291 22.75 18.0002 22.75C20.0712 22.75 21.7502 21.0711 21.7502 19C21.7502 16.9289 20.0712 15.25 18.0002 15.25ZM18.9702 16.9693L15.9694 19.97C15.8289 19.6763 15.7502 19.3473 15.7502 19C15.7502 17.7574 16.7575 16.75 18.0002 16.75C18.3475 16.75 18.6765 16.8287 18.9702 16.9693ZM17.0301 21.0307C17.3238 21.1713 17.6528 21.25 18.0002 21.25C19.2428 21.25 20.2502 20.2426 20.2502 19C20.2502 18.6526 20.1714 18.3237 20.0309 18.0299L17.0301 21.0307Z" fill="#1C274C"/>
</g>
</g>
</svg>
