<svg width="24" height="24" viewBox="0 0 24 24" fill="none" xmlns="http://www.w3.org/2000/svg">
<g id="Outline / Users / User Heart Rounded">
<g id="Vector">
<path fill-rule="evenodd" clip-rule="evenodd" d="M5.25 6C5.25 3.37665 7.37665 1.25 10 1.25C12.6234 1.25 14.75 3.37665 14.75 6C14.75 8.62335 12.6234 10.75 10 10.75C7.37665 10.75 5.25 8.62335 5.25 6ZM10 2.75C8.20507 2.75 6.75 4.20507 6.75 6C6.75 7.79493 8.20507 9.25 10 9.25C11.7949 9.25 13.25 7.79493 13.25 6C13.25 4.20507 11.7949 2.75 10 2.75Z" fill="#1C274C"/>
<path fill-rule="evenodd" clip-rule="evenodd" d="M4.67815 13.5204C6.07752 12.7208 7.96067 12.25 10 12.25C12.0393 12.25 13.9225 12.7208 15.3219 13.5204C16.7 14.3079 17.75 15.5101 17.75 17C17.75 18.4899 16.7 19.6921 15.3219 20.4796C13.9225 21.2792 12.0393 21.75 10 21.75C7.96067 21.75 6.07752 21.2792 4.67815 20.4796C3.3 19.6921 2.25 18.4899 2.25 17C2.25 15.5101 3.3 14.3079 4.67815 13.5204ZM5.42236 14.8228C4.26701 15.483 3.75 16.2807 3.75 17C3.75 17.7193 4.26701 18.517 5.42236 19.1772C6.55649 19.8253 8.17334 20.25 10 20.25C11.8267 20.25 13.4435 19.8253 14.5776 19.1772C15.733 18.517 16.25 17.7193 16.25 17C16.25 16.2807 15.733 15.483 14.5776 14.8228C13.4435 14.1747 11.8267 13.75 10 13.75C8.17334 13.75 6.55649 14.1747 5.42236 14.8228Z" fill="#1C274C"/>
<path fill-rule="evenodd" clip-rule="evenodd" d="M22.75 9.69672C22.75 8.59954 22.1875 7.70123 21.2543 7.37409C20.525 7.11843 19.7163 7.26275 19 7.73431C18.2837 7.26275 17.475 7.11843 16.7457 7.3741C15.8125 7.70123 15.25 8.59955 15.25 9.69673C15.25 10.4666 15.6912 11.1479 16.1249 11.6493C16.5782 12.1735 17.1391 12.6327 17.5992 12.9703L17.6697 13.0223C18.0209 13.282 18.4207 13.5776 19 13.5776C19.5793 13.5776 19.9791 13.282 20.3303 13.0223L20.4008 12.9703C20.8609 12.6327 21.4218 12.1735 21.8751 11.6493C22.3088 11.1479 22.75 10.4666 22.75 9.69672ZM19.5187 9.23307C20.0442 8.72986 20.5078 8.70189 20.7581 8.78964C20.9874 8.87002 21.25 9.12068 21.25 9.69672C21.25 9.91131 21.1088 10.2424 20.7405 10.6681C20.3919 11.0713 19.9314 11.4542 19.5135 11.7609C19.2872 11.9269 19.1798 12.0034 19.0939 12.0488C19.0395 12.0775 19.0244 12.0776 19 12.0776C18.9756 12.0776 18.9605 12.0775 18.9061 12.0488C18.8202 12.0034 18.7128 11.9269 18.4865 11.7609C18.0686 11.4542 17.6081 11.0712 17.2595 10.6681C16.8912 10.2423 16.75 9.91131 16.75 9.69673C16.75 9.12068 17.0126 8.87002 17.2419 8.78964C17.4922 8.70189 17.9558 8.72986 18.4813 9.23307C18.7713 9.51077 19.2287 9.51077 19.5187 9.23307Z" fill="#1C274C"/>
</g>
</g>
</svg>
