<svg width="24" height="24" viewBox="0 0 24 24" fill="none" xmlns="http://www.w3.org/2000/svg">
<g id="Bold Duotone / Video, Audio, Sound / Clapperboard Text">
<g id="Vector">
<path d="M16.5404 2.08783C15.3296 2 13.8455 2 12.0003 2H11.9017L8.4017 7.25002H13.0989L16.5404 2.08783Z" fill="#1C274C"/>
<path d="M10.096 2.00445C6.62225 2.03072 4.71715 2.2121 3.46478 3.46447C2.60711 4.32213 2.25174 5.48593 2.10449 7.25002H6.59892L10.096 2.00445Z" fill="#1C274C"/>
<path d="M20.5358 3.46447C21.3935 4.32213 21.7489 5.48593 21.8961 7.25002H14.9017L18.199 2.30403C19.1927 2.51345 19.9385 2.86714 20.5358 3.46447Z" fill="#1C274C"/>
</g>
<path id="Vector_2" opacity="0.5" d="M2 12C2 10.7632 2 9.68872 2.02644 8.75H21.9736C22 9.68872 22 10.7632 22 12C22 16.714 22 19.071 20.5355 20.5355C19.0711 22 16.714 22 12 22C7.28595 22 4.92893 22 3.46447 20.5355C2 19.071 2 16.714 2 12Z" fill="#1C274C"/>
<g id="Vector_3">
<path d="M5.75 17.5C5.75 17.0858 6.08579 16.75 6.5 16.75H12C12.4142 16.75 12.75 17.0858 12.75 17.5C12.75 17.9142 12.4142 18.25 12 18.25H6.5C6.08579 18.25 5.75 17.9142 5.75 17.5Z" fill="#1C274C"/>
<path d="M6.5 13.25C6.08579 13.25 5.75 13.5858 5.75 14C5.75 14.4142 6.08579 14.75 6.5 14.75H14.5C14.9142 14.75 15.25 14.4142 15.25 14C15.25 13.5858 14.9142 13.25 14.5 13.25H6.5Z" fill="#1C274C"/>
</g>
</g>
</svg>
