<svg width="24" height="24" viewBox="0 0 24 24" fill="none" xmlns="http://www.w3.org/2000/svg">
<g id="Bold Duotone / Video, Audio, Sound / Music Note Slider ">
<g id="Vector" opacity="0.5">
<path d="M6.72413 3.76172H5.26784C5.11295 3.76713 4.96866 3.77512 4.83435 3.78692C4.40341 3.82477 4.01421 3.9055 3.65073 4.10459C3.08186 4.41618 2.61937 4.91337 2.32952 5.5249C2.14431 5.91564 2.06921 6.33404 2.034 6.7973C1.99999 7.24486 1.99999 7.79557 2 8.46895V15.5318C1.99999 16.2052 1.99999 16.7559 2.034 17.2034C2.06921 17.6667 2.14431 18.0851 2.32952 18.4758C2.61937 19.0874 3.08186 19.5845 3.65073 19.8961C4.01421 20.0952 4.40341 20.176 4.83435 20.2138C4.96866 20.2256 5.11295 20.2336 5.26784 20.239H6.72438C6.41895 19.3408 6.41895 18.0372 6.41895 16V8C6.41895 5.96331 6.41895 4.6599 6.72413 3.76172Z" fill="#1C274C"/>
<path d="M17.2763 20.239C17.5817 19.3408 17.5817 18.0372 17.5817 16V8C17.5817 5.96331 17.5817 4.65991 17.2766 3.76172H18.7322C18.887 3.76713 19.0313 3.77512 19.1656 3.78692C19.5966 3.82477 19.9858 3.9055 20.3493 4.10459C20.9181 4.41618 21.3806 4.91337 21.6705 5.5249C21.8557 5.91564 21.9308 6.33404 21.966 6.7973C22 7.24484 22 7.79553 22 8.46887V15.5318C22 16.2051 22 16.7559 21.966 17.2034C21.9308 17.6667 21.8557 18.0851 21.6705 18.4758C21.3806 19.0874 20.9181 19.5845 20.3493 19.8961C19.9858 20.0952 19.5966 20.176 19.1656 20.2138C19.0313 20.2256 18.887 20.2336 18.7322 20.239H17.2763Z" fill="#1C274C"/>
</g>
<g id="Vector_2">
<path d="M11.0003 12.75C11.6907 12.75 12.2503 13.3096 12.2503 14C12.2503 14.6904 11.6907 15.25 11.0003 15.25C10.31 15.25 9.75034 14.6904 9.75034 14C9.75034 13.3096 10.31 12.75 11.0003 12.75Z" fill="#1C274C"/>
<path fill-rule="evenodd" clip-rule="evenodd" d="M6.41895 8C6.41895 5.17157 6.41895 3.75736 7.23632 2.87868C8.0537 2 9.36924 2 12.0003 2C14.6314 2 15.947 2 16.7644 2.87868C17.5817 3.75736 17.5817 5.17157 17.5817 8V16C17.5817 18.8284 17.5817 20.2426 16.7644 21.1213C15.947 22 14.6314 22 12.0003 22C9.36924 22 8.0537 22 7.23632 21.1213C6.41895 20.2426 6.41895 18.8284 6.41895 16V8ZM13.7503 8C13.7503 7.58579 13.4146 7.25 13.0003 7.25C12.5861 7.25 12.2503 7.58579 12.2503 8V11.5499C11.8753 11.3581 11.4505 11.25 11.0003 11.25C9.48156 11.25 8.25034 12.4812 8.25034 14C8.25034 15.5188 9.48156 16.75 11.0003 16.75C12.5191 16.75 13.7503 15.5188 13.7503 14V10.4501C14.1254 10.6419 14.5502 10.75 15.0003 10.75C15.4146 10.75 15.7503 10.4142 15.7503 10C15.7503 9.58579 15.4146 9.25 15.0003 9.25C14.31 9.25 13.7503 8.69036 13.7503 8Z" fill="#1C274C"/>
</g>
</g>
</svg>
