<svg width="24" height="24" viewBox="0 0 24 24" fill="none" xmlns="http://www.w3.org/2000/svg">
<g id="Outline / Money / Ticket Sale">
<g id="Vector">
<path fill-rule="evenodd" clip-rule="evenodd" d="M9.93866 3.25H14.0612C15.9038 3.24998 17.3628 3.24997 18.5046 3.4031C19.6794 3.56066 20.6301 3.89255 21.38 4.64058C22.4096 5.66758 22.6598 7.08185 22.7387 8.95797L22.7397 8.98214C22.7466 9.14598 22.7537 9.31328 22.7475 9.45419C22.7409 9.60408 22.7177 9.82054 22.598 10.0344C22.5152 10.1823 22.4043 10.2846 22.3304 10.3458C22.2502 10.4122 22.1612 10.4724 22.0764 10.5259C21.9126 10.6292 21.6912 10.7529 21.4316 10.8978L21.4125 10.9085C21.0268 11.1239 20.7699 11.533 20.7699 12C20.7699 12.467 21.0268 12.8761 21.4125 13.0915L21.4317 13.1022C21.6912 13.2472 21.9127 13.3708 22.0764 13.4741C22.1612 13.5276 22.2502 13.5878 22.3304 13.6542C22.4043 13.7154 22.5152 13.8177 22.598 13.9656C22.7177 14.1795 22.7409 14.3959 22.7475 14.5458C22.7537 14.6867 22.7466 14.854 22.7397 15.0179L22.7387 15.042C22.6598 16.9182 22.4096 18.3324 21.38 19.3594C20.6301 20.1074 19.6794 20.4393 18.5046 20.5969C17.3628 20.75 15.9038 20.75 14.0612 20.75H9.93866C8.09611 20.75 6.63706 20.75 5.49525 20.5969C4.32045 20.4393 3.36975 20.1074 2.61986 19.3594C1.59031 18.3324 1.34006 16.9182 1.26119 15.042L1.26017 15.0179C1.25325 14.854 1.24619 14.6867 1.25238 14.5458C1.25898 14.3959 1.28216 14.1795 1.40185 13.9656C1.48468 13.8177 1.59561 13.7154 1.66951 13.6542C1.74966 13.5878 1.83867 13.5276 1.92352 13.4741C2.08725 13.3708 2.30869 13.2471 2.56827 13.1022L2.58735 13.0915C2.97306 12.8761 3.23002 12.467 3.23002 12C3.23002 11.533 2.97306 11.1239 2.58735 10.9085L2.56825 10.8978C2.30868 10.7529 2.08725 10.6292 1.92352 10.5259C1.83866 10.4724 1.74966 10.4122 1.66951 10.3458C1.5956 10.2846 1.48468 10.1823 1.40185 10.0344C1.28216 9.82054 1.25898 9.60408 1.25238 9.45419C1.24619 9.31328 1.25325 9.14599 1.26017 8.98215C1.26051 8.97408 1.26085 8.96602 1.26119 8.95797C1.34006 7.08185 1.59031 5.66758 2.61986 4.64058C3.36975 3.89255 4.32046 3.56066 5.49525 3.4031C6.63706 3.24997 8.09611 3.24998 9.93866 3.25ZM21.2468 14.5842C21.2468 14.5842 21.247 14.5852 21.2473 14.5875L21.2468 14.5842ZM21.2492 14.726C21.2491 14.7325 21.2489 14.7394 21.2488 14.7464C21.2471 14.8104 21.244 14.8847 21.24 14.979C21.162 16.8351 20.9085 17.7111 20.3207 18.2974C19.8961 18.721 19.3144 18.9749 18.3053 19.1102C17.2747 19.2484 15.9164 19.25 14.0049 19.25H9.99496C8.0835 19.25 6.72516 19.2484 5.69463 19.1102C4.68549 18.9749 4.10379 18.721 3.6792 18.2974C3.09141 17.7111 2.83789 16.8351 2.75986 14.979C2.7559 14.8847 2.75279 14.8104 2.75115 14.7464C2.75096 14.7394 2.75081 14.7325 2.75067 14.726C2.87533 14.649 3.05437 14.5488 3.3187 14.4012C4.15855 13.9322 4.73002 13.0336 4.73002 12C4.73002 10.9664 4.15855 10.0678 3.3187 9.59884C3.05437 9.45123 2.87533 9.35098 2.75066 9.27401C2.7508 9.26746 2.75096 9.26065 2.75115 9.25358C2.75279 9.18961 2.7559 9.11528 2.75986 9.02097C2.83789 7.16494 3.09141 6.28889 3.6792 5.70256C4.10379 5.27902 4.68549 5.02513 5.69463 4.88979C6.72516 4.75159 8.0835 4.75 9.99496 4.75H14.0049C15.9164 4.75 17.2747 4.75159 18.3053 4.88979C19.3144 5.02513 19.8961 5.27902 20.3207 5.70256C20.9085 6.28889 21.162 7.16494 21.24 9.02098C21.244 9.11528 21.2471 9.18961 21.2488 9.25357C21.2489 9.26065 21.2491 9.26746 21.2492 9.274C21.1246 9.35098 20.9455 9.45123 20.6812 9.59884C19.8413 10.0678 19.2699 10.9664 19.2699 12C19.2699 13.0336 19.8413 13.9322 20.6812 14.4012C20.9455 14.5488 21.1246 14.649 21.2492 14.726ZM21.3735 9.19072L21.3723 9.19165C21.3766 9.18779 21.3774 9.18748 21.3735 9.19072ZM21.2468 9.41578C21.2468 9.41578 21.2469 9.41461 21.2473 9.41248L21.2468 9.41578ZM2.62643 9.19072C2.62252 9.18748 2.62334 9.18779 2.62756 9.19165L2.62643 9.19072ZM2.75263 9.41247C2.75299 9.4146 2.75309 9.41578 2.75309 9.41578L2.75263 9.41247ZM2.75309 14.5842C2.75309 14.5842 2.75299 14.5854 2.75263 14.5875L2.75309 14.5842ZM2.62757 14.8084C2.62334 14.8122 2.62252 14.8125 2.62643 14.8093L2.62757 14.8084ZM21.3723 14.8084L21.3735 14.8093C21.3774 14.8125 21.3766 14.8122 21.3723 14.8084ZM15.5303 8.46967C15.8232 8.76256 15.8232 9.23744 15.5303 9.53033L9.53028 15.5303C9.23738 15.8232 8.76251 15.8232 8.46962 15.5303C8.17672 15.2374 8.17672 14.7626 8.46962 14.4697L14.4696 8.46967C14.7625 8.17678 15.2374 8.17678 15.5303 8.46967Z" fill="#1C274C"/>
<path d="M15.4999 14.5C15.4999 15.0523 15.0522 15.5 14.4999 15.5C13.9477 15.5 13.4999 15.0523 13.4999 14.5C13.4999 13.9477 13.9477 13.5 14.4999 13.5C15.0522 13.5 15.4999 13.9477 15.4999 14.5Z" fill="#1C274C"/>
<path d="M10.4999 9.5C10.4999 10.0523 10.0522 10.5 9.49995 10.5C8.94766 10.5 8.49995 10.0523 8.49995 9.5C8.49995 8.94772 8.94766 8.5 9.49995 8.5C10.0522 8.5 10.4999 8.94772 10.4999 9.5Z" fill="#1C274C"/>
</g>
</g>
</svg>
