<svg width="24" height="24" viewBox="0 0 24 24" fill="none" xmlns="http://www.w3.org/2000/svg">
<g id="Outline / Shopping, Ecommerce / Cart 2">
<path id="Vector" fill-rule="evenodd" clip-rule="evenodd" d="M9.63774 21.75C8.55256 21.75 7.67148 21.75 6.96266 21.6653C6.22365 21.5769 5.58901 21.3888 5.03439 20.9558C4.47977 20.5227 4.14337 19.9527 3.8784 19.2572C3.62426 18.5901 3.41058 17.7353 3.1474 16.6825L3.121 16.5769C2.70479 14.9121 2.37229 13.5822 2.26492 12.5261C2.15427 11.4377 2.26442 10.4888 2.88642 9.6922C3.16928 9.32992 3.50837 9.06269 3.89587 8.86426L4.52374 6.56133C4.76082 5.68968 4.93306 5.05639 5.29999 4.5623C5.66371 4.07255 6.15792 3.69505 6.72611 3.47298C7.20166 3.28712 7.7344 3.25574 8.41794 3.25077C8.69865 2.65912 9.3015 2.25 9.9999 2.25H13.9999C14.6983 2.25 15.3012 2.65912 15.5819 3.25077C16.2654 3.25574 16.7981 3.28712 17.2737 3.47298C17.8419 3.69505 18.3361 4.07255 18.6998 4.5623C19.0667 5.05639 19.239 5.68968 19.4761 6.56133L20.104 8.86431C20.4914 9.06274 20.8305 9.32995 21.1133 9.6922C21.7353 10.4888 21.8454 11.4377 21.7348 12.5261C21.6274 13.5822 21.2949 14.9121 20.8787 16.5769L20.8523 16.6824C20.5892 17.7352 20.3755 18.5901 20.1213 19.2572C19.8563 19.9527 19.5199 20.5227 18.9653 20.9558C18.4107 21.3888 17.7761 21.5769 17.0371 21.6653C16.3282 21.75 15.4472 21.75 14.362 21.75H9.63774ZM7.27214 4.87007C7.49194 4.78416 7.75752 4.75888 8.41935 4.75219C8.70067 5.34225 9.30267 5.75 9.9999 5.75H13.9999C14.6971 5.75 15.2991 5.34225 15.5805 4.75219C16.2423 4.75888 16.5079 4.78416 16.7277 4.87007C17.0336 4.98964 17.2997 5.19291 17.4956 5.45663C17.6717 5.69377 17.775 6.02508 18.0659 7.09194L18.4195 8.3887C17.3817 8.24996 16.0419 8.24998 14.3773 8.25L12.0056 8.25C12.0021 8.24997 11.9985 8.24997 11.995 8.25L9.62246 8.25C7.95788 8.24998 6.61809 8.24996 5.5803 8.38868L5.93388 7.09195C6.22478 6.02508 6.32812 5.69376 6.50423 5.45662C6.70008 5.19291 6.96619 4.98964 7.27214 4.87007ZM10.3986 9.75H9.68452C7.89217 9.75 6.63034 9.75187 5.69971 9.88649C5.58177 9.90355 5.47171 9.92243 5.36887 9.94313L7.55983 13.1565L10.3986 9.75ZM4.03876 10.655C3.78099 11.0086 3.66752 11.4919 3.75723 12.3744C3.85233 13.3099 4.15656 14.5345 4.59127 16.2733C4.62077 16.3913 4.64932 16.5054 4.67705 16.6159L6.56132 14.3548L4.03876 10.655ZM5.15948 18.38C5.19928 18.5018 5.23926 18.6159 5.28013 18.7231C5.49144 19.2778 5.69835 19.5711 5.95751 19.7735C6.21667 19.9758 6.5514 20.1054 7.14076 20.1759C7.75015 20.2488 8.54133 20.25 9.68452 20.25H10.5808L7.43997 15.6435L5.15948 18.38ZM13.419 20.25L16.5724 15.625L18.8405 18.3791C18.8006 18.5013 18.7606 18.6156 18.7196 18.7231C18.5083 19.2778 18.3014 19.5711 18.0422 19.7735C17.783 19.9758 17.4483 20.1054 16.859 20.1759C16.2496 20.2488 15.4584 20.25 14.3152 20.25H13.419ZM19.3248 16.6075C19.3518 16.4997 19.3797 16.3883 19.4084 16.2733C19.8432 14.5345 20.1474 13.3099 20.2425 12.3744C20.3322 11.492 20.2187 11.0086 19.961 10.6551L17.4525 14.3341L19.3248 16.6075ZM18.6309 9.94314C18.5281 9.92243 18.418 9.90356 18.3 9.88649C17.3694 9.75187 16.1075 9.75 14.3152 9.75H13.6774L16.4594 13.1281L18.6309 9.94314ZM9.9999 3.75C9.86183 3.75 9.7499 3.86193 9.7499 4C9.7499 4.13807 9.86183 4.25 9.9999 4.25H13.9999C14.138 4.25 14.2499 4.13807 14.2499 4C14.2499 3.86193 14.138 3.75 13.9999 3.75H9.9999ZM12.0409 10.1224L15.5792 14.419L11.9999 19.6686L8.43849 14.4452L12.0409 10.1224Z" fill="#1C274C"/>
</g>
</svg>
