<svg width="24" height="24" viewBox="0 0 24 24" fill="none" xmlns="http://www.w3.org/2000/svg">
<g id="Bold Duotone / Search / Magnifer Zoom Out">
<path id="Vector" opacity="0.5" d="M11.1566 20.3133C16.2137 20.3133 20.3133 16.2137 20.3133 11.1566C20.3133 6.09956 16.2137 2 11.1566 2C6.09956 2 2 6.09956 2 11.1566C2 16.2137 6.09956 20.3133 11.1566 20.3133Z" fill="#1C274C"/>
<path id="Vector_2" d="M17.0996 18.1219C17.4666 17.8085 17.8085 17.4666 18.1219 17.0996L21.7882 20.7659C22.0705 21.0482 22.0705 21.5059 21.7882 21.7882C21.5059 22.0705 21.0482 22.0705 20.7659 21.7882L17.0996 18.1219Z" fill="#1C274C"/>
<path id="Vector_3" fill-rule="evenodd" clip-rule="evenodd" d="M8.02344 11.1565C8.02344 10.7572 8.34709 10.4336 8.74633 10.4336H13.5656C13.9648 10.4336 14.2885 10.7572 14.2885 11.1565C14.2885 11.5557 13.9648 11.8794 13.5656 11.8794H8.74633C8.34709 11.8794 8.02344 11.5557 8.02344 11.1565Z" fill="#1C274C"/>
</g>
</svg>
