<svg width="24" height="24" viewBox="0 0 24 24" fill="none" xmlns="http://www.w3.org/2000/svg">
<g id="Bold Duotone / Medicine / Pills">
<g id="Vector">
<path fill-rule="evenodd" clip-rule="evenodd" d="M10.0103 13.1087L9.51514 13.2041L7.59246 11.2815C5.46918 9.15824 5.46918 5.71573 7.59246 3.59246C9.71573 1.46918 13.1582 1.46918 15.2815 3.59246L17.204 5.51496L17.1085 6.01044L17.1067 6.01901C17.1044 6.02913 17.1002 6.0474 17.0937 6.07334C17.0806 6.12524 17.0581 6.20779 17.0232 6.3172C16.9532 6.53606 16.8335 6.86215 16.6391 7.26544C16.2508 8.07115 15.5633 9.18781 14.3752 10.3759C13.1872 11.5639 12.0706 12.2513 11.265 12.6396C10.8618 12.8339 10.5358 12.9536 10.317 13.0234C10.2076 13.0584 10.125 13.0808 10.0732 13.0939C10.0472 13.1004 10.029 13.1046 10.0189 13.1069L10.0103 13.1087ZM13.5303 4.46967C13.2374 4.17678 12.7626 4.17678 12.4697 4.46967C12.1768 4.76256 12.1768 5.23744 12.4697 5.53033L13.9697 7.03033C14.2626 7.32322 14.7374 7.32322 15.0303 7.03033C15.3232 6.73744 15.3232 6.26256 15.0303 5.96967L13.5303 4.46967Z" fill="#1C274C"/>
<path d="M20.4075 8.71849L18.4546 6.76554L18.452 6.7736C18.3625 7.05391 18.2174 7.44558 17.9904 7.91669C17.5359 8.85977 16.754 10.1185 15.4359 11.4365C14.1178 12.7546 12.8592 13.5364 11.9162 13.9908C11.4452 14.2178 11.0535 14.3629 10.7732 14.4524L10.7658 14.4547L12.7185 16.4075C14.8418 18.5308 18.2843 18.5308 20.4075 16.4075C22.5308 14.2843 22.5308 10.8418 20.4075 8.71849Z" fill="#1C274C"/>
</g>
<path id="Vector_2" opacity="0.5" d="M6.71656 10.1377C6.951 10.5469 7.24297 10.9321 7.59245 11.2816L12.7185 16.4077C13.068 16.7571 13.4532 17.0491 13.8624 17.2836C13.6136 18.4253 13.0397 19.4457 12.2426 20.2428C11.1569 21.3285 9.65685 22.0001 8 22.0001C4.68629 22.0001 2 19.3138 2 16.0001C2 14.3433 2.67157 12.8433 3.75736 11.7575C4.55447 10.9604 5.57481 10.3865 6.71656 10.1377Z" fill="#1C274C"/>
</g>
</svg>
