<svg width="24" height="24" viewBox="0 0 24 24" fill="none" xmlns="http://www.w3.org/2000/svg">
<g id="Bold Duotone / Transport, Parts, Service / Scooter">
<path id="Vector" opacity="0.5" d="M6.5 19C8.15685 19 9.5 17.6569 9.5 16H3.5C3.5 17.6569 4.84315 19 6.5 19Z" fill="#1C274C"/>
<path id="Vector_2" opacity="0.5" d="M18.8244 10.4978L18 11L16.3574 7.5H17.8394C18.4568 7.5 18.7655 7.5 18.996 7.63165C19.1512 7.72028 19.2798 7.84887 19.3684 8.00405C19.5001 8.23455 19.5001 8.54327 19.5001 9.16072C19.5001 9.48721 19.5001 9.65046 19.4527 9.7989C19.4204 9.89994 19.3723 9.99519 19.31 10.0811C19.2187 10.2073 19.0872 10.3041 18.8244 10.4978L18.8244 10.4978Z" fill="#1C274C"/>
<path id="Vector_3" d="M13.8643 5.78336C13.5506 5.75093 13.1447 5.75 12.5279 5.75H12C11.5858 5.75 11.25 5.41422 11.25 5C11.25 4.58579 11.5858 4.25 12 4.25H12.5647H12.5648C13.1347 4.24998 13.6187 4.24997 14.0186 4.29132C14.4444 4.33534 14.8379 4.43094 15.2097 4.66071C15.5815 4.89048 15.843 5.19971 16.0728 5.56088C16.2886 5.90009 16.505 6.33294 16.7599 6.84275L19.9085 13.14C21.1213 13.5249 22 14.6599 22 16C22 17.6569 20.6569 19 19 19C17.6021 19 16.4275 18.0439 16.0945 16.75L3.06023 16.75C2.99389 16.75 2.92594 16.7496 2.86271 16.7446C2.00455 16.6771 1.32295 15.9955 1.25541 15.1373C1.24992 15.0675 1.24996 14.992 1.25001 14.9193L1.25001 14.8619C1.24999 14.5269 1.24998 14.3138 1.26466 14.1273C1.44798 11.798 3.29805 9.94797 5.62733 9.76465C5.65166 9.76273 5.67643 9.76107 5.70187 9.75962C5.84708 9.75136 6.01392 9.75018 6.24176 9.75002L7.05202 9.75C7.95049 9.74997 8.69972 9.74995 9.29449 9.82992C9.92229 9.91432 10.4891 10.1 10.9446 10.5555C11.4 11.0109 11.5857 11.5777 11.6701 12.2055C11.7501 12.8003 11.75 13.5495 11.75 14.448L11.75 15.25H16.0945C16.3627 14.208 17.1767 13.3851 18.2135 13.1041L15.4348 7.54656C15.1589 6.99487 14.9765 6.6322 14.8072 6.36612C14.6473 6.1147 14.5326 6.00562 14.4211 5.93669C14.3096 5.86776 14.1607 5.81401 13.8643 5.78336Z" fill="#1C274C"/>
</g>
</svg>
