<svg width="24" height="24" viewBox="0 0 24 24" fill="none" xmlns="http://www.w3.org/2000/svg">
<g id="Outline / Food, Kitchen / Bottle">
<path id="Vector" fill-rule="evenodd" clip-rule="evenodd" d="M16.8773 2.59825C16.8694 2.61253 16.8611 2.62761 16.8522 2.64362L16.7757 2.7819L17.6421 3.30383L17.7204 3.16233C17.7287 3.14745 17.7364 3.13343 17.7437 3.12016C17.7308 3.11233 17.717 3.10406 17.7025 3.09529L16.9218 2.62499C16.9061 2.61556 16.8913 2.60666 16.8773 2.59825ZM17.9306 3.23893C17.9306 3.23893 17.9303 3.2387 17.9298 3.23824L17.9306 3.23893ZM17.2048 4.79151L15.733 3.90492L13.0682 5.21462C12.9831 5.25645 12.9487 5.27339 12.9171 5.28962C11.9498 5.78628 11.199 6.64364 10.8073 7.68711L10.8669 7.65729C12.0721 7.05472 13.5176 7.20786 14.5697 8.04956C15.0873 8.46369 15.7796 8.58716 16.4086 8.37752L17.4637 8.02582C17.4614 7.99575 17.4583 7.95643 17.4532 7.89259L17.2048 4.79151ZM18.962 8.79003C19.0062 8.65701 19.0135 8.51064 18.9762 8.36668C18.9761 8.23571 18.9719 8.10435 18.9636 7.97277C18.9603 7.92151 18.956 7.86831 18.949 7.78025L18.6873 4.51316L19.0424 3.87132C19.0996 3.76806 19.1619 3.65555 19.2081 3.55353C19.2606 3.4376 19.3192 3.27962 19.3279 3.08683C19.3395 2.8294 19.2713 2.57467 19.1326 2.35749C19.0287 2.19485 18.899 2.08729 18.7956 2.01309C18.7047 1.94779 18.5945 1.88145 18.4934 1.82057L18.4765 1.81041L17.678 1.3294C17.5697 1.26414 17.4529 1.19375 17.3471 1.14138C17.2278 1.08235 17.0627 1.0147 16.859 1.00249C16.5892 0.986306 16.3215 1.05799 16.0959 1.20681C15.9256 1.31914 15.8163 1.46026 15.7425 1.57099C15.677 1.66925 15.611 1.78858 15.5498 1.89921L15.2273 2.4821L12.3997 3.87181C12.3235 3.90924 12.2766 3.93227 12.2319 3.95526C10.606 4.79015 9.46047 6.35894 9.11562 8.1882C9.10611 8.23865 9.09709 8.29123 9.08217 8.37822L9.08094 8.38542C9.06501 8.47829 9.05798 8.51921 9.05076 8.55871C8.78456 10.0144 8.0939 11.3428 7.07835 12.3646C7.05083 12.3923 7.02207 12.4206 6.95619 12.4854L6.1518 13.2763C5.64777 13.7719 5.24146 14.1714 4.93768 14.5151C4.62759 14.8659 4.37758 15.209 4.22734 15.6034C3.82618 16.6567 3.96118 17.8505 4.59068 18.7836C4.82679 19.1336 5.14871 19.4092 5.5299 19.6773C5.90313 19.9399 6.38864 20.2323 6.99012 20.5946L7.70314 21.0242C8.30438 21.3864 8.78997 21.6789 9.19477 21.885C9.60683 22.0948 10.0015 22.251 10.4202 22.2903C11.5377 22.3952 12.6191 21.9052 13.3001 21.0064C13.5538 20.6716 13.7127 20.2748 13.8478 19.8226C13.9808 19.3776 14.109 18.8119 14.2685 18.1077L14.5226 16.9865C14.5434 16.8947 14.5525 16.8542 14.5618 16.8152C14.9043 15.3778 15.6637 14.0919 16.7309 13.1306C16.7598 13.1046 16.79 13.078 16.8592 13.0171L16.8647 13.0122C16.9293 12.9554 16.9687 12.9207 17.0062 12.8866C18.164 11.8317 18.8564 10.355 18.962 8.79003ZM17.2962 9.66277L16.8829 9.80055C15.7713 10.1711 14.5476 9.95284 13.6326 9.22086C13.0374 8.74466 12.2196 8.65802 11.5378 8.99893L10.3518 9.59189C9.95287 11.0414 9.19399 12.3638 8.14225 13.422C8.10794 13.4565 8.07275 13.4911 8.01157 13.5513L7.22343 14.3263C6.69478 14.8461 6.32638 15.2089 6.06157 15.5085C5.79909 15.8055 5.68537 15.9896 5.62912 16.1373C5.4006 16.7373 5.47929 17.4187 5.83417 17.9447C5.92087 18.0732 6.07138 18.2243 6.39293 18.4504C6.71743 18.6787 7.15695 18.944 7.78835 19.3244L8.45269 19.7246C9.08421 20.105 9.52399 20.3694 9.87538 20.5483C10.225 20.7263 10.4206 20.7837 10.5605 20.7969C11.1463 20.8519 11.7281 20.5974 12.1045 20.1006C12.1976 19.9777 12.2944 19.7822 12.4106 19.3932C12.5274 19.0025 12.6447 18.4866 12.8117 17.7495L13.0607 16.6504C13.0801 16.5646 13.0912 16.5157 13.1027 16.4676C13.514 14.7411 14.4286 13.1855 15.727 12.0161C15.763 11.9836 15.7999 11.9512 15.8638 11.8949L15.8682 11.891C15.94 11.8278 15.9692 11.8021 15.9959 11.7778C16.6179 11.2111 17.065 10.4752 17.2962 9.66277Z" fill="#1C274C"/>
</g>
</svg>
