<svg width="24" height="24" viewBox="0 0 24 24" fill="none" xmlns="http://www.w3.org/2000/svg">
<g id="Outline / Food, Kitchen / Cup Hot">
<path id="Vector" fill-rule="evenodd" clip-rule="evenodd" d="M6.97723 1.32673C7.31445 1.56726 7.39282 2.03562 7.15229 2.37284L6.76622 2.91409C7.39204 3.38836 7.53075 4.27761 7.07176 4.92108L6.66115 5.49675C6.42061 5.83396 5.95225 5.91234 5.61503 5.67181C5.27781 5.43127 5.19944 4.96291 5.43997 4.62569L5.82604 4.08444C5.20022 3.61018 5.06151 2.72092 5.5205 2.07745L5.93111 1.50179C6.17165 1.16457 6.64001 1.08619 6.97723 1.32673ZM10.9772 1.32673C11.3144 1.56726 11.3928 2.03562 11.1523 2.37284L10.7662 2.91409C11.392 3.38836 11.5307 4.27761 11.0718 4.92108L10.6611 5.49675C10.4206 5.83396 9.95225 5.91234 9.61503 5.67181C9.27781 5.43127 9.19944 4.96291 9.43997 4.62569L9.82604 4.08444C9.20022 3.61018 9.06151 2.72092 9.5205 2.07745L9.93112 1.50179C10.1716 1.16457 10.64 1.08619 10.9772 1.32673ZM14.9772 1.32673C15.3144 1.56726 15.3928 2.03562 15.1523 2.37284L14.7662 2.91409C15.392 3.38836 15.5307 4.27761 15.0718 4.92108L14.6611 5.49675C14.4206 5.83396 13.9522 5.91234 13.615 5.67181C13.2778 5.43127 13.1994 4.96291 13.44 4.62569L13.826 4.08444C13.2002 3.61018 13.0615 2.72092 13.5205 2.07745L13.9311 1.50179C14.1716 1.16457 14.64 1.08619 14.9772 1.32673ZM7.22137 6.2499H12.7784C13.7341 6.24987 14.5285 6.24985 15.1549 6.33612C15.8145 6.42698 16.4082 6.62729 16.8703 7.12115C17.1802 7.45242 17.3544 7.83406 17.4496 8.24991H17.9999C20.6232 8.24991 22.7499 10.3766 22.7499 12.9999C22.7499 15.6233 20.6232 17.7499 17.9999 17.7499H17.0304C17.0205 17.8756 17.0104 17.9982 16.9999 18.1178V18.7499H16.9361C16.8988 19.0695 16.8553 19.3638 16.8016 19.6335C16.6332 20.4788 16.3467 21.1849 15.7552 21.7383C15.1636 22.2918 14.44 22.5306 13.5854 22.6424C12.7633 22.7499 11.7249 22.7499 10.4393 22.7499H9.56045C8.27486 22.7499 7.23642 22.7499 6.41438 22.6424C5.55973 22.5306 4.83618 22.2918 4.24459 21.7383C3.65299 21.1849 3.36657 20.4788 3.19818 19.6335C3.0362 18.8204 2.96714 17.7843 2.88165 16.5015L2.53234 11.262C2.46873 10.3083 2.41587 9.51568 2.46029 8.88498C2.50707 8.22078 2.66744 7.61501 3.12947 7.12115C3.5915 6.62729 4.18526 6.42698 4.84487 6.33612C5.47122 6.24985 6.26561 6.24987 7.22137 6.2499ZM17.1349 16.2499H17.9999C19.7948 16.2499 21.2499 14.7948 21.2499 12.9999C21.2499 11.205 19.7948 9.74991 17.9999 9.74991H17.5508C17.5383 10.1984 17.5047 10.7025 17.4674 11.262L17.1349 16.2499ZM15.5634 17.2499H4.43637C4.4164 16.9716 4.39635 16.6721 4.37482 16.3491L4.03261 11.2161C3.96452 10.1946 3.92028 9.50582 3.95658 8.99036C3.99136 8.49654 4.09407 8.2857 4.22484 8.14593C4.3556 8.00615 4.55914 7.88964 5.04956 7.82209C5.56146 7.75158 6.25167 7.74991 7.27542 7.74991H12.7243C13.7481 7.74991 14.4383 7.75158 14.9502 7.82209C15.4406 7.88964 15.6441 8.00615 15.7749 8.14593C15.9057 8.2857 16.0084 8.49654 16.0432 8.99036C16.0795 9.50582 16.0352 10.1946 15.9671 11.2161L15.6249 16.3491C15.6034 16.6721 15.5833 16.9716 15.5634 17.2499ZM4.57465 18.7499H15.4251C15.3974 18.9639 15.3665 19.1598 15.3305 19.3404C15.1941 20.0249 15.0038 20.3872 14.7304 20.643C14.457 20.8988 14.0828 21.0646 13.3908 21.1551C12.6774 21.2484 11.7374 21.2499 10.3866 21.2499H9.61319C8.26235 21.2499 7.32234 21.2484 6.60894 21.1551C5.91694 21.0646 5.54278 20.8988 5.26937 20.643C4.99595 20.3872 4.80562 20.0249 4.66927 19.3404C4.63329 19.1598 4.60232 18.9639 4.57465 18.7499Z" fill="#1C274C"/>
</g>
</svg>
