<svg width="24" height="24" viewBox="0 0 24 24" fill="none" xmlns="http://www.w3.org/2000/svg">
<g id="Linear / School / Backpack">
<path id="Vector" d="M3 10.9112C3 10.8182 3 10.7717 3.00057 10.7303C3.0385 7.98021 4.94139 5.60803 7.61778 4.97443C7.65803 4.9649 7.70344 4.95481 7.79425 4.93463C7.87787 4.91605 7.91968 4.90675 7.96109 4.89775C10.6226 4.31875 13.3774 4.31875 16.0389 4.89775C16.0803 4.90675 16.1221 4.91605 16.2057 4.93463C16.2966 4.95481 16.342 4.9649 16.3822 4.97443C19.0586 5.60803 20.9615 7.98021 20.9994 10.7303C21 10.7717 21 10.8182 21 10.9112V16.3752C21 18.4931 19.529 20.3269 17.4615 20.7864C13.8644 21.5857 10.1356 21.5857 6.53853 20.7864C4.47101 20.3269 3 18.4931 3 16.3752V10.9112Z" stroke="#1C274D" stroke-width="1.5"/>
<path id="Vector_2" d="M17.5 15.5V17" stroke="#1C274D" stroke-width="1.5" stroke-linecap="round"/>
<path id="Vector_3" d="M15.9585 4.5C15.7205 3.08114 14.4865 2 13 2H11C9.51353 2 8.27954 3.08114 8.0415 4.5" stroke="#1C274D" stroke-width="1.5" stroke-linecap="round"/>
<path id="Vector_4" d="M3 14C8.72979 16.5466 15.2702 16.5466 21 14" stroke="#1C274D" stroke-width="1.5" stroke-linecap="round"/>
<path id="Vector_5" d="M10 13H14" stroke="#1C274D" stroke-width="1.5" stroke-linecap="round"/>
</g>
</svg>
