<svg width="24" height="24" viewBox="0 0 24 24" fill="none" xmlns="http://www.w3.org/2000/svg">
<g id="Outline / Notifications / Bell Bing">
<g id="Vector">
<path d="M12.75 6C12.75 5.58579 12.4142 5.25 12 5.25C11.5858 5.25 11.25 5.58579 11.25 6V10C11.25 10.4142 11.5858 10.75 12 10.75C12.4142 10.75 12.75 10.4142 12.75 10V6Z" fill="#1C274C"/>
<path fill-rule="evenodd" clip-rule="evenodd" d="M4.25004 9C4.25004 4.71979 7.71983 1.25 12 1.25C16.2802 1.25 19.75 4.71979 19.75 9V9.7041C19.75 10.401 19.9563 11.0824 20.3429 11.6622L21.4915 13.3851C22.8246 15.3848 21.8069 18.1028 19.4883 18.7351C18.7327 18.9412 17.9706 19.1155 17.2042 19.2581L17.2023 19.2632C16.4333 21.3151 14.378 22.75 12 22.75C9.62198 22.75 7.56667 21.3151 6.79768 19.2632L6.79578 19.2581C6.02937 19.1155 5.26738 18.9412 4.51177 18.7351C2.19318 18.1028 1.17547 15.3848 2.50856 13.3851L3.65717 11.6622C4.04375 11.0824 4.25004 10.401 4.25004 9.7041V9ZM8.62349 19.5369C10.8664 19.8049 13.1335 19.805 15.3764 19.537C14.6655 20.5585 13.4289 21.25 12 21.25C10.571 21.25 9.33444 20.5585 8.62349 19.5369ZM12 2.75C8.54826 2.75 5.75004 5.54822 5.75004 9V9.7041C5.75004 10.6972 5.45609 11.668 4.90524 12.4943L3.75664 14.2172C2.99147 15.3649 3.57561 16.925 4.90644 17.288C9.5507 18.5546 14.4494 18.5546 19.0936 17.288C20.4245 16.925 21.0086 15.3649 20.2434 14.2172L19.0948 12.4943C18.544 11.668 18.25 10.6972 18.25 9.7041V9C18.25 5.54822 15.4518 2.75 12 2.75Z" fill="#1C274C"/>
</g>
</g>
</svg>
