<svg width="24" height="24" viewBox="0 0 24 24" fill="none" xmlns="http://www.w3.org/2000/svg">
<g id="Bold Duotone / Like / Hearts">
<path id="Vector" opacity="0.5" d="M2 9.1371C2 14 6.01943 16.5914 8.96173 18.9109C10 19.7294 11 20.5 12 20.5C13 20.5 14 19.7294 15.0383 18.9109C17.9806 16.5914 22 14 22 9.1371C22 4.27416 16.4998 0.825464 12 5.50063C7.50016 0.825464 2 4.27416 2 9.1371Z" fill="#1C274C"/>
<path id="Vector_2" d="M16.5 13.2871C14.0251 10.5713 11 12.5746 11 15.3995C11 17.9583 12.814 19.4344 14.3584 20.6912L14.4018 20.7265C14.5474 20.8449 14.6903 20.9615 14.829 21.0769C15.4 21.5523 15.95 22 16.5 22C17.05 22 17.6 21.5523 18.171 21.0769C19.7893 19.7296 22 18.2243 22 15.3995C22 14.4715 21.6735 13.6321 21.1474 13.0197C20.0718 11.7677 18.1619 11.4635 16.5 13.2871Z" fill="#1C274C"/>
</g>
</svg>
