<svg width="24" height="24" viewBox="0 0 24 24" fill="none" xmlns="http://www.w3.org/2000/svg">
<g id="Outline / Essentional, UI / Flashlight">
<g id="Vector">
<path d="M11.9998 12.25C12.414 12.25 12.7498 12.5858 12.7498 13V15C12.7498 15.4142 12.414 15.75 11.9998 15.75C11.5856 15.75 11.2498 15.4142 11.2498 15V13C11.2498 12.5858 11.5856 12.25 11.9998 12.25Z" fill="#1C274C"/>
<path fill-rule="evenodd" clip-rule="evenodd" d="M5.95508 1.25C5.52226 1.24995 5.12543 1.24991 4.80262 1.29331C4.44714 1.3411 4.07141 1.45355 3.76239 1.76257C3.45336 2.07159 3.34092 2.44732 3.29312 2.8028C3.24972 3.12561 3.24977 3.52244 3.24982 3.95526L3.24982 4.17158L3.24967 4.25163C3.24873 4.5773 3.24771 4.92879 3.38304 5.25549C3.51836 5.58218 3.76762 5.83001 3.99857 6.05963L4.05528 6.11612L7.29792 9.35877C7.91925 9.9801 8.0728 10.1524 8.15467 10.3501C8.23655 10.5477 8.24982 10.7782 8.24982 11.6569V19.0253C8.24982 19.4697 8.24981 19.8408 8.27059 20.1454C8.29223 20.4625 8.33887 20.762 8.45916 21.0524C8.73826 21.7262 9.27362 22.2616 9.94744 22.5407C10.2378 22.661 10.5374 22.7076 10.8545 22.7292C11.1591 22.75 11.5301 22.75 11.9746 22.75H12.0251C12.4695 22.75 12.8406 22.75 13.1452 22.7292C13.4623 22.7076 13.7618 22.661 14.0522 22.5407C14.726 22.2616 15.2614 21.7262 15.5405 21.0524C15.6608 20.762 15.7074 20.4625 15.7291 20.1454C15.7498 19.8408 15.7498 19.4697 15.7498 19.0253V11.6569C15.7498 10.7782 15.7631 10.5477 15.845 10.3501C15.9269 10.1524 16.0804 9.9801 16.7017 9.35876L19.9444 6.11612L20.0011 6.05963C20.232 5.83001 20.4813 5.58218 20.6166 5.25549C20.7519 4.92879 20.7509 4.5773 20.75 4.25163L20.7498 4.17158L20.7498 3.95526C20.7499 3.52244 20.7499 3.12561 20.7065 2.8028C20.6587 2.44732 20.5463 2.07159 20.2373 1.76257C19.9282 1.45355 19.5525 1.3411 19.197 1.29331C18.8742 1.24991 18.4774 1.24995 18.0446 1.25H5.95508ZM4.8255 2.82187L4.82306 2.82324L4.82169 2.82568C4.82068 2.82761 4.81906 2.83093 4.81698 2.83597C4.80802 2.85775 4.79273 2.90611 4.77975 3.00267C4.75142 3.21339 4.74982 3.5074 4.74982 4.00001V4.17158C4.74982 4.19924 4.74983 4.22534 4.74986 4.25H19.2498C19.2498 4.22534 19.2498 4.19924 19.2498 4.17158V4.00001C19.2498 3.5074 19.2482 3.21339 19.2199 3.00267C19.2069 2.90611 19.1916 2.85775 19.1827 2.83597C19.1806 2.83093 19.179 2.82761 19.178 2.82568L19.1766 2.82324L19.1742 2.82187C19.1722 2.82086 19.1689 2.81924 19.1639 2.81717C19.1421 2.80821 19.0937 2.79291 18.9972 2.77993C18.7864 2.7516 18.4924 2.75001 17.9998 2.75001H5.99982C5.50722 2.75001 5.21321 2.7516 5.00249 2.77993C4.90593 2.79291 4.85757 2.80821 4.83579 2.81717C4.83074 2.81924 4.82743 2.82086 4.8255 2.82187ZM18.1892 5.75H5.81048L8.4441 8.38351C8.756 8.69482 9.02688 8.96518 9.23724 9.25H14.7624C14.9728 8.96519 15.2436 8.69485 15.5555 8.38355L18.1892 5.75ZM14.2631 10.75H9.7365C9.75042 10.9925 9.75017 11.2522 9.7499 11.536L9.74982 19C9.74982 19.4762 9.75023 19.7958 9.76711 20.0433C9.78354 20.284 9.81302 20.4012 9.84497 20.4784C9.97184 20.7846 10.2152 21.028 10.5215 21.1549C10.5986 21.1868 10.7158 21.2163 10.9566 21.2327C11.204 21.2496 11.5236 21.25 11.9998 21.25C12.476 21.25 12.7956 21.2496 13.0431 21.2327C13.2838 21.2163 13.401 21.1868 13.4782 21.1549C13.7845 21.028 14.0278 20.7846 14.1547 20.4784C14.1866 20.4012 14.2161 20.284 14.2325 20.0433C14.2494 19.7958 14.2498 19.4762 14.2498 19L14.2497 11.536C14.2495 11.2522 14.2492 10.9925 14.2631 10.75Z" fill="#1C274C"/>
</g>
</g>
</svg>
