<svg width="24" height="24" viewBox="0 0 24 24" fill="none" xmlns="http://www.w3.org/2000/svg">
<g id="Outline / Essentional, UI / Magic Stick 2">
<path id="Vector" fill-rule="evenodd" clip-rule="evenodd" d="M17.544 1.49857C16.8278 1.08878 16.0621 1.24503 15.3437 1.54072C14.6378 1.83126 13.769 2.3458 12.7076 2.97441L12.0804 3.34588C11.394 3.75237 11.2339 3.83012 11.0785 3.84959C10.9285 3.86837 10.7686 3.83515 10.0272 3.60702L9.34735 3.3978C8.20554 3.0464 7.26483 2.75689 6.52104 2.64685C5.74973 2.53274 4.98782 2.57927 4.38078 3.13487C3.77784 3.68672 3.65464 4.4423 3.68494 5.22709C3.71433 5.98815 3.89821 6.96778 4.12234 8.16182L4.25502 8.86874C4.3996 9.63911 4.41777 9.81347 4.38149 9.97264C4.34436 10.1356 4.24727 10.294 3.77952 10.9431L3.3514 11.5371C2.62441 12.5457 2.03065 13.3695 1.67313 14.0516C1.30926 14.7457 1.08259 15.4902 1.40213 16.2436C1.72676 17.009 2.42603 17.3422 3.17507 17.5274C3.90291 17.7074 4.88842 17.7975 6.08514 17.907L6.79813 17.9723C7.57839 18.0437 7.73636 18.0742 7.85944 18.1446C7.98151 18.2144 8.08585 18.3329 8.53855 18.9671L8.95248 19.5469C9.64616 20.5187 10.2182 21.32 10.74 21.8553C11.2791 22.4083 11.9187 22.8384 12.743 22.7351C13.5531 22.6337 14.0878 22.0723 14.5134 21.4115C14.9307 20.7636 15.3538 19.842 15.8718 18.7137L16.1769 18.0494C16.2869 17.8098 16.3703 17.6316 16.4373 17.4962C16.4477 17.5079 16.4585 17.5194 16.4697 17.5306L20.4697 21.5306C20.7626 21.8235 21.2374 21.8235 21.5303 21.5306C21.8232 21.2377 21.8232 20.7628 21.5303 20.4699L17.6859 16.6255C17.7093 16.6173 17.7333 16.6088 17.758 16.6002L18.441 16.361C19.5975 15.956 20.5446 15.6243 21.2233 15.2696C21.9207 14.9051 22.5191 14.4235 22.7004 13.628C22.8839 12.8228 22.5399 12.1402 22.0536 11.5343C21.5851 10.9503 20.8613 10.2874 19.9839 9.48369L19.4604 9.00421C18.8892 8.48099 18.7829 8.36232 18.7259 8.22792C18.6669 8.08891 18.6544 7.91704 18.6665 7.12305L18.6775 6.39777C18.6962 5.17362 18.7114 4.1698 18.6122 3.41751C18.511 2.65005 18.2629 1.90987 17.544 1.49857ZM13.4178 4.29716C14.5467 3.62858 15.3217 3.17189 15.9146 2.92782C16.5071 2.68397 16.7019 2.74496 16.7991 2.80054C16.8936 2.8546 17.0424 2.98631 17.1251 3.61361C17.2081 4.24305 17.1965 5.13504 17.1767 6.43877L17.1647 7.21994C17.1547 7.82701 17.1461 8.34464 17.345 8.81361C17.5457 9.2869 17.9243 9.63271 18.3612 10.0316L18.4472 10.1103L18.9225 10.5456C19.8602 11.4046 20.4962 11.9901 20.8837 12.473C21.2622 12.9446 21.2697 13.1551 21.2379 13.2947C21.2039 13.444 21.0914 13.646 20.5285 13.9402C19.9583 14.2382 19.1162 14.5352 17.8865 14.9659L17.1539 15.2223C16.5752 15.4242 16.0914 15.593 15.7122 15.94C15.3345 16.2857 15.1202 16.7539 14.8621 17.3179L14.5343 18.0319C13.9843 19.2298 13.6047 20.0522 13.2524 20.5992C12.9015 21.1439 12.6931 21.2297 12.5566 21.2468C12.4345 21.2621 12.2378 21.2428 11.8141 20.8082C11.3826 20.3655 10.8767 19.6606 10.1351 18.6219L9.75937 18.0955L9.69049 17.9988C9.34758 17.5169 9.04872 17.0968 8.60434 16.8426C8.16092 16.5889 7.64642 16.5426 7.05381 16.4893L6.93485 16.4785L6.28697 16.4192C5.00882 16.3022 4.1387 16.2205 3.53516 16.0712C2.93966 15.924 2.82806 15.764 2.78306 15.6579C2.73296 15.5398 2.7003 15.3229 3.00168 14.748C3.30352 14.1721 3.83249 13.435 4.60438 12.364L5.06497 11.7251C5.42825 11.2224 5.73046 10.8041 5.844 10.3059C5.95834 9.80418 5.86331 9.30141 5.75053 8.70473L5.60821 7.94698C5.36962 6.67572 5.20841 5.80603 5.18383 5.16922C5.15965 4.54303 5.27846 4.34669 5.39353 4.24137C5.50449 4.13981 5.69883 4.04154 6.30151 4.1307C6.91831 4.22195 7.7488 4.4753 8.96802 4.85048L9.6966 5.0748C10.2652 5.25066 10.7542 5.40192 11.2649 5.33796C11.7704 5.27465 12.2154 5.01032 12.7422 4.69734L13.4178 4.29716Z" fill="#1C274C"/>
</g>
</svg>
