<svg xmlns="http://www.w3.org/2000/svg" width="320" height="304" viewBox="0 0 320 304" version="1.1"><path d="M 155 14.123 C 153.625 14.670, 148.062 19.644, 142.638 25.174 C 133.399 34.594, 132.403 35.317, 126.882 36.605 C 118.527 38.554, 106.382 43.398, 99.575 47.497 L 93.758 51 77.426 51 C 52.985 51, 53 50.985, 53 74.516 C 53 83.529, 53.445 90.963, 54.052 92.097 C 54.941 93.759, 54.320 94.942, 50.029 99.757 C 47.238 102.889, 42.730 109.737, 40.013 114.976 C 36.205 122.316, 33.085 126.564, 26.406 133.500 C 9.252 151.315, 9.226 151.909, 24.922 168.229 C 30.884 174.428, 36.980 180.963, 38.470 182.750 C 44.220 189.651, 46.469 186.937, 45.086 174.766 C 39.686 127.240, 76.298 83, 121.029 83 L 126.838 83 135.669 74.214 C 149.697 60.259, 162.559 55.044, 183.020 55.015 C 212.990 54.973, 237.903 73.750, 229.482 90.034 L 227.964 92.969 221.232 87.530 C 194.133 65.634, 158.967 70.401, 143.207 98.106 L 140.018 103.712 129.759 104.304 C 101.526 105.934, 79.717 123.731, 72.432 151.085 C 70.430 158.602, 70.156 173.512, 71.905 179.795 L 73.101 184.089 68.167 190.295 C 56.515 204.946, 53.046 215.373, 53.017 235.827 C 53 248.128, 53.006 248.160, 55.923 251.077 L 58.846 254 76.309 254 L 93.772 254 99.869 258.072 C 106.361 262.406, 119.560 268.128, 127.616 270.099 C 131.813 271.125, 134.049 272.798, 143.505 281.983 C 158.992 297.026, 160.224 297.009, 176.701 281.517 L 187.319 271.534 196.396 269.188 C 206.221 266.649, 217.543 261.800, 224.307 257.235 L 228.560 254.365 246.284 254.203 C 265.905 254.024, 267.943 253.470, 269.925 247.785 C 271.358 243.673, 271.330 214.817, 269.889 211.656 C 268.895 209.473, 269.331 208.497, 274.040 202.359 C 276.934 198.586, 281.272 191.450, 283.680 186.500 C 287.175 179.317, 289.737 175.784, 296.372 169 C 313.871 151.108, 314.041 152.532, 291.500 128.117 C 274.059 109.226, 273.134 109.100, 275.987 126 C 284.141 174.306, 246.620 223, 201.244 223 L 195.663 223 188.082 230.852 C 176.886 242.446, 166.332 247.764, 150.109 249.985 C 116.312 254.613, 82.207 232.510, 95.369 214.509 C 96.714 212.670, 97.066 212.845, 102.956 218.299 C 126.628 240.215, 165.348 234.786, 179.607 207.552 L 182.374 202.268 192.437 201.686 C 227.790 199.641, 251.935 171.588, 250.839 133.832 C 250.530 123.211, 250.684 121.954, 252.554 119.832 C 264.275 106.528, 271.002 88.097, 270.998 69.292 C 270.995 52.417, 269.079 51.042, 245.500 50.997 L 228.500 50.964 224.151 48.016 C 218.571 44.235, 206.289 39.506, 195.219 36.877 L 186.523 34.812 177.230 25.656 C 164.797 13.405, 161.324 11.604, 155 14.123 M 176.267 105.150 C 171.583 105.969, 165 108.799, 165 109.995 C 165 110.417, 166.579 111.967, 168.509 113.439 C 183.056 124.535, 175.531 143.997, 158.474 139.396 C 146.632 136.201, 144.422 135.864, 139.388 136.482 C 106.843 140.477, 98.133 183.273, 126.881 197.939 C 134.809 201.984, 148.074 201.348, 154.500 196.615 C 156.443 195.184, 156.383 195.042, 152.380 191.604 C 142.878 183.445, 142.554 170.812, 151.736 166.455 C 155.165 164.828, 155.740 164.851, 165.249 167.007 C 186.294 171.779, 201.850 165.581, 209.188 149.500 C 219.185 127.594, 199.511 101.090, 176.267 105.150" stroke="none" fill="#081525" fill-rule="evenodd"/></svg>