<svg width="24" height="24" viewBox="0 0 24 24" fill="none" xmlns="http://www.w3.org/2000/svg">
<g id="Bold Duotone / Food, Kitchen / Corkscrew">
<path id="Vector" d="M22 12C22 13.1874 21.0374 14.15 19.85 14.15C18.6626 14.15 17.7 13.1874 17.7 12C17.7 10.8126 18.6626 9.85 19.85 9.85C21.0374 9.85 22 10.8126 22 12Z" fill="#1C274C"/>
<path id="Subtract" opacity="0.5" d="M21.3582 10.3849L13.6148 2.64148C12.7595 1.78617 11.3728 1.78617 10.5175 2.64148C9.66215 3.4968 9.66215 4.88353 10.5175 5.73885L18.2609 13.4823C18.4323 13.6537 18.6251 13.7908 18.8307 13.8935C18.1575 13.5303 17.7 12.8186 17.7 12C17.7 10.8126 18.6626 9.85 19.85 9.85C21.0232 9.85 21.9769 10.7896 21.9996 11.9573C22.0057 11.3889 21.7919 10.8186 21.3582 10.3849Z" fill="#1C274C"/>
<path id="Subtract_2" d="M12.5349 10.4045L13.8591 9.08032L14.773 9.99424L14.9197 10.141L13.5955 11.4652C13.4826 11.5781 13.4619 11.7539 13.5457 11.89L14.1916 12.9397C14.929 14.138 13.499 15.4888 12.3446 14.6842L9.72175 12.8562L7.72702 11.4659L8.98638 13.2728L12.6712 18.5598C13.4816 19.7224 12.1075 21.1567 10.9111 20.397L4.79546 16.5133L5.4448 17.8842C5.77832 18.5883 5.63444 19.4263 5.0826 19.9781L2.53033 22.5304C2.23744 22.8233 1.76256 22.8233 1.46967 22.5304C1.17678 22.2375 1.17678 21.7626 1.46967 21.4697L4.02194 18.9174C4.12458 18.8148 4.15191 18.6587 4.08919 18.5263L3.13994 16.5223C2.58305 15.3467 3.91 14.1742 5.00816 14.8715L5.55239 15.2171L5.55349 15.2178L10.8641 18.5903L7.67509 14.0147L5.84814 11.3935C5.01991 10.2051 6.46624 8.7588 7.65457 9.58703L11.1683 12.036L12.4044 12.8975L12.2682 12.6762C12.0575 12.3338 11.9704 11.944 12.0001 11.5648C12.0337 11.1382 12.2151 10.7243 12.5349 10.4045Z" fill="#1C274C"/>
</g>
</svg>
