<svg width="24" height="24" viewBox="0 0 24 24" fill="none" xmlns="http://www.w3.org/2000/svg">
<g id="Bold / Essentional, UI / Pin Circle">
<path id="Vector" fill-rule="evenodd" clip-rule="evenodd" d="M12 22C17.5228 22 22 17.5228 22 12C22 6.47715 17.5228 2 12 2C6.47715 2 2 6.47715 2 12C2 17.5228 6.47715 22 12 22ZM16.5578 9.42975C17.0106 9.88257 17.3901 10.262 17.6374 10.5953C17.8955 10.9431 18.0858 11.3401 17.9897 11.8062C17.8936 12.2723 17.5618 12.5617 17.1872 12.779C16.8282 12.9873 16.3296 13.1857 15.7346 13.4225L14.3025 13.9925C14.0242 14.1032 13.9442 14.1372 13.8782 14.1785C13.7248 14.2746 13.6012 14.4115 13.5213 14.5739C13.4869 14.6438 13.4613 14.7269 13.3795 15.015L13.3752 15.0302C13.3 15.2954 13.2373 15.5163 13.1764 15.6897C13.1152 15.8642 13.0397 16.0405 12.9178 16.1889C12.5097 16.6856 11.8281 16.8628 11.2297 16.6279C11.0509 16.5577 10.8991 16.4405 10.7606 16.318C10.623 16.1962 10.4606 16.0338 10.2657 15.8388L9.56697 15.1401L7.86834 16.8388C7.67308 17.034 7.3565 17.034 7.16124 16.8388C6.96597 16.6435 6.96597 16.3269 7.16123 16.1317L8.85986 14.433L8.16125 13.7344C7.96631 13.5394 7.80394 13.3771 7.68216 13.2395C7.5596 13.101 7.4424 12.9491 7.37223 12.7704C7.13731 12.172 7.31456 11.4904 7.81124 11.0823C7.95959 10.9604 8.13593 10.8849 8.31042 10.8236C8.48381 10.7628 8.70472 10.7001 8.96994 10.6248L8.98514 10.6205C9.27322 10.5388 9.35633 10.5132 9.42617 10.4788C9.58854 10.3988 9.72546 10.2752 9.82158 10.1218C9.86292 10.0559 9.89685 9.97581 10.0076 9.69758L10.5776 8.26541C10.8144 7.67039 11.0128 7.17181 11.221 6.81286C11.4384 6.43823 11.7277 6.1064 12.1939 6.0103C12.66 5.9142 13.057 6.10454 13.4048 6.36265C13.7381 6.60996 14.1175 6.98941 14.5703 7.44227L16.5578 9.42975Z" fill="#1C274C"/>
</g>
</svg>
