<svg width="24" height="24" viewBox="0 0 24 24" fill="none" xmlns="http://www.w3.org/2000/svg">
<g id="Bold / Essentional, UI / Trash Bin 2">
<g id="Vector">
<path d="M11.3456 22H12.1544C14.9371 22 16.3285 22 17.2331 21.0936C18.1378 20.1873 18.2303 18.7005 18.4154 15.727L18.6821 11.4425C18.7826 9.82908 18.8328 9.02238 18.3789 8.51119C17.9251 8 17.1587 8 15.626 8H7.87405C6.34127 8 5.57488 8 5.12105 8.51119C4.66722 9.02238 4.71744 9.82908 4.81788 11.4425L5.08459 15.727C5.2697 18.7005 5.36225 20.1873 6.26689 21.0936C7.17153 22 8.56289 22 11.3456 22Z" fill="#1C274C"/>
<path d="M2.75 6.16667C2.75 5.70644 3.09538 5.33335 3.52143 5.33335L6.18567 5.3329C6.71502 5.31841 7.18202 4.95482 7.36214 4.41691C7.36688 4.40277 7.37232 4.38532 7.39185 4.32203L7.50665 3.94993C7.5769 3.72179 7.6381 3.52303 7.72375 3.34536C8.06209 2.64349 8.68808 2.1561 9.41147 2.03132C9.59457 1.99973 9.78848 1.99987 10.0111 2.00002H13.4891C13.7117 1.99987 13.9056 1.99973 14.0887 2.03132C14.8121 2.1561 15.4381 2.64349 15.7764 3.34536C15.8621 3.52303 15.9233 3.72179 15.9935 3.94993L16.1083 4.32203C16.1279 4.38532 16.1333 4.40277 16.138 4.41691C16.3182 4.95482 16.8778 5.31886 17.4071 5.33335H19.9786C20.4046 5.33335 20.75 5.70644 20.75 6.16667C20.75 6.62691 20.4046 7 19.9786 7H3.52143C3.09538 7 2.75 6.62691 2.75 6.16667Z" fill="#1C274C"/>
</g>
</g>
</svg>
