<svg width="24" height="24" viewBox="0 0 24 24" fill="none" xmlns="http://www.w3.org/2000/svg">
<g id="Broken / Notifications / Bell Off">
<path id="Vector" d="M10 9H14L10 13H14" stroke="#1C274C" stroke-width="1.5" stroke-linecap="round" stroke-linejoin="round"/>
<path id="Vector_2" d="M7.5 19C8.15503 20.7478 9.92246 22 12 22C12.2445 22 12.4847 21.9827 12.7192 21.9492M16.5 19C16.2329 19.7126 15.781 20.3428 15.1985 20.8393" stroke="#1C274C" stroke-width="1.5" stroke-linecap="round"/>
<path id="Vector_3" d="M9 2.67366C9.90927 2.2417 10.9264 2 12.0001 2C15.8661 2 19.0001 5.13401 19.0001 9V9.7041C19.0001 10.5491 19.2502 11.3752 19.7189 12.0783L20.8675 13.8012C21.9166 15.3749 21.1157 17.5139 19.291 18.0116C14.5175 19.3134 9.48258 19.3134 4.70913 18.0116C2.88442 17.5139 2.08349 15.3749 3.13263 13.8012L4.28123 12.0783C4.74995 11.3752 5.00006 10.5491 5.00006 9.7041V9C5.00006 7.92638 5.24177 6.90921 5.67373 5.99994" stroke="#1C274C" stroke-width="1.5" stroke-linecap="round"/>
</g>
</svg>
