<svg width="24" height="24" viewBox="0 0 24 24" fill="none" xmlns="http://www.w3.org/2000/svg">
<g id="Bold Duotone / Shopping, Ecommerce / Bag 2">
<path id="Vector" opacity="0.5" d="M4.0828 10.8943C4.52171 8.55339 4.74117 7.38295 5.57434 6.69147C6.40752 6 7.59835 6 9.98003 6H14.0209C16.4026 6 17.5934 6 18.4266 6.69147C19.2598 7.38295 19.4792 8.55339 19.9181 10.8943L20.6681 14.8943C21.2853 18.186 21.5939 19.8318 20.6942 20.9159C19.7945 22 18.12 22 14.7709 22H9.23003C5.88097 22 4.20644 22 3.30672 20.9159C2.40701 19.8318 2.7156 18.186 3.3328 14.8943L4.0828 10.8943Z" fill="#1C274C"/>
<path id="Vector_2" d="M9.75 5C9.75 3.75736 10.7574 2.75 12 2.75C13.2426 2.75 14.25 3.75736 14.25 5V6C14.25 6.00001 14.25 5.99999 14.25 6C14.816 6.00018 15.3119 6.00174 15.7499 6.01488C15.75 6.00993 15.75 6.00497 15.75 6V5C15.75 2.92893 14.0711 1.25 12 1.25C9.92893 1.25 8.25 2.92893 8.25 5V6C8.25 6.00498 8.25005 6.00995 8.25015 6.01491C8.68814 6.00175 9.18397 6.00021 9.75 6.00002C9.75 6.00002 9.75 6.00003 9.75 6.00002V5Z" fill="#1C274C"/>
<g id="Vector_3">
<path d="M8.26032 10.8768C8.32842 10.4682 8.71484 10.1922 9.12342 10.2603C9.53199 10.3284 9.80801 10.7148 9.73991 11.1234L8.73991 17.1234C8.67182 17.532 8.2854 17.808 7.87682 17.7399C7.46824 17.6718 7.19223 17.2854 7.26032 16.8768L8.26032 10.8768Z" fill="#1C274C"/>
<path d="M14.8771 10.2603C15.2856 10.1922 15.672 10.4682 15.7401 10.8768L16.7401 16.8768C16.8082 17.2854 16.5322 17.6718 16.1236 17.7399C15.7151 17.808 15.3287 17.532 15.2606 17.1234L14.2606 11.1234C14.1925 10.7148 14.4685 10.3284 14.8771 10.2603Z" fill="#1C274C"/>
</g>
</g>
</svg>
