<svg width="24" height="24" viewBox="0 0 24 24" fill="none" xmlns="http://www.w3.org/2000/svg">
<g id="Bold Duotone / Shopping, Ecommerce / Cart 4">
<path id="Subtract" opacity="0.5" d="M3.04492 11.75C3.17074 12.4643 3.34793 13.2912 3.55493 14.2572L3.9835 16.2572C4.47047 18.5297 4.71396 19.666 5.53903 20.333C6.3641 21 7.52617 21 9.85031 21H14.1493C16.4735 21 17.6355 21 18.4606 20.333C19.2857 19.666 19.5292 18.5297 20.0161 16.2572L20.4447 14.2572C20.6517 13.2912 20.8289 12.4643 20.9547 11.75H3.04492Z" fill="#1C274C"/>
<path id="Vector" fill-rule="evenodd" clip-rule="evenodd" d="M9.25 14C9.25 13.5858 9.58579 13.25 10 13.25H14C14.4142 13.25 14.75 13.5858 14.75 14C14.75 14.4142 14.4142 14.75 14 14.75H10C9.58579 14.75 9.25 14.4142 9.25 14Z" fill="#1C274C"/>
<path id="Union" d="M8.32934 2.6646C8.51459 2.29412 8.96509 2.14395 9.33557 2.32919C9.70606 2.51443 9.85623 2.96494 9.67098 3.33542L7.83606 7.00527C8.31924 7 8.84645 7 9.42196 7H14.5781C15.1537 7 15.681 7 16.1643 7.00527L14.3293 3.33542C14.1441 2.96494 14.2943 2.51443 14.6648 2.32919C15.0352 2.14395 15.4857 2.29412 15.671 2.6646L17.8721 7.06693C19.2252 7.17088 20.0742 7.43629 20.6221 8.11397C21.0575 8.65254 21.1984 9.32259 21.1466 10.25H21.0002C21.0501 10.25 21.0989 10.2549 21.146 10.2642C21.1209 10.6988 21.0538 11.1898 20.9552 11.75H3.04537C2.94669 11.1898 2.8796 10.6988 2.85449 10.2641C2.90163 10.2549 2.95036 10.25 3.00023 10.25H2.85346C2.80168 9.32259 2.94261 8.65254 3.378 8.11397C3.92588 7.43625 4.77501 7.17084 6.12819 7.0669L8.32934 2.6646Z" fill="#1C274C"/>
</g>
</svg>
