<svg width="24" height="24" viewBox="0 0 24 24" fill="none" xmlns="http://www.w3.org/2000/svg">
<g id="Linear / Electronic, Devices / USB">
<path id="Vector" d="M14.4603 18.745L14.9906 19.2753L14.9906 19.2753L14.4603 18.745ZM15.2274 17.9779L14.6971 17.4475L14.6971 17.4475L15.2274 17.9779ZM18.4821 13.3751L19.2321 13.3751L18.4821 13.3751ZM6.02181 8.77225L6.55214 9.30258L6.55214 9.30258L6.02181 8.77225ZM10.6246 5.51758L10.6246 6.26758L10.6246 5.51758ZM5.25467 9.53939L4.72434 9.00906L4.72434 9.00906L5.25467 9.53939ZM2 14.1422L1.25 14.1422L2 14.1422ZM5.785 13.6119C5.49211 13.319 5.01724 13.319 4.72434 13.6119C4.43145 13.9048 4.43145 14.3796 4.72434 14.6725L5.785 13.6119ZM9.32715 19.2753C9.62004 19.5682 10.0949 19.5682 10.3878 19.2753C10.6807 18.9824 10.6807 18.5076 10.3878 18.2147L9.32715 19.2753ZM5.785 10.0697L6.55214 9.30258L5.49148 8.24192L4.72434 9.00906L5.785 10.0697ZM14.6971 17.4475L13.9299 18.2147L14.9906 19.2753L15.7577 18.5082L14.6971 17.4475ZM13.9299 18.2147C12.8301 19.3145 12.0574 20.085 11.3958 20.5897C10.7516 21.0813 10.3016 21.2497 9.85748 21.2497L9.85748 22.7497C10.7615 22.7497 11.528 22.3756 12.3057 21.7823C13.0661 21.2021 13.9207 20.3452 14.9906 19.2753L13.9299 18.2147ZM4.72434 19.2753C5.79424 20.3452 6.64889 21.2021 7.40926 21.7823C8.18693 22.3756 8.95349 22.7497 9.85748 22.7497L9.85748 21.2497C9.41333 21.2497 8.96338 21.0813 8.31913 20.5897C7.65757 20.085 6.88489 19.3145 5.785 18.2147L4.72434 19.2753ZM14.6971 9.30258C15.797 10.4025 16.5674 11.1752 17.0722 11.8367C17.5637 12.481 17.7321 12.9309 17.7321 13.3751L19.2321 13.3751C19.2321 12.4711 18.858 11.7045 18.2647 10.9268C17.6845 10.1665 16.8276 9.31182 15.7577 8.24192L14.6971 9.30258ZM15.7577 18.5082C16.8276 17.4383 17.6845 16.5836 18.2647 15.8233C18.858 15.0456 19.2321 14.279 19.2321 13.3751L17.7321 13.3751C17.7321 13.8192 17.5637 14.2692 17.0722 14.9134C16.5674 15.575 15.797 16.3476 14.6971 17.4475L15.7577 18.5082ZM6.55214 9.30258C7.65202 8.2027 8.42471 7.43226 9.08626 6.92751C9.73051 6.43597 10.1805 6.26758 10.6246 6.26758L10.6246 4.76758C9.72063 4.76758 8.95407 5.14163 8.17639 5.73498C7.41602 6.31512 6.56138 7.17202 5.49148 8.24192L6.55214 9.30258ZM15.7577 8.24192C14.6878 7.17202 13.8332 6.31512 13.0728 5.73498C12.2952 5.14163 11.5286 4.76758 10.6246 4.76758L10.6246 6.26758C11.0688 6.26758 11.5187 6.43597 12.163 6.92751C12.8245 7.43226 13.5972 8.2027 14.6971 9.30258L15.7577 8.24192ZM4.72434 9.00906C3.65444 10.079 2.79754 10.9336 2.2174 11.694C1.62406 12.4716 1.25 13.2382 1.25 14.1422L2.75 14.1422C2.75 13.698 2.91839 13.2481 3.40993 12.6038C3.91468 11.9423 4.68512 11.1696 5.785 10.0697L4.72434 9.00906ZM5.785 18.2147C4.68512 17.1148 3.91468 16.3421 3.40993 15.6805C2.91839 15.0363 2.75 14.5863 2.75 14.1422L1.25 14.1422C1.25 15.0462 1.62406 15.8127 2.2174 16.5904C2.79754 17.3508 3.65444 18.2054 4.72434 19.2753L5.785 18.2147ZM4.72434 14.6725L9.32715 19.2753L10.3878 18.2147L5.785 13.6119L4.72434 14.6725Z" fill="#1C274C"/>
<path id="Vector_2" d="M19.8302 10.441L20.3648 10.967L19.8302 10.441ZM17.7614 11.4739C17.4708 11.7692 17.4746 12.244 17.7699 12.5346C18.0651 12.8251 18.54 12.8213 18.8305 12.5261L17.7614 11.4739ZM19.8302 4.20481L19.2957 4.73088L19.8302 4.20481ZM22 7.32289H22.75H22ZM13.6931 4.20481L14.2277 4.73088H14.2277L13.6931 4.20481ZM16.7617 2V2.75V2ZM11.4654 5.39919C11.1749 5.69442 11.1787 6.16928 11.4739 6.45982C11.7692 6.75036 12.244 6.74656 12.5346 6.45133L11.4654 5.39919ZM19.2957 9.91489L17.7614 11.4739L18.8305 12.5261L20.3648 10.967L19.2957 9.91489ZM19.2957 4.73088C20.0337 5.48084 20.5334 5.99085 20.8578 6.42291C21.1689 6.83718 21.25 7.09251 21.25 7.32289H22.75C22.75 6.64 22.4695 6.07123 22.0573 5.52225C21.6585 4.99105 21.0732 4.39865 20.3648 3.67874L19.2957 4.73088ZM20.3648 10.967C21.0732 10.2471 21.6585 9.65472 22.0573 9.12352C22.4695 8.57454 22.75 8.00577 22.75 7.32289H21.25C21.25 7.55327 21.1689 7.8086 20.8578 8.22287C20.5334 8.65492 20.0337 9.16493 19.2957 9.91489L20.3648 10.967ZM14.2277 4.73088C14.9659 3.98075 15.4676 3.47324 15.8923 3.14393C16.3003 2.82765 16.5459 2.75 16.7617 2.75V1.25C16.0786 1.25 15.5133 1.53982 14.9733 1.95848C14.4501 2.36411 13.8669 2.959 13.1586 3.67874L14.2277 4.73088ZM20.3648 3.67874C19.6565 2.959 19.0733 2.36411 18.5501 1.95847C18.0101 1.53982 17.4447 1.25 16.7617 1.25V2.75C16.9774 2.75 17.223 2.82765 17.631 3.14393C18.0557 3.47324 18.5574 3.98075 19.2957 4.73088L20.3648 3.67874ZM13.1586 3.67874L11.4654 5.39919L12.5346 6.45133L14.2277 4.73088L13.1586 3.67874Z" fill="#1C274C"/>
<path id="Vector_3" d="M14.4603 18.745L14.9906 19.2753H14.9906L14.4603 18.745ZM15.2274 17.9779L14.6971 17.4475H14.6971L15.2274 17.9779ZM18.4821 13.3751H19.2321H18.4821ZM6.02181 8.77225L6.55214 9.30258V9.30258L6.02181 8.77225ZM5.25467 9.53939L4.72434 9.00906V9.00906L5.25467 9.53939ZM5.785 13.6119C5.49211 13.319 5.01724 13.319 4.72434 13.6119C4.43145 13.9048 4.43145 14.3796 4.72434 14.6725L5.785 13.6119ZM9.32715 19.2753C9.62004 19.5682 10.0949 19.5682 10.3878 19.2753C10.6807 18.9824 10.6807 18.5076 10.3878 18.2147L9.32715 19.2753ZM5.785 10.0697L6.55214 9.30258L5.49148 8.24192L4.72434 9.00906L5.785 10.0697ZM14.6971 17.4475L13.9299 18.2147L14.9906 19.2753L15.7577 18.5082L14.6971 17.4475ZM13.9299 18.2147C12.8301 19.3145 12.0574 20.085 11.3958 20.5897C10.7516 21.0813 10.3016 21.2497 9.85748 21.2497V22.7497C10.7615 22.7497 11.528 22.3756 12.3057 21.7823C13.0661 21.2021 13.9207 20.3452 14.9906 19.2753L13.9299 18.2147ZM4.72434 19.2753C5.79424 20.3452 6.64889 21.2021 7.40926 21.7823C8.18693 22.3756 8.95349 22.7497 9.85748 22.7497V21.2497C9.41333 21.2497 8.96338 21.0813 8.31913 20.5897C7.65758 20.085 6.88489 19.3145 5.785 18.2147L4.72434 19.2753ZM14.6971 9.30258C15.797 10.4025 16.5674 11.1752 17.0722 11.8367C17.5637 12.481 17.7321 12.9309 17.7321 13.3751H19.2321C19.2321 12.4711 18.858 11.7045 18.2647 10.9268C17.6845 10.1665 16.8276 9.31182 15.7577 8.24192L14.6971 9.30258ZM15.7577 18.5082C16.8276 17.4383 17.6845 16.5836 18.2647 15.8233C18.858 15.0456 19.2321 14.279 19.2321 13.3751H17.7321C17.7321 13.8192 17.5637 14.2692 17.0722 14.9134C16.5674 15.575 15.797 16.3476 14.6971 17.4475L15.7577 18.5082ZM6.55214 9.30258C7.65202 8.2027 8.42471 7.43226 9.08626 6.92751C9.73051 6.43597 10.1805 6.26758 10.6246 6.26758V4.76758C9.72063 4.76758 8.95407 5.14163 8.17639 5.73498C7.41602 6.31512 6.56138 7.17202 5.49148 8.24192L6.55214 9.30258ZM15.7577 8.24192C14.6878 7.17202 13.8332 6.31512 13.0728 5.73498C12.2952 5.14163 11.5286 4.76758 10.6246 4.76758V6.26758C11.0688 6.26758 11.5187 6.43597 12.163 6.92751C12.8245 7.43226 13.5972 8.2027 14.6971 9.30258L15.7577 8.24192ZM4.72434 9.00906C3.65444 10.079 2.79754 10.9336 2.2174 11.694C1.62406 12.4716 1.25 13.2382 1.25 14.1422H2.75C2.75 13.698 2.91839 13.2481 3.40993 12.6038C3.91468 11.9423 4.68512 11.1696 5.785 10.0697L4.72434 9.00906ZM5.785 18.2147C4.68512 17.1148 3.91468 16.3421 3.40993 15.6805C2.91839 15.0363 2.75 14.5863 2.75 14.1422H1.25C1.25 15.0462 1.62406 15.8127 2.2174 16.5904C2.79754 17.3508 3.65444 18.2054 4.72434 19.2753L5.785 18.2147ZM4.72434 14.6725L9.32715 19.2753L10.3878 18.2147L5.785 13.6119L4.72434 14.6725Z" fill="#1C274C"/>
<path id="Vector_4" d="M18.7173 7.40332L18.0102 8.11043" stroke="#1C274C" stroke-width="1.5" stroke-linecap="round"/>
<path id="Vector_5" d="M16.5962 5.28223L15.8891 5.98933" stroke="#1C274C" stroke-width="1.5" stroke-linecap="round"/>
</g>
</svg>
