<svg width="24" height="24" viewBox="0 0 24 24" fill="none" xmlns="http://www.w3.org/2000/svg">
<g id="Broken / Settings, Fine Tuning / Tuning 2">
<path id="Vector" d="M9.5 14C11.1569 14 12.5 15.3431 12.5 17C12.5 18.6568 11.1569 20 9.5 20C7.84315 20 6.5 18.6568 6.5 17C6.5 15.3431 7.84315 14 9.5 14Z" stroke="#1C274C" stroke-width="1.5"/>
<path id="Vector_2" d="M14.5 3.99998C12.8431 3.99998 11.5 5.34312 11.5 6.99998C11.5 8.65683 12.8431 9.99998 14.5 9.99998C16.1569 9.99998 17.5 8.65683 17.5 6.99998C17.5 5.34312 16.1569 3.99998 14.5 3.99998Z" stroke="#1C274C" stroke-width="1.5"/>
<path id="Vector_3" d="M11.0001 7.00001L6.0001 7M3.00002 7.00001L2 7.00001" stroke="#1C274C" stroke-width="1.5" stroke-linecap="round"/>
<path id="Vector_4" d="M13 17L18 17M21.0001 17L22.0001 17" stroke="#1C274C" stroke-width="1.5" stroke-linecap="round"/>
<path id="Vector_5" d="M2 17L6 17" stroke="#1C274C" stroke-width="1.5" stroke-linecap="round"/>
<path id="Vector_6" d="M22 7L18 7" stroke="#1C274C" stroke-width="1.5" stroke-linecap="round"/>
</g>
</svg>
