<svg width="24" height="24" viewBox="0 0 24 24" fill="none" xmlns="http://www.w3.org/2000/svg">
<g id="Linear / Messages, Coversation /  Chat Round Like">
<path id="Vector" d="M12 22C17.5228 22 22 17.5228 22 12C22 6.47715 17.5228 2 12 2C6.47715 2 2 6.47715 2 12C2 13.5997 2.37562 15.1116 3.04346 16.4525C3.22094 16.8088 3.28001 17.2161 3.17712 17.6006L2.58151 19.8267C2.32295 20.793 3.20701 21.677 4.17335 21.4185L6.39939 20.8229C6.78393 20.72 7.19121 20.7791 7.54753 20.9565C8.88837 21.6244 10.4003 22 12 22Z" stroke="#1C274C" stroke-width="1.5"/>
<path id="Vector_2" d="M10.0286 14.9426L9.54259 15.5139L10.0286 14.9426ZM12 9.50069L11.4641 10.0254C11.6052 10.1695 11.7983 10.2507 12 10.2507C12.2017 10.2507 12.3948 10.1695 12.5359 10.0254L12 9.50069ZM13.9714 14.9426L13.4855 14.3714L13.9714 14.9426ZM12 15.9939L12 15.2439H12L12 15.9939ZM10.5145 14.3714C9.93292 13.8766 9.34909 13.3035 8.91635 12.7109C8.47476 12.1061 8.25 11.562 8.25 11.1093H6.75C6.75 12.025 7.18465 12.8829 7.70492 13.5955C8.23403 14.3201 8.91448 14.9795 9.54259 15.5139L10.5145 14.3714ZM8.25 11.1093C8.25 10.0016 8.74454 9.41826 9.25333 9.22801C9.77052 9.03463 10.5951 9.13785 11.4641 10.0254L12.5359 8.97598C11.38 7.79544 9.95456 7.36438 8.72797 7.82302C7.49299 8.28481 6.75 9.53986 6.75 11.1093H8.25ZM14.4574 15.5139C15.0855 14.9795 15.766 14.3201 16.2951 13.5955C16.8154 12.8829 17.25 12.025 17.25 11.1093H15.75C15.75 11.562 15.5252 12.1062 15.0837 12.7109C14.6509 13.3036 14.0671 13.8766 13.4855 14.3714L14.4574 15.5139ZM17.25 11.1093C17.25 9.53985 16.507 8.2848 15.272 7.82302C14.0454 7.36438 12.62 7.79544 11.4641 8.97598L12.5359 10.0254C13.4049 9.13785 14.2295 9.03463 14.7467 9.22801C15.2555 9.41826 15.75 10.0016 15.75 11.1093H17.25ZM9.54259 15.5139C10.3221 16.177 10.9428 16.7439 12 16.7439L12 15.2439C11.586 15.2439 11.3828 15.11 10.5145 14.3714L9.54259 15.5139ZM13.4855 14.3714C12.6172 15.11 12.414 15.2439 12 15.2439L12 16.7439C13.0572 16.7439 13.6779 16.177 14.4574 15.5139L13.4855 14.3714Z" fill="#1C274C"/>
</g>
</svg>
