<svg width="24" height="24" viewBox="0 0 24 24" fill="none" xmlns="http://www.w3.org/2000/svg">
<g id="Outline / Faces, Emotions, Stickers / Emoji Funny Square">
<g id="Vector">
<path d="M15.4753 9.51567C15.6897 10.3159 15.4311 11.0804 14.8976 11.2234C14.3641 11.3663 13.7579 10.8335 13.5434 10.0333C13.329 9.23311 13.5877 8.46854 14.1211 8.3256C14.6546 8.18266 15.2609 8.71547 15.4753 9.51567Z" fill="#1C274C"/>
<path d="M9.67989 11.0689C9.8943 11.8691 9.63566 12.6337 9.10219 12.7766C8.56873 12.9195 7.96245 12.3867 7.74804 11.5865C7.53363 10.7863 7.79227 10.0218 8.32574 9.87882C8.8592 9.73588 9.46548 10.2687 9.67989 11.0689Z" fill="#1C274C"/>
<path fill-rule="evenodd" clip-rule="evenodd" d="M14.608 2.81525C13.4288 2.9672 11.9309 3.36692 9.83706 3.92795C7.74324 4.48899 6.24617 4.89178 5.14897 5.34979C4.07186 5.79941 3.48597 6.26096 3.12941 6.87854C2.77286 7.49612 2.66608 8.23429 2.81525 9.3919C2.9672 10.5711 3.36692 12.069 3.92795 14.1628C4.48899 16.2566 4.89178 17.7537 5.34979 18.8509C5.79941 19.928 6.26096 20.5139 6.87854 20.8705C7.49612 21.227 8.23429 21.3338 9.3919 21.1846C10.5711 21.0327 12.069 20.633 14.1628 20.0719C16.2566 19.5109 17.7537 19.1081 18.8509 18.6501C19.928 18.2005 20.5139 17.7389 20.8705 17.1214C21.227 16.5038 21.3338 15.7656 21.1846 14.608C21.0327 13.4288 20.633 11.9309 20.0719 9.83706C19.5109 7.74324 19.1081 6.24617 18.6501 5.14897C18.2005 4.07186 17.7389 3.48597 17.1214 3.12941C16.5038 2.77286 15.7656 2.66608 14.608 2.81525ZM14.4163 1.32755C15.7404 1.15693 16.8555 1.2439 17.8714 1.83037C18.8872 2.41685 19.5201 3.33915 20.0343 4.57114C20.5357 5.77217 20.963 7.36709 21.5061 9.39374L21.5356 9.50378C22.0786 11.5305 22.506 13.1254 22.6723 14.4163C22.843 15.7404 22.756 16.8555 22.1695 17.8713C21.583 18.8872 20.6607 19.5201 19.4288 20.0343C18.2277 20.5357 16.6328 20.963 14.6062 21.5061L14.4961 21.5356C12.4694 22.0786 10.8744 22.506 9.58361 22.6723C8.25954 22.843 7.14435 22.756 6.12854 22.1695C5.11274 21.583 4.47982 20.6607 3.96555 19.4288C3.46419 18.2277 3.03684 16.6328 2.49381 14.6061L2.46431 14.496C1.92126 12.4693 1.49389 10.8744 1.32755 9.58361C1.15693 8.25954 1.2439 7.14435 1.83037 6.12854C2.41685 5.11274 3.33915 4.47982 4.57114 3.96555C5.77218 3.46419 7.36711 3.03685 9.39378 2.49382L9.50388 2.46431C11.5305 1.92126 13.1255 1.49389 14.4163 1.32755ZM17.1788 13.3408C17.4669 13.6384 17.4592 14.1133 17.1616 14.4014C16.9916 14.5659 16.8128 14.7245 16.6256 14.8765L16.844 15.3214C17.397 16.448 16.9213 17.8093 15.787 18.3463C14.6751 18.8726 13.3467 18.4084 12.8047 17.3041L12.5315 16.7476C11.2117 16.998 9.90915 16.956 8.7302 16.6605C8.32842 16.5598 8.08434 16.1525 8.18505 15.7507C8.28575 15.3489 8.6931 15.1049 9.09488 15.2056C10.2252 15.4889 11.5232 15.4924 12.841 15.1393C14.1587 14.7862 15.2811 14.1341 16.1183 13.3236C16.4159 13.0355 16.8907 13.0432 17.1788 13.3408ZM14.0048 16.3449L14.1512 16.6432C14.3319 17.0112 14.7746 17.1659 15.1452 16.9905C15.5232 16.8116 15.6818 16.3579 15.4975 15.9824L15.3707 15.7241C14.9417 15.963 14.4851 16.1715 14.0048 16.3449Z" fill="#1C274C"/>
</g>
</g>
</svg>
