<svg width="24" height="24" viewBox="0 0 24 24" fill="none" xmlns="http://www.w3.org/2000/svg">
<g id="Outline / Astronomy / Star Fall">
<path id="Vector (Stroke)" fill-rule="evenodd" clip-rule="evenodd" d="M15.0135 3.18529L15.2917 3.53666C15.4319 3.71375 15.5109 3.8127 15.5754 3.88216C15.6101 3.91955 15.6284 3.9347 15.6351 3.93962C15.6427 3.94214 15.6632 3.94773 15.7067 3.95407C15.7958 3.96707 15.9162 3.97518 16.1365 3.98893L16.5746 4.01628C17.2573 4.05884 17.8552 4.09611 18.3101 4.19523C18.7919 4.3002 19.3161 4.51634 19.5944 5.07562C19.8693 5.62809 19.7352 6.17769 19.54 6.63187C19.3535 7.06583 19.0348 7.58362 18.6676 8.18017L18.6377 8.22872L18.4344 8.55894C18.3168 8.75005 18.2516 8.85708 18.2086 8.94111C18.1895 8.97852 18.1808 9.00021 18.1767 9.01183C18.1732 9.02174 18.1729 9.02488 18.1729 9.02504C18.1729 9.02526 18.1722 9.02895 18.1727 9.04069C18.1734 9.05422 18.1757 9.07887 18.1834 9.12177C18.2007 9.21739 18.2328 9.3422 18.2903 9.56233L18.39 9.94348L18.4043 9.99806C18.5846 10.688 18.7404 11.2836 18.7943 11.7559C18.85 12.2427 18.8261 12.8177 18.3952 13.2661C17.9551 13.724 17.3775 13.7539 16.8933 13.6962C16.4319 13.6412 15.8524 13.4805 15.1904 13.297L14.7654 13.1791C14.5518 13.1199 14.4345 13.088 14.3457 13.0711C14.3088 13.0641 14.2883 13.0621 14.2787 13.0616C14.2698 13.065 14.2509 13.0734 14.218 13.0916C14.1389 13.1354 14.0374 13.2024 13.8529 13.3254L13.4858 13.5702C12.9141 13.9515 12.4137 14.2853 11.9926 14.4817C11.5507 14.6877 10.9925 14.8401 10.4313 14.5424C10.0731 14.3523 9.86256 14.057 9.73201 13.7415C7.45903 14.7007 5.60129 16.3482 4.95858 18.2415C4.84776 18.5679 4.52868 18.7768 4.18518 18.7477C3.84167 18.7187 3.5622 18.4592 3.50779 18.1188C2.56721 12.235 4.32415 8.68634 6.8481 6.75226C7.02326 6.35644 7.35512 6.09188 7.68376 5.89833C8.08503 5.662 8.64138 5.43974 9.27672 5.18592C9.29487 5.17867 9.31308 5.1714 9.33136 5.1641L9.68436 5.02304C9.88933 4.94114 10.0012 4.89579 10.0818 4.85558C10.1214 4.83584 10.1392 4.82407 10.1456 4.81932C10.1504 4.81262 10.1631 4.7925 10.1846 4.74581C10.2242 4.65963 10.2684 4.5409 10.3464 4.32885L10.4812 3.96234C10.4879 3.94421 10.4945 3.92615 10.5011 3.90816C10.7445 3.24622 10.9557 2.67208 11.1804 2.25845C11.412 1.83223 11.7673 1.36855 12.3928 1.26829C13.0185 1.16801 13.5009 1.49761 13.8539 1.83026C14.1964 2.15303 14.576 2.63254 15.0135 3.18529ZM7.15982 8.45939C5.73667 9.83019 4.64016 12.0495 4.75808 15.5665C5.9256 14.0993 7.63232 12.9511 9.45653 12.2345C9.43719 11.987 9.42088 11.7211 9.40363 11.44L9.37601 10.9905C9.36206 10.7633 9.35365 10.6347 9.34026 10.5385C9.33425 10.4953 9.32876 10.4712 9.32515 10.4581C9.32202 10.4468 9.32022 10.4435 9.32014 10.4434C9.32 10.4431 9.31862 10.4401 9.31247 10.4321C9.30501 10.4224 9.28996 10.4045 9.26015 10.375C9.19318 10.3086 9.09787 10.2274 8.92654 10.0825L8.58696 9.79552C8.05217 9.34358 7.58791 8.95123 7.27542 8.59719C7.23628 8.55284 7.19754 8.50692 7.15982 8.45939ZM11.0328 12.8381C11.0498 12.7244 11.0407 12.605 11.0014 12.4886C10.9948 12.4691 10.9875 12.45 10.9795 12.4314C10.9498 12.135 10.9264 11.7639 10.8973 11.2917L10.8732 10.8985C10.8715 10.8706 10.8698 10.8426 10.8682 10.8144C10.848 10.4696 10.8265 10.1037 10.6631 9.77515C10.4984 9.44413 10.2185 9.20899 9.95811 8.99021C9.93686 8.97236 9.91575 8.95461 9.89483 8.93694L9.59881 8.68674C9.00772 8.18714 8.63061 7.86584 8.40003 7.60459C8.29018 7.48014 8.24635 7.40448 8.22978 7.36579C8.22779 7.36114 8.22632 7.35732 8.22525 7.35429C8.22575 7.35369 8.22627 7.35306 8.22683 7.35241C8.24912 7.32627 8.3075 7.27179 8.44498 7.19082C8.73505 7.01998 9.18158 6.83927 9.88795 6.55701L10.2409 6.41596C10.2662 6.40586 10.2918 6.39573 10.3176 6.38551C10.6256 6.26367 10.9686 6.12794 11.227 5.85905C11.4821 5.59364 11.6088 5.24576 11.725 4.92659C11.7348 4.89971 11.7445 4.87303 11.7542 4.84663L11.889 4.48011C12.1582 3.74818 12.3325 3.27988 12.4984 2.97457C12.5597 2.86185 12.6047 2.79998 12.633 2.76741C12.6701 2.7895 12.732 2.83415 12.8251 2.9219C13.0779 3.16006 13.3894 3.55042 13.8733 4.16167L14.1156 4.46774C14.1331 4.4898 14.1507 4.51212 14.1683 4.5346C14.3782 4.80146 14.6072 5.09251 14.9324 5.26503C15.2619 5.4398 15.6302 5.46155 15.9607 5.48106C15.9884 5.4827 16.0159 5.48432 16.0431 5.48602L16.4224 5.5097C17.1815 5.55708 17.662 5.58921 17.9908 5.66085C18.1466 5.6948 18.2189 5.72829 18.2482 5.74608C18.2488 5.74645 18.2494 5.74681 18.2499 5.74716C18.2498 5.75036 18.2496 5.7544 18.2492 5.75937C18.2455 5.80138 18.2274 5.88703 18.1618 6.03965C18.0242 6.35998 17.766 6.78316 17.3602 7.44251L17.157 7.77273C17.1426 7.79606 17.1281 7.81951 17.1135 7.84311C16.9343 8.13236 16.7418 8.44308 16.6885 8.80888C16.6357 9.172 16.7294 9.52629 16.8176 9.86022C16.8249 9.88752 16.832 9.91468 16.8391 9.9417L16.9388 10.3229C17.1375 11.083 17.2637 11.5734 17.304 11.9261C17.3225 12.0874 17.3168 12.1734 17.3096 12.2149C17.2713 12.2198 17.1984 12.2219 17.0707 12.2067C16.7374 12.167 16.2703 12.0397 15.534 11.8356L15.1661 11.7336C15.1394 11.7263 15.1124 11.7187 15.0852 11.711C14.7669 11.6216 14.4087 11.5209 14.0412 11.5798C13.6739 11.6387 13.365 11.8462 13.0905 12.0307C13.067 12.0465 13.0437 12.0621 13.0207 12.0774L12.703 12.2893C12.0671 12.7134 11.663 12.9803 11.3586 13.1222C11.2424 13.1764 11.1725 13.1972 11.1346 13.2046C11.1148 13.1673 11.0827 13.0873 11.0501 12.9291C11.0441 12.8999 11.0383 12.8696 11.0328 12.8381ZM11.0968 13.2073C11.0973 13.2066 11.1023 13.2062 11.1104 13.2081C11.1004 13.2088 11.0964 13.2079 11.0968 13.2073ZM11.1473 13.2257C11.1525 13.2298 11.1547 13.2329 11.1546 13.2334C11.1544 13.234 11.1518 13.2319 11.1473 13.2257ZM17.2996 12.2482C17.2993 12.2477 17.3004 12.2441 17.3041 12.2386C17.3017 12.2459 17.2999 12.2486 17.2996 12.2482ZM17.3333 12.2107C17.3404 12.2064 17.3453 12.2052 17.3459 12.2057C17.3466 12.2062 17.343 12.2083 17.3333 12.2107ZM12.6687 2.73457C12.6687 2.73514 12.6655 2.73781 12.6592 2.74085C12.6655 2.73552 12.6687 2.734 12.6687 2.73457ZM12.5999 2.75031C12.5929 2.74941 12.5891 2.74786 12.5889 2.74731C12.5887 2.74676 12.5922 2.74721 12.5999 2.75031Z" fill="#1C274C"/>
<path id="Vector" d="M10.2808 16C10.2808 16 10.9135 17.3908 11.6935 17.8692C12.4735 18.3475 14 18.2808 14 18.2808C14 18.2808 12.6092 18.9135 12.1308 19.6935C11.6525 20.4735 11.7192 22 11.7192 22C11.7192 22 11.0865 20.6092 10.3065 20.1308C9.52652 19.6525 8 19.7192 8 19.7192C8 19.7192 9.39082 19.0865 9.86916 18.3065C10.3475 17.5265 10.2808 16 10.2808 16Z" stroke="#1C274C" stroke-linejoin="round"/>
<path id="Vector_2" d="M18.4795 15C18.4795 15 18.0577 15.9272 17.5377 16.2461C17.0177 16.565 16 16.5205 16 16.5205C16 16.5205 16.9272 16.9423 17.2461 17.4623C17.565 17.9823 17.5205 19 17.5205 19C17.5205 19 17.9423 18.0728 18.4623 17.7539C18.9823 17.435 20 17.4795 20 17.4795C20 17.4795 19.0728 17.0577 18.7539 16.5377C18.435 16.0177 18.4795 15 18.4795 15Z" stroke="#1C274C" stroke-linejoin="round"/>
</g>
</svg>
