<svg width="24" height="24" viewBox="0 0 24 24" fill="none" xmlns="http://www.w3.org/2000/svg">
<g id="Outline / Astronomy / Stars">
<path id="Vector (Stroke)" fill-rule="evenodd" clip-rule="evenodd" d="M12.4223 3.07172C12.0481 3.42702 11.5942 4.00091 10.9209 4.85688L10.5806 5.28955C10.5582 5.31806 10.5359 5.34645 10.5138 5.37469C10.2085 5.76436 9.9267 6.12398 9.53083 6.3352C9.12841 6.54991 8.67748 6.57489 8.20271 6.60119C8.16835 6.6031 8.13386 6.60501 8.09926 6.607L7.57184 6.63733C6.52604 6.69747 5.8323 6.73958 5.34874 6.84405C4.8828 6.94471 4.81289 7.06188 4.78301 7.12204C4.74745 7.19365 4.6991 7.34499 4.89411 7.8194C5.0927 8.30254 5.46146 8.92961 6.01226 9.86067L6.29082 10.3315C6.30831 10.3611 6.32572 10.3904 6.34303 10.4196C6.59763 10.8483 6.82679 11.2343 6.88708 11.6839C6.94688 12.1299 6.83064 12.5668 6.69966 13.0591C6.69075 13.0926 6.68178 13.1263 6.67278 13.1603L6.52985 13.7009C6.24752 14.7686 6.05823 15.4914 5.9946 16.0213C5.93095 16.5513 6.02326 16.6702 6.06012 16.7099C6.06065 16.7105 6.06121 16.7111 6.0618 16.7118C6.08615 16.7384 6.16737 16.8274 6.63397 16.7735C7.08208 16.7218 7.68518 16.5632 8.56247 16.3215C8.27762 16.0843 8.03066 15.8647 7.83824 15.6581C7.49827 15.293 7.17584 14.809 7.26492 14.1838C7.35466 13.5539 7.804 13.1833 8.23558 12.9349C8.64906 12.697 9.22421 12.4718 9.88604 12.2127L10.3073 12.0477C10.5196 11.9645 10.6378 11.9176 10.7234 11.8759C10.772 11.8522 10.7914 11.8388 10.7971 11.8342C10.8016 11.8284 10.8146 11.8089 10.8372 11.7605C10.8774 11.6745 10.9222 11.5559 11.0017 11.3426L11.1595 10.9192C11.4072 10.2545 11.6225 9.67648 11.8536 9.25952C12.0952 8.82353 12.4584 8.36965 13.086 8.26903C13.7086 8.16922 14.1983 8.48067 14.5707 8.81348C14.9294 9.13406 15.3287 9.61186 15.7904 10.1643L16.0825 10.5139C16.2301 10.6904 16.3137 10.7896 16.382 10.8594C16.4126 10.8906 16.4313 10.9066 16.4417 10.9147C16.4466 10.9185 16.4496 10.9206 16.451 10.9214L16.4536 10.9229L16.4562 10.9241C16.4577 10.9246 16.461 10.9258 16.4668 10.9274C16.4792 10.9308 16.5027 10.9362 16.5456 10.9419C16.6416 10.9548 16.77 10.9623 16.9988 10.9747L17.452 10.9992C17.6662 11.0108 17.8718 11.0219 18.0674 11.0344C18.5369 10.6211 18.8499 10.3172 19.0454 10.0619C19.2547 9.78846 19.2569 9.66485 19.2473 9.59304C19.2377 9.52186 19.2056 9.38525 18.7965 9.13515C18.3722 8.87577 17.7293 8.60585 16.7601 8.20255L16.2712 7.9991C16.2393 7.98583 16.2076 7.97268 16.1759 7.95958C15.7347 7.77703 15.3181 7.60467 15.0081 7.27006C14.7034 6.94112 14.5531 6.5101 14.389 6.03968C14.3773 6.00589 14.3654 5.9719 14.3534 5.93773L14.1704 5.41591C13.8084 4.38394 13.563 3.69006 13.3227 3.22927C13.0867 2.77679 12.9602 2.75674 12.9364 2.75297C12.9358 2.75288 12.9353 2.7528 12.9349 2.75273C12.9344 2.75265 12.9339 2.75255 12.9333 2.75243C12.911 2.74823 12.7876 2.72492 12.4223 3.07172ZM19.8918 11.3737C20.0203 11.2381 20.1358 11.1051 20.2364 10.9737C20.5797 10.5253 20.8163 10.0075 20.734 9.39369C20.6357 8.6612 20.1416 8.19937 19.5789 7.85536C19.043 7.52776 18.2899 7.21439 17.395 6.84205L16.8475 6.61422C16.2498 6.36547 16.1674 6.31424 16.1085 6.25064C16.0439 6.181 15.9921 6.07764 15.7689 5.44126L15.5656 4.86168C15.2292 3.90238 14.9492 3.10416 14.6527 2.53563C14.3514 1.95797 13.9234 1.39951 13.1868 1.27403C12.4479 1.14817 11.861 1.53623 11.3895 1.98394C10.9263 2.42373 10.4053 3.0861 9.78011 3.88098L9.40161 4.36217C8.98583 4.89075 8.90532 4.96878 8.82471 5.01179C8.75109 5.05107 8.6591 5.07233 8.01315 5.10947L7.48573 5.1398C7.46439 5.14103 7.44313 5.14225 7.42195 5.14347C6.45709 5.1989 5.6442 5.24561 5.03199 5.37787C4.38872 5.51684 3.7692 5.79101 3.43953 6.45492C3.11554 7.10738 3.25329 7.77308 3.50674 8.38968C3.75175 8.98573 4.17837 9.70681 4.69066 10.5727L4.99981 11.0953C5.33684 11.665 5.38582 11.7746 5.40038 11.8832C5.41546 11.9957 5.39539 12.1235 5.22262 12.7769L5.0646 13.3745C4.80117 14.3706 4.58296 15.1958 4.5053 15.8424C4.42619 16.5012 4.4627 17.1928 4.95976 17.7294C5.47137 18.2816 6.15998 18.3382 6.80595 18.2636C7.42627 18.192 8.21553 17.9738 9.15285 17.7147L9.28126 17.6792L9.87886 17.3888C9.89432 17.4025 9.90847 17.4153 9.9216 17.4276C9.95347 17.4576 9.9698 17.4759 9.97806 17.4861C9.98198 17.4909 9.98402 17.4939 9.9849 17.4952L9.98631 17.4975L9.98734 17.4998C9.98787 17.5011 9.98906 17.5042 9.99075 17.5099C9.99431 17.5219 10 17.5451 10.0066 17.5875C10.0212 17.6828 10.031 17.8105 10.0476 18.0385L10.0804 18.4905C10.1321 19.2028 10.177 19.8204 10.2815 20.2883C10.3907 20.7773 10.6086 21.3113 11.1709 21.5937C11.7352 21.8771 12.2933 21.73 12.7487 21.5222C13.1831 21.3239 13.6998 20.9874 14.2942 20.6003L14.6725 20.354C14.8631 20.2299 14.9697 20.1612 15.0533 20.1159C15.0905 20.0958 15.1117 20.0867 15.1225 20.0827C15.1277 20.0807 15.1304 20.08 15.1313 20.0797L15.1323 20.0795L15.1336 20.0794C15.1348 20.0793 15.1379 20.0792 15.1438 20.0794C15.1562 20.0799 15.1801 20.0819 15.2228 20.0895C15.3183 20.1064 15.4435 20.1384 15.6657 20.1962L16.1063 20.3109C16.801 20.4917 17.4026 20.6482 17.8794 20.7C18.374 20.7537 18.957 20.722 19.4024 20.2695C19.8484 19.8165 19.8698 19.2327 19.8069 18.7394C19.7463 18.2644 19.5783 17.6668 19.3846 16.9774L19.2616 16.5398C19.1996 16.3191 19.1654 16.1951 19.1467 16.1003C19.1384 16.0581 19.136 16.0345 19.1353 16.0224C19.1349 16.0167 19.135 16.0137 19.135 16.0128C19.135 16.0127 19.1351 16.0118 19.1352 16.0115C19.1354 16.0108 19.1361 16.0081 19.1379 16.0031C19.1417 15.9924 19.1502 15.9713 19.1697 15.9339C19.2135 15.8498 19.2804 15.7424 19.4014 15.5499L19.6415 15.1679C20.0185 14.5682 20.3465 14.0465 20.5374 13.6094C20.7375 13.1511 20.8755 12.5898 20.5803 12.0303C20.4126 11.7125 20.1649 11.5087 19.8918 11.3737ZM13.3019 9.74934C13.3016 9.74868 13.3053 9.7486 13.3135 9.75106C13.3062 9.75124 13.3021 9.75 13.3019 9.74934ZM13.3261 9.75556C13.3613 9.76981 13.4375 9.81245 13.5712 9.93196C13.838 10.1704 14.167 10.561 14.6763 11.1704L14.9316 11.4758C14.9497 11.4975 14.9678 11.5193 14.9861 11.5413C15.209 11.8095 15.4468 12.0959 15.7805 12.2634C16.1148 12.4313 16.4863 12.4503 16.833 12.4681C16.8614 12.4695 16.8897 12.471 16.9177 12.4725L17.3133 12.4939C18.1028 12.5366 18.6094 12.566 18.9582 12.6369C19.1246 12.6708 19.2063 12.7055 19.2428 12.7266C19.2455 12.7281 19.2479 12.7296 19.2499 12.7309C19.2498 12.732 19.2498 12.7332 19.2497 12.7345C19.2465 12.7727 19.2295 12.8562 19.1627 13.009C19.0226 13.33 18.7577 13.7552 18.3403 14.4193L18.1314 14.7516C18.1165 14.7753 18.1014 14.7992 18.0862 14.8233C17.9028 15.1129 17.7031 15.4286 17.6501 15.8004C17.5973 16.1706 17.6996 16.5304 17.7942 16.8631C17.8021 16.8908 17.8099 16.9183 17.8176 16.9455L17.9248 17.3271C18.1388 18.0889 18.2741 18.578 18.3189 18.9293C18.3394 19.0893 18.3342 19.1728 18.3273 19.2118C18.2884 19.2195 18.2041 19.2265 18.0414 19.2088C17.688 19.1704 17.195 19.0442 16.4278 18.8446L16.0434 18.7446C16.016 18.7374 15.9883 18.7302 15.9605 18.7228C15.625 18.6345 15.2637 18.5393 14.8948 18.5984C14.5241 18.6578 14.2121 18.8624 13.9248 19.0507C13.901 19.0663 13.8774 19.0817 13.854 19.097L13.5247 19.3114C12.8669 19.7398 12.4453 20.0118 12.1259 20.1576C11.9737 20.227 11.8899 20.2457 11.8509 20.2496C11.8486 20.2498 11.8466 20.25 11.8448 20.2501C11.8434 20.248 11.8418 20.2455 11.8399 20.2425C11.8184 20.2069 11.7823 20.1265 11.7454 19.9614C11.6681 19.6153 11.6295 19.1109 11.5723 18.324L11.5436 17.9298C11.5416 17.9019 11.5397 17.8737 11.5377 17.8454C11.5136 17.5 11.4878 17.1288 11.313 16.7975C11.1388 16.4675 10.8474 16.2353 10.5747 16.018C10.5523 16.0002 10.5301 15.9824 10.508 15.9647L10.1973 15.7157C9.57726 15.2187 9.17977 14.8976 8.93596 14.6358C8.81674 14.5078 8.77205 14.4334 8.75628 14.3979C8.78172 14.3697 8.84367 14.3156 8.98367 14.2351C9.2877 14.0602 9.7552 13.8749 10.4877 13.588L10.8544 13.4444C10.8806 13.4341 10.9072 13.4238 10.9339 13.4134C11.2539 13.2892 11.6031 13.1538 11.8662 12.8865C12.1294 12.619 12.2591 12.2678 12.3777 11.9463C12.3876 11.9194 12.3975 11.8928 12.4073 11.8664L12.5446 11.498C12.8188 10.7621 12.9959 10.2927 13.1656 9.98655C13.2451 9.84302 13.2987 9.7806 13.3261 9.75556ZM8.74867 14.3722C8.74933 14.3724 8.75068 14.3765 8.75074 14.3838C8.74805 14.3756 8.74801 14.372 8.74867 14.3722ZM8.7467 14.4094C8.74417 14.4171 8.74131 14.4209 8.74051 14.4209C8.73971 14.4209 8.74098 14.4171 8.7467 14.4094ZM18.3182 19.2409C18.3178 19.2403 18.3191 19.2359 18.3233 19.2295C18.3208 19.2382 18.3187 19.2414 18.3182 19.2409ZM18.345 19.2074C18.3512 19.203 18.3555 19.2017 18.3561 19.2021C18.3566 19.2025 18.3535 19.2047 18.345 19.2074ZM13.3362 9.74704C13.3439 9.74117 13.3477 9.73987 13.3477 9.74069C13.3477 9.7415 13.3439 9.74445 13.3362 9.74704Z" fill="#1C274C"/>
</g>
</svg>
