<svg width="24" height="24" viewBox="0 0 24 24" fill="none" xmlns="http://www.w3.org/2000/svg">
<g id="Outline / Astronomy / Star Fall 2">
<path id="Vector (Stroke)" fill-rule="evenodd" clip-rule="evenodd" d="M16.4827 3.59015L16.8446 4.01866C17.2403 4.48717 17.309 4.54647 17.3792 4.58135C17.4512 4.61719 17.5446 4.6367 18.1636 4.67293L18.7288 4.70601C19.6556 4.76021 20.4331 4.80568 21.0174 4.92502C21.6174 5.04758 22.2297 5.28861 22.5597 5.91036C22.8948 6.54164 22.736 7.18021 22.483 7.73202C22.2397 8.26293 21.821 8.90063 21.3264 9.6539L21.0213 10.1187C20.6863 10.629 20.6582 10.7005 20.6488 10.7611C20.6393 10.8221 20.6446 10.8995 20.8088 11.4884L20.9416 11.9648L20.9584 12.0247C21.2009 12.8943 21.4061 13.6302 21.4768 14.2104C21.5502 14.8125 21.5083 15.4703 20.9964 15.9697C20.4919 16.4618 19.8341 16.5024 19.2261 16.4345C18.6336 16.3683 17.8795 16.1723 16.9806 15.9387L16.9229 15.9237L16.4324 15.7962C15.8318 15.6401 15.7371 15.63 15.6581 15.6419C15.5816 15.6534 15.4991 15.6881 14.98 16.0126L14.5052 16.3094C13.7301 16.794 13.0773 17.2022 12.5346 17.4394C11.9715 17.6856 11.3383 17.8336 10.7098 17.5211C10.2174 17.2763 9.95263 16.8608 9.79741 16.4073C6.59457 17.6095 3.94035 19.7593 3.03641 22.2556C2.92049 22.5758 2.60348 22.7777 2.26436 22.7473C1.92525 22.717 1.64913 22.462 1.5919 22.1264C0.958077 18.4093 1.24401 15.4411 2.13208 13.0989C2.99399 10.8258 4.40732 9.18465 6.01444 8.04211C6.22077 7.56925 6.63407 7.25731 7.05668 7.02396C7.57372 6.73848 8.29848 6.46701 9.15946 6.14452L9.68714 5.94684C10.2666 5.72978 10.3415 5.68577 10.3913 5.63714C10.4383 5.5913 10.4807 5.52535 10.7023 4.96057L10.882 4.50242C10.8896 4.48315 10.8971 4.46393 10.9046 4.44479C11.2326 3.60858 11.5104 2.90045 11.8037 2.39437C12.1102 1.86558 12.5369 1.37443 13.2373 1.26918C13.9311 1.16493 14.4887 1.5009 14.9493 1.90785C15.3938 2.30055 15.8914 2.88989 16.4827 3.59015ZM6.25193 9.75434C5.13206 10.7004 4.16637 11.9647 3.53465 13.6307C2.93741 15.2059 2.62873 17.167 2.79438 19.5953C4.34399 17.4967 6.8475 15.8677 9.53563 14.9059C9.50509 14.5624 9.48048 14.1865 9.45404 13.7827L9.41779 13.2294C9.37811 12.6239 9.35777 12.5471 9.32638 12.488C9.29305 12.4252 9.23403 12.3595 8.74851 11.9748L8.30626 11.6244C7.58401 11.0521 6.97645 10.5707 6.57095 10.14C6.45798 10.02 6.34882 9.89171 6.25193 9.75434ZM11.0594 15.0762C11.0179 14.6961 10.9861 14.2221 10.9468 13.6229L10.9146 13.1314C10.9124 13.0984 10.9103 13.0655 10.9083 13.0327C10.8804 12.593 10.8534 12.1655 10.6513 11.7848C10.4511 11.4075 10.1129 11.1407 9.75951 10.8619C9.73311 10.8411 9.70661 10.8202 9.68009 10.7992L9.28539 10.4864C8.50291 9.86637 7.98408 9.45276 7.66309 9.11181C7.35223 8.78163 7.3799 8.67762 7.38196 8.66988C7.38215 8.66325 7.38529 8.55598 7.78173 8.33709C8.19038 8.11145 8.80945 7.87744 9.74269 7.52783L10.2134 7.35151C10.2451 7.33964 10.2767 7.32786 10.3082 7.31612C10.729 7.15953 11.1329 7.00922 11.4387 6.71087C11.7473 6.40989 11.9029 6.01045 12.0626 5.60061C12.0746 5.56991 12.0866 5.53916 12.0987 5.50839L12.2784 5.05024C12.6352 4.14067 12.8725 3.54158 13.1015 3.14652C13.3182 2.77251 13.4284 2.757 13.458 2.75284C13.4588 2.75273 13.4595 2.75263 13.4602 2.75253C13.494 2.74742 13.6136 2.72935 13.9562 3.03197C14.308 3.34285 14.735 3.84542 15.3755 4.60386L15.6986 4.98646C15.7199 5.01165 15.741 5.0368 15.7621 5.06185C16.0521 5.40661 16.3268 5.73326 16.7112 5.92444C17.0939 6.11473 17.5214 6.13892 17.9763 6.16466C18.0094 6.16653 18.0426 6.16841 18.076 6.17037L18.5817 6.19997C19.5837 6.25861 20.2516 6.29958 20.7172 6.39468C21.1691 6.48699 21.2233 6.59143 21.2341 6.61229C21.2343 6.61277 21.2346 6.6132 21.2348 6.61359C21.2349 6.61389 21.2352 6.61429 21.2355 6.61481C21.2436 6.62794 21.2984 6.71666 21.1195 7.10699C20.9295 7.52142 20.5764 8.0632 20.0384 8.88273L19.7674 9.2955C19.749 9.32354 19.7305 9.35151 19.7121 9.37943C19.4699 9.74639 19.2325 10.1062 19.1666 10.5309C19.1006 10.9553 19.2174 11.3704 19.3367 11.7943C19.3458 11.8266 19.3549 11.8589 19.3639 11.8913L19.4968 12.3677C19.7605 13.3135 19.9326 13.9384 19.9878 14.3918C20.04 14.8202 19.9601 14.8866 19.9498 14.8952C19.9494 14.8955 19.9491 14.8958 19.949 14.8959C19.9486 14.8962 19.9483 14.8966 19.9479 14.897C19.9326 14.9123 19.8503 14.9949 19.3927 14.9438C18.9205 14.891 18.2721 14.7245 17.3002 14.4719L16.8096 14.3444C16.7772 14.336 16.745 14.3275 16.7129 14.3191C16.2721 14.2037 15.8576 14.0951 15.4352 14.1586C15.0103 14.2224 14.6488 14.4494 14.2683 14.6883C14.2406 14.7057 14.2128 14.7232 14.1849 14.7406L13.7612 15.0055C12.9212 15.5306 12.3626 15.8775 11.9337 16.0651C11.5168 16.2473 11.4097 16.1939 11.3785 16.1784C11.3779 16.1781 11.3765 16.1774 11.3759 16.1771C11.3477 16.1633 11.2466 16.1139 11.1533 15.6894C11.1434 15.6443 11.134 15.5972 11.1251 15.5479C11.1472 15.4305 11.1414 15.306 11.1028 15.1841C11.0909 15.1465 11.0764 15.1105 11.0594 15.0762Z" fill="#1C274C"/>
</g>
</svg>
