<svg width="24" height="24" viewBox="0 0 24 24" fill="none" xmlns="http://www.w3.org/2000/svg">
<g id="Bold Duotone / Messages, Coversation / Multiple Forward Right">
<path id="Vector" d="M12.3315 5.18341L17.3094 9.60815C18.2399 10.4353 18.7052 10.8489 18.8767 11.3373C19.0273 11.7662 19.0273 12.2335 18.8767 12.6624C18.7052 13.1508 18.2399 13.5644 17.3094 14.3916L12.3315 18.8163C11.9092 19.1917 11.6981 19.3794 11.5187 19.3861C11.3629 19.3919 11.2133 19.3247 11.1142 19.2044C11 19.0659 11 18.7834 11 18.2184V15.4284C8.57196 15.4284 6.00739 16.2083 4.13478 17.5926C3.15988 18.3133 2.67242 18.6737 2.48676 18.6595C2.30578 18.6456 2.19093 18.575 2.09703 18.4196C2.0007 18.2603 2.08578 17.7624 2.25595 16.7666C3.36093 10.3004 7.8109 8.57129 11 8.57129V5.78134C11 5.21632 11 4.93381 11.1142 4.79531C11.2133 4.67498 11.3629 4.6078 11.5187 4.61363C11.6981 4.62034 11.9092 4.80803 12.3315 5.18341Z" fill="#1C274C"/>
<path id="Vector_2" opacity="0.5" fill-rule="evenodd" clip-rule="evenodd" d="M14.9895 3.98966C15.2713 3.68613 15.7459 3.66856 16.0494 3.95041L21.2656 8.79403C22.2126 9.67333 22.7506 10.9072 22.7506 12.1994C22.7506 13.5616 22.1529 14.8553 21.1156 15.7382L16.0252 20.0711C15.7098 20.3396 15.2364 20.3016 14.968 19.9861C14.6995 19.6707 14.7375 19.1974 15.0529 18.9289L20.1434 14.596C20.8459 13.998 21.2506 13.122 21.2506 12.1994C21.2506 11.3243 20.8862 10.4887 20.2449 9.89322L15.0287 5.0496C14.7252 4.76775 14.7076 4.2932 14.9895 3.98966Z" fill="#1C274C"/>
</g>
</svg>
