<svg width="24" height="24" viewBox="0 0 24 24" fill="none" xmlns="http://www.w3.org/2000/svg">
<g id="Bold Duotone / Messages, Coversation / Multiple Forward Left">
<path id="Vector" d="M12.4755 5.18341L7.49766 9.60815C6.56708 10.4353 6.10179 10.8489 5.93032 11.3373C5.77974 11.7662 5.77974 12.2335 5.93032 12.6624C6.10179 13.1508 6.56708 13.5644 7.49766 14.3916L12.4755 18.8163C12.8978 19.1917 13.1089 19.3794 13.2883 19.3861C13.4441 19.3919 13.5937 19.3247 13.6929 19.2044C13.807 19.0659 13.807 18.7834 13.807 18.2184V15.4284C16.2351 15.4284 18.7996 16.2083 20.6723 17.5926C21.6471 18.3133 22.1346 18.6737 22.3203 18.6595C22.5012 18.6456 22.6161 18.575 22.71 18.4196C22.8063 18.2603 22.7212 17.7624 22.5511 16.7666C21.4461 10.3004 16.9961 8.57129 13.807 8.57129V5.78134C13.807 5.21632 13.807 4.93381 13.6929 4.79531C13.5937 4.67498 13.4441 4.6078 13.2883 4.61363C13.1089 4.62034 12.8978 4.80803 12.4755 5.18341Z" fill="#1C274C"/>
<path id="Vector_2" opacity="0.5" fill-rule="evenodd" clip-rule="evenodd" d="M9.81777 3.98966C9.53592 3.68613 9.06137 3.66856 8.75784 3.95041L3.54163 8.79403C2.5947 9.67333 2.05664 10.9072 2.05664 12.1994C2.05664 13.5616 2.65432 14.8553 3.69163 15.7382L8.78205 20.0711C9.09747 20.3396 9.57081 20.3016 9.8393 19.9861C10.1078 19.6707 10.0697 19.1974 9.75431 18.9289L4.66389 14.596C3.9614 13.998 3.55664 13.122 3.55664 12.1994C3.55664 11.3243 3.92102 10.4887 4.56231 9.89322L9.77852 5.0496C10.082 4.76775 10.0996 4.2932 9.81777 3.98966Z" fill="#1C274C"/>
</g>
</svg>
