<svg width="24" height="24" viewBox="0 0 24 24" fill="none" xmlns="http://www.w3.org/2000/svg">
<g id="Broken / Sports / Hiking">
<circle id="Vector" cx="11.5" cy="4.5" r="2.5" stroke="#1C274C" stroke-width="1.5"/>
<path id="Vector_2" d="M9 17.5L6 22" stroke="#1C274C" stroke-width="1.5" stroke-linecap="round"/>
<path id="Vector_3" d="M10.3754 11.2459L11.1217 11.3205L10.3754 11.2459ZM10.2132 12.8676L10.9595 12.9422L10.2132 12.8676ZM14.003 11.3355L13.5229 11.9117L13.5229 11.9117L14.003 11.3355ZM14.0844 11.4033L14.5645 10.8272L14.5645 10.8272L14.0844 11.4033ZM17.9157 11.4033L17.4355 10.8272L17.9157 11.4033ZM19.4802 11.0759C19.7984 10.8107 19.8414 10.3378 19.5762 10.0196C19.311 9.70135 18.8381 9.65836 18.5199 9.92353L19.4802 11.0759ZM14.2282 20.0638L14.9752 19.9973L14.2282 20.0638ZM13.6534 22.0662C13.6901 22.4787 14.0543 22.7835 14.4669 22.7467C14.8795 22.71 15.1842 22.3458 15.1475 21.9332L13.6534 22.0662ZM15.3142 12.275L15.057 12.9795L15.057 12.9795L15.3142 12.275ZM16.6859 12.275L16.9431 12.9795L16.9431 12.9795L16.6859 12.275ZM12.0937 10.2419L11.9136 10.97L11.9136 10.97L12.0937 10.2419ZM12.2424 10.2981L11.9998 11.0078L11.9998 11.0078L12.2424 10.2981ZM13.4813 10.9253L13.9097 10.3096L13.9097 10.3096L13.4813 10.9253ZM11.8171 16.1354L12.2146 15.4994L11.8171 16.1354ZM13.4812 17.3715L12.8969 17.8417H12.8969L13.4812 17.3715ZM13.8794 18.0204L13.1956 18.3284L13.1956 18.3284L13.8794 18.0204ZM10.2049 14.5592L9.48906 14.783H9.48906L10.2049 14.5592ZM10.4738 15.1071L9.85886 15.5365L9.85886 15.5365L10.4738 15.1071ZM10.4855 10.6836L11.1677 10.9953L10.4855 10.6836ZM11.3087 10.103L11.244 9.35576L11.3087 10.103ZM9.62912 11.1713L9.46695 12.7929L10.9595 12.9422L11.1217 11.3205L9.62912 11.1713ZM13.5229 11.9117L13.6042 11.9795L14.5645 10.8272L14.4831 10.7594L13.5229 11.9117ZM18.3958 11.9795L19.4802 11.0759L18.5199 9.92353L17.4355 10.8272L18.3958 11.9795ZM13.4811 20.1303L13.6534 22.0662L15.1475 21.9332L14.9752 19.9973L13.4811 20.1303ZM13.6042 11.9795C14.1593 12.4421 14.5771 12.8043 15.057 12.9795L15.5714 11.5705C15.3971 11.5069 15.2131 11.3676 14.5645 10.8272L13.6042 11.9795ZM17.4355 10.8272C16.787 11.3676 16.6029 11.5069 16.4287 11.5705L16.9431 12.9795C17.423 12.8043 17.8407 12.4421 18.3958 11.9795L17.4355 10.8272ZM15.057 12.9795C15.666 13.2019 16.334 13.2019 16.9431 12.9795L16.4287 11.5705C16.1518 11.6715 15.8482 11.6715 15.5714 11.5705L15.057 12.9795ZM11.9136 10.97C11.9148 10.9703 11.9156 10.9705 11.9163 10.9706C11.917 10.9708 11.9171 10.9708 11.9169 10.9708C11.9168 10.9708 11.9158 10.9705 11.9141 10.9701C11.9127 10.9697 11.9091 10.9688 11.9045 10.9675C11.9006 10.9664 11.8907 10.9637 11.8781 10.9597C11.8715 10.9577 11.8616 10.9545 11.8496 10.9502C11.8385 10.9461 11.8195 10.939 11.7966 10.9287C11.7847 10.9234 11.7694 10.9162 11.7519 10.9068C11.7348 10.8977 11.7116 10.8846 11.6852 10.8669C11.6597 10.8497 11.6235 10.823 11.5844 10.7855C11.5462 10.7488 11.4931 10.6901 11.4471 10.6066C11.3992 10.5197 11.358 10.4035 11.3543 10.265C11.3525 10.1972 11.3599 10.131 11.3751 10.0681C11.3903 10.0055 11.4122 9.95015 11.4367 9.90236C11.4847 9.80887 11.5429 9.74357 11.5854 9.70293C11.6284 9.66179 11.6683 9.63343 11.6953 9.61589C11.7231 9.59778 11.7473 9.58474 11.7638 9.57633C11.7808 9.56769 11.7951 9.56123 11.8048 9.55702C11.8225 9.54929 11.837 9.54387 11.838 9.54352C11.8443 9.54111 11.8355 9.54443 11.8311 9.54617C11.8241 9.54887 11.8106 9.55428 11.7938 9.56189C11.7771 9.56946 11.7531 9.58108 11.7252 9.59731C11.6977 9.6134 11.6611 9.63712 11.6214 9.67036C11.5817 9.70367 11.534 9.75071 11.4893 9.81432C11.4437 9.87932 11.4028 9.95965 11.3779 10.0544C11.3528 10.1498 11.3478 10.2447 11.3584 10.3337C11.3687 10.4207 11.3928 10.494 11.4184 10.5515C11.4439 10.6084 11.4726 10.6537 11.497 10.6872C11.5216 10.7209 11.5454 10.7478 11.565 10.768C11.6029 10.8071 11.6376 10.8344 11.6592 10.8503C11.6822 10.8672 11.7023 10.88 11.7165 10.8886C11.7441 10.9054 11.7676 10.9172 11.7808 10.9236C11.7955 10.9307 11.8084 10.9365 11.8181 10.9406C11.8372 10.9489 11.8557 10.9562 11.8716 10.9622C11.9036 10.9743 11.9453 10.9891 11.9998 11.0078L12.4849 9.58838C12.4367 9.57191 12.4131 9.56331 12.404 9.55982C12.3992 9.55801 12.4031 9.55939 12.4119 9.56318C12.4165 9.56515 12.4253 9.56903 12.4367 9.5746C12.4467 9.57947 12.4679 9.59 12.4938 9.60574C12.5072 9.61384 12.5266 9.62617 12.549 9.6427C12.5701 9.6582 12.6044 9.68515 12.642 9.72392C12.6763 9.75926 12.7394 9.831 12.788 9.93964C12.8136 9.99696 12.8376 10.0703 12.8479 10.1572C12.8585 10.246 12.8535 10.3409 12.8285 10.4362C12.7774 10.6301 12.6637 10.754 12.5852 10.8198C12.5104 10.8824 12.4409 10.9154 12.4133 10.928C12.3858 10.9404 12.3565 10.9511 12.3696 10.9461C12.3706 10.9458 12.3852 10.9403 12.403 10.9326C12.4175 10.9262 12.4614 10.9069 12.5127 10.8736C12.5397 10.8561 12.5796 10.8277 12.6226 10.7865C12.6651 10.7459 12.7233 10.6806 12.7713 10.5871C12.8219 10.4885 12.8575 10.3646 12.8537 10.2244C12.85 10.0858 12.8088 9.96966 12.7609 9.88268C12.7149 9.79925 12.6618 9.74052 12.6235 9.70375C12.5845 9.66621 12.5482 9.63957 12.5227 9.62236C12.4735 9.58926 12.431 9.56932 12.4111 9.56037C12.3703 9.54205 12.3368 9.53157 12.3286 9.529C12.3156 9.52489 12.3051 9.522 12.3005 9.52074C12.2912 9.51819 12.2832 9.51621 12.2817 9.51581C12.2788 9.5151 12.2757 9.51432 12.2738 9.51385L11.9136 10.97ZM14.4831 10.7594C14.2567 10.5706 14.1185 10.4549 13.9097 10.3096L13.0529 11.5409C13.2006 11.6436 13.2914 11.7188 13.5229 11.9117L14.4831 10.7594ZM11.9998 11.0078C12.2966 11.1092 12.7954 11.3617 13.0529 11.5409L13.9097 10.3096C13.5377 10.0508 12.9137 9.73494 12.4849 9.58838L11.9998 11.0078ZM11.4196 16.7714C12.362 17.3604 12.6774 17.569 12.8969 17.8417L14.0654 16.9012C13.6498 16.3849 13.0675 16.0325 12.2146 15.4994L11.4196 16.7714ZM14.9752 19.9973C14.8861 18.9954 14.8355 18.3167 14.5633 17.7124L13.1956 18.3284C13.3394 18.6476 13.3826 19.0233 13.4811 20.1303L14.9752 19.9973ZM12.8969 17.8417C13.0167 17.9906 13.1171 18.1542 13.1956 18.3284L14.5633 17.7124C14.4324 17.4219 14.2651 17.1494 14.0654 16.9012L12.8969 17.8417ZM9.46695 12.7929C9.38682 13.5943 9.31061 14.2123 9.48906 14.783L10.9207 14.3353C10.8555 14.1267 10.8661 13.8768 10.9595 12.9422L9.46695 12.7929ZM12.2146 15.4994C11.4181 15.0016 11.2139 14.8571 11.0888 14.6778L9.85886 15.5365C10.2011 16.0267 10.7366 16.3445 11.4196 16.7714L12.2146 15.4994ZM9.48906 14.783C9.57305 15.0516 9.69777 15.3057 9.85886 15.5365L11.0888 14.6778C11.0156 14.5729 10.9589 14.4574 10.9207 14.3353L9.48906 14.783ZM11.1217 11.3205C11.1364 11.1735 11.1439 11.1026 11.1534 11.0493C11.1602 11.011 11.1646 11.002 11.1677 10.9953L9.80333 10.3719C9.67273 10.6578 9.65338 10.9286 9.62912 11.1713L11.1217 11.3205ZM12.2738 9.51385C12.0751 9.46471 11.8976 9.42054 11.7495 9.39215C11.5998 9.36346 11.428 9.33982 11.244 9.35576L11.3735 10.8502C11.3548 10.8518 11.369 10.8465 11.4671 10.8653C11.5669 10.8845 11.6991 10.9169 11.9136 10.97L12.2738 9.51385ZM11.1677 10.9953C11.1606 11.0108 11.1607 11.0044 11.1811 10.9819C11.2001 10.9608 11.228 10.9356 11.2625 10.9113C11.297 10.8869 11.3301 10.8692 11.3563 10.8583C11.3844 10.8466 11.3904 10.8487 11.3735 10.8502L11.244 9.35576C10.9178 9.38401 10.6187 9.52977 10.3979 9.68552C10.1771 9.84127 9.93939 10.0742 9.80333 10.3719L11.1677 10.9953Z" fill="#1C274C"/>
<path id="Vector_4" d="M19 15V8M19 22V19" stroke="#1C274C" stroke-width="1.5" stroke-linecap="round"/>
<path id="Vector_5" d="M8 10L6.328 10.5573C5.53493 10.8217 5 11.5639 5 12.3998C5 12.7677 5.20781 13.1039 5.5368 13.2684L8 14.5" stroke="#1C274C" stroke-width="1.5" stroke-linecap="round"/>
</g>
</svg>
