<svg width="24" height="24" viewBox="0 0 24 24" fill="none" xmlns="http://www.w3.org/2000/svg">
<g id="Linear / Electronic, Devices / Airbuds Left">
<path id="Vector" d="M2 18.6667V19.5C2 20.8807 3.11929 22 4.5 22C5.88071 22 7 20.8807 7 19.5V18.6667M2 18.6667V7.625L2.00007 7.55936C2.01591 4.49563 4.49563 2.01591 7.55936 2.00007L7.625 2L7.66438 2.00004C9.50262 2.00954 10.9905 3.49738 11 5.33562L11 5.375V8C11 9.65685 9.65685 11 8 11C7.44772 11 7 11.4477 7 12V18.6667M2 18.6667H7" stroke="#1C274C" stroke-width="1.5"/>
<path id="Vector_2" d="M8 5V8" stroke="#1C274C" stroke-width="1.67647" stroke-linecap="round"/>
<circle id="Vector_3" r="5.5" transform="matrix(-1 0 0 1 15.5 16.5)" stroke="#1C274C" stroke-width="1.5"/>
<path id="Vector_4" d="M14 14V19H17" stroke="#1C274C" stroke-width="1.5" stroke-linecap="round" stroke-linejoin="round"/>
<path id="Vector_5" d="M14.0009 5.09961C15.96 5.49729 17.5032 7.04046 17.9009 8.99959" stroke="#1C274C" stroke-width="1.5" stroke-linecap="round"/>
</g>
</svg>
