<svg width="24" height="24" viewBox="0 0 24 24" fill="none" xmlns="http://www.w3.org/2000/svg">
<g id="Outline / Shopping, Ecommerce / Bag 2">
<path id="Vector" fill-rule="evenodd" clip-rule="evenodd" d="M12.0001 2.75C10.7575 2.75 9.75012 3.75736 9.75012 5V5.25988C10.3072 5.24999 10.9184 5.24999 11.5893 5.25H12.411C13.0818 5.24999 13.693 5.24999 14.2501 5.25988V5C14.2501 3.75736 13.2428 2.75 12.0001 2.75ZM15.7501 5.32793V5C15.7501 2.92893 14.0712 1.25 12.0001 1.25C9.92905 1.25 8.25012 2.92893 8.25012 5V5.32793C8.10739 5.34021 7.96947 5.35444 7.83619 5.3709C6.82622 5.49569 5.9936 5.75783 5.2863 6.34483C4.57901 6.93183 4.16792 7.70188 3.85914 8.67156C3.55991 9.61128 3.33339 10.8194 3.04866 12.3381L3.02798 12.4484C2.62618 14.5912 2.30954 16.2799 2.25143 17.6112C2.19187 18.9758 2.39488 20.106 3.16465 21.0335C3.93443 21.961 5.00785 22.3689 6.36004 22.5618C7.67927 22.75 9.3974 22.75 11.5776 22.75H12.4227C14.6028 22.75 16.321 22.75 17.6402 22.5618C18.9924 22.3689 20.0658 21.961 20.8356 21.0335C21.6054 20.106 21.8084 18.9758 21.7488 17.6112C21.6907 16.2799 21.3741 14.5912 20.9723 12.4484L20.9516 12.3381C20.6668 10.8194 20.4403 9.61129 20.1411 8.67156C19.8323 7.70188 19.4212 6.93183 18.7139 6.34483C18.0066 5.75783 17.174 5.49569 16.164 5.3709C16.0308 5.35444 15.8928 5.34021 15.7501 5.32793ZM8.02012 6.85959C7.16458 6.96529 6.64786 7.16413 6.24426 7.49909C5.84065 7.83406 5.54999 8.30528 5.28843 9.12669C5.02057 9.96788 4.80982 11.0846 4.5137 12.6639C4.09798 14.8811 3.8029 16.4647 3.75 17.6766C3.69801 18.8679 3.88907 19.5576 4.31892 20.0756C4.74876 20.5935 5.39151 20.9084 6.57193 21.0768C7.77284 21.2482 9.38371 21.25 11.6395 21.25H12.3607C14.6165 21.25 16.2274 21.2482 17.4283 21.0768C18.6087 20.9084 19.2515 20.5935 19.6813 20.0756C20.1112 19.5576 20.3022 18.8679 20.2502 17.6766C20.1973 16.4647 19.9023 14.8811 19.4865 12.6639C19.1904 11.0846 18.9797 9.96788 18.7118 9.12669C18.4502 8.30528 18.1596 7.83406 17.756 7.49909C17.3524 7.16413 16.8357 6.96529 15.9801 6.85959C15.104 6.75133 13.9675 6.75 12.3607 6.75H11.6395C10.0327 6.75 8.89627 6.75133 8.02012 6.85959ZM9.12342 10.2602C9.53199 10.3283 9.80801 10.7147 9.73991 11.1233L8.73991 17.1233C8.67182 17.5319 8.2854 17.8079 7.87682 17.7398C7.46824 17.6717 7.19222 17.2853 7.26032 16.8767L8.26032 10.8767C8.32842 10.4681 8.71484 10.1921 9.12342 10.2602ZM14.8768 10.2602C15.2854 10.1921 15.6718 10.4681 15.7399 10.8767L16.7399 16.8767C16.808 17.2853 16.532 17.6717 16.1234 17.7398C15.7148 17.8079 15.3284 17.5319 15.2603 17.1233L14.2603 11.1233C14.1922 10.7147 14.4682 10.3283 14.8768 10.2602Z" fill="#1C274C"/>
</g>
</svg>
