<svg width="24" height="24" viewBox="0 0 24 24" fill="none" xmlns="http://www.w3.org/2000/svg">
<g id="Bold Duotone / Shopping, Ecommerce / Bag Music">
<path id="Vector" opacity="0.5" d="M4.0828 10.8943C4.52171 8.55339 4.74117 7.38295 5.57434 6.69147C6.40752 6 7.59835 6 9.98003 6H14.0209C16.4026 6 17.5934 6 18.4266 6.69147C19.2598 7.38295 19.4792 8.55339 19.9181 10.8943L20.6681 14.8943C21.2853 18.186 21.5939 19.8318 20.6942 20.9159C19.7945 22 18.12 22 14.7709 22H9.23003C5.88097 22 4.20644 22 3.30672 20.9159C2.40701 19.8318 2.7156 18.186 3.3328 14.8943L4.0828 10.8943Z" fill="#1C274C"/>
<path id="Vector_2" d="M9.75 5C9.75 3.75736 10.7574 2.75 12 2.75C13.2426 2.75 14.25 3.75736 14.25 5V6C14.25 6.00001 14.25 5.99999 14.25 6C14.816 6.00018 15.3119 6.00174 15.7499 6.01488C15.75 6.00993 15.75 6.00497 15.75 6V5C15.75 2.92893 14.0711 1.25 12 1.25C9.92893 1.25 8.25 2.92893 8.25 5V6C8.25 6.00498 8.25005 6.00995 8.25015 6.01491C8.68814 6.00175 9.18397 6.00021 9.75 6.00002C9.75 6.00002 9.75 6.00003 9.75 6.00002V5Z" fill="#1C274C"/>
<path id="Vector_3" fill-rule="evenodd" clip-rule="evenodd" d="M12.75 17C12.75 18.5188 11.5188 19.75 10 19.75C8.48122 19.75 7.25 18.5188 7.25 17C7.25 15.4812 8.48122 14.25 10 14.25C10.4501 14.25 10.875 14.3581 11.25 14.5498V11.8291C11.2498 11.6672 11.2495 11.4547 11.2812 11.289C11.362 10.8667 11.5955 10.4889 11.9371 10.2278C12.0711 10.1253 12.2248 10.0487 12.3697 9.97654L13.7397 9.2916C13.9425 9.19018 14.1204 9.10124 14.269 9.03644C14.4199 8.97068 14.5988 8.90293 14.7972 8.87979C15.6037 8.78572 16.3689 9.25865 16.6454 10.022C16.7134 10.2098 16.7328 10.4002 16.7415 10.5645C16.75 10.7264 16.75 10.9253 16.75 11.1521L16.75 11.2116C16.7503 11.3735 16.7505 11.5452 16.7188 11.7109C16.638 12.1332 16.4045 12.511 16.0629 12.7721C15.9289 12.8746 15.7752 12.9512 15.6303 13.0234L14.2603 13.7083C14.0575 13.8098 13.8796 13.8987 13.731 13.9635C13.5801 14.0293 13.4012 14.097 13.2028 14.1201C13.0493 14.138 12.8974 14.1354 12.75 14.1142V17ZM14.8684 10.4115C14.9383 10.381 14.9705 10.3713 14.9785 10.3689C15.0885 10.3594 15.1917 10.4232 15.2324 10.5258C15.2339 10.5341 15.2396 10.5673 15.2436 10.6433C15.2498 10.761 15.25 10.9198 15.25 11.1708C15.25 11.2779 15.2499 11.339 15.2482 11.3853C15.2472 11.4142 15.2458 11.4264 15.2454 11.4295C15.2338 11.4894 15.2007 11.543 15.1523 11.5802C15.1498 11.5819 15.1394 11.5886 15.114 11.6025C15.0734 11.6246 15.0188 11.6521 14.9229 11.7L13.6062 12.3583C13.3817 12.4706 13.2396 12.5414 13.1316 12.5885C13.0617 12.6189 13.0295 12.6287 13.0215 12.631C12.9115 12.6405 12.8083 12.5767 12.7676 12.4741C12.7661 12.4659 12.7604 12.4327 12.7564 12.3566C12.7502 12.239 12.75 12.0801 12.75 11.8291C12.75 11.722 12.7501 11.6609 12.7518 11.6147C12.7528 11.5857 12.7542 11.5735 12.7546 11.5704C12.7662 11.5105 12.7993 11.4569 12.8477 11.4198C12.8502 11.418 12.8606 11.4113 12.886 11.3975C12.9266 11.3753 12.9812 11.3479 13.0771 11.3L14.3938 10.6416C14.6183 10.5294 14.7604 10.4586 14.8684 10.4115ZM10 15.75C10.6904 15.75 11.25 16.3096 11.25 17C11.25 17.6903 10.6904 18.25 10 18.25C9.30964 18.25 8.75 17.6903 8.75 17C8.75 16.3096 9.30964 15.75 10 15.75Z" fill="#1C274C"/>
</g>
</svg>
