<svg width="24" height="24" viewBox="0 0 24 24" fill="none" xmlns="http://www.w3.org/2000/svg">
<g id="Bold / Security / Bomb Minimalistic">
<g id="Vector">
<path d="M15.6646 2.82934C16.0351 2.6441 16.4856 2.79427 16.6708 3.16475L17.1708 4.16475C17.3561 4.53524 17.2059 4.98574 16.8354 5.17098C16.4649 5.35623 16.0144 5.20606 15.8292 4.83557L15.3292 3.83557C15.1439 3.46509 15.2941 3.01459 15.6646 2.82934Z" fill="#1C274C"/>
<path d="M18.8292 7.16475C19.0144 6.79427 19.4649 6.6441 19.8354 6.82934L20.8354 7.32934C21.2059 7.51459 21.3561 7.96509 21.1708 8.33557C20.9856 8.70606 20.5351 8.85623 20.1646 8.67098L19.1646 8.17098C18.7941 7.98574 18.6439 7.53524 18.8292 7.16475Z" fill="#1C274C"/>
<path d="M20.5303 4.53049C20.8232 4.2376 20.8232 3.76273 20.5303 3.46983C20.2374 3.17694 19.7626 3.17694 19.4697 3.46983L18.4697 4.46983C18.1768 4.76273 18.1768 5.2376 18.4697 5.53049C18.7626 5.82339 19.2374 5.82339 19.5303 5.53049L20.5303 4.53049Z" fill="#1C274C"/>
<path d="M17 14.5002C17 18.6423 13.6421 22.0002 9.5 22.0002C5.35786 22.0002 2 18.6423 2 14.5002C2 10.358 5.35786 7.00016 9.5 7.00016C13.6421 7.00016 17 10.358 17 14.5002Z" fill="#1C274C"/>
<path d="M17.5302 7.53049L16.3722 8.68853C16.0486 8.30631 15.6938 7.95143 15.3115 7.62787L16.4696 6.46983C16.7625 6.17694 17.2373 6.17694 17.5302 6.46983C17.8231 6.76273 17.8231 7.2376 17.5302 7.53049Z" fill="#1C274C"/>
</g>
</g>
</svg>
