<svg width="24" height="24" viewBox="0 0 24 24" fill="none" xmlns="http://www.w3.org/2000/svg">
<g id="Broken / Essentional, UI / Broom">
<path id="Vector" d="M21.0364 3.94439C21.3293 3.6515 21.3293 3.17663 21.0364 2.88373C20.7435 2.59084 20.2687 2.59084 19.9758 2.88373L21.0364 3.94439ZM12.1976 5.00513C11.9047 5.29802 11.9047 5.7729 12.1976 6.06579C12.4905 6.35868 12.9654 6.35868 13.2583 6.06579L12.1976 5.00513ZM18.3848 11.1923L17.8545 11.7226C17.9951 11.8633 18.1859 11.9423 18.3848 11.9423C18.5837 11.9423 18.7745 11.8633 18.9151 11.7226L18.3848 11.1923ZM3.57952 12.979L4.22027 12.5892L3.57952 12.979ZM2.91264 11.8828L2.24464 12.2238L2.25736 12.2487L2.27189 12.2726L2.91264 11.8828ZM4.40773 7.01091L4.75791 7.67414L4.40773 7.01091ZM7.16933 5.85985L7.37548 6.58096L7.16933 5.85985ZM12.5347 5.34212L13.0651 4.8118L12.8815 4.62826L12.6238 4.59743L12.5347 5.34212ZM10.9409 20.3405L11.3307 19.6997H11.3307L10.9409 20.3405ZM12.0373 21.0074L11.6475 21.6481L11.6714 21.6627L11.6963 21.6754L12.0373 21.0074ZM16.9091 19.5123L16.2459 19.1621V19.1621L16.9091 19.5123ZM18.0602 16.7507L18.7813 16.9569L18.0602 16.7507ZM18.9837 16.1656C19.0754 15.7617 18.8222 15.3599 18.4182 15.2683C18.0142 15.1767 17.6125 15.4299 17.5209 15.8339L18.9837 16.1656ZM19.9758 2.88373L17.8544 5.00505L18.9151 6.06571L21.0364 3.94439L19.9758 2.88373ZM13.2583 6.06579C14.5275 4.79657 16.5853 4.79653 17.8544 6.06571L18.9151 5.00505C17.0601 3.15004 14.0526 3.15016 12.1976 5.00513L13.2583 6.06579ZM17.8544 6.06571C19.1236 7.33493 19.1237 9.39279 17.8545 10.662L18.9151 11.7226C20.7701 9.86764 20.7701 6.86003 18.9151 5.00505L17.8544 6.06571ZM4.22027 12.5892L3.5534 11.493L2.27189 12.2726L2.93877 13.3688L4.22027 12.5892ZM4.75791 7.67414C5.58484 7.23752 6.49161 6.83364 7.37548 6.58096L6.96319 5.13874C5.94531 5.42972 4.93822 5.88268 4.05755 6.34768L4.75791 7.67414ZM7.37548 6.58096C8.72904 6.19401 10.005 6.07019 10.9451 6.04415C11.4139 6.03117 11.7957 6.04259 12.0575 6.05694C12.1882 6.06411 12.2888 6.07199 12.3549 6.07788C12.388 6.08083 12.4125 6.08327 12.4278 6.08487C12.4354 6.08568 12.4408 6.08627 12.4438 6.0866C12.4453 6.08677 12.4462 6.08688 12.4465 6.08692C12.4467 6.08693 12.4467 6.08693 12.4465 6.08692C12.4465 6.08691 12.4464 6.0869 12.4462 6.08688C12.4461 6.08687 12.446 6.08685 12.446 6.08685C12.4458 6.08683 12.4457 6.08681 12.5347 5.34212C12.6238 4.59743 12.6236 4.59741 12.6234 4.59739C12.6234 4.59738 12.6232 4.59736 12.623 4.59734C12.6227 4.5973 12.6224 4.59726 12.622 4.59722C12.6213 4.59713 12.6204 4.59702 12.6193 4.5969C12.6172 4.59666 12.6145 4.59634 12.6111 4.59597C12.6045 4.59522 12.5954 4.59423 12.584 4.59304C12.5612 4.59065 12.529 4.58745 12.488 4.5838C12.4059 4.57649 12.2884 4.56734 12.1396 4.55919C11.8421 4.54288 11.4187 4.53046 10.9036 4.54473C9.87585 4.57319 8.46912 4.70823 6.96319 5.13874L7.37548 6.58096ZM3.58065 11.5418C2.87955 10.1683 3.34321 8.42109 4.75791 7.67414L4.05755 6.34768C1.85844 7.50879 1.20164 10.1805 2.24464 12.2238L3.58065 11.5418ZM10.5511 20.9812L11.6475 21.6481L12.4271 20.3667L11.3307 19.6997L10.5511 20.9812ZM17.5724 19.8625C18.0374 18.9818 18.4903 17.9747 18.7813 16.9569L17.3391 16.5446C17.0864 17.4284 16.6825 18.3352 16.2459 19.1621L17.5724 19.8625ZM11.6963 21.6754C13.7396 22.7184 16.4113 22.0616 17.5724 19.8625L16.2459 19.1621C15.499 20.5768 13.7518 21.0405 12.3782 20.3394L11.6963 21.6754ZM12.0044 5.87245L17.8545 11.7226L18.9151 10.662L13.0651 4.8118L12.0044 5.87245ZM2.93877 13.3688C4.83065 16.4788 7.4412 19.0893 10.5511 20.9812L11.3307 19.6997C8.42584 17.9325 5.98742 15.4941 4.22027 12.5892L2.93877 13.3688ZM18.7813 16.9569C18.8578 16.6893 18.9249 16.425 18.9837 16.1656L17.5209 15.8339C17.4679 16.0676 17.4076 16.305 17.3391 16.5446L18.7813 16.9569Z" fill="#1C274C"/>
</g>
</svg>
