<svg width="24" height="24" viewBox="0 0 24 24" fill="none" xmlns="http://www.w3.org/2000/svg">
<g id="Outline / Building, Infrastructure / Buildings">
<path id="Vector (Stroke)" fill-rule="evenodd" clip-rule="evenodd" d="M14.948 1.25H17.052C17.9505 1.24997 18.6997 1.24995 19.2945 1.32991C19.9223 1.41432 20.4891 1.59999 20.9445 2.05546C21.4 2.51093 21.5857 3.07773 21.6701 3.70552C21.7501 4.30031 21.75 5.04953 21.75 5.94801V21.25H22C22.4142 21.25 22.75 21.5858 22.75 22C22.75 22.4142 22.4142 22.75 22 22.75H2C1.58579 22.75 1.25 22.4142 1.25 22C1.25 21.5858 1.58579 21.25 2 21.25H2.25L2.25 8.948C2.24997 8.04952 2.24994 7.3003 2.32991 6.70552C2.41432 6.07773 2.59999 5.51093 3.05546 5.05546C3.51093 4.59999 4.07773 4.41432 4.70552 4.32991C5.3003 4.24995 6.04952 4.24997 6.948 4.25L10.278 4.25C10.3294 3.37583 10.4906 2.62032 11.0555 2.05546C11.5109 1.59999 12.0777 1.41432 12.7055 1.32991C13.3003 1.24995 14.0495 1.24997 14.948 1.25ZM11.0068 5.75C11.0055 5.75 11.0043 5.75 11.003 5.75C11.002 5.75 11.001 5.75 11 5.75H7C6.03599 5.75 5.38843 5.7516 4.90539 5.81654C4.44393 5.87858 4.24643 5.9858 4.11612 6.11612C3.9858 6.24644 3.87858 6.44393 3.81654 6.90539C3.75159 7.38843 3.75 8.03599 3.75 9V21.25H8.25V19C8.25 18.5858 8.58579 18.25 9 18.25C9.41421 18.25 9.75 18.5858 9.75 19V21.25H14.25V9C14.25 8.03599 14.2484 7.38843 14.1835 6.90539C14.1214 6.44393 14.0142 6.24644 13.8839 6.11612C13.7536 5.9858 13.5561 5.87858 13.0946 5.81654C12.6127 5.75175 11.9671 5.75001 11.0068 5.75ZM15.75 21.25L15.75 8.94801C15.75 8.04953 15.7501 7.30031 15.6701 6.70552C15.5857 6.07773 15.4 5.51093 14.9445 5.05546C14.4891 4.59999 13.9223 4.41432 13.2945 4.32991C12.8691 4.27273 12.3648 4.25645 11.7834 4.25183C11.8335 3.55219 11.9436 3.28863 12.1161 3.11612C12.2464 2.9858 12.4439 2.87858 12.9054 2.81654C13.3884 2.7516 14.036 2.75 15 2.75H17C17.964 2.75 18.6116 2.7516 19.0946 2.81654C19.5561 2.87858 19.7536 2.9858 19.8839 3.11612C20.0142 3.24644 20.1214 3.44393 20.1835 3.90539C20.2484 4.38843 20.25 5.03599 20.25 6V21.25H15.75ZM5.25 8C5.25 7.58579 5.58579 7.25 6 7.25H12C12.4142 7.25 12.75 7.58579 12.75 8C12.75 8.41422 12.4142 8.75 12 8.75H6C5.58579 8.75 5.25 8.41422 5.25 8ZM5.25 11C5.25 10.5858 5.58579 10.25 6 10.25H12C12.4142 10.25 12.75 10.5858 12.75 11C12.75 11.4142 12.4142 11.75 12 11.75H6C5.58579 11.75 5.25 11.4142 5.25 11ZM5.25 14C5.25 13.5858 5.58579 13.25 6 13.25H12C12.4142 13.25 12.75 13.5858 12.75 14C12.75 14.4142 12.4142 14.75 12 14.75H6C5.58579 14.75 5.25 14.4142 5.25 14Z" fill="#1C274C"/>
</g>
</svg>
