<svg width="24" height="24" viewBox="0 0 24 24" fill="none" xmlns="http://www.w3.org/2000/svg">
<g id="Outline / Call / Call Cancel ">
<g id="Vector">
<path fill-rule="evenodd" clip-rule="evenodd" d="M8.98569 3.47641C7.9721 2.04283 5.94388 1.80096 4.7177 3.0919L3.1481 4.7444C2.61224 5.30855 2.20497 6.09224 2.25401 7.00591C2.35326 8.85513 3.13844 12.64 7.27161 16.9915C11.701 21.6548 15.9261 21.8893 17.75 21.7092C18.497 21.6355 19.1016 21.2371 19.545 20.7703L20.9655 19.2747C22.2705 17.9008 21.8904 15.6016 20.2575 14.6617L18.347 13.5621C17.2485 12.9298 15.8862 13.111 15.0124 14.031L14.6038 14.4612C14.5748 14.4714 14.484 14.4959 14.3103 14.4677C13.9078 14.4023 13.0391 14.0469 11.607 12.5392C10.1793 11.0361 9.82765 10.1104 9.7609 9.65489C9.7287 9.43513 9.76142 9.31935 9.77436 9.28299L9.7765 9.27719L10.0214 9.0194C10.9889 8.00073 11.0574 6.40656 10.2467 5.25989L8.98569 3.47641ZM5.80528 4.12493C6.32812 3.57449 7.24855 3.61773 7.7609 4.34237L9.02189 6.12586C9.44403 6.72292 9.3793 7.51731 8.93376 7.98637L8.64695 8.28834L9.17861 8.79333C8.64694 8.28835 8.64625 8.28907 8.64556 8.2898L8.64415 8.2913L8.64125 8.29441L8.63514 8.30104L8.62182 8.31603C8.61246 8.32678 8.60219 8.33909 8.5912 8.35298C8.56922 8.38075 8.54435 8.41489 8.51826 8.45566C8.46594 8.53742 8.40921 8.64508 8.36116 8.78011C8.26346 9.05468 8.21022 9.41827 8.27675 9.87234C8.40746 10.7645 8.99202 11.9642 10.5194 13.5722C12.0422 15.1755 13.1924 15.8058 14.0699 15.9483C14.5201 16.0214 14.8846 15.963 15.1606 15.8541C15.2955 15.8009 15.4023 15.7384 15.4824 15.6816C15.5223 15.6533 15.5556 15.6264 15.5825 15.6028C15.5959 15.591 15.6078 15.5801 15.6181 15.5701L15.6324 15.556L15.6388 15.5495L15.6417 15.5464L15.6432 15.545C15.6438 15.5442 15.6445 15.5435 15.1174 15.0428L15.6446 15.5435L16.1 15.064C16.4854 14.6582 17.086 14.567 17.5987 14.8621L19.5092 15.9618C20.3301 16.4342 20.4907 17.5965 19.8779 18.2417L18.4574 19.7373C18.1783 20.031 17.8864 20.1885 17.6026 20.2165C16.1676 20.3581 12.4234 20.2373 8.35919 15.9584C4.48307 11.8776 3.83289 8.43533 3.75185 6.92552C3.73042 6.52621 3.90429 6.12632 4.23568 5.77743L5.80528 4.12493Z" fill="#1C274C"/>
<path d="M16.5304 3.46945C16.2375 3.17655 15.7626 3.17655 15.4697 3.46945C15.1768 3.76234 15.1768 4.23721 15.4697 4.53011L16.9394 5.99978L15.4697 7.46945C15.1768 7.76234 15.1768 8.23721 15.4697 8.53011C15.7626 8.823 16.2375 8.823 16.5304 8.53011L18 7.06044L19.4697 8.53009C19.7626 8.82298 20.2374 8.82298 20.5303 8.53009C20.8232 8.2372 20.8232 7.76232 20.5303 7.46943L19.0607 5.99978L20.5304 4.53012C20.8232 4.23723 20.8232 3.76236 20.5304 3.46946C20.2375 3.17657 19.7626 3.17657 19.4697 3.46946L18 4.93912L16.5304 3.46945Z" fill="#1C274C"/>
</g>
</g>
</svg>
