<svg width="24" height="24" viewBox="0 0 24 24" fill="none" xmlns="http://www.w3.org/2000/svg">
<g id="Bold Duotone / Shopping, Ecommerce / Cart 5">
<path id="Vector" opacity="0.5" d="M3.55514 14.2572C2.83668 10.9043 2.47745 9.22793 3.378 8.11397C4.27855 7 5.99302 7 9.42196 7H14.5781C18.0071 7 19.7215 7 20.6221 8.11397C21.5226 9.22793 21.1634 10.9043 20.4449 14.2572L20.0164 16.2572C19.5294 18.5297 19.2859 19.666 18.4608 20.333C17.6357 21 16.4737 21 14.1495 21H9.85053C7.52639 21 6.36432 21 5.53925 20.333C4.71418 19.666 4.47069 18.5297 3.98372 16.2572L3.55514 14.2572Z" fill="#1C274C"/>
<g id="Vector_2">
<path d="M8 11.25C7.58579 11.25 7.25 11.5858 7.25 12C7.25 12.4142 7.58579 12.75 8 12.75H16C16.4142 12.75 16.75 12.4142 16.75 12C16.75 11.5858 16.4142 11.25 16 11.25H8Z" fill="#1C274C"/>
<path d="M9.25 15C9.25 14.5858 9.58579 14.25 10 14.25H14C14.4142 14.25 14.75 14.5858 14.75 15C14.75 15.4142 14.4142 15.75 14 15.75H10C9.58579 15.75 9.25 15.4142 9.25 15Z" fill="#1C274C"/>
</g>
<path id="Vector_3" fill-rule="evenodd" clip-rule="evenodd" d="M14.6648 2.32919C15.0352 2.14395 15.4857 2.29412 15.671 2.6646L18.671 8.6646C18.8562 9.03509 18.7061 9.48559 18.3356 9.67083C17.9651 9.85607 17.5146 9.70591 17.3293 9.33542L14.3293 3.33542C14.1441 2.96494 14.2943 2.51443 14.6648 2.32919Z" fill="#1C274C"/>
<path id="Vector_4" fill-rule="evenodd" clip-rule="evenodd" d="M9.33525 2.32919C8.96476 2.14395 8.51426 2.29412 8.32902 2.6646L5.32902 8.6646C5.14377 9.03509 5.29394 9.48559 5.66443 9.67083C6.03491 9.85607 6.48541 9.70591 6.67066 9.33542L9.67066 3.33542C9.8559 2.96494 9.70573 2.51443 9.33525 2.32919Z" fill="#1C274C"/>
</g>
</svg>
