<svg width="24" height="24" viewBox="0 0 24 24" fill="none" xmlns="http://www.w3.org/2000/svg">
<g id="Bold Duotone / Shopping, Ecommerce / Cart Large Minimalistic">
<path id="Vector" fill-rule="evenodd" clip-rule="evenodd" d="M3.03998 2.29242C2.64921 2.15503 2.22106 2.36044 2.08368 2.7512C1.94629 3.14197 2.1517 3.57012 2.54246 3.7075L2.80367 3.79934C3.47128 4.03406 3.91003 4.18961 4.23288 4.34802C4.5361 4.4968 4.66977 4.61723 4.75783 4.74609C4.84809 4.87818 4.91779 5.0596 4.95712 5.42295C4.99828 5.80316 4.9993 6.29837 4.9993 7.03832L4.9993 9.64H20.7235C21.054 7.98245 21.2091 7.14042 20.7757 6.57708C20.3318 6 18.815 6 17.1301 6H6.49184C6.48515 5.72967 6.47247 5.48373 6.44841 5.26153C6.39468 4.76515 6.27827 4.31243 5.99629 3.89979C5.71211 3.48393 5.33426 3.21759 4.89363 3.00139C4.48154 2.79919 3.95791 2.61511 3.34138 2.39838L3.03998 2.29242Z" fill="#1C274C"/>
<path id="Vector_2" opacity="0.5" d="M20.1999 12.1874L20.6997 9.76264L20.7242 9.63989H5C5 12.5815 5.06324 13.5522 5.92964 14.4661C6.79604 15.3799 8.19049 15.3799 10.9794 15.3799H16.2823C17.8433 15.3799 18.6238 15.3799 19.1755 14.9303C19.7273 14.4807 19.8848 13.7162 20.1999 12.1874Z" fill="#1C274C"/>
<g id="Vector_3">
<path d="M7.5 18C8.32843 18 9 18.6716 9 19.5C9 20.3284 8.32843 21 7.5 21C6.67157 21 6 20.3284 6 19.5C6 18.6716 6.67157 18 7.5 18Z" fill="#1C274C"/>
<path d="M16.5 18.0001C17.3284 18.0001 18 18.6716 18 19.5001C18 20.3285 17.3284 21.0001 16.5 21.0001C15.6716 21.0001 15 20.3285 15 19.5001C15 18.6716 15.6716 18.0001 16.5 18.0001Z" fill="#1C274C"/>
</g>
</g>
</svg>
