<svg width="24" height="24" viewBox="0 0 24 24" fill="none" xmlns="http://www.w3.org/2000/svg">
<g id="Bold Duotone / Shopping, Ecommerce / Cart Large 3">
<path id="Vector" d="M7.5 18C8.32843 18 9 18.6716 9 19.5C9 20.3284 8.32843 21 7.5 21C6.67157 21 6 20.3284 6 19.5C6 18.6716 6.67157 18 7.5 18Z" fill="#1C274C"/>
<path id="Vector_2" d="M16.5 18.0001C17.3284 18.0001 18 18.6716 18 19.5001C18 20.3285 17.3284 21.0001 16.5 21.0001C15.6716 21.0001 15 20.3285 15 19.5001C15 18.6716 15.6716 18.0001 16.5 18.0001Z" fill="#1C274C"/>
<path id="Vector_3" opacity="0.6" d="M3.03998 2.29242C2.64921 2.15503 2.22106 2.36044 2.08368 2.7512C1.94629 3.14197 2.1517 3.57012 2.54246 3.7075L2.80367 3.79934C3.47128 4.03406 3.91003 4.18961 4.23288 4.34802C4.5361 4.4968 4.66977 4.61723 4.75783 4.74609C4.84809 4.87818 4.91779 5.0596 4.95712 5.42295C4.99828 5.80316 4.9993 6.29837 4.9993 7.03832L4.9993 9.64C4.9993 12.5816 5.06254 13.5523 5.92894 14.4662C6.66411 15.2416 7.77949 15.359 9.80442 15.3768L11.3282 15.38H14.1709H15.694H16.2816C17.8426 15.38 18.6231 15.38 19.1748 14.9304C19.7266 14.4808 19.8841 13.7164 20.1992 12.1875L20.699 9.76275C21.0461 8.02369 21.2197 7.15417 20.7757 6.57708C20.3511 6.02515 18.9452 6.0011 17.3493 6.00005L15.8262 6H9.67287H8.14969H6.49184C6.48515 5.72967 6.47247 5.48373 6.44841 5.26153C6.39468 4.76515 6.27827 4.31243 5.99629 3.89979C5.71211 3.48393 5.33426 3.21759 4.89363 3.00139C4.48154 2.79919 3.95791 2.61511 3.34138 2.39838L3.03998 2.29242Z" fill="#1C274C"/>
<g id="Vector_4">
<path d="M8.14941 6L9.80442 15.3768L11.3282 15.38L9.67286 6H8.14941Z" fill="#1C274C"/>
<path d="M15.8259 6L14.1706 15.38H15.6945L17.3498 6.00005L15.8259 6Z" fill="#1C274C"/>
</g>
</g>
</svg>
