<svg width="24" height="24" viewBox="0 0 24 24" fill="none" xmlns="http://www.w3.org/2000/svg">
<g id="Outline / Video, Audio, Sound / Clapperboard Open Play">
<path id="Vector" fill-rule="evenodd" clip-rule="evenodd" d="M18.0586 4.70802C17.6561 3.89183 16.8016 3.39846 15.8935 3.45798C15.7708 3.46603 15.631 3.49231 15.3825 3.55395L14.9366 7.29311L18.0546 6.45764C18.1717 6.42626 18.2414 6.40748 18.2934 6.39161C18.3263 6.38157 18.3403 6.37616 18.3437 6.37479C18.4327 6.33001 18.4867 6.23658 18.4809 6.13708C18.4804 6.13346 18.4781 6.11864 18.4704 6.08511C18.4581 6.03213 18.4395 5.96239 18.4081 5.84527C18.2184 5.13731 18.1484 4.89007 18.0586 4.70802ZM13.3761 7.71124L13.8225 3.96816L9.10448 5.23234L8.65805 8.97543L13.3761 7.71124ZM7.09755 9.39357L7.54397 5.65051C6.72687 5.86976 6.14281 6.03001 5.69325 6.19522C5.21984 6.36921 4.9659 6.5249 4.79043 6.70037C4.51115 6.97964 4.31031 7.32751 4.20809 7.70901C4.14386 7.9487 4.136 8.24647 4.22203 8.74344C4.28459 9.10483 4.3891 9.53305 4.53282 10.0808L7.09755 9.39357ZM3.24982 11.0929C3.02399 10.2501 2.84221 9.56656 2.74401 8.99931C2.64016 8.3994 2.61537 7.85755 2.7592 7.32079C2.92957 6.68495 3.26431 6.10517 3.72977 5.63971C4.12271 5.24677 4.60436 4.99731 5.17582 4.78729C5.73027 4.58353 6.4347 4.39478 7.30813 4.16076L8.08887 3.95156C8.17636 3.90813 8.27301 3.88143 8.37416 3.87512L14.3457 2.27506C14.3529 2.27311 14.3602 2.27117 14.3674 2.26923C14.455 2.22574 14.5518 2.19903 14.6531 2.19276C15.1271 2.06677 15.474 1.98226 15.7954 1.9612C17.3089 1.862 18.7331 2.68427 19.404 4.04458C19.5679 4.37708 19.676 4.78084 19.8346 5.37321C19.8419 5.40074 19.8494 5.42868 19.857 5.45704C19.8611 5.47246 19.8653 5.48795 19.8695 5.50349C19.9169 5.67914 19.9661 5.86192 19.9776 6.037C20.0239 6.74329 19.6402 7.40793 19.0054 7.72098C18.848 7.79858 18.6651 7.8473 18.4893 7.89412C18.4737 7.89827 18.4582 7.9024 18.4428 7.90653L9.69708 10.2499L16.0518 10.2499C16.9503 10.2499 17.6995 10.2499 18.2943 10.3299C18.9221 10.4143 19.4889 10.5999 19.9444 11.0554C20.3998 11.5109 20.5855 12.0777 20.6699 12.7055C20.7499 13.3002 20.7498 14.0495 20.7498 14.9479V16.0548C20.7498 17.4224 20.7499 18.5247 20.6333 19.3917C20.5123 20.2918 20.2534 21.0497 19.6515 21.6516C19.0495 22.2535 18.2917 22.5124 17.3916 22.6334C16.5246 22.75 15.4223 22.75 14.0547 22.7499H9.94495C8.57735 22.75 7.47503 22.75 6.60806 22.6334C5.70796 22.5124 4.95008 22.2535 4.34817 21.6516C3.74625 21.0497 3.48736 20.2918 3.36634 19.3917C3.24978 18.5247 3.24979 17.4224 3.24982 16.0548L3.24982 11.0929ZM4.74982 11.7499V15.9999C4.74982 17.4354 4.75141 18.4365 4.85296 19.1918C4.95162 19.9256 5.13206 20.3142 5.40883 20.5909C5.68559 20.8677 6.07416 21.0481 6.80794 21.1468C7.56329 21.2483 8.5644 21.2499 9.99982 21.2499H13.9998C15.4352 21.2499 16.4363 21.2483 17.1917 21.1468C17.9255 21.0481 18.314 20.8677 18.5908 20.5909C18.8676 20.3142 19.048 19.9256 19.1467 19.1918C19.2482 18.4365 19.2498 17.4354 19.2498 15.9999V14.9999C19.2498 14.0359 19.2482 13.3884 19.1833 12.9053C19.1212 12.4439 19.014 12.2464 18.8837 12.1161C18.7534 11.9857 18.5559 11.8785 18.0944 11.8165C17.6114 11.7515 16.9638 11.7499 15.9998 11.7499H4.74982ZM13.1984 14.5803C13.214 14.5915 13.2296 14.6027 13.2452 14.6139C13.2592 14.6239 13.2732 14.6339 13.2871 14.6439C13.648 14.9026 13.9868 15.1454 14.2276 15.382C14.4977 15.6474 14.7498 16.0052 14.7498 16.4999C14.7498 16.9947 14.4977 17.3525 14.2276 17.6179C13.9868 17.8545 13.648 18.0973 13.2871 18.356L13.2452 18.386C13.2296 18.3972 13.214 18.4084 13.1984 18.4195C12.8366 18.6791 12.4917 18.9264 12.1966 19.072C11.8816 19.2274 11.3634 19.3932 10.8675 19.0432C10.4369 18.7393 10.3339 18.2483 10.2927 17.9047C10.2497 17.5467 10.2498 17.0794 10.2498 16.5465V16.4533C10.2498 15.9204 10.2497 15.4532 10.2927 15.0952C10.3339 14.7516 10.4369 14.2606 10.8675 13.9567C11.3634 13.6066 11.8816 13.7724 12.1966 13.9278C12.4917 14.0734 12.8366 14.3208 13.1984 14.5803ZM11.769 15.412C11.7507 15.6617 11.7498 16.0049 11.7498 16.4999C11.7498 16.995 11.7507 17.3382 11.769 17.5879C11.9176 17.4909 12.1098 17.3544 12.3712 17.1669C12.7891 16.8673 13.0291 16.6926 13.1762 16.548C13.1955 16.5291 13.2106 16.5131 13.2224 16.4999C13.2106 16.4867 13.1955 16.4708 13.1762 16.4519C13.0291 16.3073 12.7891 16.1326 12.3712 15.833C12.1098 15.6455 11.9176 15.5089 11.769 15.412Z" fill="#1C274C"/>
</g>
</svg>
