<svg width="24" height="24" viewBox="0 0 24 24" fill="none" xmlns="http://www.w3.org/2000/svg">
<g id="Bold Duotone / Home, Furniture / Closet ">
<path id="Vector" fill-rule="evenodd" clip-rule="evenodd" d="M2.02539 15.75C2.09152 17.7712 2.32771 18.9849 3.17125 19.8284C3.47566 20.1328 3.82829 20.3582 4.24967 20.5249V22C4.24967 22.4142 4.58546 22.75 4.99967 22.75C5.41389 22.75 5.74967 22.4142 5.74967 22V20.8713C6.81956 21 8.19331 21 9.99967 21H12H13.9997C15.806 21 17.1798 21 18.2497 20.8713V22C18.2497 22.4142 18.5855 22.75 18.9997 22.75C19.4139 22.75 19.7497 22.4142 19.7497 22V20.5249C20.1711 20.3582 20.5237 20.1328 20.8281 19.8284C21.6363 19.0203 21.887 17.8723 21.9647 16L21.974 15.75C21.9758 15.358 21.9997 13.4419 21.9997 13V10C21.9997 6.22876 21.9997 4.34315 20.8281 3.17157C19.6565 2 17.7709 2 13.9997 2H12.7497V15.75H12H2.02539ZM6.24967 18C6.24967 17.5858 6.58546 17.25 6.99967 17.25H8.99967C9.41389 17.25 9.74967 17.5858 9.74967 18C9.74967 18.4142 9.41389 18.75 8.99967 18.75H6.99967C6.58546 18.75 6.24967 18.4142 6.24967 18ZM14.9997 17.25C14.5855 17.25 14.2497 17.5858 14.2497 18C14.2497 18.4142 14.5855 18.75 14.9997 18.75H16.9997C17.4139 18.75 17.7497 18.4142 17.7497 18C17.7497 17.5858 17.4139 17.25 16.9997 17.25H14.9997ZM14.9997 7.25C15.4139 7.25 15.7497 7.58579 15.7497 8V10C15.7497 10.4142 15.4139 10.75 14.9997 10.75C14.5855 10.75 14.2497 10.4142 14.2497 10V8C14.2497 7.58579 14.5855 7.25 14.9997 7.25Z" fill="#1C274C"/>
<g id="Vector_2" opacity="0.5">
<path d="M10 2H11.25V7.25H2.02572C2.09185 5.22882 2.32803 4.01511 3.17157 3.17157C4.34315 2 6.22876 2 10 2Z" fill="#1C274C"/>
<path d="M2.00189 8.75C2 9.14203 2 9.55807 2 10V13C2 13.4419 2.02351 15.358 2.02539 15.75H11.25V8.75H2.00189Z" fill="#1C274C"/>
</g>
</g>
</svg>
