<svg width="24" height="24" viewBox="0 0 24 24" fill="none" xmlns="http://www.w3.org/2000/svg">
<g id="Line Duotone / Essentional, UI / Crown Star">
<path id="Vector" d="M21.609 13.5616L21.8382 11.1263C22.0182 9.2137 22.1082 8.25739 21.781 7.86207C21.604 7.64823 21.3633 7.5172 21.106 7.4946C20.6303 7.45282 20.0329 8.1329 18.8381 9.49307C18.2202 10.1965 17.9113 10.5482 17.5666 10.6027C17.3757 10.6328 17.1811 10.6018 17.0047 10.5131C16.6865 10.3529 16.4743 9.91812 16.0499 9.04851L13.8131 4.46485C13.0112 2.82162 12.6102 2 12 2C11.3898 2 10.9888 2.82162 10.1869 4.46486L7.95007 9.04852C7.5257 9.91812 7.31351 10.3529 6.99526 10.5131C6.81892 10.6018 6.62434 10.6328 6.43337 10.6027C6.08872 10.5482 5.77977 10.1965 5.16187 9.49307C3.96708 8.1329 3.36968 7.45282 2.89399 7.4946C2.63666 7.5172 2.39598 7.64823 2.21899 7.86207C1.8918 8.25739 1.9818 9.2137 2.16181 11.1263L2.391 13.5616C2.76865 17.5742 2.95748 19.5805 4.14009 20.7902C5.32271 22 7.09517 22 10.6401 22H13.3599C16.9048 22 18.6773 22 19.8599 20.7902C21.0425 19.5805 21.2313 17.5742 21.609 13.5616Z" stroke="#1C274C" stroke-width="1.5"/>
<path id="Vector_2" opacity="0.5" d="M11.1459 12.5225C11.5259 11.8408 11.7159 11.5 12 11.5C12.2841 11.5 12.4741 11.8408 12.8541 12.5225L12.9524 12.6989C13.0603 12.8926 13.1143 12.9894 13.1985 13.0533C13.2827 13.1172 13.3875 13.141 13.5972 13.1884L13.7881 13.2316C14.526 13.3986 14.895 13.482 14.9828 13.7643C15.0706 14.0466 14.819 14.3407 14.316 14.929L14.1858 15.0812C14.0429 15.2483 13.9714 15.3319 13.9392 15.4353C13.9071 15.5387 13.9179 15.6502 13.9395 15.8733L13.9592 16.0763C14.0352 16.8612 14.0733 17.2536 13.8435 17.4281C13.6136 17.6025 13.2682 17.4435 12.5773 17.1254L12.3986 17.0431C12.2022 16.9527 12.1041 16.9075 12 16.9075C11.8959 16.9075 11.7978 16.9527 11.6014 17.0431L11.4227 17.1254C10.7318 17.4435 10.3864 17.6025 10.1565 17.4281C9.92674 17.2536 9.96476 16.8612 10.0408 16.0763L10.0605 15.8733C10.0821 15.6502 10.0929 15.5387 10.0608 15.4353C10.0286 15.3319 9.95713 15.2483 9.81418 15.0812L9.68403 14.929C9.18097 14.3407 8.92945 14.0466 9.01723 13.7643C9.10501 13.482 9.47396 13.3986 10.2119 13.2316L10.4028 13.1884C10.6125 13.141 10.7173 13.1172 10.8015 13.0533C10.8857 12.9894 10.9397 12.8926 11.0476 12.6989L11.1459 12.5225Z" stroke="#1C274C" stroke-width="1.5"/>
</g>
</svg>
