<svg width="24" height="24" viewBox="0 0 24 24" fill="none" xmlns="http://www.w3.org/2000/svg">
<g id="Linear / Messages, Coversation / Dialog">
<path id="Vector" d="M10 22C14.4183 22 18 18.4183 18 14C18 9.58172 14.4183 6 10 6C5.58172 6 2 9.58172 2 14C2 15.2355 2.28008 16.4056 2.7802 17.4502C2.95209 17.8093 3.01245 18.2161 2.90955 18.6006L2.58151 19.8267C2.32295 20.793 3.20701 21.677 4.17335 21.4185L5.39939 21.0904C5.78393 20.9876 6.19071 21.0479 6.54976 21.2198C7.5944 21.7199 8.76449 22 10 22Z" stroke="#1C274C" stroke-width="1.5"/>
<path id="Vector_2" d="M18 14.5018C18.0665 14.4741 18.1324 14.4453 18.1977 14.4155C18.5598 14.2501 18.9661 14.1882 19.3506 14.2911L19.8267 14.4185C20.793 14.677 21.677 13.793 21.4185 12.8267L21.2911 12.3506C21.1882 11.9661 21.2501 11.5598 21.4155 11.1977C21.7908 10.376 22 9.46242 22 8.5C22 4.91015 19.0899 2 15.5 2C12.7977 2 10.4806 3.64899 9.5 5.9956" stroke="#1C274C" stroke-width="1.5"/>
<g id="Vector_3">
<path d="M7.5 14C7.5 14.5523 7.05228 15 6.5 15C5.94772 15 5.5 14.5523 5.5 14C5.5 13.4477 5.94772 13 6.5 13C7.05228 13 7.5 13.4477 7.5 14Z" fill="#1C274C"/>
<path d="M11 14C11 14.5523 10.5523 15 10 15C9.44772 15 9 14.5523 9 14C9 13.4477 9.44772 13 10 13C10.5523 13 11 13.4477 11 14Z" fill="#1C274C"/>
<path d="M14.5 14C14.5 14.5523 14.0523 15 13.5 15C12.9477 15 12.5 14.5523 12.5 14C12.5 13.4477 12.9477 13 13.5 13C14.0523 13 14.5 13.4477 14.5 14Z" fill="#1C274C"/>
</g>
</g>
</svg>
