<svg width="24" height="24" viewBox="0 0 24 24" fill="none" xmlns="http://www.w3.org/2000/svg">
<g id="Outline / Arrows / Double Alt Arrow Left">
<path id="Vector (Stroke)" fill-rule="evenodd" clip-rule="evenodd" d="M17.488 4.43057C17.8025 4.70014 17.8389 5.17361 17.5693 5.48811L11.9877 12L17.5693 18.5119C17.8389 18.8264 17.8025 19.2999 17.488 19.5695C17.1735 19.839 16.7 19.8026 16.4305 19.4881L10.4305 12.4881C10.1897 12.2072 10.1897 11.7928 10.4305 11.5119L16.4305 4.51192C16.7 4.19743 17.1735 4.161 17.488 4.43057ZM13.4881 4.43067C13.8026 4.70024 13.839 5.17372 13.5694 5.48821L7.98781 12.0001L13.5694 18.512C13.839 18.8265 13.8026 19.3 13.4881 19.5696C13.1736 19.8391 12.7001 19.8027 12.4306 19.4882L6.43056 12.4882C6.18981 12.2073 6.18981 11.7929 6.43056 11.512L12.4306 4.51202C12.7001 4.19753 13.1736 4.16111 13.4881 4.43067Z" fill="#1C274C"/>
</g>
</svg>
