<svg width="24" height="24" viewBox="0 0 24 24" fill="none" xmlns="http://www.w3.org/2000/svg">
<g id="Outline / Arrows / Double Alt Arrow Right">
<path id="Vector (Stroke)" fill-rule="evenodd" clip-rule="evenodd" d="M6.51192 4.43057C6.82641 4.161 7.29989 4.19743 7.56946 4.51192L13.5695 11.5119C13.8102 11.7928 13.8102 12.2072 13.5695 12.4881L7.56946 19.4881C7.29989 19.8026 6.82641 19.839 6.51192 19.5695C6.19743 19.2999 6.161 18.8264 6.43057 18.5119L12.0122 12L6.43057 5.48811C6.161 5.17361 6.19743 4.70014 6.51192 4.43057ZM10.5121 4.43068C10.8266 4.16111 11.3001 4.19753 11.5697 4.51202L17.5697 11.512C17.8104 11.7929 17.8104 12.2073 17.5697 12.4882L11.5697 19.4882C11.3001 19.8027 10.8266 19.8391 10.5121 19.5696C10.1976 19.3 10.1612 18.8265 10.4308 18.512L16.0124 12.0001L10.4308 5.48821C10.1612 5.17372 10.1976 4.70024 10.5121 4.43068Z" fill="#1C274C"/>
</g>
</svg>
