<svg width="24" height="24" viewBox="0 0 24 24" fill="none" xmlns="http://www.w3.org/2000/svg">
<g id="Outline / Sports / Dumbbells">
<path id="Vector" fill-rule="evenodd" clip-rule="evenodd" d="M4.92883 1.53015L4.97762 1.53694C5.26567 1.57701 5.52048 1.61246 5.73071 1.65748C5.95471 1.70544 6.18257 1.7746 6.40036 1.90876C6.88268 2.20585 7.221 2.6863 7.35858 3.23251C7.42779 3.50732 7.40884 3.86904 7.38807 4.1394C7.38172 4.22215 7.37396 4.30823 7.36524 4.3962L12.0218 5.04417C12.0332 4.96582 12.045 4.88927 12.0572 4.81565C12.1014 4.54986 12.1695 4.19252 12.3039 3.94223C12.5709 3.44482 13.0206 3.06574 13.5671 2.9078C13.8138 2.83652 14.053 2.83232 14.2807 2.84723C14.4948 2.86126 14.7496 2.89673 15.0376 2.93681L15.0864 2.9436C15.3744 2.98367 15.6292 3.01912 15.8395 3.06413C16.0635 3.1121 16.2913 3.18126 16.5091 3.31541C16.9914 3.61251 17.3298 4.09296 17.4673 4.63917C17.5284 4.88152 17.5328 5.11858 17.5193 5.35385C17.5066 5.57771 17.474 5.84601 17.4362 6.15777L17.0863 9.04261C17.0485 9.35432 17.016 9.62269 16.9749 9.84275C16.9318 10.0736 16.8708 10.3035 16.7523 10.5241C16.4853 11.0215 16.0356 11.4006 15.4891 11.5585C15.2424 11.6298 15.0032 11.634 14.7755 11.6191C14.5614 11.6051 14.3066 11.5696 14.0186 11.5295L13.9699 11.5227C13.6818 11.4827 13.427 11.4472 13.2167 11.4022C12.9927 11.3542 12.7649 11.2851 12.5471 11.1509C12.0648 10.8538 11.7264 10.3734 11.5889 9.82716C11.5197 9.55235 11.5386 9.19063 11.5594 8.92027C11.5657 8.83752 11.5735 8.75144 11.5822 8.66347L6.92567 8.0155C6.91428 8.09385 6.90249 8.17039 6.89025 8.24402C6.84605 8.50981 6.77795 8.86715 6.64358 9.11744C6.37653 9.61485 5.92687 9.99393 5.38031 10.1519C5.13367 10.2231 4.89448 10.2273 4.66679 10.2124C4.45265 10.1984 4.19779 10.1629 3.90985 10.1229L3.86108 10.1161C3.57304 10.076 3.31822 10.0406 3.108 9.99553C2.88399 9.94757 2.65613 9.87841 2.43834 9.74426C1.95603 9.44716 1.6177 8.96671 1.48012 8.4205C1.41908 8.17815 1.41469 7.94109 1.42811 7.70583C1.44089 7.48195 1.47344 7.21364 1.51127 6.90185L1.86115 4.01701C1.89895 3.70532 1.93148 3.43697 1.97255 3.21691C2.01564 2.98608 2.07668 2.75619 2.19512 2.53557C2.46217 2.03816 2.91184 1.65908 3.45839 1.50114C3.70503 1.42987 3.94422 1.42566 4.17191 1.44058C4.38604 1.4546 4.6409 1.49008 4.92883 1.53015ZM4.07389 2.93737C3.92854 2.92785 3.88492 2.93926 3.87482 2.94218C3.73673 2.98208 3.60316 3.08406 3.5167 3.2451C3.50258 3.27141 3.47728 3.3304 3.44709 3.49212C3.41588 3.65936 3.3888 3.87965 3.34752 4.22005L3.00306 7.06013C2.96178 7.40047 2.9354 7.62093 2.92568 7.79131C2.9163 7.95562 2.92647 8.02149 2.9347 8.05414C2.98183 8.24128 3.09262 8.38554 3.22503 8.4671C3.23776 8.47494 3.27959 8.49828 3.42208 8.52879C3.57244 8.56098 3.77248 8.58929 4.09215 8.63377C4.4119 8.67826 4.61194 8.70563 4.76481 8.71564C4.91017 8.72516 4.95378 8.71376 4.96388 8.71084C5.09987 8.67154 5.23148 8.57204 5.31802 8.41522C5.31854 8.41304 5.32966 8.38533 5.34663 8.3183C5.36719 8.23711 5.38859 8.13011 5.41057 7.99797C5.4547 7.73254 5.49356 7.41339 5.53424 7.07796C5.55847 6.87822 5.66192 6.6966 5.82137 6.57389C5.98081 6.45118 6.18288 6.39769 6.38215 6.42541L12.5137 7.27863C12.9189 7.33501 13.2041 7.70568 13.1549 8.11178C13.1142 8.44718 13.0756 8.76641 13.055 9.03517C13.0447 9.16896 13.0398 9.27846 13.0403 9.36293C13.0408 9.43725 13.0455 9.46725 13.0451 9.46731C13.0932 9.65129 13.2029 9.79315 13.3338 9.87376C13.3465 9.8816 13.3883 9.90493 13.5308 9.93544C13.6812 9.96764 13.8812 9.99594 14.2009 10.0404C14.5206 10.0849 14.7207 10.1123 14.8736 10.1223C15.0189 10.1318 15.0625 10.1204 15.0726 10.1175C15.2107 10.0776 15.3443 9.97561 15.4307 9.81457C15.4449 9.78827 15.4702 9.72928 15.5004 9.56755C15.5316 9.4003 15.5586 9.18001 15.5999 8.83962L15.9444 5.99954C15.9857 5.65921 16.012 5.43874 16.0218 5.26836C16.0311 5.10404 16.021 5.03818 16.0127 5.00553C15.9656 4.81839 15.8548 4.67413 15.7224 4.59256C15.7097 4.58472 15.6679 4.56139 15.5254 4.53088C15.375 4.49869 15.175 4.47038 14.8553 4.4259C14.5355 4.38141 14.3355 4.35404 14.1826 4.34403C14.0373 4.33451 13.9937 4.34591 13.9836 4.34883C13.8476 4.38813 13.716 4.48763 13.6294 4.64445C13.6289 4.64661 13.6178 4.67432 13.6008 4.74137C13.5803 4.82256 13.5589 4.92955 13.5369 5.0617C13.4927 5.32713 13.4539 5.64628 13.4132 5.98171C13.389 6.18145 13.2855 6.36307 13.1261 6.48578C12.9666 6.60849 12.7646 6.66198 12.5653 6.63425L6.43376 5.78104C6.02859 5.72466 5.74333 5.35399 5.79258 4.94789C5.83326 4.61248 5.87183 4.29326 5.89248 4.0245C5.90276 3.89071 5.90761 3.78121 5.9071 3.69674C5.90665 3.62275 5.90201 3.59269 5.90233 3.59236C5.85429 3.40838 5.74454 3.26652 5.61367 3.18591C5.60094 3.17807 5.55911 3.15474 5.41663 3.12423C5.26627 3.09203 5.06623 3.06373 4.74655 3.01924C4.4268 2.97475 4.22676 2.94738 4.07389 2.93737ZM19.1972 12.246C19.0467 12.2776 18.8515 12.3332 18.5401 12.4226C18.2289 12.5119 18.0337 12.5684 17.8882 12.6217C17.7504 12.6723 17.7099 12.702 17.6959 12.7135C17.5714 12.8158 17.4784 12.9768 17.4533 13.1684C17.4537 13.1684 17.4527 13.1989 17.4615 13.2728C17.4714 13.3565 17.4897 13.4642 17.5163 13.5953C17.57 13.8586 17.6476 14.1694 17.7293 14.4962C17.8274 14.8883 17.5971 15.2876 17.2086 15.3991L11.2362 17.1132C11.0408 17.1693 10.8309 17.1436 10.6547 17.042C10.4785 16.9404 10.3511 16.7716 10.3018 16.5743C10.22 16.2475 10.1421 15.9369 10.0657 15.6802C10.0276 15.5525 9.99331 15.4497 9.96307 15.3726C9.93926 15.3119 9.9253 15.2862 9.92384 15.2829C9.82204 15.1449 9.68441 15.0677 9.54828 15.0485C9.53891 15.0471 9.49445 15.0418 9.35088 15.072C9.20031 15.1036 9.00511 15.1592 8.69374 15.2486C8.38251 15.3379 8.18734 15.3944 8.04184 15.4477C7.90402 15.4983 7.86351 15.528 7.84956 15.5395C7.72371 15.6429 7.63003 15.8064 7.60614 16.0007C7.60192 16.035 7.60008 16.1019 7.62956 16.2629C7.66019 16.4302 7.7135 16.6448 7.79644 16.9764L8.48846 19.7427C8.57143 20.0744 8.62539 20.2886 8.67687 20.4496C8.72668 20.6054 8.75854 20.6587 8.77429 20.6807C8.87662 20.8235 9.0168 20.9032 9.15544 20.9228C9.1648 20.9241 9.20926 20.9294 9.35284 20.8992C9.50341 20.8676 9.69861 20.812 10.01 20.7227C10.3212 20.6333 10.5164 20.5769 10.6619 20.5235C10.7997 20.4729 10.8402 20.4432 10.8542 20.4317C10.9786 20.3294 11.0716 20.1684 11.0968 19.9768C11.0964 19.9768 11.0974 19.9464 11.0886 19.8724C11.0787 19.7887 11.0604 19.681 11.0337 19.5499C10.9801 19.2866 10.9025 18.9758 10.8208 18.6491C10.7227 18.257 10.953 17.8577 11.3414 17.7462L17.3138 16.032C17.5093 15.9759 17.7192 16.0016 17.8954 16.1032C18.0716 16.2048 18.199 16.3736 18.2483 16.5709C18.3301 16.8977 18.4079 17.2084 18.4844 17.465C18.5224 17.5928 18.5568 17.6955 18.587 17.7726C18.6108 17.8334 18.6248 17.8591 18.6262 17.8623C18.728 18.0004 18.8657 18.0776 19.0018 18.0968C19.0111 18.0981 19.0556 18.1034 19.1992 18.0732C19.3498 18.0416 19.545 17.986 19.8563 17.8967C20.1676 17.8074 20.3627 17.7509 20.5082 17.6975C20.646 17.6469 20.6866 17.6172 20.7005 17.6057C20.8264 17.5023 20.92 17.3389 20.9439 17.1445C20.9481 17.1102 20.95 17.0433 20.9205 16.8823C20.8899 16.715 20.8366 16.5004 20.7536 16.1689L20.0616 13.4025C19.9786 13.0708 19.9247 12.8566 19.8732 12.6956C19.8234 12.5398 19.7915 12.4866 19.7758 12.4646C19.6734 12.3217 19.5333 12.242 19.3946 12.2225C19.3853 12.2211 19.3408 12.2159 19.1972 12.246ZM18.8888 10.7781C19.112 10.7312 19.3498 10.7013 19.6041 10.7372C20.1685 10.8168 20.6658 11.1313 20.9952 11.591C21.1413 11.795 21.2307 12.0159 21.302 12.2388C21.3699 12.4514 21.4354 12.713 21.5112 13.0164L22.2143 15.8267C22.2902 16.1303 22.3556 16.3918 22.396 16.6121C22.4384 16.8439 22.4632 17.0794 22.4327 17.3275C22.3641 17.8862 22.0897 18.4056 21.6529 18.7645C21.4559 18.9265 21.2405 19.0266 21.0248 19.1058C20.8223 19.18 20.5744 19.2512 20.2936 19.3317L20.2464 19.3453C19.9659 19.4258 19.7179 19.497 19.5076 19.5412C19.2844 19.5881 19.0466 19.6179 18.7923 19.5821C18.2279 19.5025 17.7306 19.188 17.4012 18.7282C17.2353 18.4966 17.1232 18.1497 17.0468 17.8933C17.0269 17.8265 17.0071 17.7572 16.9875 17.6863L12.447 18.9894C12.4673 19.0788 12.4864 19.1664 12.5036 19.2507C12.5576 19.5162 12.621 19.872 12.5864 20.1535C12.5177 20.7122 12.2433 21.2316 11.8066 21.5905C11.6096 21.7525 11.3942 21.8526 11.1784 21.9317C10.976 22.006 10.7281 22.0771 10.4473 22.1577L10.4001 22.1713C10.1195 22.2518 9.87152 22.323 9.66124 22.3672C9.43806 22.4141 9.20027 22.4439 8.94598 22.4081C8.38156 22.3285 7.88426 22.014 7.55489 21.5542C7.40876 21.3502 7.31938 21.1293 7.24811 20.9064C7.18014 20.6938 7.11471 20.4322 7.03882 20.1288L6.33581 17.3185C6.25986 17.0149 6.19443 16.7534 6.15409 16.5331C6.11165 16.3013 6.08685 16.0658 6.11734 15.8178C6.18601 15.259 6.46039 14.7396 6.89712 14.3807C7.09414 14.2188 7.30954 14.1186 7.5253 14.0395C7.72778 13.9652 7.9757 13.8941 8.25651 13.8135L8.30357 13.8C8.58416 13.7194 8.83219 13.6482 9.04248 13.6041C9.26567 13.5572 9.50345 13.5273 9.75773 13.5632C10.3221 13.6427 10.8195 13.9573 11.1488 14.417C11.3148 14.6487 11.4269 14.9955 11.5033 15.252C11.5231 15.3187 11.5429 15.388 11.5626 15.459L16.1031 14.1558C16.0828 14.0664 16.0637 13.9788 16.0465 13.8946C15.9924 13.629 15.9291 13.2732 15.9637 12.9918C16.0324 12.4331 16.3067 11.9136 16.7435 11.5547C16.9405 11.3928 17.1559 11.2926 17.3716 11.2135C17.5741 11.1392 17.822 11.0681 18.1028 10.9875L18.15 10.974C18.4306 10.8934 18.6786 10.8222 18.8888 10.7781Z" fill="#1C274C"/>
</g>
</svg>
