<svg width="24" height="24" viewBox="0 0 24 24" fill="none" xmlns="http://www.w3.org/2000/svg">
<g id="Broken / Sports / Dumbbells">
<path id="Vector" d="M12.9407 10.5127L12.5574 11.1516L12.9407 10.5127ZM12.4106 8.0218L13.1534 8.12516C13.2033 7.71396 12.9111 7.33434 12.5009 7.27725L12.4106 8.0218ZM12.3164 9.6443L11.5911 9.81699L12.3164 9.6443ZM16.0918 10.1696L16.7518 10.5351L16.0918 10.1696ZM15.2811 10.8383L15.4992 11.561L15.2811 10.8383ZM16.116 3.95431L16.4993 3.31533L16.116 3.95431ZM16.7403 4.82267L17.4656 4.64998L16.7403 4.82267ZM13.7756 3.62863L13.5575 2.90597L13.7756 3.62863ZM12.6689 5.89173L12.5786 6.63628C12.9889 6.69336 13.3619 6.4063 13.4118 5.9951L12.6689 5.89173ZM12.9649 4.29732L12.3049 3.93186L12.9649 4.29732ZM2.83194 9.106L2.44868 9.74498L2.83194 9.106ZM2.20767 8.23764L1.4824 8.41033L2.20767 8.23764ZM6.27904 7.16858L6.36934 6.42403C5.95908 6.36694 5.58607 6.65401 5.5362 7.06521L6.27904 7.16858ZM5.98305 8.76299L6.64305 9.12845L5.98305 8.76299ZM5.17235 9.43167L5.39047 10.1543L5.17235 9.43167ZM6.00727 2.54765L6.39053 1.90867L6.00727 2.54765ZM6.53738 5.03851L5.79454 4.93514C5.74467 5.34634 6.03682 5.72597 6.44708 5.78306L6.53738 5.03851ZM6.63155 3.41601L7.35682 3.24332L6.63155 3.41601ZM3.66686 2.22198L3.44875 1.49931L3.66686 2.22198ZM2.85617 2.89066L2.19617 2.5252L2.85617 2.89066ZM15.9463 5.98679L15.6019 8.82688L17.0876 9.03361L17.432 6.19353L15.9463 5.98679ZM14.1881 10.039C13.8684 9.99456 13.6684 9.96626 13.5181 9.93408C13.3755 9.90354 13.3349 9.8804 13.3239 9.87368L12.5574 11.1516C12.777 11.2869 13.0061 11.3563 13.23 11.4042C13.4462 11.4505 13.7095 11.4867 14.0075 11.5281L14.1881 10.039ZM11.6677 7.91843C11.6282 8.24466 11.585 8.59921 11.5613 8.90756C11.5406 9.17728 11.5214 9.54021 11.5911 9.81699L13.0417 9.4716C13.047 9.49269 13.0395 9.47094 13.0389 9.37599C13.0384 9.2917 13.0432 9.1823 13.0535 9.04852C13.0742 8.77979 13.1127 8.46058 13.1534 8.12516L11.6677 7.91843ZM13.3239 9.87368C13.1957 9.79467 13.0878 9.65489 13.0417 9.4716L11.5911 9.81699C11.7297 10.367 12.071 10.852 12.5574 11.1516L13.3239 9.87368ZM15.6019 8.82688C15.5606 9.16724 15.5335 9.38757 15.5023 9.55488C15.4721 9.71644 15.4467 9.77638 15.4318 9.80419L16.7518 10.5351C16.8694 10.316 16.9303 10.0871 16.9735 9.85607C17.0155 9.63082 17.0486 9.3549 17.0876 9.03361L15.6019 8.82688ZM14.0075 11.5281C14.3055 11.5696 14.5687 11.6067 14.7888 11.6211C15.0166 11.636 15.2546 11.6317 15.4992 11.561L15.063 10.1157C15.0508 10.1192 15.006 10.1304 14.8608 10.1209C14.7079 10.1109 14.5078 10.0835 14.1881 10.039L14.0075 11.5281ZM15.4318 9.80419C15.3434 9.96877 15.2058 10.0744 15.063 10.1157L15.4992 11.561C16.041 11.4044 16.4866 11.029 16.7518 10.5351L15.4318 9.80419ZM14.8686 4.42792C15.1883 4.47241 15.3883 4.50071 15.5386 4.53288C15.6812 4.56342 15.7219 4.58657 15.7328 4.59329L16.4993 3.31533C16.2797 3.18005 16.0506 3.11071 15.8268 3.06277C15.6105 3.01647 15.3472 2.9803 15.0492 2.93883L14.8686 4.42792ZM17.432 6.19353C17.471 5.87224 17.5048 5.59642 17.5179 5.36714C17.5313 5.13202 17.527 4.894 17.4656 4.64998L16.015 4.99536C16.0228 5.02634 16.0331 5.09125 16.0237 5.2557C16.014 5.426 15.9876 5.64643 15.9463 5.98679L17.432 6.19353ZM15.7328 4.59329C15.861 4.67229 15.9689 4.81207 16.015 4.99536L17.4656 4.64998C17.327 4.09992 16.9857 3.61498 16.4993 3.31533L15.7328 4.59329ZM15.0492 2.93883C14.7512 2.89737 14.488 2.86027 14.2679 2.84586C14.0401 2.83094 13.8021 2.83529 13.5575 2.90597L13.9937 4.3513C14.0059 4.34779 14.0507 4.33653 14.1959 4.34604C14.3488 4.35606 14.5489 4.38343 14.8686 4.42792L15.0492 2.93883ZM13.4118 5.9951C13.4524 5.65968 13.4913 5.34052 13.5354 5.07506C13.5574 4.94291 13.5788 4.83581 13.5994 4.75446C13.6226 4.66282 13.6351 4.64384 13.6249 4.66277L12.3049 3.93186C12.1715 4.18037 12.1035 4.5365 12.0592 4.80294C12.0085 5.10754 11.9656 5.46213 11.9261 5.78836L13.4118 5.9951ZM13.5575 2.90597C13.0157 3.06254 12.5701 3.43798 12.3049 3.93186L13.6249 4.66277C13.7133 4.4982 13.8509 4.39258 13.9937 4.3513L13.5575 2.90597ZM3.00162 7.07352L3.34607 4.23343L1.86039 4.0267L1.51593 6.86678L3.00162 7.07352ZM4.07934 8.63239C3.75962 8.5879 3.55964 8.5596 3.40937 8.52742C3.26675 8.49688 3.22611 8.47374 3.2152 8.46702L2.44868 9.74498C2.66829 9.88026 2.89735 9.9496 3.12121 9.99754C3.33743 10.0438 3.60073 10.08 3.89874 10.1215L4.07934 8.63239ZM1.51593 6.86678C1.47696 7.18807 1.44315 7.46389 1.43007 7.69317C1.41664 7.92829 1.42093 8.1663 1.4824 8.41033L2.93294 8.06495C2.92513 8.03397 2.91485 7.96906 2.92424 7.80461C2.93396 7.63431 2.96033 7.41388 3.00162 7.07352L1.51593 6.86678ZM3.2152 8.46702C3.08694 8.38802 2.9791 8.24824 2.93294 8.06495L1.4824 8.41033C1.62094 8.96039 1.96221 9.44533 2.44868 9.74498L3.2152 8.46702ZM5.5362 7.06521C5.49552 7.40063 5.45666 7.71979 5.41252 7.98525C5.39054 8.1174 5.36913 8.2245 5.34853 8.30585C5.32532 8.39749 5.31288 8.41647 5.32304 8.39754L6.64305 9.12845C6.77647 8.87994 6.8445 8.52381 6.88881 8.25737C6.93946 7.95277 6.98232 7.59818 7.02188 7.27195L5.5362 7.06521ZM3.89874 10.1215C4.19674 10.1629 4.45993 10.2 4.68002 10.2144C4.90788 10.2294 5.14587 10.225 5.39047 10.1543L4.95424 8.70901C4.94209 8.71252 4.89728 8.72378 4.7521 8.71427C4.59915 8.70425 4.39905 8.67688 4.07934 8.63239L3.89874 10.1215ZM5.32304 8.39754C5.23469 8.56211 5.09708 8.66773 4.95424 8.70901L5.39047 10.1543C5.93227 9.99777 6.37789 9.62233 6.64305 9.12845L5.32304 8.39754ZM4.75988 3.02126C5.07959 3.06575 5.27957 3.09405 5.42984 3.12623C5.57247 3.15677 5.61311 3.17991 5.62401 3.18663L6.39053 1.90867C6.17092 1.77339 5.94187 1.70405 5.71801 1.65612C5.50179 1.60981 5.23848 1.57364 4.94048 1.53218L4.75988 3.02126ZM7.28023 5.14188C7.31979 4.81565 7.36294 4.4611 7.38663 4.15274C7.40735 3.88303 7.42653 3.5201 7.35682 3.24332L5.90628 3.5887C5.90097 3.56762 5.90847 3.58937 5.90904 3.68432C5.90956 3.76861 5.90471 3.87801 5.89443 4.01179C5.87379 4.28052 5.83522 4.59972 5.79454 4.93514L7.28023 5.14188ZM5.62401 3.18663C5.75227 3.26563 5.86011 3.40541 5.90628 3.5887L7.35682 3.24332C7.21828 2.69326 6.877 2.20832 6.39053 1.90867L5.62401 3.18663ZM4.94048 1.53218C4.64248 1.49071 4.37928 1.45362 4.1592 1.4392C3.93133 1.42428 3.69334 1.42863 3.44875 1.49931L3.88498 2.94464C3.89713 2.94113 3.94194 2.92987 4.08711 2.93938C4.24007 2.9494 4.44016 2.97677 4.75988 3.02126L4.94048 1.53218ZM3.34607 4.23343C3.38735 3.89307 3.41443 3.67274 3.44566 3.50543C3.47581 3.34387 3.50124 3.28393 3.51617 3.25611L2.19617 2.5252C2.07853 2.74431 2.01761 2.97324 1.9745 3.20424C1.93246 3.42949 1.89935 3.7054 1.86039 4.0267L3.34607 4.23343ZM3.44875 1.49931C2.90695 1.65588 2.46132 2.03132 2.19617 2.5252L3.51617 3.25611C3.60452 3.09154 3.74213 2.98592 3.88498 2.94464L3.44875 1.49931ZM6.44708 5.78306L12.5786 6.63628L12.7592 5.14719L6.62769 4.29397L6.44708 5.78306ZM12.5009 7.27725L6.36934 6.42403L6.18874 7.91312L12.3203 8.76634L12.5009 7.27725Z" fill="#1C274C"/>
<path id="Vector_2" d="M11.3307 21.0119L11.7874 21.5947L11.3307 21.0119ZM11.5487 18.4678L10.8278 18.6747C10.7273 18.2729 10.9685 17.8545 11.3667 17.7402L11.5487 18.4678ZM11.8423 20.0627L12.58 20.1345L11.8423 20.0627ZM7.04032 20.1324C6.9398 19.7306 7.18107 19.3122 7.57921 19.1979C7.97735 19.0836 8.38159 19.3167 8.48211 19.7186L7.04032 20.1324ZM8.16493 21.1182L7.55955 21.5755L8.16493 21.1182ZM9.05105 21.6662L8.92756 22.4155L9.05105 21.6662ZM7.37368 14.9608L6.91695 14.378L7.37368 14.9608ZM7.59981 15.9818C7.5487 16.3977 7.17697 16.7027 6.76953 16.663C6.36209 16.6234 6.07323 16.2541 6.12434 15.8382L7.59981 15.9818ZM9.65334 14.3066L9.77684 13.5572L9.65334 14.3066ZM11.0297 16.393L11.2117 17.1206C10.8135 17.2349 10.4093 17.0018 10.3088 16.6L11.0297 16.393ZM10.5395 14.8546L11.1448 14.3973L10.5395 14.8546ZM21.1771 18.1859L21.6338 18.7687L21.6338 18.7687L21.1771 18.1859ZM21.6887 17.2367L22.4264 17.3085L21.6887 17.2367ZM17.5211 16.7537L17.3391 16.0261C17.7372 15.9118 18.1414 16.145 18.242 16.5468L17.5211 16.7537ZM18.0113 18.2922L17.4059 18.7495L18.0113 18.2922ZM18.8974 18.8402L18.7739 19.5895L18.8974 18.8402ZM17.22 12.1348L16.7633 11.5521L17.22 12.1348ZM17.0021 14.6789L17.7229 14.472C17.8235 14.8738 17.5822 15.2922 17.1841 15.4065L17.0021 14.6789ZM16.7084 13.084L15.9707 13.0122L16.7084 13.084ZM19.4997 11.4806L19.6232 10.7312L19.6232 10.7312L19.4997 11.4806ZM20.3858 12.0286L20.9912 11.5713L20.3858 12.0286ZM10.0352 20.7167C10.3465 20.6274 10.5416 20.5709 10.6869 20.5176C10.825 20.467 10.8632 20.4379 10.874 20.4291L11.7874 21.5947C11.5872 21.7593 11.3696 21.8601 11.1541 21.9391C10.9458 22.0155 10.6896 22.0886 10.3992 22.1719L10.0352 20.7167ZM12.2696 18.2609C12.3491 18.5786 12.4356 18.9241 12.4972 19.2266C12.551 19.4909 12.6151 19.8491 12.58 20.1345L11.1046 19.991C11.1018 20.0134 11.1066 19.9914 11.0955 19.8974C11.0857 19.8141 11.0674 19.7065 11.0407 19.5755C10.9871 19.3122 10.9095 19.0015 10.8278 18.6747L12.2696 18.2609ZM10.874 20.4291C10.9926 20.3316 11.0816 20.1775 11.1046 19.991L12.58 20.1345C12.5104 20.701 12.2314 21.2298 11.7874 21.5947L10.874 20.4291ZM8.48211 19.7186C8.56507 20.0502 8.61905 20.2645 8.67056 20.4256C8.72027 20.5811 8.7526 20.6362 8.77032 20.6609L7.55955 21.5755C7.41538 21.3742 7.32646 21.1552 7.25509 20.9319C7.18553 20.7143 7.11859 20.4452 7.04032 20.1324L8.48211 19.7186ZM10.3992 22.1719C10.1088 22.2552 9.85287 22.3292 9.63684 22.3746C9.41331 22.4215 9.17776 22.4508 8.92756 22.4155L9.17454 20.9168C9.18798 20.9187 9.23468 20.9234 9.3779 20.8933C9.52863 20.8617 9.72391 20.8061 10.0352 20.7167L10.3992 22.1719ZM8.77032 20.6609C8.87728 20.8102 9.02635 20.896 9.17454 20.9168L8.92756 22.4155C8.3727 22.3373 7.88427 22.0288 7.55955 21.5755L8.77032 20.6609ZM8.66918 15.256C8.35788 15.3453 8.16282 15.4018 8.01751 15.4551C7.87943 15.5057 7.84117 15.5348 7.83041 15.5436L6.91695 14.378C7.11716 14.2135 7.33481 14.1127 7.55031 14.0336C7.75859 13.9572 8.01479 13.8842 8.30517 13.8008L8.66918 15.256ZM7.83041 15.5436C7.71182 15.6411 7.62275 15.7952 7.59981 15.9818L6.12434 15.8382C6.19397 15.2717 6.47295 14.743 6.91695 14.378L7.83041 15.5436ZM8.30517 13.8008C8.59554 13.7175 8.85152 13.6435 9.06755 13.5982C9.29109 13.5512 9.52663 13.5219 9.77684 13.5572L9.52985 15.0559C9.51641 15.054 9.46971 15.0493 9.32649 15.0794C9.17577 15.1111 8.98048 15.1666 8.66918 15.256L8.30517 13.8008ZM10.3088 16.6C10.227 16.2732 10.1492 15.9625 10.0727 15.7058C10.0346 15.5781 10.0003 15.4752 9.9699 15.3977C9.93566 15.3104 9.92123 15.2939 9.93408 15.3118L11.1448 14.3973C11.3085 14.6257 11.4202 14.9702 11.4969 15.2279C11.5848 15.5228 11.6711 15.8684 11.7506 16.1861L10.3088 16.6ZM9.77684 13.5572C10.3317 13.6355 10.8201 13.944 11.1448 14.3973L9.93408 15.3118C9.82711 15.1625 9.67805 15.0768 9.52985 15.0559L9.77684 13.5572ZM20.7606 16.1945L20.0686 13.4282L21.5104 13.0144L22.2024 15.7807L20.7606 16.1945ZM19.8816 17.8907C20.1929 17.8014 20.3879 17.7449 20.5332 17.6916C20.6713 17.641 20.7096 17.6119 20.7203 17.6031L21.6338 18.7687C21.4336 18.9333 21.2159 19.0341 21.0004 19.1131C20.7922 19.1895 20.536 19.2626 20.2456 19.3459L19.8816 17.8907ZM22.2024 15.7807C22.2807 16.0936 22.3483 16.3625 22.3897 16.5882C22.4321 16.8197 22.4573 17.057 22.4264 17.3085L20.9509 17.165C20.9547 17.134 20.957 17.069 20.9275 16.9078C20.8969 16.7406 20.8436 16.5261 20.7606 16.1945L22.2024 15.7807ZM20.7203 17.6031C20.8389 17.5056 20.928 17.3516 20.9509 17.165L22.4264 17.3085C22.3568 17.875 22.0778 18.4038 21.6338 18.7687L20.7203 17.6031ZM18.242 16.5468C18.3237 16.8735 18.4016 17.1842 18.478 17.4409C18.5161 17.5687 18.5505 17.6716 18.5808 17.749C18.6151 17.8364 18.6295 17.8528 18.6167 17.8349L17.4059 18.7495C17.2423 18.5211 17.1306 18.1766 17.0538 17.9188C16.9659 17.6239 16.8796 17.2783 16.8002 16.9606L18.242 16.5468ZM20.2456 19.3459C19.9552 19.4292 19.6992 19.5032 19.4832 19.5486C19.2597 19.5955 19.0241 19.6248 18.7739 19.5895L19.0209 18.0909C19.0343 18.0927 19.081 18.0974 19.2243 18.0673C19.375 18.0357 19.5703 17.9801 19.8816 17.8907L20.2456 19.3459ZM18.6167 17.8349C18.7236 17.9842 18.8727 18.07 19.0209 18.0909L18.7739 19.5895C18.219 19.5113 17.7306 19.2028 17.4059 18.7495L18.6167 17.8349ZM18.5155 12.43C18.2042 12.5193 18.0092 12.5758 17.8639 12.6291C17.7258 12.6798 17.6875 12.7088 17.6768 12.7176L16.7633 11.5521C16.9635 11.3875 17.1812 11.2867 17.3967 11.2076C17.6049 11.1312 17.8611 11.0582 18.1515 10.9748L18.5155 12.43ZM16.2812 14.8858C16.2017 14.5681 16.1151 14.2226 16.0535 13.9201C15.9997 13.6558 15.9356 13.2977 15.9707 13.0122L17.4462 13.1558C17.4489 13.1334 17.4441 13.1554 17.4552 13.2493C17.4651 13.3327 17.4833 13.4402 17.51 13.5712C17.5636 13.8345 17.6412 14.1453 17.7229 14.472L16.2812 14.8858ZM17.6768 12.7176C17.5582 12.8151 17.4691 12.9692 17.4462 13.1558L15.9707 13.0122C16.0403 12.4457 16.3193 11.917 16.7633 11.5521L17.6768 12.7176ZM18.1515 10.9748C18.4419 10.8915 18.6979 10.8176 18.9139 10.7722C19.1374 10.7252 19.373 10.696 19.6232 10.7312L19.3762 12.2299C19.3628 12.228 19.3161 12.2233 19.1728 12.2534C19.0221 12.2851 18.8268 12.3407 18.5155 12.43L18.1515 10.9748ZM20.0686 13.4282C19.9857 13.0965 19.9317 12.8823 19.8802 12.7211C19.8305 12.5656 19.7981 12.5106 19.7804 12.4858L20.9912 11.5713C21.1354 11.7725 21.2243 11.9916 21.2956 12.2148C21.3652 12.4324 21.4322 12.7015 21.5104 13.0144L20.0686 13.4282ZM19.6232 10.7312C20.178 10.8095 20.6665 11.118 20.9912 11.5713L19.7804 12.4858C19.6735 12.3365 19.5244 12.2508 19.3762 12.2299L19.6232 10.7312ZM17.1841 15.4065L11.2117 17.1206L10.8477 15.6655L16.82 13.9513L17.1841 15.4065ZM11.3667 17.7402L17.3391 16.0261L17.7031 17.4813L11.7307 19.1954L11.3667 17.7402Z" fill="#1C274C"/>
</g>
</svg>
