<svg width="24" height="24" viewBox="0 0 24 24" fill="none" xmlns="http://www.w3.org/2000/svg">
<g id="Linear / Call / End Call ">
<path id="Vector" d="M8 12.8617H7.25L7.25 12.8617L8 12.8617ZM8 13.4782H8.75L8.75 13.4782L8 13.4782ZM6.57997 15.3295L6.36905 14.6097H6.36905L6.57997 15.3295ZM4.57997 15.9156L4.36905 15.1959H4.36905L4.57997 15.9156ZM2 14.0643L2.75 14.0643L2 14.0643ZM2 12.1414H2.75H2ZM2.44083 10.7889L1.86331 10.3104H1.86331L2.44083 10.7889ZM12 7V7.75V7ZM21.3703 9.85601L21.8699 9.29661V9.29661L21.3703 9.85601ZM16 13.25H15.25H16ZM17.7004 15.1625L17.5916 15.9046L17.7004 15.1625ZM19.7004 15.4556L19.8091 14.7135L19.7004 15.4556ZM22 13.5429H21.25V13.5429L22 13.5429ZM22 11.4183H22.75V11.4183L22 11.4183ZM12 11.3963V10.6463V11.3963ZM7.25 12.8617L7.25 13.4782L8.75 13.4782L8.75 12.8617L7.25 12.8617ZM6.36905 14.6097L4.36905 15.1959L4.7909 16.6353L6.7909 16.0492L6.36905 14.6097ZM2.75 14.0643L2.75 12.1414H1.25L1.25 14.0643L2.75 14.0643ZM3.01834 11.2674C3.90179 10.2012 6.51318 7.75 12 7.75V6.25C5.98964 6.25 2.97874 8.96419 1.86331 10.3104L3.01834 11.2674ZM12 7.75C17.233 7.75 19.8648 9.51708 20.8708 10.4154L21.8699 9.29661C20.5944 8.15756 17.6087 6.25 12 6.25V7.75ZM15.25 12.8617V13.25H16.75V12.8617H15.25ZM17.5916 15.9046L19.5916 16.1977L19.8091 14.7135L17.8091 14.4204L17.5916 15.9046ZM22.75 13.5429V11.4183H21.25V13.5429H22.75ZM16 12.8617C16.75 12.8617 16.75 12.8607 16.75 12.8597C16.75 12.8593 16.75 12.8583 16.75 12.8576C16.75 12.8562 16.75 12.8548 16.75 12.8534C16.7499 12.8505 16.7499 12.8475 16.7498 12.8444C16.7497 12.8382 16.7495 12.8316 16.7492 12.8245C16.7485 12.8104 16.7475 12.7946 16.7459 12.7773C16.7428 12.7426 16.7374 12.7016 16.7283 12.6552C16.7102 12.5622 16.6776 12.4484 16.6202 12.3222C16.503 12.0645 16.2941 11.7811 15.9433 11.524C15.2573 11.0214 14.0694 10.6463 12 10.6463V12.1463C13.9306 12.1463 14.7427 12.5039 15.0567 12.734C15.2059 12.8433 15.247 12.9262 15.2548 12.9433C15.2599 12.9544 15.2586 12.9551 15.256 12.9423C15.2548 12.936 15.2533 12.9264 15.2521 12.9132C15.2515 12.9066 15.251 12.8991 15.2506 12.8905C15.2504 12.8862 15.2503 12.8817 15.2502 12.8769C15.2501 12.8745 15.2501 12.872 15.25 12.8695C15.25 12.8682 15.25 12.867 15.25 12.8657C15.25 12.865 15.25 12.864 15.25 12.8637C15.25 12.8627 15.25 12.8617 16 12.8617ZM12 10.6463C9.93056 10.6463 8.74267 11.0214 8.05672 11.524C7.7059 11.7811 7.49703 12.0645 7.37982 12.3222C7.32239 12.4484 7.2898 12.5622 7.27167 12.6552C7.26263 12.7016 7.25722 12.7426 7.25406 12.7773C7.25248 12.7946 7.25147 12.8104 7.25085 12.8245C7.25054 12.8316 7.25032 12.8382 7.25019 12.8444C7.25012 12.8475 7.25008 12.8505 7.25004 12.8534C7.25003 12.8548 7.25002 12.8562 7.25001 12.8576C7.25001 12.8583 7.25 12.8594 7.25 12.8597C7.25 12.8607 7.25 12.8617 8 12.8617C8.75 12.8617 8.75 12.8627 8.75 12.8637C8.75 12.864 8.74999 12.865 8.74999 12.8657C8.74998 12.867 8.74997 12.8682 8.74996 12.8695C8.74993 12.872 8.74989 12.8745 8.74984 12.8769C8.74973 12.8817 8.74958 12.8862 8.7494 12.8905C8.74902 12.8991 8.74849 12.9066 8.74789 12.9132C8.74669 12.9264 8.74518 12.936 8.74395 12.9423C8.74145 12.9551 8.74011 12.9544 8.74518 12.9433C8.75297 12.9262 8.7941 12.8433 8.94328 12.734C9.25733 12.5039 10.0694 12.1463 12 12.1463V10.6463ZM19.5916 16.1977C21.2257 16.4371 22.75 15.2128 22.75 13.5429L21.25 13.5429C21.25 14.2406 20.5953 14.8287 19.8091 14.7135L19.5916 16.1977ZM20.8708 10.4154C21.1133 10.632 21.25 10.9778 21.25 11.4183L22.75 11.4183C22.75 10.6848 22.5191 9.87638 21.8699 9.29661L20.8708 10.4154ZM2.75 12.1414C2.75 11.7741 2.84345 11.4785 3.01834 11.2674L1.86331 10.3104C1.40595 10.8624 1.25 11.5309 1.25 12.1414H2.75ZM15.25 13.25C15.25 14.5971 16.2642 15.71 17.5916 15.9046L17.8091 14.4204C17.1811 14.3284 16.75 13.8157 16.75 13.25L15.25 13.25ZM4.36905 15.1959C3.5319 15.4412 2.75 14.8281 2.75 14.0643L1.25 14.0643C1.25 15.8966 3.05932 17.1428 4.7909 16.6353L4.36905 15.1959ZM7.25 13.4782C7.25 13.9833 6.90669 14.4522 6.36905 14.6097L6.7909 16.0492C7.93988 15.7125 8.75 14.6777 8.75 13.4782L7.25 13.4782Z" fill="#1C274C"/>
</g>
</svg>
