<svg width="24" height="24" viewBox="0 0 24 24" fill="none" xmlns="http://www.w3.org/2000/svg">
<g id="Outline / Essentional, UI / Fuel">
<g id="Vector">
<path fill-rule="evenodd" clip-rule="evenodd" d="M11.9506 10.2498H12.0494C12.7142 10.2498 13.2871 10.2497 13.7458 10.3114C13.9888 10.3441 14.2268 10.397 14.4515 10.4883C14.4574 10.4819 14.4635 10.4757 14.4697 10.4695L15.4697 9.46947C15.7626 9.17658 16.2374 9.17658 16.5303 9.46947C16.8232 9.76236 16.8232 10.2372 16.5303 10.5301L15.5303 11.5301C15.5241 11.5363 15.5179 11.5424 15.5115 11.5483C15.6028 11.773 15.6557 12.011 15.6884 12.254C15.7501 12.7127 15.75 13.2856 15.75 13.9504V14.0492C15.75 14.714 15.7501 15.2869 15.6884 15.7456C15.6557 15.9886 15.6028 16.2266 15.5115 16.4513C15.5179 16.4572 15.5241 16.4633 15.5303 16.4695L16.5303 17.4695C16.8232 17.7624 16.8232 18.2372 16.5303 18.5301C16.2374 18.823 15.7626 18.823 15.4697 18.5301L14.4697 17.5301L14.4626 17.523L14.4515 17.5113C14.2268 17.6026 13.9888 17.6555 13.7458 17.6882C13.2871 17.7499 12.7142 17.7498 12.0494 17.7498H11.9506C11.2858 17.7498 10.7129 17.7499 10.2542 17.6882C10.0112 17.6555 9.77323 17.6026 9.54852 17.5113C9.54258 17.5177 9.53652 17.5239 9.53033 17.5301L8.53033 18.5301C8.23744 18.823 7.76256 18.823 7.46967 18.5301C7.17678 18.2372 7.17678 17.7624 7.46967 17.4695L8.46967 16.4695C8.47587 16.4633 8.48214 16.4572 8.4885 16.4513C8.39719 16.2266 8.34427 15.9886 8.31161 15.7456C8.24993 15.2869 8.24996 14.7141 8.25 14.0492V13.9504C8.24996 13.2856 8.24993 12.7127 8.31161 12.254C8.34427 12.011 8.39719 11.773 8.4885 11.5483C8.48214 11.5424 8.47587 11.5363 8.46967 11.5301L7.46967 10.5301C7.17678 10.2372 7.17678 9.76236 7.46967 9.46947C7.76256 9.17658 8.23744 9.17658 8.53033 9.46947L9.53033 10.4695C9.53653 10.4757 9.54259 10.4819 9.54852 10.4883C9.77324 10.397 10.0112 10.3441 10.2542 10.3114C10.7129 10.2497 11.2858 10.2498 11.9506 10.2498ZM10.454 11.798C10.1287 11.8418 10.0268 11.9124 9.96967 11.9695C9.91258 12.0266 9.84197 12.1285 9.79823 12.4538C9.75159 12.8007 9.75 13.2715 9.75 13.9998C9.75 14.7281 9.75159 15.1989 9.79823 15.5458C9.84197 15.8711 9.91258 15.973 9.96967 16.0301C10.0268 16.0872 10.1287 16.1578 10.454 16.2016C10.8009 16.2482 11.2717 16.2498 12 16.2498C12.7283 16.2498 13.1991 16.2482 13.546 16.2016C13.8713 16.1578 13.9732 16.0872 14.0303 16.0301C14.0874 15.973 14.158 15.8711 14.2018 15.5458C14.2484 15.1989 14.25 14.7281 14.25 13.9998C14.25 13.2715 14.2484 12.8007 14.2018 12.4538C14.158 12.1285 14.0874 12.0266 14.0303 11.9695C13.9732 11.9124 13.8713 11.8418 13.546 11.798C13.1991 11.7514 12.7283 11.7498 12 11.7498C11.2717 11.7498 10.8009 11.7514 10.454 11.798Z" fill="#1C274C"/>
<path fill-rule="evenodd" clip-rule="evenodd" d="M18.1215 2.378C19.2746 2.151 20.2973 2.18453 21.1755 2.81966C22.0497 3.45196 22.4147 4.41622 22.5843 5.59301C22.75 6.74256 22.75 8.25914 22.75 10.1689V15.9373C22.75 17.333 22.75 18.4551 22.6337 19.337C22.5133 20.2504 22.2561 21.0183 21.6567 21.6292C21.0554 22.2422 20.2964 22.5072 19.3937 22.6309C18.5257 22.7498 17.4226 22.7498 16.0558 22.7498H7.94423C6.57742 22.7498 5.47426 22.7498 4.60634 22.6309C3.70357 22.5072 2.94457 22.2422 2.34327 21.6292C1.74394 21.0183 1.48674 20.2504 1.36627 19.337C1.24997 18.4551 1.24998 17.333 1.25 15.9373V13.0437C1.24999 12.0321 1.24997 11.2112 1.32373 10.5463C1.40054 9.85383 1.56346 9.25652 1.93766 8.71883C2.31266 8.18 2.81458 7.82353 3.43435 7.51889C3.67957 7.39835 3.95362 7.2812 4.25685 7.16164C4.25233 7.12837 4.25 7.0944 4.25 7.05989L4.25 7.01902C4.24998 6.40138 4.24996 5.87705 4.29681 5.45315C4.34625 5.00576 4.4555 4.57857 4.7388 4.20196C4.86504 4.03414 5.01262 3.88352 5.17795 3.75412C5.55101 3.46212 5.97608 3.34886 6.4199 3.29782C6.83796 3.24975 7.35416 3.24977 7.95798 3.2498L8.90696 3.24974C9.32558 3.24934 9.67679 3.249 9.98489 3.33321C10.6457 3.51382 11.1854 3.96827 11.4874 4.56566L13.8275 3.73069C15.5932 3.10068 16.9995 2.59886 18.1215 2.378ZM18.4112 3.84975C17.4122 4.04641 16.1113 4.50846 14.2699 5.16546L6.26994 8.01989C5.28321 8.37196 4.60299 8.61587 4.09604 8.86506C3.60704 9.10542 3.34709 9.31956 3.16885 9.57568C2.9898 9.83295 2.87609 10.1572 2.81459 10.7117C2.75107 11.2843 2.75 12.0218 2.75 13.0867V15.8832C2.75 17.3457 2.75154 18.3685 2.8534 19.1409C2.95261 19.8932 3.13474 20.2941 3.41409 20.5788C3.69147 20.8616 4.07892 21.0446 4.81003 21.1448C5.56422 21.2481 6.56418 21.2498 8 21.2498H16C17.4358 21.2498 18.4358 21.2481 19.19 21.1448C19.9211 21.0446 20.3085 20.8616 20.5859 20.5788C20.8653 20.2941 21.0474 19.8932 21.1466 19.1409C21.2485 18.3685 21.25 17.3457 21.25 15.8832V10.2323C21.25 8.24485 21.2481 6.83692 21.0997 5.80704C20.9533 4.7917 20.6862 4.31705 20.2964 4.03507C19.9104 3.75593 19.3921 3.65665 18.4112 3.84975ZM10.0445 5.08049C9.92734 4.93486 9.76844 4.82907 9.58942 4.78014C9.50288 4.75648 9.3746 4.7498 8.81818 4.7498H8C7.34251 4.7498 6.91342 4.75096 6.59127 4.788C6.28522 4.8232 6.17009 4.8824 6.10247 4.93532C6.04089 4.98352 5.98536 5.04007 5.9375 5.1037C5.88265 5.17661 5.82282 5.30042 5.78773 5.61793C5.75994 5.86939 5.7526 6.1835 5.75068 6.61254L10.0445 5.08049Z" fill="#1C274C"/>
</g>
</g>
</svg>
