<svg width="24" height="24" viewBox="0 0 24 24" fill="none" xmlns="http://www.w3.org/2000/svg">
<g id="Bold / Essentional, UI / Hanger 2">
<path id="Vector" fill-rule="evenodd" clip-rule="evenodd" d="M10.2857 3.90909C10.2857 3.34219 10.8236 2.75 11.6597 2.75C12.4958 2.75 13.0337 3.34219 13.0337 3.90909C13.0337 4.22136 12.9223 4.49112 12.7402 4.68925C12.6273 4.81206 12.5028 4.93485 12.3609 5.07483L12.2797 5.15509C12.1111 5.32181 11.9231 5.51074 11.7513 5.71278C11.4859 6.02479 11.1984 6.43649 11.093 6.94251C10.4656 7.04826 9.85574 7.28792 9.31927 7.66529L2.22358 12.6566C1.29658 13.3086 1.05806 14.3591 1.39567 15.2392C1.72778 16.105 2.58964 16.75 3.70231 16.75H6.00901C5.99977 17.1135 5.99977 17.5271 5.99977 18C5.99977 19.8856 5.99977 20.8284 6.58556 21.4142C7.17135 22 8.11415 22 9.99977 22H13.9998C15.8854 22 16.8282 22 17.414 21.4142C17.9998 20.8284 17.9998 19.8856 17.9998 18C17.9998 17.5271 17.9998 17.1135 17.9905 16.75H20.2973C21.4219 16.75 22.2875 16.0928 22.6125 15.2165C22.9429 14.3256 22.6856 13.2692 21.736 12.629L14.3035 7.61866C13.8094 7.2856 13.2574 7.06682 12.6889 6.95888C12.7396 6.87796 12.8066 6.78721 12.8939 6.68456C13.0202 6.53616 13.1675 6.38672 13.3346 6.22141L13.4085 6.14851C13.5496 6.00942 13.7045 5.85668 13.8444 5.7044C14.2865 5.22354 14.5337 4.58928 14.5337 3.90909C14.5337 2.36727 13.1697 1.25 11.6597 1.25C10.1497 1.25 8.78566 2.36727 8.78566 3.90909C8.78566 4.3233 9.12145 4.65909 9.53566 4.65909C9.94987 4.65909 10.2857 4.3233 10.2857 3.90909ZM17.807 15.25H20.2973C20.8056 15.25 21.103 14.9729 21.2061 14.6949C21.3038 14.4314 21.2543 14.1133 20.8976 13.8728L13.4651 8.86245C12.9825 8.53714 12.3993 8.373 11.81 8.37985C11.2256 8.38665 10.6525 8.56138 10.1823 8.89216L3.08659 13.8834C2.7415 14.1262 2.69597 14.4407 2.79616 14.7019C2.90185 14.9775 3.19965 15.25 3.70231 15.25H6.19252C6.27896 14.9828 6.40418 14.7672 6.58556 14.5858C7.17135 14 8.11415 14 9.99977 14H13.9998C15.8854 14 16.8282 14 17.414 14.5858C17.5954 14.7672 17.7206 14.9828 17.807 15.25Z" fill="#1C274C"/>
</g>
</svg>
