<svg width="24" height="24" viewBox="0 0 24 24" fill="none" xmlns="http://www.w3.org/2000/svg">
<g id="Outline / Electronic, Devices / Headphones Square Sound">
<path id="Vector (Stroke)" fill-rule="evenodd" clip-rule="evenodd" d="M11.9427 1.25H12.0574C14.3658 1.24999 16.1749 1.24998 17.5863 1.43975C19.0311 1.63399 20.1711 2.03933 21.0659 2.93414C21.9607 3.82895 22.3661 4.96897 22.5603 6.41371C22.7501 7.82519 22.7501 9.63423 22.75 11.9426V16.9903C22.7501 17.0619 22.7501 17.1355 22.7501 17.2112C22.7501 17.2497 22.75 17.2888 22.75 17.3285V17.514C22.75 17.5543 22.7501 17.5941 22.7501 17.6333C22.7503 18.5472 22.7505 19.1599 22.5987 19.697C22.3019 20.7473 21.5885 21.6281 20.6228 22.1085C20.1281 22.3546 19.5366 22.452 18.6816 22.5929C18.642 22.5994 18.6017 22.606 18.5609 22.6128L18.5393 22.6163C18.2353 22.6666 17.9741 22.7097 17.7571 22.732C17.5309 22.7552 17.2979 22.7626 17.0589 22.7134C16.2745 22.5518 15.6469 21.9787 15.3837 21.2269C15.3042 21.0001 15.2757 20.7692 15.2627 20.5365C15.25 20.3118 15.25 20.0379 15.25 19.714V15.1871C15.25 15.1529 15.25 15.119 15.25 15.0856C15.2495 14.6087 15.2491 14.2125 15.3508 13.874C15.5835 13.0997 16.1985 12.492 16.9891 12.3021C17.3343 12.2192 17.7272 12.2521 18.1754 12.2898C18.2091 12.2926 18.243 12.2954 18.2773 12.2983C18.318 12.3016 18.3582 12.3049 18.3977 12.3082C19.2377 12.3772 19.8184 12.4249 20.3113 12.6156C20.6522 12.7475 20.9673 12.9276 21.25 13.1475V12C21.25 9.62177 21.2485 7.91356 21.0737 6.61358C20.9018 5.33517 20.5749 4.56445 20.0052 3.9948C19.4356 3.42514 18.6649 3.09825 17.3865 2.92637C16.0865 2.75159 14.3783 2.75 12 2.75C9.62182 2.75 7.9136 2.75159 6.61362 2.92637C5.33522 3.09825 4.5645 3.42514 3.99484 3.9948C3.42519 4.56445 3.09829 5.33517 2.92642 6.61358C2.75164 7.91356 2.75005 9.62177 2.75005 12V13.1475C3.03277 12.9276 3.34792 12.7475 3.68881 12.6156C4.18169 12.4249 4.76235 12.3772 5.60236 12.3082C5.64193 12.3049 5.68207 12.3016 5.7228 12.2983C5.75707 12.2954 5.79102 12.2926 5.82467 12.2898C6.27289 12.2521 6.66578 12.2192 7.01102 12.3021C7.80159 12.492 8.41657 13.0997 8.64928 13.874C8.75101 14.2125 8.75061 14.6087 8.75012 15.0856C8.75008 15.119 8.75005 15.1529 8.75005 15.1871V19.7139C8.75005 20.0379 8.75006 20.3118 8.73743 20.5365C8.72434 20.7692 8.69585 21.0001 8.61642 21.2269C8.35318 21.9787 7.72564 22.5518 6.94119 22.7134C6.70224 22.7626 6.46919 22.7552 6.24301 22.732C6.02601 22.7097 5.76484 22.6666 5.4608 22.6163L5.43914 22.6128C5.39834 22.606 5.35811 22.5994 5.31846 22.5929C4.46344 22.452 3.87195 22.3546 3.37731 22.1085C2.41157 21.6281 1.6982 20.7473 1.40136 19.697C1.24957 19.1599 1.24975 18.5472 1.25002 17.6333C1.25003 17.5941 1.25005 17.5543 1.25005 17.514V17.3285C1.25005 17.2889 1.25003 17.2497 1.25002 17.2112C1.25 17.1357 1.24998 17.0623 1.25005 16.9909L1.25005 11.9426C1.25003 9.63423 1.25002 7.82519 1.43979 6.41371C1.63403 4.96897 2.03937 3.82895 2.93418 2.93414C3.82899 2.03933 4.96902 1.63399 6.41375 1.43975C7.82524 1.24998 9.63427 1.24999 11.9427 1.25ZM12 5.75C12.4143 5.75 12.75 6.08579 12.75 6.5L12.75 11.5C12.75 11.9142 12.4143 12.25 12 12.25C11.5858 12.25 11.25 11.9142 11.25 11.5L11.25 6.5C11.25 6.08579 11.5858 5.75 12 5.75ZM9.00005 7.25C9.41426 7.25 9.75005 7.58579 9.75005 8V10C9.75005 10.4142 9.41426 10.75 9.00005 10.75C8.58583 10.75 8.25005 10.4142 8.25005 10V8C8.25005 7.58579 8.58583 7.25 9.00005 7.25ZM15 7.25C15.4143 7.25 15.75 7.58579 15.75 8V10C15.75 10.4142 15.4143 10.75 15 10.75C14.5858 10.75 14.25 10.4142 14.25 10V8C14.25 7.58579 14.5858 7.25 15 7.25ZM6.66065 13.7606C6.58309 13.742 6.458 13.7427 5.84623 13.7932C4.83829 13.8764 4.49389 13.9125 4.22996 14.0146C3.56286 14.2726 3.03836 14.8557 2.83717 15.6001C2.75653 15.8985 2.75005 16.2772 2.75005 17.3285V17.514C2.75005 18.5917 2.75704 18.9785 2.84482 19.2891C3.03097 19.9477 3.47252 20.4805 4.04544 20.7655C4.31186 20.8981 4.66021 20.9638 5.68353 21.1328C6.01525 21.1876 6.2306 21.2228 6.39623 21.2398C6.55781 21.2564 6.61652 21.2488 6.63859 21.2442C6.88274 21.1939 7.10343 21.009 7.20071 20.7312C7.21276 20.6968 7.23001 20.6263 7.23979 20.4523C7.24977 20.2748 7.25005 20.0434 7.25005 19.6934V15.1871C7.25005 14.5529 7.24194 14.4029 7.21276 14.3058C7.12623 14.0179 6.90765 13.8199 6.66065 13.7606ZM18.1539 13.7932C17.5421 13.7427 17.417 13.742 17.3394 13.7606C17.0924 13.8199 16.8739 14.0179 16.7873 14.3058C16.7582 14.4029 16.75 14.5529 16.75 15.1871V19.6934C16.75 20.0434 16.7503 20.2748 16.7603 20.4523C16.7701 20.6263 16.7873 20.6968 16.7994 20.7312C16.8967 21.009 17.1174 21.1939 17.3615 21.2442C17.3836 21.2488 17.4423 21.2564 17.6039 21.2398C17.7695 21.2228 17.9848 21.1876 18.3166 21.1328C19.3399 20.9638 19.6882 20.8981 19.9547 20.7655C20.5276 20.4805 20.9691 19.9477 21.1553 19.2891C21.2431 18.9785 21.25 18.5917 21.25 17.514V17.3285C21.25 16.2772 21.2436 15.8985 21.1629 15.6001C20.9617 14.8557 20.4372 14.2726 19.7701 14.0146C19.5062 13.9125 19.1618 13.8764 18.1539 13.7932Z" fill="#1C274C"/>
</g>
</svg>
