<svg width="24" height="24" viewBox="0 0 24 24" fill="none" xmlns="http://www.w3.org/2000/svg">
<g id="Broken / Like / Hearts">
<path id="Vector" d="M12 5.50063L11.4596 6.02073C11.601 6.16763 11.7961 6.25063 12 6.25063C12.2039 6.25063 12.399 6.16763 12.5404 6.02073L12 5.50063ZM8.96173 18.9109L8.49742 19.4999L8.96173 18.9109ZM7.00061 16.4209C6.68078 16.1577 6.20813 16.2036 5.94491 16.5234C5.68169 16.8432 5.72758 17.3159 6.04741 17.5791L7.00061 16.4209ZM2.34199 13.4115C2.54074 13.7749 2.99647 13.9084 3.35988 13.7096C3.7233 13.5108 3.85677 13.0551 3.65801 12.6917L2.34199 13.4115ZM18.171 20.1692L17.7213 19.569V19.569L18.171 20.1692ZM21.1474 12.9177L21.6899 12.3998L21.1474 12.9177ZM16.5 13.1584L15.973 13.692C16.2651 13.9805 16.7349 13.9805 17.027 13.692L16.5 13.1584ZM14.8291 20.1692L15.2788 19.569L14.8291 20.1692ZM11.8528 12.9177L12.3953 13.4355L11.8528 12.9177ZM19.4466 20.161C19.7794 19.9144 19.8493 19.4447 19.6027 19.1119C19.3561 18.7791 18.8864 18.7092 18.5536 18.9558L19.4466 20.161ZM20.8492 16.6437C20.6524 17.0082 20.7883 17.4632 21.1528 17.6599C21.5173 17.8567 21.9723 17.7208 22.1691 17.3563L20.8492 16.6437ZM21.098 12.8672L20.5676 13.3975L21.098 12.8672ZM2.75 9.1371C2.75 6.98623 3.96537 5.18252 5.62436 4.42419C7.23607 3.68748 9.40166 3.88258 11.4596 6.02073L12.5404 4.98053C10.0985 2.44352 7.26409 2.02539 5.00076 3.05996C2.78471 4.07292 1.25 6.42503 1.25 9.1371H2.75ZM8.49742 19.4999C9.00965 19.9037 9.55955 20.3343 10.1168 20.6599C10.6739 20.9854 11.3096 21.25 12 21.25V19.75C11.6904 19.75 11.3261 19.6293 10.8736 19.3648C10.4213 19.1005 9.95208 18.7366 9.42605 18.3219L8.49742 19.4999ZM22.75 9.1371C22.75 6.42503 21.2153 4.07292 18.9992 3.05996C16.7359 2.02539 13.9015 2.44352 11.4596 4.98053L12.5404 6.02073C14.5983 3.88258 16.7639 3.68748 18.3756 4.42419C20.0346 5.18252 21.25 6.98623 21.25 9.1371H22.75ZM9.42605 18.3219C8.63014 17.6945 7.82129 17.0963 7.00061 16.4209L6.04741 17.5791C6.87768 18.2624 7.75472 18.9144 8.49742 19.4999L9.42605 18.3219ZM3.65801 12.6917C3.0968 11.6656 2.75 10.5033 2.75 9.1371H1.25C1.25 10.7746 1.66995 12.1827 2.34199 13.4115L3.65801 12.6917ZM17.7213 19.569C17.4291 19.788 17.189 19.9641 16.9635 20.0894C16.7385 20.2144 16.594 20.25 16.5 20.25V21.75C16.956 21.75 17.3615 21.5842 17.6918 21.4007C18.0215 21.2176 18.342 20.9783 18.6208 20.7694L17.7213 19.569ZM22.75 15.0595C22.75 14.0256 22.3452 13.0863 21.6899 12.3998L20.6048 13.4355C21.0019 13.8515 21.25 14.423 21.25 15.0595H22.75ZM14.3793 20.7694C14.6581 20.9783 14.9786 21.2176 15.3082 21.4007C15.6385 21.5842 16.044 21.75 16.5 21.75V20.25C16.406 20.25 16.2616 20.2144 16.0366 20.0894C15.8111 19.9641 15.5711 19.788 15.2788 19.569L14.3793 20.7694ZM11.7501 15.0595C11.7501 14.423 11.9982 13.8515 12.3953 13.4355L11.3103 12.3998C10.655 13.0863 10.2501 14.0256 10.2501 15.0595H11.7501ZM12.3953 13.4355C12.8013 13.0102 13.3568 12.7531 13.9603 12.75C14.5555 12.747 15.2639 12.9917 15.973 13.692L17.027 12.6247C16.0742 11.6838 14.9967 11.2448 13.9527 11.25C12.9169 11.2553 11.9797 11.6985 11.3103 12.3998L12.3953 13.4355ZM18.6208 20.7694C18.8875 20.5695 19.1475 20.3827 19.4466 20.161L18.5536 18.9558C18.2847 19.155 17.9838 19.3723 17.7213 19.569L18.6208 20.7694ZM22.1691 17.3563C22.5279 16.6918 22.75 15.9319 22.75 15.0595H21.25C21.25 15.6641 21.0991 16.1808 20.8492 16.6437L22.1691 17.3563ZM15.2788 19.569C15.0411 19.3909 14.7833 19.2042 14.5395 19.0245L13.6496 20.232C13.909 20.4232 14.1467 20.5951 14.3793 20.7694L15.2788 19.569ZM14.5395 19.0245C13.027 17.9098 11.7501 16.8105 11.7501 15.0595H10.2501C10.2501 17.6541 12.2028 19.1657 13.6496 20.232L14.5395 19.0245ZM13.661 19.0163C12.9695 19.5061 12.4426 19.75 12 19.75V21.25C12.9453 21.25 13.8062 20.7517 14.5281 20.2403L13.661 19.0163ZM21.6899 12.3998C21.6696 12.3786 21.6491 12.3577 21.6284 12.3369L20.5676 13.3975C20.5802 13.41 20.5926 13.4227 20.6048 13.4355L21.6899 12.3998ZM21.6284 12.3369C20.9533 11.6616 20.0231 11.2422 19.0005 11.2501C17.9705 11.2581 16.9112 11.6982 15.973 12.6247L17.027 13.692C17.7256 13.0021 18.4233 12.7546 19.0121 12.7501C19.6084 12.7455 20.1589 12.9886 20.5676 13.3975L21.6284 12.3369ZM21.7645 13.2112C22.3746 12.0294 22.75 10.6853 22.75 9.1371H21.25C21.25 10.4301 20.9394 11.5395 20.4316 12.5231L21.7645 13.2112Z" fill="#1C274C"/>
</g>
</svg>
