<svg width="24" height="24" viewBox="0 0 24 24" fill="none" xmlns="http://www.w3.org/2000/svg">
<g id="Bold Duotone / Medicine / Jar Of Pills 2">
<path id="Vector" opacity="0.5" d="M6 3.5C6 3.03406 6 2.80109 6.07612 2.61732C6.17761 2.37229 6.37229 2.17761 6.61732 2.07612C6.80109 2 7.03406 2 7.5 2H16.5C16.9659 2 17.1989 2 17.3827 2.07612C17.6277 2.17761 17.8224 2.37229 17.9239 2.61732C18 2.80109 18 3.03406 18 3.5C18 3.96594 18 4.19891 17.9239 4.38268C17.8224 4.62771 17.6277 4.82239 17.3827 4.92388C17.1989 5 16.9659 5 16.5 5H7.5C7.03406 5 6.80109 5 6.61732 4.92388C6.37229 4.82239 6.17761 4.62771 6.07612 4.38268C6 4.19891 6 3.96594 6 3.5Z" fill="#1C274C"/>
<path id="Vector_2" fill-rule="evenodd" clip-rule="evenodd" d="M12 11.25C12.4142 11.25 12.75 11.5858 12.75 12V13.25H14C14.4142 13.25 14.75 13.5858 14.75 14C14.75 14.4142 14.4142 14.75 14 14.75H12.75V16C12.75 16.4142 12.4142 16.75 12 16.75C11.5858 16.75 11.25 16.4142 11.25 16V14.75H10C9.58579 14.75 9.25 14.4142 9.25 14C9.25 13.5858 9.58579 13.25 10 13.25H11.25V12C11.25 11.5858 11.5858 11.25 12 11.25Z" fill="#1C274C"/>
<path id="Vector_3" opacity="0.5" d="M15.8782 15.6671L13.6671 17.8782C12.7513 18.794 12.7822 20.3098 13.7362 21.2638C14.6902 22.2178 16.206 22.2487 17.1218 21.3329L19.3329 19.1218C20.2487 18.206 20.2178 16.6902 19.2638 15.7362C18.3098 14.7822 16.794 14.7513 15.8782 15.6671Z" fill="#1C274C"/>
<g id="Vector_4">
<path d="M9.00021 5L5.50143 7.79902C4.79757 8.36211 4.31189 9.13989 4.108 10H19.8958C19.6956 9.14182 19.2152 8.3645 18.517 7.79931L16.1597 5.89102L15.0184 5H9.00021Z" fill="#1C274C"/>
<path d="M4.92732 20.1125C4.42455 19.5092 4.11265 18.774 4.02539 18H11.8042C11.2442 19.3096 11.4686 20.8608 12.3847 22H8.95713C8.38603 22 8.10047 22 7.82977 21.9628C7.02682 21.8526 6.27629 21.5011 5.67759 20.9548C5.47575 20.7706 5.29293 20.5513 4.92732 20.1125Z" fill="#1C274C"/>
</g>
<path id="Vector_5" opacity="0.5" d="M4 17.5518V10.9225C4 10.6087 4.03683 10.2994 4.10779 10H19.8955C19.9643 10.295 20 10.5995 20 10.9083V14.3842C18.4889 13.1693 16.2529 13.1712 14.8177 14.6064L12.6067 16.8175C12.2534 17.1707 11.987 17.5725 11.8042 18H4.02518C4.00847 17.8518 4 17.7022 4 17.5518Z" fill="#1C274C"/>
<path id="Vector_6" d="M18.8208 19.634C18.7777 19.5245 18.7225 19.3976 18.6525 19.2568C18.4263 18.8019 18.0462 18.2045 17.4208 17.5792C16.7955 16.9538 16.198 16.5737 15.7432 16.3474C15.6025 16.2774 15.4758 16.2223 15.3663 16.1792L14.1401 17.4053L14.6094 17.505L14.6207 17.5079C14.636 17.5121 14.6646 17.5203 14.705 17.5339C14.7858 17.5612 14.9133 17.6099 15.0751 17.6904C15.3978 17.851 15.8595 18.1392 16.3602 18.6398C16.8608 19.1405 17.149 19.6021 17.3095 19.9248C17.3899 20.0865 17.4386 20.214 17.4659 20.2948C17.4795 20.3352 17.4878 20.3638 17.4919 20.3791L17.4948 20.3903L17.5946 20.8603L18.8208 19.634Z" fill="#1C274C"/>
</g>
</svg>
