<svg width="24" height="24" viewBox="0 0 24 24" fill="none" xmlns="http://www.w3.org/2000/svg">
<g id="Outline / Home, Furniture / Lamp">
<path id="Vector" fill-rule="evenodd" clip-rule="evenodd" d="M11.9613 1.25H12.0389C13.2176 1.24999 14.1567 1.24998 14.9175 1.32433C15.7011 1.40089 16.3624 1.56105 16.9671 1.92231C17.2934 2.11721 17.595 2.35055 17.8656 2.61733C18.3673 3.11184 18.6884 3.71167 18.9595 4.45089C19.2226 5.16858 19.4586 6.07761 19.7548 7.21848L19.8632 7.63604C20.2649 9.18321 20.5857 10.419 20.7047 11.4064C20.8271 12.4212 20.7564 13.3138 20.2354 14.0899C20.1417 14.2296 20.0387 14.3628 19.9271 14.4886C19.4787 14.994 18.9122 15.2871 18.2501 15.4623V17C18.2501 17.4142 17.9143 17.75 17.5001 17.75C17.0859 17.75 16.7501 17.4142 16.7501 17V15.6873C15.8811 15.75 14.8314 15.75 13.5867 15.75H12.7501V21.25H15.0001C15.4143 21.25 15.7501 21.5858 15.7501 22C15.7501 22.4142 15.4143 22.75 15.0001 22.75H9.00009C8.58588 22.75 8.25009 22.4142 8.25009 22C8.25009 21.5858 8.58588 21.25 9.00009 21.25H11.2501V15.75H10.4135C8.81502 15.75 7.53825 15.75 6.55263 15.6171C5.53966 15.4805 4.69341 15.1878 4.07312 14.4886C3.96151 14.3628 3.85849 14.2296 3.76475 14.0899C3.24383 13.3138 3.17313 12.4212 3.29547 11.4064C3.4145 10.419 3.73535 9.18319 4.13704 7.636L4.24542 7.21852C4.54161 6.07763 4.7776 5.16859 5.04073 4.45089C5.31175 3.71167 5.63294 3.11184 6.13456 2.61733C6.40518 2.35055 6.70684 2.11721 7.03306 1.92231C7.63775 1.56105 8.29905 1.40089 9.08265 1.32433C9.84344 1.24998 10.7826 1.24999 11.9613 1.25ZM13.5294 14.25C15.1983 14.25 16.3735 14.2484 17.2471 14.1306C18.1051 14.0149 18.53 13.8031 18.805 13.4931C18.8719 13.4176 18.9337 13.3377 18.99 13.254C19.2209 12.91 19.3191 12.4454 19.2155 11.5859C19.11 10.7108 18.8163 9.57286 18.3969 7.95744L18.3126 7.63298C18.0045 6.44607 17.7861 5.60812 17.5511 4.96723C17.3212 4.34 17.0971 3.966 16.8126 3.68554C16.6274 3.50301 16.421 3.34335 16.1978 3.21C15.8549 3.00511 15.4366 2.88218 14.7717 2.81721C14.0923 2.75083 13.2263 2.75 12.0001 2.75C10.7738 2.75 9.9079 2.75083 9.22853 2.81721C8.56364 2.88218 8.14533 3.00511 7.80238 3.21C7.57917 3.34335 7.37278 3.50301 7.18762 3.68554C6.90312 3.966 6.67902 4.34 6.44906 4.96723C6.21409 5.60812 5.99569 6.44607 5.68755 7.63297L5.60332 7.95744C5.18393 9.57286 4.89018 10.7108 4.78468 11.5859C4.68107 12.4454 4.77932 12.91 5.01021 13.254C5.06645 13.3377 5.12826 13.4176 5.19523 13.4931C5.47016 13.8031 5.8951 14.0149 6.75308 14.1306C7.62666 14.2484 8.80186 14.25 10.4708 14.25H13.5294Z" fill="#1C274C"/>
</g>
</svg>
