<svg width="24" height="24" viewBox="0 0 24 24" fill="none" xmlns="http://www.w3.org/2000/svg">
<g id="Bold Duotone / Mesages, Conversation /  Letter Opened">
<path id="Vector" fill-rule="evenodd" clip-rule="evenodd" d="M6.71947 10.5997L8.15874 11.7991C9.99537 13.3296 10.9137 14.0949 11.9998 14.0949C13.086 14.0949 14.0043 13.3296 15.8409 11.7991L17.2802 10.5997C17.6341 10.3048 17.811 10.1574 17.9054 9.95578C17.9998 9.75421 17.9998 9.52389 17.9998 9.06325V7C17.9998 6.67937 17.9998 6.38054 17.998 6.10169C17.9863 4.3306 17.9002 3.36486 17.2676 2.73223C16.5354 2 15.3569 2 12.9998 2H10.9998C8.64282 2 7.46431 2 6.73207 2.73223C6.09945 3.36486 6.01155 4.3306 5.99984 6.10169C5.998 6.38054 5.99984 6.67937 5.99984 7V9.06325C5.99984 9.52389 5.99984 9.75421 6.09425 9.95578C6.18866 10.1574 6.3656 10.3048 6.71947 10.5997ZM9.24976 6C9.24976 5.58579 9.58554 5.25 9.99976 5.25H13.9998C14.414 5.25 14.7498 5.58579 14.7498 6C14.7498 6.41421 14.414 6.75 13.9998 6.75H9.99976C9.58554 6.75 9.24976 6.41421 9.24976 6ZM10.2498 9C10.2498 8.58579 10.5855 8.25 10.9998 8.25H12.9998C13.414 8.25 13.7498 8.58579 13.7498 9C13.7498 9.41421 13.414 9.75 12.9998 9.75H10.9998C10.5855 9.75 10.2498 9.41421 10.2498 9Z" fill="#1C274C"/>
<path id="Vector_2" opacity="0.5" d="M8.15874 11.7993L6.71947 10.6C6.3656 10.3051 6.18866 10.1576 6.09425 9.95605C5.99984 9.75448 5.99984 9.52416 5.99984 9.06352V7.00027C5.99984 6.89095 5.99963 6.78417 5.99942 6.67986C5.99901 6.4782 5.99863 6.28574 5.99984 6.10195C4.69982 6.22984 3.82473 6.51868 3.17157 7.17184C2 8.34341 2 10.2299 2 14.0011C2 17.7723 2 19.658 3.17157 20.8295C4.34314 22.0011 6.22876 22.0011 9.99998 22.0011H14C17.7712 22.0011 19.6569 22.0011 20.8284 20.8295C22 19.658 22 17.7723 22 14.0011C22 10.2299 22 8.34341 20.8284 7.17184C20.1749 6.51832 19.2992 6.22934 17.998 6.10156C17.9998 6.38042 17.9998 6.67963 17.9998 7.00027V9.06352C17.9998 9.52416 17.9998 9.75448 17.9054 9.95605C17.811 10.1576 17.6341 10.3051 17.2802 10.6L15.8409 11.7993C14.0043 13.3299 13.086 14.0951 11.9998 14.0951C10.9137 14.0951 9.99537 13.3299 8.15874 11.7993Z" fill="#1C274C"/>
</g>
</svg>
