<svg width="24" height="24" viewBox="0 0 24 24" fill="none" xmlns="http://www.w3.org/2000/svg">
<g id="Broken / Video, Audio, Sound / Library">
<path id="Vector" d="M21.0943 13.793L21.0667 14L20.6943 16.793C20.3635 19.2739 20.1981 20.5143 19.3497 21.2572C18.5012 22 17.2498 22 14.7469 22H9.25314C6.75031 22 5.49889 22 4.65042 21.2572C3.80195 20.5143 3.63656 19.2739 3.30578 16.793L2.90578 13.793C2.48397 10.6294 2.27307 9.04765 3.16944 8.02383C4.06582 7 5.66159 7 8.85314 7H15.1469C18.3385 7 19.9343 7 20.8306 8.02383C21.2614 8.51583 21.4365 9.13668 21.4553 10" stroke="#1C274C" stroke-width="1.5" stroke-linecap="round"/>
<path id="Vector_2" d="M19.562 7C19.7906 5.69523 18.7866 4.5 17.4619 4.5H6.53812C5.21347 4.5 4.20946 5.69523 4.43809 7" stroke="#1C274C" stroke-width="1.5"/>
<path id="Vector_3" d="M17.4999 4.5C17.5283 4.24092 17.5425 4.11135 17.5427 4.00435C17.545 2.98072 16.7739 2.12064 15.7561 2.01142C15.6497 2 15.5194 2 15.2588 2H8.74099C8.48035 2 8.35002 2 8.24362 2.01142C7.22584 2.12064 6.45481 2.98072 6.45704 4.00434C6.45727 4.11135 6.47146 4.2409 6.49983 4.5" stroke="#1C274C" stroke-width="1.5"/>
<path id="Vector_4" d="M15 18H9" stroke="#1C274C" stroke-width="1.5" stroke-linecap="round"/>
</g>
</svg>
