<svg width="24" height="24" viewBox="0 0 24 24" fill="none" xmlns="http://www.w3.org/2000/svg">
<g id="Outline / Electronic, Devices / Mouse Circle">
<path id="Vector (Stroke)" fill-rule="evenodd" clip-rule="evenodd" d="M11.25 3.85064C11.25 3.09139 10.6697 2.66488 10.1622 2.76806C5.93808 3.62684 2.75 7.39389 2.75 11.9172C2.75 17.0777 6.89721 21.2504 12 21.2504C17.1028 21.2504 21.25 17.0777 21.25 11.9172C21.25 8.22069 19.1208 5.02783 16.0342 3.51586C15.6622 3.33364 15.5084 2.88438 15.6906 2.5124C15.8728 2.14041 16.3221 1.98658 16.6941 2.16879C20.2798 3.92522 22.75 7.63146 22.75 11.9172C22.75 17.8944 17.9429 22.7504 12 22.7504C6.05709 22.7504 1.25 17.8944 1.25 11.9172C1.25 6.67509 4.94577 2.29789 9.86335 1.29813C11.5214 0.961054 12.75 2.38238 12.75 3.85064V5.3093C15.017 5.66889 16.75 7.63227 16.75 10.0004V14.0004C16.75 16.6238 14.6234 18.7504 12 18.7504C9.37665 18.7504 7.25 16.6238 7.25 14.0004V10.0004C7.25 7.63227 8.98301 5.66889 11.25 5.3093V3.85064ZM11.25 6.83739C10.0574 7.1191 9.11868 8.05784 8.83697 9.25043H11.25V6.83739ZM12.75 9.25043H15.163C14.8813 8.05784 13.9426 7.1191 12.75 6.83739V9.25043ZM15.25 10.7504H8.75V14.0004C8.75 15.7954 10.2051 17.2504 12 17.2504C13.7949 17.2504 15.25 15.7954 15.25 14.0004V10.7504Z" fill="#1C274C"/>
</g>
</svg>
