<svg width="24" height="24" viewBox="0 0 24 24" fill="none" xmlns="http://www.w3.org/2000/svg">
<g id="Outline / Messages, Coversation / Multiple Forward Left">
<path id="Vector" fill-rule="evenodd" clip-rule="evenodd" d="M9.01113 3.98966C9.29299 4.2932 9.27541 4.76775 8.97188 5.0496L3.75567 9.89322C3.11438 10.4887 2.75 11.3243 2.75 12.1994C2.75 13.122 3.15476 13.998 3.85725 14.596L8.94767 18.9289C9.26309 19.1974 9.30114 19.6707 9.03266 19.9861C8.76417 20.3016 8.29083 20.3396 7.97541 20.0711L2.88499 15.7382C1.84768 14.8553 1.25 13.5616 1.25 12.1994C1.25 10.9072 1.78806 9.67333 2.73499 8.79403L7.9512 3.95041C8.25473 3.66856 8.72928 3.68613 9.01113 3.98966ZM12.2472 5.67696C12.1341 5.77386 11.9991 5.89337 11.8341 6.03999L7.86184 9.57092C7.06075 10.283 6.52023 10.7658 6.17005 11.1773C5.83376 11.5725 5.76062 11.8033 5.76062 12C5.76062 12.1967 5.83376 12.4275 6.17005 12.8227C6.52022 13.2342 7.06074 13.717 7.86184 14.4291L11.8341 17.96C11.9991 18.1066 12.1341 18.2261 12.2472 18.323C12.2499 18.1742 12.2502 17.9939 12.2502 17.7732V15.4286C12.2502 15.0144 12.586 14.6786 13.0002 14.6786C14.9128 14.6786 16.9003 15.1325 18.6162 15.9686C19.5351 16.4163 20.3904 16.981 21.1163 17.6568C20.7475 14.6098 19.6578 12.6439 18.3567 11.399C16.7367 9.84897 14.6898 9.32143 13.0002 9.32143C12.586 9.32143 12.2502 8.98565 12.2502 8.57143V6.22685C12.2502 6.00615 12.2499 5.82585 12.2472 5.67696ZM11.765 4.1541C12.0219 3.9845 12.489 3.73814 13.0123 3.97312C13.5356 4.20811 13.6618 4.7209 13.7057 5.02557C13.7504 5.33582 13.7503 5.741 13.7502 6.17513C13.7502 6.19233 13.7502 6.20957 13.7502 6.22685V7.85061C15.5739 7.99207 17.6721 8.668 19.3937 10.3152C21.3688 12.2051 22.7502 15.279 22.7502 20C22.7502 20.3451 22.5148 20.6456 22.1798 20.7282C21.8447 20.8108 21.4966 20.6541 21.3362 20.3486C20.6804 19.0996 19.4721 18.0543 17.9592 17.3171C16.6726 16.6902 15.2017 16.3047 13.7502 16.2046V17.7732C13.7502 17.7904 13.7502 17.8077 13.7502 17.8249C13.7503 18.259 13.7504 18.6642 13.7057 18.9744C13.6618 19.2791 13.5356 19.7919 13.0123 20.0269C12.489 20.2619 12.0219 20.0155 11.765 19.8459C11.5035 19.6732 11.2007 19.404 10.8762 19.1155C10.8634 19.1041 10.8505 19.0926 10.8376 19.0811L6.82376 15.5133C6.07481 14.8476 5.45396 14.2958 5.02767 13.7948C4.57965 13.2683 4.26062 12.7014 4.26062 12C4.26062 11.2986 4.57965 10.7317 5.02767 10.2052C5.45396 9.70426 6.07481 9.15242 6.82375 8.48673L10.8376 4.91888C10.8505 4.9074 10.8634 4.89594 10.8762 4.88452C11.2007 4.59604 11.5035 4.32681 11.765 4.1541Z" fill="#1C274C"/>
</g>
</svg>
