<svg width="24" height="24" viewBox="0 0 24 24" fill="none" xmlns="http://www.w3.org/2000/svg">
<g id="Bold Duotone / Video, Audio, Sound / Music Library ">
<path id="Vector" opacity="0.7" d="M6.87957 4.72266C5.62801 4.72266 4.60177 5.5624 4.2593 6.67643C4.25216 6.69965 4.24531 6.723 4.23877 6.74645C4.5971 6.62588 4.97003 6.54712 5.34755 6.49334C6.31989 6.35484 7.54869 6.35491 8.97612 6.35499L9.08272 6.355L15.179 6.35499C16.6064 6.35491 17.8352 6.35484 18.8076 6.49334C19.1851 6.54712 19.558 6.62588 19.9164 6.74645C19.9098 6.723 19.903 6.69966 19.8958 6.67643C19.5534 5.5624 18.5271 4.72266 17.2756 4.72266H6.87957Z" fill="#1C274C"/>
<path id="Vector_2" opacity="0.4" d="M8.85899 2.00001H15.1411C15.3503 1.99995 15.5107 1.99991 15.651 2.01515C16.648 2.12351 17.4641 2.78957 17.8101 3.68676H6.18994C6.53601 2.78957 7.35208 2.12351 8.34912 2.01515C8.48935 1.99991 8.64976 1.99995 8.85899 2.00001Z" fill="#1C274C"/>
<path id="Vector_3" fill-rule="evenodd" clip-rule="evenodd" d="M14.9948 7.54199H9.00515C5.96782 7.54199 4.44915 7.54199 3.59609 8.52881C2.74302 9.51563 2.94373 11.0402 3.34516 14.0894L3.72583 16.981C4.04063 19.3722 4.19803 20.5678 5.0055 21.2838C5.81297 21.9998 7.00392 21.9998 9.38581 21.9998H14.6142C16.9961 21.9998 18.187 21.9998 18.9945 21.2838C19.802 20.5678 19.9594 19.3722 20.2742 16.981L20.6548 14.0894C21.0563 11.0402 21.257 9.51563 20.4039 8.52881C19.5509 7.54199 18.0322 7.54199 14.9948 7.54199ZM14.5885 10.1651C13.3569 9.63888 11.9428 10.4305 11.8607 11.6925C11.8571 11.7476 11.8571 11.8163 11.8571 11.8993L11.8571 11.9262C11.8571 11.9559 11.8571 11.9823 11.8578 12.0077L11.8574 15.5219C11.4791 15.3177 11.0399 15.2008 10.5714 15.2008C9.15135 15.2008 8 16.275 8 17.6004C8 18.9257 9.15135 20 10.5714 20C11.9915 20 13.1428 18.9257 13.1429 17.6004L13.1433 13.6814L14.0713 14.1433C14.1498 14.1824 14.2148 14.2147 14.2686 14.2377C15.5003 14.7639 16.9144 13.9723 16.9965 12.7103C17 12.6552 17 12.5864 17 12.5034L17 12.4766C17 12.4427 17 12.413 16.999 12.3842C16.9778 11.7607 16.6121 11.1919 16.0326 10.8811C16.0057 10.8667 15.9777 10.8527 15.9456 10.8368L14.7858 10.2595C14.7074 10.2205 14.6423 10.188 14.5885 10.1651Z" fill="#1C274C"/>
<g id="Vector_4">
<path d="M13.144 11.7652C13.1713 11.3448 13.6426 11.0807 14.0533 11.2562L15.3918 11.9215C15.585 12.0251 15.7068 12.2146 15.7139 12.4224C15.7141 12.4296 15.7142 12.4388 15.7142 12.4838C15.7142 12.5972 15.7139 12.6246 15.713 12.6377C15.6857 13.0582 15.2144 13.3222 14.8037 13.1468C14.7908 13.1413 14.7648 13.1287 14.6576 13.0753L13.5231 12.5107C13.4806 12.4895 13.472 12.4851 13.4652 12.4815C13.272 12.3779 13.1502 12.1883 13.1431 11.9806C13.1429 11.9733 13.1428 11.9642 13.1428 11.9192C13.1428 11.8058 13.1431 11.7784 13.144 11.7652Z" fill="#1C274C"/>
<path d="M10.5714 16.4008C11.2815 16.4008 11.857 16.9379 11.8571 17.6004C11.8571 18.2629 11.2815 18.8002 10.5714 18.8002C9.8612 18.8002 9.28564 18.263 9.28564 17.6005C9.28564 16.938 9.8612 16.4008 10.5714 16.4008Z" fill="#1C274C"/>
</g>
</g>
</svg>
