<svg width="24" height="24" viewBox="0 0 24 24" fill="none" xmlns="http://www.w3.org/2000/svg">
<g id="Bold Duotone / Video, Audio, Sound / Music Library 2">
<path id="Vector" fill-rule="evenodd" clip-rule="evenodd" d="M14.9948 7.54199H9.00515C5.96782 7.54199 4.44915 7.54199 3.59609 8.52881C2.74302 9.51563 2.94373 11.0402 3.34516 14.0894L3.72583 16.981C4.04063 19.3722 4.19803 20.5678 5.0055 21.2838C5.81297 21.9998 7.00392 21.9998 9.38581 21.9998H14.6142C16.9961 21.9998 18.187 21.9998 18.9945 21.2838C19.802 20.5678 19.9594 19.3722 20.2742 16.981L20.6548 14.0894C21.0563 11.0402 21.257 9.51563 20.4039 8.52881C19.5509 7.54199 18.0322 7.54199 14.9948 7.54199ZM12.75 10.5C12.75 10.0858 12.4142 9.75 12 9.75C11.5858 9.75 11.25 10.0858 11.25 10.5V14.878C11.0154 14.7951 10.763 14.75 10.5 14.75C9.25736 14.75 8.25 15.7574 8.25 17C8.25 18.2426 9.25736 19.25 10.5 19.25C11.7426 19.25 12.75 18.2426 12.75 17V13.3197C13.4202 13.8634 14.2617 14.25 15 14.25C15.4142 14.25 15.75 13.9142 15.75 13.5C15.75 13.0858 15.4142 12.75 15 12.75C14.6946 12.75 14.1145 12.5314 13.5835 12.0603C13.0654 11.6006 12.75 11.0386 12.75 10.5Z" fill="#1C274C"/>
<path id="Vector_2" opacity="0.7" d="M6.87908 4.72266C5.62752 4.72266 4.60128 5.5624 4.25881 6.67643C4.25167 6.69965 4.24482 6.723 4.23828 6.74645C4.59662 6.62588 4.96954 6.54712 5.34706 6.49334C6.3194 6.35484 7.5482 6.35491 8.97563 6.35499H15.1785C16.6059 6.35491 17.8348 6.35484 18.8071 6.49334C19.1846 6.54712 19.5575 6.62588 19.9159 6.74645C19.9093 6.723 19.9025 6.69966 19.8953 6.67643C19.5529 5.5624 18.5266 4.72266 17.2751 4.72266H6.87908Z" fill="#1C274C"/>
<path id="Vector_3" opacity="0.4" d="M8.8585 2.00001H15.1406C15.3498 1.99995 15.5102 1.99991 15.6505 2.01515C16.6475 2.12351 17.4636 2.78957 17.8097 3.68676H6.18945C6.53552 2.78957 7.35159 2.12351 8.34863 2.01515C8.48886 1.99991 8.64927 1.99995 8.8585 2.00001Z" fill="#1C274C"/>
<path id="Vector_4" d="M10.5 16.25C10.9142 16.25 11.25 16.5858 11.25 17C11.25 17.4142 10.9142 17.75 10.5 17.75C10.0858 17.75 9.75 17.4142 9.75 17C9.75 16.5858 10.0858 16.25 10.5 16.25Z" fill="#1C274C"/>
</g>
</svg>
