<svg width="24" height="24" viewBox="0 0 24 24" fill="none" xmlns="http://www.w3.org/2000/svg">
<g id="Bold / Design, Tools / Paint Roller">
<path id="Vector" d="M6 4.5C6 3.56538 6 3.09808 6.20096 2.75C6.33261 2.52197 6.52197 2.33261 6.75 2.20096C7.09808 2 7.56538 2 8.5 2H15.5C16.4346 2 16.9019 2 17.25 2.20096C17.478 2.33261 17.6674 2.52197 17.799 2.75C18 3.09808 18 3.56538 18 4.5C18 5.43462 18 5.90192 17.799 6.25C17.6674 6.47803 17.478 6.66739 17.25 6.79904C16.9019 7 16.4346 7 15.5 7H8.5C7.56538 7 7.09808 7 6.75 6.79904C6.52197 6.66739 6.33261 6.47803 6.20096 6.25C6 5.90192 6 5.43462 6 4.5Z" fill="#1C274C"/>
<path id="Vector_2" d="M5.00214 3.93909C4.84746 4.07647 4.75 4.27687 4.75 4.50002C4.75 4.72318 4.84746 4.92357 5.00214 5.06095C4.99998 4.89619 4.99999 4.72205 5 4.54025V4.4598C4.99999 4.278 4.99998 4.10385 5.00214 3.93909Z" fill="#1C274C"/>
<path id="Vector_3" d="M10 16V20C10 20.9428 10 21.4142 10.2929 21.7071C10.5858 22 11.0572 22 12 22C12.9428 22 13.4142 22 13.7071 21.7071C14 21.4142 14 20.9428 14 20V16C14 15.0572 14 14.5858 13.7071 14.2929C13.4142 14 12.9428 14 12 14C11.0572 14 10.5858 14 10.2929 14.2929C10 14.5858 10 15.0572 10 16Z" fill="#1C274C"/>
<path id="Vector_4" d="M18.9944 5.25H19.0453C19.4999 5.25 19.8051 5.25037 20.0416 5.26579C20.2718 5.2808 20.3843 5.30776 20.4583 5.3369C20.781 5.46395 21.0364 5.71937 21.1635 6.04208C21.1926 6.11609 21.2196 6.22858 21.2346 6.45878C21.25 6.6953 21.2504 7.00044 21.2504 7.4551C21.2504 8.29243 21.2398 8.52185 21.179 8.69392C21.0747 8.98918 20.8634 9.23455 20.5869 9.38148C20.4257 9.4671 20.2004 9.5116 19.3724 9.63581L15.249 10.2543C14.4763 10.3702 13.8277 10.4675 13.3152 10.6116C12.7721 10.7643 12.2916 10.9923 11.9166 11.4278C11.5334 11.8727 11.3753 12.4055 11.3071 13.0062C11.5113 12.9999 11.727 13 11.9458 13H12.0546C12.3196 13 12.5799 12.9999 12.8208 13.011C12.8708 12.6902 12.9482 12.5286 13.0532 12.4067C13.1626 12.2796 13.3307 12.1654 13.7212 12.0556C14.1321 11.94 14.6865 11.8555 15.5182 11.7307L19.714 11.1014C20.3648 11.0044 20.8716 10.9288 21.2907 10.7061C21.8991 10.3829 22.3639 9.84304 22.5934 9.19346C22.7514 8.74599 22.751 8.23353 22.7504 7.57559L22.7504 7.43098C22.7504 7.00661 22.7504 6.65233 22.7314 6.3612C22.7116 6.05823 22.6691 5.77171 22.5592 5.49258C22.2797 4.78261 21.7177 4.22069 21.0078 3.94117C20.7286 3.83128 20.4421 3.78872 20.1392 3.76897C19.848 3.74999 19.4937 3.74999 19.0694 3.75H18.9944C19.0002 3.96867 19.0002 4.20681 19.0002 4.45976V4.54024C19.0002 4.7932 19.0002 5.03133 18.9944 5.25Z" fill="#1C274C"/>
</g>
</svg>
