<svg width="24" height="24" viewBox="0 0 24 24" fill="none" xmlns="http://www.w3.org/2000/svg">
<g id="Broken / Design, Tools / Palette">
<path id="Vector" d="M2 8V6C2 4.59987 2 3.8998 2.27248 3.36502C2.51217 2.89462 2.89462 2.51217 3.36502 2.27248C3.8998 2 4.59987 2 6 2C7.40013 2 8.1002 2 8.63498 2.27248C9.10538 2.51217 9.48783 2.89462 9.72752 3.36502C10 3.8998 10 4.59987 10 6V18C10 19.4001 10 20.1002 9.72752 20.635C9.48783 21.1054 9.10538 21.4878 8.63498 21.7275C8.1002 22 7.40013 22 6 22C4.59987 22 3.8998 22 3.36502 21.7275C2.89462 21.4878 2.51217 21.1054 2.27248 20.635C2 20.1002 2 19.4001 2 18V12" stroke="#1C274C" stroke-width="1.5" stroke-linecap="round"/>
<path id="Vector_2" d="M7 19H5" stroke="#1C274C" stroke-width="1.5" stroke-linecap="round"/>
<path id="Vector_3" d="M13.3137 4.929L11.1716 7.07109C10.5935 7.64915 10.3045 7.93818 10.1522 8.30573C10 8.67327 10 9.08202 10 9.89952L10 19.5564L18.9705 10.5859C19.9606 9.59581 20.4556 9.10079 20.6411 8.52997C20.8042 8.02786 20.8042 7.48699 20.6411 6.98489C20.4556 6.41406 19.9606 5.91904 18.9705 4.929C17.9805 3.93896 17.4855 3.44394 16.9146 3.25847C16.4125 3.09532 15.8717 3.09532 15.3695 3.25847C14.7987 3.44394 14.3037 3.93896 13.3137 4.929Z" stroke="#1C274C" stroke-width="1.5"/>
<path id="Vector_4" d="M18 22V21.25V22ZM18 14V14.75V14ZM22 18H21.25H22ZM21.7275 20.635L21.0593 20.2945V20.2945L21.7275 20.635ZM20.635 21.7275L20.2945 21.0593H20.2945L20.635 21.7275ZM21.7275 15.365L21.0593 15.7055V15.7055L21.7275 15.365ZM20.635 14.2725L20.2945 14.9407V14.9407L20.635 14.2725ZM13 22.75C13.4142 22.75 13.75 22.4142 13.75 22C13.75 21.5858 13.4142 21.25 13 21.25V22.75ZM17 21.25C16.5858 21.25 16.25 21.5858 16.25 22C16.25 22.4142 16.5858 22.75 17 22.75V21.25ZM15.5 14.75L18 14.75V13.25L15.5 13.25V14.75ZM21.25 18C21.25 18.7124 21.2494 19.2017 21.2184 19.5809C21.1882 19.9514 21.1327 20.1504 21.0593 20.2945L22.3958 20.9755C22.5949 20.5847 22.6756 20.1663 22.7134 19.7031C22.7506 19.2486 22.75 18.6877 22.75 18H21.25ZM18 22.75C18.6877 22.75 19.2486 22.7506 19.7031 22.7134C20.1663 22.6756 20.5847 22.5949 20.9755 22.3958L20.2945 21.0593C20.1504 21.1327 19.9514 21.1882 19.5809 21.2184C19.2017 21.2494 18.7124 21.25 18 21.25V22.75ZM21.0593 20.2945C20.8915 20.6238 20.6238 20.8915 20.2945 21.0593L20.9755 22.3958C21.587 22.0842 22.0842 21.587 22.3958 20.9755L21.0593 20.2945ZM22.75 18C22.75 17.3123 22.7506 16.7514 22.7134 16.2969C22.6756 15.8337 22.5949 15.4153 22.3958 15.0245L21.0593 15.7055C21.1327 15.8496 21.1882 16.0486 21.2184 16.4191C21.2494 16.7983 21.25 17.2876 21.25 18H22.75ZM18 14.75C18.7124 14.75 19.2017 14.7506 19.5809 14.7816C19.9514 14.8118 20.1504 14.8673 20.2945 14.9407L20.9755 13.6042C20.5847 13.4051 20.1663 13.3244 19.7031 13.2866C19.2486 13.2494 18.6877 13.25 18 13.25V14.75ZM22.3958 15.0245C22.0842 14.413 21.587 13.9158 20.9755 13.6042L20.2945 14.9407C20.6238 15.1085 20.8915 15.3762 21.0593 15.7055L22.3958 15.0245ZM13 21.25L6 21.25L6 22.75L13 22.75V21.25ZM18 21.25H17V22.75H18V21.25Z" fill="#1C274C"/>
</g>
</svg>
