<svg width="24" height="24" viewBox="0 0 24 24" fill="none" xmlns="http://www.w3.org/2000/svg">
<g id="Outline / School / Passport">
<g id="Vector">
<path fill-rule="evenodd" clip-rule="evenodd" d="M12 9.25002C9.92893 9.25002 8.25 10.929 8.25 13C8.25 15.0711 9.92893 16.75 12 16.75C14.0711 16.75 15.75 15.0711 15.75 13C15.75 10.929 14.0711 9.25002 12 9.25002ZM9.75 13C9.75 11.7574 10.7574 10.75 12 10.75C13.2426 10.75 14.25 11.7574 14.25 13C14.25 14.2427 13.2426 15.25 12 15.25C10.7574 15.25 9.75 14.2427 9.75 13Z" fill="#1C274D"/>
<path d="M10 18.25C9.58579 18.25 9.25 18.5858 9.25 19C9.25 19.4142 9.58579 19.75 10 19.75H14C14.4142 19.75 14.75 19.4142 14.75 19C14.75 18.5858 14.4142 18.25 14 18.25H10Z" fill="#1C274D"/>
<path fill-rule="evenodd" clip-rule="evenodd" d="M15.6111 1.5837C17.2678 1.34703 18.75 2.63255 18.75 4.30606V5.68254C19.9395 6.31129 20.75 7.561 20.75 9.00002V19C20.75 21.0711 19.0711 22.75 17 22.75H7C4.92893 22.75 3.25 21.0711 3.25 19V5.00002H3.25136C3.25046 4.97645 3.25 4.95276 3.25 4.92897C3.25 4.02272 3.91638 3.25437 4.81353 3.12621L15.6111 1.5837ZM5.07107 6.75004L5.06244 6.75002H4.75V19C4.75 20.2427 5.75736 21.25 7 21.25H17C18.2426 21.25 19.25 20.2427 19.25 19V9.00002C19.25 7.76058 18.2478 6.75521 17.0096 6.75004H5.07107ZM17.25 5.25004H17.0125L17 5.25002H5.0674C4.89177 5.24805 4.75 5.10507 4.75 4.92897C4.75 4.76919 4.86749 4.63373 5.02566 4.61113L15.8232 3.06862C16.5763 2.96104 17.25 3.54537 17.25 4.30606V5.25004Z" fill="#1C274D"/>
</g>
</g>
</svg>
