<svg width="24" height="24" viewBox="0 0 24 24" fill="none" xmlns="http://www.w3.org/2000/svg">
<g id="Outline / School / Passport Minimalistic">
<g id="Vector">
<path fill-rule="evenodd" clip-rule="evenodd" d="M8.25 14C8.25 11.929 9.92893 10.25 12 10.25C14.0711 10.25 15.75 11.929 15.75 14C15.75 16.0711 14.0711 17.75 12 17.75C9.92893 17.75 8.25 16.0711 8.25 14ZM12 11.75C10.7574 11.75 9.75 12.7574 9.75 14C9.75 15.2427 10.7574 16.25 12 16.25C13.2426 16.25 14.25 15.2427 14.25 14C14.25 12.7574 13.2426 11.75 12 11.75Z" fill="#1C274D"/>
<path fill-rule="evenodd" clip-rule="evenodd" d="M18.75 4.30606C18.75 2.63255 17.2678 1.34703 15.6111 1.5837L4.81353 3.12621C3.91638 3.25437 3.25 4.02272 3.25 4.92897C3.25 4.95276 3.25046 4.97645 3.25136 5.00002H3.25V19C3.25 21.0711 4.92893 22.75 7 22.75H17C19.0711 22.75 20.75 21.0711 20.75 19V9.00002C20.75 7.561 19.9395 6.31129 18.75 5.68254V4.30606ZM5.06244 6.75002C5.06531 6.75003 5.06819 6.75004 5.07107 6.75004H17.0096C18.2478 6.75521 19.25 7.76058 19.25 9.00002V19C19.25 20.2427 18.2426 21.25 17 21.25H7C5.75736 21.25 4.75 20.2427 4.75 19V6.75002H5.06244ZM17.0125 5.25004H17.25V4.30606C17.25 3.54537 16.5763 2.96104 15.8232 3.06862L5.02566 4.61113C4.86749 4.63373 4.75 4.76919 4.75 4.92897C4.75 5.10507 4.89177 5.24805 5.0674 5.25002H17C17.0042 5.25002 17.0084 5.25003 17.0125 5.25004Z" fill="#1C274D"/>
</g>
</g>
</svg>
