<svg width="24" height="24" viewBox="0 0 24 24" fill="none" xmlns="http://www.w3.org/2000/svg">
<g id="Outline / Essentional, UI / Paw">
<g id="Vector">
<path fill-rule="evenodd" clip-rule="evenodd" d="M9.2961 1.99055C9.889 2.54342 10.3473 3.35765 10.5824 4.28886C10.8178 5.22079 10.8026 6.16203 10.5537 6.94271C10.3089 7.71042 9.79209 8.43492 8.95079 8.67411C8.09992 8.91602 7.29088 8.55666 6.70395 8.00935C6.11105 7.45648 5.65279 6.64225 5.41763 5.71104C5.18229 4.77911 5.19746 3.83787 5.44636 3.05719C5.69112 2.28948 6.20796 1.56498 7.04926 1.32579C7.90013 1.08388 8.70917 1.44324 9.2961 1.99055ZM8.27312 3.08759C7.91871 2.75712 7.63322 2.71921 7.45947 2.76861C7.27615 2.82073 7.0323 3.02095 6.87548 3.51283C6.72279 3.99174 6.69549 4.64495 6.87197 5.34378C7.04863 6.04332 7.3785 6.5874 7.72693 6.91231C8.08134 7.24278 8.36683 7.28069 8.54058 7.23129C8.7239 7.17917 8.96775 6.97895 9.12457 6.48707C9.27726 6.00816 9.30456 5.35496 9.12808 4.65613C8.95142 3.95658 8.62155 3.4125 8.27312 3.08759Z" fill="#1C274C"/>
<path fill-rule="evenodd" clip-rule="evenodd" d="M10.8509 9.43852C11.597 9.1871 12.4031 9.1871 13.1491 9.43852C13.9775 9.7177 14.579 10.4109 15.1373 11.2964C15.6976 12.1853 16.3065 13.4248 17.0814 15.0026L17.9885 16.8491C18.1872 17.2538 18.346 17.5771 18.4604 17.8343C18.5725 18.0866 18.6694 18.3339 18.7104 18.5741C18.9857 20.1871 17.7928 21.7013 16.1473 21.7492C15.9029 21.7564 15.6417 21.7081 15.3764 21.6464C15.1054 21.5835 14.762 21.4894 14.3334 21.3719L14.3174 21.3676C13.8025 21.2264 13.5781 21.1653 13.356 21.1204C12.4607 20.9393 11.5394 20.9393 10.6441 21.1204C10.422 21.1653 10.1976 21.2264 9.68272 21.3676L9.66672 21.3719C9.23831 21.4893 8.8946 21.5835 8.62373 21.6464C8.35838 21.7081 8.09721 21.7564 7.85279 21.7492C6.20732 21.7013 5.01435 20.1871 5.2897 18.5741C5.33069 18.3339 5.42756 18.0866 5.53972 17.8343C5.65405 17.5771 5.81286 17.2538 6.01161 16.8492L6.91863 15.0026C7.6936 13.4248 8.30245 12.1853 8.8628 11.2964C9.42105 10.4109 10.0226 9.7177 10.8509 9.43852ZM12.6701 10.86C12.2349 10.7133 11.7652 10.7133 11.33 10.86C11.0172 10.9654 10.6516 11.2716 10.1317 12.0963C9.61899 12.9097 9.04452 14.0769 8.24387 15.7069L7.36511 17.4959C7.15758 17.9184 7.01162 18.2159 6.91038 18.4436C6.8056 18.6793 6.77582 18.7825 6.76831 18.8265C6.64125 19.5708 7.19236 20.2294 7.89647 20.2499C7.93523 20.251 8.03677 20.2428 8.28444 20.1853C8.52313 20.1299 8.83791 20.0438 9.28626 19.9209L9.3152 19.913C9.79322 19.7819 10.0688 19.7064 10.3466 19.6502C11.4382 19.4293 12.5619 19.4293 13.6535 19.6502C13.9313 19.7064 14.2068 19.7819 14.6849 19.913L14.7138 19.9209C15.1622 20.0438 15.477 20.1299 15.7157 20.1853C15.9633 20.2428 16.0649 20.251 16.1036 20.2499C16.8077 20.2294 17.3588 19.5708 17.2318 18.8265C17.2243 18.7825 17.1945 18.6793 17.0897 18.4436C16.9885 18.2159 16.8425 17.9184 16.635 17.4959L15.7562 15.7069C14.9556 14.0769 14.3811 12.9097 13.8684 12.0963C13.3485 11.2716 12.9829 10.9654 12.6701 10.86Z" fill="#1C274C"/>
<path fill-rule="evenodd" clip-rule="evenodd" d="M13.4176 4.28886C13.6528 3.35765 14.1111 2.54342 14.704 1.99055C15.2909 1.44324 16.0999 1.08388 16.9508 1.32579C17.7921 1.56498 18.3089 2.28948 18.5537 3.05719C18.8026 3.83787 18.8178 4.77911 18.5824 5.71104C18.3473 6.64225 17.889 7.45648 17.2961 8.00935C16.7092 8.55666 15.9001 8.91602 15.0493 8.67411C14.208 8.43492 13.6911 7.71042 13.4464 6.94271C13.1975 6.16203 13.1823 5.22079 13.4176 4.28886ZM16.5406 2.76861C16.3668 2.71921 16.0813 2.75712 15.7269 3.08759C15.3785 3.4125 15.0486 3.95658 14.872 4.65613C14.6955 5.35496 14.7228 6.00816 14.8755 6.48707C15.0323 6.97895 15.2762 7.17917 15.4595 7.23129C15.6332 7.28069 15.9187 7.24278 16.2731 6.91231C16.6216 6.5874 16.9514 6.04332 17.1281 5.34378C17.3046 4.64495 17.2773 3.99174 17.1246 3.51283C16.9678 3.02095 16.7239 2.82073 16.5406 2.76861Z" fill="#1C274C"/>
<path fill-rule="evenodd" clip-rule="evenodd" d="M4.69542 9.20346C4.13174 8.81351 3.4026 8.60745 2.68536 8.86089C1.964 9.11578 1.53277 9.73696 1.35474 10.3993C1.17648 11.0625 1.22651 11.8295 1.49908 12.5594C1.77176 13.2896 2.23774 13.9043 2.80464 14.2965C3.36832 14.6864 4.09746 14.8925 4.8147 14.639C5.53606 14.3841 5.96729 13.763 6.14532 13.1006C6.32358 12.4374 6.27355 11.6704 6.00098 10.9405C5.7283 10.2103 5.26233 9.59564 4.69542 9.20346ZM3.84203 10.437C4.13041 10.6365 4.41844 10.9904 4.59576 11.4652C4.7732 11.9404 4.78396 12.3868 4.69673 12.7113C4.60927 13.0367 4.44872 13.1775 4.31496 13.2247C4.17708 13.2735 3.94965 13.2646 3.65803 13.0629C3.36965 12.8634 3.08162 12.5095 2.9043 12.0347C2.72687 11.5596 2.7161 11.1132 2.80333 10.7887C2.89079 10.4633 3.05134 10.3225 3.1851 10.2752C3.32298 10.2265 3.55041 10.2353 3.84203 10.437Z" fill="#1C274C"/>
<path fill-rule="evenodd" clip-rule="evenodd" d="M21.3147 8.86089C20.5975 8.60745 19.8683 8.81351 19.3046 9.20346C18.7377 9.59564 18.2718 10.2103 17.9991 10.9405C17.7265 11.6704 17.6765 12.4374 17.8547 13.1006C18.0328 13.763 18.464 14.3841 19.1854 14.639C19.9026 14.8925 20.6317 14.6864 21.1954 14.2965C21.7623 13.9043 22.2283 13.2896 22.501 12.5594C22.7736 11.8295 22.8236 11.0625 22.6453 10.3993C22.4673 9.73696 22.0361 9.11578 21.3147 8.86089ZM19.4043 11.4652C19.5816 10.9904 19.8697 10.6365 20.158 10.437C20.4496 10.2353 20.6771 10.2265 20.815 10.2752C20.9487 10.3225 21.1093 10.4633 21.1967 10.7887C21.284 11.1132 21.2732 11.5596 21.0958 12.0347C20.9184 12.5095 20.6304 12.8634 20.342 13.0629C20.0504 13.2646 19.823 13.2735 19.6851 13.2247C19.5513 13.1775 19.3908 13.0367 19.3033 12.7113C19.2161 12.3868 19.2269 11.9404 19.4043 11.4652Z" fill="#1C274C"/>
</g>
</g>
</svg>
