<svg width="24" height="24" viewBox="0 0 24 24" fill="none" xmlns="http://www.w3.org/2000/svg">
<g id="Bold Duotone / Call / Phone Calling Rounded">
<path id="Vector" opacity="0.5" d="M10.0376 5.31617L10.6866 6.4791C11.2723 7.52858 11.0372 8.90532 10.1147 9.8278C10.1147 9.8278 10.1147 9.8278 10.1147 9.8278C10.1146 9.82792 8.99588 10.9468 11.0245 12.9755C13.0525 15.0035 14.1714 13.8861 14.1722 13.8853C14.1722 13.8853 14.1722 13.8853 14.1722 13.8853C15.0947 12.9628 16.4714 12.7277 17.5209 13.3134L18.6838 13.9624C20.2686 14.8468 20.4557 17.0692 19.0628 18.4622C18.2258 19.2992 17.2004 19.9505 16.0669 19.9934C14.1588 20.0658 10.9183 19.5829 7.6677 16.3323C4.41713 13.0817 3.93421 9.84122 4.00655 7.93309C4.04952 6.7996 4.7008 5.77423 5.53781 4.93723C6.93076 3.54428 9.15317 3.73144 10.0376 5.31617Z" fill="#1C274C"/>
<g id="Vector_2">
<path d="M13.2595 1.87983C13.3257 1.47094 13.7122 1.19357 14.1211 1.25976C14.1464 1.26461 14.2279 1.27983 14.2705 1.28933C14.3559 1.30834 14.4749 1.33759 14.6233 1.38082C14.9201 1.46726 15.3347 1.60967 15.8323 1.8378C16.8286 2.29456 18.1544 3.09356 19.5302 4.46936C20.906 5.84516 21.705 7.17097 22.1617 8.16725C22.3899 8.66487 22.5323 9.07947 22.6187 9.37625C22.6619 9.52466 22.6912 9.64369 22.7102 9.72901C22.7197 9.77168 22.7267 9.80594 22.7315 9.83125L22.7373 9.86245C22.8034 10.2713 22.5286 10.6739 22.1197 10.7401C21.712 10.8061 21.3279 10.53 21.2601 10.1231C21.258 10.1121 21.2522 10.0828 21.2461 10.0551C21.2337 9.9997 21.2124 9.91188 21.1786 9.79572C21.1109 9.56339 20.9934 9.21806 20.7982 8.79238C20.4084 7.94207 19.7074 6.76789 18.4695 5.53002C17.2317 4.29216 16.0575 3.59117 15.2072 3.20134C14.7815 3.00618 14.4362 2.88865 14.2038 2.82097C14.0877 2.78714 13.9417 2.75363 13.8863 2.7413C13.4793 2.67347 13.1935 2.28755 13.2595 1.87983Z" fill="#1C274C"/>
<path fill-rule="evenodd" clip-rule="evenodd" d="M13.4857 5.3293C13.5995 4.93102 14.0146 4.7004 14.4129 4.81419L14.2069 5.53534C14.4129 4.81419 14.4129 4.81419 14.4129 4.81419L14.4144 4.81461L14.4159 4.81505L14.4192 4.81602L14.427 4.81834L14.4468 4.8245C14.4618 4.82932 14.4807 4.8356 14.5031 4.84357C14.548 4.85951 14.6074 4.88217 14.6802 4.91337C14.8259 4.97581 15.0249 5.07223 15.2695 5.21694C15.7589 5.50662 16.4271 5.9878 17.2121 6.77277C17.9971 7.55775 18.4782 8.22593 18.7679 8.7154C18.9126 8.95991 19.009 9.15897 19.0715 9.30466C19.1027 9.37746 19.1254 9.43682 19.1413 9.48173C19.1493 9.50418 19.1555 9.52301 19.1604 9.53809L19.1665 9.55788L19.1688 9.56563L19.1698 9.56896L19.1702 9.5705C19.1702 9.5705 19.1707 9.57194 18.4495 9.77798L19.1707 9.57194C19.2845 9.97021 19.0538 10.3853 18.6556 10.4991C18.2607 10.6119 17.8492 10.3862 17.7313 9.99413L17.7276 9.98335C17.7223 9.96832 17.7113 9.93874 17.6928 9.89554C17.6558 9.8092 17.5887 9.66797 17.4771 9.47938C17.2541 9.10264 16.8514 8.53339 16.1514 7.83343C15.4515 7.13348 14.8822 6.73078 14.5055 6.50781C14.3169 6.39619 14.1757 6.32909 14.0893 6.29209C14.0461 6.27358 14.0165 6.26254 14.0015 6.25721L13.9907 6.25352C13.5987 6.13564 13.3729 5.72419 13.4857 5.3293Z" fill="#1C274C"/>
</g>
</g>
</svg>
