<svg width="24" height="24" viewBox="0 0 24 24" fill="none" xmlns="http://www.w3.org/2000/svg">
<g id="Outline / Business, Statistic / Pie Chart">
<g id="Vector">
<path fill-rule="evenodd" clip-rule="evenodd" d="M14.2544 1.36453C13.1584 1.05859 12.132 1.38932 11.4026 2.05955C10.6845 2.71939 10.25 3.70552 10.25 4.76063V11.4551C10.25 12.7226 11.2775 13.75 12.5449 13.75H19.2394C20.2945 13.75 21.2806 13.3156 21.9405 12.5974C22.6107 11.868 22.9414 10.8416 22.6355 9.74563C21.5034 5.69003 18.31 2.49663 14.2544 1.36453ZM11.75 4.76063C11.75 4.10931 12.0201 3.52918 12.4175 3.16407C12.8035 2.80935 13.3035 2.65643 13.8511 2.8093C17.4013 3.80031 20.1997 6.59875 21.1907 10.1489C21.3436 10.6965 21.1907 11.1965 20.8359 11.5825C20.4708 11.9799 19.8907 12.25 19.2394 12.25H12.5449C12.1059 12.25 11.75 11.8941 11.75 11.4551V4.76063Z" fill="#1C274C"/>
<path d="M8.67232 4.71555C9.0675 4.59143 9.28724 4.17045 9.16312 3.77527C9.039 3.38009 8.61803 3.16036 8.22285 3.28447C4.18231 4.55353 1.25 8.32793 1.25 12.7892C1.25 18.2904 5.70962 22.75 11.2108 22.75C15.6721 22.75 19.4465 19.8177 20.7155 15.7772C20.8397 15.382 20.6199 14.961 20.2247 14.8369C19.8296 14.7128 19.4086 14.9325 19.2845 15.3277C18.2061 18.761 14.9982 21.25 11.2108 21.25C6.53805 21.25 2.75 17.462 2.75 12.7892C2.75 9.00185 5.23899 5.79389 8.67232 4.71555Z" fill="#1C274C"/>
</g>
</g>
</svg>
