<svg width="24" height="24" viewBox="0 0 24 24" fill="none" xmlns="http://www.w3.org/2000/svg">
<g id="Bold / Essentional, UI / Pin">
<path id="Vector" d="M16.2098 4.84828L19.1517 7.79024C21.1793 9.81784 22.1931 10.8316 21.9695 11.9389C21.7459 13.0461 20.4182 13.587 17.7626 14.6689L15.2722 15.6835C14.5397 15.9819 14.1735 16.1311 13.894 16.3883C13.7988 16.4758 13.7119 16.572 13.6344 16.6755C13.4067 16.9795 13.2951 17.3588 13.0719 18.1176C12.5444 19.9111 12.2807 20.8079 11.6637 21.115C11.463 21.2149 11.2432 21.271 11.019 21.2794C10.3304 21.3052 9.66941 20.6442 8.34748 19.3223L7.07083 18.0456L3.34811 21.7687C3.03971 22.0771 2.5397 22.0771 2.2313 21.7687C1.9229 21.4603 1.9229 20.9603 2.2313 20.6519L5.95401 16.9288L4.67771 15.6525C3.35578 14.3306 2.69482 13.6696 2.72063 12.981C2.72902 12.7568 2.78507 12.537 2.88502 12.3363C3.19213 11.7193 4.0889 11.4556 5.88242 10.9281C6.64116 10.7049 7.02053 10.5933 7.32452 10.3656C7.42802 10.2881 7.52415 10.2012 7.6117 10.106C7.86887 9.82648 8.01807 9.46027 8.31646 8.72784L9.3311 6.23736C10.413 3.58183 10.9539 2.25406 12.0611 2.03047C13.1684 1.80688 14.1822 2.82068 16.2098 4.84828Z" fill="#1C274C"/>
</g>
</svg>
