<svg width="24" height="24" viewBox="0 0 24 24" fill="none" xmlns="http://www.w3.org/2000/svg">
<g id="Bold Duotone / Essentional, UI / Pin Circle">
<path id="Vector" opacity="0.5" d="M22 12C22 17.5228 17.5228 22 12 22C6.47715 22 2 17.5228 2 12C2 6.47715 6.47715 2 12 2C17.5228 2 22 6.47715 22 12Z" fill="#1C274C"/>
<path id="Vector_2" d="M16.5576 9.42964C17.0105 9.88246 17.3899 10.2619 17.6372 10.5951C17.8953 10.943 18.0857 11.34 17.9896 11.8061C17.8935 12.2722 17.5616 12.5615 17.187 12.7789C16.8281 12.9872 16.3295 13.1856 15.7345 13.4224L14.3023 13.9924C14.0241 14.1031 13.944 14.1371 13.8781 14.1784C13.7247 14.2745 13.6011 14.4114 13.5211 14.5738C13.4867 14.6437 13.4612 14.7268 13.3794 15.0149L13.3751 15.0301C13.2998 15.2953 13.2371 15.5162 13.1763 15.6896C13.1151 15.8641 13.0395 16.0404 12.9176 16.1888C12.5095 16.6854 11.8279 16.8627 11.2295 16.6278C11.0508 16.5576 10.8989 16.4404 10.7605 16.3178C10.6229 16.1961 10.4605 16.0337 10.2655 15.8387L9.56683 15.14L7.8682 16.8387C7.67294 17.0339 7.35636 17.0339 7.1611 16.8387C6.96583 16.6434 6.96583 16.3268 7.16109 16.1316L8.85972 14.4329L8.16111 13.7343L8.16111 13.7343C7.96616 13.5393 7.8038 13.377 7.68202 13.2394C7.55946 13.1009 7.44226 12.949 7.37209 12.7703C7.13717 12.1719 7.31442 11.4903 7.8111 11.0822C7.95945 10.9603 8.13579 10.8848 8.31028 10.8235C8.48367 10.7627 8.70458 10.7 8.9698 10.6247L8.985 10.6204C9.27308 10.5386 9.35619 10.5131 9.42603 10.4787C9.5884 10.3987 9.72532 10.2751 9.82144 10.1217C9.86278 10.0558 9.89671 9.9757 10.0074 9.69747L10.5774 8.2653L10.5774 8.2653C10.8142 7.67028 11.0126 7.1717 11.2209 6.81275C11.4383 6.43812 11.7276 6.10629 12.1937 6.01019C12.6599 5.91409 13.0568 6.10443 13.4047 6.36254C13.7379 6.60985 14.1173 6.9893 14.5702 7.44216L16.5576 9.42964Z" fill="#1C274C"/>
</g>
</svg>
