<svg width="24" height="24" viewBox="0 0 24 24" fill="none" xmlns="http://www.w3.org/2000/svg">
<g id="Bold / Video, Audio, Sound / Play Circle">
<path id="Vector" fill-rule="evenodd" clip-rule="evenodd" d="M12 22C17.5228 22 22 17.5228 22 12C22 6.47715 17.5228 2 12 2C6.47715 2 2 6.47715 2 12C2 17.5228 6.47715 22 12 22ZM13.0261 9.27496C12.7888 9.10835 12.5201 8.93601 12.2419 8.76684C11.1695 8.1147 10.6333 7.78863 10.1524 8.14964C9.6715 8.51065 9.62779 9.2664 9.54038 10.7779C9.51566 11.2053 9.5 11.6244 9.5 12C9.5 12.3757 9.51566 12.7947 9.54038 13.2222C9.62779 14.7337 9.6715 15.4894 10.1524 15.8504C10.6333 16.2115 11.1695 15.8854 12.2419 15.2333C12.5201 15.0641 12.7888 14.8917 13.0261 14.7251C13.2966 14.5352 13.5909 14.3073 13.8876 14.0652C14.9625 13.1884 15.5 12.7499 15.5 12C15.5 11.2502 14.9625 10.8117 13.8876 9.93485C13.5909 9.69278 13.2966 9.46488 13.0261 9.27496Z" fill="#1C274C"/>
</g>
</svg>
