<svg width="24" height="24" viewBox="0 0 24 24" fill="none" xmlns="http://www.w3.org/2000/svg">
<g id="Bold Duotone / Video, Audio, Sound / Play">
<path id="Vector" fill-rule="evenodd" clip-rule="evenodd" d="M21 12C21 10.1253 19.3876 9.0292 16.1628 6.83701C15.2726 6.23185 14.3897 5.66208 13.5783 5.1873C12.8665 4.77077 12.0604 4.33992 11.2258 3.91698C8.00859 2.28664 6.39999 1.47147 4.95725 2.374C3.5145 3.27652 3.38338 5.16589 3.12114 8.94462C3.04698 10.0133 3 11.0609 3 12H21Z" fill="#1C274C"/>
<path id="Vector_2" opacity="0.5" d="M13.5783 18.8127C14.3897 18.3379 15.2726 17.7682 16.1628 17.163C19.3876 14.9708 21 13.8747 21 12H3C3 12.9391 3.04698 13.9867 3.12114 15.0554C3.38338 18.8341 3.5145 20.7235 4.95724 21.626C6.39999 22.5285 8.00859 21.7134 11.2258 20.083C12.0604 19.6601 12.8665 19.2292 13.5783 18.8127Z" fill="#1C274C"/>
</g>
</svg>
