<svg width="24" height="24" viewBox="0 0 24 24" fill="none" xmlns="http://www.w3.org/2000/svg">
<g id="Outline / Video, Audio, Sound / Play Circle">
<path id="Vector" fill-rule="evenodd" clip-rule="evenodd" d="M12 2.75C6.89137 2.75 2.75 6.89137 2.75 12C2.75 17.1086 6.89137 21.25 12 21.25C17.1086 21.25 21.25 17.1086 21.25 12C21.25 6.89137 17.1086 2.75 12 2.75ZM1.25 12C1.25 6.06294 6.06294 1.25 12 1.25C17.9371 1.25 22.75 6.06294 22.75 12C22.75 17.9371 17.9371 22.75 12 22.75C6.06294 22.75 1.25 17.9371 1.25 12ZM12.5727 8.0902C12.5923 8.10212 12.6119 8.11406 12.6316 8.12602C12.9188 8.30064 13.2022 8.4822 13.4571 8.66118C13.7473 8.86496 14.0567 9.10491 14.3617 9.35369C14.3771 9.36626 14.3925 9.37878 14.4078 9.39127C14.9056 9.79731 15.3532 10.1624 15.6659 10.5265C16.0204 10.9393 16.25 11.4034 16.25 12C16.25 12.5967 16.0204 13.0607 15.6659 13.4736C15.3532 13.8377 14.9057 14.2028 14.4078 14.6088L14.3617 14.6464C14.0567 14.8952 13.7473 15.1351 13.4571 15.3389C13.2022 15.5179 12.9188 15.6994 12.6316 15.8741C12.6119 15.886 12.5923 15.898 12.5727 15.9099C12.0879 16.2049 11.6298 16.4836 11.2289 16.6276C11.0061 16.7077 10.7505 16.7664 10.4754 16.746C10.1864 16.7245 9.92767 16.6195 9.70216 16.4503C9.24308 16.1056 9.05869 15.6067 8.96253 15.1104C8.87092 14.6376 8.83573 14.0287 8.79462 13.3171L8.79163 13.2655C8.76641 12.8293 8.75 12.3949 8.75 12C8.75 11.6052 8.76641 11.1707 8.79163 10.7346L8.79462 10.683C8.83573 9.97137 8.87092 9.36245 8.96253 8.88966C9.05869 8.39343 9.24308 7.89446 9.70216 7.54984C9.92767 7.38055 10.1864 7.27561 10.4754 7.25414C10.7505 7.23369 11.0061 7.29242 11.2289 7.37247C11.6298 7.51649 12.0879 7.7952 12.5727 8.0902ZM10.6004 8.75119C10.5758 8.76999 10.5007 8.83657 10.4351 9.17502C10.365 9.53683 10.3341 10.0435 10.2891 10.8212C10.2649 11.2399 10.25 11.6436 10.25 12C10.25 12.3565 10.2649 12.7601 10.2891 13.1789C10.3341 13.9566 10.365 14.4633 10.4351 14.8251C10.5007 15.1635 10.5758 15.2301 10.6004 15.2489C10.6192 15.2465 10.6575 15.239 10.7218 15.2159C10.9612 15.13 11.2865 14.9365 11.8523 14.5924C12.1215 14.4287 12.3755 14.2656 12.5951 14.1113C12.8458 13.9353 13.125 13.7194 13.4135 13.4841C13.9722 13.0284 14.3127 12.747 14.5279 12.4964C14.7108 12.2834 14.75 12.1533 14.75 12C14.75 11.8468 14.7108 11.7167 14.5279 11.5037C14.3127 11.2531 13.9722 10.9717 13.4135 10.516C13.125 10.2807 12.8458 10.0648 12.5951 9.88875C12.3755 9.73451 12.1215 9.57138 11.8523 9.40765C11.2865 9.06361 10.9612 8.87013 10.7218 8.78415C10.6575 8.76105 10.6192 8.75359 10.6004 8.75119Z" fill="#1C274C"/>
</g>
</svg>
