<svg width="24" height="24" viewBox="0 0 24 24" fill="none" xmlns="http://www.w3.org/2000/svg">
<g id="Bold Duotone / Video, Audio, Sound / Playback Speed">
<path id="Vector" opacity="0.5" d="M9.60733 1.51737C10.3774 1.34229 11.1783 1.25 11.9998 1.25C17.9369 1.25 22.7498 6.06294 22.7498 12C22.7498 17.9371 17.9369 22.75 11.9998 22.75C11.1783 22.75 10.3774 22.6577 9.60733 22.4826C9.20343 22.3908 8.95044 21.9889 9.04226 21.585C9.13409 21.1811 9.53596 20.9281 9.93987 21.02C10.6016 21.1704 11.291 21.25 11.9998 21.25C17.1085 21.25 21.2498 17.1086 21.2498 12C21.2498 6.89137 17.1085 2.75 11.9998 2.75C11.291 2.75 10.6016 2.8296 9.93987 2.98004C9.53596 3.07187 9.13409 2.81888 9.04226 2.41497C8.95044 2.01106 9.20343 1.60919 9.60733 1.51737Z" fill="#1C274C"/>
<g id="Vector_2">
<path d="M7.31347 3.13173C7.53417 3.48225 7.42894 3.94531 7.07842 4.16602C5.90324 4.90597 4.90597 5.90324 4.16602 7.07842C3.94531 7.42894 3.48225 7.53417 3.13173 7.31347C2.78121 7.09277 2.67598 6.6297 2.89668 6.27918C3.7562 4.91411 4.91411 3.7562 6.27918 2.89668C6.6297 2.67598 7.09277 2.78121 7.31347 3.13173Z" fill="#1C274C"/>
<path d="M3.13173 16.686C3.48225 16.4653 3.94531 16.5706 4.16602 16.9211C4.90598 18.0963 5.90324 19.0935 7.07842 19.8335C7.42894 20.0542 7.53417 20.5172 7.31347 20.8678C7.09277 21.2183 6.6297 21.3235 6.27918 21.1028C4.91411 20.2433 3.7562 19.0854 2.89668 17.7203C2.67598 17.3698 2.78121 16.9067 3.13173 16.686Z" fill="#1C274C"/>
</g>
<path id="Vector_3" opacity="0.5" d="M2.98004 9.93987C3.07187 9.53596 2.81888 9.13409 2.41497 9.04226C2.01106 8.95044 1.60919 9.20343 1.51737 9.60733C1.34229 10.3774 1.25 11.1783 1.25 11.9998C1.25 12.8213 1.34229 13.6222 1.51737 14.3923C1.60919 14.7962 2.01106 15.0492 2.41497 14.9574C2.81888 14.8656 3.07187 14.4637 2.98004 14.0598C2.8296 13.398 2.75 12.7087 2.75 11.9998C2.75 11.291 2.8296 10.6016 2.98004 9.93987Z" fill="#1C274C"/>
<path id="Vector_4" d="M15.5 12C15.5 11.2501 14.9625 10.8117 13.8876 9.9348C13.5909 9.69274 13.2966 9.46483 13.0261 9.27492C12.7888 9.10831 12.5201 8.93597 12.2419 8.76679C11.1695 8.11466 10.6333 7.78859 10.1524 8.1496C9.6715 8.51061 9.62779 9.26636 9.54038 10.7778C9.51566 11.2053 9.5 11.6243 9.5 12C9.5 12.3757 9.51566 12.7947 9.54038 13.2222C9.62779 14.7336 9.6715 15.4894 10.1524 15.8504C10.6333 16.2114 11.1695 15.8853 12.2419 15.2332C12.5201 15.064 12.7888 14.8917 13.0261 14.7251C13.2966 14.5352 13.5909 14.3073 13.8876 14.0652C14.9625 13.1883 15.5 12.7499 15.5 12Z" fill="#1C274C"/>
</g>
</svg>
