<svg width="24" height="24" viewBox="0 0 24 24" fill="none" xmlns="http://www.w3.org/2000/svg">
<g id="Outline / Video, Audio, Sound / Playback Speed">
<g id="Vector">
<path fill-rule="evenodd" clip-rule="evenodd" d="M12.5727 8.09016C12.5923 8.10207 12.6119 8.11401 12.6316 8.12597C12.9188 8.3006 13.2022 8.48216 13.4571 8.66113C13.7473 8.86492 14.0567 9.10486 14.3617 9.35365C14.3771 9.36621 14.3925 9.37874 14.4078 9.39123C14.9056 9.79727 15.3532 10.1623 15.6659 10.5264C16.0204 10.9393 16.25 11.4034 16.25 12C16.25 12.5966 16.0204 13.0607 15.6659 13.4736C15.3532 13.8377 14.9056 14.2027 14.4078 14.6088C14.3925 14.6213 14.3771 14.6338 14.3617 14.6464C14.0567 14.8951 13.7473 15.1351 13.4571 15.3389C13.2022 15.5178 12.9188 15.6994 12.6316 15.874C12.612 15.886 12.5923 15.8979 12.5727 15.9098C12.0879 16.2048 11.6298 16.4836 11.2289 16.6276C11.0061 16.7076 10.7505 16.7664 10.4754 16.7459C10.1864 16.7244 9.92767 16.6195 9.70216 16.4502C9.24308 16.1056 9.05869 15.6066 8.96253 15.1104C8.87092 14.6376 8.83573 14.0287 8.79462 13.3171L8.79163 13.2655C8.76641 12.8293 8.75 12.3949 8.75 12C8.75 11.6051 8.76641 11.1707 8.79163 10.7345C8.79263 10.7173 8.79363 10.7001 8.79462 10.6829C8.83573 9.97133 8.87092 9.36241 8.96253 8.88961C9.05869 8.39339 9.24308 7.89441 9.70216 7.54979C9.92767 7.3805 10.1864 7.27557 10.4754 7.25409C10.7505 7.23364 11.0061 7.29238 11.2289 7.37243C11.6298 7.51644 12.0879 7.79515 12.5727 8.09016ZM10.6004 8.75114C10.5758 8.76995 10.5007 8.83652 10.4351 9.17497C10.365 9.53679 10.3341 10.0435 10.2891 10.8212C10.2649 11.2399 10.25 11.6436 10.25 12C10.25 12.3564 10.2649 12.7601 10.2891 13.1789C10.3341 13.9565 10.365 14.4632 10.4351 14.825C10.5007 15.1635 10.5758 15.2301 10.6004 15.2489C10.6192 15.2465 10.6575 15.239 10.7218 15.2159C10.9612 15.1299 11.2865 14.9364 11.8523 14.5924C12.1215 14.4287 12.3755 14.2655 12.5951 14.1113C12.8458 13.9353 13.125 13.7194 13.4135 13.484C13.9722 13.0283 14.3127 12.747 14.5279 12.4964C14.7108 12.2833 14.75 12.1532 14.75 12C14.75 11.8468 14.7108 11.7167 14.5279 11.5036C14.3127 11.253 13.9722 10.9717 13.4135 10.516C13.125 10.2806 12.8458 10.0647 12.5951 9.88871C12.3755 9.73446 12.1215 9.57134 11.8523 9.40761C11.2865 9.06356 10.9612 8.87009 10.7218 8.7841C10.6575 8.76101 10.6192 8.75355 10.6004 8.75114Z" fill="#1C274C"/>
<path d="M22.75 12C22.75 6.06294 17.9371 1.25 12 1.25C11.1785 1.25 10.3776 1.34229 9.60751 1.51737C9.2036 1.60919 8.95061 2.01106 9.04244 2.41497C9.13427 2.81888 9.53614 3.07187 9.94005 2.98004C10.6018 2.8296 11.2911 2.75 12 2.75C17.1086 2.75 21.25 6.89137 21.25 12C21.25 17.1086 17.1086 21.25 12 21.25C11.2911 21.25 10.6018 21.1704 9.94005 21.02C9.53614 20.9281 9.13427 21.1811 9.04244 21.585C8.95061 21.9889 9.2036 22.3908 9.60751 22.4826C10.3776 22.6577 11.1785 22.75 12 22.75C17.9371 22.75 22.75 17.9371 22.75 12Z" fill="#1C274C"/>
<path d="M4.16627 16.9213C3.94557 16.5708 3.4825 16.4656 3.13198 16.6863C2.78146 16.907 2.67623 17.37 2.89693 17.7206C3.75646 19.0856 4.91436 20.2435 6.27944 21.1031C6.62995 21.3238 7.09302 21.2185 7.31372 20.868C7.53443 20.5175 7.42919 20.0544 7.07868 19.8337C5.90349 19.0938 4.90623 18.0965 4.16627 16.9213Z" fill="#1C274C"/>
<path d="M2.98004 9.94005C3.07187 9.53614 2.81888 9.13427 2.41497 9.04244C2.01106 8.95061 1.60919 9.2036 1.51737 9.60751C1.34229 10.3776 1.25 11.1785 1.25 12C1.25 12.8215 1.34229 13.6224 1.51737 14.3925C1.60919 14.7964 2.01106 15.0494 2.41497 14.9576C2.81888 14.8657 3.07187 14.4639 2.98004 14.06C2.8296 13.3982 2.75 12.7089 2.75 12C2.75 11.2911 2.8296 10.6018 2.98004 9.94005Z" fill="#1C274C"/>
<path d="M7.07868 4.16627C7.42919 3.94557 7.53443 3.4825 7.31372 3.13198C7.09302 2.78146 6.62995 2.67623 6.27943 2.89693C4.91436 3.75646 3.75646 4.91436 2.89693 6.27944C2.67623 6.62995 2.78146 7.09302 3.13198 7.31372C3.4825 7.53443 3.94556 7.42919 4.16627 7.07868C4.90623 5.90349 5.90349 4.90623 7.07868 4.16627Z" fill="#1C274C"/>
</g>
</g>
</svg>
