<svg width="24" height="24" viewBox="0 0 24 24" fill="none" xmlns="http://www.w3.org/2000/svg">
<g id="Broken / School / Plus, Minus">
<path id="Vector" d="M3.46436 20.5354L20.5354 3.46436" stroke="#1C274D" stroke-width="1.5"/>
<path id="Vector_2" d="M18 17H13" stroke="#1C274D" stroke-width="1.5" stroke-linecap="round"/>
<path id="Vector_3" d="M10.5 8.00002H8M8 8.00002L5.5 8.00002M8 8.00002L8 5.5M8 8.00002L8 10.5" stroke="#1C274D" stroke-width="1.5" stroke-linecap="round"/>
<path id="Vector_4" d="M22 12C22 16.714 22 19.0711 20.5355 20.5355C19.0711 22 16.714 22 12 22C7.28595 22 4.92893 22 3.46447 20.5355C2 19.0711 2 16.714 2 12C2 7.28595 2 4.92893 3.46447 3.46447C4.92893 2 7.28595 2 12 2C16.714 2 19.0711 2 20.5355 3.46447C21.5093 4.43821 21.8356 5.80655 21.9449 8" stroke="#1C274D" stroke-width="1.5" stroke-linecap="round"/>
</g>
</svg>
