<svg width="24" height="24" viewBox="0 0 24 24" fill="none" xmlns="http://www.w3.org/2000/svg">
<g id="Broken / Medicine / Pulse ">
<path id="Vector" d="M5 14.9999H6.39445C7.1804 14.9999 7.57337 14.9999 7.90501 15.1774C8.23665 15.3549 8.45463 15.6819 8.8906 16.3358L9.05039 16.5755C9.47306 17.2095 9.68439 17.5265 9.97087 17.5095C10.2573 17.4925 10.4297 17.1527 10.7743 16.4731L12.7404 12.5964C13.0987 11.8898 13.2779 11.5365 13.5711 11.5247C13.8642 11.5129 14.0711 11.8508 14.485 12.5264L15.1222 13.5668C15.5512 14.2671 15.7656 14.6172 16.1072 14.8086C16.4487 14.9999 16.8593 14.9999 17.6805 14.9999H19" stroke="#1C274C" stroke-width="1.5" stroke-linecap="round"/>
<path id="Vector_2" d="M22 12C22 16.714 22 19.0711 20.5355 20.5355C19.0711 22 16.714 22 12 22C7.28595 22 4.92893 22 3.46447 20.5355C2 19.0711 2 16.714 2 12C2 7.28595 2 4.92893 3.46447 3.46447C4.92893 2 7.28595 2 12 2C16.714 2 19.0711 2 20.5355 3.46447C21.5093 4.43821 21.8356 5.80655 21.9449 8" stroke="#1C274C" stroke-width="1.5" stroke-linecap="round"/>
</g>
</svg>
