<svg width="24" height="24" viewBox="0 0 24 24" fill="none" xmlns="http://www.w3.org/2000/svg">
<g id="Outline / Map &#38; Location / Radar 2">
<path id="Vector" fill-rule="evenodd" clip-rule="evenodd" d="M14.3943 3.06477C11.9589 2.41221 9.4915 2.79438 7.45561 3.94297C7.09485 4.14651 6.6374 4.01905 6.43387 3.65829C6.23034 3.29753 6.3578 2.84008 6.71856 2.63655C9.08256 1.30284 11.9528 0.857647 14.7825 1.61589C20.5173 3.15251 23.9206 9.04713 22.3839 14.7819C20.8473 20.5167 14.9527 23.9199 9.21792 22.3833C3.48316 20.8467 0.0798993 14.952 1.61652 9.21728C1.92079 8.08176 2.39655 7.03633 3.00897 6.1023C3.58298 5.22684 4.74075 5.15904 5.47401 5.75252L12.4721 11.4166C12.794 11.6772 12.8438 12.1495 12.5832 12.4714C12.3226 12.7934 11.8503 12.8432 11.5284 12.5826L7.48867 9.31291C7.01952 10.0988 6.75023 11.0171 6.75023 11.9996C6.75023 14.8991 9.10073 17.2496 12.0002 17.2496C14.8997 17.2496 17.2502 14.8991 17.2502 11.9996C17.2502 9.10009 14.8997 6.74959 12.0002 6.74959C11.4188 6.74959 10.8609 6.84383 10.34 7.01729C9.94703 7.14817 9.52234 6.93569 9.39146 6.5427C9.26058 6.1497 9.47306 5.72502 9.86606 5.59414C10.5378 5.37042 11.2557 5.24959 12.0002 5.24959C15.7281 5.24959 18.7502 8.27167 18.7502 11.9996C18.7502 15.7275 15.7281 18.7496 12.0002 18.7496C8.2723 18.7496 5.25023 15.7275 5.25023 11.9996C5.25023 10.6607 5.64068 9.41167 6.31353 8.36177L4.53031 6.91847C4.47447 6.87327 4.41163 6.85969 4.36175 6.86572C4.31632 6.87121 4.28556 6.89094 4.26338 6.92477C3.73738 7.727 3.32785 8.62608 3.06541 9.60551C1.7432 14.5401 4.67159 19.6122 9.60615 20.9344C14.5407 22.2566 19.6128 19.3282 20.935 14.3937C22.2573 9.4591 19.3289 4.38699 14.3943 3.06477Z" fill="#1C274C"/>
</g>
</svg>
