<svg width="24" height="24" viewBox="0 0 24 24" fill="none" xmlns="http://www.w3.org/2000/svg">
<g id="Outline / Essentional, UI / Revote">
<g id="Vector">
<path d="M10.6847 1.5263C10.9754 1.23121 10.9718 0.756345 10.6767 0.465675C10.3816 0.175005 9.90675 0.178596 9.61609 0.473695L7.86568 2.25078C7.5781 2.54273 7.57811 3.01146 7.86569 3.30341L9.6161 5.08037C9.90678 5.37546 10.3816 5.37904 10.6767 5.08836C10.9718 4.79768 10.9754 4.32282 10.6847 4.02773L10.1472 3.48201C10.7108 3.47679 11.3258 3.47674 12 3.47674C14.1428 3.47674 15.6734 3.47838 16.8363 3.6371C17.9765 3.79272 18.6508 4.08663 19.1477 4.59108C19.6461 5.09709 19.9377 5.78624 20.0917 6.94912C20.2485 8.13243 20.25 9.6889 20.25 11.8633C20.25 14.0377 20.2485 15.5942 20.0917 16.7775C19.9377 17.9403 19.6461 18.6295 19.1477 19.1355C18.6508 19.6399 17.9765 19.9339 16.8363 20.0895C15.6734 20.2482 14.1428 20.2498 12 20.2498C9.85717 20.2498 8.32662 20.2482 7.1637 20.0895C6.02354 19.9339 5.34923 19.6399 4.85233 19.1355C4.35388 18.6295 4.06227 17.9403 3.90826 16.7775C3.75155 15.5942 3.75 14.0377 3.75 11.8633C3.75 9.6889 3.75155 8.13243 3.90826 6.94912C4.06227 5.78624 4.35388 5.09709 4.85233 4.59108C5.14301 4.29599 5.13943 3.82113 4.84434 3.53045C4.54925 3.23977 4.07439 3.24334 3.78371 3.53843C2.96414 4.37044 2.59674 5.42705 2.42124 6.75219C2.24998 8.0454 2.24999 9.70123 2.25 11.807V11.9195C2.24999 14.0254 2.24998 15.6812 2.42124 16.9744C2.59674 18.2995 2.96414 19.3561 3.78371 20.1881C4.60483 21.0217 5.65019 21.3968 6.96085 21.5757C8.23694 21.7499 9.86991 21.7499 11.9423 21.7498H12.0577C14.1301 21.7499 15.7631 21.7499 17.0391 21.5757C18.3498 21.3968 19.3952 21.0217 20.2163 20.1881C21.0359 19.3561 21.4033 18.2995 21.5788 16.9744C21.75 15.6812 21.75 14.0254 21.75 11.9196V11.807C21.75 9.70123 21.75 8.04538 21.5788 6.75219C21.4033 5.42705 21.0359 4.37044 20.2163 3.53843C19.3952 2.70486 18.3498 2.32977 17.0391 2.15088C15.7631 1.97671 14.1301 1.97672 12.0577 1.97674L11.9829 1.97674C11.3608 1.97674 10.7794 1.97674 10.2367 1.98117L10.6847 1.5263Z" fill="#1C274C"/>
<path d="M16.0303 10.0302C16.3232 9.73728 16.3232 9.26241 16.0303 8.96952C15.7374 8.67662 15.2626 8.67662 14.9697 8.96952L10.5 13.4392L9.03033 11.9695C8.73744 11.6766 8.26256 11.6766 7.96967 11.9695C7.67678 12.2624 7.67678 12.7373 7.96967 13.0302L9.96967 15.0302C10.2626 15.3231 10.7374 15.3231 11.0303 15.0302L16.0303 10.0302Z" fill="#1C274C"/>
</g>
</g>
</svg>
