<svg width="24" height="24" viewBox="0 0 24 24" fill="none" xmlns="http://www.w3.org/2000/svg">
<g id="Bold / Video, Audio, Sound / Rewind Back">
<path id="Vector" d="M15.3037 6.25028L15.2462 6.27659C14.6543 6.54747 14.0771 6.82593 13.5632 7.09754C13.1775 7.30136 12.7718 7.53075 12.3595 7.77426C12.2113 7.1449 11.9452 6.59326 11.3791 6.22191C10.7699 5.82231 10.1328 5.84274 9.49798 6.04202C8.92582 6.22164 8.25377 6.57884 7.47362 6.99351L7.41399 7.0252C6.97459 7.2587 6.5445 7.49956 6.16044 7.73524C5.72285 8.00376 5.25249 8.32235 4.78461 8.65589L4.73438 8.6917L4.73435 8.69172C3.944 9.25508 3.27726 9.73032 2.81785 10.1979C2.318 10.7066 2 11.2681 2 12C2 12.7319 2.318 13.2934 2.81785 13.8021C3.27726 14.2697 3.94398 14.7449 4.7343 15.3083L4.73437 15.3083L4.78461 15.3441C5.25249 15.6777 5.72285 15.9962 6.16044 16.2648C6.5445 16.5004 6.97459 16.7413 7.41399 16.9748L7.47363 17.0065C8.25377 17.4212 8.92582 17.7784 9.49798 17.958C10.1328 18.1573 10.7699 18.1777 11.3791 17.7781C11.9452 17.4067 12.2113 16.8551 12.3595 16.2257C12.7718 16.4693 13.1775 16.6986 13.5632 16.9025C14.0771 17.1741 14.6543 17.4525 15.2462 17.7234L15.3037 17.7497C16.3808 18.2427 17.2699 18.6497 18.0166 18.8516C18.8134 19.067 19.5592 19.0807 20.283 18.6717C21.0056 18.2635 21.3619 17.6308 21.5616 16.8553C21.7483 16.13 21.8208 15.1859 21.9085 14.0441L21.9133 13.9822C21.966 13.2965 22 12.6162 22 12C22 11.3838 21.966 10.7035 21.9133 10.0178L21.9085 9.95591C21.8208 8.81408 21.7483 7.86995 21.5616 7.14473C21.3619 6.36916 21.0056 5.73654 20.283 5.32826C19.5592 4.91934 18.8134 4.933 18.0166 5.14843C17.2699 5.3503 16.3808 5.75727 15.3037 6.25028L15.3037 6.25028Z" fill="#1C274C"/>
</g>
</svg>
