<svg width="24" height="24" viewBox="0 0 24 24" fill="none" xmlns="http://www.w3.org/2000/svg">
<g id="Bold Duotone / Video, Audio, Sound / Rewind Back">
<path id="Vector" opacity="0.5" fill-rule="evenodd" clip-rule="evenodd" d="M15.246 6.27659L15.3035 6.25028C16.3806 5.75727 17.2698 5.3503 18.0164 5.14843C18.8132 4.933 19.559 4.91934 20.2828 5.32826C21.0055 5.73654 21.3617 6.36916 21.5614 7.14473C21.7481 7.86995 21.8207 8.81408 21.9083 9.95591L21.9131 10.0178C21.9658 10.7035 21.9998 11.3838 21.9998 12C21.9998 12.6162 21.9658 13.2965 21.9131 13.9822L21.9083 14.0441C21.8207 15.1859 21.7481 16.13 21.5614 16.8553C21.3617 17.6308 21.0055 18.2635 20.2828 18.6717C19.559 19.0807 18.8132 19.067 18.0164 18.8516C17.2698 18.6497 16.3806 18.2427 15.3035 17.7497L15.246 17.7234C14.6542 17.4525 14.0769 17.1741 13.563 16.9025C13.1773 16.6986 12.7717 16.4693 12.3594 16.2257L12.3594 7.77426C12.7717 7.53075 13.1773 7.30136 13.563 7.09754C14.0769 6.82593 14.6542 6.54747 15.246 6.27659Z" fill="#1C274C"/>
<path id="Vector_2" d="M11.3791 6.2219C11.9452 6.59325 12.2113 7.14489 12.3595 7.77425L12.3595 16.2257C12.2113 16.8551 11.9452 17.4067 11.3791 17.7781C10.7699 18.1777 10.1328 18.1573 9.49798 17.958C8.92582 17.7783 8.25377 17.4211 7.47363 17.0065L7.41399 16.9748C6.97459 16.7413 6.5445 16.5004 6.16044 16.2647C5.72285 15.9962 5.25249 15.6776 4.78461 15.3441L4.73437 15.3083C3.94401 14.7449 3.27727 14.2697 2.81785 13.8021C2.318 13.2934 2 12.7319 2 12C2 11.2681 2.318 10.7065 2.81785 10.1979C3.27727 9.73031 3.94402 9.25505 4.73438 8.69169L4.78461 8.65587C5.25249 8.32234 5.72285 8.00375 6.16044 7.73523C6.5445 7.49955 6.97459 7.25869 7.41399 7.02519L7.47362 6.9935C8.25377 6.57883 8.92582 6.22163 9.49798 6.04201C10.1328 5.84273 10.7699 5.8223 11.3791 6.2219Z" fill="#1C274C"/>
</g>
</svg>
