<svg width="24" height="24" viewBox="0 0 24 24" fill="none" xmlns="http://www.w3.org/2000/svg">
<g id="Line Duotone / Sports / Running ">
<circle id="Vector" opacity="0.5" cx="18.5" cy="4.5" r="2.5" stroke="#1C274C" stroke-width="1.5"/>
<path id="Vector_2" d="M9 17L7.99923 18.2009C7.262 19.0856 6.89338 19.5279 6.38945 19.764C5.88552 20 5.30973 20 4.15813 20H3" stroke="#1C274C" stroke-width="1.5" stroke-linecap="round"/>
<path id="Vector_3" d="M5.43568 8.82023L5.06517 8.16814V8.16814L5.43568 8.82023ZM3.62949 8.98386C3.26935 9.18849 3.14328 9.64632 3.34791 10.0065C3.55253 10.3666 4.01037 10.4927 4.37051 10.288L3.62949 8.98386ZM15.7502 10.125L15.1262 10.541L15.1262 10.541L15.7502 10.125ZM15.8125 10.2185L16.4366 9.80242L16.4366 9.80242L15.8125 10.2185ZM10.9688 6.65329L11.0462 5.90729L10.9688 6.65329ZM10.7398 6.63589L10.7065 7.38516H10.7065L10.7398 6.63589ZM10.1548 6.67319L10.0522 5.93024L10.0522 5.93024L10.1548 6.67319ZM21 12.7496C21.4142 12.7496 21.75 12.4138 21.75 11.9996C21.75 11.5854 21.4142 11.2496 21 11.2496V12.7496ZM5.06517 8.16814L3.62949 8.98386L4.37051 10.288L5.80619 9.47232L5.06517 8.16814ZM15.1262 10.541L15.1885 10.6345L16.4366 9.80242L16.3742 9.70894L15.1262 10.541ZM11.0462 5.90729C10.9438 5.89666 10.853 5.89018 10.773 5.88663L10.7065 7.38516C10.7559 7.38734 10.8172 7.39158 10.8914 7.39928L11.0462 5.90729ZM5.80619 9.47232C8.12451 8.15509 9.19204 7.56325 10.2574 7.41614L10.0522 5.93024C8.63309 6.1262 7.27343 6.91344 5.06517 8.16814L5.80619 9.47232ZM19.1407 12.7496H21V11.2496H19.1407V12.7496ZM10.773 5.88663C10.5099 5.87497 10.2617 5.90131 10.0522 5.93024L10.2574 7.41614C10.4355 7.39155 10.5786 7.37949 10.7065 7.38516L10.773 5.88663ZM15.1885 10.6345C16.0695 11.9559 17.5525 12.7496 19.1407 12.7496V11.2496C18.0541 11.2496 17.0393 10.7065 16.4366 9.80242L15.1885 10.6345ZM16.3742 9.70894C15.1968 7.94284 13.4289 6.15461 11.0462 5.90729L10.8914 7.39928C12.5939 7.576 14.0254 8.88987 15.1262 10.541L16.3742 9.70894Z" fill="#1C274C"/>
<path id="Vector_4" opacity="0.5" d="M14.0001 8.5L11.7793 11.2756C10.9429 12.321 10.5246 12.8438 10.4579 13.413C10.4204 13.733 10.4608 14.0573 10.5756 14.3584C10.7798 14.8939 11.3134 15.2981 12.3807 16.1066C13.1936 16.7225 13.6 17.0304 13.8755 17.4329C14.0326 17.6625 14.157 17.9129 14.2452 18.1767C14.3997 18.6394 14.3997 19.1493 14.3997 20.1692V21.9998" stroke="#1C274C" stroke-width="1.5" stroke-linecap="round"/>
</g>
</svg>
