<svg width="24" height="24" viewBox="0 0 24 24" fill="none" xmlns="http://www.w3.org/2000/svg">
<g id="Bold Duotone / Sports / Running 2">
<g id="Vector">
<path d="M20.75 4.5C20.75 5.88071 19.6307 7 18.25 7C16.8693 7 15.75 5.88071 15.75 4.5C15.75 3.11929 16.8693 2 18.25 2C19.6307 2 20.75 3.11929 20.75 4.5Z" fill="#1C274C"/>
<path fill-rule="evenodd" clip-rule="evenodd" d="M13.4366 6.66132L13.4421 6.6636C14.6265 7.15114 15.6111 8.04505 16.1889 9.20077C16.8169 10.4567 18.1005 11.25 19.5046 11.25H20.75C21.1642 11.25 21.5 11.5858 21.5 12C21.5 12.4142 21.1642 12.75 20.75 12.75H19.5046C17.5323 12.75 15.7293 11.6357 14.8473 9.87158C14.4364 9.04988 13.7311 8.40468 12.8711 8.05068C11.5075 7.48938 11.0748 7.33098 10.2511 7.39087C9.10849 7.47396 8.05813 8.05116 5.55619 9.47272L4.12051 10.2884C3.76037 10.4931 3.30253 10.367 3.09791 10.0069C2.89328 9.64672 3.01935 9.18888 3.37949 8.98426L4.81517 8.16853C4.87315 8.13559 4.93054 8.10297 4.98736 8.07067C7.26106 6.77833 8.62084 6.00546 10.1424 5.89482C11.3595 5.80631 12.096 6.10952 13.4366 6.66132ZM9.23014 16.4238C9.54835 16.689 9.59134 17.1619 9.32617 17.4801L8.3254 18.6811C8.2928 18.7202 8.26067 18.7588 8.22895 18.7969C7.58688 19.5685 7.11555 20.135 6.45757 20.4432C5.79959 20.7513 5.0627 20.7508 4.05888 20.7501C4.00928 20.75 3.95904 20.75 3.90813 20.75H2.75C2.33579 20.75 2 20.4142 2 20C2 19.5858 2.33579 19.25 2.75 19.25H3.90813C5.12975 19.25 5.50396 19.2334 5.82133 19.0848C6.1387 18.9361 6.391 18.6593 7.17306 17.7208L8.17383 16.5199C8.43901 16.2017 8.91193 16.1587 9.23014 16.4238Z" fill="#1C274C"/>
</g>
<path id="Vector_2" opacity="0.5" d="M13.304 10.4955C13.5826 10.802 13.56 11.2763 13.2535 11.555C13.0739 11.7182 12.8948 11.8777 12.7197 12.0336C12.4389 12.2836 12.1683 12.5246 11.9216 12.758C11.7261 12.9431 11.5665 13.1044 11.4501 13.2385C11.3562 13.3468 11.3182 13.4063 11.307 13.4238L11.307 13.4239C11.3026 13.4309 11.3024 13.4312 11.3046 13.4252C11.1871 13.7419 11.2028 14.0926 11.3481 14.3975C11.3905 14.4864 11.4778 14.6083 11.7113 14.8161C11.9491 15.0277 12.2793 15.2786 12.7668 15.6479L12.8411 15.7042C13.4022 16.129 13.7901 16.4227 14.0855 16.7945C14.4135 17.2073 14.6507 17.6847 14.7817 18.1954C14.8997 18.6554 14.8996 19.1419 14.8994 19.8457L14.8993 19.9389V21.9999C14.8993 22.4141 14.5636 22.7499 14.1493 22.7499C13.7351 22.7499 13.3993 22.4141 13.3993 21.9999V19.9389C13.3993 19.1063 13.3938 18.8216 13.3288 18.5681C13.2502 18.2617 13.1078 17.9753 12.911 17.7276C12.7482 17.5226 12.5247 17.3463 11.861 16.8436L11.8368 16.8253L11.8368 16.8252C11.3796 16.4789 11.0014 16.1924 10.714 15.9366C10.4174 15.6725 10.1611 15.3935 9.99391 15.0426C9.67435 14.3719 9.63981 13.6003 9.89815 12.9037C9.99057 12.6545 10.1687 12.4266 10.3172 12.2554C10.4808 12.0669 10.6812 11.8668 10.8905 11.6687C11.1498 11.4232 11.4556 11.1507 11.7517 10.8869C11.9229 10.7344 12.0908 10.5848 12.2445 10.4451C12.551 10.1664 13.0253 10.189 13.304 10.4955Z" fill="#1C274C"/>
</g>
</svg>
