<svg width="24" height="24" viewBox="0 0 24 24" fill="none" xmlns="http://www.w3.org/2000/svg">
<g id="Bold Duotone / Astronomy / Satellite">
<path id="Vector (Stroke)" opacity="0.5" fill-rule="evenodd" clip-rule="evenodd" d="M13.0863 5.04067L2.33263 10.3587C1.96134 10.5423 1.5115 10.3901 1.32788 10.0189C1.14427 9.64756 1.29641 9.19772 1.6677 9.0141L14.0956 2.86816L14.2406 3.87881C14.2411 3.88106 14.2418 3.88412 14.2427 3.88799C14.2475 3.90785 14.2584 3.94921 14.2796 4.01156C14.3219 4.13614 14.4058 4.34563 14.5646 4.6356C14.8823 5.21576 15.5014 6.11975 16.6907 7.30908C17.8801 8.49842 18.784 9.11736 19.364 9.43505C19.6539 9.59383 19.8634 9.67759 19.9879 9.71993C20.0502 9.74112 20.0916 9.75203 20.1114 9.75679C20.1153 9.75772 20.1183 9.75842 20.1206 9.75891L21.1314 9.90371L14.9857 22.332C14.8021 22.7033 14.3523 22.8554 13.981 22.6718C13.6097 22.4882 13.4575 22.0384 13.6411 21.6671L18.9588 10.9132C18.8608 10.866 18.7557 10.8121 18.6435 10.7507C18.0248 10.4118 17.193 9.84338 16.1696 8.89081L5.53049 19.5298C5.2376 19.8227 4.76273 19.8227 4.46983 19.5298C4.17694 19.2369 4.17694 18.7621 4.46984 18.4692L15.109 7.83016C14.1564 6.80683 13.5879 5.97498 13.249 5.35617C13.1875 5.24391 13.1336 5.13869 13.0863 5.04067Z" fill="#1C274C"/>
<g id="Subtract">
<path d="M20.8236 10.5271L21.1314 9.90469L20.1206 9.75989L20.1114 9.75777C20.0916 9.753 20.0502 9.7421 19.9879 9.72091C19.8634 9.67857 19.6539 9.5948 19.364 9.43602C18.784 9.11834 17.8801 8.4994 16.6907 7.31006C15.5014 6.12073 14.8823 5.21674 14.5646 4.63657C14.4058 4.34661 14.3219 4.13712 14.2796 4.01254C14.2584 3.95019 14.2475 3.90882 14.2427 3.88897L14.2406 3.87979L14.0956 2.86914L13.47 3.17854C15.522 1.49761 18.5545 1.61479 20.4698 3.53008C22.3842 5.4445 22.5022 8.47511 20.8236 10.5271Z" fill="#1C274C"/>
<path d="M18.3144 12.2174L18.9588 10.9142C18.8608 10.867 18.7557 10.8131 18.6435 10.7516C18.0248 10.4128 17.193 9.84435 16.1696 8.89179L13.6505 11.4109C15.01 12.4284 16.7525 12.6972 18.3144 12.2174Z" fill="#1C274C"/>
<path d="M12.5897 10.3504L15.109 7.83114C14.1564 6.80781 13.5879 5.97595 13.249 5.35715C13.1875 5.24488 13.1336 5.13967 13.0863 5.04165L11.782 5.68668C11.3026 7.24866 11.5718 8.99107 12.5897 10.3504Z" fill="#1C274C"/>
</g>
</g>
</svg>
