<svg width="24" height="24" viewBox="0 0 24 24" fill="none" xmlns="http://www.w3.org/2000/svg">
<g id="Broken / Video, Audio, Sound / Skip Previous">
<path id="Vector" d="M21.8923 8.94462C21.9582 10.0133 22 11.0609 22 12C22 12.9392 21.9582 13.9867 21.8923 15.0554C21.6592 18.8341 21.5427 20.7235 20.2602 21.626C18.9778 22.5285 17.5479 21.7134 14.6882 20.083C13.9463 19.6601 13.2297 19.2292 12.597 18.8127C11.8758 18.3379 11.091 17.7682 10.2997 17.163C7.43324 14.9708 6 13.8747 6 12C6 10.1253 7.43324 9.0292 10.2997 6.83701C11.091 6.23185 11.8758 5.66208 12.597 5.1873C13.2297 4.77077 13.9463 4.33992 14.6882 3.91698C17.5479 2.28664 18.9778 1.47147 20.2602 2.374C20.9826 2.8824 21.3351 3.70396 21.5468 5" stroke="#1C274C" stroke-width="1.5" stroke-linecap="round"/>
<path id="Vector_2" d="M2 5V13M2 20V17" stroke="#1C274C" stroke-width="1.5" stroke-linecap="round"/>
</g>
</svg>
