<svg width="24" height="24" viewBox="0 0 24 24" fill="none" xmlns="http://www.w3.org/2000/svg">
<g id="Broken / Video, Audio, Sound / Skip Next">
<path id="Vector" d="M2.10768 8.94462C2.04176 10.0133 2 11.0609 2 12C2 12.9392 2.04176 13.9867 2.10768 15.0554C2.34079 18.8341 2.45734 20.7235 3.73977 21.626C5.02221 22.5285 6.45208 21.7134 9.31182 20.083C10.0537 19.6601 10.7703 19.2292 11.403 18.8127C12.1242 18.3379 12.909 17.7682 13.7003 17.163C16.5668 14.9708 18 13.8747 18 12C18 10.1253 16.5668 9.0292 13.7003 6.83701C12.909 6.23185 12.1242 5.66208 11.403 5.1873C10.7703 4.77077 10.0537 4.33992 9.31182 3.91698C6.45208 2.28664 5.02221 1.47147 3.73977 2.374C3.01735 2.8824 2.6649 3.70396 2.45317 5" stroke="#1C274C" stroke-width="1.5" stroke-linecap="round"/>
<path id="Vector_2" d="M22 5V13M22 20V17" stroke="#1C274C" stroke-width="1.5" stroke-linecap="round"/>
</g>
</svg>
