<svg width="24" height="24" viewBox="0 0 24 24" fill="none" xmlns="http://www.w3.org/2000/svg">
<g id="Outline / Essentional, UI / Smart Home Angle">
<g id="Vector">
<path d="M8.09559 4.51121C9.1531 3.88126 9.89924 3.43781 10.5237 3.14633C11.1328 2.86203 11.5708 2.75 12 2.75C12.4293 2.75 12.8672 2.86203 13.4763 3.14633C14.1008 3.43781 14.8469 3.88126 15.9044 4.51121L17.2893 5.33615C18.4536 6.02972 19.2752 6.52034 19.8781 6.9739C20.4665 7.41662 20.7888 7.78294 20.9883 8.19917C21.1877 8.61505 21.2706 9.09337 21.2457 9.82469C21.2201 10.5745 21.0856 11.5163 20.8936 12.8511L20.6148 14.7884C20.3683 16.5016 20.1921 17.7162 19.939 18.633C19.6916 19.5289 19.3939 20.0476 18.9616 20.4198C18.5671 20.7596 18.0668 20.9717 17.2809 21.0951C16.4753 21.2215 15.4369 21.2455 13.998 21.2493C13.5838 21.2503 13.2489 21.587 13.25 22.0012C13.2511 22.4154 13.5878 22.7503 14.002 22.7492C15.423 22.7455 16.5758 22.7241 17.5135 22.5769C18.4709 22.4267 19.2661 22.1371 19.9404 21.5565C20.6832 20.9169 21.0948 20.0829 21.3849 19.0322C21.6663 18.0129 21.8547 16.7036 22.0921 15.0537L22.3844 13.0219C22.569 11.7397 22.7161 10.717 22.7448 9.87584C22.7745 9.0068 22.682 8.26219 22.3409 7.55072C22 6.8396 21.4769 6.29962 20.7799 5.77524C20.1047 5.26726 19.2129 4.73605 18.0938 4.06942L16.6382 3.20233C15.6223 2.59716 14.8117 2.11428 14.1107 1.7871C13.3866 1.44911 12.7251 1.25 12 1.25C11.275 1.25 10.6134 1.44911 9.88929 1.7871C9.18833 2.11428 8.37773 2.59716 7.36184 3.20233L5.90625 4.06942C4.78713 4.73606 3.89537 5.26727 3.22016 5.77524C2.52315 6.29963 2 6.8396 1.65908 7.55072C1.29689 8.30622 1.21512 9.09916 1.26203 10.0374C1.28271 10.4511 1.63484 10.7697 2.04853 10.7491C2.46223 10.7284 2.78084 10.3763 2.76016 9.96256C2.71962 9.15172 2.80019 8.64031 3.01168 8.19917C3.21122 7.78294 3.53348 7.41662 4.12195 6.9739C4.72483 6.52034 5.54644 6.02973 6.71076 5.33615L8.09559 4.51121Z" fill="#1C274C"/>
<path d="M2.00011 12.2498C1.5859 12.2498 1.25011 12.5856 1.25011 12.9998C1.25011 13.414 1.5859 13.7498 2.00011 13.7498C6.55646 13.7498 10.2501 17.4434 10.2501 21.9998C10.2501 22.414 10.5859 22.7498 11.0001 22.7498C11.4143 22.7498 11.7501 22.414 11.7501 21.9998C11.7501 16.615 7.38489 12.2498 2.00011 12.2498Z" fill="#1C274C"/>
<path d="M1.25011 15.9998C1.25011 15.5856 1.5859 15.2498 2.00011 15.2498C5.72804 15.2498 8.75011 18.2719 8.75011 21.9998C8.75011 22.414 8.41433 22.7498 8.00011 22.7498C7.5859 22.7498 7.25011 22.414 7.25011 21.9998C7.25011 19.1003 4.89961 16.7498 2.00011 16.7498C1.5859 16.7498 1.25011 16.414 1.25011 15.9998Z" fill="#1C274C"/>
<path d="M2.00011 18.2498C1.5859 18.2498 1.25011 18.5856 1.25011 18.9998C1.25011 19.414 1.5859 19.7498 2.00011 19.7498C3.24276 19.7498 4.25011 20.7571 4.25011 21.9998C4.25011 22.414 4.5859 22.7498 5.00011 22.7498C5.41433 22.7498 5.75011 22.414 5.75011 21.9998C5.75011 19.9287 4.07118 18.2498 2.00011 18.2498Z" fill="#1C274C"/>
</g>
</g>
</svg>
