<svg width="24" height="24" viewBox="0 0 24 24" fill="none" xmlns="http://www.w3.org/2000/svg">
<g id="Bold Duotone / Arrows / Square Arrow Right Up">
<path id="Vector" opacity="0.5" d="M20.5355 3.46447C19.0711 2 16.714 2 12 2C7.28595 2 4.92893 2 3.46447 3.46447C2 4.92893 2 7.28595 2 12C2 16.714 2 19.0711 3.46447 20.5355C4.92893 22 7.28595 22 12 22C16.714 22 19.0711 22 20.5355 20.5355C22 19.0711 22 16.714 22 12C22 7.28595 22 4.92893 20.5355 3.46447Z" fill="#1C274C"/>
<path id="Vector_2" d="M15.5787 9.17188C15.5787 8.75766 15.2429 8.42188 14.8287 8.42188L10.5861 8.42188C10.1719 8.42187 9.83609 8.75766 9.83609 9.17188C9.83609 9.58609 10.1719 9.92187 10.5861 9.92188H13.0181L8.64154 14.2984C8.34865 14.5913 8.34865 15.0662 8.64154 15.3591C8.93444 15.652 9.40931 15.652 9.70221 15.3591L14.0787 10.9825L14.0787 13.4145C14.0787 13.8287 14.4145 14.1645 14.8287 14.1645C15.2429 14.1645 15.5787 13.8287 15.5787 13.4145L15.5787 9.17188Z" fill="#1C274C"/>
</g>
</svg>
