<svg width="24" height="24" viewBox="0 0 24 24" fill="none" xmlns="http://www.w3.org/2000/svg">
<g id="Outline / Astronomy / Star Rainbow">
<path id="Vector (Stroke)" fill-rule="evenodd" clip-rule="evenodd" d="M18.8234 2.81493C18.4755 2.92884 18.0051 3.15967 17.2786 3.5194L16.9142 3.69986C16.8883 3.7127 16.8622 3.72568 16.8361 3.73873C16.5175 3.89761 16.1807 4.06557 15.807 4.08528C15.4283 4.10527 15.0791 3.96978 14.7562 3.8445C14.7297 3.83425 14.7035 3.82407 14.6774 3.81404L14.3087 3.67227C13.572 3.38906 13.1007 3.21009 12.7548 3.13402C12.5904 3.09786 12.502 3.09682 12.4597 3.10154C12.4466 3.103 12.4398 3.10483 12.4374 3.10557C12.4371 3.1058 12.4367 3.10612 12.4361 3.10656C12.4352 3.10732 12.4346 3.10784 12.4343 3.10813C12.4339 3.10866 12.4329 3.11024 12.4313 3.1133C12.4294 3.11695 12.4264 3.12318 12.4229 3.13276C12.407 3.17543 12.3861 3.26435 12.3805 3.43515C12.3686 3.79372 12.4251 4.30008 12.5163 5.08928L12.562 5.48466C12.5652 5.51246 12.5686 5.54043 12.5719 5.56855C12.6131 5.916 12.657 6.28678 12.546 6.64826C12.4363 7.00563 12.1939 7.29172 11.9623 7.56502C11.9435 7.58721 11.9248 7.60931 11.9062 7.63137L11.6433 7.94338C11.1194 8.5651 10.7815 8.969 10.5861 9.28198C10.4909 9.4345 10.459 9.51988 10.4489 9.56064C10.4818 9.58277 10.553 9.62019 10.6958 9.66615C11.0318 9.77427 11.533 9.85793 12.3175 9.9856L12.7101 10.0495C12.7384 10.0541 12.767 10.0587 12.7958 10.0633C13.1373 10.1177 13.5119 10.1774 13.8264 10.3866C14.1428 10.5971 14.3404 10.9202 14.5188 11.2118C14.5339 11.2364 14.5488 11.2607 14.5636 11.2848L14.7698 11.6194C15.1823 12.2885 15.4465 12.7129 15.6721 12.9778C15.7786 13.1029 15.8442 13.1522 15.8744 13.1698C15.8781 13.1677 15.883 13.1646 15.8892 13.1603C15.9291 13.1324 16.0003 13.0681 16.1072 12.9269C16.3302 12.6323 16.5859 12.174 16.9784 11.4649L17.1754 11.109C17.1892 11.0841 17.203 11.0591 17.2168 11.0339C17.3895 10.7199 17.5693 10.3931 17.864 10.1617C18.1595 9.92977 18.5194 9.83379 18.8638 9.74197C18.8913 9.73462 18.9188 9.7273 18.9461 9.71994L19.3365 9.61473C20.1147 9.405 20.6169 9.26768 20.9539 9.12237C21.1152 9.05287 21.1941 8.99934 21.2307 8.96707C21.239 8.95982 21.2441 8.95444 21.2471 8.95105C21.2479 8.95021 21.2485 8.94947 21.249 8.94883C21.2486 8.94661 21.2479 8.94384 21.2469 8.94046C21.2371 8.90522 21.2054 8.82811 21.1108 8.69243C20.9116 8.40672 20.5687 8.04434 20.027 7.47674L19.756 7.19289C19.7367 7.17259 19.717 7.15214 19.6972 7.13151C19.4603 6.88491 19.1987 6.61268 19.0746 6.25315C18.9518 5.89742 18.986 5.52029 19.0176 5.17247C19.0203 5.1433 19.0229 5.11433 19.0254 5.0856L19.0604 4.68596C19.1303 3.88816 19.1732 3.37591 19.1516 3.01914C19.1426 2.86934 19.1243 2.78936 19.1109 2.75007C19.0679 2.75133 18.9807 2.76339 18.8234 2.81493ZM19.1461 2.75327C19.1457 2.75371 19.1417 2.75329 19.1352 2.75068C19.1433 2.75152 19.1465 2.75282 19.1461 2.75327ZM19.1019 2.72766C19.0965 2.72188 19.0945 2.71769 19.0948 2.71704C19.0952 2.71639 19.0978 2.71929 19.1019 2.72766ZM10.424 9.53874C10.4248 9.53858 10.4286 9.54179 10.4331 9.54887C10.4254 9.54244 10.4232 9.5389 10.424 9.53874ZM10.4452 9.58037C10.4463 9.58702 10.4458 9.59091 10.4453 9.59118C10.4448 9.59145 10.4442 9.58812 10.4452 9.58037ZM18.3566 1.38941C18.8322 1.23364 19.4174 1.13884 19.9501 1.49326C20.4879 1.85109 20.6189 2.43061 20.6489 2.9289C20.678 3.41068 20.6231 4.03615 20.5598 4.7583L20.5197 5.2165C20.4994 5.44758 20.4886 5.57768 20.4878 5.67548C20.4874 5.73155 20.4909 5.75596 20.4925 5.76352C20.496 5.7703 20.5077 5.78975 20.5388 5.82839C20.5977 5.90138 20.684 5.9926 20.8411 6.15722L21.1534 6.48434C21.6416 6.99577 22.0677 7.44217 22.3413 7.83454C22.6306 8.24945 22.8721 8.77649 22.6847 9.38691C22.5007 9.98613 22.0145 10.2986 21.5478 10.4998C21.0988 10.6934 20.4892 10.8576 19.7818 11.0482L19.3364 11.1683C19.1111 11.229 18.9832 11.264 18.8885 11.2976C18.8061 11.3269 18.7906 11.3413 18.7902 11.3416C18.7665 11.3602 18.7344 11.3899 18.4878 11.8354L18.2633 12.241C17.9062 12.8863 17.599 13.4413 17.3033 13.8321C16.9975 14.2362 16.5771 14.6381 15.9494 14.6712C15.8503 14.6765 15.7557 14.672 15.6654 14.6594C15.5461 15.0025 15.4248 15.4291 15.3095 15.9265C15.0517 17.039 14.833 18.4667 14.7278 20.0301C14.6281 21.5116 13.4183 22.75 11.872 22.75H3.71685C2.9551 22.75 2.23959 22.4395 1.7719 21.9012C1.28991 21.3465 1.09608 20.5702 1.3864 19.7744C2.1171 17.7714 3.39687 15.6878 4.96401 13.9034C6.20257 12.4931 7.64466 11.2425 9.17257 10.3653C9.11364 10.2734 9.06329 10.1711 9.0239 10.057C8.81656 9.45628 9.04761 8.91383 9.31372 8.48759C9.57294 8.07241 9.98277 7.58609 10.4595 7.02042C10.4717 7.00594 10.4839 6.99141 10.4962 6.97683L10.7591 6.66482C10.9107 6.4849 10.9971 6.38161 11.0565 6.29901C11.0833 6.26176 11.0969 6.23893 11.1041 6.22559C11.1103 6.21385 11.1117 6.20911 11.1121 6.20796C11.1124 6.20689 11.1137 6.20311 11.1148 6.19183C11.1162 6.17873 11.1175 6.15436 11.116 6.11102C11.1126 6.01382 11.0984 5.8856 11.0719 5.6569L11.0262 5.26152C11.024 5.24223 11.0218 5.22301 11.0196 5.20387C10.9369 4.48916 10.8653 3.86965 10.8813 3.38547C10.8982 2.87653 11.0159 2.31453 11.5099 1.92668C12.0061 1.53713 12.5803 1.55978 13.077 1.66903C13.5476 1.77253 14.1265 1.99513 14.7921 2.2511L14.8469 2.27218L15.2157 2.41395C15.4293 2.49606 15.5482 2.54119 15.64 2.5681C15.6807 2.58005 15.7036 2.5845 15.7155 2.58624C15.7211 2.58707 15.7243 2.58729 15.7255 2.58735L15.728 2.58737L15.7314 2.58698C15.7333 2.58668 15.7373 2.58597 15.7439 2.5843C15.7577 2.58078 15.7825 2.57321 15.8246 2.55628C15.9181 2.51867 16.0383 2.45976 16.2485 2.35564L16.6645 2.14965C17.3247 1.82271 17.8932 1.54116 18.3566 1.38941ZM10.7617 11.2317C9.12377 11.9801 7.49288 13.2971 6.09106 14.8932C4.62862 16.5584 3.4538 18.4841 2.79555 20.2884C2.70292 20.5424 2.75903 20.7503 2.90421 20.9174C3.0637 21.101 3.35261 21.25 3.71685 21.25H4.83757C4.86955 21.0902 4.90904 20.9242 4.95389 20.7553C5.07893 20.2844 5.25903 19.7419 5.48351 19.1605C5.93238 17.9981 6.57075 16.6494 7.33638 15.3641C8.09926 14.0834 9.00637 12.8355 10.0014 11.8981C10.2527 11.6614 10.516 11.4385 10.7899 11.2378C10.7805 11.2358 10.7711 11.2338 10.7617 11.2317ZM12.5834 11.9318C12.0977 12.123 11.5763 12.4752 11.03 12.9899C10.173 13.7972 9.34826 14.9177 8.62506 16.1318C7.90461 17.3412 7.3027 18.6135 6.88281 19.7009C6.67292 20.2444 6.51153 20.734 6.40366 21.1403C6.39366 21.1779 6.38422 21.2145 6.37532 21.25H9.12609C9.24503 20.0732 9.60833 18.3919 10.1771 16.7077C10.74 15.0409 11.5388 13.2651 12.5834 11.9318ZM10.6346 21.25H11.872C12.5777 21.25 13.1809 20.6755 13.2311 19.9294C13.3412 18.2935 13.5707 16.7857 13.8482 15.5879C13.9869 14.9895 14.1399 14.4586 14.3 14.0227C14.3301 13.941 14.3612 13.8602 14.3935 13.7811C14.1954 13.5234 13.9896 13.2064 13.7681 12.8513C12.8872 13.9733 12.1482 15.5592 11.5982 17.1877C11.0731 18.7427 10.7525 20.2382 10.6346 21.25ZM20.4925 5.76352C20.4929 5.76489 20.4932 5.76614 20.4932 5.76624L20.4925 5.76352Z" fill="#1C274C"/>
</g>
</svg>
