<svg width="24" height="24" viewBox="0 0 24 24" fill="none" xmlns="http://www.w3.org/2000/svg">
<g id="Bold Duotone / Network, IT, Programming / Station Minimalistic">
<path id="Vector" fill-rule="evenodd" clip-rule="evenodd" d="M11.2846 9.77504C10.9615 9.54906 10.7502 9.17421 10.7502 8.75C10.7502 8.05964 11.3098 7.5 12.0002 7.5C12.6906 7.5 13.2502 8.05964 13.2502 8.75C13.2502 9.17421 13.0389 9.54906 12.7158 9.77504L15.2062 17.2462C15.2101 17.2571 15.2138 17.2681 15.2172 17.2792L16.7117 21.7628C16.8427 22.1558 16.6303 22.5805 16.2374 22.7115C15.8444 22.8425 15.4197 22.6301 15.2887 22.2372L13.9596 18.25H10.0408L8.71172 22.2372C8.58073 22.6301 8.15599 22.8425 7.76303 22.7115C7.37008 22.5805 7.15771 22.1558 7.28869 21.7628L8.78322 17.2792C8.78664 17.2681 8.79031 17.2571 8.79422 17.2462L11.2846 9.77504ZM12.0002 12.3717L13.4596 16.75H10.5408L12.0002 12.3717Z" fill="#1C274C"/>
<path id="Vector_2" opacity="0.4" d="M12 2.75C8.55372 2.75 5.75 5.56721 5.75 9.05473C5.75 10.7783 6.43459 12.3382 7.54467 13.4763C7.8339 13.7728 7.82798 14.2477 7.53146 14.5369C7.23494 14.8261 6.76011 14.8202 6.47088 14.5237C5.09743 13.1156 4.25 11.1836 4.25 9.05473C4.25 4.74981 7.7143 1.25 12 1.25C16.2857 1.25 19.75 4.74981 19.75 9.05473C19.75 11.1656 18.9168 13.083 17.5637 14.488C17.2764 14.7863 16.8016 14.7953 16.5033 14.5079C16.2049 14.2206 16.196 13.7458 16.4833 13.4475C17.5769 12.3119 18.25 10.7638 18.25 9.05473C18.25 5.56721 15.4463 2.75 12 2.75Z" fill="#1C274C"/>
<path id="Vector_3" opacity="0.7" d="M11.9998 5.57178C10.0999 5.57178 8.5498 7.12558 8.5498 9.05461C8.5498 10.0005 8.92229 10.8562 9.52748 11.4838C9.815 11.7819 9.80638 12.2567 9.50821 12.5443C9.21005 12.8318 8.73525 12.8232 8.44773 12.525C7.58267 11.6279 7.0498 10.4027 7.0498 9.05461C7.0498 6.30819 9.2605 4.07178 11.9998 4.07178C14.7391 4.07178 16.9498 6.30819 16.9498 9.05461C16.9498 10.3836 16.4319 11.5932 15.5884 12.4867C15.3041 12.7879 14.8294 12.8016 14.5282 12.5172C14.227 12.2329 14.2133 11.7582 14.4977 11.457C15.0878 10.8319 15.4498 9.98718 15.4498 9.05461C15.4498 7.12558 13.8997 5.57178 11.9998 5.57178Z" fill="#1C274C"/>
</g>
</svg>
