<svg width="24" height="24" viewBox="0 0 24 24" fill="none" xmlns="http://www.w3.org/2000/svg">
<g id="Line Duotone / Medicine / Syringe">
<path id="Vector" d="M6.18201 10.5455L6.71234 11.0758L6.18201 10.5455ZM13.4547 17.8182L13.9851 18.3485L13.4547 17.8182ZM17.7376 9.0101L17.2072 9.54043L17.7376 9.0101ZM19.0241 10.5692L19.7289 10.3127L19.0241 10.5692ZM17.7376 13.5354L17.2072 13.005L17.7376 13.5354ZM19.0241 11.9763L19.7289 12.2328L19.0241 11.9763ZM14.9901 6.26263L15.5204 5.7323L14.9901 6.26263ZM13.431 4.97611L13.1745 5.68088L13.431 4.97611ZM10.4648 6.26263L10.9952 6.79296V6.79296L10.4648 6.26263ZM12.0239 4.97611L12.2804 5.68088L12.0239 4.97611ZM19.4699 7.43942C19.7628 7.73231 20.2376 7.73231 20.5305 7.43942C20.8234 7.14653 20.8234 6.67165 20.5305 6.37876L19.4699 7.43942ZM17.6214 3.46967C17.3285 3.17678 16.8537 3.17678 16.5608 3.46967C16.2679 3.76256 16.2679 4.23744 16.5608 4.53033L17.6214 3.46967ZM14.4598 6.79296L17.2072 9.54043L18.2679 8.47977L15.5204 5.7323L14.4598 6.79296ZM17.2072 13.005L12.9244 17.2879L13.9851 18.3485L18.2679 14.0657L17.2072 13.005ZM6.71234 11.0758L10.9952 6.79296L9.93451 5.7323L5.65168 10.0151L6.71234 11.0758ZM6.71234 17.2879C4.99693 15.5724 4.99693 12.7912 6.71234 11.0758L5.65168 10.0151C3.35048 12.3163 3.35048 16.0473 5.65168 18.3485L6.71234 17.2879ZM12.9244 17.2879C11.209 19.0033 8.42776 19.0033 6.71234 17.2879L5.65168 18.3485C7.95288 20.6497 11.6839 20.6497 13.9851 18.3485L12.9244 17.2879ZM17.2072 9.54043C17.5922 9.92536 17.851 10.1849 18.0361 10.4003C18.2161 10.6099 18.2852 10.7319 18.3193 10.8257L19.7289 10.3127C19.607 9.97792 19.4097 9.69728 19.1738 9.42281C18.9431 9.15428 18.6367 8.84854 18.2679 8.47977L17.2072 9.54043ZM18.2679 14.0657C18.6367 13.6969 18.9431 13.3912 19.1738 13.1226C19.4097 12.8482 19.607 12.5675 19.7289 12.2328L18.3193 11.7198C18.2852 11.8136 18.2161 11.9356 18.0361 12.1451C17.851 12.3606 17.5922 12.6201 17.2072 13.005L18.2679 14.0657ZM18.3193 10.8257C18.4244 11.1145 18.4244 11.431 18.3193 11.7198L19.7289 12.2328C19.9546 11.6126 19.9546 10.9328 19.7289 10.3127L18.3193 10.8257ZM15.5204 5.7323C15.1517 5.36353 14.8459 5.05708 14.5774 4.82636C14.3029 4.59053 14.0223 4.39317 13.6875 4.27134L13.1745 5.68088C13.2683 5.71501 13.3903 5.78407 13.5998 5.96408C13.8153 6.1492 14.0748 6.40802 14.4598 6.79296L15.5204 5.7323ZM10.9952 6.79296C11.3801 6.40802 11.6396 6.1492 11.8551 5.96408C12.0646 5.78407 12.1866 5.71501 12.2804 5.68088L11.7674 4.27134C11.4327 4.39317 11.152 4.59053 10.8775 4.82636C10.609 5.05708 10.3033 5.36353 9.93451 5.7323L10.9952 6.79296ZM13.6875 4.27134C13.0674 4.04562 12.3875 4.04562 11.7674 4.27134L12.2804 5.68088C12.5692 5.57578 12.8857 5.57578 13.1745 5.68088L13.6875 4.27134ZM18.0153 5.98488L19.4699 7.43942L20.5305 6.37876L19.076 4.92422L18.0153 5.98488ZM19.076 4.92422L17.6214 3.46967L16.5608 4.53033L18.0153 5.98488L19.076 4.92422Z" fill="#1C274C"/>
<path id="Vector_2" d="M17.0911 14.1819L9.81836 6.90918" stroke="#1C274C" stroke-width="1.5" stroke-linecap="round"/>
<path id="Vector_3" opacity="0.5" d="M6.18182 17.8184L4 20.0002" stroke="#1C274C" stroke-width="1.5" stroke-linecap="round"/>
<path id="Vector_4" opacity="0.5" d="M15.833 7.10608C15.5401 7.39897 15.5401 7.87384 15.833 8.16674C16.1258 8.45963 16.6007 8.45963 16.8936 8.16674L15.833 7.10608ZM19.0754 5.98492C19.3683 5.69203 19.3683 5.21715 19.0754 4.92426C18.7825 4.63137 18.3077 4.63137 18.0148 4.92426L19.0754 5.98492ZM16.8936 8.16674L19.0754 5.98492L18.0148 4.92426L15.833 7.10608L16.8936 8.16674Z" fill="#1C274C"/>
<path id="Vector_5" opacity="0.5" d="M14.3789 16.8942C14.6718 17.1871 15.1467 17.1871 15.4396 16.8942C15.7325 16.6013 15.7325 16.1264 15.4396 15.8336L14.3789 16.8942ZM12.5542 12.9482C12.2613 12.6553 11.7864 12.6553 11.4936 12.9482C11.2007 13.2411 11.2007 13.716 11.4936 14.0088L12.5542 12.9482ZM12.7426 18.5306C13.0354 18.8235 13.5103 18.8235 13.8032 18.5306C14.0961 18.2377 14.0961 17.7628 13.8032 17.4699L12.7426 18.5306ZM12.1573 15.824C11.8644 15.5311 11.3895 15.5311 11.0966 15.824C10.8037 16.1169 10.8037 16.5917 11.0966 16.8846L12.1573 15.824ZM15.4396 15.8336L12.5542 12.9482L11.4936 14.0088L14.3789 16.8942L15.4396 15.8336ZM13.8032 17.4699L12.1573 15.824L11.0966 16.8846L12.7426 18.5306L13.8032 17.4699Z" fill="#1C274C"/>
</g>
</svg>
