<svg width="24" height="24" viewBox="0 0 24 24" fill="none" xmlns="http://www.w3.org/2000/svg">
<g id="Outline / Sports / Tennis 2">
<g id="Vector">
<path fill-rule="evenodd" clip-rule="evenodd" d="M12.9386 4.73542C13.3511 4.69785 13.716 5.0018 13.7535 5.4143C13.8024 5.95058 13.893 6.53361 14.045 7.14711C14.1447 7.54916 13.8995 7.95586 13.4974 8.05549C13.0954 8.15512 12.6887 7.90997 12.5891 7.50791C12.4172 6.81421 12.3148 6.15558 12.2597 5.55036C12.2221 5.13785 12.5261 4.77299 12.9386 4.73542ZM5.23942 9.18054C5.47821 8.84208 5.94616 8.76129 6.28461 9.00008C6.78119 9.35043 7.30041 9.76836 7.81522 10.2641C8.1136 10.5514 8.12256 11.0262 7.83525 11.3246C7.54794 11.6229 7.07315 11.6319 6.77478 11.3446C6.31949 10.9062 5.85988 10.5362 5.41988 10.2257C5.08142 9.98694 5.00063 9.51899 5.23942 9.18054ZM13.836 8.99599C14.2094 8.81661 14.6574 8.97385 14.8368 9.3472C14.9605 9.60468 15.097 9.86417 15.2474 10.1247C15.3979 10.3852 15.5543 10.6332 15.7155 10.869C15.9491 11.2111 15.8612 11.6778 15.5192 11.9114C15.1772 12.145 14.7105 12.0572 14.4769 11.7151C14.2947 11.4485 14.118 11.1685 13.9484 10.8747C13.7788 10.5809 13.6246 10.2879 13.4848 9.99681C13.3054 9.62346 13.4627 9.17538 13.836 8.99599ZM8.48046 12.088C8.82249 11.8544 9.28917 11.9422 9.52281 12.2843C9.70496 12.5509 9.88164 12.8309 10.0513 13.1247C10.2209 13.4185 10.375 13.7115 10.5149 14.0026C10.6943 14.3759 10.537 14.824 10.1637 15.0034C9.79032 15.1828 9.34223 15.0256 9.16285 14.6522C9.03914 14.3947 8.90267 14.1352 8.75225 13.8747C8.60182 13.6142 8.44534 13.3662 8.28421 13.1304C8.05057 12.7883 8.13843 12.3217 8.48046 12.088ZM16.1644 12.6748C16.4517 12.3765 16.9265 12.3675 17.2249 12.6548C17.6802 13.0932 18.1398 13.4632 18.5798 13.7737C18.9183 14.0125 18.9991 14.4804 18.7603 14.8189C18.5215 15.1573 18.0535 15.2381 17.7151 14.9993C17.2185 14.649 16.6993 14.2311 16.1845 13.7353C15.8861 13.448 15.8771 12.9732 16.1644 12.6748ZM10.5022 15.9439C10.9043 15.8443 11.311 16.0894 11.4106 16.4915C11.5825 17.1852 11.6849 17.8438 11.74 18.4491C11.7776 18.8616 11.4736 19.2264 11.0611 19.264C10.6486 19.3016 10.2837 18.9976 10.2462 18.5851C10.1973 18.0488 10.1067 17.4658 9.95466 16.8523C9.85502 16.4502 10.1002 16.0436 10.5022 15.9439Z" fill="#1C274C"/>
<path fill-rule="evenodd" clip-rule="evenodd" d="M13.2859 1.32632C11.0551 1.05591 8.71992 1.48034 6.62484 2.68993C1.4832 5.65846 -0.278462 12.2331 2.69007 17.3747C5.6586 22.5164 12.2332 24.278 17.3748 21.3095C19.4699 20.0999 21.0051 18.2898 21.8863 16.2227C23.1661 13.2206 23.0684 9.67094 21.3096 6.62471C19.5509 3.57847 16.5256 1.71902 13.2859 1.32632ZM13.7802 3.08033C13.7309 3.49161 13.3576 3.7851 12.9463 3.73585C12.5351 3.68661 12.2416 3.31329 12.2908 2.90201C12.297 2.85081 12.3032 2.8013 12.3096 2.75354C10.638 2.6958 8.93097 3.09054 7.37484 3.98897C5.81951 4.88694 4.62362 6.16839 3.83764 7.64494C3.88216 7.66328 3.92814 7.68258 3.97552 7.70286C4.35631 7.86585 4.53288 8.30668 4.36989 8.68748C4.20689 9.06827 3.76606 9.24484 3.38527 9.08184C3.33556 9.06057 3.2878 9.04062 3.24212 9.02195C2.41524 11.457 2.60225 14.2226 3.98911 16.6247C5.37596 19.0268 7.67752 20.5716 10.1998 21.073C10.2065 21.0241 10.2131 20.9728 10.2195 20.9191C10.2687 20.5078 10.6421 20.2143 11.0533 20.2636C11.4646 20.3128 11.7581 20.6861 11.7089 21.0974C11.7027 21.1486 11.6965 21.198 11.6901 21.2458C13.3618 21.3034 15.0695 20.9084 16.6248 20.0104C18.181 19.112 19.3764 17.831 20.1621 16.3545C20.1176 16.3362 20.0716 16.3168 20.0242 16.2966C19.6434 16.1336 19.4668 15.6927 19.6298 15.3119C19.7928 14.9311 20.2336 14.7546 20.6144 14.9176C20.6641 14.9388 20.7119 14.9588 20.7576 14.9775C21.5849 12.5411 21.3972 9.77639 20.0106 7.37471C18.624 4.97302 16.3236 3.42808 13.7999 2.92639C13.7932 2.97529 13.7866 3.02664 13.7802 3.08033Z" fill="#1C274C"/>
</g>
</g>
</svg>
