<svg width="24" height="24" viewBox="0 0 24 24" fill="none" xmlns="http://www.w3.org/2000/svg">
<g id="Bold Duotone / Transport, Parts, Service / Tram">
<path id="Vector" fill-rule="evenodd" clip-rule="evenodd" d="M6.3754 19.5722C5.89783 19.4015 5.50554 19.1626 5.17135 18.8284C4.19702 17.8541 4.03299 16.3859 4.00537 13.75H19.9942C19.9666 16.3859 19.8025 17.8541 18.8282 18.8284C18.4941 19.1625 18.1019 19.4014 17.6244 19.5721L18.6708 21.6648C18.856 22.0352 18.7058 22.4857 18.3354 22.671C17.9649 22.8562 17.5144 22.7061 17.3291 22.3356L16.1052 19.8877C15.0568 20 13.7258 20 11.9998 20C10.274 20 8.94302 20 7.89469 19.8877L6.67077 22.3356C6.48552 22.7061 6.03502 22.8562 5.66453 22.671C5.29405 22.4857 5.14388 22.0352 5.32912 21.6648L6.3754 19.5722ZM14.7498 16C14.7498 15.5858 15.0856 15.25 15.4998 15.25H16.9998C17.414 15.25 17.7498 15.5858 17.7498 16C17.7498 16.4142 17.414 16.75 16.9998 16.75H15.4998C15.0856 16.75 14.7498 16.4142 14.7498 16ZM6.99978 15.25C6.58557 15.25 6.24978 15.5858 6.24978 16C6.24978 16.4142 6.58557 16.75 6.99978 16.75H8.49978C8.91399 16.75 9.24978 16.4142 9.24978 16C9.24978 15.5858 8.91399 15.25 8.49978 15.25H6.99978Z" fill="#1C274C"/>
<path id="Vector_2" opacity="0.5" d="M5.17157 3.17153C4 4.3431 4 6.22872 4 9.99995V13.75H20V9.99995C20 6.22872 20 4.3431 18.8284 3.17153C17.9495 2.29264 16.6688 2.07307 14.4917 2.01822C14.2216 2.01142 14 2.22977 14 2.49995C14 3.60452 13.1046 4.49995 12 4.49995C10.8954 4.49995 10 3.60452 10 2.49995C10 2.22977 9.77845 2.01142 9.50835 2.01822C7.33118 2.07307 6.05046 2.29264 5.17157 3.17153Z" fill="#1C274C"/>
</g>
</svg>
