<svg width="24" height="24" viewBox="0 0 24 24" fill="none" xmlns="http://www.w3.org/2000/svg">
<g id="Bold / Users / User Cross">
<g id="Vector">
<path d="M14 6C14 8.20914 12.2091 10 10 10C7.79086 10 6 8.20914 6 6C6 3.79086 7.79086 2 10 2C12.2091 2 14 3.79086 14 6Z" fill="#1C274C"/>
<path d="M18 17.5C18 19.9853 18 22 10 22C2 22 2 19.9853 2 17.5C2 15.0147 5.58172 13 10 13C14.4183 13 18 15.0147 18 17.5Z" fill="#1C274C"/>
<path d="M20.9447 9.11627C21.2376 8.82337 21.2376 8.3485 20.9447 8.05561C20.6518 7.76271 20.1769 7.76271 19.884 8.05561L19.0002 8.9395L18.1163 8.05562C17.8234 7.76273 17.3485 7.76273 17.0556 8.05562C16.7627 8.34851 16.7627 8.82339 17.0556 9.11628L17.9395 10.0002L17.0556 10.884C16.7627 11.1769 16.7627 11.6518 17.0556 11.9447C17.3485 12.2376 17.8234 12.2376 18.1163 11.9447L19.0002 11.0608L19.884 11.9447C20.1769 12.2376 20.6518 12.2376 20.9447 11.9447C21.2376 11.6518 21.2376 11.1769 20.9447 10.884L20.0608 10.0002L20.9447 9.11627Z" fill="#1C274C"/>
</g>
</g>
</svg>
