<svg width="24" height="24" viewBox="0 0 24 24" fill="none" xmlns="http://www.w3.org/2000/svg">
<g id="Outline / Users / User Speak Rounded">
<g id="Vector">
<path d="M18.3569 1.61412C18.57 1.25893 19.0307 1.14376 19.3859 1.35687L19 1.99999C19.3859 1.35687 19.3855 1.35667 19.3859 1.35687L19.3873 1.35771L19.3888 1.35866L19.3925 1.36091L19.4021 1.36683C19.4095 1.3714 19.4187 1.37724 19.4297 1.38436C19.4517 1.39859 19.4808 1.41797 19.516 1.4426C19.5863 1.49182 19.6813 1.56232 19.7926 1.65508C20.0147 1.84016 20.3052 2.11666 20.5945 2.49271C21.1773 3.25044 21.75 4.40734 21.75 5.99999C21.75 7.59265 21.1773 8.74954 20.5945 9.50727C20.3052 9.88332 20.0147 10.1598 19.7926 10.3449C19.6813 10.4377 19.5863 10.5082 19.516 10.5574C19.4808 10.582 19.4517 10.6014 19.4297 10.6156C19.4187 10.6227 19.4095 10.6286 19.4021 10.6332L19.3925 10.6391L19.3888 10.6413L19.3873 10.6423C19.3869 10.6425 19.3859 10.6431 19 9.99999L19.3859 10.6431C19.0307 10.8562 18.57 10.741 18.3569 10.3859C18.1447 10.0322 18.258 9.57386 18.6097 9.35958L18.6152 9.35604C18.6225 9.35133 18.6363 9.34219 18.6558 9.32854C18.6949 9.30119 18.7562 9.25607 18.8324 9.19258C18.9853 9.06516 19.1948 8.86666 19.4055 8.59271C19.8227 8.05044 20.25 7.20734 20.25 5.99999C20.25 4.79264 19.8227 3.94954 19.4055 3.40727C19.1948 3.13332 18.9853 2.93482 18.8324 2.80741C18.7562 2.74391 18.6949 2.69879 18.6558 2.67145C18.6363 2.6578 18.6225 2.64866 18.6152 2.64394L18.6097 2.64041C18.258 2.42613 18.1447 1.96781 18.3569 1.61412Z" fill="#1C274C"/>
<path fill-rule="evenodd" clip-rule="evenodd" d="M10 1.24999C7.37665 1.24999 5.25 3.37664 5.25 5.99999C5.25 8.62334 7.37665 10.75 10 10.75C12.6234 10.75 14.75 8.62334 14.75 5.99999C14.75 3.37664 12.6234 1.24999 10 1.24999ZM6.75 5.99999C6.75 4.20507 8.20507 2.74999 10 2.74999C11.7949 2.74999 13.25 4.20507 13.25 5.99999C13.25 7.79492 11.7949 9.24999 10 9.24999C8.20507 9.24999 6.75 7.79492 6.75 5.99999Z" fill="#1C274C"/>
<path fill-rule="evenodd" clip-rule="evenodd" d="M10 12.25C7.96067 12.25 6.07752 12.7207 4.67815 13.5204C3.3 14.3079 2.25 15.5101 2.25 17C2.25 18.4899 3.3 19.6921 4.67815 20.4796C6.07752 21.2792 7.96067 21.75 10 21.75C12.0393 21.75 13.9225 21.2792 15.3219 20.4796C16.7 19.6921 17.75 18.4899 17.75 17C17.75 15.5101 16.7 14.3079 15.3219 13.5204C13.9225 12.7207 12.0393 12.25 10 12.25ZM3.75 17C3.75 16.2807 4.26701 15.4829 5.42236 14.8227C6.55649 14.1747 8.17334 13.75 10 13.75C11.8267 13.75 13.4435 14.1747 14.5776 14.8227C15.733 15.4829 16.25 16.2807 16.25 17C16.25 17.7193 15.733 18.517 14.5776 19.1772C13.4435 19.8253 11.8267 20.25 10 20.25C8.17334 20.25 6.55649 19.8253 5.42236 19.1772C4.26701 18.517 3.75 17.7193 3.75 17Z" fill="#1C274C"/>
<path d="M17.3859 3.35687C17.0307 3.14376 16.57 3.25893 16.3569 3.61412L16.6051 4.63761L16.6129 4.64293C16.6246 4.65113 16.6468 4.66735 16.6761 4.69178C16.7353 4.74107 16.8198 4.82082 16.9055 4.93227C17.0727 5.14954 17.25 5.49264 17.25 5.99999C17.25 6.50734 17.0727 6.85044 16.9055 7.06771C16.8198 7.17916 16.7353 7.25891 16.6761 7.3082C16.6468 7.33263 16.6246 7.34885 16.6129 7.35705L16.6051 7.36237C16.257 7.57782 16.1456 8.0337 16.3569 8.38586C16.57 8.74105 17.0307 8.85622 17.3859 8.64311L17 7.99999C17.3859 8.64311 17.3855 8.64331 17.3859 8.64311L17.3872 8.6423L17.3887 8.64144L17.3918 8.63951L17.3993 8.63492L17.4185 8.6227C17.4332 8.61321 17.4515 8.60096 17.4731 8.5859C17.516 8.55582 17.572 8.51423 17.6364 8.46053C17.7647 8.35357 17.9302 8.19582 18.0945 7.98227C18.4273 7.54954 18.75 6.89264 18.75 5.99999C18.75 5.10734 18.4273 4.45044 18.0945 4.01771C17.9302 3.80416 17.7647 3.64641 17.6364 3.53945C17.572 3.48576 17.516 3.44416 17.4731 3.41408C17.4515 3.39902 17.4332 3.38678 17.4185 3.37728L17.3993 3.36507L17.3918 3.36047L17.3887 3.35855L17.3872 3.35768C17.3869 3.35748 17.3859 3.35687 17 3.99999L17.3859 3.35687Z" fill="#1C274C"/>
</g>
</g>
</svg>
