<svg width="24" height="24" viewBox="0 0 24 24" fill="none" xmlns="http://www.w3.org/2000/svg">
<g id="Outline / Users / User Hands">
<g id="Vector">
<path fill-rule="evenodd" clip-rule="evenodd" d="M12.0001 1.25C9.37672 1.25 7.25007 3.37665 7.25007 6C7.25007 8.62335 9.37672 10.75 12.0001 10.75C14.6234 10.75 16.7501 8.62335 16.7501 6C16.7501 3.37665 14.6234 1.25 12.0001 1.25ZM8.75007 6C8.75007 4.20507 10.2051 2.75 12.0001 2.75C13.795 2.75 15.2501 4.20507 15.2501 6C15.2501 7.79493 13.795 9.25 12.0001 9.25C10.2051 9.25 8.75007 7.79493 8.75007 6Z" fill="#1C274C"/>
<path fill-rule="evenodd" clip-rule="evenodd" d="M8.00007 12.25C5.90904 12.25 4.149 13.8151 3.90469 15.8918L3.25521 21.4124C3.20681 21.8237 3.50106 22.1965 3.91244 22.2449C4.32382 22.2933 4.69654 21.999 4.74494 21.5876L5.39441 16.0671C5.51949 15.0039 6.26894 14.1515 7.25007 13.859L7.25007 18.052C7.25004 18.9505 7.25002 19.6997 7.32998 20.2945C7.41439 20.9223 7.60006 21.4891 8.05553 21.9445C8.511 22.4 9.0778 22.5857 9.70559 22.6701C10.3004 22.7501 11.0496 22.75 11.948 22.75H12.0521C12.9505 22.75 13.6998 22.7501 14.2946 22.6701C14.9223 22.5857 15.4891 22.4 15.9446 21.9445C16.4001 21.4891 16.5858 20.9223 16.6702 20.2945C16.7501 19.6997 16.7501 18.9505 16.7501 18.052L16.7501 13.859C17.7312 14.1515 18.4807 15.0039 18.6057 16.0671L19.2552 21.5876C19.3036 21.999 19.6763 22.2933 20.0877 22.2449C20.4991 22.1965 20.7933 21.8237 20.7449 21.4124L20.0955 15.8918C19.8511 13.8151 18.0911 12.25 16.0001 12.25H8.00007ZM8.75007 18V13.75H15.2501V18C15.2501 18.964 15.2485 19.6116 15.1835 20.0946C15.1215 20.5561 15.0143 20.7536 14.884 20.8839C14.7536 21.0142 14.5561 21.1214 14.0947 21.1835C13.6116 21.2484 12.9641 21.25 12.0001 21.25C11.0361 21.25 10.3885 21.2484 9.90546 21.1835C9.444 21.1214 9.2465 21.0142 9.11619 20.8839C8.98587 20.7536 8.87865 20.5561 8.81661 20.0946C8.75166 19.6116 8.75007 18.964 8.75007 18Z" fill="#1C274C"/>
</g>
</g>
</svg>
