<svg width="24" height="24" viewBox="0 0 24 24" fill="none" xmlns="http://www.w3.org/2000/svg">
<g id="Bold / Users / User Plus Rounded">
<circle id="Vector" cx="12" cy="6" r="4" fill="#1C274C"/>
<path id="Vector_2" fill-rule="evenodd" clip-rule="evenodd" d="M19.0001 16.3358C19.4144 16.3358 19.7501 16.6716 19.7501 17.0858V17.75H20.4144C20.8286 17.75 21.1644 18.0858 21.1644 18.5C21.1644 18.9142 20.8286 19.25 20.4144 19.25H19.7501V19.9142C19.7501 20.3284 19.4144 20.6642 19.0001 20.6642C18.5859 20.6642 18.2501 20.3284 18.2501 19.9142L18.2501 19.25H17.5859C17.1717 19.25 16.8359 18.9142 16.8359 18.5C16.8359 18.0858 17.1717 17.75 17.5859 17.75H18.2501L18.2501 17.0858C18.2501 16.6716 18.5859 16.3358 19.0001 16.3358Z" fill="#1C274C"/>
<path id="Vector_3" d="M16.1421 20.2259C14.9822 20.7131 13.55 21.001 12 21.001C8.13401 21.001 5 19.2101 5 17.001C5 14.7918 8.13401 13.001 12 13.001C14.6101 13.001 16.8866 13.8173 18.0902 15.0275C17.5167 15.2814 17.0692 15.7679 16.8673 16.3674C15.9771 16.6672 15.3359 17.5088 15.3359 18.5002C15.3359 19.1932 15.6493 19.8131 16.1421 20.2259Z" fill="#1C274C"/>
</g>
</svg>
