<svg width="24" height="24" viewBox="0 0 24 24" fill="none" xmlns="http://www.w3.org/2000/svg">
<g id="Bold / Users / User Heart">
<circle id="Vector" cx="10" cy="6" r="4" fill="#1C274C"/>
<path id="Vector_2" d="M18 17.5C18 19.9853 18 22 10 22C2 22 2 19.9853 2 17.5C2 15.0147 5.58172 13 10 13C14.4183 13 18 15.0147 18 17.5Z" fill="#1C274C"/>
<path id="Vector_3" d="M16 9.69673C16 10.6812 17.1649 11.7213 18.0429 12.3656C18.4626 12.6736 18.6725 12.8276 19 12.8276C19.3275 12.8276 19.5374 12.6736 19.9571 12.3656C20.8352 11.7214 22 10.6812 22 9.69672C22 8.0235 20.35 7.39879 19 8.69135C17.65 7.39879 16 8.0235 16 9.69673Z" fill="#1C274C"/>
</g>
</svg>
