<svg width="24" height="24" viewBox="0 0 24 24" fill="none" xmlns="http://www.w3.org/2000/svg">
<g id="Outline / Users / User Check">
<g id="Vector">
<path fill-rule="evenodd" clip-rule="evenodd" d="M6.25013 6C6.25013 3.37665 8.37678 1.25 11.0001 1.25C13.6235 1.25 15.7501 3.37665 15.7501 6C15.7501 8.62335 13.6235 10.75 11.0001 10.75C8.37678 10.75 6.25013 8.62335 6.25013 6ZM11.0001 2.75C9.20521 2.75 7.75013 4.20507 7.75013 6C7.75013 7.79493 9.20521 9.25 11.0001 9.25C12.7951 9.25 14.2501 7.79493 14.2501 6C14.2501 4.20507 12.7951 2.75 11.0001 2.75Z" fill="#1C274C"/>
<path fill-rule="evenodd" clip-rule="evenodd" d="M4.97558 13.6643C6.55506 12.7759 8.68658 12.25 11.0001 12.25C13.3137 12.25 15.4452 12.7759 17.0247 13.6643C18.5807 14.5396 19.7501 15.8661 19.7501 17.5L19.7502 17.602C19.7513 18.7638 19.7527 20.222 18.4737 21.2635C17.8443 21.7761 16.9637 22.1406 15.7739 22.3815C14.5809 22.6229 13.0259 22.75 11.0001 22.75C8.97436 22.75 7.4194 22.6229 6.22634 22.3815C5.03661 22.1406 4.15602 21.7761 3.52655 21.2635C2.24752 20.222 2.24894 18.7638 2.25007 17.602L2.25013 17.5C2.25013 15.8661 3.41962 14.5396 4.97558 13.6643ZM5.71098 14.9717C4.37151 15.7251 3.75013 16.6487 3.75013 17.5C3.75013 18.8078 3.79045 19.544 4.47372 20.1004C4.84425 20.4022 5.46366 20.6967 6.52393 20.9113C7.58087 21.1252 9.02591 21.25 11.0001 21.25C12.9744 21.25 14.4194 21.1252 15.4763 20.9113C16.5366 20.6967 17.156 20.4022 17.5265 20.1004C18.2098 19.544 18.2501 18.8078 18.2501 17.5C18.2501 16.6487 17.6288 15.7251 16.2893 14.9717C14.9733 14.2315 13.1049 13.75 11.0001 13.75C8.89541 13.75 7.02693 14.2315 5.71098 14.9717Z" fill="#1C274C"/>
<path d="M21.5607 8.99827C21.8359 8.68869 21.808 8.21463 21.4984 7.93944C21.1888 7.66425 20.7148 7.69214 20.4396 8.00173L18.2743 10.4377L17.5019 9.74253C17.194 9.46544 16.7198 9.49039 16.4427 9.79828C16.1656 10.1062 16.1905 10.5804 16.4984 10.8575L17.8317 12.0575C17.9802 12.1911 18.1758 12.26 18.3752 12.2488C18.5746 12.2377 18.7613 12.1475 18.894 11.9983L21.5607 8.99827Z" fill="#1C274C"/>
</g>
</g>
</svg>
