<svg width="24" height="24" viewBox="0 0 24 24" fill="none" xmlns="http://www.w3.org/2000/svg">
<g id="Bold Duotone / Video, Audio, Sound / Video Library">
<path id="Vector" fill-rule="evenodd" clip-rule="evenodd" d="M14.9948 7.54199H9.00515C5.96782 7.54199 4.44915 7.54199 3.59609 8.52881C2.74302 9.51563 2.94373 11.0402 3.34516 14.0894L3.72583 16.981C4.04063 19.3722 4.19803 20.5678 5.0055 21.2838C5.81297 21.9998 7.00392 21.9998 9.38581 21.9998H14.6142C16.9961 21.9998 18.187 21.9998 18.9945 21.2838C19.802 20.5678 19.9594 19.3722 20.2742 16.981L20.6548 14.0894C21.0563 11.0402 21.257 9.51563 20.4039 8.52881C19.5509 7.54199 18.0322 7.54199 14.9948 7.54199ZM10.6479 12.1203C10.6479 12.1203 10.6461 12.1193 10.6335 12.1277L10.6318 12.1287C10.6179 12.1373 10.562 12.1718 10.5068 12.4242C10.4434 12.7143 10.4145 13.1265 10.3713 13.7878C10.3484 14.1387 10.3345 14.4752 10.3345 14.7708C10.3345 15.0665 10.3484 15.4029 10.3713 15.7539C10.4145 16.4151 10.4434 16.8273 10.5068 17.1174C10.562 17.3699 10.6179 17.4043 10.6318 17.4129L10.6335 17.4139C10.6461 17.4223 10.6479 17.4213 10.6479 17.4213C10.6594 17.4221 10.706 17.422 10.8108 17.3887C11.0449 17.3141 11.3588 17.1483 11.8949 16.8594C12.1515 16.7212 12.3935 16.5834 12.6028 16.4531C12.8415 16.3046 13.1073 16.1225 13.3816 15.9242C13.9148 15.5387 14.2363 15.3031 14.4377 15.0952C14.6079 14.9196 14.617 14.8409 14.617 14.7708C14.617 14.7007 14.6079 14.622 14.4377 14.4464C14.2363 14.2385 13.9148 14.0029 13.3816 13.6175C13.1073 13.4191 12.8415 13.237 12.6028 13.0885C12.3935 12.9582 12.1515 12.8205 11.8949 12.6822C11.3588 12.3933 11.0449 12.2275 10.8108 12.1529C10.706 12.1196 10.6594 12.1195 10.6479 12.1203Z" fill="#1C274C"/>
<path id="Vector_2" opacity="0.7" d="M6.87908 4.72266C5.62752 4.72266 4.60128 5.5624 4.25881 6.67643C4.25167 6.69965 4.24482 6.723 4.23828 6.74645C4.59662 6.62588 4.96954 6.54712 5.34706 6.49334C6.3194 6.35484 7.5482 6.35491 8.97563 6.35499H15.1785C16.6059 6.35491 17.8348 6.35484 18.8071 6.49334C19.1846 6.54712 19.5575 6.62588 19.9159 6.74645C19.9093 6.723 19.9025 6.69966 19.8953 6.67643C19.5529 5.5624 18.5266 4.72266 17.2751 4.72266H6.87908Z" fill="#1C274C"/>
<path id="Vector_3" opacity="0.4" d="M8.8585 2.00001H15.1406C15.3498 1.99995 15.5102 1.99991 15.6505 2.01515C16.6475 2.12351 17.4636 2.78957 17.8097 3.68676H6.18945C6.53552 2.78957 7.35159 2.12351 8.34863 2.01515C8.48886 1.99991 8.64927 1.99995 8.8585 2.00001Z" fill="#1C274C"/>
</g>
</svg>
