<svg width="24" height="24" viewBox="0 0 24 24" fill="none" xmlns="http://www.w3.org/2000/svg">
<g id="Outline / Food, Kitchen / Whisk">
<path id="Vector (Stroke)" fill-rule="evenodd" clip-rule="evenodd" d="M17.9519 2.87396C16.1403 2.46752 13.9348 3.07369 12.294 4.71447C11.1265 5.88188 10.2154 7.62476 9.86375 9.32845C9.72886 9.9819 9.68101 10.5998 9.71967 11.1617C9.90479 10.8077 10.1194 10.4494 10.3481 10.0978C11.3191 8.60515 12.6635 7.05539 13.5766 6.14231C14.491 5.228 15.8483 4.07644 17.1557 3.30026C17.417 3.14514 17.6842 3.00026 17.9519 2.87396ZM21.0787 2.92126C18.4781 0.320685 13.9916 0.895558 11.2333 3.65379C9.84333 5.04373 8.8011 7.0566 8.39472 9.0252C8.28045 9.57876 8.21372 10.1457 8.20842 10.7052L2.30351 16.61C0.89883 18.0146 0.89883 20.292 2.30351 21.6966C3.70818 23.1012 5.98558 23.1012 7.39025 21.6966L13.2958 15.7912C13.8549 15.7858 14.4215 15.7191 14.9746 15.6049C16.9433 15.1985 18.9562 14.1563 20.3462 12.7664C23.1045 10.0082 23.6794 5.52187 21.0787 2.92126ZM20.0181 3.98194C19.9728 3.93668 19.8405 3.84723 19.4318 3.93099C19.0285 4.01365 18.5105 4.24041 17.9215 4.59009C16.7529 5.28383 15.4935 6.34684 14.6373 7.20299C13.7798 8.06039 12.507 9.52982 11.6055 10.9158C11.1513 11.6139 10.8205 12.247 10.6683 12.7452C10.5925 12.9935 10.5739 13.1679 10.5821 13.2782C10.5859 13.3299 10.595 13.3585 10.6003 13.3714C10.6048 13.3824 10.6082 13.386 10.6109 13.3888C10.6136 13.3915 10.6173 13.3948 10.6283 13.3994C10.6412 13.4047 10.6698 13.4138 10.7216 13.4176C10.832 13.4258 11.0064 13.4072 11.2547 13.3314C11.753 13.1793 12.3862 12.8485 13.0844 12.3945C14.4705 11.4931 15.9401 10.2204 16.7975 9.36308C17.6536 8.50698 18.7165 7.24751 19.4102 6.07882C19.7598 5.48974 19.9865 4.97165 20.0691 4.56831C20.1528 4.15957 20.0634 4.02722 20.0181 3.98194ZM12.8386 14.28C13.1925 14.095 13.5507 13.8805 13.9022 13.652C15.395 12.6811 16.945 11.3369 17.8581 10.4238C18.7725 9.5094 19.924 8.15199 20.7001 6.8444C20.8551 6.58316 20.9999 6.3161 21.1262 6.04843C21.5325 7.85988 20.9262 10.065 19.2855 11.7057C18.1181 12.8731 16.3751 13.7842 14.6714 14.1359C14.0181 14.2707 13.4004 14.3186 12.8386 14.28ZM11.422 15.5437C10.7226 15.3335 10.0812 14.9804 9.55025 14.4494C9.01954 13.9188 8.66647 13.2778 8.45624 12.5787L3.36415 17.6706C2.54528 18.4895 2.54528 19.8171 3.36415 20.6359C4.18304 21.4548 5.51072 21.4548 6.32961 20.6359L11.422 15.5437Z" fill="#1C274C"/>
</g>
</svg>
