<svg width="24" height="24" viewBox="0 0 24 24" fill="none" xmlns="http://www.w3.org/2000/svg">
<g id="Outline / Like / Medal Star">
<path id="Vector" fill-rule="evenodd" clip-rule="evenodd" d="M10.9478 1.25H13.0518C13.9503 1.24997 14.6995 1.24995 15.2943 1.32991C15.9221 1.41432 16.4889 1.59999 16.9443 2.05546C17.3998 2.51093 17.5855 3.07773 17.6699 3.70552C17.7499 4.30031 17.7498 5.04953 17.7498 5.94801L17.7498 7.28108L18.5893 7.73883C19.7942 8.39587 20.544 9.6587 20.544 11.0312V15.9688C20.544 17.3413 19.7942 18.6041 18.5893 19.2612L13.795 21.8754C12.676 22.4855 11.3236 22.4855 10.2046 21.8754L5.41032 19.2612C4.20534 18.6041 3.45557 17.3413 3.45557 15.9688V11.0312C3.45557 9.6587 4.20534 8.39587 5.41033 7.73883L6.24979 7.28108L6.24979 5.948C6.24976 5.04952 6.24974 4.3003 6.32971 3.70552C6.41411 3.07773 6.59978 2.51093 7.05525 2.05546C7.51072 1.59999 8.07752 1.41432 8.70532 1.32991C9.3001 1.24995 10.0493 1.24997 10.9478 1.25ZM7.74979 6.46317L10.2046 5.12465C11.3236 4.51446 12.676 4.51446 13.795 5.12465L16.2498 6.46317V6C16.2498 5.03599 16.2482 4.38843 16.1833 3.90539C16.1212 3.44393 16.014 3.24644 15.8837 3.11612C15.7534 2.9858 15.5559 2.87858 15.0944 2.81654C14.6114 2.7516 13.9638 2.75 12.9998 2.75H10.9998C10.0358 2.75 9.38822 2.7516 8.90519 2.81654C8.44373 2.87858 8.24623 2.9858 8.11591 3.11612C7.98559 3.24644 7.87837 3.44393 7.81633 3.90539C7.75139 4.38843 7.74979 5.03599 7.74979 6V6.46317ZM13.0769 6.44159C12.4055 6.07548 11.5941 6.07548 10.9227 6.44159L6.12842 9.05577C5.40543 9.45 4.95557 10.2077 4.95557 11.0312V15.9688C4.95557 16.7923 5.40543 17.55 6.12842 17.9442L10.9227 20.5584C11.5941 20.9245 12.4055 20.9245 13.0769 20.5584L17.8712 17.9442C18.5942 17.55 19.044 16.7923 19.044 15.9688V11.0312C19.044 10.2077 18.5942 9.45 17.8712 9.05577L13.0769 6.44159ZM11.9998 11.5346C11.9417 11.6353 11.877 11.7512 11.8008 11.8878L11.7025 12.0642C11.6956 12.0767 11.6882 12.0903 11.6802 12.1048C11.6017 12.2484 11.4716 12.4863 11.2548 12.6509C11.0334 12.8189 10.7671 12.8767 10.6114 12.9106C10.5958 12.9139 10.5813 12.9171 10.5681 12.9201L10.3772 12.9633C10.202 13.0029 10.0593 13.0353 9.93729 13.0659C10.0167 13.1636 10.1197 13.2849 10.2538 13.4417L10.384 13.5939C10.3932 13.6047 10.4032 13.6162 10.4139 13.6286C10.5219 13.7529 10.6961 13.9536 10.7767 14.2128C10.8564 14.4688 10.8289 14.7326 10.8116 14.899C10.8098 14.9156 10.8082 14.9312 10.8068 14.9458L10.7871 15.1488C10.7689 15.3371 10.7547 15.4873 10.7452 15.6095C10.8495 15.5636 10.968 15.5091 11.1088 15.4443L11.2876 15.362C11.2999 15.3563 11.3134 15.3499 11.3279 15.3431C11.4714 15.2754 11.7211 15.1576 11.9998 15.1576C12.2785 15.1576 12.5282 15.2754 12.6717 15.3431C12.6862 15.3499 12.6997 15.3563 12.712 15.362L12.8908 15.4443C13.0316 15.5091 13.1501 15.5636 13.2543 15.6095C13.2449 15.4873 13.2307 15.3371 13.2125 15.1488L13.1928 14.9458C13.1914 14.9312 13.1898 14.9156 13.188 14.899C13.1707 14.7326 13.1432 14.4689 13.2229 14.2128C13.3035 13.9536 13.4777 13.7529 13.5857 13.6286C13.5963 13.6162 13.6064 13.6047 13.6156 13.5939L13.7458 13.4417C13.8799 13.2849 13.9829 13.1636 14.0623 13.0659C13.9403 13.0353 13.7976 13.0029 13.6224 12.9633L13.4315 12.9201C13.4183 12.9171 13.4038 12.9139 13.3882 12.9106C13.2325 12.8767 12.9662 12.8189 12.7448 12.6509C12.528 12.4863 12.3979 12.2484 12.3194 12.1048C12.3114 12.0902 12.304 12.0767 12.2971 12.0642L12.1988 11.8878C12.1226 11.7512 12.0579 11.6353 11.9998 11.5346ZM11.0133 10.2998C11.1855 10.075 11.4981 9.75016 11.9998 9.75016C12.5015 9.75016 12.8141 10.075 12.9863 10.2998C13.1506 10.5144 13.3161 10.8114 13.4858 11.1159C13.4935 11.1298 13.5012 11.1436 13.5089 11.1575L13.6072 11.3339C13.63 11.3748 13.648 11.4069 13.6637 11.4345C13.691 11.4409 13.7228 11.4481 13.7625 11.4571L13.9534 11.5003C13.9691 11.5038 13.9847 11.5073 14.0004 11.5109C14.3282 11.5849 14.654 11.6586 14.904 11.7571C15.1802 11.8659 15.5545 12.0779 15.6987 12.5418C15.8405 12.9975 15.6616 13.3835 15.5054 13.6316C15.3609 13.8612 15.1412 14.118 14.9163 14.3809C14.9061 14.3928 14.8959 14.4047 14.8858 14.4166L14.7556 14.5688C14.7211 14.6091 14.6951 14.6395 14.6732 14.6658C14.6762 14.7022 14.6803 14.7445 14.6858 14.8011L14.7055 15.0041C14.707 15.0196 14.7085 15.0351 14.71 15.0505C14.7442 15.4025 14.7772 15.7426 14.7651 16.0146C14.7524 16.2999 14.6839 16.7317 14.2967 17.0256C13.8973 17.3288 13.4562 17.2627 13.1765 17.1826C12.9188 17.1087 12.6142 16.9684 12.3075 16.8271C12.2928 16.8203 12.2781 16.8135 12.2634 16.8068L12.0847 16.7245C12.0512 16.7091 12.0237 16.6964 11.9998 16.6856C11.9758 16.6964 11.9484 16.7091 11.9149 16.7245L11.7362 16.8068C11.7215 16.8135 11.7068 16.8203 11.6921 16.8271C11.3854 16.9684 11.0808 17.1087 10.8231 17.1826C10.5434 17.2627 10.1023 17.3288 9.70286 17.0256C9.31569 16.7317 9.24723 16.2999 9.23452 16.0146C9.2224 15.7426 9.25543 15.4025 9.28961 15.0506C9.29111 15.0351 9.29261 15.0196 9.29411 15.0041L9.31379 14.8011C9.31927 14.7445 9.32336 14.7022 9.32634 14.6658C9.30445 14.6395 9.27846 14.6091 9.24397 14.5688L9.11383 14.4166C9.10364 14.4047 9.09347 14.3928 9.0833 14.3809C8.85839 14.118 8.6387 13.8612 8.49415 13.6316C8.33797 13.3835 8.15913 12.9975 8.30085 12.5418C8.44511 12.0779 8.81942 11.8659 9.09556 11.7571C9.34564 11.6586 9.67142 11.5849 9.99923 11.5109C10.0149 11.5073 10.0305 11.5038 10.0461 11.5003L10.237 11.4571C10.2768 11.4481 10.3086 11.4409 10.3359 11.4345C10.3516 11.4069 10.3695 11.3748 10.3923 11.3339L10.4907 11.1575C10.4984 11.1436 10.5061 11.1298 10.5138 11.1159C10.6835 10.8114 10.849 10.5144 11.0133 10.2998Z" fill="#1C274C"/>
</g>
</svg>
