<svg xmlns="http://www.w3.org/2000/svg" width="24" height="24" fill="none">
  <path stroke="#1C274C" stroke-width="1.5" d="M3.213 9.071a4.142 4.142 0 0 1 5.858-5.858L20.787 14.93a4.142 4.142 0 0 1-5.858 5.858L3.213 9.07Z"/>
  <path stroke="#1C274C" stroke-width="1.5" d="m12 17.858-2.929 2.929a4.142 4.142 0 0 1-5.858-5.858L6.143 12 12 17.858Zm0-11.716 2.929-2.929a4.142 4.142 0 0 1 5.858 5.858L17.857 12 12 6.142Z" opacity=".5"/>
  <path fill="#1C274C" d="M15.841 12.871a.787.787 0 1 1-1.113 1.114.787.787 0 0 1 1.113-1.114Zm-3.712-3.712a.788.788 0 1 0-1.114 1.114.788.788 0 0 0 1.114-1.114Zm1.856 5.569a.788.788 0 1 1-1.114 1.113.788.788 0 0 1 1.114-1.113Zm-3.712-3.713a.788.788 0 1 0-1.114 1.114.788.788 0 0 0 1.114-1.114Zm6.497 4.641a.788.788 0 1 1-1.114 1.113.788.788 0 0 1 1.114-1.113ZM9.345 8.23A.788.788 0 1 0 8.23 9.345a.788.788 0 0 0 1.114-1.113Z"/>
  <path fill="#1C274C" d="M13.057 11.944a.787.787 0 1 1-1.113 1.113.787.787 0 0 1 1.113-1.113Z" opacity=".5"/>
</svg>
