<svg xmlns="http://www.w3.org/2000/svg" width="24" height="24" fill="none">
  <path fill="#1C274C" fill-rule="evenodd" d="M3.955 4.061C3 5.375 3 7.251 3 11v2c0 3.75 0 5.625.955 6.939a5 5 0 0 0 1.106 1.106C6.375 22 8.251 22 12 22c3.75 0 5.625 0 6.939-.955a5 5 0 0 0 1.106-1.106C21 18.625 21 16.749 21 13v-2c0-3.75 0-5.625-.955-6.939a5 5 0 0 0-1.106-1.106C17.625 2 15.749 2 12 2c-3.75 0-5.625 0-6.939.955A5 5 0 0 0 3.955 4.06ZM7 8.25a.75.75 0 0 0 0 1.5h10a.75.75 0 0 0 0-1.5H7Z" clip-rule="evenodd"/>
</svg>
