<svg xmlns="http://www.w3.org/2000/svg" width="24" height="24" fill="none">
  <g stroke="#1C274C" stroke-linecap="round" stroke-width="1.5">
    <path stroke-linejoin="round" d="m12 18 2-2.5h-4l2-2.5"/>
    <path d="M7 9h10M3 13v-2c0-3.75 0-5.625.955-6.939A5 5 0 0 1 5.06 2.955C6.375 2 8.251 2 12 2c3.75 0 5.625 0 6.939.955a5 5 0 0 1 1.106 1.106C21 5.375 21 7.251 21 11v2c0 3.75 0 5.625-.955 6.939a5 5 0 0 1-1.106 1.106C17.625 22 15.749 22 12 22c-3.75 0-5.625 0-6.939-.955a5 5 0 0 1-1.106-1.106c-.531-.731-.767-1.635-.871-2.939"/>
  </g>
</svg>
