<svg xmlns="http://www.w3.org/2000/svg" width="24" height="24" fill="none">
  <g fill="#1C274C">
    <path d="M3 11c0-3.75 0-5.625.955-6.939A5 5 0 0 1 5.06 2.955C6.375 2 8.251 2 12 2c3.75 0 5.625 0 6.939.955a5 5 0 0 1 1.106 1.106C21 5.375 21 7.251 21 11v2c0 3.75 0 5.625-.955 6.939a5 5 0 0 1-1.106 1.106C17.625 22 15.749 22 12 22c-3.75 0-5.625 0-6.939-.955a5 5 0 0 1-1.106-1.106C3 18.625 3 16.749 3 13v-2Z" opacity=".5"/>
    <path d="M7 8.25a.75.75 0 0 0 0 1.5h10a.75.75 0 0 0 0-1.5H7Z"/>
  </g>
</svg>
