<svg xmlns="http://www.w3.org/2000/svg" width="24" height="24" fill="none">
  <path fill="#1C274C" fill-rule="evenodd" d="M11.955 1.25h.09c1.837 0 3.276 0 4.418.124 1.166.126 2.11.388 2.917.974a5.75 5.75 0 0 1 1.272 1.272c.586.807.848 1.75.974 2.916.124 1.143.124 2.582.124 4.419v2.09c0 1.837 0 3.276-.124 4.418-.126 1.166-.388 2.11-.974 2.917a5.749 5.749 0 0 1-1.272 1.272c-.807.586-1.75.848-2.916.974-1.143.124-2.582.124-4.419.124h-.09c-1.837 0-3.276 0-4.419-.124-1.165-.126-2.11-.388-2.916-.974a5.75 5.75 0 0 1-1.272-1.272c-.586-.807-.848-1.75-.974-2.916-.124-1.143-.124-2.582-.124-4.419v-2.09c0-1.837 0-3.276.124-4.419.126-1.165.388-2.11.974-2.916A5.75 5.75 0 0 1 4.62 2.348c.807-.586 1.75-.848 2.916-.974 1.143-.124 2.582-.124 4.419-.124ZM7.698 2.865c-1.038.112-1.688.328-2.196.697a4.25 4.25 0 0 0-.94.94c-.37.508-.585 1.158-.697 2.196C3.751 7.75 3.75 9.108 3.75 11v2c0 1.892.001 3.25.115 4.302.112 1.038.328 1.688.697 2.196.262.36.58.678.94.94.508.37 1.158.585 2.196.697 1.052.114 2.41.115 4.302.115 1.892 0 3.25-.001 4.302-.115 1.038-.113 1.688-.328 2.196-.697.36-.262.678-.58.94-.94.37-.508.585-1.158.697-2.196.114-1.052.115-2.41.115-4.302v-2c0-1.892-.001-3.25-.115-4.302-.113-1.038-.328-1.688-.697-2.196a4.25 4.25 0 0 0-.94-.94c-.508-.37-1.158-.585-2.196-.697-1.052-.114-2.41-.115-4.302-.115-1.892 0-3.25.001-4.302.115ZM6.25 9A.75.75 0 0 1 7 8.25h10a.75.75 0 0 1 0 1.5H7A.75.75 0 0 1 6.25 9Z" clip-rule="evenodd"/>
</svg>
