<svg xmlns="http://www.w3.org/2000/svg" width="24" height="24" fill="none">
  <path fill="#1C274C" fill-rule="evenodd" d="M19.11 2.753a7.136 7.136 0 0 0-.297-.003c-.3 0-.422 0-.521.005a4.25 4.25 0 0 0-4.037 4.036c-.005.1-.005.222-.005.521V13.5a.75.75 0 0 1-1.5 0V7.287c0-.266 0-.428.007-.57a5.75 5.75 0 0 1 5.46-5.46c.142-.007.304-.007.57-.007h.047c.153 0 .258 0 .35.005a3.75 3.75 0 0 1 3.561 3.561c.005.092.005.197.005.35V7.3A3.75 3.75 0 0 1 19 11.05a.25.25 0 0 0-.25.25v.2a.75.75 0 0 1-1.5 0v-.2c0-.966.784-1.75 1.75-1.75a2.25 2.25 0 0 0 2.25-2.25V5.188c0-.184 0-.248-.003-.298a2.25 2.25 0 0 0-2.137-2.137ZM5.166 3.25h.047c.266 0 .428 0 .57.007a5.75 5.75 0 0 1 5.46 5.46c.007.142.007.304.007.57V19.75a3 3 0 1 1-6 0V13.3a.25.25 0 0 0-.25-.25A3.75 3.75 0 0 1 1.25 9.3V7.166c0-.153 0-.258.005-.35a3.75 3.75 0 0 1 3.561-3.561c.092-.005.197-.005.35-.005Zm.021 1.5c-.183 0-.247 0-.297.003A2.25 2.25 0 0 0 2.753 6.89c-.003.05-.003.115-.003.298V9.3A2.25 2.25 0 0 0 5 11.55c.966 0 1.75.784 1.75 1.75v4.95h3V9.312c0-.299 0-.421-.005-.52a4.25 4.25 0 0 0-4.036-4.037c-.1-.005-.222-.005-.521-.005Zm4.563 15h-3a1.5 1.5 0 0 0 3 0Zm9.75-15.5a.75.75 0 0 1 .75.75v2.5a.75.75 0 0 1-1.5 0V5a.75.75 0 0 1 .75-.75Zm-15 2a.75.75 0 0 1 .75.75v2.5a.75.75 0 1 1-1.5 0V7a.75.75 0 0 1 .75-.75Zm13.5 8.5a3.25 3.25 0 1 0 0 6.5 3.25 3.25 0 0 0 0-6.5ZM13.25 18a4.75 4.75 0 1 1 9.5 0 4.75 4.75 0 0 1-9.5 0Zm3.22-1.53a.75.75 0 0 1 1.06 0l.47.47.47-.47a.75.75 0 0 1 1.06 1.06l-.47.47.47.47a.75.75 0 1 1-1.06 1.06l-.47-.47-.47.47a.75.75 0 0 1-1.06-1.06l.47-.47-.47-.47a.75.75 0 0 1 0-1.06Z" clip-rule="evenodd"/>
</svg>
