<svg xmlns="http://www.w3.org/2000/svg" width="24" height="24" fill="none">
  <g fill="#1C274C">
    <path d="M12 22a9 9 0 1 0 0-18 9 9 0 0 0 0 18Z" opacity=".5"/>
    <path d="M11 15.5v-5c0-.466 0-.699-.076-.883a1 1 0 0 0-.541-.54C10.199 9 9.966 9 9.5 9s-.699 0-.883.076a1 1 0 0 0-.54.541C8 9.801 8 10.034 8 10.5v5c0 .466 0 .699.076.883a1 1 0 0 0 .541.54c.184.077.417.077.883.077s.699 0 .883-.076a1 1 0 0 0 .54-.541c.077-.184.077-.417.077-.883Zm5 0v-5c0-.466 0-.699-.076-.883a1 1 0 0 0-.541-.54C15.199 9 14.966 9 14.5 9s-.699 0-.883.076a1 1 0 0 0-.54.541C13 9.801 13 10.034 13 10.5v5c0 .466 0 .699.076.883a1 1 0 0 0 .541.54c.184.077.417.077.883.077s.699 0 .883-.076a1 1 0 0 0 .54-.541c.077-.184.077-.417.077-.883Z"/>
    <path fill-rule="evenodd" d="M8.24 2.34a.719.719 0 0 1-.232.996l-3.891 2.41a.734.734 0 0 1-1.006-.23.719.719 0 0 1 .232-.996l3.892-2.41a.734.734 0 0 1 1.006.23Zm7.52 0a.734.734 0 0 1 1.005-.23l3.892 2.41a.719.719 0 0 1 .232.996.734.734 0 0 1-1.006.23l-3.891-2.41a.719.719 0 0 1-.233-.996Z" clip-rule="evenodd"/>
  </g>
</svg>
