<svg xmlns="http://www.w3.org/2000/svg" width="24" height="24" fill="none">
  <path fill="#1C274C" fill-rule="evenodd" d="M7.468 4.25h.064c.44 0 .82 0 1.13.028.33.03.656.096.963.273.342.198.626.482.824.824.177.307.243.633.273.962.028.312.028.691.028 1.13v3.783h2.5V9.468c0-.44 0-.82.028-1.13.03-.33.096-.656.273-.963a2.25 2.25 0 0 1 .824-.824c.307-.177.633-.243.962-.273.312-.028.691-.028 1.13-.028h.065c.44 0 .82 0 1.13.028.33.03.656.096.963.273.342.198.626.482.824.824.177.307.243.633.273.962.028.312.028.691.028 1.13v1.783H22a.75.75 0 0 1 0 1.5h-2.25v1.782c0 .44 0 .82-.028 1.13-.03.33-.096.656-.273.963a2.251 2.251 0 0 1-.824.824c-.307.177-.633.243-.962.273-.312.028-.691.028-1.13.028h-.065c-.44 0-.82 0-1.13-.028-.33-.03-.656-.096-.963-.273a2.251 2.251 0 0 1-.824-.824c-.177-.307-.243-.633-.273-.962-.028-.312-.028-.691-.028-1.13V12.75h-2.5v3.782c0 .44 0 .82-.028 1.13-.03.33-.096.656-.273.963a2.25 2.25 0 0 1-.824.824c-.307.177-.633.243-.962.273-.312.028-.691.028-1.13.028h-.065c-.44 0-.82 0-1.13-.028-.33-.03-.656-.096-.963-.273a2.25 2.25 0 0 1-.824-.824c-.177-.307-.243-.633-.273-.962-.028-.312-.028-.691-.028-1.13V12.75H2a.75.75 0 0 1 0-1.5h2.25V7.468c0-.44 0-.82.028-1.13.03-.33.096-.656.273-.963a2.25 2.25 0 0 1 .824-.824c.307-.177.633-.243.962-.273.312-.028.691-.028 1.13-.028ZM5.75 12.001V7.5c0-.481 0-.792.022-1.027.02-.225.055-.307.078-.348a.75.75 0 0 1 .275-.275c.04-.023.123-.058.348-.078.235-.021.546-.022 1.027-.022.481 0 .792 0 1.027.022.225.02.307.055.348.078a.75.75 0 0 1 .275.275c.023.04.058.123.078.348.021.235.022.546.022 1.027v9c0 .481 0 .792-.022 1.027-.02.225-.055.307-.078.348a.75.75 0 0 1-.275.274c-.04.024-.123.058-.348.079-.235.021-.546.022-1.027.022-.481 0-.792 0-1.027-.022-.225-.02-.307-.055-.348-.079a.75.75 0 0 1-.275-.274c-.023-.04-.058-.123-.078-.348A12.81 12.81 0 0 1 5.75 16.5v-4.499Zm9 2.499c0 .481 0 .792.022 1.027.02.225.055.307.079.348a.75.75 0 0 0 .274.274c.04.024.123.058.348.079.235.021.546.022 1.027.022.481 0 .792 0 1.027-.022.225-.02.307-.055.348-.079a.75.75 0 0 0 .274-.274c.024-.04.058-.123.079-.348.021-.235.022-.546.022-1.027v-5c0-.481 0-.792-.022-1.027-.02-.225-.055-.307-.079-.348a.75.75 0 0 0-.274-.275c-.04-.023-.123-.058-.348-.078A12.81 12.81 0 0 0 16.5 7.75c-.481 0-.792 0-1.027.022-.225.02-.307.055-.348.078a.75.75 0 0 0-.274.275c-.024.04-.059.123-.079.348-.021.235-.022.546-.022 1.027v5Z" clip-rule="evenodd"/>
</svg>
