<svg xmlns="http://www.w3.org/2000/svg" width="24" height="24" fill="none">
  <path stroke="#1C274C" stroke-width="1.5" d="M3.742 20.555C4.942 22 7.174 22 11.639 22h.722c4.465 0 6.698 0 7.897-1.445m-16.516 0c-1.2-1.446-.789-3.64.034-8.03.586-3.12.878-4.681 1.99-5.603M3.741 20.555Zm16.516 0c1.2-1.446.788-3.64-.034-8.03-.586-3.12-.878-4.681-1.99-5.603m2.024 13.633ZM18.235 6.922C17.124 6 15.536 6 12.36 6h-.722c-3.175 0-4.763 0-5.874.922m12.47 0Zm-12.47 0Z"/>
  <path stroke="#1C274C" stroke-linecap="round" stroke-width="1.5" d="M9 6V5a3 3 0 1 1 6 0v1" opacity=".5"/>
  <path fill="#1C274C" d="m12.742 10.63-.336-.672.336.671Zm1.316-.66-.335-.67.335.67Zm-.116 3.06-.336-.672.336.671Zm-1.882-.307.705-.256-.705.255Zm1.056.652-.087-.745.087.745Zm2.866-1.805.737.141-.737-.141Zm-.375.606.456.596-.456-.596Zm-.723-2.551.087.745-.087-.745Zm1.056.652-.705.256.705-.255Zm-3.547.547.455.595-.455-.595Zm-.375.606-.737-.141.737.141ZM11.25 17c0 .69-.56 1.25-1.25 1.25v1.5A2.75 2.75 0 0 0 12.75 17h-1.5ZM10 18.25c-.69 0-1.25-.56-1.25-1.25h-1.5A2.75 2.75 0 0 0 10 19.75v-1.5ZM8.75 17c0-.69.56-1.25 1.25-1.25v-1.5A2.75 2.75 0 0 0 7.25 17h1.5ZM10 15.75c.69 0 1.25.56 1.25 1.25h1.5A2.75 2.75 0 0 0 10 14.25v1.5ZM12.75 17v-5h-1.5v5h1.5Zm.327-5.7 1.317-.658-.671-1.342-1.317.658.671 1.342Zm1.846.4-1.317.658.671 1.342 1.317-.658-.671-1.342Zm-3.673.13c0 .234 0 .44.008.605.01.165.029.355.097.543l1.41-.51c.008.022-.002.008-.009-.111a11.436 11.436 0 0 1-.006-.528h-1.5Zm2.356.528a10.21 10.21 0 0 1-.474.23c-.11.048-.127.045-.103.042l.174 1.49c.198-.023.377-.09.528-.156.153-.067.336-.16.546-.264l-.67-1.342Zm-2.251.62a1.75 1.75 0 0 0 1.848 1.142l-.174-1.49a.25.25 0 0 1-.264-.163l-1.41.511Zm3.895-1.807c0 .107 0 .168-.002.214l-.002.044 1.473.282c.034-.18.031-.367.031-.54h-1.5Zm.344 1.87c.155-.077.324-.158.469-.269l-.911-1.191-.038.021a6.54 6.54 0 0 1-.191.098l.67 1.342Zm-.348-1.612a.25.25 0 0 1-.094.152l.91 1.191a1.75 1.75 0 0 0 .657-1.061l-1.474-.282Zm-.852-.787c.224-.113.366-.183.474-.23.11-.048.127-.045.103-.042l-.174-1.49c-.198.023-.377.09-.528.156-.153.067-.336.16-.546.264l.67 1.342Zm2.356.529c0-.235 0-.44-.009-.606a1.87 1.87 0 0 0-.096-.543l-1.41.51c-.008-.022.002-.008.009.111.006.118.006.277.006.528h1.5Zm-1.779-.801a.25.25 0 0 1 .264.163l1.41-.511a1.75 1.75 0 0 0-1.848-1.142l.174 1.49Zm-2.565-.412c-.155.078-.324.159-.469.27l.911 1.191.038-.021c.04-.023.095-.05.191-.098l-.67-1.342Zm.344 1.871c0-.107 0-.168.002-.214l.002-.044-1.473-.282c-.034.18-.031.367-.031.54h1.5Zm-.813-1.601a1.75 1.75 0 0 0-.656 1.061l1.473.282a.25.25 0 0 1 .094-.152l-.91-1.191Z" opacity=".5"/>
</svg>
