<svg xmlns="http://www.w3.org/2000/svg" width="24" height="24" fill="none">
  <g fill="#1C274C">
    <path d="M11 14.75a1.25 1.25 0 1 0 0 2.5 1.25 1.25 0 0 0 0-2.5Z"/>
    <path fill-rule="evenodd" d="M8.25 6.015V5a3.75 3.75 0 1 1 7.5 0v1.015c1.287.039 2.075.177 2.676.676.833.692 1.053 1.862 1.492 4.203l.75 4c.617 3.292.925 4.938.026 6.022C19.794 22 18.119 22 14.77 22H9.23c-3.35 0-5.024 0-5.924-1.084-.9-1.084-.59-2.73.026-6.022l.75-4c.44-2.34.659-3.511 1.492-4.203.601-.499 1.389-.637 2.676-.676ZM9.75 5a2.25 2.25 0 0 1 4.5 0v1h-4.5V5Zm4 5a.75.75 0 0 0-1.5 0v3.55a2.75 2.75 0 1 0 1.5 2.45v-3.55c.375.192.8.3 1.25.3a.75.75 0 0 0 0-1.5c-.69 0-1.25-.56-1.25-1.25Z" clip-rule="evenodd"/>
  </g>
</svg>
