<svg xmlns="http://www.w3.org/2000/svg" width="24" height="24" fill="none">
  <g fill="#1C274C" fill-rule="evenodd" clip-rule="evenodd">
    <path d="M12 2.75A2.25 2.25 0 0 0 9.75 5v.26c.557-.01 1.168-.01 1.84-.01h.821c.67 0 1.282 0 1.84.01V5A2.25 2.25 0 0 0 12 2.75Zm3.75 2.578V5a3.75 3.75 0 1 0-7.5 0v.328c-.143.012-.28.026-.414.043-1.01.125-1.842.387-2.55.974-.707.587-1.118 1.357-1.427 2.327-.3.94-.526 2.147-.81 3.666l-.021.11c-.402 2.143-.718 3.832-.777 5.163-.06 1.365.144 2.495.914 3.422.77.928 1.843 1.336 3.195 1.529 1.32.188 3.037.188 5.218.188h.845c2.18 0 3.898 0 5.217-.188 1.352-.193 2.426-.601 3.196-1.529.77-.927.972-2.057.913-3.422-.058-1.331-.375-3.02-.777-5.163l-.02-.11c-.285-1.519-.512-2.727-.81-3.666-.31-.97-.72-1.74-1.428-2.327-.707-.587-1.54-.85-2.55-.974a11.23 11.23 0 0 0-.414-.043ZM8.02 6.86c-.855.105-1.372.304-1.776.64-.403.334-.694.805-.956 1.627-.267.84-.478 1.958-.774 3.537-.416 2.217-.711 3.8-.764 5.013-.052 1.19.14 1.88.569 2.399.43.517 1.073.832 2.253 1 1.2.172 2.812.174 5.067.174h.722c2.255 0 3.866-.002 5.067-.173 1.18-.169 1.823-.484 2.253-1.001.43-.518.621-1.208.57-2.4-.054-1.211-.349-2.795-.765-5.012-.296-1.58-.506-2.696-.774-3.537-.262-.822-.552-1.293-.956-1.628-.404-.335-.92-.534-1.776-.64-.876-.108-2.013-.109-3.62-.109h-.72c-1.607 0-2.744.001-3.62.11Z"/>
    <path d="M14.979 10.369a.953.953 0 0 0-.11.042c-.108.048-.25.118-.475.23l-1.317.659a6.958 6.958 0 0 0-.23.12.25.25 0 0 0-.092.15 11.407 11.407 0 0 0 .002.786c.004.077.01.11.01.118a.25.25 0 0 0 .255.157.97.97 0 0 0 .11-.043c.108-.047.25-.117.474-.23l1.317-.658a6.99 6.99 0 0 0 .23-.12.25.25 0 0 0 .092-.15l.003-.045c.002-.046.002-.107.002-.214 0-.251 0-.41-.006-.528a.957.957 0 0 0-.011-.117.25.25 0 0 0-.254-.157Zm-.182-1.49a1.75 1.75 0 0 1 1.848 1.143c.069.188.088.378.097.543.008.161.008.36.008.587v.059c0 .162 0 .334-.031.5-.08.422-.314.8-.656 1.061a2.52 2.52 0 0 1-.433.251l-.036.019-1.333.666c-.203.102-.381.19-.53.255-.15.066-.33.134-.528.157a1.748 1.748 0 0 1-.453-.006V17a2.75 2.75 0 1 1-1.5-2.45v-2.761c0-.163 0-.334.031-.5.081-.422.315-.8.656-1.061a2.52 2.52 0 0 1 .433-.251l.036-.019 1.334-.666c.203-.102.38-.19.53-.256.15-.065.329-.133.527-.156ZM11.25 17a1.25 1.25 0 1 0-2.5 0 1.25 1.25 0 0 0 2.5 0Z"/>
  </g>
</svg>
