<svg xmlns="http://www.w3.org/2000/svg" width="24" height="24" fill="none">
  <g fill="#1C274C">
    <path d="M14.868 10.412a.97.97 0 0 1 .11-.043.25.25 0 0 1 .254.157.977.977 0 0 1 .011.117c.007.118.007.277.007.528a6.627 6.627 0 0 1-.005.259.25.25 0 0 1-.093.15 6.958 6.958 0 0 1-.23.12l-1.316.658a10.21 10.21 0 0 1-.474.23.953.953 0 0 1-.11.043.25.25 0 0 1-.254-.157.957.957 0 0 1-.012-.117 11.441 11.441 0 0 1-.006-.528 7.024 7.024 0 0 1 .005-.259.25.25 0 0 1 .093-.15 6.631 6.631 0 0 1 .23-.12l1.316-.658c.224-.113.366-.183.474-.23ZM10 15.75a1.25 1.25 0 1 1 0 2.5 1.25 1.25 0 0 1 0-2.5Z"/>
    <path fill-rule="evenodd" d="M8.25 6.015V5a3.75 3.75 0 1 1 7.5 0v1.015c1.287.039 2.075.177 2.676.676.833.692 1.053 1.862 1.492 4.203l.75 4c.617 3.292.925 4.938.026 6.022C19.794 22 18.119 22 14.77 22H9.23c-3.35 0-5.024 0-5.924-1.084-.9-1.084-.59-2.73.026-6.022l.75-4c.44-2.34.659-3.511 1.492-4.203.601-.499 1.389-.637 2.676-.676ZM9.75 5a2.25 2.25 0 0 1 4.5 0v1h-4.5V5ZM10 19.75A2.75 2.75 0 0 0 12.75 17v-2.886c.147.021.3.024.453.006.198-.023.377-.09.528-.156.149-.065.326-.154.53-.256l1.37-.685a2.64 2.64 0 0 0 .432-.25 1.75 1.75 0 0 0 .656-1.062c.031-.166.031-.338.031-.5v-.059c0-.227 0-.426-.009-.587a1.87 1.87 0 0 0-.096-.543 1.75 1.75 0 0 0-1.848-1.142c-.198.023-.377.09-.528.156-.149.065-.326.154-.53.256l-1.37.685a2.637 2.637 0 0 0-.432.25 1.75 1.75 0 0 0-.656 1.062c-.032.166-.031.378-.031.54v2.72a2.75 2.75 0 1 0-1.25 5.2Z" clip-rule="evenodd"/>
  </g>
</svg>
