<svg xmlns="http://www.w3.org/2000/svg" width="24" height="24" fill="none">
  <path fill="#1C274C" fill-rule="evenodd" d="M5.574 4.691c-.833.692-1.053 1.862-1.492 4.203l-.75 4c-.617 3.292-.925 4.938-.026 6.022C4.206 20 5.88 20 9.23 20h5.54c3.35 0 5.024 0 5.924-1.084.9-1.084.59-2.73-.026-6.022l-.75-4c-.44-2.34-.659-3.511-1.492-4.203C17.593 4 16.402 4 14.02 4H9.98c-2.382 0-3.573 0-4.406.691Zm4.304 3.06a2.251 2.251 0 0 0 4.245 0 .75.75 0 0 1 1.414.499 3.751 3.751 0 0 1-7.073 0 .75.75 0 1 1 1.414-.5Z" clip-rule="evenodd"/>
</svg>
