<svg xmlns="http://www.w3.org/2000/svg" width="24" height="24" fill="none">
  <path fill="#1C274C" fill-rule="evenodd" d="M12 2.75A2.25 2.25 0 0 0 9.75 5v.254c.418-.004.868-.004 1.355-.004h1.79c.487 0 .938 0 1.355.004V5A2.25 2.25 0 0 0 12 2.75Zm3.75 2.557V5a3.75 3.75 0 0 0-7.5 0v.307c-.135.01-.265.021-.391.035-.878.095-1.613.293-2.265.74a4.75 4.75 0 0 0-.63.516c-.566.552-.905 1.234-1.17 2.076-.257.819-.465 1.859-.727 3.166l-.019.095c-.376 1.883-.673 3.367-.758 4.549-.088 1.208.034 2.223.606 3.104.191.294.414.565.664.81.752.734 1.724 1.052 2.925 1.204 1.176.148 2.69.148 4.61.148h1.81c1.921 0 3.434 0 4.61-.148 1.201-.152 2.174-.47 2.925-1.204a4.75 4.75 0 0 0 .664-.81c.572-.88.694-1.896.607-3.104-.086-1.182-.382-2.666-.76-4.549l-.018-.095c-.261-1.307-.47-2.347-.727-3.166-.265-.842-.604-1.524-1.17-2.076a4.747 4.747 0 0 0-.63-.516c-.652-.447-1.387-.645-2.265-.74a11.401 11.401 0 0 0-.39-.035ZM8.02 6.833c-.747.08-1.208.233-1.578.486a3.25 3.25 0 0 0-.431.354c-.321.313-.56.735-.786 1.451-.23.733-.424 1.693-.695 3.052-.39 1.948-.667 3.34-.744 4.416-.077 1.062.052 1.693.368 2.179.13.2.283.387.454.554.415.405 1.008.655 2.065.789 1.07.135 2.49.136 4.476.136h1.703c1.986 0 3.404-.001 4.475-.136 1.057-.134 1.65-.384 2.065-.789a3.25 3.25 0 0 0 .454-.554c.316-.486.445-1.117.369-2.18-.078-1.076-.355-2.467-.744-4.415-.272-1.359-.465-2.32-.696-3.052-.225-.716-.465-1.138-.786-1.451a3.246 3.246 0 0 0-.43-.354c-.37-.253-.832-.405-1.579-.486-.763-.082-1.743-.083-3.129-.083H11.15c-1.386 0-2.366.001-3.13.083Zm.901 7.46a.75.75 0 0 1 .957.457 2.251 2.251 0 0 0 4.244 0 .75.75 0 1 1 1.415.5 3.751 3.751 0 0 1-7.073 0 .75.75 0 0 1 .457-.957Z" clip-rule="evenodd"/>
</svg>
