<svg xmlns="http://www.w3.org/2000/svg" width="24" height="24" fill="none">
  <g fill="#1C274C">
    <path d="M4.083 10.894c.439-2.34.658-3.511 1.491-4.203C6.408 6 7.598 6 9.98 6h4.04c2.383 0 3.573 0 4.407.691.833.692 1.052 1.862 1.491 4.203l.75 4c.617 3.292.926 4.938.026 6.022C19.794 22 18.12 22 14.771 22H9.23c-3.349 0-5.024 0-5.923-1.084-.9-1.084-.591-2.73.026-6.022l.75-4Z" opacity=".5"/>
    <path d="M9.75 5a2.25 2.25 0 0 1 4.5 0v1c.566 0 1.062.002 1.5.015V5a3.75 3.75 0 1 0-7.5 0v1.015C8.688 6.002 9.184 6 9.75 6V5Zm-1.49 5.877a.75.75 0 1 1 1.48.246l-1 6a.75.75 0 1 1-1.48-.246l1-6Zm6.617-.617a.75.75 0 0 1 .863.617l1 6a.75.75 0 1 1-1.48.246l-1-6a.75.75 0 0 1 .617-.863Z"/>
  </g>
</svg>
