<svg xmlns="http://www.w3.org/2000/svg" width="24" height="24" fill="none">
  <g fill="#1C274C">
    <path d="M12 18c4.142.034 7.594-3.92 7.56-8.196C19.527 5.53 16.142 2.034 12 2c-4.142-.034-7.473 3.404-7.44 7.68.034 4.275 3.298 8.285 7.44 8.32Z" opacity=".5"/>
    <path fill-rule="evenodd" d="M11.75 5.994a.75.75 0 0 1 .756-.744 3.785 3.785 0 0 1 3.744 3.744.75.75 0 0 1-1.5.012 2.285 2.285 0 0 0-2.256-2.256.75.75 0 0 1-.744-.756Z" clip-rule="evenodd"/>
    <path d="M13.18 17.901a6.475 6.475 0 0 1-2.352-.019l-.018.04c-.152.274-.228.41-.261.516-.193.617.204 1.262.858 1.39.111.022.272.022.593.022.321 0 .482 0 .593-.022.654-.128 1.051-.773.858-1.39-.033-.105-.109-.242-.261-.515l-.01-.022Z"/>
    <path d="M11.25 19.786c.05.017.103.032.157.042.111.022.272.022.593.022.321 0 .482 0 .593-.022.054-.01.107-.024.157-.042v1.464a.75.75 0 0 1-1.5 0v-1.464Z" opacity=".5"/>
  </g>
</svg>
