<svg xmlns="http://www.w3.org/2000/svg" width="24" height="24" fill="none">
  <g fill="#1C274C">
    <path fill-rule="evenodd" d="M19.5 9.56c.033 4.143-3.419 7.973-7.56 7.94-4.143-.033-7.406-3.918-7.44-8.06A7.355 7.355 0 0 1 11.94 2c4.141.034 7.526 3.419 7.56 7.56Zm-6.994-4.31a.75.75 0 0 0-.012 1.5 2.285 2.285 0 0 1 2.256 2.256.75.75 0 0 0 1.5-.012 3.785 3.785 0 0 0-3.744-3.744Z" clip-rule="evenodd"/>
    <path d="M14.167 18.214c.332 1.063-.356 2.132-1.417 2.348V22a.75.75 0 0 1-1.5 0v-1.438c-1.06-.216-1.75-1.285-1.417-2.348l.007-.021a7.743 7.743 0 0 0 4.32-.002l.007.023Z"/>
  </g>
</svg>
