<svg xmlns="http://www.w3.org/2000/svg" width="24" height="24" fill="none">
  <g fill="#1C274C">
    <path fill-rule="evenodd" d="m21.988 12.985-4.973-4.973a20.029 20.029 0 0 1 2.233.05 2.895 2.895 0 0 1 2.69 2.69c.052.664.08 1.426.05 2.233Z" clip-rule="evenodd"/>
    <path d="M10.752 21.939a2.895 2.895 0 0 1-2.69-2.691 20.029 20.029 0 0 1-.05-2.232l4.972 4.972c-.806.03-1.568.002-2.232-.05Z"/>
    <path fill-rule="evenodd" d="M10.366 10.367c1.26-1.26 2.99-1.888 4.714-2.17l6.722 6.723c-.28 1.725-.908 3.453-2.168 4.714-1.261 1.26-2.99 1.887-4.715 2.168l-6.721-6.721c.28-1.725.908-3.454 2.168-4.714Zm4.604 1.603a.75.75 0 0 1 1.06 0l.47.47.47-.47a.75.75 0 1 1 1.06 1.06l-.47.47.47.47a.75.75 0 1 1-1.06 1.06l-.47-.47-.44.44.47.47a.75.75 0 1 1-1.06 1.06l-.47-.47-.44.44.47.47a.75.75 0 1 1-1.06 1.06l-.47-.47-.47.47a.75.75 0 1 1-1.06-1.06l.47-.47-.47-.47a.75.75 0 1 1 1.06-1.06l.47.47.44-.44-.47-.47a.75.75 0 1 1 1.06-1.06l.47.47.44-.44-.47-.47a.75.75 0 0 1 0-1.06Z" clip-rule="evenodd"/>
    <path d="M5.932 10.498c-.819-1.283-1.697-2.125-2.36-2.642a7.214 7.214 0 0 0-.8-.546 4.186 4.186 0 0 0-.263-.14L2.5 7.165l-.312-.137a6.641 6.641 0 0 0 1 5.327 6.497 6.497 0 0 0 3.561 2.562l.02.005s.061-.686.155-1.115c.068-.315.137-.53.22-.795a11.672 11.672 0 0 0-1.213-2.515Zm3.695-7.186c.22.874.643 2.074 1.462 3.358.223.35.45.666.677.952a9.532 9.532 0 0 1 2.041-.697c.367-.083.948-.169.948-.169l-.004-.015a6.628 6.628 0 0 0-.92-1.93 6.491 6.491 0 0 0-4.425-2.746c.004.056.012.129.023.217.03.24.089.594.198 1.03ZM7.905 2.126a4.216 4.216 0 0 1-.007-.099A6.41 6.41 0 0 0 4.773 3.19 6.51 6.51 0 0 0 2.706 5.6l.393.173h.002l.003.002.009.004.026.012.086.042c.07.036.17.088.291.159.243.14.579.356.97.66.78.609 1.783 1.575 2.706 3.022.306.48.564.95.78 1.401a8.126 8.126 0 0 1 1.334-1.77 7.914 7.914 0 0 1 1.133-.938c-.205-.27-.41-.561-.61-.876a12.998 12.998 0 0 1-1.657-3.809 10.393 10.393 0 0 1-.231-1.21 6.903 6.903 0 0 1-.036-.347Z"/>
  </g>
</svg>
