<svg xmlns="http://www.w3.org/2000/svg" width="24" height="24" fill="none">
  <g fill="#1C274C">
    <path d="M8.506 10.714c0-.92.755-1.666 1.686-1.666.932 0 1.687.746 1.687 1.666 0 .92-.755 1.667-1.687 1.667a1.677 1.677 0 0 1-1.686-1.667Z"/>
    <path fill-rule="evenodd" d="M2 10.714c0-2.693 0-4.04.847-4.877C3.694 5 5.057 5 7.783 5h4.82c2.725 0 4.088 0 4.935.837.847.837.847 2.184.847 4.877 0 2.694 0 4.041-.847 4.878-.847.837-2.21.837-4.936.837H7.783c-2.726 0-4.09 0-4.936-.837C2 14.755 2 13.408 2 10.714Zm5.06 0c0-1.71 1.402-3.095 3.132-3.095 1.73 0 3.133 1.386 3.133 3.095 0 1.71-1.402 3.096-3.133 3.096-1.73 0-3.132-1.386-3.132-3.096ZM4.168 12.62a.72.72 0 0 0 .723.715c.4 0 .723-.32.723-.715V8.81a.719.719 0 0 0-.723-.714.72.72 0 0 0-.723.715v3.81Zm11.326.715c-.4 0-.723-.32-.723-.715V8.81c0-.394.323-.714.723-.714.399 0 .722.32.722.715v3.81a.719.719 0 0 1-.722.714Z" clip-rule="evenodd"/>
    <path d="M4.065 16.225c.013.15.03.295.048.434.117.857.366 1.579.946 2.152.083.082.168.157.257.226.566.514 1.266.742 2.09.851.836.111 1.898.111 3.216.111h4.925c1.318 0 2.38 0 3.216-.111.868-.115 1.598-.362 2.179-.935.58-.573.83-1.295.946-2.152.112-.826.112-1.876.112-3.178v-.105c0-1.302 0-2.352-.112-3.178-.117-.857-.366-1.579-.946-2.152a2.892 2.892 0 0 0-.257-.226c-.566-.514-1.266-.742-2.09-.851a9.103 9.103 0 0 0-.41-.045c.2.834.2 1.984.2 3.648 0 2.694 0 4.04-.847 4.878-.846.836-2.21.836-4.936.836H7.783c-1.702 0-2.872 0-3.718-.203Z" opacity=".5"/>
  </g>
</svg>
