<svg xmlns="http://www.w3.org/2000/svg" width="24" height="24" fill="none">
  <g stroke="#1C274C" stroke-width="1.5">
    <path d="M3.34 17c2.76 4.783 8.876 6.42 13.66 3.66a9.956 9.956 0 0 0 4.196-4.731 9.985 9.985 0 0 0-.536-8.93 9.985 9.985 0 0 0-7.465-4.928A9.956 9.956 0 0 0 7 3.339C2.217 6.101.578 12.217 3.34 17Z"/>
    <path stroke-linecap="round" d="M16.95 20.573S16.01 13.982 14 10.5c-2.01-3.482-6.95-7.073-6.95-7.073"/>
    <path stroke-linecap="round" d="M21.864 12.58c-5.411-1.187-12.805 3.768-14.287 8.238m8.837-17.609c-1.488 4.42-8.74 9.303-14.125 8.242"/>
  </g>
</svg>
