<svg xmlns="http://www.w3.org/2000/svg" width="24" height="24" fill="none">
  <path fill="#1C274C" d="M3.5 4.135a1.635 1.635 0 0 1 3.153-.607l.144.358a4.09 4.09 0 0 0-1.38 1.774 4.179 4.179 0 0 0-.02 3.107.75.75 0 0 0 .995.413l5.96-2.566a.75.75 0 0 0 .402-.963 3.973 3.973 0 0 0-2.132-2.213 3.843 3.843 0 0 0-2.466-.192l-.11-.275A3.135 3.135 0 0 0 2 4.135V11h-.25a.75.75 0 0 0 0 1.5H2v.355c0 .375 0 .595.016.84.142 2.237 1.35 4.302 3.102 5.652a.745.745 0 0 0-.039.068l-1 2a.75.75 0 0 0 1.342.67l.968-1.935a7.358 7.358 0 0 0 2.58.765c.245.025.394.03.648.04h.007c.74.028 1.464.045 2.126.045.662 0 1.386-.017 2.126-.045h.007c.254-.01.404-.015.648-.04a7.358 7.358 0 0 0 2.58-.765l.968 1.936a.75.75 0 0 0 1.342-.671l-1-2a.796.796 0 0 0-.038-.068c1.751-1.35 2.96-3.416 3.102-5.652.015-.245.015-.465.015-.84v-.038c0-.06 0-.123-.004-.18a1.752 1.752 0 0 0-.014-.137h.268a.75.75 0 0 0 0-1.5H3.5V4.135Z"/>
</svg>
