<svg xmlns="http://www.w3.org/2000/svg" width="24" height="24" fill="none">
  <path fill="#1C274C" fill-rule="evenodd" d="M5.385 2.75c-.903 0-1.635.732-1.635 1.635v6.865H22a.75.75 0 0 1 0 1.5h-.268c.007.045.011.09.014.136.004.058.004.12.004.18v.039c0 .375 0 .595-.016.84-.142 2.236-1.35 4.302-3.101 5.652a.766.766 0 0 1 .038.068l1 2a.75.75 0 1 1-1.342.67l-.968-1.935a7.357 7.357 0 0 1-3.228.805h-.007c-.74.028-1.464.045-2.126.045-.662 0-1.386-.017-2.126-.045h-.007a7.357 7.357 0 0 1-3.228-.805l-.968 1.935a.75.75 0 1 1-1.342-.67l1-2a.758.758 0 0 1 .038-.068c-1.751-1.35-2.96-3.416-3.101-5.652a12.933 12.933 0 0 1-.016-.84v-.355H2a.75.75 0 0 1 0-1.5h.25V4.385a3.135 3.135 0 0 1 6.046-1.164l.11.275a3.843 3.843 0 0 1 2.466.192 3.973 3.973 0 0 1 2.132 2.213.75.75 0 0 1-.401.963L6.643 9.43a.75.75 0 0 1-.995-.413 4.178 4.178 0 0 1 .02-3.107 4.09 4.09 0 0 1 1.379-1.774l-.144-.358A1.635 1.635 0 0 0 5.385 2.75Zm-1.302 10h-.1a.249.249 0 0 0-.233.25v.083c0 .402 0 .574.013.767.185 2.922 2.695 5.528 5.607 5.822.195.02.303.024.56.034.728.027 1.433.044 2.07.044.637 0 1.342-.017 2.07-.044.257-.01.365-.014.56-.034 2.912-.294 5.422-2.9 5.607-5.822.013-.193.013-.365.013-.767v-.099c0-.002 0-.002 0 0a.25.25 0 0 0-.234-.233c.001 0 .002 0 0 0H20l-.082-.001H4.083Zm6.2-7.682a2.361 2.361 0 0 0-1.976.053 2.565 2.565 0 0 0-1.25 1.354 2.688 2.688 0 0 0-.19 1.226l4.38-1.886a2.426 2.426 0 0 0-.965-.747Z" clip-rule="evenodd"/>
</svg>
