<svg xmlns="http://www.w3.org/2000/svg" width="24" height="24" fill="none">
  <g fill="#1C274C">
    <path d="M7.656 8.636a.75.75 0 0 0-1.317.719l.005.01c.007.015.02.043.038.087.035.087.087.235.142.447.108.424.226 1.111.226 2.101s-.118 1.677-.226 2.101a3.667 3.667 0 0 1-.18.534l-.005.01a.75.75 0 0 0 1.317.72L7 15c.656.364.655.365.656.364v-.001l.001-.002.002-.003.004-.007.01-.018a2.972 2.972 0 0 0 .102-.228c.058-.147.13-.356.202-.631.14-.551.273-1.364.273-2.474s-.132-1.923-.274-2.474a5.152 5.152 0 0 0-.202-.631 2.997 2.997 0 0 0-.102-.228l-.01-.018-.003-.007-.002-.004c0-.001-.001-.002-.657.362l.656-.364Zm2.48-.292a.75.75 0 0 1 1.02.292L10.5 9c.656-.364.655-.365.656-.364v.001l.001.001.002.004.004.007.01.018.026.053a5.17 5.17 0 0 1 .278.806c.14.551.273 1.364.273 2.474s-.132 1.923-.274 2.474c-.07.275-.143.484-.202.631a2.947 2.947 0 0 1-.102.228l-.01.018-.003.007-.002.003v.002s-.001.001-.657-.363l.656.364a.75.75 0 0 1-1.317-.719l.005-.01a1.85 1.85 0 0 0 .038-.087 3.75 3.75 0 0 0 .142-.447c.108-.424.226-1.111.226-2.101s-.118-1.677-.226-2.101a3.669 3.669 0 0 0-.18-.534l-.005-.01a.75.75 0 0 1 .297-1.01Z"/>
    <path fill-rule="evenodd" d="M11.556 3.25H9.944c-1.838 0-3.294 0-4.433.153-1.172.158-2.121.49-2.87 1.238-.748.749-1.08 1.698-1.238 2.87-.153 1.14-.153 2.595-.153 4.433v.112c0 1.838 0 3.294.153 4.433.158 1.172.49 2.121 1.238 2.87.749.748 1.698 1.08 2.87 1.238 1.14.153 2.595.153 4.433.153h1.612c1.838 0 3.294 0 4.433-.153 1.172-.158 2.121-.49 2.87-1.238.748-.749 1.08-1.698 1.238-2.87.153-1.14.153-2.595.153-4.433v-.112c0-1.838 0-3.294-.153-4.433-.158-1.172-.49-2.121-1.238-2.87-.749-.748-1.698-1.08-2.87-1.238-1.14-.153-2.595-.153-4.433-.153ZM3.702 5.702c.423-.423 1.003-.677 2.009-.812 1.028-.138 2.382-.14 4.289-.14h1.5c1.907 0 3.261.002 4.29.14 1.005.135 1.585.389 2.008.812.423.423.677 1.003.812 2.009.138 1.028.14 2.382.14 4.289 0 1.907-.002 3.261-.14 4.29-.135 1.005-.389 1.585-.812 2.008-.423.423-1.003.677-2.009.812-1.027.138-2.382.14-4.289.14H10c-1.907 0-3.261-.002-4.29-.14-1.005-.135-1.585-.389-2.008-.812-.423-.423-.677-1.003-.812-2.009-.138-1.028-.14-2.382-.14-4.289 0-1.907.002-3.261.14-4.29.135-1.005.389-1.585.812-2.008Z" clip-rule="evenodd"/>
    <path d="M21.25 14a.75.75 0 0 0 1.5 0v-4a.75.75 0 0 0-1.5 0v4Z"/>
  </g>
</svg>
