<svg xmlns="http://www.w3.org/2000/svg" width="24" height="24" fill="none">
  <g fill="#1C274C">
    <path d="M12.076 9.48a.75.75 0 0 0-1.152-.96l-2.5 3A.75.75 0 0 0 9 12.75h1.899l-1.475 1.77a.75.75 0 1 0 1.152.96l2.5-3a.75.75 0 0 0-.576-1.23h-1.899l1.475-1.77Z"/>
    <path fill-rule="evenodd" d="M9.944 3.25h1.612c1.838 0 3.294 0 4.433.153 1.172.158 2.121.49 2.87 1.238.748.749 1.08 1.698 1.238 2.87.069.513.107 1.091.128 1.74.362 0 .695.005.972.042.356.048.731.16 1.04.47.31.309.422.684.47 1.04.043.323.043.72.043 1.152v.09c0 .433 0 .83-.043 1.152-.048.356-.16.731-.47 1.04-.309.31-.684.422-1.04.47-.277.037-.61.042-.972.043-.021.648-.06 1.226-.128 1.739-.158 1.172-.49 2.121-1.238 2.87-.749.748-1.698 1.08-2.87 1.238-1.14.153-2.595.153-4.433.153H9.944c-1.838 0-3.294 0-4.433-.153-1.172-.158-2.121-.49-2.87-1.238-.748-.749-1.08-1.698-1.238-2.87-.153-1.14-.153-2.595-.153-4.433v-.112c0-1.838 0-3.294.153-4.433.158-1.172.49-2.121 1.238-2.87.749-.748 1.698-1.08 2.87-1.238 1.14-.153 2.595-.153 4.433-.153ZM5.71 4.89c-1.006.135-1.586.389-2.01.812-.422.423-.676 1.003-.811 2.009-.138 1.028-.14 2.382-.14 4.289 0 1.907.002 3.261.14 4.29.135 1.005.389 1.585.812 2.008.423.423 1.003.677 2.009.812 1.028.138 2.382.14 4.289.14h1.5c1.907 0 3.261-.002 4.29-.14 1.005-.135 1.585-.389 2.008-.812.423-.423.677-1.003.812-2.009.138-1.028.14-2.382.14-4.289 0-1.907-.002-3.261-.14-4.29-.135-1.005-.389-1.585-.812-2.008-.423-.423-1.003-.677-2.009-.812-1.027-.138-2.382-.14-4.289-.14H10c-1.907 0-3.261.002-4.29.14Zm15.039 5.87v2.48c.095-.004.176-.01.247-.02a.702.702 0 0 0 .177-.042l.003-.001.001-.003a.702.702 0 0 0 .042-.177c.028-.21.03-.504.03-.997s-.002-.787-.03-.997a.702.702 0 0 0-.042-.177l-.001-.003-.003-.001a.702.702 0 0 0-.177-.042 2.865 2.865 0 0 0-.247-.02Z" clip-rule="evenodd"/>
  </g>
</svg>
