<svg xmlns="http://www.w3.org/2000/svg" width="24" height="24" fill="none">
  <g fill="#1C274C">
    <path d="M2 9.75c0-.442 0-1.358.002-1.75h9.237v11.75H10c-1.806 0-3.18 0-4.25-.129v2.129a.75.75 0 0 1-1.5 0v-2.475a3.1 3.1 0 0 1-1.078-.697C2 17.407 2 15.521 2 11.75v-2ZM22 8c.002.392 0 1.308 0 1.75v2c0 3.771 0 5.657-1.172 6.828a3.1 3.1 0 0 1-1.078.697v2.475a.75.75 0 0 1-1.5 0v-2.129c-1.07.129-2.705.129-4.511.129h-1V8H22Z" opacity=".6"/>
    <path d="M15.75 11.75a.75.75 0 0 0-1.5 0v3a.75.75 0 0 0 1.5 0v-3Zm-6 0a.75.75 0 0 0-1.5 0v3a.75.75 0 0 0 1.5 0v-3Z"/>
    <path d="M3.171 2.922C2.328 3.765 2.091 4.979 2.025 7v1h9.225v11.749h1.5V8h9.224V7c-.066-2.021-.302-3.235-1.146-4.078C19.657 1.75 17.771 1.75 14 1.75h-4c-3.772 0-5.657 0-6.829 1.172Z"/>
  </g>
</svg>
