<svg xmlns="http://www.w3.org/2000/svg" width="24" height="24" fill="none">
  <g stroke="#1C274C" stroke-width="1.5">
    <path stroke-linecap="round" d="M19 22v-1.5M5 22v-1.5" opacity=".5"/>
    <path d="M2 10c0-3.771 0-5.657 1.172-6.828C4.343 2 6.229 2 10 2h4c3.771 0 5.657 0 6.828 1.172C22 4.343 22 6.229 22 10v2c0 3.771 0 5.657-1.172 6.828C19.657 20 17.771 20 14 20h-4c-3.771 0-5.657 0-6.828-1.172C2 17.657 2 15.771 2 12v-2Z"/>
    <path stroke-linecap="round" d="M9 15.5h6m-6-9h6"/>
    <path stroke-linecap="round" d="M2 11h20" opacity=".4"/>
  </g>
</svg>
