<svg xmlns="http://www.w3.org/2000/svg" width="24" height="24" fill="none">
  <g fill="#1C274C">
    <path d="M16.384 15.144a.75.75 0 1 0-.768-1.288l-4 2.384a.75.75 0 0 0 .768 1.288l4-2.384Z"/>
    <path fill-rule="evenodd" d="M10.84 3.54c.37-.173.741-.29 1.16-.29.419 0 .79.117 1.16.29.35.163.746.399 1.213.676l3.02 1.795c.467.278.864.514 1.175.743.15.111.29.227.417.355l2.6-1.733a.75.75 0 1 1 .831 1.248l-2.748 1.832c.02.11.034.22.045.335.037.389.037.86.037 1.416v3.586c0 .557 0 1.027-.037 1.416-.04.413-.125.793-.33 1.158-.204.366-.484.634-.815.879-.31.229-.708.465-1.175.743l-3.02 1.795c-.466.277-.864.513-1.212.676-.371.173-.742.29-1.16.29-.42 0-.79-.117-1.162-.29-.348-.163-.745-.399-1.212-.676l-3.02-1.795c-.467-.278-.864-.514-1.175-.743a3.594 3.594 0 0 1-.417-.355l-2.599 1.733a.75.75 0 1 1-.832-1.248l2.748-1.832c-.02-.11-.034-.22-.045-.335-.037-.389-.037-.86-.037-1.416v-3.586c0-.557 0-1.027.037-1.416.011-.114.026-.226.045-.335L1.584 6.624a.75.75 0 0 1 .832-1.248l2.6 1.733c.126-.128.266-.244.416-.355.31-.229.708-.465 1.175-.743l3.02-1.795c.467-.277.864-.513 1.212-.676Zm.633 1.36c-.272.127-.605.323-1.11.624L7.404 7.283c-.506.3-.838.499-1.081.678-.23.17-.332.289-.398.406-.066.118-.116.273-.144.567-.03.31-.03.707-.03 1.307v3.518c0 .6 0 .998.03 1.307.028.294.078.449.144.567.066.117.168.236.398.406.243.18.575.378 1.081.678l2.959 1.759c.505.3.838.497 1.11.625.258.12.405.149.527.149.123 0 .27-.03.527-.15.272-.127.605-.323 1.11-.624l2.96-1.759c.505-.3.837-.499 1.08-.678.23-.17.332-.289.398-.406.067-.118.117-.273.145-.567.03-.31.03-.707.03-1.307V10.24c0-.6 0-.998-.03-1.307-.028-.294-.078-.449-.145-.567-.066-.117-.168-.236-.398-.406-.243-.18-.575-.378-1.08-.678l-2.96-1.759c-.505-.3-.838-.497-1.11-.624-.258-.12-.404-.15-.527-.15-.122 0-.27.03-.527.15Z" clip-rule="evenodd"/>
  </g>
</svg>
