<svg xmlns="http://www.w3.org/2000/svg" width="24" height="24" fill="none">
  <g fill="#1C274C">
    <path d="M17 4a2 2 0 1 1-4 0 2 2 0 0 1 4 0Z"/>
    <path fill-rule="evenodd" d="m12.161 7.115.613.609c.909.903 1.225 1.2 1.605 1.356.38.157.814.17 2.095.17H18.5a.75.75 0 0 1 0 1.5h-2.168c-1.083 0-1.836 0-2.525-.283-.689-.284-1.222-.815-1.99-1.58l-.1-.1-.578-.573c-.409-.406-.66-.653-.86-.803a.765.765 0 0 0-.185-.11.766.766 0 0 0-.162.14c-.17.186-.373.473-.701.947l-1.227 1.767c-.334.482-.537.777-.652 1.007a.773.773 0 0 0-.076.204.774.774 0 0 0 .172.133c.218.135.546.28 1.083.514l1.516.662c.648.282 1.194.52 1.614.767.447.262.825.572 1.078 1.035.253.464.311.949.29 1.466-.019.487-.113 1.076-.224 1.774l-.064.401a.75.75 0 1 1-1.482-.236l.058-.359c.12-.752.198-1.252.214-1.64.014-.367-.033-.549-.108-.686-.075-.136-.202-.275-.52-.46-.334-.197-.797-.4-1.496-.705l-1.476-.644-.046-.02c-.476-.208-.905-.395-1.226-.593-.348-.215-.69-.515-.827-1-.138-.486-.004-.92.18-1.286.168-.336.435-.72.731-1.148l.029-.041 1.227-1.768.028-.04c.29-.42.553-.798.806-1.07.275-.296.63-.57 1.125-.615.495-.045.893.16 1.217.402.297.222.624.546.986.906ZM6 15.75a2.25 2.25 0 1 0 0 4.5 2.25 2.25 0 0 0 0-4.5ZM2.25 18a3.75 3.75 0 1 1 7.5 0 3.75 3.75 0 0 1-7.5 0ZM18 15.75a2.25 2.25 0 1 0 0 4.5 2.25 2.25 0 0 0 0-4.5ZM14.25 18a3.75 3.75 0 1 1 7.5 0 3.75 3.75 0 0 1-7.5 0Z" clip-rule="evenodd"/>
  </g>
</svg>
