<svg xmlns="http://www.w3.org/2000/svg" width="24" height="24" fill="none">
  <g fill="#1C274C">
    <path d="M16 4a2 2 0 1 1-4 0 2 2 0 0 1 4 0Z"/>
    <path fill-rule="evenodd" d="M10.919 8.506a1.888 1.888 0 1 0-1.93 3.207l3.09 1.349a2.64 2.64 0 0 1 1.37 3.46l-.76 1.773a.75.75 0 0 1-1.378-.59l.76-1.775a1.14 1.14 0 0 0-.592-1.494l-3.09-1.348a3.388 3.388 0 1 1 3.464-5.756l2.159 1.719a.915.915 0 0 0 .57.199H18.5a.75.75 0 0 1 0 1.5h-3.918a2.417 2.417 0 0 1-1.505-.526L10.92 8.506ZM6 15.75a2.25 2.25 0 1 0 0 4.5 2.25 2.25 0 0 0 0-4.5ZM2.25 18a3.75 3.75 0 1 1 7.5 0 3.75 3.75 0 0 1-7.5 0ZM18 15.75a2.25 2.25 0 1 0 0 4.5 2.25 2.25 0 0 0 0-4.5ZM14.25 18a3.75 3.75 0 1 1 7.5 0 3.75 3.75 0 0 1-7.5 0Z" clip-rule="evenodd"/>
  </g>
</svg>
