<svg xmlns="http://www.w3.org/2000/svg" width="24" height="24" fill="none">
  <path fill="#1C274C" fill-rule="evenodd" d="M6.294 1.25h11.412c.272 0 .459 0 .624.015 1.838.169 3.251 1.688 3.406 3.546.014.168.014.36.014.648v14.8c0 .773-.482 1.356-1.094 1.57a1.577 1.577 0 0 1-1.824-.588.123.123 0 0 0-.043-.04.085.085 0 0 0-.078 0 .123.123 0 0 0-.043.04l-.433.605a2.117 2.117 0 0 1-3.47 0 .618.618 0 0 0-1.03 0 2.117 2.117 0 0 1-3.47 0 .618.618 0 0 0-1.03 0 2.117 2.117 0 0 1-3.47 0l-.433-.605a.123.123 0 0 0-.043-.04.085.085 0 0 0-.078 0 .123.123 0 0 0-.043.04 1.577 1.577 0 0 1-1.824.588 1.638 1.638 0 0 1-1.094-1.57V5.46c0-.288 0-.48.014-.648.155-1.858 1.568-3.377 3.406-3.546.165-.015.352-.015.624-.015Zm.04 1.5c-.327 0-.44 0-.527.009-1.062.097-1.95.991-2.048 2.177a7.875 7.875 0 0 0-.009.561V20.26c0 .06.017.092.029.109.014.02.036.036.06.044a.089.089 0 0 0 .053.004c.005-.001.026-.008.056-.049a1.591 1.591 0 0 1 2.604 0l.433.606a.618.618 0 0 0 1.03 0 2.117 2.117 0 0 1 3.47 0 .618.618 0 0 0 1.03 0 2.117 2.117 0 0 1 3.47 0 .618.618 0 0 0 1.03 0l.433-.606a1.591 1.591 0 0 1 2.604 0c.03.042.05.048.056.049.01.003.028.005.053-.004a.128.128 0 0 0 .06-.044.176.176 0 0 0 .029-.11V5.498c0-.34 0-.464-.009-.561-.099-1.186-.986-2.08-2.048-2.177a6.786 6.786 0 0 0-.526-.009H6.333ZM9.47 7.47a.75.75 0 0 1 1.06 0L12 8.94l1.47-1.47a.75.75 0 0 1 1.06 1.06L13.06 10l1.47 1.47a.75.75 0 1 1-1.06 1.06L12 11.06l-1.47 1.47a.75.75 0 0 1-1.06-1.06L10.94 10 9.47 8.53a.75.75 0 0 1 0-1.06ZM6.75 15.5a.75.75 0 0 1 .75-.75h9a.75.75 0 0 1 0 1.5h-9a.75.75 0 0 1-.75-.75Z" clip-rule="evenodd"/>
</svg>
