<svg xmlns="http://www.w3.org/2000/svg" width="24" height="24" fill="none">
  <path fill="#1C274C" d="M6.165 3.384a.75.75 0 0 0 1.218.876c.178-.247.384-.491.623-.73a.75.75 0 0 0-1.06-1.06 7.36 7.36 0 0 0-.78.914Zm-.337 5.26a.75.75 0 0 1-.834-.656 6.631 6.631 0 0 1 .144-2.411.75.75 0 0 1 1.455.366 5.132 5.132 0 0 0-.11 1.868.75.75 0 0 1-.655.833Zm1.007 3.63a.75.75 0 0 0 1.18-.925 7.906 7.906 0 0 1-1.012-1.683.75.75 0 1 0-1.373.605c.317.721.73 1.397 1.205 2.003Zm9.277-.676a.75.75 0 0 1 1.053.128 9.406 9.406 0 0 1 1.205 2.003.75.75 0 1 1-1.373.605 7.888 7.888 0 0 0-1.012-1.683.75.75 0 0 1 .127-1.053Zm2.894 4.414a.75.75 0 0 0-1.49.177 5.13 5.13 0 0 1-.109 1.868.75.75 0 1 0 1.455.367 6.64 6.64 0 0 0 .144-2.412Zm-1.342 3.557a.75.75 0 0 1 .17 1.047c-.226.315-.485.62-.78.914a.75.75 0 1 1-1.06-1.06 5.92 5.92 0 0 0 .623-.73.75.75 0 0 1 1.047-.171ZM11.598 7.888a.75.75 0 0 1 .128-1.053 9.406 9.406 0 0 1 2.003-1.205.75.75 0 0 1 .605 1.373c-.601.264-1.17.61-1.683 1.012a.75.75 0 0 1-1.053-.127Zm4.414-2.894a.75.75 0 0 0 .177 1.49 5.133 5.133 0 0 1 1.868.109.75.75 0 0 0 .367-1.455 6.632 6.632 0 0 0-2.412-.144Zm3.557 1.342a.75.75 0 0 1 1.047-.17c.315.226.62.485.914.78a.75.75 0 1 1-1.06 1.06 5.919 5.919 0 0 0-.73-.623.75.75 0 0 1-.171-1.047Zm-7.167 9.776a.75.75 0 0 1-.128 1.053 9.409 9.409 0 0 1-2.003 1.205.75.75 0 1 1-.605-1.373 7.888 7.888 0 0 0 1.683-1.012.75.75 0 0 1 1.053.127Zm-4.414 2.894a.75.75 0 0 0-.177-1.49 5.132 5.132 0 0 1-1.868-.109.75.75 0 1 0-.366 1.455c.806.203 1.62.238 2.411.144Zm-3.557-1.342a.75.75 0 0 1-1.047.17 7.423 7.423 0 0 1-.914-.78.75.75 0 1 1 1.06-1.06c.239.239.483.445.73.623a.75.75 0 0 1 .171 1.047Zm6.224-2.634a.749.749 0 0 0 .642-.113 3.01 3.01 0 0 0 1.283.027.75.75 0 0 0 1.342.553c.507-.671.897-1.404 1.108-2.152a.749.749 0 0 0-.113-.642 3.01 3.01 0 0 0 .027-1.283.75.75 0 0 0 .553-1.342c-.671-.507-1.404-.897-2.152-1.108a.749.749 0 0 0-.642.113 3.008 3.008 0 0 0-1.283-.027.75.75 0 0 0-1.342-.553c-.507.671-.897 1.404-1.108 2.152a.749.749 0 0 0 .113.642 3.008 3.008 0 0 0-.027 1.283.75.75 0 0 0-.553 1.342c.671.507 1.404.897 2.152 1.108Z"/>
</svg>
