<svg xmlns="http://www.w3.org/2000/svg" width="24" height="24" fill="none">
  <g fill="#1C274C">
    <path d="M12.735 14.654a.75.75 0 0 1-.23-1.44c.224-.094.441-.237.645-.44a.75.75 0 0 1 .996-.058.751.751 0 0 1 .705.954c-.21.746-.6 1.477-1.105 2.147a.75.75 0 0 1-1.197-.903c.065-.087.127-.173.186-.26Zm-2.248.041a.75.75 0 0 0 .953-.707.75.75 0 0 0-.058-.994 2.017 2.017 0 0 1-.442-.646.75.75 0 0 0-1.438.23 6.448 6.448 0 0 1-.26-.186.75.75 0 0 0-.903 1.198c.67.505 1.4.894 2.148 1.105Zm-3.811-2.749a.75.75 0 0 0 1.18-.925 7.882 7.882 0 0 1-1.01-1.677.75.75 0 1 0-1.372.604c.317.72.728 1.394 1.202 1.998ZM4.84 7.672a.75.75 0 0 0 1.49-.178 5.115 5.115 0 0 1 .108-1.862.75.75 0 0 0-1.454-.366 6.615 6.615 0 0 0-.144 2.406ZM6.008 3.08a.75.75 0 1 0 1.218.875c.177-.246.383-.49.62-.727a.75.75 0 0 0-1.06-1.061 7.396 7.396 0 0 0-.778.912Zm5.755 6.006a6.492 6.492 0 0 0-.187.26.75.75 0 0 1 .23 1.439 2.018 2.018 0 0 0-.645.441.75.75 0 0 1-.995.058.752.752 0 0 1-.706-.954c.211-.746.6-1.477 1.105-2.147a.75.75 0 0 1 1.198.903Zm2.062.219a.75.75 0 0 0-.954.707.75.75 0 0 0 .059.994c.204.204.347.421.441.645a.75.75 0 0 0 1.439-.23c.086.06.173.122.26.187a.75.75 0 0 0 .902-1.198c-.67-.505-1.4-.894-2.147-1.105Zm3.81 2.749a.75.75 0 1 0-1.18.925c.4.511.746 1.079 1.01 1.677a.75.75 0 0 0 1.372-.604 9.379 9.379 0 0 0-1.202-1.998Zm1.836 4.274a.75.75 0 1 0-1.489.178 5.114 5.114 0 0 1-.109 1.862.75.75 0 0 0 1.455.366 6.612 6.612 0 0 0 .143-2.406Zm-1.168 4.592a.75.75 0 0 0-1.218-.875 5.9 5.9 0 0 1-.62.727.75.75 0 0 0 1.06 1.06c.294-.292.553-.597.779-.911ZM12.082 7.573a.75.75 0 0 1 .127-1.053 9.384 9.384 0 0 1 1.998-1.202.75.75 0 0 1 .604 1.373 7.881 7.881 0 0 0-1.677 1.01.75.75 0 0 1-1.053-.128Zm3.746-2.056a.75.75 0 0 1 .655-.833 6.615 6.615 0 0 1 2.406.143.75.75 0 1 1-.366 1.455 5.115 5.115 0 0 0-1.862-.109.75.75 0 0 1-.834-.656Zm4.202.506a.75.75 0 0 1 1.046-.171c.314.226.619.485.912.778a.75.75 0 1 1-1.06 1.06 5.888 5.888 0 0 0-.728-.62.75.75 0 0 1-.17-1.047ZM12.102 17.48a.75.75 0 0 0-.925-1.18A7.92 7.92 0 0 1 9.5 17.31a.75.75 0 1 0 .604 1.372 9.382 9.382 0 0 0 1.998-1.202Zm-4.274 1.836a.75.75 0 1 0-.178-1.49 5.119 5.119 0 0 1-1.862-.108.75.75 0 1 0-.366 1.454 6.612 6.612 0 0 0 2.406.144Zm-4.592-1.168a.75.75 0 1 0 .875-1.218 5.9 5.9 0 0 1-.727-.62.75.75 0 0 0-1.06 1.06c.292.293.597.552.912.778Z" opacity=".5"/>
    <path d="M8.928 12.453c.406.836 1.016 1.541 1.825 1.942-.793.183-1.71.22-2.648.087C5.315 14.087 2.75 12.284 2.75 9a.75.75 0 0 0-1.5 0c0 4.316 3.436 6.513 6.645 6.968 1.612.228 3.27.042 4.558-.584.868-.422 1.596-1.065 1.988-1.921.142.741.162 1.578.041 2.432-.395 2.79-2.198 5.355-5.482 5.355a.75.75 0 0 0 0 1.5c4.316 0 6.513-3.436 6.968-6.645.228-1.612.042-3.27-.584-4.558-.346-.712-.84-1.33-1.48-1.745a7.677 7.677 0 0 1 1.99.027c2.792.396 5.356 2.198 5.356 5.482a.75.75 0 0 0 1.5 0c0-4.315-3.436-6.512-6.645-6.967-1.612-.228-3.27-.043-4.558.584-.692.336-1.294.812-1.709 1.425a7.565 7.565 0 0 1-.009-2.248c.396-2.79 2.198-5.355 5.482-5.355a.75.75 0 0 0 0-1.5c-4.315 0-6.512 3.436-6.967 6.645-.228 1.612-.043 3.27.584 4.558Z"/>
  </g>
</svg>
