<svg xmlns="http://www.w3.org/2000/svg" width="24" height="24" fill="none">
  <g fill="#1C274C">
    <path d="M6.676 11.946a.75.75 0 0 0 1.18-.925 7.882 7.882 0 0 1-1.01-1.677.75.75 0 1 0-1.372.604c.316.72.728 1.394 1.202 1.998ZM4.84 7.672a.75.75 0 0 0 1.489-.178 5.115 5.115 0 0 1 .109-1.862.75.75 0 1 0-1.455-.366 6.615 6.615 0 0 0-.144 2.406ZM6.007 3.08a.75.75 0 0 0 1.218.875 5.84 5.84 0 0 1 .621-.727.75.75 0 0 0-1.06-1.061 7.396 7.396 0 0 0-.779.912Zm11.629 8.974a.75.75 0 0 0-1.18.925c.4.511.745 1.079 1.009 1.677a.75.75 0 1 0 1.373-.604 9.383 9.383 0 0 0-1.202-1.998Zm1.836 4.274a.75.75 0 0 0-1.49.178 5.114 5.114 0 0 1-.108 1.862.75.75 0 1 0 1.454.366 6.616 6.616 0 0 0 .144-2.406Zm-1.168 4.592a.75.75 0 0 0-1.218-.875 5.9 5.9 0 0 1-.62.727.75.75 0 0 0 1.06 1.061c.293-.293.552-.598.778-.912ZM12.082 7.573a.75.75 0 0 1 .127-1.053 9.384 9.384 0 0 1 1.998-1.202.75.75 0 0 1 .605 1.373 7.881 7.881 0 0 0-1.678 1.01.75.75 0 0 1-1.053-.128Zm3.746-2.056a.75.75 0 0 1 .656-.833 6.615 6.615 0 0 1 2.405.143.75.75 0 0 1-.366 1.455 5.115 5.115 0 0 0-1.862-.109.75.75 0 0 1-.833-.656Zm4.202.506a.75.75 0 0 1 1.046-.171c.314.226.619.485.912.778a.75.75 0 1 1-1.06 1.06 5.895 5.895 0 0 0-.728-.62.75.75 0 0 1-.17-1.047ZM12.102 17.48a.75.75 0 1 0-.925-1.18c-.51.4-1.078.746-1.677 1.01a.75.75 0 0 0 .604 1.372 9.379 9.379 0 0 0 1.998-1.202Zm-4.274 1.836a.75.75 0 0 0-.178-1.49 5.114 5.114 0 0 1-1.862-.108.75.75 0 0 0-.366 1.455 6.614 6.614 0 0 0 2.406.143Zm-4.592-1.168a.75.75 0 0 0 .875-1.218 5.892 5.892 0 0 1-.727-.62.75.75 0 1 0-1.06 1.06c.293.293.597.552.912.778Z"/>
    <path d="M13.746 15.817a.75.75 0 0 1-1.347-.407c-1.28.605-2.914.783-4.504.558C4.685 15.513 1.25 13.316 1.25 9a.75.75 0 0 1 1.5 0c0 3.284 2.564 5.087 5.355 5.482a7.72 7.72 0 0 0 1.872.04 6.978 6.978 0 0 1-1.638-.932.75.75 0 0 1 .492-1.348c-.548-1.255-.703-2.821-.487-4.347.455-3.21 2.652-6.645 6.968-6.645a.75.75 0 0 1 0 1.5c-3.285 0-5.087 2.564-5.483 5.355a7.872 7.872 0 0 0-.073 1.423c.212-.465.487-.918.81-1.345a.75.75 0 0 1 1.336.587c1.23-.499 2.735-.634 4.203-.426 3.21.455 6.645 2.652 6.645 6.968a.75.75 0 0 1-1.5 0c0-3.285-2.564-5.087-5.355-5.483a7.985 7.985 0 0 0-.959-.078c.357.186.704.408 1.037.659a.75.75 0 0 1-.492 1.348c.548 1.255.703 2.821.487 4.347-.455 3.21-2.652 6.645-6.968 6.645a.75.75 0 0 1 0-1.5c3.284 0 5.087-2.564 5.482-5.355a7.87 7.87 0 0 0 .073-1.423 7.192 7.192 0 0 1-.809 1.345Z"/>
  </g>
</svg>
