<svg xmlns="http://www.w3.org/2000/svg" width="24" height="24" fill="none">
  <path fill="#1C274C" fill-rule="evenodd" d="M8.006 2.47a.75.75 0 0 1 0 1.06 5.917 5.917 0 0 0-.623.73.75.75 0 0 1-1.218-.876 7.46 7.46 0 0 1 .78-.914.75.75 0 0 1 1.061 0Zm10.051 4.123a5.133 5.133 0 0 0-1.868-.11.75.75 0 1 1-.178-1.489 6.631 6.631 0 0 1 2.412.144.75.75 0 0 1-.366 1.455ZM6.05 5.033a.75.75 0 0 1 .544.91 5.132 5.132 0 0 0-.11 1.868.75.75 0 1 1-1.489.177 6.632 6.632 0 0 1 .144-2.411.75.75 0 0 1 .91-.545Zm8.669.981a.75.75 0 0 1-.384.989c-.601.264-1.17.61-1.683 1.013a.75.75 0 0 1-.925-1.18A9.406 9.406 0 0 1 13.73 5.63a.75.75 0 0 1 .989.384Zm4.85.322a.75.75 0 0 1 1.047-.17c.316.226.621.485.915.78a.75.75 0 1 1-1.06 1.06 5.919 5.919 0 0 0-.73-.623.75.75 0 0 1-.171-1.047ZM11.41 9.113a.75.75 0 0 0-1.332-.61c-.507.671-.897 1.404-1.108 2.153a.75.75 0 0 0 .326.84 2.76 2.76 0 0 0-.018.9.748.748 0 0 0-.165.194.75.75 0 0 0-.61 1.332c.671.507 1.404.897 2.153 1.108a.75.75 0 0 0 .84-.326 2.767 2.767 0 0 0 .9.018.748.748 0 0 0 .194.165.75.75 0 0 0 1.332.61c.507-.671.897-1.404 1.108-2.153a.75.75 0 0 0-.326-.841 2.767 2.767 0 0 0 .018-.898.748.748 0 0 0 .165-.195.75.75 0 0 0 .61-1.332c-.671-.507-1.404-.897-2.153-1.108a.75.75 0 0 0-.841.326 2.76 2.76 0 0 0-.898-.018.748.748 0 0 0-.195-.165Zm1.786 1.653a.75.75 0 0 1-.718.079 1.244 1.244 0 0 0-.956 0 .75.75 0 0 1-.715-.077 1.948 1.948 0 0 0-.04.036.75.75 0 0 1 .078.718 1.244 1.244 0 0 0 0 .956.75.75 0 0 1-.077.715l.036.04a.75.75 0 0 1 .718-.078 1.244 1.244 0 0 0 .956 0 .75.75 0 0 1 .715.077l.04-.036a.75.75 0 0 1-.078-.718 1.244 1.244 0 0 0 0-.956.75.75 0 0 1 .077-.715 2.237 2.237 0 0 0-.036-.04ZM6.014 9.282a.75.75 0 0 1 .989.384c.264.601.61 1.17 1.013 1.683a.75.75 0 1 1-1.18.925 9.409 9.409 0 0 1-1.206-2.003.75.75 0 0 1 .384-.989Zm10.098 2.316a.75.75 0 0 1 1.053.128 9.406 9.406 0 0 1 1.205 2.003.75.75 0 1 1-1.373.605 7.851 7.851 0 0 0-1.013-1.683.75.75 0 0 1 .128-1.053Zm2.06 3.757a.75.75 0 0 1 .834.656 6.632 6.632 0 0 1-.144 2.412.75.75 0 0 1-1.455-.366 5.133 5.133 0 0 0 .11-1.868.75.75 0 0 1 .655-.834Zm-15.702.639a.75.75 0 0 1 1.06 0c.239.239.483.445.73.623a.75.75 0 0 1-.876 1.218 7.406 7.406 0 0 1-.914-.78.75.75 0 0 1 0-1.061Zm9.932.118a.75.75 0 0 1-.128 1.053 9.409 9.409 0 0 1-2.003 1.205.75.75 0 1 1-.605-1.373 7.851 7.851 0 0 0 1.683-1.013.75.75 0 0 1 1.053.128Zm-7.37 1.84a.75.75 0 0 1 .91-.545 5.132 5.132 0 0 0 1.869.11.75.75 0 1 1 .177 1.489 6.632 6.632 0 0 1-2.411-.144.75.75 0 0 1-.545-.91Zm12.631 1.617a.75.75 0 0 1 .172 1.047 7.46 7.46 0 0 1-.78.914.75.75 0 1 1-1.061-1.06c.239-.24.445-.483.623-.73a.75.75 0 0 1 1.046-.171Z" clip-rule="evenodd"/>
</svg>
