<svg xmlns="http://www.w3.org/2000/svg" width="24" height="24" fill="none">
  <g fill="#1C274C">
    <path d="M6.165 3.384a.75.75 0 0 0 1.218.876c.178-.247.384-.491.623-.73a.75.75 0 1 0-1.06-1.06 7.36 7.36 0 0 0-.78.914Zm-.337 5.26a.75.75 0 0 1-.834-.656 6.631 6.631 0 0 1 .144-2.411.75.75 0 0 1 1.455.366 5.132 5.132 0 0 0-.11 1.868.75.75 0 0 1-.655.833Zm1.007 3.63a.75.75 0 0 0 1.18-.925 7.906 7.906 0 0 1-1.012-1.683.75.75 0 1 0-1.373.605c.317.721.73 1.397 1.205 2.003Zm4.462 2.643a.749.749 0 0 1-.642.113c-.748-.211-1.481-.601-2.152-1.108a.75.75 0 0 1 .553-1.342 3.015 3.015 0 0 1 .348-2.084.75.75 0 0 1 .208-.664 3.524 3.524 0 0 1 1.126-.764.748.748 0 0 1 .597.006 3.01 3.01 0 0 1 1.368.009.749.749 0 0 1 .642-.113c.748.211 1.481.601 2.152 1.108a.75.75 0 0 1-.553 1.342 3.016 3.016 0 0 1-.348 2.084.75.75 0 0 1-.208.664 3.525 3.525 0 0 1-1.126.764.748.748 0 0 1-.597-.006 3.01 3.01 0 0 1-1.368-.009Zm4.815-3.319a.75.75 0 0 1 1.053.128 9.41 9.41 0 0 1 1.205 2.003.75.75 0 0 1-1.373.605 7.888 7.888 0 0 0-1.012-1.683.75.75 0 0 1 .127-1.053Zm2.894 4.414a.75.75 0 1 0-1.49.177 5.133 5.133 0 0 1-.109 1.868.75.75 0 1 0 1.455.367 6.64 6.64 0 0 0 .144-2.412Zm-1.342 3.557a.75.75 0 0 1 .17 1.047 7.4 7.4 0 0 1-.78.914.75.75 0 1 1-1.06-1.06c.239-.24.445-.483.623-.73a.75.75 0 0 1 1.047-.171Z"/>
    <path d="M9.832 14.388a.75.75 0 1 0 1.061-1.06 2.025 2.025 0 0 1-.443-.648.75.75 0 1 0-1.382.582c.173.41.427.789.764 1.126Zm-.862-3.733a.75.75 0 0 0 1.444.408c.15-.536.444-1.104.861-1.657a.75.75 0 0 0-1.197-.903c-.507.671-.897 1.404-1.108 2.152Zm2.756-3.82a.75.75 0 0 0 .925 1.18 7.906 7.906 0 0 1 1.683-1.012.75.75 0 0 0-.605-1.373 9.406 9.406 0 0 0-2.003 1.205Zm4.286-1.841a.75.75 0 0 0 .177 1.49 5.133 5.133 0 0 1 1.868.109.75.75 0 0 0 .367-1.455 6.632 6.632 0 0 0-2.412-.144Zm4.604 1.171a.75.75 0 1 0-.876 1.218c.247.178.49.384.73.623a.75.75 0 0 0 1.06-1.06 7.41 7.41 0 0 0-.914-.78Zm-6.448 3.447a.75.75 0 1 0-1.061 1.06c.205.205.348.423.443.648a.75.75 0 1 0 1.382-.582 3.524 3.524 0 0 0-.764-1.126Zm.862 3.733a.75.75 0 0 0-1.444-.408c-.151.536-.444 1.104-.861 1.657a.75.75 0 0 0 1.197.904c.507-.672.897-1.405 1.108-2.153Zm-2.756 3.82a.75.75 0 0 0-.925-1.18 7.906 7.906 0 0 1-1.683 1.012.75.75 0 1 0 .605 1.373 9.413 9.413 0 0 0 2.003-1.205Zm-4.286 1.841a.75.75 0 1 0-.177-1.49 5.132 5.132 0 0 1-1.868-.109.75.75 0 1 0-.366 1.455c.806.203 1.62.238 2.411.144Zm-4.604-1.171a.75.75 0 1 0 .876-1.218 5.91 5.91 0 0 1-.73-.623.75.75 0 0 0-1.06 1.06c.294.295.6.554.914.78Z" opacity=".5"/>
  </g>
</svg>
