<svg xmlns="http://www.w3.org/2000/svg" width="24" height="24" fill="none">
  <path fill="#1C274C" fill-rule="evenodd" d="M11.943 1.25h.114c2.309 0 4.118 0 5.53.19 1.444.194 2.584.6 3.479 1.494.895.895 1.3 2.035 1.494 3.48.19 1.411.19 3.22.19 5.529v.114c0 2.309 0 4.118-.19 5.53-.194 1.444-.6 2.584-1.494 3.479-.895.895-2.035 1.3-3.48 1.494-1.411.19-3.22.19-5.529.19h-.114c-2.309 0-4.118 0-5.53-.19-1.444-.194-2.584-.6-3.479-1.494-.895-.895-1.3-2.035-1.494-3.48-.19-1.411-.19-3.22-.19-5.529v-.114c0-2.309 0-4.118.19-5.53.194-1.444.6-2.584 1.494-3.479.895-.895 2.035-1.3 3.48-1.494 1.411-.19 3.22-.19 5.529-.19Zm-5.33 1.676c-1.278.172-2.049.5-2.618 1.069-.57.57-.897 1.34-1.069 2.619-.174 1.3-.176 3.008-.176 5.386s.002 4.086.176 5.386c.172 1.279.5 2.05 1.069 2.62.57.569 1.34.896 2.619 1.068 1.3.174 3.008.176 5.386.176s4.086-.002 5.386-.176c1.279-.172 2.05-.5 2.62-1.069.569-.57.896-1.34 1.068-2.619.174-1.3.176-3.008.176-5.386s-.002-4.086-.176-5.386c-.172-1.279-.5-2.05-1.069-2.62-.57-.569-1.34-.896-2.619-1.068-1.3-.174-3.008-.176-5.386-.176s-4.086.002-5.386.176ZM13.01 6.57l.04.03 1.333 1 .034.025c.215.161.437.328.598.49.183.184.402.473.402.885 0 .412-.219.701-.402.885a5.69 5.69 0 0 1-.598.49l-.034.025L12.25 12l2.133 1.6.034.025c.215.161.437.328.598.49.183.184.402.473.402.885 0 .412-.219.701-.402.885a5.69 5.69 0 0 1-.598.49l-.034.025-1.333 1-.04.03c-.314.236-.614.46-.872.6-.264.144-.716.329-1.197.088-.481-.24-.605-.712-.649-1.01-.042-.29-.042-.665-.042-1.058v-2.449l-1.77 1.475a.75.75 0 0 1-.96-1.152L9.828 12 7.52 10.076a.75.75 0 0 1 .96-1.152l1.77 1.475V7.95c0-.393 0-.767.043-1.058.043-.297.167-.77.648-1.01s.933-.056 1.197.087c.258.14.558.365.872.6Zm-1.26 6.93V16c0 .2 0 .361.003.494.108-.078.237-.174.397-.294l1.333-1c.105-.078.19-.143.264-.2-.073-.057-.16-.122-.264-.2l-1.733-1.3Zm0-3V8c0-.2 0-.361.003-.494.108.077.237.174.397.294l1.333 1c.105.078.19.143.264.2-.073.057-.16.122-.264.2l-1.733 1.3Z" clip-rule="evenodd"/>
</svg>
