<svg xmlns="http://www.w3.org/2000/svg" width="24" height="24" fill="none">
  <g fill="#1C274C">
    <path d="M11.75 16v-2.5l1.733 1.3.264.2c-.073.057-.16.122-.264.2l-1.333 1c-.16.12-.29.217-.397.295A29.067 29.067 0 0 1 11.75 16Zm.04.96v-.003a.045.045 0 0 0 0 .003ZM11.75 8v2.5l1.733-1.3c.105-.078.19-.143.264-.2-.073-.057-.16-.122-.264-.2l-1.333-1c-.16-.12-.29-.216-.397-.294-.003.133-.003.295-.003.494Z"/>
    <path fill-rule="evenodd" d="M3.464 3.464C2 4.93 2 7.286 2 12c0 4.714 0 7.071 1.464 8.535C4.93 22 7.286 22 12 22c4.714 0 7.071 0 8.535-1.465C22 19.072 22 16.714 22 12s0-7.071-1.465-8.536C19.072 2 16.714 2 12 2S4.929 2 3.464 3.464ZM13.01 6.57c-.314-.236-.614-.46-.872-.6-.264-.144-.716-.329-1.197-.088-.481.24-.605.713-.649 1.01-.042.29-.042.665-.042 1.058v2.449L8.48 8.924a.75.75 0 1 0-.96 1.152L9.828 12 7.52 13.924a.75.75 0 0 0 .96 1.152l1.77-1.475v2.45c0 .392 0 .766.043 1.057.043.298.167.77.648 1.01s.933.056 1.197-.087c.258-.14.558-.365.872-.6l1.407-1.056c.215-.161.437-.327.598-.49.183-.184.402-.473.402-.885 0-.412-.219-.7-.402-.885a5.715 5.715 0 0 0-.598-.49L12.25 12l2.167-1.625c.215-.161.437-.327.598-.49.183-.184.402-.473.402-.885 0-.412-.219-.7-.402-.885a5.715 5.715 0 0 0-.598-.49L13.01 6.57Z" clip-rule="evenodd"/>
  </g>
</svg>
