<svg xmlns="http://www.w3.org/2000/svg" width="24" height="24" fill="none">
  <path fill="#1C274C" d="M21.836 17.462c-.443-1.046-1.022-1.999-1.536-2.844a42.66 42.66 0 0 1-.518-.868H4.218a42.66 42.66 0 0 1-.518.868c-.514.845-1.093 1.798-1.536 2.844A11.354 11.354 0 0 0 1.25 22a.75.75 0 0 0 1.5 0c0-1.49.29-2.695.709-3.744 5.394.147 7.46 2.871 7.83 3.981a.75.75 0 0 0 1.422 0c.37-1.11 2.436-3.834 7.83-3.98A9.848 9.848 0 0 1 21.25 22a.75.75 0 0 0 1.5 0c0-1.815-.38-3.28-.914-4.538ZM4.69 1.706a.75.75 0 1 0-1.38.589v.001l.004.009.016.036.06.148a32.381 32.381 0 0 1 .892 2.557c.493 1.633.968 3.694.968 5.526a4.85 4.85 0 0 1-.308 1.678h14.116a4.85 4.85 0 0 1-.308-1.678c0-1.832.475-3.893.968-5.526a32.437 32.437 0 0 1 .892-2.557l.06-.148.015-.036.004-.009v-.002a.75.75 0 1 0-1.38-.587S19.31 1.706 20 2l-.69-.293-.002.004-.005.012-.018.043-.067.163a33.816 33.816 0 0 0-.936 2.684c-.481 1.595-.977 3.678-1.028 5.637H6.746c-.05-1.96-.547-4.042-1.028-5.637a33.872 33.872 0 0 0-.936-2.684l-.067-.163-.018-.043-.005-.012-.001-.003-.001-.002Z"/>
</svg>
