<svg xmlns="http://www.w3.org/2000/svg" width="24" height="24" fill="none">
  <g fill="#1C274C">
    <path d="M21.836 17.462c-.443-1.047-1.022-2-1.536-2.845-.184-.303-.36-.592-.518-.867H4.218c-.158.275-.334.564-.518.867-.514.846-1.093 1.798-1.536 2.845A11.354 11.354 0 0 0 1.25 22a.75.75 0 0 0 1.5 0c0-1.49.29-2.696.709-3.744 5.394.147 7.46 2.871 7.83 3.981a.75.75 0 0 0 1.422 0c.37-1.11 2.436-3.834 7.83-3.98A9.848 9.848 0 0 1 21.25 22a.75.75 0 0 0 1.5 0c0-1.816-.38-3.28-.914-4.538Z"/>
    <path d="M4.69 1.706a.75.75 0 1 0-1.38.589l.001.001.004.009.015.036.06.148a32.374 32.374 0 0 1 .892 2.557c.493 1.633.968 3.694.968 5.526a4.85 4.85 0 0 1-.308 1.678h14.116a4.853 4.853 0 0 1-.308-1.678c0-1.832.476-3.893.968-5.526a32.378 32.378 0 0 1 .892-2.557l.06-.148.016-.036.003-.009.001-.002a.75.75 0 1 0-1.38-.587L20 2l-.69-.293-.002.004-.005.012-.018.043-.067.163a33.953 33.953 0 0 0-.936 2.684c-.48 1.595-.977 3.678-1.028 5.637H6.746c-.05-1.96-.547-4.042-1.028-5.637a33.873 33.873 0 0 0-.936-2.684l-.067-.163-.018-.043-.005-.012-.001-.003-.001-.002Z" opacity=".5"/>
  </g>
</svg>
