<svg xmlns="http://www.w3.org/2000/svg" width="24" height="24" fill="none">
  <path fill="#1C274C" d="M17 14.5a7.5 7.5 0 1 1-15 0 7.5 7.5 0 0 1 15 0Zm.981-12.147a.558.558 0 0 1 1.038 0l.654 1.66c.057.143.17.257.315.314l1.659.654c.47.186.47.852 0 1.038l-1.66.654a.558.558 0 0 0-.314.315l-.654 1.659a.558.558 0 0 1-1.038 0l-.654-1.66a.558.558 0 0 0-.315-.314l-1.659-.654a.558.558 0 0 1 0-1.038l1.66-.654a.558.558 0 0 0 .314-.315l.654-1.659Zm-1.964 6.69.75-.75-.3-.76-.76-.3-.75.75c.384.321.739.676 1.06 1.06Z"/>
</svg>
