<svg xmlns="http://www.w3.org/2000/svg" width="24" height="24" fill="none">
  <g fill="#1C274C">
    <path d="M14.137 2.738c-.743.743-1.128 2.038-.848 3.052.149.536.173 1.185-.22 1.579l-1.28 1.28a.14.14 0 0 0 .044.226 6.268 6.268 0 0 1 3.292 3.292.14.14 0 0 0 .227.044l1.28-1.28c.393-.393 1.042-.369 1.578-.22 1.014.28 2.309-.105 3.052-.848A2.519 2.519 0 0 0 17.7 6.3a2.519 2.519 0 0 0-3.563-3.562ZM2.738 17.7a2.519 2.519 0 0 0 3.562 0 2.519 2.519 0 0 0 3.563 3.562c.743-.743 1.128-2.038.848-3.052-.149-.536-.173-1.185.22-1.579l1.28-1.28a.14.14 0 0 0-.044-.226 6.268 6.268 0 0 1-3.292-3.292.14.14 0 0 0-.227-.044l-1.28 1.28c-.393.393-1.042.369-1.578.22-1.014-.28-2.309.105-3.052.848a2.519 2.519 0 0 0 0 3.563Z"/>
    <path d="M8.25 5a.75.75 0 0 0 1.5 0V4a.75.75 0 0 0-1.5 0v1Zm-1.376.813a.75.75 0 1 1-1.061 1.06L4.399 5.46a.75.75 0 1 1 1.06-1.06l1.415 1.414Zm11.314 11.313a.75.75 0 0 0-1.061 1.061l1.414 1.414a.75.75 0 0 0 1.06-1.06l-1.413-1.415ZM15 18.25a.75.75 0 0 1 .75.75v1a.75.75 0 0 1-1.5 0v-1a.75.75 0 0 1 .75-.75ZM5 9.75a.75.75 0 0 0 0-1.5H4a.75.75 0 0 0 0 1.5h1ZM18.25 15a.75.75 0 0 1 .75-.75h1a.75.75 0 0 1 0 1.5h-1a.75.75 0 0 1-.75-.75Z" opacity=".5"/>
  </g>
</svg>
