<svg xmlns="http://www.w3.org/2000/svg" width="24" height="24" fill="none">
  <path fill="#1C274C" fill-rule="evenodd" d="M18.23 2.207a3.263 3.263 0 0 1 .943 2.62 3.269 3.269 0 0 1 2.62 5.566c-.92.919-2.489 1.398-3.783 1.04a1.694 1.694 0 0 0-.577-.068c-.16.014-.234.06-.272.097l-5.7 5.7c-.037.037-.082.111-.096.271-.015.163.01.366.068.577.358 1.294-.121 2.864-1.04 3.782a3.269 3.269 0 0 1-5.566-2.619 3.27 3.27 0 0 1-2.62-5.566c.92-.919 2.489-1.398 3.783-1.04.21.058.414.083.577.068.16-.014.234-.06.272-.097l5.7-5.7c.037-.037.082-.111.096-.271a1.693 1.693 0 0 0-.068-.577c-.358-1.294.121-2.864 1.04-3.783a3.27 3.27 0 0 1 4.623 0Zm-3.562 1.061A1.769 1.769 0 1 1 17.17 5.77a.75.75 0 1 0 1.06 1.06 1.769 1.769 0 1 1 2.502 2.502c-.568.568-1.59.858-2.322.656a3.178 3.178 0 0 0-1.109-.117c-.397.035-.844.174-1.2.53l-1.395 1.394-1.602.34v-.489a.75.75 0 0 0-.987-.711l-1.135.378v-.797L13.6 7.899c.356-.356.495-.803.53-1.2a3.178 3.178 0 0 0-.117-1.11c-.202-.732.088-1.753.656-2.32Zm-5.186 8.748L7.9 13.599c-.356.356-.803.495-1.2.53a3.178 3.178 0 0 1-1.11-.117c-.732-.202-1.753.088-2.32.656a1.769 1.769 0 1 0 2.5 2.502.75.75 0 1 1 1.062 1.06 1.769 1.769 0 1 0 2.501 2.502c.568-.568.858-1.59.656-2.322a3.178 3.178 0 0 1-.117-1.109c.035-.397.174-.844.53-1.2l2.36-2.36-.252.053a.75.75 0 0 1-.905-.733v-.374l-1.134.378a.75.75 0 0 1-.988-.711v-.338Z" clip-rule="evenodd"/>
</svg>
