<svg xmlns="http://www.w3.org/2000/svg" width="24" height="24" fill="none">
  <path fill="#1C274C" fill-rule="evenodd" d="M11.943 1.25c-2.309 0-4.118 0-5.53.19-1.444.194-2.584.6-3.479 1.494-.895.895-1.3 2.035-1.494 3.48-.19 1.411-.19 3.22-.19 5.529v.114c0 2.309 0 4.118.19 5.53.194 1.444.6 2.584 1.494 3.479.895.895 2.035 1.3 3.48 1.494.84.113 1.823.159 2.968.178a.756.756 0 0 0 .253.003 188.9 188.9 0 0 0 2.308.009h.114c.86 0 1.652 0 2.378-.01a.76.76 0 0 0 .266-.004c1.11-.02 2.065-.065 2.885-.176 1.445-.194 2.585-.6 3.48-1.494.895-.895 1.3-2.035 1.494-3.48.19-1.411.19-3.22.19-5.529v-.114c0-2.309 0-4.118-.19-5.53-.194-1.444-.6-2.584-1.494-3.479-.895-.895-2.035-1.3-3.48-1.494-1.411-.19-3.22-.19-5.529-.19h-.114Zm3.364 19.972a20.42 20.42 0 0 0 2.08-.148c1.278-.172 2.049-.5 2.618-1.069.57-.57.897-1.34 1.069-2.619.174-1.3.176-3.008.176-5.386s-.002-4.086-.176-5.386c-.172-1.279-.5-2.05-1.069-2.62-.57-.569-1.34-.896-2.619-1.068a20.647 20.647 0 0 0-2.117-.149v1.284c0 .052.02.137.123.26.106.126.267.252.457.36 1.168.662 1.939 2.11 1.939 3.41A3.269 3.269 0 0 1 12 10.175 3.269 3.269 0 0 1 6.212 8.09c0-1.3.77-2.748 1.939-3.41.19-.108.351-.234.456-.36.103-.123.124-.208.124-.26V2.777c-.813.024-1.51.068-2.117.15-1.279.171-2.05.498-2.62 1.068-.569.57-.896 1.34-1.068 2.619-.174 1.3-.176 3.008-.176 5.386s.002 4.086.176 5.386c.172 1.279.5 2.05 1.069 2.62.57.569 1.34.896 2.619 1.068a20.85 20.85 0 0 0 2.155.15v-1.24c0-.052-.02-.137-.124-.26a1.692 1.692 0 0 0-.456-.36c-1.168-.661-1.939-2.11-1.939-3.41a3.269 3.269 0 0 1 5.788-2.083 3.269 3.269 0 0 1 5.788 2.084c0 1.299-.77 2.748-1.939 3.41a1.71 1.71 0 0 0-.457.36c-.102.122-.123.207-.123.26v1.237Zm-5.038.025c.534.003 1.11.003 1.731.003.65 0 1.251 0 1.807-.004v-1.261c0-.504.217-.918.474-1.224a3.19 3.19 0 0 1 .867-.702c.661-.374 1.178-1.302 1.178-2.105a1.77 1.77 0 0 0-3.538 0 .75.75 0 0 1-1.5 0 1.769 1.769 0 1 0-3.538 0c0 .803.517 1.73 1.178 2.105.294.167.613.399.867.702.257.306.474.72.474 1.224v1.262Zm-.038-18.493V4.06c0 .503-.218.918-.474 1.224a3.178 3.178 0 0 1-.867.701c-.661.375-1.178 1.302-1.178 2.105a1.769 1.769 0 0 0 3.538 0 .75.75 0 0 1 1.5 0 1.769 1.769 0 1 0 3.538 0c0-.803-.517-1.73-1.178-2.105a3.178 3.178 0 0 1-.867-.701c-.257-.306-.474-.72-.474-1.224V2.754C13.224 2.75 12.636 2.75 12 2.75c-.636 0-1.224 0-1.77.004Z" clip-rule="evenodd"/>
</svg>
