<svg xmlns="http://www.w3.org/2000/svg" width="24" height="24" fill="none">
  <path fill="#1C274C" d="M13.29 5.79c-.28-1.014.104-2.309.847-3.052A2.519 2.519 0 0 1 17.7 6.3a2.519 2.519 0 0 1 3.562 3.563c-.743.743-2.038 1.128-3.052.848-.536-.149-1.185-.173-1.579.22l-.842.843-2.685.413v-.54a.75.75 0 0 0-.987-.712l-1.135.378V9.455L13.07 7.37c.393-.394.369-1.043.22-1.58Zm-3.808 5.165L7.37 13.07c-.394.393-1.043.369-1.58.22-1.013-.28-2.308.105-3.051.848A2.519 2.519 0 0 0 6.3 17.7a2.519 2.519 0 0 0 3.563 3.562c.743-.743 1.128-2.038.848-3.052-.149-.536-.173-1.185.22-1.579l3.064-3.064-1.527.235a.75.75 0 0 1-.864-.741v-.374l-1.134.378a.75.75 0 0 1-.988-.711v-1.399Z"/>
</svg>
