<svg xmlns="http://www.w3.org/2000/svg" width="24" height="24" fill="none">
  <g stroke="#1C274C" stroke-linecap="round" stroke-linejoin="round" stroke-width="1.5">
    <path d="M14.137 2.738c-.743.743-1.128 2.038-.848 3.052.149.536.173 1.185-.22 1.579l-5.7 5.7c-.394.393-1.043.369-1.58.22-1.013-.28-2.308.105-3.051.848A2.519 2.519 0 0 0 6.3 17.7a2.519 2.519 0 0 0 3.563 3.562c.743-.743 1.128-2.038.848-3.052-.149-.536-.173-1.185.22-1.579l5.7-5.7c.394-.393 1.043-.369 1.58-.22 1.013.28 2.308-.105 3.051-.848A2.519 2.519 0 0 0 17.7 6.3a2.519 2.519 0 0 0-3.563-3.562Z"/>
    <path d="M10.232 10.232v2.122l2.122-.707v1.414L15 12.5" opacity=".5"/>
  </g>
</svg>
