<svg xmlns="http://www.w3.org/2000/svg" width="24" height="24" fill="none">
  <path fill="#1C274D" d="M5.655 2.227c-.433.113-.711.273-.928.485-.305.3-.504.72-.613 1.513C4.002 5.042 4 6.124 4 7.675v8.57a4.172 4.172 0 0 1 1.299-.593 3.29 3.29 0 0 1 .356-.072V2.227ZM7.31 15.514H20V7.676c0-1.552-.002-2.634-.114-3.451-.109-.793-.308-1.213-.613-1.513-.306-.299-.734-.494-1.544-.6-.834-.11-1.938-.112-3.522-.112H9.793c-1.002 0-1.812 0-2.483.029v13.485Zm.163 1.621c-1.079 0-1.456.007-1.746.083a2.464 2.464 0 0 0-1.697 1.538c.016.382.043.719.084 1.019.109.793.308 1.213.613 1.513.306.299.734.494 1.544.6.834.11 1.938.112 3.522.112h4.414c1.584 0 2.688-.002 3.522-.111.81-.107 1.238-.302 1.544-.601.305-.3.504-.72.613-1.513.092-.666.11-1.51.113-2.64H7.473Z"/>
</svg>
