<svg xmlns="http://www.w3.org/2000/svg" width="24" height="24" fill="none">
  <g fill="#1C274D">
    <path d="M7.31 16.23H20V7.977c0-1.634-.002-2.774-.114-3.634-.109-.835-.308-1.278-.613-1.593-.306-.315-.734-.52-1.544-.633C16.895 2.002 15.791 2 14.207 2H9.793c-1.002 0-1.812 0-2.483.03v14.2ZM5.655 2.24c-.433.119-.711.287-.928.51-.305.316-.504.758-.613 1.593-.112.86-.114 2-.114 3.634V17c.389-.28.827-.494 1.299-.624a3.17 3.17 0 0 1 .356-.076V2.24Z"/>
    <path d="M6.271 2.115c-.81.11-1.238.31-1.544.618-.305.308-.504.74-.613 1.557C4.002 5.13 4 6.245 4 7.842V19.7c0-.131.024-.263.097-.46.127-.344.181-.397.291-.505a2.62 2.62 0 0 1 1.285-.667c.29-.062.67-.068 1.753-.068H8v2.028c0 .277 0 .416.095.472.095.056.224-.006.484-.13l1.242-.593c.088-.042.132-.063.179-.063.047 0 .091.02.179.063l1.242.593c.26.124.39.186.484.13.095-.056.095-.195.095-.472V18h8V7.842c0-1.597-.002-2.711-.114-3.552-.109-.816-.308-1.249-.613-1.557-.306-.308-.734-.508-1.544-.618C16.895 2.002 15.791 2 14.207 2H9.793c-1.584 0-2.688.002-3.522.115Z" opacity=".5"/>
    <path d="M8 18h-.574c-1.084 0-1.462.006-1.753.068-.513.11-.96.347-1.285.667-.11.108-.164.161-.291.505-.127.343-.107.489-.066.78l.022.15c.11.653.31.998.616 1.244.307.246.737.407 1.55.494.837.09 1.946.092 3.536.092h4.43c1.59 0 2.7-.001 3.536-.092.813-.087 1.243-.248 1.55-.494.306-.246.506-.591.616-1.243.091-.548.11-1.241.113-2.171h-8v2.028c0 .277 0 .416-.095.472-.095.056-.224-.006-.484-.13l-1.242-.593c-.088-.042-.132-.063-.179-.063-.047 0-.091.02-.179.063l-1.242.593c-.26.124-.39.186-.484.13C8 20.444 8 20.305 8 20.028V18Z"/>
  </g>
</svg>
