<svg xmlns="http://www.w3.org/2000/svg" width="24" height="24" fill="none">
  <g fill="#1C274D">
    <path fill-rule="evenodd" d="M2 12c0-.882 0-1.68.01-2.407.056-.195.123-.366.203-.522a4.25 4.25 0 0 1 1.858-1.858c.411-.21.919-.333 1.706-.397.15-.013.307-.023.473-.03v4.045c0 .468 0 .851.017 1.153.018.298.054.606.177.881a2.25 2.25 0 0 0 2.587 1.273c.293-.07.56-.23.806-.398.25-.17.553-.404.924-.69l.018-.014c.47-.36.602-.456.723-.508a1.25 1.25 0 0 1 .996 0c.121.052.253.147.723.508l.018.015c.37.285.675.519.924.69.247.167.513.326.806.397a2.25 2.25 0 0 0 2.587-1.273c.123-.275.16-.583.177-.881.017-.302.017-.685.017-1.153V6.785c.166.008.323.018.473.03.787.065 1.295.189 1.707.398a4.25 4.25 0 0 1 1.857 1.858c.08.156.147.327.203.522.01.726.01 1.525.01 2.407 0 4.714 0 7.071-1.465 8.535C19.072 22 16.714 22 12 22s-7.071 0-8.536-1.465C2 19.072 2 16.714 2 12Zm19.843-5.277c-.173-1.474-.538-2.49-1.308-3.259C19.072 2 16.714 2 12 2S4.929 2 3.464 3.464c-.769.77-1.134 1.785-1.307 3.26a5.75 5.75 0 0 1 1.233-.847c.658-.336 1.385-.484 2.265-.556.864-.071 1.94-.071 3.311-.071h6.068c1.371 0 2.447 0 3.311.07.88.073 1.607.221 2.265.557.45.228.863.514 1.233.846Z" clip-rule="evenodd"/>
    <path d="M7.75 10.808V6.752c.38-.002.794-.002 1.25-.002h6c.456 0 .87 0 1.25.002v4.056c0 .496 0 .836-.015 1.09-.015.262-.043.343-.05.358a.75.75 0 0 1-.862.425c-.016-.004-.097-.032-.315-.18a20.93 20.93 0 0 1-.872-.653l-.067-.052c-.37-.285-.659-.507-.973-.644a2.75 2.75 0 0 0-2.192 0c-.314.137-.603.359-.973.644l-.067.052c-.393.303-.663.51-.873.653-.217.148-.298.176-.314.18a.75.75 0 0 1-.862-.425c-.007-.015-.035-.096-.05-.358a21.485 21.485 0 0 1-.015-1.09Z"/>
  </g>
</svg>
