<svg xmlns="http://www.w3.org/2000/svg" width="24" height="24" fill="none">
  <g fill="#1C274C">
    <path d="M2 14c0-3.771 0-5.657 1.172-6.828C4.343 6 6.229 6 10 6h4c3.771 0 5.657 0 6.828 1.172C22 8.343 22 10.229 22 14c0 3.771 0 5.657-1.172 6.828C19.657 22 17.771 22 14 22h-4c-3.771 0-5.657 0-6.828-1.172C2 19.657 2 17.771 2 14Z" opacity=".5"/>
    <path fill-rule="evenodd" d="M5.25 9.5A.75.75 0 0 1 6 8.75h12a.75.75 0 0 1 0 1.5H6a.75.75 0 0 1-.75-.75Zm6.698-8.25h.104c.899 0 1.648 0 2.242.08.628.084 1.195.27 1.65.725.456.456.642 1.023.726 1.65.08.595.08 1.345.08 2.243V6h-1.5c0-.964-.002-1.612-.066-2.095-.063-.461-.17-.659-.3-.789-.13-.13-.328-.237-.79-.3-.482-.064-1.13-.066-2.094-.066s-1.612.002-2.095.067c-.461.062-.659.169-.789.3-.13.13-.237.327-.3.788C8.753 4.388 8.75 5.036 8.75 6h-1.5v-.052c0-.898 0-1.648.08-2.242.084-.628.27-1.195.725-1.65.456-.456 1.023-.642 1.65-.726.595-.08 1.345-.08 2.243-.08Z" clip-rule="evenodd"/>
    <path d="M7.25 13.095A3.001 3.001 0 0 0 8 19a3 3 0 0 0 .75-5.905V15a.75.75 0 0 1-1.5 0v-1.905Zm6.629 5.026a3 3 0 0 0 4.706-3.645l-1.348 1.347a.75.75 0 0 1-1.06-1.06l1.347-1.348a3.001 3.001 0 0 0-3.645 4.706Z"/>
  </g>
</svg>
