<svg xmlns="http://www.w3.org/2000/svg" width="24" height="24" fill="none">
  <path fill="#1C274C" fill-rule="evenodd" d="m16.877 2.598-.025.046-.076.138.866.522.078-.142.024-.042-.041-.025-.781-.47-.045-.027Zm1.054.64h-.001Zm-.726 1.554-1.472-.887-2.665 1.31a4.434 4.434 0 0 0-2.26 2.472l.059-.03a3.454 3.454 0 0 1 3.703.393c.517.414 1.21.537 1.839.328l1.055-.352-.01-.133-.25-3.101Zm1.757 3.998a.746.746 0 0 0 .014-.423c0-.131-.004-.263-.012-.394l-.015-.193-.262-3.267.355-.642a4.2 4.2 0 0 0 .166-.317c.053-.116.111-.274.12-.467a1.25 1.25 0 0 0-.195-.73 1.258 1.258 0 0 0-.337-.344 4.243 4.243 0 0 0-.303-.192l-.016-.01-.799-.482a5.377 5.377 0 0 0-.33-.188 1.26 1.26 0 0 0-.489-.139 1.25 1.25 0 0 0-.763.205 1.26 1.26 0 0 0-.354.364c-.065.098-.131.218-.192.328l-.323.583-2.827 1.39-.168.083C10.606 4.79 9.46 6.36 9.116 8.188c-.01.05-.019.103-.034.19l-.001.007-.03.174a7.243 7.243 0 0 1-2.095 3.926l-.804.791c-.504.496-.91.895-1.214 1.24-.31.35-.56.693-.71 1.087a3.486 3.486 0 0 0 .363 3.18c.236.35.558.626.939.894.373.263.859.555 1.46.918l.713.43c.601.361 1.087.654 1.492.86.412.21.806.366 1.225.405a3.233 3.233 0 0 0 2.88-1.284c.254-.334.413-.731.548-1.183.133-.445.261-1.011.42-1.715l.255-1.122.039-.17a7.198 7.198 0 0 1 2.297-3.799l.006-.005.141-.125a6.094 6.094 0 0 0 1.956-4.097Zm-1.666.873-.413.138a3.454 3.454 0 0 1-3.25-.58 1.954 1.954 0 0 0-2.095-.222l-1.186.593a8.707 8.707 0 0 1-2.21 3.83l-.13.13-.789.774c-.528.52-.897.883-1.161 1.182-.263.298-.377.482-.433.63-.228.6-.15 1.28.205 1.807.087.128.237.28.559.505.324.229.764.494 1.395.874l.665.4c.631.381 1.071.645 1.422.824.35.178.546.236.685.249.586.055 1.168-.2 1.544-.696.094-.123.19-.319.307-.708.116-.39.234-.906.4-1.643l.25-1.1.042-.182a8.697 8.697 0 0 1 2.624-4.452l.137-.121.004-.004.128-.113a4.538 4.538 0 0 0 1.3-2.115Z" clip-rule="evenodd"/>
</svg>
