<svg xmlns="http://www.w3.org/2000/svg" width="24" height="24" fill="none">
  <path fill="#1C274C" d="m18.45 8.278.748-.06-.747.06Zm.015.188.749-.047-.749.047ZM16.614 12.9l.495.563-.495-.563Zm.137-.122.505.554-.505-.554Zm-6.68-3.82.738.127-.739-.127Zm.032-.185.737.139-.737-.14Zm2.884-3.786.331.673-.33-.673Zm-.162.081.342.667-.342-.667Zm-5.093 8.398-.526-.535.526.535Zm.128-.127.532.529-.532-.529Zm2.179-4.2.737.135-.737-.135Zm4.002 8.128.732.165-.732-.165Zm.041-.18-.73-.174.73.174Zm2.397-4.068.502.557-.502-.557ZM7.65 20.413l.387-.643-.387.643ZM5.462 18.81l-.621.42.621-.42Zm1.486-4.573.525.535-.525-.535Zm-1.77 2.08-.7-.268.7.267Zm3.138 4.496-.387.642.387-.642Zm2.424 1.176-.07.747.07-.747Zm3.053-3.628-.731-.166.731.166Zm-.84 2.638.597.453-.598-.453ZM18.34 2.9l.387-.643-.387.643Zm.41.308.633-.404-.632.404Zm-.123.764.656.363-.656-.363Zm.202-.472-.75-.034.75.034Zm-2.383-.773-.656-.363.656.363Zm.313-.447.413.626-.413-.626Zm.8.15-.387.642.387-.643Zm-.495-.232.045-.749-.045.749ZM15.633 4.14l2.152 1.296.774-1.285-2.152-1.296-.774 1.285Zm-6.93 16.03-.665-.4-.774 1.285.665.4.774-1.285Zm4.607-3.07-.248 1.095 1.463.332.248-1.095-1.463-.331Zm-5.837-2.328.785-.771-1.052-1.07-.784.772 1.051 1.07Zm5.845-9.112 3.032-1.49-.661-1.346-3.032 1.49.661 1.346Zm4.106-.807.28 3.485 1.494-.12-.279-3.484-1.495.12Zm-.748-.993.426-.77-1.312-.727-.427.771 1.313.726Zm.496-.79.78.471.774-1.285-.78-.47-.774 1.285Zm.798.538-.455.822 1.313.727.455-.823-1.313-.726Zm-.267 4.73.014.176 1.497-.095-.016-.2-1.495.12Zm-.594 5.125c.068-.06.109-.095.147-.13l-1.01-1.11-.128.114.991 1.126Zm.608-4.95c.09 1.419-.46 2.789-1.471 3.71l1.01 1.11c1.358-1.238 2.076-3.055 1.958-4.914l-1.497.095Zm-6.908.572.03-.173-1.473-.278c-.01.052-.02.106-.035.197l1.478.254Zm1.848-4.77c-.08.039-.129.062-.175.086l.685 1.334.151-.075-.661-1.346ZM10.84 8.911c.262-1.391 1.128-2.561 2.327-3.177L12.482 4.4c-1.626.835-2.772 2.404-3.116 4.233l1.474.278ZM8.258 14l.134-.133-1.064-1.058-.122.121L8.258 14ZM9.33 8.83a16.75 16.75 0 0 1-.03.174l1.475.27c.01-.05.018-.1.033-.19L9.331 8.83Zm-.939 5.037a8.743 8.743 0 0 0 2.384-4.594L9.3 9.003a7.243 7.243 0 0 1-1.973 3.806l1.064 1.058Zm6.38 3.564.04-.171-1.46-.348-.042.188 1.463.331Zm1.346-5.095-.141.125 1.004 1.114.128-.113-.99-1.126Zm-1.306 4.924a7.198 7.198 0 0 1 2.169-3.685l-1.004-1.114a8.697 8.697 0 0 0-2.624 4.451l1.459.348Zm-6.774 2.51c-.631-.381-1.07-.646-1.395-.875-.322-.226-.472-.377-.559-.506l-1.243.84c.236.35.558.625.939.893.378.266.872.563 1.484.932l.774-1.285Zm-1.616-6.069c-.513.505-.927.91-1.234 1.259-.31.35-.56.694-.71 1.088l1.401.534c.056-.148.17-.332.433-.629.264-.3.633-.662 1.161-1.182l-1.051-1.07Zm-.338 4.688a1.986 1.986 0 0 1-.205-1.807l-1.402-.534a3.486 3.486 0 0 0 .364 3.18l1.243-.838Zm1.845 3.065c.612.37 1.105.667 1.516.876.412.21.807.366 1.225.405l.14-1.493c-.14-.013-.335-.07-.685-.249-.351-.179-.79-.443-1.422-.824l-.774 1.285Zm5.133-3.26c-.167.737-.285 1.253-.401 1.644-.117.389-.213.585-.306.707l1.195.906c.254-.335.413-.731.548-1.184.134-.45.264-1.025.427-1.741l-1.463-.332Zm-2.392 4.541a3.233 3.233 0 0 0 2.88-1.284l-1.196-.906a1.733 1.733 0 0 1-1.543.697l-.14 1.493ZM17.952 3.54l.143.087c.038.024.061.04.075.05.029.02-.012-.003-.052-.067l1.264-.808a1.26 1.26 0 0 0-.337-.344c-.096-.07-.214-.14-.32-.203l-.773 1.285Zm1.33.793c.06-.108.126-.227.175-.335.053-.116.111-.274.12-.466l-1.499-.068c.004-.076.027-.116.013-.084l-.041.08-.08.147 1.312.726Zm-1.165-.723a.25.25 0 0 1-.039-.146l1.499.068a1.25 1.25 0 0 0-.195-.73l-1.264.808Zm-1.016-.522.088-.156c.024-.043.04-.068.05-.084.022-.033 0 .011-.068.056l-.826-1.252c-.17.112-.28.253-.354.364-.069.103-.138.23-.202.346l1.312.726Zm.844-1.303c-.113-.068-.237-.144-.349-.199a1.26 1.26 0 0 0-.488-.139l-.09 1.498c-.08-.005-.122-.032-.087-.014.017.008.043.022.085.047.043.024.091.054.155.092l.774-1.285Zm-.774 1.119a.25.25 0 0 1-.153.04l.09-1.497a1.25 1.25 0 0 0-.763.205l.826 1.252Z"/>
  <path stroke="#1C274C" stroke-linecap="round" stroke-width="1.5" d="m10 9.5 1.452-.726a2.704 2.704 0 0 1 2.9.307 2.704 2.704 0 0 0 2.544.454L18.5 9" opacity=".5"/>
</svg>
