<svg xmlns="http://www.w3.org/2000/svg" width="24" height="24" fill="none">
  <path fill="#1C274C" fill-rule="evenodd" d="M15.992 2.017a4.806 4.806 0 0 0-.192.328l-.323.583-2.827 1.39-.168.083c-1.626.835-2.772 2.403-3.116 4.233-.01.05-.019.103-.034.19l-.001.007-.03.173a7.244 7.244 0 0 1-2.095 3.927l-.804.79c-.504.496-.91.896-1.214 1.24-.31.35-.56.694-.71 1.088a3.486 3.486 0 0 0 .363 3.18c.236.35.558.626.939.894.373.262.859.555 1.46.917l.713.43c.601.362 1.087.654 1.492.86.412.21.806.367 1.225.406a3.233 3.233 0 0 0 2.88-1.284c.254-.335.413-.732.548-1.184.133-.445.261-1.01.42-1.715l.255-1.121.039-.171a7.197 7.197 0 0 1 2.297-3.798l.006-.005.141-.126c1.358-1.237 2.076-3.054 1.958-4.914l-.015-.192-.262-3.267.355-.642c.058-.103.12-.216.166-.318.053-.116.111-.274.12-.467a1.25 1.25 0 0 0-.195-.729 1.258 1.258 0 0 0-.337-.344 4.25 4.25 0 0 0-.303-.193l-.815-.491a4.842 4.842 0 0 0-.33-.188 1.26 1.26 0 0 0-.489-.139 1.25 1.25 0 0 0-.763.204 1.26 1.26 0 0 0-.354.365Zm-.009 2.333 1.472.887.248 3.101c.005.064.009.103.01.134l-1.055.351a1.954 1.954 0 0 1-1.838-.328 3.454 3.454 0 0 0-3.703-.392l-.06.03a4.434 4.434 0 0 1 2.261-2.473l2.665-1.31Z" clip-rule="evenodd"/>
</svg>
