<svg xmlns="http://www.w3.org/2000/svg" width="24" height="24" fill="none">
  <path stroke="#1C274C" stroke-linecap="round" stroke-width="1.5" d="m15.578 3.382 2 1.05c2.151 1.129 3.227 1.693 3.825 2.708C22 8.154 22 9.417 22 11.94v.117c0 2.525 0 3.788-.597 4.802-.598 1.015-1.674 1.58-3.825 2.709l-2 1.049C13.822 21.539 12.944 22 12 22s-1.822-.46-3.578-1.382l-2-1.05c-2.151-1.129-3.227-1.693-3.825-2.708C2 15.846 2 14.583 2 12.06v-.117c0-2.525 0-3.788.597-4.802.598-1.015 1.674-1.58 3.825-2.708l2-1.05C10.178 2.461 11.056 2 12 2s1.822.46 3.578 1.382ZM21 7.5l-4 2M12 12 3 7.5m9 4.5v9.5m0-9.5 4.5-2.25.5-.25m0 0V13m0-3.5-9.5-5"/>
</svg>
