<svg xmlns="http://www.w3.org/2000/svg" width="24" height="24" fill="none">
  <g stroke="#1C274C" stroke-width="1.5">
    <path d="M12.728 5.536a4 4 0 1 1 5.657 5.657M3.58 12.979l-.667-1.096C2.04 10.175 2.6 7.965 4.408 7.011c.854-.45 1.81-.879 2.761-1.15 2.86-.818 5.366-.518 5.366-.518l6.043 6.043s.3 2.506-.518 5.365c-.272.951-.7 1.908-1.15 2.762-.955 1.807-3.164 2.367-4.873 1.495l-1.096-.667a22.001 22.001 0 0 1-7.361-7.362Z"/>
    <path stroke-linecap="round" d="m20.506 3.414-2.121 2.121" opacity=".5"/>
  </g>
</svg>
