<svg xmlns="http://www.w3.org/2000/svg" width="24" height="24" fill="none">
  <path fill="#1C274C" d="M17.416 2.624a.75.75 0 1 0-.832-1.248L13.669 3.32A4.488 4.488 0 0 0 12 3c-.59 0-1.153.113-1.669.32L7.416 1.376a.75.75 0 0 0-.832 1.248l2.36 1.573a4.493 4.493 0 0 0-1.368 2.475A5.447 5.447 0 0 1 8.938 6.5h6.125c.47 0 .926.06 1.361.172a4.493 4.493 0 0 0-1.368-2.475l2.36-1.573ZM1.25 14a.75.75 0 0 1 .75-.75h3v-1.312c0-.836.26-1.611.704-2.248l-2.483-.994a.75.75 0 0 1 .558-1.392l3.136 1.254A3.92 3.92 0 0 1 8.937 8h6.126c.739 0 1.43.204 2.022.558l3.136-1.254a.75.75 0 1 1 .558 1.392l-2.483.994A3.92 3.92 0 0 1 19 11.938v1.312h3a.75.75 0 0 1 0 1.5h-3V15a6.97 6.97 0 0 1-.808 3.269l2.587 1.035a.75.75 0 0 1-.558 1.393l-2.892-1.158a6.987 6.987 0 0 1-4.579 2.421V15a.75.75 0 1 0-1.5 0v6.96a6.988 6.988 0 0 1-4.579-2.42L3.78 20.696a.75.75 0 1 1-.558-1.393l2.588-1.035A6.97 6.97 0 0 1 5 15v-.25H2a.75.75 0 0 1-.75-.75Z"/>
</svg>
