<svg xmlns="http://www.w3.org/2000/svg" width="24" height="24" fill="none">
  <g fill="#1C274C">
    <path d="M9.75 10.5a.75.75 0 0 1 .75-.75h3a.75.75 0 0 1 0 1.5h-3a.75.75 0 0 1-.75-.75Zm.75 4.25a.75.75 0 0 0 0 1.5h3a.75.75 0 0 0 0-1.5h-3Z"/>
    <path fill-rule="evenodd" d="M17.643 1.614a.75.75 0 0 1-.257 1.03l-1.292.774a7.782 7.782 0 0 1 2.954 3.355l1.173-.47a.75.75 0 1 1 .557 1.393l-1.24.497c.139.58.212 1.185.212 1.807v2.25H22a.75.75 0 0 1 0 1.5h-2.25V15c0 .95-.17 1.859-.483 2.7l1.512.604a.75.75 0 0 1-.558 1.393l-1.613-.646a7.745 7.745 0 0 1-6.608 3.7 7.745 7.745 0 0 1-6.608-3.7l-1.613.646a.75.75 0 0 1-.558-1.393l1.512-.605A7.733 7.733 0 0 1 4.25 15v-1.25H2a.75.75 0 0 1 0-1.5h2.25V10c0-.622.073-1.227.212-1.807l-1.24-.497a.75.75 0 1 1 .557-1.392l1.173.469a7.782 7.782 0 0 1 2.954-3.355l-1.292-.775a.75.75 0 1 1 .772-1.286l2.153 1.292A7.742 7.742 0 0 1 12 2.25c.86 0 1.688.14 2.46.399l2.154-1.292a.75.75 0 0 1 1.03.257ZM9.55 4.25a.752.752 0 0 0 .415-.16A6.242 6.242 0 0 1 12 3.75c.713 0 1.397.12 2.035.339.12.094.265.15.415.16A6.252 6.252 0 0 1 18.25 10v5a6.25 6.25 0 1 1-12.5 0v-5a6.252 6.252 0 0 1 3.8-5.752Z" clip-rule="evenodd"/>
  </g>
</svg>
