<svg xmlns="http://www.w3.org/2000/svg" width="24" height="24" fill="none">
  <path fill="#1C274C" fill-rule="evenodd" d="M14.948 1.25h2.104c.899 0 1.648 0 2.242.08.628.084 1.195.27 1.65.725.456.456.642 1.023.726 1.65.08.595.08 1.345.08 2.243V21.25H22a.75.75 0 0 1 0 1.5H2a.75.75 0 0 1 0-1.5h.25V8.948c0-.898 0-1.648.08-2.242.084-.628.27-1.195.725-1.65.456-.456 1.023-.642 1.65-.726.595-.08 1.345-.08 2.243-.08h3.33c.051-.874.213-1.63.777-2.195.456-.455 1.023-.64 1.65-.725.595-.08 1.345-.08 2.243-.08Zm-3.941 4.5H7c-.964 0-1.612.002-2.095.067-.461.062-.659.169-.789.3-.13.13-.237.327-.3.788C3.753 7.388 3.75 8.036 3.75 9v12.25h4.5V19a.75.75 0 0 1 1.5 0v2.25h4.5V9c0-.964-.002-1.612-.066-2.095-.063-.461-.17-.659-.3-.789-.13-.13-.328-.237-.79-.3-.481-.064-1.127-.066-2.087-.066Zm4.743 15.5V8.948c0-.898 0-1.648-.08-2.242-.084-.628-.27-1.195-.726-1.65-.455-.456-1.022-.642-1.65-.726-.425-.057-.93-.074-1.51-.078.05-.7.16-.963.332-1.136.13-.13.328-.237.79-.3.482-.064 1.13-.066 2.094-.066h2c.964 0 1.612.002 2.095.067.461.062.659.169.789.3.13.13.237.327.3.788.064.483.066 1.131.066 2.095v15.25h-4.5ZM5.25 8A.75.75 0 0 1 6 7.25h6a.75.75 0 0 1 0 1.5H6A.75.75 0 0 1 5.25 8Zm0 3a.75.75 0 0 1 .75-.75h6a.75.75 0 0 1 0 1.5H6a.75.75 0 0 1-.75-.75Zm0 3a.75.75 0 0 1 .75-.75h6a.75.75 0 0 1 0 1.5H6a.75.75 0 0 1-.75-.75Z" clip-rule="evenodd"/>
</svg>
