<svg xmlns="http://www.w3.org/2000/svg" width="24" height="24" fill="none">
  <path fill="#1C274C" fill-rule="evenodd" d="M11.944 1.25h.112c1.838 0 3.294 0 4.433.153 1.172.158 2.121.49 2.87 1.238.748.749 1.08 1.698 1.238 2.87.103.764.136 1.67.147 2.739H21c.966 0 1.75.784 1.75 1.75v1c0 .55-.26 1.07-.7 1.4l-1.303.977c-.007 1.232-.036 2.26-.15 3.112-.158 1.172-.49 2.121-1.238 2.87-.19.19-.393.353-.609.493V21A1.75 1.75 0 0 1 17 22.75h-1.5A1.75 1.75 0 0 1 13.75 21v-.256c-.525.006-1.088.006-1.694.006h-.112c-.606 0-1.17 0-1.694-.006V21a1.75 1.75 0 0 1-1.75 1.75H7A1.75 1.75 0 0 1 5.25 21v-1.148a3.733 3.733 0 0 1-.609-.493c-.748-.749-1.08-1.698-1.238-2.87-.114-.852-.143-1.88-.15-3.112L1.95 12.4c-.44-.33-.7-.85-.7-1.4v-1c0-.966.784-1.75 1.75-1.75h.255c.012-1.069.045-1.975.148-2.739.158-1.172.49-2.121 1.238-2.87.749-.748 1.698-1.08 2.87-1.238 1.14-.153 2.595-.153 4.433-.153ZM3.25 9.75H3a.25.25 0 0 0-.25.25v1a.25.25 0 0 0 .1.2l.4.3V9.75Zm1.506 4c.01 1.034.042 1.858.134 2.54.135 1.005.389 1.585.812 2.008.423.423 1.003.677 2.009.812 1.028.138 2.382.14 4.289.14 1.907 0 3.261-.002 4.29-.14 1.005-.135 1.585-.389 2.008-.812.423-.423.677-1.003.812-2.009.092-.68.123-1.505.134-2.539H4.756Zm14.494-1.5H4.75V10c0-1.883.002-3.227.135-4.25h14.23c.133 1.023.135 2.367.135 4.25v2.25Zm1.5-.75.4-.3a.25.25 0 0 0 .1-.2v-1a.25.25 0 0 0-.25-.25h-.25v1.75Zm-2.049-7.25a2.251 2.251 0 0 0-.403-.548c-.423-.423-1.003-.677-2.009-.812-1.028-.138-2.382-.14-4.289-.14-1.907 0-3.261.002-4.29.14-1.005.135-1.585.389-2.008.812a2.26 2.26 0 0 0-.403.548h13.402ZM6.75 20.46V21c0 .138.112.25.25.25h1.5a.25.25 0 0 0 .25-.25v-.296a15.1 15.1 0 0 1-1.239-.107 8.248 8.248 0 0 1-.761-.137Zm8.5.244V21c0 .138.112.25.25.25H17a.25.25 0 0 0 .25-.25v-.54a8.057 8.057 0 0 1-.761.137 15.1 15.1 0 0 1-1.239.107ZM6.25 16a.75.75 0 0 1 .75-.75h1.5a.75.75 0 0 1 0 1.5H7a.75.75 0 0 1-.75-.75Zm8.5 0a.75.75 0 0 1 .75-.75H17a.75.75 0 0 1 0 1.5h-1.5a.75.75 0 0 1-.75-.75Z" clip-rule="evenodd"/>
</svg>
