<svg xmlns="http://www.w3.org/2000/svg" width="24" height="24" fill="none">
  <path fill="#1C274D" fill-rule="evenodd" d="M12 22c-4.714 0-7.071 0-8.536-1.465C2 19.072 2 16.714 2 12s0-7.071 1.464-8.536C4.93 2 7.286 2 12 2c4.714 0 7.071 0 8.535 1.464C22 4.93 22 7.286 22 12c0 4.714 0 7.071-1.465 8.535C19.072 22 16.714 22 12 22ZM8.75 6.5a.75.75 0 1 0-1.5 0v1.25H6a.75.75 0 0 0 0 1.5h1.25v1.25a.75.75 0 0 0 1.5 0V9.25H10a.75.75 0 0 0 0-1.5H8.75V6.5ZM14 7.75a.75.75 0 0 0 0 1.5h4a.75.75 0 0 0 0-1.5h-4Zm0 6a.75.75 0 0 0 0 1.5h4a.75.75 0 0 0 0-1.5h-4Zm-6.97.22a.75.75 0 0 0-1.06 1.06l.97.97-.97.97a.75.75 0 1 0 1.06 1.06l.97-.97.97.97a.75.75 0 1 0 1.06-1.06L9.06 16l.97-.97a.75.75 0 1 0-1.06-1.06l-.97.97-.97-.97ZM14 16.75a.75.75 0 0 0 0 1.5h4a.75.75 0 0 0 0-1.5h-4Z" clip-rule="evenodd"/>
</svg>
