<svg xmlns="http://www.w3.org/2000/svg" width="24" height="24" fill="none">
  <path stroke="#1C274D" stroke-linecap="round" stroke-width="1.5" d="M21 12c0 4.714 0 7.071-1.318 8.535C18.364 22 16.242 22 12 22c-4.243 0-6.364 0-7.682-1.465C3 19.072 3 16.714 3 12s0-7.071 1.318-8.536C5.636 2 7.758 2 12 2c4.243 0 6.364 0 7.682 1.464.876.974 1.17 2.343 1.268 4.536"/>
  <path stroke="#1C274D" stroke-width="1.5" d="M7 8c0-.465 0-.697.051-.888a1.5 1.5 0 0 1 1.06-1.06C8.304 6 8.536 6 9 6h6c.465 0 .697 0 .888.051a1.5 1.5 0 0 1 1.06 1.06C17 7.304 17 7.536 17 8s0 .697-.051.888a1.5 1.5 0 0 1-1.06 1.06C15.697 10 15.464 10 15 10H9c-.465 0-.697 0-.888-.051a1.5 1.5 0 0 1-1.06-1.06C7 8.696 7 8.464 7 8Z"/>
  <circle cx="8" cy="13" r="1" fill="#1C274D"/>
  <circle cx="8" cy="17" r="1" fill="#1C274D"/>
  <circle cx="12" cy="13" r="1" fill="#1C274D"/>
  <circle cx="12" cy="17" r="1" fill="#1C274D"/>
  <circle cx="16" cy="13" r="1" fill="#1C274D"/>
  <circle cx="16" cy="17" r="1" fill="#1C274D"/>
</svg>
