<svg xmlns="http://www.w3.org/2000/svg" width="24" height="24" fill="none">
  <g fill="#1C274C">
    <path fill-rule="evenodd" d="M18 15.75a2.25 2.25 0 1 0 0 4.5 2.25 2.25 0 0 0 0-4.5ZM14.25 18a3.75 3.75 0 1 1 6.879 2.068l1.401 1.402a.75.75 0 1 1-1.06 1.06l-1.402-1.401A3.75 3.75 0 0 1 14.25 18Z" clip-rule="evenodd"/>
    <path d="M7.75 2.5a.75.75 0 0 0-1.5 0v1.58c-1.44.115-2.384.397-3.078 1.092-.695.694-.977 1.639-1.093 3.078h19.842c-.116-1.44-.398-2.384-1.093-3.078-.694-.695-1.639-.977-3.078-1.093V2.5a.75.75 0 0 0-1.5 0v1.513C15.585 4 14.839 4 14 4h-4c-.839 0-1.585 0-2.25.013V2.5ZM22 12v2.6a5.25 5.25 0 1 0-7.4 7.4H10c-3.771 0-5.657 0-6.828-1.172C2 19.657 2 17.771 2 14v-2c0-.839 0-1.585.013-2.25h19.974C22 10.415 22 11.161 22 12Z"/>
  </g>
</svg>
