<svg xmlns="http://www.w3.org/2000/svg" width="24" height="24" fill="none">
  <g stroke="#1C274C" stroke-linecap="round" stroke-width="1.5">
    <path d="M7 4V2.5M17 4V2.5"/>
    <path stroke-linejoin="round" d="m9 14.5 1.5-1.5v4"/>
    <path d="M13 16v-2a1 1 0 1 1 2 0v2a1 1 0 1 1-2 0Zm8.5-7H10.75M2 9h3.875"/>
    <path d="M14 22h-4c-3.771 0-5.657 0-6.828-1.172C2 19.657 2 17.771 2 14v-2c0-3.771 0-5.657 1.172-6.828C4.343 4 6.229 4 10 4h4c3.771 0 5.657 0 6.828 1.172C22 6.343 22 8.229 22 12v2c0 3.771 0 5.657-1.172 6.828-.653.654-1.528.943-2.828 1.07"/>
  </g>
</svg>
