<svg xmlns="http://www.w3.org/2000/svg" width="24" height="24" fill="none">
  <path fill="#1C274C" fill-rule="evenodd" d="M7 1.75a.75.75 0 0 1 .75.75v.763c.662-.013 1.391-.013 2.194-.013h4.112c.803 0 1.532 0 2.194.013V2.5a.75.75 0 0 1 1.5 0v.827c.26.02.506.045.739.076 1.172.158 2.121.49 2.87 1.238.748.749 1.08 1.698 1.238 2.87.05.375.084.784.107 1.23a.747.747 0 0 1 .019.46c.027.801.027 1.712.027 2.743v2.112c0 1.838 0 3.294-.153 4.433-.158 1.172-.49 2.121-1.238 2.87-.749.748-1.698 1.08-2.87 1.238-1.14.153-2.595.153-4.433.153H9.944c-1.838 0-3.294 0-4.433-.153-1.172-.158-2.121-.49-2.87-1.238-.748-.749-1.08-1.698-1.238-2.87-.153-1.14-.153-2.595-.153-4.433v-2.112c0-1.031 0-1.942.027-2.744a.75.75 0 0 1 .02-.46c.022-.445.056-.854.106-1.229.158-1.172.49-2.121 1.238-2.87.749-.748 1.698-1.08 2.87-1.238.233-.031.48-.056.739-.076V2.5A.75.75 0 0 1 7 1.75Zm-4.237 8c-.013.653-.013 1.396-.013 2.25v2c0 1.907.002 3.262.14 4.29.135 1.005.389 1.585.812 2.008.423.423 1.003.677 2.009.812 1.028.138 2.382.14 4.289.14h4c1.907 0 3.262-.002 4.29-.14 1.005-.135 1.585-.389 2.008-.812.423-.423.677-1.003.812-2.009.138-1.027.14-2.382.14-4.289v-2c0-.854 0-1.597-.013-2.25H2.763Zm18.405-1.5H2.832c.016-.19.035-.369.058-.54.135-1.005.389-1.585.812-2.008.423-.423 1.003-.677 2.009-.812 1.028-.138 2.382-.14 4.289-.14h4c1.907 0 3.262.002 4.29.14 1.005.135 1.585.389 2.008.812.423.423.677 1.003.812 2.009.023.17.042.35.058.539Zm-5.168 5a.75.75 0 0 1 .75.75v1.25H18a.75.75 0 0 1 0 1.5h-1.25V18a.75.75 0 0 1-1.5 0v-1.25H14a.75.75 0 0 1 0-1.5h1.25V14a.75.75 0 0 1 .75-.75Z" clip-rule="evenodd"/>
</svg>
