<svg xmlns="http://www.w3.org/2000/svg" width="24" height="24" fill="none">
  <path stroke="#1C274C" stroke-linecap="round" stroke-width="1.5" d="m20 4-4 4m0-4 4 4M4.007 7.933c-.073 1.908.41 5.149 3.66 8.4a14.156 14.156 0 0 0 2.333 1.9M5.538 4.937c1.393-1.393 3.615-1.206 4.5.38l.649 1.162c.585 1.05.35 2.426-.572 3.349 0 0 0 0 0 0s-1.12 1.119.91 3.148c2.027 2.027 3.146.91 3.147.91 0 0 0 0 0 0 .923-.923 2.3-1.158 3.349-.573l1.163.65c1.585.884 1.772 3.106.379 4.5-.837.836-1.863 1.488-2.996 1.53A9.79 9.79 0 0 1 13 19.611"/>
</svg>
