<svg xmlns="http://www.w3.org/2000/svg" width="24" height="24" fill="none">
  <path fill="#1C274C" fill-rule="evenodd" d="M8.418 3.25c.28-.59.883-1 1.582-1h4c.698 0 1.301.41 1.582 1 .683.006 1.216.037 1.692.223a3.25 3.25 0 0 1 1.426 1.09c.367.493.539 1.127.776 1.998l.037.136.59 2.167a2.98 2.98 0 0 1 1.01.828c.622.797.732 1.746.622 2.834-.108 1.056-.44 2.386-.856 4.051l-.027.105c-.263 1.053-.477 1.908-.73 2.575-.266.696-.602 1.266-1.157 1.699-.554.433-1.189.62-1.928.71-.709.084-1.59.084-2.675.084H9.638c-1.085 0-1.967 0-2.675-.085-.74-.088-1.374-.276-1.929-.71-.554-.432-.89-1.002-1.156-1.698-.254-.667-.467-1.522-.73-2.575l-.027-.105c-.416-1.665-.749-2.995-.856-4.05-.11-1.09 0-2.038.621-2.835.283-.362.622-.63 1.01-.828l.59-2.167.038-.136c.237-.871.409-1.505.776-1.999a3.25 3.25 0 0 1 1.426-1.089c.476-.186 1.008-.217 1.692-.222Zm.001 1.502c-.662.007-.927.032-1.147.118a1.75 1.75 0 0 0-.768.587c-.176.237-.28.568-.57 1.635L5.58 8.389c1.038-.139 2.378-.139 4.042-.139h4.755c1.665 0 3.005 0 4.042.139l-.353-1.297c-.291-1.067-.394-1.398-.57-1.635a1.75 1.75 0 0 0-.768-.587c-.22-.086-.486-.111-1.148-.118A1.75 1.75 0 0 1 14 5.75h-4a1.75 1.75 0 0 1-1.58-.998ZM10 3.75a.25.25 0 0 0 0 .5h4a.25.25 0 0 0 0-.5h-4ZM5.7 9.886c-.91.132-1.351.372-1.63.73-.28.357-.405.842-.312 1.758.095.936.4 2.16.834 3.9.278 1.108.47 1.876.69 2.45.21.554.417.847.677 1.05.259.202.593.331 1.183.402.61.073 1.4.074 2.544.074h4.63c1.143 0 1.935-.001 2.544-.074.59-.07.924-.2 1.183-.402.26-.203.466-.496.678-1.05.218-.574.411-1.342.688-2.45.435-1.74.74-2.964.834-3.9.094-.916-.032-1.402-.311-1.759s-.72-.597-1.631-.729c-.93-.134-2.192-.136-3.985-.136h-4.63c-1.793 0-3.055.002-3.985.136Z" clip-rule="evenodd"/>
</svg>
