<svg xmlns="http://www.w3.org/2000/svg" width="24" height="24" fill="none">
  <path fill="#1C274C" fill-rule="evenodd" d="M3.04 2.292a.75.75 0 0 0-.497 1.416l.261.091c.668.235 1.107.39 1.43.549.303.149.436.27.524.398.09.132.16.314.2.677.04.38.042.875.042 1.615V9.64c0 2.942.063 3.912.93 4.826.866.914 2.26.914 5.05.914h5.302c1.561 0 2.342 0 2.893-.45.552-.45.71-1.214 1.025-2.742l.5-2.425c.347-1.74.52-2.609.076-3.186S18.816 6 17.131 6H6.492a9.033 9.033 0 0 0-.043-.738c-.054-.497-.17-.95-.452-1.362-.284-.416-.662-.682-1.103-.899-.412-.202-.936-.386-1.552-.603l-.302-.106Zm7.2 6.583a.75.75 0 0 0-1.48.25l.529 3.118a.75.75 0 0 0 1.479-.25l-.529-3.118Zm5.414-.614a.75.75 0 0 0-.865.614l-.528 3.118a.75.75 0 1 0 1.479.25l.528-3.118a.75.75 0 0 0-.614-.864ZM7.5 18a1.5 1.5 0 1 1 0 3 1.5 1.5 0 0 1 0-3Zm9 0a1.5 1.5 0 1 1 0 3 1.5 1.5 0 0 1 0-3Z" clip-rule="evenodd"/>
</svg>
