<svg xmlns="http://www.w3.org/2000/svg" width="24" height="24" fill="none">
  <g stroke="#1C274C" stroke-width="1.5">
    <path stroke-linecap="round" d="M3.864 16.455c.546 2.183.819 3.274 1.632 3.91C6.31 21 7.435 21 9.685 21h4.63c2.25 0 3.375 0 4.19-.635.813-.636 1.086-1.727 1.631-3.91.858-3.432 1.287-5.147.387-6.301C19.622 9 17.852 9 14.316 9H9.684c-3.538 0-5.306 0-6.207 1.154-.529.677-.6 1.548-.394 2.846"/>
    <path d="m19.5 9.5-.71-2.605c-.274-1.005-.411-1.507-.692-1.886A2.5 2.5 0 0 0 17 4.172C16.56 4 16.04 4 15 4M4.5 9.5l.71-2.605c.274-1.005.411-1.507.692-1.886A2.5 2.5 0 0 1 7 4.172C7.44 4 7.96 4 9 4"/>
    <path d="M9 4a1 1 0 0 1 1-1h4a1 1 0 1 1 0 2h-4a1 1 0 0 1-1-1Z"/>
  </g>
</svg>
