<svg xmlns="http://www.w3.org/2000/svg" width="24" height="24" fill="none">
  <g stroke="#1C274C" stroke-linecap="round" stroke-width="1.5">
    <path d="M20.016 16.257c-.487 2.273-.73 3.409-1.555 4.076-.825.667-1.987.667-4.311.667h-4.3c-2.324 0-3.486 0-4.31-.667-.826-.667-1.07-1.803-1.556-4.076l-.429-2c-.718-3.353-1.078-5.03-.177-6.143C4.278 7 5.993 7 9.422 7h5.156c3.43 0 5.143 0 6.044 1.114.67.83.643 1.972.288 3.886"/>
    <path stroke-linejoin="round" d="M16 12h-4m-3 0H8m2 3h4m4-6-3-6M6 9l3-6"/>
  </g>
</svg>
