<svg xmlns="http://www.w3.org/2000/svg" width="24" height="24" fill="none">
  <path fill="#1C274C" fill-rule="evenodd" d="M2.237 2.288a.75.75 0 1 0-.474 1.424l.265.088c.676.225 1.124.376 1.453.529.312.145.447.262.533.382.087.12.155.284.194.626.041.361.042.833.042 1.546v2.672c0 1.367 0 2.47.117 3.337.12.9.38 1.658.982 2.26.601.602 1.36.86 2.26.982.866.116 1.969.116 3.336.116H19a.75.75 0 0 0 0-1.5h-8c-1.435 0-2.436-.002-3.192-.103-.733-.099-1.122-.28-1.399-.556a1.496 1.496 0 0 1-.255-.341h9.905c.448 0 .842 0 1.17-.035.354-.039.698-.124 1.02-.337.324-.213.537-.495.712-.806.161-.286.317-.649.493-1.061l.467-1.09c.385-.896.706-1.647.867-2.257.168-.637.212-1.302-.184-1.903-.396-.6-1.025-.822-1.676-.919-.625-.092-1.441-.092-2.417-.092H5.707a5.204 5.204 0 0 0-.009-.083c-.055-.485-.176-.93-.467-1.333-.291-.404-.675-.66-1.117-.865-.417-.194-.946-.37-1.572-.58l-.305-.1ZM5.75 6.75V9.5c0 1.172.001 2.054.057 2.75h10.215c.496 0 .809-.001 1.046-.027.219-.023.303-.062.356-.097.053-.035.122-.097.23-.289.117-.208.24-.495.436-.95l.429-1c.414-.968.69-1.616.819-2.106.126-.476.062-.62.014-.694-.049-.073-.157-.189-.644-.26-.501-.075-1.205-.077-2.257-.077H5.75Zm-.5 12.75a2.25 2.25 0 1 0 4.5 0 2.25 2.25 0 0 0-4.5 0Zm2.25.75a.75.75 0 1 1 0-1.5.75.75 0 0 1 0 1.5Zm9 1.5a2.25 2.25 0 1 1 0-4.5 2.25 2.25 0 0 1 0 4.5Zm-.75-2.25a.75.75 0 1 0 1.5 0 .75.75 0 0 0-1.5 0Z" clip-rule="evenodd"/>
</svg>
