<svg xmlns="http://www.w3.org/2000/svg" width="24" height="24" fill="none">
  <path fill="#1C274C" fill-rule="evenodd" d="M9.638 21.75c-1.085 0-1.967 0-2.675-.085-.74-.088-1.374-.276-1.929-.71-.554-.432-.89-1.002-1.156-1.698-.254-.667-.467-1.522-.73-2.575l-.027-.105c-.416-1.665-.749-2.995-.856-4.05-.11-1.09 0-2.038.621-2.835.283-.362.622-.63 1.01-.828l.628-2.303c.237-.871.41-1.505.776-1.999a3.25 3.25 0 0 1 1.426-1.089c.476-.186 1.008-.217 1.692-.222A1.75 1.75 0 0 1 10 2.25h4c.698 0 1.301.41 1.582 1 .683.006 1.216.037 1.692.223a3.25 3.25 0 0 1 1.426 1.09c.367.493.539 1.127.776 1.998l.628 2.303c.387.199.727.466 1.01.828.621.797.731 1.746.62 2.834-.107 1.056-.44 2.386-.855 4.05l-.027.106c-.263 1.053-.477 1.908-.73 2.575-.266.696-.602 1.266-1.157 1.699-.554.433-1.189.62-1.928.71-.709.084-1.59.084-2.675.084H9.638ZM7.272 4.87c.22-.086.486-.111 1.147-.118.282.59.884.998 1.58.998h4c.698 0 1.3-.408 1.582-.998.661.007.927.032 1.147.118.306.12.572.323.768.587.176.237.279.568.57 1.635l.354 1.297c-1.038-.139-2.378-.139-4.043-.139H9.622c-1.664 0-3.004 0-4.042.139l.354-1.297c.29-1.067.394-1.398.57-1.635a1.75 1.75 0 0 1 .768-.587ZM10.4 9.75h-.714c-1.793 0-3.055.002-3.985.136a6.115 6.115 0 0 0-.331.057l2.19 3.213L10.4 9.75Zm-6.36.905c-.258.354-.371.837-.282 1.72.095.935.4 2.16.834 3.898l.086.343 1.884-2.261-2.522-3.7Zm1.12 7.725c.04.122.08.236.121.343.211.555.418.848.678 1.05.259.203.593.332 1.183.403.61.073 1.4.074 2.544.074h.896L7.44 15.643 5.16 18.38Zm8.26 1.87 3.153-4.625 2.268 2.754c-.04.122-.08.237-.12.344-.212.555-.419.848-.678 1.05-.259.203-.594.332-1.183.403-.61.073-1.4.074-2.544.074h-.896Zm5.906-3.642.083-.335c.435-1.739.74-2.963.834-3.899.09-.882-.023-1.365-.281-1.719l-2.508 3.68 1.872 2.273Zm-.694-6.665a6.1 6.1 0 0 0-.331-.057c-.93-.134-2.192-.136-3.985-.136h-.638l2.782 3.378 2.172-3.185ZM10 3.75a.25.25 0 0 0 0 .5h4a.25.25 0 1 0 0-.5h-4Zm2.04 6.372 3.54 4.297-3.58 5.25-3.562-5.224 3.603-4.323Z" clip-rule="evenodd"/>
</svg>
