<svg xmlns="http://www.w3.org/2000/svg" width="24" height="24" fill="none">
  <g stroke="#1C274C" stroke-width="1.5">
    <path stroke-linecap="round" d="m2 3 .265.088c1.32.44 1.98.66 2.357 1.184C5 4.796 5 5.492 5 6.883V9.5c0 2.828 0 4.243.879 5.121.878.879 2.293.879 5.121.879h8"/>
    <path d="M7.5 18a1.5 1.5 0 1 1 0 3 1.5 1.5 0 0 1 0-3Zm9 0a1.5 1.5 0 1 1 0 3 1.5 1.5 0 0 1 0-3ZM5 6h11.45c2.055 0 3.083 0 3.527.674.445.675.04 1.619-.77 3.508l-.428 1c-.378.882-.567 1.322-.942 1.57-.376.248-.856.248-1.815.248H5"/>
  </g>
</svg>
