<svg xmlns="http://www.w3.org/2000/svg" width="24" height="24" fill="none">
  <g fill="#1C274C">
    <path d="M8.418 3.25c.28-.59.884-1 1.582-1h4c.698 0 1.301.41 1.582 1 .683.006 1.216.037 1.692.223a3.25 3.25 0 0 1 1.426 1.09c.367.494.54 1.127.776 1.998l.037.136.002.007.874 3.324.012-.017c.042.045.082.093.121.143.901 1.154.472 2.87-.386 6.301-.078.313-.15.603-.22.873l-2.477-2.973 1.83-2.685-.505-1.922-2.324 3.409L12.976 9h1.34c1.893 0 3.28 0 4.298.177l-.549-2.088c-.29-1.064-.393-1.395-.57-1.632a1.75 1.75 0 0 0-.767-.587c-.22-.086-.486-.111-1.148-.118A1.75 1.75 0 0 1 14 5.75h-4a1.75 1.75 0 0 1-1.58-.998c-.662.007-.928.032-1.148.118a1.75 1.75 0 0 0-.768.587c-.176.237-.279.568-.57 1.632l-.548 2.088C6.404 9 7.791 9 9.685 9h1.339L7.56 13.157 5.236 9.748 4.73 11.67l1.83 2.685-2.477 2.973c-.07-.27-.142-.56-.22-.873-.858-3.431-1.287-5.147-.386-6.301.039-.05.08-.098.121-.143l.012.017.874-3.324.002-.007.037-.136c.237-.871.41-1.505.776-1.999a3.25 3.25 0 0 1 1.426-1.089c.476-.186 1.008-.217 1.692-.222Z"/>
    <path d="M4.602 19.05c.233.593.5 1.007.894 1.315C6.31 21 7.435 21 9.685 21h1.407L7.44 15.644l-2.838 3.405ZM12.908 21h1.407c2.25 0 3.375 0 4.189-.635.394-.308.661-.722.894-1.316l-2.838-3.405L12.908 21ZM12 19.669l-3.561-5.224L12 10.172l3.561 4.273L12 19.67Z"/>
  </g>
</svg>
