<svg xmlns="http://www.w3.org/2000/svg" width="24" height="24" fill="none">
  <g stroke="#1C274C" stroke-width="1.5">
    <path d="M7.5 18a1.5 1.5 0 1 1 0 3 1.5 1.5 0 0 1 0-3Zm9 0a1.5 1.5 0 1 1 0 3 1.5 1.5 0 0 1 0-3Z"/>
    <path stroke-linecap="round" d="m16.5 6.5-1.5 9m-6-9 1.5 8.5M2 3l.261.092c1.302.457 1.953.686 2.325 1.231.372.545.372 1.268.372 2.715V9.76c0 2.942.063 3.912.93 4.826.866.914 2.26.914 5.05.914H12M4.958 6.12H9m4 0h4.089c1.685 0 3.202 0 3.646.577.443.577.27 1.447-.077 3.186l-.5 2.425c-.315 1.528-.473 2.293-1.024 2.742-.552.45-1.333.45-2.894.45H15"/>
  </g>
</svg>
