<svg xmlns="http://www.w3.org/2000/svg" width="24" height="24" fill="none">
  <path fill="#1C274C" fill-rule="evenodd" d="M10 2.25a1.75 1.75 0 0 0-1.582 1c-.684.006-1.216.037-1.692.223A3.25 3.25 0 0 0 5.3 4.563c-.367.493-.54 1.127-.776 1.998l-.047.17-.513 2.964c-.185.128-.346.28-.486.459-.901 1.153-.472 2.87.386 6.301.545 2.183.818 3.274 1.632 3.91C6.31 21 7.435 21 9.685 21h4.63c2.25 0 3.375 0 4.189-.635.814-.636 1.086-1.727 1.632-3.91.858-3.432 1.287-5.147.386-6.301a2.186 2.186 0 0 0-.487-.46l-.513-2.962-.046-.17c-.237-.872-.41-1.506-.776-2a3.25 3.25 0 0 0-1.426-1.089c-.476-.186-1.009-.217-1.692-.222A1.75 1.75 0 0 0 14 2.25h-4Zm8.418 6.896-.362-2.088c-.283-1.04-.386-1.367-.56-1.601a1.75 1.75 0 0 0-.768-.587c-.22-.086-.486-.111-1.148-.118A1.75 1.75 0 0 1 14 5.75h-4a1.75 1.75 0 0 1-1.58-.998c-.663.007-.928.032-1.148.118a1.75 1.75 0 0 0-.768.587c-.174.234-.277.56-.56 1.6l-.362 2.089C6.58 9 7.91 9 9.685 9h4.63c1.775 0 3.105 0 4.103.146ZM8 12.25a.75.75 0 0 1 .75.75v4a.75.75 0 0 1-1.5 0v-4a.75.75 0 0 1 .75-.75Zm8.75.75a.75.75 0 0 0-1.5 0v4a.75.75 0 0 0 1.5 0v-4ZM12 12.25a.75.75 0 0 1 .75.75v4a.75.75 0 0 1-1.5 0v-4a.75.75 0 0 1 .75-.75Z" clip-rule="evenodd"/>
</svg>
