<svg xmlns="http://www.w3.org/2000/svg" width="24" height="24" fill="none">
  <path fill="#1C274D" fill-rule="evenodd" d="M9.944 5.25h4.112c1.838 0 3.294 0 4.433.153 1.172.158 2.121.49 2.87 1.238.748.749 1.08 1.698 1.238 2.87.153 1.14.153 2.595.153 4.433v.112c0 1.838 0 3.294-.153 4.433-.158 1.172-.49 2.121-1.238 2.87-.749.748-1.698 1.08-2.87 1.238-1.14.153-2.595.153-4.433.153H9.944c-1.838 0-3.294 0-4.433-.153-1.172-.158-2.121-.49-2.87-1.238-.748-.749-1.08-1.698-1.238-2.87-.153-1.14-.153-2.595-.153-4.433v-.112c0-1.838 0-3.294.153-4.433.158-1.172.49-2.121 1.238-2.87.749-.748 1.698-1.08 2.87-1.238 1.14-.153 2.595-.153 4.433-.153ZM5.71 6.89c-1.006.135-1.586.389-2.01.812a2.3 2.3 0 0 0-.476.7c1.827 1.186 3.028 1.95 4.038 2.456A.75.75 0 0 1 8.75 11v.458c2.12.64 4.38.64 6.5 0V11a.75.75 0 0 1 1.486-.142c1.011-.505 2.212-1.27 4.039-2.457a2.3 2.3 0 0 0-.477-.7c-.423-.422-1.003-.676-2.009-.811-1.027-.138-2.382-.14-4.289-.14h-4c-1.907 0-3.261.002-4.29.14Zm15.43 3.063c-1.887 1.223-3.181 2.032-4.39 2.552V13a.75.75 0 0 1-1.5.016 12.75 12.75 0 0 1-6.5 0A.75.75 0 0 1 7.25 13v-.495c-1.208-.52-2.503-1.33-4.39-2.552-.109.996-.11 2.286-.11 4.047 0 1.907.002 3.262.14 4.29.135 1.005.389 1.585.812 2.008.423.423 1.003.677 2.009.812 1.028.138 2.382.14 4.289.14h4c1.907 0 3.262-.002 4.29-.14 1.005-.135 1.585-.389 2.008-.812.423-.423.677-1.003.812-2.009.138-1.027.14-2.382.14-4.289 0-1.76-.001-3.05-.11-4.047ZM12 2.75a2.25 2.25 0 0 0-2.122 1.5.75.75 0 1 1-1.414-.5 3.751 3.751 0 0 1 7.072 0 .75.75 0 0 1-1.414.5A2.251 2.251 0 0 0 12 2.75Z" clip-rule="evenodd"/>
</svg>
