<svg xmlns="http://www.w3.org/2000/svg" width="24" height="24" fill="none">
  <g stroke="#1C274D" stroke-width="1.5">
    <path d="M3 12c0 3.771 0 7.657 1.318 8.828C5.636 22 7.758 22 12 22c4.243 0 6.364 0 7.682-1.172C21 19.657 21 15.771 21 12" opacity=".5"/>
    <path d="m14.66 14.202 6.008-1.802c.595-.179.893-.268 1.082-.482a.996.996 0 0 0 .1-.134c.15-.243.15-.553.15-1.175 0-2.45 0-3.675-.673-4.502a2.997 2.997 0 0 0-.434-.434C20.066 5 18.841 5 16.391 5H7.61c-2.45 0-3.675 0-4.502.673-.16.13-.305.275-.434.434C2 6.934 2 8.159 2 10.609c0 .622 0 .932.15 1.175.03.047.063.092.1.134.19.214.487.303 1.082.482l6.008 1.802"/>
    <path d="M6.5 5c.823-.02 1.66-.545 1.94-1.32l.035-.103L8.5 3.5c.042-.127.064-.19.086-.246a2 2 0 0 1 1.735-1.25C10.38 2 10.448 2 10.58 2h2.838c.133 0 .2 0 .26.004a2 2 0 0 1 1.735 1.25c.023.056.044.12.086.246l.026.077c.018.053.026.08.035.103.28.775 1.116 1.3 1.939 1.32" opacity=".5"/>
    <path stroke-linecap="round" d="M14 12.5h-4a.5.5 0 0 0-.5.5v2.162a.5.5 0 0 0 .314.464l.7.28a4 4 0 0 0 2.972 0l.7-.28a.5.5 0 0 0 .314-.464V13a.5.5 0 0 0-.5-.5Z"/>
  </g>
</svg>
