<svg xmlns="http://www.w3.org/2000/svg" width="24" height="24" fill="none">
  <g fill="#1C274C">
    <path d="M11.25 6H9c-1.886 0-2.828 0-3.414.586C5 7.172 5 8.114 5 10v6.25h14V10c0-1.886 0-2.828-.586-3.414C17.828 6 16.886 6 15 6h-2.25v4.973l.68-.794a.75.75 0 1 1 1.14.976l-2 2.333a.75.75 0 0 1-1.14 0l-2-2.333a.75.75 0 0 1 1.14-.976l.68.794V6ZM5.03 17.75h13.94c-.052.79-.189 1.297-.556 1.664C17.828 20 16.886 20 15 20H9c-1.886 0-2.828 0-3.414-.586-.367-.367-.504-.873-.555-1.664Z"/>
    <path d="M5.889 3H18.11C20.26 3 22 4.8 22 7.02c0 1.29-.587 2.437-1.5 3.173v-.282c0-.866 0-1.66-.087-2.305-.095-.711-.32-1.463-.938-2.08-.618-.619-1.37-.844-2.08-.94-.646-.086-1.44-.086-2.306-.086H8.91c-.865 0-1.659 0-2.304.087-.711.095-1.463.32-2.08.938-.619.618-.844 1.37-.94 2.08-.086.646-.086 1.44-.086 2.306v.282A4.063 4.063 0 0 1 2 7.02C2 4.8 3.741 3 5.889 3Z"/>
  </g>
</svg>
