<svg xmlns="http://www.w3.org/2000/svg" width="24" height="24" fill="none">
  <path fill="#1C274C" fill-rule="evenodd" d="M11.75 6.406c-1.48 0-1.628.157-2.394.157C8.718 6.563 6.802 5 5.845 5c-.958 0-2.075.563-2.075 2.188v1.875c.002.492.18 2 .88 1.597-.827.978-.91 2.119-.899 3.223-.223.064-.45.137-.671.212-.684.234-1.41.532-1.737.744a.75.75 0 0 0 .814 1.26c.156-.101.721-.35 1.408-.585l.228-.075c.046.433.161.83.332 1.19l-.024.013c-.41.216-.79.465-1.032.623l-.113.074a.75.75 0 1 0 .814 1.26l.131-.086c.245-.16.559-.365.901-.545.08-.043.157-.081.231-.116C6.763 19.475 9.87 20 11.75 20s4.987-.525 6.717-2.148c.074.035.15.073.231.116.342.18.656.385.901.545l.131.086a.75.75 0 0 0 .814-1.26l-.113-.074a13.008 13.008 0 0 0-1.032-.623l-.024-.013c.171-.36.286-.757.332-1.19l.228.075c.687.235 1.252.484 1.409.585a.75.75 0 0 0 .813-1.26c-.327-.212-1.053-.51-1.736-.744a16.343 16.343 0 0 0-.672-.213c.012-1.104-.072-2.244-.9-3.222.7.403.88-1.105.881-1.598V7.188C19.73 5.563 18.613 5 17.655 5c-.957 0-2.873 1.563-3.51 1.563-.767 0-.915-.157-2.395-.157Zm-.675 9.194c.202-.069.441-.1.675-.1.234 0 .473.031.676.1.1.034.22.088.328.174a.619.619 0 0 1 .246.476c0 .23-.139.39-.246.476-.107.086-.229.14-.328.174a2.15 2.15 0 0 1-.676.1 2.14 2.14 0 0 1-.675-.1 1.078 1.078 0 0 1-.329-.174.619.619 0 0 1-.246-.476c0-.23.139-.39.246-.476.107-.086.23-.14.329-.174Zm2.845-3.1c.137-.228.406-.5.81-.5s.674.272.81.5c.142.239.21.527.21.813 0 .285-.068.573-.21.811-.136.229-.406.501-.81.501s-.673-.272-.81-.5a1.596 1.596 0 0 1-.21-.813c0-.285.068-.573.21-.811Zm-5.96 0c.137-.228.406-.5.81-.5s.674.272.81.5c.142.239.21.527.21.813 0 .285-.068.573-.21.811-.136.229-.406.501-.81.501s-.673-.272-.81-.5a1.596 1.596 0 0 1-.21-.813c0-.285.068-.573.21-.811Z" clip-rule="evenodd"/>
</svg>
