<svg xmlns="http://www.w3.org/2000/svg" width="24" height="24" fill="none">
  <path fill="#1C274C" d="M7.402 4.5C7 5.196 7 6.13 7 8v3.027C7.43 11 7.914 11 8.435 11h7.13c.52 0 1.005 0 1.435.027V8c0-1.87 0-2.804-.402-3.5A3 3 0 0 0 15.5 3.402C14.804 3 13.87 3 12 3s-2.804 0-3.5.402A3 3 0 0 0 7.402 4.5ZM6.25 15.991c-.502-.02-.806-.088-1.014-.315-.297-.324-.258-.774-.18-1.675.055-.65.181-1.088.467-1.415C6.035 12 6.858 12 8.505 12h6.99c1.647 0 2.47 0 2.982.586.286.326.412.764.468 1.415.077.9.116 1.351-.181 1.675-.208.227-.512.295-1.014.315V21a.75.75 0 1 1-1.5 0v-5h-8.5v5a.75.75 0 1 1-1.5 0v-5.01Z"/>
</svg>
