<svg xmlns="http://www.w3.org/2000/svg" width="24" height="24" fill="none">
  <g fill="#1C274C">
    <path d="M5.25 15.5c0-.966.784-1.75 1.75-1.75h10c.966 0 1.75.784 1.75 1.75A2.75 2.75 0 0 1 16 18.25H8a2.75 2.75 0 0 1-2.75-2.75Zm1.378-8.734c.242-2.012.362-3.017.944-3.704a3 3 0 0 1 .638-.566C8.96 2 9.974 2 12 2s3.039 0 3.79.496a3 3 0 0 1 .638.566c.582.687.703 1.692.944 3.704l.091.757c.25 2.088.376 3.132-.221 3.804-.597.673-1.648.673-3.75.673h-2.983c-2.103 0-3.154 0-3.75-.673-.597-.672-.472-1.716-.222-3.804l.091-.757Z"/>
    <path d="M2 10.75a.75.75 0 0 0 0 1.5c.827 0 1.29.092 1.574.218.249.11.41.265.581.547.03.05.043.071.056.096.013.024.031.058.063.127.05.11.075.18.15.404l.864 2.595a.748.748 0 0 0 .147.256 2.743 2.743 0 0 1-.185-.993c0-.646.35-1.21.87-1.513l-.28-.837a4.692 4.692 0 0 0-.205-.543 3.078 3.078 0 0 0-.198-.371c-.285-.469-.656-.876-1.258-1.14-.566-.25-1.274-.346-2.179-.346Zm10.75 3h-1.5V12h1.5v1.75Zm5.815 2.743a2.73 2.73 0 0 0 .185-.993c0-.646-.35-1.21-.87-1.513l.28-.837a4.57 4.57 0 0 1 .205-.543c.086-.185.13-.258.198-.371.285-.469.657-.876 1.258-1.14.566-.25 1.274-.346 2.179-.346a.75.75 0 0 1 0 1.5c-.827 0-1.29.092-1.574.218-.249.11-.41.265-.581.547-.03.05-.043.071-.056.096a2.24 2.24 0 0 0-.063.127c-.05.11-.075.18-.15.404l-.864 2.595a.747.747 0 0 1-.147.256ZM11.25 18.25h1.5v1.166a3.63 3.63 0 0 1 2.461 2.347.75.75 0 0 1-1.422.474 2.13 2.13 0 0 0-1.039-1.216V22a.75.75 0 0 1-1.5 0v-.98a2.13 2.13 0 0 0-1.039 1.217.75.75 0 0 1-1.423-.474 3.63 3.63 0 0 1 2.462-2.347V18.25Z" opacity=".5"/>
  </g>
</svg>
