<svg xmlns="http://www.w3.org/2000/svg" width="24" height="24" fill="none">
  <path fill="#1C274C" fill-rule="evenodd" d="M12.05 1.25h-.1c-.664 0-1.237 0-1.696.062-.491.066-.963.215-1.345.597s-.531.854-.597 1.345c-.062.459-.062 1.032-.062 1.697v2.427a2.246 2.246 0 0 0-.75-.128h-3A2.25 2.25 0 0 0 2.25 9.5v11.75H2a.75.75 0 0 0 0 1.5h20a.75.75 0 0 0 0-1.5h-.25V14.5a2.25 2.25 0 0 0-2.25-2.25h-3c-.263 0-.515.045-.75.128V4.951c0-.665 0-1.238-.062-1.697-.066-.491-.215-.963-.597-1.345s-.853-.531-1.345-.597c-.459-.062-1.032-.062-1.697-.062Zm8.2 20V14.5a.75.75 0 0 0-.75-.75h-3a.75.75 0 0 0-.75.75v6.75h4.5Zm-6 0V5c0-.728-.002-1.2-.048-1.546-.044-.325-.115-.427-.172-.484-.057-.057-.159-.128-.484-.172-.347-.046-.818-.048-1.546-.048-.728 0-1.2.002-1.546.048-.325.044-.427.115-.484.172-.057.057-.128.159-.172.484-.046.347-.048.818-.048 1.546v16.25h4.5Zm-6 0V9.5a.75.75 0 0 0-.75-.75h-3a.75.75 0 0 0-.75.75v11.75h4.5Z" clip-rule="evenodd"/>
</svg>
