<svg xmlns="http://www.w3.org/2000/svg" width="24" height="24" fill="none">
  <g fill="#1C274C">
    <path fill-rule="evenodd" d="M14 20.5V4.25c0-.728-.002-1.2-.048-1.546-.044-.325-.115-.427-.172-.484-.057-.057-.159-.128-.484-.172C12.949 2.002 12.478 2 11.75 2c-.728 0-1.2.002-1.546.048-.325.044-.427.115-.484.172-.057.057-.128.159-.172.484-.046.347-.048.818-.048 1.546V20.5H14Z" clip-rule="evenodd"/>
    <path d="M8 8.75A.75.75 0 0 0 7.25 8h-3a.75.75 0 0 0-.75.75V20.5H8V8.75Zm12 5a.75.75 0 0 0-.75-.75h-3a.75.75 0 0 0-.75.75v6.75H20v-6.75Z" opacity=".7"/>
    <path d="M1.75 20.5a.75.75 0 0 0 0 1.5h20a.75.75 0 0 0 0-1.5h-20Z" opacity=".5"/>
  </g>
</svg>
