<svg xmlns="http://www.w3.org/2000/svg" width="24" height="24" fill="none">
  <g fill="#1C274C">
    <path fill-rule="evenodd" d="M18.955 1.25c-.433 0-.83 0-1.152.043-.356.048-.731.16-1.04.47-.31.309-.422.684-.47 1.04-.043.323-.043.72-.043 1.152v13.09c0 .433 0 .83.043 1.152.048.356.16.731.47 1.04.309.31.684.422 1.04.47.323.043.72.043 1.152.043h.09c.433 0 .83 0 1.152-.043.356-.048.731-.16 1.04-.47.31-.309.422-.684.47-1.04.043-.323.043-.72.043-1.152V3.955c0-.433 0-.83-.043-1.152-.048-.356-.16-.731-.47-1.04-.309-.31-.684-.422-1.04-.47-.323-.043-.72-.043-1.152-.043h-.09Zm-1.13 1.572-.002.001-.001.003a.703.703 0 0 0-.042.177c-.028.21-.03.504-.03.997v13c0 .493.002.787.03.997a.702.702 0 0 0 .042.177l.001.003.003.001.003.002.007.003c.022.009.07.024.167.037.21.028.504.03.997.03s.787-.002.997-.03a.702.702 0 0 0 .177-.042l.003-.001.001-.003a.702.702 0 0 0 .042-.177c.028-.21.03-.504.03-.997V4c0-.493-.002-.787-.03-.997a.703.703 0 0 0-.042-.177l-.001-.003-.003-.001a.704.704 0 0 0-.177-.042c-.21-.028-.504-.03-.997-.03s-.787.002-.997.03a.705.705 0 0 0-.177.042Zm-5.87 1.428h.09c.433 0 .83 0 1.152.043.356.048.731.16 1.04.47.31.309.422.684.47 1.04.043.323.043.72.043 1.152v10.09c0 .433 0 .83-.043 1.152-.048.356-.16.731-.47 1.04-.309.31-.684.422-1.04.47-.323.043-.72.043-1.152.043h-.09c-.432 0-.83 0-1.152-.043-.356-.048-.731-.16-1.04-.47-.31-.309-.422-.684-.47-1.04-.043-.323-.043-.72-.043-1.152V6.955c0-.433 0-.83.043-1.152.048-.356.16-.731.47-1.04.309-.31.684-.422 1.04-.47.323-.043.72-.043 1.152-.043Zm-1.132 1.573.003-.001-.003 12.355-.001-.003a.702.702 0 0 1-.042-.177c-.028-.21-.03-.504-.03-.997V7c0-.493.002-.787.03-.997a.703.703 0 0 1 .042-.177l.001-.003Zm0 12.354.003-12.355.003-.002.007-.003a.705.705 0 0 1 .167-.037c.21-.028.504-.03.997-.03s.787.002.997.03a.704.704 0 0 1 .177.042l.003.001.001.003a.703.703 0 0 1 .042.177c.028.21.03.504.03.997v10c0 .493-.002.787-.03.997a.702.702 0 0 1-.042.177l-.001.003-.003.001a.077.077 0 0 1-.01.005.702.702 0 0 1-.167.037c-.21.028-.504.03-.997.03s-.787-.002-.997-.03a.703.703 0 0 1-.177-.042l-.003-.001ZM4.955 8.25c-.433 0-.83 0-1.152.043-.356.048-.731.16-1.04.47-.31.309-.422.684-.47 1.04-.043.323-.043.72-.043 1.152v6.09c0 .433 0 .83.043 1.152.048.356.16.731.47 1.04.309.31.684.422 1.04.47.323.043.72.043 1.152.043h.09c.433 0 .83 0 1.152-.043.356-.048.731-.16 1.04-.47.31-.309.422-.684.47-1.04.043-.323.043-.72.043-1.152v-6.09c0-.433 0-.83-.043-1.152-.048-.356-.16-.731-.47-1.04-.309-.31-.684-.422-1.04-.47-.323-.043-.72-.043-1.152-.043h-.09Zm-1.13 1.572-.002.001-.001.003a.706.706 0 0 0-.042.177c-.028.21-.03.504-.03.997v6c0 .493.002.787.03.997a.704.704 0 0 0 .042.177v.002l.004.002a.703.703 0 0 0 .177.042c.21.028.504.03.997.03s.787-.002.997-.03a.703.703 0 0 0 .177-.042l.003-.001.001-.003.002-.004.003-.006a.704.704 0 0 0 .037-.167c.028-.21.03-.504.03-.997v-6c0-.493-.002-.787-.03-.997a.706.706 0 0 0-.042-.177l-.001-.003-.003-.001a.705.705 0 0 0-.177-.042c-.21-.028-.504-.03-.997-.03s-.787.002-.997.03a.705.705 0 0 0-.177.042Z" clip-rule="evenodd"/>
    <path d="M3 21.25a.75.75 0 0 0 0 1.5h18a.75.75 0 0 0 0-1.5H3Z"/>
  </g>
</svg>
