<svg xmlns="http://www.w3.org/2000/svg" width="24" height="24" fill="none">
  <path fill="#1C274C" fill-rule="evenodd" d="M12 2.75A9.25 9.25 0 0 0 2.75 12c0 1.481.348 2.879.965 4.118.248.498.343 1.092.187 1.677l-.596 2.225a.55.55 0 0 0 .673.674l2.227-.596a2.383 2.383 0 0 1 1.676.187A9.208 9.208 0 0 0 12 21.25a9.25 9.25 0 0 0 0-18.5ZM1.25 12C1.25 6.063 6.063 1.25 12 1.25S22.75 6.063 22.75 12 17.937 22.75 12 22.75c-1.718 0-3.344-.404-4.787-1.122a.885.885 0 0 0-.62-.08l-2.226.595c-1.524.408-2.918-.986-2.51-2.51l.596-2.226a.885.885 0 0 0-.08-.62A10.709 10.709 0 0 1 1.25 12Zm14.022-4.178c1.235.462 1.978 1.717 1.978 3.286 0 .916-.435 1.774-.955 2.487-.529.724-1.21 1.384-1.838 1.918l-.093.08c-.737.628-1.35 1.15-2.364 1.15-1.015 0-1.627-.522-2.364-1.15l-.093-.08c-.629-.534-1.309-1.194-1.838-1.918-.52-.713-.955-1.57-.955-2.487 0-1.569.743-2.824 1.978-3.286 1.043-.39 2.23-.137 3.272.674 1.043-.81 2.23-1.064 3.272-.674Zm-.525 1.405c-.518-.193-1.342-.09-2.211.797a.75.75 0 0 1-1.072 0c-.869-.887-1.693-.99-2.21-.797-.51.19-1.004.774-1.004 1.881 0 .453.225.997.666 1.602.433.593 1.017 1.166 1.598 1.66.869.74 1.072.873 1.486.873.414 0 .617-.134 1.486-.873.581-.494 1.165-1.067 1.598-1.66.441-.605.666-1.149.666-1.602 0-1.107-.495-1.69-1.003-1.88Z" clip-rule="evenodd"/>
</svg>
