<svg xmlns="http://www.w3.org/2000/svg" width="24" height="24" fill="none">
  <g fill="#1C274C">
    <path d="M12 22c5.523 0 10-4.477 10-10S17.523 2 12 2 2 6.477 2 12c0 1.6.376 3.112 1.043 4.453.178.356.237.763.134 1.148l-.595 2.226a1.3 1.3 0 0 0 1.591 1.591l2.226-.595a1.634 1.634 0 0 1 1.149.133A9.958 9.958 0 0 0 12 22Z" opacity=".5"/>
    <path d="M12.75 8a.75.75 0 0 0-1.5 0v.01c-1.089.275-2 1.133-2 2.323 0 1.457 1.365 2.417 2.75 2.417.824 0 1.25.533 1.25.917s-.426.916-1.25.916c-.824 0-1.25-.532-1.25-.916a.75.75 0 0 0-1.5 0c0 1.19.911 2.049 2 2.323V16a.75.75 0 0 0 1.5 0v-.01c1.089-.274 2-1.133 2-2.323 0-1.457-1.365-2.417-2.75-2.417-.824 0-1.25-.533-1.25-.917s.426-.916 1.25-.916c.824 0 1.25.532 1.25.916a.75.75 0 0 0 1.5 0c0-1.19-.911-2.048-2-2.323V8Z"/>
  </g>
</svg>
