<svg xmlns="http://www.w3.org/2000/svg" width="24" height="24" fill="none">
  <path fill="#1C274C" fill-rule="evenodd" d="M12 2.75A9.25 9.25 0 0 0 2.75 12c0 1.481.348 2.879.965 4.118.248.498.343 1.092.187 1.677l-.596 2.225a.55.55 0 0 0 .673.674l2.227-.596a2.383 2.383 0 0 1 1.676.187A9.208 9.208 0 0 0 12 21.25a9.25 9.25 0 0 0 0-18.5ZM1.25 12C1.25 6.063 6.063 1.25 12 1.25S22.75 6.063 22.75 12 17.937 22.75 12 22.75c-1.718 0-3.344-.404-4.787-1.122a.885.885 0 0 0-.62-.08l-2.226.595c-1.524.408-2.918-.986-2.51-2.51l.596-2.226a.885.885 0 0 0-.08-.62A10.709 10.709 0 0 1 1.25 12Zm12.307-3.226.108.066c.882.542 1.617.994 2.123 1.42.527.444.962.988.962 1.74s-.435 1.296-.962 1.74c-.507.426-1.241.878-2.123 1.42l-.108.066c-.892.548-1.637 1.006-2.247 1.264-.627.265-1.333.415-1.998.013-.65-.393-.871-1.081-.967-1.768-.095-.678-.095-1.58-.095-2.675v-.12c0-1.095 0-1.997.095-2.675.096-.687.318-1.375.967-1.768.665-.402 1.37-.252 1.998.013.61.258 1.355.716 2.247 1.264Zm-3.468.007c-.051.03-.18.127-.259.692-.078.561-.08 1.357-.08 2.527 0 1.17.002 1.966.08 2.527.08.565.208.662.259.692.037.023.154.094.637-.11.492-.209 1.14-.604 2.1-1.195.95-.583 1.586-.976 1.996-1.322.4-.337.428-.5.428-.592 0-.092-.028-.255-.428-.592-.41-.346-1.047-.74-1.995-1.322-.962-.591-1.609-.986-2.1-1.194-.484-.205-.601-.134-.638-.111Z" clip-rule="evenodd"/>
</svg>
