<svg xmlns="http://www.w3.org/2000/svg" width="24" height="24" fill="none">
  <path fill="#1C274C" fill-rule="evenodd" d="M12 2.75A9.25 9.25 0 0 0 2.75 12c0 1.481.348 2.879.965 4.118.248.498.343 1.092.187 1.677l-.596 2.225a.55.55 0 0 0 .673.674l2.227-.596a2.383 2.383 0 0 1 1.676.187A9.208 9.208 0 0 0 12 21.25a9.25 9.25 0 0 0 0-18.5ZM1.25 12C1.25 6.063 6.063 1.25 12 1.25S22.75 6.063 22.75 12 17.937 22.75 12 22.75c-1.718 0-3.344-.404-4.787-1.122a.885.885 0 0 0-.62-.08l-2.226.595c-1.524.408-2.918-.986-2.51-2.51l.596-2.226a.885.885 0 0 0-.08-.62A10.709 10.709 0 0 1 1.25 12ZM12 7.25a.75.75 0 0 1 .75.75v.01c1.089.275 2 1.133 2 2.323a.75.75 0 0 1-1.5 0c0-.384-.426-.916-1.25-.916-.824 0-1.25.532-1.25.916s.426.917 1.25.917c1.385 0 2.75.96 2.75 2.417 0 1.19-.911 2.049-2 2.323V16a.75.75 0 0 1-1.5 0v-.01c-1.089-.274-2-1.133-2-2.323a.75.75 0 0 1 1.5 0c0 .384.426.916 1.25.916.824 0 1.25-.532 1.25-.916s-.426-.917-1.25-.917c-1.385 0-2.75-.96-2.75-2.417 0-1.19.911-2.048 2-2.323V8a.75.75 0 0 1 .75-.75Z" clip-rule="evenodd"/>
</svg>
