<svg xmlns="http://www.w3.org/2000/svg" width="24" height="24" fill="none">
  <path fill="#1C274C" fill-rule="evenodd" d="M22 12c0 5.523-4.477 10-10 10-1.6 0-3.112-.376-4.452-1.044a1.634 1.634 0 0 0-1.149-.133l-2.226.596a1.3 1.3 0 0 1-1.591-1.592l.595-2.226a1.633 1.633 0 0 0-.134-1.148A9.96 9.96 0 0 1 2 12C2 6.477 6.477 2 12 2s10 4.477 10 10Zm-14.5-.892c0 1.369 1.319 2.805 2.529 3.834.823.7 1.235 1.051 1.971 1.051s1.148-.35 1.971-1.051c1.21-1.03 2.529-2.465 2.529-3.834 0-2.677-2.475-3.676-4.5-1.608-2.025-2.068-4.5-1.069-4.5 1.608Z" clip-rule="evenodd"/>
</svg>
