<svg xmlns="http://www.w3.org/2000/svg" width="24" height="24" fill="none">
  <g fill="#1C274C">
    <path d="M22 5a3 3 0 1 1-6 0 3 3 0 0 1 6 0Z"/>
    <path d="M15.636 2.011C15.011 2 14.306 2 13.5 2h-3c-3.273 0-4.91 0-6.112.737a5 5 0 0 0-1.651 1.65C2 5.59 2 7.228 2 10.5v1c0 2.33 0 3.495.38 4.413a5 5 0 0 0 2.707 2.706c.66.274 1.447.35 2.703.372.85.015 1.275.022 1.613.219.337.196.548.551.968 1.262l.542.916c.483.816 1.69.816 2.174 0l.542-.916c.42-.71.63-1.066.968-1.262.338-.197.763-.204 1.613-.219 1.256-.021 2.043-.098 2.703-.372a5 5 0 0 0 2.706-2.706C22 14.995 22 13.83 22 11.5v-1c0-.805 0-1.511-.011-2.136a4.5 4.5 0 0 1-6.353-6.353Z" opacity=".5"/>
  </g>
</svg>
