<svg xmlns="http://www.w3.org/2000/svg" width="24" height="24" fill="none">
  <g fill="#1C274C">
    <path d="m11.985 21.449.489-.824c.378-.64.568-.96.872-1.136.304-.177.687-.184 1.453-.197 1.13-.02 1.84-.089 2.434-.335a4.502 4.502 0 0 0 2.438-2.435c.161-.39.247-.83.292-1.406.027-.354.041-.53-.053-.674-.095-.143-.276-.205-.638-.327C17.864 13.64 14.752 12.481 13 11c-1.98-1.674-3.754-5.054-4.418-6.414-.142-.29-.213-.435-.336-.511-.123-.076-.28-.074-.592-.07-1.808.02-2.637.126-3.504.657a4.502 4.502 0 0 0-1.486 1.486C2 7.23 2 8.703 2 11.65v.9c0 2.096 0 3.145.343 3.972a4.502 4.502 0 0 0 2.437 2.435c.595.246 1.304.316 2.434.335.766.013 1.15.02 1.453.197.305.177.494.496.873 1.136l.488.824c.435.735 1.522.735 1.957 0Z"/>
    <path fill-rule="evenodd" d="M13.702 1.217a.696.696 0 0 1-.007 1.035l-1.002.921a47.2 47.2 0 0 1 2.467.076c.65.041 1.26.104 1.79.202.52.096 1.022.237 1.42.46.74.418 1.363.99 1.817 1.672.438.656.63 1.398.723 2.292.09.875.09 1.969.09 3.355v.038c0 .404-.352.732-.786.732-.434 0-.785-.328-.785-.732 0-1.433-.001-2.456-.084-3.253-.08-.785-.236-1.274-.493-1.66a3.78 3.78 0 0 0-1.296-1.191c-.168-.096-.462-.195-.912-.278a13.727 13.727 0 0 0-1.59-.177 45.123 45.123 0 0 0-2.348-.072l.989.91a.696.696 0 0 1 .007 1.034.828.828 0 0 1-1.111.006L10.234 4.42A.707.707 0 0 1 10 3.899c0-.196.084-.383.234-.52L12.59 1.21a.828.828 0 0 1 1.11.006Z" clip-rule="evenodd"/>
  </g>
</svg>
