<svg xmlns="http://www.w3.org/2000/svg" width="24" height="24" fill="none">
  <path fill="#1C274C" fill-rule="evenodd" d="M22 12c0 5.523-4.477 10-10 10-1.6 0-3.112-.376-4.452-1.044a1.634 1.634 0 0 0-1.149-.133l-2.226.596a1.3 1.3 0 0 1-1.591-1.592l.595-2.226a1.633 1.633 0 0 0-.134-1.148A9.96 9.96 0 0 1 2 12C2 6.477 6.477 2 12 2s10 4.477 10 10Zm-6 0c0-.845-.927-1.414-2.78-2.553-1.88-1.155-2.82-1.732-3.52-1.308C9 8.563 9 9.709 9 12c0 2.291 0 3.437.7 3.861.701.424 1.64-.153 3.52-1.308C15.073 13.414 16 12.844 16 12Z" clip-rule="evenodd"/>
</svg>
