<svg xmlns="http://www.w3.org/2000/svg" width="24" height="24" fill="none">
  <g stroke="#1C274C" stroke-width="1.5">
    <path stroke-linecap="round" d="M19 22v-.5M5 22v-.5m7-.5V2m3 6v2"/>
    <path d="M2 10c0-3.771 0-5.657 1.172-6.828C4.343 2 6.229 2 10 2h4c3.771 0 5.657 0 6.828 1.172C22 4.343 22 6.229 22 10v3c0 3.771 0 5.657-1.172 6.828C19.657 21 17.771 21 14 21h-4c-3.771 0-5.657 0-6.828-1.172C2 18.657 2 16.771 2 13v-3Z"/>
    <path stroke-linecap="round" d="M2 8h10M2 15h20m-7 3h2M7 18h2"/>
  </g>
</svg>
