<svg xmlns="http://www.w3.org/2000/svg" width="24" height="24" fill="none">
  <g fill="#1C274C">
    <path d="m9.626 17.465 1.148-1.555c.743-1.005 1.114-1.508 1.46-1.401.346.106.346.722.346 1.955v.116c0 .445 0 .667.142.806l.008.008c.145.136.376.136.838.136.832 0 1.248 0 1.39.252a.511.511 0 0 1 .006.013c.133.257-.108.583-.59 1.235l-1.148 1.555c-.743 1.005-1.114 1.507-1.46 1.401-.346-.106-.346-.723-.346-1.955v-.116c0-.445 0-.667-.142-.806l-.008-.008c-.145-.136-.376-.136-.838-.136-.832 0-1.248 0-1.39-.253a.597.597 0 0 1-.006-.012c-.133-.257.108-.583.59-1.235Z"/>
    <path d="M7.578 18.011c.059-.207.14-.375.199-.486.157-.296.398-.622.6-.896l1.241-1.68c.327-.442.656-.887.954-1.197.218-.227.997-1.018 2.102-.679 1.138.35 1.308 1.48 1.35 1.79.044.334.054.745.056 1.169a5.6 5.6 0 0 1 .65.043c.334.047 1.107.203 1.537.977l.029.053c.165.319.215.627.204.902 3.057-.111 5.5-2.597 5.5-5.647 0-2.473-1.607-4.576-3.845-5.342C17.837 4.195 15.415 2 12.476 2 9.32 2 6.762 4.53 6.762 7.651c0 .69.125 1.352.354 1.963a4.354 4.354 0 0 0-.83-.08C3.919 9.535 2 11.433 2 13.774c0 2.34 1.919 4.238 4.286 4.238h1.292Z"/>
  </g>
</svg>
