<svg xmlns="http://www.w3.org/2000/svg" width="24" height="24" fill="none">
  <g stroke="#1C274C" stroke-width="1.5">
    <path stroke-linecap="round" d="M22 16.353C22 19.472 19.442 22 16.286 22H11m3.381-10.973a5.765 5.765 0 0 1 1.905-.321c.654 0 1.283.109 1.87.309m-11.04 2.594a4.351 4.351 0 0 0-.83-.08C3.919 13.53 2 15.426 2 17.765 2 20.104 3.919 22 6.286 22H7m.116-8.391a5.576 5.576 0 0 1-.354-1.962C6.762 8.528 9.32 6 12.476 6c2.94 0 5.361 2.194 5.68 5.015m-11.04 2.594a4.29 4.29 0 0 1 1.55.634m9.49-3.228A5.724 5.724 0 0 1 20 12.061"/>
    <path d="M8 4.5a3.5 3.5 0 0 0-1.5 6.663M8 4.5c.744 0 1.433.232 2 .627M8 4.5c-.744 0-1.433.232-2 .627M8 4.5c.954 0 1.818.381 2.45 1M8 4.5c-.954 0-1.818.381-2.45 1M8 4.5c1.273 0 2.388.68 3 1.696"/>
    <path stroke-linecap="round" d="M7.5 2v.5m-5 5H2m9.389-3.889-.216.216m-7.346 7.346-.216.216m.216-7.562-.216-.216"/>
  </g>
</svg>
