<svg xmlns="http://www.w3.org/2000/svg" width="24" height="24" fill="none">
  <g fill="#1C274C">
    <path fill-rule="evenodd" d="M12.03 14.97a.75.75 0 0 1 0 1.06l-2 2a.75.75 0 1 1-1.06-1.06l2-2a.75.75 0 0 1 1.06 0Zm4.5 0a.75.75 0 0 1 0 1.06l-2 2a.75.75 0 1 1-1.06-1.06l2-2a.75.75 0 0 1 1.06 0Zm-8.5 3.5a.75.75 0 0 1 0 1.06l-2 2a.75.75 0 0 1-1.06-1.06l2-2a.75.75 0 0 1 1.06 0Zm9.5 0a.75.75 0 0 1 0 1.06l-2 2a.75.75 0 1 1-1.06-1.06l2-2a.75.75 0 0 1 1.06 0Zm-5 1a.75.75 0 0 1 0 1.06l-2 2a.75.75 0 1 1-1.06-1.06l2-2a.75.75 0 0 1 1.06 0Z" clip-rule="evenodd"/>
    <path d="M12.03 14.97a.75.75 0 0 1 0 1.06l-2 2a.746.746 0 0 1-1.06 0 .746.746 0 0 1 0-1.06l2-2a.75.75 0 0 1 1.06 0Zm3.44 0-2 2a.75.75 0 1 0 1.06 1.06l2-2a.75.75 0 1 0-1.06-1.06Z"/>
    <path d="M16.286 19C19.442 19 22 16.472 22 13.353c0-2.472-1.607-4.573-3.845-5.338C17.837 5.194 15.415 3 12.476 3 9.32 3 6.762 5.528 6.762 8.647c0 .69.125 1.35.354 1.962a4.351 4.351 0 0 0-.83-.08C3.919 10.53 2 12.426 2 14.765 2 17.104 3.919 19 6.286 19h10Z" opacity=".5"/>
  </g>
</svg>
