<svg xmlns="http://www.w3.org/2000/svg" width="24" height="24" fill="none">
  <path fill="#1C274C" fill-rule="evenodd" d="M12.476 3.75c-2.75 0-4.964 2.2-4.964 4.897 0 .462.065.909.185 1.331.497.144.963.36 1.383.64a.75.75 0 1 1-.827 1.25 3.54 3.54 0 0 0-1.967-.589c-1.961 0-3.536 1.57-3.536 3.486 0 1.553 1.034 2.878 2.472 3.325a.75.75 0 1 1-.444 1.432c-2.04-.632-3.528-2.518-3.528-4.757 0-2.705 2.17-4.893 4.864-4.983a6.366 6.366 0 0 1-.102-1.135c0-3.541 2.902-6.397 6.464-6.397 3.158 0 5.796 2.244 6.355 5.221 2.3.977 3.919 3.238 3.919 5.882 0 2.66-1.64 4.934-3.962 5.9a.75.75 0 1 1-.576-1.385c1.79-.744 3.038-2.49 3.038-4.515 0-2.137-1.39-3.962-3.338-4.628a5.018 5.018 0 0 0-1.626-.27c-.583 0-1.14.1-1.658.28a.75.75 0 0 1-.494-1.416 6.517 6.517 0 0 1 3.024-.305 4.962 4.962 0 0 0-4.682-3.264ZM12 14.134c-.018 0-.041.007-.066.036a5.045 5.045 0 0 0-.506.706c-.144.252-.178.402-.178.457 0 .583.408.917.75.917s.75-.334.75-.917c0-.055-.034-.205-.178-.457a5.045 5.045 0 0 0-.506-.706c-.025-.03-.048-.036-.066-.036Zm-1.216-.927a1.578 1.578 0 0 1 2.432 0c.22.262.465.585.659.926.184.322.375.75.375 1.2 0 1.259-.935 2.417-2.25 2.417s-2.25-1.158-2.25-2.417c0-.45.191-.878.375-1.2.194-.341.44-.664.659-.926ZM9.5 19.134c-.018 0-.041.007-.066.036a5.044 5.044 0 0 0-.506.706c-.144.252-.178.402-.178.457 0 .583.408.917.75.917s.75-.334.75-.917c0-.055-.034-.205-.178-.457a5.043 5.043 0 0 0-.506-.706c-.025-.03-.048-.036-.066-.036Zm-1.216-.927a1.578 1.578 0 0 1 2.432 0c.22.262.465.585.659.926.184.322.375.75.375 1.2 0 1.259-.935 2.417-2.25 2.417s-2.25-1.158-2.25-2.417c0-.45.191-.878.375-1.2.194-.341.44-.664.659-.926Zm6.216.927c-.018 0-.041.007-.066.036a5.045 5.045 0 0 0-.506.706c-.144.252-.178.402-.178.457 0 .583.408.917.75.917s.75-.334.75-.917c0-.055-.034-.205-.178-.457a5.045 5.045 0 0 0-.506-.706c-.025-.03-.048-.036-.066-.036Zm-1.216-.927a1.578 1.578 0 0 1 2.432 0c.22.262.465.585.659.926.184.322.375.75.375 1.2 0 1.259-.935 2.417-2.25 2.417s-2.25-1.158-2.25-2.417c0-.45.191-.878.375-1.2.194-.341.44-.664.659-.926Z" clip-rule="evenodd"/>
</svg>
