<svg xmlns="http://www.w3.org/2000/svg" width="24" height="24" fill="none">
  <g fill="#1C274C">
    <path d="M12 22c5.523 0 10-4.477 10-10 0-.463-.694-.54-.933-.143a6.5 6.5 0 1 1-8.924-8.924C12.54 2.693 12.463 2 12 2 6.477 2 2 6.477 2 12s4.477 10 10 10Z" opacity=".5"/>
    <path d="M11.286 22C13.337 22 15 20.42 15 18.47c0-1.544-1.045-2.857-2.5-3.336C12.295 13.371 10.72 12 8.81 12c-2.052 0-3.715 1.58-3.715 3.53 0 .43.082.844.23 1.226a2.949 2.949 0 0 0-.54-.05C3.248 16.706 2 17.89 2 19.353 2 20.815 3.247 22 4.786 22h6.5Z"/>
  </g>
</svg>
