<svg xmlns="http://www.w3.org/2000/svg" width="24" height="24" fill="none">
  <g fill="#1C274C">
    <path d="M11.5 8a3.5 3.5 0 1 1-7 0 3.5 3.5 0 0 1 7 0Z" opacity=".5"/>
    <path fill-rule="evenodd" d="M7.5 1.25a.75.75 0 0 1 .75.75v.5a.75.75 0 0 1-1.5 0V2a.75.75 0 0 1 .75-.75ZM3.08 3.08a.75.75 0 0 1 1.062 0l.216.217a.75.75 0 0 1-1.061 1.06l-.216-.216a.75.75 0 0 1 0-1.06Zm8.839 0a.75.75 0 0 1 0 1.061l-.216.216a.75.75 0 1 1-1.06-1.06l.215-.216a.75.75 0 0 1 1.061 0ZM1.25 7.5A.75.75 0 0 1 2 6.75h.5a.75.75 0 0 1 0 1.5H2a.75.75 0 0 1-.75-.75Zm3.108 3.143a.75.75 0 0 1 0 1.06l-.216.216a.75.75 0 0 1-1.061-1.06l.216-.216a.75.75 0 0 1 1.06 0Z" clip-rule="evenodd" opacity=".5"/>
    <path d="M16.286 22C19.442 22 22 19.472 22 16.353c0-2.472-1.607-4.573-3.845-5.338C17.837 8.194 15.415 6 12.476 6 9.32 6 6.762 8.528 6.762 11.647c0 .69.125 1.35.354 1.962a4.351 4.351 0 0 0-.83-.08C3.919 13.53 2 15.426 2 17.765 2 20.104 3.919 22 6.286 22h10Z"/>
  </g>
</svg>
