<svg xmlns="http://www.w3.org/2000/svg" width="24" height="24" fill="none">
  <g fill="#1C274C">
    <path d="M16.286 19C19.442 19 22 16.472 22 13.353c0-2.472-1.607-4.573-3.845-5.338C17.837 5.194 15.415 3 12.476 3 9.32 3 6.762 5.528 6.762 8.647c0 .69.125 1.35.354 1.962a4.351 4.351 0 0 0-.83-.08C3.919 10.53 2 12.426 2 14.765 2 17.104 3.919 19 6.286 19h10Z" opacity=".5"/>
    <path d="M15 19.084C15 20.694 13.657 22 12 22s-3-1.305-3-2.916c0-.912.961-2.1 1.796-2.96a1.665 1.665 0 0 1 2.408 0c.835.86 1.796 2.048 1.796 2.96Z"/>
  </g>
</svg>
