<svg xmlns="http://www.w3.org/2000/svg" width="24" height="24" fill="none">
  <g fill="#1C274C">
    <path d="M6.5 18v-.09c0-.865 0-1.659.087-2.304.095-.711.32-1.463.938-2.08.618-.619 1.37-.844 2.08-.94.646-.086 1.44-.086 2.306-.086h.178c.866 0 1.66 0 2.305.087.711.095 1.463.32 2.08.938.619.618.844 1.37.94 2.08.085.637.086 1.416.086 2.267 2.573-.55 4.5-2.812 4.5-5.52 0-2.47-1.607-4.572-3.845-5.337C17.837 4.194 15.415 2 12.476 2 9.32 2 6.762 4.528 6.762 7.647c0 .69.125 1.35.354 1.962a4.356 4.356 0 0 0-.83-.08C3.919 9.53 2 11.426 2 13.765 2 16.104 3.919 18 6.286 18H6.5Z" opacity=".5"/>
    <path fill-rule="evenodd" d="M12 22c-1.886 0-2.828 0-3.414-.586C8 20.828 8 19.886 8 18c0-1.886 0-2.828.586-3.414C9.172 14 10.114 14 12 14c1.886 0 2.828 0 3.414.586C16 15.172 16 16.114 16 18c0 1.886 0 2.828-.586 3.414C14.828 22 13.886 22 12 22Zm2.25-4.862a.667.667 0 0 0-.944-.943l-2.195 2.195-.417-.417a.667.667 0 0 0-.943.943l.889.889c.26.26.682.26.942 0l2.667-2.667Z" clip-rule="evenodd"/>
  </g>
</svg>
