<svg xmlns="http://www.w3.org/2000/svg" width="24" height="24" fill="none">
  <path fill="#1C274C" d="M14.18 4.276a.75.75 0 0 1 .531.918l-3.973 14.83a.75.75 0 0 1-1.45-.389l3.974-14.83a.75.75 0 0 1 .919-.53Zm2.262 3.052a.75.75 0 0 1 1.06-.056l1.737 1.564c.737.662 1.347 1.212 1.767 1.71.44.525.754 1.088.754 1.784 0 .695-.313 1.258-.754 1.782-.42.499-1.03 1.049-1.767 1.711l-1.737 1.564a.75.75 0 0 1-1.004-1.115l1.697-1.527c.788-.709 1.319-1.19 1.663-1.598.33-.393.402-.622.402-.818 0-.195-.072-.424-.402-.817-.344-.409-.875-.89-1.663-1.598l-1.697-1.527a.75.75 0 0 1-.056-1.06Zm-8.94 1.059a.75.75 0 1 0-1.004-1.115L4.761 8.836c-.737.662-1.347 1.212-1.767 1.71-.44.525-.754 1.088-.754 1.784 0 .695.313 1.258.754 1.782.42.499 1.03 1.049 1.767 1.711l1.737 1.564a.75.75 0 0 0 1.004-1.115l-1.697-1.527c-.788-.709-1.319-1.19-1.663-1.598-.33-.393-.402-.622-.402-.818 0-.195.072-.424.402-.817.344-.409.875-.89 1.663-1.598l1.697-1.527Z"/>
</svg>
