<svg xmlns="http://www.w3.org/2000/svg" width="24" height="24" fill="none">
  <path fill="#1C274C" fill-rule="evenodd" d="M8.558 4.328a.75.75 0 0 1-.056 1.06L6.805 6.913c-.788.709-1.319 1.19-1.663 1.598-.33.393-.402.622-.402.818 0 .195.072.424.402.817.344.409.875.89 1.663 1.598l1.697 1.527a.75.75 0 0 1-1.004 1.115l-1.737-1.564c-.737-.662-1.347-1.212-1.767-1.71-.44-.525-.754-1.088-.754-1.783 0-.696.313-1.259.754-1.783.42-.499 1.03-1.048 1.767-1.711l.04-.037 1.697-1.527a.75.75 0 0 1 1.06.056Zm5.622-.053a.75.75 0 0 1 .532.918l-3.987 15a.75.75 0 0 1-1.45-.386l3.987-15a.75.75 0 0 1 .918-.532Zm1.263 6.223a.75.75 0 0 1 1.059-.055l1.737 1.563c.737.663 1.347 1.213 1.767 1.711.44.524.754 1.088.754 1.783 0 .695-.313 1.259-.754 1.783-.42.498-1.03 1.048-1.767 1.71l-1.737 1.565a.75.75 0 0 1-1.004-1.116l1.697-1.526c.788-.71 1.319-1.19 1.663-1.599.33-.392.402-.622.402-.817 0-.195-.072-.425-.402-.817-.344-.41-.875-.89-1.663-1.599l-1.697-1.527a.75.75 0 0 1-.055-1.059Z" clip-rule="evenodd"/>
</svg>
