<svg xmlns="http://www.w3.org/2000/svg" width="24" height="24" fill="none">
  <path fill="#1C274C" fill-rule="evenodd" d="M3.172 3.172C2 4.343 2 6.229 2 10v4c0 3.771 0 5.657 1.172 6.828C4.343 22 6.229 22 10 22h4c3.771 0 5.657 0 6.828-1.172C22 19.657 22 17.771 22 14v-4c0-3.771 0-5.657-1.172-6.828C19.657 2 17.771 2 14 2h-4C6.229 2 4.343 2 3.172 3.172Zm4.74 5.545a3.811 3.811 0 0 1 .835-1.483c.36-.383.65-.484.776-.484.305 0 .716.178 1.09 1.016.379.849.637 2.228.637 4.234 0 2.099.265 3.72.767 4.845.507 1.135 1.335 1.905 2.46 1.905.724 0 1.384-.441 1.868-.955a5.308 5.308 0 0 0 1.178-2.078.75.75 0 1 0-1.436-.434 3.812 3.812 0 0 1-.834 1.483c-.36.383-.65.484-.776.484-.305 0-.716-.178-1.09-1.016-.379-.849-.637-2.228-.637-4.234 0-2.099-.265-3.72-.767-4.845-.507-1.135-1.335-1.905-2.46-1.905-.724 0-1.384.441-1.868.955a5.308 5.308 0 0 0-1.178 2.078.75.75 0 0 0 1.436.434ZM6 11.25a.75.75 0 0 0 0 1.5h3.5a.75.75 0 0 0 0-1.5H6Zm8.5 0a.75.75 0 0 0 0 1.5H18a.75.75 0 0 0 0-1.5h-3.5Z" clip-rule="evenodd"/>
</svg>
