<svg xmlns="http://www.w3.org/2000/svg" width="24" height="24" fill="none">
  <path fill="#1C274C" fill-rule="evenodd" d="M15.25 5A3.75 3.75 0 1 1 19 8.75h-2.25v6.5H19a3.75 3.75 0 1 1-3.75 3.751V16.75h-6.5v2.251a3.75 3.75 0 1 1-3.749-3.75H7.25v-6.5H5.001A3.75 3.75 0 1 1 8.751 5v2.25h6.5V5Zm-8 2.25V5A2.25 2.25 0 1 0 5 7.25h2.25ZM19 2.75A2.25 2.25 0 0 0 16.75 5v2.25H19a2.25 2.25 0 1 0 0-4.5Zm-10.25 6v6.5h6.5v-6.5h-6.5ZM21.25 19A2.25 2.25 0 0 0 19 16.75h-2.25V19a2.25 2.25 0 1 0 4.5 0Zm-18.5 0A2.25 2.25 0 0 1 5 16.75h2.25V19a2.25 2.25 0 1 1-4.5 0Z" clip-rule="evenodd"/>
</svg>
