<svg xmlns="http://www.w3.org/2000/svg" width="24" height="24" fill="none">
  <path fill="#1C274C" fill-rule="evenodd" d="M12 22c-4.714 0-7.071 0-8.536-1.465C2 19.072 2 16.714 2 12s0-7.071 1.464-8.536C4.93 2 7.286 2 12 2c4.714 0 7.071 0 8.535 1.464C22 4.93 22 7.286 22 12c0 4.714 0 7.071-1.465 8.535C19.072 22 16.714 22 12 22Zm1.956-7.905c-.193.17-.44.268-.932.465-2.31.924-3.465 1.386-4.124.938a1.5 1.5 0 0 1-.398-.398c-.448-.66.014-1.814.938-4.124.197-.493.295-.74.465-.932.043-.05.09-.096.139-.14.193-.169.44-.267.932-.464 2.31-.924 3.465-1.386 4.124-.938a1.5 1.5 0 0 1 .398.398c.448.66-.014 1.814-.938 4.124-.197.493-.295.74-.465.932a1.53 1.53 0 0 1-.139.14Z" clip-rule="evenodd"/>
</svg>
