<svg xmlns="http://www.w3.org/2000/svg" width="24" height="24" fill="none">
  <path fill="#1C274C" fill-rule="evenodd" d="M12 2.75a9.25 9.25 0 1 0 0 18.5 9.25 9.25 0 0 0 0-18.5ZM1.25 12C1.25 6.063 6.063 1.25 12 1.25S22.75 6.063 22.75 12 17.937 22.75 12 22.75 1.25 17.937 1.25 12Zm12.599-2.819c-.605.16-1.42.485-2.595.955-.541.217-.642.268-.716.333a.758.758 0 0 0-.07.069c-.064.074-.115.175-.332.716-.47 1.175-.794 1.99-.955 2.595-.167.63-.085.79-.059.83a.75.75 0 0 0 .2.198c.038.027.199.108.829-.059.605-.16 1.42-.484 2.594-.954.542-.217.643-.268.717-.333l.494.564-.494-.564a.733.733 0 0 0 .07-.07l.563.495-.564-.494c.065-.074.116-.175.333-.717.47-1.174.794-1.99.954-2.594.168-.63.086-.791.06-.83a.75.75 0 0 0-.2-.199c-.038-.026-.2-.108-.83.06Zm-.384-1.45c.69-.183 1.436-.271 2.057.15.234.16.437.362.596.597.422.621.333 1.367.15 2.057-.186.704-.546 1.605-.991 2.717l-.02.05-.034.084c-.163.41-.308.772-.564 1.065a2.248 2.248 0 0 1-.208.208c-.293.256-.655.4-1.065.564l-.083.033-.279-.696.279.697-.05.02c-1.113.445-2.014.805-2.718.991-.69.183-1.436.272-2.057-.15l.422-.62-.422.62a2.25 2.25 0 0 1-.596-.596c-.422-.621-.334-1.368-.15-2.057.186-.705.546-1.605.991-2.717l.02-.05.034-.085c.163-.41.307-.771.564-1.064.065-.074.134-.143.208-.208.293-.257.655-.401 1.064-.564l.084-.034.05-.02c1.113-.445 2.013-.805 2.718-.992Z" clip-rule="evenodd"/>
</svg>
