<svg xmlns="http://www.w3.org/2000/svg" width="24" height="24" fill="none">
  <path fill="#1C274C" fill-rule="evenodd" d="M11.943 1.25h.114c2.309 0 4.118 0 5.53.19 1.444.194 2.584.6 3.479 1.494.895.895 1.3 2.035 1.494 3.48.19 1.411.19 3.22.19 5.529v.114c0 2.309 0 4.118-.19 5.53-.194 1.444-.6 2.584-1.494 3.479-.895.895-2.035 1.3-3.48 1.494-1.411.19-3.22.19-5.529.19h-.114c-2.309 0-4.118 0-5.53-.19-1.444-.194-2.584-.6-3.479-1.494-.895-.895-1.3-2.035-1.494-3.48-.19-1.411-.19-3.22-.19-5.529v-.114c0-2.309 0-4.118.19-5.53.194-1.444.6-2.584 1.494-3.479.895-.895 2.035-1.3 3.48-1.494 1.411-.19 3.22-.19 5.529-.19Zm-5.33 1.676c-1.278.172-2.049.5-2.618 1.069-.57.57-.897 1.34-1.069 2.619-.174 1.3-.176 3.008-.176 5.386s.002 4.086.176 5.386c.172 1.279.5 2.05 1.069 2.62.57.569 1.34.896 2.619 1.068 1.3.174 3.008.176 5.386.176s4.086-.002 5.386-.176c1.279-.172 2.05-.5 2.62-1.069.569-.57.896-1.34 1.068-2.619.174-1.3.176-3.008.176-5.386s-.002-4.086-.176-5.386c-.172-1.279-.5-2.05-1.069-2.62-.57-.569-1.34-.896-2.619-1.068-1.3-.174-3.008-.176-5.386-.176s-4.086.002-5.386.176Zm7.236 6.255c-.605.16-1.42.485-2.595.955-.541.217-.642.268-.716.333a.731.731 0 0 0-.07.07c-.064.073-.115.174-.332.716-.47 1.174-.794 1.99-.955 2.594-.167.63-.085.791-.058.83a.75.75 0 0 0 .198.198c.039.027.2.109.83-.058.605-.16 1.42-.485 2.595-.955.541-.217.642-.268.716-.333a.731.731 0 0 0 .07-.07c.064-.073.115-.174.332-.716.47-1.174.794-1.99.955-2.594.167-.63.085-.791.058-.83a.75.75 0 0 0-.198-.198c-.039-.027-.2-.109-.83.058Zm-.384-1.45c.69-.182 1.436-.271 2.057.15.234.16.437.363.596.597.422.621.333 1.367.15 2.057-.186.705-.546 1.605-.991 2.717l-.02.05-.034.085c-.163.409-.307.771-.564 1.064a2.224 2.224 0 0 1-.208.208c-.293.257-.655.401-1.065.564l-.083.034-.05.02c-1.113.445-2.013.805-2.718.992-.69.182-1.436.271-2.057-.15a2.251 2.251 0 0 1-.596-.597c-.422-.621-.333-1.367-.15-2.057.186-.705.546-1.605.991-2.717l.02-.05.034-.085c.163-.409.307-.771.564-1.064.065-.074.134-.143.208-.208.293-.257.655-.401 1.065-.564l.083-.034.05-.02c1.113-.445 2.013-.805 2.718-.992Z" clip-rule="evenodd"/>
</svg>
