<svg xmlns="http://www.w3.org/2000/svg" width="24" height="24" fill="none">
  <g fill="#1C274C">
    <path fill-rule="evenodd" d="M2.879 5.879C2 6.757 2 8.172 2 11c0 3.771 0 5.657 1.172 6.828.518.52 1.177.808 2.078.97 0-.832.004-1.531.08-2.092.084-.628.27-1.195.725-1.65.456-.456 1.023-.642 1.65-.726.595-.08 1.345-.08 2.243-.08h4.104c.899 0 1.648 0 2.242.08.628.084 1.195.27 1.65.726.456.455.642 1.022.726 1.65.075.56.08 1.26.08 2.091.9-.16 1.56-.45 2.078-.969C22 16.657 22 14.771 22 11c0-2.828 0-4.243-.879-5.121C20.243 5 18.828 5 16 5H8c-2.828 0-4.243 0-5.121.879ZM5.25 11.5a.75.75 0 0 1 .75-.75h12a.75.75 0 0 1 0 1.5H6a.75.75 0 0 1-.75-.75ZM6 8.25a.75.75 0 0 0 0 1.5h12a.75.75 0 0 0 0-1.5H6Z" clip-rule="evenodd"/>
    <path d="M5.25 18.797c0-.832.004-1.53.08-2.091.084-.628.27-1.195.725-1.65.456-.456 1.023-.642 1.65-.726.595-.08 1.344-.08 2.243-.08h4.104c.899 0 1.648 0 2.242.08.628.084 1.195.27 1.65.726.456.455.642 1.022.726 1.65.075.56.08 1.26.08 2.091H5.25Z" opacity=".5"/>
  </g>
</svg>
