<svg xmlns="http://www.w3.org/2000/svg" width="24" height="24" fill="none">
  <g fill="#1C274C">
    <path d="M3.464 3.464C2 4.93 2 7.286 2 12c0 4.714 0 7.071 1.464 8.535C4.93 22 7.286 22 12 22c4.714 0 7.071 0 8.535-1.465C22 19.072 22 16.714 22 12s0-7.071-1.465-8.536C19.072 2 16.714 2 12 2S4.929 2 3.464 3.464Z" opacity=".5"/>
    <path d="M7.55 9.6a.75.75 0 0 1 .9-1.2l2 1.5a.75.75 0 0 1 0 1.2l-2 1.5a.75.75 0 1 1-.9-1.2l1.2-.9-1.2-.9Zm9.05-1.05a.75.75 0 0 1-.15 1.05l-1.2.9 1.2.9a.75.75 0 1 1-.9 1.2l-2-1.5a.75.75 0 0 1 0-1.2l2-1.5a.75.75 0 0 1 1.05.15Zm-1.07 7.98a.75.75 0 0 1-1.06 0l-.47-.47c-.561.53-1.44.53-2 0-.56.53-1.439.53-2 0l-.47.47a.75.75 0 1 1-1.06-1.06l.5-.5a1.457 1.457 0 0 1 2.03-.03c.56-.53 1.44-.53 2 0a1.457 1.457 0 0 1 2.03.03l.5.5a.75.75 0 0 1 0 1.06Z"/>
  </g>
</svg>
