<svg xmlns="http://www.w3.org/2000/svg" width="24" height="24" fill="none">
  <g fill="#1C274C">
    <path d="M10.926 2.36a.75.75 0 0 1 .249 1.031.65.65 0 0 0 .095.8l.098.098c.588.588.805 1.453.564 2.25a.75.75 0 1 1-1.435-.434.758.758 0 0 0-.19-.756l-.098-.098a2.15 2.15 0 0 1-.314-2.642.75.75 0 0 1 1.031-.249Zm9.048 4.687c-.138.053-.26.176-.506.421-.246.246-.368.368-.422.507a.7.7 0 0 0 0 .503c.054.138.176.261.422.507.245.245.368.368.506.421a.7.7 0 0 0 .504 0c.138-.053.26-.176.506-.421.245-.246.368-.369.421-.507a.7.7 0 0 0 0-.503c-.053-.139-.175-.261-.42-.507-.246-.245-.369-.368-.507-.421a.7.7 0 0 0-.504 0Zm1.434 5.513a1.013 1.013 0 0 0-1.078.17 2.513 2.513 0 0 1-2.924.296l-.212-.123a.75.75 0 0 1 .75-1.299l.212.123c.378.218.853.17 1.179-.12a2.513 2.513 0 0 1 2.674-.422l.291.128a.75.75 0 1 1-.6 1.374l-.292-.127Z"/>
    <path d="M13.561 4.396c.201-.2.302-.301.418-.338a.5.5 0 0 1 .302 0c.116.037.217.137.418.338.2.202.301.302.338.418a.5.5 0 0 1 0 .302c-.037.117-.137.217-.338.418-.201.201-.302.302-.418.339a.5.5 0 0 1-.302 0c-.116-.037-.217-.138-.418-.339-.201-.2-.302-.301-.338-.418a.5.5 0 0 1 0-.302c.036-.116.137-.216.338-.418Zm5.497 10.917a.536.536 0 1 1 .758.759.536.536 0 0 1-.758-.759Z" opacity=".7"/>
    <path d="M6.927 3.94a.536.536 0 1 1 .758.76.536.536 0 0 1-.758-.76Zm10.762.782a.75.75 0 0 1 .588.882l-.144.72a2.82 2.82 0 0 1-1.87 2.12 1.312 1.312 0 0 0-.875.99l-.144.72a.75.75 0 0 1-1.47-.295l.144-.72c.198-.99.912-1.8 1.87-2.119.448-.15.782-.527.874-.99l.144-.72a.75.75 0 0 1 .883-.588Z" opacity=".5"/>
    <path d="M17.5 9.742a.536.536 0 1 1 .758.758.536.536 0 0 1-.758-.758Z" opacity=".2"/>
    <path d="m4.012 15.762 1.69-5.069c.766-2.298 1.149-3.447 2.055-3.66.906-.215 1.763.642 3.475 2.355l3.38 3.379c1.712 1.713 2.569 2.569 2.355 3.475-.214.906-1.363 1.29-3.661 2.055l-5.069 1.69c-2.765.922-4.148 1.383-4.878.653-.73-.73-.269-2.113.653-4.878Z" opacity=".5"/>
    <path d="m8.8 7.504.05-.245c-.392-.23-.739-.31-1.093-.227a1.182 1.182 0 0 0-.397.175l.696.144c-.478-.1-.641-.133-.696-.144a1.29 1.29 0 0 0-.035.024l-.005.026a26.408 26.408 0 0 0-.138.73 51.15 51.15 0 0 0-.311 1.939c-.215 1.533-.415 3.492-.312 5.057.062.948.26 2.123.435 3.04a50.537 50.537 0 0 0 .312 1.503l.021.093.006.025.002.009.73-.17-.73.17.137.588.765-.254.664-.221-.106-.46-.006-.021-.02-.088-.072-.33a48.475 48.475 0 0 1-.23-1.125c-.173-.907-.355-2.007-.411-2.857-.092-1.404.088-3.236.3-4.75a49.647 49.647 0 0 1 .434-2.582l.008-.037.002-.01v-.002Zm4.24 10.882-1.424.475-.092-.278.712-.237-.712.237-.001-.003-.002-.006-.007-.022a9.929 9.929 0 0 1-.115-.37c-.074-.247-.172-.59-.27-.983-.192-.77-.402-1.792-.402-2.644 0-.852.21-1.874.402-2.643a22.305 22.305 0 0 1 .385-1.354l.007-.021.002-.007v-.001l.713.235-.712-.236.212-.637 1.186 1.187-.004.014-.082.267c-.069.23-.16.55-.252.916-.187.75-.357 1.622-.357 2.28 0 .658.17 1.531.357 2.28a20.952 20.952 0 0 0 .356 1.253l.006.017.001.004.092.277Z"/>
  </g>
</svg>
