<svg xmlns="http://www.w3.org/2000/svg" width="24" height="24" fill="none">
  <path stroke="#1C274C" stroke-linecap="round" stroke-width="1.5" d="m4.012 15.762 1.69-5.069c.766-2.298 1.149-3.447 2.055-3.66.906-.215 1.763.642 3.475 2.355l3.38 3.379c1.712 1.713 2.569 2.569 2.355 3.475-.214.906-1.363 1.29-3.661 2.055l-5.069 1.69c-2.765.922-4.148 1.383-4.878.653-.73-.73-.269-2.113.653-4.878Z"/>
  <path stroke="#1C274C" stroke-linecap="round" stroke-width="1.5" d="M12.235 18.346s-.758-2.281-.758-3.79c0-1.51.758-3.792.758-3.792m-4.17 8.72s-.64-2.753-.758-4.55c-.195-2.969.758-7.581.758-7.581" opacity=".5"/>
  <path stroke="#1C274C" stroke-linecap="round" stroke-width="1.5" d="m14.51 10.006.143-.72c.146-.727.67-1.32 1.373-1.554a2.066 2.066 0 0 0 1.372-1.555l.144-.72m.028 7.796.212.123c.657.38 1.483.296 2.051-.207a1.763 1.763 0 0 1 1.876-.297L22 13M9.795 2.779A1.4 1.4 0 0 0 10 4.5l.097.098c.394.393.539.97.378 1.503"/>
  <path fill="#1C274C" d="M6.928 3.94a.536.536 0 1 1 .758.76.536.536 0 0 1-.758-.76Zm5.229 3.217a.536.536 0 1 1 .759.759.536.536 0 0 1-.759-.759Zm5 3a.536.536 0 1 1 .759.759.536.536 0 0 1-.759-.759Zm1.901 5.156a.536.536 0 1 1 .759.759.536.536 0 0 1-.759-.759Z" opacity=".5"/>
  <path fill="#1C274C" d="m19.172 10.328-.485.12.073.293.292.072.12-.485ZM21 8.5l-.5-.001a.5.5 0 0 0 .502.501L21 8.5Zm-1.828 1.828.486-.12v-.002l-.004-.014a6.196 6.196 0 0 1-.14-.952 3.236 3.236 0 0 1 .028-.747c.04-.23.11-.36.173-.425l-.707-.707c-.27.27-.393.634-.45.957-.06.33-.06.68-.041.986a7.172 7.172 0 0 0 .163 1.116l.005.02.001.005v.002h.001l.485-.119Zm.543-2.26c.243-.243.435-.224.524-.183.096.044.263.204.261.614l1 .002c.002-.684-.296-1.272-.842-1.524-.554-.256-1.183-.083-1.65.384l.707.707Zm-.543 2.26-.12.485h.002l.001.001c.002 0 .004 0 .006.002l.02.004.07.016a7.173 7.173 0 0 0 1.045.148c.306.02.656.018.987-.04.323-.058.686-.18.957-.452l-.707-.707c-.065.064-.196.133-.426.174-.222.04-.484.044-.747.027a6.189 6.189 0 0 1-.965-.143h-.003l-.12.485Zm2.968.164c.467-.467.64-1.096.384-1.65-.253-.546-.84-.844-1.525-.842l.003 1c.41-.001.57.165.614.262.04.088.06.28-.183.523l.707.707Z"/>
  <path stroke="#1C274C" d="m15.188 3.417-.027.098c-.03.106-.046.16-.039.212.007.052.036.098.093.189l.053.082c.201.32.302.48.234.611-.07.131-.262.146-.648.176l-.1.008c-.11.009-.164.013-.212.038-.048.025-.084.068-.155.155l-.065.079c-.25.304-.375.456-.518.437-.143-.02-.21-.198-.341-.555l-.034-.092c-.038-.102-.056-.152-.093-.19-.037-.036-.088-.055-.189-.092l-.092-.034c-.357-.132-.535-.198-.555-.34-.02-.144.133-.27.437-.52l.079-.065c.086-.07.13-.106.155-.154.025-.048.03-.103.038-.213l.008-.1c.03-.385.045-.578.175-.647.131-.069.291.032.611.234l.083.052c.09.058.136.086.189.093.052.008.105-.008.212-.038l.097-.027c.376-.107.563-.16.664-.06.1.1.047.288-.06.663Z" opacity=".5"/>
</svg>
