<svg xmlns="http://www.w3.org/2000/svg" width="24" height="24" fill="none">
  <g fill="#1C274C">
    <path d="M2 12c0 5.523 4.477 10 10 10s10-4.477 10-10S17.523 2 12 2 2 6.477 2 12Z" opacity=".5"/>
    <path d="M12.286 8.75c-2.003 0-3.536 1.503-3.536 3.25s1.533 3.25 3.536 3.25c.511 0 .995-.1 1.43-.277a.75.75 0 0 1 .567 1.389 5.29 5.29 0 0 1-1.997.388c-2.732 0-5.036-2.079-5.036-4.75s2.304-4.75 5.036-4.75a5.29 5.29 0 0 1 1.997.388.75.75 0 0 1-.566 1.39 3.784 3.784 0 0 0-1.431-.278Z"/>
  </g>
</svg>
