<svg xmlns="http://www.w3.org/2000/svg" width="24" height="24" fill="none">
  <path fill="#1C274C" d="m18.261 13.482-.53.53.53-.53ZM10.518 5.74l.53-.53-.53.53Zm3.097-3.098.53-.53-.53.53Zm7.743 7.744-.53.53.53-.53Zm.53-.53L14.146 2.11l-1.06 1.06 7.743 7.744 1.06-1.06ZM9.988 6.27l7.743 7.744 1.06-1.061-7.743-7.743-1.06 1.06Zm7.743 7.744a2.94 2.94 0 0 0 4.158 0l-1.06-1.061a1.44 1.44 0 0 1-2.038 0l-1.06 1.06ZM9.987 2.11a2.94 2.94 0 0 0 0 4.158l1.061-1.06a1.44 1.44 0 0 1 0-2.037l-1.06-1.06Zm4.158 0a2.94 2.94 0 0 0-4.158 0l1.061 1.06a1.44 1.44 0 0 1 2.037 0l1.06-1.06Zm6.683 8.804a1.44 1.44 0 0 1 0 2.037l1.06 1.06a2.94 2.94 0 0 0 0-4.157l-1.06 1.06Z"/>
  <path fill="#1C274C" d="M1.47 21.47a.75.75 0 1 0 1.06 1.06l-1.06-1.06Zm3.082-2.022-.53-.53.53.53Zm.215-1.243-.678.321.678-.321Zm-.95-2.004-.677.321.678-.321Zm.79-.697-.403.633.402-.633Zm6.706 4.26.402-.633-.402.633Zm.743-.776-.615.43.615-.43Zm-5.593-8.024-.615.43.615-.43Zm.763-.762.429-.615-.43.615Zm5.548 3.867-.43.615.43-.615Zm.779-.737-.639.394.639-.394Zm-.646-1.05.639-.392-.64.393Zm2.013-2.141a.75.75 0 1 0-1.06-1.061l1.06 1.06ZM2.53 22.53l2.553-2.553-1.061-1.06L1.47 21.47l1.06 1.06Zm2.915-4.647-.95-2.004-1.355.642.95 2.004 1.355-.642Zm-1.241-1.747 6.707 4.26.804-1.266-6.707-4.26-.804 1.266Zm8.467 2.422L7.08 10.536l-1.23.858 5.592 8.024 1.23-.858Zm-5.874-7.742 5.548 3.867.857-1.23-5.547-3.867-.858 1.23Zm7.395 2.123-.646-1.05-1.278.786.646 1.05 1.278-.787Zm-.597-1.475 1.325-1.324-1.06-1.061-1.325 1.324 1.06 1.06Zm-.05.425a.345.345 0 0 1 .05-.425l-1.06-1.06a1.845 1.845 0 0 0-.267 2.27l1.278-.785Zm-1.2 2.794c1.154.805 2.584-.546 1.847-1.744l-1.278.786a.218.218 0 0 1-.022-.144.193.193 0 0 1 .056-.11.193.193 0 0 1 .112-.05.217.217 0 0 1 .142.031l-.857 1.231Zm-5.266-4.148a.22.22 0 0 1 .03.145.193.193 0 0 1-.053.114.193.193 0 0 1-.113.052.22.22 0 0 1-.146-.03l.858-1.23c-1.189-.828-2.635.618-1.807 1.806l1.23-.857Zm3.832 9.86c1.197.76 2.57-.674 1.76-1.837l-1.23.858a.218.218 0 0 1-.03-.143.193.193 0 0 1 .05-.113.193.193 0 0 1 .11-.055.218.218 0 0 1 .144.024l-.804 1.267ZM4.496 15.88a.214.214 0 0 1-.05.238.214.214 0 0 1-.243.02l.805-1.267c-1.098-.697-2.425.475-1.868 1.651l1.356-.642Zm.587 4.098c.551-.552.695-1.39.362-2.094l-1.356.642a.344.344 0 0 1-.067.391l1.06 1.06Z" opacity=".5"/>
  <path stroke="#1C274C" stroke-width="1.5" d="M22 12a2.15 2.15 0 1 1-4.3 0 2.15 2.15 0 0 1 4.3 0Z" opacity=".5"/>
</svg>
