<svg xmlns="http://www.w3.org/2000/svg" width="24" height="24" fill="none">
  <path fill="#1C274C" fill-rule="evenodd" d="M9 1.25a.75.75 0 0 1 .75.75v1.263a85.75 85.75 0 0 1 1.5-.013V2a.75.75 0 0 1 1.5 0v1.25c.535.001 1.034.004 1.5.013V2a.75.75 0 0 1 1.5 0v1.327c.26.02.506.045.739.076 1.172.158 2.121.49 2.87 1.238.748.749 1.08 1.698 1.238 2.87.031.233.056.48.076.739H22a.75.75 0 0 1 0 1.5h-1.263c.01.466.012.965.013 1.5H22a.75.75 0 0 1 0 1.5h-1.25a87.137 87.137 0 0 1-.013 1.5H22a.75.75 0 0 1 0 1.5h-1.327c-.02.26-.045.506-.076.739-.158 1.172-.49 2.121-1.238 2.87-.749.748-1.698 1.08-2.87 1.238-.233.031-.48.056-.739.076V22a.75.75 0 0 1-1.5 0v-1.263c-.466.01-.965.012-1.5.013V22a.75.75 0 0 1-1.5 0v-1.25a87.137 87.137 0 0 1-1.5-.013V22a.75.75 0 0 1-1.5 0v-1.327c-.26-.02-.506-.045-.739-.076-1.172-.158-2.121-.49-2.87-1.238-.748-.749-1.08-1.698-1.238-2.87-.031-.233-.056-.48-.076-.739H2a.75.75 0 0 1 0-1.5h1.263a85.75 85.75 0 0 1-.013-1.5H2a.75.75 0 0 1 0-1.5h1.25c.001-.535.004-1.034.013-1.5H2a.75.75 0 0 1 0-1.5h1.327c.02-.26.045-.506.076-.739.158-1.172.49-2.121 1.238-2.87.749-.748 1.698-1.08 2.87-1.238.233-.031.48-.056.739-.076V2A.75.75 0 0 1 9 1.25ZM7.71 4.89c-1.005.135-1.585.389-2.008.812-.423.423-.677 1.003-.812 2.009-.138 1.028-.14 2.382-.14 4.289 0 1.907.002 3.261.14 4.29.135 1.005.389 1.585.812 2.008.423.423 1.003.677 2.009.812 1.028.138 2.382.14 4.289.14 1.907 0 3.261-.002 4.29-.14 1.005-.135 1.585-.389 2.008-.812.423-.423.677-1.003.812-2.009.138-1.028.14-2.382.14-4.289 0-1.907-.002-3.261-.14-4.29-.135-1.005-.389-1.585-.812-2.008-.423-.423-1.003-.677-2.009-.812-1.028-.138-2.382-.14-4.289-.14-1.907 0-3.261.002-4.29.14Zm2.24 1.36h4.1c.664 0 1.237 0 1.696.062.492.066.963.215 1.345.597s.531.854.597 1.345c.062.459.062 1.032.062 1.697v4.098c0 .665 0 1.238-.062 1.697-.066.492-.215.963-.597 1.345s-.854.531-1.345.597c-.459.062-1.032.062-1.697.062H9.951c-.665 0-1.238 0-1.697-.062-.491-.066-.963-.215-1.345-.597s-.531-.854-.597-1.345c-.062-.459-.062-1.032-.062-1.697V9.951c0-.665 0-1.238.062-1.697.066-.491.215-.963.597-1.345s.854-.531 1.345-.597c.459-.062 1.032-.062 1.697-.062ZM8.455 7.798c-.325.044-.427.115-.484.172-.057.057-.128.159-.172.484-.046.347-.048.818-.048 1.546v4c0 .728.002 1.2.048 1.546.044.325.115.427.172.484.057.057.159.128.484.172.347.046.818.048 1.546.048h4c.728 0 1.2-.002 1.546-.048.325-.044.427-.115.484-.172.057-.057.128-.159.172-.484.046-.347.048-.818.048-1.546v-4c0-.728-.002-1.2-.048-1.546-.044-.325-.115-.427-.172-.484-.057-.057-.159-.128-.484-.172-.347-.046-.818-.048-1.546-.048h-4c-.728 0-1.2.002-1.546.048Z" clip-rule="evenodd"/>
</svg>
