<svg xmlns="http://www.w3.org/2000/svg" width="24" height="24" fill="none">
  <g fill="#1C274C">
    <path fill-rule="evenodd" d="M12 22h-1.36c-3.545 0-5.317 0-6.5-1.21-1.183-1.21-1.371-3.216-1.749-7.228l-.23-2.436c-.18-1.912-.27-2.869.058-3.264a.992.992 0 0 1 .675-.367c.476-.042 1.073.638 2.268 1.998.618.704.927 1.055 1.271 1.11a.923.923 0 0 0 .562-.09c.319-.16.53-.595.955-1.464l2.237-4.584C10.989 2.822 11.39 2 12 2v20Z" clip-rule="evenodd"/>
    <path d="m21.609 13.562.23-2.436c.18-1.912.27-2.869-.058-3.264a.992.992 0 0 0-.675-.367c-.476-.042-1.073.638-2.268 1.998-.618.704-.927 1.055-1.271 1.11a.923.923 0 0 1-.562-.09c-.319-.16-.53-.595-.955-1.464l-2.237-4.584C13.011 2.822 12.61 2 12 2v20h1.36c3.545 0 5.317 0 6.5-1.21 1.183-1.21 1.371-3.216 1.749-7.228Z" opacity=".5"/>
  </g>
</svg>
