<svg xmlns="http://www.w3.org/2000/svg" width="24" height="24" fill="none">
  <path fill="#1C274C" d="M20.92 5.73a.75.75 0 0 0-1.423.475l1.423-.474Zm-17.129.238.712.237-.712-.237Zm.036-.107-.711-.238.711.238ZM7 18.58l-.742.108L7 18.58Zm10.002 0 .742.108L17 18.58Zm-.922 2.933.49.568-.49-.568ZM3.482 7.762l.68-.317-.68.317Zm.218.303.516-.544-.516.544Zm16.819-.303.68.317-.68-.317Zm-.22.303-.515-.544.516.544Zm-2.398-4.982a.75.75 0 1 0 .786-1.278l-.786 1.278Zm-9.98 18.43-.49.568.49-.568ZM5.706 2.444l-.393-.639.393.64Zm-.356.257.482.575L5.35 2.7ZM10 21.995l-.013.75H10v-.75Zm4 0v.75h.013l-.013-.75ZM9.185 2.75h5.63v-1.5h-5.63v1.5ZM4.503 6.205l.036-.107-1.423-.475-.036.108 1.423.474ZM18.5 7.59h-13v1.5h13v-1.5Zm-13.742.859 1.5 10.24 1.483-.217L6.242 8.23l-1.484.217Zm12.985 10.24 1.5-10.24-1.485-.217-1.5 10.24 1.485.217Zm-1.484-.217c-.122.835-.205 1.391-.32 1.804-.109.392-.223.56-.35.67l.98 1.136c.437-.377.664-.86.815-1.405.146-.525.242-1.192.359-1.988l-1.484-.217ZM3.08 5.73c-.153.459-.29.867-.36 1.205-.072.347-.103.747.082 1.143l1.36-.634c.015.034-.02.016.026-.206.048-.23.15-.538.315-1.034L3.08 5.731ZM5.5 7.589c-.523 0-.847 0-1.08-.029-.225-.026-.232-.065-.204-.04L3.184 8.61c.317.3.707.398 1.058.44.343.04.774.04 1.258.04v-1.5Zm-2.698.49c.093.2.223.38.382.53l1.032-1.088a.25.25 0 0 1-.055-.076l-1.36.634Zm16.695-1.874c.166.496.267.804.315 1.034.046.222.01.24.027.206l1.36.634c.184-.396.153-.796.082-1.143-.07-.338-.207-.746-.36-1.205l-1.424.474ZM18.5 9.09c.485 0 .915.002 1.258-.04.351-.04.74-.139 1.058-.44l-1.032-1.088c.028-.026.021.013-.203.04-.234.027-.558.028-1.08.028v1.5Zm1.339-1.644a.25.25 0 0 1-.055.076l1.032 1.089c.16-.152.29-.332.382-.531l-1.36-.634ZM14.815 2.75c.934 0 1.579 0 2.082.052.488.049.775.14 1.005.281l.785-1.278c-.493-.303-1.027-.434-1.639-.496-.596-.06-1.33-.059-2.233-.059v1.5ZM6.257 18.688c.117.796.213 1.463.359 1.988.151.545.378 1.028.814 1.405l.981-1.135c-.127-.11-.241-.279-.35-.671-.115-.413-.197-.97-.32-1.804l-1.484.217ZM9.185 1.25c-.903 0-1.637 0-2.233.06-.612.061-1.146.192-1.639.495L6.1 3.083c.23-.14.516-.232 1.004-.281.503-.051 1.148-.052 2.082-.052v-1.5ZM4.54 6.098c.295-.886.5-1.498.708-1.959.201-.447.378-.69.585-.863l-.964-1.15c-.443.372-.737.837-.989 1.398-.246.546-.477 1.242-.763 2.1l1.423.474Zm.774-4.293a3.75 3.75 0 0 0-.445.32l.964 1.15a2.25 2.25 0 0 1 .267-.192l-.786-1.278Zm4.7 19.44c-1.063-.018-1.392-.118-1.602-.3l-.98 1.136c.673.582 1.549.647 2.556.664l.026-1.5Zm4 1.5c1.007-.017 1.883-.082 2.557-.664l-.981-1.135c-.21.181-.54.281-1.602.3l.026 1.499Zm-4.013 0h4v-1.5h-4v1.5Z"/>
  <path stroke="#1C274C" stroke-linecap="round" stroke-width="1.5" d="M6.5 12H12m5.5 0H16m-9 5h10"/>
</svg>
