<svg xmlns="http://www.w3.org/2000/svg" width="24" height="24" fill="none">
  <g stroke="#1C274C" stroke-width="1.5">
    <path d="M12 16c-5.76 0-6.78-5.74-6.96-10.294-.051-1.266-.076-1.9.4-2.485.475-.586 1.044-.682 2.183-.874A26.374 26.374 0 0 1 12 2c1.784 0 3.253.157 4.377.347 1.139.192 1.708.288 2.184.874.476.586.45 1.219.4 2.485-.18 4.553-1.2 10.294-6.96 10.294Z"/>
    <path stroke-linecap="round" d="M12 16v3"/>
    <path stroke-linecap="round" stroke-linejoin="round" d="M15.5 22h-7l.34-1.696a1 1 0 0 1 .98-.804h4.36a1 1 0 0 1 .98.804L15.5 22Z"/>
    <path d="m19 5 .949.316c.99.33 1.485.495 1.768.888.283.393.283.915.283 1.958v.073c0 .86 0 1.291-.207 1.643-.207.352-.584.561-1.336.98L17.5 12.5M5 5l-.949.316c-.99.33-1.485.495-1.768.888C2 6.597 2 7.12 2 8.162v.073c0 .86 0 1.291.207 1.643.207.352.584.561 1.336.98L6.5 12.5m4.646-6.477C11.526 5.34 11.716 5 12 5c.284 0 .474.34.854 1.023l.098.176c.108.194.162.29.246.354.085.064.19.088.4.135l.19.044c.738.167 1.107.25 1.195.532.088.283-.164.577-.667 1.165l-.13.152c-.143.167-.215.25-.247.354-.032.104-.021.215 0 .438l.02.203c.076.785.114 1.178-.115 1.352-.23.174-.576.015-1.267-.303l-.178-.082c-.197-.09-.295-.135-.399-.135-.104 0-.202.045-.399.135l-.178.082c-.691.319-1.037.477-1.267.303-.23-.174-.191-.567-.115-1.352l.02-.203c.021-.223.032-.334 0-.438-.032-.103-.104-.187-.247-.354l-.13-.152c-.503-.588-.755-.882-.667-1.165.088-.282.457-.365 1.195-.532l.19-.044c.21-.047.315-.07.4-.135.084-.064.138-.16.246-.354l.098-.176Z"/>
    <path stroke-linecap="round" d="M18 22H6"/>
  </g>
</svg>
