<svg xmlns="http://www.w3.org/2000/svg" width="24" height="24" fill="none">
  <g fill="#1C274C">
    <path d="M12 7.25a.75.75 0 0 1 .75.75v5a.75.75 0 0 1-1.5 0V8a.75.75 0 0 1 .75-.75ZM12 17a1 1 0 1 0 0-2 1 1 0 0 0 0 2Z"/>
    <path fill-rule="evenodd" d="M8.294 4.476C9.366 3.115 10.502 2.25 12 2.25c1.498 0 2.634.865 3.706 2.226 1.054 1.34 2.17 3.32 3.6 5.855l.436.772c1.181 2.095 2.115 3.75 2.605 5.077.5 1.358.62 2.59-.138 3.677-.735 1.055-1.962 1.486-3.51 1.69-1.541.203-3.615.203-6.274.203h-.85c-2.66 0-4.733 0-6.274-.203-1.548-.204-2.775-.635-3.51-1.69-.758-1.087-.639-2.32-.138-3.677.49-1.328 1.424-2.982 2.605-5.077l.436-.772c1.429-2.535 2.546-4.516 3.6-5.855Zm1.179.928C8.499 6.641 7.437 8.52 5.965 11.13l-.364.645c-1.226 2.174-2.097 3.724-2.54 4.925-.438 1.186-.378 1.814-.04 2.3.361.516 1.038.87 2.476 1.06 1.432.188 3.406.19 6.14.19h.727c2.733 0 4.707-.002 6.14-.19 1.437-.19 2.114-.544 2.474-1.06.339-.486.4-1.114-.038-2.3-.444-1.201-1.315-2.751-2.541-4.925l-.364-.645c-1.472-2.61-2.534-4.489-3.508-5.726C13.562 4.18 12.813 3.75 12 3.75c-.813 0-1.562.429-2.527 1.654Z" clip-rule="evenodd"/>
  </g>
</svg>
