<svg xmlns="http://www.w3.org/2000/svg" width="24" height="24" fill="none">
  <g fill="#1C274C">
    <path d="M2.277 5.247a.75.75 0 0 1 .924-.522l1.703.472A2.707 2.707 0 0 1 6.8 7.075l2.151 7.786.158.546c.633.237 1.177.68 1.522 1.268l.31-.096 8.87-2.305a.75.75 0 1 1 .378 1.452l-8.838 2.296-.328.102c-.007 1.27-.884 2.431-2.21 2.776-1.591.414-3.226-.502-3.652-2.044-.426-1.543.518-3.129 2.108-3.542a3.35 3.35 0 0 1 .237-.052L5.354 7.474a1.207 1.207 0 0 0-.85-.831L2.8 6.17a.75.75 0 0 1-.523-.923Z"/>
    <path d="m9.564 8.73.515 1.863c.485 1.755.727 2.633 1.44 3.032.713.4 1.618.164 3.428-.306l1.92-.5c1.81-.47 2.715-.705 3.127-1.396.412-.692.17-1.57-.316-3.325l-.514-1.862c-.485-1.756-.728-2.634-1.44-3.033-.714-.4-1.619-.164-3.429.307l-1.92.498c-1.81.47-2.715.706-3.126 1.398-.412.691-.17 1.569.315 3.324Z" opacity=".5"/>
  </g>
</svg>
