<svg xmlns="http://www.w3.org/2000/svg" width="24" height="24" fill="none">
  <path stroke="#1C274C" stroke-linecap="round" stroke-width="1.5" d="M14 7.07A8 8 0 0 0 2.835 17.562c.142.285.189.61.107.918l-.477 1.781a1.04 1.04 0 0 0 1.274 1.274l1.78-.477a1.31 1.31 0 0 1 .919.107A8 8 0 0 0 16.93 10"/>
  <path stroke="#1C274C" stroke-linecap="round" stroke-width="1.5" d="M18 14.502a6.45 6.45 0 0 0 .198-.087c.362-.165.768-.227 1.153-.124l.476.127a1.3 1.3 0 0 0 1.591-1.591l-.127-.476c-.103-.385-.04-.791.125-1.153A6.477 6.477 0 0 0 22 8.5a6.47 6.47 0 0 0-1-3.466m-11.5.962A6.502 6.502 0 0 1 19 3.022"/>
  <path fill="#1C274C" d="M7.5 14a1 1 0 1 1-2 0 1 1 0 0 1 2 0Zm3.5 0a1 1 0 1 1-2 0 1 1 0 0 1 2 0Zm3.5 0a1 1 0 1 1-2 0 1 1 0 0 1 2 0Z"/>
</svg>
