<svg xmlns="http://www.w3.org/2000/svg" width="24" height="24" fill="none">
  <g fill="#1C274C">
    <path fill-rule="evenodd" d="m10.549 21.528.25-.423c.4-.677.6-1.015.92-1.204.32-.189.736-.202 1.568-.229.781-.025 1.306-.093 1.755-.279a3.855 3.855 0 0 0 2.086-2.086c.294-.709.294-1.607.294-3.403v-.772c0-2.524 0-3.786-.568-4.713a3.855 3.855 0 0 0-1.273-1.273c-.927-.568-2.19-.568-4.713-.568H8.553c-2.524 0-3.786 0-4.713.568A3.855 3.855 0 0 0 2.568 8.42C2 9.346 2 10.61 2 13.132v.771c0 1.797 0 2.695.293 3.404a3.855 3.855 0 0 0 2.087 2.086c.449.186.973.254 1.754.28.833.026 1.25.039 1.569.228.319.189.52.527.92 1.204l.25.423a.98.98 0 0 0 1.676 0Zm2.535-7.239a.964.964 0 1 0 0-1.928.964.964 0 0 0 0 1.928Zm-2.41-.964a.964.964 0 1 1-1.927 0 .964.964 0 0 1 1.928 0Zm-4.337.964a.964.964 0 1 0 0-1.928.964.964 0 0 0 0 1.928Z" clip-rule="evenodd"/>
    <path d="M15.17 2c1.151 0 2.067 0 2.802.07.753.071 1.39.222 1.957.57a4.337 4.337 0 0 1 1.431 1.43c.348.567.498 1.204.57 1.957.07.736.07 1.651.07 2.803v.787c0 .82 0 1.472-.036 2-.037.541-.114 1.006-.294 1.44a4.337 4.337 0 0 1-2.428 2.38 8.4 8.4 0 0 1-.334.122c.014-.469.014-1.003.014-1.605v-.893c0-1.201 0-2.208-.078-3.026-.082-.857-.259-1.66-.712-2.4a5.355 5.355 0 0 0-1.768-1.768c-.738-.452-1.542-.63-2.4-.711-.817-.078-1.824-.078-3.026-.078H8.483c-.816 0-1.542 0-2.18.024.03-.103.07-.22.118-.36a3.33 3.33 0 0 1 .315-.67 4.337 4.337 0 0 1 1.431-1.433c.568-.347 1.205-.498 1.958-.57C10.859 2 11.775 2 12.927 2h2.243Z"/>
  </g>
</svg>
