<svg xmlns="http://www.w3.org/2000/svg" width="24" height="24" fill="none">
  <path fill="#1C274C" d="m10.87 21.51.645.382-.646-.382Zm.259-.438-.646-.382.646.382Zm-2.258 0 .646-.382-.646.382Zm.26.438-.646.382.646-.382ZM1.25 12.8a.75.75 0 0 0 1.5 0h-1.5Zm1.747 4.044a.75.75 0 0 0-1.385.574l1.385-.574Zm3.292 2.741.024-.75-.024.75Zm-1.82-.29-.287.693.287-.692Zm13.226-2.164.693.287-.693-.287Zm-3.984 2.454-.024-.75.024.75Zm1.82-.29.287.693-.287-.692ZM3.91 6.59l-.392-.639.392.64ZM2.59 7.91l-.64-.392.64.392Zm5.326 11.912-.381.646.381-.646Zm6.932-12.908a.75.75 0 1 0 .304-1.47l-.304 1.47Zm3.707 1.934a.75.75 0 1 0-1.469.304l1.47-.304Zm-7.04 13.044.26-.438-1.292-.764-.26.438 1.292.764Zm-3.29-.438.26.438 1.291-.764-.26-.438-1.29.764Zm1.999-.326a.25.25 0 0 1-.224.122.25.25 0 0 1-.224-.122l-1.29.764c.676 1.144 2.352 1.144 3.029 0l-1.291-.764ZM8.8 6.75h2.4v-1.5H8.8v1.5Zm8.45 6.05v.8h1.5v-.8h-1.5ZM6.313 18.835c-.792-.025-1.223-.094-1.557-.232l-.574 1.385c.597.248 1.255.32 2.083.347l.048-1.5Zm-4.701-1.417a4.75 4.75 0 0 0 2.57 2.57l.574-1.385a3.25 3.25 0 0 1-1.759-1.76l-1.385.575ZM17.25 13.6c0 .942 0 1.611-.036 2.138-.036.52-.103.845-.211 1.106l1.385.574c.197-.474.281-.982.322-1.578.04-.59.04-1.318.04-2.24h-1.5Zm-3.515 6.735c.828-.027 1.486-.1 2.083-.347l-.574-1.385c-.335.138-.765.207-1.557.232l.048 1.5Zm3.268-3.491a3.25 3.25 0 0 1-1.76 1.759l.575 1.385a4.75 4.75 0 0 0 2.57-2.57l-1.385-.574ZM8.8 5.25c-1.295 0-2.319 0-3.137.077-.83.079-1.526.244-2.145.623l.784 1.279c.343-.21.783-.34 1.503-.409.73-.07 1.671-.07 2.995-.07v-1.5ZM2.75 12.8c0-1.324 0-2.264.07-2.995.069-.72.199-1.16.409-1.503L1.95 7.518c-.38.619-.544 1.315-.623 2.145-.078.818-.077 1.842-.077 3.137h1.5Zm.768-6.85A4.75 4.75 0 0 0 1.95 7.518l1.279.784a3.25 3.25 0 0 1 1.073-1.073L3.518 5.95Zm5.999 14.74c-.201-.34-.377-.638-.548-.874a2.23 2.23 0 0 0-.67-.64l-.764 1.292c.046.027.11.077.22.23.12.165.256.393.47.756l1.292-.764Zm-3.252-.355c.446.014.73.024.947.05.204.025.281.058.323.083l.763-1.291c-.29-.171-.594-.243-.905-.28-.298-.037-.661-.048-1.08-.062l-.048 1.5Zm5.51 1.119c.214-.363.35-.591.47-.756.11-.153.174-.203.22-.23l-.763-1.291a2.23 2.23 0 0 0-.67.64c-.172.235-.348.534-.549.873l1.291.764Zm1.912-2.619c-.419.014-.782.025-1.08.061-.31.038-.616.11-.905.28l.763 1.292c.042-.025.119-.058.323-.083.216-.026.501-.036.947-.05l-.048-1.5ZM11.2 6.75c1.798 0 2.873.004 3.648.164l.304-1.47c-.963-.198-2.227-.194-3.952-.194v1.5Zm7.55 6.05c0-1.725.004-2.989-.195-3.952l-1.469.304c.16.775.164 1.85.164 3.648h1.5Z"/>
  <path stroke="#1C274C" stroke-linecap="round" stroke-width="1.5" d="M7.033 6c.052-.992.183-1.661.52-2.21A3.75 3.75 0 0 1 8.79 2.554C9.692 2 10.92 2 13.375 2h2.25c1.528 0 2.58 0 3.375.133m-1 12.602c.748-.025 1.253-.091 1.685-.27a3.75 3.75 0 0 0 2.03-2.03c.285-.689.285-1.563.285-3.31v-.75c0-1.528 0-2.58-.133-3.375"/>
  <path fill="#1C274C" d="M7.5 13a1 1 0 1 1-2 0 1 1 0 0 1 2 0Zm3.5 0a1 1 0 1 1-2 0 1 1 0 0 1 2 0Zm3.5 0a1 1 0 1 1-2 0 1 1 0 0 1 2 0Z"/>
</svg>
