<svg xmlns="http://www.w3.org/2000/svg" width="24" height="24" fill="none">
  <g fill="#1C274D">
    <path fill-rule="evenodd" d="M13.11 13.5a1.71 1.71 0 0 0-2.22 0 1.71 1.71 0 0 1-.973.403 1.71 1.71 0 0 0-1.569 1.569c-.028.359-.17.7-.403.973a1.71 1.71 0 0 0 0 2.219 1.7 1.7 0 0 1 .403.973 1.71 1.71 0 0 0 1.57 1.57c.358.028.699.169.973.402a1.71 1.71 0 0 0 2.218 0 1.71 1.71 0 0 1 .973-.403 1.71 1.71 0 0 0 1.57-1.569c.028-.358.169-.7.402-.973a1.71 1.71 0 0 0 0-2.219 1.71 1.71 0 0 1-.403-.973 1.71 1.71 0 0 0-1.569-1.569 1.71 1.71 0 0 1-.973-.403Zm.902 3.603a.75.75 0 1 0-1.024-1.097l-1.63 1.523-.346-.323a.75.75 0 0 0-1.024 1.097l.857.8a.75.75 0 0 0 1.024 0l2.143-2Z" clip-rule="evenodd"/>
    <path d="M2 12V8c0-2.828 0-4.243.879-5.121C3.757 2 5.172 2 8 2h8c2.828 0 4.243 0 5.121.879C22 3.757 22 5.172 22 8v4c0 2.828 0 4.243-.879 5.121-.835.836-2.156.877-4.717.879a1.71 1.71 0 0 0-.35-1.555 1.71 1.71 0 0 1-.403-.973 1.71 1.71 0 0 0-1.569-1.569 1.71 1.71 0 0 1-.973-.403 1.71 1.71 0 0 0-2.219 0 1.71 1.71 0 0 1-.973.403 1.71 1.71 0 0 0-1.569 1.569c-.028.359-.17.7-.403.973A1.71 1.71 0 0 0 7.595 18c-2.56-.002-3.88-.043-4.716-.879C2 16.243 2 14.828 2 12Z" opacity=".5"/>
    <path d="M8.25 6A.75.75 0 0 1 9 5.25h6a.75.75 0 0 1 0 1.5H9A.75.75 0 0 1 8.25 6ZM7 8.75a.75.75 0 0 0 0 1.5h10a.75.75 0 0 0 0-1.5H7Z"/>
  </g>
</svg>
