<svg xmlns="http://www.w3.org/2000/svg" width="24" height="24" fill="none">
  <g fill="#1C274D">
    <path fill-rule="evenodd" d="M2 12V8c0-2.828 0-4.243.879-5.121C3.757 2 5.172 2 8 2h8c2.828 0 4.243 0 5.121.879C22 3.757 22 5.172 22 8v4c0 2.828 0 4.243-.879 5.121-.476.477-1.11.695-2.04.795a2.94 2.94 0 0 0-.195-.234 11.002 11.002 0 0 0-.406-.414l-1.493-1.472-.551-.558a4.501 4.501 0 0 0-8.872 0l-.55.558-1.494 1.472c-.143.141-.29.286-.406.414-.05.055-.12.134-.194.234-.931-.1-1.565-.318-2.041-.795C2 16.243 2 14.828 2 12Zm7-6.75a.75.75 0 0 0 0 1.5h6a.75.75 0 0 0 0-1.5H9ZM6.25 9.5A.75.75 0 0 1 7 8.75h10a.75.75 0 0 1 0 1.5H7a.75.75 0 0 1-.75-.75Z" clip-rule="evenodd"/>
    <path d="M15 16a3 3 0 1 1-6 0 3 3 0 0 1 6 0Z"/>
    <path d="M9.001 15.917 9 16a3 3 0 1 0 .001-.083ZM7.676 17.25l-1.08 1.065c-.325.32-.487.48-.543.614a.643.643 0 0 0 .26.813c.122.071.342.093.783.138.248.025.373.037.477.075a.838.838 0 0 1 .5.494c.039.103.052.225.077.47.045.435.068.652.14.773a.662.662 0 0 0 .824.256c.137-.056.3-.215.623-.535l1.08-1.07a4.509 4.509 0 0 1-3.141-3.094Zm5.506 3.093 1.08 1.07c.325.32.487.48.624.535.313.126.66.018.824-.256.072-.12.095-.338.14-.772.025-.246.038-.368.077-.47a.839.839 0 0 1 .5-.495c.105-.038.229-.05.477-.075.44-.045.661-.067.783-.138a.643.643 0 0 0 .26-.813c-.056-.135-.218-.295-.542-.614l-1.08-1.066a4.509 4.509 0 0 1-3.143 3.094Z"/>
  </g>
</svg>
