<svg xmlns="http://www.w3.org/2000/svg" width="24" height="24" fill="none">
  <path fill="#1C274D" fill-rule="evenodd" d="M7.945 1.25h8.11c1.367 0 2.47 0 3.337.117.9.12 1.658.38 2.26.981.602.602.86 1.36.982 2.26.116.867.116 1.97.116 3.337v4.11c0 1.367 0 2.47-.116 3.337-.122.9-.38 1.658-.982 2.26-.498.498-1.105.763-1.816.907a8.826 8.826 0 0 1-1.206.146l.007.016c.273.64.04 1.385-.58 1.736a1.535 1.535 0 0 1-.527.166c-.146.022-.33.04-.533.06l-.02.002a6.67 6.67 0 0 0-.303.036.1.1 0 0 0-.033.02.059.059 0 0 0-.012.015 5.908 5.908 0 0 0-.034.273l-.002.02c-.02.194-.039.372-.063.515a1.456 1.456 0 0 1-.181.53c-.375.607-1.122.794-1.736.553a1.62 1.62 0 0 1-.457-.293 10.658 10.658 0 0 1-.398-.37L12 20.299l-1.758 1.685c-.15.144-.284.272-.398.37a1.62 1.62 0 0 1-.457.294c-.614.24-1.361.053-1.736-.554a1.458 1.458 0 0 1-.18-.53 7.9 7.9 0 0 1-.064-.514l-.003-.02a5.924 5.924 0 0 0-.033-.274.061.061 0 0 0-.012-.015.1.1 0 0 0-.033-.02 6.692 6.692 0 0 0-.304-.036l-.02-.002c-.203-.02-.386-.038-.532-.06a1.54 1.54 0 0 1-.527-.166 1.367 1.367 0 0 1-.58-1.736l.007-.016a9.288 9.288 0 0 1-1.094-.124c-.758-.14-1.403-.404-1.928-.93-.602-.601-.86-1.36-.981-2.26-.117-.866-.117-1.969-.117-3.336v-4.11c0-1.367 0-2.47.117-3.337.12-.9.38-1.658.981-2.26.602-.602 1.36-.86 2.26-.981.867-.117 1.97-.117 3.337-.117ZM6.733 17.246l.816-.782.709-.71a3.75 3.75 0 0 1 7.484 0l.71.71.86.825v-.043c.986-.01 1.69-.048 2.225-.156.514-.105.822-.267 1.054-.499.277-.277.457-.665.556-1.4.101-.755.103-1.756.103-3.191V8c0-1.435-.002-2.437-.103-3.192-.099-.734-.28-1.122-.556-1.399-.277-.277-.665-.457-1.4-.556-.755-.101-1.756-.103-3.191-.103H8c-1.435 0-2.437.002-3.192.103-.734.099-1.122.28-1.399.556-.277.277-.457.665-.556 1.4C2.752 5.562 2.75 6.564 2.75 8v4c0 1.435.002 2.437.103 3.192.099.734.28 1.122.556 1.399.243.243.572.41 1.138.515.539.099 1.234.13 2.186.14Zm8.683.303a3.763 3.763 0 0 1-2.078 1.955l1.444 1.384c.128.123.219.21.29.274.009-.076.02-.17.032-.292l.005-.05c.02-.184.042-.401.118-.598.168-.435.518-.764.95-.917.194-.069.409-.09.602-.108a30.899 30.899 0 0 0 .321-.032l-.214-.206-1.47-1.41Zm-3.386.7-.03-.028-.03.029a2.25 2.25 0 1 1 .06 0Zm-1.368 1.255-1.444 1.384c-.128.123-.219.21-.29.274a13.98 13.98 0 0 1-.032-.292l-.005-.05c-.02-.184-.042-.401-.118-.598a1.577 1.577 0 0 0-.95-.917 2.532 2.532 0 0 0-.602-.108 24.38 24.38 0 0 1-.32-.032c.056-.056.126-.123.213-.206l1.47-1.41a3.763 3.763 0 0 0 2.078 1.955ZM8.25 6A.75.75 0 0 1 9 5.25h6a.75.75 0 0 1 0 1.5H9A.75.75 0 0 1 8.25 6Zm-2 3.5A.75.75 0 0 1 7 8.75h10a.75.75 0 0 1 0 1.5H7a.75.75 0 0 1-.75-.75Z" clip-rule="evenodd"/>
</svg>
