<svg xmlns="http://www.w3.org/2000/svg" width="24" height="24" fill="none">
  <path fill="#1C274C" fill-rule="evenodd" d="M12.62 2.762A7.453 7.453 0 0 0 12 2.75c-2.378 0-4.086.002-5.386.176-1.279.172-2.05.5-2.62 1.069-.569.57-.896 1.34-1.068 2.619-.174 1.3-.176 3.008-.176 5.386s.002 4.086.176 5.386c.172 1.279.5 2.05 1.069 2.62.513.513 1.19.829 2.255 1.012v-.07c0-.899 0-1.648.08-2.242.084-.628.27-1.195.725-1.65.456-.456 1.023-.642 1.65-.726.595-.08 1.345-.08 2.243-.08h2.104c.899 0 1.648 0 2.242.08.628.084 1.195.27 1.65.726.456.455.642 1.022.726 1.65.08.594.08 1.343.08 2.242v.07c1.065-.183 1.742-.5 2.255-1.013.57-.57.897-1.34 1.069-2.619.174-1.3.176-3.008.176-5.386 0-.353 0-.487-.012-.62a3.293 3.293 0 0 0-.749-1.807 7.673 7.673 0 0 0-.439-.457L14.884 3.95a7.718 7.718 0 0 0-.457-.44 3.292 3.292 0 0 0-1.806-.748Zm3.63 18.418V21c0-.964-.002-1.612-.067-2.095-.062-.461-.169-.659-.3-.789-.13-.13-.327-.237-.788-.3-.483-.064-1.131-.066-2.095-.066h-2c-.964 0-1.612.002-2.095.067-.461.062-.659.169-.789.3-.13.13-.237.327-.3.788-.064.483-.066 1.131-.066 2.095v.18c1.126.07 2.508.07 4.25.07s3.124 0 4.25-.07ZM12.031 1.25c.312 0 .513 0 .72.018a4.79 4.79 0 0 1 2.64 1.094c.16.133.305.279.53.504l.024.023 5.19 5.19c.224.225.37.37.503.53a4.791 4.791 0 0 1 1.094 2.64c.018.207.018.408.018.72v.088c0 2.309 0 4.118-.19 5.53-.194 1.444-.6 2.584-1.494 3.479-.895.895-2.035 1.3-3.48 1.494-1.411.19-3.22.19-5.529.19h-.114c-2.309 0-4.118 0-5.53-.19-1.444-.194-2.584-.6-3.479-1.494-.895-.895-1.3-2.035-1.494-3.48-.19-1.411-.19-3.22-.19-5.529v-.114c0-2.309 0-4.118.19-5.53.194-1.444.6-2.584 1.494-3.479.895-.895 2.035-1.3 3.48-1.494 1.411-.19 3.22-.19 5.529-.19h.088ZM6.25 8A.75.75 0 0 1 7 7.25h6a.75.75 0 0 1 0 1.5H7A.75.75 0 0 1 6.25 8Z" clip-rule="evenodd"/>
</svg>
