<svg xmlns="http://www.w3.org/2000/svg" width="24" height="24" fill="none">
  <path fill="#1C274D" fill-rule="evenodd" d="M15.611 1.584a2.75 2.75 0 0 1 3.139 2.722v1.377a3.75 3.75 0 0 1 2 3.317v10A3.75 3.75 0 0 1 17 22.75H7A3.75 3.75 0 0 1 3.25 19V4.929c0-.906.666-1.675 1.564-1.803L15.61 1.584ZM4.75 6.75V19A2.25 2.25 0 0 0 7 21.25h10A2.25 2.25 0 0 0 19.25 19V9A2.25 2.25 0 0 0 17 6.75H4.75Zm.321-1.5H17.25v-.944a1.25 1.25 0 0 0-1.427-1.237L5.026 4.61a.321.321 0 0 0 .045.639ZM7.25 12a.75.75 0 0 1 .75-.75h8a.75.75 0 0 1 0 1.5H8a.75.75 0 0 1-.75-.75Zm0 3.5a.75.75 0 0 1 .75-.75h5.5a.75.75 0 0 1 0 1.5H8a.75.75 0 0 1-.75-.75Z" clip-rule="evenodd"/>
</svg>
