<svg xmlns="http://www.w3.org/2000/svg" width="24" height="24" fill="none">
  <path fill="#1C274C" fill-rule="evenodd" d="M12 2.75a9.25 9.25 0 1 0 0 18.5 9.25 9.25 0 0 0 0-18.5ZM1.25 12C1.25 6.063 6.063 1.25 12 1.25S22.75 6.063 22.75 12 17.937 22.75 12 22.75 1.25 17.937 1.25 12ZM12 5.25a.75.75 0 0 1 .75.75v.317c1.63.292 3 1.517 3 3.183a.75.75 0 0 1-1.5 0c0-.678-.564-1.397-1.5-1.653v3.47c1.63.292 3 1.517 3 3.183s-1.37 2.891-3 3.183V18a.75.75 0 0 1-1.5 0v-.317c-1.63-.292-3-1.517-3-3.183a.75.75 0 0 1 1.5 0c0 .678.564 1.397 1.5 1.652v-3.469c-1.63-.292-3-1.517-3-3.183s1.37-2.891 3-3.183V6a.75.75 0 0 1 .75-.75Zm-.75 2.597c-.936.256-1.5.975-1.5 1.653s.564 1.397 1.5 1.652V7.848Zm1.5 5v3.306c.936-.256 1.5-.974 1.5-1.653 0-.678-.564-1.397-1.5-1.652Z" clip-rule="evenodd"/>
</svg>
