<svg xmlns="http://www.w3.org/2000/svg" width="24" height="24" fill="none">
  <path fill="#1C274C" fill-rule="evenodd" d="M12 22c5.523 0 10-4.477 10-10S17.523 2 12 2 2 6.477 2 12s4.477 10 10 10Zm.75-16a.75.75 0 0 0-1.5 0v.317c-1.63.292-3 1.517-3 3.183 0 1.917 1.813 3.25 3.75 3.25 1.377 0 2.25.906 2.25 1.75s-.873 1.75-2.25 1.75-2.25-.906-2.25-1.75a.75.75 0 0 0-1.5 0c0 1.666 1.37 2.891 3 3.183V18a.75.75 0 0 0 1.5 0v-.317c1.63-.292 3-1.517 3-3.183 0-1.917-1.813-3.25-3.75-3.25-1.377 0-2.25-.906-2.25-1.75s.873-1.75 2.25-1.75 2.25.906 2.25 1.75a.75.75 0 0 0 1.5 0c0-1.666-1.37-2.891-3-3.183V6Z" clip-rule="evenodd"/>
</svg>
