<svg xmlns="http://www.w3.org/2000/svg" width="24" height="24" fill="none">
  <g fill="#1C274C">
    <path d="M18.677 14.531c.493-.492.802-.781 1.476-.781.594 0 1.134.237 1.582.547C20.697 18.713 16.732 22 12 22c-4.532 0-8.36-3.015-9.588-7.15.825.454 1.889.9 2.92.9.813 0 1.635-.277 2.325-.598a11.434 11.434 0 0 0 1.422-.8A3.743 3.743 0 0 0 12 15.75c.752 0 1.452-.221 2.039-.602.574.337 1.285.602 2.104.602 1.313 0 2.006-.691 2.513-1.198l.021-.021Z"/>
    <path d="M9.75 12a2.25 2.25 0 1 1 4.5 0 2.25 2.25 0 0 1-4.5 0Z"/>
    <path fill-rule="evenodd" d="M12 8.25a3.75 3.75 0 0 0-3.612 4.76c-.379.256-.855.546-1.363.782-.604.28-1.194.458-1.693.458-.76 0-1.694-.407-2.513-.894-.3-.179-.568-.358-.784-.512a9.976 9.976 0 0 1 3.382-8.372c.016.02.034.04.053.058l1 1a.75.75 0 0 0 1.06-1.06l-.904-.905A9.953 9.953 0 0 1 12 2a9.976 9.976 0 0 1 7.528 3.417.756.756 0 0 0-.058.053l-1 1a.75.75 0 0 0 1.06 1.06l.905-.904a9.953 9.953 0 0 1 1.54 6.073 4.04 4.04 0 0 0-1.822-.449c-1.314 0-2.006.691-2.514 1.198l-.021.021c-.493.492-.802.781-1.475.781-.35 0-.683-.082-.992-.216A3.75 3.75 0 0 0 12 8.25Zm4.45-3.85a.75.75 0 0 1 .15 1.05l-1.5 2a.75.75 0 1 1-1.2-.9l1.5-2a.75.75 0 0 1 1.05-.15Zm-5.98-.93a.75.75 0 0 0 0 1.06l1 1a.75.75 0 1 0 1.06-1.06l-1-1a.75.75 0 0 0-1.06 0ZM8.41 7.56a.75.75 0 0 0 .918.53l1.366-.366a.75.75 0 1 0-.388-1.448l-1.366.366a.75.75 0 0 0-.53.918Zm8.341 3.578a.75.75 0 0 0 .714-.784L17.4 8.94a.75.75 0 1 0-1.498.07l.066 1.413a.75.75 0 0 0 .784.714Zm2.19.416A.75.75 0 0 0 20 11.62l1.173-.973a.75.75 0 1 0-.991-1.126l-1.173.973a.75.75 0 0 0-.068 1.059ZM5.897 7.174a.75.75 0 0 0-.373.993l.586 1.287a.75.75 0 1 0 1.365-.62L6.89 7.545a.75.75 0 0 0-.993-.372Zm1.046 3.72a.75.75 0 0 1 .162 1.05l-.835 1.14a.75.75 0 1 1-1.21-.886l.835-1.14a.75.75 0 0 1 1.048-.163ZM3.563 8.19a.75.75 0 0 0-.708.79l.079 1.412a.75.75 0 1 0 1.498-.083l-.08-1.412a.75.75 0 0 0-.79-.707Z" clip-rule="evenodd"/>
  </g>
</svg>
