<svg xmlns="http://www.w3.org/2000/svg" width="24" height="24" fill="none">
  <g fill="#1C274C">
    <path d="M2 12c0-4.714 0-7.071 1.464-8.536C4.93 2 7.286 2 12 2c4.714 0 7.071 0 8.535 1.464C22 4.93 22 7.286 22 12c0 4.714 0 7.071-1.465 8.535C19.072 22 16.714 22 12 22s-7.071 0-8.536-1.465C2 19.072 2 16.714 2 12Z" opacity=".5"/>
    <path d="M8.5 6.25a.75.75 0 0 1 .75.75v4.928l1.174-1.408a.75.75 0 0 1 1.152.96l-2.5 3a.75.75 0 0 1-1.152 0l-2.5-3a.75.75 0 1 1 1.152-.96l1.174 1.409V7a.75.75 0 0 1 .75-.75Zm7 0a.75.75 0 0 1 .75.75v4.928l1.174-1.408a.75.75 0 0 1 1.152.96l-2.5 3a.75.75 0 0 1-1.152 0l-2.5-3a.75.75 0 1 1 1.152-.96l1.174 1.409V7a.75.75 0 0 1 .75-.75Zm-9.5 10a.75.75 0 0 0 0 1.5h12a.75.75 0 0 0 0-1.5H6Z"/>
  </g>
</svg>
