<svg xmlns="http://www.w3.org/2000/svg" width="24" height="24" fill="none">
  <path stroke="#1C274C" stroke-linecap="round" stroke-width="1.5" d="M22 10h-4m4 3h-3"/>
  <path fill="#1C274C" fill-rule="evenodd" d="M11.94 1.25a3.75 3.75 0 0 1 2.354.852l.003.003.035.029.07.058c.257.207.546.35.848.428V2a.75.75 0 0 1 1.5 0v.489a2.22 2.22 0 0 0 .632-.432l.065-.065.523-.522a.75.75 0 1 1 1.06 1.06l-.527.527a3.74 3.74 0 0 1-1.753 1.016V5.25h1.302c.899 0 1.648 0 2.242.08.628.084 1.195.27 1.65.725.456.456.642 1.023.726 1.65.08.595.08 1.344.08 2.243v6.559c0 .868-.366 1.696-1.008 2.28a8.503 8.503 0 0 1-4.992 2.19.6.6 0 0 1 0 .023v1a.75.75 0 0 1-1.5 0v-1a.6.6 0 0 1 0-.023 8.503 8.503 0 0 1-4.992-2.19 3.084 3.084 0 0 1-1.008-2.28V9.948c0-.898 0-1.648.08-2.242.084-.628.27-1.195.726-1.65.455-.456 1.022-.642 1.65-.726.594-.08 1.344-.08 2.242-.08h1.302V4.149a3.739 3.739 0 0 1-1.79-.79l-.083-.069-.004-.003-.031-.026-.002-.001a2.25 2.25 0 0 0-1.408-.51H8l-3.192.103c-.734.099-1.122.28-1.399.556-.277.277-.457.665-.556 1.4C2.752 5.562 2.75 6.564 2.75 8v14.25a.75.75 0 0 1-1.5 0V7.945c0-1.367 0-2.47.117-3.337.12-.9.38-1.658.981-2.26.602-.602 1.36-.86 2.26-.981.867-.117 1.97-.117 3.337-.117h3.996Zm-.035 5.567c-.461.062-.659.169-.789.3-.13.13-.237.327-.3.788-.064.483-.066 1.131-.066 2.095v6.507c0 .446.188.871.518 1.171a7.03 7.03 0 0 0 9.464 0c.33-.3.518-.725.518-1.171V10c0-.964-.002-1.612-.067-2.095-.062-.461-.169-.659-.3-.789-.13-.13-.327-.237-.788-.3-.483-.064-1.131-.066-2.095-.066h-4c-.964 0-1.612.002-2.095.067Z" clip-rule="evenodd"/>
</svg>
