<svg xmlns="http://www.w3.org/2000/svg" width="24" height="24" fill="none">
  <g stroke="#1C274C" stroke-width="1.5">
    <path d="m8.319 12.198 3.88-3.88m3.104 3.104-3.88 3.88m-7.991.318c-.905-.905-1.357-1.357-1.421-1.91a1.598 1.598 0 0 1 0-.37c.064-.552.516-1.004 1.42-1.908.905-.905 1.357-1.357 1.909-1.421.123-.015.248-.015.37 0 .553.064 1.005.516 1.91 1.42l4.948 4.95c.905.904 1.357 1.356 1.421 1.908.015.123.015.248 0 .371-.064.552-.516 1.004-1.42 1.908-.905.905-1.357 1.357-1.909 1.421a1.598 1.598 0 0 1-.37 0c-.553-.064-1.005-.516-1.91-1.42l-4.948-4.95Zm8-8c-.905-.905-1.357-1.357-1.421-1.91a1.598 1.598 0 0 1 0-.37c.064-.552.516-1.004 1.42-1.908.905-.905 1.357-1.357 1.909-1.421.123-.015.248-.015.37 0 .553.064 1.005.516 1.91 1.42l4.948 4.95c.905.904 1.357 1.356 1.421 1.908.015.123.015.248 0 .371-.064.552-.516 1.004-1.42 1.908-.905.905-1.357 1.357-1.909 1.421a1.598 1.598 0 0 1-.37 0c-.553-.064-1.005-.516-1.91-1.42l-4.948-4.95Z"/>
    <path stroke-linecap="round" stroke-linejoin="round" d="m18.019 2.498 3.104 3.104M2.498 18.019l3.104 3.104"/>
  </g>
</svg>
