<svg xmlns="http://www.w3.org/2000/svg" width="24" height="24" fill="none">
  <path fill="#1C274C" d="m17.235 16.848-.287.693.287-.693ZM16 13.5h.75a.75.75 0 0 0-.75-.75v.75Zm.152 2.265-.693.287.693-.287Zm5.696 0 .693.287-.693-.287Zm-1.083 1.083-.287-.693.287.693Zm0-9.696-.287.693.287-.693Zm.39 1.37a.75.75 0 1 0 1.386-.574l-1.386.574Zm-3.92-1.37-.287-.693.287.693ZM16 10.5v.75a.75.75 0 0 0 .75-.75H16Zm.152-2.265-.693-.287.693.287ZM3.235 16.848l-.287.693.287-.693Zm-1.083-1.083-.693.287.693-.287ZM8 13.5v-.75a.75.75 0 0 0-.75.75H8Zm-.152 2.265.693.287-.693-.287Zm-1.083 1.083.287.693-.287-.693Zm0-9.696.287-.693-.287.693ZM8 10.5h-.75c0 .414.336.75.75.75v-.75Zm-.152-2.265.693-.287-.693.287ZM3.235 7.152l-.287-.693.287.693ZM2.152 8.235l-.693-.287.693.287ZM22.75 12a.75.75 0 0 0-1.5 0h1.5ZM19 16.25c-.476 0-.796 0-1.043-.017-.241-.017-.358-.046-.435-.078l-.574 1.386c.29.12.59.167.907.188.31.021.69.021 1.145.021v-1.5Zm-3.75-2.75c0 .461 0 .954.02 1.38.01.213.026.421.051.609.024.176.063.382.138.563l1.386-.574-.012-.045a1.739 1.739 0 0 1-.026-.147 5.623 5.623 0 0 1-.039-.477 29.644 29.644 0 0 1-.018-1.309h-1.5Zm2.272 2.655a1.25 1.25 0 0 1-.677-.677l-1.386.574a2.75 2.75 0 0 0 1.489 1.489l.574-1.386ZM21.25 14c0 .476 0 .796-.017 1.043-.017.241-.046.358-.078.435l1.386.574c.12-.29.167-.59.188-.907.021-.31.021-.69.021-1.145h-1.5ZM19 17.75c.456 0 .835 0 1.145-.02.317-.022.617-.069.907-.19l-.574-1.385c-.077.032-.194.061-.435.078-.247.017-.567.017-1.043.017v1.5Zm2.155-2.272a1.25 1.25 0 0 1-.677.677l.574 1.386a2.75 2.75 0 0 0 1.489-1.489l-1.386-.574ZM19 7.75c.476 0 .796 0 1.043.017.241.017.358.046.435.078l.574-1.386c-.29-.12-.59-.167-.907-.188-.31-.021-.69-.021-1.145-.021v1.5Zm1.478.095c.307.127.55.37.677.677l1.386-.574a2.75 2.75 0 0 0-1.489-1.489l-.574 1.386ZM19 6.25c-.456 0-.835 0-1.145.02a2.823 2.823 0 0 0-.907.19l.574 1.385c.077-.032.194-.061.435-.078.247-.017.567-.017 1.043-.017v-1.5Zm-2.25 4.25c0-.47 0-.926.018-1.309.01-.19.022-.35.04-.477.008-.063.017-.11.025-.147l.012-.045-1.386-.574a2.326 2.326 0 0 0-.138.563 7.035 7.035 0 0 0-.051.61c-.02.425-.02.918-.02 1.379h1.5Zm.198-4.04a2.75 2.75 0 0 0-1.489 1.488l1.386.574c.127-.307.37-.55.677-.677l-.574-1.386ZM2.75 14v-4h-1.5v4h1.5ZM5 16.25c-.476 0-.796 0-1.043-.017-.241-.017-.358-.046-.435-.078l-.574 1.386c.29.12.59.167.907.188.31.021.69.021 1.145.021v-1.5ZM1.25 14c0 .456 0 .835.02 1.145.022.318.07.617.19.907l1.385-.574c-.032-.077-.061-.194-.078-.435A17.091 17.091 0 0 1 2.75 14h-1.5Zm2.272 2.155a1.25 1.25 0 0 1-.677-.677l-1.386.574a2.75 2.75 0 0 0 1.489 1.489l.574-1.386ZM7.25 13.5c0 .47 0 .926-.018 1.309-.01.19-.022.35-.04.477a1.706 1.706 0 0 1-.025.147l-.012.045 1.386.574c.075-.181.114-.387.138-.563.025-.188.041-.396.051-.61.02-.425.02-.918.02-1.379h-1.5ZM5 17.75c.456 0 .835 0 1.145-.02.317-.022.617-.069.907-.19l-.574-1.385c-.077.032-.194.061-.435.078A17.07 17.07 0 0 1 5 16.25v1.5Zm2.155-2.272a1.25 1.25 0 0 1-.677.677l.574 1.386a2.75 2.75 0 0 0 1.489-1.489l-1.386-.574ZM5 7.75c.476 0 .796 0 1.043.017.241.017.358.046.435.078l.574-1.386c-.29-.12-.59-.167-.907-.188-.31-.021-.69-.021-1.145-.021v1.5Zm3.75 2.75c0-.461 0-.954-.02-1.38a7.058 7.058 0 0 0-.051-.609 2.323 2.323 0 0 0-.138-.563l-1.386.574.012.045c.008.036.017.084.026.147a5.6 5.6 0 0 1 .039.477c.018.383.018.838.018 1.309h1.5ZM6.478 7.845c.307.127.55.37.677.677l1.386-.574a2.75 2.75 0 0 0-1.489-1.489l-.574 1.386ZM5 6.25c-.456 0-.835 0-1.145.02a2.823 2.823 0 0 0-.907.19l.574 1.385c.077-.032.194-.061.435-.078A17.09 17.09 0 0 1 5 7.75v-1.5ZM2.75 10c0-.476 0-.796.017-1.043.017-.241.046-.358.078-.435L1.46 7.948c-.12.29-.167.59-.188.907-.021.31-.021.69-.021 1.145h1.5Zm.198-3.54a2.75 2.75 0 0 0-1.489 1.488l1.386.574c.127-.307.37-.55.677-.677L2.948 6.46ZM8 11.25h8v-1.5H8v1.5Zm8 1.5H8v1.5h8v-1.5Zm5.25-.75v2h1.5v-2h-1.5Z"/>
</svg>
