<svg xmlns="http://www.w3.org/2000/svg" width="24" height="24" fill="none">
  <path fill="#1C274C" d="m6.09 7.311.09-.744-.09.744Zm2.84.345-.09.744.09-.744Zm1.583 3.404.639.393-.639-.393Zm-2.49.53.09-.745a.75.75 0 0 0-.834.641l.743.104Zm1.622.094-.184-.727.184.727Zm.525-3.775.355-.661-.355.66Zm.669.81-.72.209.72-.209Zm-6.884-.835-.639-.393.639.393Zm.868-.624-.183-.727.183.727ZM3.63 10.225l-.72.208.72-.208Zm2.263 1.107.743.103a.75.75 0 0 0-.653-.848l-.09.745Zm-1.594-.296.354-.661-.354.66ZM6.97 21.742l-.09.744.09-.744Zm-2.84-.345.09-.744-.09.744Zm5.246-1.386.743.104-.743-.104Zm-.27 1.158-.64-.394.64.394Zm-.869.624.183.727-.183-.727ZM7.169 17.72l-.743-.103a.75.75 0 0 0 .653.848l.09-.745Zm1.594.296.355-.66-.355.66Zm.67.811-.721.208.72-.208Zm-7.156.322.743.104-.743-.104Zm.271-1.157-.639-.393.639.393Zm2.49-.53-.09.745a.75.75 0 0 0 .834-.642l-.743-.103Zm-1.622-.094-.183-.727.183.727Zm-1.194 2.965-.72.208.72-.209Zm.669.81-.355.661.355-.66Zm3.11-13.088 2.84.344.18-1.489-2.84-.344L6 8.056Zm4.04 1.743c-.044.32-.073.52-.105.67a.648.648 0 0 1-.062.197l1.278.787c.134-.218.203-.446.25-.67.047-.216.083-.479.125-.777l-1.486-.207Zm-2.11 2.535c.327.04.682.083.99.107.27.02.632.04.907-.03l-.367-1.454c.02-.005-.002.002-.097.003-.085 0-.194-.005-.328-.015-.269-.02-.588-.059-.924-.1l-.18 1.49Zm1.943-1.668a.674.674 0 0 1-.413.29l.367 1.455a2.173 2.173 0 0 0 1.324-.958l-1.278-.787ZM8.84 8.4c.34.042.561.069.728.1.162.03.221.055.247.07l.71-1.322c-.22-.119-.45-.18-.682-.223-.225-.042-.5-.075-.822-.114l-.18 1.49Zm2.687 1.606c.041-.298.078-.561.093-.781.015-.228.01-.467-.06-.714l-1.442.417c.003.01.014.053.005.199-.01.152-.037.353-.082.672l1.486.207ZM9.815 8.569c.161.087.263.22.303.359l1.441-.417a2.103 2.103 0 0 0-1.034-1.263l-.71 1.321Zm-5.388.576c.044-.32.072-.52.105-.67a.648.648 0 0 1 .061-.197L3.316 7.49a2.072 2.072 0 0 0-.251.67c-.046.216-.083.48-.124.777l1.486.207ZM6.18 6.567c-.321-.04-.597-.073-.826-.086a2.334 2.334 0 0 0-.715.052l.366 1.454a.903.903 0 0 1 .263-.009c.17.01.39.036.731.078l.18-1.49Zm-1.588 1.71a.674.674 0 0 1 .413-.29L4.64 6.533a2.173 2.173 0 0 0-1.324.958l1.277.787Zm-1.652.661c-.042.298-.079.561-.093.781-.015.228-.01.467.06.714l1.442-.416a.63.63 0 0 1-.005-.2c.01-.152.037-.352.082-.672L2.94 8.938Zm3.041 1.649a21.73 21.73 0 0 1-.92-.124 4.078 4.078 0 0 1-.32-.064c-.092-.023-.11-.035-.09-.024l-.71 1.321c.251.135.609.203.874.247.305.05.66.094.986.133l.18-1.489Zm-3.074-.154c.158.547.538.996 1.035 1.263l.71-1.321a.604.604 0 0 1-.303-.358l-1.441.416ZM7.06 20.997l-2.84-.344-.18 1.489 2.84.344.18-1.489Zm1.573-1.089c-.044.32-.072.52-.105.67a.647.647 0 0 1-.061.197l1.277.787c.134-.218.203-.446.251-.67.046-.216.083-.48.124-.777l-1.486-.207ZM6.88 22.486c.322.04.597.073.827.086.235.014.472.01.714-.052l-.366-1.454a.903.903 0 0 1-.263.009c-.17-.01-.39-.037-.731-.078l-.18 1.49Zm1.588-1.71a.674.674 0 0 1-.413.29l.366 1.454a2.172 2.172 0 0 0 1.324-.958l-1.277-.787Zm-1.39-2.31c.336.04.655.08.92.124.133.022.24.043.321.064.092.023.11.035.09.024l.71-1.321c-.251-.135-.608-.203-.874-.247-.305-.05-.66-.094-.986-.133l-.18 1.489Zm3.042 1.649c.042-.298.079-.561.093-.782a2.04 2.04 0 0 0-.06-.713l-1.441.416c.002.01.014.054.004.2-.01.152-.037.352-.082.672l1.486.207Zm-1.71-1.437a.61.61 0 0 1 .303.358l1.44-.416a2.103 2.103 0 0 0-1.034-1.263l-.71 1.321Zm-5.39.576c.045-.32.074-.52.106-.67a.647.647 0 0 1 .062-.197L1.909 17.6a2.072 2.072 0 0 0-.25.67c-.047.216-.083.479-.125.777l1.486.207Zm2.11-2.536c-.326-.04-.68-.082-.989-.106-.27-.02-.632-.04-.907.03l.367 1.454c-.02.005.003-.002.097-.003.085 0 .194.004.328.015.269.02.588.059.924.1l.18-1.49Zm-1.942 1.669a.674.674 0 0 1 .413-.29l-.367-1.455a2.172 2.172 0 0 0-1.324.958l1.278.787Zm-1.653.66c-.041.298-.078.561-.093.781-.015.228-.01.467.06.714l1.442-.417a.63.63 0 0 1-.005-.199c.01-.153.037-.353.082-.672l-1.486-.207Zm2.687 1.606c-.34-.042-.56-.069-.728-.1a.88.88 0 0 1-.247-.07l-.71 1.322c.22.119.45.18.682.223.225.042.5.075.822.114l.18-1.49Zm-2.72-.111a2.11 2.11 0 0 0 1.035 1.263l.71-1.322a.605.605 0 0 1-.303-.358l-1.441.417Zm4.28-2.976.854-6.131-1.486-.207-.853 6.132 1.486.206Zm1.498-6.08-.853 6.132 1.486.207.853-6.132-1.486-.207Zm13.732 1.184.58-.477-.58.477Zm-2.544-.218-.72.207a.75.75 0 0 0 .902.52l-.182-.727Zm1.595-.294.092-.744-.092.744Zm-.32 3.354a.75.75 0 0 0 .365 1.455l-.364-1.455Zm1.376.323.436.61-.436-.61Zm.547-.886.743.105-.742-.105Zm-6.705 1.678-.58.476.58-.476Zm.858 1.256a.75.75 0 1 0 .183-1.49l-.183 1.49Zm-1.512-3.536-.743-.105.743.105Zm2.086-1.376.182.727a.75.75 0 0 0 .54-.934l-.722.207Zm-1.538.49.437.61-.437-.61Zm1.133-10.942.182.727-.182-.727Zm-2.766.692-.182-.728.182.728Zm4.964-.388-.58.476.58-.476Zm-.949-.511.092-.745-.092.745Zm-.483 4.167-.182-.727a.75.75 0 0 0-.539.934l.721-.207Zm1.539-.49-.437-.61.437.61Zm.548-.886-.743-.105.743.105ZM12.135 6.78l.58-.476-.58.476Zm2.544.218.721-.207a.75.75 0 0 0-.903-.52l.182.727Zm-1.595.294.092-.744-.092.744ZM11.481 4.5l.743.104-.743-.104Zm.548-.886.437.61-.437-.61Zm10.137 9.961c-.084-.29-.157-.546-.233-.754a2.1 2.1 0 0 0-.341-.629l-1.16.953a.674.674 0 0 1 .093.192c.053.146.11.34.199.652l1.442-.414Zm-3.516-.397c.327-.082.638-.16.901-.213.131-.026.239-.045.323-.055.093-.01.117-.006.098-.009l.183-1.488c-.282-.035-.638.028-.903.082-.303.062-.648.149-.966.228l.364 1.455Zm2.942-.986a2.207 2.207 0 0 0-1.437-.78l-.183 1.49a.708.708 0 0 1 .46.243l1.16-.953Zm-1.484 4.774c.313-.079.582-.145.8-.215a2.24 2.24 0 0 0 .647-.307l-.873-1.22a.854.854 0 0 1-.231.098 11.56 11.56 0 0 1-.707.188l.364 1.456Zm.616-2.977c.09.311.145.507.176.657.03.144.025.188.024.198l1.485.209a2.04 2.04 0 0 0-.04-.715c-.046-.216-.12-.473-.203-.763l-1.442.414Zm.831 2.455c.46-.33.775-.827.854-1.391l-1.485-.21a.572.572 0 0 1-.242.382l.873 1.22Zm-7.747-.725c.083.29.156.547.233.755.079.215.179.43.34.628l1.16-.953a.67.67 0 0 1-.092-.192 11 11 0 0 1-.2-.652l-1.441.414Zm.574 1.383c.359.437.878.711 1.437.78l.183-1.49a.707.707 0 0 1-.461-.243l-1.16.953Zm.868-1.797c-.09-.311-.145-.506-.177-.657a.635.635 0 0 1-.023-.197l-1.486-.21a2.04 2.04 0 0 0 .041.715c.046.217.12.473.203.763l1.442-.414Zm.961-3.063c-.317.08-.663.166-.958.254-.256.076-.603.188-.835.354l.874 1.22c-.02.014-.006 0 .082-.034.077-.03.18-.065.307-.103.257-.076.568-.154.894-.236l-.364-1.455Zm-1.161 2.209a.568.568 0 0 1 .242-.381l-.874-1.22a2.07 2.07 0 0 0-.854 1.391l1.486.21Zm.756-12.66-2.766.691.364 1.455 2.766-.692-.364-1.455ZM19.34 3.73c-.084-.29-.157-.547-.233-.755a2.101 2.101 0 0 0-.341-.628l-1.16.952a.672.672 0 0 1 .093.193c.053.145.11.34.199.652l1.442-.414Zm-3.17-.484c.332-.083.546-.136.713-.167a.9.9 0 0 1 .263-.023l.183-1.489a2.335 2.335 0 0 0-.716.037c-.225.041-.494.109-.807.187l.364 1.455Zm2.596-.899a2.207 2.207 0 0 0-1.437-.78l-.183 1.49a.707.707 0 0 1 .46.242l1.16-.952Zm-1.83 4.86c.318-.08.663-.166.958-.254.257-.076.604-.188.835-.354l-.873-1.22c.02-.014.005 0-.082.034-.077.03-.18.065-.308.103-.257.076-.567.154-.894.236l.364 1.455Zm.962-3.063c.09.311.145.506.176.657.03.143.025.188.024.197l1.485.21a2.04 2.04 0 0 0-.04-.716c-.046-.216-.12-.472-.203-.762l-1.442.414Zm.831 2.455c.46-.33.775-.827.854-1.391l-1.485-.21a.571.571 0 0 1-.242.381l.873 1.22Zm-7.747-.725c.083.29.156.546.233.754.079.216.179.431.34.629l1.16-.953a.672.672 0 0 1-.092-.192 10.61 10.61 0 0 1-.2-.652l-1.441.414Zm3.515.397c-.326.081-.637.159-.9.213a4.1 4.1 0 0 1-.323.055c-.094.01-.118.006-.098.009l-.183 1.488c.281.035.637-.028.903-.083.302-.061.648-.148.965-.227l-.364-1.455Zm-2.941.986c.359.436.878.71 1.437.78l.183-1.49a.707.707 0 0 1-.461-.243l-1.16.953Zm.868-1.797c-.09-.311-.145-.507-.177-.657a.635.635 0 0 1-.023-.198l-1.486-.21a2.04 2.04 0 0 0 .041.716c.046.216.12.472.203.763l1.442-.414Zm.616-2.977c-.313.078-.582.145-.8.215-.223.071-.444.16-.648.307l.874 1.22a.852.852 0 0 1 .23-.098c.162-.052.376-.106.708-.189l-.364-1.455Zm-.816 2.122a.57.57 0 0 1 .242-.38l-.874-1.22a2.07 2.07 0 0 0-.854 1.39l1.486.21Zm1.734 2.6 1.714 5.973 1.442-.414L15.4 6.79l-1.442.414Zm5.231 5.04-1.714-5.973-1.442.414 1.714 5.973 1.442-.414Z"/>
</svg>
