<svg xmlns="http://www.w3.org/2000/svg" width="24" height="24" fill="none">
  <path fill="#1C274C" d="m6.044 7.089.09-.745-.09.745Zm2.941.354-.09.744.09-.744Zm1.638 3.496.638.396-.638-.396Zm-2.579.545.09-.745a.75.75 0 0 0-.832.64l.742.105Zm1.68.096-.181-.727.181.727Zm.544-3.877.353-.662-.353.662Zm.693.832-.72.21.72-.21Zm-7.128-.857-.637-.396.637.396Zm.9-.642L4.55 6.31l.182.727Zm-1.237 3.046-.72.21.72-.21Zm2.343 1.136.743.104a.75.75 0 0 0-.653-.848l-.09.744Zm-1.65-.304.352-.662-.353.662Zm2.767 10.997-.09.745.09-.745Zm-2.941-.354.09-.744-.09.744Zm5.433-1.423.742.104-.742-.104Zm-.281 1.188-.637-.395.637.395Zm-.9.642.183.727-.182-.727Zm-1.106-4.182-.743-.105a.75.75 0 0 0 .653.85l.09-.745Zm1.65.304.353-.662-.352.662Zm.693.832-.72.21.72-.21Zm-7.408.331.743.105-.743-.105Zm.28-1.188-.637-.396.638.396Zm2.58-.545-.09.745a.75.75 0 0 0 .832-.64l-.742-.105Zm-1.68-.096-.182-.728.182.728Zm-1.237 3.045-.72.21.72-.21Zm.693.832-.353.662.353-.662ZM5.955 7.834l2.94.353.18-1.489-2.941-.354-.18 1.49Zm4.206 1.813a10.32 10.32 0 0 1-.109.689.673.673 0 0 1-.066.208l1.275.79c.137-.22.208-.452.258-.682.047-.221.085-.49.128-.797l-1.486-.208Zm-2.206 2.581c.338.041.704.085 1.023.11.28.02.65.04.928-.03l-.363-1.455c.016-.004-.01.003-.11.004-.088 0-.203-.005-.341-.015-.28-.022-.61-.061-.958-.103l-.18 1.49Zm2.031-1.684a.724.724 0 0 1-.443.309l.363 1.455a2.222 2.222 0 0 0 1.355-.973l-1.275-.791Zm-1.09-2.357c.351.043.58.07.755.103a.94.94 0 0 1 .265.075l.705-1.324a2.366 2.366 0 0 0-.697-.226c-.232-.043-.516-.077-.85-.117l-.179 1.49Zm2.75 1.668c.044-.306.082-.576.097-.802a2.067 2.067 0 0 0-.062-.727l-1.44.419c.003.013.015.06.005.21-.01.157-.039.363-.085.692l1.486.208Zm-1.73-1.49a.644.644 0 0 1 .325.38l1.44-.42a2.142 2.142 0 0 0-1.06-1.284l-.705 1.324Zm-5.62.605c.045-.328.075-.534.108-.689a.673.673 0 0 1 .066-.208l-1.274-.79a2.101 2.101 0 0 0-.258.682c-.048.22-.085.49-.128.797l1.485.208Zm1.838-2.626c-.333-.04-.617-.074-.853-.088a2.404 2.404 0 0 0-.73.053l.363 1.455a.97.97 0 0 1 .282-.01c.177.01.407.037.759.08l.179-1.49ZM4.47 8.074a.724.724 0 0 1 .444-.31L4.55 6.31c-.557.14-1.05.482-1.354.973l1.274.791Zm-1.66.688c-.043.306-.082.576-.096.802-.016.233-.011.476.062.727l1.44-.42a.65.65 0 0 1-.006-.209c.01-.157.04-.363.085-.692L2.81 8.762Zm3.119 1.712a23.304 23.304 0 0 1-.954-.127 4.327 4.327 0 0 1-.335-.067c-.095-.024-.117-.037-.1-.028l-.704 1.324c.254.136.619.205.894.25.315.052.681.096 1.02.137l.179-1.49Zm-3.153-.183a2.143 2.143 0 0 0 1.06 1.285l.705-1.324a.644.644 0 0 1-.325-.38l-1.44.42Zm4.27 10.875-2.941-.353-.18 1.489 2.941.354.18-1.49Zm1.659-1.136c-.046.328-.076.534-.11.689a.674.674 0 0 1-.065.208l1.274.79a2.1 2.1 0 0 0 .258-.682c.048-.22.085-.49.128-.797l-1.485-.208Zm-1.839 2.626c.333.04.617.074.853.088.242.013.484.009.73-.053l-.363-1.455a.968.968 0 0 1-.282.01c-.177-.01-.407-.037-.759-.08l-.179 1.49Zm1.664-1.73a.724.724 0 0 1-.444.31l.364 1.455a2.222 2.222 0 0 0 1.354-.973l-1.274-.791Zm-1.459-2.4c.348.042.679.082.954.128.138.022.25.044.335.066.095.024.117.037.1.028l.704-1.324c-.254-.136-.619-.205-.894-.25-.315-.052-.681-.096-1.02-.137l-.179 1.49Zm3.12 1.712c.042-.306.08-.576.095-.802a2.068 2.068 0 0 0-.062-.727l-1.44.42a.62.62 0 0 1 .006.209c-.01.157-.04.363-.085.692l1.485.208Zm-1.732-1.49a.644.644 0 0 1 .325.38l1.44-.42a2.143 2.143 0 0 0-1.06-1.284l-.705 1.324Zm-5.62.605c.046-.328.075-.534.109-.689a.674.674 0 0 1 .066-.208l-1.275-.79a2.101 2.101 0 0 0-.258.682c-.047.221-.085.49-.128.797l1.486.209Zm2.206-2.581a25.577 25.577 0 0 0-1.022-.11c-.281-.02-.65-.04-.93.03l.364 1.455c-.016.004.01-.003.11-.004.088 0 .203.005.341.015.28.021.61.061.958.103l.18-1.49Zm-2.031 1.684a.724.724 0 0 1 .443-.309l-.363-1.455c-.558.14-1.05.482-1.355.973l1.275.791Zm-1.66.69c-.044.305-.082.575-.097.8-.015.234-.01.477.062.728l1.44-.419a.65.65 0 0 1-.005-.21c.01-.157.039-.363.085-.692l-1.486-.208Zm2.75 1.667c-.351-.043-.58-.07-.755-.103a.942.942 0 0 1-.265-.075L2.38 21.96c.225.12.46.182.697.226.232.043.516.077.85.117l.179-1.49Zm-2.785-.139a2.143 2.143 0 0 0 1.06 1.285l.705-1.323a.644.644 0 0 1-.325-.381l-1.44.42Zm4.38-3.053.883-6.298-1.486-.209-.883 6.298 1.485.209Zm1.603-6.241-.884 6.297 1.486.209.883-6.298-1.485-.208Zm10.272 5.403-.187-.727.187.727Zm2.711-.7.188.727-.188-.727Zm1.065-3.607.587-.468-.587.468Zm-2.493-.22-.723.2a.75.75 0 0 0 .91.526l-.187-.726Zm1.563-.297.094-.744-.094.744Zm1.034 3.716.446.604-.445-.604Zm.538-.895.743.101-.743-.101Zm-6.573 1.695-.586.467.586-.467Zm.93.517-.093.744.094-.744Zm-1.57-2.82-.744-.103.743.102Zm2.044-1.392.188.726a.75.75 0 0 0 .535-.927l-.723.201Zm-1.508.496-.445-.604.445.604Zm1.11-11.059.188.727-.187-.727Zm-2.71.7-.188-.727.188.727Zm5.29.733-.723.202.722-.202Zm-.424-1.125-.587.468.587-.468Zm-.93-.517.093-.744-.094.744Zm-.474 4.212-.188-.726a.75.75 0 0 0-.535.927l.723-.201Zm1.508-.496.445.604-.445-.604Zm.537-.895-.743-.102.743.102Zm-6.996.57-.723.2.723-.2Zm.424 1.125.586-.467-.586.467Zm2.493.22.723-.2a.75.75 0 0 0-.91-.526l.187.726Zm-1.563.297.094-.744-.094.744Zm-1.572-2.82.743.1-.743-.1Zm.538-.896L12.1 2.72l.446.604Zm5.215 14.184 2.712-.7-.375-1.452-2.711.7.374 1.452Zm4.736-4.109c-.082-.294-.153-.552-.228-.76a2.128 2.128 0 0 0-.332-.632l-1.173.935a.702.702 0 0 1 .092.199c.053.148.108.346.196.66l1.445-.402Zm-3.453-.418c.32-.083.624-.161.882-.215a3.86 3.86 0 0 1 .313-.055c.09-.011.11-.006.087-.01l.188-1.487c-.283-.036-.637.03-.897.084-.297.062-.636.15-.948.23l.375 1.453Zm2.893-.974a2.166 2.166 0 0 0-1.423-.793l-.188 1.488a.67.67 0 0 1 .438.24l1.173-.935Zm-1.464 4.802c.306-.08.571-.147.786-.218.22-.073.44-.164.641-.313l-.891-1.207a.798.798 0 0 1-.22.095c-.157.052-.365.106-.69.19l.374 1.453Zm.579-3.008c.087.315.142.513.173.666.03.147.025.196.024.21l1.486.203a2.096 2.096 0 0 0-.04-.712c-.044-.217-.117-.475-.198-.769l-1.445.402Zm.848 2.477a2.09 2.09 0 0 0 .835-1.398l-1.486-.203a.591.591 0 0 1-.24.394l.891 1.207Zm-7.627-.728c.082.294.153.551.228.76.077.217.174.433.332.631l1.173-.935a.7.7 0 0 1-.092-.198 11.138 11.138 0 0 1-.196-.66l-1.445.402Zm3.114.505c-.326.084-.535.138-.697.169a.824.824 0 0 1-.246.023l-.188 1.488c.248.031.483.006.712-.038.223-.041.487-.11.793-.19l-.374-1.452Zm-2.554.886c.351.441.865.723 1.423.794l.188-1.488a.666.666 0 0 1-.438-.24l-1.173.934Zm.885-1.793a11.034 11.034 0 0 1-.173-.666.676.676 0 0 1-.024-.21l-1.486-.204c-.034.252-.006.489.04.713.044.217.116.475.198.769l1.445-.402Zm.918-3.095c-.311.08-.65.168-.94.257a5.26 5.26 0 0 0-.421.146 1.82 1.82 0 0 0-.405.215l.89 1.207c-.02.016-.008.003.077-.032.074-.03.174-.064.299-.102.25-.077.554-.156.875-.239l-.375-1.452Zm-1.115 2.219a.592.592 0 0 1 .24-.394l-.891-1.207a2.091 2.091 0 0 0-.835 1.397l1.486.204ZM16.24 1.49l-2.712.7.375 1.452 2.711-.7-.374-1.452Zm3.488 1.958c-.082-.294-.153-.551-.228-.76a2.128 2.128 0 0 0-.332-.631l-1.173.935a.7.7 0 0 1 .092.198c.053.148.108.346.196.66l1.445-.402Zm-3.114-.505c.326-.084.535-.138.697-.169a.827.827 0 0 1 .246-.023l.188-1.488a2.257 2.257 0 0 0-.712.037c-.223.042-.487.111-.793.19l.374 1.453Zm2.554-.886a2.166 2.166 0 0 0-1.423-.794l-.188 1.488a.67.67 0 0 1 .438.24l1.173-.934Zm-1.803 4.888c.311-.08.65-.168.94-.257.146-.044.291-.093.422-.146.12-.048.272-.118.404-.215l-.89-1.207c.02-.016.008-.003-.077.032-.074.03-.174.064-.299.102-.25.077-.554.156-.875.239l.375 1.452Zm.918-3.094c.087.314.142.512.173.666.03.146.026.195.024.21l1.486.203a2.096 2.096 0 0 0-.04-.713c-.044-.217-.116-.475-.198-.769l-1.445.403Zm.848 2.476c.454-.335.758-.836.835-1.397l-1.486-.204a.591.591 0 0 1-.24.394l.891 1.207ZM11.503 5.6c.082.294.153.552.228.76.077.217.174.433.332.632l1.173-.935a.702.702 0 0 1-.092-.199 11.022 11.022 0 0 1-.196-.66l-1.445.402Zm3.453.418c-.32.083-.624.161-.882.215a3.88 3.88 0 0 1-.313.055c-.09.011-.11.006-.087.01l-.188 1.487c.283.036.637-.03.897-.084.297-.062.636-.15.948-.23l-.375-1.453Zm-2.893.974c.352.44.865.722 1.423.793l.188-1.488a.666.666 0 0 1-.438-.24l-1.173.935Zm.885-1.794a11.118 11.118 0 0 1-.173-.666.684.684 0 0 1-.024-.21l-1.486-.203c-.034.252-.006.488.04.712.044.217.117.475.198.769l1.445-.402Zm.58-3.008c-.307.08-.572.147-.787.218-.22.073-.44.164-.641.313l.891 1.207a.8.8 0 0 1 .22-.095c.156-.052.365-.106.69-.19l-.374-1.453Zm-.777 2.132a.591.591 0 0 1 .24-.394L12.1 2.721a2.09 2.09 0 0 0-.835 1.398l1.486.203Zm1.67 2.623 1.68 6.036 1.445-.402-1.68-6.036-1.445.402Zm5.158 5.11L17.9 6.019l-1.445.402 1.68 6.036 1.445-.402Z"/>
</svg>
