<svg xmlns="http://www.w3.org/2000/svg" width="24" height="24" fill="none">
  <path fill="#1C274C" fill-rule="evenodd" d="M17.416 6.25a77.29 77.29 0 0 0 .168 0c.38 0 .71 0 .998.077a2.25 2.25 0 0 1 1.591 1.59l-.702.189.702-.188c.078.289.078.617.077.998v.345a2.75 2.75 0 0 1 0 5.478v.345c0 .38 0 .71-.077.998a2.25 2.25 0 0 1-1.59 1.591c-.29.078-.618.078-1 .077h-.167c-.38 0-.71 0-.998-.076a2.25 2.25 0 0 1-1.591-1.591c-.078-.29-.078-.618-.077-.999V12.75h-5.5v2.334c0 .38 0 .71-.077.998a2.25 2.25 0 0 1-1.59 1.591c-.29.078-.618.078-1 .077h-.167c-.38 0-.71 0-.998-.076a2.25 2.25 0 0 1-1.591-1.591c-.078-.29-.077-.618-.077-.999v-.345a2.75 2.75 0 0 1 0-5.478v-.345c0-.38 0-.71.077-.998a2.25 2.25 0 0 1 1.59-1.591c.29-.078.618-.077 1-.077a77.144 77.144 0 0 0 .167 0c.38 0 .71 0 .998.077a2.25 2.25 0 0 1 1.591 1.59c.078.29.077.618.077 1v2.333h5.5V8.916c0-.38 0-.71.077-.998a2.25 2.25 0 0 1 1.59-1.591c.29-.078.618-.077 1-.077ZM3.75 10.775a1.25 1.25 0 0 0 0 2.45v-2.45Zm16.5 2.45a1.25 1.25 0 0 0 0-2.45v2.45ZM17.5 7.75c-.513 0-.623.007-.694.026a.75.75 0 0 0-.53.53l-.725-.194.725.194c-.02.071-.026.18-.026.694v6c0 .513.006.623.026.694a.75.75 0 0 0 .53.53c.071.02.18.026.694.026.513 0 .623-.006.694-.025a.75.75 0 0 0 .53-.53c.02-.072.026-.182.026-.695V9c0-.513-.006-.623-.026-.694a.75.75 0 0 0-.53-.53c-.071-.02-.18-.026-.694-.026Zm-11 0c-.513 0-.623.007-.694.026a.75.75 0 0 0-.53.53c-.02.071-.026.18-.026.694v6c0 .513.006.623.026.694a.75.75 0 0 0 .53.53l-.194.725.194-.724c.071.019.18.025.694.025.513 0 .623-.006.694-.025l.194.724-.194-.724a.75.75 0 0 0 .53-.53c.02-.072.026-.182.026-.695V9c0-.513-.006-.623-.026-.694a.75.75 0 0 0-.53-.53c-.071-.02-.18-.026-.694-.026Z" clip-rule="evenodd"/>
</svg>
