<svg xmlns="http://www.w3.org/2000/svg" width="24" height="24" fill="none">
  <path fill="#1C274C" fill-rule="evenodd" d="m4.929 1.53.049.007c.288.04.542.075.753.12.224.048.452.118.67.252.482.297.82.777.958 1.324.069.274.05.636.03.906l-.024.257 4.657.648.035-.228c.044-.266.112-.623.247-.874a2.103 2.103 0 0 1 1.263-1.034c.247-.071.486-.076.714-.06.214.013.469.049.757.089l.048.007c.288.04.543.075.753.12.225.048.452.117.67.251.482.298.82.778.958 1.324.061.243.066.48.052.715-.012.224-.045.492-.083.804l-.35 2.885c-.037.311-.07.58-.111.8-.043.23-.104.46-.223.681a2.103 2.103 0 0 1-1.263 1.035 2.043 2.043 0 0 1-.714.06c-.214-.014-.468-.05-.756-.09l-.05-.006c-.287-.04-.542-.076-.752-.12a2.071 2.071 0 0 1-.67-.252 2.172 2.172 0 0 1-.958-1.324c-.07-.275-.05-.636-.03-.907.007-.082.014-.169.023-.257l-4.656-.648-.036.229c-.044.266-.112.623-.246.873a2.103 2.103 0 0 1-1.264 1.035 2.044 2.044 0 0 1-.713.06c-.214-.014-.47-.05-.757-.09l-.049-.006c-.288-.04-.543-.075-.753-.12a2.072 2.072 0 0 1-.67-.252 2.173 2.173 0 0 1-.958-1.323 2.334 2.334 0 0 1-.052-.715c.013-.224.045-.492.083-.804l.35-2.885c.038-.312.07-.58.112-.8.043-.23.104-.46.222-.681A2.103 2.103 0 0 1 3.458 1.5c.247-.071.486-.075.714-.06.214.014.469.05.757.09Zm-.855 1.407a.63.63 0 0 0-.2.005.604.604 0 0 0-.357.303.878.878 0 0 0-.07.247c-.031.167-.058.388-.1.728l-.344 2.84c-.041.34-.068.56-.077.731a.85.85 0 0 0 .009.263.674.674 0 0 0 .29.413.648.648 0 0 0 .197.062c.15.032.35.06.67.105.32.044.52.072.673.082a.63.63 0 0 0 .199-.005.603.603 0 0 0 .354-.296c0-.002.012-.03.029-.097.02-.08.042-.188.064-.32.044-.265.083-.585.123-.92a.75.75 0 0 1 .848-.653l6.132.854a.75.75 0 0 1 .64.833c-.04.335-.078.654-.099.923a4.13 4.13 0 0 0-.015.328c0 .074.006.104.005.104a.673.673 0 0 0 .289.407.647.647 0 0 0 .197.061c.15.033.35.06.67.105.32.045.52.072.673.082a.63.63 0 0 0 .199-.005.604.604 0 0 0 .358-.302.874.874 0 0 0 .07-.247c.03-.168.058-.388.099-.728L15.944 6c.042-.34.068-.561.078-.732a.826.826 0 0 0-.01-.262.674.674 0 0 0-.29-.413.647.647 0 0 0-.197-.062c-.15-.032-.35-.06-.67-.105-.32-.045-.52-.072-.672-.082a.63.63 0 0 0-.2.005.603.603 0 0 0-.354.295c0 .003-.011.03-.028.097a4.13 4.13 0 0 0-.064.32 22.38 22.38 0 0 0-.124.92.75.75 0 0 1-.848.653l-6.131-.853a.75.75 0 0 1-.641-.833c.04-.336.079-.655.1-.924.01-.133.015-.243.014-.327 0-.074-.005-.104-.005-.105a.672.672 0 0 0-.288-.406.648.648 0 0 0-.197-.062c-.15-.032-.35-.06-.67-.105a10.5 10.5 0 0 0-.673-.082Zm15.123 9.309c-.15.032-.345.087-.657.177-.311.089-.506.145-.652.199a.672.672 0 0 0-.192.091.706.706 0 0 0-.243.455s0 .03.009.105c.01.084.028.191.054.322.054.264.132.574.213.901a.75.75 0 0 1-.52.903l-5.973 1.714a.75.75 0 0 1-.934-.539c-.082-.327-.16-.637-.236-.894a4.041 4.041 0 0 0-.103-.307.73.73 0 0 0-.04-.09.57.57 0 0 0-.375-.234.627.627 0 0 0-.197.023c-.15.032-.346.087-.657.177-.311.089-.507.145-.652.199a.67.67 0 0 0-.192.091.707.707 0 0 0-.244.462.901.901 0 0 0 .024.262c.03.167.083.382.166.713l.692 2.767c.083.331.137.546.189.707.05.155.082.209.097.23a.572.572 0 0 0 .381.243c.01.001.054.006.198-.024.15-.031.346-.087.657-.176.311-.09.506-.146.652-.2a.672.672 0 0 0 .192-.091.707.707 0 0 0 .243-.455s0-.03-.008-.105a4.093 4.093 0 0 0-.055-.322 22.309 22.309 0 0 0-.213-.9.75.75 0 0 1 .52-.904l5.973-1.714a.75.75 0 0 1 .934.539c.082.327.16.637.236.894.038.128.073.23.103.308.024.06.038.086.04.09a.57.57 0 0 0 .375.234c.01.001.054.006.197-.024.15-.031.346-.087.657-.176.312-.09.507-.146.652-.2a.67.67 0 0 0 .193-.091.707.707 0 0 0 .243-.462.9.9 0 0 0-.023-.262 13.097 13.097 0 0 0-.167-.713l-.692-2.767a12.78 12.78 0 0 0-.189-.706.854.854 0 0 0-.097-.231.571.571 0 0 0-.381-.242.631.631 0 0 0-.198.023Zm-.308-1.468a2.04 2.04 0 0 1 .715-.04 2.064 2.064 0 0 1 1.698 1.501c.068.212.133.474.21.777l.702 2.81c.076.304.142.566.182.786.042.232.067.467.037.716a2.206 2.206 0 0 1-.78 1.437 2.1 2.1 0 0 1-.628.34c-.203.075-.45.146-.731.227l-.048.013c-.28.08-.528.152-.738.196a2.043 2.043 0 0 1-.716.041 2.07 2.07 0 0 1-1.39-.854c-.167-.231-.279-.578-.355-.835l-.06-.207-4.54 1.303c.02.09.04.177.057.262.054.265.117.621.082.902a2.206 2.206 0 0 1-.78 1.438 2.096 2.096 0 0 1-.628.34c-.202.075-.45.146-.73.227l-.048.013c-.28.08-.528.152-.739.196a2.043 2.043 0 0 1-.715.041 2.07 2.07 0 0 1-1.391-.854 2.275 2.275 0 0 1-.307-.648c-.068-.212-.133-.474-.21-.777l-.702-2.81c-.076-.304-.142-.566-.182-.786a2.335 2.335 0 0 1-.037-.715 2.206 2.206 0 0 1 .78-1.437c.197-.162.413-.262.628-.341.203-.075.45-.146.732-.226l.047-.014c.28-.08.528-.152.738-.196a2.04 2.04 0 0 1 .716-.04 2.07 2.07 0 0 1 1.39.853c.167.232.279.579.355.835l.06.207 4.54-1.303c-.02-.09-.04-.177-.056-.261-.055-.266-.118-.622-.083-.903a2.206 2.206 0 0 1 .78-1.437 2.1 2.1 0 0 1 .628-.341c.202-.075.45-.146.73-.226l.048-.014c.28-.08.529-.152.739-.196Z" clip-rule="evenodd"/>
</svg>
