<svg xmlns="http://www.w3.org/2000/svg" width="24" height="24" fill="none">
  <g stroke="#1C274C" stroke-width="1.5">
    <path d="m8.319 12.198 3.88-3.88m3.104 3.104-3.88 3.88"/>
    <path stroke-linecap="round" d="m7.143 19.331 1.238 1.237c.904.905 1.356 1.357 1.908 1.421.123.015.248.015.371 0 .552-.064 1.004-.516 1.908-1.42.905-.905 1.357-1.357 1.421-1.909a1.598 1.598 0 0 0 0-.37c-.064-.553-.516-1.005-1.42-1.91l-4.95-4.948c-.904-.905-1.356-1.357-1.908-1.421a1.598 1.598 0 0 0-.371 0c-.552.064-1.004.516-1.908 1.42-.905.905-1.357 1.357-1.421 1.909a1.598 1.598 0 0 0 0 .37c.064.553.516 1.005 1.42 1.91l.62.618M16.857 4.669l-1.238-1.237c-.904-.905-1.356-1.357-1.908-1.421a1.598 1.598 0 0 0-.371 0c-.552.064-1.004.516-1.908 1.42-.905.905-1.357 1.357-1.421 1.909a1.598 1.598 0 0 0 0 .37c.064.553.516 1.005 1.42 1.91l4.95 4.948c.904.905 1.356 1.357 1.908 1.421.123.015.248.015.371 0 .552-.064 1.004-.516 1.908-1.42.905-.905 1.357-1.357 1.421-1.909a1.598 1.598 0 0 0 0-.37c-.064-.553-.516-1.005-1.42-1.91l-.62-.618"/>
    <path stroke-linecap="round" stroke-linejoin="round" d="m18.019 2.498 3.104 3.104M2.498 18.019l3.104 3.104"/>
  </g>
</svg>
