<svg xmlns="http://www.w3.org/2000/svg" width="24" height="24" fill="none">
  <path fill="#1C274C" fill-rule="evenodd" d="M12.576 2.778a.807.807 0 0 0-.418 0c-.053.014-.142.051-.324.203-.19.158-.42.387-.772.74-.353.352-.581.582-.74.772-.151.182-.189.27-.203.324a.81.81 0 0 0 0 .418c.014.053.052.142.203.323.159.19.387.42.74.773l6.607 6.607c.353.353.583.581.773.74.181.151.27.189.323.203a.809.809 0 0 0 .418 0c.053-.014.142-.052.324-.203.19-.159.42-.387.772-.74.353-.353.582-.583.74-.772.152-.182.19-.271.204-.324a.807.807 0 0 0 0-.418c-.015-.053-.052-.142-.204-.324-.158-.19-.387-.42-.74-.772l-.734-.734a1.27 1.27 0 0 1 0-1.795c.361-.361.578-.58.713-.757a.759.759 0 0 0 .099-.156c.007-.018.007-.023.007-.025 0-.001 0-.007-.007-.025a.76.76 0 0 0-.099-.156c-.135-.177-.352-.396-.713-.757l-1.468-1.468c-.361-.361-.58-.578-.757-.713a.756.756 0 0 0-.156-.099c-.018-.007-.024-.007-.025-.007 0 0-.005 0-.025.007a.756.756 0 0 0-.156.099 6.765 6.765 0 0 0-.593.55l1.671 1.672a.75.75 0 1 1-1.06 1.06l-3.304-3.303a13.286 13.286 0 0 0-.772-.74c-.182-.152-.271-.19-.324-.203Zm2.728.453-.594-.594a13.94 13.94 0 0 0-.85-.808c-.262-.219-.546-.407-.896-.5a2.307 2.307 0 0 0-1.194 0c-.35.093-.634.281-.896.5-.248.207-.526.485-.85.808l-.046.046c-.323.323-.6.601-.808.85-.218.261-.406.545-.5.895a2.308 2.308 0 0 0 0 1.195c.094.35.282.634.5.896.207.248.485.526.808.85l.594.593-2.61 2.61-.594-.594a13.974 13.974 0 0 0-.849-.808c-.262-.218-.546-.406-.896-.5a2.307 2.307 0 0 0-1.195 0c-.35.094-.634.282-.896.5-.248.207-.526.485-.85.808l-.045.046c-.323.324-.601.602-.808.85-.219.262-.407.546-.5.896a2.307 2.307 0 0 0 0 1.194c.093.35.281.634.5.896.207.249.484.526.808.85l.023.023.57.57a8.096 8.096 0 0 0-.68.745c-.224.294-.414.646-.414 1.091 0 .445.19.797.413 1.09.204.268.495.558.813.877l1.532 1.532c.319.318.609.609.876.813.294.223.646.413 1.091.413.445 0 .797-.19 1.09-.413a8.09 8.09 0 0 0 .745-.682l.594.594c.324.323.601.601.85.808.262.219.546.407.896.5.391.105.803.105 1.194 0 .35-.093.634-.281.896-.5.248-.207.526-.485.85-.808l.046-.046c.323-.323.6-.601.808-.85.218-.261.406-.545.5-.895a2.306 2.306 0 0 0 0-1.195c-.094-.35-.282-.634-.5-.896a14.086 14.086 0 0 0-.809-.85l-.593-.593 2.61-2.61.594.594c.323.323.6.6.849.808.262.218.546.406.896.5.391.105.803.105 1.195 0 .35-.094.634-.282.896-.5.248-.207.526-.485.85-.808l.045-.046c.323-.324.601-.602.808-.85.219-.262.407-.546.5-.896a2.308 2.308 0 0 0 0-1.194c-.093-.35-.281-.634-.5-.896a13.976 13.976 0 0 0-.808-.85l-.594-.594a8.09 8.09 0 0 0 .682-.744c.223-.294.413-.646.413-1.091 0-.445-.19-.797-.413-1.09-.204-.268-.495-.558-.813-.877l-1.532-1.532c-.319-.318-.609-.609-.876-.813-.294-.223-.646-.413-1.091-.413-.445 0-.797.19-1.09.413-.23.176-.478.415-.745.682Zm5.302 5.302Zm-5.629 3.834-3.344-3.344-2.61 2.61 3.344 3.344 2.61-2.61ZM4.292 16.364a6.765 6.765 0 0 0-.55.594.756.756 0 0 0-.099.156c-.007.018-.007.023-.007.025 0 .001 0 .007.007.025a.827.827 0 0 0 .099.156c.135.177.352.396.713.757l1.468 1.468c.361.361.58.578.757.713a.76.76 0 0 0 .156.099c.02.008.024.007.025.007.001 0 .007 0 .025-.007a.759.759 0 0 0 .156-.099c.177-.135.396-.352.757-.713a1.27 1.27 0 0 1 1.795 0l.734.734c.353.353.582.582.772.74.182.152.271.19.324.204a.807.807 0 0 0 .418 0c.053-.015.142-.052.324-.204.19-.158.42-.387.772-.74.353-.352.581-.582.74-.772.151-.182.189-.27.203-.324a.809.809 0 0 0 0-.418c-.014-.053-.052-.142-.203-.323-.159-.19-.387-.42-.74-.773l-6.607-6.607a13.357 13.357 0 0 0-.773-.74c-.181-.151-.27-.189-.323-.203a.81.81 0 0 0-.418 0c-.053.014-.142.052-.324.203-.19.159-.42.387-.772.74a13.32 13.32 0 0 0-.74.772c-.152.182-.19.271-.203.324a.807.807 0 0 0 0 .418c.014.053.051.142.203.324.158.19.387.42.74.772l3.303 3.304a.75.75 0 0 1-1.06 1.06l-1.672-1.672Z" clip-rule="evenodd"/>
</svg>
