<svg xmlns="http://www.w3.org/2000/svg" width="24" height="24" fill="none">
  <path stroke="#1C274C" stroke-linecap="round" stroke-linejoin="round" stroke-width="1.5" d="M5.393 20.076c.692.692 1.038 1.038 1.468 1.038.43 0 .776-.346 1.468-1.038a.519.519 0 0 1 .734 0l.735.734c.686.686 1.029 1.029 1.432 1.137.264.07.542.07.806 0 .403-.108.746-.451 1.432-1.137.686-.686 1.03-1.03 1.137-1.433a1.552 1.552 0 0 0 0-.806c-.107-.403-.45-.746-1.137-1.432l-1.1-1.101 3.67-3.67m2.57-8.444c-.693-.692-1.039-1.038-1.469-1.038-.43 0-.776.346-1.468 1.038m5.443 2.937c0 .43-.346.776-1.038 1.468a.519.519 0 0 0 0 .734l.734.735c.686.686 1.029 1.029 1.137 1.432.07.264.07.542 0 .806-.108.403-.451.746-1.137 1.432-.686.686-1.03 1.03-1.433 1.137a1.552 1.552 0 0 1-.806 0c-.403-.107-.746-.45-1.432-1.137l-1.101-1.1M3.924 15.67c-.692.692-1.038 1.038-1.038 1.468m3.608.367L3.19 14.202c-.686-.686-1.029-1.029-1.137-1.432a1.557 1.557 0 0 1 0-.806c.108-.403.451-.746 1.137-1.432.686-.686 1.03-1.03 1.433-1.137.264-.071.542-.071.806 0 .403.107.746.45 1.432 1.137l1.101 1.1m9.544-5.138L14.202 3.19c-.686-.686-1.029-1.029-1.432-1.137a1.557 1.557 0 0 0-.806 0c-.403.108-.746.451-1.432 1.137-.686.686-1.03 1.03-1.137 1.433a1.552 1.552 0 0 0 0 .806c.107.403.45.746 1.137 1.432l1.1 1.101-3.67 3.67m8.076.735-2.203-2.202m-5.873 1.468 2.203 2.202"/>
</svg>
