<svg xmlns="http://www.w3.org/2000/svg" width="24" height="24" fill="none">
  <g fill="#1C274C">
    <path d="M19 15V9c0-.465 0-.697-.051-.888a1.5 1.5 0 0 0-1.06-1.06C17.697 7 17.464 7 17 7s-.698 0-.888.051a1.5 1.5 0 0 0-1.06 1.06C15 8.304 15 8.536 15 9v6c0 .465 0 .697.051.888a1.5 1.5 0 0 0 1.06 1.06c.191.052.424.052.889.052s.698 0 .888-.051a1.5 1.5 0 0 0 1.06-1.06C19 15.697 19 15.464 19 15ZM5 9v6c0 .465 0 .697.051.888a1.5 1.5 0 0 0 1.06 1.06C6.304 17 6.536 17 7 17s.697 0 .888-.051a1.5 1.5 0 0 0 1.06-1.06C9 15.697 9 15.464 9 15V9c0-.465 0-.697-.051-.888a1.5 1.5 0 0 0-1.06-1.06C7.696 7 7.464 7 7 7s-.697 0-.888.051a1.5 1.5 0 0 0-1.06 1.06C5 8.304 5 8.536 5 9Z"/>
    <path d="M15 12.75H9v-1.5h6v1.5ZM3.5 12A2 2 0 0 1 5 10.061v3.875a2 2 0 0 1-1.5-1.938Zm17 0a2 2 0 0 1-1.5 1.937v-3.874a2 2 0 0 1 1.5 1.936Z" opacity=".5"/>
  </g>
</svg>
