<svg xmlns="http://www.w3.org/2000/svg" width="24" height="24" fill="none">
  <g fill="#1C274C">
    <path d="m8.985 7.443-2.94-.354c-.686-.082-1.028-.124-1.313-.053-.38.095-.703.326-.899.642-.147.236-.192.554-.28 1.188-.09.635-.134.952-.057 1.216.102.351.351.65.692.832.256.136.966.222 1.651.304l-.883 6.298c-.685-.082-1.396-.168-1.68-.096-.38.094-.703.325-.9.64-.146.238-.19.555-.28 1.19-.089.634-.133.951-.057 1.215.103.351.352.65.693.832.255.137.598.178 1.283.26l2.94.354c.686.082 1.028.124 1.313.052a1.47 1.47 0 0 0 .899-.64c.147-.238.192-.555.28-1.19.09-.634.134-.95.057-1.215a1.393 1.393 0 0 0-.692-.832c-.256-.136-.966-.222-1.651-.304l.883-6.298c.685.082 1.396.168 1.68.096.38-.094.703-.325.9-.64.146-.238.19-.555.28-1.19.089-.634.133-.951.057-1.215a1.393 1.393 0 0 0-.693-.832c-.255-.137-.598-.178-1.283-.26Z" opacity=".5"/>
    <path d="m20.285 16.083-2.71.7c-.633.163-.948.244-1.225.209a1.416 1.416 0 0 1-.93-.517c-.17-.213-.255-.517-.424-1.125-.17-.608-.254-.912-.218-1.179.049-.355.242-.677.537-.895.222-.164.877-.333 1.508-.496l-1.68-6.036c-.632.163-1.286.332-1.563.297a1.416 1.416 0 0 1-.93-.517c-.17-.213-.255-.517-.424-1.125-.17-.608-.254-.912-.218-1.179a1.34 1.34 0 0 1 .538-.895c.221-.164.537-.245 1.168-.408l2.712-.7c.632-.163.947-.244 1.224-.209.37.047.704.233.93.517.17.213.255.517.424 1.125.17.608.254.912.218 1.179a1.341 1.341 0 0 1-.537.895c-.222.164-.877.333-1.508.496l1.68 6.036c.631-.163 1.286-.332 1.563-.297.37.047.704.233.93.517.17.213.255.517.424 1.125.17.608.254.912.218 1.179a1.34 1.34 0 0 1-.538.895c-.221.164-.537.245-1.169.408Z"/>
  </g>
</svg>
