<svg xmlns="http://www.w3.org/2000/svg" width="24" height="24" fill="none">
  <path fill="#1C274C" fill-rule="evenodd" d="M5.578 5.343a9.25 9.25 0 0 0 6.803 15.9c-.206-.912-.234-2.138.393-3.319.652-1.229 2.002-1.762 2.995-2.006a9.183 9.183 0 0 1 1.898-.254h.043c1.673-.018 2.426-.562 2.826-1.08.342-.444.47-.887.602-1.336l.05-.172A9.22 9.22 0 0 0 18.6 5.519a5.486 5.486 0 0 1-.027.1c-.163.594-.425 1.202-.711 1.636-.256.388-.752.78-1.164 1.076a9.51 9.51 0 0 1-.902.56c-.228.132-.433.25-.63.38-.432.286-.766.593-.991 1.056a.665.665 0 0 0-.035.49c.075.272.126.578.126.889.002.649-.329 1.176-.753 1.518a2.41 2.41 0 0 1-1.521.526c-2.455-.027-3.965-2.02-4.164-4.236-.08-.881-.466-1.773-.954-2.552a8.838 8.838 0 0 0-1.296-1.62Zm1.167-.956a10.49 10.49 0 0 1 1.4 1.779c.558.89 1.069 2.012 1.177 3.214.15 1.68 1.213 2.854 2.686 2.87a.91.91 0 0 0 .563-.194c.146-.117.196-.24.195-.346 0-.156-.026-.328-.072-.495a2.163 2.163 0 0 1 .131-1.542c.385-.794.956-1.285 1.514-1.653.239-.158.487-.3.71-.43l.09-.05c.255-.148.48-.28.683-.427.431-.31.704-.557.787-.684.183-.276.388-.734.518-1.207.103-.374.131-.662.122-.84A9.207 9.207 0 0 0 12 2.75a9.207 9.207 0 0 0-5.255 1.637ZM22.68 13.24c.047-.407.071-.82.071-1.24 0-5.937-4.813-10.75-10.75-10.75S1.25 6.063 1.25 12 6.063 22.75 12 22.75c5.46 0 9.97-4.071 10.659-9.344a2.89 2.89 0 0 1 .048-.156l-.028-.01Zm-2.774 3.567c-.596.218-1.314.348-2.179.357h-.031l-.09.003a7.68 7.68 0 0 0-1.477.208c-.902.221-1.693.62-2.029 1.252-.456.859-.39 1.793-.22 2.432a9.261 9.261 0 0 0 6.026-4.252Z" clip-rule="evenodd"/>
</svg>
