<svg xmlns="http://www.w3.org/2000/svg" width="24" height="24" fill="none">
  <g stroke="#1C274C" stroke-linecap="round" stroke-width="1.5">
    <path d="M16 22v-7M3 22v-4m0-4V8c0-2.828 0-4.243.879-5.121C4.757 2 6.172 2 9 2h1c2.828 0 4.243 0 5.121.879C16 3.757 16 5.172 16 8v3"/>
    <path stroke-linejoin="round" d="M9.5 10 8 12.5h3L9.5 15"/>
    <path d="M17 22H2M19.5 4l1.233.986c.138.11.207.166.27.222a3 3 0 0 1 .992 2.066c.005.084.005.172.005.348V18.5a1.5 1.5 0 0 1-3 0v-.071c0-.79-.64-1.429-1.429-1.429H16"/>
    <path d="M22 8h-1.5A1.5 1.5 0 0 0 19 9.5v2.419a1.5 1.5 0 0 0 1.026 1.423L22 14"/>
  </g>
</svg>
