<svg xmlns="http://www.w3.org/2000/svg" width="24" height="24" fill="none">
  <path stroke="#1C274C" stroke-linecap="round" stroke-width="1.5" d="M8.913 15.934c1.258.315 2.685.315 4.122-.07 1.437-.385 2.673-1.099 3.605-2.001"/>
  <ellipse cx="14.509" cy="9.774" fill="#1C274C" rx="1" ry="1.5" transform="rotate(-15 14.51 9.774)"/>
  <ellipse cx="8.714" cy="11.328" fill="#1C274C" rx="1" ry="1.5" transform="rotate(-15 8.714 11.328)"/>
  <path stroke="#1C274C" stroke-width="1.5" d="M3.204 14.357c-1.112-4.147-1.667-6.22-.724-7.853.943-1.634 3.016-2.19 7.163-3.3 4.147-1.112 6.22-1.667 7.853-.724 1.634.943 2.19 3.016 3.3 7.163 1.111 4.147 1.667 6.22.724 7.853-.943 1.634-3.016 2.19-7.163 3.3-4.147 1.111-6.22 1.667-7.853.724-1.634-.943-2.19-3.016-3.3-7.163Z"/>
  <path stroke="#1C274C" stroke-width="1.5" d="m13 16 .478.974a1.5 1.5 0 1 0 2.693-1.322l-.46-.935"/>
</svg>
