<svg xmlns="http://www.w3.org/2000/svg" width="24" height="24" fill="none">
  <g fill="#1C274C">
    <path d="M15.475 9.516c.215.8-.044 1.564-.577 1.707-.534.143-1.14-.39-1.355-1.19-.214-.8.045-1.564.578-1.707.534-.143 1.14.39 1.354 1.19ZM9.68 11.069c.214.8-.044 1.565-.578 1.708-.533.143-1.14-.39-1.354-1.19-.214-.8.044-1.565.578-1.708.533-.143 1.14.39 1.354 1.19Z"/>
    <path fill-rule="evenodd" d="M14.608 2.815c-1.18.152-2.677.552-4.77 1.113-2.095.561-3.592.964-4.689 1.422-1.077.45-1.663.911-2.02 1.529-.356.617-.463 1.355-.314 2.513.152 1.18.552 2.677 1.113 4.77.561 2.095.964 3.592 1.422 4.689.45 1.077.911 1.663 1.529 2.02.617.356 1.355.463 2.513.314 1.18-.152 2.677-.552 4.77-1.113 2.095-.561 3.592-.964 4.689-1.422 1.077-.45 1.663-.911 2.02-1.529.356-.617.463-1.355.314-2.513-.152-1.18-.552-2.677-1.113-4.77-.561-2.095-.964-3.592-1.422-4.689-.45-1.077-.911-1.663-1.529-2.02-.617-.356-1.355-.463-2.513-.314Zm-.192-1.487c1.324-.171 2.44-.084 3.455.502 1.016.587 1.65 1.51 2.163 2.741.502 1.201.929 2.796 1.472 4.823l.03.11c.543 2.027.97 3.621 1.136 4.912.171 1.324.084 2.44-.503 3.455-.586 1.016-1.508 1.65-2.74 2.163-1.201.502-2.796.929-4.823 1.472l-.11.03c-2.027.543-3.622.97-4.912 1.136-1.324.171-2.44.084-3.455-.503-1.016-.586-1.65-1.508-2.163-2.74-.502-1.201-.93-2.796-1.472-4.823l-.03-.11c-.543-2.027-.97-3.622-1.136-4.912-.171-1.324-.084-2.44.502-3.455.587-1.016 1.51-1.65 2.741-2.163 1.201-.502 2.796-.93 4.823-1.472l.11-.03c2.027-.543 3.622-.97 4.912-1.136ZM17.18 13.34a.75.75 0 0 1-.017 1.06 8.24 8.24 0 0 1-.536.476l.218.444a2.25 2.25 0 0 1-4.04 1.983l-.273-.556a8.876 8.876 0 0 1-3.8-.088.75.75 0 1 1 .364-1.454c1.13.283 2.428.286 3.746-.067s2.44-1.005 3.277-1.815a.75.75 0 0 1 1.06.017Zm-3.174 3.004.146.298a.75.75 0 0 0 1.347-.66l-.127-.259a9.294 9.294 0 0 1-1.366.62Z" clip-rule="evenodd"/>
  </g>
</svg>
