<svg xmlns="http://www.w3.org/2000/svg" width="24" height="24" fill="none">
  <g fill="#1C274C">
    <path d="M12.75 11a.75.75 0 0 0-1.5 0v2a.75.75 0 0 0 1.5 0v-2Z"/>
    <path fill-rule="evenodd" d="m13.725 2.027 2.434.406c1.155.192 2.092.348 2.824.566.763.228 1.393.546 1.878 1.118.485.573.696 1.247.794 2.037.095.758.095 1.708.095 2.88v5.933c0 1.171 0 2.12-.095 2.879-.098.79-.309 1.464-.794 2.037-.485.572-1.115.89-1.878 1.117-.732.219-1.669.375-2.824.567l-2.434.406c-1.034.172-1.888.315-2.57.331-.716.017-1.379-.098-1.933-.567-.467-.395-.698-.91-.82-1.487h-.456c-1.132 0-2.058 0-2.79-.098-.763-.103-1.425-.325-1.954-.854-.529-.529-.751-1.19-.854-1.955-.098-.73-.098-1.656-.098-2.79V9.447c0-1.133 0-2.058.098-2.79.103-.763.325-1.425.854-1.954.529-.529 1.19-.751 1.955-.854.73-.098 1.656-.098 2.79-.098h.456c.12-.577.352-1.092.82-1.487.553-.47 1.216-.584 1.932-.567.682.016 1.537.159 2.57.331ZM8.25 17.335c0 .516 0 .988.011 1.415H8c-1.2 0-2.024-.002-2.643-.085-.598-.08-.89-.224-1.094-.428-.204-.203-.348-.496-.428-1.094-.083-.619-.085-1.443-.085-2.643v-5c0-1.2.002-2.024.085-2.643.08-.598.224-.89.428-1.094.203-.204.496-.348 1.094-.428C5.976 5.252 6.8 5.25 8 5.25h.261c-.011.427-.011.899-.011 1.415v10.67Zm2.869-14.14c-.543-.013-.773.082-.927.212-.154.13-.285.342-.361.88-.08.557-.081 1.316-.081 2.435v10.556c0 1.119.002 1.878.081 2.436.076.537.207.749.361.879s.384.224.927.211c.563-.013 1.312-.136 2.415-.32l2.33-.388c1.215-.203 2.059-.345 2.691-.533.612-.182.936-.384 1.162-.65.226-.267.37-.619.45-1.253.082-.654.083-1.51.083-2.743V9.083c0-1.233-.001-2.089-.083-2.743-.08-.634-.225-.987-.45-1.253-.226-.266-.55-.468-1.162-.65-.632-.188-1.476-.33-2.692-.533l-2.329-.388c-1.103-.184-1.852-.307-2.415-.32Z" clip-rule="evenodd"/>
  </g>
</svg>
