<svg xmlns="http://www.w3.org/2000/svg" width="24" height="24" fill="none">
  <g fill="#1C274C">
    <path d="M2.69 6.705a.75.75 0 0 0-1.38.59l1.38-.59Zm12.897 6.624-.274-.698.274.698Zm7.102-6.034a.75.75 0 0 0-1.378-.59l1.378.59ZM19 11.13l-.513-.547.513.547Zm-7 2.121c-3.224 0-5.539-1.605-7.075-3.26a13.637 13.637 0 0 1-1.702-2.28 11.707 11.707 0 0 1-.507-.946 3.903 3.903 0 0 1-.022-.049l-.004-.01-.001-.001L2 7a76 76 0 0 0-.69.296h.001l.001.003.003.006a3.837 3.837 0 0 0 .04.088 13.202 13.202 0 0 0 .58 1.084c.41.69 1.034 1.61 1.89 2.533C5.54 12.855 8.224 14.75 12 14.75v-1.5Zm3.313-.62c-.97.383-2.071.62-3.313.62v1.5c1.438 0 2.725-.276 3.862-.723l-.55-1.396ZM22 7l-.69-.296h.001v.002l-.007.013a8.017 8.017 0 0 1-.151.313 13.298 13.298 0 0 1-2.666 3.55l1.026 1.094a14.802 14.802 0 0 0 3.122-4.26l.039-.085.01-.024.004-.007v-.003h.001v-.001L22 7Zm-3.513 3.582c-.86.806-1.913 1.552-3.174 2.049l.549 1.396c1.473-.58 2.685-1.444 3.651-2.351l-1.026-1.094Z"/>
    <path d="M12.75 14a.75.75 0 0 0-1.5 0h1.5Zm3.466-1.08a.75.75 0 1 0-1.257.818l1.257-.818Zm-7.175.818a.75.75 0 0 0-1.257-.818l1.257.818Zm-2.67 1.353a.75.75 0 0 0 1.258.818l-1.258-.818Zm13.16-4.492a.75.75 0 1 0-1.061 1.06l1.06-1.06Zm.439 2.56a.75.75 0 1 0 1.06-1.06l-1.06 1.06ZM11.25 16.5a.75.75 0 0 0 1.5 0h-1.5Zm5.121-.59a.75.75 0 1 0 1.258-.819l-1.258.818Zm-10.84-4.25a.75.75 0 1 0-1.061-1.061l1.06 1.06Zm-2.561.439a.75.75 0 1 0 1.06 1.06L2.97 12.1Zm4.814.82-1.413 2.172 1.258.818 1.412-2.171-1.257-.818Zm10.686-1.26 1.5 1.5 1.06-1.06-1.5-1.5-1.06 1.06ZM11.25 14v2.5h1.5V14h-1.5Zm3.709-.262 1.412 2.171 1.258-.818-1.413-2.171-1.257.818Zm-10.49-3.14-1.5 1.5L4.03 13.16l1.5-1.5-1.06-1.06Z" opacity=".5"/>
  </g>
</svg>
