<svg xmlns="http://www.w3.org/2000/svg" width="24" height="24" fill="none">
  <g fill="#1C274C" fill-rule="evenodd" clip-rule="evenodd">
    <path d="M21.302 13.163c.386 0 .698.312.698.697v.053c0 1.71 0 3.064-.142 4.123-.147 1.09-.456 1.974-1.152 2.67s-1.58 1.005-2.67 1.152c-1.06.142-2.414.142-4.123.142h-.053a.698.698 0 0 1 0-1.395c1.774 0 3.034-.002 3.99-.13.936-.126 1.476-.362 1.87-.756.393-.393.629-.933.755-1.869.128-.956.13-2.216.13-3.99 0-.385.312-.697.697-.697Zm-18.604 0c.385 0 .697.312.697.697 0 1.774.002 3.034.13 3.99.126.936.362 1.476.756 1.87.394.393.933.629 1.869.755.956.128 2.216.13 3.99.13a.698.698 0 1 1 0 1.395h-.053c-1.71 0-3.064 0-4.123-.142-1.09-.147-1.974-.456-2.67-1.152s-1.005-1.58-1.152-2.67C2 16.976 2 15.622 2 13.913v-.053c0-.385.312-.697.698-.697ZM10.087 2h.053a.698.698 0 1 1 0 1.395c-1.774 0-3.034.002-3.99.13-.936.126-1.475.362-1.87.756-.393.394-.629.933-.755 1.869-.128.956-.13 2.216-.13 3.99a.698.698 0 0 1-1.395 0v-.053c0-1.71 0-3.064.142-4.123.147-1.09.456-1.974 1.152-2.67s1.58-1.005 2.67-1.152C7.024 2 8.378 2 10.087 2Zm7.763 1.525c-.956-.128-2.216-.13-3.99-.13a.698.698 0 0 1 0-1.395h.053c1.71 0 3.064 0 4.123.142 1.09.147 1.974.456 2.67 1.152s1.005 1.58 1.152 2.67C22 7.024 22 8.378 22 10.087v.053a.698.698 0 1 1-1.395 0c0-1.774-.002-3.034-.13-3.99-.126-.936-.362-1.475-.756-1.87-.393-.393-.933-.629-1.869-.755Z"/>
    <path d="M5.376 5.376c-.818.817-.818 2.132-.818 4.763v3.722c0 2.63 0 3.946.818 4.764.817.817 2.132.817 4.763.817h3.722c2.63 0 3.946 0 4.764-.817.817-.818.817-2.133.817-4.764v-3.722c0-2.63 0-3.946-.817-4.763-.818-.818-2.133-.818-4.764-.818h-3.722c-2.63 0-3.946 0-4.763.818Zm3.692 9.168a.61.61 0 0 1 .854-.128c.592.44 1.308.694 2.078.694.77 0 1.486-.254 2.078-.694a.61.61 0 0 1 .727.981 4.693 4.693 0 0 1-2.805.934 4.693 4.693 0 0 1-2.805-.934.61.61 0 0 1-.127-.854Zm6.188-4.114c0 .675-.365 1.221-.814 1.221-.45 0-.814-.546-.814-1.22 0-.675.364-1.222.814-1.222.45 0 .814.547.814 1.221Zm-5.698 1.221c.45 0 .814-.546.814-1.22 0-.675-.364-1.222-.814-1.222-.45 0-.814.547-.814 1.221 0 .675.365 1.221.814 1.221Z"/>
  </g>
</svg>
