<svg xmlns="http://www.w3.org/2000/svg" width="24" height="24" fill="none">
  <g fill="#1C274C" fill-rule="evenodd" clip-rule="evenodd">
    <path d="M10.801 2.57a.711.711 0 0 1-.555.838 8.779 8.779 0 0 0-6.838 6.838.71.71 0 1 1-1.394-.283 10.2 10.2 0 0 1 7.949-7.949.71.71 0 0 1 .838.556ZM2.57 13.199a.71.71 0 0 1 .838.555 8.779 8.779 0 0 0 6.838 6.838.71.71 0 1 1-.283 1.394 10.2 10.2 0 0 1-7.948-7.949.711.711 0 0 1 .555-.838ZM13.199 2.57a.71.71 0 0 1 .838-.556 10.2 10.2 0 0 1 7.949 7.949.711.711 0 0 1-1.394.283 8.779 8.779 0 0 0-6.838-6.838.711.711 0 0 1-.555-.838Zm8.231 10.629a.711.711 0 0 1 .556.838 10.2 10.2 0 0 1-7.949 7.949.711.711 0 0 1-.283-1.394 8.779 8.779 0 0 0 6.838-6.838.71.71 0 0 1 .838-.555Z"/>
    <path d="M12 19.583a7.583 7.583 0 1 0 0-15.166 7.583 7.583 0 0 0 0 15.166Zm-3.06-5.044a.71.71 0 0 1 .995-.148c.59.437 1.3.69 2.065.69a3.45 3.45 0 0 0 2.065-.69.71.71 0 1 1 .846 1.142 4.871 4.871 0 0 1-2.911.97 4.872 4.872 0 0 1-2.912-.97.711.711 0 0 1-.147-.994Zm6.377-4.139c0 .688-.37 1.245-.829 1.245-.458 0-.83-.557-.83-1.245 0-.687.372-1.244.83-1.244.458 0 .83.557.83 1.244Zm-5.805 1.245c.458 0 .83-.557.83-1.245 0-.687-.372-1.244-.83-1.244-.458 0-.83.557-.83 1.244 0 .688.372 1.245.83 1.245Z"/>
  </g>
</svg>
