<svg xmlns="http://www.w3.org/2000/svg" width="24" height="24" fill="none">
  <g fill="#1C274C">
    <path fill-rule="evenodd" d="M10.801 2.57a.711.711 0 0 1-.555.838 8.779 8.779 0 0 0-6.838 6.838.71.71 0 1 1-1.394-.283 10.2 10.2 0 0 1 7.949-7.949.71.71 0 0 1 .838.556ZM2.57 13.199a.71.71 0 0 1 .838.555 8.779 8.779 0 0 0 6.838 6.838.71.71 0 1 1-.283 1.394 10.2 10.2 0 0 1-7.948-7.949.711.711 0 0 1 .555-.838ZM13.199 2.57a.71.71 0 0 1 .838-.556 10.2 10.2 0 0 1 7.949 7.949.711.711 0 0 1-1.394.283 8.779 8.779 0 0 0-6.838-6.838.711.711 0 0 1-.555-.838Zm8.231 10.629a.711.711 0 0 1 .556.838 10.2 10.2 0 0 1-7.949 7.949.711.711 0 0 1-.283-1.394 8.779 8.779 0 0 0 6.838-6.838.71.71 0 0 1 .838-.555Z" clip-rule="evenodd"/>
    <path d="M12 19.583a7.583 7.583 0 1 0 0-15.166 7.583 7.583 0 0 0 0 15.166Z" opacity=".5"/>
    <path d="M8.94 14.539a.71.71 0 0 1 .995-.148c.59.437 1.3.69 2.065.69a3.45 3.45 0 0 0 2.065-.69.71.71 0 1 1 .847 1.142 4.87 4.87 0 0 1-2.912.97 4.87 4.87 0 0 1-2.911-.97.71.71 0 0 1-.148-.994Zm5.548-2.895c.458 0 .83-.557.83-1.244 0-.687-.372-1.244-.83-1.244-.458 0-.83.557-.83 1.244 0 .687.372 1.244.83 1.244Zm-4.976 0c.458 0 .83-.557.83-1.244 0-.687-.372-1.244-.83-1.244-.458 0-.83.557-.83 1.244 0 .687.372 1.244.83 1.244Z"/>
  </g>
</svg>
