<svg xmlns="http://www.w3.org/2000/svg" width="24" height="24" fill="none">
  <path fill="#1C274C" d="m15.393 4.054-.502.557.502-.557Zm3.959 3.563-.502.557.502-.557Zm2.302 2.537-.685.305.685-.305ZM3.172 20.828l.53-.53-.53.53Zm17.656 0-.53-.53.53.53ZM14 21.25h-4v1.5h4v-1.5ZM2.75 14v-4h-1.5v4h1.5Zm18.5-.437V14h1.5v-.437h-1.5ZM14.891 4.61l3.959 3.563 1.003-1.115-3.958-3.563-1.004 1.115Zm7.859 8.952c0-1.689.015-2.758-.41-3.714l-1.371.61c.266.598.281 1.283.281 3.104h1.5Zm-3.9-5.389c1.353 1.218 1.853 1.688 2.119 2.285l1.37-.61c-.426-.957-1.23-1.66-2.486-2.79L18.85 8.174ZM10.03 2.75c1.582 0 2.179.012 2.71.216l.538-1.4c-.852-.328-1.78-.316-3.248-.316v1.5Zm5.865.746c-1.086-.977-1.765-1.604-2.617-1.93l-.537 1.4c.532.204.98.592 2.15 1.645l1.004-1.115ZM10 21.25c-1.907 0-3.261-.002-4.29-.14-1.005-.135-1.585-.389-2.008-.812l-1.06 1.06c.748.75 1.697 1.081 2.869 1.239 1.15.155 2.625.153 4.489.153v-1.5ZM1.25 14c0 1.864-.002 3.338.153 4.489.158 1.172.49 2.121 1.238 2.87l1.06-1.06c-.422-.424-.676-1.004-.811-2.01-.138-1.027-.14-2.382-.14-4.289h-1.5ZM14 22.75c1.864 0 3.338.002 4.489-.153 1.172-.158 2.121-.49 2.87-1.238l-1.06-1.06c-.424.422-1.004.676-2.01.811-1.027.138-2.382.14-4.289.14v1.5ZM21.25 14c0 1.907-.002 3.262-.14 4.29-.135 1.005-.389 1.585-.812 2.008l1.06 1.06c.75-.748 1.081-1.697 1.239-2.869.155-1.15.153-2.625.153-4.489h-1.5Zm-18.5-4c0-1.907.002-3.261.14-4.29.135-1.005.389-1.585.812-2.008l-1.06-1.06c-.75.748-1.081 1.697-1.239 2.869C1.248 6.661 1.25 8.136 1.25 10h1.5Zm7.28-8.75c-1.875 0-3.356-.002-4.511.153-1.177.158-2.129.49-2.878 1.238l1.06 1.06c.424-.422 1.005-.676 2.017-.811 1.033-.138 2.395-.14 4.312-.14v-1.5Z"/>
  <path stroke="#1C274C" stroke-width="1.5" d="M13 2.5V5c0 2.357 0 3.536.732 4.268C14.464 10 15.643 10 18 10h4M8.146 13.023C8.526 12.34 8.716 12 9 12c.284 0 .474.34.854 1.023l.098.176c.108.194.162.29.246.354.085.064.19.088.4.135l.19.044c.738.167 1.107.25 1.195.532.088.283-.164.577-.667 1.165l-.13.152c-.143.167-.215.25-.247.354-.032.104-.021.215 0 .438l.02.203c.076.785.114 1.178-.115 1.352-.23.174-.576.015-1.267-.303l-.178-.082c-.197-.09-.295-.136-.399-.136-.104 0-.202.046-.399.136l-.178.082c-.691.319-1.037.477-1.266.303-.23-.174-.192-.567-.116-1.352l.02-.203c.021-.223.032-.334 0-.438-.032-.103-.104-.187-.247-.354l-.13-.152c-.503-.588-.755-.882-.667-1.165.088-.282.457-.365 1.195-.532l.19-.044c.21-.047.315-.07.4-.135.084-.064.138-.16.246-.354l.098-.176Z" opacity=".5"/>
</svg>
