<svg xmlns="http://www.w3.org/2000/svg" width="24" height="24" fill="none">
  <g fill="#1C274C" fill-rule="evenodd" clip-rule="evenodd">
    <path d="M12.25 2.834c-.46-.078-1.088-.084-2.22-.084-1.917 0-3.28.002-4.312.14-1.012.135-1.593.39-2.016.812-.423.423-.677 1.003-.812 2.009-.138 1.028-.14 2.382-.14 4.29v4c0 1.906.002 3.26.14 4.288.135 1.006.389 1.586.812 2.01.423.422 1.003.676 2.009.811 1.028.139 2.382.14 4.289.14h4c1.907 0 3.262-.002 4.29-.14 1.005-.135 1.585-.389 2.008-.812.423-.423.677-1.003.812-2.009.138-1.027.14-2.382.14-4.289v-.437c0-1.536-.01-2.264-.174-2.813h-3.13c-1.133 0-2.058 0-2.79-.098-.763-.103-1.425-.325-1.954-.854-.529-.529-.751-1.19-.854-1.955-.098-.73-.098-1.656-.098-2.79V2.835Zm1.5.776V5c0 1.2.002 2.024.085 2.643.08.598.224.891.428 1.094.203.204.496.348 1.094.428.619.083 1.443.085 2.643.085h2.02a45.815 45.815 0 0 0-1.17-1.076l-3.959-3.563A37.2 37.2 0 0 0 13.75 3.61Zm-3.575-2.36c1.385 0 2.28 0 3.103.315.823.316 1.485.912 2.51 1.835l.107.096 3.958 3.563.125.112c1.184 1.065 1.95 1.754 2.361 2.678.412.924.412 1.954.411 3.546v.661c0 1.838 0 3.294-.153 4.433-.158 1.172-.49 2.121-1.238 2.87-.749.748-1.698 1.08-2.87 1.238-1.14.153-2.595.153-4.433.153H9.944c-1.838 0-3.294 0-4.433-.153-1.172-.158-2.121-.49-2.87-1.238-.748-.749-1.08-1.698-1.238-2.87-.153-1.14-.153-2.595-.153-4.433V9.944c0-1.838 0-3.294.153-4.433.158-1.172.49-2.121 1.238-2.87.75-.749 1.701-1.08 2.878-1.238 1.144-.153 2.607-.153 4.455-.153h.202Z"/>
    <path d="M9 13.034c-.058.101-.123.217-.199.354l-.098.176a4.518 4.518 0 0 0-.023.04c-.078.144-.208.382-.425.547-.221.168-.488.226-.643.26a5.26 5.26 0 0 0-.044.009l-.19.043c-.176.04-.318.072-.44.103.079.098.182.219.316.376l.13.152c.01.01.02.022.03.035.108.124.282.325.363.584.08.256.052.52.035.686l-.005.047-.02.203a35.76 35.76 0 0 0-.042.46c.105-.046.223-.1.364-.165l.179-.082.04-.02c.144-.067.393-.184.672-.184s.528.117.672.185l.04.019.179.082c.14.065.26.12.364.165a35.76 35.76 0 0 0-.042-.46l-.02-.203a3.802 3.802 0 0 0-.005-.047c-.017-.166-.045-.43.035-.686.08-.26.255-.46.363-.584l.03-.035.13-.152c.134-.157.237-.278.316-.376a19.75 19.75 0 0 0-.44-.103l-.19-.043a5.075 5.075 0 0 0-.044-.01c-.155-.033-.422-.091-.643-.26-.217-.164-.347-.402-.425-.545a4.518 4.518 0 0 0-.023-.04l-.098-.177c-.076-.137-.14-.253-.199-.354ZM8.014 11.8c.172-.225.484-.55.986-.55s.814.325.986.55c.165.214.33.511.5.816l.023.041.098.177.057.1.099.023.19.043.048.01c.327.075.653.148.903.247.276.109.65.32.795.785.142.455-.037.841-.193 1.09-.145.23-.365.486-.59.749l-.03.035-.13.153-.082.097c.002.036.007.078.012.135l.02.203.004.046c.034.352.067.692.055.965-.012.285-.08.717-.468 1.01-.4.304-.84.238-1.12.158-.258-.074-.563-.215-.87-.356l-.043-.02-.18-.083L9 18.186l-.085.038-.179.083-.044.02c-.306.141-.611.282-.869.355-.28.08-.72.147-1.12-.156-.387-.294-.456-.726-.468-1.011-.012-.273.02-.613.055-.965l.004-.046.02-.203.013-.135a10.114 10.114 0 0 0-.083-.097l-.13-.152-.03-.036c-.225-.263-.445-.52-.59-.75-.156-.248-.335-.634-.193-1.09.144-.463.519-.675.795-.784.25-.099.576-.172.903-.246l.047-.01.191-.044.1-.023.056-.1.098-.177.023-.041c.17-.305.335-.602.5-.816Z"/>
  </g>
</svg>
