<svg xmlns="http://www.w3.org/2000/svg" width="24" height="24" fill="none">
  <g fill="#1C274C">
    <path d="m11.51 2.26-.01 2.835c0 1.097 0 2.066.105 2.848.114.847.375 1.694 1.067 2.385.69.691 1.538.953 2.385 1.067.781.105 1.751.105 2.848.105h4.052c.013.155.022.321.028.5H22c0-.268 0-.402-.01-.56a5.322 5.322 0 0 0-.958-2.641c-.094-.128-.158-.204-.285-.357C19.954 7.494 18.91 6.312 18 5.5c-.81-.724-1.921-1.515-2.89-2.162-.832-.555-1.248-.833-1.819-1.04a5.488 5.488 0 0 0-.506-.153c-.384-.095-.758-.128-1.285-.14l.01.255Z"/>
    <path d="M2 13.662V9.775C2 6.11 2 4.277 3.172 3.139 4.343 2 6.239 2 10.03 2c.591 0 1.068 0 1.47.015l.01.244-.01 2.749v.18c0 1.059.003 1.995.105 2.755.114.847.375 1.694 1.067 2.385.69.691 1.538.953 2.385 1.067.781.105 1.751.105 2.848.105h4.052c.013.155.022.321.028.5h.008c.007.357.007.765.007 1.238v1.106l-.012.006a4.704 4.704 0 0 0-.267.146 3.167 3.167 0 0 1-3.43 0 2.375 2.375 0 0 0-2.572 0 3.167 3.167 0 0 1-3.43 0 2.375 2.375 0 0 0-2.572 0 3.167 3.167 0 0 1-3.43 0 2.375 2.375 0 0 0-2.572 0c-.138.088-.206.133-.256.158-.386.194-1.017.027-1.459-.29v-.702Z" opacity=".5"/>
    <path d="M10 22h4c3.771 0 5.657 0 6.829-.933 1.096-.874 1.166-2.246 1.171-4.881l-.012.005a5.143 5.143 0 0 0-.267.12c-1.039.55-2.392.55-3.43 0a2.822 2.822 0 0 0-2.572 0c-1.039.55-2.392.55-3.43 0a2.822 2.822 0 0 0-2.573 0c-1.038.55-2.39.55-3.43 0a2.822 2.822 0 0 0-2.572 0 4.373 4.373 0 0 1-.255.129c-.386.159-1.017.022-1.459-.238.005 2.625.077 3.993 1.171 4.865C4.343 22 6.23 22 10 22Z"/>
  </g>
</svg>
