<svg xmlns="http://www.w3.org/2000/svg" width="24" height="24" fill="none">
  <path stroke="#1C274C" stroke-width="1.5" d="M13 2.5V5c0 2.357 0 3.536.732 4.268C14.464 10 15.643 10 18 10h4"/>
  <path fill="#1C274C" d="M14.004 21.25a.75.75 0 0 0 0 1.5v-1.5Zm-4.001 1.5a.75.75 0 0 0 0-1.5v1.5ZM2.75 10a.75.75 0 0 0-1.5 0h1.5Zm12.647-5.946-.501.557.501-.557Zm3.96 3.563.502-.558-.502.558Zm2.303 2.537-.685.305.685-.305ZM3.172 20.828l.53-.53-.53.53Zm17.663 0-.53-.53.53.53ZM3.172 3.172l.53.53-.53-.53Zm15.119 9.685.416-.624-.416.624Zm3.43 0-.416-.624.416.624Zm-12.004 0-.416-.624.416.624Zm2.572 0 .416-.624-.416.624Zm-6.002 0-.416.624.416-.624Zm-2.572 0-.416-.624.416.624Zm14.576 4 .416-.624-.416.624Zm3.43 0 .416.624-.416-.624Zm-6.002 0-.416-.624.416.624Zm-3.43 0 .416-.624-.416.624Zm-2.572 0-.416-.624.416.624Zm6.002-4-.416-.624.416.624Zm-9.432 4-.416.624.416-.624Zm-2.572 0-.416-.624.416.624Zm-.626.418.416.624-.416-.625Zm-.81 1.84.729-.174-.73.174Zm19.693-2.117.749.03-.75-.03Zm.028-4.67.75-.015-.75.014ZM2.214 18.072l.698.274-.698-.274Zm-.208-5.83.746-.084-.746.083Zm1.454.777.344.666-.344-.666ZM1.355 5.927a.75.75 0 0 0 1.493.146l-1.493-.146ZM2.75 11.94V10h-1.5v1.94h1.5Zm12.146-7.33 3.96 3.563 1.003-1.115-3.96-3.563-1.003 1.115Zm3.96 3.563c1.354 1.218 1.853 1.688 2.12 2.285l1.37-.61c-.427-.957-1.232-1.66-2.487-2.79l-1.003 1.115ZM10.032 2.75c1.583 0 2.18.012 2.712.216l.537-1.4c-.852-.328-1.78-.316-3.249-.316v1.5Zm5.867.746c-1.086-.977-1.766-1.604-2.618-1.93l-.537 1.4c.533.204.982.592 2.152 1.645l1.003-1.115ZM10.003 21.25c-1.908 0-3.263-.002-4.291-.14-1.006-.135-1.586-.389-2.01-.812l-1.06 1.06c.748.75 1.697 1.081 2.87 1.239 1.151.155 2.626.153 4.49.153v-1.5Zm4 1.5c1.866 0 3.34.002 4.491-.153 1.173-.158 2.122-.49 2.87-1.238l-1.06-1.061c-.423.423-1.003.677-2.01.812-1.027.138-2.383.14-4.29.14v1.5Zm-3.97-21.5c-1.876 0-3.357-.002-4.513.153-1.177.158-2.13.49-2.878 1.238l1.06 1.061c.423-.423 1.005-.677 2.017-.812 1.033-.138 2.396-.14 4.313-.14v-1.5Zm7.842 12.231c1.29.86 2.971.86 4.262 0l-.832-1.248a2.342 2.342 0 0 1-2.598 0l-.832 1.248Zm-7.742 0a1.57 1.57 0 0 1 1.74 0l.832-1.248a3.07 3.07 0 0 0-3.404 0l.832 1.248Zm-4.262 0c1.29.86 2.971.86 4.262 0L9.3 12.233a2.342 2.342 0 0 1-2.598 0l-.832 1.248Zm-1.74 0a1.57 1.57 0 0 1 1.74 0l.832-1.248a3.07 3.07 0 0 0-3.404 0l.832 1.248Zm13.744 4c1.29.86 2.971.86 4.262 0l-.832-1.248a2.342 2.342 0 0 1-2.598 0l-.832 1.248Zm-1.74 0a1.57 1.57 0 0 1 1.74 0l.832-1.248a3.07 3.07 0 0 0-3.404 0l.832 1.248Zm-4.262 0c1.29.86 2.971.86 4.262 0l-.832-1.248a2.342 2.342 0 0 1-2.598 0l-.832 1.248Zm-1.74 0a1.57 1.57 0 0 1 1.74 0l.832-1.248a3.07 3.07 0 0 0-3.404 0l.832 1.248Zm6.002-4a1.57 1.57 0 0 1 1.74 0l.832-1.248a3.07 3.07 0 0 0-3.404 0l.832 1.248Zm-10.264 4c1.29.86 2.971.86 4.262 0L9.3 16.233a2.342 2.342 0 0 1-2.598 0l-.832 1.248Zm6.002-4c1.29.86 2.971.86 4.262 0l-.832-1.248a2.342 2.342 0 0 1-2.598 0l-.832 1.248Zm-7.742 4a1.57 1.57 0 0 1 1.74 0l.832-1.248a3.07 3.07 0 0 0-3.404 0l.832 1.248Zm-.626.418.626-.418-.832-1.248-.626.417.832 1.249Zm-1.956 1.39c.195.818.526 1.503 1.093 2.07l1.06-1.061c-.325-.325-.547-.74-.694-1.357l-1.46.348Zm19.673-2.322c-.077 1.864-.33 2.743-.918 3.331l1.06 1.06c1.03-1.028 1.279-2.447 1.357-4.33l-1.499-.061Zm1.528-4.654c-.019-.992-.085-1.747-.404-2.464l-1.37.61c.187.421.256.912.274 1.882l1.5-.028Zm-.613 1.168c.386-.257.622-.695.613-1.168l-1.5.028a.13.13 0 0 1 .055-.108l.832 1.248Zm-19.464 3.17a6.968 6.968 0 0 0-.657.47 1.697 1.697 0 0 0-.5.677l1.396.55a.063.063 0 0 1 .01-.019.498.498 0 0 1 .071-.07c.098-.084.244-.182.512-.36l-.832-1.249Zm.335 2.29a4.208 4.208 0 0 1-.103-.496c-.006-.066 0-.08.007-.098l-1.396-.549c-.217.554-.071 1.054.033 1.49l1.459-.347Zm19.129-1.46a.589.589 0 0 1-.915-.514l1.499.062a.911.911 0 0 0-1.416-.796l.832 1.248ZM1.25 11.94c0 .139-.001.277.01.385l1.492-.166-.001-.039-.001-.18h-1.5Zm2.049.293-.15.1c-.036.023-.042.025-.034.02l.69 1.333c.096-.05.21-.128.326-.205l-.832-1.248Zm-2.038.092a1.75 1.75 0 0 0 2.543 1.361l-.689-1.332a.25.25 0 0 1-.363-.195l-1.491.166Zm1.587-6.252c.121-1.234.383-1.9.854-2.371l-1.06-1.06c-.835.834-1.152 1.919-1.287 3.285l1.493.146Z"/>
</svg>
