<svg xmlns="http://www.w3.org/2000/svg" width="24" height="24" fill="none">
  <g fill="#1C274C">
    <path d="M12 12.25a.75.75 0 0 1 .75.75v2a.75.75 0 0 1-1.5 0v-2a.75.75 0 0 1 .75-.75Z"/>
    <path fill-rule="evenodd" d="M5.955 1.25c-.433 0-.83 0-1.152.043-.356.048-.732.16-1.04.47-.31.309-.422.684-.47 1.04-.043.323-.043.72-.043 1.152v.297c-.001.325-.002.677.133 1.003.135.327.385.575.616.805l.056.056L7.298 9.36c.621.621.775.793.857.991.082.198.095.428.095 1.307v7.368c0 .445 0 .816.02 1.12.022.317.069.617.19.907a2.75 2.75 0 0 0 1.487 1.489c.29.12.59.167.908.188.304.021.675.021 1.12.021h.05c.444 0 .816 0 1.12-.02.317-.022.617-.069.907-.19a2.75 2.75 0 0 0 1.489-1.488c.12-.29.166-.59.188-.907.02-.304.02-.675.02-1.12v-7.368c0-.879.014-1.11.096-1.307.082-.198.235-.37.857-.991l3.242-3.243.057-.056c.231-.23.48-.478.616-.805.135-.326.134-.678.133-1.003v-.297c0-.433 0-.83-.044-1.152-.047-.356-.16-.731-.469-1.04-.309-.31-.684-.422-1.04-.47-.323-.043-.72-.043-1.152-.043H5.955Zm-1.13 1.572-.002.001-.001.003a.706.706 0 0 0-.042.177c-.029.21-.03.504-.03.997v.25h14.5V4c0-.493-.002-.787-.03-.997a.711.711 0 0 0-.042-.177l-.001-.003-.003-.001a.707.707 0 0 0-.177-.042c-.21-.028-.505-.03-.997-.03H6c-.493 0-.787.002-.998.03a.706.706 0 0 0-.176.042ZM18.19 5.75H5.81l2.634 2.634c.312.31.583.581.793.866h5.525c.21-.285.482-.555.793-.866L18.19 5.75Zm-3.926 5H9.736c.014.242.014.502.014.786V19c0 .476 0 .796.017 1.043.017.241.046.358.078.435.127.307.37.55.676.677.078.032.195.061.436.078.247.017.567.017 1.043.017s.796 0 1.043-.017c.24-.017.358-.046.435-.078.306-.127.55-.37.677-.677.032-.077.061-.194.078-.435.016-.247.017-.567.017-1.043v-7.464c0-.284 0-.543.013-.786Z" clip-rule="evenodd"/>
  </g>
</svg>
