<svg xmlns="http://www.w3.org/2000/svg" width="24" height="24" fill="none">
  <path stroke="#1C274C" stroke-linecap="round" stroke-width="1.5" d="M8 22H5.886c-1.702 0-2.553 0-2.832-.542-.28-.543.215-1.235 1.205-2.62l1.13-1.582c.439-.616.659-.924.982-1.09C6.694 16 7.073 16 7.83 16h8.341c.757 0 1.135 0 1.458.166.324.166.544.474.983 1.09l1.13 1.581c.99 1.386 1.484 2.078 1.205 2.62-.28.543-1.13.543-2.833.543H12m0-20H5.886c-1.702 0-2.553 0-2.832.542-.28.543.215 1.235 1.205 2.62l1.13 1.582c.439.616.659.924.982 1.09C6.694 8 7.073 8 7.83 8h8.341c.757 0 1.135 0 1.458-.166.324-.166.544-.474.983-1.09l1.13-1.582c.99-1.385 1.484-2.077 1.205-2.62C20.666 2 19.816 2 18.113 2h-2.056M14 12h-4m-4 0H2m20 0h-4"/>
</svg>
