<svg xmlns="http://www.w3.org/2000/svg" width="24" height="24" fill="none">
  <path fill="#1C274C" fill-rule="evenodd" d="M9.318 3.39a2.751 2.751 0 0 1 5.364 0c.216.092.41.229.568.403.325.361.483.888.294 1.434a3.756 3.756 0 0 1-2.794 2.448v5.732a4.87 4.87 0 0 1 .387-.334l.011-.01 3.34-2.386a3.876 3.876 0 0 1 .25-3.686 1.433 1.433 0 0 1 1.325-.67c.24.017.473.088.684.205a2.785 2.785 0 0 1 3.405.799 2.83 2.83 0 0 1-.03 3.516c.065.234.08.48.04.719a1.44 1.44 0 0 1-.953 1.137 3.802 3.802 0 0 1-3.842-.805l-3.322 2.375a3.39 3.39 0 0 0-1.295 2.67v4.313H15a.75.75 0 0 1 0 1.5H9a.75.75 0 0 1 0-1.5h2.25v-4.313a3.39 3.39 0 0 0-1.295-2.67l-3.322-2.375a3.802 3.802 0 0 1-3.842.805 1.44 1.44 0 0 1-.952-1.137 1.664 1.664 0 0 1 .038-.72 2.83 2.83 0 0 1-.029-3.515 2.785 2.785 0 0 1 3.405-.8 1.64 1.64 0 0 1 .684-.203 1.433 1.433 0 0 1 1.325.669c.696 1.095.8 2.49.25 3.686l3.34 2.387.011.009c.136.105.265.217.387.334V7.675a3.756 3.756 0 0 1-2.794-2.448 1.42 1.42 0 0 1 .294-1.434c.157-.174.352-.31.568-.403ZM11 3.25h2a1.248 1.248 0 0 0-2 0ZM4.118 7.752a1.286 1.286 0 0 0-1.088.496 1.326 1.326 0 0 0-.227 1.188l1.315-1.684Zm17.079 1.684c.115-.395.045-.84-.227-1.188a1.285 1.285 0 0 0-1.088-.496l1.315 1.684ZM9.888 4.779a2.251 2.251 0 0 0 4.224 0A.23.23 0 0 0 14 4.75h-4a.23.23 0 0 0-.112.029ZM5.98 7.838a.254.254 0 0 0-.078.067L3.37 11.146a.264.264 0 0 0-.047.095.194.194 0 0 0-.007.05 2.303 2.303 0 0 0 2.599-.84 2.37 2.37 0 0 0 .099-2.628.186.186 0 0 0-.034.015Zm12.006-.015a2.37 2.37 0 0 0 .15 2.695 2.303 2.303 0 0 0 2.548.773.192.192 0 0 0-.007-.05.266.266 0 0 0-.047-.095l-2.532-3.241a.255.255 0 0 0-.112-.082Z" clip-rule="evenodd"/>
</svg>
