<svg xmlns="http://www.w3.org/2000/svg" width="24" height="24" fill="none">
  <path fill="#1C274C" fill-rule="evenodd" d="M12.476 2.75c-2.75 0-4.964 2.2-4.964 4.897 0 .462.065.909.185 1.331.497.144.963.36 1.383.64a.75.75 0 1 1-.827 1.25 3.54 3.54 0 0 0-1.967-.589c-1.961 0-3.536 1.57-3.536 3.486 0 .532.12 1.035.336 1.485h17.203a4.829 4.829 0 0 0 .961-2.897c0-2.137-1.39-3.962-3.338-4.628a5.018 5.018 0 0 0-1.626-.27c-.583 0-1.14.1-1.658.28a.75.75 0 0 1-.494-1.416 6.517 6.517 0 0 1 3.024-.305 4.962 4.962 0 0 0-4.682-3.264Zm6.355 3.721c-.559-2.977-3.197-5.221-6.355-5.221-3.562 0-6.464 2.856-6.464 6.397 0 .387.035.767.102 1.135-2.694.09-4.864 2.278-4.864 4.983 0 .577.1 1.132.282 1.649A.749.749 0 0 0 2 16.75h.633a.98.98 0 0 0 .025 0H22a.75.75 0 0 0 .05-1.498c.447-.87.7-1.856.7-2.9 0-2.643-1.619-4.904-3.919-5.88ZM4.25 19a.75.75 0 0 1 .75-.75h14a.75.75 0 0 1 0 1.5H5a.75.75 0 0 1-.75-.75Zm3 3a.75.75 0 0 1 .75-.75h8a.75.75 0 0 1 0 1.5H8a.75.75 0 0 1-.75-.75Z" clip-rule="evenodd"/>
</svg>
