<svg xmlns="http://www.w3.org/2000/svg" width="24" height="24" fill="none">
  <path fill="#1C274C" fill-rule="evenodd" d="M8.388 1.25h.108c.24 0 .407 0 .57.014.699.06 1.368.316 1.919.74a6.2 6.2 0 0 1 .417.367l.408.38c.6.557.803.736 1.033.855a2.3 2.3 0 0 0 .441.17c.26.068.549.074 1.396.074h.307c.883 0 1.61 0 2.19.068.603.07 1.15.223 1.608.607.075.062.147.129.215.2.423.436.597.966.676 1.549.074.547.074 1.232.074 2.044v1.54c0 1.176 0 2.14-.11 2.902-.116.802-.368 1.488-.95 2.028-.574.533-1.289.757-2.125.861-.809.101-1.837.101-3.114.101h-.701v1.604c.916.259 1.637.98 1.896 1.896H22a.75.75 0 0 1 0 1.5h-7.354a2.751 2.751 0 0 1-5.292 0H2a.75.75 0 0 1 0-1.5h7.354a2.756 2.756 0 0 1 1.896-1.896V15.75h-.701c-1.277 0-2.305 0-3.114-.1-.836-.105-1.551-.329-2.125-.862-.582-.54-.834-1.226-.95-2.028-.11-.761-.11-1.726-.11-2.903v-4.72c0-.496 0-.854.064-1.168.28-1.382 1.43-2.416 2.837-2.663.323-.056.693-.056 1.237-.056Zm5.012 13c1.34 0 2.274-.001 2.98-.09.688-.085 1.044-.243 1.29-.471.238-.221.396-.53.485-1.143.093-.642.095-1.497.095-2.746V8.369c0-.877-.002-1.459-.06-1.894-.056-.412-.152-.588-.267-.707a1.309 1.309 0 0 0-.1-.092c-.14-.117-.353-.214-.82-.269-.483-.056-1.122-.057-2.062-.057h-.356c-.716 0-1.213 0-1.685-.125a3.676 3.676 0 0 1-.746-.287c-.434-.224-.791-.556-1.296-1.025l-.068-.063-.385-.358a5.325 5.325 0 0 0-.335-.3 2.168 2.168 0 0 0-1.134-.433 5.934 5.934 0 0 0-.471-.009c-.65 0-.878.003-1.055.034-.857.15-1.48.761-1.626 1.483-.03.147-.034.34-.034.95V9.8c0 1.248.002 2.104.095 2.745.089.615.247.923.485 1.144.246.228.602.386 1.29.472.706.088 1.64.089 2.98.089h2.8Zm-.65-6.75a.75.75 0 0 1 .75-.75h3a.75.75 0 0 1 0 1.5h-3a.75.75 0 0 1-.75-.75ZM12 18.75a1.25 1.25 0 1 0 0 2.5 1.25 1.25 0 0 0 0-2.5Z" clip-rule="evenodd"/>
</svg>
