<svg xmlns="http://www.w3.org/2000/svg" width="24" height="24" fill="none">
  <path fill="#1C274C" fill-rule="evenodd" d="M7.879 1.25h.114c.278 0 .463 0 .645.016.78.068 1.527.356 2.139.832.143.111.276.236.471.42l.025.022.44.413c.682.64.925.858 1.204 1.004.165.086.341.154.525.204.313.083.658.089 1.62.089h.347c1.013 0 1.84 0 2.495.077.681.08 1.283.254 1.784.677.083.07.163.144.238.222.46.48.652 1.063.74 1.721.084.624.084 1.407.084 2.35v2.032c.214.216.4.459.556.722.4.674.481 1.433.43 2.3-.049.844-.234 1.897-.466 3.216l-.015.086c-.166.944-.3 1.708-.47 2.315-.177.628-.411 1.16-.82 1.605-.193.21-.41.398-.646.558-.502.34-1.057.485-1.694.553-.61.066-1.364.066-2.289.066H8.664c-.925 0-1.679 0-2.29-.066-.636-.068-1.191-.213-1.693-.553a3.674 3.674 0 0 1-.647-.558c-.408-.446-.642-.977-.818-1.605-.17-.607-.305-1.37-.471-2.316l-.015-.086c-.232-1.317-.417-2.371-.466-3.216-.051-.866.03-1.625.43-2.299.155-.263.342-.506.556-.722V5.627c0-.58 0-.98.07-1.331.31-1.54 1.583-2.704 3.156-2.983.36-.063.775-.063 1.403-.063ZM4.75 10.491c.24-.062.494-.107.76-.14.815-.101 1.854-.101 3.144-.101h6.692c1.29 0 2.329 0 3.145.101.265.033.519.078.759.14V9.348c0-1.008-.002-1.689-.07-2.201-.066-.49-.181-.72-.337-.882a1.58 1.58 0 0 0-.122-.115c-.182-.153-.45-.269-.992-.333-.558-.066-1.296-.067-2.367-.067h-.398c-.828 0-1.383 0-1.91-.14a4.07 4.07 0 0 1-.831-.323c-.483-.252-.88-.625-1.464-1.172l-.072-.068-.44-.413a6.176 6.176 0 0 0-.39-.351 2.566 2.566 0 0 0-1.35-.523 6.781 6.781 0 0 0-.547-.01c-.738 0-1.01.003-1.223.04-1.015.18-1.768.915-1.946 1.802-.037.184-.041.422-.041 1.12v4.78Zm.944 1.349c-.698.086-1.058.245-1.306.474a2.228 2.228 0 0 0-.403.501c-.18.303-.267.712-.224 1.447.044.748.213 1.716.454 3.092.175.993.297 1.682.445 2.208.144.511.293.793.48.996.115.126.244.237.382.331.222.15.508.25 1.013.304.52.056 1.194.057 2.17.057h6.59c.976 0 1.65-.001 2.17-.057.505-.054.79-.154 1.013-.304.138-.094.267-.205.382-.33.187-.204.337-.486.48-.997.148-.526.27-1.215.445-2.208.241-1.376.41-2.344.454-3.092.043-.736-.044-1.144-.224-1.447a2.226 2.226 0 0 0-.403-.501c-.248-.23-.608-.388-1.306-.474-.713-.089-1.658-.09-3.011-.09h-6.59c-1.353 0-2.298.001-3.011.09ZM9.25 17a.75.75 0 0 1 .75-.75h4a.75.75 0 0 1 0 1.5h-4a.75.75 0 0 1-.75-.75Z" clip-rule="evenodd"/>
</svg>
