<svg xmlns="http://www.w3.org/2000/svg" width="24" height="24" fill="none">
  <g fill="#1C274C">
    <path d="M22 11.798V14c0 3.771 0 5.657-1.172 6.828C19.657 22 17.771 22 14 22h-4c-3.771 0-5.657 0-6.828-1.172C2 19.657 2 17.771 2 14V6.95c0-.883 0-1.324.07-1.692A4 4 0 0 1 5.257 2.07C5.626 2 6.068 2 6.95 2c.386 0 .58 0 .766.017a4 4 0 0 1 2.18.904c.144.119.28.255.554.529L11 4c.816.816 1.224 1.224 1.712 1.495a4 4 0 0 0 .848.352C14.098 6 14.675 6 15.828 6h.374c2.632 0 3.949 0 4.804.77.079.07.154.145.224.224.77.855.77 2.172.77 4.804Z" opacity=".5"/>
    <path fill-rule="evenodd" d="M9.25 13a2.75 2.75 0 1 1 3.5 2.646V17.5a.75.75 0 0 1-1.5 0v-1.854a2.751 2.751 0 0 1-2-2.646Zm1.5 0a1.25 1.25 0 1 1 2.5 0 1.25 1.25 0 0 1-2.5 0Z" clip-rule="evenodd"/>
  </g>
</svg>
