<svg xmlns="http://www.w3.org/2000/svg" width="24" height="24" fill="none">
  <g stroke="#1C274C" stroke-width="1.5">
    <path d="M11.146 11.023c.38-.682.57-1.023.854-1.023.284 0 .474.34.854 1.023l.098.176c.108.194.162.29.246.354.085.064.19.088.4.135l.19.044c.738.167 1.107.25 1.195.532.088.283-.164.577-.667 1.165l-.13.152c-.143.167-.215.25-.247.354-.032.104-.021.215 0 .438l.02.203c.076.785.114 1.178-.115 1.352-.23.174-.576.015-1.267-.303l-.178-.082c-.197-.09-.295-.135-.399-.135-.104 0-.202.045-.399.135l-.178.082c-.691.319-1.037.477-1.267.303-.23-.174-.191-.567-.115-1.352l.02-.203c.021-.223.032-.334 0-.438-.032-.103-.104-.187-.247-.354l-.13-.152c-.503-.588-.755-.882-.667-1.165.088-.282.457-.365 1.195-.532l.19-.044c.21-.047.315-.07.4-.135.084-.064.138-.16.246-.354l.098-.176Z"/>
    <path d="M2 6.95c0-.883 0-1.324.07-1.692A4 4 0 0 1 5.257 2.07C5.626 2 6.068 2 6.95 2c.386 0 .58 0 .766.017a4 4 0 0 1 2.18.904c.144.119.28.255.554.529L11 4c.816.816 1.224 1.224 1.712 1.495a4 4 0 0 0 .848.352C14.098 6 14.675 6 15.828 6h.374c2.632 0 3.949 0 4.804.77.079.07.154.145.224.224.77.855.77 2.172.77 4.804V14c0 3.771 0 5.657-1.172 6.828C19.657 22 17.771 22 14 22h-4c-3.771 0-5.657 0-6.828-1.172C2 19.657 2 17.771 2 14V6.95Z"/>
  </g>
</svg>
