<svg xmlns="http://www.w3.org/2000/svg" width="24" height="24" fill="none">
  <path fill="#1C274C" fill-rule="evenodd" d="M10.706 1.25c-1.087 0-1.843 0-2.535.286-.691.286-1.225.82-1.994 1.59l-3.05 3.05c-.77.77-1.305 1.304-1.591 1.995-.287.692-.286 1.448-.286 2.535v2.588c0 1.088 0 1.843.286 2.535.286.691.82 1.226 1.59 1.994l3.05 3.05c.77.77 1.304 1.305 1.995 1.592.692.286 1.448.286 2.535.285h2.588c1.088 0 1.843.001 2.535-.285.691-.287 1.226-.822 1.994-1.591l3.05-3.05c.77-.77 1.305-1.304 1.592-1.995.286-.692.286-1.447.285-2.535v-2.588c0-1.087.001-1.843-.285-2.535-.287-.691-.822-1.225-1.591-1.994l-3.05-3.05c-.77-.77-1.304-1.305-1.995-1.591-.692-.287-1.447-.286-2.535-.286h-2.588Zm-1.96 1.671c.38-.158.816-.17 2.103-.17h2.302c1.288 0 1.722.012 2.104.17.381.158.698.456 1.608 1.367l.895.894L5.182 17.757l-.894-.894c-.91-.91-1.209-1.227-1.367-1.608-.158-.382-.17-.816-.17-2.104V10.85c0-1.287.012-1.722.17-2.104.158-.381.456-.698 1.367-1.608l2.849-2.85c.91-.91 1.227-1.208 1.608-1.366ZM6.241 18.818l.895.894c.91.91 1.227 1.209 1.608 1.367.382.158.817.171 2.104.171h2.302c1.288 0 1.722-.013 2.104-.171.381-.158.698-.456 1.608-1.367l2.85-2.849c.91-.91 1.208-1.227 1.366-1.608.158-.382.171-.816.171-2.104V10.85c0-1.287-.013-1.722-.171-2.104-.158-.381-.456-.698-1.367-1.608l-.894-.894L6.242 18.818Z" clip-rule="evenodd"/>
</svg>
