<svg xmlns="http://www.w3.org/2000/svg" width="24" height="24" fill="none">
  <path fill="#1C274C" d="m13.955 5.183 4.977 4.425c.931.827 1.396 1.24 1.568 1.73a2 2 0 0 1 0 1.324c-.172.489-.637.902-1.568 1.73l-4.977 4.424c-.423.376-.634.563-.813.57a.5.5 0 0 1-.405-.182c-.114-.138-.114-.42-.114-.986v-2.79c-2.428 0-4.993.78-6.865 2.165-.975.72-1.463 1.08-1.648 1.067a.451.451 0 0 1-.39-.24c-.096-.16-.011-.658.159-1.653C4.984 10.3 9.434 8.57 12.623 8.57V5.78c0-.565 0-.847.114-.986a.5.5 0 0 1 .405-.181c.18.006.39.194.813.57Z"/>
</svg>
