<svg xmlns="http://www.w3.org/2000/svg" width="24" height="24" fill="none">
  <path fill="#1C274C" d="m13.955 5.183 4.978 4.425c.93.827 1.396 1.24 1.567 1.73a2 2 0 0 1 0 1.324c-.171.489-.637.902-1.567 1.73l-4.978 4.424c-.422.376-.633.563-.813.57a.5.5 0 0 1-.404-.182c-.114-.138-.114-.42-.114-.986v-2.79c-2.429 0-4.993.78-6.866 2.165-.975.72-1.462 1.08-1.648 1.067a.451.451 0 0 1-.39-.24c-.096-.16-.01-.658.16-1.653C4.983 10.3 9.433 8.57 12.623 8.57V5.78c0-.565 0-.847.114-.986a.5.5 0 0 1 .404-.181c.18.006.39.194.813.57Z"/>
</svg>
