<svg xmlns="http://www.w3.org/2000/svg" width="24" height="24" fill="none">
  <g stroke="#1C274C" stroke-width="1.5">
    <path d="M4 10c0-3.771 0-5.657 1.172-6.828C6.343 2 8.229 2 12 2c3.771 0 5.657 0 6.828 1.172C20 4.343 20 6.229 20 10v3c0 3.771 0 5.657-1.172 6.828C17.657 21 15.771 21 12 21c-3.771 0-5.657 0-6.828-1.172C4 18.657 4 16.771 4 13v-3Z"/>
    <path stroke-linejoin="round" d="M17 21v1h-1v-1m-8 0v1H7v-1"/>
    <path d="M20 11.5H4"/>
    <path stroke-linecap="round" d="M17 7v2m0 5v2"/>
  </g>
</svg>
