<svg xmlns="http://www.w3.org/2000/svg" width="24" height="24" fill="none">
  <path fill="#1C274C" fill-rule="evenodd" d="M22 12c0 5.523-4.477 10-10 10S2 17.523 2 12 6.477 2 12 2s10 4.477 10 10ZM10.747 5.994a.75.75 0 0 1-.743.756c-.856.007-1.454.035-1.904.124-.428.084-.666.212-.84.386-.174.174-.302.412-.386.84-.088.45-.117 1.048-.124 1.904a.75.75 0 0 1-1.5-.013c.007-.85.034-1.577.152-2.179.122-.623.351-1.167.797-1.613.446-.446.99-.675 1.613-.797.602-.118 1.328-.145 2.179-.152a.75.75 0 0 1 .756.744Zm2.503 0a.75.75 0 0 1 .757-.744c.85.007 1.576.034 2.179.152.623.122 1.166.351 1.612.797.446.446.676.99.798 1.613.118.602.144 1.328.151 2.179a.75.75 0 0 1-1.5.013c-.007-.856-.035-1.454-.123-1.904-.084-.428-.212-.666-.386-.84-.175-.174-.412-.302-.84-.386-.45-.088-1.048-.117-1.904-.124a.75.75 0 0 1-.744-.756Zm-6.5 8a.75.75 0 0 0-1.5.013c.007.85.034 1.577.152 2.179.122.623.351 1.167.797 1.613.446.446.99.675 1.613.797.602.119 1.328.145 2.179.152a.75.75 0 0 0 .013-1.5c-.856-.007-1.454-.036-1.904-.123-.428-.084-.666-.213-.84-.387-.174-.174-.302-.412-.386-.84-.088-.45-.117-1.048-.124-1.904Zm11.254-.743a.75.75 0 0 1 .743.756c-.007.85-.033 1.577-.151 2.179-.122.623-.352 1.167-.798 1.613-.446.446-.99.675-1.612.797-.603.119-1.329.145-2.18.152a.75.75 0 1 1-.012-1.5c.856-.007 1.454-.036 1.903-.123.429-.084.666-.213.84-.387.175-.174.303-.412.387-.84.088-.45.116-1.048.124-1.904a.75.75 0 0 1 .756-.743Z" clip-rule="evenodd"/>
</svg>
