<svg xmlns="http://www.w3.org/2000/svg" width="24" height="24" fill="none">
  <g stroke="#1C274C" stroke-linecap="round" stroke-width="1.5">
    <path d="M6 9.997c.014-1.706.11-2.647.73-3.267.62-.62 1.56-.716 3.267-.73M6 14c.014 1.707.11 2.648.73 3.268.62.62 1.56.716 3.267.73m8.001-8.001c-.015-1.706-.11-2.647-.73-3.267-.62-.62-1.561-.716-3.268-.73m3.998 8c-.015 1.707-.11 2.648-.73 3.268-.62.62-1.561.716-3.268.73"/>
    <path d="M7 3.338A9.954 9.954 0 0 1 12 2c5.523 0 10 4.477 10 10s-4.477 10-10 10S2 17.523 2 12c0-1.821.487-3.53 1.338-5"/>
  </g>
</svg>
