<svg xmlns="http://www.w3.org/2000/svg" width="24" height="24" fill="none">
  <g fill="#1C274C">
    <path d="m11.182 15.362-4.29-4.29a2.3 2.3 0 0 0-3.14-.104l-1.001.894c-.017.013-.05.099-.05.338a9.3 9.3 0 0 0 17.025 5.179l-.117-.118-1.833-1.662a3 3 0 0 0-3.731-.225l-.299.21a2 2 0 0 1-2.564-.222Z" opacity=".5"/>
    <path d="M15 11a2 2 0 1 0 0-4 2 2 0 0 0 0 4Z"/>
    <path fill-rule="evenodd" d="M1.25 12C1.25 6.063 6.063 1.25 12 1.25S22.75 6.063 22.75 12 17.937 22.75 12 22.75 1.25 17.937 1.25 12Zm19.73-2.23c.209.775.32 1.59.32 2.43A9.3 9.3 0 1 1 3.016 9.787C4.008 5.747 7.654 2.75 12 2.75c4.34 0 7.981 2.989 8.98 7.02Z" clip-rule="evenodd"/>
  </g>
</svg>
