<svg xmlns="http://www.w3.org/2000/svg" width="24" height="24" fill="none">
  <g fill="#1C274C">
    <path fill-rule="evenodd" d="M3.464 3.464C2 4.93 2 7.286 2 12c0 4.714 0 7.071 1.464 8.535C4.93 22 7.286 22 12 22c4.714 0 7.071 0 8.535-1.465C22 19.072 22 16.714 22 12s0-7.071-1.465-8.536C19.072 2 16.714 2 12 2S4.929 2 3.464 3.464Z" clip-rule="evenodd" opacity=".5"/>
    <path d="M8.504 13.177a1.55 1.55 0 0 0-2.183-.073l-.81.753a.75.75 0 0 1-1.021-1.1l.81-.752a3.05 3.05 0 0 1 4.296.143l2.647 2.81a.795.795 0 0 0 1.054.092 3.067 3.067 0 0 1 3.953.241l2.268 2.167a.75.75 0 0 1-1.036 1.084l-2.268-2.166a1.567 1.567 0 0 0-2.02-.123 2.295 2.295 0 0 1-3.043-.266l-2.647-2.81ZM18 8a2 2 0 1 1-4 0 2 2 0 0 1 4 0Z"/>
  </g>
</svg>
