<svg xmlns="http://www.w3.org/2000/svg" width="24" height="24" fill="none">
  <g fill="#1C274C">
    <path d="M18.512 10.077c0 .739-.625 1.338-1.396 1.338-.77 0-1.395-.6-1.395-1.338 0-.739.625-1.337 1.395-1.337s1.396.598 1.396 1.337Z"/>
    <path fill-rule="evenodd" d="M18.036 5.532c-1.06-.136-2.414-.136-4.123-.136h-3.826c-1.71 0-3.064 0-4.123.136-1.09.141-1.974.437-2.67 1.104-.696.668-1.005 1.514-1.152 2.56C2 10.21 2 11.508 2 13.147v.1c0 1.639 0 2.937.142 3.953.147 1.045.456 1.891 1.152 2.558.696.668 1.58.964 2.67 1.104C7.024 21 8.378 21 10.087 21h3.826c1.71 0 3.064 0 4.123-.137 1.09-.14 1.974-.436 2.67-1.104.696-.667 1.005-1.513 1.152-2.558.142-1.016.142-2.314.142-3.953v-.1c0-1.64 0-2.937-.142-3.953-.147-1.045-.456-1.891-1.152-2.559-.696-.667-1.58-.963-2.67-1.104ZM6.15 6.858c-.936.12-1.475.347-1.87.724-.393.378-.629.894-.755 1.791-.1.72-.123 1.62-.128 2.796l.47-.395c1.125-.943 2.819-.889 3.875.123l3.99 3.825a1.2 1.2 0 0 0 1.491.124l.278-.187a3.606 3.606 0 0 1 4.34.25l2.407 2.078c.098-.264.173-.58.227-.965.128-.916.13-2.124.13-3.824 0-1.7-.002-2.908-.13-3.825-.126-.897-.362-1.413-.756-1.79-.393-.378-.933-.604-1.869-.725-.956-.123-2.216-.125-3.99-.125h-3.72c-1.774 0-3.034.002-3.99.125Z" clip-rule="evenodd"/>
    <path d="M17.086 2.61c-.86-.11-1.954-.11-3.319-.11h-3.09c-1.364 0-2.459 0-3.319.11-.89.115-1.632.358-2.221.92a2.9 2.9 0 0 0-.724 1.12c.504-.23 1.074-.366 1.714-.45 1.084-.14 2.47-.14 4.22-.14h3.914c1.75 0 3.135 0 4.22.14.558.073 1.064.186 1.519.366a2.875 2.875 0 0 0-.692-1.035c-.589-.563-1.331-.806-2.222-.92Z"/>
  </g>
</svg>
