<svg xmlns="http://www.w3.org/2000/svg" width="24" height="24" fill="none">
  <path fill="#1C274C" fill-rule="evenodd" d="m2.83 10.777.428-.374a3.05 3.05 0 0 1 4.165.139l4.29 4.29a1.25 1.25 0 0 0 1.602.138l.298-.21a3.75 3.75 0 0 1 4.665.281l1.743 1.57A9.25 9.25 0 1 0 2.83 10.777Zm16.332 7.078-1.887-1.699a2.25 2.25 0 0 0-2.8-.168l-.297.21a2.75 2.75 0 0 1-3.526-.306l-4.29-4.29a1.55 1.55 0 0 0-2.117-.07l-1.46 1.278A9.25 9.25 0 0 0 12 21.25a9.232 9.232 0 0 0 7.162-3.395ZM1.25 12C1.25 6.063 6.063 1.25 12 1.25S22.75 6.063 22.75 12 17.937 22.75 12 22.75 1.25 17.937 1.25 12ZM15 7.75a1.25 1.25 0 1 0 0 2.5 1.25 1.25 0 0 0 0-2.5ZM12.25 9a2.75 2.75 0 1 1 5.5 0 2.75 2.75 0 0 1-5.5 0Z" clip-rule="evenodd"/>
</svg>
