<svg xmlns="http://www.w3.org/2000/svg" width="24" height="24" fill="none">
  <g fill="#1C274C" clip-path="url(#gamepad_old_outline_svg__a)">
    <path d="M16 10.5a1 1 0 1 1-2 0 1 1 0 0 1 2 0Zm2 3a1 1 0 1 1-2 0 1 1 0 0 1 2 0Z"/>
    <path fill-rule="evenodd" d="M15-.75a.75.75 0 0 1 .75.75v1A1.75 1.75 0 0 1 14 2.75h-1a.25.25 0 0 0-.25.25v.25h1.284c1.371 0 2.447 0 3.311.07.88.073 1.607.221 2.265.557a5.75 5.75 0 0 1 2.513 2.513c.336.658.485 1.385.556 2.265.071.864.071 1.94.071 3.311v.068c0 1.371 0 2.447-.07 3.311-.072.88-.221 1.607-.557 2.265a5.75 5.75 0 0 1-2.513 2.513c-.658.336-1.385.485-2.265.556-.864.071-1.94.071-3.311.071H9.966c-1.371 0-2.447 0-3.311-.07-.88-.072-1.607-.221-2.265-.557a5.75 5.75 0 0 1-2.513-2.513c-.336-.658-.484-1.385-.556-2.265-.071-.864-.071-1.94-.071-3.311v-.068c0-1.371 0-2.447.07-3.311.073-.88.221-1.607.557-2.265A5.75 5.75 0 0 1 4.39 3.877c.658-.336 1.385-.484 2.265-.556.864-.071 1.94-.071 3.311-.071h1.284V3c0-.966.784-1.75 1.75-1.75h1a.25.25 0 0 0 .25-.25V0A.75.75 0 0 1 15-.75Zm-5 5.5c-1.413 0-2.427 0-3.223.066-.787.064-1.295.188-1.706.397a4.25 4.25 0 0 0-1.858 1.858c-.21.411-.333.919-.397 1.706-.065.796-.066 1.81-.066 3.223 0 1.412 0 2.427.066 3.223.064.787.188 1.295.397 1.707a4.25 4.25 0 0 0 1.858 1.857c.411.21.919.333 1.706.397.796.065 1.81.066 3.223.066h4c1.412 0 2.427 0 3.223-.066.787-.064 1.295-.188 1.707-.397a4.251 4.251 0 0 0 1.857-1.857c.21-.412.333-.92.397-1.707.065-.796.066-1.81.066-3.223 0-1.412 0-2.427-.066-3.223-.064-.787-.188-1.295-.397-1.706a4.25 4.25 0 0 0-1.857-1.858c-.412-.21-.92-.333-1.707-.397-.796-.065-1.81-.066-3.223-.066h-4Zm-2 4.5a.75.75 0 0 1 .75.75v1.25H10a.75.75 0 0 1 0 1.5H8.75V14a.75.75 0 0 1-1.5 0v-1.25H6a.75.75 0 0 1 0-1.5h1.25V10A.75.75 0 0 1 8 9.25Z" clip-rule="evenodd"/>
  </g>
  <defs>
    <clipPath id="gamepad_old_outline_svg__a">
      <path fill="#fff" d="M0 0h24v24H0z"/>
    </clipPath>
  </defs>
</svg>
