<svg xmlns="http://www.w3.org/2000/svg" width="24" height="24" fill="none">
  <g fill="#1C274C">
    <path d="M8.387 5.08a9.53 9.53 0 0 0-.5-.745A6.968 6.968 0 0 1 12 3c1.32 0 2.555.365 3.608 1a3.881 3.881 0 0 1-.48 1.305c-.048.077-.248.273-.612.544-.162.12-.341.231-.556.36l-.074.043c-.188.112-.402.24-.609.382-.488.334-.996.786-1.338 1.517a2.113 2.113 0 0 0-.12 1.456c.035.135.054.27.055.39 0 .037-.015.096-.097.165a.524.524 0 0 1-.327.118c-1.077-.012-1.927-.904-2.05-2.327-.094-1.082-.536-2.084-1.013-2.874Zm8.265 9.429c.264-.003.512-.02.745-.05a7.006 7.006 0 0 1-3.418 2.257c-.046-.381-.016-.84.209-1.263.192-.362.678-.633 1.334-.794a5.454 5.454 0 0 1 1.109-.15h.021Z"/>
    <path d="M5 10c0-1.72.62-3.294 1.648-4.512.102.143.203.297.301.46.402.664.713 1.416.777 2.15.17 1.97 1.481 3.837 3.705 3.862.961.01 2.126-.712 2.123-1.968 0-.287-.046-.567-.112-.815a.436.436 0 0 1 .019-.315c.17-.364.422-.607.766-.842.16-.11.326-.21.518-.324l.077-.046c.216-.129.461-.278.698-.454.345-.257.79-.618 1.027-.99.187-.294.36-.671.494-1.063A6.977 6.977 0 0 1 19 10c0 .532-.06 1.05-.172 1.55a1.891 1.891 0 0 1-.303.582c-.237.307-.712.685-1.89.697h-.037l-.096.003a7.134 7.134 0 0 0-1.382.195c-.759.186-1.871.61-2.417 1.639-.43.811-.48 1.645-.382 2.327A7.003 7.003 0 0 1 5 10Z"/>
    <path fill-rule="evenodd" d="M18.003 1.5a.75.75 0 0 1 1.06-.059 11.037 11.037 0 0 1 3.687 8.246c0 5.751-4.389 10.478-10 11.013v.55H14a.75.75 0 0 1 0 1.5h-4a.75.75 0 0 1 0-1.5h1.25v-.509a11.037 11.037 0 0 1-7.809-3.678.75.75 0 1 1 1.118-1 9.537 9.537 0 0 0 7.128 3.187 9.563 9.563 0 0 0 9.563-9.563 9.537 9.537 0 0 0-3.188-7.128.75.75 0 0 1-.059-1.06Z" clip-rule="evenodd"/>
  </g>
</svg>
