<svg xmlns="http://www.w3.org/2000/svg" width="24" height="24" fill="none">
  <path fill="#1C274C" fill-rule="evenodd" d="M14.325 3.75h-4.65A3.754 3.754 0 0 1 6.75 6.675a244.25 244.25 0 0 0 0 .65 3.754 3.754 0 0 1 2.925 2.925h4.65a3.754 3.754 0 0 1 2.925-2.925 334.758 334.758 0 0 0 0-.65 3.754 3.754 0 0 1-2.925-2.925Zm.605-1.497c-.275-.003-.567-.003-.878-.003H9.948c-.31 0-.603 0-.877.003a.76.76 0 0 0-.164.003c-.452.008-.853.027-1.201.074-.628.084-1.195.27-1.65.725-.456.456-.642 1.023-.726 1.65-.047.349-.066.75-.074 1.202a.759.759 0 0 0-.003.163c-.003.275-.003.568-.003.878v.104c0 .31 0 .603.003.878a.76.76 0 0 0 .003.163c.008.453.027.853.074 1.201.084.628.27 1.195.726 1.65.455.456 1.022.642 1.65.726.348.047.749.066 1.201.074a.747.747 0 0 0 .164.003c.274.003.567.003.877.003h4.104c.31 0 .603 0 .878-.003a.746.746 0 0 0 .163-.003c.453-.008.854-.027 1.201-.074.628-.084 1.195-.27 1.65-.726.456-.455.642-1.022.726-1.65a10.6 10.6 0 0 0 .074-1.201.767.767 0 0 0 .003-.163c.003-.275.003-.568.003-.878v-.104c0-.31 0-.603-.003-.878a.746.746 0 0 0-.003-.163 10.683 10.683 0 0 0-.074-1.201c-.084-.628-.27-1.195-.725-1.65-.456-.456-1.023-.642-1.65-.726a10.67 10.67 0 0 0-1.202-.074.756.756 0 0 0-.163-.003Zm.964 1.541a2.257 2.257 0 0 0 1.312 1.312 4.9 4.9 0 0 0-.023-.2c-.061-.462-.169-.66-.3-.79-.13-.13-.327-.237-.788-.3a4.957 4.957 0 0 0-.2-.022Zm1.312 5.1a2.257 2.257 0 0 0-1.312 1.312c.07-.006.137-.014.2-.022.462-.063.66-.17.79-.3.13-.13.238-.328.3-.79.008-.063.016-.13.022-.2Zm-9.1 1.312a2.257 2.257 0 0 0-1.312-1.312c.007.07.014.137.023.2.062.462.169.66.3.79.13.13.327.237.788.3.064.008.131.016.201.022Zm-1.312-5.1a2.257 2.257 0 0 0 1.312-1.312c-.07.006-.137.014-.2.023-.462.062-.66.169-.79.3-.13.13-.237.327-.3.788l-.022.2ZM12 6.75a.25.25 0 1 0 0 .5.25.25 0 0 0 0-.5ZM10.25 7a1.75 1.75 0 1 1 3.5 0 1.75 1.75 0 0 1-3.5 0Zm-1.566 7.448c1.866-.361 3.863-.28 5.48.684.226.135.44.304.625.512.376.423.57.947.579 1.473.191-.123.383-.26.577-.407l1.808-1.365a2.637 2.637 0 0 1 3.123 0c.836.63 1.17 1.763.571 2.723-.425.681-1.066 1.624-1.717 2.228-.66.61-1.597 1.124-2.306 1.466-.862.416-1.792.646-2.697.792-1.85.3-3.774.254-5.602-.123a14.275 14.275 0 0 0-2.865-.293H4a.75.75 0 0 1 0-1.5h2.26c1.062 0 2.135.111 3.168.324a14.1 14.1 0 0 0 5.06.111c.828-.134 1.602-.333 2.284-.662.683-.33 1.451-.764 1.938-1.215.493-.457 1.044-1.248 1.465-1.922.127-.204.109-.497-.202-.732-.37-.28-.947-.28-1.316 0l-1.807 1.365c-.722.545-1.61 1.128-2.711 1.304a8.907 8.907 0 0 1-.347.048 10.03 10.03 0 0 1-2.11.02.75.75 0 1 1 .14-1.493 8.47 8.47 0 0 0 1.668-.003l.03-.003a.742.742 0 0 0 .15-1.138 1.15 1.15 0 0 0-.275-.222c-1.181-.705-2.759-.822-4.426-.5a12.124 12.124 0 0 0-4.535 1.935.75.75 0 0 1-.868-1.224 13.623 13.623 0 0 1 5.118-2.183Z" clip-rule="evenodd"/>
</svg>
