<svg xmlns="http://www.w3.org/2000/svg" width="24" height="24" fill="none">
  <path fill="#1C274C" fill-rule="evenodd" d="M15.583 1.42c1.312.441 2.167 1.676 2.167 3.295 0 1.017-.578 1.954-1.223 2.7-.663.769-1.501 1.458-2.235 1.993l-.093.068c-.712.52-1.3.95-2.199.95-.9 0-1.486-.43-2.198-.95l-.094-.068c-.734-.535-1.572-1.224-2.235-1.992C6.83 6.669 6.25 5.732 6.25 4.715c0-1.619.855-2.853 2.167-3.295 1.12-.377 2.422-.128 3.583.717 1.161-.845 2.464-1.094 3.583-.717Zm-.478 1.422c-.652-.22-1.625-.078-2.597.816a.75.75 0 0 1-1.015 0c-.973-.894-1.945-1.036-2.597-.816-.626.21-1.146.814-1.146 1.873 0 .467.285 1.055.859 1.721.556.645 1.292 1.257 1.983 1.76.843.615 1.043.73 1.408.73s.565-.115 1.409-.73c.69-.503 1.426-1.115 1.982-1.76.575-.666.86-1.254.86-1.721 0-1.06-.521-1.663-1.146-1.873ZM8.684 14.448c1.866-.362 3.863-.28 5.48.684.226.135.44.304.625.512.376.422.57.947.579 1.473.191-.123.383-.26.577-.407l1.808-1.365a2.637 2.637 0 0 1 3.123 0c.836.63 1.17 1.763.571 2.722-.425.682-1.066 1.625-1.717 2.229-.66.61-1.597 1.123-2.306 1.466-.862.416-1.792.645-2.697.792-1.85.3-3.774.253-5.602-.123a14.275 14.275 0 0 0-2.865-.293H4a.75.75 0 0 1 0-1.5h2.26c1.062 0 2.135.11 3.168.324a14.1 14.1 0 0 0 5.06.111c.828-.134 1.602-.333 2.284-.662.683-.33 1.451-.764 1.938-1.216.493-.456 1.044-1.247 1.465-1.921.127-.204.109-.498-.202-.733a1.14 1.14 0 0 0-1.316 0l-1.807 1.366c-.722.545-1.61 1.128-2.711 1.303a8.715 8.715 0 0 1-.347.049 10.03 10.03 0 0 1-2.11.02.75.75 0 1 1 .14-1.493c.628.059 1.19.046 1.668-.003l.03-.003a.742.742 0 0 0 .15-1.138 1.15 1.15 0 0 0-.275-.222c-1.181-.705-2.759-.822-4.426-.5a12.124 12.124 0 0 0-4.535 1.935.75.75 0 0 1-.868-1.224 13.623 13.623 0 0 1 5.118-2.183Z" clip-rule="evenodd"/>
</svg>
