<svg xmlns="http://www.w3.org/2000/svg" width="24" height="24" fill="none">
  <g stroke="#1C274C" stroke-width="1.5">
    <path d="M8.796 6.64a2.718 2.718 0 1 1 3.845-3.844l2.563 2.563a2.719 2.719 0 0 1-3.845 3.845L8.796 6.64Z"/>
    <path d="M14 4s-.225 1.168-1.529 2.471C11.167 7.775 10 8 10 8"/>
    <path stroke-linecap="round" d="M4 21.388h2.26c1.01 0 2.033.106 3.016.308a14.85 14.85 0 0 0 5.33.118c.868-.14 1.72-.355 2.492-.727.696-.337 1.549-.81 2.122-1.341.572-.53 1.168-1.397 1.59-2.075.364-.582.188-1.295-.386-1.728a1.887 1.887 0 0 0-2.22 0l-1.807 1.365c-.7.53-1.465 1.017-2.376 1.162-.11.017-.225.033-.345.047m0 0a8.176 8.176 0 0 1-.11.012m.11-.012a.998.998 0 0 0 .427-.24 1.492 1.492 0 0 0 .126-2.134 1.9 1.9 0 0 0-.45-.367c-2.797-1.669-7.15-.398-9.779 1.467m9.676 1.274a.524.524 0 0 1-.11.012m0 0a9.274 9.274 0 0 1-1.814.004"/>
  </g>
</svg>
