<svg xmlns="http://www.w3.org/2000/svg" width="24" height="24" fill="none">
  <path fill="#1C274C" fill-rule="evenodd" d="M10.286 3.91c0-.568.538-1.16 1.374-1.16.836 0 1.374.592 1.374 1.16 0 .311-.112.581-.294.78a11.18 11.18 0 0 1-.38.385l-.08.08a8.953 8.953 0 0 0-.529.558c-.265.312-.553.723-.658 1.23a4.331 4.331 0 0 0-1.774.722l-7.095 4.992c-.927.652-1.166 1.702-.828 2.582.332.866 1.194 1.511 2.306 1.511H6.01C6 17.113 6 17.527 6 18c0 1.886 0 2.828.587 3.414C7.17 22 8.114 22 10 22h4c1.885 0 2.828 0 3.414-.586C18 20.828 18 19.886 18 18c0-.473 0-.887-.01-1.25h2.307c1.125 0 1.99-.657 2.316-1.534.33-.89.073-1.947-.877-2.587l-7.433-5.01a4.331 4.331 0 0 0-1.614-.66c.05-.081.118-.172.205-.274.126-.149.274-.298.44-.464l.075-.072c.14-.14.295-.292.435-.445.443-.48.69-1.115.69-1.795 0-1.542-1.364-2.659-2.874-2.659S8.786 2.367 8.786 3.91a.75.75 0 0 0 1.5 0Zm7.521 11.34h2.49c.509 0 .806-.277.91-.555.097-.264.047-.582-.31-.822l-7.432-5.01a2.906 2.906 0 0 0-1.655-.483 2.891 2.891 0 0 0-1.628.512l-7.095 4.991c-.346.243-.391.558-.29.819.105.275.403.548.905.548h2.49c.087-.267.212-.483.394-.664C7.17 14 8.114 14 10 14h4c1.885 0 2.828 0 3.414.586.181.181.307.397.393.664Z" clip-rule="evenodd"/>
</svg>
