<svg xmlns="http://www.w3.org/2000/svg" width="24" height="24" fill="none">
  <path fill="#1C274C" fill-rule="evenodd" d="M11.66 5.75c-.836 0-1.374.592-1.374 1.16a.75.75 0 0 1-1.5 0c0-1.543 1.364-2.66 2.874-2.66s2.874 1.117 2.874 2.66c0 .68-.248 1.314-.69 1.794-.14.153-.294.305-.435.445l-.074.072a7.597 7.597 0 0 0-.441.464 2.382 2.382 0 0 0-.205.274 4.33 4.33 0 0 1 1.614.66l7.433 5.01c.95.64 1.207 1.697.877 2.588-.325.876-1.191 1.533-2.316 1.533H3.702c-1.112 0-1.974-.645-2.306-1.51-.338-.88-.1-1.931.828-2.583l7.095-4.992a4.331 4.331 0 0 1 1.774-.722c.105-.507.393-.918.658-1.23.172-.202.36-.391.529-.558l.08-.08c.143-.14.267-.263.38-.386.182-.198.294-.468.294-.78 0-.567-.538-1.159-1.374-1.159Zm1.805 6.112a2.906 2.906 0 0 0-1.655-.482 2.89 2.89 0 0 0-1.628.512l-7.095 4.991c-.346.243-.391.558-.29.819.105.275.403.548.905.548h16.595c.509 0 .806-.277.91-.555.097-.264.047-.582-.31-.822l-7.432-5.01Z" clip-rule="evenodd"/>
</svg>
