<svg xmlns="http://www.w3.org/2000/svg" width="24" height="24" fill="none">
  <g fill="#1C274C">
    <path d="M6 18c0-1.886 0-2.828.586-3.414C7.172 14 8.114 14 10 14h4c1.886 0 2.828 0 3.414.586C18 15.172 18 16.114 18 18c0 1.886 0 2.828-.586 3.414C16.828 22 15.886 22 14 22h-4c-1.886 0-2.828 0-3.414-.586C6 20.828 6 19.886 6 18Z"/>
    <path d="M10.286 3.91c0-.568.538-1.16 1.374-1.16.836 0 1.374.592 1.374 1.16 0 .311-.112.581-.294.78a11.18 11.18 0 0 1-.38.385l-.08.08a8.953 8.953 0 0 0-.529.558c-.265.312-.553.723-.658 1.23a4.331 4.331 0 0 0-1.774.722l-7.095 4.992c-.927.652-1.166 1.702-.828 2.582.332.866 1.194 1.511 2.306 1.511H6.01c.016-.637.061-1.12.184-1.5h-2.49c-.503 0-.801-.273-.907-.548-.1-.261-.054-.576.29-.819l7.096-4.99a2.891 2.891 0 0 1 1.628-.513 2.906 2.906 0 0 1 1.655.482l7.433 5.01c.356.241.406.56.308.823-.103.278-.4.555-.909.555h-2.49c.123.38.168.863.184 1.5h2.306c1.125 0 1.99-.657 2.316-1.534.33-.89.073-1.947-.877-2.587l-7.433-5.01a4.331 4.331 0 0 0-1.614-.66c.05-.081.118-.172.205-.274.126-.149.274-.298.44-.464l.075-.072c.14-.14.295-.292.435-.445.443-.48.69-1.115.69-1.795 0-1.542-1.364-2.659-2.874-2.659S8.786 2.367 8.786 3.91a.75.75 0 0 0 1.5 0Z" opacity=".5"/>
  </g>
</svg>
