<svg xmlns="http://www.w3.org/2000/svg" width="24" height="24" fill="none">
  <g fill="#1C274C" fill-rule="evenodd" clip-rule="evenodd">
    <path d="M10.2 2.277a.75.75 0 0 1 .523.924l-5 18a.75.75 0 0 1-1.445-.402l5-18a.75.75 0 0 1 .923-.522Zm9 0a.75.75 0 0 1 .523.924l-5 18a.75.75 0 1 1-1.445-.402l5-18a.75.75 0 0 1 .923-.522Z"/>
    <path d="M3.25 9A.75.75 0 0 1 4 8.25h18a.75.75 0 0 1 0 1.5H4A.75.75 0 0 1 3.25 9Zm-2 7a.75.75 0 0 1 .75-.75h18a.75.75 0 0 1 0 1.5H2a.75.75 0 0 1-.75-.75Z" opacity=".5"/>
  </g>
</svg>
