<svg xmlns="http://www.w3.org/2000/svg" width="24" height="24" fill="none">
  <path fill="#1C274C" d="m17.543 21.694-.645-.382.645.382Zm.271-.458.646.382-.646-.382Zm-1.628 0-.646.382.646-.382Zm.27.458.646-.382-.645.382Zm-4.266-2.737.693-.287-.693.287Zm2.705 1.539-.013.75.013-.75Zm-1.352-.186-.287.693.287-.693Zm8.267-1.353.693.287-.693-.287Zm-2.705 1.539-.013-.75.013.75Zm1.352-.186.287.693-.287-.693Zm.35-7.942-.393.64.392-.64Zm.825.826.64-.392-.64.392Zm-8.438-.826-.392-.64.392.64Zm-.826.826-.64-.392.64.392Zm3.333 7.411.377-.648-.377.648Zm2.488 1.47.27-.457-1.29-.764-.271.458 1.29.764Zm-2.649-.457.271.458 1.291-.764-.271-.458-1.29.764Zm1.358-.306A.126.126 0 0 1 17 21.25c.027 0 .075.016.102.062l-1.29.764c.531.899 1.845.899 2.377 0l-1.291-.764Zm-.648-8.562h1.5v-1.5h-1.5v1.5Zm5 3.5v.5h1.5v-.5h-1.5Zm-8.5.5v-.5h-1.5v.5h1.5Zm-1.5 0c0 .572 0 1.039.025 1.419.027.387.083.738.222 1.075l1.386-.574c-.05-.123-.09-.293-.111-.603a21.535 21.535 0 0 1-.022-1.317h-1.5Zm3.658 2.996c-.628-.01-.892-.052-1.078-.13l-.574 1.387c.475.196.998.232 1.626.243l.026-1.5Zm-3.41-.502a3.25 3.25 0 0 0 1.758 1.759l.574-1.386a1.75 1.75 0 0 1-.947-.947l-1.386.574Zm9.752-2.494c0 .593 0 1-.022 1.317-.021.31-.06.48-.111.603l1.386.574c.139-.337.195-.688.221-1.075.026-.38.026-.847.026-1.419h-1.5Zm-2.132 4.496c.628-.011 1.15-.047 1.626-.243l-.574-1.386c-.186.077-.45.118-1.078.129l.026 1.5Zm1.999-2.576a1.75 1.75 0 0 1-.947.947l.574 1.386a3.25 3.25 0 0 0 1.759-1.76l-1.386-.573Zm-3.367-5.92c.833 0 1.405 0 1.846.043.429.04.655.115.818.215l.784-1.28c-.438-.268-.921-.377-1.46-.429-.529-.05-1.184-.049-1.988-.049v1.5Zm5 3.5c0-.804 0-1.46-.05-1.987-.05-.54-.16-1.023-.429-1.461l-1.279.784c.1.163.174.39.215.819.042.44.043 1.012.043 1.845h1.5Zm-2.336-3.242c.236.144.434.342.578.578l1.28-.784a3.25 3.25 0 0 0-1.074-1.073l-.784 1.279ZM16.25 11.25c-.804 0-1.46 0-1.987.05-.54.05-1.023.16-1.461.429l.784 1.279c.163-.1.39-.174.819-.215.44-.042 1.012-.043 1.845-.043v-1.5Zm-3.5 5c0-.833 0-1.405.043-1.845.04-.43.115-.656.215-.82l-1.28-.783c-.268.438-.377.921-.429 1.46-.05.529-.049 1.184-.049 1.988h1.5Zm.052-4.521a3.25 3.25 0 0 0-1.073 1.073l1.279.784c.144-.236.342-.434.578-.578l-.784-1.28Zm4.029 9.125c-.098-.165-.197-.335-.297-.472a1.489 1.489 0 0 0-.456-.425l-.754 1.296c-.037-.021-.04-.04-.002.013.048.065.106.162.218.352l1.291-.764Zm-1.95.392c.227.004.346.006.43.016.071.008.053.014.013-.009l.754-1.296a1.495 1.495 0 0 0-.601-.186c-.17-.019-.37-.022-.57-.025l-.025 1.5Zm3.579.372c.112-.19.17-.287.218-.352.039-.053.035-.034-.002-.013l-.754-1.296c-.206.12-.347.276-.456.425-.1.137-.2.306-.297.472l1.29.764Zm.632-1.872c-.198.003-.399.006-.569.025-.184.02-.393.064-.601.186l.754 1.296c-.04.023-.058.017.012.009.085-.01.204-.012.43-.016l-.026-1.5Z"/>
  <path stroke="#1C274C" stroke-linecap="round" stroke-linejoin="round" stroke-width="1.5" d="M10 3 5 21M19 3l-1.806 6.5M22 9H4m-2 7h7"/>
</svg>
