<svg xmlns="http://www.w3.org/2000/svg" width="24" height="24" fill="none">
  <path fill="#1C274C" fill-rule="evenodd" d="M11.955 2.25h.09c1.837 0 3.276 0 4.418.124 1.166.126 2.11.388 2.917.974a5.75 5.75 0 0 1 1.272 1.272c.586.807.848 1.75.974 2.916.124 1.143.124 2.582.124 4.419v2.838a.75.75 0 0 1 1 .707v2a.75.75 0 0 1-1.008.704c-.006.2-.015.386-.03.555-.04.435-.128.836-.343 1.212-.143.25-.323.477-.535.672-.32.295-.692.463-1.103.588-.388.117-.871.213-1.443.325l-.074.015c-.39.077-.744.147-1.04.17-.317.025-.675.008-1.017-.185a1.76 1.76 0 0 1-.524-.45c-.237-.304-.316-.65-.35-.97-.033-.3-.033-.672-.033-1.088v-5.236c0-.354 0-.672.025-.933.027-.279.09-.58.273-.859.151-.23.354-.422.593-.56.295-.17.603-.208.88-.21.257-.002.565.029.901.062l.07.007c.586.057 1.079.106 1.478.185.275.055.536.129.78.246 0-1.762-.006-3.047-.115-4.052-.113-1.038-.328-1.688-.697-2.196a4.25 4.25 0 0 0-.94-.94c-.508-.37-1.158-.585-2.196-.697-1.052-.114-2.41-.115-4.302-.115-1.892 0-3.25.001-4.302.115-1.038.112-1.688.328-2.196.697a4.25 4.25 0 0 0-.94.94c-.37.508-.585 1.158-.697 2.196-.109 1.005-.115 2.29-.115 4.052a3.27 3.27 0 0 1 .78-.246c.4-.079.892-.127 1.478-.185l.07-.007c.336-.033.644-.064.9-.062.278.002.586.04.88.21.24.138.443.33.594.56.183.28.245.58.273.859.025.26.025.579.025.933v5.236c0 .416 0 .787-.032 1.088-.035.32-.114.666-.351.97a1.76 1.76 0 0 1-.524.45c-.342.193-.7.21-1.018.185a9.796 9.796 0 0 1-1.04-.17l-.073-.015c-.572-.112-1.055-.208-1.443-.325-.411-.125-.783-.293-1.103-.588a2.816 2.816 0 0 1-.535-.672c-.215-.376-.302-.777-.343-1.212a8.633 8.633 0 0 1-.03-.555.75.75 0 0 1-1.008-.704v-2a.75.75 0 0 1 1-.707v-2.838c0-1.837 0-3.276.124-4.419.126-1.165.388-2.11.974-2.916A5.75 5.75 0 0 1 4.62 3.348c.807-.586 1.75-.848 2.916-.974 1.143-.124 2.582-.124 4.419-.124ZM3.75 17.193c0 .652 0 1.09.032 1.427.03.326.084.49.15.606.069.118.153.224.25.314.092.085.228.166.522.255.308.094.717.175 1.333.297.442.087.71.138.906.154a.678.678 0 0 0 .171-.001.261.261 0 0 0 .07-.062.684.684 0 0 0 .042-.207c.023-.211.024-.5.024-.966v-5.165c0-.398 0-.641-.018-.82a.65.65 0 0 0-.034-.182.268.268 0 0 0-.083-.08.648.648 0 0 0-.147-.013 8.557 8.557 0 0 0-.777.058c-.631.062-1.05.104-1.37.168-.305.06-.447.128-.542.2-.14.105-.26.24-.35.4-.064.114-.118.278-.147.609-.031.341-.032.785-.032 1.443v1.565Zm16.5-1.565c0-.658 0-1.102-.032-1.443-.03-.33-.083-.495-.147-.61a1.324 1.324 0 0 0-.35-.4c-.095-.071-.237-.139-.542-.2-.32-.063-.739-.105-1.37-.167a8.56 8.56 0 0 0-.777-.058.648.648 0 0 0-.147.012.268.268 0 0 0-.083.081.647.647 0 0 0-.034.181c-.017.18-.018.423-.018.82v5.166c0 .466.001.755.024.965a.684.684 0 0 0 .042.208.27.27 0 0 0 .07.062c.016.003.064.01.17 0 .198-.015.465-.066.907-.153.616-.122 1.025-.203 1.333-.297.294-.089.43-.17.522-.255.097-.09.181-.196.25-.314.066-.117.12-.28.15-.606.031-.338.032-.775.032-1.427v-1.565Z" clip-rule="evenodd"/>
</svg>
