<svg xmlns="http://www.w3.org/2000/svg" width="24" height="24" fill="none">
  <path fill="#1C274C" d="m8.962 18.91.464-.588-.464.589ZM12 5.5l-.54.52a.75.75 0 0 0 1.08 0L12 5.5Zm3.038 13.41.465.59-.465-.59Zm-8.037-2.49a.75.75 0 0 0-.954 1.16l.954-1.16Zm-4.659-3.009a.75.75 0 1 0 1.316-.72l-1.316.72Zm.408-4.274c0-2.15 1.215-3.954 2.874-4.713 1.612-.737 3.778-.541 5.836 1.597l1.08-1.04C10.1 2.444 7.264 2.025 5 3.06 2.786 4.073 1.25 6.425 1.25 9.137h1.5ZM8.497 19.5c.513.404 1.063.834 1.62 1.16.557.325 1.193.59 1.883.59v-1.5c-.31 0-.674-.12-1.126-.385-.453-.264-.922-.628-1.448-1.043L8.497 19.5Zm7.006 0c1.426-1.125 3.25-2.413 4.68-4.024 1.457-1.64 2.567-3.673 2.567-6.339h-1.5c0 2.197-.9 3.891-2.188 5.343-1.315 1.48-2.972 2.647-4.488 3.842l.929 1.178ZM22.75 9.137c0-2.712-1.535-5.064-3.75-6.077-2.264-1.035-5.098-.616-7.54 1.92l1.08 1.04c2.058-2.137 4.224-2.333 5.836-1.596 1.659.759 2.874 2.562 2.874 4.713h1.5Zm-8.176 9.185c-.526.415-.995.779-1.448 1.043-.452.264-.816.385-1.126.385v1.5c.69 0 1.326-.265 1.883-.59.558-.326 1.107-.756 1.62-1.16l-.929-1.178Zm-5.148 0c-.796-.627-1.605-1.226-2.425-1.901l-.954 1.158c.83.683 1.708 1.335 2.45 1.92l.93-1.177Zm-5.768-5.63a7.252 7.252 0 0 1-.908-3.555h-1.5c0 1.638.42 3.046 1.092 4.274l1.316-.72Z"/>
</svg>
