<svg xmlns="http://www.w3.org/2000/svg" width="24" height="24" fill="none">
  <g fill="#1C274C">
    <path d="M10.093 10.746c.09-.128.164-.234.23-.325.056.098.119.211.194.348l1.71 3.11c.166.302.33.598.493.813.175.23.482.545.975.555.493.009.813-.294.996-.518.172-.208.345-.498.523-.794l.055-.092c.221-.368.36-.598.483-.765.113-.153.179-.203.228-.23.049-.028.125-.059.315-.077.206-.02.474-.02.904-.02H18a.75.75 0 1 0 0-1.5h-.834c-.387 0-.73 0-1.016.027a2.23 2.23 0 0 0-.91.264 2.223 2.223 0 0 0-.694.644c-.171.232-.347.525-.546.857l-.048.08c-.087.144-.159.264-.224.368l-.21-.377-1.709-3.108c-.154-.28-.307-.56-.463-.764-.17-.224-.462-.52-.93-.545-.467-.026-.789.237-.982.441-.177.187-.36.448-.543.71l-.31.442c-.227.325-.37.527-.493.673-.113.134-.176.178-.223.202-.046.025-.118.051-.293.067-.19.017-.438.018-.834.018H6a.75.75 0 0 0 0 1.5h.768c.357 0 .674 0 .94-.024.29-.027.571-.085.85-.23a2.2 2.2 0 0 0 .676-.565c.173-.204.354-.463.559-.756l.3-.429Z"/>
    <path fill-rule="evenodd" d="M22.75 9.26c0-3.18-1.492-5.654-3.774-6.603-2.13-.886-4.702-.347-6.976 1.78C9.726 2.31 7.154 1.77 5.024 2.657 2.742 3.607 1.25 6.079 1.25 9.26c0 2.126 1.13 4.22 2.536 6.023 1.421 1.82 3.21 3.452 4.702 4.669l.134.11c1.2.98 2.068 1.688 3.378 1.688s2.178-.708 3.377-1.688l.135-.11c1.493-1.217 3.28-2.848 4.702-4.67 1.407-1.803 2.536-3.896 2.536-6.022Zm-10.2-3.25c2.097-2.255 4.277-2.622 5.85-1.968 1.592.662 2.85 2.488 2.85 5.218 0 1.622-.88 3.385-2.219 5.1-1.324 1.697-3.017 3.247-4.467 4.43-1.393 1.136-1.842 1.46-2.564 1.46s-1.171-.325-2.564-1.46c-1.45-1.183-3.143-2.733-4.467-4.43-1.339-1.715-2.219-3.478-2.219-5.1 0-2.73 1.258-4.555 2.85-5.218 1.573-.654 3.753-.287 5.85 1.968a.75.75 0 0 0 1.1 0Z" clip-rule="evenodd"/>
  </g>
</svg>
