<svg xmlns="http://www.w3.org/2000/svg" width="24" height="24" fill="none">
  <path stroke="#1C274C" stroke-linecap="round" stroke-width="1.5" d="M12 2v2m0 16v2M2 12h2m16 0h2M6 18l.343-.343M17.657 6.343 18 6m0 12-.343-.343M6.343 6.343 6 6"/>
  <path fill="#1C274C" d="m10.785 15.354-.47.585.47-.585ZM7.25 11.38a.75.75 0 0 0 1.5 0h-1.5ZM12 9.9l-.545.516a.75.75 0 0 0 1.09 0L12 9.9Zm1.215 5.453.47.585-.47-.585Zm-2.924-1.352a.75.75 0 0 0-.963 1.15l.963-1.15ZM8.75 11.38c0-.715.397-1.284.891-1.514.444-.206 1.105-.199 1.814.55l1.09-1.03c-1.091-1.153-2.43-1.394-3.536-.88-1.056.49-1.759 1.611-1.759 2.874h1.5Zm1.566 4.56c.2.16.444.355.7.507.253.15.59.303.984.303v-1.5c-.007 0-.069-.004-.219-.093a4.977 4.977 0 0 1-.527-.388l-.938 1.17Zm3.368 0c.545-.437 1.323-.998 1.93-1.692.632-.723 1.136-1.65 1.136-2.868h-1.5c0 .758-.3 1.348-.766 1.881-.492.563-1.105 1-1.738 1.508l.938 1.17Zm3.066-4.56c0-1.263-.703-2.384-1.759-2.874-1.106-.514-2.445-.273-3.536.88l1.09 1.03c.709-.749 1.37-.756 1.814-.55.494.23.891.799.891 1.514h1.5Zm-4.004 3.389c-.214.172-.378.3-.527.388-.15.089-.212.093-.219.093v1.5c.393 0 .731-.153.985-.303.255-.152.499-.347.7-.508l-.939-1.17Zm-1.492 0c-.335-.268-.638-.495-.963-.767l-.963 1.15c.335.28.707.562.988.787l.938-1.17Z"/>
</svg>
