<svg xmlns="http://www.w3.org/2000/svg" width="24" height="24" fill="none">
  <path fill="#1C274C" fill-rule="evenodd" d="M22.75 9.26c0-3.18-1.492-5.654-3.774-6.603-2.13-.886-4.702-.347-6.976 1.78C9.726 2.31 7.154 1.77 5.024 2.657 2.742 3.607 1.25 6.079 1.25 9.26c0 2.126 1.13 4.22 2.536 6.023 1.421 1.82 3.21 3.452 4.702 4.669l.134.11c1.2.98 2.068 1.688 3.378 1.688s2.178-.708 3.377-1.688l.135-.11c1.493-1.217 3.28-2.848 4.702-4.67 1.407-1.803 2.536-3.896 2.536-6.022Zm-10.2-3.25c2.097-2.255 4.277-2.622 5.85-1.968 1.592.662 2.85 2.488 2.85 5.218 0 .645-.14 1.313-.391 1.99h-2.335c-.546 0-1.03-.002-1.471.195-.441.196-.765.557-1.13.963l-.075.084-1.029 1.143c-.076.086-.139.155-.194.214a18.341 18.341 0 0 1-.185-.221l-3.55-4.305c-.14-.17-.289-.35-.435-.485a1.24 1.24 0 0 0-.773-.353 1.24 1.24 0 0 0-.81.258c-.16.116-.33.278-.49.43l-1.53 1.456c-.471.45-.57.526-.672.568-.103.04-.228.053-.879.053h-2.16c-.252-.678-.391-1.345-.391-1.99 0-2.73 1.258-4.555 2.85-5.218 1.573-.654 3.753-.287 5.85 1.968a.75.75 0 0 0 1.1 0Zm-8.685 6.74c.315.537.687 1.076 1.104 1.61 1.324 1.697 3.017 3.247 4.467 4.43 1.393 1.136 1.842 1.46 2.564 1.46s1.171-.325 2.564-1.46c1.45-1.183 3.143-2.733 4.467-4.43a14.83 14.83 0 0 0 1.104-1.61h-1.499c-.724 0-.861.015-.973.065-.112.05-.215.142-.7.68l-1.054 1.172a5.227 5.227 0 0 1-.486.496c-.185.155-.46.33-.833.321-.373-.008-.641-.194-.82-.357a5.22 5.22 0 0 1-.463-.515l-3.552-4.306a17.265 17.265 0 0 0-.171-.205c-.055.05-.118.11-.194.183l-1.577 1.501c-.356.34-.671.642-1.077.804-.406.163-.843.162-1.335.161H3.865Z" clip-rule="evenodd"/>
</svg>
