<svg xmlns="http://www.w3.org/2000/svg" width="24" height="24" fill="none">
  <path fill="#1C274C" fill-rule="evenodd" d="M5.636 4.155c-1.654.79-2.886 2.684-2.886 4.964 0 4.227 2.999 6.652 5.837 8.948.287.231.572.462.852.693.526.433.995.814 1.447 1.09.453.277.813.4 1.114.4.324 0 .689-.139 1.127-.409-1.362-1.047-2.877-2.5-2.877-4.782 0-1.573.937-2.927 2.273-3.508 1.21-.526 2.668-.39 3.977.613.814-.624 1.692-.918 2.547-.914a3.633 3.633 0 0 1 1.78.476 7.978 7.978 0 0 0 .423-2.607c0-2.28-1.232-4.174-2.886-4.964-1.596-.763-3.75-.57-5.812 1.67a.75.75 0 0 1-1.104 0c-2.062-2.24-4.216-2.433-5.812-1.67Zm16.386 8.644a3.85 3.85 0 0 1 .728 2.26c0 1.518-.67 2.667-1.51 3.566-.666.713-1.484 1.311-2.178 1.819-.154.113-.302.221-.441.325-.279.21-.6.449-.93.632-.33.183-.735.349-1.191.349-.456 0-.861-.166-1.192-.35a8.192 8.192 0 0 1-.901-.61c-.706.507-1.523.96-2.407.96-.699 0-1.34-.28-1.896-.62-.557-.34-1.107-.79-1.62-1.213a82.673 82.673 0 0 0-.851-.69C4.851 16.996 1.25 14.108 1.25 9.12c0-2.805 1.518-5.256 3.74-6.318 2.108-1.008 4.702-.7 7.01 1.452 2.307-2.151 4.902-2.46 7.01-1.452 2.222 1.062 3.74 3.513 3.74 6.318 0 1.37-.271 2.588-.728 3.68Zm-8.901.128a2.317 2.317 0 0 0-1.371 2.132c0 1.883 1.47 2.999 3.095 4.19.146.106.291.213.434.32.292.219.532.395.758.52.225.125.369.16.463.16.094 0 .238-.035.463-.16.226-.125.466-.301.758-.52.167-.125.334-.248.501-.37.688-.504 1.362-.999 1.922-1.598.67-.717 1.106-1.517 1.106-2.542 0-.636-.248-1.208-.645-1.624a2.176 2.176 0 0 0-1.565-.685c-.595-.003-1.304.242-2.013.942a.75.75 0 0 1-1.054 0c-1.042-1.03-2.096-1.094-2.852-.765Z" clip-rule="evenodd"/>
</svg>
