<svg xmlns="http://www.w3.org/2000/svg" width="24" height="24" fill="none">
  <path stroke="#1C274C" stroke-linecap="round" stroke-width="1.5" d="M21 12h-2.364c-.658 0-.987 0-1.278.13-.291.13-.512.374-.952.863l-1.03 1.144c-.36.401-.541.602-.77.597-.23-.005-.401-.213-.744-.63l-3.529-4.276c-.32-.388-.48-.582-.697-.595-.217-.013-.4.16-.764.507L7.37 11.172c-.43.409-.644.613-.912.72C6.19 12 5.893 12 5.3 12H3"/>
  <path fill="#1C274C" d="m8.962 19.37.474-.58-.474.58ZM12 5.5l-.55.51a.75.75 0 0 0 1.1 0L12 5.5Zm3.038 13.872.474.581-.474-.581Zm-5.602-.581c-1.45-1.183-3.143-2.733-4.467-4.43-1.339-1.715-2.219-3.478-2.219-5.1h-1.5c0 2.126 1.13 4.22 2.536 6.023 1.421 1.82 3.21 3.452 4.702 4.669l.948-1.163ZM2.75 9.26c0-2.73 1.258-4.555 2.85-5.218 1.573-.654 3.753-.287 5.85 1.968l1.1-1.022c-2.403-2.581-5.223-3.289-7.526-2.331-2.282.95-3.774 3.422-3.774 6.603h1.5Zm12.762 10.692c1.493-1.217 3.28-2.848 4.702-4.67 1.407-1.803 2.536-3.896 2.536-6.022h-1.5c0 1.622-.88 3.385-2.219 5.1-1.324 1.697-3.017 3.247-4.467 4.43l.948 1.162ZM22.75 9.26c0-3.18-1.492-5.654-3.774-6.603-2.303-.958-5.123-.25-7.525 2.33l1.098 1.023c2.098-2.255 4.278-2.622 5.85-1.968 1.593.662 2.851 2.488 2.851 5.218h1.5ZM8.488 19.952C9.758 20.988 10.64 21.75 12 21.75v-1.5c-.722 0-1.171-.325-2.564-1.46l-.948 1.162Zm6.076-1.163C13.171 19.925 12.722 20.25 12 20.25v1.5c1.359 0 2.241-.762 3.512-1.798l-.948-1.163Z"/>
</svg>
