<svg xmlns="http://www.w3.org/2000/svg" width="24" height="24" fill="none">
  <g fill="#1C274C" fill-rule="evenodd" clip-rule="evenodd">
    <path d="M11.943 1.25h.114c2.309 0 4.118 0 5.53.19 1.444.194 2.584.6 3.479 1.494.895.895 1.3 2.035 1.494 3.48.19 1.411.19 3.22.19 5.529v.114c0 2.309 0 4.118-.19 5.53-.194 1.444-.6 2.584-1.494 3.479-.895.895-2.035 1.3-3.48 1.494-1.411.19-3.22.19-5.529.19h-.114c-2.309 0-4.118 0-5.53-.19-1.444-.194-2.584-.6-3.479-1.494-.895-.895-1.3-2.035-1.494-3.48-.19-1.411-.19-3.22-.19-5.529v-.114c0-2.309 0-4.118.19-5.53.194-1.444.6-2.584 1.494-3.479.895-.895 2.035-1.3 3.48-1.494 1.411-.19 3.22-.19 5.529-.19Zm-5.33 1.676c-1.278.172-2.049.5-2.618 1.069-.57.57-.897 1.34-1.069 2.619-.174 1.3-.176 3.008-.176 5.386s.002 4.086.176 5.386c.172 1.279.5 2.05 1.069 2.62.57.569 1.34.896 2.619 1.068 1.3.174 3.008.176 5.386.176s4.086-.002 5.386-.176c1.279-.172 2.05-.5 2.62-1.069.569-.57.896-1.34 1.068-2.619.174-1.3.176-3.008.176-5.386s-.002-4.086-.176-5.386c-.172-1.279-.5-2.05-1.069-2.62-.57-.569-1.34-.896-2.619-1.068-1.3-.174-3.008-.176-5.386-.176s-4.086.002-5.386.176Z"/>
    <path d="M16.047 7.25h.128c.385 0 .665 0 .91.038.973.153 1.879.782 2.124 1.756.06.24.06.508.06.792v3.947c0 .284 0 .552-.06.792a2.066 2.066 0 0 1-.19.484l.446.353a.75.75 0 1 1-.93 1.176l-.64-.505c-.255.12-.53.204-.81.248-.245.038-.525.038-.91.038h-.128c-.385 0-.664 0-.91-.038-.972-.153-1.879-.781-2.124-1.756-.06-.24-.06-.508-.06-.792V9.836c0-.284 0-.552.06-.792.245-.974 1.152-1.603 2.124-1.756.246-.038.525-.038.91-.038Zm1.719 6.817-.227-.179a.75.75 0 0 0-1.105.98l-.323.001c-.476 0-.627-.002-.74-.02-.556-.088-.844-.405-.903-.64-.009-.034-.014-.096-.014-.495v-3.81c0-.398.005-.46.014-.495.06-.234.347-.551.902-.639.114-.018.265-.02.741-.02s.627.002.74.02c.556.088.844.405.903.64.009.034.014.096.014.495v3.81c0 .171 0 .28-.002.352ZM6 7.25a.75.75 0 0 1 .75.75v3.25h3.315V8a.75.75 0 0 1 1.5 0v7.62a.75.75 0 0 1-1.5 0v-2.87H6.75v2.87a.75.75 0 0 1-1.5 0V8A.75.75 0 0 1 6 7.25Z"/>
  </g>
</svg>
