<svg xmlns="http://www.w3.org/2000/svg" width="24" height="24" fill="none">
  <path fill="#1C274C" fill-rule="evenodd" d="M2 12c0-4.714 0-7.071 1.464-8.536C4.93 2 7.286 2 12 2c4.714 0 7.071 0 8.535 1.464C22 4.93 22 7.286 22 12c0 4.714 0 7.071-1.465 8.535C19.072 22 16.714 22 12 22s-7.071 0-8.536-1.465C2 19.072 2 16.714 2 12Zm4.75-4a.75.75 0 0 0-1.5 0v7.619a.75.75 0 1 0 1.5 0V12.75h3.315v2.869a.75.75 0 1 0 1.5 0V8a.75.75 0 0 0-1.5 0v3.25H6.75V8Zm9.297-.75h.128c.385 0 .665 0 .91.038.973.153 1.879.782 2.124 1.756.06.24.06.508.06.792v3.947c0 .284 0 .552-.06.792a2.066 2.066 0 0 1-.19.484l.446.353a.75.75 0 0 1-.93 1.176l-.64-.505c-.255.12-.53.204-.81.248-.245.038-.525.038-.91.038h-.128c-.385 0-.664 0-.91-.038-.972-.153-1.879-.781-2.124-1.756-.06-.24-.06-.508-.06-.792V9.836c0-.284 0-.552.06-.792.245-.974 1.152-1.603 2.124-1.756.246-.038.525-.038.91-.038Zm1.719 6.817-.227-.179a.75.75 0 0 0-1.105.98l-.323.001c-.476 0-.627-.002-.74-.02-.556-.088-.844-.405-.903-.64-.009-.034-.014-.096-.014-.495v-3.81c0-.398.005-.46.014-.495.06-.234.347-.551.902-.639.114-.018.265-.02.741-.02s.627.002.74.02c.556.088.844.405.903.64.009.034.014.096.014.495v3.81c0 .171 0 .28-.002.352Z" clip-rule="evenodd"/>
</svg>
