<svg xmlns="http://www.w3.org/2000/svg" width="24" height="24" fill="none">
  <path fill="#1C274C" fill-rule="evenodd" d="M11.5 3.75a1.75 1.75 0 1 0 0 3.5 1.75 1.75 0 0 0 0-3.5ZM8.25 5.5a3.25 3.25 0 1 1 6.5 0 3.25 3.25 0 0 1-6.5 0ZM19 6.25a.75.75 0 0 1 .75.75v14a.75.75 0 1 1-1.5 0V10.994a5.88 5.88 0 0 1-5.636.15 1.098 1.098 0 0 0-1.658.832l-.068.686a1.535 1.535 0 0 0 .714 1.455l.333.208a6.586 6.586 0 0 1 3.07 5.001l.142 1.607a.75.75 0 1 1-1.494.134l-.143-1.608a5.086 5.086 0 0 0-2.37-3.862l-.333-.208a3.036 3.036 0 0 1-1.412-2.877l.069-.686c.188-1.885 2.264-2.938 3.894-1.986a4.378 4.378 0 0 0 4.739-.563l.153-.128V7a.75.75 0 0 1 .75-.75Zm-9.81 9.525a.75.75 0 0 1 .535.916L9 16.5l.725.19v.003l-.001.005-.005.016-.016.058a15.813 15.813 0 0 1-.28.893c-.18.525-.455 1.223-.795 1.745-.357.548-.918 1.101-1.35 1.493a15.882 15.882 0 0 1-.751.637l-.05.039-.014.01-.004.004S6.456 21.595 6 21l.458.594a.75.75 0 0 1-.916-1.188l.003-.002.01-.008.04-.032.157-.126c.133-.11.317-.265.518-.447.417-.377.856-.823 1.102-1.2.234-.36.46-.912.635-1.417a14.274 14.274 0 0 0 .25-.803l.014-.048.003-.011v-.003a.75.75 0 0 1 .917-.534Z" clip-rule="evenodd"/>
</svg>
