<svg xmlns="http://www.w3.org/2000/svg" width="24" height="24" fill="none">
  <g stroke="#1C274C" stroke-width="1.5">
    <path d="M2.364 12.958c-.38-2.637-.57-3.956-.029-5.083.54-1.127 1.691-1.813 3.992-3.183l1.385-.825C9.8 2.622 10.846 2 12 2c1.154 0 2.199.622 4.288 1.867l1.385.825c2.3 1.37 3.451 2.056 3.992 3.183.54 1.127.35 2.446-.03 5.083l-.278 1.937c-.487 3.388-.731 5.081-1.906 6.093C18.276 22 16.553 22 13.106 22h-2.212c-3.447 0-5.17 0-6.345-1.012-1.175-1.012-1.419-2.705-1.906-6.093l-.279-1.937Z" opacity=".5"/>
    <path stroke-linecap="round" d="M6 11.682c3.314-3.576 8.686-3.576 12 0M8 13.841c2.21-2.384 5.79-2.384 8 0M10 16c1.105-1.192 2.896-1.192 4 0"/>
  </g>
</svg>
