<svg xmlns="http://www.w3.org/2000/svg" width="24" height="24" fill="none">
  <g fill="#1C274C">
    <path d="M10.894 22h2.212c3.447 0 5.17 0 6.345-1.012 1.175-1.012 1.419-2.705 1.906-6.093l.279-1.937c.38-2.637.57-3.956.029-5.083-.54-1.127-1.691-1.813-3.992-3.183l-1.385-.825C14.2 2.622 13.154 2 12 2c-1.154 0-2.199.622-4.288 1.867l-1.385.825c-2.3 1.37-3.451 2.056-3.992 3.183-.54 1.127-.35 2.446.03 5.083l.278 1.937c.487 3.388.731 5.081 1.906 6.093C5.724 22 7.447 22 10.894 22Z" opacity=".5"/>
    <path d="M9.447 15.397a.75.75 0 0 0-.894 1.205A5.766 5.766 0 0 0 12 17.75a5.766 5.766 0 0 0 3.447-1.148.75.75 0 0 0-.894-1.205A4.266 4.266 0 0 1 12 16.25a4.266 4.266 0 0 1-2.553-.853Z"/>
  </g>
</svg>
