<svg xmlns="http://www.w3.org/2000/svg" width="24" height="24" fill="none">
  <path fill="#1C274C" fill-rule="evenodd" d="M10.948 1.25h2.104c.899 0 1.648 0 2.242.08.628.084 1.195.27 1.65.725.456.456.642 1.023.726 1.65.023.17.04.351.05.545.59 0 1.088.004 1.499.046.473.048.913.153 1.309.417.3.201.558.459.759.76.264.395.369.835.417 1.308.046.452.046 1.011.046 1.68V21.25H22a.75.75 0 0 1 0 1.5H2a.75.75 0 0 1 0-1.5h.25V8.462c0-.67 0-1.229.046-1.681.048-.473.153-.913.417-1.309.201-.3.459-.558.76-.759.395-.264.835-.369 1.308-.417.41-.042.909-.046 1.498-.046.012-.194.028-.375.05-.544.085-.628.271-1.195.726-1.65.456-.456 1.023-.642 1.65-.726.595-.08 1.345-.08 2.243-.08ZM6.25 5.75c-.583 0-.994.005-1.317.038-.355.036-.519.1-.627.173a1.25 1.25 0 0 0-.345.345c-.073.108-.137.272-.173.627-.037.367-.038.85-.038 1.567v12.75h2.5v-6.5H5.5a.75.75 0 0 1 0-1.5h.75v-1.5H5.5a.75.75 0 0 1 0-1.5h.75v-1.5H5.5a.75.75 0 1 1 0-1.5h.75v-1.5Zm1.5 15.5h3.5V19a.75.75 0 0 1 1.5 0v2.25h3.5V6c0-.964-.002-1.612-.067-2.095-.062-.461-.169-.659-.3-.789-.13-.13-.327-.237-.788-.3-.483-.064-1.131-.066-2.095-.066h-2c-.964 0-1.612.002-2.095.067-.461.062-.659.169-.789.3-.13.13-.237.327-.3.788C7.753 4.388 7.75 5.036 7.75 6v15.25Zm10-12.5h.75a.75.75 0 0 0 0-1.5h-.75v-1.5c.583 0 .994.005 1.317.038.355.036.519.1.628.173.136.09.253.208.344.345.073.108.137.272.173.627.037.367.038.85.038 1.567v12.75h-2.5v-6.5h.75a.75.75 0 0 0 0-1.5h-.75v-1.5h.75a.75.75 0 0 0 0-1.5h-.75v-1.5ZM12 4.25a.75.75 0 0 1 .75.75v1.25H14a.75.75 0 0 1 0 1.5h-1.25V9a.75.75 0 0 1-1.5 0V7.75H10a.75.75 0 1 1 0-1.5h1.25V5a.75.75 0 0 1 .75-.75ZM9.25 12a.75.75 0 0 1 .75-.75h4a.75.75 0 0 1 0 1.5h-4a.75.75 0 0 1-.75-.75Zm0 3a.75.75 0 0 1 .75-.75h4a.75.75 0 0 1 0 1.5h-4a.75.75 0 0 1-.75-.75Z" clip-rule="evenodd"/>
</svg>
