<svg xmlns="http://www.w3.org/2000/svg" width="24" height="24" fill="none">
  <g fill="#1C274C">
    <path fill-rule="evenodd" d="M10.75 2h2c1.886 0 2.828 0 3.414.586.586.586.586 1.528.586 3.414v15.25h5a.75.75 0 0 1 0 1.5h-20a.75.75 0 0 1 0-1.5h5V6c0-1.886 0-2.828.586-3.414C7.922 2 8.864 2 10.75 2Zm1 2.25a.75.75 0 0 1 .75.75v1.25h1.25a.75.75 0 0 1 0 1.5H12.5V9A.75.75 0 0 1 11 9V7.75H9.75a.75.75 0 0 1 0-1.5H11V5a.75.75 0 0 1 .75-.75ZM9 12a.75.75 0 0 1 .75-.75h4a.75.75 0 0 1 0 1.5h-4A.75.75 0 0 1 9 12Zm0 3a.75.75 0 0 1 .75-.75h4a.75.75 0 0 1 0 1.5h-4A.75.75 0 0 1 9 15Zm2.75 3.25a.75.75 0 0 1 .75.75v2.25H11V19a.75.75 0 0 1 .75-.75Z" clip-rule="evenodd"/>
    <path d="M20.913 5.889c.337.504.337 1.206.337 2.611v12.75h.5a.75.75 0 0 1 0 1.5h-20a.75.75 0 1 1 0-1.5h.5V8.5c0-1.405 0-2.107.337-2.611a2 2 0 0 1 .552-.552c.441-.295 2.537-.332 3.618-.336-.004.291-.004.595-.004.91V7.25H4.25a.75.75 0 1 0 0 1.5h2.503v1.5H4.25a.75.75 0 0 0 0 1.5h2.503v1.5H4.25a.75.75 0 0 0 0 1.5h2.503v6.5h10v-6.5h2.497a.75.75 0 1 0 0-1.5h-2.497v-1.5h2.497a.75.75 0 1 0 0-1.5h-2.497v-1.5h2.497a.75.75 0 0 0 0-1.5h-2.497V5.91c0-.314 0-.618-.004-.91 1.081.005 3.17.042 3.612.337a2 2 0 0 1 .552.552Z" opacity=".5"/>
  </g>
</svg>
