<svg xmlns="http://www.w3.org/2000/svg" width="24" height="24" fill="none">
  <g fill="#1C274C">
    <path fill-rule="evenodd" d="M12 10.75a.75.75 0 0 0 .53-.22l3-3a.75.75 0 0 0-1.06-1.06l-1.72 1.72V2a.75.75 0 0 0-1.5 0v6.19L9.53 6.47a.75.75 0 0 0-1.06 1.06l3 3c.14.141.331.22.53.22Z" clip-rule="evenodd"/>
    <path d="M3.464 20.535C4.93 22 7.286 22 12 22c4.714 0 7.071 0 8.535-1.465 1.271-1.27 1.44-3.213 1.462-6.785H18.84c-.974 0-1.229.016-1.442.114-.214.099-.392.282-1.026 1.02l-.693.81c-.502.586-.9 1.051-1.45 1.304-.55.253-1.162.253-1.934.252h-.59c-.772 0-1.384.002-1.934-.252-.55-.253-.948-.718-1.45-1.305l-.693-.808c-.634-.74-.812-.922-1.026-1.02-.213-.099-.468-.115-1.442-.115H2.003c.023 3.572.19 5.515 1.461 6.785Z"/>
    <path d="M22 12c0-4.714 0-7.071-1.465-8.536-1.21-1.21-3.03-1.42-6.285-1.456v2.87a2.25 2.25 0 0 1 2.341 3.713l-3 3a2.25 2.25 0 0 1-3.182 0l-3-3A2.25 2.25 0 0 1 9.75 4.878v-2.87c-3.256.036-5.075.246-6.286 1.456C2 4.93 2 7.286 2 12v.25h3.295c.772 0 1.384-.002 1.934.252.55.253.948.718 1.45 1.305l.693.808c.634.74.812.922 1.026 1.02.213.099.468.115 1.442.115h.32c.974 0 1.229-.016 1.442-.114.214-.099.392-.282 1.026-1.02l.693-.81c.502-.586.9-1.051 1.45-1.304.55-.254 1.162-.253 1.934-.252H22V12Z"/>
  </g>
</svg>
