<svg xmlns="http://www.w3.org/2000/svg" width="24" height="24" fill="none">
  <g fill="#1C274C">
    <path d="M22 5a3 3 0 1 1-6 0 3 3 0 0 1 6 0Z"/>
    <path d="M15.612 2.038C14.59 2 13.399 2 12 2 7.286 2 4.929 2 3.464 3.464 2 4.93 2 7.286 2 12c0 4.714 0 7.071 1.464 8.535C4.93 22 7.286 22 12 22c4.714 0 7.071 0 8.535-1.465C22 19.072 22 16.714 22 12c0-1.399 0-2.59-.038-3.612a4.5 4.5 0 0 1-6.35-6.35Z" opacity=".5"/>
    <path d="M3.465 20.535C4.929 22 7.286 22 12 22c4.715 0 7.072 0 8.536-1.465C21.893 19.178 21.993 17.055 22 13h-3.16c-.905 0-1.358 0-1.755.183-.398.183-.693.527-1.282 1.214l-.605.706c-.59.687-.884 1.031-1.282 1.214-.398.183-.85.183-1.755.183h-.321c-.905 0-1.358 0-1.756-.183-.397-.183-.692-.527-1.281-1.214l-.606-.706c-.589-.687-.883-1.031-1.281-1.214C6.518 13 6.066 13 5.16 13H2c.007 4.055.107 6.178 1.465 7.535Z"/>
  </g>
</svg>
