<svg xmlns="http://www.w3.org/2000/svg" width="24" height="24" fill="none">
  <path fill="#1C274C" fill-rule="evenodd" d="M2 12c0-4.714 0-7.071 1.464-8.536C4.93 2 7.286 2 12 2c4.714 0 7.071 0 8.535 1.464C22 4.93 22 7.286 22 12c0 4.714 0 7.071-1.465 8.535C19.072 22 16.714 22 12 22s-7.071 0-8.536-1.465C2 19.072 2 16.714 2 12Zm3-3.5v-1A1.5 1.5 0 0 1 6.5 6h11A1.5 1.5 0 0 1 19 7.5v1a2.489 2.489 0 0 0-1.5-.5h-11c-.563 0-1.082.186-1.5.5Zm0 2v1a2.49 2.49 0 0 1 1.5-.5h11a2.49 2.49 0 0 1 1.5.5v-1A1.5 1.5 0 0 0 17.5 9h-11A1.5 1.5 0 0 0 5 10.5Zm15 3.75a.75.75 0 1 1 0 1.5h-2.343c-.879 0-1.11.013-1.307.095-.198.082-.37.236-.991.857l-.305.305c-.432.432-.773.774-1.207.98a2.808 2.808 0 0 1-.248.102c-.453.162-.936.162-1.547.161h-.218c-.646 0-1.157.001-1.63-.178a2.74 2.74 0 0 1-.26-.114c-.452-.227-.797-.603-1.235-1.079l-.11-.121c-.59-.64-.753-.799-.944-.889-.02-.01-.04-.018-.061-.027-.195-.079-.424-.092-1.293-.092H4a.75.75 0 0 1 0-1.5h1.02v-1A1.5 1.5 0 0 1 6.5 12h11a1.5 1.5 0 0 1 1.48 1.25v1H20Z" clip-rule="evenodd"/>
</svg>
