<svg xmlns="http://www.w3.org/2000/svg" width="24" height="24" fill="none">
  <g stroke="#1C274C" stroke-width="1.5">
    <path d="M2 12c0-4.714 0-7.071 1.464-8.536C4.93 2 7.286 2 12 2c4.714 0 7.071 0 8.535 1.464C22 4.93 22 7.286 22 12c0 4.714 0 7.071-1.465 8.535C19.072 22 16.714 22 12 22s-7.071 0-8.536-1.465C2 19.072 2 16.714 2 12Z"/>
    <path stroke-linecap="round" d="M2 13h3.16c.905 0 1.358 0 1.756.183.398.183.692.527 1.281 1.214l.606.706c.589.687.883 1.031 1.281 1.214.398.183.85.183 1.756.183h.32c.905 0 1.358 0 1.756-.183.398-.183.692-.527 1.281-1.214l.606-.706c.589-.687.883-1.031 1.281-1.214.398-.183.85-.183 1.756-.183H22M8 7h8m-6 3.5h4" opacity=".5"/>
  </g>
</svg>
