<svg xmlns="http://www.w3.org/2000/svg" width="24" height="24" fill="none">
  <g stroke="#1C274C" stroke-width="1.5">
    <path stroke-linecap="round" d="M14 2.005C13.385 2 12.72 2 12 2 7.286 2 4.929 2 3.464 3.464 2 4.93 2 7.286 2 12c0 4.714 0 7.071 1.464 8.535C4.93 22 7.286 22 12 22c4.714 0 7.071 0 8.535-1.465C22 19.072 22 16.714 22 12c0-.72 0-1.385-.005-2"/>
    <circle cx="19" cy="5" r="3"/>
    <path stroke-linecap="round" d="M2 13h3.16c.905 0 1.358 0 1.756.183.398.183.692.527 1.281 1.214l.606.706c.589.687.883 1.031 1.281 1.214.398.183.85.183 1.756.183h.32c.905 0 1.358 0 1.756-.183.398-.183.692-.527 1.281-1.214l.606-.706c.589-.687.883-1.031 1.281-1.214.398-.183.85-.183 1.756-.183H22" opacity=".5"/>
  </g>
</svg>
