<svg xmlns="http://www.w3.org/2000/svg" width="24" height="24" fill="none">
  <g stroke="#1C274C" stroke-width="1.5">
    <path d="M4 10c0-3.771 0-5.657 1.172-6.828C6.343 2 8.229 2 12 2c3.771 0 5.657 0 6.828 1.172C20 4.343 20 6.229 20 10v4c0 3.771 0 5.657-1.172 6.828C17.657 22 15.771 22 12 22c-3.771 0-5.657 0-6.828-1.172C4 19.657 4 17.771 4 14v-4Z"/>
    <path stroke-linecap="round" d="M15 19H9m7.748-16.622-.084.126c-.756 1.134-1.134 1.701-1.686 2.044-.11.069-.224.13-.341.183-.592.27-1.274.27-2.637.27s-2.044 0-2.636-.27a3 3 0 0 1-.342-.183c-.552-.343-.93-.91-1.686-2.044l-.084-.126"/>
  </g>
</svg>
