<svg xmlns="http://www.w3.org/2000/svg" width="24" height="24" fill="none">
  <g fill="#1C274C">
    <path d="M12.75 12a.75.75 0 0 0-1.5 0v1.25H10a.75.75 0 0 0 0 1.5h1.25V16a.75.75 0 0 0 1.5 0v-1.25H14a.75.75 0 0 0 0-1.5h-1.25V12Z"/>
    <path fill-rule="evenodd" d="M7.478 1.25h9.044c.214 0 .41 0 .576.011.178.012.373.04.572.122.428.178.77.519.947.947.082.199.11.394.122.572.011.165.011.362.011.576v.044c0 .214 0 .41-.011.576-.012.178-.04.373-.122.572a1.75 1.75 0 0 1-.947.947 1.71 1.71 0 0 1-.512.117l1.83 1.482a4.75 4.75 0 0 1 1.762 3.692v6.657a4.75 4.75 0 0 1-1.083 3.02l-.359.435a4.75 4.75 0 0 1-3.666 1.73h-6.74c-.519 0-.852 0-1.174-.044a4.75 4.75 0 0 1-2.556-1.197c-.24-.22-.454-.476-.786-.874l-.035-.042a4.75 4.75 0 0 1-1.101-3.041v-6.63a4.75 4.75 0 0 1 1.783-3.709l1.845-1.476a1.752 1.752 0 0 1-.548-.12 1.75 1.75 0 0 1-.947-.947 1.782 1.782 0 0 1-.122-.572c-.011-.165-.011-.362-.011-.576v-.044c0-.214 0-.41.011-.576.012-.178.04-.373.122-.572a1.75 1.75 0 0 1 .947-.947c.199-.082.394-.11.572-.122.165-.011.362-.011.576-.011Zm2.925 4.5h3.24c.752 0 .95.01 1.125.072.174.061.334.178.92.652l2.357 1.908c.303.246.556.54.75.868H5.213c.197-.327.452-.621.757-.865l2.403-1.923c.582-.466.742-.58.915-.642.173-.06.37-.07 1.115-.07Zm-5.648 5h14.491c.003.053.004.105.004.158v6.342H4.75v-6.328c0-.057.002-.115.005-.172Zm.224 8h14.047a3.247 3.247 0 0 1-.517.881l-.358.435a3.25 3.25 0 0 1-2.51 1.184H8.958c-.592 0-.817-.002-1.025-.03a3.25 3.25 0 0 1-1.75-.82c-.154-.14-.3-.313-.679-.768a3.25 3.25 0 0 1-.524-.882ZM16.5 4.25h-9c-.243 0-.388 0-.496-.008A.64.64 0 0 1 6.9 4.23a.25.25 0 0 1-.13-.131.642.642 0 0 1-.013-.103A8.288 8.288 0 0 1 6.75 3.5c0-.243 0-.388.008-.496A.642.642 0 0 1 6.77 2.9a.25.25 0 0 1 .131-.13.64.64 0 0 1 .103-.013c.108-.008.253-.008.496-.008h9c.243 0 .388 0 .496.008.067.004.095.01.103.012a.25.25 0 0 1 .13.131.63.63 0 0 1 .013.103c.008.108.008.253.008.496s0 .388-.008.496a.63.63 0 0 1-.012.103.25.25 0 0 1-.131.13.642.642 0 0 1-.103.013 8.292 8.292 0 0 1-.496.008Z" clip-rule="evenodd"/>
  </g>
</svg>
