<svg xmlns="http://www.w3.org/2000/svg" width="24" height="24" fill="none">
  <g fill="#1C274C">
    <path fill-rule="evenodd" d="M5.478 1.25c-.214 0-.41 0-.576.011-.178.012-.373.04-.572.122a1.75 1.75 0 0 0-.947.947c-.082.199-.11.394-.122.572-.011.165-.011.362-.011.576v.044c0 .214 0 .41.011.576.012.178.04.373.122.572.178.428.518.77.947.947.19.078.377.107.548.12L3.033 7.213a4.75 4.75 0 0 0-1.783 3.71v6.629a4.75 4.75 0 0 0 1.101 3.04l.035.043c.332.398.546.655.786.874a4.75 4.75 0 0 0 2.556 1.197c.322.044.655.044 1.174.044H10.5a.75.75 0 0 0 0-1.5H6.957c-.592 0-.817-.002-1.025-.03a3.25 3.25 0 0 1-1.75-.82c-.154-.14-.3-.313-.679-.768a3.25 3.25 0 0 1-.524-.882H10.5a.75.75 0 0 0 0-1.5H2.75v-6.328c0-.057.002-.115.005-.172h14.491c.003.053.004.105.004.158V12.5a.75.75 0 0 0 1.5 0v-1.592a4.75 4.75 0 0 0-1.761-3.692l-1.831-1.482a1.71 1.71 0 0 0 .512-.117 1.75 1.75 0 0 0 .947-.947c.082-.199.11-.394.122-.572.011-.165.011-.362.011-.576v-.044c0-.214 0-.41-.011-.576a1.781 1.781 0 0 0-.122-.572 1.75 1.75 0 0 0-.947-.947 1.781 1.781 0 0 0-.572-.122c-.165-.011-.362-.011-.576-.011H5.478Zm6.165 4.5h-3.24c-.746 0-.942.01-1.115.07-.173.061-.333.176-.915.642L3.97 8.385c-.306.244-.56.538-.757.865h13.582a3.249 3.249 0 0 0-.75-.868l-2.357-1.908c-.586-.474-.746-.59-.92-.652-.174-.062-.373-.072-1.125-.072Zm.299-1.5H14.5c.243 0 .388 0 .496-.008a.642.642 0 0 0 .103-.012.25.25 0 0 0 .13-.131.63.63 0 0 0 .013-.103c.008-.108.008-.253.008-.496s0-.388-.008-.496a.63.63 0 0 0-.012-.103.25.25 0 0 0-.131-.13.642.642 0 0 0-.103-.013 8.29 8.29 0 0 0-.496-.008h-9c-.243 0-.388 0-.496.008a.64.64 0 0 0-.103.012.25.25 0 0 0-.13.131.642.642 0 0 0-.013.103 8.289 8.289 0 0 0-.008.496c0 .243 0 .388.008.496.004.067.01.095.012.103a.25.25 0 0 0 .131.13.64.64 0 0 0 .103.013c.108.008.253.008.496.008h6.442Z" clip-rule="evenodd"/>
    <path d="M10 11.25a.75.75 0 0 1 .75.75v1.25H12a.75.75 0 0 1 0 1.5h-1.25V16a.75.75 0 0 1-1.5 0v-1.25H8a.75.75 0 0 1 0-1.5h1.25V12a.75.75 0 0 1 .75-.75Z"/>
    <path fill-rule="evenodd" d="M19.794 15.206c-1.226-1.226-3.217-1.298-4.446-.07l-2.211 2.212c-1.23 1.229-1.157 3.22.069 4.446 1.226 1.226 3.217 1.298 4.446.07l2.211-2.212c1.23-1.229 1.157-3.22-.069-4.446Zm-3.386.992c.603-.603 1.644-.613 2.325.069.682.681.672 1.722.07 2.325l-.331.33a6.708 6.708 0 0 0-1.05-1.343 6.71 6.71 0 0 0-1.344-1.05l.33-.331Zm.902 3.727.051.108-.77.77c-.602.602-1.643.612-2.324-.07-.682-.681-.672-1.722-.07-2.325l.77-.77.108.052c.323.16.785.449 1.285.95.501.5.79.962.95 1.285Z" clip-rule="evenodd"/>
  </g>
</svg>
