<svg xmlns="http://www.w3.org/2000/svg" width="24" height="24" fill="none">
  <path fill="#1C274C" fill-rule="evenodd" d="M9.757 1.983a.75.75 0 0 1-.733.767c-2.822.064-4.15.349-5.028 1.226-.57.57-.897 1.342-1.07 2.622-.174 1.301-.176 3.011-.176 5.392 0 2.38.002 4.09.177 5.392.172 1.28.499 2.051 1.07 2.622.57.57 1.341.897 2.621 1.07 1.301.174 3.011.176 5.392.176 2.38 0 4.09-.002 5.392-.177 1.28-.172 2.051-.499 2.622-1.07.877-.877 1.162-2.206 1.226-5.027a.75.75 0 1 1 1.5.034c-.063 2.766-.313 4.702-1.666 6.054-.895.896-2.036 1.302-3.482 1.496-1.413.19-3.224.19-5.535.19h-.114c-2.311 0-4.122 0-5.535-.19-1.446-.194-2.587-.6-3.482-1.496-.896-.895-1.302-2.036-1.496-3.482-.19-1.413-.19-3.224-.19-5.535v-.114c0-2.311 0-4.122.19-5.535.194-1.446.6-2.587 1.496-3.482C4.289 1.563 6.223 1.313 8.99 1.25a.75.75 0 0 1 .767.733Zm7.504.767c-2.207 0-3.99 1.78-3.99 3.97a3.579 3.579 0 0 0 .429 1.673l.01.017a.746.746 0 0 1-.106.925l-5.734 5.71a.46.46 0 0 0-.117.224.183.183 0 0 0 .005.089.414.414 0 0 0 .112.161l.634.632a.553.553 0 0 0 .222.096.186.186 0 0 0 .082-.003.239.239 0 0 0 .098-.066l.771-.769a.75.75 0 0 1 1.059 0c.115.115.21.162.279.183a.423.423 0 0 0 .208.01.662.662 0 0 0 .363-.216c.091-.13.088-.244.045-.374a.87.87 0 0 0-.122-.231l-.004-.005a.75.75 0 0 1 .046-1.013l.22-.22a.75.75 0 0 1 1.059 0c.384.383.638.378.761.355a.756.756 0 0 0 .42-.268.506.506 0 0 0 .082-.438.83.83 0 0 0-.092-.224L14 12.967l-.029-.04-.026-.053a.438.438 0 0 0-.073-.095l-.009-.01a1.689 1.689 0 0 1-.247-.319.978.978 0 0 1-.056-.848c.091-.235.26-.428.416-.584l.661-.658a.75.75 0 0 1 1.008-.046c.12.1.375.207.74.282.342.07.682.094.876.094a3.98 3.98 0 0 0 3.989-3.97c0-2.19-1.783-3.97-3.99-3.97Zm-4.112 12.626c-.032.286-.133.59-.35.892l-.004.007-.005.007a2.153 2.153 0 0 1-1.285.793 1.926 1.926 0 0 1-1.214-.16l-.327.326c-.452.45-.992.559-1.457.49a2.031 2.031 0 0 1-1.034-.49l-.661-.66c-.482-.48-.623-1.043-.54-1.554.077-.465.326-.832.54-1.045l5.35-5.33a5.076 5.076 0 0 1-.392-1.933c.001-3.023 2.462-5.469 5.49-5.469 3.03 0 5.49 2.446 5.49 5.47 0 3.024-2.46 5.47-5.49 5.47a6.16 6.16 0 0 1-1.18-.125 4.2 4.2 0 0 1-.79-.24l-.144.146a1.739 1.739 0 0 1 .129.205 2.33 2.33 0 0 1 .277.667 2.004 2.004 0 0 1-.327 1.669l-.005.007-.006.007a2.25 2.25 0 0 1-1.344.845 1.998 1.998 0 0 1-.721.005Zm4.112-9.552a.9.9 0 0 0-.904.896.9.9 0 0 0 .904.897.9.9 0 0 0 .903-.897.9.9 0 0 0-.903-.896Zm-2.404.896a2.4 2.4 0 0 1 2.404-2.396 2.4 2.4 0 0 1 2.403 2.396 2.4 2.4 0 0 1-2.403 2.397 2.4 2.4 0 0 1-2.404-2.397Z" clip-rule="evenodd"/>
</svg>
