<svg xmlns="http://www.w3.org/2000/svg" width="24" height="24" fill="none">
  <path fill="#1C274C" fill-rule="evenodd" d="M11.943 1.25h.114c2.309 0 4.118 0 5.53.19 1.444.194 2.584.6 3.479 1.494.895.895 1.3 2.035 1.494 3.48.19 1.411.19 3.22.19 5.529v.114c0 2.309 0 4.118-.19 5.53-.194 1.444-.6 2.584-1.494 3.479-.895.895-2.035 1.3-3.48 1.494-1.411.19-3.22.19-5.529.19h-.114c-2.309 0-4.118 0-5.53-.19-1.444-.194-2.584-.6-3.479-1.494-.895-.895-1.3-2.035-1.494-3.48-.19-1.411-.19-3.22-.19-5.529v-.114c0-2.309 0-4.118.19-5.53.194-1.444.6-2.584 1.494-3.479.895-.895 2.035-1.3 3.48-1.494 1.411-.19 3.22-.19 5.529-.19Zm-5.33 1.676c-1.278.172-2.049.5-2.618 1.069-.57.57-.897 1.34-1.069 2.619-.174 1.3-.176 3.008-.176 5.386s.002 4.086.176 5.386c.172 1.279.5 2.05 1.069 2.62.57.569 1.34.896 2.619 1.068 1.3.174 3.008.176 5.386.176s4.086-.002 5.386-.176c1.279-.172 2.05-.5 2.62-1.069.569-.57.896-1.34 1.068-2.619.174-1.3.176-3.008.176-5.386s-.002-4.086-.176-5.386c-.172-1.279-.5-2.05-1.069-2.62-.57-.569-1.34-.896-2.619-1.068-1.3-.174-3.008-.176-5.386-.176s-4.086.002-5.386.176ZM9.61 6.818a5.354 5.354 0 1 1 2.452 8.973L9.61 18.24a1.737 1.737 0 0 1-1.42.498l-1.392-.154a1.408 1.408 0 0 1-.84-.404l-.139-.139a1.407 1.407 0 0 1-.404-.84l-.154-1.392a1.737 1.737 0 0 1 .498-1.42l2.45-2.45a5.352 5.352 0 0 1 1.4-5.122Zm6.512 1.06a3.854 3.854 0 0 0-6.458 3.69 1.47 1.47 0 0 1-.369 1.408L6.82 15.45a.237.237 0 0 0-.068.193l.152 1.36.093.093 1.36.151a.237.237 0 0 0 .193-.067l.294-.294-.63-.623a.75.75 0 1 1 1.055-1.066l.636.628 1.12-1.12a1.47 1.47 0 0 1 1.409-.369 3.854 3.854 0 0 0 3.689-6.458Zm-4.26 1.316a2.083 2.083 0 1 1 2.945 2.946 2.083 2.083 0 0 1-2.946-2.946Zm1.885 1.06a.583.583 0 1 0-.825.825.583.583 0 0 0 .825-.825Z" clip-rule="evenodd"/>
</svg>
