<svg xmlns="http://www.w3.org/2000/svg" width="24" height="24" fill="none">
  <g fill="#1C274C">
    <path d="M9.62 18.98a3.234 3.234 0 0 0 2.644-.927l2.655-2.655A7.748 7.748 0 0 0 22 12.955c-.006 4.084-.101 6.218-1.463 7.58C19.07 22 16.713 22 12 22c-4.714 0-7.071 0-8.536-1.465C2 19.072 2 16.714 2 12s0-7.071 1.464-8.536C4.827 2.102 6.961 2.007 11.045 2a7.748 7.748 0 0 0-2.443 7.08l-2.655 2.656a3.233 3.233 0 0 0-.927 2.643l.193 1.741c.071.637.356 1.23.81 1.684l.173.174a2.823 2.823 0 0 0 1.684.809l1.74.193Z"/>
    <path fill-rule="evenodd" d="M21.963 8.412a5.73 5.73 0 0 1-1.649 3.413 5.753 5.753 0 0 1-5.507 1.505.9.9 0 0 0-.864.215l-1.53 1.53-.002-.003-1.458-1.442a.75.75 0 0 0-1.055 1.067l1.455 1.438-.503.504a1.233 1.233 0 0 1-1.009.353l-1.74-.193a.822.822 0 0 1-.49-.236l-.174-.173a.822.822 0 0 1-.236-.49l-.193-1.741a1.233 1.233 0 0 1 .353-1.009l3.094-3.093a.9.9 0 0 0 .215-.864 5.753 5.753 0 0 1 1.505-5.507 5.731 5.731 0 0 1 3.413-1.649c.906.034 1.68.097 2.348.216.87.267 1.69.744 2.378 1.433a5.73 5.73 0 0 1 1.433 2.378c.12.668.182 1.442.216 2.348Zm-6.975-1.757a1.667 1.667 0 1 1 2.357 2.357 1.667 1.667 0 0 1-2.357-2.357Z" clip-rule="evenodd"/>
  </g>
</svg>
