<svg xmlns="http://www.w3.org/2000/svg" width="24" height="24" fill="none">
  <path fill="#1C274C" fill-rule="evenodd" d="M11.943 1.25h.114c2.309 0 4.118 0 5.53.19 1.444.194 2.584.6 3.479 1.494.895.895 1.3 2.035 1.494 3.48.19 1.411.19 3.22.19 5.529v.114c0 2.309 0 4.118-.19 5.53-.194 1.444-.6 2.584-1.494 3.479-.895.895-2.035 1.3-3.48 1.494-1.411.19-3.22.19-5.529.19h-.114c-2.309 0-4.118 0-5.53-.19-1.444-.194-2.584-.6-3.479-1.494-.895-.895-1.3-2.035-1.494-3.48-.19-1.411-.19-3.22-.19-5.529v-.114c0-2.309 0-4.118.19-5.53.194-1.444.6-2.584 1.494-3.479.895-.895 2.035-1.3 3.48-1.494 1.411-.19 3.22-.19 5.529-.19Zm-5.33 1.676c-1.278.172-2.049.5-2.618 1.069-.57.57-.897 1.34-1.069 2.619-.174 1.3-.176 3.008-.176 5.386s.002 4.086.176 5.386c.172 1.279.5 2.05 1.069 2.62.57.569 1.34.896 2.619 1.068 1.3.174 3.008.176 5.386.176s4.086-.002 5.386-.176c1.279-.172 2.05-.5 2.62-1.069.569-.57.896-1.34 1.068-2.619.174-1.3.176-3.008.176-5.386s-.002-4.086-.176-5.386c-.172-1.279-.5-2.05-1.069-2.62-.57-.569-1.34-.896-2.619-1.068-1.3-.174-3.008-.176-5.386-.176s-4.086.002-5.386.176Zm7.595 3.824a3.034 3.034 0 0 0-3.041 3.026 2.712 2.712 0 0 0 .323 1.264l.006.01a.744.744 0 0 1-.106.923l-4.588 4.57s-.004.003-.01.012a.274.274 0 0 0-.02.03.177.177 0 0 0-.022.054v.003l.001.002a.31.31 0 0 0 .05.065l.5.497.003.002a.311.311 0 0 0 .099.041l.016-.013.617-.615a.75.75 0 0 1 1.058 0c.077.076.133.1.162.11.03.008.06.01.094.003a.36.36 0 0 0 .124-.052.347.347 0 0 0 .075-.063c.035-.053.037-.091.013-.161a.54.54 0 0 0-.074-.143m1.556.554c-.043.206-.13.42-.282.633l-.005.007-.005.007a1.873 1.873 0 0 1-1.12.692c-.314.06-.646.034-.966-.097l-.189.188c-.4.398-.88.495-1.293.434a1.775 1.775 0 0 1-.912-.434l-.529-.527c-.42-.419-.547-.918-.473-1.375.067-.41.286-.73.473-.917l4.211-4.194a4.212 4.212 0 0 1-.287-1.51 4.533 4.533 0 0 1 4.541-4.526c2.506 0 4.542 2.023 4.542 4.526 0 2.503-2.036 4.526-4.542 4.526a5.1 5.1 0 0 1-.974-.103 3.796 3.796 0 0 1-.484-.132 2.014 2.014 0 0 1 .237.573c.092.384.093.93-.285 1.457l-.005.007-.006.007a1.952 1.952 0 0 1-1.167.733 1.75 1.75 0 0 1-.48.025Zm-1.556-.554a.75.75 0 0 1 .047-1.011l.176-.176a.75.75 0 0 1 1.059 0 .906.906 0 0 0 .326.228.277.277 0 0 0 .149.015.457.457 0 0 0 .243-.156.255.255 0 0 0 .04-.226.51.51 0 0 0-.053-.133l-.027-.037-.026-.052a.38.38 0 0 0-.036-.043l-.002-.002c-.017-.018-.145-.15-.222-.289a.933.933 0 0 1-.054-.806c.085-.218.239-.39.367-.519l.529-.526a.75.75 0 0 1 1.008-.046c.067.055.241.135.526.194.263.054.525.072.67.072a3.034 3.034 0 0 0 3.042-3.026 3.034 3.034 0 0 0-3.042-3.026m0 2.459a.57.57 0 0 0-.572.567c0 .31.253.567.572.567a.57.57 0 0 0 .573-.567.57.57 0 0 0-.573-.567Zm-2.072.567a2.07 2.07 0 0 1 2.072-2.067 2.07 2.07 0 0 1 2.073 2.067 2.07 2.07 0 0 1-2.073 2.067 2.07 2.07 0 0 1-2.072-2.067Z" clip-rule="evenodd"/>
</svg>
