<svg xmlns="http://www.w3.org/2000/svg" width="24" height="24" fill="none">
  <path fill="#1C274C" fill-rule="evenodd" d="M9.757 1.983a.75.75 0 0 1-.733.767c-2.822.064-4.15.349-5.028 1.226-.57.57-.897 1.342-1.07 2.622-.174 1.301-.176 3.011-.176 5.392 0 2.38.002 4.09.177 5.392.172 1.28.499 2.051 1.07 2.622.57.57 1.341.897 2.621 1.07 1.301.174 3.011.176 5.392.176 2.38 0 4.09-.002 5.392-.177 1.28-.172 2.051-.499 2.622-1.07.877-.877 1.162-2.206 1.226-5.027a.75.75 0 1 1 1.5.034c-.063 2.766-.313 4.702-1.666 6.054-.895.896-2.036 1.302-3.482 1.496-1.413.19-3.224.19-5.535.19h-.114c-2.311 0-4.122 0-5.535-.19-1.446-.194-2.587-.6-3.482-1.496-.896-.895-1.302-2.036-1.496-3.482-.19-1.413-.19-3.224-.19-5.535v-.114c0-2.311 0-4.122.19-5.535.194-1.446.6-2.587 1.496-3.482C4.289 1.563 6.223 1.313 8.99 1.25a.75.75 0 0 1 .767.733Zm1.887 1.172a6.506 6.506 0 1 1 2.977 10.901.218.218 0 0 0-.103-.003.09.09 0 0 0-.044.022L11.38 17.17a1.984 1.984 0 0 1-1.621.569l-1.741-.194a1.572 1.572 0 0 1-.938-.45l-.174-.174a1.572 1.572 0 0 1-.45-.938l-.194-1.74a1.984 1.984 0 0 1 .569-1.622l3.093-3.093a.09.09 0 0 0 .023-.045.217.217 0 0 0-.003-.103 6.503 6.503 0 0 1 1.7-6.224Zm8.14 1.061a5.006 5.006 0 0 0-8.387 4.79c.135.527.026 1.143-.412 1.581l-3.093 3.094a.483.483 0 0 0-.139.395l.193 1.74c.002.017.01.032.021.043l.174.174a.073.073 0 0 0 .043.02l1.74.194a.483.483 0 0 0 .395-.139l.5-.5-.92-.911a.75.75 0 1 1 1.054-1.067l.927.917 1.533-1.532c.438-.438 1.054-.547 1.58-.412a5.006 5.006 0 0 0 4.79-8.387Zm-5.326 1.909a2.417 2.417 0 1 1 3.417 3.417 2.417 2.417 0 0 1-3.417-3.417Zm2.357 1.06a.917.917 0 1 0-1.297 1.296.917.917 0 0 0 1.297-1.296Z" clip-rule="evenodd"/>
</svg>
