<svg xmlns="http://www.w3.org/2000/svg" width="24" height="24" fill="none">
  <g fill="#1C274C">
    <path d="M2 12c0-4.714 0-7.071 1.464-8.536C4.93 2 7.286 2 12 2c4.714 0 7.071 0 8.535 1.464C22 4.93 22 7.286 22 12c0 4.714 0 7.071-1.465 8.535C19.072 22 16.714 22 12 22s-7.071 0-8.536-1.465C2 19.072 2 16.714 2 12Z" opacity=".5"/>
    <path fill-rule="evenodd" d="M21.963 8.413a5.73 5.73 0 0 1-1.649 3.413 5.753 5.753 0 0 1-5.507 1.504.9.9 0 0 0-.864.215l-1.53 1.53-.002-.003-1.458-1.441a.75.75 0 1 0-1.055 1.066l1.455 1.439-.503.503a1.233 1.233 0 0 1-1.009.354l-1.74-.194a.822.822 0 0 1-.49-.235l-.174-.174a.822.822 0 0 1-.236-.49l-.193-1.741a1.233 1.233 0 0 1 .353-1.008l3.094-3.094a.9.9 0 0 0 .215-.864 5.753 5.753 0 0 1 1.505-5.507 5.731 5.731 0 0 1 3.413-1.648c.906.033 1.68.096 2.348.215a5.73 5.73 0 0 1 2.378 1.433 5.73 5.73 0 0 1 1.433 2.378c.12.668.182 1.442.216 2.349Zm-6.975-1.758a1.667 1.667 0 1 1 2.357 2.357 1.667 1.667 0 0 1-2.357-2.357Z" clip-rule="evenodd"/>
  </g>
</svg>
