<svg xmlns="http://www.w3.org/2000/svg" width="24" height="24" fill="none">
  <g fill="#1C274C">
    <path d="M7.624 4.449C9.501 3.698 10.621 3.25 12 3.25c1.38 0 2.499.448 4.376 1.199l2.97 1.188c.954.382 1.727.69 2.258.969.268.14.528.3.729.493.206.198.417.498.417.901s-.21.703-.417.901c-.2.193-.46.352-.73.493-.53.278-1.303.587-2.258.97l-2.97 1.187C14.5 12.302 13.38 12.75 12 12.75s-2.499-.448-4.376-1.199l-2.969-1.188c-.955-.382-1.728-.69-2.259-.969a3.21 3.21 0 0 1-.729-.493C1.461 8.703 1.25 8.403 1.25 8s.21-.703.417-.901c.2-.193.46-.352.73-.493.53-.278 1.303-.587 2.258-.97l2.97-1.187Z"/>
    <path fill-rule="evenodd" d="m2.5 11.441.003.002.024.021a7.568 7.568 0 0 0 .626.451c.46.299 1.161.697 2.104 1.074l2.809 1.123c2.025.81 2.874 1.138 3.934 1.138s1.91-.328 3.934-1.138l2.809-1.123a12.222 12.222 0 0 0 2.104-1.074 7.557 7.557 0 0 0 .65-.472l.003-.002.001-.001a.75.75 0 0 1 1 1.118L22 12l.5.558v.002l-.002.001-.005.004-.014.012c-.01.01-.026.023-.045.039a9.109 9.109 0 0 1-.77.558A13.72 13.72 0 0 1 19.3 14.38l-2.809 1.124-.115.046c-1.877.751-2.997 1.199-4.376 1.199-1.38 0-2.499-.448-4.376-1.199l-.115-.046L4.7 14.38a13.72 13.72 0 0 1-2.363-1.207 9.088 9.088 0 0 1-.771-.558 2.962 2.962 0 0 1-.045-.039l-.014-.012-.005-.004-.001-.002H1.5L2 12l-.5.559a.75.75 0 0 1 1-1.119m0 .002Zm0 3.998a.75.75 0 0 0-1.057.06l1.057-.06Zm0 0 .004.003.024.021a7.568 7.568 0 0 0 .626.451c.46.299 1.161.696 2.104 1.074l2.809 1.123c2.025.81 2.874 1.138 3.934 1.138s1.91-.328 3.934-1.138l2.809-1.123a12.23 12.23 0 0 0 2.104-1.074 7.557 7.557 0 0 0 .65-.472l.003-.002.001-.001a.75.75 0 0 1 1 1.118l-.484-.54.484.54-.002.002-.001.001-.005.004-.014.012a5.337 5.337 0 0 1-.207.168c-.14.108-.342.256-.609.429A13.72 13.72 0 0 1 19.3 18.38l-2.809 1.124-.115.046c-1.877.751-2.997 1.199-4.376 1.199-1.38 0-2.499-.448-4.376-1.199l-.115-.046L4.7 18.38a13.72 13.72 0 0 1-2.363-1.207 9.088 9.088 0 0 1-.771-.558 2.962 2.962 0 0 1-.045-.039l-.014-.012-.005-.004-.001-.002H1.5L2 16l-.5.559a.75.75 0 0 1-.058-1.06" clip-rule="evenodd"/>
  </g>
</svg>
