<svg xmlns="http://www.w3.org/2000/svg" width="24" height="24" fill="none">
  <path fill="#1C274C" fill-rule="evenodd" d="M19 2.75a2.25 2.25 0 1 0 0 4.5 2.25 2.25 0 0 0 0-4.5ZM15.25 5a3.75 3.75 0 1 1 7.5 0 3.75 3.75 0 0 1-7.5 0ZM9.944 3.25H13a.75.75 0 0 1 0 1.5h-3c-1.907 0-3.261.002-4.29.14-1.005.135-1.585.389-2.008.812-.423.423-.677 1.003-.812 2.009-.138 1.028-.14 2.382-.14 4.289 0 1.907.002 3.261.14 4.29.135 1.005.389 1.585.812 2.008.423.423 1.003.677 2.009.812 1.028.138 2.382.14 4.289.14h4c1.907 0 3.262-.002 4.29-.14 1.005-.135 1.585-.389 2.008-.812.423-.423.677-1.003.812-2.009.138-1.028.14-2.382.14-4.289 0-.373.003-.645.005-.88.004-.379.007-.658-.005-1.1a.75.75 0 0 1 1.5-.04c.012.467.009.785.005 1.187-.002.234-.005.497-.005.833v.056c0 1.838 0 3.294-.153 4.433-.158 1.172-.49 2.121-1.238 2.87-.749.748-1.698 1.08-2.87 1.238-1.14.153-2.595.153-4.433.153H9.944c-1.838 0-3.294 0-4.433-.153-1.172-.158-2.121-.49-2.87-1.238-.748-.749-1.08-1.698-1.238-2.87-.153-1.14-.153-2.595-.153-4.433v-.112c0-1.838 0-3.294.153-4.433.158-1.172.49-2.121 1.238-2.87.749-.748 1.698-1.08 2.87-1.238 1.14-.153 2.595-.153 4.433-.153Zm-4.52 4.27a.75.75 0 0 1 1.056-.096l2.16 1.799c.933.777 1.58 1.315 2.128 1.667.529.34.888.455 1.233.455.345 0 .704-.114 1.233-.455.547-.352 1.195-.89 2.128-1.667a.75.75 0 1 1 .96 1.152l-.037.032c-.887.738-1.605 1.337-2.24 1.745-.66.425-1.303.693-2.044.693-.741 0-1.384-.269-2.045-.693-.634-.408-1.352-1.007-2.239-1.745L5.52 8.577a.75.75 0 0 1-.096-1.057Z" clip-rule="evenodd"/>
</svg>
