<svg xmlns="http://www.w3.org/2000/svg" width="24" height="24" fill="none">
  <g fill="#1C274C">
    <path fill-rule="evenodd" d="M9.005 7.542h5.99c3.037 0 4.556 0 5.409.987.853.987.652 2.511.25 5.56l-.38 2.892c-.315 2.391-.472 3.587-1.28 4.303-.807.716-1.998.716-4.38.716H9.386c-2.382 0-3.573 0-4.38-.716-.808-.716-.965-1.912-1.28-4.303l-.38-2.892c-.402-3.049-.603-4.573.25-5.56.853-.987 2.372-.987 5.41-.987ZM8.25 18a.75.75 0 0 1 .75-.75h6a.75.75 0 0 1 0 1.5H9a.75.75 0 0 1-.75-.75Z" clip-rule="evenodd"/>
    <path d="M6.88 4.723c-1.252 0-2.278.84-2.62 1.953a2.771 2.771 0 0 0-.021.07c.358-.12.731-.199 1.109-.253.972-.138 2.2-.138 3.628-.138h6.203c1.427 0 2.656 0 3.629.138.377.054.75.133 1.108.253a2.785 2.785 0 0 0-.02-.07c-.343-1.114-1.369-1.953-2.62-1.953H6.88Z" opacity=".7"/>
    <path d="M8.859 2h6.282c.21 0 .37 0 .51.015a2.623 2.623 0 0 1 2.16 1.672H6.19a2.623 2.623 0 0 1 2.16-1.672C8.49 2 8.65 2 8.858 2Z" opacity=".4"/>
  </g>
</svg>
