<svg xmlns="http://www.w3.org/2000/svg" width="24" height="24" fill="none">
  <path fill="#1C274C" fill-rule="evenodd" d="M12 2.75a6.75 6.75 0 0 0-4.5 11.78l.003.004c.557.499.98.877 1.282 1.155.285.26.51.474.629.62l.012.015c.222.273.414.511.542.796.127.284.175.587.231.934l.003.02c.029.178.04.396.045.676h3.506c.005-.28.016-.498.045-.676l.003-.02c.056-.347.104-.65.231-.934.128-.285.32-.523.542-.796l.012-.015c.119-.146.344-.36.629-.62.302-.278.725-.656 1.282-1.155l.004-.004A6.75 6.75 0 0 0 12 2.75Zm1.744 17.5h-3.488c.004.104.009.195.016.277.02.225.055.307.079.348a.75.75 0 0 0 .274.274c.04.024.123.058.348.079.235.021.546.022 1.027.022.481 0 .792 0 1.027-.022.225-.02.307-.055.348-.079a.75.75 0 0 0 .274-.274c.024-.04.059-.123.079-.348.007-.082.012-.173.016-.277ZM3.75 9.5a8.25 8.25 0 1 1 13.752 6.148 169.1 169.1 0 0 0-1.274 1.146 16.373 16.373 0 0 0-.44.42 1.259 1.259 0 0 0-.036.039c-.26.321-.317.404-.35.479-.034.075-.058.172-.123.58-.026.161-.029.437-.029 1.188v.032c0 .44 0 .82-.028 1.13-.03.33-.096.656-.273.963a2.251 2.251 0 0 1-.824.824c-.307.177-.633.243-.962.273-.312.028-.691.028-1.13.028h-.065c-.44 0-.82 0-1.13-.028-.33-.03-.656-.096-.963-.273a2.25 2.25 0 0 1-.824-.824c-.177-.307-.243-.633-.273-.962-.028-.312-.028-.691-.028-1.13V19.5c0-.75-.003-1.027-.029-1.188-.065-.408-.09-.505-.123-.58-.033-.075-.09-.158-.35-.48l-.01-.01a16.46 16.46 0 0 0-.467-.448c-.294-.27-.71-.643-1.273-1.146A8.231 8.231 0 0 1 3.75 9.5Zm6.142 3.85a.75.75 0 0 1 1.025.274 1.25 1.25 0 0 0 2.166 0 .75.75 0 1 1 1.299.752 2.757 2.757 0 0 1-1.632 1.27V17a.75.75 0 0 1-1.5 0v-1.354a2.757 2.757 0 0 1-1.632-1.27.75.75 0 0 1 .274-1.025Z" clip-rule="evenodd"/>
</svg>
