<svg xmlns="http://www.w3.org/2000/svg" width="24" height="24" fill="none">
  <g fill-rule="evenodd" clip-rule="evenodd">
    <path fill="#1C274C" d="M11.5 2C7.358 2 4 5.436 4 9.674c0 2.273.966 4.315 2.499 5.72.51.467.889.814 1.157 1.066a14.896 14.896 0 0 1 .4.39 1.02 1.02 0 0 1 .033.036c.237.3.288.376.318.446.03.07.053.16.112.54.024.15.026.406.026 1.105v.03c0 .409 0 .762.026 1.051.027.306.087.61.248.895.18.319.438.583.75.767.278.165.575.226.874.254.283.026.628.026 1.028.026h.058c.4 0 .745 0 1.028-.026.3-.028.595-.09.875-.254a2.07 2.07 0 0 0 .748-.767c.162-.285.222-.588.249-.895.026-.29.026-.642.025-1.051v-.03c0-.699.003-.955.026-1.105.06-.38.082-.47.113-.54.03-.07.081-.147.318-.446l.003-.003.005-.006.025-.027a14.926 14.926 0 0 1 .4-.39c.268-.252.647-.599 1.157-1.067A7.736 7.736 0 0 0 19 9.674C19 5.436 15.642 2 11.5 2Zm1.57 17.932c.008-.076.012-.16.015-.258h-3.17c.003.097.007.182.014.258.019.21.05.286.071.324a.69.69 0 0 0 .25.255c.037.022.111.054.316.073.214.02.497.02.934.02.437 0 .72 0 .934-.02.205-.019.279-.05.316-.073a.69.69 0 0 0 .25-.255c.021-.038.052-.114.07-.324Z"/>
    <path fill="#fff" d="M9.274 13.35a.75.75 0 0 1 1.025.274 1.25 1.25 0 0 0 2.166 0 .75.75 0 1 1 1.298.752 2.757 2.757 0 0 1-1.631 1.27V17a.75.75 0 0 1-1.5 0v-1.354A2.757 2.757 0 0 1 9 14.376a.75.75 0 0 1 .274-1.025Z"/>
  </g>
</svg>
