<svg xmlns="http://www.w3.org/2000/svg" width="24" height="24" fill="none">
  <g stroke="#1C274C" stroke-width="1.5">
    <path d="M14.5 19.5h-5m5 0c0-.713 0-1.07.038-1.307.123-.763.144-.812.631-1.412.151-.186.711-.688 1.832-1.692A7.5 7.5 0 1 0 7 15.09c1.12 1.004 1.68 1.505 1.832 1.692.487.6.508.649.63 1.412.039.237.039.593.039 1.307m5 0c0 .935 0 1.402-.201 1.75a1.5 1.5 0 0 1-.549.549c-.349.2-.816.2-1.751.2s-1.402 0-1.75-.201a1.5 1.5 0 0 1-.549-.549c-.201-.348-.201-.815-.201-1.75"/>
    <path stroke-linecap="round" stroke-linejoin="round" d="m12.786 8.5-2.143 3h3l-2.143 3"/>
  </g>
</svg>
