<svg xmlns="http://www.w3.org/2000/svg" width="24" height="24" fill="none">
  <g fill="#1C274C">
    <path d="m20.975 12.185-.739-.128.74.128Zm-.705 4.08-.74-.128.74.128ZM6.938 20.477l-.747.065.747-.065Zm-.812-9.393.747-.064-.747.064Zm7.869-5.863.74.122-.74-.122Zm-.663 4.045.74.121-.74-.121Zm-6.634.411-.49-.568.49.568Zm1.439-1.24.49.569-.49-.568Zm2.381-3.653-.726-.189.726.189Zm.476-1.834.726.188-.726-.188Zm1.674-.886-.23.714.23-.714Zm.145.047.229-.714-.23.714ZM9.862 6.463l.662.353-.662-.353Zm4.043-3.215-.726.188.726-.188Zm-2.23-1.116-.326-.675.325.675Zm8.561 9.925-.705 4.08 1.478.256.705-4.08-1.478-.256Zm-6.991 9.193H8.596v1.5h4.649v-1.5Zm-5.56-.837-.812-9.393-1.495.129.813 9.393 1.494-.13Zm11.846-4.276c-.507 2.93-3.15 5.113-6.286 5.113v1.5c3.826 0 7.126-2.669 7.764-6.357l-1.478-.256ZM13.255 5.1l-.663 4.045 1.48.242.663-4.044-1.48-.243Zm-6.067 5.146 1.438-1.24-.979-1.136L6.21 9.11l.979 1.136Zm4.056-5.274.476-1.834-1.452-.376-.476 1.833 1.452.377Zm1.194-2.194.145.047.459-1.428-.145-.047-.459 1.428Zm-1.915 4.038a8.378 8.378 0 0 0 .721-1.844l-1.452-.377A6.878 6.878 0 0 1 9.2 6.11l1.324.707Zm2.06-3.991a.885.885 0 0 1 .596.61l1.452-.376a2.384 2.384 0 0 0-1.59-1.662l-.458 1.428Zm-.863.313a.514.514 0 0 1 .28-.33l-.651-1.351c-.532.256-.932.73-1.081 1.305l1.452.376Zm.28-.33a.596.596 0 0 1 .438-.03l.459-1.428a2.096 2.096 0 0 0-1.548.107l.65 1.351Zm2.154 8.176h5.18v-1.5h-5.18v1.5Zm.581-5.641a5.533 5.533 0 0 0-.104-2.284l-1.452.377a4.03 4.03 0 0 1 .076 1.664l1.48.243ZM8.596 21.25a.916.916 0 0 1-.911-.837l-1.494.129a2.416 2.416 0 0 0 2.405 2.208v-1.5Zm.03-12.244c.68-.586 1.413-1.283 1.898-2.19L9.2 6.109c-.346.649-.898 1.196-1.553 1.76l.98 1.137Zm13.088 3.307a2.416 2.416 0 0 0-2.38-2.829v1.5c.567 0 1 .512.902 1.073l1.478.256Zm-9.122-3.168a1.583 1.583 0 0 0 1.562 1.84v-1.5a.083.083 0 0 1-.082-.098l-1.48-.242Zm-5.72 1.875a.918.918 0 0 1 .316-.774l-.98-1.137a2.418 2.418 0 0 0-.83 2.04l1.495-.13Z"/>
    <path d="m3.972 21.47-.748.066.748-.065ZM3 10.235l.747-.064a.75.75 0 0 0-1.497.064H3Zm1.719 11.172L3.747 10.17l-1.494.129.971 11.236 1.495-.129Zm-.969.107v-11.28h-1.5v11.279h1.5Zm-.526.022a.263.263 0 0 1 .263-.285v1.5c.726 0 1.294-.622 1.232-1.344l-1.495.13Zm.263-.285c.146 0 .263.119.263.263h-1.5c0 .682.553 1.237 1.237 1.237v-1.5Z" opacity=".5"/>
  </g>
</svg>
