<svg xmlns="http://www.w3.org/2000/svg" width="24" height="24" fill="none">
  <path fill="#1C274C" d="M6.3 2.307a.75.75 0 0 1 .98.406l.913 2.205a.75.75 0 0 1-1.386.574l-.913-2.205a.75.75 0 0 1 .407-.98Zm13.388 1.851c-2.72-2.544-7.112-2.544-9.833 0l-.367.343a.75.75 0 0 0 1.024 1.096l.367-.344c2.144-2.004 5.64-2.004 7.784 0 2.116 1.978 2.116 5.162 0 7.14l-2.202 2.06a.75.75 0 0 0 1.025 1.095l2.202-2.06c2.75-2.57 2.75-6.76 0-9.33ZM6.172 10.535a.75.75 0 0 0-1.052-1.07l-.905.89c-2.672 2.628-2.6 6.854.099 9.435 2.707 2.59 7.122 2.627 9.839.03l.365-.35a.75.75 0 0 0-1.036-1.084l-.366.35c-2.127 2.034-5.629 2.013-7.766-.03-2.097-2.006-2.14-5.258-.083-7.281l.905-.89ZM3.831 5.413a.75.75 0 1 0-.658 1.348l5.548 2.707A.75.75 0 0 0 9.38 8.12L3.831 5.413Z"/>
</svg>
