<svg xmlns="http://www.w3.org/2000/svg" width="24" height="24" fill="none">
  <g fill="#1C274C">
    <path fill-rule="evenodd" d="M8 2.25A6.75 6.75 0 0 0 2.969 13.5a.75.75 0 0 0 1.118-1A5.25 5.25 0 0 1 8 3.75h4a5.25 5.25 0 1 1 0 10.5h-2a.75.75 0 0 0 0 1.5h2a6.75 6.75 0 0 0 0-13.5H8Z" clip-rule="evenodd"/>
    <path d="M6.75 15c0-2.9 2.35-5.25 5.25-5.25h2a.75.75 0 0 0 0-1.5h-2a6.75 6.75 0 0 0 0 13.5h4a6.75 6.75 0 0 0 5.031-11.25.75.75 0 0 0-1.118 1A5.25 5.25 0 0 1 16 20.25h-4A5.25 5.25 0 0 1 6.75 15Z" opacity=".5"/>
  </g>
</svg>
