<svg xmlns="http://www.w3.org/2000/svg" width="24" height="24" fill="none">
  <path fill="#1C274C" fill-rule="evenodd" d="M2.25 6A.75.75 0 0 1 3 5.25h17a.75.75 0 0 1 0 1.5H3A.75.75 0 0 1 2.25 6ZM17.5 8.25a.75.75 0 0 1 .75.75v6.19l1.22-1.22a.75.75 0 1 1 1.06 1.06l-2.5 2.5a.75.75 0 0 1-1.06 0l-2.5-2.5a.75.75 0 1 1 1.06-1.06l1.22 1.22V9a.75.75 0 0 1 .75-.75ZM2.25 11a.75.75 0 0 1 .75-.75h9a.75.75 0 0 1 0 1.5H3a.75.75 0 0 1-.75-.75Zm0 5a.75.75 0 0 1 .75-.75h8a.75.75 0 0 1 0 1.5H3a.75.75 0 0 1-.75-.75Z" clip-rule="evenodd"/>
</svg>
