<svg xmlns="http://www.w3.org/2000/svg" width="24" height="24" fill="none">
  <g fill="#1C274C">
    <path fill-rule="evenodd" d="M2 5.75A.75.75 0 0 1 2.75 5h18a.75.75 0 0 1 0 1.5h-18A.75.75 0 0 1 2 5.75Zm0 4A.75.75 0 0 1 2.75 9h18a.75.75 0 0 1 0 1.5h-18A.75.75 0 0 1 2 9.75Zm0 4a.75.75 0 0 1 .75-.75h7a.75.75 0 0 1 0 1.5h-7a.75.75 0 0 1-.75-.75Zm0 4a.75.75 0 0 1 .75-.75h7a.75.75 0 0 1 0 1.5h-7a.75.75 0 0 1-.75-.75Z" clip-rule="evenodd" opacity=".5"/>
    <path d="M20.211 12.659a.75.75 0 0 1 .13 1.052l-3.9 5a.75.75 0 0 1-1.165.021l-2.1-2.5a.75.75 0 0 1 1.148-.964l1.504 1.79 3.33-4.27a.75.75 0 0 1 1.053-.13Z"/>
  </g>
</svg>
