<svg xmlns="http://www.w3.org/2000/svg" width="24" height="24" fill="none">
  <g fill="#1C274C">
    <path fill-rule="evenodd" d="M2.25 6A.75.75 0 0 1 3 5.25h18a.75.75 0 0 1 0 1.5H3A.75.75 0 0 1 2.25 6Zm0 4A.75.75 0 0 1 3 9.25h18a.75.75 0 0 1 0 1.5H3a.75.75 0 0 1-.75-.75Zm0 4a.75.75 0 0 1 .75-.75h8a.75.75 0 0 1 0 1.5H3a.75.75 0 0 1-.75-.75Zm0 4a.75.75 0 0 1 .75-.75h8a.75.75 0 0 1 0 1.5H3a.75.75 0 0 1-.75-.75Z" clip-rule="evenodd" opacity=".5"/>
    <path d="M16.97 13.47a.75.75 0 0 1 1.06 0l2.5 2.5a.75.75 0 1 1-1.06 1.06l-1.22-1.22V20a.75.75 0 0 1-1.5 0v-4.19l-1.22 1.22a.75.75 0 1 1-1.06-1.06l2.5-2.5Z"/>
  </g>
</svg>
