<svg xmlns="http://www.w3.org/2000/svg" width="24" height="24" fill="none">
  <g fill="#1C274C">
    <path fill-rule="evenodd" d="M2.25 6A.75.75 0 0 1 3 5.25h18a.75.75 0 0 1 0 1.5H3A.75.75 0 0 1 2.25 6Zm0 4A.75.75 0 0 1 3 9.25h18a.75.75 0 0 1 0 1.5H3a.75.75 0 0 1-.75-.75Zm0 4a.75.75 0 0 1 .75-.75h7a.75.75 0 0 1 0 1.5H3a.75.75 0 0 1-.75-.75Zm0 4a.75.75 0 0 1 .75-.75h7a.75.75 0 0 1 0 1.5H3a.75.75 0 0 1-.75-.75Z" clip-rule="evenodd" opacity=".5"/>
    <path d="M13.43 14.512a.75.75 0 0 1 1.058-.081l3.012 2.581 3.012-2.581a.75.75 0 1 1 .976 1.139l-3.5 3a.75.75 0 0 1-.976 0l-3.5-3a.75.75 0 0 1-.081-1.058Z"/>
  </g>
</svg>
