<svg xmlns="http://www.w3.org/2000/svg" width="24" height="24" fill="none">
  <g fill="#1C274C">
    <path fill-rule="evenodd" d="M2.25 6A.75.75 0 0 1 3 5.25h17a.75.75 0 0 1 0 1.5H3A.75.75 0 0 1 2.25 6Zm0 5a.75.75 0 0 1 .75-.75h6a.75.75 0 0 1 0 1.5H3a.75.75 0 0 1-.75-.75Zm0 5a.75.75 0 0 1 .75-.75h7a.75.75 0 0 1 0 1.5H3a.75.75 0 0 1-.75-.75Z" clip-rule="evenodd"/>
    <path d="M13 11.715c0 1.752 2.163 3.615 3.49 4.593.454.335.681.502 1.01.502.329 0 .556-.167 1.01-.502 1.327-.978 3.49-2.84 3.49-4.593 0-2.677-2.475-3.677-4.5-1.609-2.025-2.068-4.5-1.068-4.5 1.609Z"/>
  </g>
</svg>
