<svg xmlns="http://www.w3.org/2000/svg" width="24" height="24" fill="none">
  <path fill="#1C274C" fill-rule="evenodd" d="M3 6.75A.75.75 0 0 1 3.75 6h17a.75.75 0 0 1 0 1.5h-17A.75.75 0 0 1 3 6.75Zm18.211 4.409a.75.75 0 0 1 .13 1.052l-3.9 5a.75.75 0 0 1-1.165.021l-2.1-2.5a.75.75 0 1 1 1.148-.964l1.504 1.79 3.33-4.27a.75.75 0 0 1 1.053-.13ZM3 11.75a.75.75 0 0 1 .75-.75h7a.75.75 0 0 1 0 1.5h-7a.75.75 0 0 1-.75-.75Zm0 5a.75.75 0 0 1 .75-.75h7a.75.75 0 0 1 0 1.5h-7a.75.75 0 0 1-.75-.75Z" clip-rule="evenodd"/>
</svg>
