<svg xmlns="http://www.w3.org/2000/svg" width="24" height="24" fill="none">
  <g fill="#1C274C" fill-rule="evenodd" clip-rule="evenodd">
    <path d="M9.25 16a2.75 2.75 0 1 1 5.5 0 2.75 2.75 0 0 1-5.5 0ZM12 14.75a1.25 1.25 0 1 0 0 2.5 1.25 1.25 0 0 0 0-2.5Z"/>
    <path d="M6.75 8a5.25 5.25 0 0 1 10.335-1.313.75.75 0 0 0 1.452-.374A6.75 6.75 0 0 0 5.25 8v1.303c-.227.016-.44.036-.642.064-.9.12-1.658.38-2.26.981-.602.602-.86 1.36-.981 2.26-.117.867-.117 1.97-.117 3.337v.11c0 1.367 0 2.47.117 3.337.12.9.38 1.658.981 2.26.602.602 1.36.86 2.26.982.867.116 1.97.116 3.337.116h8.11c1.367 0 2.47 0 3.337-.116.9-.122 1.658-.38 2.26-.982.602-.602.86-1.36.982-2.26.116-.867.116-1.97.116-3.337v-.11c0-1.367 0-2.47-.116-3.337-.122-.9-.38-1.658-.982-2.26-.602-.602-1.36-.86-2.26-.981-.867-.117-1.97-.117-3.337-.117h-8.11c-.423 0-.821 0-1.195.003V8Zm-1.942 2.853c-.734.099-1.122.28-1.399.556-.277.277-.457.665-.556 1.4-.101.755-.103 1.756-.103 3.191 0 1.435.002 2.436.103 3.192.099.734.28 1.122.556 1.399.277.277.665.457 1.4.556.754.101 1.756.103 3.191.103h8c1.435 0 2.436-.002 3.192-.103.734-.099 1.122-.28 1.399-.556.277-.277.457-.665.556-1.4.101-.755.103-1.756.103-3.191 0-1.435-.002-2.437-.103-3.192-.099-.734-.28-1.122-.556-1.399-.277-.277-.665-.457-1.4-.556-.755-.101-1.756-.103-3.191-.103H8c-1.435 0-2.437.002-3.192.103Z"/>
  </g>
</svg>
