<svg xmlns="http://www.w3.org/2000/svg" width="24" height="24" fill="none">
  <path fill="#1C274C" fill-rule="evenodd" d="M3.5 9.568v4.864c0 2.294 0 3.44.722 4.153.655.647 1.674.706 3.596.712a7.656 7.656 0 0 1-.015-.105c-.115-.844-.115-1.916-.115-3.247v-.053c0-.403.331-.73.74-.73.408 0 .739.327.739.73 0 1.396.001 2.37.101 3.105.098.714.275 1.093.548 1.362.273.27.656.445 1.379.54.744.1 1.731.101 3.146.101h.985c1.415 0 2.401-.002 3.146-.1.723-.096 1.106-.272 1.378-.541.273-.27.451-.648.548-1.362.1-.734.102-1.709.102-3.105V8.108c0-1.397-.002-2.37-.102-3.106-.097-.713-.275-1.092-.547-1.36-.273-.27-.656-.446-1.38-.542-.744-.098-1.73-.1-3.145-.1h-.985c-1.415 0-2.402.002-3.146.1-.723.096-1.106.272-1.379.541-.273.27-.45.648-.548 1.362-.1.734-.101 1.708-.101 3.105 0 .403-.331.73-.74.73a.734.734 0 0 1-.739-.73v-.053c0-1.33 0-2.403.115-3.247l.015-.105c-1.922.006-2.94.065-3.596.712-.722.713-.722 1.86-.722 4.153Zm9.885 5.38 2.464-2.432a.723.723 0 0 0 0-1.032l-2.464-2.432a.746.746 0 0 0-1.045 0 .723.723 0 0 0 0 1.032l1.202 1.186H6.457a.734.734 0 0 0-.74.73c0 .403.331.73.74.73h7.085l-1.202 1.186a.723.723 0 0 0 0 1.032.746.746 0 0 0 1.045 0Z" clip-rule="evenodd"/>
</svg>
