<svg xmlns="http://www.w3.org/2000/svg" width="24" height="24" fill="none">
  <g fill="#1C274C">
    <path fill-rule="evenodd" d="M1.25 12A9.75 9.75 0 0 1 11 2.25h5.5a2.25 2.25 0 0 1 2.25 2.25V6a2.25 2.25 0 0 1-2.25 2.25h-5.556a3.75 3.75 0 0 0 0 7.5H16.5A2.25 2.25 0 0 1 18.75 18v1.5a2.25 2.25 0 0 1-2.25 2.25H11A9.75 9.75 0 0 1 1.25 12ZM11 3.75a8.25 8.25 0 1 0 0 16.5h2.694v-3h-2.75a5.25 5.25 0 0 1 0-10.5h2.75v-3H11Zm4.194 0v3H16.5a.75.75 0 0 0 .75-.75V4.5a.75.75 0 0 0-.75-.75h-1.306Zm0 13.5v3H16.5a.75.75 0 0 0 .75-.75V18a.75.75 0 0 0-.75-.75h-1.306Z" clip-rule="evenodd"/>
    <path d="M21.02 5.424a.75.75 0 0 1 1.056.096L21.5 6l.576-.48.001.001.002.002.003.003.007.01a2.408 2.408 0 0 1 .086.114 4.7 4.7 0 0 1 .203.311c.161.27.368.665.572 1.195.408 1.061.8 2.652.8 4.844s-.392 3.783-.8 4.844a7.72 7.72 0 0 1-.572 1.195 4.73 4.73 0 0 1-.289.425l-.007.01-.003.003-.002.002L21.5 18l.576.48a.75.75 0 0 1-1.156-.956l.003-.004.01-.014.021-.027a3.25 3.25 0 0 0 .137-.212 6.21 6.21 0 0 0 .459-.961c.342-.889.7-2.298.7-4.306s-.358-3.417-.7-4.306a6.211 6.211 0 0 0-.459-.961 3.272 3.272 0 0 0-.168-.253l-.003-.004.1-1.052Zm-.864 3.212a.75.75 0 0 0-1.317.719l.005.01c.007.015.02.043.038.087.035.087.087.235.141.447.11.424.227 1.111.227 2.101s-.118 1.677-.227 2.101a3.66 3.66 0 0 1-.179.534l-.005.01a.75.75 0 0 0 1.317.72v-.002l.001-.002.002-.003.004-.007.01-.018.026-.053a5.167 5.167 0 0 0 .278-.806c.14-.551.273-1.364.273-2.474s-.132-1.923-.273-2.474a5.17 5.17 0 0 0-.203-.631 2.965 2.965 0 0 0-.102-.228l-.01-.018-.003-.007-.002-.004-.001-.002Z"/>
  </g>
</svg>
