<svg xmlns="http://www.w3.org/2000/svg" width="24" height="24" fill="none">
  <g fill="#1C274C">
    <path d="M13.694 3H11a9 9 0 1 0 0 18h2.694v-4.5h-2.75a4.5 4.5 0 0 1 0-9h2.75V3Zm1.5 4.5H16.5A1.5 1.5 0 0 0 18 6V4.5A1.5 1.5 0 0 0 16.5 3h-1.306v4.5Zm0 9V21H16.5a1.5 1.5 0 0 0 1.5-1.5V18a1.5 1.5 0 0 0-1.5-1.5h-1.306Zm4.962-7.864a.75.75 0 0 0-1.317.719l.005.01c.007.015.02.043.038.087.035.087.087.235.141.447.11.424.227 1.111.227 2.101s-.118 1.677-.227 2.101a3.66 3.66 0 0 1-.179.534l-.005.01a.75.75 0 0 0 1.317.72L19.5 15l.656.364v-.001l.001-.002.002-.003.004-.007.01-.018.026-.053a5.173 5.173 0 0 0 .278-.806c.14-.551.273-1.364.273-2.474s-.132-1.923-.273-2.474a5.17 5.17 0 0 0-.203-.631 2.971 2.971 0 0 0-.102-.228l-.01-.018-.003-.007-.002-.004s-.001-.002-.657.362l.656-.364Z"/>
    <path d="M23.503 14.846a11.295 11.295 0 0 1-.553 1.998 7.72 7.72 0 0 1-.572 1.195 4.697 4.697 0 0 1-.289.425l-.007.01-.003.003-.002.002v.001a.75.75 0 0 1-1.157-.956l.003-.004.031-.041c.03-.042.078-.112.137-.212.12-.199.288-.516.459-.961.162-.42.327-.956.456-1.617.127-.65.22-1.42.24-2.32a16.554 16.554 0 0 0-.057-1.764c-.117-1.285-.383-2.244-.639-2.91a6.212 6.212 0 0 0-.459-.962 3.188 3.188 0 0 0-.168-.253l-.003-.004a.75.75 0 0 1 1.156-.956l.001.001.002.002.003.003.007.01a1.614 1.614 0 0 1 .086.114 4.7 4.7 0 0 1 .203.311c.161.27.368.665.572 1.195.301.783.594 1.855.726 3.243.047.493.074 1.027.074 1.601m0 0a15.62 15.62 0 0 1-.247 2.846L23.75 12Z"/>
  </g>
</svg>
