<svg xmlns="http://www.w3.org/2000/svg" width="24" height="24" fill="none">
  <g fill="#1C274C">
    <path d="M14.5 3H11a9 9 0 1 0 0 18h3.5v-4.5h-3.556a4.5 4.5 0 0 1 0-9H14.5V3Z"/>
    <path d="M23.503 14.846a11.295 11.295 0 0 1-.553 1.998 7.72 7.72 0 0 1-.572 1.195 4.697 4.697 0 0 1-.289.425l-.007.01-.003.003-.002.002v.001a.75.75 0 0 1-1.157-.956l.003-.004.031-.041c.03-.042.078-.112.137-.212.12-.199.288-.516.459-.961.162-.42.327-.956.456-1.617.127-.65.22-1.42.24-2.32a16.554 16.554 0 0 0-.057-1.764c-.117-1.285-.383-2.244-.639-2.91a6.212 6.212 0 0 0-.459-.962 3.188 3.188 0 0 0-.168-.253l-.003-.004a.75.75 0 0 1 1.156-.956l.001.001.002.002.003.003.007.01a1.614 1.614 0 0 1 .086.114 4.7 4.7 0 0 1 .203.311c.161.27.368.665.572 1.195.301.783.594 1.855.726 3.243.047.493.074 1.027.074 1.601m0 0a15.62 15.62 0 0 1-.247 2.846L23.75 12Z" opacity=".4"/>
    <path d="M20.156 8.636a.75.75 0 0 0-1.316.72l.005.01c.006.014.02.042.037.086.035.087.087.235.142.447.108.424.226 1.111.226 2.101s-.118 1.677-.226 2.101a3.671 3.671 0 0 1-.18.534l-.005.01a.75.75 0 0 0 1.317.72L19.5 15l.656.364.001-.002.002-.003.004-.008.01-.018.026-.053c.02-.043.046-.101.076-.175a5.2 5.2 0 0 0 .202-.631c.14-.551.273-1.364.273-2.474s-.132-1.923-.273-2.474a5.134 5.134 0 0 0-.202-.631 2.981 2.981 0 0 0-.103-.228l-.01-.018-.003-.007-.002-.003v-.002s-.001-.001-.657.363l.656-.364Z" opacity=".7"/>
    <path d="M14.5 7.5h2A1.5 1.5 0 0 0 18 6V4.5A1.5 1.5 0 0 0 16.5 3h-2v4.5Zm0 9V21h2a1.5 1.5 0 0 0 1.5-1.5V18a1.5 1.5 0 0 0-1.5-1.5h-2Z" opacity=".5"/>
  </g>
</svg>
