<svg xmlns="http://www.w3.org/2000/svg" width="24" height="24" fill="none">
  <g fill="#1C274C">
    <path d="M9.5 20v2a.75.75 0 0 0 1.5 0v-2H9.5Zm5.5 0h-1.5v2a.75.75 0 0 0 1.5 0v-2Z"/>
    <path fill-rule="evenodd" d="m17.385 6.585.256-.052a2.181 2.181 0 0 1 1.24.115c.69.277 1.446.328 2.165.148l.061-.015c.524-.131.893-.618.893-1.178v-2.13c0-.738-.664-1.282-1.355-1.109-.396.1-.812.071-1.193-.081l-.073-.03a3.517 3.517 0 0 0-2-.185l-.449.09c-.54.108-.93.6-.93 1.17v6.953c0 .397.31.719.692.719a.706.706 0 0 0 .693-.72V6.586Z" clip-rule="evenodd"/>
    <path d="M14.5 6v4.28c0 1.172.928 2.22 2.192 2.22 1.265 0 2.193-1.048 2.193-2.22V8.229c.76.205 1.56.23 2.335.067.492.842.78 1.86.78 2.955v6.175C22 18.847 21.012 20 19.793 20H12.5v-8.75c0-2.03-.832-3.974-2.217-5.25H14.5Z"/>
    <path fill-rule="evenodd" d="M2 11.25C2 8.35 4.015 6 6.5 6S11 8.35 11 11.25V20H4.233C3 20 2 18.834 2 17.395V11.25ZM4.25 16a.75.75 0 0 1 .75-.75h3a.75.75 0 0 1 0 1.5H5a.75.75 0 0 1-.75-.75Z" clip-rule="evenodd"/>
  </g>
</svg>
