<svg xmlns="http://www.w3.org/2000/svg" width="24" height="24" fill="none">
  <g stroke="#1C274C" stroke-linecap="round" stroke-width="1.5">
    <path d="M2 12c0 4.714 0 7.071 1.464 8.535C4.93 22 7.286 22 12 22c4.714 0 7.071 0 8.535-1.465C22 19.072 22 16.714 22 12s0-7.071-1.465-8.536C19.072 2 16.714 2 12 2S4.929 2 3.464 3.464c-.973.974-1.3 2.343-1.409 4.536"/>
    <path d="m14.52 14.5-1.097 2.862c-.319.83-1.483.857-1.731.04l-1.057-3.477a.836.836 0 0 0-.56-.56l-3.477-1.057c-.817-.248-.79-1.412.04-1.73l9.166-3.513a.863.863 0 0 1 1.13 1.131l-.966 2.524"/>
  </g>
</svg>
