<svg xmlns="http://www.w3.org/2000/svg" width="24" height="24" fill="none">
  <g fill="#1C274C">
    <path d="M3 8.71v8.128c0 1.043 0 1.565.283 1.958s.778.558 1.768.888l1.165.388c1.367.456 2.05.684 2.739.591L9 20.657v-14a3 3 0 0 1-.34.031c-.54.019-1.074-.16-2.141-.515-1.398-.466-2.097-.699-2.629-.462a1.5 1.5 0 0 0-.497.358C3 6.5 3 7.236 3 8.71Zm18 6.58V7.163c0-1.043 0-1.565-.283-1.958s-.778-.558-1.768-.888l-1.165-.388c-1.367-.456-2.05-.684-2.739-.591L15 3.343v14c.113-.017.227-.027.34-.031.54-.019 1.074.16 2.141.515 1.398.466 2.097.699 2.629.462a1.5 1.5 0 0 0 .497-.358C21 17.5 21 16.764 21 15.29Z" opacity=".5"/>
    <path d="M9.247 6.61A4.134 4.134 0 0 1 9 6.657v14c.67-.104 1.269-.503 2.442-1.285l1.382-.922c.936-.624 1.404-.936 1.93-1.06.08-.02.163-.035.246-.047v-14c-.67.103-1.269.503-2.442 1.284l-1.382.922c-.936.624-1.404.936-1.93 1.06Zm8.234 11.217.254.084-.254-.084Z"/>
  </g>
</svg>
