<svg xmlns="http://www.w3.org/2000/svg" width="24" height="24" fill="none">
  <g fill="#1C274C">
    <path fill-rule="evenodd" d="m15.913 9.38.845 3.297c.994 3.876-1.284 6.658-3.026 8.145-.531.454-.797.68-1.825.968-1.028.288-1.367.23-2.044.116-2.22-.377-5.523-1.597-6.516-5.473l-.845-3.297c-.441-1.719-.661-2.578-.37-3.253.098-.226.234-.432.401-.609.5-.525 1.346-.616 3.04-.798 1.255-.135 1.882-.202 2.493-.35a9.57 9.57 0 0 0 .632-.178c.6-.19 1.175-.46 2.326-.999 1.554-.727 2.331-1.091 3.015-.897.229.065.445.172.638.317.575.432.796 1.291 1.236 3.01Zm-9.908 3.988c.029-.296.26-.6.638-.702.379-.102.73.047.903.29a.75.75 0 0 0 1.22-.873c-.55-.77-1.552-1.123-2.511-.866-.96.257-1.651 1.064-1.743 2.006a.75.75 0 0 0 1.493.145Zm6.434-2.255c-.379.101-.61.406-.638.702a.75.75 0 0 1-1.493-.145c.092-.943.784-1.75 1.743-2.006.959-.257 1.961.095 2.512.866a.75.75 0 1 1-1.22.872c-.174-.242-.525-.39-.904-.29Zm.762 5.118.447-.602a.75.75 0 0 1-.885 1.211l-.01-.006a2.07 2.07 0 0 0-.485-.2c-.36-.098-.929-.163-1.685.04-.756.202-1.216.543-1.48.808a2.063 2.063 0 0 0-.32.416l-.005.01a.75.75 0 0 1-1.372-.607l.688.298-.688-.298V17.3l.001-.002.002-.004.004-.009.01-.022.033-.064a2.62 2.62 0 0 1 .115-.196c.1-.156.252-.36.468-.578.437-.44 1.125-.924 2.156-1.2 1.031-.277 1.87-.2 2.467-.038.296.08.53.18.694.266a2.63 2.63 0 0 1 .258.151l.02.015.008.005.003.003h.002l.001.002-.447.602Z" clip-rule="evenodd"/>
    <path d="m20.652 12.433.845-3.297c.44-1.719.661-2.578.37-3.253a2.078 2.078 0 0 0-.401-.609c-.5-.525-1.347-.616-3.04-.798-1.255-.135-1.882-.202-2.493-.35a9.559 9.559 0 0 1-.632-.178c-.6-.19-1.175-.46-2.326-.999-1.554-.727-2.331-1.091-3.015-.897a1.946 1.946 0 0 0-.638.317c-.575.432-.796 1.291-1.236 3.01l-.7 2.73-.044.157a8.374 8.374 0 0 0 1.355-.318c.6-.19 1.176-.46 2.327-.999 1.554-.727 2.33-1.091 3.014-.897.23.065.446.172.639.317.575.432.795 1.291 1.236 3.01l.845 3.298c.445 1.735.234 3.252-.292 4.531l.033.013c1.741-.75 3.479-2.157 4.153-4.788Z" opacity=".6"/>
    <path d="M15.728 8.666a.752.752 0 0 0 1.164-.07c.173-.243.524-.392.903-.29.379.101.61.406.638.702a.75.75 0 1 0 1.493-.145c-.092-.942-.784-1.749-1.743-2.006-.959-.257-1.961.096-2.512.866a.747.747 0 0 0-.124.285c.058.2.118.418.181.658ZM10.24 7.315c.23-.106.488-.227.784-.366 1.196-.56 1.932-.904 2.52-.945a2.401 2.401 0 0 0-1.157-.7c-.959-.257-1.961.096-2.512.866a.75.75 0 0 0 .365 1.145Z" opacity=".6"/>
  </g>
</svg>
