<svg xmlns="http://www.w3.org/2000/svg" width="24" height="24" fill="none">
  <g fill="#1C274C">
    <path d="M6.005 13.368c.029-.296.26-.6.638-.702.379-.102.73.047.903.29a.75.75 0 0 0 1.22-.873c-.55-.77-1.552-1.123-2.511-.866-.96.257-1.651 1.064-1.743 2.006a.75.75 0 1 0 1.493.145Zm5.796-1.553c.029-.296.26-.6.638-.702.379-.102.73.047.903.289a.75.75 0 0 0 1.22-.872c-.55-.77-1.552-1.123-2.511-.866-.96.257-1.651 1.063-1.743 2.006a.75.75 0 0 0 1.493.145Zm1.399 4.416.448-.602a.75.75 0 0 1-.885 1.211l-.01-.006a2.06 2.06 0 0 0-.485-.2c-.361-.098-.93-.163-1.686.04-.756.202-1.215.543-1.48.808a2.064 2.064 0 0 0-.32.416l-.005.01a.75.75 0 0 1-1.372-.607l.689.298-.689-.298.001-.001v-.002l.003-.004.003-.008.011-.023.032-.064c.027-.051.065-.118.115-.196.1-.156.252-.36.469-.578.436-.439 1.124-.924 2.155-1.2 1.031-.277 1.87-.2 2.467-.038.297.08.53.18.695.266a2.682 2.682 0 0 1 .257.151l.02.015.009.005.003.003h.001l.002.002-.447.602Z"/>
    <path fill-rule="evenodd" d="m13.252 2.25.042.02c1.167.547 1.692.791 2.235.963.193.061.387.116.583.164.552.134 1.122.197 2.395.334l.045.004c.808.087 1.48.16 2.01.28.554.127 1.054.328 1.448.743.23.24.414.521.546.827.225.52.226 1.064.144 1.64-.08.554-.253 1.232-.464 2.056l-.856 3.339c-.716 2.793-2.533 4.345-4.357 5.189-.725 1.574-1.863 2.78-2.804 3.583l-.021.018c-.25.214-.497.425-.82.61-.335.191-.724.34-1.269.493-.544.152-.953.227-1.338.236-.37.009-.687-.045-1.006-.1l-.028-.004c-2.321-.394-6.012-1.714-7.117-6.025l-.856-3.34c-.21-.823-.384-1.5-.464-2.056-.082-.575-.081-1.118.144-1.639.132-.306.317-.586.546-.827.394-.415.894-.616 1.448-.742.53-.122 1.201-.194 2.01-.28l.045-.005c.52-.056.921-.1 1.253-.14l.625-2.44c.211-.824.385-1.501.582-2.024.203-.54.466-1.017.92-1.358.265-.2.565-.348.884-.439.55-.156 1.084-.066 1.622.113.516.172 1.132.46 1.873.808Zm6.675 9.997c-.412 1.608-1.26 2.701-2.263 3.45a7.953 7.953 0 0 0-.18-3.207l-.93-3.632a.746.746 0 0 0 .338-.263c.173-.242.525-.39.904-.289.378.101.608.406.637.702a.75.75 0 1 0 1.493-.145c-.091-.942-.783-1.749-1.742-2.006a2.37 2.37 0 0 0-2.084.416 6.985 6.985 0 0 0-.053-.146c-.203-.54-.466-1.017-.92-1.358a2.698 2.698 0 0 0-.884-.439c-.52-.147-1.026-.075-1.533.085a2.448 2.448 0 0 0-.322-.111c-.96-.257-1.962.096-2.512.866a.748.748 0 0 0-.132.547c-.55.252-.908.4-1.273.516l-.092.03.434-1.697c.225-.877.38-1.474.543-1.91.161-.428.296-.596.417-.687.12-.09.254-.156.393-.196.133-.038.329-.043.74.094.422.14.958.39 1.752.762l.053.025c1.1.515 1.717.804 2.364 1.01.225.07.453.134.682.19.66.16 1.332.233 2.531.362l.059.006c.865.093 1.448.157 1.88.256.418.095.591.203.696.313.106.111.193.243.256.39.067.154.101.377.036.83-.066.465-.219 1.063-.443 1.939l-.845 3.297Zm-6.832-5.38c-.423.14-.959.39-1.753.762l-.053.025c-1.1.515-1.717.804-2.364 1.01-.225.07-.453.134-.682.19-.66.16-1.332.233-2.531.362l-.059.006c-.865.093-1.448.157-1.88.256-.418.095-.591.203-.696.313a1.328 1.328 0 0 0-.256.39c-.067.154-.101.377-.036.83.066.465.219 1.063.443 1.939l.845 3.297c.882 3.44 3.798 4.56 5.916 4.92.348.059.532.088.746.082.21-.005.486-.045.97-.18.483-.136.742-.245.929-.352.19-.109.338-.232.611-.465 1.67-1.425 3.672-3.936 2.787-7.39l-.845-3.296c-.225-.877-.38-1.474-.543-1.91-.161-.428-.296-.596-.417-.687a1.198 1.198 0 0 0-.393-.196c-.133-.038-.329-.043-.74.094Z" clip-rule="evenodd"/>
  </g>
</svg>
