<svg xmlns="http://www.w3.org/2000/svg" width="24" height="24" fill="none">
  <g fill="#1C274C">
    <path d="M7.17 9.335c.124-.247.587-.585 1.33-.585.743 0 1.206.338 1.33.585a.75.75 0 1 0 1.34-.67C10.713 7.747 9.604 7.25 8.5 7.25s-2.212.497-2.67 1.415a.75.75 0 1 0 1.34.67Zm8.33-.585c-.743 0-1.206.338-1.33.585a.75.75 0 0 1-1.34-.67c.458-.918 1.566-1.415 2.67-1.415 1.104 0 2.212.497 2.67 1.415a.75.75 0 1 1-1.34.67c-.124-.247-.587-.585-1.33-.585Z"/>
    <path fill-rule="evenodd" d="m8.835 2.212-1.11-.185c-1.033-.172-1.888-.315-2.57-.331-.716-.017-1.379.098-1.933.567-.553.468-.776 1.103-.876 1.812-.096.675-.096 1.54-.096 2.587V12c0 5.964 4.624 8.814 7.355 9.976l.027.012c.34.144.658.28 1.024.371.386.096.796.137 1.344.137s.958-.04 1.344-.137c.366-.091.684-.227 1.024-.372l.027-.01c2.731-1.163 7.355-4.013 7.355-9.977V6.662c0-1.047 0-1.912-.096-2.587-.1-.709-.323-1.344-.877-1.812-.553-.47-1.216-.584-1.932-.567-.682.016-1.537.159-2.57.331l-1.11.185c-1.664.277-2.414.4-3.165.4-.751 0-1.501-.123-3.165-.4ZM4.192 3.407c.154-.13.384-.225.927-.211.563.013 1.312.136 2.415.32l1.128.188c1.57.262 2.448.408 3.338.408.89 0 1.767-.146 3.338-.408l1.128-.188c1.103-.184 1.852-.307 2.415-.32.543-.014.773.08.927.211.154.13.285.342.361.879.08.557.081 1.315.081 2.433V12c0 5.017-3.854 7.495-6.442 8.596-.371.158-.587.248-.827.308-.23.057-.51.092-.981.092s-.751-.035-.981-.092c-.24-.06-.456-.15-.827-.308C7.604 19.495 3.75 17.016 3.75 12V6.719c0-1.118.002-1.876.081-2.433.076-.537.207-.749.361-.879Z" clip-rule="evenodd"/>
    <path d="M7.957 13.483a.753.753 0 0 0 .028 1.063l.03.027.06.05c.05.04.117.093.203.152.173.118.421.266.751.412.663.29 1.64.563 2.971.563 1.33 0 2.308-.272 2.97-.563.33-.146.58-.294.752-.412a3.046 3.046 0 0 0 .262-.202l.02-.018.008-.006.003-.003.001-.002h.001a.75.75 0 0 0-1.026-1.095l-.006.005-.01.008a1.557 1.557 0 0 1-.101.076c-.101.069-.268.17-.507.275-.475.21-1.247.437-2.367.437-1.12 0-1.892-.228-2.367-.437a3.126 3.126 0 0 1-.59-.335.827.827 0 0 1-.019-.016l-.014-.012a.75.75 0 0 0-1.053.033Z"/>
  </g>
</svg>
