<svg xmlns="http://www.w3.org/2000/svg" width="24" height="24" fill="none">
  <path fill="#1C274C" fill-rule="evenodd" d="M10.948 1.25h2.104c.898 0 1.648 0 2.242.08.628.084 1.195.27 1.65.725.456.456.642 1.023.726 1.65.08.595.08 1.345.08 2.243v1.333l.84.458a3.75 3.75 0 0 1 1.954 3.292v4.938a3.75 3.75 0 0 1-1.955 3.292l-4.794 2.614a3.75 3.75 0 0 1-3.59 0L5.41 19.261a3.75 3.75 0 0 1-1.954-3.292V11.03A3.75 3.75 0 0 1 5.41 7.74l.84-.458V5.948c0-.898 0-1.648.08-2.242.084-.628.27-1.195.725-1.65.456-.456 1.023-.642 1.65-.726.595-.08 1.344-.08 2.243-.08ZM7.75 6.463l2.455-1.338a3.75 3.75 0 0 1 3.59 0l2.455 1.338V6c0-.964-.002-1.612-.067-2.095-.062-.461-.169-.659-.3-.789-.13-.13-.327-.237-.789-.3-.483-.064-1.13-.066-2.094-.066h-2c-.964 0-1.612.002-2.095.067-.461.062-.659.169-.79.3-.13.13-.237.327-.299.788C7.751 4.388 7.75 5.036 7.75 6v.463Zm5.327-.021a2.25 2.25 0 0 0-2.154 0L6.128 9.056a2.25 2.25 0 0 0-1.172 1.975v4.938c0 .823.45 1.581 1.172 1.975l4.795 2.614a2.25 2.25 0 0 0 2.154 0l4.794-2.614a2.25 2.25 0 0 0 1.173-1.975V11.03a2.25 2.25 0 0 0-1.173-1.975l-4.794-2.614ZM12 11.535c-.058.1-.123.216-.2.353l-.098.176c-.006.013-.014.026-.022.04-.078.144-.208.382-.425.547-.222.168-.488.226-.644.26l-.043.01-.19.042c-.176.04-.319.072-.44.103.079.098.182.219.316.376l.13.152c.01.01.02.022.03.035.108.124.282.325.363.584.08.256.052.52.035.686a3.802 3.802 0 0 0-.005.047l-.02.203a35.76 35.76 0 0 0-.042.46c.105-.045.223-.1.364-.165l.179-.082.04-.019c.143-.068.393-.185.672-.185.278 0 .528.117.672.185l.04.019.179.082c.14.065.26.12.363.165-.01-.122-.023-.272-.041-.46l-.02-.203a3.802 3.802 0 0 0-.005-.047c-.017-.166-.045-.43.035-.686.08-.26.255-.46.363-.584l.03-.035.13-.152c.134-.157.237-.278.316-.376-.122-.03-.264-.063-.44-.103l-.19-.043a2.955 2.955 0 0 0-.044-.01c-.155-.033-.422-.091-.643-.26-.217-.164-.347-.402-.426-.545a15.245 15.245 0 0 0-.022-.04l-.098-.177a15.824 15.824 0 0 0-.2-.353Zm-.987-1.235c.172-.225.485-.55.987-.55s.814.325.986.55c.165.214.33.511.5.816l.023.042.098.176.057.1.098.023.191.043.047.01c.328.075.654.149.904.247.276.109.65.32.795.785.142.456-.037.841-.194 1.09-.144.23-.364.486-.589.749l-.03.036-.13.152-.083.097.013.135.02.203.004.046c.034.352.067.693.055.965-.013.285-.081.717-.468 1.01-.4.304-.84.238-1.12.158-.258-.074-.563-.215-.87-.356a8.649 8.649 0 0 0-.044-.02l-.178-.082-.085-.04-.085.04-.179.082-.044.02c-.307.141-.611.282-.869.356-.28.08-.72.146-1.12-.157-.387-.294-.456-.726-.468-1.011-.013-.272.02-.613.055-.964l.004-.047.02-.203c.005-.056.01-.099.012-.135a9.83 9.83 0 0 0-.082-.097l-.13-.152-.03-.036c-.226-.263-.445-.52-.59-.75-.156-.248-.335-.633-.193-1.09.144-.463.518-.675.795-.784.25-.098.575-.172.903-.246l.047-.01.191-.044.099-.023.056-.1.099-.176.023-.042c.17-.305.335-.602.5-.816Z" clip-rule="evenodd"/>
</svg>
