<svg xmlns="http://www.w3.org/2000/svg" width="24" height="24" fill="none">
  <path fill="#1C274C" fill-rule="evenodd" d="M10.948 1.25h2.104c.899 0 1.648 0 2.242.08.628.084 1.195.27 1.65.725.456.456.642 1.023.726 1.65.08.595.08 1.345.08 2.243v1.456a8.75 8.75 0 1 1-11.5 0V5.948c0-.898 0-1.648.08-2.242.084-.628.27-1.195.725-1.65.456-.456 1.023-.642 1.65-.726.595-.08 1.345-.08 2.243-.08ZM7.75 6.35A8.71 8.71 0 0 1 12 5.25c1.542 0 2.992.4 4.25 1.1V6c0-.964-.002-1.612-.067-2.095-.062-.461-.169-.659-.3-.789-.13-.13-.327-.237-.788-.3-.483-.064-1.131-.066-2.095-.066h-2c-.964 0-1.612.002-2.095.067-.461.062-.659.169-.789.3-.13.13-.237.327-.3.788C7.753 4.388 7.75 5.036 7.75 6v.35Zm4.25.4a7.25 7.25 0 1 0 0 14.5 7.25 7.25 0 0 0 0-14.5Zm0 5.284c-.058.101-.123.217-.199.354l-.098.176-.023.04c-.078.144-.208.382-.425.547-.221.168-.488.226-.643.26l-.044.009-.19.043c-.176.04-.319.072-.44.103.079.097.182.219.316.375l.13.153.03.034c.108.125.282.325.363.585.08.256.052.52.035.686a3.802 3.802 0 0 0-.005.047l-.02.203a35.76 35.76 0 0 0-.042.46c.105-.046.223-.1.364-.165l.179-.082.04-.02c.144-.067.393-.184.672-.184s.528.117.672.185l.04.019.179.082c.14.065.26.12.364.165a35.76 35.76 0 0 0-.042-.46l-.02-.203a4.013 4.013 0 0 0-.005-.047c-.017-.167-.045-.43.035-.686.08-.26.255-.46.363-.585l.03-.034.13-.152c.134-.157.237-.279.316-.376-.121-.03-.264-.063-.44-.103l-.19-.043-.044-.01c-.155-.033-.422-.091-.643-.26-.217-.164-.347-.402-.425-.545l-.023-.041-.098-.176c-.076-.137-.14-.253-.199-.354Zm-.986-1.234c.172-.225.484-.55.986-.55s.814.325.986.55c.165.214.33.511.5.816l.023.041.098.177.057.1.099.023.19.043.048.01c.327.075.653.148.903.247.276.109.65.32.795.785.142.455-.037.841-.193 1.09-.145.23-.365.486-.59.749l-.03.035-.13.153-.082.097c.002.036.007.078.012.135l.02.203.004.046c.034.352.067.692.055.965-.012.285-.08.716-.468 1.01-.4.304-.84.238-1.12.157-.258-.073-.563-.214-.87-.355l-.043-.02-.18-.083-.084-.039-.085.04-.179.082-.044.02c-.306.141-.611.282-.869.355-.28.08-.72.147-1.12-.157-.387-.293-.456-.725-.468-1.01-.012-.273.02-.613.055-.965l.004-.046.02-.203.013-.135a9.946 9.946 0 0 0-.083-.097l-.13-.153a48.37 48.37 0 0 1-.03-.035c-.225-.263-.445-.52-.59-.75-.156-.248-.335-.634-.193-1.09.144-.463.519-.675.795-.784.25-.099.576-.172.903-.246l.047-.01.191-.044.1-.023.056-.1.098-.177.023-.041c.17-.305.335-.602.5-.816Z" clip-rule="evenodd"/>
</svg>
