<svg xmlns="http://www.w3.org/2000/svg" width="24" height="24" fill="none">
  <g stroke="#1C274C" stroke-width="1.5">
    <path d="M17 8V6c0-1.886 0-2.828-.586-3.414C15.828 2 14.886 2 13 2h-2c-1.886 0-2.828 0-3.414.586C7 3.172 7 4.114 7 6v2"/>
    <path stroke-linecap="round" d="M19.794 11.031a3 3 0 0 0-1.564-2.634l-4.794-2.614a3 3 0 0 0-2.872 0L5.77 8.397a3 3 0 0 0-1.564 2.634v4.938a3 3 0 0 0 1.564 2.634l4.794 2.614a3 3 0 0 0 2.872 0l4.794-2.614a3 3 0 0 0 1.564-2.634V15"/>
    <path d="M11.146 11.523c.38-.682.57-1.023.854-1.023.284 0 .474.341.854 1.023l.098.176c.108.194.162.29.246.355.085.063.19.087.4.135l.19.043c.738.167 1.107.25 1.195.533.088.282-.164.576-.667 1.164l-.13.152c-.143.168-.215.251-.247.355-.032.103-.021.214 0 .438l.02.203c.076.784.114 1.177-.115 1.351-.23.175-.576.016-1.267-.302l-.178-.083c-.197-.09-.295-.135-.399-.135-.104 0-.202.045-.399.135l-.178.083c-.691.318-1.037.477-1.267.302-.23-.174-.191-.567-.115-1.351l.02-.204c.021-.223.032-.334 0-.437-.032-.104-.104-.187-.247-.355l-.13-.152c-.503-.588-.755-.882-.667-1.164.088-.283.457-.366 1.195-.533l.19-.043c.21-.048.315-.072.4-.135.084-.064.138-.161.246-.355l.098-.176Z"/>
  </g>
</svg>
