<svg xmlns="http://www.w3.org/2000/svg" width="24" height="24" fill="none">
  <g fill="#1C274C">
    <path d="M3.464 3.464C2 4.93 2 7.286 2 12c0 4.714 0 7.071 1.464 8.535C4.93 22 7.286 22 12 22c4.714 0 7.071 0 8.535-1.465C22 19.072 22 16.714 22 12s0-7.071-1.465-8.536C19.072 2 16.714 2 12 2S4.929 2 3.464 3.464Z" opacity=".5"/>
    <path fill-rule="evenodd" d="M12 6.75a5.25 5.25 0 1 0 0 10.5.75.75 0 0 1 0 1.5 6.75 6.75 0 1 1 6.344-4.44 2.29 2.29 0 0 1-.609.894l-.08.074a2.387 2.387 0 0 1-3.782-.745A3.15 3.15 0 1 1 15.15 12v1.524a.886.886 0 0 0 1.488.652l.08-.075a.796.796 0 0 0 .216-.304A5.25 5.25 0 0 0 12 6.75Zm0 3.6a1.65 1.65 0 1 1 0 3.3 1.65 1.65 0 0 1 0-3.3Z" clip-rule="evenodd"/>
  </g>
</svg>
