<svg xmlns="http://www.w3.org/2000/svg" width="24" height="24" fill="none">
  <g fill="#1C274C">
    <path fill-rule="evenodd" d="M4 9a.75.75 0 0 1 .75.75v1a7.25 7.25 0 1 0 14.5 0v-1a.75.75 0 0 1 1.5 0v1a8.75 8.75 0 0 1-8 8.718v2.282a.75.75 0 0 1-1.5 0v-2.282a8.75 8.75 0 0 1-8-8.718v-1A.75.75 0 0 1 4 9Z" clip-rule="evenodd"/>
    <path fill-rule="evenodd" d="M12 2a5.75 5.75 0 0 0-5.75 5.75v3a5.75 5.75 0 0 0 11.5 0v-3A5.75 5.75 0 0 0 12 2Zm2 9.5a.75.75 0 0 0 0-1.5h-4a.75.75 0 0 0 0 1.5h4Zm-.25-3.75a.75.75 0 0 1-.75.75h-2A.75.75 0 0 1 11 7h2a.75.75 0 0 1 .75.75Z" clip-rule="evenodd" opacity=".5"/>
    <path d="M14 11.5a.75.75 0 0 0 0-1.5h-4a.75.75 0 0 0 0 1.5h4Zm-1-3A.75.75 0 0 0 13 7h-2a.75.75 0 0 0 0 1.5h2Z"/>
  </g>
</svg>
