<svg xmlns="http://www.w3.org/2000/svg" width="24" height="24" fill="none">
  <g fill="#1C274C">
    <path d="M11.943 1.25h.114c2.309 0 4.118 0 5.53.19 1.444.194 2.584.6 3.479 1.494.895.895 1.3 2.035 1.494 3.48.19 1.411.19 3.22.19 5.529v.114c0 2.309 0 4.118-.19 5.53-.194 1.444-.6 2.584-1.494 3.479-.829.828-1.868 1.238-3.167 1.448-1.277.207-2.883.232-4.898.235a.75.75 0 1 1-.002-1.5c2.04-.003 3.523-.031 4.66-.216 1.117-.18 1.818-.5 2.346-1.028.57-.57.897-1.34 1.069-2.619.174-1.3.176-3.008.176-5.386s-.002-4.086-.177-5.386c-.171-1.279-.498-2.05-1.068-2.62-.57-.569-1.34-.896-2.619-1.068-1.3-.174-3.008-.176-5.386-.176s-4.087.002-5.387.176c-1.278.172-2.049.5-2.618 1.069-.529.528-.848 1.23-1.028 2.345-.185 1.138-.213 2.621-.217 4.661A.75.75 0 0 1 1.25 11c.004-2.016.03-3.622.236-4.898.21-1.3.62-2.338 1.448-3.167.895-.895 2.035-1.3 3.48-1.494 1.411-.19 3.22-.19 5.529-.19Z"/>
    <path d="M16.5 12a.75.75 0 0 1-.75.75H12a.75.75 0 0 1-.75-.75V8.25a.75.75 0 0 1 1.5 0v1.94l3.72-3.72a.75.75 0 1 1 1.06 1.06l-3.72 3.72h1.94a.75.75 0 0 1 .75.75Z"/>
    <path fill-rule="evenodd" d="M5.948 13.25c-.898 0-1.648 0-2.242.08-.628.084-1.195.27-1.65.726-.456.455-.642 1.022-.726 1.65-.08.594-.08 1.343-.08 2.242v.104c0 .899 0 1.648.08 2.242.084.628.27 1.195.725 1.65.456.456 1.023.642 1.65.726.595.08 1.345.08 2.243.08h.104c.898 0 1.648 0 2.242-.08.628-.084 1.195-.27 1.65-.726.456-.455.642-1.022.726-1.65.08-.594.08-1.343.08-2.242v-.104c0-.899 0-1.648-.08-2.242-.084-.628-.27-1.195-.725-1.65-.456-.456-1.023-.642-1.65-.726-.595-.08-1.345-.08-2.243-.08h-.104Zm-2.832 1.866c.13-.13.328-.237.79-.3.482-.064 1.13-.066 2.094-.066s1.612.002 2.095.066c.461.063.659.17.789.3.13.13.237.328.3.79.064.482.066 1.13.066 2.094s-.002 1.612-.067 2.095c-.062.461-.169.659-.3.789-.13.13-.327.237-.788.3-.483.064-1.131.066-2.095.066-.964 0-1.612-.002-2.095-.067-.461-.062-.659-.169-.789-.3-.13-.13-.237-.327-.3-.788-.064-.483-.066-1.131-.066-2.095 0-.964.002-1.612.067-2.095.062-.461.169-.659.3-.789Z" clip-rule="evenodd"/>
  </g>
</svg>
