<svg xmlns="http://www.w3.org/2000/svg" width="24" height="24" fill="none">
  <g fill="#1C274C">
    <path d="M3.25 12.75v-2c0-3.771 0-5.657 1.172-6.828C5.514 2.829 8.098 2.755 11.5 2.75a.75.75 0 0 1 1.5 0v18a.75.75 0 0 1-1.5 0c-3.402-.005-5.986-.079-7.078-1.172C3.25 18.407 3.25 16.521 3.25 12.75Z"/>
    <path fill-rule="evenodd" d="M13.59 2.75c0 .414.337.75.75.75h.91c.436 0 .835 0 1.202.003a.75.75 0 0 0 .013-1.5C16.09 2 15.685 2 15.252 2h-.911a.75.75 0 0 0-.75.75Zm0 18c0 .414.337.75.75.75h.912c.434 0 .838 0 1.213-.003a.75.75 0 0 0-.013-1.5c-.367.003-.766.003-1.202.003h-.91a.75.75 0 0 0-.75.75Zm5.031-17.945a.75.75 0 0 0 .494.938c.32.1.544.235.726.416.181.181.316.405.415.726a.75.75 0 0 0 1.433-.445 3.175 3.175 0 0 0-.787-1.342 3.176 3.176 0 0 0-1.342-.787.75.75 0 0 0-.939.494Zm0 17.89a.75.75 0 0 0 .939.494c.515-.16.962-.408 1.342-.787.38-.38.627-.827.787-1.342a.75.75 0 1 0-1.433-.445c-.1.321-.234.545-.415.726a1.692 1.692 0 0 1-.726.416.75.75 0 0 0-.494.938Zm2.62-13.904a.75.75 0 0 0-.744.757c.003.367.003.766.003 1.202v1.364a.75.75 0 0 0 1.5 0V8.748c0-.434 0-.839-.003-1.213a.75.75 0 0 0-.757-.744Zm0 9.918a.75.75 0 0 0 .756-.744c.003-.374.003-.779.003-1.213v-1.366a.75.75 0 0 0-1.5 0v1.364c0 .436 0 .835-.003 1.202a.75.75 0 0 0 .743.757Z" clip-rule="evenodd" opacity=".5"/>
  </g>
</svg>
