<svg xmlns="http://www.w3.org/2000/svg" width="24" height="24" fill="none">
  <g fill="#1C274C">
    <path fill-rule="evenodd" d="M13.34 20.75a.75.75 0 0 1 .75-.75H15c.436 0 .835 0 1.202-.003a.75.75 0 0 1 .013 1.5c-.374.003-.78.003-1.213.003h-.911a.75.75 0 0 1-.75-.75Zm0-18a.75.75 0 0 1 .75-.75h.912c.434 0 .838 0 1.213.003a.75.75 0 1 1-.013 1.5C15.835 3.5 15.436 3.5 15 3.5h-.91a.75.75 0 0 1-.75-.75Zm5.031 17.945a.75.75 0 0 1 .494-.938c.32-.1.544-.235.726-.416.181-.181.316-.405.415-.726a.75.75 0 0 1 1.433.445c-.16.515-.408.962-.787 1.342-.38.38-.827.627-1.342.787a.75.75 0 0 1-.939-.494Zm0-17.89a.75.75 0 0 1 .939-.494c.515.16.962.408 1.342.787.38.38.627.827.787 1.342a.75.75 0 1 1-1.433.445c-.1-.321-.234-.545-.415-.726a1.692 1.692 0 0 0-.726-.416.75.75 0 0 1-.494-.938Zm2.62 13.904a.75.75 0 0 1-.744-.757c.003-.367.003-.766.003-1.202v-1.364a.75.75 0 0 1 1.5 0v1.366c0 .434 0 .839-.003 1.213a.75.75 0 0 1-.757.744Zm0-9.918a.75.75 0 0 1 .756.744c.003.374.003.779.003 1.213v1.366a.75.75 0 1 1-1.5 0V8.75c0-.436 0-.835-.003-1.202a.75.75 0 0 1 .743-.757Z" clip-rule="evenodd"/>
    <path d="M3 10.75v2c0 3.771 0 5.657 1.172 6.828 1.092 1.093 3.676 1.167 7.078 1.172a.75.75 0 0 0 1.5 0v-18a.75.75 0 0 0-1.5 0c-3.402.005-5.986.079-7.078 1.172C3 5.093 3 6.979 3 10.75Z"/>
  </g>
</svg>
