<svg xmlns="http://www.w3.org/2000/svg" width="24" height="24" fill="none">
  <path fill="#1C274C" fill-rule="evenodd" d="M12.052 1.25h-.104c-.899 0-1.648 0-2.242.08-.628.084-1.195.27-1.65.725-.456.456-.642 1.023-.726 1.65-.057.427-.074 1.446-.078 2.32-2.022.067-3.237.303-4.08 1.147C2 8.343 2 10.229 2 14c0 3.771 0 5.657 1.172 6.828C4.343 22 6.229 22 10 22h4c3.771 0 5.657 0 6.828-1.172C22 19.657 22 17.771 22 14c0-3.771 0-5.657-1.172-6.828-.843-.844-2.058-1.08-4.08-1.146-.004-.875-.02-1.894-.078-2.32-.084-.628-.27-1.195-.726-1.65-.455-.456-1.022-.642-1.65-.726-.594-.08-1.344-.08-2.242-.08Zm3.196 4.752c-.005-.847-.019-1.758-.064-2.097-.063-.461-.17-.659-.3-.789-.13-.13-.328-.237-.79-.3-.482-.064-1.13-.066-2.094-.066s-1.612.002-2.095.067c-.461.062-.659.169-.789.3-.13.13-.237.327-.3.788-.045.34-.06 1.25-.064 2.097C9.143 6 9.56 6 10 6h4c.441 0 .857 0 1.248.002ZM12 9.25a.75.75 0 0 1 .75.75v.01c1.089.274 2 1.133 2 2.323a.75.75 0 0 1-1.5 0c0-.384-.426-.916-1.25-.916-.824 0-1.25.532-1.25.916s.426.917 1.25.917c1.385 0 2.75.96 2.75 2.417 0 1.19-.911 2.048-2 2.323V18a.75.75 0 0 1-1.5 0v-.01c-1.089-.274-2-1.133-2-2.323a.75.75 0 0 1 1.5 0c0 .384.426.916 1.25.916.824 0 1.25-.532 1.25-.916s-.426-.917-1.25-.917c-1.385 0-2.75-.96-2.75-2.417 0-1.19.911-2.049 2-2.323V10a.75.75 0 0 1 .75-.75Z" clip-rule="evenodd"/>
</svg>
