<svg xmlns="http://www.w3.org/2000/svg" width="24" height="24" fill="none">
  <path fill="#1C274C" fill-rule="evenodd" d="M9.944 1.25h4.112c1.838 0 3.294 0 4.433.153 1.172.158 2.121.49 2.87 1.238.748.749 1.08 1.698 1.238 2.87.153 1.14.153 2.595.153 4.433v1.11c0 .663 0 1.264-.013 1.805a.751.751 0 0 1-.01.327c-.017.444-.045.845-.093 1.206-.122.9-.38 1.658-.982 2.26-.602.602-1.36.86-2.26.982-.867.116-1.97.116-3.337.116H12.75v3.5H16a.75.75 0 0 1 0 1.5H8a.75.75 0 0 1 0-1.5h3.25v-3.5H7.945c-1.367 0-2.47 0-3.337-.116-.9-.122-1.658-.38-2.26-.982-.602-.602-.86-1.36-.981-2.26-.049-.36-.077-.762-.094-1.206a.751.751 0 0 1-.01-.327c-.013-.541-.013-1.142-.013-1.804V9.944c0-1.838 0-3.294.153-4.433.158-1.172.49-2.121 1.238-2.87.749-.748 1.698-1.08 2.87-1.238 1.14-.153 2.595-.153 4.433-.153Zm-7.137 12.5c.012.156.028.303.046.442.099.734.28 1.122.556 1.399.277.277.665.457 1.4.556.754.101 1.756.103 3.191.103h8c1.435 0 2.436-.002 3.192-.103.734-.099 1.122-.28 1.399-.556.277-.277.457-.665.556-1.4a8.31 8.31 0 0 0 .046-.441H2.807Zm18.44-1.5H2.753c-.004-.376-.004-.791-.004-1.25v-1c0-1.907.002-3.261.14-4.29.135-1.005.389-1.585.812-2.008.423-.423 1.003-.677 2.009-.812 1.028-.138 2.382-.14 4.289-.14h4c1.907 0 3.262.002 4.29.14 1.005.135 1.585.389 2.008.812.423.423.677 1.003.812 2.009.138 1.028.14 2.382.14 4.289v1c0 .459 0 .874-.004 1.25Z" clip-rule="evenodd"/>
</svg>
