<svg xmlns="http://www.w3.org/2000/svg" width="24" height="24" fill="none">
  <path fill="#1C274C" fill-rule="evenodd" d="M9.944 1.25h5.59c1.139 0 2.04 0 2.766.062.743.063 1.37.195 1.94.499a4.75 4.75 0 0 1 1.95 1.95c.303.569.435 1.196.498 1.939.062.725.062 1.627.062 2.766V8.5a.75.75 0 0 1-1.5 0c0-1.18 0-2.018-.056-2.673-.055-.646-.16-1.044-.328-1.359a3.25 3.25 0 0 0-1.334-1.334c-.315-.168-.713-.273-1.359-.328-.655-.055-1.493-.056-2.673-.056H10c-1.907 0-3.261.002-4.29.14-1.005.135-1.585.389-2.008.812-.423.423-.677 1.003-.812 2.009-.138 1.028-.14 2.382-.14 4.289v1c0 .459 0 .874.004 1.25H11a.75.75 0 0 1 0 1.5H2.807c.012.156.028.303.046.442.099.734.28 1.122.556 1.399.277.277.665.457 1.4.556.754.101 1.756.103 3.191.103h3a.75.75 0 0 1 .75.75v5a.75.75 0 0 1-.75.75H8a.75.75 0 0 1 0-1.5h2.25v-3.5H7.945c-1.367 0-2.47 0-3.337-.116-.9-.122-1.658-.38-2.26-.982-.602-.602-.86-1.36-.981-2.26-.049-.36-.077-.762-.094-1.206a.751.751 0 0 1-.01-.327c-.013-.541-.013-1.142-.013-1.804V9.944c0-1.838 0-3.294.153-4.433.158-1.172.49-2.121 1.238-2.87.749-.748 1.698-1.08 2.87-1.238 1.14-.153 2.595-.153 4.433-.153Zm8.004 9h.104c.899 0 1.648 0 2.242.08.628.084 1.195.27 1.65.726.456.455.642 1.022.726 1.65.08.594.08 1.344.08 2.242v3.104c0 .899 0 1.648-.08 2.242-.084.628-.27 1.195-.726 1.65-.455.456-1.022.642-1.65.726-.594.08-1.343.08-2.242.08h-.104c-.899 0-1.648 0-2.242-.08-.628-.084-1.195-.27-1.65-.726-.456-.455-.642-1.022-.726-1.65-.08-.594-.08-1.343-.08-2.242v-3.104c0-.899 0-1.648.08-2.242.084-.628.27-1.195.726-1.65.455-.456 1.022-.642 1.65-.726.594-.08 1.343-.08 2.242-.08Zm-2.043 1.566c-.461.063-.659.17-.789.3-.13.13-.237.328-.3.79-.064.482-.066 1.13-.066 2.094v3c0 .964.002 1.612.066 2.095.063.461.17.659.3.789.13.13.328.237.79.3.482.064 1.13.066 2.094.066s1.612-.002 2.095-.067c.461-.062.659-.169.789-.3.13-.13.237-.327.3-.788.064-.483.066-1.131.066-2.095v-3c0-.964-.002-1.612-.067-2.095-.062-.461-.169-.659-.3-.789-.13-.13-.327-.237-.788-.3-.483-.064-1.131-.066-2.095-.066-.964 0-1.612.002-2.095.066ZM16.25 20a.75.75 0 0 1 .75-.75h2a.75.75 0 0 1 0 1.5h-2a.75.75 0 0 1-.75-.75Z" clip-rule="evenodd"/>
</svg>
