<svg xmlns="http://www.w3.org/2000/svg" width="24" height="24" fill="none">
  <g fill="#1C274C" fill-rule="evenodd" clip-rule="evenodd">
    <path d="M11.017 2.802A9.25 9.25 0 0 0 2.75 12c0 1.145.208 2.24.587 3.25h9.512a7.253 7.253 0 0 1-1.832-12.448Zm7.134 12.448h2.512a9.19 9.19 0 0 0 .535-2.268 7.27 7.27 0 0 1-3.047 2.268Zm4.087.038c.332-1.037.512-2.142.512-3.288 0-.717-.571-1.075-1.026-1.137-.438-.059-.995.103-1.299.606a5.75 5.75 0 1 1-7.894-7.894c.503-.304.665-.861.606-1.299-.062-.455-.42-1.026-1.137-1.026C6.063 1.25 1.25 6.063 1.25 12c0 1.146.18 2.251.512 3.288A.75.75 0 0 0 2 16.75h20a.75.75 0 0 0 .238-1.462ZM4.25 19a.75.75 0 0 1 .75-.75h14a.75.75 0 0 1 0 1.5H5a.75.75 0 0 1-.75-.75Zm3 3a.75.75 0 0 1 .75-.75h8a.75.75 0 0 1 0 1.5H8a.75.75 0 0 1-.75-.75Z"/>
    <path d="M20.366 2.124c-.328-.832-1.504-.832-1.83 0l-.429 1.09-1.084.429c-.83.328-.83 1.504 0 1.832l1.084.43.428 1.089c.327.832 1.503.832 1.83 0l.429-1.09 1.084-.429c.83-.328.83-1.504 0-1.832l-1.084-.43-.428-1.089Zm-.916.406.415 1.055c.1.254.3.455.554.556l1.057.418-1.057.419a.984.984 0 0 0-.554.555l-.415 1.055-.414-1.055a.984.984 0 0 0-.554-.555l-1.057-.419 1.057-.418a.984.984 0 0 0 .554-.556l.414-1.055Zm-2.952 5.417c-.327-.833-1.503-.833-1.83 0l-.155.393-.39.155c-.83.328-.83 1.504 0 1.833l.39.154.155.394c.327.832 1.503.832 1.83 0l.155-.394.39-.154c.83-.329.83-1.505 0-1.833l-.39-.155-.155-.393Zm-.915.405.141.36c.1.253.3.455.554.555l.364.144-.364.144a.984.984 0 0 0-.554.556l-.141.36-.141-.36a.984.984 0 0 0-.554-.556l-.364-.144.364-.144a.984.984 0 0 0 .554-.555l.141-.36Z"/>
  </g>
</svg>
