<svg xmlns="http://www.w3.org/2000/svg" width="24" height="24" fill="none">
  <path fill="#1C274C" fill-rule="evenodd" d="M11.017 2.802a9.25 9.25 0 1 0 10.181 10.181A7.25 7.25 0 1 1 11.017 2.802ZM1.25 12C1.25 6.063 6.063 1.25 12 1.25c.717 0 1.075.571 1.137 1.026.059.438-.103.995-.606 1.299a5.75 5.75 0 1 0 7.894 7.894c.304-.503.861-.665 1.299-.606.455.062 1.026.42 1.026 1.137 0 5.937-4.813 10.75-10.75 10.75S1.25 17.937 1.25 12ZM18 2.75a.75.75 0 0 1 0-1.5h4a.75.75 0 0 1 .53 1.28l-2.72 2.72H22a.75.75 0 0 1 0 1.5h-4a.75.75 0 0 1-.53-1.28l2.72-2.72H18Zm-4.5 6a.75.75 0 0 1 0-1.5h3a.75.75 0 0 1 .53 1.28l-1.72 1.72h1.19a.75.75 0 0 1 0 1.5h-3a.75.75 0 0 1-.53-1.28l1.72-1.72H13.5Z" clip-rule="evenodd"/>
</svg>
