<svg xmlns="http://www.w3.org/2000/svg" width="24" height="24" fill="none">
  <g fill="#1C274C">
    <path d="M2 12C2 6.477 6.477 2 12 2c.463 0 .54.693.143.933a6.5 6.5 0 1 0 8.924 8.924c.24-.396.933-.32.933.143 0 1.138-.19 2.231-.54 3.25H22a.75.75 0 0 1 0 1.5H2a.75.75 0 0 1 0-1.5h.54A9.987 9.987 0 0 1 2 12Zm3 6.25a.75.75 0 0 0 0 1.5h14a.75.75 0 0 0 0-1.5H5Zm3 3a.75.75 0 0 0 0 1.5h8a.75.75 0 0 0 0-1.5H8ZM19.9 2.307a.483.483 0 0 0-.9 0l-.43 1.095a.484.484 0 0 1-.272.274l-1.091.432a.486.486 0 0 0 0 .903l1.091.432a.48.48 0 0 1 .272.273L19 6.81c.162.41.74.41.9 0l.43-1.095a.484.484 0 0 1 .273-.273l1.091-.432a.486.486 0 0 0 0-.903l-1.091-.432a.484.484 0 0 1-.273-.274l-.43-1.095Z"/>
    <path d="M16.033 8.13a.483.483 0 0 0-.9 0l-.157.399a.484.484 0 0 1-.272.273l-.398.158a.486.486 0 0 0 0 .903l.398.157c.125.05.223.148.272.274l.157.399c.161.41.739.41.9 0l.157-.4a.484.484 0 0 1 .272-.273l.398-.157a.486.486 0 0 0 0-.903l-.398-.158a.484.484 0 0 1-.272-.273l-.157-.4Z"/>
  </g>
</svg>
