<svg xmlns="http://www.w3.org/2000/svg" width="24" height="24" fill="none">
  <path fill="#1C274C" fill-rule="evenodd" d="M14.989 3.99a.75.75 0 0 1 1.06-.04l5.216 4.844a4.647 4.647 0 0 1-.15 6.944l-5.09 4.333a.75.75 0 1 1-.973-1.142l5.09-4.333a3.147 3.147 0 0 0 .102-4.703L15.028 5.05a.75.75 0 0 1-.04-1.06Zm-1.865.895c.013.01.026.022.039.034l4.014 3.568c.748.665 1.37 1.217 1.796 1.718.448.527.767 1.094.767 1.795 0 .701-.32 1.268-.767 1.795-.427.5-1.048 1.053-1.796 1.718l-4.014 3.568a109.7 109.7 0 0 1-.039.035c-.324.288-.627.557-.889.73-.257.17-.724.416-1.247.18-.523-.234-.65-.747-.693-1.052-.045-.31-.045-.715-.045-1.15v-1.62a11.56 11.56 0 0 0-4.209 1.113c-1.513.737-2.721 1.783-3.377 3.032A.75.75 0 0 1 1.25 20c0-4.721 1.381-7.795 3.356-9.685 1.722-1.647 3.82-2.323 5.644-2.464V6.175c0-.434 0-.84.045-1.15.043-.304.17-.817.693-1.052.523-.235.99.012 1.247.181.262.173.565.442.889.73Zm-1.37.792c.112.097.247.216.412.363l3.972 3.53c.801.713 1.342 1.196 1.692 1.607.337.396.41.626.41.823 0 .197-.073.428-.41.823-.35.411-.89.894-1.692 1.606l-3.972 3.531c-.165.147-.3.266-.413.363-.003-.149-.003-.33-.003-.55V15.43a.75.75 0 0 0-.75-.75c-1.913 0-3.9.454-5.616 1.29a10.27 10.27 0 0 0-2.5 1.688c.369-3.047 1.458-5.013 2.76-6.258C7.264 9.849 9.31 9.321 11 9.321a.75.75 0 0 0 .75-.75V6.227c0-.22 0-.401.003-.55Z" clip-rule="evenodd"/>
</svg>
