<svg xmlns="http://www.w3.org/2000/svg" width="24" height="24" fill="none">
  <path fill="#1C274C" fill-rule="evenodd" d="M6.419 8c0-2.828 0-4.243.817-5.121C8.053 2 9.369 2 12 2c2.631 0 3.947 0 4.764.879.817.878.817 2.293.817 5.121v8c0 2.828 0 4.243-.817 5.121C15.947 22 14.631 22 12 22c-2.631 0-3.947 0-4.764-.879-.817-.878-.817-2.293-.817-5.121V8Zm-1.396-.099V16.1c0 .982 0 1.865.046 2.629.017.27.039.524.069.764.013.107.029.214.046.32.036.217-.131.42-.35.401-.43-.037-.82-.118-1.183-.317a3.146 3.146 0 0 1-1.321-1.42c-.186-.391-.26-.81-.296-1.273C2 16.756 2 16.205 2 15.531V8.47c0-.674 0-1.224.034-1.672.035-.463.11-.882.296-1.272a3.146 3.146 0 0 1 1.32-1.42c.364-.2.753-.28 1.184-.318.219-.02.386.184.35.4a8.396 8.396 0 0 0-.046.321c-.03.24-.052.495-.069.764-.046.764-.046 1.646-.046 2.63Zm13.954 0V16.1c0 .982 0 1.865-.047 2.629-.016.27-.038.524-.068.764a8.313 8.313 0 0 1-.046.32c-.036.217.131.42.35.401.43-.037.82-.118 1.183-.317a3.147 3.147 0 0 0 1.322-1.42c.185-.391.26-.81.295-1.273.034-.447.034-.998.034-1.671V8.468c0-.674 0-1.225-.034-1.672-.035-.463-.11-.882-.296-1.272a3.147 3.147 0 0 0-1.32-1.42c-.364-.2-.753-.28-1.184-.318-.219-.02-.386.184-.35.4a11.992 11.992 0 0 1 .115 1.085c.046.764.046 1.646.046 2.63Zm-4.109.51a.93.93 0 0 1 .11-.042.25.25 0 0 1 .254.157.96.96 0 0 1 .012.118c.006.117.006.276.006.527a6.622 6.622 0 0 1-.005.259.25.25 0 0 1-.093.15 6.687 6.687 0 0 1-.23.12l-1.316.659c-.224.112-.366.183-.474.23a.93.93 0 0 1-.11.042.25.25 0 0 1-.254-.157.963.963 0 0 1-.012-.117 11.444 11.444 0 0 1-.006-.528 6.622 6.622 0 0 1 .005-.258.25.25 0 0 1 .093-.151 6.714 6.714 0 0 1 .23-.12l1.316-.658c.224-.112.366-.183.474-.23Zm1.777-.389a1.75 1.75 0 0 0-1.848-1.142c-.198.023-.377.09-.528.157-.149.064-.326.153-.53.255l-1.333.667-.036.018a2.659 2.659 0 0 0-.433.251 1.75 1.75 0 0 0-.656 1.061 2.638 2.638 0 0 0-.031.5v2.761a2.75 2.75 0 1 0 1.5 2.45v-2.886c.147.022.3.024.453.006.198-.023.377-.09.528-.156.149-.065.326-.154.53-.255l1.333-.667.036-.018c.145-.073.299-.15.433-.252a1.75 1.75 0 0 0 .656-1.06c.031-.167.031-.338.031-.5v-.06c0-.226 0-.425-.009-.587a1.87 1.87 0 0 0-.096-.543ZM10 13.75a1.25 1.25 0 1 1 0 2.5 1.25 1.25 0 0 1 0-2.5Z" clip-rule="evenodd"/>
</svg>
