<svg xmlns="http://www.w3.org/2000/svg" width="24" height="24" fill="none">
  <path fill="#1C274C" fill-rule="evenodd" d="M10.945 1.25h2.11c1.367 0 2.47 0 3.337.117.9.12 1.658.38 2.26.981.4.4.648.87.806 1.404.211.003.388.012.55.038a3.25 3.25 0 0 1 2.702 2.702c.04.253.04.542.04.943v9.13c0 .401 0 .69-.04.943a3.25 3.25 0 0 1-2.702 2.702 3.838 3.838 0 0 1-.55.038c-.158.534-.406 1.003-.806 1.404-.602.602-1.36.86-2.26.982-.867.116-1.97.116-3.337.116h-2.11c-1.367 0-2.47 0-3.337-.116-.9-.122-1.658-.38-2.26-.982-.4-.4-.648-.87-.806-1.404a3.922 3.922 0 0 1-.55-.038 3.25 3.25 0 0 1-2.702-2.702c-.04-.253-.04-.542-.04-.943v-9.13c0-.401 0-.69.04-.943A3.25 3.25 0 0 1 3.992 3.79c.162-.026.339-.035.55-.038.158-.534.406-1.003.806-1.404.602-.602 1.36-.86 2.26-.981.867-.117 1.97-.117 3.337-.117ZM4.302 5.262a1.75 1.75 0 0 0-1.53 1.464c-.02.122-.022.28-.022.774v9c0 .493.002.652.022.774a1.75 1.75 0 0 0 1.53 1.464c-.052-.749-.052-1.639-.052-2.683v-8.11c0-1.044 0-1.934.052-2.683Zm15.396 13.476.076-.01a1.75 1.75 0 0 0 1.454-1.454c.02-.122.022-.28.022-.774v-9c0-.493-.002-.652-.021-.774a1.75 1.75 0 0 0-1.53-1.464c.051.749.051 1.639.051 2.683v8.11c0 1.044 0 1.934-.052 2.683ZM7.808 2.853c-.734.099-1.122.28-1.399.556-.277.277-.457.665-.556 1.4C5.752 5.562 5.75 6.564 5.75 8v8c0 1.435.002 2.436.103 3.192.099.734.28 1.122.556 1.399.277.277.665.457 1.4.556.754.101 1.756.103 3.191.103h2c1.435 0 2.437-.002 3.192-.103.734-.099 1.122-.28 1.399-.556.277-.277.457-.665.556-1.4.101-.755.103-1.756.103-3.191V8c0-1.435-.002-2.437-.103-3.192-.099-.734-.28-1.122-.556-1.399-.277-.277-.665-.457-1.4-.556-.754-.101-1.756-.103-3.191-.103h-2c-1.435 0-2.437.002-3.192.103Zm5.942 7.597V14a2.75 2.75 0 1 1-1.5-2.45V8h1.5c0 .69.56 1.25 1.25 1.25a.75.75 0 0 1 0 1.5c-.45 0-.875-.108-1.25-.3ZM11 12.75a1.25 1.25 0 1 0 0 2.5 1.25 1.25 0 0 0 0-2.5Z" clip-rule="evenodd"/>
</svg>
