<svg xmlns="http://www.w3.org/2000/svg" width="24" height="24" fill="none">
  <path fill="#1C274C" fill-rule="evenodd" d="M18.673 3.667c-.637.113-1.476.39-2.7.799l-4 1.333c-.677.226-1.124.376-1.454.53-.312.144-.447.261-.533.381-.086.12-.155.285-.194.627-.04.36-.042.833-.042 1.546v2.076l10.5-3.5c0-1.242-.004-2.1-.096-2.725-.091-.623-.248-.847-.423-.974-.175-.126-.438-.204-1.058-.093ZM21.74 6c-.012-.565-.04-1.06-.102-1.483-.116-.793-.375-1.501-1.03-1.974-.655-.472-1.409-.493-2.198-.353-.758.135-1.702.45-2.854.834l-4.098 1.365c-.626.21-1.155.386-1.571.58-.443.205-.827.46-1.118.864-.291.404-.412.849-.467 1.334A8.997 8.997 0 0 0 8.255 8H8.25v7.999a3.75 3.75 0 1 0 1.5 3V12.54l10.5-3.5V14a3.75 3.75 0 1 0 1.5 3V6h-.01Zm-1.49 11a2.25 2.25 0 1 0-4.5 0 2.25 2.25 0 0 0 4.5 0Zm-12 2a2.25 2.25 0 1 0-4.5 0 2.25 2.25 0 0 0 4.5 0Z" clip-rule="evenodd"/>
</svg>
