<svg xmlns="http://www.w3.org/2000/svg" width="24" height="24" fill="none">
  <g fill="#1C274C">
    <path d="M8.859 2h6.282c.21 0 .37 0 .51.015a2.623 2.623 0 0 1 2.159 1.672H6.19a2.623 2.623 0 0 1 2.159-1.672c.14-.015.3-.015.51-.015ZM6.88 4.723c-1.252 0-2.278.84-2.62 1.954a2.8 2.8 0 0 0-.021.07c.358-.12.73-.2 1.108-.253.973-.139 2.202-.139 3.629-.139h6.203c1.427 0 2.656 0 3.629.139.377.054.75.132 1.108.253a2.76 2.76 0 0 0-.02-.07c-.343-1.114-1.369-1.954-2.62-1.954H6.879ZM10.5 16.25a.75.75 0 1 1 0 1.5.75.75 0 0 1 0-1.5Z"/>
    <path fill-rule="evenodd" d="M14.995 7.542h-5.99c-3.037 0-4.556 0-5.409.987-.853.987-.652 2.511-.25 5.56l.38 2.892c.315 2.391.472 3.587 1.28 4.303.807.716 1.998.716 4.38.716h5.228c2.382 0 3.573 0 4.38-.716.808-.716.965-1.912 1.28-4.303l.38-2.892c.402-3.049.603-4.573-.25-5.56-.853-.987-2.372-.987-5.41-.987ZM12.75 10.5a.75.75 0 0 0-1.5 0v4.378A2.25 2.25 0 1 0 12.75 17v-3.68c.67.543 1.512.93 2.25.93a.75.75 0 0 0 0-1.5c-.305 0-.886-.219-1.416-.69-.519-.46-.834-1.021-.834-1.56Z" clip-rule="evenodd"/>
  </g>
</svg>
