<svg xmlns="http://www.w3.org/2000/svg" width="24" height="24" fill="none">
  <path fill="#1C274C" fill-rule="evenodd" d="M10.945 1.25h2.11c1.367 0 2.47 0 3.337.117.9.12 1.658.38 2.26.981.4.4.648.87.806 1.404.211.003.388.012.55.038a3.25 3.25 0 0 1 2.702 2.702c.04.253.04.542.04.943v9.13c0 .401 0 .69-.04.943a3.25 3.25 0 0 1-2.702 2.702 3.838 3.838 0 0 1-.55.038c-.158.534-.406 1.003-.806 1.404-.602.602-1.36.86-2.26.982-.867.116-1.97.116-3.337.116h-2.11c-1.367 0-2.47 0-3.337-.116-.9-.122-1.658-.38-2.26-.982-.4-.4-.648-.87-.806-1.404a3.922 3.922 0 0 1-.55-.038 3.25 3.25 0 0 1-2.702-2.702c-.04-.253-.04-.542-.04-.943v-9.13c0-.401 0-.69.04-.943A3.25 3.25 0 0 1 3.992 3.79c.162-.026.339-.035.55-.038.158-.534.406-1.003.806-1.404.602-.602 1.36-.86 2.26-.981.867-.117 1.97-.117 3.337-.117ZM4.302 5.262a1.75 1.75 0 0 0-1.53 1.464c-.02.122-.022.28-.022.774v9c0 .493.002.652.022.774a1.75 1.75 0 0 0 1.53 1.464c-.052-.749-.052-1.639-.052-2.683v-8.11c0-1.044 0-1.934.052-2.683Zm15.396 13.476.076-.01a1.75 1.75 0 0 0 1.454-1.454c.02-.122.022-.28.022-.774v-9c0-.493-.002-.652-.021-.774a1.75 1.75 0 0 0-1.53-1.464c.051.749.051 1.639.051 2.683v8.11c0 1.044 0 1.934-.052 2.683ZM7.808 2.853c-.734.099-1.122.28-1.399.556-.277.277-.457.665-.556 1.4C5.752 5.562 5.75 6.564 5.75 8v8c0 1.435.002 2.436.103 3.192.099.734.28 1.122.556 1.399.277.277.665.457 1.4.556.754.101 1.756.103 3.191.103h2c1.435 0 2.437-.002 3.192-.103.734-.099 1.122-.28 1.399-.556.277-.277.457-.665.556-1.4.101-.755.103-1.756.103-3.191V8c0-1.435-.002-2.437-.103-3.192-.099-.734-.28-1.122-.556-1.399-.277-.277-.665-.457-1.4-.556-.754-.101-1.756-.103-3.191-.103h-2c-1.435 0-2.437.002-3.192.103Zm7.17 5.516a.962.962 0 0 0-.11.043c-.108.047-.25.117-.474.23l-1.317.658a7.008 7.008 0 0 0-.23.12.25.25 0 0 0-.092.15 11.4 11.4 0 0 0 .002.786c.004.077.01.11.01.118a.25.25 0 0 0 .255.157.956.956 0 0 0 .11-.043c.108-.047.25-.117.474-.23l1.317-.658a6.783 6.783 0 0 0 .23-.12.25.25 0 0 0 .093-.151l.002-.044a7.03 7.03 0 0 0 .002-.214c0-.251 0-.41-.006-.528a.96.96 0 0 0-.012-.117.25.25 0 0 0-.253-.157Zm-.18-1.49a1.75 1.75 0 0 1 1.847 1.143c.068.188.088.378.096.543.009.161.009.36.009.587v.059c0 .163 0 .334-.031.5-.081.422-.315.8-.656 1.061a2.651 2.651 0 0 1-.433.251l-.036.019-1.334.666c-.203.102-.38.19-.529.255-.15.066-.33.134-.528.157a1.748 1.748 0 0 1-.453-.006V15a2.75 2.75 0 1 1-1.5-2.45V9.789c0-.163 0-.334.031-.5.081-.422.314-.8.656-1.061a2.52 2.52 0 0 1 .433-.251l.036-.019 1.334-.666c.203-.102.38-.19.529-.256.15-.065.33-.133.528-.156ZM11.25 15a1.25 1.25 0 1 0-2.5 0 1.25 1.25 0 0 0 2.5 0Z" clip-rule="evenodd"/>
</svg>
