<svg xmlns="http://www.w3.org/2000/svg" width="24" height="24" fill="none">
  <g fill="#1C274C">
    <path fill-rule="evenodd" d="M14.995 7.542h-5.99c-3.037 0-4.556 0-5.409.987-.853.987-.652 2.511-.25 5.56l.38 2.892c.315 2.391.472 3.587 1.28 4.303.807.716 1.998.716 4.38.716h5.228c2.382 0 3.573 0 4.38-.716.808-.716.965-1.912 1.28-4.303l.38-2.892c.402-3.049.603-4.573-.25-5.56-.853-.987-2.372-.987-5.41-.987ZM12.75 10.5a.75.75 0 0 0-1.5 0v4.378A2.25 2.25 0 1 0 12.75 17v-3.68c.67.543 1.512.93 2.25.93a.75.75 0 0 0 0-1.5c-.305 0-.886-.219-1.416-.69-.519-.46-.834-1.021-.834-1.56Z" clip-rule="evenodd"/>
    <path d="M6.88 4.723c-1.252 0-2.279.84-2.621 1.953a2.771 2.771 0 0 0-.02.07c.358-.12.73-.199 1.108-.253.972-.138 2.201-.138 3.629-.138h6.202c1.428 0 2.657 0 3.63.138.377.054.75.133 1.108.253a2.785 2.785 0 0 0-.02-.07c-.343-1.114-1.37-1.953-2.62-1.953H6.878Z" opacity=".7"/>
    <path d="M8.858 2h6.283c.209 0 .37 0 .51.015a2.623 2.623 0 0 1 2.159 1.672H6.19a2.623 2.623 0 0 1 2.159-1.672c.14-.015.3-.015.51-.015Z" opacity=".4"/>
    <path d="M10.5 16.25a.75.75 0 1 1 0 1.5.75.75 0 0 1 0-1.5Z"/>
  </g>
</svg>
