<svg xmlns="http://www.w3.org/2000/svg" width="24" height="24" fill="none">
  <g fill="#1C274C">
    <path d="M6.88 4.723c-1.252 0-2.278.84-2.62 1.953a2.771 2.771 0 0 0-.021.07c.358-.12.731-.199 1.109-.253.972-.138 2.2-.138 3.628-.138h6.203c1.427 0 2.656 0 3.629.138.377.054.75.133 1.108.253a2.785 2.785 0 0 0-.02-.07c-.343-1.114-1.369-1.953-2.62-1.953H6.88Z" opacity=".7"/>
    <path d="M8.859 2h6.282c.21 0 .37 0 .51.015a2.623 2.623 0 0 1 2.16 1.672H6.19a2.623 2.623 0 0 1 2.16-1.672C8.49 2 8.65 2 8.858 2Z" opacity=".4"/>
    <path fill-rule="evenodd" d="M14.995 7.542h-5.99c-3.037 0-4.556 0-5.409.987-.853.987-.652 2.511-.25 5.56l.38 2.892c.315 2.391.472 3.587 1.28 4.303.807.716 1.998.716 4.38.716h5.228c2.382 0 3.573 0 4.38-.716.808-.716.965-1.912 1.28-4.303l.38-2.892c.402-3.049.603-4.573-.25-5.56-.853-.987-2.372-.987-5.41-.987Zm-.406 2.623c-1.232-.526-2.646.266-2.728 1.528-.004.055-.004.123-.004.206v.027a3 3 0 0 0 0 .082v3.514a2.702 2.702 0 0 0-1.286-.321C9.151 15.2 8 16.275 8 17.6S9.151 20 10.571 20c1.42 0 2.572-1.074 2.572-2.4v-3.919l.928.462c.079.04.144.072.198.095 1.231.526 2.645-.266 2.728-1.528.003-.055.003-.124.003-.207v-.026l-.001-.093c-.021-.623-.387-1.192-.966-1.503a3.101 3.101 0 0 0-.087-.044l-1.16-.578a4.844 4.844 0 0 0-.197-.094Z" clip-rule="evenodd"/>
    <path d="M13.144 11.765c.027-.42.499-.684.91-.509l1.338.665a.595.595 0 0 1 .322.563l-.001.154c-.027.42-.499.684-.91.509a4.276 4.276 0 0 1-.145-.072l-1.135-.564a3.061 3.061 0 0 1-.058-.03.595.595 0 0 1-.322-.562l.001-.154ZM10.571 16.4c.71 0 1.286.538 1.286 1.2 0 .663-.575 1.2-1.286 1.2-.71 0-1.285-.537-1.285-1.2 0-.662.575-1.2 1.285-1.2Z"/>
  </g>
</svg>
