<svg xmlns="http://www.w3.org/2000/svg" width="24" height="24" fill="none">
  <path stroke="#1C274C" stroke-width="1.5" d="M2.906 13.793c-.422-3.164-.633-4.745.263-5.77C4.066 7 5.661 7 8.853 7h6.294c3.191 0 4.787 0 5.684 1.024.896 1.024.685 2.605.263 5.769l-.4 3c-.33 2.48-.496 3.721-1.345 4.464-.848.743-2.1.743-4.602.743H9.253c-2.503 0-3.754 0-4.603-.743-.848-.743-1.014-1.983-1.344-4.464l-.4-3ZM19.562 7a2.132 2.132 0 0 0-2.1-2.5H6.538a2.132 2.132 0 0 0-2.1 2.5M17.5 4.5c.028-.26.043-.389.043-.496a2 2 0 0 0-1.787-1.993C15.65 2 15.52 2 15.26 2H8.74c-.26 0-.391 0-.497.011a2 2 0 0 0-1.787 1.993c0 .107.014.237.043.496"/>
  <path fill="#1C274C" d="m12.56 12.7-.352.661.353-.662Zm.883.47.353-.662-.353.662Zm.996-1.868.353-.662-.353.662Zm-.882-.471.353-.662-.353.662Zm-1.555.776.748.045-.748-.045Zm1.414-.85-.312.683.312-.682ZM15 12.17l.75-.024-.75.024Zm-.5-.835.373-.65-.374.65Zm-.915 1.91.312-.683-.312.682Zm1.414-.85-.748-.045.748.045Zm-2.496.273-.374.65.374-.65ZM12 11.832l-.75.024.75-.024Zm-.75 4.668a.75.75 0 0 1-.75.75v1.5a2.25 2.25 0 0 0 2.25-2.25h-1.5Zm-.75.75a.75.75 0 0 1-.75-.75h-1.5a2.25 2.25 0 0 0 2.25 2.25v-1.5Zm-.75-.75a.75.75 0 0 1 .75-.75v-1.5a2.25 2.25 0 0 0-2.25 2.25h1.5Zm.75-.75a.75.75 0 0 1 .75.75h1.5a2.25 2.25 0 0 0-2.25-2.25v1.5Zm2.25.75V12h-1.5v4.5h1.5Zm-.542-3.139.882.47.706-1.323-.882-.47-.706 1.323Zm2.584-2.721-.882-.47-.706 1.323.882.47.706-1.323Zm-2.042 1.125v-.113l-1.497-.09c-.003.058-.003.131-.003.203h1.5Zm1.16-1.596a4.624 4.624 0 0 0-.181-.093l-.625 1.364.018.009.082.044.706-1.324Zm-1.16 1.483a.25.25 0 0 1 .354-.212l.625-1.364a1.75 1.75 0 0 0-2.476 1.485l1.498.091Zm3 .584v-.091l-1.5.048v.043h1.5Zm-1.664-.273.032.017.007.004.747-1.3c-.026-.016-.054-.03-.08-.044l-.706 1.323Zm1.663.182a1.75 1.75 0 0 0-.877-1.462l-.747 1.3a.25.25 0 0 1 .125.21l1.5-.048Zm-2.659 1.687c.064.034.128.068.181.093l.625-1.364-.018-.009-.082-.044-.706 1.324Zm1.16-1.596v.113l1.497.09c.003-.058.003-.131.003-.203h-1.5Zm-.979 1.689a1.75 1.75 0 0 0 2.476-1.485l-1.498-.091a.25.25 0 0 1-.353.212l-.625 1.364Zm-.357-1.887a4.091 4.091 0 0 1-.032-.017l-.007-.004-.747 1.3c.026.016.054.03.08.044l.706-1.323Zm-1.664-.273v.091l1.5-.048v-.043h-1.5Zm1.625.252a.25.25 0 0 1-.125-.209l-1.5.048c.02.606.352 1.16.878 1.462l.747-1.3Z"/>
</svg>
