<svg xmlns="http://www.w3.org/2000/svg" width="24" height="24" fill="none">
  <path fill="#1C274D" d="m20.082 3.018.026.75-.026-.75Zm-3.582.47-.215-.719.215.719Zm-2.826 1.315-.376-.65.376.65ZM3.982 3.075l-.046.749.046-.749ZM7 3.488l.191-.726L7 3.488Zm3.282 1.388-.35.663.35-.663Zm3.346 15.193.352.662-.352-.662ZM17 18.634l-.191-.726.191.726Zm2.985-.411.047.748-.047-.748Zm-9.613 1.846-.352.662.352-.662ZM7 18.634l.191-.726-.191.726Zm-2.985-.411-.047.748.047-.748Zm-1.265-2.08V4.999h-1.5v11.146h1.5Zm20 0V4.934h-1.5v11.21h1.5ZM20.056 2.269c-1.139.04-2.626.158-3.771.501l.43 1.437c.95-.284 2.274-.4 3.393-.439l-.052-1.499Zm-3.771.501c-.995.298-2.114.88-2.987 1.385l.752 1.298c.85-.492 1.845-1 2.665-1.246l-.43-1.437ZM3.936 3.824c.966.059 2.06.174 2.873.389l.382-1.45c-.96-.254-2.176-.376-3.163-.437l-.092 1.498Zm2.873.389c.962.254 2.146.81 3.123 1.326l.7-1.326c-.995-.527-2.304-1.15-3.44-1.45l-.383 1.45ZM13.98 20.73c.991-.528 2.219-1.11 3.211-1.372l-.382-1.45c-1.17.308-2.526.961-3.534 1.498l.705 1.324Zm3.211-1.372c.803-.212 1.882-.328 2.841-.388l-.094-1.497c-.98.062-2.179.183-3.13.434l.383 1.45Zm-6.466.048c-1.008-.537-2.363-1.19-3.534-1.499l-.382 1.45c.992.263 2.22.845 3.21 1.373l.706-1.324Zm-3.534-1.499c-.95-.25-2.15-.372-3.13-.434l-.093 1.497c.959.06 2.038.176 2.84.388l.383-1.45Zm14.059-1.764c0 .686-.568 1.284-1.312 1.33l.094 1.497c1.474-.092 2.718-1.291 2.718-2.827h-1.5Zm1.5-11.21c0-1.464-1.165-2.719-2.694-2.666l.052 1.5c.615-.022 1.142.484 1.142 1.165h1.5Zm-21.5 11.21c0 1.536 1.244 2.735 2.718 2.828l.094-1.498c-.744-.046-1.312-.645-1.312-1.33h-1.5Zm12.025 3.264a2.723 2.723 0 0 1-2.55 0l-.705 1.323a4.224 4.224 0 0 0 3.96 0l-.705-1.324Zm.023-15.254a2.77 2.77 0 0 1-2.665.059l-.701 1.326a4.27 4.27 0 0 0 4.117-.087l-.75-1.298ZM2.75 4.998c0-.697.552-1.213 1.186-1.174l.092-1.498C2.47 2.231 1.25 3.5 1.25 4.998h1.5Z"/>
  <path stroke="#1C274D" stroke-width="1.5" d="M12 5.854V21"/>
  <path stroke="#1C274D" stroke-linecap="round" stroke-width="1.5" d="m5 9 4 1m-4 3 4 1m10-1-4 1m4-8.5v4.01c0 .276 0 .414-.095.47-.095.055-.224-.007-.484-.13l-1.242-.59c-.088-.042-.132-.062-.179-.062-.047 0-.091.02-.179.062l-1.242.59c-.26.123-.39.185-.484.13C15 9.923 15 9.785 15 9.51V6.95"/>
</svg>
