<svg xmlns="http://www.w3.org/2000/svg" width="24" height="24" fill="none">
  <path fill="#1C274D" fill-rule="evenodd" d="M2 16.144V4.998c0-1.098.886-1.99 1.982-1.923.977.06 2.131.179 3.018.412 1.05.277 2.296.867 3.282 1.388.307.163.634.275.968.339v15.179a3.44 3.44 0 0 1-.878-.324c-1-.532-2.29-1.15-3.372-1.436-.877-.231-2.016-.35-2.985-.41C2.906 18.153 2 17.255 2 16.143Zm3.182-7.872a.75.75 0 1 0-.364 1.456l4 1a.75.75 0 0 0 .364-1.456l-4-1Zm0 4a.75.75 0 1 0-.364 1.456l4 1a.75.75 0 0 0 .364-1.456l-4-1Zm7.568 8.12c.303-.066.598-.174.878-.323 1-.532 2.29-1.15 3.372-1.436.877-.231 2.016-.35 2.985-.41 1.109-.07 2.015-.968 2.015-2.08V4.934c0-1.072-.846-1.953-1.918-1.915-1.129.04-2.535.156-3.582.47-.908.271-1.965.816-2.826 1.315a3.511 3.511 0 0 1-.924.37v15.22Zm6.432-10.664a.75.75 0 0 0-.364-1.456l-4 1a.75.75 0 1 0 .364 1.456l4-1Zm0 4a.75.75 0 0 0-.364-1.456l-4 1a.75.75 0 1 0 .364 1.456l4-1Z" clip-rule="evenodd"/>
</svg>
