<svg xmlns="http://www.w3.org/2000/svg" width="24" height="24" fill="none">
  <path fill="#1C274D" d="m16.557 7.022-.037-.75.037.75ZM14.7 7.27l-.2-.723.2.723Zm-2.178 1-.376-.65.376.65ZM7.487 7.06l-.055.748.055-.748ZM9 7.27l-.178.728L9 7.271Zm2.465 1.022-.349.664.349-.664Zm1.042 8.43.35.663-.35-.664ZM15 15.684l-.178-.728.178.728Zm1.49-.208.056.748-.056-.748Zm-4.997 1.245-.35.664.35-.664ZM9 15.685l.178-.728-.178.728Zm-1.49-.208-.056.748.056-.748Zm-.76-1.566V8.496h-1.5v5.415h1.5Zm12 0V8.45h-1.5v5.46h1.5Zm-2.23-7.638c-.63.03-1.397.102-2.02.275l.4 1.446c.458-.127 1.09-.194 1.693-.223l-.073-1.498Zm-2.02.275c-.832.23-1.798.752-2.354 1.073l.752 1.299c.55-.32 1.372-.752 2.002-.926l-.4-1.446Zm-7.068 1.26c.5.037 1.007.098 1.39.191l.356-1.457c-.505-.123-1.11-.19-1.636-.23l-.11 1.497ZM8.822 8c.726.178 1.682.637 2.294.958l.697-1.328c-.615-.323-1.713-.862-2.635-1.087L8.822 8Zm4.035 9.387c.61-.321 1.583-.792 2.321-.972l-.356-1.457c-.935.228-2.054.78-2.664 1.102l.699 1.327Zm2.321-.972c.377-.092.875-.152 1.368-.19l-.112-1.495c-.52.039-1.114.106-1.612.228l.356 1.457Zm-3.336-.355c-.61-.322-1.729-.874-2.664-1.102l-.356 1.457c.738.18 1.711.65 2.321.972l.7-1.327Zm-2.664-1.102c-.498-.122-1.093-.19-1.612-.228l-.112 1.496c.493.037.99.097 1.368.189l.356-1.457Zm8.072-1.046c0 .405-.34.783-.816.818l.112 1.496c1.186-.088 2.204-1.053 2.204-2.314h-1.5Zm1.5-5.46c0-1.194-.958-2.24-2.23-2.178l.073 1.498c.338-.017.657.263.657.68h1.5Zm-13.5 5.46c0 1.26 1.018 2.226 2.204 2.314l.112-1.496c-.476-.035-.816-.413-.816-.818h-1.5Zm6.908 2.148a.341.341 0 0 1-.316 0l-.699 1.327a1.84 1.84 0 0 0 1.714 0l-.7-1.327Zm-.012-8.438a.348.348 0 0 1-.333.008l-.697 1.328a1.848 1.848 0 0 0 1.782-.037l-.752-1.299Zm-5.396.875c0-.426.333-.713.682-.687l.11-1.496c-1.294-.095-2.292.962-2.292 2.183h1.5Z"/>
  <path stroke="#1C274D" stroke-width="1.5" d="M12 8.585V17"/>
  <path stroke="#1C274D" stroke-linecap="round" stroke-width="1.5" d="M22 12c0 4.714 0 7.071-1.465 8.535C19.072 22 16.714 22 12 22s-7.071 0-8.536-1.465C2 19.072 2 16.714 2 12s0-7.071 1.464-8.536C4.93 2 7.286 2 12 2c4.714 0 7.071 0 8.535 1.464.974.974 1.3 2.343 1.41 4.536"/>
</svg>
