<svg xmlns="http://www.w3.org/2000/svg" width="24" height="24" fill="none">
  <g fill="#1C274C">
    <path fill-rule="evenodd" d="M17.5 11c-2.121 0-3.182 0-3.841-.659C13 9.682 13 8.621 13 6.5c0-2.121 0-3.182.659-3.841C14.318 2 15.379 2 17.5 2c2.121 0 3.182 0 3.841.659C22 3.318 22 4.379 22 6.5c0 2.121 0 3.182-.659 3.841-.659.659-1.72.659-3.841.659Zm-2.53-7.03a.75.75 0 0 1 1.06 0l1.47 1.47 1.47-1.47a.75.75 0 1 1 1.06 1.06L18.56 6.5l1.47 1.47a.75.75 0 0 1-1.06 1.06L17.5 7.56l-1.47 1.47a.75.75 0 1 1-1.06-1.06l1.47-1.47-1.47-1.47a.75.75 0 0 1 0-1.06Z" clip-rule="evenodd"/>
    <path d="M12 22c-4.714 0-7.071 0-8.536-1.465C2 19.072 2 16.714 2 12s0-7.071 1.464-8.536C4.93 2 7.286 2 12 2h.258c-.405.567-.578 1.205-.662 1.831-.096.714-.096 1.595-.096 2.577v.184c0 .982 0 1.863.096 2.577.104.779.348 1.578 1.002 2.233.655.654 1.454.898 2.233 1.002.714.096 1.595.096 2.577.096h.184c.982 0 1.863 0 2.577-.096.626-.084 1.264-.257 1.831-.662V12c0 4.714 0 7.071-1.465 8.535C19.072 22 16.714 22 12 22Z"/>
  </g>
</svg>
