<svg xmlns="http://www.w3.org/2000/svg" width="24" height="24" fill="none">
  <g fill="#1C274C">
    <path fill-rule="evenodd" d="M9.944 1.25H10a.75.75 0 0 1 0 1.5c-1.907 0-3.261.002-4.29.14-1.005.135-1.585.389-2.008.812-.423.423-.677 1.003-.812 2.009-.138 1.028-.14 2.382-.14 4.289a.75.75 0 0 1-1.5 0v-.056c0-1.838 0-3.294.153-4.433.158-1.172.49-2.121 1.238-2.87.749-.748 1.698-1.08 2.87-1.238 1.14-.153 2.595-.153 4.433-.153Zm8.345 1.64c-1.027-.138-2.382-.14-4.289-.14a.75.75 0 0 1 0-1.5h.056c1.838 0 3.294 0 4.433.153 1.172.158 2.121.49 2.87 1.238.748.749 1.08 1.698 1.238 2.87.153 1.14.153 2.595.153 4.433V10a.75.75 0 0 1-1.5 0c0-1.907-.002-3.261-.14-4.29-.135-1.005-.389-1.585-.812-2.008-.423-.423-1.003-.677-2.009-.812ZM2 13.25a.75.75 0 0 1 .75.75c0 1.907.002 3.262.14 4.29.135 1.005.389 1.585.812 2.008.423.423 1.003.677 2.009.812 1.028.138 2.382.14 4.289.14a.75.75 0 0 1 0 1.5h-.056c-1.838 0-3.294 0-4.433-.153-1.172-.158-2.121-.49-2.87-1.238-.748-.749-1.08-1.698-1.238-2.87-.153-1.14-.153-2.595-.153-4.433V14a.75.75 0 0 1 .75-.75Zm20 0a.75.75 0 0 1 .75.75v.056c0 1.838 0 3.294-.153 4.433-.158 1.172-.49 2.121-1.238 2.87-.749.748-1.698 1.08-2.87 1.238-1.14.153-2.595.153-4.433.153H14a.75.75 0 0 1 0-1.5c1.907 0 3.262-.002 4.29-.14 1.005-.135 1.585-.389 2.008-.812.423-.423.677-1.003.812-2.009.138-1.027.14-2.382.14-4.289a.75.75 0 0 1 .75-.75Z" clip-rule="evenodd"/>
    <path d="M10 5.5h4c1.886 0 2.828 0 3.414.586.55.55.584 1.414.586 3.078V14.5c0 1.886 0 2.828-.586 3.414-.586.586-1.528.586-3.414.586h-4c-1.886 0-2.828 0-3.414-.586C6 17.328 6 16.386 6 14.5V9.164c.002-1.664.036-2.528.586-3.078C7.172 5.5 8.114 5.5 10 5.5Z" opacity=".5"/>
    <path d="M18.37 9.3c-.119-.045-.242-.09-.37-.136-1.833-.778-6.8-1.868-12 0-.128.045-.251.09-.37.136a10.02 10.02 0 0 0-1.553.744 6.021 6.021 0 0 0-.54.365l-.01.009-.004.003-.002.002H3.52a.75.75 0 0 0 .957 1.156l.01-.008.063-.047a4.6 4.6 0 0 1 .298-.193A8.517 8.517 0 0 1 6.17 10.7c1.214-.467 3.123-.95 5.831-.95 2.709 0 4.617.483 5.83.95a8.514 8.514 0 0 1 1.322.63 4.46 4.46 0 0 1 .36.24l.011.009a.75.75 0 0 0 .957-1.155L20 11c.48-.576.479-.577.479-.577l-.002-.002-.004-.003-.01-.009a2.6 2.6 0 0 0-.141-.105 6.032 6.032 0 0 0-.399-.26A10.02 10.02 0 0 0 18.37 9.3Z"/>
  </g>
</svg>
