<svg xmlns="http://www.w3.org/2000/svg" width="24" height="24" fill="none">
  <g fill="#1C274C">
    <path fill-rule="evenodd" d="M8.986 3.476c-1.014-1.433-3.042-1.675-4.268-.384l-1.57 1.652c-.536.565-.943 1.348-.894 2.262.1 1.85.884 5.634 5.018 9.985 4.429 4.664 8.654 4.898 10.478 4.718.747-.073 1.352-.472 1.795-.939l1.42-1.495c1.305-1.374.925-3.673-.707-4.613l-1.911-1.1c-1.099-.632-2.46-.451-3.335.469l-.408.43a.608.608 0 0 1-.294.007c-.402-.066-1.27-.421-2.703-1.929-1.428-1.503-1.78-2.429-1.846-2.884-.032-.22 0-.336.013-.372l.003-.006.244-.258c.968-1.018 1.036-2.612.226-3.76L8.986 3.477Zm-3.18.649c.522-.55 1.443-.507 1.955.217l1.26 1.784c.423.597.358 1.391-.087 1.86l-.287.302.532.505a26.086 26.086 0 0 0-.533-.503l-.002.001-.003.003-.006.007-.013.015a1.023 1.023 0 0 0-.104.14c-.052.081-.109.19-.157.324-.098.275-.15.638-.084 1.092.13.893.715 2.092 2.242 3.7 1.523 1.604 2.673 2.234 3.55 2.376.451.073.816.015 1.092-.094a1.52 1.52 0 0 0 .421-.251l.036-.033.014-.014.007-.006.003-.004.001-.001s.002-.002-.526-.502l.528.5.455-.479c.385-.406.986-.497 1.499-.202l1.91 1.1c.821.472.982 1.634.369 2.28l-1.42 1.495c-.28.294-.572.452-.855.48-1.435.141-5.18.02-9.244-4.259-3.876-4.08-4.526-7.523-4.607-9.032-.022-.4.152-.8.484-1.149l1.57-1.652Z" clip-rule="evenodd"/>
    <path d="M16 4.25a.75.75 0 0 0 0 1.5h1.19l-2.72 2.72a.75.75 0 1 0 1.06 1.06l2.72-2.72V8a.75.75 0 0 0 1.5 0V5a.75.75 0 0 0-.75-.75h-3Z"/>
  </g>
</svg>
