<svg xmlns="http://www.w3.org/2000/svg" width="24" height="24" fill="none">
  <path stroke="#1C274C" stroke-linecap="round" stroke-linejoin="round" stroke-width="1.5" d="m15 9 4-4m0 0v3m0-3h-3"/>
  <path fill="#1C274C" d="m15.1 15.027-.543-.516.544.516Zm.456-.48.544.517-.544-.516Zm2.417-.335-.374.65.374-.65Zm1.91 1.1-.374.65.374-.65Zm.539 3.446.543.517-.543-.517Zm-1.42 1.496-.545-.517.544.517Zm-1.326.71.074.745-.074-.746Zm-9.86-4.489.543-.516-.544.516Zm-4.813-9.51-.749.041.749-.04Zm6.475 1.538.543.517-.543-.517Zm.156-2.81.613-.433-.613.433ZM8.374 3.91l-.613.433.612-.433ZM5.26 3.609l.544.516-.544-.516ZM3.691 5.26l-.543-.516.544.516Zm7.372 7.795.544-.517-.544.517Zm4.582 2.488.455-.48-1.088-1.033-.455.48 1.088 1.033Zm1.954-.682 1.91 1.1.748-1.3-1.91-1.1-.748 1.3Zm2.279 3.38-1.42 1.495 1.087 1.034 1.42-1.496-1.087-1.033Zm-2.275 1.975c-1.435.141-5.18.02-9.244-4.258l-1.087 1.033c4.429 4.663 8.654 4.898 10.478 4.717l-.147-1.492Zm-9.244-4.258c-3.876-4.081-4.526-7.523-4.607-9.033l-1.498.08c.1 1.85.884 5.634 5.018 9.986l1.087-1.033Zm1.376-6.637.286-.302-1.087-1.033-.287.302 1.088 1.033Zm.512-4.062L8.986 3.477l-1.225.866 1.26 1.783 1.226-.866Zm-5.53-2.168L3.149 4.745l1.088 1.033 1.57-1.653-1.088-1.033Zm4.474 5.713a38.223 38.223 0 0 0-.545-.515l-.002.002-.003.003a.822.822 0 0 0-.05.058 1.592 1.592 0 0 0-.23.427c-.098.275-.15.639-.084 1.093.13.892.715 2.091 2.242 3.7l1.088-1.034c-1.428-1.503-1.78-2.428-1.846-2.884-.032-.22 0-.335.013-.372l.008-.019a.249.249 0 0 1-.028.037.705.705 0 0 1-.018.02s-.002 0-.545-.516Zm1.328 4.767c1.523 1.604 2.673 2.234 3.55 2.377.451.073.816.014 1.092-.095a1.52 1.52 0 0 0 .421-.25.922.922 0 0 0 .036-.034l.014-.014a.369.369 0 0 0 .007-.006l.003-.003.001-.002s.002-.001-.542-.518c-.544-.516-.543-.517-.543-.518l.002-.001.002-.003a.241.241 0 0 0 .005-.005l.01-.01a.446.446 0 0 1 .037-.032c.01-.006.009-.004-.004.001-.02.008-.11.04-.3.009-.402-.066-1.27-.42-2.703-1.929l-1.088 1.033ZM8.986 3.477C7.972 2.043 5.944 1.8 4.718 3.092l1.087 1.033c.523-.55 1.444-.507 1.956.218l1.225-.866ZM3.752 6.926c-.022-.4.152-.8.484-1.148L3.148 4.745c-.536.564-.943 1.347-.894 2.261l1.498-.08Zm14.705 12.811c-.279.294-.57.452-.854.48l.147 1.492c.747-.073 1.352-.472 1.795-.939l-1.088-1.032ZM10.021 9.02c.968-1.019 1.036-2.613.226-3.76l-1.225.866c.422.597.357 1.392-.088 1.86L10.02 9.02Zm9.488 6.942c.821.473.982 1.635.369 2.28l1.087 1.033c1.305-1.374.925-3.673-.707-4.613l-.749 1.3Zm-3.409-.898c.385-.406.986-.497 1.499-.202l.748-1.3c-1.099-.632-2.46-.45-3.335.47l1.088 1.032Z"/>
</svg>
