<svg xmlns="http://www.w3.org/2000/svg" width="24" height="24" fill="none">
  <path fill="#1C274C" fill-rule="evenodd" d="M8.468 1.25h7.064c.44 0 .82 0 1.13.028.33.03.656.096.963.273.342.198.626.482.824.824.177.307.243.633.273.962.011.127.018.265.022.413h.325c.424 0 .779 0 1.07.019.303.02.59.062.868.172a2.75 2.75 0 0 1 1.552 1.552c.11.279.152.565.172.868.019.291.019.646.019 1.07v.144c0 .659.001 1.171-.157 1.618a2.75 2.75 0 0 1-1.303 1.513c-.419.223-.926.298-1.576.395l-.12.018-4.076.612c-.832.124-1.386.209-1.797.325-.39.11-.559.224-.668.35-.13.15-.217.36-.263.854.146.006.282.017.407.033.356.048.731.16 1.04.47.31.309.422.684.47 1.04.043.323.043.72.043 1.152v4.09c0 .433 0 .83-.043 1.152-.048.356-.16.731-.47 1.04-.309.31-.684.422-1.04.47-.323.043-.72.043-1.152.043h-.09c-.433 0-.83 0-1.152-.043-.356-.048-.731-.16-1.04-.47-.31-.309-.422-.684-.47-1.04-.043-.323-.043-.72-.043-1.152v-4.09c0-.433 0-.83.043-1.152.048-.356.16-.731.47-1.04.309-.31.684-.422 1.04-.47.146-.02.307-.03.48-.036.053-.704.197-1.323.633-1.83.375-.435.856-.663 1.399-.815.512-.145 1.16-.242 1.934-.358l4.123-.618c.828-.124 1.053-.169 1.215-.255a1.25 1.25 0 0 0 .592-.687c.06-.172.071-.402.071-1.239 0-.455 0-.76-.016-.996a1.439 1.439 0 0 0-.07-.417 1.25 1.25 0 0 0-.706-.705c-.074-.03-.187-.056-.417-.071a17.065 17.065 0 0 0-.996-.016h-.3a7.957 7.957 0 0 1-.023.413c-.03.329-.096.655-.273.962a2.25 2.25 0 0 1-.824.824c-.307.177-.633.243-.962.273-.312.028-.691.028-1.13.028H8.467c-.44 0-.82 0-1.13-.028-.33-.03-.656-.096-.963-.273a2.25 2.25 0 0 1-.824-.824c-.177-.307-.243-.633-.273-.962a6.888 6.888 0 0 1-.023-.454.75.75 0 0 1 0-1.418c.004-.164.01-.316.023-.454.03-.329.096-.655.273-.962a2.25 2.25 0 0 1 .824-.824c.307-.177.633-.243.962-.273.312-.028.691-.028 1.13-.028Zm3.537 13.5H12c-.493 0-.787.002-.997.03a.702.702 0 0 0-.177.042l-.003.001-.001.003a.702.702 0 0 0-.042.177c-.028.21-.03.504-.03.997v4c0 .493.002.787.03.997a.702.702 0 0 0 .042.177l.001.003.003.001a.702.702 0 0 0 .177.042c.21.028.504.03.997.03s.787-.002.997-.03a.702.702 0 0 0 .167-.037l.008-.004h.002l.003-.002.001-.003a.702.702 0 0 0 .042-.177c.028-.21.03-.504.03-.997v-4c0-.493-.002-.787-.03-.997a.702.702 0 0 0-.042-.177l-.001-.003-.003-.001-.005-.003a.702.702 0 0 0-.171-.04c-.21-.027-.503-.029-.993-.029ZM7.473 2.772c-.225.02-.307.055-.348.078a.75.75 0 0 0-.275.275c-.023.04-.058.123-.078.348-.021.235-.022.546-.022 1.027 0 .481 0 .792.022 1.027.02.225.055.307.078.348a.75.75 0 0 0 .275.275c.04.023.123.058.348.078.235.021.546.022 1.027.022h7c.481 0 .792 0 1.027-.022.225-.02.307-.055.348-.078a.75.75 0 0 0 .274-.275c.024-.04.058-.123.079-.348.021-.235.022-.546.022-1.027 0-.481 0-.792-.022-1.027-.02-.225-.055-.307-.079-.348a.75.75 0 0 0-.274-.275c-.04-.023-.123-.058-.348-.078A12.81 12.81 0 0 0 15.5 2.75h-7c-.481 0-.792 0-1.027.022Zm3.35 12.051Z" clip-rule="evenodd"/>
</svg>
