<svg xmlns="http://www.w3.org/2000/svg" width="24" height="24" fill="none">
  <g fill="#1C274C">
    <path d="M19.21 12.84c0 .778-.625 1.409-1.396 1.409-.77 0-1.395-.631-1.395-1.41 0-.778.624-1.409 1.395-1.409.77 0 1.395.631 1.395 1.41Z"/>
    <path fill-rule="evenodd" d="M18.448 3.073c-1.06-.332-2.03.514-2.03 1.547v3.626c-1.296.252-2.804.397-4.418.397-1.614 0-3.122-.145-4.419-.397V4.62c0-1.033-.97-1.879-2.028-1.547-.982.307-1.831.697-2.45 1.17C2.495 4.705 2 5.338 2 6.13v11.95c0 .215.037.42.104.614.06.174.143.339.244.493.324.491.841.894 1.44 1.223.609.334 1.351.62 2.185.852C7.64 21.727 9.737 22 12 22c1.9 0 3.682-.192 5.189-.529 1.493-.333 2.773-.82 3.63-1.445.208-.152.405-.322.576-.511.36-.398.605-.877.605-1.436V6.13c0-.792-.494-1.425-1.103-1.889-.619-.472-1.468-.862-2.45-1.169Zm2.157 5.154a5.847 5.847 0 0 1-.081.052c-.823.516-1.952.93-3.254 1.227-1.524.347-3.335.547-5.27.547-1.935 0-3.745-.2-5.27-.547-1.302-.297-2.431-.71-3.254-1.227a5.457 5.457 0 0 1-.08-.052v9.162l2.83-2.675 1.276-1.08a2.391 2.391 0 0 1 3.192.105l3.09 2.985a.786.786 0 0 0 .975.078l.215-.145a2.912 2.912 0 0 1 3.532.207l1.9 1.653c.157-.188.199-.337.199-.438V8.227Z" clip-rule="evenodd"/>
  </g>
</svg>
