<svg xmlns="http://www.w3.org/2000/svg" width="24" height="24" fill="none">
  <g stroke="#1C274C" stroke-width="1.5">
    <path stroke-linecap="round" d="M18 2.052c1.368.09 2.223.332 2.79.99.897 1.043.657 2.644.176 5.848l-1.2 8c-.365 2.438-.548 3.656-1.392 4.383-.844.727-2.076.727-4.541.727h-3.666c-2.465 0-3.697 0-4.541-.727-.844-.727-1.027-1.945-1.393-4.383l-1.2-8c-.48-3.204-.72-4.805.177-5.848C4.108 2 5.728 2 8.967 2H14m7 4H3m16 13H5"/>
    <path stroke-linejoin="round" d="m8 6-4.5 5 7.5 8m3-13L4 16M20 6 7 19m6 0 7.5-8L16 6m-6 0 10 10M4 6l13 13"/>
  </g>
</svg>
