<svg xmlns="http://www.w3.org/2000/svg" width="24" height="24" fill="none">
  <path fill="#1C274C" fill-rule="evenodd" d="M11.244 1.955c1.7-.94 3.79-.94 5.49 0 .63.348 1.218.91 2.173 1.825l.093.09.098.093c.95.91 1.54 1.475 1.906 2.081a5.144 5.144 0 0 1 0 5.337c-.366.607-.955 1.17-1.906 2.08l-.098.095-7.457 7.14c-.53.506-.96.92-1.34 1.226-.393.316-.78.561-1.235.692a3.51 3.51 0 0 1-1.937 0c-.454-.13-.841-.376-1.234-.692-.38-.307-.811-.72-1.34-1.226l-.048-.046c-.529-.507-.96-.92-1.28-1.283-.33-.376-.592-.753-.733-1.201a3.181 3.181 0 0 1 0-1.907c.14-.448.402-.825.733-1.2.32-.364.751-.777 1.28-1.284l7.35-7.038.079-.075c.369-.354.68-.654 1.041-.82a2.402 2.402 0 0 1 2.007 0c.36.166.672.466 1.041.82l.079.075.08.078c.367.35.683.651.86 1.003a2.213 2.213 0 0 1 0 1.994 2.331 2.331 0 0 1-.391.538c-.142.152-.323.326-.535.529l-7.394 7.08a.75.75 0 0 1-1.038-1.083l7.38-7.067c.23-.22.38-.364.488-.48a.906.906 0 0 0 .15-.191.712.712 0 0 0 0-.646c-.044-.088-.143-.198-.638-.671-.492-.471-.61-.57-.71-.617a.902.902 0 0 0-.75 0c-.101.047-.22.146-.711.617L5.47 14.836c-.558.535-.943.904-1.215 1.213-.267.304-.376.496-.428.66a1.683 1.683 0 0 0 0 1.008c.052.163.16.355.428.659.272.31.657.678 1.215 1.213.56.535.945.904 1.269 1.165.316.255.523.365.707.418.361.104.747.104 1.108 0 .184-.053.391-.163.707-.418.324-.261.71-.63 1.269-1.165l7.433-7.117c1.08-1.034 1.507-1.453 1.756-1.866a3.645 3.645 0 0 0 0-3.787c-.249-.413-.676-.832-1.756-1.866-1.079-1.032-1.518-1.444-1.954-1.685a4.198 4.198 0 0 0-4.039 0c-.437.24-.876.653-1.954 1.685l-5.99 5.735A.75.75 0 0 1 2.99 9.605L8.98 3.87l.093-.09c.955-.914 1.543-1.477 2.172-1.825Z" clip-rule="evenodd"/>
</svg>
