<svg xmlns="http://www.w3.org/2000/svg" width="24" height="24" fill="none">
  <path fill="#1C274C" d="M3.21 3.042c-.463.539-.623 1.227-.603 2.208h18.787c.02-.981-.14-1.67-.604-2.208C19.892 2 18.272 2 15.033 2H8.967C5.727 2 4.108 2 3.21 3.042ZM3.034 8.89a84.448 84.448 0 0 1-.304-2.14h.96L4.94 8 3.165 9.773l-.132-.883Zm.566 3.77.349 2.33.99-.99-1.34-1.34Zm.625 4.175.009.055c.075.503.143.954.21 1.36H6.69L7.94 17 6 15.06l-1.775 1.775Zm7.085 1.415h1.38L13.94 17 12 15.06 10.06 17l1.25 1.25Zm6 0h2.246c.067-.406.135-.857.21-1.36l.009-.055L18 15.061 16.06 17l1.25 1.25Zm2.742-3.26.35-2.33L19.06 14l.99.99Zm.782-5.217.133-.883c.121-.81.227-1.518.304-2.14h-.96L19.06 8l1.773 1.773ZM15.69 6.75h-1.38L13.06 8 15 9.94 16.94 8l-1.25-1.25Zm-6 0H8.31L7.06 8 9 9.94 10.94 8 9.69 6.75Zm-4.932 13c.196.686.451 1.165.868 1.523C6.47 22 7.702 22 10.167 22h3.666c2.465 0 3.697 0 4.541-.727.417-.358.672-.837.868-1.523H4.758ZM4.06 11 6 9.06 7.94 11 6 12.94 4.06 11Zm3 3L9 12.06 10.94 14 9 15.94 7.06 14ZM15 15.94 13.06 14 15 12.06 16.94 14 15 15.94Zm-3-3L13.94 11 12 9.06 10.06 11 12 12.94Zm6 0L16.06 11 18 9.06 19.94 11 18 12.94Z"/>
</svg>
