<svg xmlns="http://www.w3.org/2000/svg" width="24" height="24" fill="none">
  <path fill="#1C274C" fill-rule="evenodd" d="M12 2C7.286 2 4.929 2 3.464 3.464 2 4.93 2 7.286 2 12c0 4.714 0 7.071 1.464 8.535C4.93 22 7.286 22 12 22c4.714 0 7.071 0 8.535-1.465C22 19.072 22 16.714 22 12s0-7.071-1.465-8.536C19.072 2 16.714 2 12 2ZM8.964 6.863c2.238-2.15 5.856-2.15 8.094 0a5.41 5.41 0 0 1 0 7.858l-2.204 2.118a3.317 3.317 0 0 1-4.567 0 3.08 3.08 0 0 1 0-4.47l1.764-1.694a.75.75 0 1 1 1.039 1.081l-1.764 1.695a1.58 1.58 0 0 0 0 2.306 1.818 1.818 0 0 0 2.488 0l2.205-2.117a3.91 3.91 0 0 0 0-5.696c-1.658-1.592-4.358-1.592-6.016 0l-2.205 2.118a3.327 3.327 0 0 0 0 4.848.75.75 0 0 1-1.039 1.082 4.827 4.827 0 0 1 0-7.012l2.205-2.117Z" clip-rule="evenodd"/>
</svg>
