<svg xmlns="http://www.w3.org/2000/svg" width="24" height="24" fill="none">
  <path fill="#1C274C" fill-rule="evenodd" d="M15.092 1.25H8.908c-1.57 0-2.828 0-3.802.138-1.008.142-1.846.448-2.464 1.165-.617.717-.795 1.591-.787 2.61.009.983.195 2.228.428 3.78L3.5 17.05c.177 1.177.32 2.13.53 2.875.218.777.531 1.42 1.108 1.916.576.496 1.258.71 2.058.811.769.097 1.732.097 2.922.097h3.766c1.19 0 2.154 0 2.922-.097.8-.1 1.483-.315 2.059-.811.576-.497.89-1.14 1.108-1.916.21-.745.352-1.698.529-2.875l1.216-8.108c.233-1.552.42-2.797.428-3.78.009-1.019-.17-1.893-.787-2.61-.617-.717-1.456-1.023-2.463-1.165-.975-.138-2.233-.138-3.803-.138ZM3.78 3.532c.28-.325.7-.54 1.537-.66.857-.12 2.009-.122 3.651-.122h6.066c1.643 0 2.794.002 3.652.123.836.118 1.257.334 1.537.659s.43.773.423 1.617c0 .033 0 .067-.002.101H3.357l-.002-.1c-.007-.845.144-1.293.424-1.618ZM5.19 6.75H3.485c.052.409.117.861.191 1.366l.074.073L5.19 6.75Zm-1.14 3.86.619 4.124 1.707-1.797L4.05 10.61Zm1.107 7.35.048.29h.194l-.242-.29Zm1.838 1.79h11.463c-.159.479-.34.754-.573.955-.268.23-.624.38-1.267.46-.664.084-1.533.085-2.785.085h-3.666c-1.252 0-2.12-.001-2.785-.085-.643-.08-.999-.23-1.267-.46-.232-.2-.414-.476-.572-.955h1.452Zm8.718-1.5h2.476l-1.287-1.288-1.189 1.288Zm3.288-1.31.024-.161.379-2.527-1.484 1.607L19 16.94Zm.855-5.702.369-2.46c.095-.631.178-1.19.245-1.688L18.16 9.4l1.696 1.838ZM18.689 6.75h-2.976l1.429 1.548 1.547-1.548Zm-6.436 0H8.811l1.765 1.765 1.677-1.765Zm-.563 11.5H9.31l1.19-1.19 1.19 1.19Zm-4.28-6.401L4.81 9.25 7 7.06l2.543 2.543-2.134 2.246Zm1.06 1.06 2.134-2.245 2.086 2.086-2.19 2.19-2.03-2.03ZM11.56 16l2.19-2.19 2.09 2.09-2.101 2.278L11.56 16Zm3.25-3.25 2.048 2.048L18.98 12.5l-1.881-2.038-2.288 2.288Zm-1.06-1.06 2.33-2.33-2.088-2.263-2.355 2.48 2.113 2.112Zm-6.313 2.308L9.439 16l-2.161 2.162-1.774-2.13 1.933-2.034Z" clip-rule="evenodd"/>
</svg>
