<svg xmlns="http://www.w3.org/2000/svg" width="24" height="24" fill="none">
  <g fill="#1C274C">
    <path d="M2 12c0-3.771 0-5.657 1.172-6.828C4.343 4 6.229 4 10 4h4c3.771 0 5.657 0 6.828 1.172C22 6.343 22 8.229 22 12c0 3.771 0 5.657-1.172 6.828C19.657 20 17.771 20 14 20h-4c-3.771 0-5.657 0-6.828-1.172C2 17.657 2 15.771 2 12Z" opacity=".5"/>
    <path d="M12.75 10a.75.75 0 0 0-1.5 0v.701l-.607-.35a.75.75 0 1 0-.75 1.298l.607.35-.607.351a.75.75 0 1 0 .75 1.3l.607-.351V14a.75.75 0 1 0 1.5 0v-.7l.607.35a.75.75 0 0 0 .75-1.3L13.5 12l.607-.35a.75.75 0 0 0-.75-1.3l-.607.35V10Zm-6.017-.75a.75.75 0 0 1 .75.75v.7l.606-.35a.75.75 0 0 1 .75 1.3l-.607.35.607.35a.75.75 0 1 1-.75 1.3l-.606-.35v.7a.75.75 0 0 1-1.5 0v-.701l-.608.35a.75.75 0 0 1-.75-1.298L5.232 12l-.607-.35a.75.75 0 1 1 .75-1.3l.608.351V10a.75.75 0 0 1 .75-.75Zm11.285.75a.75.75 0 0 0-1.5 0v.701l-.607-.35a.75.75 0 1 0-.75 1.298l.607.35-.607.351a.75.75 0 0 0 .75 1.3l.607-.351V14a.75.75 0 0 0 1.5 0v-.7l.607.35a.75.75 0 0 0 .75-1.3l-.607-.35.607-.35a.75.75 0 1 0-.75-1.3l-.607.35V10Z"/>
  </g>
</svg>
