<svg xmlns="http://www.w3.org/2000/svg" width="24" height="24" fill="none">
  <g fill="#1C274D">
    <path d="M5 5a1 1 0 0 0-.591-.913c.144-.113.318-.19.51-.218l10.798-1.543A2 2 0 0 1 18 4.306v.82A4.007 4.007 0 0 0 17 5H5Zm4.75 8a2.25 2.25 0 1 1 4.5 0 2.25 2.25 0 0 1-4.5 0Z"/>
    <path fill-rule="evenodd" d="M18 6.17c1.165.413 2 1.524 2 2.83v10a3 3 0 0 1-3 3H7a3 3 0 0 1-3-3V5a1 1 0 0 0 1 1h12c.35 0 .687.06 1 .17Zm-6 3.08a3.75 3.75 0 1 0 0 7.5 3.75 3.75 0 0 0 0-7.5Zm-2 9a.75.75 0 0 0 0 1.5h4a.75.75 0 0 0 0-1.5h-4Z" clip-rule="evenodd"/>
  </g>
</svg>
