<svg xmlns="http://www.w3.org/2000/svg" width="24" height="24" fill="none">
  <path stroke="#1C274C" stroke-width="1.5" d="M2 6c0-1.886 0-2.828.586-3.414C3.172 2 4.114 2 6 2c1.886 0 2.828 0 3.414.586C10 3.172 10 4.114 10 6v12c0 1.886 0 2.828-.586 3.414C8.828 22 7.886 22 6 22c-1.886 0-2.828 0-3.414-.586C2 20.828 2 19.886 2 18V6Zm12 0c0-1.886 0-2.828.586-3.414C15.172 2 16.114 2 18 2c1.886 0 2.828 0 3.414.586C22 3.172 22 4.114 22 6v12c0 1.886 0 2.828-.586 3.414C20.828 22 19.886 22 18 22c-1.886 0-2.828 0-3.414-.586C14 20.828 14 19.886 14 18V6Z"/>
</svg>
