<svg xmlns="http://www.w3.org/2000/svg" width="24" height="24" fill="none">
  <g stroke="#1C274C" stroke-width="1.5">
    <circle cx="12" cy="12" r="10"/>
    <path d="M8 9.5c0-.466 0-.699.076-.883a1 1 0 0 1 .541-.54C8.801 8 9.034 8 9.5 8s.699 0 .883.076a1 1 0 0 1 .54.541c.077.184.077.417.077.883v5c0 .466 0 .699-.076.883a1 1 0 0 1-.541.54C10.199 16 9.966 16 9.5 16s-.699 0-.883-.076a1 1 0 0 1-.54-.541C8 15.199 8 14.966 8 14.5v-5Zm5 0c0-.466 0-.699.076-.883a1 1 0 0 1 .541-.54C13.801 8 14.034 8 14.5 8s.699 0 .883.076a1 1 0 0 1 .54.541c.077.184.077.417.077.883v5c0 .466 0 .699-.076.883a1 1 0 0 1-.541.54c-.184.077-.417.077-.883.077s-.699 0-.883-.076a1 1 0 0 1-.54-.541C13 15.199 13 14.966 13 14.5v-5Z"/>
  </g>
</svg>
