<svg xmlns="http://www.w3.org/2000/svg" width="24" height="24" fill="none">
  <g stroke="#1C274C" stroke-width="1.5">
    <path d="m16.652 3.455.649-.649A2.753 2.753 0 0 1 21.194 6.7l-.65.649m-3.892-3.893s.081 1.379 1.298 2.595c1.216 1.217 2.595 1.298 2.595 1.298m-3.893-3.893L10.687 9.42c-.404.404-.606.606-.78.829-.205.262-.38.547-.524.848-.121.255-.211.526-.392 1.068L8.412 13.9m12.133-6.552-5.965 5.965c-.404.404-.606.606-.829.78a4.59 4.59 0 0 1-.848.524c-.255.121-.526.211-1.068.392l-1.735.579m0 0-1.123.374a.742.742 0 0 1-.939-.94l.374-1.122m1.688 1.688L8.412 13.9"/>
    <path stroke-linecap="round" d="M22 12c0 5.523-4.477 10-10 10S2 17.523 2 12 6.477 2 12 2"/>
  </g>
</svg>
