<svg xmlns="http://www.w3.org/2000/svg" width="24" height="24" fill="none">
  <path fill="#1C274C" fill-rule="evenodd" d="M11.943 1.25H13.5a.75.75 0 0 1 0 1.5H12c-2.378 0-4.086.002-5.386.176-1.279.172-2.05.5-2.62 1.069-.569.57-.896 1.34-1.068 2.619-.174 1.3-.176 3.008-.176 5.386s.002 4.086.176 5.386c.172 1.279.5 2.05 1.069 2.62.57.569 1.34.896 2.619 1.068 1.3.174 3.008.176 5.386.176s4.086-.002 5.386-.176c1.279-.172 2.05-.5 2.62-1.069.569-.57.896-1.34 1.068-2.619.174-1.3.176-3.008.176-5.386v-1.5a.75.75 0 0 1 1.5 0v1.557c0 2.309 0 4.118-.19 5.53-.194 1.444-.6 2.584-1.494 3.479-.895.895-2.035 1.3-3.48 1.494-1.411.19-3.22.19-5.529.19h-.114c-2.309 0-4.118 0-5.53-.19-1.444-.194-2.584-.6-3.479-1.494-.895-.895-1.3-2.035-1.494-3.48-.19-1.411-.19-3.22-.19-5.529v-.114c0-2.309 0-4.118.19-5.53.194-1.444.6-2.584 1.494-3.479.895-.895 2.035-1.3 3.48-1.494 1.411-.19 3.22-.19 5.529-.19Zm4.827 1.026a3.503 3.503 0 0 1 4.954 4.953l-6.648 6.649c-.371.37-.604.604-.863.806a5.34 5.34 0 0 1-.987.61c-.297.141-.61.245-1.107.411l-2.905.968a1.492 1.492 0 0 1-1.887-1.887l.968-2.905c.166-.498.27-.81.411-1.107.167-.35.372-.68.61-.987.202-.26.435-.492.806-.863l6.648-6.648Zm3.893 1.06a2.003 2.003 0 0 0-2.832 0l-.376.377c.022.096.054.21.098.338.143.413.415.957.927 1.469a3.875 3.875 0 0 0 1.807 1.025l.376-.376a2.003 2.003 0 0 0 0-2.832Zm-1.558 4.391a5.397 5.397 0 0 1-1.686-1.146 5.395 5.395 0 0 1-1.146-1.686L11.217 9.95c-.416.417-.58.582-.718.76a3.84 3.84 0 0 0-.439.71c-.097.203-.171.423-.358.982l-.431 1.295 1.032 1.033 1.295-.432c.56-.187.779-.261.983-.358.251-.12.49-.267.71-.439.177-.139.342-.302.759-.718l5.055-5.056Z" clip-rule="evenodd"/>
</svg>
