<svg xmlns="http://www.w3.org/2000/svg" width="24" height="24" fill="none">
  <path fill="#1C274C" fill-rule="evenodd" d="M1.25 12C1.25 6.063 6.063 1.25 12 1.25a.75.75 0 0 1 0 1.5A9.25 9.25 0 1 0 21.25 12a.75.75 0 0 1 1.5 0c0 5.937-4.813 10.75-10.75 10.75S1.25 17.937 1.25 12Zm15.52-9.724a3.503 3.503 0 0 1 4.954 4.953l-6.648 6.649c-.371.37-.604.604-.863.806a5.34 5.34 0 0 1-.987.61c-.297.141-.61.245-1.107.411l-2.905.968a1.492 1.492 0 0 1-1.887-1.887l.968-2.905c.166-.498.27-.81.411-1.107.167-.35.372-.68.61-.987.202-.26.435-.492.806-.863l6.648-6.648Zm3.893 1.06a2.003 2.003 0 0 0-2.832 0l-.376.377c.022.096.054.21.098.338.143.413.415.957.927 1.469a3.875 3.875 0 0 0 1.807 1.025l.376-.376a2.003 2.003 0 0 0 0-2.832Zm-1.558 4.391a5.397 5.397 0 0 1-1.686-1.146 5.395 5.395 0 0 1-1.146-1.686L11.217 9.95c-.416.417-.58.582-.718.76a3.84 3.84 0 0 0-.439.71c-.097.203-.171.423-.358.982l-.431 1.295 1.032 1.033 1.295-.432c.56-.187.779-.261.983-.358.251-.12.49-.267.71-.439.177-.139.342-.302.759-.718l5.055-5.056Z" clip-rule="evenodd"/>
</svg>
