<svg xmlns="http://www.w3.org/2000/svg" width="24" height="24" fill="none">
  <g fill="#1C274C">
    <path d="M2.4 12.15C3.45 9.16 6.455 7 10 7c3.957 0 7.242 2.691 7.886 6.226-.655-.276-1.505-.505-2.365-.648-1.735-.288-3.06.312-4.195.83l-.011.005c-1.154.527-2.111.964-3.37.822-1.003-.113-1.906-.43-2.754-.806-.384-.17-.749-.348-1.11-.525l-.121-.059a19.044 19.044 0 0 0-1.179-.54L2.4 12.15Z"/>
    <path d="M2.053 13.628a7.101 7.101 0 0 0-.053.867c0 1.915.766 3.662 2.028 4.987.45.473.675.709 1.618 1.114C6.59 21 7.24 21 8.542 21h2.916c1.302 0 1.952 0 2.896-.404.943-.405 1.168-.641 1.619-1.114 1.158-1.217 1.898-2.79 2.012-4.52l-.349-.194c-.471-.262-1.354-.543-2.361-.71-1.239-.206-2.184.193-3.326.715l-.11.05c-1.094.5-2.386 1.091-4.062.903-1.215-.137-2.275-.519-3.194-.926-.41-.182-.8-.372-1.16-.548l-.12-.059a17.657 17.657 0 0 0-1.084-.498l-.166-.067ZM12.56 2.44c.354.353.423.88.437 1.81h1.323a5.75 5.75 0 0 1 2.571.607l.836.418c.681-.549 1.8-.587 2.773-.025 1.196.69 1.718 2.025 1.165 2.982-.552.956-1.97 1.172-3.165.482-.844-.488-1.353-1.297-1.384-2.067l-.896-.448a4.25 4.25 0 0 0-1.9-.449H13v.734A9.468 9.468 0 0 0 10 6c-1.05 0-2.06.17-3 .484V5.75h.107c.097.001.21.002.306 0 .139-.005.327-.018.516-.076.202-.063.437-.188.608-.435.166-.238.213-.505.213-.739 0-.234-.047-.501-.213-.74a1.135 1.135 0 0 0-.609-.434 1.959 1.959 0 0 0-.516-.075 8.399 8.399 0 0 0-.304-.001H7.07c.059-.354.168-.61.368-.81C7.88 2 8.586 2 10 2s2.121 0 2.56.44Z"/>
  </g>
</svg>
