<svg xmlns="http://www.w3.org/2000/svg" width="24" height="24" fill="none">
  <g stroke="#1C274C" stroke-width="1.5">
    <path stroke-linecap="round" d="M11 9.472A4.49 4.49 0 0 0 9.682 6.29 4.481 4.481 0 0 0 7 5m4 4.472a4.5 4.5 0 0 1-9 0m9 0H2m0 0A4.49 4.49 0 0 1 3.318 6.29m11.439.831A3 3 0 1 0 19 2.88a3 3 0 0 0-4.243 4.242Zm2.624 13.784 3.524-3.524a3.738 3.738 0 0 0-5.286-5.286l-3.524 3.524A3.738 3.738 0 0 0 14 21.927"/>
    <path d="M14 14s.281 1.46 1.911 3.09C17.541 18.718 19 19 19 19"/>
  </g>
</svg>
