<svg xmlns="http://www.w3.org/2000/svg" width="24" height="24" fill="none">
  <g fill="#1C274C">
    <path fill-rule="evenodd" d="m12.951 8.595-.364-.357C11.07 6.746 10.31 5.999 9.488 6c-.27 0-.535.054-.782.158-.756.32-1.153 1.3-1.948 3.261l-.057.142c-.225.556-.338.834-.518 1.058-.138.17-.303.317-.489.433-.245.154-.538.236-1.124.4-.908.252-1.362.38-1.563.65a.96.96 0 0 0-.185.696c.042.333.376.66 1.043 1.317l1.017 1 1.045 1.026.018.018 1.027 1.009c.668.656 1.001.984 1.34 1.025.251.031.505-.034.709-.18.275-.199.404-.645.661-1.538.167-.575.25-.863.406-1.104.12-.183.268-.345.441-.48.228-.178.511-.289 1.077-.51l.144-.056c1.995-.78 2.993-1.17 3.318-1.914.106-.243.16-.504.161-.768 0-.81-.758-1.556-2.277-3.048Z" clip-rule="evenodd"/>
    <path d="m3.27 18.786 2.674-2.627-.018-.018-1.045-1.027-2.663 2.637a.723.723 0 0 0 0 1.035.753.753 0 0 0 1.053 0Z" opacity=".5"/>
    <path fill-rule="evenodd" d="M22 8.377a.738.738 0 0 1-.744.731h-4.962a.738.738 0 0 1-.744-.731c0-.404.333-.731.744-.731h4.962c.411 0 .744.327.744.731Zm0 4.389a.738.738 0 0 1-.744.731h-3.97a.738.738 0 0 1-.744-.731c0-.404.333-.732.744-.732h3.97c.411 0 .744.328.744.732Zm0 4.389a.738.738 0 0 1-.744.731h-8.932a.738.738 0 0 1-.744-.731c0-.404.333-.732.744-.732h8.932c.411 0 .744.328.744.732Z" clip-rule="evenodd" opacity=".5"/>
  </g>
</svg>
