<svg xmlns="http://www.w3.org/2000/svg" width="24" height="24" fill="none">
  <g fill="#1C274C">
    <path fill-rule="evenodd" d="M22.75 8a.75.75 0 0 1-.75.75h-5a.75.75 0 0 1 0-1.5h5a.75.75 0 0 1 .75.75Zm0 4.5a.75.75 0 0 1-.75.75h-4a.75.75 0 0 1 0-1.5h4a.75.75 0 0 1 .75.75Zm-8.99-5.208.437.436c.735.736 1.335 1.336 1.745 1.857.42.534.734 1.098.734 1.764 0 .373-.076.741-.223 1.083-.263.612-.775 1.006-1.372 1.33-.583.317-1.371.63-2.338 1.015l-.19.076c-.613.244-.774.316-.897.414a1.25 1.25 0 0 0-.278.307c-.085.133-.14.3-.32.934l-.01.035c-.121.428-.227.8-.34 1.089-.115.293-.281.622-.594.852a1.75 1.75 0 0 1-1.251.325c-.386-.048-.691-.254-.935-.454a12.718 12.718 0 0 1-.827-.786l-1.06-1.06-2.164 2.163a.75.75 0 0 1-1.06-1.06l2.163-2.164-1.06-1.06a12.842 12.842 0 0 1-.786-.828c-.2-.243-.406-.548-.454-.934a1.75 1.75 0 0 1 .325-1.25c.23-.314.559-.48.852-.595.288-.113.661-.22 1.09-.34l.034-.01c.634-.18.8-.236.934-.32a1.25 1.25 0 0 0 .307-.278c.098-.123.17-.284.414-.896l.076-.192c.384-.966.698-1.754 1.015-2.337.324-.597.718-1.109 1.33-1.372a2.75 2.75 0 0 1 1.083-.223c.666 0 1.23.314 1.764.734.521.41 1.121 1.01 1.857 1.745Zm-5.624 9.191-1.557-1.556-.008-.01-.009-.008-1.556-1.556c-.348-.348-.569-.57-.714-.746a.942.942 0 0 1-.125-.179.25.25 0 0 1 .04-.155.946.946 0 0 1 .197-.096c.212-.083.514-.17.986-.303l.088-.025c.504-.143.901-.255 1.243-.474a2.75 2.75 0 0 0 .677-.61c.252-.318.404-.702.598-1.189l.091-.23c.407-1.023.689-1.727.958-2.222.266-.49.454-.645.604-.71a1.25 1.25 0 0 1 .492-.101c.164 0 .397.068.835.413.443.348.98.883 1.759 1.662l.366.366c.779.779 1.314 1.316 1.662 1.758.345.439.413.672.413.836 0 .169-.035.337-.102.492-.064.15-.219.338-.709.604-.495.269-1.199.55-2.222.958l-.23.091c-.488.194-.87.346-1.189.598a2.75 2.75 0 0 0-.61.677c-.219.342-.331.739-.474 1.243l-.025.088c-.134.472-.22.774-.303.986a.942.942 0 0 1-.096.197.25.25 0 0 1-.155.04.942.942 0 0 1-.18-.125 12.413 12.413 0 0 1-.745-.714Z" clip-rule="evenodd"/>
    <path d="M22 17.75a.75.75 0 0 0 0-1.5h-9a.75.75 0 0 0 0 1.5h9Z"/>
  </g>
</svg>
