<svg xmlns="http://www.w3.org/2000/svg" width="24" height="24" fill="none">
  <g fill="#1C274C">
    <path fill-rule="evenodd" d="M19.151 7.79 16.21 4.848c-2.028-2.027-3.042-3.041-4.149-2.818-1.107.224-1.648 1.552-2.73 4.207l-1.015 2.49c-.298.733-.447 1.1-.704 1.379a2.102 2.102 0 0 1-.288.26c-.304.227-.683.339-1.442.562-1.793.528-2.69.791-2.997 1.408-.1.201-.156.42-.165.645-.025.689.636 1.35 1.958 2.671l1.276 1.277 1.117 1.117 1.276 1.276c1.322 1.322 1.983 1.983 2.672 1.957a1.58 1.58 0 0 0 .645-.164c.617-.307.88-1.204 1.408-2.997.223-.76.335-1.138.562-1.442.078-.104.165-.2.26-.288.28-.257.646-.406 1.378-.705l2.49-1.014c2.656-1.082 3.984-1.623 4.207-2.73.224-1.107-.79-2.121-2.818-4.149Z" clip-rule="evenodd"/>
    <path d="m3.348 21.769 3.723-3.723-1.117-1.117-3.723 3.723a.79.79 0 1 0 1.117 1.117Z" opacity=".5"/>
  </g>
</svg>
