<svg xmlns="http://www.w3.org/2000/svg" width="24" height="24" fill="none">
  <g fill="#1C274C">
    <path fill-rule="evenodd" d="M2.25 6A.75.75 0 0 1 3 5.25h17a.75.75 0 0 1 0 1.5H3A.75.75 0 0 1 2.25 6Zm0 5a.75.75 0 0 1 .75-.75h7a.75.75 0 0 1 0 1.5H3a.75.75 0 0 1-.75-.75Zm0 5a.75.75 0 0 1 .75-.75h7a.75.75 0 0 1 0 1.5H3a.75.75 0 0 1-.75-.75Z" clip-rule="evenodd"/>
    <path d="M19.125 10.685c1.642.948 2.463 1.422 2.723 2.05.203.49.203 1.04 0 1.53-.26.628-1.081 1.102-2.723 2.05-1.642.948-2.463 1.422-3.136 1.333a2 2 0 0 1-1.326-.765c-.413-.539-.413-1.487-.413-3.383s0-2.844.413-3.383a2 2 0 0 1 1.326-.765c.673-.089 1.494.385 3.136 1.333Z"/>
  </g>
</svg>
