<svg xmlns="http://www.w3.org/2000/svg" width="24" height="24" fill="none">
  <g stroke="#1C274C" stroke-width="1.5">
    <path d="m18.636 15.67 1.716-5.15c1.5-4.498 2.25-6.747 1.062-7.934-1.187-1.187-3.436-.438-7.935 1.062L8.33 5.364C4.7 6.574 2.885 7.18 2.37 8.067a2.717 2.717 0 0 0 0 2.73c.515.888 2.33 1.493 5.96 2.704.584.194.875.291 1.119.454.236.158.439.361.597.597.163.244.26.535.454 1.118 1.21 3.63 1.816 5.446 2.703 5.962a2.72 2.72 0 0 0 2.731 0c.887-.516 1.492-2.331 2.703-5.962Z"/>
    <path stroke-linecap="round" d="m17.79 6.21-4.211 4.165" opacity=".5"/>
  </g>
</svg>
