<svg xmlns="http://www.w3.org/2000/svg" width="24" height="24" fill="none">
  <g fill="#1C274C">
    <path d="M19.992 11.643c.283-.253.546-.504.789-.752.754-.77 1.342-1.54 1.672-2.268.324-.716.458-1.544.012-2.258-.42-.67-1.185-.96-1.956-1.064-.79-.107-1.75-.041-2.797.152l-.888.165a8 8 0 0 0-12.82 6.641l-.527.593c-.84.817-1.497 1.636-1.872 2.403-.366.75-.54 1.627-.07 2.38.433.691 1.232.979 2.032 1.074.825.098 1.828.016 2.923-.201.215-.043.436-.091.66-.145a8.046 8.046 0 0 1-1.311-1.26c-.853.146-1.56.18-2.095.116-.632-.075-.865-.264-.937-.38-.063-.1-.132-.358.145-.925.241-.494.688-1.092 1.342-1.758a7.979 7.979 0 0 0 1.545 2.947c.117-.02.237-.042.36-.067 2.02-.4 4.613-1.351 7.28-2.772 2.665-1.42 4.848-3.012 6.227-4.42a7.98 7.98 0 0 0-1.545-2.947c.885-.151 1.61-.182 2.149-.11.594.08.813.262.883.374.06.095.126.33-.107.844-.227.502-.683 1.129-1.377 1.836l-.003.003c.161.576.259 1.179.286 1.799Z"/>
    <path d="M12 20a8 8 0 0 0 7.992-8.357c-1.481 1.327-3.49 2.71-5.809 3.945-2.491 1.328-4.958 2.281-7.032 2.775A7.965 7.965 0 0 0 12 20Z"/>
  </g>
</svg>
