<svg xmlns="http://www.w3.org/2000/svg" width="24" height="24" fill="none">
  <g fill="#1C274C">
    <path d="M12.75 3a.75.75 0 0 0-1.5 0v2a.75.75 0 0 0 1.5 0V3Z"/>
    <path fill-rule="evenodd" d="M22.75 12.056c0 1.838 0 3.294-.153 4.433-.158 1.172-.49 2.121-1.238 2.87-.749.748-1.698 1.08-2.87 1.238-1.14.153-2.595.153-4.433.153H9.944c-1.837 0-3.293 0-4.432-.153-1.172-.158-2.121-.49-2.87-1.238-.748-.749-1.08-1.698-1.238-2.87-.153-1.14-.153-2.595-.153-4.433v-.926c.001-.383.003-.749.008-1.096.014-.975.05-1.81.145-2.523.158-1.172.49-2.121 1.238-2.87.749-.748 1.698-1.08 2.87-1.238.716-.096 1.558-.132 2.541-.145l.697-.005a.998.998 0 0 1 1.001.999V5a2.25 2.25 0 0 0 4.5 0v-.75c0-.552.448-1 1-.998 1.29.006 2.359.033 3.239.151 1.172.158 2.121.49 2.87 1.238.748.749 1.08 1.698 1.238 2.87.153 1.14.153 2.595.153 4.433v.112ZM8 9.75a.75.75 0 0 0 0 1.5h8a.75.75 0 0 0 0-1.5H8Zm0 3.5a.75.75 0 0 0 0 1.5h5.5a.75.75 0 0 0 0-1.5H8Z" clip-rule="evenodd"/>
  </g>
</svg>
