<svg xmlns="http://www.w3.org/2000/svg" width="24" height="24" fill="none">
  <g fill="#1C274C">
    <path fill-rule="evenodd" d="M2.25 6A.75.75 0 0 1 3 5.25h18a.75.75 0 0 1 0 1.5H3A.75.75 0 0 1 2.25 6Zm0 4A.75.75 0 0 1 3 9.25h18a.75.75 0 0 1 0 1.5H3a.75.75 0 0 1-.75-.75Zm0 4a.75.75 0 0 1 .75-.75h8a.75.75 0 0 1 0 1.5H3a.75.75 0 0 1-.75-.75Zm0 4a.75.75 0 0 1 .75-.75h8a.75.75 0 0 1 0 1.5H3a.75.75 0 0 1-.75-.75Z" clip-rule="evenodd"/>
    <path d="M18.875 14.118c1.654.955 2.48 1.433 2.602 2.121a1.5 1.5 0 0 1 0 .521c-.121.69-.948 1.167-2.602 2.122-1.654.954-2.48 1.432-3.138 1.193a1.499 1.499 0 0 1-.451-.26c-.536-.45-.536-1.405-.536-3.315s0-2.864.536-3.314c.134-.113.287-.2.451-.26.657-.24 1.484.238 3.138 1.192Z"/>
  </g>
</svg>
