<svg xmlns="http://www.w3.org/2000/svg" width="24" height="24" fill="none">
  <path fill="#1C274C" fill-rule="evenodd" d="M2.25 6A.75.75 0 0 1 3 5.25h12a.75.75 0 0 1 0 1.5H3A.75.75 0 0 1 2.25 6ZM17 7.25a.75.75 0 0 1 .75.75A3.25 3.25 0 0 0 21 11.25a.75.75 0 0 1 0 1.5c-1.257 0-2.4-.488-3.25-1.286V16.5a3.25 3.25 0 1 1-1.5-2.74V8a.75.75 0 0 1 .75-.75Zm-.75 9.25a1.75 1.75 0 1 0-3.5 0 1.75 1.75 0 0 0 3.5 0Zm-14-6.5A.75.75 0 0 1 3 9.25h10a.75.75 0 0 1 0 1.5H3a.75.75 0 0 1-.75-.75Zm0 4a.75.75 0 0 1 .75-.75h6a.75.75 0 0 1 0 1.5H3a.75.75 0 0 1-.75-.75Zm0 4a.75.75 0 0 1 .75-.75h5a.75.75 0 0 1 0 1.5H3a.75.75 0 0 1-.75-.75Z" clip-rule="evenodd"/>
</svg>
