<svg xmlns="http://www.w3.org/2000/svg" width="24" height="24" fill="none">
  <path stroke="#1C274C" stroke-width="1.5" d="M16.163 6.837C19.388 9.03 21 10.125 21 12c0 1.875-1.612 2.97-4.837 5.163a46.431 46.431 0 0 1-2.585 1.65c-.711.416-1.518.847-2.352 1.27-3.217 1.63-4.826 2.446-6.269 1.543-1.442-.902-1.574-2.792-1.836-6.57A45.156 45.156 0 0 1 3 12c0-.94.047-1.987.121-3.055.262-3.779.393-5.668 1.836-6.57 1.443-.903 3.052-.088 6.269 1.542.834.423 1.64.854 2.352 1.27a46.385 46.385 0 0 1 2.585 1.65Z"/>
</svg>
