<svg xmlns="http://www.w3.org/2000/svg" width="24" height="24" fill="none">
  <g fill="#1C274C">
    <path fill-rule="evenodd" d="m12.573 8.09.059.036c.287.175.57.356.825.535.29.204.6.444.905.693l.046.037c.498.406.945.771 1.258 1.135.354.413.584.877.584 1.474s-.23 1.06-.584 1.474c-.313.364-.76.729-1.258 1.135l-.046.037c-.305.25-.615.49-.905.693-.255.179-.538.36-.825.535l-.06.036c-.484.295-.942.574-1.343.718-.223.08-.478.138-.754.118a1.451 1.451 0 0 1-.773-.296c-.459-.344-.643-.843-.74-1.34-.091-.472-.126-1.081-.167-1.793l-.003-.052c-.026-.436-.042-.87-.042-1.265a22.399 22.399 0 0 1 .045-1.317c.04-.712.076-1.32.168-1.793.096-.497.28-.996.74-1.34.225-.17.483-.274.772-.296.276-.02.531.038.754.118.4.144.859.423 1.344.718Zm-1.973.661c-.024.019-.1.086-.165.424-.07.362-.1.868-.146 1.646-.024.419-.039.823-.039 1.179 0 .356.015.76.04 1.179.044.777.075 1.284.145 1.646.066.339.14.405.165.424a.601.601 0 0 0 .122-.033c.24-.086.565-.28 1.13-.624.27-.163.524-.327.743-.48.25-.177.53-.393.819-.628.558-.456.899-.737 1.114-.988.183-.213.222-.343.222-.496 0-.153-.04-.283-.222-.496-.215-.251-.556-.532-1.114-.988a14.642 14.642 0 0 0-.819-.627c-.22-.155-.474-.318-.743-.481-.566-.344-.89-.538-1.13-.624a.601.601 0 0 0-.122-.033Z" clip-rule="evenodd"/>
    <path d="M22.75 12c0-5.937-4.813-10.75-10.75-10.75-.822 0-1.622.092-2.392.267A.75.75 0 1 0 9.94 2.98a9.25 9.25 0 1 1 0 18.04.75.75 0 1 0-.332 1.463c.77.175 1.57.267 2.392.267 5.937 0 10.75-4.813 10.75-10.75ZM4.166 16.921a.75.75 0 0 0-1.27.8 10.804 10.804 0 0 0 3.383 3.382.75.75 0 0 0 .8-1.27 9.302 9.302 0 0 1-2.913-2.912ZM2.98 9.94a.75.75 0 1 0-1.463-.332c-.175.77-.267 1.57-.267 2.392 0 .822.092 1.622.267 2.393a.75.75 0 0 0 1.463-.333A9.283 9.283 0 0 1 2.75 12c0-.709.08-1.398.23-2.06Zm4.099-5.774a.75.75 0 0 0-.8-1.27A10.803 10.803 0 0 0 2.897 6.28a.75.75 0 1 0 1.27.8 9.303 9.303 0 0 1 2.912-2.913Z"/>
  </g>
</svg>
