<svg xmlns="http://www.w3.org/2000/svg" width="24" height="24" fill="none">
  <g stroke="#1C274C" stroke-width="1.5">
    <path stroke-linecap="round" stroke-linejoin="round" d="M22 12a9.969 9.969 0 0 1-2.922 7.064M2 12a9.969 9.969 0 0 1 2.936-7.078M19.141 5a10.015 10.015 0 0 1 2.027 3M5 19.142A10.02 10.02 0 0 1 2.832 16m13.453-7.956C17.345 9.059 18 10.449 18 11.982c0 1.552-.67 2.957-1.753 3.974M7.8 16C6.69 14.979 6 13.556 6 11.982 6 10.427 6.673 9.018 7.762 8"/>
    <path d="M13.656 10.451C14.552 11.11 15 11.438 15 12c0 .562-.448.891-1.344 1.549a13.08 13.08 0 0 1-.718.495 12.23 12.23 0 0 1-.653.38c-.894.49-1.34.735-1.741.464-.401-.271-.438-.838-.51-1.971-.02-.321-.034-.635-.034-.917 0-.282.013-.596.034-.917.072-1.133.109-1.7.51-1.97.4-.272.847-.027 1.74.462.233.127.457.256.654.381.226.143.471.314.718.495Z"/>
  </g>
</svg>
