<svg xmlns="http://www.w3.org/2000/svg" width="24" height="24" fill="none">
  <g fill="#1C274C">
    <path d="M3 13.037c0-1.103 0-1.655.393-1.976.139-.114.308-.206.497-.269.532-.177 1.231-.002 2.629.346 1.067.267 1.6.4 2.14.386.198-.005.395-.025.588-.059.525-.093.993-.326 1.929-.793l1.382-.69c1.2-.599 1.799-.898 2.487-.967.688-.069 1.372.102 2.739.443l1.165.29c.99.247 1.485.371 1.768.665.283.294.283.685.283 1.466v6.084c0 1.103 0 1.655-.393 1.976a1.563 1.563 0 0 1-.497.269c-.532.177-1.231.003-2.629-.346-1.067-.267-1.6-.4-2.14-.386a3.951 3.951 0 0 0-.588.059c-.525.093-.993.326-1.929.793l-1.382.69c-1.2.599-1.799.898-2.487.967-.688.069-1.372-.102-2.739-.443l-1.165-.29c-.99-.247-1.485-.371-1.768-.665C3 20.293 3 19.902 3 19.121v-6.084Z" opacity=".5"/>
    <path fill-rule="evenodd" d="M12 2C8.686 2 6 4.552 6 7.7c0 3.124 1.915 6.769 4.903 8.072a2.755 2.755 0 0 0 2.194 0C16.085 14.47 18 10.824 18 7.7 18 4.552 15.314 2 12 2Zm0 8a2 2 0 1 0 0-4 2 2 0 0 0 0 4Z" clip-rule="evenodd"/>
  </g>
</svg>
