<svg xmlns="http://www.w3.org/2000/svg" width="24" height="24" fill="none">
  <path fill="#1C274C" fill-rule="evenodd" d="M5.25 7.7c0-3.598 3.059-6.45 6.75-6.45 3.608 0 6.612 2.725 6.745 6.208l.478.16c.463.153.87.289 1.191.439.348.162.667.37.911.709.244.338.341.707.385 1.088.04.353.04.78.04 1.269v5.748c0 .61 0 1.13-.047 1.547-.05.438-.161.87-.463 1.237a2.25 2.25 0 0 1-.62.525c-.412.237-.855.276-1.296.253-.42-.022-.933-.107-1.534-.208l-.041-.007c-1.293-.215-1.814-.296-2.322-.254a4.3 4.3 0 0 0-.552.083c-.498.109-.976.342-2.159.933l-.122.061c-1.383.692-2.234 1.118-3.154 1.251-.276.04-.555.06-.835.06-.928-.002-1.825-.301-3.28-.786a73.75 73.75 0 0 1-.127-.043l-.384-.128-.037-.012c-.463-.154-.87-.29-1.191-.44-.348-.162-.667-.37-.911-.709-.244-.338-.341-.707-.385-1.088-.04-.353-.04-.78-.04-1.269v-5.02c0-.786 0-1.448.067-1.967.07-.542.23-1.072.666-1.47a2.25 2.25 0 0 1 .42-.304c.517-.287 1.07-.27 1.605-.166.11.021.223.047.342.078-.066-.446-.1-.89-.1-1.328Zm.499 3.01a9.414 9.414 0 0 0-1.028-.288c-.395-.077-.525-.03-.586.004a.747.747 0 0 0-.14.101c-.053.048-.138.156-.19.556-.053.41-.055.974-.055 1.825v4.93c0 .539.001.88.03 1.138.028.238.072.327.112.381.039.055.109.125.326.226.236.11.56.219 1.07.39l.384.127c1.624.541 2.279.75 2.936.752.207 0 .413-.015.617-.044.65-.094 1.276-.397 2.82-1.17l.093-.046c1.06-.53 1.714-.857 2.417-1.01.246-.054.496-.092.747-.113.717-.06 1.432.06 2.593.253l.1.017c.655.109 1.083.18 1.407.196.312.016.419-.025.471-.055a.749.749 0 0 0 .207-.175c.039-.047.097-.146.132-.456.037-.323.038-.757.038-1.42v-5.667c0-.539-.001-.88-.03-1.138-.028-.238-.072-.327-.112-.381-.039-.055-.109-.125-.326-.226-.236-.11-.56-.219-1.07-.39l-.06-.019a10.701 10.701 0 0 1-1.335 3.788c-.912 1.568-2.247 2.934-3.92 3.663a3.505 3.505 0 0 1-2.794 0c-1.673-.73-3.008-2.095-3.92-3.663a10.856 10.856 0 0 1-.934-2.087ZM12 2.75c-2.936 0-5.25 2.252-5.25 4.95 0 1.418.437 2.98 1.23 4.341.791 1.362 1.908 2.47 3.223 3.044.505.22 1.089.22 1.594 0 1.316-.574 2.432-1.682 3.224-3.044.792-1.36 1.229-2.923 1.229-4.34 0-2.699-2.314-4.951-5.25-4.951Zm0 4a1.25 1.25 0 1 0 0 2.5 1.25 1.25 0 0 0 0-2.5ZM9.25 8a2.75 2.75 0 1 1 5.5 0 2.75 2.75 0 0 1-5.5 0Z" clip-rule="evenodd"/>
</svg>
