<svg xmlns="http://www.w3.org/2000/svg" width="24" height="24" fill="none">
  <g fill="#1C274C">
    <path d="M3.464 3.464C2 4.93 2 7.286 2 12c0 .819 0 1.566.008 2.25h3.1c.526 0 .993-.002 1.421.182.429.184.75.522 1.112.904l.075.078 1.141 1.199a.249.249 0 0 0 .384-.026l3.653-5.043c.15-.206.304-.42.458-.579.175-.18.447-.394.842-.412.394-.018.685.17.876.333.167.144.341.343.508.534l1.804 2.062c.486.555.59.65.703.701.113.051.253.067.99.067h2.917A198.6 198.6 0 0 0 22 12c0-4.714 0-7.071-1.465-8.536C19.072 2 16.714 2 12 2S4.929 2 3.464 3.464Z" opacity=".5"/>
    <path d="M2.008 14.25c.036 3.255.246 5.075 1.457 6.285C4.929 22 7.286 22 12 22s7.071 0 8.536-1.465c1.21-1.21 1.42-3.03 1.456-6.285h-2.916c-.738 0-.878-.016-.99-.067-.114-.052-.218-.146-.704-.702L15.58 11.42c-.168-.191-.342-.39-.509-.534-.191-.164-.482-.352-.876-.333-.395.018-.667.231-.842.412a5.494 5.494 0 0 0-.457.578L9.24 16.587a.249.249 0 0 1-.384.025l-1.141-1.198-.075-.079c-.362-.381-.683-.72-1.112-.903-.428-.184-.895-.183-1.421-.182h-3.1Z"/>
  </g>
</svg>
