<svg xmlns="http://www.w3.org/2000/svg" width="24" height="24" fill="none">
  <g fill="#1C274C">
    <path d="M2 12c0-4.714 0-7.071 1.464-8.536C4.93 2 7.286 2 12 2c4.714 0 7.071 0 8.535 1.464C22 4.93 22 7.286 22 12c0 4.714 0 7.071-1.465 8.535C19.072 22 16.714 22 12 22s-7.071 0-8.536-1.465C2 19.072 2 16.714 2 12Z" opacity=".5"/>
    <path d="M15.1 12.094c-.185-.302-.366-.597-.542-.807-.187-.224-.515-.532-1.017-.512-.502.02-.804.353-.973.591-.159.225-.315.532-.475.848l-1.988 3.92c-.075.148-.137.271-.193.377a23.641 23.641 0 0 1-.238-.351l-.176-.266a11.045 11.045 0 0 0-.557-.788 2.223 2.223 0 0 0-.682-.59 2.222 2.222 0 0 0-.87-.24 11.008 11.008 0 0 0-.964-.026H5a.75.75 0 1 0 0 1.5h1.394c.407 0 .661 0 .856.019.18.017.254.044.301.07.047.025.111.07.225.211.123.152.265.363.49.702l.187.279c.188.283.373.56.553.759.192.213.522.497 1.01.468.486-.029.78-.35.947-.584.154-.219.305-.517.459-.82l1.987-3.918c.079-.155.144-.284.203-.395.067.106.143.23.233.377l.654 1.068c.2.327.378.616.55.844.186.247.399.469.692.633.293.164.593.23.901.26.284.027.623.027 1.006.027H19a.75.75 0 0 0 0-1.5h-1.32c-.424 0-.69 0-.894-.02-.188-.019-.264-.049-.312-.076-.049-.027-.114-.076-.227-.227a10.45 10.45 0 0 1-.485-.752l-.663-1.081Z"/>
  </g>
</svg>
