<svg xmlns="http://www.w3.org/2000/svg" width="24" height="24" fill="none">
  <path fill="#1C274C" fill-rule="evenodd" d="M12 22c-4.714 0-7.071 0-8.536-1.465C2 19.072 2 16.714 2 12s0-7.071 1.464-8.536C4.93 2 7.286 2 12 2c4.714 0 7.071 0 8.535 1.464C22 4.93 22 7.286 22 12c0 4.714 0 7.071-1.465 8.535C19.072 22 16.714 22 12 22Zm0-14.25c-.621 0-1.125.504-1.125 1.125a.75.75 0 0 1-1.5 0 2.625 2.625 0 1 1 4.508 1.829c-.092.095-.18.183-.264.267a6.666 6.666 0 0 0-.571.617c-.22.282-.298.489-.298.662V13a.75.75 0 0 1-1.5 0v-.75c0-.655.305-1.186.614-1.583.229-.294.516-.58.75-.814.07-.07.136-.135.193-.194A1.125 1.125 0 0 0 12 7.75ZM12 17a1 1 0 1 0 0-2 1 1 0 0 0 0 2Z" clip-rule="evenodd"/>
</svg>
