<svg xmlns="http://www.w3.org/2000/svg" width="24" height="24" fill="none">
  <path fill="#1C274C" fill-rule="evenodd" d="M12 22c5.523 0 10-4.477 10-10S17.523 2 12 2 2 6.477 2 12s4.477 10 10 10Zm1.358-15.07a5.226 5.226 0 0 0-2.232-.107.75.75 0 0 1-.252-1.478 6.749 6.749 0 1 1-4.519 2.953c.453-.69 1.358-.733 1.92-.279l4.197 3.398a.75.75 0 1 1-.944 1.166l-2.137-1.73A2.85 2.85 0 1 0 12 9.151a.75.75 0 0 1-.001-1.5 4.35 4.35 0 1 1-3.802 2.236l-.709-.573a5.249 5.249 0 1 0 5.87-2.384Z" clip-rule="evenodd"/>
</svg>
