<svg xmlns="http://www.w3.org/2000/svg" width="24" height="24" fill="none">
  <g stroke="#1C274C" stroke-width="1.5">
    <path stroke-linecap="round" d="M22 14c0 3.771 0 5.657-1.172 6.828C19.657 22 17.771 22 14 22h-4c-3.771 0-5.657 0-6.828-1.172C2 19.657 2 17.771 2 14c0-3.771 0-5.657 1.172-6.828C4.343 6 6.229 6 10 6h4c3.771 0 5.657 0 6.828 1.172.654.653.943 1.528 1.07 2.828"/>
    <circle cx="8" cy="14" r="3"/>
    <path stroke-linecap="round" d="M13.5 11H19m-5.5 3h.5m5 0h-2.5m-.5 3h-2.5m5.5 0h-.5M6.5 6 15 2"/>
  </g>
</svg>
