<svg xmlns="http://www.w3.org/2000/svg" width="24" height="24" fill="none">
  <path fill="#1C274C" fill-rule="evenodd" d="M15.679 1.68a.75.75 0 0 1-.36.999L9.855 5.25h4.201c1.838 0 3.294 0 4.433.153 1.172.158 2.121.49 2.87 1.238.748.749 1.08 1.698 1.238 2.87.153 1.14.153 2.595.153 4.433v.113c0 1.837 0 3.293-.153 4.432-.158 1.173-.49 2.122-1.238 2.87-.749.748-1.698 1.08-2.87 1.238-1.14.153-2.595.153-4.433.153H9.944c-1.838 0-3.294 0-4.433-.153-1.172-.158-2.121-.49-2.87-1.238-.748-.748-1.08-1.697-1.238-2.87-.153-1.139-.153-2.595-.153-4.432v-.113c0-1.838 0-3.294.153-4.433.158-1.172.49-2.121 1.238-2.87.749-.748 1.698-1.08 2.87-1.238.204-.027.418-.05.643-.068a.774.774 0 0 1 .027-.013l8.5-4a.75.75 0 0 1 .998.359ZM5.71 6.89c-1.006.135-1.586.389-2.01.812-.422.423-.676 1.003-.811 2.009-.138 1.028-.14 2.382-.14 4.29 0 1.906.002 3.26.14 4.288.135 1.006.389 1.586.812 2.01.423.422 1.003.676 2.009.811 1.028.139 2.382.14 4.289.14h4c1.907 0 3.262-.001 4.29-.14 1.005-.135 1.585-.389 2.008-.812.423-.423.677-1.003.812-2.009.138-1.027.14-2.382.14-4.289 0-1.907-.002-3.261-.14-4.289-.135-1.006-.389-1.586-.812-2.009-.423-.423-1.003-.677-2.009-.812-1.027-.138-2.382-.14-4.289-.14h-4c-1.907 0-3.261.002-4.29.14ZM8 11.75a2.25 2.25 0 1 0 0 4.5 2.25 2.25 0 0 0 0-4.5ZM4.25 14a3.75 3.75 0 1 1 7.5 0 3.75 3.75 0 0 1-7.5 0Zm8.5-3a.75.75 0 0 1 .75-.75H19a.75.75 0 0 1 0 1.5h-5.5a.75.75 0 0 1-.75-.75Zm0 3a.75.75 0 0 1 .75-.75H19a.75.75 0 0 1 0 1.5h-5.5a.75.75 0 0 1-.75-.75Zm0 3a.75.75 0 0 1 .75-.75H19a.75.75 0 0 1 0 1.5h-5.5a.75.75 0 0 1-.75-.75Z" clip-rule="evenodd"/>
</svg>
