<svg xmlns="http://www.w3.org/2000/svg" width="24" height="24" fill="none">
  <g fill="#1C274C">
    <path d="M9.75 15.5a2.25 2.25 0 1 1 4.5 0 2.25 2.25 0 0 1-4.5 0Z"/>
    <path fill-rule="evenodd" d="M5.674 3.778C5 4.787 5 6.19 5 9v6c0 2.809 0 4.213.674 5.222a4 4 0 0 0 1.104 1.104C7.787 22 9.19 22 12 22c2.809 0 4.213 0 5.222-.674a4.003 4.003 0 0 0 1.104-1.104C19 19.213 19 17.81 19 15V9c0-2.809 0-4.213-.674-5.222a4.002 4.002 0 0 0-1.104-1.104C16.213 2 14.81 2 12 2c-2.809 0-4.213 0-5.222.674a4 4 0 0 0-1.104 1.104ZM12 11.75a3.75 3.75 0 1 0 0 7.5 3.75 3.75 0 0 0 0-7.5ZM8.25 5.5A.75.75 0 0 1 9 4.75h6a.75.75 0 0 1 0 1.5H9a.75.75 0 0 1-.75-.75ZM9 10a1 1 0 1 0 0-2 1 1 0 0 0 0 2Zm4-1a1 1 0 1 1-2 0 1 1 0 0 1 2 0Zm2 1a1 1 0 1 0 0-2 1 1 0 0 0 0 2Z" clip-rule="evenodd"/>
  </g>
</svg>
