<svg xmlns="http://www.w3.org/2000/svg" width="24" height="24" fill="none">
  <g fill="#1C274C">
    <path d="M5.674 3.778C5 4.787 5 6.19 5 9v6c0 2.809 0 4.213.674 5.222a4 4 0 0 0 1.104 1.104C7.787 22 9.19 22 12 22c2.809 0 4.213 0 5.222-.674a4.003 4.003 0 0 0 1.104-1.104C19 19.213 19 17.81 19 15V9c0-2.809 0-4.213-.674-5.222a4.002 4.002 0 0 0-1.104-1.104C16.213 2 14.81 2 12 2c-2.809 0-4.213 0-5.222.674a4 4 0 0 0-1.104 1.104Z" opacity=".5"/>
    <path d="M13 5a1 1 0 1 1-2 0 1 1 0 0 1 2 0Zm-1 13a1 1 0 1 0 0-2 1 1 0 0 0 0 2Z"/>
    <path fill-rule="evenodd" d="M8.25 11a3.75 3.75 0 1 1 7.5 0 3.75 3.75 0 0 1-7.5 0Zm1.5 0a2.25 2.25 0 1 1 4.5 0 2.25 2.25 0 0 1-4.5 0Z" clip-rule="evenodd"/>
  </g>
</svg>
