<svg xmlns="http://www.w3.org/2000/svg" width="24" height="24" fill="none">
  <g fill="#1C274C">
    <path d="M10.685 1.526A.75.75 0 1 0 9.616.474L7.866 2.25a.75.75 0 0 0 0 1.052l1.75 1.777a.75.75 0 1 0 1.069-1.052l-.538-.546c.564-.005 1.179-.005 1.853-.005 2.143 0 3.673.001 4.836.16 1.14.156 1.815.45 2.312.954.498.506.79 1.195.944 2.358.157 1.183.158 2.74.158 4.914 0 2.175-.002 3.731-.158 4.915-.154 1.162-.446 1.852-.944 2.358-.497.504-1.171.798-2.312.954-1.163.158-2.693.16-4.836.16-2.143 0-3.673-.002-4.836-.16-1.14-.156-1.815-.45-2.312-.954-.498-.506-.79-1.196-.944-2.358-.156-1.184-.158-2.74-.158-4.915 0-2.174.002-3.73.158-4.914.154-1.163.446-1.852.944-2.358a.75.75 0 0 0-1.068-1.053c-.82.832-1.187 1.89-1.363 3.214-.171 1.293-.171 2.95-.171 5.055v.112c0 2.106 0 3.762.171 5.055.176 1.325.543 2.382 1.363 3.214.82.834 1.866 1.209 3.177 1.388 1.276.174 2.909.174 4.981.174h.116c2.072 0 3.705 0 4.981-.174 1.31-.18 2.356-.554 3.177-1.388.82-.832 1.187-1.889 1.363-3.214.171-1.293.171-2.949.171-5.054v-.113c0-2.106 0-3.762-.171-5.055-.176-1.325-.543-2.382-1.363-3.214-.82-.833-1.866-1.208-3.177-1.387-1.276-.174-2.909-.174-4.981-.174h-.075c-.622 0-1.204 0-1.746.004l.448-.455Z"/>
    <path d="M16.03 10.03a.75.75 0 0 0-1.06-1.06l-4.47 4.47-1.47-1.47a.75.75 0 1 0-1.06 1.06l2 2a.75.75 0 0 0 1.06 0l5-5Z"/>
  </g>
</svg>
