<svg xmlns="http://www.w3.org/2000/svg" width="24" height="24" fill="none">
  <path fill="#1C274C" fill-rule="evenodd" d="M11.324 1.675A.75.75 0 0 1 12 1.25c5.937 0 10.75 4.813 10.75 10.75S17.937 22.75 12 22.75 1.25 17.937 1.25 12c0-4.41 2.655-8.197 6.45-9.855a.75.75 0 1 1 .6 1.374 9.25 9.25 0 1 0 5.382-.617l.904 1.13a.75.75 0 0 1-1.172.937l-2-2.5a.75.75 0 0 1-.09-.794Zm-1 6.149a.75.75 0 0 1 .426.676v7a.75.75 0 0 1-1.5 0v-5.44l-1.281 1.026a.75.75 0 0 1-.938-1.172l2.5-2a.75.75 0 0 1 .794-.09Zm2.35.78a1.25 1.25 0 0 1 1.186-.854h2.64a.75.75 0 0 1 0 1.5h-2.46l-.5 1.5h.96a2.75 2.75 0 1 1 0 5.5h-2a.75.75 0 0 1 0-1.5h2a1.25 1.25 0 1 0 0-2.5h-1.306a1.25 1.25 0 0 1-1.186-1.645l.667-2Zm.757 2.475Z" clip-rule="evenodd"/>
</svg>
