<svg xmlns="http://www.w3.org/2000/svg" width="24" height="24" fill="none">
  <g fill="#1C274C">
    <path d="M12 22c5.523 0 10-4.477 10-10S17.523 2 12 2 2 6.477 2 12s4.477 10 10 10Z" opacity=".5"/>
    <path d="M13.436 7.461a.75.75 0 1 0-.872 1.22l3.222 2.302a1.25 1.25 0 0 1 0 2.034l-3.222 2.301a.75.75 0 0 0 .872 1.22l3.221-2.3a2.75 2.75 0 0 0 0-4.476l-3.221-2.301Z"/>
    <path d="M7.5 15.132V8.869a1 1 0 0 1 1.555-.832l4.697 3.131a1 1 0 0 1 0 1.664l-4.697 3.132a1 1 0 0 1-1.555-.832Z"/>
  </g>
</svg>
