<svg xmlns="http://www.w3.org/2000/svg" width="24" height="24" fill="none">
  <g stroke="#1C274C" stroke-width="1.5">
    <path d="M4.687 8.902C2.896 10.218 2 10.875 2 12c0 1.125.896 1.783 2.687 3.098.495.363.985.705 1.436.99.396.25.843.508 1.307.762 1.787.978 2.681 1.467 3.483.926.801-.542.874-1.675 1.02-3.943.04-.641.067-1.27.067-1.833s-.026-1.192-.067-1.833c-.146-2.267-.219-3.401-1.02-3.943-.802-.541-1.696-.052-3.483.926a24.76 24.76 0 0 0-1.307.762c-.45.285-.941.627-1.436.99Z"/>
    <path d="M12.094 8.386c.67-.424 1.334-.823 1.945-1.155a34.902 34.902 0 0 1 1.77-.89c2.422-1.14 3.632-1.711 4.718-1.08 1.086.633 1.184 1.955 1.382 4.6.056.748.091 1.482.091 2.139 0 .657-.035 1.39-.091 2.139-.197 2.645-.296 3.967-1.382 4.6-1.086.631-2.296.06-4.718-1.08a34.828 34.828 0 0 1-1.77-.89 35.434 35.434 0 0 1-1.945-1.155" opacity=".5"/>
  </g>
</svg>
