<svg xmlns="http://www.w3.org/2000/svg" width="24" height="24" fill="none">
  <path stroke="#1C274C" stroke-width="1.5" d="M19.313 8.902C21.104 10.218 22 10.875 22 12c0 1.125-.896 1.783-2.687 3.098-.495.363-.985.705-1.436.99-.396.25-.843.508-1.307.762-1.787.978-2.681 1.467-3.483.926-.801-.542-.874-1.675-1.02-3.943A29.248 29.248 0 0 1 12 12c0-.563.026-1.192.067-1.833.146-2.267.219-3.401 1.02-3.943.802-.541 1.696-.052 3.483.926.464.254.911.512 1.307.762.45.285.941.627 1.436.99Zm-7.407-.516A35.365 35.365 0 0 0 9.961 7.23a34.888 34.888 0 0 0-1.77-.89C5.769 5.2 4.559 4.629 3.473 5.26c-1.086.633-1.184 1.955-1.382 4.6A29.412 29.412 0 0 0 2 12c0 .657.035 1.39.091 2.139.198 2.645.296 3.967 1.382 4.6 1.086.631 2.296.06 4.718-1.08a34.814 34.814 0 0 0 1.77-.89c.61-.332 1.275-.731 1.945-1.155"/>
</svg>
