<svg xmlns="http://www.w3.org/2000/svg" width="24" height="24" fill="none">
  <g fill="#1C274C">
    <path d="M9.034 5.963 6.491 8.5c-.467.466-.896.893-1.235 1.28a6.08 6.08 0 0 0-.619.82l-.024-.025-.095-.094a4.857 4.857 0 0 0-1.532-1.004l-.123-.05-.379-.15a.764.764 0 0 1-.259-1.252C3.345 6.907 4.69 5.566 5.34 5.297a3.38 3.38 0 0 1 1.788-.229c.546.081 1.063.362 1.907.895Zm4.343 13.35c.205.208.34.355.464.512.162.207.307.427.434.658.142.26.253.537.474 1.092a.691.691 0 0 0 1.126.224l.084-.083c1.12-1.117 2.465-2.458 2.735-3.105a3.35 3.35 0 0 0 .229-1.782c-.081-.545-.362-1.06-.897-1.902l-2.552 2.544c-.478.477-.916.914-1.313 1.256-.237.206-.497.41-.784.586Z"/>
    <path fill-rule="evenodd" d="m14.447 16.377 5.847-5.83c.842-.839 1.263-1.259 1.484-1.792C22 8.22 22 7.627 22 6.44v-.567c0-1.826 0-2.739-.569-3.306C20.862 2 19.947 2 18.116 2h-.57c-1.19 0-1.785 0-2.32.221-.536.221-.957.641-1.8 1.48L7.58 9.531c-.984.98-1.594 1.589-1.83 2.176a1.48 1.48 0 0 0-.112.562c0 .802.647 1.448 1.942 2.739l.174.173 2.038-2.069a.75.75 0 1 1 1.069 1.053L8.816 16.24l.137.137c1.295 1.29 1.943 1.936 2.747 1.936.178 0 .348-.031.519-.094.603-.222 1.219-.836 2.228-1.842Zm2.747-6.846a1.946 1.946 0 0 1-2.747 0 1.932 1.932 0 0 1 0-2.738 1.946 1.946 0 0 1 2.747 0 1.932 1.932 0 0 1 0 2.738Z" clip-rule="evenodd"/>
  </g>
</svg>
