<svg xmlns="http://www.w3.org/2000/svg" width="24" height="24" fill="none">
  <path fill="#1C274C" d="M22 5.365h.75H22ZM9.455 13.303l.529-.532-.53.532Zm0-4.76.529.532-.53-.531Zm5.974 5.95-.53-.532.53.532Zm-4.78 0-.529.531.53-.531Zm9.866-5.066.53.532-.53-.532ZM22 5.858h-.75.75Zm-7.459-2.38-.529-.531.53.531Zm-1.05 12.615-.26-.704.26.704Zm-5.629-5.658.696.28-.696-.28Zm12.124-1.54L14.9 13.962l1.059 1.063 5.087-5.065-1.059-1.063Zm-8.807 5.066-1.195-1.19-1.059 1.063 1.195 1.19 1.059-1.063ZM9.984 9.075 15.07 4.01l-1.058-1.063-5.087 5.065 1.059 1.063Zm8.142-6.325h.495v-1.5h-.495v1.5Zm3.124 2.615v.493h1.5v-.493h-1.5ZM18.62 2.75c.818 0 1.356.002 1.755.055.378.05.516.135.601.22l1.058-1.064c-.41-.408-.917-.57-1.46-.643-.521-.07-1.178-.068-1.953-.068v1.5Zm4.13 2.615c0-.772.002-1.426-.069-1.946-.073-.542-.236-1.049-.647-1.458l-1.058 1.063c.084.084.168.22.219.595.053.397.055.932.055 1.746h1.5ZM9.984 12.771c-.578-.575-.958-.955-1.201-1.273-.231-.301-.268-.457-.268-.575h-1.5c0 .58.244 1.053.577 1.487.32.417.785.878 1.333 1.424l1.059-1.063Zm.136 2.253c.548.546 1.012 1.01 1.43 1.328.436.331.91.573 1.489.573v-1.5c-.121 0-.279-.038-.581-.268-.32-.242-.701-.62-1.28-1.196l-1.058 1.063ZM21.045 9.96c.689-.686 1.19-1.168 1.455-1.802l-1.385-.576c-.122.294-.353.542-1.129 1.315l1.059 1.063Zm.205-4.101c0 1.093-.013 1.43-.135 1.723l1.385.576c.263-.634.25-1.329.25-2.299h-1.5ZM15.07 4.01c.776-.773 1.026-1.002 1.322-1.125L15.82 1.5c-.636.262-1.119.762-1.808 1.448L15.07 4.01Zm3.056-2.76c-.975 0-1.67-.013-2.306.249l.572 1.386c.296-.122.637-.135 1.734-.135v-1.5Zm-3.227 12.711c-.445.444-.777.774-1.062 1.02-.285.246-.47.358-.605.408l.517 1.408c.389-.143.735-.394 1.068-.68.334-.29.709-.663 1.14-1.093L14.9 13.961Zm-1.667 1.428a.54.54 0 0 1-.193.036v1.5c.248 0 .483-.044.71-.128l-.518-1.408ZM8.925 8.012c-.421.42-.788.785-1.074 1.111-.285.324-.534.66-.684 1.032l1.391.56c.056-.138.174-.322.42-.603.245-.279.571-.604 1.006-1.037L8.925 8.012Zm-1.758 2.143a2.034 2.034 0 0 0-.152.768h1.5c0-.065.011-.13.043-.208l-1.391-.56Z"/>
  <path fill="#1C274C" d="m7.709 10.283.53-.531V9.75l-.53.532Zm3.729-3.488a.75.75 0 1 0 .81-1.262l-.81 1.262Zm-.142-.983-.406.63.406-.63ZM9.06 4.666l.11-.742-.11.742ZM4.796 7.234l.53.532-.53-.532Zm2.71-2.37.286.694-.287-.693ZM5.35 8.455l.276-.698-.276.697Zm.107.042-.285.694.285-.694Zm1.415.954.53-.531-.53.531Zm-.082-.08-.522.538.522-.539ZM5.02 8.324l-.275.697.276-.697Zm8.714 8.015-.53.53a.759.759 0 0 0 .036.034l.494-.564Zm4.713-4.632a.75.75 0 0 0-1.258.816l1.258-.816Zm-.276.954-.629.408.63-.409Zm1.151 2.226.742-.11-.742.11Zm-2.579 4.246.53.531-.53-.531Zm2.38-2.698.692.29-.692-.29Zm-3.432 2.576.696-.279-.696.279Zm-.413-.95-.657.362.657-.361Zm-1.09-1.324.53-.531-.017-.017-.018-.016-.494.564Zm.713.753.59-.463-.59.463Zm1.769 1.716-.53-.532.53.532Zm-2.65-3.642a.75.75 0 1 0-1.06 1.061l1.06-1.061Zm-6.689-4.597a.75.75 0 0 0 1.06-1.061l-1.06 1.061Zm4.917-5.433L11.7 5.18l-.81 1.262.547.352.81-1.262ZM11.7 5.18c-.539-.347-.979-.63-1.359-.835-.389-.209-.76-.36-1.172-.422l-.22 1.484c.176.026.374.094.681.26.317.17.7.416 1.26.775l.81-1.262ZM5.325 7.766c.49-.488 1.014-1.01 1.484-1.438.235-.214.448-.397.63-.537.192-.148.307-.214.353-.234l-.574-1.385a3.31 3.31 0 0 0-.695.43c-.227.176-.474.39-.724.617a48.54 48.54 0 0 0-1.532 1.484l1.058 1.063ZM9.17 3.924a3.694 3.694 0 0 0-1.952.248l.574 1.386a2.194 2.194 0 0 1 1.159-.15l.219-1.484ZM4.746 9.02l.329.13.552-1.394-.33-.13-.551 1.394Zm1.598.962.836.832L8.238 9.75l-.836-.832-1.058 1.063ZM5.075 9.15l.098.039.57-1.388-.116-.046-.552 1.395Zm2.327-.232-.089-.088-1.044 1.077.075.074 1.058-1.063Zm-2.23.27c.409.169.781.412 1.097.719L7.313 8.83a4.976 4.976 0 0 0-1.57-1.029l-.57 1.388Zm-.905-2.486a1.414 1.414 0 0 0 .479 2.317l.552-1.395a.086.086 0 0 1 .027.14l-1.058-1.06Zm12.923 5.82.353.545 1.259-.816-.354-.546-1.258.816Zm-.975 6.078-.073.072 1.058 1.063.073-.073-1.058-1.063Zm1.328-5.533c.36.556.608.938.779 1.253.166.305.233.502.26.675l1.483-.22c-.062-.413-.215-.783-.425-1.17-.205-.38-.49-.817-.838-1.354l-1.259.816Zm-.27 6.595a48.585 48.585 0 0 0 1.49-1.526c.23-.249.443-.494.62-.72.166-.216.334-.458.433-.694l-1.384-.578c-.02.045-.085.16-.235.351-.14.18-.323.393-.538.627a48 48 0 0 1-1.444 1.477l1.058 1.063Zm1.308-4.667c.056.377.007.775-.15 1.149l1.385.578a3.66 3.66 0 0 0 .249-1.948l-1.484.221Zm-3.897 1.176-.455-.398-.988 1.128.455.398.988-1.128Zm1.704 2.56c-.186-.466-.3-.757-.452-1.032l-1.314.722c.097.176.174.367.373.866l1.393-.556Zm-2.727-1.464c.38.379.526.526.65.684l1.18-.926c-.193-.247-.416-.467-.772-.821l-1.058 1.063Zm2.276.432a4.94 4.94 0 0 0-.445-.674l-1.18.926c.116.148.22.305.31.47l1.315-.722Zm.205.973a.15.15 0 0 1 .131-.041c.038.007.09.038.115.1l-1.393.556c.36.904 1.53 1.12 2.205.448l-1.058-1.063Zm-1.877-2.866-.245-.244-1.06 1.061.245.245 1.06-1.062Zm-7.086-4.994.153.153 1.06-1.061-.153-.153-1.06 1.061Z" opacity=".5"/>
  <path stroke="#1C274C" stroke-linecap="round" stroke-width="1.5" d="m5.548 13-1.692 1.69a1.088 1.088 0 0 1-1.537 0 1.085 1.085 0 0 1 0-1.536L2.472 13m8.604 5.57-1.692 1.69a1.085 1.085 0 0 0 0 1.535 1.089 1.089 0 0 0 1.538 0l.154-.153m-4.14-4.483-1.71 1.672"/>
  <path fill="#1C274C" d="M10.633 17.186a.75.75 0 0 0-1.06-1.061l1.06 1.06ZM7.47 18.227a.75.75 0 0 0 1.06 1.06l-1.06-1.06Zm.387-3.814a.75.75 0 1 0-1.06-1.06l1.06 1.06ZM4.68 15.47a.75.75 0 1 0 1.06 1.061l-1.06-1.06Zm4.892.656L7.47 18.227l1.06 1.06 2.103-2.101-1.06-1.061Zm-2.775-2.773L4.68 15.47l1.06 1.061 2.117-2.117-1.06-1.06Zm5.576-.708a.75.75 0 1 0-1.058-1.063l1.058 1.063Zm-1.792 1.785 1.792-1.785-1.058-1.063-1.792 1.785 1.058 1.063Zm6.708-6.417a.945.945 0 0 1-1.331 0l-1.059 1.063a2.445 2.445 0 0 0 3.448 0L17.29 8.013Zm-1.331 0a.928.928 0 0 1 0-1.317l-1.059-1.063a2.428 2.428 0 0 0 0 3.443l1.059-1.063Zm0-1.317a.945.945 0 0 1 1.33 0l1.06-1.063a2.445 2.445 0 0 0-3.449 0l1.059 1.063Zm1.33 0a.928.928 0 0 1 0 1.317l1.06 1.063a2.428 2.428 0 0 0 0-3.443l-1.06 1.063Z" opacity=".5"/>
</svg>
