<svg xmlns="http://www.w3.org/2000/svg" width="24" height="24" fill="none">
  <g fill="#1C274C">
    <path fill-rule="evenodd" d="M2.774 12.481a.759.759 0 0 1 0 1.074l-.156.155a.34.34 0 0 0 0 .48.34.34 0 0 0 .483 0l1.713-1.71a.76.76 0 0 1 1.072 1.075l-1.712 1.71a1.86 1.86 0 0 1-2.629 0 1.857 1.857 0 0 1 0-2.629l.156-.155a.76.76 0 0 1 1.073 0Zm4.913 1.009a.76.76 0 0 1 0 1.073l-2.143 2.143a.76.76 0 0 1-1.073-1.074l2.142-2.142a.76.76 0 0 1 1.074 0Zm2.809 2.805a.76.76 0 0 1 0 1.074l-2.128 2.128a.76.76 0 0 1-1.073-1.074l2.127-2.128a.76.76 0 0 1 1.074 0Zm-3.199.401c.293.3.288.78-.012 1.073l-1.73 1.692a.759.759 0 0 1-1.061-1.085l1.73-1.692a.759.759 0 0 1 1.073.012Zm4.184 1.422a.76.76 0 0 1 0 1.074l-1.713 1.71a.34.34 0 0 0 0 .48c.134.133.35.133.484 0l.156-.155A.759.759 0 0 1 11.48 22.3l-.155.155a1.86 1.86 0 0 1-2.63 0 1.857 1.857 0 0 1 0-2.629l1.713-1.71a.759.759 0 0 1 1.073.001Z" clip-rule="evenodd"/>
    <path d="M10.846 5.41 8.66 7.59c-.402.401-.771.769-1.063 1.101a5.23 5.23 0 0 0-.532.706l-.021-.022-.081-.08a4.178 4.178 0 0 0-1.318-.864l-.106-.043-.326-.129a.658.658 0 0 1-.223-1.077c.963-.961 2.12-2.114 2.679-2.346a2.907 2.907 0 0 1 1.537-.197c.47.07.915.311 1.641.77Zm3.736 11.483c.176.18.293.305.399.44.14.179.265.368.373.567.123.223.218.462.408.939.155.388.67.491.969.193l.072-.072c.963-.96 2.12-2.114 2.353-2.671.205-.49.273-1.021.197-1.533-.07-.468-.312-.912-.772-1.636l-2.195 2.189c-.411.41-.788.786-1.13 1.08a5.164 5.164 0 0 1-.674.504Z"/>
    <path fill-rule="evenodd" d="m15.502 14.367 5.03-5.014c.724-.722 1.087-1.083 1.277-1.543C22 7.351 22 6.84 22 5.82v-.49c0-1.57 0-2.355-.49-2.843C21.022 2 20.235 2 18.659 2h-.489c-1.024 0-1.537 0-1.997.19-.46.19-.823.551-1.547 1.274l-5.03 5.014c-.846.844-1.371 1.367-1.574 1.873-.064.16-.097.317-.097.483 0 .69.557 1.245 1.671 2.356l.15.149 1.754-1.78a.645.645 0 0 1 .919.906l-1.76 1.785.119.117c1.114 1.11 1.67 1.666 2.362 1.666.153 0 .3-.027.447-.081.519-.191 1.048-.72 1.916-1.585Zm2.363-5.888c-.652.65-1.71.65-2.363 0a1.662 1.662 0 0 1 0-2.356c.653-.65 1.71-.65 2.363 0s.653 1.705 0 2.356Z" clip-rule="evenodd"/>
  </g>
</svg>
