<svg xmlns="http://www.w3.org/2000/svg" width="24" height="24" fill="none">
  <g fill="#1C274C">
    <path d="m13.157 17.013 3.856-3.856c1.454-1.454 2.181-2.181 2.181-3.085 0-.605-.326-1.131-.98-1.85a38.387 38.387 0 0 0-1.201-1.234c-.48-.48-.88-.881-1.235-1.203-.718-.652-1.245-.979-1.85-.979-.903 0-1.63.727-3.084 2.182l-3.856 3.855c-1.454 1.454-2.181 2.181-2.181 3.085 0 .605.326 1.131.979 1.85.321.354.722.755 1.202 1.235.48.48.88.88 1.234 1.202.719.652 1.245.979 1.85.979.904 0 1.63-.727 3.085-2.181Z"/>
    <path d="M21.254 2.746c-.098-.098-.147-.147-.188-.184a2.181 2.181 0 0 0-3.17.262 5.84 5.84 0 0 0-.155.213l-1.963 2.748c.354.322.755.723 1.234 1.202.48.48.881.881 1.203 1.235l2.748-1.963c.113-.08.169-.12.213-.156a2.181 2.181 0 0 0 .262-3.169 5.75 5.75 0 0 0-.184-.188ZM2.562 21.066c.037.041.086.09.184.188s.147.147.188.184a2.181 2.181 0 0 0 3.17-.262c.034-.044.074-.1.155-.213l1.963-2.748a38.28 38.28 0 0 1-1.234-1.203c-.48-.48-.881-.88-1.203-1.234l-2.748 1.963a5.84 5.84 0 0 0-.213.155 2.181 2.181 0 0 0-.262 3.17Z" opacity=".5"/>
  </g>
</svg>
