<svg xmlns="http://www.w3.org/2000/svg" width="24" height="24" fill="none">
  <path fill="#1C274C" fill-rule="evenodd" d="M22 12c0 5.523-4.477 10-10 10S2 17.523 2 12 6.477 2 12 2s10 4.477 10 10Zm-7.5-4.75a.75.75 0 0 1 .555.245l2.5 2.75a.75.75 0 0 1-1.11 1.01L15.25 9.94V16a.75.75 0 0 1-1.5 0V9.94l-1.195 1.315a.75.75 0 0 1-1.11-1.01l2.5-2.75a.75.75 0 0 1 .555-.245Zm-5 0a.75.75 0 0 1 .75.75v6.06l1.195-1.315a.75.75 0 0 1 1.11 1.01l-2.5 2.75a.75.75 0 0 1-1.11 0l-2.5-2.75a.75.75 0 0 1 1.11-1.01L8.75 14.06V8a.75.75 0 0 1 .75-.75Z" clip-rule="evenodd"/>
</svg>
