<svg xmlns="http://www.w3.org/2000/svg" width="24" height="24" fill="none">
  <path fill="#1C274C" d="M13.254 19.424a.75.75 0 0 0-1.061 1.061l1.06-1.06ZM15.616 22v-.75.75ZM4.046 5.492l.53.53-.53-.53Zm-.531 6.315a.75.75 0 1 0 1.06-1.06l-1.06 1.06Zm7.762-7.762.53.53a.75.75 0 0 0 0-1.06l-.53.53Zm-5.785 0-.53-.53.53.53Zm14.463 8.678.53-.53a.75.75 0 0 0-1.06 0l.53.53ZM22 15.616h.75H22ZM8.336 5.926a.75.75 0 0 0 1.06 1.06l-1.06-1.06Zm8.678 8.677a.75.75 0 0 0 1.06 1.061l-1.06-1.06Zm1.473 6.431a.75.75 0 0 0-1.053-1.068l1.053 1.068Zm1.44-3.561a.75.75 0 1 0 1.068 1.054l-1.068-1.054ZM4.961 3.515 3.515 4.961l1.06 1.061 1.447-1.446-1.06-1.061Zm7.232 16.97c.667.667 1.219 1.221 1.715 1.6.514.392 1.054.665 1.708.665v-1.5c-.194 0-.418-.068-.798-.358-.397-.303-.868-.77-1.564-1.468l-1.061 1.061ZM3.515 4.961c-.667.667-1.221 1.22-1.6 1.716-.392.513-.665 1.054-.665 1.707h1.5c0-.193.068-.417.358-.797.303-.398.77-.868 1.468-1.565l-1.061-1.06Zm1.06 5.785C3.88 10.05 3.412 9.58 3.109 9.182c-.29-.38-.358-.604-.358-.798h-1.5c0 .654.273 1.194.665 1.708.379.496.933 1.048 1.6 1.715l1.06-1.06Zm7.232-7.231c-.667-.667-1.219-1.221-1.715-1.6-.514-.392-1.054-.665-1.708-.665v1.5c.194 0 .418.068.798.358.397.303.868.77 1.564 1.468l1.061-1.061Zm-5.785 1.06c.697-.696 1.167-1.164 1.565-1.467.38-.29.604-.358.797-.358v-1.5c-.653 0-1.194.273-1.707.665-.497.379-1.049.933-1.716 1.6l1.061 1.06Zm13.402 8.679c.697.696 1.165 1.167 1.468 1.564.29.38.358.604.358.798h1.5c0-.654-.273-1.194-.665-1.708-.379-.496-.933-1.048-1.6-1.715l-1.06 1.06Zm-8.678-9.739-2.41 2.41 1.06 1.061 2.411-2.41-1.06-1.061Zm8.678 8.678-2.41 2.41 1.06 1.061 2.411-2.41-1.06-1.061Zm-1.99 7.773c-.51.502-.87.831-1.175 1.038-.287.195-.475.246-.643.246v1.5c.557 0 1.034-.199 1.485-.504.432-.293.881-.714 1.386-1.212l-1.053-1.068Zm3.56-1.439c.51-.516.94-.972 1.24-1.41.312-.454.516-.937.516-1.501h-1.5c0 .17-.052.36-.253.654-.214.311-.553.68-1.07 1.203l1.068 1.054Z"/>
  <path stroke="#1C274C" stroke-linecap="round" stroke-width="1.5" d="m14.36 4.079.927-.927a3.932 3.932 0 0 1 5.561 5.561l-.927.927m-5.56-5.561s.115 1.97 1.853 3.707C17.952 9.524 19.92 9.64 19.92 9.64m-5.56-5.561L12 6.439m7.921 3.2-5.26 5.262L11.56 18l-.16.161c-.578.577-.867.866-1.185 1.114a6.554 6.554 0 0 1-1.211.749c-.364.173-.751.302-1.526.56l-3.281 1.094m0 0-.802.268a1.06 1.06 0 0 1-1.342-1.342l.268-.802m1.876 1.876-1.876-1.876m0 0 1.094-3.281c.258-.775.387-1.162.56-1.526.205-.43.456-.836.749-1.211.248-.318.537-.607 1.114-1.184L8.5 9.939"/>
</svg>
