<svg xmlns="http://www.w3.org/2000/svg" width="24" height="24" fill="none">
  <path fill="#1C274C" fill-rule="evenodd" d="M7.587 3.108c-.398.303-.868.77-1.565 1.468L4.576 6.022c-.697.697-1.165 1.167-1.468 1.565-.29.38-.358.604-.358.797 0 .194.068.418.358.798.303.397.77.868 1.468 1.564a.75.75 0 0 1-1.06 1.061l-.038-.037c-.65-.65-1.191-1.191-1.563-1.678-.392-.514-.665-1.054-.665-1.708 0-.653.273-1.194.665-1.707.372-.487.913-1.028 1.563-1.679l.037-.037 1.446-1.446.037-.037c.65-.65 1.192-1.191 1.679-1.563.513-.392 1.054-.665 1.707-.665.654 0 1.194.273 1.708.665.487.372 1.028.913 1.678 1.563l.037.037a.75.75 0 0 1 0 1.06l-2.41 2.411a.75.75 0 1 1-1.061-1.06l1.879-1.88c-.42-.414-.746-.72-1.033-.938-.38-.29-.604-.358-.798-.358-.193 0-.417.068-.797.358Zm12.368 8.865c.199 0 .39.08.53.22l.037.037c.65.65 1.191 1.191 1.563 1.678.392.514.665 1.054.665 1.708 0 .653-.273 1.194-.665 1.707-.372.487-.913 1.028-1.563 1.679l-1.52 1.52c-.65.65-1.192 1.191-1.679 1.563-.513.392-1.054.665-1.707.665-.654 0-1.194-.273-1.708-.665-.487-.372-1.028-.913-1.678-1.563l-.037-.037a.75.75 0 0 1 1.06-1.06c.697.696 1.168 1.164 1.565 1.467.38.29.604.358.798.358.194 0 .417-.068.797-.358.398-.303.868-.77 1.565-1.468l1.446-1.446c.697-.697 1.165-1.167 1.468-1.565.29-.38.358-.604.358-.797 0-.194-.068-.418-.358-.798-.219-.287-.523-.612-.939-1.033l-1.878 1.879a.75.75 0 0 1-1.061-1.06l2.41-2.411a.75.75 0 0 1 .53-.22Zm-5.198-9.352a4.682 4.682 0 0 1 6.622 6.622l-9.486 9.486c-.542.542-.86.86-1.216 1.137-.418.327-.87.607-1.35.835-.406.193-.834.336-1.56.578l-3.332 1.11-.802.268a1.81 1.81 0 0 1-2.29-2.29l1.378-4.133c.242-.727.385-1.155.578-1.562.229-.479.508-.931.835-1.35.276-.354.595-.673 1.137-1.215l9.486-9.486Zm5.56 1.061a3.182 3.182 0 0 0-4.5 0l-.662.662c.035.175.092.413.189.69a5.857 5.857 0 0 0 1.4 2.222 5.857 5.857 0 0 0 2.221 1.4c.278.097.516.154.691.189l.662-.662a3.182 3.182 0 0 0 0-4.5Zm-1.878 6.38a7.36 7.36 0 0 1-2.755-1.745 7.358 7.358 0 0 1-1.745-2.756l-7.57 7.57c-.59.589-.84.84-1.053 1.114a5.861 5.861 0 0 0-.663 1.073c-.149.313-.262.649-.526 1.44l-.947 2.841L4.4 20.82l2.842-.947c.791-.264 1.127-.377 1.44-.526.38-.182.74-.404 1.073-.663.273-.214.525-.463 1.115-1.053l7.57-7.57Z" clip-rule="evenodd"/>
</svg>
