<svg xmlns="http://www.w3.org/2000/svg" width="24" height="24" fill="none">
  <circle cx="18.5" cy="4.5" r="2.5" stroke="#1C274C" stroke-width="1.5"/>
  <path stroke="#1C274C" stroke-linecap="round" stroke-width="1.5" d="m9 17-1 1.2c-.738.886-1.107 1.328-1.61 1.564C5.885 20 5.31 20 4.157 20H3"/>
  <path fill="#1C274C" d="M13.65 22a.75.75 0 0 0 1.5 0h-1.5Zm-1.086-5.754.453-.598-.453.598Zm1.185 1.015.587-.466-.587.466Zm.557 1.12.726-.186-.726.187Zm-.802-6.826a.75.75 0 0 0-1.009-1.11l1.009 1.11Zm-2.652 1.61.703.26-.703-.26Zm.07 1.555-.678.323.678-.323Zm2.728 5.219v2.06h1.5v-2.06h-1.5Zm-1.539-3.095c.664.502.888.679 1.05.884l1.175-.934c-.308-.387-.717-.69-1.319-1.146l-.905 1.196Zm3.039 3.095c0-.755.005-1.264-.118-1.744l-1.453.373c.065.254.07.538.07 1.37h1.5Zm-1.989-2.211c.197.247.34.534.418.84l1.453-.373a3.75 3.75 0 0 0-.696-1.4l-1.175.933Zm-.666-7.283c-.42.381-.945.836-1.354 1.224-.21.198-.41.398-.573.586-.149.172-.327.4-.42.649l1.407.521c-.008.021.014-.035.146-.187.116-.134.276-.295.471-.48.4-.38.865-.778 1.332-1.203l-1.009-1.11Zm.522 5.203c-.487-.37-.817-.62-1.055-.832-.234-.208-.321-.33-.363-.418l-1.355.645c.168.35.424.63.72.894.293.26.68.552 1.147.907l.906-1.196Zm-2.868-2.744a2.75 2.75 0 0 0 .095 2.139l1.355-.645a1.25 1.25 0 0 1-.044-.973l-1.406-.521ZM5.436 8.82l-.37-.652.37.652Zm-1.807.164a.75.75 0 1 0 .742 1.304l-.742-1.304Zm9.778-1.627-.286.693.286-.693Zm-2.96-.715-.055-.748.055.748ZM21 12.75a.75.75 0 1 0 0-1.5v1.5Zm-5.232-3.213-.67.335.67-.335ZM5.065 8.168l-1.436.816.742 1.304 1.435-.816-.74-1.304Zm8.627-1.505c-1.344-.553-2.08-.857-3.3-.769l.11 1.496c.823-.06 1.255.099 2.62.66l.57-1.387Zm-7.886 2.81c2.502-1.422 3.552-2 4.695-2.083l-.109-1.496c-1.56.114-2.949.923-5.327 2.274l.741 1.304Zm13.949 3.276H21v-1.5h-1.245v1.5Zm-4.658-2.878a5.207 5.207 0 0 0 4.658 2.878v-1.5A3.707 3.707 0 0 1 16.439 9.2l-1.342.671Zm1.342-.67a5.334 5.334 0 0 0-2.747-2.538l-.57 1.387c.86.354 1.564 1 1.975 1.821l1.342-.67Z"/>
</svg>
