<svg xmlns="http://www.w3.org/2000/svg" width="24" height="24" fill="none">
  <g fill="#1C274C">
    <path d="M20.75 4.5a2.5 2.5 0 1 1-5 0 2.5 2.5 0 0 1 5 0Z"/>
    <path fill-rule="evenodd" d="M9.802 5.93a3.97 3.97 0 0 1 .721-.043c.08.004.17.01.273.02 2.383.248 4.15 2.036 5.328 3.802l.063.094a3.25 3.25 0 0 0 2.704 1.447h1.859a.75.75 0 0 1 0 1.5h-1.86a4.75 4.75 0 0 1-3.952-2.115l-.062-.094A10.95 10.95 0 0 0 14 9.39l-1.884 2.355c-.428.534-.714.894-.907 1.19-.188.286-.241.445-.255.566-.024.2.002.403.073.591.044.114.135.256.386.487.26.24.626.518 1.171.93l.096.073c.72.546 1.22.924 1.565 1.428.197.287.352.6.463.93.193.58.193 1.206.193 2.11V22a.75.75 0 0 1-1.5 0v-1.83c0-1.07-.01-1.435-.116-1.755a2.25 2.25 0 0 0-.277-.558c-.19-.278-.476-.505-1.33-1.152l-.028-.021c-.51-.386-.933-.707-1.252-1.001-.334-.307-.611-.635-.772-1.056a2.75 2.75 0 0 1-.162-1.3c.052-.448.241-.835.49-1.214.237-.362.569-.778.968-1.277l1.984-2.479c-.688-.523-1.444-.871-2.264-.956a3.156 3.156 0 0 0-.184-.014 2.513 2.513 0 0 0-.45.03c-1.065.148-2.132.74-4.45 2.057l-1.436.815a.75.75 0 1 1-.742-1.304l1.436-.815.152-.087c2.12-1.204 3.449-1.96 4.835-2.151ZM9.23 16.425a.75.75 0 0 1 .096 1.056l-1 1.201-.097.116c-.642.771-1.113 1.338-1.771 1.646-.658.308-1.395.308-2.4.307H2.75a.75.75 0 0 1 0-1.5h1.158c1.222 0 1.596-.017 1.913-.165.318-.149.57-.426 1.352-1.364l1-1.201a.75.75 0 0 1 1.057-.096Z" clip-rule="evenodd"/>
  </g>
</svg>
