<svg xmlns="http://www.w3.org/2000/svg" width="24" height="24" fill="none">
  <g fill="#1C274C">
    <path d="M12 22c5.523 0 10-4.477 10-10S17.523 2 12 2 2 6.477 2 12s4.477 10 10 10Z" opacity=".5"/>
    <path d="M8.397 17.447a.75.75 0 0 0 1.05.155A4.267 4.267 0 0 1 12 16.75a4.27 4.27 0 0 1 2.553.852.75.75 0 1 0 .894-1.204A5.766 5.766 0 0 0 12 15.25a5.766 5.766 0 0 0-3.447 1.148.75.75 0 0 0-.156 1.049ZM15 12c.552 0 1-.672 1-1.5S15.552 9 15 9s-1 .672-1 1.5.448 1.5 1 1.5Zm-6 0c.552 0 1-.672 1-1.5S9.552 9 9 9s-1 .672-1 1.5.448 1.5 1 1.5Z"/>
  </g>
</svg>
