<svg xmlns="http://www.w3.org/2000/svg" width="24" height="24" fill="none">
  <path fill="#1C274C" fill-rule="evenodd" d="M11.943 1.25h.114c2.309 0 4.118 0 5.53.19 1.444.194 2.584.6 3.479 1.494.895.895 1.3 2.035 1.494 3.48.19 1.411.19 3.22.19 5.529v.114c0 2.309 0 4.118-.19 5.53-.194 1.444-.6 2.584-1.494 3.479-.895.895-2.035 1.3-3.48 1.494-1.411.19-3.22.19-5.529.19h-.114c-2.309 0-4.118 0-5.53-.19-1.444-.194-2.584-.6-3.479-1.494-.895-.895-1.3-2.035-1.494-3.48-.19-1.411-.19-3.22-.19-5.529v-.114c0-2.309 0-4.118.19-5.53.194-1.444.6-2.584 1.494-3.479.895-.895 2.035-1.3 3.48-1.494 1.411-.19 3.22-.19 5.529-.19Zm-5.33 1.676c-1.278.172-2.049.5-2.618 1.069-.57.57-.897 1.34-1.069 2.619-.174 1.3-.176 3.008-.176 5.386s.002 4.086.176 5.386c.172 1.279.5 2.05 1.069 2.62.57.569 1.34.896 2.619 1.068 1.3.174 3.008.176 5.386.176s4.086-.002 5.386-.176c1.279-.172 2.05-.5 2.62-1.069.569-.57.896-1.34 1.068-2.619.174-1.3.176-3.008.176-5.386s-.002-4.086-.176-5.386c-.172-1.279-.5-2.05-1.069-2.62-.57-.569-1.34-.896-2.619-1.068-1.3-.174-3.008-.176-5.386-.176s-4.086.002-5.386.176ZM6 6.25a.75.75 0 0 1 .75.75v10a.75.75 0 0 1-1.5 0V7A.75.75 0 0 1 6 6.25Zm3.47 1.22a.75.75 0 0 1 1.06 0l1.402 1.401A3.732 3.732 0 0 1 14 8.25c.764 0 1.475.229 2.068.621L17.47 7.47a.75.75 0 1 1 1.06 1.06l-1.4 1.402c.392.593.621 1.304.621 2.068s-.229 1.475-.621 2.068l1.401 1.402a.75.75 0 1 1-1.06 1.06l-1.402-1.401A3.733 3.733 0 0 1 14 15.75a3.733 3.733 0 0 1-2.068-.621L10.53 16.53a.75.75 0 1 1-1.06-1.06l1.401-1.402A3.733 3.733 0 0 1 10.25 12c0-.764.229-1.475.621-2.068L9.47 8.53a.75.75 0 0 1 0-1.06ZM14 9.75a2.25 2.25 0 1 0 0 4.5 2.25 2.25 0 0 0 0-4.5Z" clip-rule="evenodd"/>
</svg>
