<svg xmlns="http://www.w3.org/2000/svg" width="24" height="24" fill="none">
  <g fill="#1C274C">
    <path fill-rule="evenodd" d="M13.086 5.04 2.333 10.36a.75.75 0 0 1-.665-1.345l12.428-6.146.145 1.01a1.013 1.013 0 0 0 .039.134c.042.124.126.334.285.624.317.58.936 1.484 2.126 2.673 1.19 1.19 2.093 1.808 2.673 2.126.29.159.5.243.624.285a1.436 1.436 0 0 0 .133.039l1.01.145-6.145 12.428a.75.75 0 1 1-1.345-.665l5.318-10.754a6.846 6.846 0 0 1-.316-.162c-.618-.34-1.45-.908-2.473-1.86L5.53 19.53a.75.75 0 0 1-1.06-1.06L15.109 7.83c-.953-1.023-1.521-1.855-1.86-2.474a6.883 6.883 0 0 1-.163-.315Z" clip-rule="evenodd" opacity=".5"/>
    <path d="m20.824 10.527.307-.622-1.01-.145-.01-.002a1.44 1.44 0 0 1-.123-.037 4.022 4.022 0 0 1-.624-.285c-.58-.318-1.484-.937-2.673-2.126-1.19-1.19-1.809-2.093-2.126-2.673a3.9 3.9 0 0 1-.285-.624 1.452 1.452 0 0 1-.037-.124l-.002-.01-.145-1.01-.626.31a5.225 5.225 0 0 1 7.354 7.348Zm-2.51 1.69.645-1.303a6.755 6.755 0 0 1-.316-.162c-.618-.34-1.45-.908-2.473-1.86l-2.52 2.519a5.228 5.228 0 0 0 4.664.806ZM12.59 10.35l2.519-2.519c-.953-1.023-1.521-1.855-1.86-2.474a6.888 6.888 0 0 1-.163-.315l-1.304.645a5.228 5.228 0 0 0 .808 4.663Z"/>
  </g>
</svg>
