<svg xmlns="http://www.w3.org/2000/svg" width="24" height="24" fill="none">
  <path fill="#1C274C" fill-rule="evenodd" d="M2 12c0-4.714 0-7.071 1.464-8.536C4.93 2 7.286 2 12 2c4.714 0 7.071 0 8.535 1.464C22 4.93 22 7.286 22 12c0 4.714 0 7.071-1.465 8.535C19.072 22 16.714 22 12 22s-7.071 0-8.536-1.465C2 19.072 2 16.714 2 12Zm8.004-6.248a.75.75 0 1 0-.008-1.5c-1.082.005-1.98.03-2.713.158-.752.132-1.395.382-1.922.884-.455.433-.76.872-.925 1.503-.15.571-.177 1.275-.184 2.197a.75.75 0 1 0 1.5.012c.008-.949.04-1.466.135-1.828.08-.303.206-.51.509-.798.242-.23.572-.392 1.145-.492.592-.104 1.37-.13 2.463-.136Zm4-1.5a.75.75 0 0 0-.008 1.5c1.093.006 1.871.032 2.463.136.573.1.903.262 1.145.492.303.288.43.495.509.798.095.362.128.879.135 1.828a.75.75 0 0 0 1.5-.012c-.007-.922-.034-1.626-.184-2.197-.166-.63-.47-1.07-.925-1.503-.527-.502-1.17-.752-1.922-.884-.733-.128-1.631-.153-2.713-.158ZM5 11.25a.75.75 0 1 0 0 1.5h14a.75.75 0 0 0 0-1.5H5Zm.752 3.744a.75.75 0 0 0-1.5.012c.007.923.034 1.626.184 2.197.166.63.47 1.07.925 1.503.527.502 1.17.752 1.922.884.733.128 1.631.153 2.713.158a.75.75 0 0 0 .008-1.5c-1.093-.005-1.871-.032-2.463-.136-.573-.1-.903-.261-1.145-.492-.303-.288-.43-.495-.509-.798-.095-.361-.127-.879-.135-1.828Zm13.996.012a.75.75 0 1 0-1.5-.012c-.008.95-.04 1.467-.135 1.828-.08.303-.206.51-.509.798-.242.23-.572.392-1.145.492-.592.104-1.37.13-2.463.136a.75.75 0 0 0 .008 1.5c1.082-.005 1.98-.03 2.713-.158.752-.132 1.395-.382 1.922-.884.455-.433.76-.872.925-1.503.15-.571.177-1.274.184-2.197Z" clip-rule="evenodd"/>
</svg>
