<svg xmlns="http://www.w3.org/2000/svg" width="24" height="24" fill="none">
  <path fill="#1C274C" d="M14 2.75c1.907 0 3.262.002 4.29.14 1.005.135 1.585.389 2.008.812.423.423.677 1.003.812 2.009.138 1.028.14 2.382.14 4.289a.75.75 0 0 0 1.5 0v-.056c0-1.838 0-3.294-.153-4.433-.158-1.172-.49-2.121-1.238-2.87-.749-.748-1.698-1.08-2.87-1.238-1.14-.153-2.595-.153-4.433-.153H14a.75.75 0 0 0 0 1.5Zm-4.056-1.5H10a.75.75 0 0 1 0 1.5c-1.907 0-3.261.002-4.29.14-1.005.135-1.585.389-2.008.812-.423.423-.677 1.003-.812 2.009-.138 1.028-.14 2.382-.14 4.289a.75.75 0 0 1-1.5 0v-.056c0-1.838 0-3.294.153-4.433.158-1.172.49-2.121 1.238-2.87.749-.748 1.698-1.08 2.87-1.238 1.14-.153 2.595-.153 4.433-.153ZM5.498 13.557a.75.75 0 0 1-.055-1.059L6 13c-.557-.502-.558-.501-.557-.502v-.001l.002-.002.003-.003.01-.01a2.055 2.055 0 0 1 .11-.111c.072-.069.175-.161.31-.27.27-.215.669-.493 1.205-.768C8.159 10.78 9.776 10.25 12 10.25c2.224 0 3.841.53 4.917 1.083a7.16 7.16 0 0 1 1.205.769 4.775 4.775 0 0 1 .395.353l.026.027.009.01.003.003.001.002s.002.001-.556.503l.558-.502a.75.75 0 0 1-1.112 1.008l-.006-.006a3.282 3.282 0 0 0-.256-.227 5.665 5.665 0 0 0-.951-.606c-.874-.448-2.257-.917-4.233-.917-1.976 0-3.359.47-4.233.917a5.664 5.664 0 0 0-.952.606 3.269 3.269 0 0 0-.255.227l-.006.006a.75.75 0 0 1-1.056.051ZM22 13.25a.75.75 0 0 1 .75.75v.056c0 1.838 0 3.294-.153 4.433-.158 1.172-.49 2.121-1.238 2.87-.749.748-1.698 1.08-2.87 1.238-1.14.153-2.595.153-4.433.153H14a.75.75 0 0 1 0-1.5c1.907 0 3.262-.002 4.29-.14 1.005-.135 1.585-.389 2.008-.812.423-.423.677-1.003.812-2.009.138-1.027.14-2.382.14-4.289a.75.75 0 0 1 .75-.75ZM2.75 14a.75.75 0 0 0-1.5 0v.056c0 1.838 0 3.294.153 4.433.158 1.172.49 2.121 1.238 2.87.749.748 1.698 1.08 2.87 1.238 1.14.153 2.595.153 4.433.153H10a.75.75 0 0 0 0-1.5c-1.907 0-3.261-.002-4.29-.14-1.005-.135-1.585-.389-2.008-.812-.423-.423-.677-1.003-.812-2.009-.138-1.027-.14-2.382-.14-4.289Z"/>
</svg>
