<svg xmlns="http://www.w3.org/2000/svg" width="24" height="24" fill="none">
  <g fill="#1C274C">
    <path d="M2 12c0-4.714 0-7.071 1.464-8.536C4.93 2 7.286 2 12 2c4.714 0 7.071 0 8.535 1.464C22 4.93 22 7.286 22 12c0 4.714 0 7.071-1.465 8.535C19.072 22 16.714 22 12 22s-7.071 0-8.536-1.465C2 19.072 2 16.714 2 12Z" opacity=".5"/>
    <path d="M17.75 8.5a.75.75 0 0 0-.75-.75h-4.928l1.408-1.174a.75.75 0 0 0-.96-1.152l-3 2.5a.75.75 0 0 0 0 1.152l3 2.5a.75.75 0 1 0 .96-1.152L12.071 9.25H17a.75.75 0 0 0 .75-.75Zm0 7a.75.75 0 0 0-.75-.75h-4.928l1.408-1.174a.75.75 0 0 0-.96-1.152l-3 2.5a.75.75 0 0 0 0 1.152l3 2.5a.75.75 0 1 0 .96-1.152l-1.409-1.174H17a.75.75 0 0 0 .75-.75Zm-10 2.5a.75.75 0 0 1-1.5 0V6a.75.75 0 0 1 1.5 0v12Z"/>
  </g>
</svg>
