<svg xmlns="http://www.w3.org/2000/svg" width="24" height="24" fill="none">
  <path fill="#1C274C" fill-rule="evenodd" d="M9.944 2.25h4.112c1.838 0 3.294 0 4.433.153 1.172.158 2.121.49 2.87 1.238.748.749 1.08 1.698 1.238 2.87.153 1.14.153 2.595.153 4.433V13a.75.75 0 0 1-1.5 0v-.25H2.75V13c0 1.907.002 3.262.14 4.29.135 1.005.389 1.585.812 2.008.423.423 1.003.677 2.009.812 1.028.138 2.382.14 4.289.14h3a.75.75 0 0 1 0 1.5H9.944c-1.838 0-3.294 0-4.433-.153-1.172-.158-2.121-.49-2.87-1.238-.748-.749-1.08-1.698-1.238-2.87-.153-1.14-.153-2.595-.153-4.433v-2.112c0-1.838 0-3.294.153-4.433.158-1.172.49-2.121 1.238-2.87.749-.748 1.698-1.08 2.87-1.238 1.14-.153 2.595-.153 4.433-.153Zm-7.194 9h18.5V11c0-1.907-.002-3.261-.14-4.29-.135-1.005-.389-1.585-.812-2.008-.423-.423-1.003-.677-2.009-.812-1.027-.138-2.382-.14-4.289-.14h-4c-1.907 0-3.261.002-4.29.14-1.005.135-1.585.389-2.008.812-.423.423-.677 1.003-.812 2.009-.138 1.028-.14 2.382-.14 4.289v.25ZM6 5.75a.75.75 0 0 1 .75.75v2a.75.75 0 0 1-1.5 0v-2A.75.75 0 0 1 6 5.75Zm3 0a.75.75 0 0 1 .75.75v2a.75.75 0 0 1-1.5 0v-2A.75.75 0 0 1 9 5.75Zm3.75 1.75a.75.75 0 0 1 .75-.75H18a.75.75 0 0 1 0 1.5h-4.5a.75.75 0 0 1-.75-.75Zm5.917 8.25c-.65 0-1.25.571-1.25 1.368 0 .055.003.109.008.162.12.056.235.123.342.2a.75.75 0 0 1-.867 1.223.7.7 0 0 0-.4-.13c-.374 0-.75.335-.75.839s.376.838.75.838H20c.65 0 1.25-.571 1.25-1.368 0-.624-.377-1.123-.854-1.297a1.148 1.148 0 0 0-.8.003.75.75 0 1 1-.526-1.405c.129-.048.261-.087.398-.114a1.195 1.195 0 0 0-.801-.319Zm2.654.616c-.312-1.196-1.357-2.116-2.654-2.116-1.559 0-2.75 1.325-2.75 2.868v.034c-.982.27-1.667 1.207-1.667 2.26 0 1.25.967 2.338 2.25 2.338H20c1.559 0 2.75-1.325 2.75-2.868 0-1.069-.565-2.022-1.43-2.516ZM6 14.75a.75.75 0 0 1 .75.75v2a.75.75 0 0 1-1.5 0v-2a.75.75 0 0 1 .75-.75Zm3 0a.75.75 0 0 1 .75.75v2a.75.75 0 0 1-1.5 0v-2a.75.75 0 0 1 .75-.75Z" clip-rule="evenodd"/>
</svg>
