<svg xmlns="http://www.w3.org/2000/svg" width="24" height="24" fill="none">
  <path fill="#1C274C" fill-rule="evenodd" d="M22 18.21a.685.685 0 0 0-.698-.67h-7.577a1.833 1.833 0 0 0-1.027-.989v-2.814h5.814c1.54 0 2.79-1.202 2.79-2.684 0-1.483-1.25-2.685-2.79-2.685 1.54 0 2.79-1.201 2.79-2.684 0-1.482-1.25-2.684-2.79-2.684H5.488c-1.54 0-2.79 1.202-2.79 2.684 0 1.483 1.25 2.684 2.79 2.684-1.54 0-2.79 1.202-2.79 2.685 0 1.482 1.25 2.684 2.79 2.684h5.814v2.814c-.466.182-.838.54-1.027.989H2.698c-.386 0-.698.3-.698.67 0 .371.312.672.698.672h7.577A1.862 1.862 0 0 0 12 20c.78 0 1.45-.463 1.725-1.118h7.577c.386 0 .698-.3.698-.672ZM12.233 5.684c0-.37.312-.67.697-.67h5.582c.385 0 .697.3.697.67 0 .37-.312.671-.697.671H12.93a.685.685 0 0 1-.697-.67Zm0 5.369c0-.371.312-.671.697-.671h5.582c.385 0 .697.3.697.67a.685.685 0 0 1-.697.672H12.93a.685.685 0 0 1-.697-.671ZM6.419 6.579c.513 0 .93-.4.93-.895 0-.494-.417-.895-.93-.895-.514 0-.93.401-.93.895s.416.895.93.895Zm0 5.368c.513 0 .93-.4.93-.894 0-.495-.417-.895-.93-.895-.514 0-.93.4-.93.895 0 .494.416.894.93.894Z" clip-rule="evenodd"/>
</svg>
