<svg xmlns="http://www.w3.org/2000/svg" width="24" height="24" fill="none">
  <path fill="#1C274C" fill-rule="evenodd" d="M5.948 1.5h12.104c.899 0 1.648 0 2.242.08.628.084 1.195.27 1.65.725.456.456.642 1.023.726 1.65.08.595.08 1.345.08 2.243v.104c0 .898 0 1.648-.08 2.242-.084.628-.27 1.195-.726 1.65-.455.456-1.022.642-1.65.726-.594.08-1.343.08-2.242.08H5.948c-.898 0-1.648 0-2.242-.08-.628-.084-1.195-.27-1.65-.726-.456-.455-.642-1.022-.726-1.65-.08-.594-.08-1.344-.08-2.242v-.104c0-.898 0-1.648.08-2.242.084-.628.27-1.195.725-1.65.456-.456 1.023-.642 1.65-.726C4.3 1.5 5.05 1.5 5.949 1.5ZM3.905 3.067c-.461.062-.659.169-.789.3-.13.13-.237.327-.3.788-.064.483-.066 1.131-.066 2.095 0 .964.002 1.612.067 2.095.062.461.169.659.3.789.13.13.327.237.788.3.483.064 1.131.066 2.095.066h12c.964 0 1.612-.002 2.095-.067.461-.062.659-.169.789-.3.13-.13.237-.327.3-.788.064-.483.066-1.131.066-2.095 0-.964-.002-1.612-.067-2.095-.062-.461-.169-.659-.3-.789-.13-.13-.327-.237-.788-.3C19.612 3.003 18.964 3 18 3H6c-.964 0-1.612.002-2.095.067ZM5.25 6.25A.75.75 0 0 1 6 5.5h2A.75.75 0 1 1 8 7H6a.75.75 0 0 1-.75-.75Zm5 0A.75.75 0 0 1 11 5.5h7A.75.75 0 0 1 18 7h-7a.75.75 0 0 1-.75-.75ZM5.948 12.5h12.104c.899 0 1.648 0 2.242.08.628.084 1.195.27 1.65.726.456.455.642 1.022.726 1.65.08.594.08 1.343.08 2.242v.104c0 .899 0 1.648-.08 2.242-.084.628-.27 1.195-.726 1.65-.455.456-1.022.642-1.65.726-.594.08-1.343.08-2.242.08H5.948c-.898 0-1.648 0-2.242-.08-.628-.084-1.195-.27-1.65-.726-.456-.455-.642-1.022-.726-1.65-.08-.594-.08-1.343-.08-2.242v-.104c0-.899 0-1.648.08-2.242.084-.628.27-1.195.725-1.65.456-.456 1.023-.642 1.65-.726.595-.08 1.345-.08 2.243-.08Zm-2.043 1.566c-.461.063-.659.17-.789.3-.13.13-.237.328-.3.79-.064.482-.066 1.13-.066 2.094s.002 1.612.067 2.095c.062.461.169.659.3.789.13.13.327.237.788.3.483.064 1.131.066 2.095.066h12c.964 0 1.612-.002 2.095-.067.461-.062.659-.169.789-.3.13-.13.237-.327.3-.788.064-.483.066-1.131.066-2.095 0-.964-.002-1.612-.067-2.095-.062-.461-.169-.659-.3-.789-.13-.13-.327-.237-.788-.3C19.612 14.002 18.964 14 18 14H6c-.964 0-1.612.002-2.095.066ZM5.25 17.25A.75.75 0 0 1 6 16.5h2A.75.75 0 0 1 8 18H6a.75.75 0 0 1-.75-.75Zm5 0a.75.75 0 0 1 .75-.75h7a.75.75 0 0 1 0 1.5h-7a.75.75 0 0 1-.75-.75Z" clip-rule="evenodd"/>
</svg>
