<svg xmlns="http://www.w3.org/2000/svg" width="24" height="24" fill="none">
  <path fill="#1C274C" d="M13 21.75a.75.75 0 0 0 0-1.5v1.5Zm-9.828-1.922.53-.53-.53.53ZM20.828 4.172l-.53.53.53-.53ZM21.25 13a.75.75 0 0 0 1.5 0h-1.5ZM10 3.75h4v-1.5h-4v1.5ZM2.75 13v-1h-1.5v1h1.5Zm0-1v-1h-1.5v1h1.5ZM13 20.25h-3v1.5h3v-1.5ZM21.25 11v1h1.5v-1h-1.5Zm-20 2c0 1.864-.002 3.338.153 4.489.158 1.172.49 2.121 1.238 2.87l1.06-1.06c-.422-.424-.676-1.004-.811-2.01-.138-1.027-.14-2.382-.14-4.289h-1.5ZM10 20.25c-1.907 0-3.261-.002-4.29-.14-1.005-.135-1.585-.389-2.008-.812l-1.06 1.06c.748.75 1.697 1.081 2.869 1.239 1.15.155 2.625.153 4.489.153v-1.5Zm4-16.5c1.907 0 3.262.002 4.29.14 1.005.135 1.585.389 2.008.812l1.06-1.06c-.748-.75-1.697-1.081-2.869-1.239-1.15-.155-2.625-.153-4.489-.153v1.5ZM22.75 11c0-1.864.002-3.338-.153-4.489-.158-1.172-.49-2.121-1.238-2.87l-1.06 1.06c.422.424.676 1.004.811 2.01.138 1.028.14 2.382.14 4.289h1.5ZM10 2.25c-1.864 0-3.338-.002-4.489.153-1.172.158-2.121.49-2.87 1.238l1.06 1.06c.424-.422 1.004-.676 2.01-.811 1.028-.138 2.382-.14 4.289-.14v-1.5ZM2.75 11c0-1.907.002-3.261.14-4.29.135-1.005.389-1.585.812-2.008l-1.06-1.06c-.75.748-1.081 1.697-1.239 2.869C1.248 7.661 1.25 9.136 1.25 11h1.5ZM2 12.75h20v-1.5H2v1.5ZM21.25 12v1h1.5v-1h-1.5Z"/>
  <path stroke="#1C274C" stroke-linecap="round" stroke-width="1.5" d="M13.5 7.5H18m-12 10v-2m0-7v-2m3 11v-2m0-7v-2m10.333 10.385a1.898 1.898 0 0 1 1.321-.004m-3.863.972a1.431 1.431 0 0 0-.291-.03c-.828 0-1.5.712-1.5 1.589S15.672 21 16.5 21H20c1.105 0 2-.948 2-2.118 0-.927-.563-1.714-1.346-2.001m-3.863.972a2.224 2.224 0 0 1-.124-.735c0-1.17.895-2.118 2-2.118 1.029 0 1.876.823 1.987 1.88m-3.863.973c.197.041.38.123.542.238"/>
</svg>
