<svg xmlns="http://www.w3.org/2000/svg" width="24" height="24" fill="none">
  <g fill="#1C274C">
    <path fill-rule="evenodd" d="M12.428 2c-1.114 0-2.129.6-4.157 1.802l-.686.406C5.555 5.41 4.542 6.011 3.985 7c-.557.99-.557 2.19-.557 4.594v.812c0 2.403 0 3.605.557 4.594.557.99 1.57 1.59 3.6 2.791l.686.407C10.299 21.399 11.314 22 12.428 22c1.114 0 2.128-.6 4.157-1.802l.686-.407c2.028-1.2 3.043-1.802 3.6-2.791.557-.99.557-2.19.557-4.594v-.812c0-2.403 0-3.605-.557-4.594-.557-.99-1.572-1.59-3.6-2.792l-.686-.406C14.555 2.601 13.542 2 12.428 2Z" clip-rule="evenodd" opacity=".5"/>
    <path d="M12.428 8.25a3.75 3.75 0 1 0 0 7.5 3.75 3.75 0 0 0 0-7.5Z"/>
  </g>
</svg>
