<svg xmlns="http://www.w3.org/2000/svg" width="24" height="24" fill="none">
  <g stroke="#1C274C" stroke-width="1.5">
    <path d="M3 10.417c0-3.198 0-4.797.378-5.335.377-.537 1.88-1.052 4.887-2.081l.573-.196C10.405 2.268 11.188 2 12 2c.811 0 1.595.268 3.162.805l.573.196c3.007 1.029 4.51 1.544 4.887 2.081C21 5.62 21 7.22 21 10.417v1.574c0 5.638-4.239 8.375-6.899 9.536C13.38 21.842 13.02 22 12 22s-1.38-.158-2.101-.473C7.239 20.365 3 17.63 3 11.991v-1.574Z"/>
    <path d="M10.861 8.363C11.368 7.454 11.621 7 12 7s.632.454 1.139 1.363l.13.235c.145.259.217.388.329.473.112.085.252.117.532.18l.254.058c.984.222 1.476.334 1.593.71.117.377-.218.769-.889 1.553l-.174.203c-.19.223-.285.334-.328.472-.043.138-.029.287 0 .584l.026.27c.102 1.047.152 1.57-.154 1.803-.306.233-.767.02-1.688-.403l-.239-.11c-.261-.12-.392-.181-.531-.181s-.27.06-.531.18l-.239.11c-.92.425-1.382.637-1.688.404-.306-.232-.256-.756-.154-1.802l.026-.271c.029-.297.043-.446 0-.584-.043-.138-.138-.25-.328-.472l-.174-.203c-.67-.784-1.006-1.176-.889-1.553.117-.376.609-.488 1.593-.71l.254-.058c.28-.063.42-.095.532-.18.112-.085.184-.214.328-.473l.131-.235Z"/>
  </g>
</svg>
