<svg xmlns="http://www.w3.org/2000/svg" width="24" height="24" fill="none">
  <path fill="#1C274C" fill-rule="evenodd" d="M3.378 5.082C3 5.62 3 7.22 3 10.417v1.574c0 5.638 4.239 8.375 6.899 9.536.721.315 1.082.473 2.101.473 1.02 0 1.38-.158 2.101-.473C16.761 20.365 21 17.63 21 11.991v-1.574c0-3.198 0-4.797-.378-5.335-.377-.537-1.88-1.052-4.887-2.081l-.573-.196C13.595 2.268 12.812 2 12 2c-.811 0-1.595.268-3.162.805L8.265 3c-3.007 1.03-4.51 1.545-4.887 2.082ZM15.059 10.5a.75.75 0 0 0-1.118-.999l-3.012 3.374-.87-.974a.75.75 0 0 0-1.118 1l1.428 1.6a.75.75 0 0 0 1.119 0l3.572-4Z" clip-rule="evenodd"/>
</svg>
