<svg xmlns="http://www.w3.org/2000/svg" width="24" height="24" fill="none">
  <g stroke="#1C274C" stroke-width="1.5">
    <path d="M3.5 11v3c0 3.771 0 5.657 1.172 6.828C5.843 22 7.729 22 11.5 22h1c3.771 0 5.657 0 6.828-1.172C20.5 19.657 20.5 17.771 20.5 14v-3"/>
    <path d="M9.5 2h5l.652 6.517a3.167 3.167 0 1 1-6.304 0L9.5 2Z"/>
    <path d="M3.33 5.351c.178-.89.267-1.335.448-1.696a3 3 0 0 1 1.888-1.548C6.056 2 6.51 2 7.418 2H9.5l-.725 7.245a3.06 3.06 0 1 1-6.043-.904l.598-2.99Zm17.34 0c-.178-.89-.267-1.335-.448-1.696a3 3 0 0 0-1.888-1.548C17.944 2 17.49 2 16.582 2H14.5l.725 7.245a3.06 3.06 0 1 0 6.043-.904l-.598-2.99Z"/>
    <path stroke-linecap="round" d="M9.5 21.5v-3c0-.935 0-1.402.201-1.75a1.5 1.5 0 0 1 .549-.549C10.598 16 11.065 16 12 16s1.402 0 1.75.201a1.5 1.5 0 0 1 .549.549c.201.348.201.815.201 1.75v3"/>
  </g>
</svg>
