<svg xmlns="http://www.w3.org/2000/svg" width="24" height="24" fill="none">
  <g stroke="#1C274C" stroke-width="1.5">
    <path stroke-linecap="round" d="M22 22H2"/>
    <path stroke-linecap="round" d="M20 22V11M4 22V11" opacity=".5"/>
    <path stroke-linejoin="round" d="M16.528 2H7.472c-1.203 0-1.804 0-2.287.299-.484.298-.753.836-1.29 1.912L2.49 7.76c-.324.82-.608 1.786-.062 2.479A2 2 0 0 0 6 9a2 2 0 1 0 4 0 2 2 0 1 0 4 0 2 2 0 1 0 4 0 2 2 0 0 0 3.571 1.238c.546-.693.262-1.659-.062-2.479l-1.404-3.548c-.537-1.076-.806-1.614-1.29-1.912C18.332 2 17.731 2 16.528 2Z"/>
    <path stroke-linecap="round" d="M9.5 21.5v-3c0-.935 0-1.402.201-1.75a1.5 1.5 0 0 1 .549-.549C10.598 16 11.065 16 12 16s1.402 0 1.75.201a1.5 1.5 0 0 1 .549.549c.201.348.201.815.201 1.75v3" opacity=".5"/>
  </g>
</svg>
