<svg xmlns="http://www.w3.org/2000/svg" width="24" height="24" fill="none">
  <g fill="#1C274C">
    <path d="M19 14.25a.75.75 0 0 1 .75.75v6.25H21a.75.75 0 0 1 0 1.5H3a.75.75 0 0 1 0-1.5h1.25V15a.75.75 0 0 1 1.5 0v6.25h12.5V15a.75.75 0 0 1 .75-.75Z" opacity=".5"/>
    <path d="M16.528 2H7.472c-1.203 0-1.804 0-2.287.299-.484.298-.753.836-1.29 1.912L2.49 7.76c-.324.82-.608 1.786-.062 2.479A2 2 0 0 0 6 9a2 2 0 1 0 4 0 2 2 0 1 0 4 0 2 2 0 1 0 4 0 2 2 0 0 0 3.571 1.238c.546-.693.262-1.659-.062-2.479l-1.404-3.548c-.537-1.076-.806-1.614-1.29-1.912C18.332 2 17.731 2 16.528 2Z"/>
  </g>
</svg>
