<svg xmlns="http://www.w3.org/2000/svg" width="24" height="24" fill="none">
  <path fill="#1C274C" fill-rule="evenodd" d="M19.47 4.47a.75.75 0 0 1 1.06 0l2 2a.75.75 0 0 1 0 1.06l-2 2a.75.75 0 1 1-1.06-1.06l.72-.72h-1.793c-.844 0-1.424 0-1.88.045-.44.043-.706.122-.927.247-.22.125-.426.313-.689.668-.272.368-.572.865-1.006 1.589l-2.523 4.205c-.41.685-.747 1.245-1.068 1.679-.335.453-.688.816-1.155 1.08-.467.265-.96.38-1.52.435-.538.052-1.191.052-1.99.052H2a.75.75 0 0 1 0-1.5h3.603c.844 0 1.424 0 1.88-.045.44-.043.706-.122.927-.247.22-.125.426-.313.689-.668.272-.368.571-.865 1.006-1.589l2.523-4.205c.41-.685.747-1.245 1.068-1.679.335-.453.688-.816 1.155-1.08.467-.265.96-.38 1.52-.435.538-.052 1.191-.052 1.99-.052h1.828l-.72-.72a.75.75 0 0 1 0-1.06ZM7.73 7.79c-.196-.038-.418-.041-1.063-.041H2a.75.75 0 0 1 0-1.5h4.74c.546 0 .922 0 1.278.07a3.75 3.75 0 0 1 2.071 1.172c.243.27.436.592.717 1.06l.037.062a.75.75 0 1 1-1.286.772c-.332-.554-.45-.742-.583-.89a2.25 2.25 0 0 0-1.243-.705Zm5.683 6.566a.75.75 0 0 1 1.03.257c.331.554.448.742.582.89.327.364.763.611 1.243.705.196.038.418.041 1.063.041h2.857l-.72-.72a.75.75 0 1 1 1.061-1.06l2 2a.75.75 0 0 1 0 1.06l-2 2a.75.75 0 1 1-1.06-1.06l.72-.72h-2.931c-.545 0-.92 0-1.277-.07a3.75 3.75 0 0 1-2.071-1.172c-.243-.27-.436-.592-.717-1.06l-.037-.062a.75.75 0 0 1 .257-1.03Z" clip-rule="evenodd"/>
</svg>
