<svg xmlns="http://www.w3.org/2000/svg" width="24" height="24" fill="none">
  <path fill="#1C274C" fill-rule="evenodd" d="M12 1.25a.75.75 0 0 1 .75.75v.75h2.788c.67 0 1.229 0 1.681.046.473.048.913.153 1.309.417.3.201.558.459.759.76.264.395.369.835.417 1.308.046.452.046 1.011.046 1.68v.077c0 .67 0 1.229-.046 1.681-.048.473-.153.913-.418 1.309-.2.3-.458.558-.758.758-.396.265-.836.37-1.309.418-.452.046-1.011.046-1.68.046H12.75v.5h2.644c.562 0 1.005 0 1.422.135.183.06.36.138.526.235.38.22.676.55 1.051.968l.065.073.024.026c.405.451.745.83.992 1.165.26.352.462.715.542 1.148.061.33.061.67 0 1-.08.433-.282.796-.542 1.148-.247.336-.587.714-.992 1.165l-.024.027-.065.072c-.375.419-.671.749-1.05.968a2.751 2.751 0 0 1-.527.235c-.417.136-.86.136-1.422.135H12.75v1H14a.75.75 0 0 1 0 1.5h-4a.75.75 0 0 1 0-1.5h1.25v-1H8.462c-.67 0-1.229 0-1.681-.046-.473-.048-.913-.153-1.309-.418-.3-.2-.558-.458-.759-.758-.264-.396-.369-.835-.417-1.309-.046-.452-.046-1.011-.046-1.68v-.077c0-.67 0-1.229.046-1.681.048-.474.153-.913.417-1.309.201-.3.459-.558.76-.758.395-.265.835-.37 1.308-.418.452-.046 1.011-.046 1.68-.046h2.789v-.5H8.606c-.562 0-1.005 0-1.422-.135a2.75 2.75 0 0 1-.526-.235c-.38-.22-.676-.55-1.051-.968l-.065-.072-.024-.027c-.405-.451-.745-.83-.992-1.165-.26-.352-.462-.715-.542-1.148a2.75 2.75 0 0 1 0-1c.08-.433.282-.796.542-1.148.247-.336.587-.714.992-1.165l.024-.027.065-.072c.375-.419.671-.749 1.05-.968a2.75 2.75 0 0 1 .527-.235c.417-.136.86-.135 1.422-.135h2.644V2a.75.75 0 0 1 .75-.75Zm-3.296 3c-.706 0-.894.009-1.056.061a1.25 1.25 0 0 0-.239.107c-.148.085-.28.22-.751.745-.435.484-.725.808-.924 1.078-.191.26-.253.41-.275.532a1.25 1.25 0 0 0 0 .454c.022.121.084.272.275.532.199.27.489.594.924 1.078.472.526.603.66.751.745.076.044.156.08.239.107.162.052.35.061 1.056.061H15.5c.718 0 1.2 0 1.567-.038.355-.036.519-.1.628-.173.136-.09.253-.208.344-.345.073-.108.137-.272.173-.627.037-.367.038-.85.038-1.567 0-.718 0-1.2-.038-1.567-.036-.355-.1-.519-.173-.627a1.251 1.251 0 0 0-.345-.345c-.108-.073-.272-.137-.627-.173-.367-.037-.85-.038-1.567-.038H8.704ZM8.25 7A.75.75 0 0 1 9 6.25h6a.75.75 0 0 1 0 1.5H9A.75.75 0 0 1 8.25 7Zm8.102 6.311c-.162-.052-.35-.061-1.056-.061H8.5c-.718 0-1.2 0-1.567.038-.355.036-.519.1-.627.173a1.25 1.25 0 0 0-.345.345c-.073.108-.137.272-.173.627-.037.367-.038.85-.038 1.567 0 .718 0 1.2.038 1.567.036.355.1.519.173.628.09.136.208.253.345.344.108.073.272.137.627.173.367.037.85.038 1.567.038h6.796c.706 0 .894-.009 1.056-.061.083-.027.163-.063.239-.107.148-.085.28-.22.751-.745.435-.484.725-.808.924-1.078.191-.26.253-.41.275-.532a1.25 1.25 0 0 0 0-.454c-.022-.121-.084-.272-.275-.532-.199-.27-.489-.594-.924-1.078-.472-.526-.603-.66-.751-.745a1.254 1.254 0 0 0-.24-.107ZM8.25 16a.75.75 0 0 1 .75-.75h6a.75.75 0 0 1 0 1.5H9a.75.75 0 0 1-.75-.75Z" clip-rule="evenodd"/>
</svg>
