<svg xmlns="http://www.w3.org/2000/svg" width="24" height="24" fill="none">
  <g stroke="#1C274C" stroke-width="1.5">
    <path stroke-linecap="round" d="M2 14c0-3.771 0-5.657 1.172-6.828C4.343 6 6.229 6 10 6a3.86 3.86 0 0 1 2.731 1.136l4.133 4.133A3.864 3.864 0 0 1 18 14c0 3.771 0 5.657-1.172 6.828C15.657 22 13.771 22 10 22c-3.771 0-5.657 0-6.828-1.172-.654-.653-.943-1.528-1.07-2.828M18 17.898c1.3-.127 2.175-.416 2.828-1.07C22 15.657 22 13.771 22 10a3.86 3.86 0 0 0-1.136-2.731L20.596 7M6.102 6c.127-1.3.416-2.175 1.07-2.828C8.343 2 10.229 2 14 2a3.86 3.86 0 0 1 2.731 1.136l.269.268"/>
    <path d="M10 14H9c-.943 0-1.414 0-1.707.293C7 14.586 7 15.057 7 16v1c0 .943 0 1.414.293 1.707C7.586 19 8.057 19 9 19h1m0-5h1c.943 0 1.414 0 1.707.293.293.293.293.764.293 1.707v.5M10 14v2.5m0 2.5h1c.943 0 1.414 0 1.707-.293C13 18.414 13 17.943 13 17v-.5M10 19v-2.5m0 0h3"/>
  </g>
</svg>
