<svg xmlns="http://www.w3.org/2000/svg" width="24" height="24" fill="none">
  <path fill="#1C274C" fill-rule="evenodd" d="M13.944 1.25H14c1.226 0 2.398.491 3.262 1.355l4.133 4.133A4.614 4.614 0 0 1 22.75 10v.056c0 1.838 0 3.294-.153 4.433-.158 1.172-.49 2.121-1.238 2.87-.728.728-1.646 1.062-2.775 1.225-.163 1.129-.497 2.047-1.225 2.775-.749.748-1.698 1.08-2.87 1.238-1.14.153-2.595.153-4.433.153h-.112c-1.838 0-3.294 0-4.433-.153-1.172-.158-2.121-.49-2.87-1.238-.748-.749-1.08-1.698-1.238-2.87-.153-1.14-.153-2.595-.153-4.433v-.112c0-1.838 0-3.294.153-4.433.158-1.172.49-2.121 1.238-2.87.728-.728 1.646-1.062 2.775-1.225.163-1.129.497-2.047 1.225-2.775.749-.748 1.698-1.08 2.87-1.238 1.14-.153 2.595-.153 4.433-.153ZM6.959 5.286c.86-.036 1.849-.036 2.985-.036H10c1.226 0 2.398.491 3.262 1.355l4.133 4.133A4.614 4.614 0 0 1 18.75 14v.056c0 1.136 0 2.126-.036 2.985.752-.146 1.225-.383 1.584-.743.423-.423.677-1.003.812-2.009.138-1.027.14-2.382.14-4.289 0-.824-.33-1.615-.916-2.201l-4.133-4.133A3.113 3.113 0 0 0 14 2.75c-1.907 0-3.261.002-4.29.14-1.005.135-1.585.389-2.008.812-.36.36-.597.832-.743 1.584ZM5.71 6.89c-1.006.135-1.586.389-2.01.812-.422.423-.676 1.003-.811 2.009-.138 1.027-.14 2.382-.14 4.289 0 1.907.002 3.262.14 4.29.135 1.005.389 1.585.812 2.008.423.423 1.003.677 2.009.812 1.028.138 2.382.14 4.289.14 1.907 0 3.261-.002 4.29-.14 1.005-.135 1.585-.389 2.008-.812.423-.423.677-1.003.812-2.009.138-1.027.14-2.382.14-4.289 0-.824-.33-1.615-.916-2.201L12.2 7.666A3.113 3.113 0 0 0 10 6.75c-1.907 0-3.261.002-4.29.14Zm3.244 6.36h2.09c.433 0 .83 0 1.152.043.356.048.731.16 1.04.47.31.309.422.684.47 1.04.043.323.043.72.043 1.152v1.09c0 .433 0 .83-.043 1.152-.048.356-.16.731-.47 1.04-.309.31-.684.422-1.04.47-.323.043-.72.043-1.152.043h-2.09c-.433 0-.83 0-1.152-.043-.356-.048-.731-.16-1.04-.47-.31-.309-.422-.684-.47-1.04-.043-.323-.043-.72-.043-1.152v-1.09c0-.433 0-.83.043-1.152.048-.356.16-.731.47-1.04.309-.31.684-.422 1.04-.47.323-.043.72-.043 1.152-.043Zm-1.132 1.573Zm0 0Zm.003-.001-.003.001-.001.003a.705.705 0 0 0-.042.177c-.028.21-.03.504-.03.997v1c0 .493.002.787.03.997a.705.705 0 0 0 .042.177l.001.003.003.001a.704.704 0 0 0 .177.042c.21.028.504.03.997.03h.25v-3.5H9c-.493 0-.787.002-.997.03a.703.703 0 0 0-.177.042Zm2.924-.072v1h1.5a6.263 6.263 0 0 0-.03-.747.702.702 0 0 0-.042-.177l-.001-.003-.003-.001a.702.702 0 0 0-.177-.042c-.21-.028-.504-.03-.997-.03h-.25Zm1.5 2.5h-1.5v1H11c.493 0 .787-.002.997-.03a.702.702 0 0 0 .177-.042l.003-.001.001-.003a.702.702 0 0 0 .042-.177c.023-.172.028-.4.03-.747Z" clip-rule="evenodd"/>
</svg>
