<svg xmlns="http://www.w3.org/2000/svg" width="24" height="24" fill="none">
  <path stroke="#1C274C" stroke-linecap="round" stroke-width="1.5" d="m3 17 .608.676A4 4 0 0 0 6.581 19H10m11-2-.608.676A4 4 0 0 1 17.419 19H14"/>
  <circle cx="7" cy="21" r="1" fill="#1C274C"/>
  <circle cx="17" cy="21" r="1" fill="#1C274C"/>
  <circle cx="19" cy="4" r="2" stroke="#1C274C" stroke-width="1.5"/>
  <path stroke="#1C274C" stroke-linecap="round" stroke-width="1.5" d="M15 16.5v-2.133a1.85 1.85 0 0 0-.666-1.422l-.996-.83a1.59 1.59 0 0 1-.106-2.346l1.654-1.654a1.067 1.067 0 0 0-.335-1.736 4.269 4.269 0 0 0-3.944.304L8.5 8m2.5 6-.621.621c-.434.434-.65.65-.926.765-.276.114-.583.114-1.196.114H7m9.5-5.5h3"/>
</svg>
