<svg xmlns="http://www.w3.org/2000/svg" width="24" height="24" fill="none">
  <path fill="#1C274C" fill-rule="evenodd" d="M18.305 2.906c-.79.266-1.787.83-3.245 1.662-.733.418-1.435.84-2.05 1.245a40.278 40.278 0 0 0-2.255 1.62C9.3 8.544 8.29 9.322 7.628 10.043 7 10.73 6.75 11.3 6.75 12c0 .7.25 1.27.878 1.956.661.722 1.672 1.498 3.127 2.611a40.272 40.272 0 0 0 2.254 1.619 38.23 38.23 0 0 0 2.05 1.245c1.459.832 2.457 1.396 3.246 1.662.734.247 1.141.189 1.524-.08.416-.294.705-.772.906-1.746.206-.992.29-2.345.409-4.258.065-1.06.106-2.09.106-3.01 0-.918-.04-1.95-.106-3.008-.118-1.913-.203-3.266-.409-4.259-.201-.973-.49-1.452-.906-1.745-.383-.27-.79-.328-1.524-.08Zm-.479-1.421c1.017-.343 1.966-.358 2.866.275.866.61 1.276 1.527 1.512 2.669.23 1.11.32 2.57.433 4.408l.004.061A51.5 51.5 0 0 1 22.75 12a51.5 51.5 0 0 1-.11 3.101l-.003.062c-.113 1.837-.203 3.298-.433 4.408-.236 1.141-.646 2.059-1.512 2.668-.9.633-1.85.618-2.866.276-.944-.318-2.069-.96-3.438-1.74l-.071-.04a39.754 39.754 0 0 1-2.132-1.296 41.746 41.746 0 0 1-2.34-1.68l-.058-.044C8.402 16.656 7.284 15.8 6.522 14.97 5.717 14.09 5.25 13.176 5.25 12c0-1.174.467-2.09 1.272-2.968.762-.832 1.88-1.687 3.265-2.747l.057-.043a41.7 41.7 0 0 1 2.34-1.68c.65-.428 1.382-.868 2.133-1.296l.07-.04c1.37-.781 2.495-1.422 3.44-1.74ZM2 4.25a.75.75 0 0 1 .75.75v15a.75.75 0 1 1-1.5 0V5A.75.75 0 0 1 2 4.25Z" clip-rule="evenodd"/>
</svg>
