<svg xmlns="http://www.w3.org/2000/svg" width="24" height="24" fill="none">
  <g stroke="#1C274C" stroke-width="1.5">
    <path d="M10.3 6.837C7.433 9.029 6 10.125 6 12c0 1.875 1.433 2.97 4.3 5.163a40.963 40.963 0 0 0 2.297 1.65c.633.416 1.35.847 2.091 1.27 2.86 1.63 4.29 2.446 5.572 1.543 1.283-.902 1.4-2.792 1.632-6.57.066-1.07.108-2.117.108-3.056 0-.94-.042-1.987-.108-3.055-.233-3.78-.35-5.668-1.632-6.571-1.282-.903-2.712-.087-5.572 1.543a38.94 38.94 0 0 0-2.091 1.27 40.974 40.974 0 0 0-2.297 1.65Z"/>
    <path stroke-linecap="round" d="M2 5v15"/>
  </g>
</svg>
