<svg xmlns="http://www.w3.org/2000/svg" width="24" height="24" fill="none">
  <g fill="#1C274C">
    <path d="M13 16a1 1 0 1 1-2 0 1 1 0 0 1 2 0Z"/>
    <path fill-rule="evenodd" d="M20.92 1.405a.75.75 0 0 1 .268.79l-.995 3.714 1.896-1.094a.75.75 0 1 1 .75 1.299l-3.464 2a.75.75 0 0 1-1.1-.844l.996-3.715-1.896 1.095a.75.75 0 1 1-.75-1.3l3.464-2a.75.75 0 0 1 .832.055Zm-8.977-.155H12a.75.75 0 0 1 0 1.5c-2.378 0-4.086.002-5.386.176-1.279.172-2.05.5-2.62 1.069-.569.57-.896 1.34-1.068 2.619-.174 1.3-.176 3.008-.176 5.386s.002 4.086.176 5.386c.172 1.279.5 2.05 1.069 2.62.57.569 1.34.896 2.619 1.068 1.3.174 3.008.176 5.386.176s4.086-.002 5.386-.176c1.279-.172 2.05-.5 2.62-1.069.569-.57.896-1.34 1.068-2.619.174-1.3.176-3.008.176-5.386a.75.75 0 0 1 1.5 0v.057c0 2.309 0 4.118-.19 5.53-.194 1.444-.6 2.584-1.494 3.479-.895.895-2.035 1.3-3.48 1.494-1.411.19-3.22.19-5.529.19h-.114c-2.309 0-4.118 0-5.53-.19-1.444-.194-2.584-.6-3.479-1.494-.895-.895-1.3-2.035-1.494-3.48-.19-1.411-.19-3.22-.19-5.529v-.114c0-2.309 0-4.118.19-5.53.194-1.444.6-2.584 1.494-3.479.895-.895 2.035-1.3 3.48-1.494 1.411-.19 3.22-.19 5.529-.19Zm1.456 3.875a.75.75 0 0 1 1.024-.275l1.732 1a.75.75 0 0 1-.18 1.374l-.984.264.164.094a.75.75 0 0 1-.75 1.3l-1.732-1a.75.75 0 0 1 .18-1.375l.984-.263-.164-.095a.75.75 0 0 1-.274-1.024Zm-7.4 5.317a.75.75 0 0 1 1.059.056c.464.517.965.752 1.442.752s.978-.235 1.442-.752a.75.75 0 1 1 1.116 1.004c-.67.743-1.548 1.248-2.558 1.248-1.01 0-1.889-.505-2.558-1.248a.75.75 0 0 1 .056-1.06Zm7 0a.75.75 0 0 1 1.059.056c.465.517.965.752 1.442.752s.977-.235 1.442-.752a.75.75 0 1 1 1.116 1.004c-.67.743-1.548 1.248-2.558 1.248-1.01 0-1.889-.505-2.558-1.248a.75.75 0 0 1 .056-1.06Z" clip-rule="evenodd"/>
  </g>
</svg>
