<svg xmlns="http://www.w3.org/2000/svg" width="24" height="24" fill="none">
  <g fill="#1C274C">
    <path d="M13 16a1 1 0 1 1-2 0 1 1 0 0 1 2 0Z"/>
    <path fill-rule="evenodd" d="M20.92 1.405a.75.75 0 0 1 .268.79l-.995 3.714 1.896-1.094a.75.75 0 1 1 .75 1.299l-3.464 2a.75.75 0 0 1-1.1-.844l.996-3.715-1.896 1.095a.75.75 0 1 1-.75-1.3l3.464-2a.75.75 0 0 1 .832.055ZM12 2.75A9.25 9.25 0 1 0 21.25 12a.75.75 0 0 1 1.5 0c0 5.937-4.813 10.75-10.75 10.75S1.25 17.937 1.25 12 6.063 1.25 12 1.25a.75.75 0 0 1 0 1.5Zm1.398 2.375a.75.75 0 0 1 1.025-.275l1.732 1a.75.75 0 0 1-.181 1.374l-.983.264.164.095a.75.75 0 0 1-.75 1.299l-1.732-1a.75.75 0 0 1 .18-1.374l.984-.264-.164-.094a.75.75 0 0 1-.275-1.025Zm-7.4 5.317a.75.75 0 0 1 1.06.056c.464.517.965.752 1.442.752s.978-.235 1.442-.752a.75.75 0 1 1 1.116 1.004c-.67.743-1.548 1.248-2.558 1.248-1.01 0-1.889-.505-2.558-1.248a.75.75 0 0 1 .056-1.06Zm7 0a.75.75 0 0 1 1.06.056c.465.517.965.752 1.442.752s.977-.235 1.442-.752a.75.75 0 1 1 1.116 1.004c-.67.743-1.548 1.248-2.558 1.248-1.01 0-1.889-.505-2.558-1.248a.75.75 0 0 1 .056-1.06Z" clip-rule="evenodd"/>
  </g>
</svg>
