<svg xmlns="http://www.w3.org/2000/svg" width="24" height="24" fill="none">
  <path fill="#1C274C" d="M16 6.419c2.828 0 4.243 0 5.121.817C22 8.053 22 9.369 22 12c0 2.631 0 3.947-.879 4.764-.878.817-2.293.817-5.121.817H8c-2.828 0-4.243 0-5.121-.817C2 15.947 2 14.631 2 12c0-2.631 0-3.947.879-4.764.878-.817 2.293-.817 5.121-.817h8Zm.099-1.396H7.9c-.983 0-1.865 0-2.629.046-.27.017-.524.039-.764.069a8.399 8.399 0 0 0-.32.046c-.217.036-.42-.131-.401-.35.037-.43.118-.82.317-1.183a3.146 3.146 0 0 1 1.42-1.321c.391-.186.81-.26 1.273-.296C7.245 2 7.795 2 8.469 2h7.062c.674 0 1.225 0 1.672.034.463.035.882.11 1.273.296.611.29 1.108.752 1.42 1.32.199.364.28.753.317 1.184.02.219-.184.386-.4.35a8.412 8.412 0 0 0-.321-.046c-.24-.03-.495-.052-.764-.069-.764-.046-1.647-.046-2.63-.046ZM7.901 18.977H16.1c.982 0 1.865 0 2.629-.047.27-.016.524-.038.764-.068.107-.013.214-.029.32-.046.217-.036.42.131.401.35-.037.43-.118.82-.317 1.183a3.147 3.147 0 0 1-1.42 1.322c-.391.185-.81.26-1.273.295-.447.034-.998.034-1.672.034H8.47c-.674 0-1.225 0-1.672-.034-.463-.035-.882-.11-1.272-.296a3.147 3.147 0 0 1-1.42-1.32c-.2-.364-.28-.753-.318-1.184-.02-.219.184-.386.4-.35a11.992 11.992 0 0 0 1.085.115c.764.046 1.646.046 2.63.046Z"/>
</svg>
