<svg xmlns="http://www.w3.org/2000/svg" width="24" height="24" fill="none">
  <path fill="#1C274C" fill-rule="evenodd" d="M5.879 2.879C5 3.757 5 5.172 5 8v8c0 2.828 0 4.243.879 5.121C6.758 22 8.172 22 11 22h2c2.829 0 4.243 0 5.122-.879C19 20.243 19 18.828 19 16V8c0-2.828 0-4.243-.878-5.121C17.242 2 15.829 2 13 2h-2c-2.828 0-4.242 0-5.121.879ZM9.5 18.25a.75.75 0 0 0 0 1.5h5a.75.75 0 0 0 0-1.5h-5ZM1.665 5.33a.75.75 0 0 1 1.006.335l.776 1.552a1.75 1.75 0 0 1 0 1.566l-.552 1.105a.25.25 0 0 0 0 .224l.552 1.105a1.75 1.75 0 0 1 0 1.566l-.552 1.105a.25.25 0 0 0 0 .224l.552 1.105a1.75 1.75 0 0 1 0 1.566l-.776 1.552a.75.75 0 1 1-1.342-.67l.777-1.553a.25.25 0 0 0 0-.224l-.553-1.105a1.75 1.75 0 0 1 0-1.566l.553-1.105a.25.25 0 0 0 0-.224l-.553-1.105a1.75 1.75 0 0 1 0-1.566l.553-1.105a.25.25 0 0 0 0-.224l-.777-1.553a.75.75 0 0 1 .336-1.006Zm20.67 0a.75.75 0 0 1 .336 1.005l-.776 1.553a.25.25 0 0 0 0 .224l.552 1.105a1.75 1.75 0 0 1 0 1.566l-.552 1.105a.25.25 0 0 0 0 .224l.552 1.105a1.75 1.75 0 0 1 0 1.566l-.552 1.105a.25.25 0 0 0 0 .224l.776 1.553a.75.75 0 1 1-1.342.67l-.776-1.552a1.75 1.75 0 0 1 0-1.566l.553-1.105a.25.25 0 0 0 0-.224l-.553-1.105a1.75 1.75 0 0 1 0-1.566l.553-1.105a.25.25 0 0 0 0-.224l-.553-1.105a1.75 1.75 0 0 1 0-1.566l.776-1.552a.75.75 0 0 1 1.007-.336Z" clip-rule="evenodd"/>
</svg>
