<svg xmlns="http://www.w3.org/2000/svg" width="24" height="24" fill="none">
  <path fill="#1C274C" fill-rule="evenodd" d="M16.407 3.158a23.987 23.987 0 0 0-8.815 0l-.215.04a4.084 4.084 0 0 0-3.31 3.546l-.017.137a46.182 46.182 0 0 0-.273 6.84c.595.463 1.816 1.234 4.143 1.68.321-.805.776-1.458 1.421-1.918.738-.524 1.637-.733 2.659-.733 1.022 0 1.921.209 2.659.733.646.46 1.1 1.114 1.422 1.92a12.43 12.43 0 0 0 2.195-.616c.98-.384 1.582-.803 1.944-1.101a46.068 46.068 0 0 0-.287-7.05 3.951 3.951 0 0 0-3.203-3.417l-.323-.06Zm3.707 12.413a9.742 9.742 0 0 1-1.291.613C17.325 16.77 15.15 17.25 12 17.25c-4.221 0-6.697-.874-8.122-1.671.046.607.103 1.214.172 1.82a3.964 3.964 0 0 0 3.453 3.477l1.015.127c.498.062.737.092.975.116 1.667.175 3.347.175 5.014 0 .238-.024.476-.054.974-.116l.906-.113a4.088 4.088 0 0 0 3.562-3.6l.018-.153c.058-.521.107-1.043.147-1.566Zm-5.575.056c-.214-.426-.465-.72-.75-.921-.405-.288-.965-.456-1.789-.456s-1.384.168-1.79.456c-.283.202-.535.494-.749.92.755.079 1.598.124 2.539.124.944 0 1.787-.045 2.54-.123ZM7.317 1.684a25.486 25.486 0 0 1 9.366 0l.323.06a5.451 5.451 0 0 1 4.416 4.716c.425 3.601.437 7.24.035 10.843l-.017.154a5.588 5.588 0 0 1-4.867 4.921l-.917.115c-.485.06-.74.092-.994.118-1.77.185-3.555.185-5.325 0-.254-.026-.508-.058-.994-.118l-1.026-.128A5.464 5.464 0 0 1 2.56 17.57a47.681 47.681 0 0 1 0-10.86l.016-.137a5.583 5.583 0 0 1 4.526-4.849l.215-.04Zm1.252 2.238a.75.75 0 0 1-.08 1.058.758.758 0 0 0-.185.24.476.476 0 0 0-.054.191c0 .14.102.443.776.75.649.297 1.657.5 2.974.5 1.317 0 2.325-.203 2.974-.5.674-.307.776-.61.776-.75 0-.03-.014-.149-.239-.342a.75.75 0 0 1 .978-1.138c.416.358.761.857.761 1.48 0 1.014-.767 1.711-1.653 2.115-.91.416-2.153.635-3.597.635s-2.686-.22-3.597-.635c-.886-.404-1.653-1.1-1.653-2.115 0-.569.294-1.167.761-1.568a.75.75 0 0 1 1.058.08Z" clip-rule="evenodd"/>
</svg>
