<svg xmlns="http://www.w3.org/2000/svg" width="24" height="24" fill="none">
  <g fill="#1C274C">
    <path d="M11.492 3.22c1.605-.447 3.095-.558 4.193-.406.55.077.964.214 1.24.377.272.16.367.315.397.432.03.12.023.311-.14.6-.165.29-.461.627-.903.98-.881.706-2.227 1.383-3.832 1.83-1.604.446-3.094.557-4.192.404-.55-.076-.965-.214-1.241-.376-.271-.16-.366-.315-.396-.432-.031-.12-.023-.311.14-.6.164-.29.46-.628.903-.98.88-.706 2.227-1.383 3.831-1.83Z"/>
    <path d="M18.21 5.38a5.76 5.76 0 0 1-.994.995c-1.073.858-2.614 1.615-4.367 2.102-1.752.488-3.453.633-4.8.446-.673-.093-1.295-.275-1.796-.57a2.727 2.727 0 0 1-.532-.404l-.388 4.385.445.446c.368.37 1.828 1.47 6.222 1.47 4.509 0 5.928-1.158 6.25-1.499l.47-.498-.51-6.874Z"/>
    <path d="m5.154 14.351.012-.13c.973.709 2.943 1.53 6.834 1.53 3.933 0 5.903-.84 6.865-1.552l.018.241c.155 2.74.232 4.109-.267 5.148a4.293 4.293 0 0 1-1.665 1.834c-.97.578-2.292.578-4.935.578-2.674 0-4.01 0-4.986-.587a4.294 4.294 0 0 1-1.667-1.858c-.494-1.052-.4-2.436-.209-5.204Z"/>
  </g>
</svg>
