<svg xmlns="http://www.w3.org/2000/svg" width="24" height="24" fill="none">
  <g fill="#1C274C" clip-path="url(#smartphone_update_bold_duotone_svg__a)">
    <path fill-rule="evenodd" d="M11.14 4.235a.76.76 0 0 1 .562.247l.74.81a.757.757 0 0 1-.598 1.268c-.333 2.246-2.127 4.045-4.403 4.045-1.267 0-2.4-.569-3.2-1.457a.757.757 0 0 1 .057-1.07.761.761 0 0 1 1.073.056c.54.6 1.274.954 2.07.954 1.343 0 2.553-1.042 2.863-2.533a.757.757 0 0 1-.465-1.264l.74-.809a.76.76 0 0 1 .561-.247Z" clip-rule="evenodd"/>
    <path d="M7.2 1C4.923 1 3.13 2.798 2.795 5.045a.759.759 0 0 0-.597 1.268l.74.81a.76.76 0 0 0 1.122 0l.74-.81a.757.757 0 0 0-.465-1.263c.31-1.491 1.52-2.534 2.863-2.534.854 0 1.639.41 2.188 1.093a.76.76 0 0 0 1.068.117.757.757 0 0 0 .118-1.066C9.766 1.656 8.562 1 7.199 1Z" opacity=".5"/>
    <path d="M21 11.869v4.044c0 3.812 0 5.719-1.187 6.903C18.626 24 16.715 24 12.893 24c-3.82 0-5.732 0-6.919-1.184-1.187-1.184-1.187-3.09-1.187-6.903V14.18c0-.268 0-.402.026-.513a1.01 1.01 0 0 1 .762-.761c.111-.026.246-.026.515-.026 1.614 0 2.42 0 3.088-.151a6.073 6.073 0 0 0 4.577-4.567c.152-.665.152-1.47.152-3.077 0-.267 0-.4.026-.513.088-.379.398-.682.78-.762.113-.023.242-.02.5-.015 2.332.047 3.682.254 4.6 1.17C21 6.15 21 8.055 21 11.87Z" opacity=".4"/>
    <path d="M9.094 20.967a.76.76 0 0 1 .76-.758h6.08a.76.76 0 1 1 0 1.517h-6.08a.76.76 0 0 1-.76-.759Z"/>
  </g>
  <defs>
    <clipPath id="smartphone_update_bold_duotone_svg__a">
      <path fill="#fff" d="M0 0h24v24H0z"/>
    </clipPath>
  </defs>
</svg>
