<svg xmlns="http://www.w3.org/2000/svg" width="24" height="24" fill="none">
  <path fill="#1C274C" fill-rule="evenodd" d="M2.847 3.57C2 4.417 2 5.78 2 8.506v7.71c0 2.727 0 4.09.847 4.937.847.847 2.21.847 4.936.847h.964c2.726 0 4.09 0 4.936-.847.847-.847.847-2.21.847-4.936v-7.71c0-2.727 0-4.09-.847-4.937-.847-.847-2.21-.847-4.936-.847h-.964c-2.726 0-4.09 0-4.936.847Zm3.008 1.322a.723.723 0 1 0 0 1.445h4.82a.723.723 0 0 0 0-1.445h-4.82Zm2.41 14.216a1.446 1.446 0 1 0 0-2.891 1.446 1.446 0 0 0 0 2.891Zm13.012-2.892c0 2.727 0 4.09-.847 4.937-.451.45-1.682.664-2.982.765-.89.069-1.336.103-1.645-.183-.309-.286-.309-.755-.309-1.691v-7.642c0-.937 0-1.405.308-1.691.308-.286.754-.253 1.646-.187 1.3.097 2.531.305 2.982.756.847.847.847 2.21.847 4.937Zm-2.169-1.927a.723.723 0 1 0-1.445 0v3.856a.723.723 0 1 0 1.445 0v-3.856ZM15.745 2.602a.723.723 0 0 1 .834-.592C19.663 2.535 22 5.25 22 8.506a.723.723 0 0 1-1.128.599l-1.445-.977a.723.723 0 1 1 .81-1.198l.095.065c-.556-1.84-2.1-3.237-3.995-3.56a.723.723 0 0 1-.592-.833Z" clip-rule="evenodd"/>
</svg>
