<svg xmlns="http://www.w3.org/2000/svg" width="24" height="24" fill="none">
  <path fill="#1C274C" fill-rule="evenodd" d="M16.26 1.874a.75.75 0 0 1 .866-.613c3.2.544 5.624 3.36 5.624 6.74a.75.75 0 0 1-1.17.62l-1.5-1.014a.75.75 0 1 1 .84-1.242l.1.067c-.577-1.91-2.18-3.358-4.146-3.693a.75.75 0 0 1-.613-.865ZM7.946 1.25h1.11c1.367 0 2.47 0 3.337.117.9.12 1.658.38 2.26.981.602.602.86 1.36.982 2.26.116.867.116 1.97.116 3.337v8.11c0 1.368 0 2.47-.117 3.337-.12.9-.38 1.658-.981 2.26-.602.602-1.36.86-2.26.982-.867.116-1.97.116-3.337.116h-1.11c-1.367 0-2.47 0-3.337-.116-.9-.121-1.658-.38-2.26-.982-.602-.602-.86-1.36-.981-2.26-.117-.867-.117-1.97-.117-3.337v-8.11c0-1.367 0-2.47.117-3.337.12-.9.38-1.658.981-2.26.602-.601 1.36-.86 2.26-.981.867-.117 1.97-.117 3.337-.117ZM4.808 2.853c-.734.099-1.122.28-1.399.556-.277.277-.457.665-.556 1.4C2.752 5.563 2.75 6.564 2.75 8v8c0 1.436.002 2.437.103 3.192.099.734.28 1.122.556 1.4.277.276.665.456 1.4.555.754.102 1.756.103 3.191.103h1c1.435 0 2.437-.002 3.192-.103.734-.099 1.122-.28 1.399-.556.277-.277.457-.665.556-1.399.101-.755.103-1.756.103-3.192V8c0-1.435-.002-2.436-.103-3.192-.099-.734-.28-1.122-.556-1.399-.277-.277-.665-.457-1.4-.556-.755-.101-1.756-.103-3.191-.103H8c-1.435 0-2.437.002-3.192.103ZM5.25 5A.75.75 0 0 1 6 4.25h5a.75.75 0 0 1 0 1.5H6A.75.75 0 0 1 5.25 5Zm11.5 4.996a.75.75 0 0 1 .76-.74c1.808.027 3.187.138 4.142 1.092.602.602.86 1.36.982 2.26.116.867.116 1.97.116 3.337v.11c0 1.368 0 2.47-.116 3.337-.122.9-.38 1.658-.982 2.26-.955.954-2.334 1.065-4.141 1.091a.75.75 0 1 1-.022-1.5c1.912-.027 2.642-.192 3.102-.652.277-.277.457-.665.556-1.399.101-.755.103-1.756.103-3.192 0-1.435-.002-2.436-.103-3.192-.099-.733-.28-1.122-.556-1.399-.46-.46-1.19-.625-3.102-.652a.75.75 0 0 1-.739-.761ZM19 13.25a.75.75 0 0 1 .75.75v4a.75.75 0 0 1-1.5 0v-4a.75.75 0 0 1 .75-.75Zm-10.5 3.5a.75.75 0 1 0 0 1.5.75.75 0 0 0 0-1.5Zm-2.25.75a2.25 2.25 0 1 1 4.5 0 2.25 2.25 0 0 1-4.5 0Z" clip-rule="evenodd"/>
</svg>
