<svg xmlns="http://www.w3.org/2000/svg" width="24" height="24" fill="none">
  <g fill="#1C274C">
    <path d="M14 22h-4c-3.771 0-5.657 0-6.828-1.212C2 19.576 2 17.626 2 13.725v-1.521c0-2.289 0-3.433.52-4.381.518-.949 1.467-1.537 3.364-2.715l2-1.241C9.889 2.622 10.892 2 12 2c1.108 0 2.11.622 4.116 1.867l2 1.241c1.897 1.178 2.846 1.766 3.365 2.715.519.948.519 2.092.519 4.38v1.522c0 3.9 0 5.851-1.172 7.063C19.657 22 17.771 22 14 22Z" opacity=".5"/>
    <path fill-rule="evenodd" d="M2 12.25a.75.75 0 0 1 .75-.75c5.39 0 9.758 4.365 9.758 9.75a.75.75 0 0 1-1.5 0c0-4.556-3.697-8.25-8.257-8.25A.75.75 0 0 1 2 12.25Zm.75 2.25a.75.75 0 1 0 0 1.5 5.252 5.252 0 0 1 5.255 5.25.75.75 0 0 0 1.5 0 6.753 6.753 0 0 0-6.754-6.75ZM2 18.25a.75.75 0 0 1 .75-.75 3.751 3.751 0 0 1 3.754 3.75.75.75 0 0 1-1.502 0A2.25 2.25 0 0 0 2.751 19 .75.75 0 0 1 2 18.25Z" clip-rule="evenodd"/>
  </g>
</svg>
