<svg xmlns="http://www.w3.org/2000/svg" width="24" height="24" fill="none">
  <g fill="#1C274C">
    <path d="M12.75 14h4.45a.8.8 0 0 0 .8-.8V12a2 2 0 1 1 4 0v2.444a3.548 3.548 0 0 1-1.25 2.707V19a.75.75 0 0 1-1.5 0v-1.092a3.57 3.57 0 0 1-.806.092H5.556a3.57 3.57 0 0 1-.806-.092V19a.75.75 0 0 1-1.5 0v-1.849A3.548 3.548 0 0 1 2 14.444V12a2 2 0 1 1 4 0v1.2a.8.8 0 0 0 .8.8h4.45V5h1.5v9Z"/>
    <path d="M17.2 14h-4.45V5H15c.93 0 1.394 0 1.78.077a4 4 0 0 1 3.143 3.143c.043.214.062.452.07.78H20v1a2 2 0 0 0-2 2v1.2a.8.8 0 0 1-.8.8Zm-5.95 0H6.8a.8.8 0 0 1-.8-.8V12a2 2 0 0 0-1.993-2V9c.008-.328.027-.566.07-.78A4 4 0 0 1 7.22 5.077C7.606 5 8.07 5 9 5h2.25v9Z" opacity=".5"/>
  </g>
</svg>
