<svg xmlns="http://www.w3.org/2000/svg" width="24" height="24" fill="none">
  <g fill="#1C274C" fill-rule="evenodd" clip-rule="evenodd">
    <path d="M17 17a5 5 0 1 0 0-10 5 5 0 0 0 0 10Zm.75-7a.75.75 0 0 0-1.5 0v1.846c0 .18.065.355.183.491l1 1.154a.75.75 0 0 0 1.134-.982l-.817-.943V10Z"/>
    <path d="M1.25 7A.75.75 0 0 1 2 6.25h8a.75.75 0 0 1 0 1.5H2A.75.75 0 0 1 1.25 7Zm0 5a.75.75 0 0 1 .75-.75h6a.75.75 0 0 1 0 1.5H2a.75.75 0 0 1-.75-.75Zm0 5a.75.75 0 0 1 .75-.75h8a.75.75 0 0 1 0 1.5H2a.75.75 0 0 1-.75-.75Z" opacity=".5"/>
  </g>
</svg>
