<svg xmlns="http://www.w3.org/2000/svg" width="24" height="24" fill="none">
  <g fill="#1C274C">
    <path d="M4 10c0-3.771 0-5.657 1.172-6.828C6.343 2 8.229 2 12 2c3.771 0 5.657 0 6.828 1.172C20 4.343 20 6.229 20 10v4c0 3.771 0 5.657-1.172 6.828C17.657 22 15.771 22 12 22c-3.771 0-5.657 0-6.828-1.172C4 19.657 4 17.771 4 14v-4Z" opacity=".5"/>
    <path fill-rule="evenodd" d="M12 4.75a2.75 2.75 0 1 0 0 5.5 2.75 2.75 0 0 0 0-5.5ZM8.25 15.5a3.75 3.75 0 1 1 7.5 0 3.75 3.75 0 0 1-7.5 0Z" clip-rule="evenodd"/>
  </g>
</svg>
