<svg xmlns="http://www.w3.org/2000/svg" width="24" height="24" fill="none">
  <g fill="#1C274C">
    <path d="M13.811 14.38a3.001 3.001 0 0 0 0-4.248 3.011 3.011 0 0 0-4.254 0c-.447.446-.76 1.373-.974 2.35-.322 1.46-.483 2.19.1 2.772.582.581 1.313.42 2.776.1.978-.216 1.905-.527 2.352-.974Z"/>
    <path d="M22 12c0 5.523-4.477 10-10 10S2 17.523 2 12 6.477 2 12 2s10 4.477 10 10Z" opacity=".5"/>
    <path d="M4.42 5.476c.326-.377.679-.73 1.057-1.055a.758.758 0 0 1 .053.048l1.5 1.5A.75.75 0 0 1 5.97 7.03l-1.5-1.5a.756.756 0 0 1-.05-.054ZM2.028 12.75a10.14 10.14 0 0 1 0-1.5H4a.75.75 0 0 1 0 1.5H2.028Zm3.448 6.83a10.06 10.06 0 0 1-1.055-1.056.76.76 0 0 1 .049-.055l1.5-1.5a.75.75 0 0 1 1.06 1.061l-1.5 1.5a.751.751 0 0 1-.054.05Zm14.104-1.057c-.326.378-.679.731-1.056 1.056a.752.752 0 0 1-.054-.049l-1.5-1.5a.75.75 0 1 1 1.06-1.06l1.5 1.5a.752.752 0 0 1 .05.053Zm2.392-7.273a10.124 10.124 0 0 1 0 1.5H20a.75.75 0 0 1 0-1.5h1.972Zm-3.449-6.83c.378.326.731.679 1.056 1.056a.724.724 0 0 1-.049.054l-1.5 1.5a.75.75 0 1 1-1.06-1.06l1.5-1.5a.737.737 0 0 1 .053-.05ZM12.75 2.028V4a.75.75 0 0 1-1.5 0V2.028a10.14 10.14 0 0 1 1.5 0Z"/>
  </g>
</svg>
