<svg xmlns="http://www.w3.org/2000/svg" width="24" height="24" fill="none">
  <path fill="#1C274C" fill-rule="evenodd" d="M2.78 11.25H4a.75.75 0 0 1 0 1.5H2.78a9.21 9.21 0 0 0 2.17 5.239l1.02-1.02a.75.75 0 0 1 1.06 1.061l-1.019 1.02A9.213 9.213 0 0 0 12 21.25a9.213 9.213 0 0 0 5.989-2.2l-1.02-1.02a.75.75 0 1 1 1.061-1.06l1.02 1.019a9.21 9.21 0 0 0 2.17-5.239H20a.75.75 0 0 1 0-1.5h1.22a9.21 9.21 0 0 0-2.17-5.239l-1.02 1.02a.75.75 0 1 1-1.06-1.061l1.019-1.02a9.21 9.21 0 0 0-5.239-2.17V4a.75.75 0 0 1-1.5 0V2.78a9.21 9.21 0 0 0-5.239 2.17l1.02 1.02A.75.75 0 0 1 5.97 7.03L4.95 6.011a9.21 9.21 0 0 0-2.17 5.239ZM1.25 12C1.25 6.063 6.063 1.25 12 1.25S22.75 6.063 22.75 12 17.937 22.75 12 22.75 1.25 17.937 1.25 12Zm7.755-2.41a3.75 3.75 0 1 1 5.303 5.304c-.33.33-.785.566-1.23.74-.459.18-.975.322-1.485.434l-.066.014c-.672.148-1.282.283-1.795.292-.594.01-1.134-.143-1.599-.608-.464-.464-.618-1.005-.607-1.598.009-.513.143-1.124.291-1.796l.015-.066a9.99 9.99 0 0 1 .433-1.484c.175-.446.41-.9.74-1.231Zm4.243 1.062a2.25 2.25 0 0 0-3.182 0c-.115.115-.259.345-.405.717-.14.36-.262.794-.364 1.26-.168.76-.265 1.22-.272 1.565-.004.28.053.395.169.512.116.116.23.173.512.168.344-.006.805-.104 1.565-.271.466-.103.9-.224 1.259-.365.372-.146.603-.29.718-.404a2.25 2.25 0 0 0 0-3.182Z" clip-rule="evenodd"/>
</svg>
