<svg xmlns="http://www.w3.org/2000/svg" width="24" height="24" fill="none">
  <g fill="#1C274D">
    <path fill-rule="evenodd" d="M9.465 2.82a5.92 5.92 0 0 1 5.07 0l6.692 3.138c1.052.493 1.523 1.564 1.523 2.542 0 .978-.47 2.05-1.523 2.543l-1.477.692v4.89c0 1.253-.628 2.463-1.772 3.097-.752.416-1.74.917-2.78 1.316-1.027.394-2.164.712-3.198.712-1.034 0-2.171-.318-3.199-.712-1.04-.399-2.027-.9-2.779-1.316-1.144-.634-1.772-1.844-1.772-3.097V11.5c0-.041.003-.082.01-.122a.75.75 0 0 1 1.059-.8l4.782 2.243a4.42 4.42 0 0 0 3.798 0l6.691-3.137c.403-.189.66-.64.66-1.184 0-.544-.257-.995-.66-1.184L13.9 4.179a4.42 4.42 0 0 0-3.798 0l-6.69 3.137a.75.75 0 0 1-.638-1.358L9.465 2.82ZM5.75 12.439v4.187c0 .763.379 1.441.999 1.785.716.396 1.638.862 2.59 1.227.963.37 1.899.613 2.661.613s1.698-.243 2.662-.613a21.14 21.14 0 0 0 2.59-1.227c.62-.344.998-1.022.998-1.785v-4.187l-3.714 1.741a5.919 5.919 0 0 1-5.071 0L5.75 12.438Z" clip-rule="evenodd"/>
    <path d="M6.69 7.705a.75.75 0 0 1-.395.984L5.22 9.15c-.603.259-1 .43-1.292.594-.276.155-.396.271-.472.387-.076.115-.135.27-.169.585-.036.333-.037.766-.037 1.422V15a.75.75 0 0 1-1.5 0v-2.901c0-.607 0-1.12.046-1.544.048-.45.154-.864.408-1.25.255-.386.594-.646.989-.868.37-.209.843-.411 1.4-.65l1.112-.476a.75.75 0 0 1 .984.394Z"/>
  </g>
</svg>
