<svg xmlns="http://www.w3.org/2000/svg" width="24" height="24" fill="none">
  <g fill="#1C274C">
    <path d="M20.535 20.535C22 19.072 22 16.714 22 12c0-.601 0-1.165-.003-1.692-.41.402-.902.828-1.429 1.284L18.08 13.75c-.304.264-.645.56-.953.758-.302.194-1.07.622-1.957.217s-1.066-1.266-1.117-1.62C14 12.75 14 12.312 14 11.917c-1.33.23-2.596.754-3.527 1.48l-.05.04c-.368.288-.72.564-1.004.748a2.812 2.812 0 0 1-.622.314c-.235.08-.817.225-1.417-.127a1.703 1.703 0 0 1-.793-1.106 2.541 2.541 0 0 1-.048-.696c.017-.314.08-.716.14-1.11l.01-.064c.475-3.07 1.812-5.166 3.55-6.473a8.552 8.552 0 0 1 3.76-1.585v-.225c0-.363 0-.766.039-1.107C13.412 2 12.735 2 12 2 7.286 2 4.929 2 3.464 3.464 2 4.93 2 7.286 2 12c0 4.714 0 7.071 1.464 8.535C4.93 22 7.286 22 12 22c4.714 0 7.071 0 8.535-1.465Z"/>
    <path d="m17.155 2.434 2.357 2.043c1.623 1.406 2.434 2.11 2.434 3.023 0 .913-.811 1.616-2.434 3.023l-2.357 2.043c-.714.618-1.07.927-1.363.794-.292-.134-.292-.606-.292-1.55v-1.524c-2.124 0-4.374.698-5.95 1.93-.824.644-1.235.966-1.411.862-.176-.103-.107-.553.032-1.452.845-5.462 4.63-6.912 7.329-6.912V3.19c0-.944 0-1.416.292-1.55.293-.133.65.176 1.363.794Z"/>
  </g>
</svg>
