<svg xmlns="http://www.w3.org/2000/svg" width="24" height="24" fill="none">
  <g fill="#1C274C">
    <path d="M20.535 3.464C19.072 2 16.714 2 12 2S4.929 2 3.464 3.464C2 4.93 2 7.286 2 12c0 4.714 0 7.071 1.464 8.535C4.93 22 7.286 22 12 22c4.714 0 7.071 0 8.535-1.465C22 19.072 22 16.714 22 12s0-7.071-1.465-8.536Z" opacity=".5"/>
    <path d="M15.579 9.172a.75.75 0 0 0-.75-.75h-4.243a.75.75 0 1 0 0 1.5h2.432l-4.376 4.376a.75.75 0 0 0 1.06 1.061l4.377-4.377v2.433a.75.75 0 0 0 1.5 0V9.171Z"/>
  </g>
</svg>
