<svg xmlns="http://www.w3.org/2000/svg" width="24" height="24" fill="none">
  <g fill="#1C274C">
    <path d="M3.464 3.464C4.93 2 7.286 2 12 2c4.714 0 7.071 0 8.535 1.464C22 4.93 22 7.286 22 12c0 4.714 0 7.071-1.465 8.535C19.072 22 16.714 22 12 22s-7.071 0-8.536-1.465C2 19.072 2 16.714 2 12s0-7.071 1.464-8.536Z" opacity=".5"/>
    <path fill-rule="evenodd" d="M16.47 1.47a.75.75 0 0 1 1.06 0l5 5a.75.75 0 0 1 0 1.06l-5 5a.75.75 0 1 1-1.06-1.06l3.72-3.72H14c-1.552 0-2.467.757-2.788 1.08l-.19.191-.193.191c-.322.32-1.079 1.236-1.079 2.788v3a.75.75 0 0 1-1.5 0v-3c0-2.084 1.027-3.36 1.521-3.851l.19-.189.188-.189C10.64 7.277 11.916 6.25 14 6.25h6.19l-3.72-3.72a.75.75 0 0 1 0-1.06Z" clip-rule="evenodd"/>
  </g>
</svg>
