<svg xmlns="http://www.w3.org/2000/svg" width="24" height="24" fill="none">
  <g fill="#1C274D">
    <path d="M14.217 3.5a5.17 5.17 0 0 0-4.434 0L3.092 6.637c-1.076.504-1.357 1.927-.842 2.91V14.5a.75.75 0 0 0 1.5 0v-3.828L9.783 13.5a5.17 5.17 0 0 0 4.434 0l6.691-3.137c1.456-.682 1.456-3.044 0-3.726L14.218 3.5Z"/>
    <path d="M5 11.258 9.783 13.5a5.17 5.17 0 0 0 4.434 0L19 11.258v5.367c0 1.008-.503 1.952-1.385 2.44C16.146 19.88 13.796 21 12 21c-1.796 0-4.146-1.121-5.615-1.935C5.504 18.577 5 17.633 5 16.625v-5.367Z" opacity=".5"/>
  </g>
</svg>
