<svg xmlns="http://www.w3.org/2000/svg" width="24" height="24" fill="none">
  <path fill="#1C274D" fill-rule="evenodd" d="M9.464 2.82a5.92 5.92 0 0 1 5.072 0l6.69 3.138C22.28 6.45 22.75 7.522 22.75 8.5c0 .978-.47 2.05-1.523 2.543l-1.477.692v4.89c0 1.253-.628 2.463-1.772 3.097-.752.416-1.74.917-2.78 1.316-1.027.394-2.164.712-3.198.712-1.034 0-2.171-.318-3.199-.712-1.04-.399-2.027-.9-2.779-1.316-1.144-.634-1.772-1.844-1.772-3.097v-4.89l-1.477-.693-.023-.01V14a.75.75 0 0 1-1.5 0V8.5c0-.978.471-2.05 1.523-2.542L9.464 2.82ZM5.75 12.439v4.187c0 .763.379 1.441.999 1.785a21.14 21.14 0 0 0 2.59 1.227c.963.37 1.899.613 2.661.613s1.698-.243 2.662-.613a21.14 21.14 0 0 0 2.59-1.227c.62-.344.998-1.022.998-1.785v-4.187l-3.714 1.741a5.92 5.92 0 0 1-5.072 0L5.75 12.438ZM3.41 9.684c-.403-.189-.66-.64-.66-1.184 0-.544.257-.995.66-1.184l6.691-3.137a4.42 4.42 0 0 1 3.798 0l6.691 3.137c.403.189.66.64.66 1.184 0 .544-.257.995-.66 1.184l-6.691 3.137a4.42 4.42 0 0 1-3.798 0L3.41 9.684Z" clip-rule="evenodd"/>
</svg>
