<svg xmlns="http://www.w3.org/2000/svg" width="24" height="24" fill="none">
  <g fill="#1C274C">
    <path d="M20.535 20.535C19.072 22 16.714 22 12 22s-7.071 0-8.536-1.465C2 19.072 2 16.714 2 12s0-7.071 1.464-8.536C4.93 2 7.286 2 12 2c4.714 0 7.071 0 8.535 1.464C22 4.93 22 7.286 22 12c0 4.714 0 7.071-1.465 8.535Z" opacity=".5"/>
    <path d="M15.579 14.828a.75.75 0 0 1-.75.75h-4.243a.75.75 0 0 1 0-1.5h2.432L8.642 9.7a.75.75 0 0 1 1.06-1.06l4.377 4.376v-2.432a.75.75 0 0 1 1.5 0v4.243Z"/>
  </g>
</svg>
