<svg xmlns="http://www.w3.org/2000/svg" width="24" height="24" fill="none">
  <g fill="#1C274C">
    <path d="M20.535 20.535C22 19.072 22 16.714 22 12s0-7.071-1.465-8.536C19.072 2 16.714 2 12 2S4.929 2 3.464 3.464C2 4.93 2 7.286 2 12c0 4.714 0 7.071 1.464 8.535C4.93 22 7.286 22 12 22c4.714 0 7.071 0 8.535-1.465Z" opacity=".5"/>
    <path d="M7 10.75a.75.75 0 0 1-.493-1.315l3.437-3a.75.75 0 0 1 .987 1.13L9 9.25h8a.75.75 0 0 1 0 1.5H7Zm6.07 5.685a.75.75 0 0 0 .986 1.13l3.437-3A.75.75 0 0 0 17 13.25H7a.75.75 0 0 0 0 1.5h8l-1.93 1.685Z"/>
  </g>
</svg>
