<svg xmlns="http://www.w3.org/2000/svg" width="24" height="24" fill="none">
  <g fill="#1C274C" fill-rule="evenodd" clip-rule="evenodd">
    <path d="M11.5 16.25a.75.75 0 0 1 .75.75v1a.75.75 0 0 1-1.5 0v-1a.75.75 0 0 1 .75-.75Zm2.5 0a.75.75 0 0 1 .75.75v1a.75.75 0 0 1-1.5 0v-1a.75.75 0 0 1 .75-.75Zm2.5 0a.75.75 0 0 1 .75.75v1a.75.75 0 0 1-1.5 0v-1a.75.75 0 0 1 .75-.75Zm2.5 0a.75.75 0 0 1 .75.75v1a.75.75 0 0 1-1.5 0v-1a.75.75 0 0 1 .75-.75Z"/>
    <path d="M5.562 2.872C6.15 2.415 6.824 2.25 7.5 2.25h9c.677 0 1.351.165 1.938.622.58.451.997 1.13 1.277 2.02l.003.009 2.854 9.846c.068.234.108.48.132.736.046.474.046 1.062.046 1.774v.074c0 .712 0 1.3-.046 1.775-.047.493-.15.945-.407 1.353a2.813 2.813 0 0 1-.753.796c-.398.282-.842.395-1.32.446-.455.049-1.016.049-1.684.049H5.46c-.668 0-1.229 0-1.683-.049-.479-.052-.923-.164-1.321-.446a2.813 2.813 0 0 1-.753-.796c-.258-.408-.36-.86-.407-1.353-.046-.475-.046-1.063-.046-1.775v-.074c0-.712 0-1.3.046-1.774.024-.257.064-.502.132-.736L4.282 4.9l.003-.009c.28-.89.698-1.569 1.277-2.02ZM3.52 12.922a4.45 4.45 0 0 1 .258-.035c.454-.049 1.015-.049 1.683-.049h13.08c.668 0 1.229 0 1.683.05.088.008.173.02.258.034l-2.199-7.587c-.22-.693-.498-1.071-.766-1.28-.263-.205-.588-.305-1.016-.305h-9c-.428 0-.753.1-1.016.305-.268.209-.547.587-.766 1.28l-2.2 7.587Zm.418 1.457c-.35.037-.509.103-.615.178a1.313 1.313 0 0 0-.35.373c-.08.126-.146.312-.183.696-.038.394-.039.91-.039 1.668 0 .758 0 1.274.039 1.668.037.384.103.57.182.697.095.15.215.275.351.372.106.075.265.141.615.179.365.039.844.04 1.563.04h13c.719 0 1.198-.001 1.563-.04.35-.038.509-.104.615-.18.136-.096.256-.222.35-.371.08-.126.146-.313.183-.697.038-.394.039-.91.039-1.668 0-.758 0-1.274-.039-1.668-.037-.384-.103-.57-.182-.696a1.313 1.313 0 0 0-.351-.373c-.106-.075-.265-.14-.615-.178-.365-.04-.844-.04-1.563-.04h-13c-.719 0-1.198 0-1.563.04Z"/>
  </g>
</svg>
