<svg xmlns="http://www.w3.org/2000/svg" width="24" height="24" fill="none">
  <path fill="#1C274C" fill-rule="evenodd" d="M13.642 5.138c-.307.4-.656 1.023-1.175 1.954l-.263.47-.051.093c-.235.423-.453.816-.807 1.085-.357.271-.793.369-1.25.471l-.1.023-.51.115c-1.01.229-1.679.382-2.133.561-.44.174-.485.297-.502.35-.02.063-.048.205.217.626.27.428.728.967 1.415 1.77l.347.406.066.078c.316.367.605.704.738 1.131.132.425.088.87.04 1.36l-.01.103-.053.542c-.104 1.07-.172 1.791-.149 2.307.023.514.13.602.165.628l.001.001c.025.02.119.092.566-.036.468-.134 1.097-.421 2.042-.856l.476-.22.096-.044c.426-.197.834-.386 1.281-.386.447 0 .855.189 1.28.386l.097.044.476.22c.945.435 1.574.722 2.042.856.447.128.54.056.565.036l.002-.001c.035-.026.142-.114.165-.628.023-.515-.045-1.237-.149-2.307l-.052-.542-.01-.103c-.049-.49-.093-.935.04-1.36.132-.427.421-.764.737-1.131l.066-.078.347-.405c.687-.804 1.145-1.343 1.415-1.771.265-.421.236-.563.217-.625-.017-.054-.061-.177-.502-.35-.454-.18-1.124-.333-2.133-.562l-.51-.115-.1-.023c-.457-.102-.893-.2-1.25-.471-.354-.269-.572-.662-.807-1.085l-.051-.093-.263-.47c-.518-.93-.868-1.554-1.175-1.954-.298-.39-.422-.388-.445-.388h-.004c-.023 0-.147-.002-.445.388Zm-1.191-.912c.39-.51.9-.976 1.638-.976.738 0 1.249.467 1.638.976.382.498.784 1.219 1.265 2.082l.292.524c.32.575.385.66.454.713.066.05.152.085.776.226l.57.129c.932.21 1.716.388 2.291.615.602.237 1.167.601 1.384 1.3.215.691-.032 1.318-.38 1.87-.335.533-.867 1.155-1.505 1.9l-.04.046-.346.406c-.422.493-.482.586-.511.68-.03.097-.033.215.03.873l.059.6c.096.996.177 1.825.148 2.46-.029.648-.177 1.316-.756 1.756-.59.448-1.271.389-1.887.212-.593-.17-1.327-.508-2.199-.91l-.534-.245c-.586-.27-.674-.293-.749-.293-.075 0-.163.023-.75.293l-.534.246c-.871.401-1.605.74-2.198.91-.616.175-1.296.235-1.887-.213-.58-.44-.727-1.108-.756-1.756-.029-.635.052-1.464.148-2.46l.058-.6c.064-.658.062-.776.032-.873-.03-.094-.09-.187-.512-.68l-.386-.452c-.637-.745-1.17-1.367-1.506-1.9-.347-.552-.594-1.179-.38-1.87.218-.699.783-1.063 1.385-1.3.575-.227 1.36-.404 2.29-.615l.571-.13c.624-.14.71-.176.776-.225.07-.053.134-.138.454-.713l.292-.524c.482-.863.883-1.584 1.265-2.082Zm-3.706.976c-1.981-.57-4.107-.27-6.158.932l-.208.122a.75.75 0 1 1-.758-1.295l.208-.121c2.36-1.383 4.908-1.778 7.332-1.08l.208.06a.75.75 0 0 1-.416 1.442l-.208-.06ZM4.836 9.936a.75.75 0 0 1-.683.811c-.154.013-.27.02-.37.027a3.229 3.229 0 0 0-.444.048c-.196.038-.452.117-.915.349a.75.75 0 1 1-.67-1.342c.537-.268.926-.408 1.302-.48.247-.048.502-.064.731-.08l.238-.016a.75.75 0 0 1 .811.683Zm1.082 5.92a3.985 3.985 0 0 0-3.365.733.75.75 0 1 1-.928-1.178 5.485 5.485 0 0 1 4.635-1.015.75.75 0 0 1-.342 1.46Z" clip-rule="evenodd"/>
</svg>
