<svg xmlns="http://www.w3.org/2000/svg" width="24" height="24" fill="none">
  <path fill="#1C274C" d="M10.277 16.515c.005-.11.187-.154.24-.058.254.45.686 1.111 1.177 1.412.49.3 1.275.386 1.791.408.11.005.154.186.058.24-.45.254-1.111.686-1.412 1.176-.3.49-.386 1.276-.408 1.792-.005.11-.187.153-.24.057-.254-.45-.686-1.11-1.176-1.411-.49-.301-1.276-.386-1.792-.408-.11-.005-.153-.187-.057-.24.45-.254 1.11-.686 1.411-1.177.301-.49.386-1.276.408-1.791Zm8.215-1c-.008-.11-.2-.156-.257-.062-.172.283-.421.623-.697.793-.276.17-.693.236-1.023.262-.11.008-.155.2-.062.257.283.172.624.42.793.697.17.276.237.693.262 1.023.009.11.2.155.258.061.172-.282.42-.623.697-.792.276-.17.692-.237 1.022-.262.11-.009.156-.2.062-.258-.283-.172-.624-.42-.793-.697-.17-.276-.236-.692-.262-1.022ZM14.704 4.002l-.242-.306c-.937-1.183-1.405-1.775-1.95-1.688-.545.088-.806.796-1.327 2.213l-.134.366c-.149.403-.223.604-.364.752-.143.148-.336.225-.724.38l-.353.141-.248.1c-1.2.48-1.804.753-1.881 1.283-.082.565.49 1.049 1.634 2.016l.296.25c.325.275.488.413.58.6.094.187.107.403.134.835l.024.393c.093 1.52.14 2.28.634 2.542s1.108-.147 2.336-.966l.318-.212c.35-.233.524-.35.723-.381.2-.032.402.024.806.136l.368.102c1.422.394 2.133.591 2.52.188.388-.403.196-1.14-.19-2.613l-.099-.381c-.11-.419-.164-.628-.134-.835.03-.207.142-.389.365-.752l.203-.33c.786-1.276 1.179-1.914.924-2.426-.254-.51-.987-.557-2.454-.648l-.379-.024c-.417-.026-.625-.039-.806-.135-.18-.096-.314-.264-.58-.6Zm-5.869 9.324C6.698 14.37 4.919 16.024 4.248 18c-.752-4.707.292-7.747 1.965-9.637.144.295.332.539.5.73.35.396.852.82 1.362 1.251l.367.31.17.145c.005.064.01.14.015.237l.03.485c.04.655.08 1.294.178 1.805Z"/>
</svg>
