<svg xmlns="http://www.w3.org/2000/svg" width="24" height="24" fill="none">
  <g fill="#1C274C">
    <path d="M11.58 4.776c.695-1.77 1.043-2.656 1.769-2.765.726-.11 1.35.63 2.6 2.109l.323.382c.355.42.532.63.774.75.24.12.518.137 1.074.17l.506.029c1.955.114 2.932.172 3.271.81.34.64-.184 1.438-1.231 3.033l-.271.413c-.298.453-.447.68-.487.939-.04.258.033.52.179 1.043l.133.477c.513 1.842.77 2.762.253 3.266-.517.505-1.465.258-3.361-.235l-.49-.127c-.54-.14-.809-.21-1.075-.17-.266.04-.499.185-.964.476l-.424.265c-1.638 1.024-2.456 1.536-3.115 1.208-.659-.327-.72-1.277-.845-3.177l-.033-.492c-.035-.54-.053-.81-.177-1.044-.124-.234-.34-.406-.774-.75l-.395-.312C7.294 9.865 6.53 9.26 6.64 8.554c.11-.707 1.02-1.047 2.839-1.729l.47-.176c.518-.194.776-.29.965-.475.19-.185.288-.437.486-.94l.18-.458Z"/>
    <path d="M5.31 9.593C2.873 11.92 1.275 15.806 2.331 22c.943-2.603 3.526-4.76 6.581-6.047-.106-.593-.154-1.317-.204-2.08l-.039-.595a21.92 21.92 0 0 0-.032-.43 24.53 24.53 0 0 0-.355-.287l-.474-.375c-.694-.55-1.34-1.06-1.783-1.532-.253-.269-.536-.624-.715-1.061Zm5.037 5.83-.015-.114.056.101-.041.013Z" opacity=".5"/>
  </g>
</svg>
