<svg xmlns="http://www.w3.org/2000/svg" width="24" height="24" fill="none">
  <g stroke="#1C274C" stroke-width="1.5">
    <path d="M11.811 6.727C12.825 4.909 13.331 4 14.09 4c.757 0 1.264.909 2.277 2.727l.262.47c.288.517.432.775.657.945.224.17.504.234 1.063.36l.51.116c1.967.445 2.95.667 3.185 1.42.234.753-.437 1.537-1.778 3.106l-.347.406c-.381.445-.572.668-.658.944-.086.276-.057.573 0 1.168l.053.541c.203 2.094.305 3.14-.308 3.605-.613.465-1.534.041-3.377-.807l-.476-.22c-.524-.24-.786-.361-1.063-.361-.278 0-.54.12-1.063.361l-.477.22c-1.842.848-2.763 1.272-3.376.807-.613-.465-.511-1.511-.309-3.605l.053-.541c.057-.595.086-.892 0-1.168-.085-.276-.276-.498-.657-.944l-.347-.406C6.57 11.575 5.9 10.79 6.135 10.038c.234-.753 1.218-.975 3.185-1.42l.51-.116c.559-.126.838-.19 1.063-.36.224-.17.368-.428.656-.945l.262-.47Z"/>
    <path stroke-linecap="round" d="M2.089 16a4.736 4.736 0 0 1 4-.874m-4-4.626c1-.5 1.29-.44 2-.5M2 5.609l.208-.122c2.206-1.292 4.542-1.64 6.745-1.005l.208.06" opacity=".5"/>
  </g>
</svg>
