<svg xmlns="http://www.w3.org/2000/svg" width="24" height="24" fill="none">
  <g fill="#1C274C">
    <path d="M10.577 8.704C11.21 7.568 11.527 7 12 7c.473 0 .79.568 1.423 1.704l.164.294c.18.323.27.484.41.59.14.107.316.147.665.226l.318.072c1.23.278 1.845.417 1.991.888.147.47-.273.96-1.111 1.941l-.217.254c-.238.278-.357.418-.41.59-.055.172-.037.358 0 .73l.032.338c.127 1.308.19 1.962-.193 2.253-.383.29-.958.026-2.11-.504l-.298-.138c-.327-.15-.49-.226-.664-.226-.173 0-.337.076-.664.226l-.298.138c-1.152.53-1.727.795-2.11.504-.383-.29-.32-.945-.193-2.253l.032-.338c.037-.372.055-.558 0-.73-.053-.172-.172-.312-.41-.59l-.217-.254c-.838-.98-1.258-1.47-1.111-1.941.146-.47.76-.61 1.99-.888l.319-.072c.35-.08.524-.119.665-.225.14-.107.23-.268.41-.59l.164-.295Z"/>
    <path fill-rule="evenodd" d="M12 1.25a.75.75 0 0 1 .75.75v2a.75.75 0 0 1-1.5 0V2a.75.75 0 0 1 .75-.75Zm6.53 4.22a.75.75 0 0 1 0 1.06l-.343.343a.75.75 0 0 1-1.06-1.06l.343-.343a.75.75 0 0 1 1.06 0Zm-13.06 0a.75.75 0 0 1 1.06 0l.344.343a.75.75 0 0 1-1.061 1.06L5.47 6.53a.75.75 0 0 1 0-1.06ZM1.25 12a.75.75 0 0 1 .75-.75h2a.75.75 0 0 1 0 1.5H2a.75.75 0 0 1-.75-.75Zm18 0a.75.75 0 0 1 .75-.75h2a.75.75 0 0 1 0 1.5h-2a.75.75 0 0 1-.75-.75ZM6.873 17.127a.75.75 0 0 1 0 1.06l-.343.343a.75.75 0 0 1-1.06-1.06l.343-.343a.75.75 0 0 1 1.06 0Zm10.253 0a.75.75 0 0 1 1.061 0l.343.343a.75.75 0 0 1-1.06 1.06l-.343-.343a.75.75 0 0 1 0-1.06ZM12 19.25a.75.75 0 0 1 .75.75v2a.75.75 0 0 1-1.5 0v-2a.75.75 0 0 1 .75-.75Z" clip-rule="evenodd"/>
  </g>
</svg>
