<svg xmlns="http://www.w3.org/2000/svg" width="24" height="24" fill="none">
  <path fill="#1C274C" fill-rule="evenodd" d="m9.859 10.835-.048-.03c-.492-.31-.933-.59-1.308-.752-.4-.174-.912-.3-1.43-.028-.509.268-.704.755-.8 1.18-.078.339-.12.764-.158 1.243a21.882 21.882 0 0 1-1.518-1.755l-.003-.004A13.555 13.555 0 0 1 3.45 8.97a9.239 9.239 0 0 1-.106-.2l-.03-.056a6.714 6.714 0 0 1-.33-.75 4.473 4.473 0 0 1-.157-.516c-.118-.503-.089-.871.024-1.11a.813.813 0 0 1 .36-.372c.13-.071.297-.13.513-.168.538-.096 1.296-.049 2.25.186l.01.002.17.044c1.997.528 4.578 1.787 7.244 3.68 2.514 1.787 4.608 3.785 6.005 5.596l.004.006a14.113 14.113 0 0 1 1.113 1.663l.011.02a7.473 7.473 0 0 1 .53 1.162c.086.257.14.483.168.681.05.369.01.64-.078.827-.076.162-.221.32-.484.43a1.894 1.894 0 0 1-.389.11c-.538.095-1.296.048-2.249-.187l-.007-.002a14.164 14.164 0 0 1-1.748-.565.75.75 0 1 0-.546 1.397c.944.37 1.847.637 2.671.781.327.057.642.095.943.112a6.118 6.118 0 0 0 .554.006c.225-.008.44-.03.647-.066.242-.044.476-.11.695-.2.545-.223.999-.599 1.271-1.18.372-.79.278-1.724-.028-2.626a8.532 8.532 0 0 0-.4-.953 13.44 13.44 0 0 0-1.23-1.987c-1.505-2.046-3.819-4.283-6.585-6.247-2.763-1.963-5.507-3.321-7.729-3.908-1.106-.293-2.137-.408-2.997-.272-.32.05-.628.139-.908.271A2.31 2.31 0 0 0 1.491 5.7c-.294.629-.3 1.35-.124 2.096.054.229.124.457.207.684a8.197 8.197 0 0 0 .437.98 11.291 11.291 0 0 0 .443.78 14.546 14.546 0 0 0 .69 1.017 23.16 23.16 0 0 0 2.168 2.517.753.753 0 0 0 .25.169l-.134.1-.042.034c-.472.388-.887.73-1.168 1.037-.291.318-.592.761-.513 1.338.08.593.505.927.882 1.136.356.198.848.38 1.396.582l.054.02.307.113c.18.067.274.102.339.132l.017.008.008.018c.03.065.066.158.132.338l.114.308.02.053c.202.549.384 1.04.581 1.396.21.377.544.802 1.136.883.577.079 1.02-.222 1.338-.513.308-.282.65-.697 1.038-1.168l.25-.305a5.71 5.71 0 0 1 .25-.292.58.58 0 0 1 .036-.036.595.595 0 0 1 .045-.008c.076-.012.178-.02.373-.036l.387-.03c.596-.047 1.124-.088 1.529-.18.426-.097.912-.292 1.18-.801.272-.518.146-1.03-.028-1.43-.162-.374-.44-.815-.751-1.307l-.03-.048-.175-.276a5.04 5.04 0 0 1-.198-.333 5.517 5.517 0 0 1 .103-.4l.091-.322.016-.054c.164-.58.31-1.093.365-1.502.056-.423.049-.97-.373-1.391-.422-.422-.969-.43-1.391-.373-.41.054-.923.2-1.502.365l-.054.015-.324.092a5.55 5.55 0 0 1-.399.103l-.024-.012a5.04 5.04 0 0 1-.308-.187l-.276-.174Zm-2.145.533h.01-.01Zm.191.06a1.182 1.182 0 0 0-.125-.047 1.211 1.211 0 0 0-.045.157c-.065.284-.1.7-.151 1.368l-.026.333-.006.073c-.021.288-.046.623-.205.925-.157.3-.418.512-.645.698l-.058.048-.263.216c-.526.433-.856.707-1.056.927a1.456 1.456 0 0 0-.088.104 1.4 1.4 0 0 0 .077.045c.243.135.623.278 1.243.507l.307.113.07.026c.263.095.586.213.83.457.244.244.362.568.458.83l.025.07.114.308c.229.62.371.999.506 1.242.017.031.033.057.046.077.027-.02.061-.048.104-.087.22-.201.493-.53.926-1.057l.216-.262.048-.058c.186-.228.4-.489.698-.646.302-.158.637-.183.925-.205l.074-.005.332-.026c.668-.053 1.084-.087 1.368-.151.074-.017.124-.033.157-.045a1.18 1.18 0 0 0-.047-.126c-.111-.255-.325-.597-.675-1.153l-.174-.276-.04-.061c-.15-.236-.333-.524-.38-.866-.046-.337.049-.665.129-.942l.02-.073.093-.323c.184-.65.298-1.056.336-1.344l.01-.089a1.602 1.602 0 0 0-.09.01c-.287.038-.693.151-1.343.336l-.324.092-.073.02c-.276.08-.604.175-.941.13-.343-.048-.63-.23-.866-.381l-.062-.04-.276-.173c-.555-.35-.897-.564-1.153-.675Zm-2.746 4.74.005.007-.005-.006Zm.03.136c-.001.005-.003.007-.003.007l.003-.007Zm3.642 3.652.007-.002-.007.002Zm.136.022.007.006s-.003-.001-.007-.006Zm4.808-2.55v-.01.01Zm.037-.089.008-.005-.008.005ZM7.803 11.33a.034.034 0 0 1 .006-.008l-.006.008Zm11.862-8.921a.75.75 0 0 1 .13 1.053l-.111.142a3.59 3.59 0 0 0 .87 1.756.75.75 0 0 1-1.108 1.01 5.069 5.069 0 0 1-1.021-1.697 3.713 3.713 0 0 1-.687.32c.326.591.532 1.247.605 1.927a.75.75 0 0 1-1.492.16 3.614 3.614 0 0 0-.718-1.811l-.158-.006a.75.75 0 0 1 .05-1.499l.408.014c.526-.104.797-.18 1.031-.29.235-.112.47-.275.891-.62l.258-.33a.75.75 0 0 1 1.052-.13Z" clip-rule="evenodd"/>
</svg>
