<svg xmlns="http://www.w3.org/2000/svg" width="24" height="24" fill="none">
  <path fill="#1C274C" fill-rule="evenodd" d="M7.336 3.383c.595-1.51 2.733-1.51 3.328 0L11.736 6.1a.29.29 0 0 0 .163.163l2.718 1.072c1.51.595 1.51 2.733 0 3.328L11.9 11.736a.29.29 0 0 0-.163.163l-1.072 2.718c-.595 1.51-2.733 1.51-3.328 0L6.264 11.9a.29.29 0 0 0-.163-.163l-2.718-1.072c-1.51-.595-1.51-2.733 0-3.328L6.1 6.264a.289.289 0 0 0 .163-.163l1.072-2.718Zm1.933.55a.29.29 0 0 0-.538 0L7.66 6.651A1.79 1.79 0 0 1 6.651 7.66L3.933 8.731a.29.29 0 0 0 0 .538l2.718 1.072a1.79 1.79 0 0 1 1.008 1.008l1.072 2.718a.29.29 0 0 0 .538 0l1.072-2.718a1.79 1.79 0 0 1 1.008-1.008l2.718-1.072a.29.29 0 0 0 0-.538L11.349 7.66a1.79 1.79 0 0 1-1.008-1.008L9.269 3.933Zm6.522 9.14c.433-1.097 1.985-1.097 2.418 0l.769 1.95 1.949.768c1.097.433 1.097 1.985 0 2.418l-1.95.769-.768 1.949c-.433 1.097-1.985 1.097-2.418 0l-.769-1.95-1.949-.768c-1.097-.433-1.097-1.985 0-2.418l1.95-.769.768-1.949ZM17 14.095l-.614 1.558a1.3 1.3 0 0 1-.733.733L14.095 17l1.558.614c.335.133.6.398.733.733L17 19.905l.614-1.558a1.3 1.3 0 0 1 .733-.733L19.905 17l-1.558-.614a1.3 1.3 0 0 1-.733-.733L17 14.095Z" clip-rule="evenodd"/>
</svg>
