<svg xmlns="http://www.w3.org/2000/svg" width="24" height="24" fill="none">
  <path fill="#1C274C" fill-rule="evenodd" d="M18.823 2.815c-.348.114-.818.345-1.544.704l-.365.18-.078.04c-.319.159-.655.327-1.029.346-.379.02-.728-.115-1.05-.24l-.08-.031-.368-.142c-.737-.283-1.208-.462-1.554-.538a.975.975 0 0 0-.295-.032.126.126 0 0 0-.023.004l-.003.002-.003.005a1.011 1.011 0 0 0-.05.322c-.012.359.044.865.135 1.654l.046.396.01.084c.041.347.085.718-.026 1.08-.11.357-.352.643-.584.916l-.056.066-.263.312c-.524.622-.862 1.026-1.057 1.339a1.066 1.066 0 0 0-.137.279c.033.022.104.06.247.105.336.108.837.192 1.622.32l.392.063.086.014c.341.055.716.114 1.03.324.317.21.514.533.693.825l.045.073.206.334c.412.67.677 1.094.902 1.359a.902.902 0 0 0 .202.192 1.096 1.096 0 0 0 .233-.243c.223-.295.479-.753.871-1.462l.197-.356.042-.075c.173-.314.352-.64.647-.872.296-.232.655-.328 1-.42l.082-.022.39-.105c.779-.21 1.28-.347 1.618-.493a1.077 1.077 0 0 0 .293-.17c0-.002.002-.003.002-.003a.912.912 0 0 0-.138-.256c-.2-.286-.542-.649-1.084-1.216l-.271-.284-.059-.061c-.237-.247-.498-.52-.622-.879-.123-.356-.089-.733-.057-1.08l.007-.087.035-.4c.07-.798.113-1.31.092-1.667a1.081 1.081 0 0 0-.041-.269 1.1 1.1 0 0 0-.288.065Zm.323-.062-.01-.002c.007 0 .01.002.01.002Zm-.044-.025c-.006-.006-.008-.01-.007-.011 0 0 .003.002.007.01Zm-8.678 6.81.01.01c-.009-.006-.01-.01-.01-.01Zm.021.042v.011-.01Zm7.912-8.19c.475-.156 1.06-.251 1.593.103.538.358.669.938.699 1.436.029.482-.026 1.107-.09 1.83l-.04.457a6.58 6.58 0 0 0-.031.46c0 .056.003.08.005.088a.453.453 0 0 0 .046.064c.059.073.145.165.302.33l.312.326c.489.512.915.958 1.188 1.35.29.415.531.942.344 1.553-.184.6-.67.912-1.137 1.113-.45.193-1.059.358-1.766.548l-.446.12a6.468 6.468 0 0 0-.447.13.33.33 0 0 0-.099.044c-.023.018-.056.048-.302.493l-.225.406c-.357.645-.664 1.2-.96 1.591-.306.404-.726.806-1.354.84-.099.005-.193 0-.284-.013-.119.343-.24.77-.355 1.268-.258 1.112-.477 2.54-.582 4.103-.1 1.482-1.31 2.72-2.856 2.72H3.717c-.762 0-1.477-.31-1.945-.849a2.088 2.088 0 0 1-.386-2.127c.731-2.003 2.01-4.086 3.578-5.87 1.239-1.41 2.68-2.662 4.209-3.539a1.438 1.438 0 0 1-.15-.308c-.206-.6.025-1.143.29-1.57.26-.415.67-.9 1.146-1.467l.037-.043.263-.312c.152-.18.238-.283.297-.366a.691.691 0 0 0 .048-.073l.008-.018c0-.001.002-.005.003-.016a.6.6 0 0 0 .001-.081 6.428 6.428 0 0 0-.044-.454l-.046-.395-.006-.058c-.083-.715-.155-1.334-.139-1.819.017-.508.135-1.07.629-1.458.496-.39 1.07-.367 1.567-.258.47.104 1.05.326 1.715.582l.055.021.369.142c.213.082.332.127.424.154a.575.575 0 0 0 .085.02h.003l.003-.001a6.867 6.867 0 0 0 .517-.231l.416-.206c.66-.327 1.23-.609 1.693-.76Zm-7.595 9.842c-1.638.748-3.27 2.065-4.67 3.661-1.463 1.665-2.638 3.591-3.296 5.395a.59.59 0 0 0 .108.63c.16.183.449.332.813.332h1.12c.033-.16.072-.326.117-.495.125-.47.305-1.013.53-1.595a25.771 25.771 0 0 1 1.852-3.796c.763-1.28 1.67-2.529 2.665-3.466a8.38 8.38 0 0 1 .789-.66l-.028-.006Zm1.821.7c-.485.191-1.007.543-1.553 1.058-.857.807-1.682 1.928-2.405 3.142A24.268 24.268 0 0 0 6.883 19.7a14.267 14.267 0 0 0-.508 1.549h2.751c.119-1.177.482-2.858 1.051-4.542.563-1.667 1.362-3.443 2.406-4.776Zm-1.948 9.318h1.237c.706 0 1.309-.575 1.36-1.32.11-1.636.339-3.144.616-4.342.139-.598.292-1.13.452-1.565.03-.082.061-.163.093-.242a11.937 11.937 0 0 1-.625-.93c-.88 1.122-1.62 2.708-2.17 4.337-.525 1.555-.846 3.05-.963 4.062Zm9.857-15.486.001.002v-.002Z" clip-rule="evenodd"/>
</svg>
