<svg xmlns="http://www.w3.org/2000/svg" width="24" height="24" fill="none">
  <g stroke="#1C274C" stroke-width="1.5">
    <path d="M17.26 6.34c.567.164.764 1.01 1.157 2.702l.102.437c.112.481.168.722.302.908.133.187.33.299.723.522l.357.204c1.383.788 2.074 1.181 2.098 1.841.025.66-.634 1.15-1.952 2.13l-.34.253c-.375.278-.563.417-.682.622-.12.204-.157.451-.233.945l-.07.45a9.197 9.197 0 0 1-.33 1.401c-.197.617-.296.926-.654 1.132-.359.206-.706.105-1.4-.096M10.44 6.728l.102.437c.111.481.167.721.301.908.134.187.33.299.723.522l.358.204c1.382.787 2.074 1.181 2.098 1.841.024.66-.635 1.15-1.953 2.13l-.34.253c-.375.278-.562.417-.681.622-.12.204-.158.451-.234.945l-.07.45c-.267 1.739-.4 2.608-.952 2.852 0 0-1.156-.3-2.364-1.386l-.312-.282c-.344-.308-.515-.463-.723-.523-.207-.06-.427-.02-.867.062l-.4.075c-1.549.287-2.323.43-2.688-.08-.365-.509-.08-1.334.492-2.985l.148-.427c.162-.469.243-.703.234-.945-.009-.242-.107-.464-.302-.908l-.179-.404c-.688-1.56-1.033-2.341-.707-2.9.326-.559 1.106-.525 2.667-.459l.404.017c.444.02.665.029.867-.06.203-.09.362-.268.68-.624l.291-.324c1.122-1.252 1.683-1.878 2.25-1.713.566.164.763 1.01 1.157 2.702Z"/>
    <path d="m11.924 8.799 7.62 2.11m-9.752 6.982 6.546 1.9m-5.29-6.147 7.977 2.314M9.283 4.025l7.978 2.315" opacity=".5"/>
  </g>
</svg>
