<svg xmlns="http://www.w3.org/2000/svg" width="24" height="24" fill="none">
  <g fill="#1C274C">
    <path d="M2 12C2 6.477 6.477 2 12 2c5.013 0 9.165 3.689 9.888 8.5h-.202c-2.49 0-4.126-.001-5.493.477a8.5 8.5 0 0 0-5.216 5.216c-.478 1.367-.478 3.003-.477 5.493v.202C5.689 21.164 2 17.013 2 12Z"/>
    <path d="m21.242 13.708-7.534 7.534a2.892 2.892 0 0 1-.369.312A2.325 2.325 0 0 1 12 22c0-.552 0-1.049.003-1.5.012-1.834.075-2.911.39-3.812a7 7 0 0 1 4.295-4.295c.9-.315 1.978-.378 3.812-.39C20.951 12 21.448 12 22 12c0 .486-.169.946-.446 1.34a2.755 2.755 0 0 1-.312.368Z"/>
  </g>
</svg>
