<svg xmlns="http://www.w3.org/2000/svg" width="24" height="24" fill="none">
  <g fill="#1C274C">
    <path d="M16 10.5c0 .828-.448 1.5-1 1.5s-1-.672-1-1.5.448-1.5 1-1.5 1 .672 1 1.5Zm-6 0c0 .828-.448 1.5-1 1.5s-1-.672-1-1.5S8.448 9 9 9s1 .672 1 1.5Z"/>
    <path fill-rule="evenodd" d="M12 2.75a9.25 9.25 0 0 0-.75 18.47c.002-1.488.016-2.593.14-3.502a5.787 5.787 0 0 1-2.837-1.116.75.75 0 1 1 .894-1.204 4.276 4.276 0 0 0 2.31.845 7.75 7.75 0 0 1 4.683-4.558c1.147-.401 2.523-.433 4.78-.435A9.25 9.25 0 0 0 12 2.75Zm9.14 10c-2.257.006-3.336.047-4.204.35a6.25 6.25 0 0 0-3.835 3.836c-.304.868-.345 1.947-.35 4.203l8.388-8.388ZM1.25 12C1.25 6.063 6.063 1.25 12 1.25S22.75 6.063 22.75 12c0 .362-.018.72-.053 1.074l-.026.267-9.33 9.33-.267.026c-.353.035-.712.053-1.074.053-5.937 0-10.75-4.813-10.75-10.75Z" clip-rule="evenodd"/>
  </g>
</svg>
