<svg xmlns="http://www.w3.org/2000/svg" width="24" height="24" fill="none">
  <g fill="#1C274C">
    <path d="m21.242 13.708-7.534 7.534a2.892 2.892 0 0 1-.369.312A2.325 2.325 0 0 1 12 22c0-.552 0-1.049.003-1.5.012-1.834.075-2.911.39-3.812a7 7 0 0 1 4.295-4.295c.9-.315 1.978-.378 3.812-.39C20.951 12 21.448 12 22 12c0 .486-.169.946-.446 1.34a2.755 2.755 0 0 1-.312.368Z"/>
    <path fill-rule="evenodd" d="M12 2C6.477 2 2 6.477 2 12c0 4.706 3.25 8.652 7.629 9.717.454.11.871-.25.871-.717 0-1.702-.001-2.32.152-3.41a5.828 5.828 0 0 1-2.099-.988.75.75 0 1 1 .894-1.204c.463.343.988.595 1.552.732a8.5 8.5 0 0 1 3.494-4.337c-.295-.26-.493-.742-.493-1.293 0-.828.448-1.5 1-1.5s1 .672 1 1.5c0 .204-.027.399-.076.576.088-.034.178-.067.269-.099 1.367-.478 2.317-.478 4.807-.477.468 0 .828-.417.717-.871C20.652 5.25 16.706 2 12 2ZM9 12c.552 0 1-.672 1-1.5S9.552 9 9 9s-1 .672-1 1.5.448 1.5 1 1.5Z" clip-rule="evenodd"/>
  </g>
</svg>
