<svg xmlns="http://www.w3.org/2000/svg" width="24" height="24" fill="none">
  <path fill="#1C274C" fill-rule="evenodd" d="M2 12c0-3.771 0-5.657 1.172-6.828C4.343 4 6.229 4 10 4h4c3.771 0 5.657 0 6.828 1.172C22 6.343 22 8.229 22 12c0 3.771 0 5.657-1.172 6.828C19.657 20 17.771 20 14 20h-4c-3.771 0-5.657 0-6.828-1.172C2 17.657 2 15.771 2 12Zm4 3.25a.75.75 0 0 0 0 1.5h4a.75.75 0 0 0 0-1.5H6ZM7.75 13a.75.75 0 0 0-.75-.75H6a.75.75 0 0 0 0 1.5h1a.75.75 0 0 0 .75-.75Zm3.75-.75a.75.75 0 0 1 0 1.5h-2a.75.75 0 0 1 0-1.5h2Zm7.25.75a.75.75 0 0 0-.75-.75h-4a.75.75 0 0 0 0 1.5h4a.75.75 0 0 0 .75-.75Zm-6.25 2.25a.75.75 0 0 0 0 1.5H14a.75.75 0 0 0 0-1.5h-1.5Zm3.25.75a.75.75 0 0 1 .75-.75H18a.75.75 0 0 1 0 1.5h-1.5a.75.75 0 0 1-.75-.75Z" clip-rule="evenodd"/>
</svg>
