<svg xmlns="http://www.w3.org/2000/svg" width="24" height="24" fill="none">
  <path stroke="#1C274C" stroke-linecap="round" stroke-width="1.5" d="M2 14c0-3.771 0-5.657 1.172-6.828C4.343 6 6.229 6 10 6h4c3.771 0 5.657 0 6.828 1.172.654.653.943 1.528 1.07 2.828M22 14c0 3.771 0 5.657-1.172 6.828C19.657 22 17.771 22 14 22h-4c-3.771 0-5.657 0-6.828-1.172-.654-.653-.943-1.528-1.07-2.828"/>
  <path stroke="#1C274C" stroke-width="1.5" d="M16 6c0-1.886 0-2.828-.586-3.414C14.828 2 13.886 2 12 2c-1.886 0-2.828 0-3.414.586C8 3.172 8 4.114 8 6"/>
  <path fill="#1C274C" d="M17 9a1 1 0 1 1-2 0 1 1 0 0 1 2 0ZM9 9a1 1 0 1 1-2 0 1 1 0 0 1 2 0Z"/>
</svg>
