<svg xmlns="http://www.w3.org/2000/svg" width="24" height="24" fill="none">
  <g fill="#1C274C">
    <path fill-rule="evenodd" d="M12.052 1.25h-.104c-.899 0-1.648 0-2.242.08-.628.084-1.195.27-1.65.725-.456.456-.642 1.023-.726 1.65-.08.595-.08 1.345-.08 2.243v.078a25.86 25.86 0 0 0-.5.02v8.204h3.284c.206 0 .427 0 .615.025.219.03.5.105.735.341.236.236.311.516.341.735.025.188.025.41.025.615v1.069c0 .205 0 .426-.025.614-.03.219-.105.5-.341.735a1.239 1.239 0 0 1-.735.341 4.844 4.844 0 0 1-.614.025H6.75v3.203C7.645 22 8.712 22 10 22h4c1.288 0 2.355 0 3.25-.047V6.047a25.853 25.853 0 0 0-.5-.021v-.078c0-.898 0-1.648-.08-2.242-.084-.628-.27-1.195-.726-1.65-.455-.456-1.022-.642-1.65-.726-.594-.08-1.344-.08-2.242-.08Zm3.198 4.752V6c0-.964-.002-1.612-.066-2.095-.063-.461-.17-.659-.3-.789-.13-.13-.328-.237-.79-.3-.482-.064-1.13-.066-2.094-.066s-1.612.002-2.095.067c-.461.062-.659.169-.789.3-.13.13-.237.327-.3.788C8.753 4.388 8.75 5.036 8.75 6v.002C9.142 6 9.558 6 10 6h4c.442 0 .858 0 1.25.002Z" clip-rule="evenodd"/>
    <path d="M20.828 20.828c-.518.52-1.177.808-2.078.97V6.202c.9.16 1.56.45 2.078.969C22 8.343 22 10.229 22 14s0 5.657-1.172 6.828ZM3.172 7.172c.518-.52 1.177-.808 2.078-.97v8.09c-.2.039-.433.123-.634.324a1.239 1.239 0 0 0-.341.735c-.025.188-.025.41-.025.615v1.069c0 .205 0 .426.025.614.03.219.105.5.341.735.2.2.434.285.634.324v3.09c-.9-.162-1.56-.45-2.078-.97C2 19.657 2 17.771 2 14c0-3.771 0-5.657 1.172-6.828Zm2.579 8.579L5.75 16v1l.001.249.249.001h4l.249-.001.001-.249v-1l-.001-.249L10 15.75H6l-.249.001Z"/>
  </g>
</svg>
