<svg xmlns="http://www.w3.org/2000/svg" width="24" height="24" fill="none">
  <g fill="#1C274C">
    <path d="M3.172 7.922C2 9.093 2 10.979 2 14.75c0 3.771 0 5.657 1.172 6.828C4.343 22.75 6.229 22.75 10 22.75h4c3.771 0 5.657 0 6.828-1.172C22 20.407 22 18.521 22 14.75c0-3.771 0-5.657-1.172-6.828C19.657 6.75 17.771 6.75 14 6.75h-4c-3.771 0-5.657 0-6.828 1.172Z" opacity=".5"/>
    <path d="M16 10.75a1 1 0 1 0 0-2 1 1 0 0 0 0 2Zm-7-1a1 1 0 1 1-2 0 1 1 0 0 1 2 0ZM12.052 2h-.104c-.899 0-1.648 0-2.242.08-.628.084-1.195.27-1.65.725-.456.456-.642 1.023-.726 1.65-.08.595-.08 1.345-.08 2.243v.078c.457-.015.955-.021 1.5-.024V6.75c0-.964.002-1.612.067-2.095.062-.461.169-.659.3-.789.13-.13.327-.237.788-.3.483-.064 1.131-.066 2.095-.066.964 0 1.612.002 2.095.067.461.062.659.169.789.3.13.13.237.327.3.788.064.483.066 1.131.066 2.095v.002a54.53 54.53 0 0 1 1.5.024v-.078c0-.898 0-1.648-.08-2.242-.084-.628-.27-1.195-.726-1.65-.455-.456-1.022-.642-1.65-.726C13.7 2 12.95 2 12.052 2Z"/>
  </g>
</svg>
