<svg xmlns="http://www.w3.org/2000/svg" width="24" height="24" fill="none">
  <g fill="#1C274C">
    <path fill-rule="evenodd" d="M7.25 22a.75.75 0 0 1 .75-.75h8a.75.75 0 0 1 0 1.5H8a.75.75 0 0 1-.75-.75ZM12 1.25a.75.75 0 0 1 .75.75v1a.75.75 0 0 1-1.5 0V2a.75.75 0 0 1 .75-.75ZM1.25 12a.75.75 0 0 1 .75-.75h1a.75.75 0 0 1 0 1.5H2a.75.75 0 0 1-.75-.75Zm19 0a.75.75 0 0 1 .75-.75h1a.75.75 0 0 1 0 1.5h-1a.75.75 0 0 1-.75-.75Z" clip-rule="evenodd"/>
    <path d="M5.25 12c0 1.178.302 2.286.833 3.25H2a.75.75 0 0 0 0 1.5h9.25v-4.94l-.72.72a.75.75 0 1 1-1.06-1.06l2-2a.75.75 0 0 1 1.06 0l2 2a.75.75 0 1 1-1.06 1.06l-.72-.72v4.94H22a.75.75 0 0 0 0-1.5h-4.083A6.75 6.75 0 1 0 5.25 12Z" opacity=".5"/>
    <path d="M12.53 9.47a.75.75 0 0 0-1.06 0l-2 2a.75.75 0 1 0 1.06 1.06l.72-.72v4.94h1.5v-4.94l.72.72a.75.75 0 1 0 1.06-1.06l-2-2ZM4.25 19a.75.75 0 0 1 .75-.75h14a.75.75 0 0 1 0 1.5H5a.75.75 0 0 1-.75-.75Z"/>
    <path d="M4.398 4.398a.75.75 0 0 1 1.061 0l.393.393a.75.75 0 0 1-1.06 1.06l-.394-.392a.75.75 0 0 1 0-1.06Zm15.202.001a.75.75 0 0 1 0 1.06l-.392.393a.75.75 0 0 1-1.06-1.06l.392-.393a.75.75 0 0 1 1.06 0Z" opacity=".5"/>
  </g>
</svg>
