<svg xmlns="http://www.w3.org/2000/svg" width="24" height="24" fill="none">
  <g stroke="#1C274C" stroke-linecap="round" stroke-width="1.5">
    <path d="M3 4.5c0-.465 0-.697.038-.89A2 2 0 0 1 4.61 2.038C4.803 2 5.035 2 5.5 2s.697 0 .89.038A2 2 0 0 1 7.962 3.61C8 3.803 8 4.035 8 4.5v2c0 .465 0 .697-.038.89A2 2 0 0 1 6.39 8.962C6.197 9 5.965 9 5.5 9s-.697 0-.89-.038A2 2 0 0 1 3.038 7.39M21 6.5v-2c0-.465 0-.697-.038-.89a2 2 0 0 0-1.572-1.572C19.197 2 18.965 2 18.5 2s-.697 0-.89.038a2 2 0 0 0-1.572 1.572C16 3.803 16 4.035 16 4.5v2c0 .465 0 .697.038.89a2 2 0 0 0 1.572 1.572c.193.038.425.038.89.038s.697 0 .89-.038a2 2 0 0 0 1.572-1.572C21 7.197 21 6.965 21 6.5Zm-13 13v-2c0-.465 0-.697-.038-.89a2 2 0 0 0-1.572-1.572C6.197 15 5.965 15 5.5 15s-.697 0-.89.038a2 2 0 0 0-1.572 1.572C3 16.803 3 17.035 3 17.5v2c0 .465 0 .697.038.89a2 2 0 0 0 1.572 1.572c.193.038.425.038.89.038s.697 0 .89-.038a2 2 0 0 0 1.572-1.572C8 20.197 8 19.965 8 19.5Zm13 0c0 .465 0 .697-.038.89a2 2 0 0 1-1.572 1.572c-.193.038-.425.038-.89.038s-.697 0-.89-.038a2 2 0 0 1-1.572-1.572C16 20.197 16 19.965 16 19.5v-2c0-.465 0-.697.038-.89a2 2 0 0 1 1.572-1.572c.193-.038.425-.038.89-.038s.697 0 .89.038a2 2 0 0 1 1.572 1.572M16 18.5H8m8-13H8"/>
    <path stroke-linejoin="round" d="M12 9.5 10.5 12h3L12 14.5"/>
  </g>
</svg>
