<svg xmlns="http://www.w3.org/2000/svg" width="24" height="24" fill="none">
  <g stroke="#1C274C" stroke-linecap="round" stroke-linejoin="round" stroke-width="1.5">
    <path d="M22 15.773c-1.588-.374-2.404-1.293-3.08-2.316-.424-.64-1.355-.601-1.815.014C16.055 14.876 14.485 16 12 16c-2.507 0-4.082-1.431-5.133-2.777-.44-.562-1.28-.555-1.665.046C4.5 14.366 3.684 15.376 2 15.773m20 5c-1.588-.374-2.404-1.293-3.08-2.316-.424-.64-1.355-.601-1.815.014C16.055 19.876 14.485 21 12 21c-2.507 0-4.082-1.431-5.133-2.777-.44-.562-1.28-.555-1.665.046C4.5 19.366 3.684 20.376 2 20.773" opacity=".5"/>
    <path d="m4 11.5 3.477-2.086a1.5 1.5 0 0 0 .367-2.263L6.856 6a1.421 1.421 0 0 1 2.145-1.865L15.5 11.5M17 8a2.5 2.5 0 1 0 0-5 2.5 2.5 0 0 0 0 5Z"/>
  </g>
</svg>
