<svg xmlns="http://www.w3.org/2000/svg" width="24" height="24" fill="none">
  <path stroke="#1C274C" stroke-linecap="round" stroke-linejoin="round" stroke-width="1.5" d="M22 15.773c-1.588-.374-2.404-1.293-3.08-2.316-.424-.64-1.355-.601-1.815.014C16.055 14.876 14.485 16 12 16c-2.507 0-4.082-1.431-5.133-2.777-.44-.562-1.28-.555-1.665.046C4.5 14.366 3.684 15.376 2 15.773M4 11.5l3.477-2.086a1.5 1.5 0 0 0 .367-2.263L6.856 6a1.421 1.421 0 0 1 2.145-1.865l.812.92M15.5 11.5l-3.25-3.683M17 8a2.5 2.5 0 1 0 0-5 2.5 2.5 0 0 0 0 5Zm-5 13c-2.507 0-4.082-1.345-5.133-2.611-.44-.53-1.28-.522-1.665.043-.701 1.03-1.518 1.98-3.202 2.354m20 0c-1.588-.352-2.404-1.216-3.08-2.178-.424-.602-1.355-.566-1.815.013-.41.516-.899.99-1.49 1.379"/>
</svg>
