<svg xmlns="http://www.w3.org/2000/svg" width="24" height="24" fill="none">
  <g fill="#1C274C">
    <path fill-rule="evenodd" d="M4.57 17.866c.687-1.074 2.157-1.039 2.888-.104.99 1.267 2.372 2.488 4.542 2.488 2.209 0 3.57-.979 4.505-2.23.72-.962 2.286-1.119 3.04.024.626.945 1.304 1.687 2.627 1.998a.75.75 0 1 1-.344 1.46c-1.852-.436-2.807-1.533-3.534-2.631a.28.28 0 0 0-.253-.128.432.432 0 0 0-.335.177C16.54 20.48 14.76 21.75 12 21.75c-2.842 0-4.611-1.64-5.724-3.065a.304.304 0 0 0-.246-.125.23.23 0 0 0-.196.114c-.74 1.156-1.695 2.365-3.662 2.828a.75.75 0 1 1-.344-1.46c1.401-.33 2.08-1.14 2.742-2.176Z" clip-rule="evenodd"/>
    <path d="M22.172 15.042c-1.323-.311-2.001-1.053-2.626-1.998-.7-1.06-2.1-1.001-2.872-.219L15.5 11.5 9 4.134A1.421 1.421 0 0 0 6.858 6l.987 1.152c.605.706-.367 2.263-.367 2.263L5 12.4a1.777 1.777 0 0 0-.429.466c-.662 1.035-1.34 1.846-2.742 2.176a.75.75 0 1 0 .344 1.46c1.967-.463 2.922-1.672 3.662-2.828a.23.23 0 0 1 .196-.114.304.304 0 0 1 .246.125C7.389 15.11 9.158 16.75 12 16.75c2.76 0 4.539-1.27 5.706-2.83a.432.432 0 0 1 .335-.177.28.28 0 0 1 .253.127c.727 1.1 1.682 2.196 3.534 2.632a.75.75 0 0 0 .344-1.46ZM17 8a2.5 2.5 0 1 0 0-5 2.5 2.5 0 0 0 0 5Z"/>
  </g>
</svg>
