<svg xmlns="http://www.w3.org/2000/svg" width="24" height="24" fill="none">
  <path fill="#1C274C" d="m17.737 13.535-.53-.53.53.53Zm-.646.647.53.53-.53-.53Zm-2.182 2.182.53.53-.53-.53Zm-1.455 1.454-.53-.53.53.53Zm-6.742-6.742a.75.75 0 0 0-1.06-1.06l1.06 1.06Zm12.312.9-.705-.256.705.256Zm.705-1.663a.75.75 0 0 0-1.41.513l1.41-.513Zm-4.74-4.05-.53.53.53-.53Zm-1.558-1.287.256-.705-.256.705Zm-2.966 1.287-.53-.53.53.53Zm1.559-1.287-.257-.705.257.705Zm4.34 2.66-.53.53a.75.75 0 0 0 1.06 0l-.53-.53Zm3.106-.197a.75.75 0 1 0 1.06-1.06l-1.06 1.06ZM17.62 3.47a.75.75 0 1 0-1.06 1.061l1.06-1.06Zm-14.151 16a.75.75 0 1 0 1.06 1.061l-1.06-1.06Zm9.084-6.521a.75.75 0 0 0-1.06 1.06l1.06-1.06Zm.188 5.582a.75.75 0 0 0 1.061-1.06l-1.06 1.06Zm-.585-2.706a.75.75 0 1 0-1.06 1.06l1.06-1.06ZM8.47 7.197a.75.75 0 0 0 1.06 1.06l-1.06-1.06Zm8.737 5.808-.646.646 1.06 1.061.647-.646-1.061-1.061Zm-.646.646-2.182 2.182 1.06 1.061 2.182-2.182-1.06-1.06Zm-2.182 2.182-1.455 1.455 1.06 1.06 1.455-1.454-1.06-1.06Zm-7.667 1.455a4.393 4.393 0 0 1 0-6.212l-1.06-1.06a5.893 5.893 0 0 0 0 8.333l1.06-1.061Zm6.212 0a4.545 4.545 0 0 1-.16.152l1.008 1.111c.072-.065.143-.133.213-.202l-1.06-1.061Zm-.16.152a4.393 4.393 0 0 1-6.052-.152l-1.06 1.06a5.893 5.893 0 0 0 8.12.203l-1.007-1.111Zm5.504-3.374c.369-.37.675-.675.906-.943.236-.275.433-.555.555-.89l-1.41-.513c-.034.093-.103.216-.283.425-.185.216-.444.475-.829.86l1.06 1.06Zm.051-3.24c.105.288.105.605 0 .894l1.41.513c.225-.62.225-1.3 0-1.92l-1.41.513ZM15.52 5.732c-.368-.368-.674-.675-.943-.906-.274-.235-.555-.433-.89-.555l-.513 1.41c.094.034.216.103.426.283.215.185.475.444.86.829l1.06-1.06Zm-4.525 1.061a17.6 17.6 0 0 1 .86-.829c.21-.18.331-.249.425-.283l-.513-1.41c-.335.122-.615.32-.89.555-.268.231-.574.538-.943.906l1.061 1.061Zm2.692-2.522a2.807 2.807 0 0 0-1.92 0l.513 1.41c.289-.105.606-.105.894 0l.513-1.41Zm3.207 3.896 2.182-2.182-1.06-1.06-2.183 2.181 1.061 1.06Zm1.121-2.182 1.455 1.454 1.06-1.06-1.454-1.455-1.06 1.06Zm1.06-1.06L17.622 3.47l-1.06 1.06 1.454 1.455 1.06-1.06ZM5.652 17.287 3.47 19.47l1.06 1.06 2.182-2.181-1.06-1.061Zm11.97-3.636L10.35 6.379l-1.061 1.06 7.273 7.273 1.06-1.06Zm-2.182 2.181-2.885-2.885-1.06 1.06 2.885 2.886 1.06-1.06Zm-1.636 1.637-.004-.005-1.061 1.06.004.005 1.061-1.06Zm-.004-.005-1.642-1.641-1.06 1.06 1.64 1.642 1.062-1.06ZM9.53 8.258l.819-.819-1.061-1.06-.818.818 1.06 1.06Zm.819-.819.646-.646-1.06-1.06-.647.646 1.06 1.06Zm4.11-.646 1.374 1.374 1.061-1.061-1.374-1.374-1.06 1.061Z"/>
</svg>
