<svg xmlns="http://www.w3.org/2000/svg" width="24" height="24" fill="none">
  <g fill="#1C274C">
    <path d="M9.25 12a.75.75 0 0 1 .75-.75h1.25V10a.75.75 0 0 1 1.5 0v1.25H14a.75.75 0 0 1 0 1.5h-1.25V14a.75.75 0 0 1-1.5 0v-1.25H10a.75.75 0 0 1-.75-.75Z"/>
    <path fill-rule="evenodd" d="M12 1.25C6.063 1.25 1.25 6.063 1.25 12S6.063 22.75 12 22.75 22.75 17.937 22.75 12 17.937 1.25 12 1.25Zm-.75 1.53a9.252 9.252 0 0 0-8.47 8.47H5a.75.75 0 0 1 0 1.5H2.78a9.252 9.252 0 0 0 8.47 8.47V19a.75.75 0 0 1 1.5 0v2.22a9.252 9.252 0 0 0 8.47-8.47H19a.75.75 0 0 1 0-1.5h2.22a9.252 9.252 0 0 0-8.47-8.47V5a.75.75 0 0 1-1.5 0V2.78Z" clip-rule="evenodd"/>
  </g>
</svg>
