<svg xmlns="http://www.w3.org/2000/svg" width="24" height="24" fill="none">
  <g fill="#1C274C" fill-rule="evenodd" clip-rule="evenodd">
    <path d="M2.25 11.88c-.01.177.015.39.065.818l.401 3.428A5.515 5.515 0 0 0 8.193 21h3.614a5.515 5.515 0 0 0 5.028-3.25H19a3.75 3.75 0 1 0 0-7.5h-2.279a1.996 1.996 0 0 0-.618-.22c-.174-.03-.39-.03-.82-.03H4.717c-.43 0-.645 0-.819.03a2 2 0 0 0-1.646 1.85Zm15.487-.13c.005.043.01.087.012.13.01.177-.014.39-.064.818l-.401 3.428-.016.124H19a2.25 2.25 0 0 0 0-4.5h-1.263Z"/>
    <path d="M10.53 1.47a.75.75 0 0 1 0 1.06.666.666 0 0 0 0 .94 2.164 2.164 0 0 1 0 3.06.75.75 0 0 1-1.06-1.06c.26-.26.26-.68 0-.94a2.164 2.164 0 0 1 0-3.06.75.75 0 0 1 1.06 0Zm-4.5 1.5a.75.75 0 0 1 0 1.06l-.116.116a.691.691 0 0 0-.064.904 2.191 2.191 0 0 1-.203 2.864l-.116.116A.75.75 0 0 1 4.47 6.97l.116-.116a.691.691 0 0 0 .064-.904 2.191 2.191 0 0 1 .204-2.864l.116-.116a.75.75 0 0 1 1.06 0Zm9.5 0a.75.75 0 0 1 0 1.06l-.116.116a.691.691 0 0 0-.064.904 2.191 2.191 0 0 1-.203 2.864l-.117.116a.75.75 0 1 1-1.06-1.06l.116-.116a.691.691 0 0 0 .064-.904 2.191 2.191 0 0 1 .204-2.864l.116-.116a.75.75 0 0 1 1.06 0Z" opacity=".5"/>
  </g>
</svg>
