<svg xmlns="http://www.w3.org/2000/svg" width="24" height="24" fill="none">
  <g stroke="#1C274C" stroke-width="1.5">
    <path d="M3.34 17c2.76 4.783 8.877 6.42 13.66 3.66a9.956 9.956 0 0 0 4.197-4.731 9.985 9.985 0 0 0-.537-8.93 9.985 9.985 0 0 0-7.464-4.928A9.956 9.956 0 0 0 7 3.339C2.217 6.101.578 12.217 3.34 17Z"/>
    <path stroke-dasharray="1.5 2" d="M13.196 2.071s-1.098 4.099 1.402 8.43c2.5 4.33 6.598 5.428 6.598 5.428M2.803 8.071s4.099 1.099 6.599 5.43c2.5 4.33 1.402 8.428 1.402 8.428" opacity=".5"/>
  </g>
</svg>
