<svg xmlns="http://www.w3.org/2000/svg" width="24" height="24" fill="none">
  <g fill="#1C274C">
    <path d="M9.952 6.25c-.43 0-.832 0-1.16.049-.371.055-.752.186-1.057.525-.294.327-.398.717-.443 1.089-.042.348-.042.78-.042 1.267v.57a.75.75 0 0 0 1.5 0v-.528c0-.543.001-.882.031-1.129a.976.976 0 0 1 .046-.22.133.133 0 0 1 .023-.046h.001c.001-.002.002-.003.011-.008a.592.592 0 0 1 .152-.037c.204-.03.491-.032.986-.032h1.25v8.5H9.5a.75.75 0 0 0 0 1.5H15a.75.75 0 0 0 0-1.5h-2.25v-8.5H14c.495 0 .782.002.986.032.092.014.135.03.152.037l.011.007v.001a.13.13 0 0 1 .024.045c.014.038.032.105.046.221.03.247.031.586.031 1.13v.527a.75.75 0 0 0 1.5 0v-.57c0-.488 0-.919-.042-1.267-.045-.372-.149-.762-.443-1.09-.305-.338-.686-.469-1.057-.524-.328-.05-.73-.05-1.16-.049H9.952Z"/>
    <path fill-rule="evenodd" d="M11.943 1.25c-2.309 0-4.118 0-5.53.19-1.444.194-2.584.6-3.479 1.494-.895.895-1.3 2.035-1.494 3.48-.19 1.411-.19 3.22-.19 5.529v.114c0 2.309 0 4.118.19 5.53.194 1.444.6 2.584 1.494 3.479.895.895 2.035 1.3 3.48 1.494 1.411.19 3.22.19 5.529.19h.114c2.309 0 4.118 0 5.53-.19 1.444-.194 2.584-.6 3.479-1.494.895-.895 1.3-2.035 1.494-3.48.19-1.411.19-3.22.19-5.529v-.114c0-2.309 0-4.118-.19-5.53-.194-1.444-.6-2.584-1.494-3.479-.895-.895-2.035-1.3-3.48-1.494-1.411-.19-3.22-.19-5.529-.19h-.114ZM3.995 3.995c.57-.57 1.34-.897 2.619-1.069 1.3-.174 3.008-.176 5.386-.176s4.086.002 5.386.176c1.279.172 2.05.5 2.62 1.069.569.57.896 1.34 1.068 2.619.174 1.3.176 3.008.176 5.386s-.002 4.086-.176 5.386c-.172 1.279-.5 2.05-1.069 2.62-.57.569-1.34.896-2.619 1.068-1.3.174-3.008.176-5.386.176s-4.086-.002-5.386-.176c-1.279-.172-2.05-.5-2.62-1.069-.569-.57-.896-1.34-1.068-2.619-.174-1.3-.176-3.008-.176-5.386s.002-4.086.176-5.386c.172-1.279.5-2.05 1.069-2.62Z" clip-rule="evenodd"/>
  </g>
</svg>
