<svg xmlns="http://www.w3.org/2000/svg" width="24" height="24" fill="none">
  <g fill="#1C274C">
    <path d="M12 2C6.477 2 2 6.477 2 12s4.477 10 10 10 10-4.477 10-10S17.523 2 12 2Z" opacity=".5"/>
    <path fill-rule="evenodd" d="M9.522 5.25A2.272 2.272 0 0 0 7.25 7.522v9.301c0 1.064.863 1.927 1.926 1.927H13a3.75 3.75 0 0 0 1.665-7.111A3.75 3.75 0 0 0 12 5.25H9.522Zm2.478 6H8.75V7.522c0-.426.346-.772.772-.772H12a2.25 2.25 0 0 1 0 4.5Zm-3.25 5.573V12.75H13a2.25 2.25 0 0 1 0 4.5H9.176a.426.426 0 0 1-.426-.427Z" clip-rule="evenodd"/>
  </g>
</svg>
