<svg xmlns="http://www.w3.org/2000/svg" width="24" height="24" fill="none">
  <path fill="#1C274C" fill-rule="evenodd" d="M12 2C6.477 2 2 6.477 2 12s4.477 10 10 10 10-4.477 10-10S17.523 2 12 2ZM9.952 6.25c-.43 0-.832 0-1.16.049-.371.055-.752.186-1.057.525-.294.327-.398.717-.443 1.089-.042.348-.042.78-.042 1.267v.57a.75.75 0 0 0 1.5 0v-.528c0-.543.001-.882.031-1.129a.976.976 0 0 1 .046-.22.133.133 0 0 1 .023-.046h.001c.001-.002.002-.003.011-.008a.592.592 0 0 1 .152-.037c.204-.03.491-.032.986-.032h1.25v8.5H9.5a.75.75 0 0 0 0 1.5H15a.75.75 0 0 0 0-1.5h-2.25v-8.5H14c.495 0 .782.002.986.032.092.014.135.03.152.037l.011.007v.001a.13.13 0 0 1 .024.045c.014.038.032.105.046.221.03.247.031.586.031 1.13v.527a.75.75 0 0 0 1.5 0v-.57c0-.488 0-.919-.042-1.267-.045-.372-.149-.762-.443-1.09-.305-.338-.686-.469-1.057-.524-.328-.05-.73-.05-1.16-.049H9.952Z" clip-rule="evenodd"/>
</svg>
