<svg xmlns="http://www.w3.org/2000/svg" width="24" height="24" fill="none">
  <g fill="#1C274C">
    <path d="M3.172 18.828C4.343 20 6.229 20 10 20l5.75-.006c2.636-.027 4.104-.191 5.078-1.166C22 17.657 22 15.771 22 12c0-3.771 0-5.657-1.172-6.828-.974-.975-2.454-1.144-5.09-1.172H10C6.229 4 4.343 4 3.172 5.172 2 6.343 2 8.229 2 12c0 3.771 0 5.657 1.172 6.828Z" opacity=".5"/>
    <path fill-rule="evenodd" d="M15 1.25a.75.75 0 0 1 .75.75v20a.75.75 0 0 1-1.5 0V2a.75.75 0 0 1 .75-.75Z" clip-rule="evenodd"/>
    <path d="M6.818 7.787c.3-.037.666-.037 1.066-.037h2.232c.4 0 .766 0 1.066.037.329.041.68.137.98.405.052.046.1.094.146.146.268.3.364.651.405.98.037.3.037.666.037 1.066v.041a.75.75 0 0 1-1.5 0c0-.455-.001-.726-.026-.922-.024-.195-.228-.227-.228-.227-.195-.025-.466-.026-.921-.026H9.75v5.5H11a.75.75 0 0 1 0 1.5H7a.75.75 0 0 1 0-1.5h1.25v-5.5h-.325c-.455 0-.726.001-.922.026 0 0-.203.032-.227.227-.025.196-.026.467-.026.922a.75.75 0 0 1-1.5 0v-.041c0-.4 0-.766.037-1.066.041-.329.137-.68.405-.98.046-.052.094-.1.146-.146.3-.268.651-.364.98-.405Z"/>
  </g>
</svg>
