<svg xmlns="http://www.w3.org/2000/svg" width="24" height="24" fill="none">
  <g stroke="#1C274C" stroke-width="1.5">
    <path d="M8 7.522C8 6.682 8.681 6 9.522 6H12a3 3 0 1 1 0 6H8V7.522ZM8 12h5a3 3 0 1 1 0 6H9.176C8.526 18 8 17.473 8 16.823V12Z"/>
    <path stroke-linecap="round" d="M22 12c0 4.714 0 7.071-1.465 8.535C19.072 22 16.714 22 12 22s-7.071 0-8.536-1.465C2 19.072 2 16.714 2 12s0-7.071 1.464-8.536C4.93 2 7.286 2 12 2c4.714 0 7.071 0 8.535 1.464.974.974 1.3 2.343 1.41 4.536"/>
  </g>
</svg>
