<svg xmlns="http://www.w3.org/2000/svg" width="24" height="24" fill="none">
  <path fill="#1C274C" fill-rule="evenodd" d="M4.313 6.5c.367-.112.852-.222 1.446-.32 1.577-.264 3.784-.43 6.241-.43a.75.75 0 0 0 0-1.5c-2.513 0-4.807.17-6.487.45-.835.139-1.553.31-2.08.518-.26.103-.518.23-.724.398-.196.16-.459.453-.459.884s.263.724.46.884c.205.167.462.295.722.398.528.207 1.246.38 2.08.518 1.681.28 3.975.45 6.488.45 2.514 0 4.807-.17 6.487-.45.835-.139 1.553-.31 2.08-.518.26-.103.518-.23.724-.398.196-.16.459-.453.459-.884 0-.535-.397-.857-.63-1.007-.27-.175-.62-.313-.997-.428-.762-.233-1.814-.421-3.04-.558a.75.75 0 0 0-.166 1.491c1.186.132 2.134.308 2.768.502h.002a11.67 11.67 0 0 1-1.446.32c-1.577.264-3.784.43-6.241.43s-4.664-.166-6.24-.43a11.507 11.507 0 0 1-1.447-.32Zm-.665.287Zm16.71.004a.06.06 0 0 1-.013-.011l.013.011Zm-.009-.575Zm-16.698 0Zm17.055 3.531a.75.75 0 0 1-.453.96L20 10l.253.706-.002.001-.003.001-.01.003-.032.011a10.777 10.777 0 0 1-.533.158c-.367.1-.908.23-1.62.358-1.427.258-3.54.512-6.329.512-2.788 0-4.768-.254-6.066-.514a13.846 13.846 0 0 1-1.449-.365 6.968 6.968 0 0 1-.469-.166l-.03-.013-.01-.004-.003-.002h-.001S3.694 10.685 4 10l-.306.685a.75.75 0 0 1 .609-1.371m0 0 .01.004.06.024c.06.022.155.057.29.1.269.085.693.203 1.29.323 1.193.24 3.075.485 5.771.485 2.697 0 4.721-.246 6.062-.488.67-.121 1.17-.241 1.497-.33a9.328 9.328 0 0 0 .445-.131l.02-.007.233.654-.234-.654a.75.75 0 0 1 .96.453m-.96-.453ZM8.273 15.302a.75.75 0 0 0-.55 1.395L8 16l-.276.697.001.001.003.001.007.003.02.007a3.085 3.085 0 0 0 .275.09c.183.053.45.121.802.188.704.134 1.751.263 3.168.263 1.417 0 2.464-.129 3.169-.263a8.66 8.66 0 0 0 .802-.189 4.727 4.727 0 0 0 .275-.089l.02-.007.006-.003.003-.001h.001L16 16l.277.697a.75.75 0 0 0-.55-1.395h-.002m0 0-.028.01c-.029.01-.077.026-.146.046a7.25 7.25 0 0 1-.662.155c-.61.116-1.563.237-2.889.237-1.325 0-2.278-.12-2.888-.237a7.171 7.171 0 0 1-.808-.2 1.35 1.35 0 0 1-.028-.01m8.434 2.955a.75.75 0 0 1-.467.952 9.43 9.43 0 0 1-3.243.54c-1.397 0-2.434-.125-3.138-.257a.75.75 0 1 1 .276-1.475c.611.115 1.556.232 2.862.232a7.939 7.939 0 0 0 2.758-.46.75.75 0 0 1 .952.468Zm-10.119-5.72a.75.75 0 0 0-1.258.806L6 13c-.667.344-.666.345-.666.345l.001.002.002.004.004.008.009.015a.903.903 0 0 0 .065.098c.035.046.077.094.128.142.102.097.237.197.418.295.357.194.915.394 1.8.55a.75.75 0 0 0 .262-1.476c-.787-.14-1.176-.3-1.346-.392a.806.806 0 0 1-.086-.053Zm11.753-.204a.75.75 0 0 1 .323 1.01L18 13c.667.344.666.345.665.347l-.001.002-.003.006-.007.012a.768.768 0 0 1-.046.074c-.024.034-.052.07-.085.106a1.518 1.518 0 0 1-.26.224c-.213.15-.525.305-.986.446-.916.281-2.5.533-5.277.533a.75.75 0 1 1 0-1.5c2.707 0 4.124-.248 4.837-.467.354-.108.513-.204.567-.241a.75.75 0 0 1 .94-.208Z" clip-rule="evenodd"/>
</svg>
