<svg xmlns="http://www.w3.org/2000/svg" width="24" height="24" fill="none">
  <g fill="#1C274C">
    <path d="M2.75 12a9.25 9.25 0 0 1 18.5 0 9.218 9.218 0 0 1-2.71 6.54.75.75 0 0 0 1.061 1.061A10.719 10.719 0 0 0 22.75 12c0-5.937-4.813-10.75-10.75-10.75S1.25 6.063 1.25 12c0 2.968 1.204 5.657 3.149 7.601a.75.75 0 1 0 1.06-1.06A9.219 9.219 0 0 1 2.75 12Z"/>
    <path d="M6.75 12a5.25 5.25 0 1 1 8.962 3.712.75.75 0 0 0 1.061 1.061 6.75 6.75 0 1 0-9.546 0 .75.75 0 1 0 1.06-1.06A5.231 5.231 0 0 1 6.75 12Z"/>
    <path fill-rule="evenodd" d="M9.25 12a2.75 2.75 0 1 1 5.5 0 2.75 2.75 0 0 1-5.5 0ZM12 10.75a1.25 1.25 0 1 0 0 2.5 1.25 1.25 0 0 0 0-2.5Zm1.393 4.993c-.378-.267-.783-.466-1.276-.49a2.48 2.48 0 0 0-.234 0c-.493.024-.898.223-1.276.49-.352.25-.74.605-1.192 1.017l-.08.072c-1.004.917-1.817 1.66-2.334 2.277-.497.593-.954 1.337-.66 2.167.04.11.089.218.146.32.41.735 1.245.955 2.048 1.052.837.102 1.98.102 3.409.102h.112c1.429 0 2.572 0 3.41-.102.802-.097 1.636-.317 2.047-1.052.057-.102.106-.21.145-.32.295-.83-.162-1.574-.659-2.167-.517-.618-1.33-1.36-2.335-2.277l-.079-.072c-.451-.412-.84-.767-1.192-1.017Zm-1.919 1.224c.25-.177.38-.211.48-.216a.913.913 0 0 1 .091 0c.1.005.23.039.48.216.268.19.588.48 1.082.931 1.062.969 1.798 1.643 2.243 2.174.22.263.328.444.374.566.037.095.025.125.021.134v.001a.594.594 0 0 1-.041.091c-.02.035-.138.2-.92.295-.735.09-1.787.091-3.284.091-1.498 0-2.549-.001-3.284-.09-.782-.096-.9-.26-.92-.296a.592.592 0 0 1-.041-.09v-.002c-.004-.009-.016-.039.021-.134.046-.122.154-.303.374-.566.445-.53 1.182-1.205 2.243-2.174.494-.45.814-.741 1.081-.93Z" clip-rule="evenodd"/>
  </g>
</svg>
