<svg xmlns="http://www.w3.org/2000/svg" width="24" height="24" fill="none">
  <path fill="#1C274C" fill-rule="evenodd" d="M5.117 7.752a.75.75 0 0 1 .798.698l.46 6.9c.09 1.347.154 2.285.294 2.99.137.685.327 1.047.6 1.303.274.256.648.422 1.34.512.714.093 1.654.095 3.004.095h.774c1.35 0 2.29-.002 3.004-.095.692-.09 1.066-.256 1.34-.512.273-.256.463-.618.6-1.302.14-.706.204-1.644.294-2.992l.46-6.899a.75.75 0 1 1 1.497.1l-.464 6.952c-.085 1.282-.154 2.319-.316 3.132-.169.845-.455 1.551-1.047 2.104-.591.554-1.315.793-2.17.904-.822.108-1.86.108-3.146.108h-.878c-1.286 0-2.324 0-3.146-.108-.855-.111-1.579-.35-2.17-.904-.592-.553-.878-1.26-1.047-2.104-.162-.814-.23-1.85-.316-3.132L4.418 8.55a.75.75 0 0 1 .699-.798Zm5.238-5.502h-.046c-.216 0-.405 0-.583.028a2.25 2.25 0 0 0-1.64 1.183c-.084.16-.143.339-.211.544l-.015.044-.097.29a1.25 1.25 0 0 1-1.263.91h-3a.75.75 0 1 0 0 1.501h17.001a.75.75 0 0 0 0-1.5H17.41a1.25 1.25 0 0 1-1.173-.91l-.097-.291-.014-.044c-.069-.205-.128-.384-.211-.544a2.25 2.25 0 0 0-1.641-1.183 3.733 3.733 0 0 0-.583-.028h-3.336Zm-1.21 2.685c-.04.109-.085.214-.137.315h5.984a2.764 2.764 0 0 1-.136-.314l-.04-.114-.099-.3a3.114 3.114 0 0 0-.133-.368.75.75 0 0 0-.547-.395 3.114 3.114 0 0 0-.392-.009h-3.29c-.288 0-.348.002-.392.01a.75.75 0 0 0-.547.394c-.02.04-.042.095-.133.369l-.1.3-.038.112Z" clip-rule="evenodd"/>
</svg>
