<svg xmlns="http://www.w3.org/2000/svg" width="24" height="24" fill="none">
  <path fill="#1C274C" fill-rule="evenodd" d="M15 2.75a1.25 1.25 0 1 0 0 2.5 1.25 1.25 0 0 0 0-2.5ZM12.25 4a2.75 2.75 0 1 1 5.5 0 2.75 2.75 0 0 1-5.5 0ZM7.258 5.392a2.654 2.654 0 0 1 2.452-.19c1.726.74 2.16 2.99.832 4.317l-.33.33a4.24 4.24 0 0 0-.194.198 1.25 1.25 0 0 0 .078 1.72c.027.026.068.06.212.18l.01.009a3.75 3.75 0 0 1 1.429 2.808c.003.07.003.143.003.248V16a.75.75 0 0 1-1.5 0v-.974c0-.124 0-.167-.002-.206a2.25 2.25 0 0 0-.743-1.588 6.191 6.191 0 0 0-.158-.133l-.02-.018a5.26 5.26 0 0 1-.271-.234 2.75 2.75 0 0 1-.172-3.782c.065-.075.145-.154.248-.258l.02-.02.329-.329a1.154 1.154 0 0 0-1.428-1.794L4.897 8.636a.75.75 0 0 1-.795-1.272l3.156-1.972Zm15.477 1.46a.75.75 0 0 1-.588.883 2.88 2.88 0 0 0-2.284 2.398l-.92 6.14a3.261 3.261 0 1 1 .546 6.477H3.087a1.837 1.837 0 0 1-.317-3.646l14.615-2.558.995-6.636a4.38 4.38 0 0 1 3.473-3.645.75.75 0 0 1 .882.588ZM11.79 9.763a.75.75 0 0 1 .948-.474c.82.274 1.706.274 2.526 0a.75.75 0 0 1 .474 1.423 5.493 5.493 0 0 1-3.474 0 .75.75 0 0 1-.474-.948ZM7.53 13.47a.75.75 0 0 1 0 1.06 5.871 5.871 0 0 1-4.151 1.72H3a.75.75 0 0 1 0-1.5h.379c1.159 0 2.27-.46 3.09-1.28a.75.75 0 0 1 1.061 0Zm13.72 6.019a1.761 1.761 0 0 0-2.065-1.735L3.03 20.581a.337.337 0 0 0 .058.669H19.49a1.76 1.76 0 0 0 1.761-1.761Z" clip-rule="evenodd"/>
</svg>
