<svg xmlns="http://www.w3.org/2000/svg" width="24" height="24" fill="none">
  <path fill="#1C274C" fill-rule="evenodd" d="M20.5 14V6.137c0-.388 0-.582-.018-.714-.123-.916-.636-1.478-1.537-1.684-.13-.03-.402-.054-.945-.103-1.002-.091-2.183-.44-3.231-.822C13.275 2.271 12.529 2 12 2c-.529 0-1.275.271-2.769.814-1.048.382-2.23.73-3.231.822-.543.049-.814.074-.945.103-.9.206-1.414.768-1.537 1.684-.018.132-.018.326-.018.714V14h17Zm-9.47-7.53a.75.75 0 0 1 0 1.06l-1 1a.75.75 0 1 1-1.06-1.06l1-1a.75.75 0 0 1 1.06 0Zm3 1a.75.75 0 0 1 0 1.06l-3 3a.75.75 0 1 1-1.06-1.06l3-3a.75.75 0 0 1 1.06 0Zm1 3a.75.75 0 0 1 0 1.06l-1 1a.75.75 0 1 1-1.06-1.06l1-1a.75.75 0 0 1 1.06 0ZM3 15h8.25v6H8c-.877 0-1.619 0-2.25-.026V22a.75.75 0 0 1-1.5 0v-1.19c-.58-.125-1.019-.336-1.371-.689-.768-.768-.865-1.946-.877-4.12A.997.997 0 0 1 3 15Zm3.25 3a.75.75 0 0 1 .75-.75h2a.75.75 0 0 1 0 1.5H7a.75.75 0 0 1-.75-.75ZM16 21h-3.25v-6H21a.997.997 0 0 1 .998 1c-.012 2.175-.108 3.353-.876 4.121-.353.353-.791.564-1.372.69V22a.75.75 0 0 1-1.5 0v-1.026C17.619 21 16.877 21 16 21Zm-1-3.75a.75.75 0 0 0 0 1.5h2a.75.75 0 0 0 0-1.5h-2Z" clip-rule="evenodd"/>
</svg>
