<svg xmlns="http://www.w3.org/2000/svg" width="24" height="24" fill="none">
  <path fill="#1C274C" fill-rule="evenodd" d="M11.2 2.92c-.418.13-.958.325-1.712.6-1.066.387-2.32.763-3.42.863-.274.025-.47.043-.616.058a5.279 5.279 0 0 0-.213.027l-.013.002h-.004c-.334.077-.54.205-.673.35-.133.146-.242.363-.288.703-.009.07-.01.196-.01.615v8.112h15.5V6.138c0-.419-.003-.546-.012-.615-.046-.34-.155-.557-.287-.702-.133-.146-.34-.274-.674-.35l-.004-.001-.012-.002a48.276 48.276 0 0 0-.83-.085c-1.1-.1-2.353-.476-3.42-.864a41.408 41.408 0 0 0-1.71-.599c-.424-.131-.655-.17-.802-.17-.147 0-.377.039-.8.17Zm10.05 11.348V6.072c0-.324 0-.565-.024-.749-.078-.576-.287-1.098-.667-1.514-.38-.416-.88-.671-1.447-.8-.181-.042-.494-.07-.944-.111a239.7 239.7 0 0 1-.1-.01c-.904-.081-2.012-.403-3.043-.778l-.02-.007a41.59 41.59 0 0 0-1.76-.616c-.456-.14-.863-.237-1.245-.237-.381 0-.789.096-1.244.237-.457.141-1.031.35-1.761.616l-.02.007c-1.03.375-2.139.697-3.043.779l-.1.009c-.45.04-.762.07-.943.11-.567.13-1.068.385-1.448.801-.38.416-.589.938-.666 1.514a6.242 6.242 0 0 0-.025.749v8.196a1.746 1.746 0 0 0-1.498 1.736c.006 1.082.032 1.983.167 2.72.14.758.405 1.403.93 1.928.52.52 1.157.784 1.901.924V22a.75.75 0 0 0 1.5 0v-.276c.64.026 1.369.026 2.195.026h8.11c.826 0 1.556 0 2.195-.026V22a.75.75 0 0 0 1.5 0v-.424c.745-.14 1.382-.404 1.902-.924.525-.525.79-1.17.93-1.928.135-.737.16-1.638.166-2.72a1.746 1.746 0 0 0-1.498-1.736Zm-8.5 5.982H16c1.436 0 2.437-.002 3.192-.103.734-.099 1.122-.28 1.4-.556.243-.243.41-.571.514-1.138.108-.588.136-1.363.142-2.457A.247.247 0 0 0 21 15.75h-8.25v4.5Zm-1.5-4.5v4.5H8c-1.435 0-2.436-.002-3.192-.103-.733-.099-1.122-.28-1.399-.556-.243-.243-.41-.571-.514-1.138-.109-.588-.137-1.363-.143-2.457 0-.133.108-.246.248-.246h8.25Zm-.22-9.28a.75.75 0 0 1 0 1.06l-1 1a.75.75 0 0 1-1.06-1.06l1-1a.75.75 0 0 1 1.06 0Zm3 1a.75.75 0 0 1 0 1.06l-3 3a.75.75 0 0 1-1.06-1.06l3-3a.75.75 0 0 1 1.06 0Zm1 3a.75.75 0 0 1 0 1.06l-1 1a.75.75 0 0 1-1.06-1.06l1-1a.75.75 0 0 1 1.06 0ZM6.25 18a.75.75 0 0 1 .75-.75h2a.75.75 0 0 1 0 1.5H7a.75.75 0 0 1-.75-.75Zm8 0a.75.75 0 0 1 .75-.75h2a.75.75 0 0 1 0 1.5h-2a.75.75 0 0 1-.75-.75Z" clip-rule="evenodd"/>
</svg>
