<svg xmlns="http://www.w3.org/2000/svg" width="24" height="24" fill="none">
  <path stroke="#1C274C" stroke-linecap="round" stroke-width="1.5" d="M2.731 9c.876-.75 2.274-1.373 3.996-1.79m-3.996 5.442C4.355 14.042 7.774 15 11.73 15c5.524 0 10.002-1.869 10.002-4.174 0-1.167-1.148-2.223-3-2.98a13.96 13.96 0 0 0-2.001-.635M11.729 9c-3.191 0-4.388-.532-4.802-.82-.146-.1-.2-.274-.2-.451A4.73 4.73 0 0 1 11.457 3H12a4.73 4.73 0 0 1 4.73 4.729c0 .177-.054.35-.2.452-.281.195-.922.502-2.3.68M11.729 21v-3m6.001 2v-3M5.727 20v-3"/>
  <path fill="#1C274C" d="M12.5 12a1 1 0 1 1-2 0 1 1 0 0 1 2 0Zm-5-1a1 1 0 1 1-2 0 1 1 0 0 1 2 0Zm10 0a1 1 0 1 1-2 0 1 1 0 0 1 2 0Z"/>
</svg>
