<svg xmlns="http://www.w3.org/2000/svg" width="24" height="24" fill="none">
  <path stroke="#1C274C" stroke-width="1.5" d="M18.922 12.15c1.603 2.623 2.072 5 .98 6.091-1.63 1.63-6.118-.214-10.023-4.12C5.974 10.217 4.129 5.73 5.759 4.1c1.092-1.092 3.468-.624 6.092.98"/>
  <path stroke="#1C274C" stroke-width="1.5" d="M11.485 5.445a4.729 4.729 0 0 1 6.687 0l.384.383a4.729 4.729 0 0 1 0 6.688c-.126.125-.287.21-.461.178-.496-.09-1.718-.56-3.974-2.815-2.255-2.256-2.726-3.477-2.815-3.974-.03-.174.053-.335.179-.46Z"/>
  <circle cx="12" cy="12" r="1" fill="#1C274C" transform="rotate(45 12 12)"/>
  <circle cx="9.171" cy="7.757" r="1" fill="#1C274C" transform="rotate(45 9.171 7.757)"/>
  <circle cx="16.243" cy="14.828" r="1" fill="#1C274C" transform="rotate(45 16.243 14.828)"/>
  <path stroke="#1C274C" stroke-linecap="round" stroke-width="1.5" d="m3.636 20.363 4.121-4.12M10 22l2.707-2.222M2 14l2.222-2.707"/>
</svg>
