<svg xmlns="http://www.w3.org/2000/svg" width="24" height="24" fill="none">
  <g stroke="#1C274C" stroke-width="1.5">
    <path d="M2 12c0-4.714 0-7.071 1.464-8.536C4.93 2 7.286 2 12 2c4.714 0 7.071 0 8.535 1.464C22 4.93 22 7.286 22 12c0 4.714 0 7.071-1.465 8.535C19.072 22 16.714 22 12 22s-7.071 0-8.536-1.465C2 19.072 2 16.714 2 12Z"/>
    <path stroke-linecap="round" stroke-linejoin="round" d="M17.5 9.5H9.962a3.462 3.462 0 1 0 0 6.923H14.5m3-6.923-2.25-2.077M17.5 9.5l-2.25 2.077"/>
  </g>
</svg>
