<svg xmlns="http://www.w3.org/2000/svg" width="24" height="24" fill="none">
  <g fill="#1C274C">
    <path d="M15.759 6.873a.75.75 0 1 0-1.018 1.102l.84.776H9.925c-.652 0-1.196 0-1.637.043-.462.046-.89.146-1.28.397a2.75 2.75 0 0 0-.816.817c-.252.389-.351.818-.397 1.28-.044.44-.044.985-.044 1.637V13c0 .652 0 1.196.044 1.637.045.462.145.89.397 1.28.21.327.49.605.816.816.39.252.818.351 1.28.397.44.044.985.044 1.637.044H14.5a.75.75 0 0 0 0-1.5H9.962c-.7 0-1.169-.001-1.527-.037-.347-.034-.507-.095-.614-.164a1.25 1.25 0 0 1-.37-.37c-.07-.107-.13-.268-.165-.614-.035-.358-.036-.828-.036-1.527s0-1.168.036-1.527c.035-.346.096-.507.164-.613a1.25 1.25 0 0 1 .371-.371c.107-.069.267-.13.614-.164.358-.035.827-.036 1.527-.036h5.62l-.84.776a.75.75 0 1 0 1.017 1.102l2.25-2.077a.75.75 0 0 0 0-1.102l-2.25-2.077Z"/>
    <path fill-rule="evenodd" d="M11.943 1.25c-2.309 0-4.118 0-5.53.19-1.444.194-2.584.6-3.479 1.494-.895.895-1.3 2.035-1.494 3.48-.19 1.411-.19 3.22-.19 5.529v.114c0 2.309 0 4.118.19 5.53.194 1.444.6 2.584 1.494 3.479.895.895 2.035 1.3 3.48 1.494 1.411.19 3.22.19 5.529.19h.114c2.309 0 4.118 0 5.53-.19 1.444-.194 2.584-.6 3.479-1.494.895-.895 1.3-2.035 1.494-3.48.19-1.411.19-3.22.19-5.529v-.114c0-2.309 0-4.118-.19-5.53-.194-1.444-.6-2.584-1.494-3.479-.895-.895-2.035-1.3-3.48-1.494-1.411-.19-3.22-.19-5.529-.19h-.114ZM3.995 3.995c.57-.57 1.34-.897 2.619-1.069 1.3-.174 3.008-.176 5.386-.176s4.086.002 5.386.176c1.279.172 2.05.5 2.62 1.069.569.57.896 1.34 1.068 2.619.174 1.3.176 3.008.176 5.386s-.002 4.086-.176 5.386c-.172 1.279-.5 2.05-1.069 2.62-.57.569-1.34.896-2.619 1.068-1.3.174-3.008.176-5.386.176s-4.086-.002-5.386-.176c-1.279-.172-2.05-.5-2.62-1.069-.569-.57-.896-1.34-1.068-2.619-.174-1.3-.176-3.008-.176-5.386s.002-4.086.176-5.386c.172-1.279.5-2.05 1.069-2.62Z" clip-rule="evenodd"/>
  </g>
</svg>
