<svg xmlns="http://www.w3.org/2000/svg" width="24" height="24" fill="none">
  <path fill="#1C274C" fill-rule="evenodd" d="M12 2.75a9.25 9.25 0 1 0 1.85 18.315.75.75 0 1 1 .3 1.47 10.82 10.82 0 0 1-2.15.215C6.063 22.75 1.25 17.937 1.25 12S6.063 1.25 12 1.25 22.75 6.063 22.75 12c0 .735-.074 1.454-.215 2.15a.75.75 0 0 1-1.47-.3A9.25 9.25 0 0 0 12 2.75Zm.768 5.776a.96.96 0 0 0-.012.117 11.44 11.44 0 0 0-.006.528 6.622 6.622 0 0 0 .005.259.25.25 0 0 0 .093.15 6.687 6.687 0 0 0 .23.12l1.316.658c.224.113.366.183.474.23.07.03.102.04.11.043a.25.25 0 0 0 .254-.157.964.964 0 0 0 .012-.117c.006-.118.006-.277.006-.528a6.622 6.622 0 0 0-.005-.259.25.25 0 0 0-.093-.15 6.714 6.714 0 0 0-.23-.12l-1.316-.658a11.449 11.449 0 0 0-.474-.23.974.974 0 0 0-.11-.043.25.25 0 0 0-.254.157Zm-.018 2.688.99.494c.203.102.38.19.529.255.15.066.33.134.528.157a1.75 1.75 0 0 0 1.848-1.142 1.87 1.87 0 0 0 .096-.543c.009-.162.009-.36.009-.587v-.059c0-.163 0-.334-.031-.5a1.75 1.75 0 0 0-.656-1.061 2.64 2.64 0 0 0-.433-.251l-.036-.019-1.334-.666a12.11 12.11 0 0 0-.529-.256 1.868 1.868 0 0 0-.528-.156 1.75 1.75 0 0 0-1.848 1.142 1.87 1.87 0 0 0-.097.543A8.912 8.912 0 0 0 11.25 9v3.55a2.75 2.75 0 1 0 1.5 2.45v-3.787ZM11.25 15a1.25 1.25 0 1 0-2.5 0 1.25 1.25 0 0 0 2.5 0Zm6.22-.53a.75.75 0 0 1 1.06 0l2.5 2.5a.75.75 0 1 1-1.06 1.06l-1.22-1.22V22a.75.75 0 0 1-1.5 0v-5.19l-1.22 1.22a.75.75 0 1 1-1.06-1.06l2.5-2.5Z" clip-rule="evenodd"/>
</svg>
