<svg xmlns="http://www.w3.org/2000/svg" width="24" height="24" fill="none">
  <g fill="#1C274C">
    <path d="M18.357 1.614a.75.75 0 0 1 1.029-.257L19 2l.386-.643h.001l.002.002.003.002.01.006a1.658 1.658 0 0 1 .114.076c.07.049.165.12.277.212.222.185.512.462.802.838.582.757 1.155 1.914 1.155 3.507 0 1.593-.573 2.75-1.155 3.507-.29.376-.58.653-.802.838a4.16 4.16 0 0 1-.378.28l-.013.008-.01.006-.003.002-.002.001s-.001.001-.387-.642l.386.643a.75.75 0 0 1-.776-1.283l.005-.004.04-.027c.04-.028.101-.073.177-.136.153-.128.363-.326.573-.6.418-.543.845-1.386.845-2.593s-.427-2.05-.845-2.593a3.805 3.805 0 0 0-.573-.6 2.673 2.673 0 0 0-.217-.163l-.005-.004a.75.75 0 0 1-.253-1.026ZM10 10a4 4 0 1 0 0-8 4 4 0 0 0 0 8Zm-8 7.5c0 2.485 0 4.5 8 4.5s8-2.015 8-4.5-3.582-4.5-8-4.5-8 2.015-8 4.5Z"/>
    <path d="M17.386 3.357a.75.75 0 0 0-1.03.257l.25 1.024.007.005a1.524 1.524 0 0 1 .293.29A1.7 1.7 0 0 1 17.25 6a1.7 1.7 0 0 1-.345 1.068 1.525 1.525 0 0 1-.292.29l-.008.004a.75.75 0 0 0 .78 1.281L17 8l.386.643h.001l.002-.002.003-.001.007-.005.02-.012a1.88 1.88 0 0 0 .217-.162c.129-.107.294-.265.459-.479A3.2 3.2 0 0 0 18.75 6a3.2 3.2 0 0 0-.655-1.982 3.031 3.031 0 0 0-.622-.604 1.876 1.876 0 0 0-.054-.037l-.02-.012-.007-.005-.003-.001-.002-.001S17.386 3.357 17 4l.386-.643Z"/>
  </g>
</svg>
