<svg xmlns="http://www.w3.org/2000/svg" width="24" height="24" fill="none">
  <circle cx="10" cy="6" r="4" stroke="#1C274C" stroke-width="1.5"/>
  <path fill="#1C274C" d="m18.043 12.366.444-.605-.444.605ZM19 8.69l-.519.542a.75.75 0 0 0 1.038 0L19 8.691Zm.957 3.675-.444-.605.444.605Zm-.957.462v.75-.75Zm-.514-1.067c-.417-.307-.878-.69-1.227-1.093-.368-.426-.509-.757-.509-.971h-1.5c0 .77.441 1.45.875 1.952.453.525 1.014.984 1.474 1.321l.887-1.21ZM16.75 9.697c0-.576.263-.827.492-.907.25-.088.714-.06 1.24.443l1.037-1.083c-.825-.79-1.861-1.096-2.773-.776-.933.327-1.496 1.226-1.496 2.323h1.5Zm3.65 3.273c.46-.337 1.022-.796 1.475-1.32.434-.502.875-1.183.875-1.953h-1.5c0 .214-.141.545-.51.971-.348.403-.809.786-1.226 1.093l.887 1.21Zm2.35-3.273c0-1.097-.563-1.996-1.496-2.323-.912-.32-1.948-.014-2.773.776l1.038 1.083c.525-.503.989-.531 1.24-.443.228.08.491.33.491.907h1.5ZM17.6 12.97c.368.27.782.608 1.4.608v-1.5c-.024 0-.04 0-.094-.03a4 4 0 0 1-.42-.287l-.887 1.21Zm1.913-1.21a4 4 0 0 1-.42.289c-.053.029-.069.029-.093.029v1.5c.618 0 1.032-.337 1.4-.608l-.886-1.21Z"/>
  <path stroke="#1C274C" stroke-linecap="round" stroke-width="1.5" d="M13 20.615c-.91.247-1.926.385-3 .385-3.866 0-7-1.79-7-4s3.134-4 7-4 7 1.79 7 4c0 .345-.077.68-.22 1"/>
</svg>
