<svg xmlns="http://www.w3.org/2000/svg" width="24" height="24" fill="none">
  <g fill="#1C274C">
    <path fill-rule="evenodd" d="M7.25 6a4.75 4.75 0 1 1 9.5 0 4.75 4.75 0 0 1-9.5 0ZM12 2.75a3.25 3.25 0 1 0 0 6.5 3.25 3.25 0 0 0 0-6.5Z" clip-rule="evenodd"/>
    <path d="M7.422 14.823C6.267 15.483 5.75 16.28 5.75 17s.517 1.517 1.672 2.177c1.134.648 2.751 1.073 4.578 1.073 1.234 0 2.377-.194 3.342-.523a.75.75 0 1 1 .484 1.42c-1.132.386-2.44.603-3.826.603-2.04 0-3.922-.47-5.322-1.27C5.3 19.692 4.25 18.49 4.25 17s1.05-2.692 2.428-3.48c1.4-.8 3.283-1.27 5.322-1.27 2.73 0 5.227.848 6.619 2.245a.75.75 0 0 1-1.063 1.058c-1.017-1.02-3.07-1.803-5.556-1.803-1.827 0-3.444.425-4.578 1.073Z"/>
    <path d="M18.53 16.97a.75.75 0 1 0-1.06 1.06l.47.47-.47.47a.75.75 0 1 0 1.06 1.06l.47-.47.47.47a.75.75 0 1 0 1.06-1.06l-.47-.47.47-.47a.75.75 0 1 0-1.06-1.06l-.47.47-.47-.47Z"/>
  </g>
</svg>
