<svg xmlns="http://www.w3.org/2000/svg" width="24" height="24" fill="none">
  <g fill="#1C274C">
    <path fill-rule="evenodd" d="M12 1.25a4.75 4.75 0 1 0 0 9.5 4.75 4.75 0 0 0 0-9.5ZM8.75 6a3.25 3.25 0 1 1 6.5 0 3.25 3.25 0 0 1-6.5 0Zm5.5 12a3.75 3.75 0 1 1 7.5 0 3.75 3.75 0 0 1-7.5 0Zm1.72.97 3-3a2.25 2.25 0 0 0-3 3ZM18 20.25a2.24 2.24 0 0 1-.97-.22l3-3A2.25 2.25 0 0 1 18 20.25Z" clip-rule="evenodd"/>
    <path d="M5.75 17c0-.72.517-1.517 1.672-2.177 1.134-.648 2.751-1.073 4.578-1.073.829 0 1.618.088 2.34.245a.75.75 0 1 0 .32-1.465 12.5 12.5 0 0 0-2.66-.28c-2.04 0-3.922.47-5.322 1.27C5.3 14.308 4.25 15.51 4.25 17s1.05 2.692 2.428 3.48c1.4.8 3.283 1.27 5.322 1.27.36 0 .714-.015 1.061-.043a.75.75 0 1 0-.122-1.495c-.306.025-.62.038-.939.038-1.827 0-3.444-.425-4.578-1.073C6.267 18.517 5.75 17.72 5.75 17Z"/>
  </g>
</svg>
