<svg xmlns="http://www.w3.org/2000/svg" width="24" height="24" fill="none">
  <g fill="#1C274C">
    <path d="M14 4h-4C6.229 4 4.343 4 3.172 5.172 2 6.343 2 8.229 2 12c0 3.771 0 5.657 1.172 6.828C4.343 20 6.229 20 10 20h4c3.771 0 5.657 0 6.828-1.172C22 17.657 22 15.771 22 12c0-3.771 0-5.657-1.172-6.828C19.657 4 17.771 4 14 4Z" opacity=".5"/>
    <path d="M13.25 9a.75.75 0 0 1 .75-.75h5a.75.75 0 0 1 0 1.5h-5a.75.75 0 0 1-.75-.75Zm1 3a.75.75 0 0 1 .75-.75h4a.75.75 0 0 1 0 1.5h-4a.75.75 0 0 1-.75-.75Zm1 3a.75.75 0 0 1 .75-.75h3a.75.75 0 0 1 0 1.5h-3a.75.75 0 0 1-.75-.75ZM9 11a2 2 0 1 0 0-4 2 2 0 0 0 0 4Zm0 6c4 0 4-.895 4-2s-1.79-2-4-2-4 .895-4 2 0 2 4 2Z"/>
  </g>
</svg>
