<svg xmlns="http://www.w3.org/2000/svg" width="24" height="24" fill="none">
  <g fill="#1C274C">
    <circle cx="12" cy="6" r="4"/>
    <path fill-rule="evenodd" d="M19 16.336a.75.75 0 0 1 .75.75v.664h.664a.75.75 0 0 1 0 1.5h-.664v.664a.75.75 0 1 1-1.5 0v-.664h-.664a.75.75 0 0 1 0-1.5h.664v-.664a.75.75 0 0 1 .75-.75Z" clip-rule="evenodd"/>
    <path d="M16.142 20.226C14.982 20.713 13.55 21 12 21c-3.866 0-7-1.79-7-4s3.134-4 7-4c2.61 0 4.887.816 6.09 2.027a2.257 2.257 0 0 0-1.223 1.34 2.251 2.251 0 0 0-.725 3.858Z"/>
  </g>
</svg>
