<svg xmlns="http://www.w3.org/2000/svg" width="24" height="24" fill="none">
  <g fill="#1C274C">
    <circle cx="12" cy="6" r="4"/>
    <path fill-rule="evenodd" d="M17.47 16.97a.75.75 0 0 1 1.06 0l.47.47.47-.47a.75.75 0 1 1 1.06 1.06l-.47.47.47.47a.75.75 0 1 1-1.06 1.06l-.47-.47-.47.47a.75.75 0 1 1-1.06-1.06l.47-.47-.47-.47a.75.75 0 0 1 0-1.06Z" clip-rule="evenodd"/>
    <path d="M18.314 15.272a2.251 2.251 0 0 0-2.33 3.228 2.256 2.256 0 0 0-.08 1.821c-1.115.43-2.458.68-3.904.68-3.866 0-7-1.79-7-4s3.134-4 7-4c2.782 0 5.185.928 6.314 2.27Z"/>
  </g>
</svg>
