<svg xmlns="http://www.w3.org/2000/svg" width="24" height="24" fill="none">
  <g fill="#1C274C">
    <path fill-rule="evenodd" d="M12 1.25a4.75 4.75 0 1 0 0 9.5 4.75 4.75 0 0 0 0-9.5ZM8.75 6a3.25 3.25 0 1 1 6.5 0 3.25 3.25 0 0 1-6.5 0Z" clip-rule="evenodd"/>
    <path d="M5.75 17c0-.72.517-1.517 1.673-2.177 1.134-.648 2.75-1.073 4.577-1.073 1.2 0 2.316.184 3.265.497a.75.75 0 1 0 .47-1.424c-1.11-.367-2.385-.573-3.735-.573-2.04 0-3.922.47-5.322 1.27C5.3 14.308 4.25 15.51 4.25 17v.1c-.001 1.025-.003 2.355 1.147 3.306.567.47 1.355.798 2.405 1.014 1.054.217 2.422.33 4.198.33.357 0 .697-.005 1.021-.014a.75.75 0 1 0-.042-1.499c-.309.009-.635.013-.979.013-1.724 0-2.98-.11-3.896-.299-.918-.189-1.443-.446-1.75-.7-.563-.466-.604-1.08-.604-2.251Z"/>
    <path fill-rule="evenodd" d="M18 15.25a3.75 3.75 0 1 0 0 7.5 3.75 3.75 0 0 0 0-7.5Zm.97 1.72-3 3a2.25 2.25 0 0 1 3-3Zm-1.94 4.06a2.25 2.25 0 0 0 3-3l-3 3Z" clip-rule="evenodd"/>
  </g>
</svg>
