<svg xmlns="http://www.w3.org/2000/svg" width="24" height="24" fill="none">
  <g stroke="#1C274C" stroke-width="1.5">
    <path d="M2.906 13.793c-.422-3.164-.633-4.745.263-5.77C4.066 7 5.661 7 8.853 7h6.294c3.191 0 4.787 0 5.684 1.024.896 1.024.685 2.605.263 5.769l-.4 3c-.33 2.48-.496 3.721-1.345 4.464-.848.743-2.1.743-4.602.743H9.253c-2.503 0-3.754 0-4.603-.743-.848-.743-1.014-1.983-1.344-4.464l-.4-3Z"/>
    <path d="M19.562 7a2.132 2.132 0 0 0-2.1-2.5H6.538a2.132 2.132 0 0 0-2.1 2.5M17.5 4.5c.028-.26.043-.389.043-.496a2 2 0 0 0-1.787-1.993C15.65 2 15.52 2 15.26 2H8.74c-.26 0-.39 0-.497.011a2 2 0 0 0-1.787 1.993c0 .107.015.237.043.496" opacity=".5"/>
    <path d="M13.888 12.693c1.075.767 1.612 1.15 1.612 1.807 0 .656-.537 1.04-1.612 1.807a15.27 15.27 0 0 1-.862.577c-.237.146-.506.297-.784.445-1.073.57-1.609.856-2.09.54-.48-.316-.524-.977-.612-2.3A16.59 16.59 0 0 1 9.5 14.5c0-.329.016-.695.04-1.07.088-1.322.132-1.983.612-2.3.481-.315 1.018-.03 2.09.54.278.149.547.3.784.446.27.166.565.365.862.577Z"/>
  </g>
</svg>
