<svg xmlns="http://www.w3.org/2000/svg" width="24" height="24" fill="none">
  <g fill="#1C274C">
    <path d="M8.859 2h6.282c.21 0 .37 0 .51.015a2.623 2.623 0 0 1 2.159 1.672H6.19a2.623 2.623 0 0 1 2.159-1.672c.14-.015.3-.015.51-.015ZM6.88 4.723c-1.252 0-2.278.84-2.62 1.954a2.8 2.8 0 0 0-.021.07c.358-.12.73-.2 1.108-.253.973-.139 2.202-.139 3.629-.139h6.203c1.427 0 2.656 0 3.629.139.377.054.75.132 1.108.253a2.76 2.76 0 0 0-.02-.07c-.343-1.114-1.369-1.954-2.62-1.954H6.879Z"/>
    <path fill-rule="evenodd" d="M3.596 8.529c-.853.987-.652 2.511-.25 5.56l.38 2.892c.315 2.391.472 3.587 1.28 4.303.807.716 1.998.716 4.38.716h5.228c2.382 0 3.573 0 4.38-.716.808-.716.965-1.912 1.28-4.303l.38-2.892c.402-3.049.603-4.573-.25-5.56-.853-.987-2.372-.987-5.41-.987H9.006c-3.037 0-4.556 0-5.409.987Zm8.917 2.848.053.029c.272.147.542.3.784.45.276.172.57.375.861.585l.046.033c.472.341.9.65 1.2.96.341.352.588.775.588 1.337 0 .562-.247.985-.588 1.337-.3.31-.728.619-1.2.96l-.046.033c-.29.21-.585.412-.86.584-.243.15-.513.304-.786.45l-.052.03c-.465.25-.898.483-1.274.603-.438.14-.922.165-1.39-.146-.447-.297-.638-.743-.736-1.192-.09-.411-.124-.936-.163-1.528l-.003-.053c-.024-.37-.04-.74-.04-1.078 0-.338.016-.708.04-1.079l.003-.053c.039-.591.073-1.116.163-1.527.098-.45.29-.895.737-1.193.467-.31.952-.284 1.389-.145.376.12.81.353 1.274.604Zm-1.88.75c.013-.008.015-.007.015-.007.011 0 .058 0 .163.033.234.075.548.24 1.084.53.257.138.499.275.708.406.239.148.504.33.779.529.533.385.854.62 1.056.829.17.175.18.254.18.324s-.01.149-.18.324c-.202.208-.523.444-1.056.83-.275.198-.54.38-.78.528-.208.13-.45.268-.707.407-.536.288-.85.454-1.084.529a.492.492 0 0 1-.163.032s-.002.002-.014-.007l-.002-.001c-.014-.009-.07-.043-.125-.296-.063-.29-.092-.702-.136-1.363a15.474 15.474 0 0 1-.036-.983c0-.296.013-.632.036-.983.044-.661.072-1.074.136-1.364.055-.252.111-.287.125-.295l.002-.001Z" clip-rule="evenodd"/>
  </g>
</svg>
