<svg xmlns="http://www.w3.org/2000/svg" width="24" height="24" fill="none">
  <g fill="#1C274C">
    <path fill-rule="evenodd" d="M14.995 7.542h-5.99c-3.037 0-4.556 0-5.409.987-.853.987-.652 2.511-.25 5.56l.38 2.892c.315 2.391.472 3.587 1.28 4.303.807.716 1.998.716 4.38.716h5.228c2.382 0 3.573 0 4.38-.716.808-.716.965-1.912 1.28-4.303l.38-2.892c.402-3.049.603-4.573-.25-5.56-.853-.987-2.372-.987-5.41-.987Zm-4.347 4.578-.014.008h-.002c-.014.01-.07.044-.125.296-.064.29-.092.703-.136 1.364-.023.35-.037.687-.037.983 0 .295.014.632.037.983.043.661.072 1.073.136 1.363.055.253.11.287.125.296h.002c.012.01.014.008.014.008a.487.487 0 0 0 .163-.032c.234-.075.548-.24 1.084-.53.257-.138.498-.276.708-.406.239-.148.504-.33.779-.529.533-.385.854-.62 1.056-.829.17-.175.179-.254.179-.324s-.01-.149-.18-.325c-.2-.207-.522-.443-1.055-.829-.275-.198-.54-.38-.78-.529a13.04 13.04 0 0 0-.707-.406c-.536-.289-.85-.455-1.084-.53a.493.493 0 0 0-.163-.032Z" clip-rule="evenodd"/>
    <path d="M6.88 4.723c-1.252 0-2.279.84-2.621 1.953a2.771 2.771 0 0 0-.02.07c.358-.12.73-.199 1.108-.253.972-.138 2.201-.138 3.629-.138h6.202c1.428 0 2.657 0 3.63.138.377.054.75.133 1.108.253a2.785 2.785 0 0 0-.02-.07c-.343-1.114-1.37-1.953-2.62-1.953H6.878Z" opacity=".7"/>
    <path d="M8.858 2h6.283c.209 0 .37 0 .51.015a2.623 2.623 0 0 1 2.159 1.672H6.19a2.623 2.623 0 0 1 2.159-1.672c.14-.015.3-.015.51-.015Z" opacity=".4"/>
  </g>
</svg>
