<svg xmlns="http://www.w3.org/2000/svg" width="24" height="24" fill="none">
  <path fill="#1C274C" fill-rule="evenodd" d="M11.943 1.25h.114c2.309 0 4.118 0 5.53.19 1.444.194 2.584.6 3.479 1.494.895.895 1.3 2.035 1.494 3.48.19 1.411.19 3.22.19 5.529v.114c0 2.309 0 4.118-.19 5.53-.194 1.444-.6 2.584-1.494 3.479-.895.895-2.035 1.3-3.48 1.494-1.411.19-3.22.19-5.529.19h-.114c-2.309 0-4.118 0-5.53-.19-1.444-.194-2.584-.6-3.479-1.494-.895-.895-1.3-2.035-1.494-3.48-.19-1.411-.19-3.22-.19-5.529v-.114c0-2.309 0-4.118.19-5.53.194-1.444.6-2.584 1.494-3.479.895-.895 2.035-1.3 3.48-1.494 1.411-.19 3.22-.19 5.529-.19ZM6.25 2.982c-1.065.183-1.742.5-2.255 1.013-.514.513-.83 1.19-1.013 2.255H6.25V2.982Zm1.5-.162v3.43h3.5v-3.5c-1.395.002-2.54.011-3.5.07Zm5-.07v3.5h3.5V2.82c-.96-.059-2.105-.068-3.5-.07Zm5 .232V6.25h3.268c-.183-1.065-.5-1.742-1.013-2.255-.513-.514-1.19-.83-2.255-1.013Zm3.43 4.768H12s.001 0 0 0H2.82c-.07 1.126-.07 2.508-.07 4.25s0 3.124.07 4.25h18.36c.07-1.126.07-2.508.07-4.25s0-3.124-.07-4.25Zm-.162 10H17.75v3.268c1.065-.183 1.742-.5 2.255-1.013.514-.513.83-1.19 1.013-2.255Zm-4.768 3.43v-3.43h-3.5v3.5c1.395-.002 2.54-.011 3.5-.07Zm-5 .07v-3.5h-3.5v3.43c.96.059 2.105.068 3.5.07Zm-5-.232V17.75H2.982c.183 1.065.5 1.742 1.013 2.255.513.514 1.19.83 2.255 1.013Zm6.53-11.27.05.034.046.031c.49.33.927.623 1.235.907.334.307.639.714.639 1.28 0 .566-.305.973-.639 1.28-.308.284-.745.578-1.235.907l-.046.031-.05.034c-.494.332-.938.63-1.312.803-.392.181-.949.336-1.482-.016-.49-.324-.624-.866-.68-1.3-.056-.439-.056-1.016-.056-1.688v-.102c0-.672 0-1.25.056-1.688.056-.434.19-.976.68-1.3.533-.352 1.09-.198 1.482-.016.373.173.818.471 1.311.803Zm-1.96.55.018.008c.251.116.595.344 1.155.72.55.371.89.601 1.102.797a.775.775 0 0 1 .154.177.775.775 0 0 1-.155.177c-.212.196-.55.426-1.101.796-.56.377-.904.605-1.155.72l-.019.01a1.864 1.864 0 0 1-.025-.154c-.043-.332-.044-.811-.044-1.549 0-.738.002-1.217.044-1.55.008-.063.017-.113.025-.152Z" clip-rule="evenodd"/>
</svg>
