<svg xmlns="http://www.w3.org/2000/svg" width="24" height="24" fill="none">
  <path fill="#1C274C" d="m2.976 2.879.502.557-.502-.557Zm0 16.242.502-.557-.502.557ZM6.25 20a.75.75 0 0 0 1.5 0h-1.5Zm1.5-18a.75.75 0 1 0-1.5 0h1.5ZM7 7v.75V7Zm-5-.75a.75.75 0 0 0 0 1.5v-1.5ZM12 20v.75h.75V20H12ZM2 15.25a.75.75 0 0 0 0 1.5v-1.5ZM21.024 4.879l-.502.557.502-.557Zm0 16.242-.502-.557.502.557ZM16.25 22a.75.75 0 0 0 1.5 0h-1.5Zm1.5-18a.75.75 0 0 0-1.5 0h1.5ZM17 9v.75V9Zm-5-5v-.75h-.75V4H12Zm10 5.75a.75.75 0 0 0 0-1.5v1.5Zm0 9a.75.75 0 0 0 0-1.5v1.5ZM12 3h.75H12ZM2.75 14V8h-1.5v6h1.5Zm0-6c0-.356 0-.686.002-.995l-1.5-.01C1.25 7.31 1.25 7.645 1.25 8h1.5Zm.002-.995c.007-1.094.038-1.863.157-2.443.113-.553.293-.877.569-1.126L2.475 2.321c-.578.52-.878 1.169-1.036 1.94-.152.745-.18 1.653-.187 2.734l1.5.01ZM8.667 1.25c-.612 0-1.17 0-1.677.007l.02 1.5c.495-.007 1.042-.007 1.657-.007v-1.5Zm-1.677.007c-1.035.013-1.904.054-2.625.194-.737.143-1.366.398-1.89.87l1.003 1.115c.262-.235.61-.403 1.173-.512.578-.113 1.328-.154 2.359-.168l-.02-1.5ZM8.667 19.25c-.615 0-1.162 0-1.657-.006l-.02 1.5c.507.006 1.065.006 1.677.006v-1.5Zm-1.657-.006c-1.031-.014-1.781-.055-2.359-.168-.562-.109-.911-.277-1.173-.512l-1.003 1.115c.524.472 1.153.727 1.89.87.721.14 1.59.18 2.625.194l.02-1.5ZM1.25 14c0 .76 0 1.435.02 2.025l1.499-.05A62.354 62.354 0 0 1 2.75 14h-1.5Zm.02 2.025c.052 1.553.237 2.783 1.205 3.654l1.003-1.115c-.457-.412-.657-1.035-.71-2.59l-1.498.051ZM6.25 16v3.994h1.5V16h-1.5Zm0 3.994V20h1.5v-.006h-1.5ZM6.25 2v.007h1.5V2h-1.5Zm0 .007V7h1.5V2.007h-1.5Zm5 .993v4h1.5V3h-1.5ZM12 6.25H7v1.5h5v-1.5Zm-5 0H2.002v1.5H7v-1.5Zm-4.998 0H2v1.5h.002v-1.5ZM11.25 7v9h1.5V7h-1.5Zm0 9v4h1.5v-4h-1.5Zm.75-.75H7v1.5h5v-1.5Zm-5 0H2.02v1.5H7v-1.5Zm-4.98 0H2v1.5h.02v-1.5Zm9.98 4H8.667v1.5H12v-1.5ZM8.667 2.75H11v-1.5H8.667v1.5ZM22.75 16v-6h-1.5v6h1.5Zm0-6c0-.354 0-.69-.002-1.005l-1.5.01c.002.31.002.64.002.995h1.5Zm-.002-1.005c-.007-1.08-.035-1.989-.187-2.733-.158-.772-.458-1.42-1.036-1.94l-1.003 1.114c.276.249.456.573.57 1.126.118.58.15 1.349.156 2.443l1.5-.01ZM15.333 4.75c.614 0 1.162 0 1.657.006l.02-1.5c-.507-.006-1.065-.006-1.677-.006v1.5Zm1.657.006c1.031.014 1.781.055 2.359.168.562.109.911.277 1.173.512l1.003-1.115c-.524-.472-1.153-.727-1.89-.87-.721-.14-1.59-.18-2.625-.194l-.02 1.5ZM15.333 22.75c.612 0 1.17 0 1.677-.007l-.02-1.5c-.494.007-1.042.007-1.657.007v1.5Zm1.677-.007c1.035-.013 1.904-.054 2.625-.194.737-.143 1.366-.398 1.89-.87l-1.003-1.115c-.262.235-.61.403-1.173.512-.578.113-1.328.154-2.359.168l.02 1.5ZM21.25 16c0 .768 0 1.415-.019 1.975l1.5.05c.02-.59.019-1.265.019-2.025h-1.5Zm-.019 1.975c-.052 1.554-.252 2.177-.709 2.589l1.003 1.115c.969-.871 1.153-2.1 1.205-3.654l-1.499-.05ZM16.25 18v3.994h1.5V18h-1.5Zm0 3.994V22h1.5v-.006h-1.5ZM16.25 4v.007h1.5V4h-1.5Zm0 .007V9h1.5V4.007h-1.5Zm-5-.007v5h1.5V4h-1.5ZM12 9.75h5v-1.5h-5v1.5Zm5 0h4.998v-1.5H17v1.5Zm4.998 0H22v-1.5h-.002v1.5ZM11.25 9v9h1.5V9h-1.5Zm0 9v3h1.5v-3h-1.5Zm.75.75h5v-1.5h-5v1.5Zm5 0h4.98v-1.5H17v1.5Zm4.98 0H22v-1.5h-.02v1.5Zm-8.98 4h2.333v-1.5H13v1.5Zm2.333-19.5H12v1.5h3.333v-1.5ZM11.25 21c0 .966.784 1.75 1.75 1.75v-1.5a.25.25 0 0 1-.25-.25h-1.5Zm1.5-18A1.75 1.75 0 0 0 11 1.25v1.5a.25.25 0 0 1 .25.25h1.5Z"/>
</svg>
