<svg xmlns="http://www.w3.org/2000/svg" width="24" height="24" fill="none">
  <path fill="#1C274C" fill-rule="evenodd" d="M9.451 3.25h.098c1.602 0 2.872 0 3.876.119 1.03.122 1.88.377 2.588.96.24.197.461.417.659.658.582.709.837 1.557.96 2.588.027.232.048.478.064.739.786-.392 1.452-.714 2.007-.896.652-.213 1.343-.299 1.98.095s.87 1.05.97 1.728c.097.655.097 1.516.097 2.551v.416c0 1.035 0 1.896-.097 2.55-.1.679-.333 1.335-.97 1.729-.637.394-1.328.308-1.98.095-.555-.182-1.221-.504-2.007-.896-.016.261-.037.507-.065.739-.122 1.03-.377 1.88-.96 2.588-.197.24-.417.461-.658.659-.709.582-1.557.837-2.588.96-1.005.118-2.274.118-3.876.118H9.45c-1.602 0-2.872 0-3.876-.119-1.03-.122-1.88-.377-2.588-.96a4.751 4.751 0 0 1-.659-.658c-.582-.709-.837-1.557-.96-2.588-.118-1.005-.118-2.274-.118-3.876V11.45c0-1.602 0-2.872.119-3.876.122-1.03.377-1.88.96-2.588a4.75 4.75 0 0 1 .658-.659c.709-.582 1.557-.837 2.588-.96C6.58 3.25 7.85 3.25 9.451 3.25Zm6.799 9.25v-1c0-1.662-.001-2.843-.108-3.749-.105-.889-.304-1.415-.63-1.813a3.256 3.256 0 0 0-.45-.45c-.398-.326-.924-.525-1.813-.63-.906-.107-2.087-.108-3.749-.108s-2.843.001-3.749.108c-.889.105-1.415.304-1.813.63a3.25 3.25 0 0 0-.45.45c-.326.398-.525.924-.63 1.813-.107.906-.108 2.087-.108 3.749v1c0 1.662.001 2.843.108 3.749.105.889.304 1.415.63 1.813a3.3 3.3 0 0 0 .45.45c.398.326.924.525 1.813.63.906.107 2.087.108 3.749.108s2.843-.001 3.749-.108c.889-.105 1.415-.304 1.813-.63a3.3 3.3 0 0 0 .45-.45c.326-.398.525-.924.63-1.813.107-.906.108-2.087.108-3.749Zm1.5 1.537.244.121c.995.498 1.666.831 2.176.998.499.163.65.1.724.055.074-.046.198-.153.275-.673.079-.53.081-1.28.081-2.392v-.292c0-1.113-.002-1.862-.08-2.392-.078-.52-.202-.627-.276-.673-.074-.046-.225-.108-.724.055-.51.167-1.18.5-2.176.998l-.244.122v4.072ZM9.5 8.75a.75.75 0 0 1 .75.75v1.75H12a.75.75 0 0 1 0 1.5h-1.75v1.75a.75.75 0 0 1-1.5 0v-1.75H7a.75.75 0 0 1 0-1.5h1.75V9.5a.75.75 0 0 1 .75-.75Z" clip-rule="evenodd"/>
</svg>
