<svg xmlns="http://www.w3.org/2000/svg" width="24" height="24" fill="none">
  <path fill="#1C274C" fill-rule="evenodd" d="M4.929 19.071c3.905 3.905 10.237 3.905 14.142 0 3.905-3.905 3.905-10.237 0-14.142-3.905-3.905-10.237-3.905-14.142 0-3.905 3.905-3.905 10.237 0 14.142ZM17.126 6.873a.75.75 0 1 0-1.06 1.061 5.75 5.75 0 0 1 0 8.132.75.75 0 1 0 1.06 1.06 7.25 7.25 0 0 0 0-10.253ZM9.349 9.348a3.75 3.75 0 1 1 5.304 5.304 3.75 3.75 0 0 1-5.304-5.304Zm1.061 1.061a2.25 2.25 0 1 1 3.182 3.182 2.25 2.25 0 0 1-3.182-3.182ZM7.934 7.934a.75.75 0 0 0-1.06-1.06 7.25 7.25 0 0 0 0 10.252.75.75 0 0 0 1.06-1.06 5.75 5.75 0 0 1 0-8.132Z" clip-rule="evenodd"/>
</svg>
