<svg xmlns="http://www.w3.org/2000/svg" width="24" height="24" fill="none">
  <g fill="#1C274C">
    <path d="m11.57 12.553.592.46-.592-.46Zm-.256-8.907.693.288-.693-.288Zm7.241 10.858a.75.75 0 0 0-1.11-1.008l1.11 1.008Zm-.846-.184-.555-.504.555.504Zm3.534-3.577.534-.526-.004-.005-.53.53Zm.21 1.283a.75.75 0 1 0 1.07-1.052l-1.07 1.052Zm-15.72 7.017a.75.75 0 0 0 0 1.5v-1.5ZM3.5 15.75a.75.75 0 0 0 0 1.5v-1.5ZM8.192 3.356a.75.75 0 0 0-1.384-.577l1.384.577ZM6.808 15.289a.75.75 0 0 0 1.384-.578l-1.384.578ZM11 5.75a.75.75 0 0 0 0 1.5v-1.5Zm8.876 11.166a.75.75 0 1 0 1.248-.832l-1.248.832ZM12 12.75h.092v-1.5H12v1.5Zm-.592-1.21-.43.553 1.184.92.43-.553-1.184-.92Zm-.1-9.828-.686 1.645 1.385.577.685-1.646-1.384-.576Zm6.137 11.784-.291.32 1.11 1.009.291-.32-1.11-1.01Zm3.263-2.227.745.757 1.07-1.052-.746-.757-1.069 1.052Zm-3.554 2.547c-2.87 3.157-7.193 5.227-11.421 5.227v1.5c4.688 0 9.403-2.277 12.53-5.718l-1.11-1.01ZM10.622 3.357a9.884 9.884 0 0 0 .742 9.04l1.272-.795a8.384 8.384 0 0 1-.63-7.668l-1.384-.577Zm.356 8.736A9.473 9.473 0 0 1 3.5 15.75v1.5c3.386 0 6.583-1.563 8.662-4.236l-1.184-.921Zm-4.17-9.314a16.182 16.182 0 0 0 0 12.51l1.384-.578a14.682 14.682 0 0 1 0-11.355l-1.384-.577ZM11 7.25c3.643 0 7.136 1.447 9.712 4.023l1.061-1.06A15.236 15.236 0 0 0 11 5.75v1.5Zm1.092 5.5a9.356 9.356 0 0 1 7.784 4.166l1.248-.832a10.855 10.855 0 0 0-9.032-4.834v1.5Z" opacity=".5"/>
    <path d="M12 21.25A9.25 9.25 0 0 1 2.75 12h-1.5c0 5.937 4.813 10.75 10.75 10.75v-1.5ZM21.25 12A9.25 9.25 0 0 1 12 21.25v1.5c5.937 0 10.75-4.813 10.75-10.75h-1.5ZM12 2.75A9.25 9.25 0 0 1 21.25 12h1.5c0-5.937-4.813-10.75-10.75-10.75v1.5Zm0-1.5C6.063 1.25 1.25 6.063 1.25 12h1.5A9.25 9.25 0 0 1 12 2.75v-1.5Z"/>
  </g>
</svg>
