<svg xmlns="http://www.w3.org/2000/svg" width="24" height="24" fill="none">
  <path fill="#1C274C" fill-rule="evenodd" d="M1.25 12C1.25 6.063 6.063 1.25 12 1.25S22.75 6.063 22.75 12 17.937 22.75 12 22.75c-2.55 0-4.894-.888-6.737-2.372l-.002-.002A10.73 10.73 0 0 1 1.25 12Zm6.792 8.363c1.2.569 2.542.887 3.958.887a9.244 9.244 0 0 0 7.856-4.364 9.347 9.347 0 0 0-1.72-1.922c-2.606 2.802-6.27 4.808-10.094 5.399Zm8.863-6.28C14.1 17.024 10.022 18.958 6 19.04a9.3 9.3 0 0 1-1.64-1.824c3.062-.24 5.9-1.757 7.802-4.202l.202-.26a9.354 9.354 0 0 1 4.54 1.33Zm-4.475-2.828c3.211.1 6.204 1.617 8.183 4.125a9.227 9.227 0 0 0 .635-3.562l-.536-.545-.002-.002a13.735 13.735 0 0 0-9.348-4.016 8.383 8.383 0 0 0 1.068 4Zm-.95-5.497a15.236 15.236 0 0 1 9.395 3.625 9.256 9.256 0 0 0-8.38-6.62l-.488 1.171a8.383 8.383 0 0 0-.528 1.824Zm-.635-2.937a9.186 9.186 0 0 0-2.758.795 14.676 14.676 0 0 0 .037 10.929 9.468 9.468 0 0 0 2.854-2.452l.117-.152a9.884 9.884 0 0 1-.473-8.584l.223-.536ZM6.76 15.171a16.167 16.167 0 0 1-.666-10.29A9.23 9.23 0 0 0 2.75 12c0 1.335.283 2.604.792 3.75a9.468 9.468 0 0 0 3.218-.578Z" clip-rule="evenodd"/>
</svg>
