<svg xmlns="http://www.w3.org/2000/svg" width="24" height="24" fill="none">
  <g fill="#1C274C">
    <path d="m11.756 13.326.261-.333a10.767 10.767 0 0 1 8.423 4.372A9.992 9.992 0 0 1 12 22a9.976 9.976 0 0 1-3.635-.681c2.548-.569 4.996-1.675 7.128-3.17a.75.75 0 1 0-.86-1.228c-2.497 1.75-5.44 2.913-8.418 3.237a10.055 10.055 0 0 1-2.29-2.259c3.077-.48 5.887-2.1 7.831-4.573Zm-1.009-1.144-.17.217a10.895 10.895 0 0 1-7.511 4.098A9.958 9.958 0 0 1 2 12a9.968 9.968 0 0 1 2.864-7.006V5a17.852 17.852 0 0 0-.09 7.386.75.75 0 1 0 1.47-.292A16.391 16.391 0 0 1 6.88 3.41a9.935 9.935 0 0 1 3.485-1.276l-.18.426a10.922 10.922 0 0 0 .563 9.623Z"/>
    <path d="M12.081 11.495a9.422 9.422 0 0 1-.514-8.354L12.047 2c4.585.021 8.44 3.127 9.598 7.35a17.275 17.275 0 0 0-7.564-3.673.75.75 0 1 0-.308 1.468 15.756 15.756 0 0 1 7.851 4.213l.002.002.37.373a9.97 9.97 0 0 1-.79 4.178 12.274 12.274 0 0 0-9.125-4.416Z"/>
  </g>
</svg>
