<svg xmlns="http://www.w3.org/2000/svg" width="24" height="24" fill="none">
  <g fill="#1C274C">
    <path d="m11.57 12.553.592.46-.592-.46Zm-.256-8.907.693.288-.693-.288ZM3.5 15.75a.75.75 0 0 0 0 1.5v-1.5Zm16.376 1.166a.75.75 0 1 0 1.248-.832l-1.248.832ZM12 21.25A9.25 9.25 0 0 1 2.75 12h-1.5c0 5.937 4.813 10.75 10.75 10.75v-1.5ZM21.25 12A9.25 9.25 0 0 1 12 21.25v1.5c5.937 0 10.75-4.813 10.75-10.75h-1.5ZM12 2.75A9.25 9.25 0 0 1 21.25 12h1.5c0-5.937-4.813-10.75-10.75-10.75v1.5Zm0-1.5C6.063 1.25 1.25 6.063 1.25 12h1.5A9.25 9.25 0 0 1 12 2.75v-1.5Zm0 11.5h.092v-1.5H12v1.5Zm-.592-1.21-.43.553 1.184.92.43-.553-1.184-.92Zm-.1-9.828-.686 1.645 1.385.577.685-1.646-1.384-.576Zm-.686 1.645a9.884 9.884 0 0 0 .742 9.04l1.272-.795a8.384 8.384 0 0 1-.63-7.668l-1.384-.577Zm.356 8.736A9.473 9.473 0 0 1 3.5 15.75v1.5c3.386 0 6.583-1.563 8.662-4.236l-1.184-.921Zm1.114.657a9.356 9.356 0 0 1 7.784 4.166l1.248-.832a10.855 10.855 0 0 0-9.032-4.834v1.5Z"/>
    <path d="m21.243 10.743.534-.526-.004-.005-.53.53Zm.21 1.283a.75.75 0 0 0 1.07-1.052l-1.07 1.052Zm-15.72 7.017a.75.75 0 0 0 0 1.5v-1.5Zm2.46-15.687a.75.75 0 0 0-1.385-.577l1.384.577Zm-2.34 8.789a.75.75 0 1 0 1.472-.29l-1.472.29Zm9.58 5.178a.75.75 0 0 0-.867-1.225l.867 1.225ZM14.155 6.08a.75.75 0 0 0-.31 1.468l.31-1.468Zm6.553 5.189.745.757 1.07-1.052-.746-.757-1.069 1.052Zm-13.9-8.49a16.177 16.177 0 0 0-.955 9.366l1.472-.29a14.677 14.677 0 0 1 .867-8.5L6.808 2.78Zm7.758 13.32c-2.597 1.839-5.744 2.944-8.833 2.944v1.5c3.436 0 6.881-1.224 9.7-3.22l-.867-1.225Zm-.721-8.551a13.735 13.735 0 0 1 6.867 3.725l1.06-1.06a15.235 15.235 0 0 0-7.617-4.133l-.31 1.468Z" opacity=".5"/>
  </g>
</svg>
