<svg xmlns="http://www.w3.org/2000/svg" width="24" height="24" fill="none">
  <path fill="#1C274C" fill-rule="evenodd" d="M7.162 2.398A10.708 10.708 0 0 1 12 1.25c5.937 0 10.75 4.813 10.75 10.75S17.937 22.75 12 22.75a10.71 10.71 0 0 1-6.738-2.373A10.731 10.731 0 0 1 1.25 12a10.75 10.75 0 0 1 5.912-9.602Zm.925 1.218a14.668 14.668 0 0 0-.762 8.24.75.75 0 1 1-1.472.289 16.13 16.13 0 0 1 .24-7.264A9.23 9.23 0 0 0 2.75 12c0 1.335.283 2.604.791 3.75a9.473 9.473 0 0 0 7.437-3.657l.117-.152a9.884 9.884 0 0 1-.473-8.584l.223-.536a9.181 9.181 0 0 0-2.758.795Zm4.408-.853-.488 1.171a8.384 8.384 0 0 0 .423 7.321c3.211.1 6.204 1.617 8.183 4.125a9.227 9.227 0 0 0 .635-3.562l-.536-.545-.002-.002a13.736 13.736 0 0 0-6.865-3.723.75.75 0 1 1 .31-1.468 15.236 15.236 0 0 1 6.72 3.303 9.256 9.256 0 0 0-8.38-6.62Zm7.36 14.123a9.356 9.356 0 0 0-7.491-4.132l-.202.26a10.974 10.974 0 0 1-7.802 4.202A9.304 9.304 0 0 0 6 19.04c3.003-.061 6.044-1.155 8.567-2.942a.75.75 0 1 1 .866 1.225c-2.186 1.548-4.748 2.631-7.391 3.04A9.21 9.21 0 0 0 12 21.25a9.244 9.244 0 0 0 7.856-4.364Z" clip-rule="evenodd"/>
</svg>
