<svg xmlns="http://www.w3.org/2000/svg" width="24" height="24" fill="none">
  <path stroke="#1C274C" stroke-linecap="round" stroke-width="1.5" d="M15.5 12c0 .532-.035 1.488-.087 2.605-.14 3.018-.21 4.526-1.133 5.175a2.313 2.313 0 0 1-.58.295c-.967.33-2.102-.328-4.2-1.703m-2.484-1.33C6.768 17 6.512 17 6 17c-1.374 0-2.06 0-2.66-.277a3.215 3.215 0 0 1-1.381-1.3c-.314-.582-.35-1.186-.424-2.395-.011-.179-.02-.356-.026-.528m.45-3.923a3.215 3.215 0 0 1 1.381-1.3C3.94 7 4.626 7 6 7c.512 0 .768 0 1.016-.042a3 3 0 0 0 .712-.214c.23-.101.444-.242.871-.524l.22-.144C11.36 4.399 12.632 3.56 13.7 3.925c.205.07.403.17.58.295.835.587.972 1.879 1.094 4.357M20 18s1.5-1.8 1.5-6c0-2.433-.503-4.061-.927-5M18 15s.5-.9.5-3c0-.862-.084-1.522-.183-2M22 2 2 22"/>
</svg>
