<svg xmlns="http://www.w3.org/2000/svg" width="24" height="24" fill="none">
  <path fill="#1C274C" fill-rule="evenodd" d="M12.14 4.91c-.714.347-1.62.942-2.909 1.792l-.219.144-.05.033c-.38.25-.643.424-.931.552a3.75 3.75 0 0 1-.89.267c-.31.052-.626.052-1.082.052H6c-1.444 0-1.93.016-2.345.208a2.47 2.47 0 0 0-1.036.975c-.218.405-.259.82-.336 2.084-.02.347-.033.68-.033.983 0 .303.012.636.033.983.077 1.264.118 1.68.336 2.084.209.389.635.79 1.036.975.414.192.901.208 2.345.208h.06c.455 0 .77 0 1.081.052.307.052.605.142.89.267.288.128.552.301.932.552l.05.033.218.144c1.29.85 2.195 1.445 2.91 1.792.711.346 1.068.36 1.317.275.137-.047.272-.115.39-.199.217-.152.415-.447.553-1.218.14-.775.191-1.847.263-3.377.052-1.12.086-2.06.086-2.571 0-.512-.034-1.451-.086-2.57-.072-1.531-.123-2.603-.262-3.378-.14-.771-.337-1.066-.553-1.218a1.569 1.569 0 0 0-.391-.2c-.25-.084-.606-.07-1.318.276Zm-.655-1.35c.826-.4 1.64-.624 2.457-.345.272.093.534.226.769.391.706.497 1.005 1.28 1.167 2.18.159.884.213 2.056.281 3.516l.003.058c.052 1.115.088 2.088.088 2.64s-.036 1.525-.088 2.64l-.003.058c-.068 1.46-.122 2.632-.281 3.516-.162.9-.461 1.683-1.167 2.18a3.066 3.066 0 0 1-.769.39c-.818.28-1.631.057-2.457-.345-.814-.395-1.8-1.046-3.032-1.857l-.267-.176c-.447-.295-.602-.394-.76-.464a2.17 2.17 0 0 0-.535-.16c-.171-.03-.354-.032-.89-.032h-.162c-1.217 0-2.062.001-2.814-.347a3.962 3.962 0 0 1-1.727-1.624c-.392-.729-.438-1.49-.504-2.575l-.008-.13A17.876 17.876 0 0 1 .75 12c0-.341.014-.706.036-1.074l.008-.13C.86 9.712.906 8.95 1.298 8.22a3.962 3.962 0 0 1 1.727-1.624c.752-.348 1.597-.348 2.814-.347H6c.537 0 .72-.002.891-.031a2.25 2.25 0 0 0 .534-.16c.16-.07.314-.17.761-.465l.267-.176c1.231-.811 2.218-1.462 3.032-1.857Zm8.035 1.864a.75.75 0 0 1 1.056.096L20 6l.576-.48.001.001.002.002.003.004.007.009a2.395 2.395 0 0 1 .086.114 4.7 4.7 0 0 1 .203.311c.161.27.368.665.572 1.195.408 1.061.8 2.653.8 4.844 0 2.192-.392 3.783-.8 4.845a7.7 7.7 0 0 1-.572 1.194 4.677 4.677 0 0 1-.268.399l-.013.017-.008.01-.007.009-.003.003-.002.002L20 18l.576.48a.75.75 0 0 1-1.156-.955m0 0 .003-.005.031-.041a3.28 3.28 0 0 0 .137-.212c.12-.198.288-.516.459-.961.342-.889.7-2.297.7-4.306 0-2.008-.358-3.417-.7-4.306a6.212 6.212 0 0 0-.459-.961 3.274 3.274 0 0 0-.171-.257l.003.004-.001-.002-.002-.002a.75.75 0 0 1 .1-1.052m-1.884 2.92a.75.75 0 0 1 1.02.292l-.628.349.628-.349v.001l.001.002.002.003.004.007.01.018.026.054a5.001 5.001 0 0 1 .278.805c.14.551.273 1.364.273 2.474s-.132 1.923-.273 2.474a5.172 5.172 0 0 1-.203.631 2.947 2.947 0 0 1-.102.228l-.01.019-.003.007-.002.003v.001s-.001.002-.63-.347l.629.348a.75.75 0 0 1-1.317-.719l.005-.01a3.665 3.665 0 0 0 .18-.534c.108-.424.226-1.11.226-2.1s-.118-1.678-.227-2.102a3.662 3.662 0 0 0-.179-.534l-.005-.01a.75.75 0 0 1 .297-1.01Z" clip-rule="evenodd"/>
</svg>
