<svg xmlns="http://www.w3.org/2000/svg" width="24" height="24" fill="none">
  <g fill="#1C274C">
    <path d="M3.003 11.716c.04-1.843.059-2.764.697-3.552.117-.144.288-.315.432-.431.785-.636 1.822-.636 3.897-.636.741 0 1.112 0 1.465-.092.073-.02.146-.042.218-.067.345-.121.654-.33 1.273-.746 2.442-1.645 3.662-2.467 4.687-2.11.196.069.387.168.556.29.886.635.953 2.115 1.088 5.073.05 1.096.084 2.034.084 2.555 0 .521-.034 1.46-.084 2.555-.134 2.958-.202 4.438-1.088 5.073-.17.122-.36.221-.556.29-1.025.357-2.245-.465-4.687-2.11-.619-.416-.928-.625-1.273-.746a2.815 2.815 0 0 0-.218-.067c-.353-.092-.724-.092-1.465-.092-2.075 0-3.112 0-3.897-.636a3.21 3.21 0 0 1-.432-.43c-.638-.79-.658-1.71-.697-3.553a13.443 13.443 0 0 1 0-.569Z"/>
    <path fill-rule="evenodd" d="M19.45 8.416a.712.712 0 0 1 .98.286l-.63.357.63-.357.001.002.002.003.003.007.01.018a1.975 1.975 0 0 1 .098.224c.056.144.126.349.194.619.135.54.262 1.337.262 2.425 0 1.089-.127 1.886-.262 2.426-.068.27-.138.475-.194.619a2.93 2.93 0 0 1-.098.223l-.01.018-.003.007-.002.003v.002s-.001.001-.63-.356l.629.357a.712.712 0 0 1-.98.286.744.744 0 0 1-.284-.991l.005-.01.036-.085a3.66 3.66 0 0 0 .136-.438c.104-.416.217-1.09.217-2.06 0-.971-.113-1.645-.217-2.061a3.657 3.657 0 0 0-.172-.523l-.005-.01a.744.744 0 0 1 .285-.991Z" clip-rule="evenodd" opacity=".5"/>
  </g>
</svg>
