<svg xmlns="http://www.w3.org/2000/svg" width="24" height="24" fill="none">
  <path fill="#1C274C" fill-rule="evenodd" d="M15.64 4.91c-.714.347-1.62.942-2.909 1.792l-.219.144-.05.033c-.38.25-.643.424-.931.552a3.75 3.75 0 0 1-.89.267c-.31.052-.626.052-1.082.052H9.5c-1.444 0-1.93.016-2.345.208a2.47 2.47 0 0 0-1.036.975c-.218.405-.259.82-.336 2.084-.02.347-.033.68-.033.983 0 .303.012.636.033.983.077 1.264.118 1.68.336 2.084.209.389.635.79 1.036.975.414.192.901.208 2.345.208h.06c.455 0 .77 0 1.081.052.307.052.605.142.89.267.288.128.552.301.932.552l.05.033.218.144c1.29.85 2.195 1.445 2.91 1.792.711.346 1.068.36 1.317.275.137-.047.272-.115.39-.199.217-.152.415-.447.553-1.218.14-.775.191-1.847.262-3.377.053-1.12.087-2.06.087-2.571 0-.512-.034-1.451-.087-2.57-.07-1.531-.122-2.603-.262-3.378-.138-.771-.336-1.066-.552-1.218a1.569 1.569 0 0 0-.391-.2c-.25-.084-.605-.07-1.318.276Zm-.655-1.35c.826-.4 1.64-.624 2.457-.345.272.093.534.226.769.391.706.497 1.005 1.28 1.167 2.18.159.884.213 2.056.281 3.516l.003.058c.052 1.115.088 2.088.088 2.64s-.036 1.525-.088 2.64l-.003.058c-.068 1.46-.122 2.632-.281 3.516-.162.9-.461 1.683-1.167 2.18a3.066 3.066 0 0 1-.769.39c-.818.28-1.631.057-2.457-.345-.814-.395-1.8-1.046-3.032-1.857l-.266-.176c-.448-.295-.602-.394-.762-.464-.17-.076-.35-.13-.534-.16-.171-.03-.354-.032-.89-.032h-.162c-1.217 0-2.062.001-2.814-.347a3.962 3.962 0 0 1-1.727-1.624c-.392-.729-.438-1.49-.504-2.575l-.008-.13A17.873 17.873 0 0 1 4.25 12c0-.341.014-.706.036-1.074l.008-.13c.066-1.084.112-1.846.504-2.575a3.962 3.962 0 0 1 1.727-1.624c.752-.348 1.597-.348 2.814-.347H9.5c.537 0 .72-.002.891-.031a2.25 2.25 0 0 0 .534-.16c.16-.07.314-.17.761-.465l.267-.176c1.231-.811 2.218-1.462 3.032-1.857Z" clip-rule="evenodd"/>
</svg>
