<svg xmlns="http://www.w3.org/2000/svg" width="24" height="24" fill="none">
  <g fill="#1C274C">
    <path d="M15.721 7.349a1.86 1.86 0 1 1-3.72 0 1.86 1.86 0 0 1 3.72 0Z"/>
    <path fill-rule="evenodd" d="M16.086 2.108C15.279 2 14.254 2 12.982 2h-1.963c-1.272 0-2.298 0-3.104.108-.837.113-1.542.354-2.102.914-.56.56-.801 1.265-.914 2.102-.108.806-.108 1.832-.108 3.104v7.544c0 1.272 0 2.298.108 3.104.113.837.354 1.542.914 2.102.56.56 1.265.801 2.102.914.806.108 1.832.108 3.104.108h1.963c1.272 0 2.297 0 3.104-.108.837-.113 1.542-.354 2.102-.914.56-.56.8-1.265.913-2.102.109-.806.109-1.832.109-3.104V8.228c0-1.272 0-2.298-.109-3.104-.112-.837-.353-1.542-.913-2.102-.56-.56-1.265-.801-2.102-.914Zm.723 14.522.986 1.04c.019-.536.02-1.175.02-1.95V8.28c0-1.336-.002-2.267-.097-2.97-.091-.683-.26-1.044-.517-1.302-.257-.257-.619-.425-1.301-.517-.703-.094-1.634-.096-2.97-.096h-1.86c-1.335 0-2.266.002-2.97.096-.682.092-1.043.26-1.3.517-.258.258-.426.62-.518 1.302-.094.703-.096 1.634-.096 2.97v4.624l.004-.003c.916-.941 2.335-.877 3.183.118l2.94 3.448c.236.276.546.289.783.093l.205-.169c1.076-.886 2.551-.77 3.508.24Z" clip-rule="evenodd"/>
    <path d="M5.016 4.5H5c-.465 0-.697 0-.891.03A2.5 2.5 0 0 0 2.03 6.61C2 6.803 2 7.035 2 7.5v9c0 .465 0 .697.03.891a2.5 2.5 0 0 0 2.08 2.079c.194.031.426.031.891.031h.016a5.72 5.72 0 0 1-.117-.624c-.108-.806-.108-1.832-.108-3.104V8.228c0-1.272 0-2.298.108-3.104a5.85 5.85 0 0 1 .117-.624Zm13.969 15c.05-.199.087-.407.116-.624.109-.806.109-1.832.109-3.104V8.228c0-1.272 0-2.298-.109-3.104a5.705 5.705 0 0 0-.116-.624H19c.465 0 .697 0 .891.03a2.5 2.5 0 0 1 2.079 2.08c.031.194.031.426.031.891v9c0 .465 0 .697-.03.891a2.5 2.5 0 0 1-2.079 2.078c-.194.031-.426.031-.891.031h-.015Z" opacity=".5"/>
  </g>
</svg>
