<svg xmlns="http://www.w3.org/2000/svg" width="24" height="24" fill="none">
  <path fill="#1C274C" d="M5 12c0-2.809 0-4.213.674-5.222a4 4 0 0 1 1.104-1.104C7.787 5 9.19 5 12 5c2.809 0 4.213 0 5.222.674a4 4 0 0 1 1.104 1.104C19 7.787 19 9.19 19 12c0 2.809 0 4.213-.674 5.222a4.003 4.003 0 0 1-1.104 1.104C16.213 19 14.81 19 12 19c-2.809 0-4.213 0-5.222-.674a4.002 4.002 0 0 1-1.104-1.104C5 16.213 5 14.81 5 12Zm7.5 10h-1c-1.405 0-2.107 0-2.611-.337a2 2 0 0 1-.552-.552c-.14-.21-.222-.452-.27-.766a8.8 8.8 0 0 0 .495.063c.905.092 2.022.092 3.361.092h.154c1.339 0 2.456 0 3.361-.092a9.65 9.65 0 0 0 .494-.063c-.047.314-.13.557-.27.766a1.999 1.999 0 0 1-.55.552C14.606 22 13.904 22 12.5 22Zm0-20h-1c-1.405 0-2.107 0-2.611.337a2 2 0 0 0-.552.552c-.14.21-.222.452-.27.766a8.8 8.8 0 0 1 .495-.063c.905-.092 2.022-.092 3.361-.092h.154c1.339 0 2.456 0 3.361.092.167.017.332.037.494.063-.047-.314-.13-.557-.27-.766a2 2 0 0 0-.55-.552C14.606 2 13.904 2 12.5 2Z"/>
  <path fill="#fff" fill-rule="evenodd" d="M12 8.25a.75.75 0 0 1 .75.75v2.758l1.77 1.701a.75.75 0 1 1-1.04 1.082l-2-1.924a.75.75 0 0 1-.23-.54V9a.75.75 0 0 1 .75-.75Z" clip-rule="evenodd"/>
</svg>
