<svg xmlns="http://www.w3.org/2000/svg" width="24" height="24" fill="none">
  <path fill="#1C274C" fill-rule="evenodd" d="M11.164 1.25h1.672c.731 0 1.346 0 1.845.06.529.065 1.012.205 1.435.545.424.34.666.78.843 1.283.168.474.3 1.074.46 1.788l.237 1.068A8.227 8.227 0 0 1 20.25 12a8.227 8.227 0 0 1-2.594 6.006l-.238 1.068c-.158.714-.291 1.314-.459 1.788-.177.502-.419.943-.843 1.283-.423.34-.906.48-1.435.545-.499.06-1.114.06-1.845.06h-1.672c-.731 0-1.346 0-1.845-.06-.529-.065-1.012-.205-1.435-.545-.424-.34-.666-.78-.843-1.283-.168-.474-.3-1.074-.46-1.788l-.237-1.068A8.227 8.227 0 0 1 3.75 12c0-2.367.997-4.502 2.594-6.006l.238-1.068c.158-.714.291-1.314.459-1.788.177-.502.419-.943.843-1.283.423-.34.906-.48 1.435-.545.499-.06 1.114-.06 1.845-.06ZM8.172 4.69A8.214 8.214 0 0 1 12 3.75c1.382 0 2.684.34 3.828.94a10.052 10.052 0 0 0-.283-1.052c-.127-.359-.243-.513-.367-.613-.125-.1-.3-.18-.678-.225-.398-.049-.921-.05-1.709-.05H11.21c-.788 0-1.312.001-1.709.05-.377.045-.553.125-.678.225-.124.1-.24.254-.367.613-.095.268-.18.604-.283 1.052Zm0 14.62c.103.448.188.784.283 1.052.127.359.243.513.367.613.125.1.3.18.678.226.397.048.921.049 1.709.049h1.582c.788 0 1.311-.001 1.71-.05.376-.045.552-.125.677-.225.124-.1.24-.254.367-.613.095-.268.18-.604.283-1.052-1.144.6-2.446.94-3.828.94a8.214 8.214 0 0 1-3.828-.94ZM12 5.25a6.75 6.75 0 1 0 0 13.5 6.75 6.75 0 0 0 0-13.5Zm0 2.923a.75.75 0 0 1 .75.75v2.758l1.77 1.702a.75.75 0 1 1-1.04 1.08l-2-1.922a.75.75 0 0 1-.23-.541V8.923a.75.75 0 0 1 .75-.75Z" clip-rule="evenodd"/>
</svg>
