<svg xmlns="http://www.w3.org/2000/svg" width="24" height="24" fill="none">
  <path fill="#1C274C" fill-rule="evenodd" d="M5.674 6.778C5 7.787 5 9.19 5 12c0 2.809 0 4.213.674 5.222a4 4 0 0 0 1.104 1.104C7.787 19 9.19 19 12 19c2.809 0 4.213 0 5.222-.674a4.003 4.003 0 0 0 1.104-1.104C19 16.213 19 14.81 19 12c0-2.809 0-4.213-.674-5.222a4.002 4.002 0 0 0-1.104-1.104C16.213 5 14.81 5 12 5c-2.809 0-4.213 0-5.222.674a4 4 0 0 0-1.104 1.104ZM12 8.25a.75.75 0 0 1 .75.75v2.758l1.77 1.701a.75.75 0 1 1-1.04 1.082l-2-1.924a.75.75 0 0 1-.23-.54V9a.75.75 0 0 1 .75-.75ZM6.25 2A.75.75 0 0 1 7 1.25h10a.75.75 0 0 1 0 1.5H7A.75.75 0 0 1 6.25 2Zm0 20a.75.75 0 0 1 .75-.75h10a.75.75 0 0 1 0 1.5H7a.75.75 0 0 1-.75-.75Z" clip-rule="evenodd"/>
</svg>
