<svg xmlns="http://www.w3.org/2000/svg" width="24" height="24" fill="none">
  <g fill="#1C274C">
    <path d="M12.791 2H11.21c-1.54 0-2.31 0-2.857.44s-.715 1.19-1.049 2.692l-.065.292C8.22 5 9.594 5 12 5s3.782 0 4.761.424l-.065-.292c-.334-1.501-.5-2.252-1.049-2.692C15.1 2 14.33 2 12.791 2ZM7.24 18.576C8.217 19 9.593 19 12 19c2.406 0 3.782 0 4.76-.424l-.064.292c-.334 1.501-.5 2.252-1.049 2.692-.548.44-1.317.44-2.856.44H11.21c-1.538 0-2.308 0-2.856-.44s-.715-1.19-1.049-2.692l-.065-.292Z"/>
    <path d="M6.778 18.326C7.787 19 9.19 19 12 19c2.809 0 4.213 0 5.222-.674a4.003 4.003 0 0 0 1.104-1.104C19 16.213 19 14.81 19 12c0-2.809 0-4.213-.674-5.222a4.002 4.002 0 0 0-1.104-1.104C16.213 5 14.81 5 12 5c-2.809 0-4.213 0-5.222.674a4 4 0 0 0-1.104 1.104C5 7.787 5 9.19 5 12c0 2.809 0 4.213.674 5.222a4 4 0 0 0 1.104 1.104Z" opacity=".5"/>
    <path fill-rule="evenodd" d="M12 8.25a.75.75 0 0 1 .75.75v2.758l1.77 1.701a.75.75 0 1 1-1.04 1.082l-2-1.924a.75.75 0 0 1-.23-.54V9a.75.75 0 0 1 .75-.75Z" clip-rule="evenodd"/>
  </g>
</svg>
