<svg xmlns="http://www.w3.org/2000/svg" width="24" height="24" fill="none">
  <g fill="#1C274C">
    <path fill-rule="evenodd" d="M12 1.25a.75.75 0 0 1 .75.75v1a.75.75 0 0 1-1.5 0V2a.75.75 0 0 1 .75-.75ZM1.25 12a.75.75 0 0 1 .75-.75h1a.75.75 0 0 1 0 1.5H2a.75.75 0 0 1-.75-.75Zm19 0a.75.75 0 0 1 .75-.75h1a.75.75 0 0 1 0 1.5h-1a.75.75 0 0 1-.75-.75Z" clip-rule="evenodd"/>
    <path d="M22.172 16.042c-1.323-.311-2.001-1.053-2.626-1.999a1.747 1.747 0 0 0-1.677-.79 6 6 0 1 0-11.775-.19 1.706 1.706 0 0 0-1.524.803c-.662 1.035-1.34 1.846-2.742 2.176a.75.75 0 1 0 .344 1.46c1.967-.463 2.922-1.672 3.662-2.828a.23.23 0 0 1 .196-.114.304.304 0 0 1 .246.125C7.389 16.11 9.158 17.75 12 17.75c2.76 0 4.539-1.27 5.706-2.83a.432.432 0 0 1 .335-.177.28.28 0 0 1 .253.127c.727 1.1 1.682 2.196 3.534 2.632a.75.75 0 0 0 .344-1.46Z"/>
    <path d="M4.4 4.398a.75.75 0 0 1 1.06 0l.393.393a.75.75 0 1 1-1.06 1.06l-.394-.392a.75.75 0 0 1 0-1.06Zm15.2.001a.75.75 0 0 1 0 1.06l-.392.393a.75.75 0 0 1-1.06-1.06l.392-.393a.75.75 0 0 1 1.06 0ZM4.57 18.866c.687-1.074 2.157-1.039 2.888-.104.99 1.267 2.372 2.488 4.542 2.488 2.209 0 3.57-.979 4.505-2.229.72-.962 2.286-1.12 3.04.023.626.945 1.304 1.687 2.627 1.999a.75.75 0 1 1-.344 1.46c-1.852-.437-2.807-1.534-3.534-2.632a.28.28 0 0 0-.253-.128.432.432 0 0 0-.335.177C16.54 21.48 14.76 22.75 12 22.75c-2.842 0-4.611-1.64-5.724-3.064a.304.304 0 0 0-.246-.126.23.23 0 0 0-.196.114c-.74 1.156-1.695 2.365-3.662 2.829a.75.75 0 1 1-.344-1.46c1.401-.33 2.08-1.142 2.742-2.177Z" opacity=".5"/>
  </g>
</svg>
