<svg xmlns="http://www.w3.org/2000/svg" width="24" height="24" fill="none">
  <path fill="#1C274C" d="M10 17.833C10 20.134 8.21 22 6 22s-4-1.866-4-4.167c0-1.44 1.566-3.361 2.738-4.598a1.724 1.724 0 0 1 2.524 0C8.434 14.472 10 16.393 10 17.833Zm12 0C22 20.134 20.21 22 18 22s-4-1.866-4-4.167c0-1.44 1.566-3.361 2.738-4.598a1.724 1.724 0 0 1 2.524 0C20.434 14.472 22 16.393 22 17.833Zm-6-10C16 10.134 14.21 12 12 12s-4-1.866-4-4.167c0-1.44 1.566-3.361 2.738-4.598a1.724 1.724 0 0 1 2.524 0C14.434 4.472 16 6.393 16 7.833Z"/>
</svg>
