<svg xmlns="http://www.w3.org/2000/svg" width="24" height="24" fill="none">
  <g fill="#1C274C">
    <path d="M3 10c0-3.771 0-5.657 1.172-6.828C5.343 2 7.229 2 11 2h2c3.771 0 5.657 0 6.828 1.172C21 4.343 21 6.229 21 10v4c0 3.771 0 5.657-1.172 6.828C18.657 22 16.771 22 13 22h-2c-3.771 0-5.657 0-6.828-1.172C3 19.657 3 17.771 3 14v-4Z" opacity=".5"/>
    <path d="M7.25 18a.75.75 0 0 1 .75-.75h8a.75.75 0 0 1 0 1.5H8a.75.75 0 0 1-.75-.75ZM8.645 6.31a18.322 18.322 0 0 1 6.71 0l.476.088c.88.164 1.4 1.194 1.068 2.118l-.744 2.076c-.108.301-.399.467-.68.389a12.89 12.89 0 0 0-4.724-.417L10 8.222c-.156-.486-.637-.74-1.073-.565-.436.175-.662.71-.506 1.197l.64 1.99c-.18.042-.357.087-.534.137-.282.078-.573-.088-.68-.389L7.1 8.516c-.332-.924.188-1.954 1.068-2.118l.476-.088Z"/>
  </g>
</svg>
