<svg xmlns="http://www.w3.org/2000/svg" width="24" height="24" fill="none">
  <g stroke="#1C274C" stroke-width="1.5">
    <path d="M3 10c0-3.771 0-5.657 1.172-6.828C5.343 2 7.229 2 11 2h2c3.771 0 5.657 0 6.828 1.172C21 4.343 21 6.229 21 10v4c0 3.771 0 5.657-1.172 6.828C18.657 22 16.771 22 13 22h-2c-3.771 0-5.657 0-6.828-1.172C3 19.657 3 17.771 3 14v-4Z" opacity=".5"/>
    <path stroke-linecap="round" d="M8 18h8m.412-8.03.665-1.663A2 2 0 0 0 15.55 5.59l-.425-.07a19 19 0 0 0-6.248 0l-.425.07a2 2 0 0 0-1.528 2.716l.665 1.664c.236.59.871.914 1.487.76 1.92-.48 3.93-.48 5.85 0a1.27 1.27 0 0 0 1.486-.76Zm-6.232-.041-.675-1.883"/>
  </g>
</svg>
