<svg xmlns="http://www.w3.org/2000/svg" width="24" height="24" fill="none">
  <g stroke="#1C274C" stroke-width="1.5">
    <path stroke-linecap="round" d="M14.5 6.5h3m0 0h3m-3 0v3m0-3v-3m-14.95 12c.065-.65.21-1.088.536-1.414.586-.586 1.528-.586 3.414-.586 1.886 0 2.828 0 3.414.586.586.586.586 1.528.586 3.414 0 1.886 0 2.828-.586 3.414-.586.586-1.528.586-3.414.586-1.886 0-2.828 0-3.414-.586-.31-.31-.456-.718-.524-1.313"/>
    <path d="M2.5 6.5c0-1.886 0-2.828.586-3.414C3.672 2.5 4.614 2.5 6.5 2.5c1.886 0 2.828 0 3.414.586.586.586.586 1.528.586 3.414 0 1.886 0 2.828-.586 3.414-.586.586-1.528.586-3.414.586-1.886 0-2.828 0-3.414-.586C2.5 9.328 2.5 8.386 2.5 6.5Zm11 11c0-1.886 0-2.828.586-3.414.586-.586 1.528-.586 3.414-.586 1.886 0 2.828 0 3.414.586.586.586.586 1.528.586 3.414 0 1.886 0 2.828-.586 3.414-.586.586-1.528.586-3.414.586-1.886 0-2.828 0-3.414-.586-.586-.586-.586-1.528-.586-3.414Z"/>
  </g>
</svg>
