<svg xmlns="http://www.w3.org/2000/svg" width="24" height="24" fill="none">
  <path stroke="#1C274C" stroke-width="1.5" d="M2.5 6.5c0-1.886 0-2.828.586-3.414C3.672 2.5 4.614 2.5 6.5 2.5c1.886 0 2.828 0 3.414.586.586.586.586 1.528.586 3.414 0 1.886 0 2.828-.586 3.414-.586.586-1.528.586-3.414.586-1.886 0-2.828 0-3.414-.586C2.5 9.328 2.5 8.386 2.5 6.5Zm11 11c0-1.886 0-2.828.586-3.414.586-.586 1.528-.586 3.414-.586 1.886 0 2.828 0 3.414.586.586.586.586 1.528.586 3.414 0 1.886 0 2.828-.586 3.414-.586.586-1.528.586-3.414.586-1.886 0-2.828 0-3.414-.586-.586-.586-.586-1.528-.586-3.414Zm-11 0c0-1.886 0-2.828.586-3.414.586-.586 1.528-.586 3.414-.586 1.886 0 2.828 0 3.414.586.586.586.586 1.528.586 3.414 0 1.886 0 2.828-.586 3.414-.586.586-1.528.586-3.414.586-1.886 0-2.828 0-3.414-.586C2.5 20.328 2.5 19.386 2.5 17.5Zm11-11c0-1.886 0-2.828.586-3.414.586-.586 1.528-.586 3.414-.586 1.886 0 2.828 0 3.414.586.586.586.586 1.528.586 3.414 0 1.886 0 2.828-.586 3.414-.586.586-1.528.586-3.414.586-1.886 0-2.828 0-3.414-.586C13.5 9.328 13.5 8.386 13.5 6.5Z"/>
</svg>
