<svg xmlns="http://www.w3.org/2000/svg" width="24" height="24" fill="none">
  <path fill="#1C274C" fill-rule="evenodd" d="M17.448 1.75c-.899 0-1.648 0-2.242.08-.628.084-1.195.27-1.65.725-.456.456-.642 1.023-.726 1.65-.08.595-.08 1.345-.08 2.243v.104c0 .898 0 1.648.08 2.242.084.628.27 1.195.726 1.65.455.456 1.022.642 1.65.726.594.08 1.343.08 2.242.08h.104c.899 0 1.648 0 2.242-.08.628-.084 1.195-.27 1.65-.726.456-.455.642-1.022.726-1.65.08-.594.08-1.344.08-2.242v-.104c0-.898 0-1.648-.08-2.242-.084-.628-.27-1.195-.726-1.65-.455-.456-1.022-.642-1.65-.726-.594-.08-1.343-.08-2.242-.08h-.104Zm-2.832 1.866c.13-.13.328-.237.79-.3.482-.064 1.13-.066 2.094-.066s1.612.002 2.095.067c.461.062.659.169.789.3.13.13.237.327.3.788.064.483.066 1.131.066 2.095 0 .964-.002 1.612-.067 2.095-.062.461-.169.659-.3.789-.13.13-.327.237-.788.3-.483.064-1.131.066-2.095.066-.964 0-1.612-.002-2.095-.067-.461-.062-.659-.169-.789-.3-.13-.13-.237-.327-.3-.788-.064-.483-.066-1.131-.066-2.095 0-.964.002-1.612.066-2.095.063-.461.17-.659.3-.789ZM6.448 12.75c-.898 0-1.648 0-2.242.08-.628.084-1.195.27-1.65.726-.456.455-.642 1.022-.726 1.65-.08.594-.08 1.343-.08 2.242v.104c0 .899 0 1.648.08 2.242.084.628.27 1.195.725 1.65.456.456 1.023.642 1.65.726.595.08 1.345.08 2.243.08h.104c.898 0 1.648 0 2.242-.08.628-.084 1.195-.27 1.65-.726.456-.455.642-1.022.726-1.65.08-.594.08-1.343.08-2.242v-.104c0-.899 0-1.648-.08-2.242-.084-.628-.27-1.195-.726-1.65-.455-.456-1.022-.642-1.65-.726-.594-.08-1.344-.08-2.242-.08h-.104Zm-2.832 1.866c.13-.13.328-.237.79-.3.482-.064 1.13-.066 2.094-.066s1.612.002 2.095.066c.461.063.659.17.789.3.13.13.237.328.3.79.064.482.066 1.13.066 2.094s-.002 1.612-.067 2.095c-.062.461-.169.659-.3.789-.13.13-.327.237-.788.3-.483.064-1.131.066-2.095.066-.964 0-1.612-.002-2.095-.067-.461-.062-.659-.169-.789-.3-.13-.13-.237-.327-.3-.788-.064-.483-.066-1.131-.066-2.095 0-.964.002-1.612.067-2.095.062-.461.169-.659.3-.789ZM1.75 6.5a4.75 4.75 0 1 1 9.5 0 4.75 4.75 0 0 1-9.5 0ZM6.5 3.25a3.25 3.25 0 1 0 0 6.5 3.25 3.25 0 0 0 0-6.5Zm6.25 14.25a4.75 4.75 0 1 1 9.5 0 4.75 4.75 0 0 1-9.5 0Zm4.75-3.25a3.25 3.25 0 1 0 0 6.5 3.25 3.25 0 0 0 0-6.5Z" clip-rule="evenodd"/>
</svg>
