<svg xmlns="http://www.w3.org/2000/svg" width="24" height="24" fill="none">
  <g stroke="#1C274C" stroke-width="1.5">
    <path stroke-linecap="round" d="M2.5 13v4.5c0 1.886 0 2.828.586 3.414.586.586 1.528.586 3.414.586 1.886 0 2.828 0 3.414-.586.586-.586.586-1.528.586-3.414v-11c0-1.886 0-2.828-.586-3.414C9.328 2.5 8.386 2.5 6.5 2.5c-1.886 0-2.828 0-3.414.586C2.5 3.672 2.5 4.614 2.5 6.5V9m19 9c-.005 1.557-.054 2.383-.586 2.914-.586.586-1.528.586-3.414.586-1.886 0-2.828 0-3.414-.586-.586-.586-.586-1.528-.586-3.414v-2c0-1.886 0-2.828.586-3.414.586-.586 1.528-.586 3.414-.586 1.886 0 2.828 0 3.414.586.404.404.53.978.569 1.914"/>
    <path d="M13.5 5.5c0-.932 0-1.398.152-1.765a2 2 0 0 1 1.083-1.083c.367-.152.833-.152 1.765-.152h2c.932 0 1.398 0 1.765.152a2 2 0 0 1 1.083 1.083c.152.367.152.833.152 1.765 0 .932 0 1.398-.152 1.765a2 2 0 0 1-1.083 1.083c-.367.152-.833.152-1.765.152h-2c-.932 0-1.398 0-1.765-.152a2 2 0 0 1-1.083-1.083C13.5 6.898 13.5 6.432 13.5 5.5Z"/>
  </g>
</svg>
