<svg xmlns="http://www.w3.org/2000/svg" width="24" height="24" fill="none">
  <g stroke="#1C274C" stroke-width="1.5">
    <path d="M2.5 6.5a4 4 0 1 1 8 0 4 4 0 0 1-8 0Z"/>
    <path d="M13.5 17.5a4 4 0 1 1 8 0 4 4 0 0 1-8 0Z" opacity=".5"/>
    <path d="M2.5 17.5c0-1.886 0-2.828.586-3.414.586-.586 1.528-.586 3.414-.586 1.886 0 2.828 0 3.414.586.586.586.586 1.528.586 3.414 0 1.886 0 2.828-.586 3.414-.586.586-1.528.586-3.414.586-1.886 0-2.828 0-3.414-.586C2.5 20.328 2.5 19.386 2.5 17.5Z"/>
    <path d="M13.5 6.5c0-1.886 0-2.828.586-3.414.586-.586 1.528-.586 3.414-.586 1.886 0 2.828 0 3.414.586.586.586.586 1.528.586 3.414 0 1.886 0 2.828-.586 3.414-.586.586-1.528.586-3.414.586-1.886 0-2.828 0-3.414-.586C13.5 9.328 13.5 8.386 13.5 6.5Z" opacity=".5"/>
  </g>
</svg>
