<svg xmlns="http://www.w3.org/2000/svg" width="24" height="24" fill="none">
  <g fill="#1C274C">
    <path d="M2 6.5c0-2.121 0-3.182.659-3.841C3.318 2 4.379 2 6.5 2c2.121 0 3.182 0 3.841.659C11 3.318 11 4.379 11 6.5c0 2.121 0 3.182-.659 3.841C9.682 11 8.621 11 6.5 11c-2.121 0-3.182 0-3.841-.659C2 9.682 2 8.621 2 6.5Zm11 11c0-2.121 0-3.182.659-3.841C14.318 13 15.379 13 17.5 13c2.121 0 3.182 0 3.841.659.659.659.659 1.72.659 3.841 0 2.121 0 3.182-.659 3.841-.659.659-1.72.659-3.841.659-2.121 0-3.182 0-3.841-.659C13 20.682 13 19.621 13 17.5Z" opacity=".5"/>
    <path d="M2 17.5c0-2.121 0-3.182.659-3.841C3.318 13 4.379 13 6.5 13c2.121 0 3.182 0 3.841.659.659.659.659 1.72.659 3.841 0 2.121 0 3.182-.659 3.841C9.682 22 8.621 22 6.5 22c-2.121 0-3.182 0-3.841-.659C2 20.682 2 19.621 2 17.5Zm11-11c0-2.121 0-3.182.659-3.841C14.318 2 15.379 2 17.5 2c2.121 0 3.182 0 3.841.659C22 3.318 22 4.379 22 6.5c0 2.121 0 3.182-.659 3.841-.659.659-1.72.659-3.841.659-2.121 0-3.182 0-3.841-.659C13 9.682 13 8.621 13 6.5Z"/>
  </g>
</svg>
