<svg xmlns="http://www.w3.org/2000/svg" width="24" height="24" fill="none">
  <path fill="#1C274C" fill-rule="evenodd" d="M1.75 6.5a4.75 4.75 0 0 1 9.5 0v2.731c0 .242.001.495-.06.722a1.75 1.75 0 0 1-1.237 1.237c-.227.061-.48.06-.722.06H6.5A4.75 4.75 0 0 1 1.75 6.5ZM6.5 3.25a3.25 3.25 0 1 0 0 6.5h2.667c.161 0 .258 0 .33-.003a.66.66 0 0 0 .07-.006.25.25 0 0 0 .174-.174.66.66 0 0 0 .006-.07 8.23 8.23 0 0 0 .003-.33V6.5A3.25 3.25 0 0 0 6.5 3.25Zm8.27 9.5h2.73a4.75 4.75 0 1 1-4.75 4.75v-2.731c0-.242-.001-.495.06-.722a1.75 1.75 0 0 1 1.237-1.237c.227-.061.48-.06.722-.06Zm-.337 1.51a.25.25 0 0 0-.174.173.662.662 0 0 0-.005.07 8.215 8.215 0 0 0-.004.33V17.5a3.25 3.25 0 1 0 3.25-3.25h-2.667c-.162 0-.258 0-.33.004a.662.662 0 0 0-.07.005Zm-4.937.001a8.374 8.374 0 0 0-.596-.011H6.5a3.25 3.25 0 1 0 3.25 3.25v-2.4c0-.292 0-.467-.011-.596a.626.626 0 0 0-.018-.12.25.25 0 0 0-.104-.105.638.638 0 0 0-.121-.018Zm.123.019h-.001.001Zm.101.1v.002-.001Zm-.102-1.614c.213.018.446.057.676.175.33.167.598.435.765.764.118.23.158.464.175.677.016.198.016.434.016.692V17.5a4.75 4.75 0 1 1-4.75-4.75h2.426c.258 0 .494 0 .692.016ZM12.75 6.5a4.75 4.75 0 1 1 4.75 4.75h-2.885c-.104 0-.212 0-.31-.011a1.75 1.75 0 0 1-1.544-1.543 2.826 2.826 0 0 1-.011-.311V6.5Zm4.75-3.25a3.25 3.25 0 0 0-3.25 3.25v2.999l.002.03a.25.25 0 0 0 .25.22l.14.001H17.5a3.25 3.25 0 0 0 0-6.5Z" clip-rule="evenodd"/>
</svg>
