<svg xmlns="http://www.w3.org/2000/svg" width="24" height="24" fill="none">
  <path fill="#1C274C" fill-rule="evenodd" d="M6.25 5.5A3.25 3.25 0 1 1 9.5 8.75H3a.75.75 0 0 1 0-1.5h6.5A1.75 1.75 0 1 0 7.75 5.5v.357a.75.75 0 1 1-1.5 0V5.5Zm8 2a4.25 4.25 0 1 1 4.25 4.25H2a.75.75 0 0 1 0-1.5h16.5a2.75 2.75 0 1 0-2.75-2.75V8a.75.75 0 0 1-1.5 0v-.5Zm-11 6.5a.75.75 0 0 1 .75-.75h14.5a4.25 4.25 0 1 1-4.25 4.25V17a.75.75 0 0 1 1.5 0v.5a2.75 2.75 0 1 0 2.75-2.75H4a.75.75 0 0 1-.75-.75Z" clip-rule="evenodd"/>
</svg>
