<svg xmlns="http://www.w3.org/2000/svg" width="24" height="24" fill="none">
  <g stroke="#1C274C" stroke-width="1.5">
    <path d="M12.268 3a2.003 2.003 0 0 0-.116.235C12 3.602 12 4.068 12 5v4m.268-6a2 2 0 0 1 .967-.848C13.602 2 14.068 2 15 2c.932 0 1.398 0 1.765.152a2 2 0 0 1 .967.848m-5.464 0H5c-.932 0-1.398 0-1.765.152a2 2 0 0 0-1.083 1.083C2 4.602 2 5.068 2 6c0 .932 0 1.398.152 1.765a2 2 0 0 0 1.083 1.083C3.602 9 4.068 9 5 9h7m5.732-6H19c.932 0 1.398 0 1.765.152a2 2 0 0 1 1.083 1.083C22 4.602 22 5.068 22 6c0 .932 0 1.398-.152 1.765a2 2 0 0 1-1.083 1.083C20.398 9 19.932 9 19 9h-1m-.268-6c.044.075.082.154.116.235C18 3.602 18 4.068 18 5v4m0 0v6m-6-6v6m6 0v4c0 .932 0 1.398-.152 1.765-.034.081-.072.16-.116.235M18 15h1c.932 0 1.398 0 1.765.152a2 2 0 0 1 1.083 1.083C22 16.602 22 17.068 22 18c0 .932 0 1.398-.152 1.765a2 2 0 0 1-1.083 1.083C20.398 21 19.932 21 19 21h-1.268M12 15H5c-.932 0-1.398 0-1.765.152a2 2 0 0 0-1.083 1.083C2 16.602 2 17.068 2 18c0 .932 0 1.398.152 1.765a2 2 0 0 0 1.083 1.083C3.602 21 4.068 21 5 21h7.268M12 15v4c0 .932 0 1.398.152 1.765.034.081.073.16.116.235m0 0a2 2 0 0 0 .967.848C13.602 22 14.068 22 15 22c.932 0 1.398 0 1.765-.152a2 2 0 0 0 .967-.848"/>
    <path d="M5 9c-.932 0-1.398 0-1.765.152a2 2 0 0 0-1.083 1.083C2 10.602 2 11.068 2 12c0 .932 0 1.398.152 1.765a2 2 0 0 0 1.083 1.083C3.602 15 4.068 15 5 15m14-6c.932 0 1.398 0 1.765.152a2 2 0 0 1 1.083 1.083C22 10.602 22 11.068 22 12c0 .932 0 1.398-.152 1.765a2 2 0 0 1-1.083 1.083C20.398 15 19.932 15 19 15" opacity=".5"/>
    <path stroke-linecap="round" d="M15 11v2" opacity=".5"/>
  </g>
</svg>
