<svg xmlns="http://www.w3.org/2000/svg" width="24" height="24" fill="none">
  <g stroke="#1C274C" stroke-linecap="round" stroke-width="1.5">
    <path stroke-linejoin="round" d="M19 9c.932 0 1.398 0 1.765.152a2 2 0 0 1 1.083 1.083C22 10.602 22 11.068 22 12c0 .932 0 1.398-.152 1.765a2 2 0 0 1-1.083 1.083C20.398 15 19.932 15 19 15m0-6c.932 0 1.398 0 1.765-.152a2 2 0 0 0 1.083-1.083C22 7.398 22 6.932 22 6c0-.932 0-1.398-.152-1.765a2 2 0 0 0-1.083-1.083C20.398 3 19.932 3 19 3h-1.268M19 9h-1m1 6c.932 0 1.398 0 1.765.152a2 2 0 0 1 1.083 1.083C22 16.602 22 17.068 22 18c0 .932 0 1.398-.152 1.765a2 2 0 0 1-1.083 1.083C20.398 21 19.932 21 19 21h-1.268M19 15h-1M5 15c-.932 0-1.398 0-1.765-.152a2 2 0 0 1-1.083-1.083C2 13.398 2 12.932 2 12c0-.932 0-1.398.152-1.765a2 2 0 0 1 1.083-1.083C3.602 9 5.068 9 6 9c-.932 0-2.398 0-2.765-.152a2 2 0 0 1-1.083-1.083C2 7.398 2 6.932 2 6c0-.932 0-1.398.152-1.765a2 2 0 0 1 1.083-1.083C3.602 3 4.068 3 5 3h7.268M5 15c-.932 0-1.398 0-1.765.152a2 2 0 0 0-1.083 1.083C2 16.602 2 17.068 2 18c0 .932 0 1.398.152 1.765a2 2 0 0 0 1.083 1.083C3.602 21 4.068 21 5 21m0-6h7m.268-12a2.003 2.003 0 0 0-.116.235C12 3.602 12 4.068 12 5v4m.268-6a2 2 0 0 1 .967-.848C13.602 2 14.068 2 15 2c.932 0 1.398 0 1.765.152a2 2 0 0 1 .967.848m0 0c.044.075.082.154.116.235C18 3.602 18 4.068 18 5v4m0 0v6m-6-6v6m0-6h-2m8 6v4c0 .932 0 1.398-.152 1.765-.034.081-.072.16-.116.235M12 15v4c0 .932 0 1.398.152 1.765.034.081.073.16.116.235m0 0a2 2 0 0 0 .967.848C13.602 22 14.068 22 15 22c.932 0 1.398 0 1.765-.152a2 2 0 0 0 .967-.848m-5.464 0H9"/>
    <path d="M15 11v2"/>
  </g>
</svg>
