<svg xmlns="http://www.w3.org/2000/svg" width="24" height="24" fill="none">
  <path fill="#1C274C" fill-rule="evenodd" d="M11.93 2.75a7.096 7.096 0 0 0-7.18 7.18c.033 4.008 3.312 7.287 7.32 7.32 4 .032 7.212-3.18 7.18-7.18-.033-4.008-3.312-7.287-7.32-7.32ZM3.25 9.941a8.596 8.596 0 0 1 8.691-8.69c4.828.038 8.77 3.98 8.809 8.808a8.594 8.594 0 0 1-6.5 8.431v1.032c0 .214 0 .41-.011.576-.012.178-.04.373-.122.572a1.75 1.75 0 0 1-.947.947c-.144.06-.285.09-.42.107V22a.75.75 0 0 1-1.5 0v-.276a1.618 1.618 0 0 1-.42-.107 1.75 1.75 0 0 1-.947-.947 1.781 1.781 0 0 1-.122-.572c-.011-.165-.011-.362-.011-.576v-1.098c-3.716-1.041-6.467-4.453-6.5-8.482Zm8 8.765v.794c0 .243 0 .388.008.496.004.067.01.095.012.103a.25.25 0 0 0 .131.13.632.632 0 0 0 .103.013c.108.008.253.008.496.008s.388 0 .496-.008a.632.632 0 0 0 .103-.012.25.25 0 0 0 .13-.131.632.632 0 0 0 .013-.103c.008-.108.008-.253.008-.496v-.772a8.849 8.849 0 0 1-1.5-.022Zm2.124-12.25a.75.75 0 0 1 .026 1.061L11.75 9.25H14a.75.75 0 0 1 .543 1.267l-2.857 3a.75.75 0 1 1-1.086-1.034l1.65-1.733H10a.75.75 0 0 1-.543-1.267l2.857-3a.75.75 0 0 1 1.06-.026Z" clip-rule="evenodd"/>
</svg>
