<svg xmlns="http://www.w3.org/2000/svg" width="24" height="24" fill="none">
  <g fill="#1C274C" fill-rule="evenodd" clip-rule="evenodd">
    <path d="M5.124 8.584a.75.75 0 1 0-1.248.832L5.599 12l-1.723 2.584a.75.75 0 1 0 1.248.832L6.5 13.352l1.376 2.064a.75.75 0 0 0 1.374-.406.75.75 0 0 0 1.374.406L12 13.352l1.376 2.064a.75.75 0 0 0 1.374-.406.749.749 0 0 0 1.374.406l1.376-2.064 1.376 2.064a.75.75 0 1 0 1.248-.832L18.401 12l1.723-2.584a.75.75 0 1 0-1.248-.832L17.5 10.648l-1.376-2.064a.75.75 0 0 0-1.374.406.749.749 0 0 0-1.374-.406L12 10.648l-1.376-2.064a.75.75 0 0 0-1.374.406.75.75 0 0 0-1.374-.406L6.5 10.648 5.124 8.584Zm4 6L7.401 12l1.723-2.584a.747.747 0 0 0 .126-.404c.002.139.043.28.126.404L11.099 12l-1.723 2.584a.746.746 0 0 0-.126.405.746.746 0 0 0-.126-.405Zm5.5 0L12.901 12l1.723-2.584a.746.746 0 0 0 .126-.404c.002.139.043.28.126.404L16.599 12l-1.723 2.584a.746.746 0 0 0-.126.405.746.746 0 0 0-.126-.405Z"/>
    <path d="M12.057 1.25h-.114c-2.309 0-4.118 0-5.53.19-1.444.194-2.584.6-3.479 1.494-.895.895-1.3 2.035-1.494 3.48-.19 1.411-.19 3.22-.19 5.529v.114c0 2.309 0 4.118.19 5.53.194 1.444.6 2.584 1.494 3.479.895.895 2.035 1.3 3.48 1.494 1.411.19 3.22.19 5.529.19h.114c2.309 0 4.118 0 5.53-.19 1.444-.194 2.584-.6 3.479-1.494.895-.895 1.3-2.035 1.494-3.48.19-1.411.19-3.22.19-5.529v-.114c0-2.309 0-4.118-.19-5.53-.194-1.444-.6-2.584-1.494-3.479-.895-.895-2.035-1.3-3.48-1.494-1.411-.19-3.22-.19-5.529-.19ZM3.995 3.995c.57-.57 1.34-.897 2.619-1.069 1.3-.174 3.008-.176 5.386-.176s4.086.002 5.386.176c1.279.172 2.05.5 2.62 1.069.569.57.896 1.34 1.068 2.619.174 1.3.176 3.008.176 5.386s-.002 4.086-.176 5.386c-.172 1.279-.5 2.05-1.069 2.62-.57.569-1.34.896-2.619 1.068-1.3.174-3.008.176-5.386.176s-4.086-.002-5.386-.176c-1.279-.172-2.05-.5-2.62-1.069-.569-.57-.896-1.34-1.068-2.619-.174-1.3-.176-3.008-.176-5.386s.002-4.086.176-5.386c.172-1.279.5-2.05 1.069-2.62Z"/>
  </g>
</svg>
