<svg width="24" height="24" viewBox="0 0 24 24" fill="none" xmlns="http://www.w3.org/2000/svg">
<g id="Outline / Design, Tools / Radial Blur">
<g id="Vector">
<path fill-rule="evenodd" clip-rule="evenodd" d="M13.1059 2.81542C11.1865 2.58276 9.17946 2.94735 7.37533 3.98897C2.95112 6.54329 1.43528 12.2005 3.9896 16.6247C6.54391 21.0489 12.2011 22.5648 16.6253 20.0104C18.4295 18.9688 19.7487 17.413 20.5069 15.6344C21.6097 13.0476 21.524 9.99511 20.0111 7.37471C18.4982 4.7543 15.8975 3.1538 13.1059 2.81542ZM6.62533 2.68993C8.72041 1.48034 11.0555 1.05591 13.2864 1.32632C16.5261 1.71902 19.5514 3.57847 21.3101 6.62471C23.0689 9.67094 23.1666 13.2206 21.8868 16.2227C21.0055 18.2898 19.4704 20.0999 17.3753 21.3095C12.2337 24.278 5.65909 22.5164 2.69056 17.3747C-0.277974 12.2331 1.48368 5.65846 6.62533 2.68993Z" fill="#1C274C"/>
<path fill-rule="evenodd" clip-rule="evenodd" d="M9.75012 8.99999C9.33591 8.99999 9.00012 9.33578 9.00012 9.74999C9.00012 10.1642 9.33591 10.5 9.75012 10.5C10.1643 10.5 10.5001 10.1642 10.5001 9.74999C10.5001 9.33578 10.1643 8.99999 9.75012 8.99999ZM8.00012 9.74999C8.00012 8.78349 8.78363 7.99999 9.75012 7.99999C10.7166 7.99999 11.5001 8.78349 11.5001 9.74999C11.5001 10.7165 10.7166 11.5 9.75012 11.5C8.78363 11.5 8.00012 10.7165 8.00012 9.74999ZM14.2501 8.99999C13.8359 8.99999 13.5001 9.33578 13.5001 9.74999C13.5001 10.1642 13.8359 10.5 14.2501 10.5C14.6643 10.5 15.0001 10.1642 15.0001 9.74999C15.0001 9.33578 14.6643 8.99999 14.2501 8.99999ZM12.5001 9.74999C12.5001 8.78349 13.2836 7.99999 14.2501 7.99999C15.2166 7.99999 16.0001 8.78349 16.0001 9.74999C16.0001 10.7165 15.2166 11.5 14.2501 11.5C13.2836 11.5 12.5001 10.7165 12.5001 9.74999ZM9.75012 13.5C9.33591 13.5 9.00012 13.8358 9.00012 14.25C9.00012 14.6642 9.33591 15 9.75012 15C10.1643 15 10.5001 14.6642 10.5001 14.25C10.5001 13.8358 10.1643 13.5 9.75012 13.5ZM8.00012 14.25C8.00012 13.2835 8.78363 12.5 9.75012 12.5C10.7166 12.5 11.5001 13.2835 11.5001 14.25C11.5001 15.2165 10.7166 16 9.75012 16C8.78363 16 8.00012 15.2165 8.00012 14.25ZM14.2501 13.5C13.8359 13.5 13.5001 13.8358 13.5001 14.25C13.5001 14.6642 13.8359 15 14.2501 15C14.6643 15 15.0001 14.6642 15.0001 14.25C15.0001 13.8358 14.6643 13.5 14.2501 13.5ZM12.5001 14.25C12.5001 13.2835 13.2836 12.5 14.2501 12.5C15.2166 12.5 16.0001 13.2835 16.0001 14.25C16.0001 15.2165 15.2166 16 14.2501 16C13.2836 16 12.5001 15.2165 12.5001 14.25Z" fill="#1C274C"/>
<path d="M15.0001 5.74999C15.0001 6.1642 14.6643 6.49999 14.2501 6.49999C13.8359 6.49999 13.5001 6.1642 13.5001 5.74999C13.5001 5.33578 13.8359 4.99999 14.2501 4.99999C14.6643 4.99999 15.0001 5.33578 15.0001 5.74999Z" fill="#1C274C"/>
<path d="M10.5001 5.74999C10.5001 6.1642 10.1643 6.49999 9.75012 6.49999C9.33591 6.49999 9.00012 6.1642 9.00012 5.74999C9.00012 5.33578 9.33591 4.99999 9.75012 4.99999C10.1643 4.99999 10.5001 5.33578 10.5001 5.74999Z" fill="#1C274C"/>
<path d="M18.2501 8.99999C18.6643 8.99999 19.0001 9.33578 19.0001 9.74999C19.0001 10.1642 18.6643 10.5 18.2501 10.5C17.8359 10.5 17.5001 10.1642 17.5001 9.74999C17.5001 9.33578 17.8359 8.99999 18.2501 8.99999Z" fill="#1C274C"/>
<path d="M5.75012 8.99999C6.16434 8.99999 6.50012 9.33578 6.50012 9.74999C6.50012 10.1642 6.16434 10.5 5.75012 10.5C5.33591 10.5 5.00012 10.1642 5.00012 9.74999C5.00012 9.33578 5.33591 8.99999 5.75012 8.99999Z" fill="#1C274C"/>
<path d="M18.2501 13.5C18.6643 13.5 19.0001 13.8358 19.0001 14.25C19.0001 14.6642 18.6643 15 18.2501 15C17.8359 15 17.5001 14.6642 17.5001 14.25C17.5001 13.8358 17.8359 13.5 18.2501 13.5Z" fill="#1C274C"/>
<path d="M5.75012 13.5C6.16434 13.5 6.50012 13.8358 6.50012 14.25C6.50012 14.6642 6.16434 15 5.75012 15C5.33591 15 5.00012 14.6642 5.00012 14.25C5.00012 13.8358 5.33591 13.5 5.75012 13.5Z" fill="#1C274C"/>
<path d="M15.0001 18.25C15.0001 18.6642 14.6643 19 14.2501 19C13.8359 19 13.5001 18.6642 13.5001 18.25C13.5001 17.8358 13.8359 17.5 14.2501 17.5C14.6643 17.5 15.0001 17.8358 15.0001 18.25Z" fill="#1C274C"/>
<path d="M10.5001 18.25C10.5001 18.6642 10.1643 19 9.75012 19C9.33591 19 9.00012 18.6642 9.00012 18.25C9.00012 17.8358 9.33591 17.5 9.75012 17.5C10.1643 17.5 10.5001 17.8358 10.5001 18.25Z" fill="#1C274C"/>
</g>
</g>
</svg>
