<svg width="24" height="24" viewBox="0 0 24 24" fill="none" xmlns="http://www.w3.org/2000/svg">
<g id="Bold / Time / Alarm Pause">
<g id="Vector">
<path fill-rule="evenodd" clip-rule="evenodd" d="M8.13612 1.6026C8.35566 1.95386 8.24887 2.41657 7.89762 2.6361L3.8976 5.1361C3.54634 5.35563 3.08363 5.24885 2.8641 4.8976C2.64457 4.54634 2.75135 4.08363 3.1026 3.8641L7.10263 1.3641C7.45388 1.14457 7.91659 1.25135 8.13612 1.6026ZM15.8641 1.6026C16.0836 1.25135 16.5463 1.14457 16.8976 1.3641L20.8976 3.8641C21.2489 4.08363 21.3556 4.54635 21.1361 4.8976C20.9166 5.24885 20.4539 5.35563 20.1026 5.1361L16.1026 2.6361C15.7513 2.41657 15.6446 1.95385 15.8641 1.6026Z" fill="#1C274C"/>
<path fill-rule="evenodd" clip-rule="evenodd" d="M21.0001 13.0001C21.0001 17.9707 16.9707 22.0001 12.0001 22.0001C7.02954 22.0001 3.0001 17.9707 3.0001 13.0001C3.0001 8.02954 7.02954 4.0001 12.0001 4.0001C16.9707 4.0001 21.0001 8.02954 21.0001 13.0001ZM16.0001 15.5001C16.0001 15.966 16.0001 16.199 15.924 16.3828C15.8225 16.6278 15.6278 16.8225 15.3828 16.924C15.199 17.0001 14.966 17.0001 14.5001 17.0001C14.0342 17.0001 13.8012 17.0001 13.6174 16.924C13.3724 16.8225 13.1777 16.6278 13.0762 16.3828C13.0001 16.199 13.0001 15.966 13.0001 15.5001V10.5001C13.0001 10.0342 13.0001 9.80119 13.0762 9.61742C13.1777 9.37239 13.3724 9.17771 13.6174 9.07622C13.8012 9.0001 14.0342 9.0001 14.5001 9.0001C14.966 9.0001 15.199 9.0001 15.3828 9.07622C15.6278 9.17771 15.8225 9.37239 15.924 9.61742C16.0001 9.80119 16.0001 10.0342 16.0001 10.5001V15.5001ZM11.0001 15.5001V10.5001C11.0001 10.0342 11.0001 9.80119 10.924 9.61742C10.8225 9.37239 10.6278 9.17771 10.3828 9.07622C10.199 9.0001 9.96604 9.0001 9.5001 9.0001C9.03416 9.0001 8.80119 9.0001 8.61742 9.07622C8.37239 9.17771 8.17771 9.37239 8.07622 9.61742C8.0001 9.80119 8.0001 10.0342 8.0001 10.5001V15.5001C8.0001 15.966 8.0001 16.199 8.07622 16.3828C8.17771 16.6278 8.37239 16.8225 8.61742 16.924C8.80119 17.0001 9.03416 17.0001 9.5001 17.0001C9.96604 17.0001 10.199 17.0001 10.3828 16.924C10.6278 16.8225 10.8225 16.6278 10.924 16.3828C11.0001 16.199 11.0001 15.966 11.0001 15.5001Z" fill="#1C274C"/>
</g>
</g>
</svg>
