<svg width="24" height="24" viewBox="0 0 24 24" fill="none" xmlns="http://www.w3.org/2000/svg">
<g id="Bold Duotone / Time / Alarm Turn Off">
<path id="Vector" opacity="0.5" d="M12 22C16.9706 22 21 17.9706 21 13C21 8.02944 16.9706 4 12 4C7.02944 4 3 8.02944 3 13C3 17.9706 7.02944 22 12 22Z" fill="#1C274C"/>
<path id="Vector_2" d="M14.6519 10.3486C14.9448 10.6415 14.9448 11.1163 14.6519 11.4092L13.0609 13.0002L14.6519 14.5912C14.9448 14.8841 14.9448 15.359 14.6519 15.6519C14.359 15.9448 13.8841 15.9448 13.5912 15.6519L12.0002 14.0609L10.4093 15.6519C10.1164 15.9448 9.64149 15.9448 9.34859 15.6519C9.0557 15.359 9.0557 14.8841 9.34859 14.5912L10.9396 13.0002L9.34858 11.4093C9.05568 11.1164 9.05568 10.6415 9.34858 10.3486C9.64147 10.0557 10.1163 10.0557 10.4092 10.3486L12.0002 11.9396L13.5912 10.3486C13.8841 10.0557 14.359 10.0557 14.6519 10.3486Z" fill="#1C274C"/>
<g id="Vector_3">
<path fill-rule="evenodd" clip-rule="evenodd" d="M8.2405 2.33986C8.45409 2.67841 8.3502 3.1244 8.00844 3.33599L4.11657 5.74562C3.77481 5.95722 3.32461 5.8543 3.11102 5.51574C2.89742 5.17718 3.00131 4.7312 3.34307 4.5196L7.23494 2.10998C7.5767 1.89838 8.0269 2.0013 8.2405 2.33986Z" fill="#1C274C"/>
<path fill-rule="evenodd" clip-rule="evenodd" d="M15.7595 2.33985C15.9731 2.0013 16.4233 1.89838 16.7651 2.10998L20.6569 4.5196C20.9987 4.7312 21.1026 5.17719 20.889 5.51574C20.6754 5.8543 20.2252 5.95722 19.8834 5.74562L15.9916 3.33599C15.6498 3.1244 15.5459 2.67841 15.7595 2.33985Z" fill="#1C274C"/>
</g>
</g>
</svg>
