<svg width="24" height="24" viewBox="0 0 24 24" fill="none" xmlns="http://www.w3.org/2000/svg">
<g id="Outline / Home, Furniture / Armchair 2 ">
<path id="Vector" fill-rule="evenodd" clip-rule="evenodd" d="M10.7488 3.25H13.2513C14.3391 3.24998 15.2275 3.24996 15.9288 3.33976C16.659 3.43326 17.2992 3.63569 17.8144 4.12637C18.3347 4.62195 18.5542 5.24606 18.6548 5.95854C18.7501 6.63353 18.7501 7.48576 18.7501 8.51621V9.57285C19.1508 9.36319 19.6073 9.25 20.0732 9.25C21.7813 9.25 23.2439 10.8073 22.6025 12.5265L21.483 15.5271C21.4752 15.548 21.4675 15.5687 21.4599 15.589C21.2872 16.0524 21.1688 16.3699 21.0077 16.6478C20.5101 17.5062 19.6992 18.1446 18.7501 18.4812V20C18.7501 20.4142 18.4143 20.75 18.0001 20.75C17.5858 20.75 17.2501 20.4142 17.2501 20V18.7457C17.0624 18.7501 16.8494 18.75 16.5945 18.75L6.87988 18.75C6.82401 18.75 6.7882 18.75 6.75486 18.7495C6.75326 18.7495 6.75166 18.7495 6.75006 18.7495V20C6.75006 20.4142 6.41428 20.75 6.00006 20.75C5.58585 20.75 5.25006 20.4142 5.25006 20V18.6667C5.25006 18.6052 5.25745 18.5455 5.27138 18.4884C4.13017 18.0899 3.18509 17.257 2.74393 16.1336C2.73225 16.1038 2.72036 16.0719 2.70307 16.0256L1.39765 12.5265C0.756257 10.8073 2.21883 9.25 3.92695 9.25C4.39287 9.25 4.84935 9.36319 5.25006 9.57285L5.25006 8.51621C5.25003 7.48576 5.25001 6.63353 5.34529 5.95854C5.44587 5.24606 5.6654 4.62195 6.18576 4.12637C6.70097 3.63569 7.34109 3.43326 8.07135 3.33976C8.77266 3.24996 9.66103 3.24998 10.7488 3.25ZM5.25006 11.9284V12H5.2791L6.14021 14.122C6.14677 14.1382 6.15334 14.1544 6.15992 14.1707C6.2392 14.367 6.3219 14.5719 6.44868 14.7481C6.7368 15.1486 7.17297 15.412 7.64799 15.5085C7.85485 15.5505 8.07471 15.5503 8.3136 15.55C8.3315 15.55 8.34951 15.55 8.36763 15.55H15.3468C15.3822 15.55 15.4175 15.5501 15.4526 15.5501C15.9137 15.551 16.3443 15.5519 16.7242 15.3953C16.9308 15.3102 17.1229 15.1908 17.2898 15.0401C17.6062 14.7543 17.766 14.3571 17.9202 13.974C17.9326 13.9432 17.9449 13.9125 17.9573 13.882L18.721 12H18.7501V11.9284L18.958 11.4159C19.1048 11.0542 19.5274 10.75 20.0732 10.75C20.9935 10.75 21.3869 11.4935 21.1971 12.0022L20.0777 15.0028C19.873 15.5514 19.7995 15.7411 19.71 15.8956C19.3127 16.5808 18.5513 17.089 17.631 17.2184C17.4189 17.2482 17.1734 17.25 16.5332 17.25H6.8864C6.82212 17.25 6.79744 17.25 6.77588 17.2497C5.53935 17.2323 4.51129 16.5304 4.14014 15.5853C4.13375 15.569 4.12661 15.55 4.10604 15.4948L2.80303 12.0022C2.61325 11.4935 3.00666 10.75 3.92695 10.75C4.47271 10.75 4.89529 11.0542 5.0421 11.4159L5.25006 11.9284ZM17.2501 11.6357V8.57143C17.2501 7.4717 17.2483 6.72607 17.1696 6.16822C17.0944 5.63584 16.9625 5.38646 16.7799 5.21257C16.5921 5.03378 16.3151 4.90147 15.7383 4.82761C15.1434 4.75145 14.3517 4.75 13.2001 4.75H10.8001C9.64847 4.75 8.85668 4.75145 8.26186 4.82761C7.68502 4.90147 7.40798 5.03378 7.22025 5.21258C7.03766 5.38646 6.90572 5.63584 6.83057 6.16822C6.75181 6.72607 6.75006 7.4717 6.75006 8.57143V11.6357L7.53013 13.558C7.58254 13.6871 7.61287 13.7614 7.63828 13.8168C7.65594 13.8552 7.66444 13.8692 7.66633 13.8721C7.71643 13.9418 7.81149 14.0111 7.94646 14.0385C7.98531 14.0464 8.04112 14.05 8.36763 14.05H15.3468C15.984 14.05 16.0854 14.0362 16.1526 14.0085C16.2059 13.9866 16.25 13.958 16.2844 13.9269C16.2855 13.9259 16.3058 13.9103 16.3529 13.8179C16.4064 13.713 16.4657 13.5687 16.5674 13.318L17.2501 11.6357Z" fill="#1C274C"/>
</g>
</svg>
