<svg width="24" height="24" viewBox="0 0 24 24" fill="none" xmlns="http://www.w3.org/2000/svg">
<g id="Outline / School / Backpack">
<g id="Vector">
<path d="M10.0002 12.25C9.58597 12.25 9.25019 12.5858 9.25019 13C9.25019 13.4142 9.58597 13.75 10.0002 13.75H14.0002C14.4144 13.75 14.7502 13.4142 14.7502 13C14.7502 12.5858 14.4144 12.25 14.0002 12.25H10.0002Z" fill="#1C274D"/>
<path fill-rule="evenodd" clip-rule="evenodd" d="M7.32033 4.27529C7.65835 2.55091 9.17665 1.25 11.0002 1.25H13.0002C14.8238 1.25 16.3421 2.55092 16.6801 4.2753C19.6252 5.03147 21.7075 7.66894 21.7495 10.7198C21.7502 10.7665 21.7502 10.8178 21.7502 10.9044V13.9829C21.7504 13.994 21.7504 14.0052 21.7502 14.0163V16.375C21.7502 18.8445 20.035 20.9827 17.6244 21.5184C13.9201 22.3415 10.0803 22.3415 6.37602 21.5184C3.96535 20.9827 2.25019 18.8445 2.25019 16.375V14.0163C2.24994 14.0052 2.24994 13.994 2.25019 13.9829V10.9043C2.25019 10.8177 2.25019 10.7664 2.25083 10.7198C2.2929 7.66892 4.37523 5.03144 7.32033 4.27529ZM9.01465 3.94034C9.39359 3.23199 10.1411 2.75 11.0002 2.75H13.0002C13.8594 2.75 14.6068 3.232 14.9858 3.94035C13.0069 3.63773 10.9935 3.63772 9.01465 3.94034ZM20.2502 10.9111V13.5066C14.9716 15.711 9.02878 15.711 3.75019 13.5066V10.9111C3.75019 10.8157 3.7502 10.7755 3.75069 10.7405C3.78387 8.33419 5.4489 6.25854 7.79074 5.70414C7.82473 5.69609 7.86404 5.68733 7.95714 5.66665C8.04138 5.64793 8.08131 5.63905 8.12071 5.63048C10.6771 5.07434 13.3232 5.07434 15.8797 5.63048C15.9191 5.63905 15.959 5.64793 16.0432 5.66665C16.1363 5.68733 16.1756 5.69609 16.2096 5.70414C18.5515 6.25854 20.2165 8.33419 20.2497 10.7405C20.2502 10.7755 20.2502 10.8157 20.2502 10.9111ZM3.75019 16.375V15.123C7.91456 16.7307 12.4332 17.0771 16.7502 16.1622V17C16.7502 17.4142 17.086 17.75 17.5002 17.75C17.9144 17.75 18.2502 17.4142 18.2502 17V15.7911C18.9242 15.5999 19.5916 15.3772 20.2502 15.123V16.375C20.2502 18.1415 19.0233 19.6709 17.299 20.0541C13.809 20.8296 10.1914 20.8296 6.70141 20.0541C4.97705 19.6709 3.75019 18.1415 3.75019 16.375Z" fill="#1C274D"/>
</g>
</g>
</svg>
