<svg width="24" height="24" viewBox="0 0 24 24" fill="none" xmlns="http://www.w3.org/2000/svg">
<g id="Linear / Shopping, Ecommerce / Bag Music">
<path id="Vector" d="M3.74181 20.5545C4.94143 22 7.17414 22 11.6395 22H12.3607C16.8261 22 19.0589 22 20.2585 20.5545M3.74181 20.5545C2.54219 19.1091 2.95365 16.9146 3.77657 12.5257C4.36179 9.40452 4.65441 7.84393 5.7653 6.92196M3.74181 20.5545C3.74181 20.5545 3.74181 20.5545 3.74181 20.5545ZM20.2585 20.5545C21.4581 19.1091 21.0466 16.9146 20.2237 12.5257C19.6385 9.40452 19.3459 7.84393 18.235 6.92196M20.2585 20.5545C20.2585 20.5545 20.2585 20.5545 20.2585 20.5545ZM18.235 6.92196C17.1241 6 15.5363 6 12.3607 6H11.6395C8.46398 6 6.8762 6 5.7653 6.92196M18.235 6.92196C18.235 6.92196 18.235 6.92196 18.235 6.92196ZM5.7653 6.92196C5.7653 6.92196 5.7653 6.92196 5.7653 6.92196Z" stroke="#1C274C" stroke-width="1.5"/>
<path id="Vector_2" d="M9 6V5C9 3.34315 10.3431 2 12 2C13.6569 2 15 3.34315 15 5V6" stroke="#1C274C" stroke-width="1.5" stroke-linecap="round"/>
<path id="Vector_3" d="M12 17C12 18.1046 11.1046 19 10 19C8.89543 19 8 18.1046 8 17C8 15.8954 8.89543 15 10 15C11.1046 15 12 15.8954 12 17ZM12 17V12" stroke="#1C274C" stroke-width="1.5"/>
<path id="Vector_4" d="M14.0584 9.97081L12.7416 10.6292C12.5592 10.7204 12.468 10.766 12.3926 10.8236C12.1974 10.9729 12.064 11.1887 12.0178 11.43C12 11.5232 12 11.6252 12 11.8292C12 12.3147 12 12.5575 12.0598 12.7225C12.2178 13.1587 12.6551 13.429 13.1159 13.3752C13.2902 13.3549 13.5074 13.2463 13.9416 13.0292L15.2584 12.3708C15.4408 12.2796 15.532 12.234 15.6074 12.1764C15.8026 12.0271 15.936 11.8113 15.9822 11.57C16 11.4768 16 11.3748 16 11.1708C16 10.6853 16 10.4425 15.9402 10.2775C15.7822 9.84126 15.3449 9.57101 14.8841 9.62476C14.7098 9.6451 14.4926 9.75367 14.0584 9.97081Z" stroke="#1C274C" stroke-width="1.5" stroke-linecap="round"/>
</g>
</svg>
