<svg width="24" height="24" viewBox="0 0 24 24" fill="none" xmlns="http://www.w3.org/2000/svg">
<g id="Bold Duotone / Essentional, UI / Balloon">
<path id="Vector" opacity="0.5" d="M12 17.9998C16.142 18.0343 19.5937 14.0798 19.5603 9.8043C19.5268 5.52875 16.142 2.03476 12 2.00026C7.858 1.96576 4.52734 5.4038 4.56077 9.67936C4.59419 13.9549 7.858 17.9653 12 17.9998Z" fill="#1C274C"/>
<path id="Vector_2" fill-rule="evenodd" clip-rule="evenodd" d="M11.75 5.99395C11.7534 5.57975 12.0919 5.24668 12.5061 5.25002C14.5591 5.26659 16.2334 6.94088 16.25 8.99395C16.2533 9.40815 15.9203 9.74663 15.5061 9.74998C15.0919 9.75332 14.7534 9.42025 14.75 9.00605C14.7401 7.77194 13.7281 6.75993 12.4939 6.74998C12.0797 6.74663 11.7467 6.40815 11.75 5.99395Z" fill="#1C274C"/>
<path id="Vector_3" d="M13.1801 17.9012C12.7949 17.9692 12.4007 18.0032 12 17.9999C11.6006 17.9966 11.2094 17.9563 10.8284 17.8823L10.8104 17.9225C10.6581 18.196 10.5819 18.3328 10.5489 18.4382C10.3559 19.0555 10.7534 19.6996 11.4067 19.8281C11.5182 19.85 11.6788 19.85 12 19.85C12.3211 19.85 12.4818 19.85 12.5933 19.8281C13.2466 19.6996 13.6441 19.0555 13.4511 18.4382C13.4181 18.3328 13.342 18.196 13.1896 17.9225L13.1801 17.9012Z" fill="#1C274C"/>
<path id="Vector_4" opacity="0.5" d="M11.25 19.7861C11.3004 19.8035 11.3526 19.8177 11.4067 19.8283C11.5182 19.8502 11.6788 19.8502 12 19.8502C12.3211 19.8502 12.4818 19.8502 12.5933 19.8283C12.6474 19.8177 12.6996 19.8035 12.75 19.7861V21.2502C12.75 21.6644 12.4142 22.0002 12 22.0002C11.5858 22.0002 11.25 21.6644 11.25 21.2502V19.7861Z" fill="#1C274C"/>
</g>
</svg>
