<svg width="24" height="24" viewBox="0 0 24 24" fill="none" xmlns="http://www.w3.org/2000/svg">
<g id="Line Duotone / Sports / Basketball">
<path id="Vector" d="M3.33946 16.9997C6.10089 21.7826 12.2168 23.4214 16.9997 20.66C18.9493 19.5344 20.3765 17.8514 21.1962 15.9286C22.3875 13.1341 22.2958 9.83304 20.66 6.99972C19.0242 4.1664 16.2112 2.43642 13.1955 2.07088C11.1204 1.81935 8.94932 2.21386 6.99972 3.33946C2.21679 6.10089 0.578039 12.2168 3.33946 16.9997Z" stroke="#1C274C" stroke-width="1.5"/>
<path id="Vector_2" opacity="0.5" d="M16.9497 20.5732C16.9497 20.5732 16.0107 13.9821 14.0004 10.5001C11.99 7.01803 7.05018 3.42681 7.05018 3.42681M7.57711 20.8175C9.05874 16.3477 16.4525 11.3931 21.8635 12.5801M16.4139 3.20898C14.926 7.63004 7.67424 12.5123 2.28857 11.4516" stroke="#1C274C" stroke-width="1.5" stroke-linecap="round"/>
</g>
</svg>
