<svg width="24" height="24" viewBox="0 0 24 24" fill="none" xmlns="http://www.w3.org/2000/svg">
<g id="Bold Duotone / Home, Furniture / Bath">
<path id="Vector" fill-rule="evenodd" clip-rule="evenodd" d="M2 11H1.75C1.33579 11 1 11.3358 1 11.75C1 12.1642 1.33579 12.5 1.75 12.5H2V12.75L2.00008 12.7614L2.00001 12.8168L2.00001 12.8546C2 13.2299 2 13.4498 2.01557 13.6952C2.15751 15.9316 3.36604 17.9968 5.11758 19.3472C5.27527 19.4726 6.0307 19.9348 6.3887 20.1501C7.19042 20.5559 8.0623 20.823 8.96911 20.9148C9.21355 20.9396 9.36275 20.9452 9.61687 20.9548L9.62369 20.955C10.3639 20.9828 11.0885 21 11.75 21C12.4115 21 13.1361 20.9828 13.8763 20.955L13.883 20.9548C14.1372 20.9452 14.2865 20.9396 14.5309 20.9148C15.4378 20.823 16.3098 20.5559 17.1116 20.15C17.45 19.9508 18.178 19.5114 18.3827 19.347C20.1341 17.9966 21.3425 15.9315 21.4845 13.6952C21.5 13.4498 21.5 13.2299 21.5 12.8546L21.5 12.8168C21.5 12.7567 21.5001 12.6942 21.4963 12.6365C21.4933 12.5905 21.4886 12.545 21.4821 12.5H21.75C22.1642 12.5 22.5 12.1642 22.5 11.75C22.5 11.3358 22.1642 11 21.75 11H3.5H2Z" fill="#1C274C"/>
<path id="Vector_2" opacity="0.5" d="M5.11758 19.3472C5.10383 19.3688 5.09106 19.3913 5.07934 19.4148L4.07934 21.4148C3.8941 21.7853 4.04427 22.2358 4.41475 22.421C4.78524 22.6062 5.23574 22.4561 5.42098 22.0856L6.3887 20.1502C6.0307 19.9348 5.27527 19.4727 5.11758 19.3472Z" fill="#1C274C"/>
<path id="Vector_3" opacity="0.5" d="M17.1113 20.1499L18.0791 22.0855C18.2643 22.456 18.7149 22.6062 19.0853 22.4209C19.4558 22.2357 19.606 21.7852 19.4207 21.4147L18.4207 19.4147C18.409 19.3912 18.3962 19.3686 18.3824 19.3469C18.1778 19.5113 17.4498 19.9508 17.1113 20.1499Z" fill="#1C274C"/>
<path id="Vector_4" opacity="0.5" d="M3.5 4.13516C3.5 3.23209 4.23209 2.5 5.13516 2.5C5.80379 2.5 6.40505 2.90708 6.65338 3.52788L6.79665 3.88607L8.15623 3.24613L8.04609 2.97079C7.56997 1.7805 6.41715 1 5.13516 1C3.40366 1 2 2.40366 2 4.13516V11H3.5V4.13516Z" fill="#1C274C"/>
<path id="Vector_5" d="M6.79601 3.88615C6.20149 4.31936 5.71579 4.92343 5.41658 5.66021C4.99627 6.69522 5.01894 7.80672 5.39716 8.76659C5.47156 8.95542 5.61933 9.10604 5.80671 9.18404C5.99408 9.26204 6.20508 9.26077 6.3915 9.18052L12.3523 6.61444C12.7244 6.45425 12.902 6.02752 12.7535 5.65061C12.3751 4.69037 11.6363 3.87197 10.621 3.43821C9.80968 3.0916 8.94888 3.04497 8.15558 3.24621L6.79601 3.88615Z" fill="#1C274C"/>
</g>
</svg>
