<svg width="24" height="24" viewBox="0 0 24 24" fill="none" xmlns="http://www.w3.org/2000/svg">
<g id="Line Duotone / Notifications / Bell">
<path id="Vector" d="M19.0001 9.7041V9C19.0001 5.13401 15.8661 2 12.0001 2C8.13407 2 5.00006 5.13401 5.00006 9V9.7041C5.00006 10.5491 4.74995 11.3752 4.28123 12.0783L3.13263 13.8012C2.08349 15.3749 2.88442 17.5139 4.70913 18.0116C9.48258 19.3134 14.5175 19.3134 19.291 18.0116C21.1157 17.5139 21.9166 15.3749 20.8675 13.8012L19.7189 12.0783C19.2502 11.3752 19.0001 10.5491 19.0001 9.7041Z" stroke="#1C274C" stroke-width="1.5"/>
<path id="Vector_2" opacity="0.5" d="M7.5 19C8.15503 20.7478 9.92246 22 12 22C14.0775 22 15.845 20.7478 16.5 19" stroke="#1C274C" stroke-width="1.5" stroke-linecap="round"/>
</g>
</svg>
