<svg width="24" height="24" viewBox="0 0 24 24" fill="none" xmlns="http://www.w3.org/2000/svg">
<g id="Outline / Medicine / Benzene Ring">
<g id="Vector">
<path d="M16.3841 15.1442C16.7399 14.9322 16.8564 14.4718 16.6443 14.116C16.4323 13.7602 15.9719 13.6437 15.6161 13.8558L11.6161 16.2398C11.2603 16.4519 11.1438 16.9122 11.3558 17.268C11.5679 17.6239 12.0283 17.7404 12.3841 17.5283L16.3841 15.1442Z" fill="#1C274C"/>
<path fill-rule="evenodd" clip-rule="evenodd" d="M10.8395 3.54012C11.2106 3.36702 11.5811 3.25 12.0001 3.25C12.419 3.25 12.7895 3.36702 13.1607 3.54012C13.5092 3.70266 13.9064 3.9388 14.3734 4.21642L17.3928 6.0112C17.8601 6.28896 18.2573 6.52502 18.568 6.75426C18.7183 6.86518 18.8579 6.98113 18.9847 7.10886L21.5841 5.37596C21.9287 5.1462 22.3944 5.23933 22.6241 5.58397C22.8539 5.92862 22.7608 6.39427 22.4161 6.62404L19.6681 8.45604C19.6875 8.5653 19.7019 8.6767 19.7128 8.7906C19.7501 9.18002 19.7501 9.6501 19.7501 10.2071V13.7929C19.7501 14.3499 19.7501 14.82 19.7128 15.2094C19.6733 15.6223 19.5879 16.0023 19.3835 16.3668C19.1785 16.7325 18.8992 17.0013 18.568 17.2457C18.2573 17.475 17.8602 17.711 17.3928 17.9888L14.3735 19.7836C13.9065 20.0611 13.5092 20.2974 13.1607 20.4599C12.7895 20.633 12.419 20.75 12.0001 20.75C11.5811 20.75 11.2106 20.633 10.8395 20.4599C10.491 20.2974 10.0938 20.0613 9.6269 19.7837L6.60733 17.9888C6.14 17.711 5.74287 17.475 5.4322 17.2457C5.28187 17.1348 5.14227 17.0189 5.01544 16.8911L2.4161 18.624C2.07146 18.8538 1.60581 18.7607 1.37604 18.416C1.14628 18.0714 1.23941 17.6057 1.58405 17.376L4.33205 15.544C4.31263 15.4347 4.29824 15.3233 4.28733 15.2094C4.25005 14.82 4.25006 14.3499 4.25008 13.7929V10.2071C4.25006 9.6501 4.25005 9.18001 4.28733 8.7906C4.29824 8.6767 4.31263 8.5653 4.33205 8.45604L1.58405 6.62404C1.23941 6.39427 1.14628 5.92862 1.37604 5.58397C1.60581 5.23933 2.07146 5.1462 2.4161 5.37596L5.01544 7.10885C5.14227 6.98113 5.28188 6.86518 5.4322 6.75426C5.74287 6.52501 6.14 6.28897 6.60734 6.01119L9.62672 4.21642C10.0937 3.9388 10.491 3.70266 10.8395 3.54012ZM11.4735 4.89954C11.2011 5.02656 10.8685 5.2233 10.3626 5.52401L7.40403 7.28262C6.89831 7.58323 6.56624 7.78162 6.32282 7.96123C6.09332 8.13058 5.99066 8.24969 5.92497 8.36684C5.85864 8.48512 5.80865 8.63957 5.78051 8.93356C5.75087 9.24308 5.75008 9.64101 5.75008 10.2414V13.7586C5.75008 14.359 5.75087 14.7569 5.78051 15.0664C5.80865 15.3604 5.85864 15.5149 5.92497 15.6332C5.99067 15.7503 6.09332 15.8694 6.32282 16.0388C6.56624 16.2184 6.89831 16.4168 7.40403 16.7174L10.3626 18.476C10.8685 18.7767 11.2011 18.9734 11.4735 19.1005C11.7308 19.2205 11.8776 19.25 12.0001 19.25C12.1226 19.25 12.2694 19.2205 12.5267 19.1005C12.799 18.9734 13.1317 18.7767 13.6376 18.476L16.5961 16.7174C17.1019 16.4168 17.4339 16.2184 17.6773 16.0388C17.9068 15.8694 18.0095 15.7503 18.0752 15.6332C18.1415 15.5149 18.1915 15.3604 18.2197 15.0664C18.2493 14.7569 18.2501 14.359 18.2501 13.7586V10.2414C18.2501 9.64101 18.2493 9.24308 18.2197 8.93356C18.1915 8.63957 18.1415 8.48512 18.0752 8.36684C18.0095 8.24969 17.9068 8.13058 17.6773 7.96123C17.4339 7.78162 17.1019 7.58323 16.5961 7.28262L13.6376 5.52401C13.1317 5.2233 12.799 5.02656 12.5267 4.89954C12.2694 4.77953 12.1226 4.75 12.0001 4.75C11.8776 4.75 11.7308 4.77953 11.4735 4.89954Z" fill="#1C274C"/>
</g>
</g>
</svg>
