<svg width="24" height="24" viewBox="0 0 24 24" fill="none" xmlns="http://www.w3.org/2000/svg">
<g id="Bold Duotone / Sports / Bicycling ">
<g id="Vector">
<path d="M17.0002 4C17.0002 5.10457 16.1048 6 15.0002 6C13.8956 6 13.0002 5.10457 13.0002 4C13.0002 2.89543 13.8956 2 15.0002 2C16.1048 2 17.0002 2.89543 17.0002 4Z" fill="#1C274C"/>
<path fill-rule="evenodd" clip-rule="evenodd" d="M12.1612 7.1149L12.7738 7.72376C13.6831 8.62742 13.9995 8.92328 14.3796 9.08006C14.7597 9.23683 15.1927 9.25 16.4746 9.25H18.5002C18.9144 9.25 19.2502 9.58579 19.2502 10C19.2502 10.4142 18.9144 10.75 18.5002 10.75H16.4746C16.4267 10.75 16.3794 10.75 16.3327 10.75C15.2495 10.7506 14.4967 10.7509 13.8077 10.4668C13.1187 10.1826 12.585 9.65173 11.8171 8.88781C11.784 8.85487 11.7505 8.8215 11.7164 8.78769L11.1391 8.21391C10.7304 7.80771 10.4798 7.56126 10.2784 7.41096C10.185 7.34129 10.131 7.31506 10.1054 7.30549C10.1001 7.3035 10.0964 7.30237 10.094 7.30175C10.0919 7.30278 10.0884 7.30456 10.0835 7.30748C10.0601 7.32153 10.0117 7.35708 9.93248 7.44248C9.76149 7.62672 9.55962 7.9144 9.23106 8.38777L8.00444 10.155C7.67003 10.6368 7.46704 10.9325 7.35224 11.1615C7.29895 11.2678 7.28237 11.3267 7.27742 11.3541C7.27646 11.3594 7.276 11.3631 7.27579 11.3656C7.27725 11.3675 7.27961 11.3705 7.2832 11.3745C7.30179 11.3952 7.34682 11.4366 7.44799 11.4991C7.6659 11.6338 7.99387 11.7789 8.53141 12.0135L10.0473 12.6749C10.695 12.9575 11.241 13.1957 11.6617 13.4422C12.1084 13.7038 12.4859 14.0143 12.7392 14.4775C12.9926 14.9407 13.0504 15.4259 13.0298 15.9432C13.0103 16.4304 12.9164 17.0186 12.805 17.7165L12.7408 18.1182C12.6755 18.5273 12.291 18.8059 11.882 18.7406C11.4729 18.6753 11.1943 18.2908 11.2596 17.8818L11.3168 17.5233C11.437 16.7706 11.5155 16.271 11.5309 15.8835C11.5456 15.516 11.498 15.334 11.4232 15.1973C11.3485 15.0606 11.2208 14.9223 10.9035 14.7364C10.5689 14.5404 10.1058 14.337 9.40722 14.0322L7.93152 13.3883C7.91611 13.3816 7.90075 13.3748 7.88543 13.3682C7.40882 13.1603 6.97977 12.9731 6.65947 12.7752C6.31138 12.5601 5.96979 12.2603 5.83215 11.7749C5.69451 11.2895 5.82792 10.8551 6.01129 10.4893C6.18002 10.1527 6.44696 9.76818 6.7435 9.34105C6.75303 9.32732 6.76259 9.31355 6.77217 9.29973L7.9988 7.53248C8.00828 7.51881 8.01773 7.50519 8.02716 7.49161C8.31812 7.07231 8.58057 6.6941 8.83302 6.42209C9.10782 6.126 9.46251 5.85262 9.95788 5.80748C10.4532 5.76234 10.8515 5.96711 11.1753 6.20865C11.4727 6.43055 11.7992 6.7551 12.1612 7.1149Z" fill="#1C274C"/>
</g>
<g id="Vector_2" opacity="0.5">
<path fill-rule="evenodd" clip-rule="evenodd" d="M18 14.25C15.9289 14.25 14.25 15.9289 14.25 18C14.25 20.0711 15.9289 21.75 18 21.75C20.0711 21.75 21.75 20.0711 21.75 18C21.75 15.9289 20.0711 14.25 18 14.25ZM18 15.75C16.7574 15.75 15.75 16.7574 15.75 18C15.75 19.2426 16.7574 20.25 18 20.25C19.2426 20.25 20.25 19.2426 20.25 18C20.25 16.7574 19.2426 15.75 18 15.75Z" fill="#1C274C"/>
<path fill-rule="evenodd" clip-rule="evenodd" d="M6 14.25C3.92893 14.25 2.25 15.9289 2.25 18C2.25 20.0711 3.92893 21.75 6 21.75C8.07107 21.75 9.75 20.0711 9.75 18C9.75 15.9289 8.07107 14.25 6 14.25ZM6 15.75C4.75736 15.75 3.75 16.7574 3.75 18C3.75 19.2426 4.75736 20.25 6 20.25C7.24264 20.25 8.25 19.2426 8.25 18C8.25 16.7574 7.24264 15.75 6 15.75Z" fill="#1C274C"/>
</g>
</g>
</svg>
