<svg width="24" height="24" viewBox="0 0 24 24" fill="none" xmlns="http://www.w3.org/2000/svg">
<g id="Outline / Astronomy / Black Hole">
<circle id="Vector" cx="12" cy="12" r="2" stroke="#1C274C" stroke-width="1.5"/>
<path id="Vector (Stroke)" fill-rule="evenodd" clip-rule="evenodd" d="M7.84666 2.16694C8.13955 2.45983 8.13955 2.9347 7.84666 3.2276C7.60873 3.46552 7.40279 3.70858 7.22581 3.95479C6.98404 4.29112 6.5154 4.36779 6.17906 4.12602C5.84273 3.88425 5.76607 3.4156 6.00783 3.07927C6.2338 2.76492 6.49273 2.4602 6.786 2.16694C7.07889 1.87404 7.55376 1.87404 7.84666 2.16694ZM18.5235 6.28177C17.9132 6.12808 17.2863 6.09849 16.6615 6.17295C16.2502 6.22197 15.877 5.92828 15.828 5.51697C15.779 5.10567 16.0727 4.73251 16.484 4.68349C17.2731 4.58944 18.0855 4.62464 18.8898 4.82718C19.2915 4.92832 19.5351 5.33594 19.4339 5.73761C19.3328 6.13929 18.9252 6.38291 18.5235 6.28177ZM5.89392 4.72169C6.2956 4.82284 6.53922 5.23046 6.43807 5.63213C6.28439 6.24245 6.25479 6.86934 6.32925 7.49412C6.37827 7.90542 6.08458 8.27858 5.67328 8.3276C5.26198 8.37662 4.88881 8.08293 4.83979 7.67163C4.74575 6.88252 4.78095 6.07014 4.98348 5.26584C5.08463 4.86417 5.49225 4.62054 5.89392 4.72169ZM15.1962 5.70195C15.3631 6.08106 15.1911 6.52367 14.812 6.69056C14.2132 6.95416 13.6458 7.29946 13.1349 7.70002C12.8089 7.95559 12.3375 7.89852 12.0819 7.57255C11.8264 7.24658 11.8834 6.77515 12.2094 6.51958C12.8137 6.04581 13.4883 5.63438 14.2076 5.3177C14.5867 5.15081 15.0293 5.32285 15.1962 5.70195ZM20.0296 6.02275C20.2714 5.68642 20.74 5.60976 21.0763 5.85153C21.3907 6.07749 21.6954 6.33642 21.9887 6.62969C22.2816 6.92258 22.2816 7.39746 21.9887 7.69035C21.6958 7.98324 21.2209 7.98324 20.928 7.69035C20.6901 7.45243 20.447 7.24649 20.2008 7.0695C19.8645 6.82773 19.7878 6.35909 20.0296 6.02275ZM11.6161 8.0355C11.9468 8.28491 12.0127 8.75519 11.7633 9.0859C11.6982 9.17231 11.636 9.25907 11.577 9.346C11.8465 9.36826 12.0947 9.5359 12.207 9.80229C12.3679 10.184 12.1889 10.6238 11.8073 10.7847C11.5829 10.8794 11.3659 11.0221 11.1619 11.2261C10.8898 11.4981 10.4607 11.5175 10.1663 11.284C10.1042 11.2826 10.0413 11.2734 9.97885 11.2558C9.58023 11.1432 9.34833 10.7288 9.4609 10.3302C9.67178 9.58342 10.0607 8.85242 10.5657 8.1827C10.8151 7.85199 11.2854 7.78609 11.6161 8.0355ZM5.85826 8.95938C6.23736 8.79249 6.67998 8.96452 6.84687 9.34363C7.11046 9.9424 7.45576 10.5098 7.85633 11.0207C8.1119 11.3467 8.05483 11.8181 7.72886 12.0737C7.40288 12.3292 6.93145 12.2722 6.67588 11.9462C6.20212 11.3419 5.79069 10.6673 5.47401 9.94799C5.30712 9.56888 5.47915 9.12627 5.85826 8.95938ZM12.8998 9.82282C13.0124 9.4242 13.4268 9.1923 13.8254 9.30487C14.5721 9.51575 15.3031 9.90462 15.9729 10.4097C16.3036 10.6591 16.3695 11.1294 16.1201 11.4601C15.8707 11.7908 15.4004 11.8567 15.0697 11.6073C14.9833 11.5422 14.8967 11.4801 14.8098 11.4212C14.7875 11.6906 14.6199 11.9387 14.3535 12.051C13.9719 12.2119 13.532 12.033 13.3711 11.6513C13.2765 11.4269 13.1338 11.2099 12.9298 11.0059C12.6578 10.734 12.6384 10.305 12.8715 10.0106C12.8729 9.94847 12.8821 9.88545 12.8998 9.82282ZM16.583 11.9259C16.909 11.6703 17.3804 11.7274 17.636 12.0534C18.1097 12.6577 18.5212 13.3322 18.8379 14.0516C19.0047 14.4307 18.8327 14.8733 18.4536 15.0402C18.0745 15.2071 17.6319 15.0351 17.465 14.656C17.2014 14.0572 16.8561 13.4898 16.4555 12.9789C16.2 12.6529 16.257 12.1815 16.583 11.9259ZM9.95832 11.9486C10.34 11.7877 10.7799 11.9666 10.9408 12.3483C11.0354 12.5727 11.1781 12.7897 11.3821 12.9937C11.6541 13.2656 11.6735 13.6946 11.4403 13.9889C11.439 14.0511 11.4298 14.1141 11.4121 14.1768C11.2995 14.5754 10.8851 14.8073 10.4865 14.6947C9.73973 14.4838 9.00873 14.095 8.33901 13.5899C8.0083 13.3405 7.9424 12.8702 8.19181 12.5395C8.44122 12.2088 8.9115 12.1429 9.2422 12.3923C9.32853 12.4574 9.4152 12.5195 9.50204 12.5784C9.52434 12.309 9.69197 12.0609 9.95832 11.9486ZM14.1456 12.7156C13.8512 12.4821 13.4221 12.5014 13.15 12.7735C12.946 12.9775 12.729 13.1202 12.5046 13.2148C12.1229 13.3758 11.944 13.8156 12.1049 14.1973C12.2172 14.4637 12.4654 14.6313 12.7348 14.6536C12.6758 14.7405 12.6137 14.8273 12.5485 14.9137C12.2991 15.2444 12.365 15.7147 12.6957 15.9641C13.0264 16.2135 13.4967 16.1476 13.7461 15.8169C14.2512 15.1472 14.6401 14.4162 14.851 13.6694C14.9635 13.2708 14.7316 12.8564 14.333 12.7438C14.2705 12.7262 14.2077 12.717 14.1456 12.7156ZM18.6386 15.672C19.0499 15.623 19.4231 15.9167 19.4721 16.328C19.5661 17.1171 19.5309 17.9294 19.3284 18.7337C19.2272 19.1354 18.8196 19.379 18.4179 19.2779C18.0163 19.1767 17.7726 18.7691 17.8738 18.3675C18.0275 17.7571 18.0571 17.1302 17.9826 16.5055C17.9336 16.0942 18.2273 15.721 18.6386 15.672ZM2.32319 16.3092C2.61608 16.0163 3.09095 16.0163 3.38385 16.3092C3.62177 16.5472 3.86483 16.7531 4.11104 16.9301C4.44737 17.1719 4.52404 17.6405 4.28227 17.9768C4.0405 18.3132 3.57185 18.3898 3.23552 18.1481C2.92117 17.9221 2.61645 17.6632 2.32319 17.3699C2.03029 17.077 2.03029 16.6021 2.32319 16.3092ZM12.2299 16.427C12.4855 16.753 12.4284 17.2244 12.1025 17.48C11.4982 17.9538 10.8236 18.3652 10.1042 18.6819C9.72514 18.8488 9.28252 18.6767 9.11563 18.2976C8.94874 17.9185 9.12077 17.4759 9.49988 17.309C10.0986 17.0454 10.666 16.7001 11.177 16.2996C11.5029 16.044 11.9744 16.1011 12.2299 16.427ZM4.87794 18.262C4.97909 17.8603 5.38671 17.6167 5.78838 17.7178C6.3987 17.8715 7.02559 17.9011 7.65037 17.8266C8.06167 17.7776 8.43483 18.0713 8.48385 18.4826C8.53287 18.8939 8.23918 19.2671 7.82788 19.3161C7.03877 19.4101 6.22639 19.3749 5.42209 19.1724C5.02042 19.0713 4.77679 18.6636 4.87794 18.262ZM18.1328 19.8736C18.4691 20.1153 18.5458 20.584 18.304 20.9203C18.0781 21.2347 17.8191 21.5394 17.5259 21.8327C17.233 22.1255 16.7581 22.1255 16.4652 21.8327C16.1723 21.5398 16.1723 21.0649 16.4652 20.772C16.7031 20.5341 16.9091 20.291 17.0861 20.0448C17.3278 19.7085 17.7965 19.6318 18.1328 19.8736Z" fill="#1C274C"/>
<path id="Vector (Stroke)_2" fill-rule="evenodd" clip-rule="evenodd" d="M10.7264 12.4987C11.146 12.9902 11.6784 13.25 12.3115 13.25C12.4623 13.25 12.6027 13.2945 12.7203 13.3711C13.0679 12.9894 13.25 12.53 13.25 12C13.25 11.7694 13.3541 11.5631 13.5178 11.4255C13.1091 10.9831 12.5997 10.75 12 10.75C11.8564 10.75 11.7223 10.7097 11.6083 10.6397C11.0476 11.0717 10.75 11.634 10.75 12.3115C10.75 12.3762 10.7418 12.4389 10.7264 12.4987ZM9.83837 10.3528C9.72613 9.6583 9.71808 8.88892 9.82911 8.1052C10.2245 5.31415 12.0274 2.75 15.3115 2.75C15.7257 2.75 16.0615 2.41421 16.0615 2C16.0615 1.58579 15.7257 1.25 15.3115 1.25C10.9957 1.25 8.79854 4.68585 8.34394 7.8948C8.11552 9.50716 8.30132 11.1645 8.92762 12.4529C9.3338 13.2885 9.9443 13.9944 10.7532 14.395C9.96022 14.5776 9.04298 14.6153 8.1052 14.4824C5.31415 14.087 2.75 12.2842 2.75 9C2.75 8.58579 2.41421 8.25 2 8.25C1.58579 8.25 1.25 8.58579 1.25 9C1.25 13.3158 4.68585 15.513 7.8948 15.9676C9.50716 16.196 11.1645 16.0102 12.4529 15.3839C13.3211 14.9619 14.0493 14.3192 14.4405 13.4626C14.583 14.2041 14.6034 15.041 14.4824 15.8948C14.087 18.6858 12.2842 21.25 9 21.25C8.58579 21.25 8.25 21.5858 8.25 22C8.25 22.4142 8.58579 22.75 9 22.75C13.3158 22.75 15.513 19.3142 15.9676 16.1052C16.196 14.4928 16.0102 12.8355 15.3839 11.5471C15.0377 10.835 14.5432 10.2171 13.9039 9.80205C14.5291 9.72593 15.2064 9.73159 15.8948 9.82911C18.6858 10.2245 21.25 12.0274 21.25 15.3115C21.25 15.7257 21.5858 16.0615 22 16.0615C22.4142 16.0615 22.75 15.7257 22.75 15.3115C22.75 10.9957 19.3142 8.79854 16.1052 8.34394C14.4928 8.11552 12.8355 8.30132 11.5471 8.92762C10.8555 9.26381 10.2527 9.73999 9.83837 10.3528Z" fill="#1C274C"/>
</g>
</svg>
