<svg width="24" height="24" viewBox="0 0 24 24" fill="none" xmlns="http://www.w3.org/2000/svg">
<g id="Bold Duotone / School / Bookmark Opened">
<path id="Vector" opacity="0.6" fill-rule="evenodd" clip-rule="evenodd" d="M3.46447 20.5355C4.92893 22 7.28595 22 12 22C16.714 22 19.0711 22 20.5355 20.5355C22 19.0711 22 16.714 22 12C22 11.3317 22 10.7107 21.9958 10.133C21.9938 9.85399 21.9928 9.71451 21.9394 9.49183C21.8861 9.26915 21.8562 9.2093 21.7964 9.08961C21.7932 9.08322 21.79 9.07686 21.7868 9.07053C21.3793 8.27084 20.7291 7.62067 19.9295 7.21321C19.518 7.00357 19.0103 6.87995 18.2229 6.81562C18.0734 6.8034 17.9161 6.79345 17.75 6.78536L16.25 6.75232V10.8076C16.25 11.3043 16.2497 11.6442 16.2351 11.8976C16.22 12.16 16.1923 12.2408 16.1854 12.2563C16.0383 12.5875 15.6753 12.7662 15.323 12.6807C15.3066 12.6767 15.2257 12.6493 15.0085 12.5012C14.7989 12.3582 14.5294 12.151 14.1358 11.848L14.0688 11.7963C13.6986 11.5109 13.4101 11.2885 13.0958 11.1519C12.3968 10.8483 11.6032 10.8483 10.9042 11.1519C10.5899 11.2885 10.3014 11.5109 9.9312 11.7963L9.86419 11.848C9.47062 12.151 9.20112 12.3582 8.99148 12.5012C8.77428 12.6493 8.69342 12.6767 8.67695 12.6807C8.32471 12.7662 7.96171 12.5875 7.81457 12.2563C7.80769 12.2408 7.78003 12.16 7.7649 11.8976C7.7503 11.6442 7.75 11.3043 7.75 10.8076V6.75232L6.25 6.78536C6.08387 6.79345 5.92663 6.8034 5.77708 6.81562C4.9897 6.87995 4.48197 7.00357 4.07054 7.21321C3.27085 7.62067 2.62068 8.27084 2.21322 9.07053C2.20999 9.07686 2.20679 9.08322 2.2036 9.0896C2.14382 9.2093 2.11393 9.26915 2.06056 9.49182C2.0072 9.7145 2.00619 9.85399 2.00417 10.133C2 10.7107 2 11.3317 2 12C2 16.714 2 19.0711 3.46447 20.5355Z" fill="#1C274D"/>
<path id="Vector_2" d="M7.75 6.75244V10.8077C7.75 11.3044 7.7503 11.6443 7.7649 11.8977C7.78003 12.1602 7.80769 12.2409 7.81457 12.2564C7.96171 12.5877 8.32471 12.7663 8.67695 12.6808C8.69342 12.6768 8.77428 12.6494 8.99148 12.5013C9.20112 12.3583 9.47062 12.1512 9.86419 11.8481L9.9312 11.7965C10.3014 11.5111 10.5899 11.2886 10.9042 11.1521C11.6032 10.8484 12.3968 10.8484 13.0958 11.1521C13.4101 11.2886 13.6986 11.5111 14.0688 11.7965L14.1358 11.8481C14.5294 12.1512 14.7989 12.3583 15.0085 12.5013C15.2257 12.6494 15.3066 12.6768 15.323 12.6808C15.6753 12.7663 16.0383 12.5877 16.1854 12.2564C16.1923 12.2409 16.22 12.1602 16.2351 11.8977C16.2497 11.6443 16.25 11.3044 16.25 10.8077V6.75244H7.75Z" fill="#1C274D"/>
<g id="Vector_3" opacity="0.4">
<path d="M20.5351 3.46447C19.0706 2 16.7136 2 11.9996 2C7.28551 2 4.92849 2 3.46402 3.46447C2.6948 4.23369 2.32962 5.24918 2.15625 6.72315L2.03715 9.60194C2.04355 9.56702 2.05126 9.53074 2.06056 9.49195C2.11393 9.26927 2.14382 9.20942 2.2036 9.08973L2.21322 9.07065C2.62068 8.27096 3.27085 7.62079 4.07054 7.21333C4.48197 7.0037 4.9897 6.88007 5.77708 6.81574C5.92663 6.80352 6.08387 6.79358 6.25 6.78548L7.75 6.75244V10.5H16.25V6.75244L17.75 6.78548C17.9161 6.79358 18.0734 6.80352 18.2229 6.81574C19.0103 6.88007 19.518 7.0037 19.9295 7.21333C20.7291 7.62079 21.3793 8.27096 21.7868 9.07065L21.7964 9.08973C21.814 9.12503 21.8291 9.15513 21.8429 9.18573V6.72315C21.6695 5.24918 21.3043 4.23369 20.5351 3.46447Z" fill="#1C274D"/>
<path d="M2.00207 10.5C2.00215 10.4812 2.00224 10.4625 2.00233 10.4437L2 10.5H2.00207Z" fill="#1C274D"/>
</g>
</g>
</svg>
