<svg width="24" height="24" viewBox="0 0 24 24" fill="none" xmlns="http://www.w3.org/2000/svg">
<g id="Outline / Essentional, UI / Broom">
<path id="Vector" fill-rule="evenodd" clip-rule="evenodd" d="M21.0367 2.88373C21.3296 3.17663 21.3296 3.6515 21.0367 3.94439L19.404 5.57701C20.6352 7.27231 20.6068 9.59792 19.319 11.2642L19.3229 11.2962L19.291 11.3C19.291 11.3001 19.2911 11.3 19.291 11.3C19.3231 11.2963 19.3229 11.2962 19.3229 11.2962L19.3234 11.3007L19.3243 11.3089L19.3273 11.336C19.3296 11.3588 19.3328 11.391 19.3365 11.432C19.3438 11.5141 19.353 11.6317 19.3611 11.7805C19.3774 12.0779 19.3898 12.5013 19.3756 13.0165C19.3471 14.0442 19.2121 15.4509 18.7816 16.9569C18.4906 17.9747 18.0376 18.9818 17.5726 19.8625C16.4115 22.0616 13.7398 22.7184 11.6965 21.6754L11.6716 21.6627L10.5514 20.9812C7.44145 19.0893 4.8309 16.4788 2.93902 13.3688L2.25761 12.2487L2.24489 12.2238C1.20189 10.1805 1.85869 7.50879 4.0578 6.34768C4.93847 5.88268 5.94556 5.42972 6.96344 5.13874C8.46937 4.70823 9.8761 4.57319 10.9038 4.54473C11.419 4.53046 11.8424 4.54288 12.1398 4.55919C12.2886 4.56734 12.4062 4.57649 12.4882 4.5838C12.5293 4.58745 12.5615 4.59065 12.5843 4.59304L12.6114 4.59597L12.6196 4.5969L12.6223 4.59722L12.6233 4.59734C12.6233 4.59735 12.6238 4.5974 12.62 4.62984C12.6201 4.62978 12.6199 4.62989 12.62 4.62984L12.6233 4.59734L12.6565 4.60132C14.3228 3.31367 16.6482 3.2853 18.3434 4.51635L19.976 2.88373C20.2689 2.59084 20.7438 2.59084 21.0367 2.88373ZM12.1978 6.06557C12.1559 6.06269 12.1092 6.05976 12.0577 6.05694C11.7959 6.04259 11.4141 6.03117 10.9454 6.04415C10.0053 6.07019 8.72929 6.19401 7.37573 6.58096C6.49186 6.83364 5.58509 7.23752 4.75816 7.67414C3.35154 8.41682 2.88512 10.1484 3.56901 11.5182L4.22052 12.5892C5.98767 15.4941 8.42609 17.9325 11.331 19.6997L12.402 20.3513C13.7719 21.0352 15.5035 20.5688 16.2462 19.1621C16.6828 18.3352 17.0867 17.4284 17.3393 16.5446C17.7263 15.191 17.8501 13.915 17.8761 12.9749C17.8891 12.5062 17.8777 12.1244 17.8634 11.8626C17.8605 11.8111 17.8576 11.7644 17.8547 11.7225L12.1978 6.06557ZM18.3236 10.0701L13.8504 5.5969C15.1034 4.82281 16.768 4.97907 17.8547 6.06571C18.9413 7.15238 19.0977 8.81714 18.3236 10.0701Z" fill="#1C274C"/>
</g>
</svg>
