<svg width="24" height="24" viewBox="0 0 24 24" fill="none" xmlns="http://www.w3.org/2000/svg">
<g id="Bold Duotone / Messages, Coversation / Chat Square">
<g id="Vector">
<path d="M21.9749 13.8143C20.4809 14.5732 18.7904 15.0009 17 15.0009C10.9249 15.0009 6 10.0761 6 4.00092C6 3.37164 6.05284 2.7547 6.15433 2.1543C5.43913 2.25971 4.87728 2.43759 4.38751 2.73772C3.71473 3.15 3.14908 3.71565 2.7368 4.38843C2 5.59078 2 7.22749 2 10.5009V11.5009C2 13.8306 2 14.9955 2.3806 15.9143C2.88807 17.1395 3.86144 18.1129 5.08658 18.6203C5.74689 18.8938 6.53422 18.9707 7.78958 18.9924C8.63992 19.007 9.06509 19.0144 9.40279 19.2108C9.74049 19.4072 9.95073 19.7624 10.3712 20.4728L10.9133 21.3886C11.3965 22.2049 12.6035 22.2049 13.0867 21.3886L13.6288 20.4728C14.0492 19.7624 14.2595 19.4072 14.5972 19.2108C14.9349 19.0144 15.36 19.007 16.2104 18.9924C17.4658 18.9707 18.2531 18.8938 18.9134 18.6203C20.1386 18.1129 21.1119 17.1395 21.6194 15.9143C21.8463 15.3666 21.9379 14.7315 21.9749 13.8143Z" fill="#1C274C"/>
<path fill-rule="evenodd" clip-rule="evenodd" d="M13.0867 21.3886L13.6288 20.4728C14.0492 19.7624 14.2595 19.4072 14.5972 19.2108C14.9349 19.0144 15.36 19.007 16.2104 18.9924C17.4658 18.9707 18.2531 18.8938 18.9134 18.6203C20.1386 18.1129 21.1119 17.1395 21.6194 15.9143C21.8463 15.3666 21.9379 14.7315 21.9749 13.8143C20.4809 14.5732 18.7904 15.0009 17 15.0009C10.9249 15.0009 6 10.0761 6 4.00092C6 3.37164 6.05284 2.7547 6.15433 2.1543C5.43913 2.25971 4.87728 2.43759 4.38751 2.73772C3.71473 3.15 3.14908 3.71565 2.7368 4.38843C2 5.59078 2 7.22749 2 10.5009V11.5009C2 13.8306 2 14.9955 2.3806 15.9143C2.88807 17.1395 3.86144 18.1129 5.08658 18.6203C5.74689 18.8938 6.53422 18.9707 7.78958 18.9924C8.63992 19.007 9.06509 19.0144 9.40279 19.2108C9.74049 19.4072 9.95073 19.7624 10.3712 20.4728L10.9133 21.3886C11.3965 22.2049 12.6035 22.2049 13.0867 21.3886Z" fill="#1C274C"/>
</g>
<path id="Vector_2" opacity="0.5" d="M13.5 2H10.5C8.56 2 7.19487 2 6.15433 2.15337C6.05284 2.75378 6 3.37072 6 4C6 10.0751 10.9249 15 17 15C18.7904 15 20.4809 14.5722 21.9749 13.8134C22 13.1919 22 12.441 22 11.5V10.5C22 7.22657 22 5.58985 21.2632 4.38751C20.8509 3.71473 20.2853 3.14908 19.6125 2.7368C18.4101 2 16.7734 2 13.5 2Z" fill="#1C274C"/>
</g>
</svg>
