<svg width="24" height="24" viewBox="0 0 24 24" fill="none" xmlns="http://www.w3.org/2000/svg">
<g id="Bold Duotone / Messages, Coversation /  Chat Round Call">
<path id="Vector" opacity="0.5" d="M12 22C17.5228 22 22 17.5228 22 12C22 6.47715 17.5228 2 12 2C6.47715 2 2 6.47715 2 12C2 13.5997 2.37562 15.1116 3.04346 16.4525C3.22094 16.8088 3.28001 17.2161 3.17712 17.6006L2.58151 19.8267C2.32295 20.793 3.20701 21.677 4.17335 21.4185L6.39938 20.8229C6.78393 20.72 7.19121 20.7791 7.54753 20.9565C8.88837 21.6244 10.4003 22 12 22Z" fill="#1C274C"/>
<g id="Vector_2">
<path fill-rule="evenodd" clip-rule="evenodd" d="M12.0004 6.77539C11.5448 6.77539 11.1754 7.14476 11.1754 7.60039V16.4004C11.1754 16.856 11.5448 17.2254 12.0004 17.2254C12.456 17.2254 12.8254 16.856 12.8254 16.4004V7.60039C12.8254 7.14476 12.456 6.77539 12.0004 6.77539Z" fill="#1C274C"/>
<path fill-rule="evenodd" clip-rule="evenodd" d="M7.60039 8.97539C7.14476 8.97539 6.77539 9.34476 6.77539 9.80039V14.2004C6.77539 14.656 7.14476 15.0254 7.60039 15.0254C8.05603 15.0254 8.42539 14.656 8.42539 14.2004V9.80039C8.42539 9.34476 8.05603 8.97539 7.60039 8.97539Z" fill="#1C274C"/>
<path d="M15.5754 9.80039C15.5754 9.34476 15.9448 8.97539 16.4004 8.97539C16.856 8.97539 17.2254 9.34476 17.2254 9.80039V14.2004C17.2254 14.656 16.856 15.0254 16.4004 15.0254C15.9448 15.0254 15.5754 14.656 15.5754 14.2004V9.80039Z" fill="#1C274C"/>
</g>
</g>
</svg>
