<svg width="24" height="24" viewBox="0 0 24 24" fill="none" xmlns="http://www.w3.org/2000/svg">
<g id="Linear / Home, Furniture / Condicioner ">
<path id="Vector" d="M2 7.57143C2 5.15731 2 3.95025 2.65451 3.12953C2.79456 2.9539 2.9539 2.79456 3.12953 2.65451C3.95025 2 5.15731 2 7.57143 2H16.4286C18.8427 2 20.0497 2 20.8705 2.65451C21.0461 2.79456 21.2054 2.9539 21.3455 3.12953C22 3.95025 22 5.15731 22 7.57143C22 10.7902 22 12.3997 21.1273 13.494C20.9406 13.7281 20.7281 13.9406 20.494 14.1273C19.3997 15 17.7903 15 14.5714 15H9.42857C6.20975 15 4.60034 15 3.50604 14.1273C3.27187 13.9406 3.05942 13.7281 2.87267 13.494C2 12.3997 2 10.7903 2 7.57143Z" stroke="#1C274C" stroke-width="1.5"/>
<path id="Vector_2" d="M6.99983 17.5L6.69321 17.9599C6.3042 18.5435 6.4388 19.3292 6.99983 19.75C7.56087 20.1708 7.69547 20.9565 7.30646 21.5401L6.99983 22M11.9998 17.5L11.6932 17.9599C11.3042 18.5435 11.4388 19.3292 11.9998 19.75C12.5609 20.1708 12.6955 20.9565 12.3065 21.5401L11.9998 22M16.9998 17.5L16.6932 17.9599C16.3042 18.5435 16.4388 19.3292 16.9998 19.75C17.5609 20.1708 17.6955 20.9565 17.3065 21.5401L16.9998 22" stroke="#1C274C" stroke-width="1.5" stroke-linecap="round"/>
<path id="Vector_3" d="M17.9998 14.5C17.9998 14.0353 17.9998 13.803 17.9614 13.6098C17.8036 12.8164 17.1834 12.1962 16.39 12.0384C16.1968 12 15.9645 12 15.4998 12H8.99981C8.06792 12 7.60198 12 7.23444 12.1522C6.74438 12.3552 6.35504 12.7446 6.15205 13.2346C6.02984 13.5297 6.00573 13.8881 6.00098 14.5" stroke="#1C274C" stroke-width="1.5" stroke-linecap="round"/>
<path id="Vector_4" d="M6 8.5H18" stroke="#1C274C" stroke-width="1.5" stroke-linecap="round"/>
<path id="Vector_5" d="M6 6H18" stroke="#1C274C" stroke-width="1.5" stroke-linecap="round"/>
</g>
</svg>
