<svg width="24" height="24" viewBox="0 0 24 24" fill="none" xmlns="http://www.w3.org/2000/svg">
<g id="Outline / Essentional, UI / Confetti">
<g id="Vector">
<path fill-rule="evenodd" clip-rule="evenodd" d="M15.6015 2.40018C15.3817 2.18042 15.1052 2.19008 14.9536 2.2102C14.8102 2.22921 14.6385 2.27808 14.4749 2.32464L14.3489 2.36045L14.2464 2.29581C14.1079 2.20828 13.959 2.11425 13.8266 2.05669C13.6772 1.99178 13.4251 1.91791 13.1602 2.05713C12.9004 2.1937 12.8148 2.43817 12.7795 2.59373C12.7473 2.73529 12.7335 2.91231 12.7205 3.08065L12.7105 3.20815L12.7097 3.21877L12.5981 3.31062C12.4648 3.42029 12.3265 3.5341 12.2284 3.64136C12.1244 3.75498 11.9642 3.96845 12.0049 4.26569C12.047 4.57309 12.2696 4.73247 12.4087 4.80961C12.5347 4.87947 12.7004 4.94064 12.855 4.99764L12.9638 5.03785L13.004 5.14671C13.061 5.30122 13.1222 5.46702 13.1921 5.59298C13.2692 5.73208 13.4286 5.95467 13.736 5.99676C14.0332 6.03746 14.2467 5.87723 14.3603 5.7733C14.4676 5.6752 14.5814 5.53687 14.691 5.40357L14.7829 5.292L14.7935 5.29116L14.921 5.28121C15.0894 5.26813 15.2664 5.25438 15.4079 5.2222C15.5635 5.18683 15.808 5.10132 15.9445 4.84149C16.0838 4.5766 16.0099 4.32448 15.945 4.17511C15.8874 4.0427 15.7934 3.89383 15.7059 3.75527L15.6412 3.6528L15.677 3.5268C15.7236 3.36319 15.7725 3.19146 15.7915 3.04811C15.8116 2.89644 15.8213 2.61995 15.6015 2.40018ZM14.702 3.2997L14.624 3.32185L14.6034 3.32789C14.528 3.3503 14.3709 3.39699 14.2072 3.37457C14.0396 3.35162 13.9009 3.26159 13.8366 3.21989L13.8195 3.20883L13.7185 3.14512L13.7075 3.28598L13.706 3.30751C13.7007 3.3868 13.6899 3.54676 13.6136 3.69208C13.5382 3.83547 13.4139 3.93559 13.3511 3.98623L13.3338 4.00021L13.2431 4.07495L13.3205 4.10358L13.3396 4.11042C13.4113 4.13579 13.5695 4.19182 13.6897 4.31201C13.8099 4.4322 13.8659 4.5904 13.8913 4.66204L13.8981 4.68113L13.9267 4.75862L14.0015 4.66783L14.0154 4.65059C14.0661 4.58774 14.1662 4.46348 14.3096 4.38811C14.4549 4.31174 14.6149 4.30102 14.6942 4.29571L14.7157 4.29419L14.8566 4.28319L14.7928 4.1822L14.7818 4.16504C14.7401 4.10078 14.6501 3.96206 14.6271 3.7945C14.6047 3.63074 14.6514 3.47363 14.6738 3.39824L14.6798 3.37765L14.702 3.2997Z" fill="#1C274C"/>
<path d="M10.4351 3.17016C10.6512 2.81675 10.5398 2.35512 10.1864 2.13907C9.83302 1.92302 9.37139 2.03437 9.15534 2.38778C8.63713 3.23544 8.76701 4.32775 9.46953 5.03027L9.56741 5.12815C9.76508 5.32581 9.83796 5.61619 9.75708 5.88378C9.63723 6.28027 9.86149 6.69885 10.258 6.81871C10.6545 6.93856 11.0731 6.71429 11.1929 6.3178C11.4338 5.52092 11.2167 4.65615 10.6281 4.06749L10.5302 3.96961C10.3177 3.75707 10.2784 3.42661 10.4351 3.17016Z" fill="#1C274C"/>
<path d="M7.68629 3.94057C7.47682 3.7311 7.1372 3.7311 6.92773 3.94057C6.71826 4.15004 6.71826 4.48965 6.92773 4.69912C7.1372 4.90859 7.47682 4.90859 7.68629 4.69912C7.89575 4.48965 7.89575 4.15004 7.68629 3.94057Z" fill="#1C274C"/>
<path d="M18.2776 5.6039C18.3588 5.19773 18.0954 4.80262 17.6892 4.72138C17.283 4.64015 16.8879 4.90356 16.8067 5.30973L16.6627 6.02967C16.5701 6.49265 16.2365 6.87052 15.7886 7.01983C14.83 7.33936 14.1161 8.14802 13.918 9.13884L13.774 9.85877C13.6928 10.2649 13.9562 10.6601 14.3623 10.7413C14.7685 10.8225 15.1636 10.5591 15.2449 10.1529L15.3889 9.43301C15.4814 8.97003 15.815 8.59216 16.2629 8.44285C17.2215 8.12332 17.9354 7.31466 18.1336 6.32384L18.2776 5.6039Z" fill="#1C274C"/>
<path fill-rule="evenodd" clip-rule="evenodd" d="M22.5236 8.84204C22.7795 9.39595 22.6068 10.0248 22.1397 10.4919C21.8688 10.7628 21.5058 10.8855 21.1825 10.943C20.8518 11.0018 20.5022 11.003 20.196 10.9833C19.8867 10.9636 19.6032 10.9213 19.3981 10.8845C19.2951 10.8659 19.2106 10.8486 19.151 10.8356L19.1047 10.8253L19.0808 10.8198L19.0611 10.8151L19.0553 10.8137L19.0534 10.8133C19.0533 10.8133 19.0523 10.813 19.1724 10.3277L19.0523 10.813C18.8723 10.7684 18.7316 10.6276 18.687 10.4476L18.6864 10.4448L18.685 10.439L18.6803 10.4193C18.6764 10.4026 18.671 10.3789 18.6645 10.3491C18.6516 10.2895 18.6342 10.205 18.6157 10.102C18.5788 9.89694 18.5366 9.61337 18.5168 9.30412C18.4972 8.99788 18.4983 8.64831 18.5571 8.31761C18.6146 7.99434 18.7373 7.63133 19.0082 7.36045C19.4753 6.89332 20.1042 6.72065 20.6581 6.97651C21.0782 7.17058 21.3515 7.56336 21.4545 8.04565C21.9367 8.14858 22.3295 8.42187 22.5236 8.84204ZM19.5961 9.90398C19.7742 9.93537 20.0095 9.96937 20.2599 9.98539C20.5232 10.0023 20.7852 9.99796 21.0074 9.95845C21.237 9.91761 21.3683 9.84908 21.4325 9.78482C21.6753 9.54207 21.6567 9.35009 21.6158 9.26137C21.5712 9.16498 21.4116 8.99855 21.0018 8.99964C20.8687 9 20.741 8.94729 20.6469 8.8532C20.5528 8.7591 20.5001 8.63138 20.5005 8.49831C20.5016 8.0885 20.3351 7.92886 20.2387 7.88434C20.15 7.84336 19.958 7.8248 19.7153 8.06756C19.651 8.13181 19.5825 8.26307 19.5417 8.4927C19.5021 8.7149 19.4979 8.97686 19.5147 9.24024C19.5307 9.49059 19.5647 9.72595 19.5961 9.90398Z" fill="#1C274C"/>
<path d="M20.3309 13.7295C20.6263 13.4675 21.0469 13.4011 21.4086 13.5593L21.7001 13.6867C22.0796 13.8527 22.5218 13.6795 22.6878 13.3C22.8537 12.9205 22.6806 12.4783 22.3011 12.3123L22.0096 12.1849C21.1122 11.7925 20.0685 11.9573 19.3357 12.6072C19.0095 12.8964 18.5349 12.9445 18.1573 12.7265L17.9445 12.6036C17.5857 12.3965 17.127 12.5194 16.9199 12.8781C16.7128 13.2368 16.8357 13.6955 17.1945 13.9026L17.4073 14.0255C18.344 14.5663 19.5217 14.4471 20.3309 13.7295Z" fill="#1C274C"/>
<path d="M19.0583 15.3131C19.2678 15.1037 19.6074 15.1037 19.8169 15.3131C20.0264 15.5226 20.0264 15.8622 19.8169 16.0717C19.6074 16.2812 19.2678 16.2812 19.0583 16.0717C18.8489 15.8622 18.8489 15.5226 19.0583 15.3131Z" fill="#1C274C"/>
<path d="M12.9158 7.15689C12.7063 6.94742 12.3667 6.94742 12.1572 7.15689C11.9478 7.36636 11.9478 7.70597 12.1572 7.91544C12.3667 8.12491 12.7063 8.12491 12.9158 7.91544C13.1252 7.70597 13.1252 7.36636 12.9158 7.15689Z" fill="#1C274C"/>
<path d="M17.1572 10.1569C17.3667 9.94742 17.7063 9.94742 17.9158 10.1569C18.1252 10.3664 18.1252 10.706 17.9158 10.9154C17.7063 11.1249 17.3667 11.1249 17.1572 10.9154C16.9478 10.706 16.9478 10.3664 17.1572 10.1569Z" fill="#1C274C"/>
<path fill-rule="evenodd" clip-rule="evenodd" d="M9.63896 6.88473C10.2253 7.31945 10.8999 7.99407 11.7185 8.81276L15.1862 12.2804C16.0049 13.0991 16.6795 13.7737 17.1142 14.36C17.5633 14.9658 17.8798 15.639 17.6968 16.4143C17.5138 17.1896 16.9296 17.6502 16.257 17.9912C15.606 18.3212 14.7009 18.6229 13.6026 18.9889L8.41228 20.719C7.08241 21.1623 6.00323 21.5221 5.16641 21.671C4.322 21.8212 3.46515 21.806 2.82904 21.1699C2.19294 20.5338 2.17779 19.6769 2.328 18.8325C2.47687 17.9957 2.83663 16.9165 3.27998 15.5865L5.01002 10.3964C5.37611 9.29803 5.67776 8.39297 6.00779 7.74194C6.34875 7.06932 6.80936 6.48517 7.58466 6.30214C8.35996 6.11912 9.03319 6.43561 9.63896 6.88473ZM8.74559 8.08968C8.72811 8.07672 8.71099 8.06423 8.69422 8.05218C8.68271 8.11445 8.67047 8.18137 8.65763 8.25262C8.57264 8.72423 8.46128 9.38373 8.35599 10.1341C8.14336 11.6495 7.96353 13.4814 8.05559 14.8852C8.11132 15.7351 8.29333 16.8345 8.46708 17.7416C8.55313 18.1908 8.6356 18.585 8.69653 18.8667C8.70955 18.9269 8.72157 18.9819 8.73243 19.0312L11.3671 18.1529C11.2979 17.9474 11.2149 17.6827 11.132 17.3746C10.933 16.6348 10.7272 15.6173 10.7272 14.5552C10.7272 13.4399 10.9321 12.4226 11.133 11.6905C11.2339 11.3225 11.3352 11.0217 11.4123 10.8105C11.4302 10.7613 11.4469 10.7169 11.462 10.6775L10.7022 9.91776C9.82802 9.04358 9.2317 8.45009 8.74559 8.08968ZM6.41321 10.9303C6.62217 10.3034 6.796 9.78369 6.95433 9.35331C6.92637 9.53684 6.89826 9.72818 6.87054 9.92569C6.65541 11.4589 6.45615 13.4179 6.5588 14.9833C6.62092 15.9306 6.81799 17.1056 6.99387 18.0238C7.08263 18.4872 7.1676 18.8933 7.23043 19.1838C7.25947 19.318 7.28382 19.4278 7.30168 19.5073C6.26086 19.851 5.49409 20.0891 4.90369 20.1941C4.18292 20.3224 3.98348 20.203 3.8897 20.1092C3.79593 20.0155 3.67659 19.816 3.80481 19.0953C3.93207 18.3799 4.25474 17.4057 4.72371 15.9987L6.41321 10.9303ZM13.0687 17.5857L12.7901 17.6786C12.7292 17.498 12.6549 17.2616 12.5805 16.985C12.5266 16.7848 12.4734 16.566 12.4252 16.334C12.3123 15.7901 12.2272 15.1738 12.2272 14.5552C12.2272 13.615 12.4013 12.7369 12.5795 12.0874C12.6013 12.0078 12.6232 11.932 12.6446 11.8602L14.0812 13.2968C14.9554 14.1709 15.5489 14.7673 15.9093 15.2534C16.2631 15.7306 16.2678 15.9387 16.2369 16.0697C16.206 16.2006 16.1087 16.3846 15.5788 16.6532C15.039 16.9269 14.2415 17.1948 13.0687 17.5857Z" fill="#1C274C"/>
</g>
</g>
</svg>
