<svg width="24" height="24" viewBox="0 0 24 24" fill="none" xmlns="http://www.w3.org/2000/svg">
<g id="Bold / Essentional, UI / Cosmetic">
<path id="Vector" d="M2 12.5C2 12.2239 2.22386 12 2.5 12H7.5C7.77614 12 8 12.2239 8 12.5V18C8 19.6569 6.65685 21 5 21C3.34315 21 2 19.6569 2 18V12.5Z" fill="#1C274C"/>
<path id="Vector_2" d="M3 10.5H7V5.99983C7 5.25644 6.21769 4.77295 5.55279 5.1054L3.55279 6.1054C3.214 6.27479 3 6.62105 3 6.99983V10.5Z" fill="#1C274C"/>
<path id="Vector_3" d="M11 10.5C11 7.46243 13.4624 5 16.5 5C19.5376 5 22 7.46243 22 10.5C22 13.5376 19.5376 16 16.5 16C13.4624 16 11 13.5376 11 10.5Z" fill="#1C274C"/>
<path id="Vector_4" d="M15.75 17.7103C15.9964 17.7365 16.2466 17.75 16.5 17.75C16.7534 17.75 17.0036 17.7365 17.25 17.7103V19.5H19.5C19.9142 19.5 20.25 19.8358 20.25 20.25C20.25 20.6642 19.9142 21 19.5 21H13.5C13.0858 21 12.75 20.6642 12.75 20.25C12.75 19.8358 13.0858 19.5 13.5 19.5H15.75V17.7103Z" fill="#1C274C"/>
</g>
</svg>
