<svg width="24" height="24" viewBox="0 0 24 24" fill="none" xmlns="http://www.w3.org/2000/svg">
<g id="Broken / Medicine / Dropper Minimalistic">
<path id="Vector" d="M5 8C5 6.11438 5 5.17157 5.58579 4.58579C6.17157 4 7.11438 4 9 4H15C16.8856 4 17.8284 4 18.4142 4.58579C19 5.17157 19 6.11438 19 8V15.8831C19 16.6438 18.6809 17.3697 18.1203 17.8841C14.6584 21.0607 9.3416 21.0607 5.87966 17.8841C5.31911 17.3697 5 16.6438 5 15.8831V12" stroke="#1C274C" stroke-width="1.5" stroke-linecap="round"/>
<path id="Vector_2" d="M19 8L17 8" stroke="#1C274C" stroke-width="1.5" stroke-linecap="round"/>
<path id="Vector_3" d="M19 14H17" stroke="#1C274C" stroke-width="1.5" stroke-linecap="round"/>
<path id="Vector_4" d="M14 11.9166C14 13.0672 13.1046 13.9999 12 13.9999C10.8954 13.9999 10 13.0672 10 11.9166C10 11.1967 10.783 10.2358 11.3691 9.61737C11.7161 9.25124 12.2839 9.25124 12.6309 9.61737C13.217 10.2358 14 11.1967 14 11.9166Z" stroke="#1C274C" stroke-width="1.5"/>
<path id="Vector_5" d="M19 11H17" stroke="#1C274C" stroke-width="1.5" stroke-linecap="round"/>
<path id="Vector_6" d="M12 21V22" stroke="#1C274C" stroke-width="1.5" stroke-linecap="round"/>
<path id="Vector_7" d="M14 4C14 2.89543 13.1046 2 12 2C10.8954 2 10 2.89543 10 4" stroke="#1C274C" stroke-width="1.5" stroke-linecap="round"/>
</g>
</svg>
