<svg width="24" height="24" viewBox="0 0 24 24" fill="none" xmlns="http://www.w3.org/2000/svg">
<g id="Line Duotone / Call / End Call ">
<path id="Vector" d="M8 12.8617L8 13.4782C8 14.3304 7.42329 15.0823 6.57997 15.3294L4.57997 15.9155C3.29561 16.2919 2 15.3623 2 14.0643L2 12.1414C2 11.6525 2.1247 11.1704 2.44083 10.7889M21.3703 9.85596C21.8162 10.2541 22 10.8313 22 11.4182V13.5429C22 14.7266 20.9105 15.6329 19.7004 15.4555L17.7004 15.1624C16.7227 15.0192 16 14.2063 16 13.2499V12.8617" stroke="#1C274C" stroke-width="1.5"/>
<path id="Vector_2" opacity="0.5" d="M7.25009 12.8617C7.25009 13.2759 7.58588 13.6117 8.00009 13.6117C8.4143 13.6117 8.75009 13.2759 8.75009 12.8617H7.25009ZM12.0001 7V7.75V7ZM15.2501 12.8617C15.2501 13.2759 15.5859 13.6117 16.0001 13.6117C16.4143 13.6117 16.7501 13.2759 16.7501 12.8617L15.2501 12.8617ZM12.0001 11.3963V10.6463V11.3963ZM3.01844 11.2674C3.90188 10.2012 6.51327 7.75 12.0001 7.75V6.25C5.98973 6.25 2.97883 8.96419 1.8634 10.3104L3.01844 11.2674ZM12.0001 7.75C17.2331 7.75 19.8649 9.51708 20.8709 10.4154L21.87 9.29661C20.5945 8.15756 17.6088 6.25 12.0001 6.25V7.75ZM16.0001 12.8617C16.7501 12.8617 16.7501 12.8607 16.7501 12.8597C16.7501 12.8593 16.7501 12.8583 16.7501 12.8576C16.7501 12.8562 16.7501 12.8548 16.75 12.8534C16.75 12.8505 16.75 12.8475 16.7499 12.8444C16.7498 12.8382 16.7496 12.8316 16.7492 12.8245C16.7486 12.8104 16.7476 12.7946 16.746 12.7773C16.7429 12.7426 16.7375 12.7016 16.7284 12.6552C16.7103 12.5622 16.6777 12.4484 16.6203 12.3222C16.5031 12.0645 16.2942 11.7811 15.9434 11.524C15.2574 11.0214 14.0695 10.6463 12.0001 10.6463V12.1463C13.9307 12.1463 14.7428 12.5039 15.0568 12.734C15.206 12.8433 15.2471 12.9262 15.2549 12.9433C15.26 12.9544 15.2586 12.9551 15.2561 12.9423C15.2549 12.936 15.2534 12.9264 15.2522 12.9132C15.2516 12.9066 15.2511 12.8991 15.2507 12.8905C15.2505 12.8862 15.2504 12.8817 15.2503 12.8769C15.2502 12.8745 15.2502 12.872 15.2501 12.8695C15.2501 12.8682 15.2501 12.867 15.2501 12.8657C15.2501 12.865 15.2501 12.864 15.2501 12.8637C15.2501 12.8627 15.2501 12.8617 16.0001 12.8617ZM12.0001 10.6463C9.93065 10.6463 8.74276 11.0214 8.05681 11.524C7.70599 11.7811 7.49712 12.0645 7.37991 12.3222C7.32248 12.4484 7.28989 12.5622 7.27176 12.6552C7.26272 12.7016 7.25731 12.7426 7.25415 12.7773C7.25257 12.7946 7.25156 12.8104 7.25094 12.8245C7.25063 12.8316 7.25042 12.8382 7.25028 12.8444C7.25021 12.8475 7.25017 12.8505 7.25014 12.8534C7.25012 12.8548 7.25011 12.8562 7.2501 12.8576C7.2501 12.8583 7.25009 12.8594 7.25009 12.8597C7.25009 12.8607 7.25009 12.8617 8.00009 12.8617C8.75009 12.8617 8.75009 12.8627 8.75009 12.8637C8.75009 12.864 8.75008 12.865 8.75008 12.8657C8.75007 12.867 8.75006 12.8682 8.75005 12.8695C8.75002 12.872 8.74998 12.8745 8.74993 12.8769C8.74983 12.8817 8.74968 12.8862 8.74949 12.8905C8.74911 12.8991 8.74858 12.9066 8.74798 12.9132C8.74678 12.9264 8.74527 12.936 8.74404 12.9423C8.74154 12.9551 8.7402 12.9544 8.74527 12.9433C8.75306 12.9262 8.79419 12.8433 8.94337 12.734C9.25742 12.5039 10.0695 12.1463 12.0001 12.1463V10.6463Z" fill="#1C274C"/>
</g>
</svg>
