<svg width="24" height="24" viewBox="0 0 24 24" fill="none" xmlns="http://www.w3.org/2000/svg">
<g id="Outline / Essentional, UI / Figma">
<path id="Vector" fill-rule="evenodd" clip-rule="evenodd" d="M8.66683 1.25C6.41167 1.25 4.5835 3.07817 4.5835 5.33333C4.5835 6.70965 5.26442 7.92693 6.30776 8.66667C5.26442 9.4064 4.5835 10.6237 4.5835 12C4.5835 13.3763 5.26442 14.5936 6.30777 15.3333C5.26442 16.0731 4.5835 17.2903 4.5835 18.6667C4.5835 20.9218 6.41167 22.75 8.66683 22.75C10.922 22.75 12.7502 20.9218 12.7502 18.6667V15.1624C13.4539 15.738 14.3534 16.0833 15.3335 16.0833C17.5887 16.0833 19.4168 14.2552 19.4168 12C19.4168 10.6237 18.7359 9.4064 17.6926 8.66666C18.7359 7.92693 19.4168 6.70965 19.4168 5.33333C19.4168 3.07817 17.5887 1.25 15.3335 1.25H8.66683ZM11.2502 14.5833H8.66683C7.24009 14.5833 6.0835 13.4267 6.0835 12C6.0835 10.5733 7.24009 9.41666 8.66683 9.41667L11.2502 9.41666L11.2502 12L11.2502 14.5833ZM8.66683 7.91667H11.2502V2.75H8.66683C7.24009 2.75 6.0835 3.9066 6.0835 5.33333C6.0835 6.76007 7.24009 7.91667 8.66683 7.91667ZM17.9168 5.33333C17.9168 6.75914 16.7617 7.91517 15.3363 7.91667L14.0432 7.91666L12.7502 7.91666L12.7502 2.75H15.3335C16.7602 2.75 17.9168 3.9066 17.9168 5.33333ZM12.7502 11.9968C12.7519 10.5726 13.9061 9.41838 15.3303 9.41667L15.336 9.41667C16.7616 9.41801 17.9168 10.5741 17.9168 12C17.9168 13.4267 16.7602 14.5833 15.3335 14.5833C13.9078 14.5833 12.7519 13.4284 12.7502 12.0032V11.9968ZM8.66683 16.0833C7.24009 16.0833 6.0835 17.2399 6.0835 18.6667C6.0835 20.0934 7.24009 21.25 8.66683 21.25C10.0936 21.25 11.2502 20.0934 11.2502 18.6667V16.0833H8.66683Z" fill="#1C274C"/>
</g>
</svg>
