<svg width="24" height="24" viewBox="0 0 24 24" fill="none" xmlns="http://www.w3.org/2000/svg">
<g id="Outline / Files / File Corrupted">
<path id="Vector (Stroke)" fill-rule="evenodd" clip-rule="evenodd" d="M12.25 2.83364C11.7897 2.75595 11.1622 2.75005 10.0325 2.75005C8.11516 2.75005 6.75231 2.75163 5.71904 2.88987C4.70675 3.02531 4.12505 3.27937 3.70224 3.70204C3.27888 4.12526 3.02515 4.70489 2.88984 5.71093C2.75163 6.73858 2.75004 8.09322 2.75004 10.0001V11.9397C2.75004 12.0247 2.75006 12.0794 2.75071 12.1201C2.75115 12.1474 2.75179 12.1594 2.75193 12.1622C2.77303 12.3333 2.95788 12.4327 3.11269 12.355C3.11507 12.3535 3.12546 12.3474 3.14844 12.3326C3.18268 12.3106 3.22827 12.2802 3.29895 12.2331C4.32966 11.5462 5.67238 11.5462 6.70309 12.2331C7.48963 12.7573 8.51437 12.7573 9.30092 12.2331C10.3316 11.5462 11.6743 11.5462 12.705 12.2331C13.4916 12.7573 14.5163 12.7573 15.3029 12.2331C16.3336 11.5462 17.6763 11.5462 18.707 12.2331C19.4749 12.7449 20.4699 12.757 21.2486 12.2694C21.2331 11.5536 21.1872 11.1061 21.0822 10.7501H17.9464C16.8135 10.7501 15.8878 10.7501 15.1569 10.6518C14.393 10.5491 13.7306 10.3268 13.2019 9.79815C12.6732 9.26945 12.451 8.60712 12.3483 7.84317C12.25 7.1123 12.25 6.18657 12.25 5.05374V2.83364ZM13.75 3.60621V5.00005C13.75 6.19976 13.7516 7.0241 13.8349 7.64329C13.9152 8.24091 14.0591 8.53395 14.2626 8.73749C14.4661 8.94103 14.7592 9.08486 15.3568 9.16521C15.976 9.24846 16.8003 9.25005 18 9.25005H20.0256C19.729 8.96252 19.3491 8.61801 18.8558 8.17415L14.8957 4.61125C14.4079 4.17239 14.0455 3.84897 13.75 3.60621ZM10.1781 1.25002C11.5632 1.24966 12.458 1.24942 13.2815 1.56532C14.105 1.88124 14.7671 2.47726 15.7916 3.3995C15.827 3.43133 15.8628 3.46354 15.899 3.49615L19.8591 7.05904C19.9012 7.09698 19.9429 7.13443 19.984 7.17143C21.1681 8.23605 21.9337 8.92449 22.3456 9.84894C22.665 10.566 22.7314 11.3208 22.7498 12.3135C22.7586 12.7861 22.5228 13.224 22.1367 13.4813C20.8464 14.3412 19.1655 14.3412 17.8751 13.4813C17.3482 13.1301 16.6617 13.1301 16.1347 13.4813C14.8444 14.3412 13.1635 14.3412 11.8732 13.4813C11.3462 13.1301 10.6597 13.1301 10.1328 13.4813C8.84247 14.3412 7.16153 14.3412 5.87122 13.4813C5.34428 13.1301 4.65776 13.1301 4.13082 13.4813C4.12065 13.4881 4.11049 13.4949 4.10035 13.5016C3.99516 13.5719 3.89221 13.6406 3.8042 13.6861C2.7139 14.2496 1.39658 13.5453 1.26078 12.3251C1.24982 12.2266 1.24992 12.1028 1.25002 11.9764C1.25003 11.9642 1.25004 11.952 1.25004 11.9397L1.25004 9.94362C1.25002 8.10587 1.25001 6.65023 1.40323 5.511C1.56091 4.33853 1.89315 3.38956 2.64175 2.64121C3.3909 1.8923 4.34326 1.56058 5.52012 1.40312C6.66442 1.25002 8.12775 1.25003 9.9762 1.25005L10.0325 1.25005C10.0816 1.25005 10.1302 1.25004 10.1781 1.25002ZM5.87122 17.4813C5.34428 17.1301 4.65776 17.1301 4.13082 17.4813L3.50462 17.8986C3.23667 18.0772 3.09148 18.1755 2.99303 18.2599C2.95012 18.2967 2.93103 18.3188 2.92289 18.3294C2.91659 18.3375 2.91459 18.3416 2.91241 18.3472L2.91189 18.3485C2.90502 18.366 2.89911 18.3809 2.90519 18.4446C2.91456 18.5426 2.94383 18.6724 3.00787 18.941C3.15512 19.5588 3.37674 19.9727 3.70224 20.2981C4.12563 20.7213 4.70555 20.975 5.71204 21.1103C6.74008 21.2485 8.09522 21.2501 10.0027 21.2501H14.004C15.9114 21.2501 17.2665 21.2485 18.2946 21.1103C19.3011 20.975 19.881 20.7213 20.3044 20.2981C20.7777 19.8249 21.0337 19.1631 21.1559 17.9503C20.0657 18.2922 18.8573 18.1358 17.8751 17.4813C17.3482 17.1301 16.6617 17.1301 16.1347 17.4813C14.8444 18.3412 13.1635 18.3412 11.8732 17.4813C11.3462 17.1301 10.6597 17.1301 10.1328 17.4813C8.84247 18.3412 7.16153 18.3412 5.87122 17.4813ZM3.29895 16.2331C4.32966 15.5462 5.67238 15.5462 6.70309 16.2331C7.48963 16.7573 8.51437 16.7573 9.30092 16.2331C10.3316 15.5462 11.6743 15.5462 12.705 16.2331C13.4916 16.7573 14.5163 16.7573 15.3029 16.2331C16.3336 15.5462 17.6763 15.5462 18.707 16.2331C19.4936 16.7573 20.5183 16.7573 21.3048 16.2331C21.9217 15.822 22.7521 16.2805 22.7211 17.0289C22.643 18.9115 22.3944 20.3297 21.3649 21.3589C20.6163 22.1072 19.6671 22.4393 18.4944 22.5969C17.3548 22.7501 15.8988 22.7501 14.0604 22.7501H9.94622C8.10785 22.7501 6.65178 22.7501 5.51223 22.5969C4.3395 22.4393 3.39032 22.1072 2.64175 21.3589C2.07476 20.7921 1.74372 20.1068 1.54875 19.2888C1.54199 19.2604 1.53504 19.2318 1.52803 19.2029C1.42725 18.7868 1.31309 18.3156 1.51639 17.7984C1.63157 17.5054 1.81385 17.2951 2.01648 17.1214C2.19255 16.9703 2.41575 16.8216 2.6442 16.6694L3.29895 16.2331Z" fill="#1C274C"/>
</g>
</svg>
