<svg width="24" height="24" viewBox="0 0 24 24" fill="none" xmlns="http://www.w3.org/2000/svg">
<g id="Line Duotone / Essentional, UI / Filter">
<path id="Vector" d="M22 5.81445V6.50427C22 7.54211 22 8.06103 21.7404 8.49121C21.4808 8.92139 21.0065 9.18837 20.058 9.72234L17.145 11.3622C16.5085 11.7204 16.1903 11.8996 15.9625 12.0974C15.488 12.5093 15.1959 12.9933 15.0636 13.587C15 13.872 15 14.2056 15 14.8727V17.5422C15 19.4517 15 20.4064 14.3321 20.8242C13.6641 21.242 12.7248 20.8748 10.8462 20.1404C9.95128 19.7905 9.50385 19.6156 9.25192 19.2611C9 18.9065 9 18.4518 9 17.5422L9 14.8727C9 14.2056 9 13.872 8.93644 13.587C8.80408 12.9933 8.51199 12.5093 8.03751 12.0974C7.80967 11.8996 7.49146 11.7204 6.85504 11.3622L3.94202 9.72234C2.99347 9.18837 2.5192 8.92139 2.2596 8.49121C2 8.06103 2 7.54211 2 6.50427V5.81445" stroke="#1C274C" stroke-width="1.5"/>
<path id="Vector_2" opacity="0.5" d="M22 5.81466C22 4.48782 22 3.8244 21.5607 3.4122C21.1213 3 20.4142 3 19 3H5C3.58579 3 2.87868 3 2.43934 3.4122C2 3.8244 2 4.48782 2 5.81466" stroke="#1C274C" stroke-width="1.5"/>
</g>
</svg>
