<svg width="24" height="24" viewBox="0 0 24 24" fill="none" xmlns="http://www.w3.org/2000/svg">
<g id="Linear / Nature, Travel / Fire Square">
<path id="Vector" d="M2 12C2 7.28595 2 4.92893 3.46447 3.46447C4.92893 2 7.28595 2 12 2C16.714 2 19.0711 2 20.5355 3.46447C22 4.92893 22 7.28595 22 12C22 16.714 22 19.0711 20.5355 20.5355C19.0711 22 16.714 22 12 22C7.28595 22 4.92893 22 3.46447 20.5355C2 19.0711 2 16.714 2 12Z" stroke="#1C274C" stroke-width="1.5"/>
<path id="Vector_2" d="M17 12.6667C17 16.9333 13.4444 18 11.6667 18C10.1111 18 7 16.9333 7 12.6667C7 10.8109 8.06292 9.63276 8.95593 9.03976C9.36421 8.76864 9.87201 8.94193 9.89841 9.43131C9.95616 10.5021 10.7814 11.3622 11.4205 10.5011C12.0054 9.71299 12.2941 8.64273 12.2941 8.00001C12.2941 7.05323 13.2525 6.45159 14.0008 7.03166C15.4593 8.16231 17 10.0558 17 12.6667Z" stroke="#1C274C" stroke-width="1.5"/>
</g>
</svg>
