<svg width="24" height="24" viewBox="0 0 24 24" fill="none" xmlns="http://www.w3.org/2000/svg">
<g id="Outline / Nature, Travel / Flame">
<path id="Vector" fill-rule="evenodd" clip-rule="evenodd" d="M9.25961 3.09856C9.6636 2.08774 10.9948 1.46276 12.0272 2.2492C13.7471 3.55935 15.9044 5.4855 17.6398 7.68865C19.3595 9.87197 20.75 12.4348 20.75 15C20.75 17.2933 20.0398 18.9975 19.0117 20.218C17.9933 21.4269 16.6994 22.1193 15.5816 22.4671C15.0076 22.6457 14.4825 22.3825 14.2275 21.9545C13.9871 21.5512 13.9859 21.0147 14.2863 20.583C15.1436 19.351 16.05 17.5793 16.05 16C16.05 15.2165 15.7123 14.2889 15.1668 13.3372C14.7566 12.6215 14.2539 11.9351 13.7643 11.3465C13.6627 12.7494 13.3578 14.5121 12.412 15.9696C11.9822 16.6319 11.0267 16.706 10.518 16.0627C10.3592 15.8618 10.2023 15.6412 10.0588 15.4393C10.0501 15.4271 10.0415 15.4151 10.033 15.403C9.9545 15.2927 9.87986 15.1882 9.80763 15.09C9.12187 15.773 8.48333 16.5902 8.48333 17.5C8.48333 18.3037 8.88448 19.4025 9.35898 20.3335C9.61561 20.837 9.50832 21.3951 9.1994 21.7606C8.87092 22.1492 8.27312 22.3491 7.70569 22.0206C5.76159 20.8952 3.25 18.4917 3.25 15C3.25 14.0531 3.57109 13.0736 4.0203 12.1168C4.47254 11.1536 5.0858 10.15 5.72984 9.14739C5.95297 8.80004 6.17941 8.45306 6.40546 8.10668C7.51002 6.41411 8.60528 4.73579 9.25961 3.09856ZM10.8983 3.41743C10.7958 3.45292 10.6992 3.53846 10.6525 3.65524C9.93718 5.44504 8.74008 7.27713 7.63532 8.9679C7.41569 9.30403 7.19971 9.63458 6.99189 9.95809C6.35264 10.9532 5.78547 11.8866 5.3781 12.7543C4.96769 13.6284 4.75 14.3737 4.75 15C4.75 17.2945 6.15653 19.0762 7.63307 20.1782C7.27845 19.3371 6.98333 18.367 6.98333 17.5C6.98333 15.7694 8.2827 14.4629 9.00894 13.7752C9.47929 13.3298 10.2914 13.2899 10.7647 13.874C10.9359 14.0853 11.1032 14.3197 11.2553 14.5336L11.2734 14.559C11.3161 14.619 11.3576 14.6774 11.3983 14.7342C12.0671 13.4599 12.2543 11.9056 12.3012 10.6262C12.3204 10.0998 12.6468 9.68344 13.0747 9.50935C13.5118 9.33153 14.0549 9.40987 14.4285 9.82319L13.8721 10.3261L14.4285 9.82319C15.0949 10.5604 15.8626 11.5347 16.4682 12.5913C17.0657 13.6337 17.55 14.8329 17.55 16C17.55 17.6926 16.7822 19.4101 16.0062 20.6885C16.6582 20.3692 17.3159 19.9028 17.8644 19.2516C18.6512 18.3177 19.25 16.9612 19.25 15C19.25 12.9433 18.1125 10.7131 16.4614 8.61679C14.8259 6.54033 12.7696 4.70034 11.1183 3.44243C11.0636 3.40079 10.993 3.38466 10.8983 3.41743Z" fill="#1C274C"/>
</g>
</svg>
