<svg width="24" height="24" viewBox="0 0 24 24" fill="none" xmlns="http://www.w3.org/2000/svg">
<g id="Bold / Sports / Football">
<g id="Vector">
<path d="M6.0139 8.6655C5.94336 8.17919 5.79255 7.60031 5.61213 6.90773L5.07137 4.83172L5.06184 4.79513C5.77207 4.11058 6.58328 3.5303 7.47088 3.07888L9.10312 4.31685C9.66267 4.74127 10.1331 5.0981 10.5496 5.34436C10.7677 5.4733 10.9873 5.58222 11.2164 5.66013V8.68205C11.0933 8.7394 10.9753 8.81148 10.865 8.89814L8.93269 10.4166C8.8606 10.4733 8.79373 10.5346 8.73225 10.6L6.05409 9.44032C6.07029 9.18713 6.05232 8.93042 6.0139 8.6655Z" fill="#1C274C"/>
<path d="M4.0451 10.2027C3.75011 10.4568 3.33478 10.7403 2.71029 11.1644L2.00635 11.6426C2.07784 9.60523 2.75808 7.72294 3.87054 6.17241L4.15019 7.24601C4.34366 7.98876 4.47227 8.48678 4.52943 8.88083C4.58394 9.25662 4.56063 9.46319 4.49929 9.62945C4.43845 9.79436 4.32473 9.96174 4.0451 10.2027Z" fill="#1C274C"/>
<path d="M5.30111 16.8851C5.99569 16.8851 6.58124 16.8851 7.0596 16.9413C7.31188 16.9709 7.55283 17.0178 7.78263 17.0953L9.19832 15.2429C9.14674 15.1429 9.10384 15.0373 9.07067 14.9268L8.31171 12.4004C8.27411 12.2752 8.25029 12.1482 8.23962 12.0213L5.51305 10.8406C5.37075 11.0193 5.20602 11.1824 5.02419 11.3391C4.65615 11.6562 4.16839 11.9874 3.58789 12.3817L2.09645 13.3946C2.27106 14.6474 2.67751 15.8259 3.271 16.8851L5.30111 16.8851Z" fill="#1C274C"/>
<path d="M11.7918 10.0775C11.8459 10.0351 11.9069 10.0158 11.9664 10.0158C12.0259 10.0158 12.0869 10.0351 12.141 10.0775L14.0733 11.596C14.1248 11.6365 14.164 11.6939 14.1845 11.762C14.2043 11.828 14.2052 11.8999 14.1845 11.9688L13.4255 14.4953C13.4047 14.5648 13.3654 14.62 13.3178 14.6585C13.2652 14.701 13.2033 14.723 13.1397 14.723H10.7931C10.7295 14.723 10.6676 14.701 10.615 14.6585C10.5674 14.62 10.5281 14.5648 10.5072 14.4953L9.74829 11.9688C9.72759 11.8999 9.72846 11.828 9.74828 11.762C9.76876 11.6939 9.80799 11.6365 9.85952 11.596L11.7918 10.0775Z" fill="#1C274C"/>
<path d="M13.3758 5.37566C13.7975 5.13868 14.2754 4.79236 14.8436 4.38051L16.5844 3.11906C17.4491 3.56852 18.2399 4.14086 18.9337 4.81298L18.388 6.90784C18.2076 7.60042 18.0568 8.17929 17.9863 8.6656C17.9481 8.9291 17.9301 9.18448 17.9458 9.43635L15.2035 10.6032C15.1412 10.5366 15.0733 10.4742 15.0001 10.4166L13.0678 8.89814C12.9575 8.81148 12.8395 8.7394 12.7164 8.68205V5.67216C12.9421 5.59958 13.1595 5.49725 13.3758 5.37566Z" fill="#1C274C"/>
<path d="M11.313 4.05316C10.9798 3.85615 10.5781 3.55293 9.97563 3.09597L9.09309 2.42661C10.0095 2.14916 10.9816 2 11.9885 2C13.0211 2 14.0171 2.15686 14.954 2.44808L13.998 3.14087C13.386 3.58435 12.9781 3.87852 12.6409 4.06803C12.3204 4.24814 12.1339 4.29193 11.9747 4.29016C11.8155 4.2884 11.6298 4.24043 11.313 4.05316Z" fill="#1C274C"/>
<path d="M18.976 11.3392C19.344 11.6563 19.8318 11.9875 20.4123 12.3818L21.8826 13.3804C21.7091 14.6385 21.3018 15.8219 20.7061 16.8851L18.8479 16.8851C18.1533 16.8851 17.5678 16.8851 17.0894 16.9413C16.8266 16.9721 16.5761 17.0217 16.3377 17.1052L14.7481 15.2159C14.7936 15.124 14.8319 15.0274 14.8621 14.9268L15.6211 12.4004C15.6583 12.2765 15.682 12.1507 15.6928 12.0251L18.4844 10.8373C18.6273 11.0174 18.793 11.1815 18.976 11.3392Z" fill="#1C274C"/>
<path d="M14.8084 18.6265C14.6067 19.0727 14.4224 19.6414 14.2021 20.3213L13.7058 21.8528C13.1479 21.9496 12.5741 22 11.9885 22C11.4663 22 10.9534 21.9599 10.4528 21.8825L9.94691 20.3213C9.72662 19.6414 9.54234 19.0727 9.34056 18.6265C9.23753 18.3987 9.12294 18.1861 8.98499 17.9923L10.3753 16.1731C10.5098 16.2058 10.6498 16.223 10.7931 16.223H13.1397C13.2934 16.223 13.4434 16.2031 13.5869 16.1657L15.1457 18.0183C15.0159 18.205 14.9069 18.4088 14.8084 18.6265Z" fill="#1C274C"/>
<path d="M8.53276 20.8232C8.29631 20.0935 8.13698 19.6053 7.97383 19.2446C7.81806 18.9001 7.68974 18.7453 7.55545 18.6457C7.42292 18.5475 7.24475 18.4733 6.88463 18.431C6.50404 18.3863 6.00712 18.3851 5.25819 18.3851H4.30098C5.45894 19.781 6.98896 20.8563 8.73872 21.4588L8.53276 20.8232Z" fill="#1C274C"/>
<path d="M17.2644 18.431C17.645 18.3863 18.1419 18.3851 18.8908 18.3851H19.6761C18.5612 19.729 17.1014 20.7759 15.4327 21.3896L15.6163 20.8232C15.8527 20.0935 16.012 19.6053 16.1752 19.2446C16.331 18.9001 16.4593 18.7453 16.5936 18.6457C16.7261 18.5475 16.9043 18.4733 17.2644 18.431Z" fill="#1C274C"/>
<path d="M19.4707 8.88093C19.5279 8.48688 19.6565 7.98886 19.85 7.24611L20.1235 6.1961C21.223 7.73804 21.8961 9.60576 21.9702 11.6266L21.2899 11.1645C20.6654 10.7404 20.2501 10.4569 19.9551 10.2028C19.6754 9.96184 19.5617 9.79446 19.5009 9.62955C19.4395 9.46329 19.4162 9.25672 19.4707 8.88093Z" fill="#1C274C"/>
</g>
</g>
</svg>
