<svg width="24" height="24" viewBox="0 0 24 24" fill="none" xmlns="http://www.w3.org/2000/svg">
<g id="Bold Duotone / Messages, Coversation / Forward">
<path id="Vector" d="M13.9546 5.18341L18.9324 9.60815C19.863 10.4353 20.3283 10.8489 20.4998 11.3373C20.6503 11.7662 20.6503 12.2335 20.4998 12.6624C20.3283 13.1508 19.863 13.5644 18.9324 14.3916L13.9546 18.8163C13.5323 19.1917 13.3211 19.3794 13.1418 19.3861C12.986 19.3919 12.8364 19.3247 12.7372 19.2044C12.6231 19.0659 12.6231 18.7834 12.6231 18.2184V15.4284C10.195 15.4284 7.63044 16.2083 5.75782 17.5926C4.78293 18.3133 4.29546 18.6737 4.1098 18.6595C3.92883 18.6456 3.81398 18.575 3.72008 18.4196C3.62374 18.2603 3.70883 17.7624 3.879 16.7666C4.98397 10.3004 9.43394 8.57129 12.6231 8.57129V5.78134C12.6231 5.21632 12.6231 4.93381 12.7372 4.79531C12.8364 4.67498 12.986 4.6078 13.1418 4.61363C13.3211 4.62034 13.5323 4.80803 13.9546 5.18341Z" fill="#1C274C"/>
</g>
</svg>
