<svg width="24" height="24" viewBox="0 0 24 24" fill="none" xmlns="http://www.w3.org/2000/svg">
<g id="Outline / Hands / Hand Pills">
<path id="Vector" fill-rule="evenodd" clip-rule="evenodd" d="M12.1105 3.32656C11.3417 2.55781 10.0954 2.55781 9.32662 3.32656C8.55787 4.0953 8.55787 5.34168 9.32662 6.11042L10.3146 7.09845C10.3486 7.08325 10.3842 7.06678 10.4212 7.04896C10.8073 6.86288 11.3541 6.52792 11.9409 5.94106C12.5278 5.3542 12.8628 4.80736 13.0489 4.42117C13.0668 4.38414 13.0833 4.34857 13.0985 4.31456L12.1105 3.32656ZM14.2132 5.42923C13.9513 5.89156 13.5653 6.43798 13.0016 7.00172C12.4379 7.56539 11.8916 7.95129 11.4293 8.21313L11.8896 8.67344C12.6584 9.44219 13.9048 9.44219 14.6735 8.67344C15.4422 7.9047 15.4422 6.65832 14.6735 5.88958L14.2132 5.42923ZM8.26596 2.2659C9.62049 0.911367 11.8166 0.911367 13.1711 2.2659L15.7342 4.82892C17.0887 6.18345 17.0887 8.37957 15.7342 9.7341C14.3796 11.0886 12.1835 11.0886 10.829 9.7341L8.26596 7.17108C6.91143 5.81656 6.91143 3.62043 8.26596 2.2659ZM8.68397 14.4482C10.5498 14.0867 12.5471 14.1678 14.1633 15.1318C14.3903 15.2672 14.6031 15.4359 14.7888 15.6444C15.1646 16.0666 15.3588 16.5913 15.3679 17.1174C15.5592 16.994 15.7508 16.857 15.9454 16.71L17.7526 15.3448C18.6572 14.6615 19.9718 14.6614 20.8765 15.3445C21.7125 15.9757 22.0457 17.1085 21.4473 18.0677C21.022 18.7495 20.3815 19.6924 19.7296 20.2962C19.0707 20.9065 18.1329 21.4196 17.4236 21.762C16.5621 22.1778 15.6316 22.4077 14.7269 22.5541C12.8777 22.8534 10.9535 22.8076 9.12505 22.431C8.19064 22.2384 7.21961 22.1384 6.25999 22.1384H4.00006C3.58585 22.1384 3.25006 21.8026 3.25006 21.3884C3.25006 20.9742 3.58585 20.6384 4.00006 20.6384H6.25999C7.3221 20.6384 8.39454 20.749 9.42772 20.9618C11.0798 21.3022 12.8202 21.3432 14.4872 21.0734C15.3161 20.9392 16.0901 20.74 16.7715 20.4111C17.4549 20.0812 18.2233 19.6468 18.7104 19.1957C19.2029 18.7395 19.7541 17.9479 20.1747 17.2738C20.3016 17.0703 20.284 16.7767 19.9727 16.5416C19.6029 16.2624 19.0264 16.2625 18.6567 16.5417L16.8496 17.9069C16.1281 18.4518 15.2402 19.0349 14.1388 19.2106C14.0276 19.2283 13.9119 19.2445 13.7918 19.2588C13.7345 19.2692 13.6749 19.276 13.6133 19.2783C13.051 19.3342 12.3998 19.3472 11.6813 19.2793C11.2689 19.2404 10.9662 18.8745 11.0051 18.4621C11.0441 18.0497 11.41 17.747 11.8223 17.786C12.4498 17.8452 13.0127 17.8321 13.4903 17.7831C13.5 17.7821 13.5096 17.7811 13.5192 17.7801C13.5392 17.7685 13.5697 17.7474 13.6096 17.7125C13.9291 17.4336 13.9576 16.9667 13.6684 16.6418C13.5951 16.5595 13.5049 16.4856 13.3949 16.42C12.2138 15.7155 10.6363 15.5978 8.96927 15.9208C7.31174 16.2419 5.66497 16.9817 4.43392 17.8547C4.09604 18.0943 3.6279 18.0146 3.38828 17.6768C3.14867 17.3389 3.22833 16.8708 3.5662 16.6311C4.96457 15.6395 6.80866 14.8115 8.68397 14.4482Z" fill="#1C274C"/>
</g>
</svg>
