<svg width="24" height="24" viewBox="0 0 24 24" fill="none" xmlns="http://www.w3.org/2000/svg">
<g id="Outline / Hands / Hand Heart">
<path id="Vector" fill-rule="evenodd" clip-rule="evenodd" d="M15.583 1.41995C16.895 1.86149 17.7501 3.09602 17.7501 4.71455C17.7501 5.73209 17.1716 6.66866 16.527 7.41588C15.8644 8.184 15.0257 8.8733 14.2921 9.40806C14.2607 9.43097 14.2295 9.45375 14.1986 9.47635C13.4866 9.99659 12.8992 10.4258 12.0001 10.4258C11.1009 10.4258 10.5135 9.99659 9.80154 9.47634C9.77061 9.45374 9.73944 9.43097 9.708 9.40805C8.97441 8.87329 8.13575 8.18399 7.47311 7.41587C6.82851 6.66865 6.25006 5.73209 6.25006 4.71456C6.25006 3.09603 7.10508 1.8615 8.41713 1.41996C9.5362 1.04335 10.8388 1.29193 12.0001 2.13723C13.1613 1.29193 14.4639 1.04335 15.583 1.41995ZM15.1046 2.84161C14.4525 2.62218 13.4802 2.76414 12.5076 3.65812C12.2206 3.92189 11.7795 3.92189 11.4925 3.65812C10.5199 2.76414 9.5476 2.62218 8.89556 2.84161C8.27008 3.0521 7.75006 3.65592 7.75006 4.71456C7.75006 5.18213 8.03458 5.77033 8.60889 6.43607C9.16518 7.08091 9.90138 7.69278 10.5916 8.19592C11.4347 8.81053 11.6351 8.92578 12.0001 8.92578C12.365 8.92578 12.5654 8.81054 13.4085 8.19593C14.0987 7.69279 14.8349 7.08093 15.3912 6.43609C15.9655 5.77034 16.2501 5.18213 16.2501 4.71455C16.2501 3.65592 15.73 3.0521 15.1046 2.84161ZM8.68397 14.448C10.5498 14.0865 12.5471 14.1676 14.1633 15.1316C14.3903 15.267 14.6031 15.4357 14.7888 15.6442C15.1646 16.0664 15.3588 16.5911 15.3679 17.1172C15.5592 16.9938 15.7508 16.8568 15.9454 16.7098L17.7526 15.3446C18.6572 14.6613 19.9718 14.6612 20.8765 15.3443C21.7125 15.9755 22.0457 17.1083 21.4473 18.0675C21.022 18.7493 20.3815 19.6922 19.7296 20.296C19.0707 20.9063 18.1329 21.4194 17.4236 21.7618C16.5621 22.1776 15.6316 22.4075 14.7269 22.5539C12.8777 22.8532 10.9535 22.8074 9.12505 22.4308C8.19064 22.2382 7.21961 22.1382 6.25999 22.1382H4.00006C3.58585 22.1382 3.25006 21.8024 3.25006 21.3882C3.25006 20.974 3.58585 20.6382 4.00006 20.6382H6.25999C7.3221 20.6382 8.39454 20.7487 9.42772 20.9616C11.0798 21.302 12.8202 21.343 14.4872 21.0732C15.3161 20.939 16.0901 20.7398 16.7715 20.4109C17.4549 20.081 18.2233 19.6466 18.7104 19.1955C19.2029 18.7393 19.7541 17.9477 20.1747 17.2736C20.3016 17.0701 20.284 16.7765 19.9727 16.5414C19.6029 16.2622 19.0264 16.2623 18.6567 16.5415L16.8496 17.9067C16.1281 18.4516 15.2402 19.0347 14.1388 19.2103C14.0276 19.2281 13.9119 19.2443 13.7918 19.2586C13.7345 19.2689 13.6749 19.2758 13.6133 19.2781C13.051 19.334 12.3998 19.347 11.6813 19.2791C11.2689 19.2402 10.9662 18.8743 11.0051 18.4619C11.0441 18.0495 11.41 17.7468 11.8223 17.7858C12.4498 17.845 13.0127 17.8319 13.4903 17.7829C13.5 17.7819 13.5096 17.7809 13.5192 17.7799C13.5392 17.7683 13.5697 17.7472 13.6096 17.7122C13.9291 17.4334 13.9576 16.9665 13.6684 16.6416C13.5951 16.5593 13.5049 16.4854 13.3949 16.4198C12.2138 15.7153 10.6363 15.5976 8.96927 15.9206C7.31174 16.2417 5.66497 16.9815 4.43392 17.8545C4.09604 18.0941 3.6279 18.0144 3.38828 17.6766C3.14867 17.3387 3.22833 16.8706 3.5662 16.6309C4.96457 15.6393 6.80866 14.8113 8.68397 14.448Z" fill="#1C274C"/>
</g>
</svg>
