<svg width="24" height="24" viewBox="0 0 24 24" fill="none" xmlns="http://www.w3.org/2000/svg">
<g id="Outline / Hands / Hand Money">
<path id="Vector" fill-rule="evenodd" clip-rule="evenodd" d="M14.3251 3.75017C14.2209 3.75002 14.1126 3.75 14.0001 3.75L10.0001 3.75C9.88748 3.75 9.77921 3.75002 9.67501 3.75017C9.37671 5.21938 8.21944 6.37665 6.75022 6.67496C6.75008 6.77915 6.75006 6.88742 6.75006 7C6.75006 7.11259 6.75008 7.22086 6.75022 7.32505C8.21944 7.62335 9.37671 8.78062 9.67501 10.2498C9.77921 10.25 9.88748 10.25 10.0001 10.25H14.0001C14.1126 10.25 14.2209 10.25 14.3251 10.2498C14.6234 8.78062 15.7807 7.62336 17.2499 7.32505C17.25 7.22086 17.2501 7.11259 17.2501 7C17.2501 6.88742 17.25 6.77915 17.2499 6.67496C15.7807 6.37665 14.6234 5.21938 14.3251 3.75017ZM14.9296 2.25327C14.655 2.24998 14.3625 2.24999 14.0521 2.25L9.94806 2.25C9.63767 2.24999 9.34509 2.24998 9.07054 2.25327C9.04734 2.25111 9.02383 2.25 9.00006 2.25C8.96867 2.25 8.93772 2.25193 8.90734 2.25568C8.45456 2.26372 8.05363 2.28312 7.70558 2.32991C7.07779 2.41432 6.51099 2.59999 6.05552 3.05546C5.60005 3.51093 5.41438 4.07773 5.32997 4.70552C5.28318 5.05357 5.26377 5.45451 5.25573 5.90728C5.25199 5.93767 5.25006 5.96861 5.25006 6C5.25006 6.02377 5.25117 6.04728 5.25333 6.07048C5.25004 6.34503 5.25005 6.63761 5.25006 6.948V7.052C5.25005 7.36239 5.25004 7.65497 5.25333 7.92952C5.25117 7.95273 5.25006 7.97624 5.25006 8C5.25006 8.0314 5.25199 8.06234 5.25573 8.09272C5.26377 8.5455 5.28318 8.94643 5.32997 9.29448C5.41438 9.92228 5.60005 10.4891 6.05552 10.9445C6.51099 11.4 7.07779 11.5857 7.70558 11.6701C8.05363 11.7169 8.45456 11.7363 8.90734 11.7443C8.93772 11.7481 8.96867 11.75 9.00006 11.75C9.02383 11.75 9.04733 11.7489 9.07054 11.7467C9.34509 11.75 9.63767 11.75 9.94807 11.75H14.0521C14.3625 11.75 14.655 11.75 14.9296 11.7467C14.9528 11.7489 14.9763 11.75 15.0001 11.75C15.0315 11.75 15.0624 11.7481 15.0928 11.7443C15.5456 11.7363 15.9465 11.7169 16.2945 11.6701C16.9223 11.5857 17.4891 11.4 17.9446 10.9445C18.4001 10.4891 18.5857 9.92228 18.6701 9.29448C18.7169 8.94643 18.7363 8.5455 18.7444 8.09272C18.7481 8.06234 18.7501 8.0314 18.7501 8C18.7501 7.97624 18.749 7.95273 18.7468 7.92953C18.7501 7.65497 18.7501 7.36239 18.7501 7.052V6.94801C18.7501 6.63761 18.7501 6.34503 18.7468 6.07048C18.749 6.04728 18.7501 6.02377 18.7501 6C18.7501 5.96861 18.7481 5.93767 18.7444 5.90729C18.7363 5.45451 18.7169 5.05357 18.6701 4.70552C18.5857 4.07773 18.4001 3.51093 17.9446 3.05546C17.4891 2.59999 16.9223 2.41432 16.2945 2.32991C15.9465 2.28312 15.5456 2.26372 15.0928 2.25568C15.0624 2.25193 15.0315 2.25 15.0001 2.25C14.9763 2.25 14.9528 2.25111 14.9296 2.25327ZM15.8941 3.79396C16.122 4.39792 16.6021 4.8781 17.2061 5.10591C17.1996 5.03597 17.1921 4.96924 17.1835 4.90539C17.1215 4.44393 17.0143 4.24644 16.8839 4.11612C16.7536 3.9858 16.5561 3.87858 16.0947 3.81654C16.0308 3.80795 15.9641 3.80048 15.8941 3.79396ZM17.2061 8.89409C16.6021 9.12191 16.122 9.60208 15.8941 10.206C15.9641 10.1995 16.0308 10.1921 16.0947 10.1835C16.5561 10.1214 16.7536 10.0142 16.8839 9.88388C17.0143 9.75357 17.1215 9.55607 17.1835 9.09461C17.1921 9.03076 17.1996 8.96404 17.2061 8.89409ZM8.10597 10.206C7.87816 9.60208 7.39798 9.12191 6.79402 8.89409C6.80053 8.96404 6.80801 9.03076 6.8166 9.09461C6.87864 9.55607 6.98586 9.75357 7.11618 9.88389C7.24649 10.0142 7.44399 10.1214 7.90545 10.1835C7.9693 10.1921 8.03602 10.1995 8.10597 10.206ZM6.79402 5.10591C7.39798 4.8781 7.87816 4.39792 8.10597 3.79396C8.03602 3.80048 7.9693 3.80795 7.90545 3.81654C7.44399 3.87858 7.24649 3.9858 7.11618 4.11612C6.98586 4.24644 6.87864 4.44393 6.8166 4.90539C6.80801 4.96924 6.80053 5.03597 6.79402 5.10591ZM12.0001 6.75C11.862 6.75 11.7501 6.86193 11.7501 7C11.7501 7.13807 11.862 7.25 12.0001 7.25C12.1381 7.25 12.2501 7.13807 12.2501 7C12.2501 6.86193 12.1381 6.75 12.0001 6.75ZM10.2501 7C10.2501 6.0335 11.0336 5.25 12.0001 5.25C12.9666 5.25 13.7501 6.0335 13.7501 7C13.7501 7.9665 12.9666 8.75 12.0001 8.75C11.0336 8.75 10.2501 7.9665 10.2501 7ZM8.68397 14.4482C10.5498 14.0867 12.5471 14.1678 14.1633 15.1318C14.3903 15.2672 14.6031 15.4359 14.7888 15.6444C15.1646 16.0666 15.3588 16.5913 15.3679 17.1174C15.5592 16.994 15.7508 16.857 15.9454 16.71L17.7526 15.3448C18.6572 14.6615 19.9718 14.6614 20.8765 15.3445C21.7125 15.9757 22.0457 17.1085 21.4473 18.0677C21.022 18.7495 20.3815 19.6925 19.7296 20.2962C19.0707 20.9065 18.1329 21.4196 17.4236 21.762C16.5621 22.1778 15.6316 22.4077 14.7269 22.5541C12.8777 22.8535 10.9535 22.8077 9.12505 22.431C8.19064 22.2384 7.21961 22.1384 6.25999 22.1384H4.00006C3.58585 22.1384 3.25006 21.8026 3.25006 21.3884C3.25006 20.9742 3.58585 20.6384 4.00006 20.6384H6.25999C7.3221 20.6384 8.39454 20.749 9.42772 20.9618C11.0798 21.3022 12.8202 21.3432 14.4872 21.0734C15.3161 20.9392 16.0901 20.74 16.7715 20.4111C17.4549 20.0812 18.2233 19.6468 18.7104 19.1957C19.2029 18.7395 19.7541 17.9479 20.1747 17.2738C20.3016 17.0703 20.284 16.7767 19.9727 16.5416C19.6029 16.2624 19.0264 16.2625 18.6567 16.5417L16.8496 17.9069C16.1281 18.4518 15.2402 19.0349 14.1388 19.2106C14.0276 19.2283 13.9119 19.2445 13.7918 19.2588C13.7345 19.2692 13.6749 19.276 13.6133 19.2783C13.051 19.3342 12.3998 19.3472 11.6813 19.2793C11.2689 19.2404 10.9662 18.8745 11.0051 18.4621C11.0441 18.0497 11.41 17.747 11.8223 17.786C12.4498 17.8452 13.0127 17.8321 13.4903 17.7831C13.5 17.7821 13.5096 17.7811 13.5192 17.7801C13.5392 17.7685 13.5696 17.7474 13.6096 17.7125C13.9291 17.4336 13.9576 16.9667 13.6684 16.6418C13.5951 16.5595 13.5049 16.4856 13.3949 16.42C12.2138 15.7155 10.6363 15.5978 8.96927 15.9208C7.31174 16.2419 5.66497 16.9817 4.43392 17.8547C4.09604 18.0943 3.6279 18.0146 3.38828 17.6768C3.14867 17.3389 3.22833 16.8708 3.5662 16.6311C4.96457 15.6395 6.80866 14.8115 8.68397 14.4482Z" fill="#1C274C"/>
</g>
</svg>
