<svg width="24" height="24" viewBox="0 0 24 24" fill="none" xmlns="http://www.w3.org/2000/svg">
<g id="Bold Duotone / Medicine / Jar Of Pills">
<path id="Vector" opacity="0.5" d="M6 3.5C6 3.03406 6 2.80109 6.07612 2.61732C6.17761 2.37229 6.37229 2.17761 6.61732 2.07612C6.80109 2 7.03406 2 7.5 2H16.5C16.9659 2 17.1989 2 17.3827 2.07612C17.6277 2.17761 17.8224 2.37229 17.9239 2.61732C18 2.80109 18 3.03406 18 3.5C18 3.96594 18 4.19891 17.9239 4.38268C17.8224 4.62771 17.6277 4.82239 17.3827 4.92388C17.1989 5 16.9659 5 16.5 5H7.5C7.03406 5 6.80109 5 6.61732 4.92388C6.37229 4.82239 6.17761 4.62771 6.07612 4.38268C6 4.19891 6 3.96594 6 3.5Z" fill="#1C274C"/>
<path id="Vector_2" opacity="0.5" d="M4 10.9225V17.5518C4 17.7022 4.00847 17.8518 4.02518 18H19.9763C19.992 17.8561 20 17.7109 20 17.5649V10.9083C20 10.5995 19.9643 10.295 19.8955 10H4.10779C4.03683 10.2994 4 10.6087 4 10.9225Z" fill="#1C274C"/>
<g id="Vector_3">
<path d="M5.50143 7.79902L9.00021 5H15.0184L16.1597 5.89102L18.517 7.79931C19.2152 8.3645 19.6956 9.14182 19.8958 10H4.108C4.31189 9.13989 4.79757 8.36211 5.50143 7.79902Z" fill="#1C274C"/>
<path d="M4.02539 18C4.11265 18.774 4.42455 19.5092 4.92732 20.1125C5.29293 20.5513 5.47575 20.7706 5.67759 20.9548C6.27629 21.5011 7.02682 21.8526 7.82977 21.9628C8.10047 22 8.38603 22 8.95713 22H15.6419C16.8372 22 17.9698 21.4655 18.7296 20.5428L19.0879 20.1078C19.5849 19.5043 19.8921 18.771 19.9765 18H4.02539Z" fill="#1C274C"/>
</g>
<path id="Vector_4" fill-rule="evenodd" clip-rule="evenodd" d="M12 11.25C12.4142 11.25 12.75 11.5858 12.75 12V13.25H14C14.4142 13.25 14.75 13.5858 14.75 14C14.75 14.4142 14.4142 14.75 14 14.75H12.75V16C12.75 16.4142 12.4142 16.75 12 16.75C11.5858 16.75 11.25 16.4142 11.25 16V14.75H10C9.58579 14.75 9.25 14.4142 9.25 14C9.25 13.5858 9.58579 13.25 10 13.25H11.25V12C11.25 11.5858 11.5858 11.25 12 11.25Z" fill="#1C274C"/>
</g>
</svg>
