<svg width="24" height="24" viewBox="0 0 24 24" fill="none" xmlns="http://www.w3.org/2000/svg">
<g id="Bold / Security / Key Minimalistic Square 2">
<g id="Vector">
<path d="M9.62048 18.9802C10.5967 19.0887 11.5693 18.7475 12.2639 18.053L14.9194 15.3975C17.3148 15.8109 19.874 15.094 21.7285 13.2395C21.8217 13.1463 21.912 13.0513 21.9995 12.9547C21.9928 17.0392 21.8976 19.1734 20.5355 20.5355C19.0711 22 16.714 22 12 22C7.28595 22 4.92893 22 3.46447 20.5355C2 19.0711 2 16.714 2 12C2 7.28594 2 4.92892 3.46447 3.46445C4.82655 2.10237 6.96075 2.00715 11.0454 2.00049C10.9487 2.08797 10.8537 2.17832 10.7605 2.27153C8.906 4.126 8.18914 6.6852 8.60254 9.08065L5.94704 11.7361C5.2525 12.4307 4.91133 13.4033 5.0198 14.3795L5.21319 16.12C5.28396 16.7569 5.56939 17.3508 6.02253 17.804L6.19604 17.9775C6.64919 18.4306 7.24309 18.716 7.88 18.7868L9.62048 18.9802Z" fill="#1C274C"/>
<path fill-rule="evenodd" clip-rule="evenodd" d="M21.9626 8.41231C21.8202 9.65939 21.2708 10.8688 20.3143 11.8253C18.8218 13.3178 16.7136 13.8192 14.8074 13.3297C14.5 13.2508 14.1677 13.3207 13.9433 13.5451L12.4136 15.0748L12.4107 15.0719L10.9532 13.6303C10.6587 13.339 10.1838 13.3417 9.89256 13.6362C9.60128 13.9307 9.60389 14.4055 9.89839 14.6968L11.3529 16.1354L10.8496 16.6387C10.5847 16.9037 10.2137 17.0338 9.84135 16.9924L8.10086 16.799C7.9153 16.7784 7.74228 16.6953 7.61026 16.5633L7.43675 16.3897C7.30473 16.2577 7.22157 16.0847 7.20095 15.8991L7.00756 14.1587C6.96619 13.7863 7.09633 13.4153 7.36126 13.1504L10.4547 10.0569C10.6791 9.8325 10.7492 9.50002 10.6703 9.19258C10.1808 7.28637 10.6822 5.1782 12.1747 3.68575C13.1312 2.72922 14.3407 2.17975 15.5878 2.03735C16.4945 2.07067 17.2684 2.13372 17.9361 2.253C18.8063 2.51971 19.6258 2.9973 20.3143 3.68575C21.0027 4.37418 21.4803 5.19362 21.747 6.06382C21.8663 6.73152 21.9293 7.50552 21.9626 8.41231ZM14.9882 6.65489C15.639 6.00402 16.6943 6.00402 17.3452 6.65489C17.9961 7.30576 17.9961 8.36104 17.3452 9.01191C16.6943 9.66279 15.639 9.66279 14.9882 9.01191C14.3373 8.36104 14.3373 7.30576 14.9882 6.65489Z" fill="#1C274C"/>
</g>
</g>
</svg>
