<svg width="24" height="24" viewBox="0 0 24 24" fill="none" xmlns="http://www.w3.org/2000/svg">
<g id="Bold / Nature, Travel / Leaf">
<g id="Vector">
<path d="M11.25 2.08258C11.0066 2.13684 10.7675 2.21782 10.5371 2.32554C6.55332 4.18758 4 9.39452 4 13.8567C4 18.0967 7.18341 21.5798 11.25 21.9647V2.08258Z" fill="#1C274C"/>
<path d="M12.75 21.9647C16.8166 21.5798 20 18.0967 20 13.8567C20 13.4507 19.9789 13.0385 19.9374 12.6232L12.75 19.8106V21.9647Z" fill="#1C274C"/>
<path d="M18.2597 7.17964C17.8707 6.45482 17.4222 5.76815 16.92 5.14068L12.75 9.31065V12.6893L18.2597 7.17964Z" fill="#1C274C"/>
<path d="M15.9084 4.03088C15.1732 3.32565 14.3538 2.74195 13.4629 2.32554C13.2325 2.21782 12.9934 2.13684 12.75 2.08258V7.18933L15.9084 4.03088Z" fill="#1C274C"/>
<path d="M18.9364 8.62421L12.75 14.8106V17.6893L19.5 10.9393L19.6319 10.8074C19.458 10.0697 19.2246 9.33633 18.9364 8.62421Z" fill="#1C274C"/>
</g>
</g>
</svg>
