<svg width="24" height="24" viewBox="0 0 24 24" fill="none" xmlns="http://www.w3.org/2000/svg">
<g id="Bold Duotone / Text Formatting / Link Broken">
<g id="Union" opacity="0.5">
<path d="M19.99 3.99115C18.4373 2.46996 16.3087 2.41193 15.2253 3.4733L11.5252 7.09827C11.2294 7.38815 10.7545 7.38328 10.4646 7.0874C10.1748 6.79152 10.1796 6.31667 10.4755 6.02679L14.1756 2.40182C16.0115 0.603153 19.0893 1.00883 21.0397 2.91967C22.9928 4.8332 23.4181 7.87522 21.5683 9.68753L18.6611 12.5357C18.3652 12.8256 17.8904 12.8208 17.6005 12.5249C17.3106 12.229 17.3155 11.7542 17.6113 11.4643L20.5185 8.61605C21.588 7.56832 21.5399 5.50967 19.99 3.99115Z" fill="#1C274C"/>
<path d="M6.72792 12.506C7.00738 12.2003 6.98606 11.7259 6.68032 11.4464C6.37457 11.167 5.90018 11.1883 5.62073 11.494L4.35987 12.8735C2.63303 14.7628 3.01021 17.9268 4.86421 19.9552C6.72938 21.9958 9.73466 22.4595 11.5192 20.507L15.554 16.0926C15.8334 15.7869 15.8121 15.3125 15.5064 15.033C15.2006 14.7536 14.7262 14.7749 14.4468 15.0806L10.412 19.495C9.41116 20.59 7.44876 20.5596 5.97141 18.9432C4.4829 17.3147 4.40847 15.0437 5.46706 13.8855L6.72792 12.506Z" fill="#1C274C"/>
</g>
<g id="Union_2">
<path d="M6.62424 3.58393C6.39448 3.23929 5.92882 3.14616 5.58418 3.37592C5.23953 3.60568 5.1464 4.07134 5.37617 4.41598L7.37617 7.41598C7.60593 7.76063 8.07158 7.85376 8.41623 7.624C8.76088 7.39423 8.85401 6.92858 8.62424 6.58393L6.62424 3.58393Z" fill="#1C274C"/>
<path d="M2.23737 7.28845C1.84442 7.15746 1.41968 7.36983 1.28869 7.76279C1.15771 8.15574 1.37008 8.58048 1.76303 8.71147L7.76303 10.7115C8.15599 10.8425 8.58073 10.6301 8.71172 10.2371C8.8427 9.84417 8.63033 9.41943 8.23737 9.28845L2.23737 7.28845Z" fill="#1C274C"/>
</g>
</g>
</svg>
