<svg width="24" height="24" viewBox="0 0 24 24" fill="none" xmlns="http://www.w3.org/2000/svg">
<g id="Bold / Text Formatting / Link Broken">
<g id="Union">
<path d="M19.9898 3.99115C18.4371 2.46996 16.3085 2.41193 15.2251 3.4733L11.5251 7.09827C11.2292 7.38815 10.7543 7.38328 10.4645 7.0874C10.1746 6.79152 10.1795 6.31667 10.4753 6.02679L14.1754 2.40182C16.0113 0.603153 19.0891 1.00883 21.0395 2.91967C22.9927 4.8332 23.4179 7.87522 21.5681 9.68753L18.6609 12.5357C18.365 12.8256 17.8902 12.8208 17.6003 12.5249C17.3104 12.229 17.3153 11.7542 17.6112 11.4643L20.5184 8.61605C21.5878 7.56832 21.5398 5.50967 19.9898 3.99115Z" fill="#1C274C"/>
<path d="M6.62424 3.58399C6.39448 3.23934 5.92882 3.14621 5.58418 3.37597C5.23953 3.60574 5.1464 4.07139 5.37617 4.41604L7.37617 7.41604C7.60593 7.76068 8.07158 7.85381 8.41623 7.62405C8.76088 7.39429 8.85401 6.92863 8.62424 6.58399L6.62424 3.58399Z" fill="#1C274C"/>
<path d="M2.23737 7.2885C1.84442 7.15751 1.41968 7.36988 1.28869 7.76284C1.15771 8.1558 1.37008 8.58054 1.76303 8.71152L7.76303 10.7115C8.15599 10.8425 8.58073 10.6301 8.71172 10.2372C8.8427 9.84422 8.63033 9.41949 8.23737 9.2885L2.23737 7.2885Z" fill="#1C274C"/>
<path d="M6.72775 12.506C7.00721 12.2003 6.98589 11.7259 6.68015 11.4464C6.37441 11.167 5.90001 11.1883 5.62056 11.494L4.3597 12.8735C2.63286 14.7628 3.01004 17.9268 4.86404 19.9552C6.72921 21.9958 9.73449 22.4595 11.5191 20.507L15.5538 16.0926C15.8333 15.7869 15.8119 15.3125 15.5062 15.033C15.2004 14.7536 14.7261 14.7749 14.4466 15.0806L10.4119 19.495C9.41099 20.59 7.44859 20.5596 5.97124 18.9432C4.48273 17.3147 4.4083 15.0437 5.4669 13.8855L6.72775 12.506Z" fill="#1C274C"/>
</g>
</g>
</svg>
