<svg width="24" height="24" viewBox="0 0 24 24" fill="none" xmlns="http://www.w3.org/2000/svg">
<g id="Bold Duotone / Map &#38; Location / Map Arrow Left">
<path id="Subtract" d="M9.85663 15.9621C9.72926 16.2169 9.84009 16.5264 10.1002 16.6424L19.5019 20.835C20.9977 21.5021 22.5493 20.0209 21.8084 18.6331L18.6563 12.7294C18.4112 12.2702 18.4112 11.7298 18.6563 11.2706L21.8084 5.36689C22.5493 3.97914 20.9977 2.49789 19.5019 3.16496L15.9776 4.73662C15.5547 4.9252 15.2104 5.25466 15.0033 5.6688L9.85663 15.9621Z" fill="#1C274C"/>
<path id="Subtract_2" opacity="0.5" d="M8.46623 15.3904C8.34658 15.6297 8.05974 15.7324 7.81538 15.6235L2.99281 13.4728C1.66906 12.8825 1.66906 11.1181 2.99281 10.5278L11.8905 6.55983C12.3193 6.36864 12.7513 6.82023 12.5414 7.24008L8.46623 15.3904Z" fill="#1C274C"/>
</g>
</svg>
