<svg width="24" height="24" viewBox="0 0 24 24" fill="none" xmlns="http://www.w3.org/2000/svg">
<g id="Linear / Essentional, UI / Masks">
<path id="Vector" d="M16.7582 12.6766L15.9131 9.37926C15.4725 7.66038 15.2522 6.80094 14.677 6.36888C14.4841 6.22403 14.268 6.11656 14.0388 6.05159C13.3551 5.85777 12.5782 6.22163 11.0242 6.94934C9.87347 7.48822 9.29811 7.75765 8.69774 7.94822C8.48901 8.01448 8.27824 8.07352 8.06578 8.12524C7.4547 8.27402 6.82756 8.34142 5.57328 8.47622C3.87945 8.65827 3.03253 8.74929 2.53319 9.27447C2.36579 9.45054 2.22999 9.6566 2.13226 9.88284C1.84073 10.5577 2.06102 11.4171 2.50159 13.136L3.34673 16.4334C4.34019 20.3093 7.64328 21.5286 9.86292 21.9058C10.5401 22.0208 10.8787 22.0784 11.907 21.7903C12.9353 21.5023 13.201 21.2755 13.7324 20.8219C15.4742 19.335 17.7517 16.5526 16.7582 12.6766Z" stroke="#1C274C" stroke-width="1.5"/>
<path id="Vector_2" d="M16.4998 17.221C18.2409 16.4706 19.9788 15.0638 20.6531 12.4334L21.4982 9.13602C21.9388 7.41713 22.1591 6.55769 21.8675 5.88284C21.7698 5.6566 21.634 5.45054 21.4666 5.27447C20.9673 4.74929 20.1203 4.65827 18.4265 4.47622C17.1722 4.34142 16.5451 4.27402 15.934 4.12524C15.7215 4.07352 15.5108 4.01448 15.302 3.94822C14.7017 3.75765 14.1263 3.48822 12.9756 2.94934C11.4216 2.22163 10.6446 1.85777 9.96101 2.05159C9.73183 2.11656 9.51567 2.22403 9.32283 2.36888C8.74759 2.80094 8.5273 3.66038 8.08673 5.37926L7.38721 8.10846" stroke="#1C274C" stroke-width="1.5"/>
<path id="Vector_3" d="M5.25882 13.2955C5.31893 12.6763 5.77997 12.1206 6.44889 11.9414C7.11781 11.7621 7.79491 12.0128 8.1566 12.5191" stroke="#1C274C" stroke-width="1.5" stroke-linecap="round"/>
<path id="Vector_4" d="M19.1797 8.93565C19.1195 8.3164 18.6585 7.76073 17.9896 7.5815C17.3207 7.40226 16.6436 7.65296 16.2819 8.1592" stroke="#1C274C" stroke-width="1.5" stroke-linecap="round"/>
<path id="Vector_5" d="M11.0547 11.7423C11.1148 11.123 11.5759 10.5674 12.2448 10.3881C12.9137 10.2089 13.5908 10.4596 13.9525 10.9658" stroke="#1C274C" stroke-width="1.5" stroke-linecap="round"/>
<path id="Vector_6" d="M11.096 7.04186C10.8552 7.37889 10.3868 7.4569 10.0498 7.21611C9.71275 6.97531 9.63474 6.50689 9.87554 6.16986L11.096 7.04186ZM11.9994 6.75261C11.6207 6.65113 11.2689 6.79987 11.096 7.04186L9.87554 6.16986C10.426 5.39938 11.4285 5.04672 12.3876 5.30372L11.9994 6.75261ZM12.4779 7.06543C12.3673 6.92277 12.2038 6.80739 11.9994 6.75261L12.3876 5.30372C12.9122 5.44427 13.3543 5.74776 13.6633 6.14629L12.4779 7.06543Z" fill="#1C274C"/>
<path id="Vector_7" d="M13.2007 16.231C13.2007 16.231 12.1758 15.4703 10.3884 15.9492C8.60094 16.4282 8.09372 17.5994 8.09372 17.5994" stroke="#1C274C" stroke-width="1.5" stroke-linecap="round"/>
</g>
</svg>
