<svg width="24" height="24" viewBox="0 0 24 24" fill="none" xmlns="http://www.w3.org/2000/svg">
<g id="Bold Duotone / Arrows Action / Minimize Square ">
<path id="Vector" opacity="0.5" d="M2 12C2 7.28595 2 4.92893 3.46447 3.46447C4.92893 2 7.28595 2 12 2C16.714 2 19.0711 2 20.5355 3.46447C22 4.92893 22 7.28595 22 12C22 16.714 22 19.0711 20.5355 20.5355C19.0711 22 16.714 22 12 22C7.28595 22 4.92893 22 3.46447 20.5355C2 19.0711 2 16.714 2 12Z" fill="#1C274C"/>
<path id="Vector_2" d="M19.9517 2.98755C20.1616 3.12613 20.3553 3.28415 20.5355 3.46435C20.7157 3.64455 20.8738 3.83826 21.0123 4.04821L15.8107 9.24988H17.75C18.1642 9.24988 18.5 9.58567 18.5 9.99988C18.5 10.4141 18.1642 10.7499 17.75 10.7499H14C13.5858 10.7499 13.25 10.4141 13.25 9.99988V6.24988C13.25 5.83567 13.5858 5.49988 14 5.49988C14.4142 5.49988 14.75 5.83567 14.75 6.24988V8.18922L19.9517 2.98755Z" fill="#1C274C"/>
<path id="Vector_3" d="M4.04845 21.0123C3.8385 20.8738 3.64479 20.7157 3.46459 20.5355C3.2844 20.3553 3.12637 20.1616 2.98779 19.9517L8.18947 14.75H6.25013C5.83591 14.75 5.50013 14.4142 5.50013 14C5.50013 13.5858 5.83591 13.25 6.25013 13.25H10.0001C10.4143 13.25 10.7501 13.5858 10.7501 14V17.75C10.7501 18.1642 10.4143 18.5 10.0001 18.5C9.58591 18.5 9.25013 18.1642 9.25013 17.75V15.8107L4.04845 21.0123Z" fill="#1C274C"/>
</g>
</svg>
