<svg width="24" height="24" viewBox="0 0 24 24" fill="none" xmlns="http://www.w3.org/2000/svg">
<g id="Outline / Home, Furniture / Mirror">
<path id="Vector" fill-rule="evenodd" clip-rule="evenodd" d="M12 2.75C9.24807 2.75 6.75004 5.60725 6.75004 9.5C6.75004 13.3927 9.24807 16.25 12 16.25C14.752 16.25 17.25 13.3927 17.25 9.5C17.25 5.60725 14.752 2.75 12 2.75ZM5.27434 8.80174C5.55981 4.7075 8.33149 1.25 12 1.25C15.6686 1.25 18.4403 4.7075 18.7258 8.80174C18.8107 8.76834 18.9032 8.75 19 8.75C19.4143 8.75 19.75 9.08579 19.75 9.5V19C19.75 19.4868 19.9079 19.9605 20.2 20.35L21.1 21.55C21.3486 21.8814 21.2814 22.3515 20.95 22.6C20.6187 22.8485 20.1486 22.7814 19.9 22.45L19 21.25C18.8809 21.0912 18.7752 20.9239 18.6834 20.75H5.31667C5.22491 20.9239 5.11917 21.0912 5.00004 21.25L4.10004 22.45C3.85152 22.7814 3.38142 22.8485 3.05004 22.6C2.71867 22.3515 2.65152 21.8814 2.90004 21.55L3.80004 20.35C4.09214 19.9605 4.25004 19.4868 4.25004 19V9.5C4.25004 9.08579 4.58583 8.75 5.00004 8.75C5.09685 8.75 5.18938 8.76834 5.27434 8.80174ZM5.75004 12.6128V19C5.75004 19.0836 5.74725 19.167 5.7417 19.25H18.2584C18.2528 19.167 18.25 19.0836 18.25 19V12.6128C17.2656 15.5653 14.9162 17.75 12 17.75C9.08392 17.75 6.7345 15.5653 5.75004 12.6128ZM12.3374 4.90475C12.5314 4.53879 12.9854 4.3994 13.3514 4.59343C14.5943 5.25242 15.4174 6.73578 15.6673 8.38804C15.7292 8.7976 15.4474 9.17982 15.0379 9.24177C14.6283 9.30371 14.2461 9.02191 14.1842 8.61236C13.9767 7.24078 13.3274 6.27852 12.6487 5.91869C12.2828 5.72467 12.1434 5.27071 12.3374 4.90475Z" fill="#1C274C"/>
</g>
</svg>
