<svg width="24" height="24" viewBox="0 0 24 24" fill="none" xmlns="http://www.w3.org/2000/svg">
<g id="Outline / Video, Audio, Sound / Music Library ">
<g id="Vector">
<path fill-rule="evenodd" clip-rule="evenodd" d="M8.69935 1.25001C8.71303 1.25001 8.72691 1.25001 8.74099 1.25001H15.2588C15.2729 1.25001 15.2867 1.25001 15.3004 1.25001C15.5203 1.24995 15.6888 1.2499 15.8362 1.26571C17.1903 1.41104 18.2268 2.52303 18.2897 3.87005C19.5325 4.24105 20.4025 5.4249 20.3417 6.75733C20.7401 6.93708 21.093 7.18505 21.3948 7.5298C22.0112 8.23385 22.1994 9.09539 22.2067 10.1006C22.2136 11.0723 22.0497 12.3015 21.8454 13.8337L21.4309 16.9422C21.2712 18.1401 21.142 19.1096 20.941 19.8688C20.7319 20.659 20.423 21.3141 19.8436 21.8215C19.2641 22.3288 18.5739 22.5483 17.763 22.6512C16.9839 22.75 16.0058 22.75 14.7974 22.75H9.20247C7.99402 22.75 7.01592 22.75 6.23686 22.6512C5.42593 22.5483 4.73571 22.3288 4.15625 21.8215C3.57679 21.3141 3.26798 20.659 3.05881 19.8688C2.85786 19.1096 2.72861 18.1401 2.56891 16.9422L2.15444 13.8337C1.95013 12.3015 1.78621 11.0723 1.79318 10.1006C1.8004 9.09539 1.98862 8.23385 2.60503 7.5298C2.90691 7.18499 3.25982 6.93699 3.6583 6.75723C3.5976 5.42494 4.46745 4.24123 5.71005 3.87014C5.77292 2.52308 6.80941 1.41104 8.16359 1.26571C8.31094 1.2499 8.4795 1.24995 8.69935 1.25001ZM7.2321 3.75001H16.7677C16.6611 3.22633 16.2263 2.8162 15.6761 2.75715C15.6198 2.75111 15.5396 2.75001 15.2588 2.75001H8.74099C8.46013 2.75001 8.37993 2.75111 8.32365 2.75715C7.77345 2.8162 7.33862 3.22633 7.2321 3.75001ZM5.18094 6.36743C6.12326 6.24998 7.31966 6.24999 8.7941 6.25001H15.2057C16.6803 6.24999 17.8768 6.24998 18.8191 6.36746C18.697 5.74075 18.1453 5.25001 17.4619 5.25001H6.53812C5.85475 5.25001 5.30303 5.74073 5.18094 6.36743ZM5.25493 7.87068C4.43054 7.98663 4.01357 8.19811 3.7336 8.51788C3.45363 8.83766 3.29912 9.27892 3.29314 10.1114C3.28702 10.9652 3.43518 12.0897 3.64907 13.6939L4.04907 16.6939C4.21706 17.9538 4.33511 18.8285 4.50887 19.4849C4.67721 20.1209 4.87533 20.4574 5.14434 20.6929C5.41335 20.9284 5.77307 21.0803 6.42568 21.1631C7.09932 21.2486 7.98194 21.25 9.25302 21.25H14.7468C16.0179 21.25 16.9005 21.2486 17.5742 21.1631C18.2268 21.0803 18.5865 20.9284 18.8555 20.6929C19.1245 20.4574 19.3226 20.1209 19.491 19.4849C19.6647 18.8285 19.7828 17.9538 19.9508 16.6939L20.3508 13.6939C20.5647 12.0897 20.7128 10.9652 20.7067 10.1114C20.7007 9.27892 20.5462 8.83766 20.2662 8.51788C19.9863 8.19811 19.5693 7.98663 18.7449 7.87068C17.8994 7.75177 16.7652 7.75001 15.1468 7.75001H8.85302C7.23464 7.75001 6.10042 7.75177 5.25493 7.87068Z" fill="#1C274C"/>
<path fill-rule="evenodd" clip-rule="evenodd" d="M12.7555 11.7589C12.7552 11.7639 12.7549 11.7693 12.7546 11.7753C12.7502 11.8568 12.75 11.9692 12.75 12.1586C12.75 12.2399 12.7501 12.2815 12.7512 12.3117L12.7528 12.3128C12.7797 12.3274 12.8172 12.3461 12.8902 12.3825L13.8778 12.8737C14.048 12.9583 14.1495 13.0085 14.2249 13.0413C14.2322 13.0444 14.2387 13.0472 14.2445 13.0495C14.2448 13.0446 14.2451 13.0391 14.2454 13.0332C14.2497 12.9517 14.25 12.8392 14.25 12.6498C14.25 12.5686 14.2499 12.527 14.2488 12.4967L14.2472 12.4957C14.2203 12.4811 14.1828 12.4623 14.1097 12.426L13.1222 11.9348C12.952 11.8501 12.8505 11.7999 12.7751 11.7672C12.7678 11.7641 12.7613 11.7613 12.7555 11.7589ZM12.75 13.988L13.2253 14.2244C13.3748 14.2988 13.5121 14.3671 13.6281 14.4174C13.7464 14.4687 13.9005 14.5279 14.0766 14.5484C14.765 14.6283 15.4218 14.2269 15.6599 13.573C15.7208 13.4057 15.7366 13.2408 15.7433 13.1124C15.75 12.9863 15.75 12.8334 15.75 12.6673L15.75 12.6498C15.75 12.6394 15.75 12.6286 15.75 12.6176C15.7503 12.5004 15.7506 12.3533 15.7231 12.2103C15.6535 11.8483 15.4525 11.5254 15.1596 11.3026C15.044 11.2147 14.9124 11.1496 14.8068 11.0974C14.7969 11.0924 14.7872 11.0877 14.7778 11.083L13.7747 10.584C13.6252 10.5097 13.4879 10.4414 13.3718 10.391C13.2536 10.3397 13.0994 10.2805 12.9233 10.2601C12.235 10.1802 11.5782 10.5815 11.3401 11.2355C11.2792 11.4027 11.2634 11.5676 11.2566 11.6961C11.2515 11.7937 11.2503 11.9075 11.2501 12.031L11.25 12.1073C11.25 12.1186 11.25 12.1298 11.25 12.1412V12.1586C11.25 12.1691 11.25 12.1799 11.2499 12.1909C11.2499 12.2138 11.2498 12.2378 11.25 12.2628V14.3932C11.0152 14.3105 10.7627 14.2655 10.5 14.2655C9.26103 14.2655 8.25 15.2658 8.25 16.5078C8.25 17.7498 9.26103 18.75 10.5 18.75C11.739 18.75 12.75 17.7498 12.75 16.5078V13.988ZM11.25 16.5078C11.25 16.1015 10.9179 15.7655 10.5 15.7655C10.0821 15.7655 9.75 16.1015 9.75 16.5078C9.75 16.914 10.0821 17.25 10.5 17.25C10.9179 17.25 11.25 16.914 11.25 16.5078Z" fill="#1C274C"/>
</g>
</g>
</svg>
