<svg width="24" height="24" viewBox="0 0 24 24" fill="none" xmlns="http://www.w3.org/2000/svg">
<g id="Line Duotone / Video, Audio, Sound / Music Library ">
<path id="Vector" d="M2.90565 13.793C2.48385 10.6294 2.27294 9.04765 3.16932 8.02383C4.0657 7 5.66147 7 8.85302 7H15.1468C18.3384 7 19.9341 7 20.8305 8.02383C21.7269 9.04765 21.516 10.6294 21.0942 13.793L20.6942 16.793C20.3634 19.2739 20.198 20.5143 19.3495 21.2572C18.5011 22 17.2497 22 14.7468 22H9.25302C6.75018 22 5.49877 22 4.6503 21.2572C3.80183 20.5143 3.63644 19.2739 3.30565 16.793L2.90565 13.793Z" stroke="#1C274C" stroke-width="1.5"/>
<path id="Vector_2" opacity="0.5" d="M19.562 7C19.7906 5.69523 18.7866 4.5 17.4619 4.5H6.53812C5.21347 4.5 4.20946 5.69523 4.43809 7M17.4999 4.5C17.5283 4.24092 17.5425 4.11135 17.5427 4.00435C17.545 2.98072 16.7739 2.12064 15.7561 2.01142C15.6497 2 15.5194 2 15.2588 2H8.74099C8.48035 2 8.35002 2 8.24362 2.01142C7.22584 2.12064 6.45481 2.98072 6.45704 4.00434C6.45727 4.11135 6.47146 4.2409 6.49983 4.5" stroke="#1C274C" stroke-width="1.5"/>
<path id="Vector_3" d="M12.5606 12.6993L12.2076 13.361L12.2076 13.361L12.5606 12.6993ZM13.4429 13.1699L13.7958 12.5081V12.5081L13.4429 13.1699ZM14.4394 11.3014L14.7924 10.6396L14.7924 10.6396L14.4394 11.3014ZM13.5571 10.8308L13.91 10.169L13.91 10.169L13.5571 10.8308ZM12.0018 11.6064L12.7505 11.6518V11.6518L12.0018 11.6064ZM13.4163 10.7577L13.1041 11.4397L13.1041 11.4397L13.4163 10.7577ZM14.9995 12.1685L15.7491 12.1447V12.1447L14.9995 12.1685ZM14.4984 11.3334L14.8722 10.6832L14.8722 10.6832L14.4984 11.3334ZM13.5837 13.2429L13.8959 12.561L13.8959 12.561L13.5837 13.2429ZM14.9982 12.3942L14.2495 12.3488V12.3488L14.9982 12.3942ZM12.5016 12.6673L12.1278 13.3175L12.1278 13.3175L12.5016 12.6673ZM12.0005 11.8321L11.2509 11.8559V11.8559L12.0005 11.8321ZM11.25 16.5003C11.25 16.9145 10.9142 17.2503 10.5 17.2503V18.7503C11.7426 18.7503 12.75 17.743 12.75 16.5003H11.25ZM10.5 17.2503C10.0858 17.2503 9.75 16.9145 9.75 16.5003H8.25C8.25 17.743 9.25736 18.7503 10.5 18.7503V17.2503ZM9.75 16.5003C9.75 16.0861 10.0858 15.7503 10.5 15.7503V14.2503C9.25736 14.2503 8.25 15.2577 8.25 16.5003H9.75ZM10.5 15.7503C10.9142 15.7503 11.25 16.0861 11.25 16.5003H12.75C12.75 15.2577 11.7426 14.2503 10.5 14.2503V15.7503ZM12.75 16.5003V12.0003H11.25V16.5003H12.75ZM12.2076 13.361L13.09 13.8316L13.7958 12.5081L12.9135 12.0375L12.2076 13.361ZM14.7924 10.6396L13.91 10.169L13.2042 11.4925L14.0865 11.9631L14.7924 10.6396ZM12.75 11.765C12.75 11.7208 12.75 11.6928 12.7502 11.6718C12.7504 11.6503 12.7507 11.6474 12.7505 11.6518L11.2532 11.561C11.2496 11.6201 11.25 11.6929 11.25 11.765H12.75ZM13.91 10.169C13.8464 10.1351 13.7824 10.1005 13.7285 10.0758L13.1041 11.4397C13.1 11.4378 13.1027 11.4389 13.1218 11.4488C13.1404 11.4585 13.1652 11.4717 13.2042 11.4925L13.91 10.169ZM12.7505 11.6518C12.7611 11.4766 12.9444 11.3666 13.1041 11.4397L13.7285 10.0758C12.6108 9.5641 11.3277 10.334 11.2532 11.561L12.7505 11.6518ZM15.75 12.2356C15.75 12.2065 15.7501 12.1753 15.7491 12.1447L14.2499 12.1924C14.2498 12.1915 14.2499 12.1928 14.25 12.1997C14.25 12.2075 14.25 12.2177 14.25 12.2356H15.75ZM14.0865 11.9631C14.1023 11.9716 14.1113 11.9764 14.1181 11.98C14.1243 11.9834 14.1253 11.984 14.1246 11.9836L14.8722 10.6832C14.8456 10.6679 14.8181 10.6533 14.7924 10.6396L14.0865 11.9631ZM15.7491 12.1447C15.7298 11.5385 15.398 10.9855 14.8722 10.6832L14.1246 11.9836C14.1997 12.0268 14.2471 12.1058 14.2499 12.1924L15.7491 12.1447ZM13.09 13.8316C13.1536 13.8656 13.2176 13.9002 13.2715 13.9248L13.8959 12.561C13.9 12.5628 13.8973 12.5617 13.8782 12.5518C13.8596 12.5421 13.8348 12.5289 13.7958 12.5081L13.09 13.8316ZM14.25 12.2356C14.25 12.2798 14.25 12.3079 14.2498 12.3288C14.2496 12.3503 14.2493 12.3533 14.2495 12.3488L15.7468 12.4397C15.7504 12.3805 15.75 12.3077 15.75 12.2356H14.25ZM13.2715 13.9248C14.3892 14.4365 15.6723 13.6667 15.7468 12.4397L14.2495 12.3488C14.2389 12.5241 14.0556 12.6341 13.8959 12.561L13.2715 13.9248ZM12.9135 12.0375C12.8977 12.0291 12.8887 12.0243 12.8819 12.0206C12.8757 12.0173 12.8746 12.0166 12.8754 12.0171L12.1278 13.3175C12.1544 13.3328 12.1819 13.3474 12.2076 13.361L12.9135 12.0375ZM11.25 11.765C11.25 11.7941 11.2499 11.8253 11.2509 11.8559L12.7501 11.8083C12.7502 11.8091 12.7501 11.8079 12.75 11.8009C12.75 11.7931 12.75 11.783 12.75 11.765H11.25ZM12.8754 12.0171C12.8003 11.9739 12.7529 11.8949 12.7501 11.8083L11.2509 11.8559C11.2702 12.4622 11.602 13.0152 12.1278 13.3175L12.8754 12.0171Z" fill="#1C274C"/>
</g>
</svg>
