<svg width="24" height="24" viewBox="0 0 24 24" fill="none" xmlns="http://www.w3.org/2000/svg">
<g id="Outline / Business, Statistic / Pie Chart 3">
<g id="Vector">
<path fill-rule="evenodd" clip-rule="evenodd" d="M11.5195 1.86795C10.9156 1.46761 10.3263 1.35183 9.67724 1.45583C9.1236 1.54455 8.52424 1.79812 7.88107 2.07022L7.81371 2.09871C7.19223 2.36147 6.59398 2.68338 6.02762 3.0618C4.2598 4.24303 2.88194 5.92195 2.0683 7.88625C1.25466 9.85056 1.04177 12.012 1.45656 14.0973C1.87135 16.1826 2.89519 18.0981 4.39861 19.6015C5.90202 21.1049 7.81749 22.1287 9.90278 22.5435C11.9881 22.9583 14.1495 22.7454 16.1138 21.9318C18.0782 21.1182 19.7571 19.7403 20.9383 17.9725C21.3167 17.4061 21.6386 16.8079 21.9014 16.1864L21.9299 16.1191C22.202 15.4759 22.4555 14.8765 22.5443 14.3229C22.6483 13.6738 22.5325 13.0845 22.1322 12.4806C21.7022 11.8321 21.1171 11.5185 20.4065 11.3765C19.7731 11.2499 18.9813 11.25 18.0711 11.2501L16 11.2501C15.036 11.2501 14.3884 11.2485 13.9054 11.1836C13.4439 11.1215 13.2464 11.0143 13.1161 10.884C12.9858 10.7537 12.8786 10.5562 12.8165 10.0947C12.7516 9.61167 12.75 8.96411 12.75 8.0001L12.75 5.92901C12.7501 5.01878 12.7502 4.22701 12.6236 3.59364C12.4816 2.88305 12.168 2.29786 11.5195 1.86795ZM8.39784 3.4803C9.13201 3.1699 9.56231 2.99338 9.91457 2.93694C10.1907 2.89269 10.3996 2.92526 10.6907 3.11818C10.9371 3.28153 11.0709 3.47861 11.1527 3.88759C11.2466 4.35736 11.25 4.99772 11.25 6.0001L11.25 8.05209C11.25 8.95056 11.2499 9.6998 11.3299 10.2946C11.4143 10.9224 11.6 11.4892 12.0555 11.9446C12.5109 12.4001 13.0777 12.5858 13.7055 12.6702C14.3003 12.7502 15.0495 12.7501 15.948 12.7501L18 12.7501C19.0024 12.7501 19.6427 12.7535 20.1125 12.8474C20.5215 12.9292 20.7186 13.063 20.8819 13.3094C21.0748 13.6005 21.1074 13.8094 21.0632 14.0855C21.0067 14.4378 20.8302 14.8681 20.5198 15.6023C20.2937 16.137 20.0167 16.6518 19.6911 17.1391C18.6747 18.6603 17.23 19.8459 15.5398 20.546C13.8496 21.2461 11.9897 21.4293 10.1954 21.0724C8.40109 20.7154 6.7529 19.8345 5.45927 18.5408C4.16563 17.2472 3.28465 15.599 2.92774 13.8047C2.57083 12.0104 2.75401 10.1505 3.45412 8.46028C4.15423 6.77006 5.33982 5.32541 6.86098 4.30901C7.34832 3.98337 7.86308 3.70639 8.39784 3.4803Z" fill="#1C274C"/>
<path d="M14.6869 1.58859C14.2858 1.48535 13.8769 1.72684 13.7737 2.12798C13.6704 2.52912 13.9119 2.938 14.3131 3.04125C17.5624 3.87758 20.1223 6.43743 20.9586 9.68682C21.0619 10.088 21.4708 10.3295 21.8719 10.2262C22.273 10.123 22.5145 9.71407 22.4113 9.31293C21.4387 5.53429 18.4656 2.56115 14.6869 1.58859Z" fill="#1C274C"/>
</g>
</g>
</svg>
