<svg width="24" height="24" viewBox="0 0 24 24" fill="none" xmlns="http://www.w3.org/2000/svg">
<g id="Bold Duotone / Medicine / Pill">
<path id="Vector" opacity="0.5" d="M3.99057 13.6019C1.33648 10.9478 1.33648 6.64466 3.99057 3.99057C6.64466 1.33648 10.9478 1.33648 13.6019 3.99057L20.0094 10.3981C22.6635 13.0522 22.6635 17.3553 20.0094 20.0094C17.3553 22.6635 13.0522 22.6635 10.3981 20.0094L3.99057 13.6019Z" fill="#1C274C"/>
<path id="Vector_2" d="M7.80716 17.4185L6.55371 16.165L7.04923 16.0696C7.04892 16.0696 7.0493 16.0696 7.05022 16.0694L7.06408 16.0664C7.07846 16.0632 7.10306 16.0575 7.13728 16.0489C7.20572 16.0316 7.31261 16.0025 7.45319 15.9576C7.73439 15.8678 8.15013 15.7151 8.66265 15.4681C9.68683 14.9745 11.1003 14.1035 12.6016 12.6021C14.1029 11.1008 14.9741 9.68725 15.4678 8.66293C15.7148 8.15034 15.8677 7.73453 15.9575 7.45328C16.0024 7.31267 16.0316 7.20575 16.0488 7.13729C16.0575 7.10306 16.0631 7.07846 16.0663 7.06407L16.0693 7.05024C16.0695 7.04933 16.0696 7.0489 16.0695 7.04921L16.165 6.55371L17.4184 7.80709C17.4085 7.83975 17.3978 7.87396 17.3864 7.90968C17.2769 8.25238 17.0988 8.73377 16.819 9.31418C16.2591 10.4759 15.2936 12.0315 13.6623 13.6628C12.0309 15.2941 10.4754 16.2596 9.31384 16.8194C8.73348 17.099 8.25214 17.2771 7.90946 17.3866C7.87385 17.3979 7.83974 17.4086 7.80716 17.4185Z" fill="#1C274C"/>
</g>
</svg>
