<svg width="24" height="24" viewBox="0 0 24 24" fill="none" xmlns="http://www.w3.org/2000/svg">
<g id="Outline / Medicine / Pills 3">
<g id="Vector">
<path fill-rule="evenodd" clip-rule="evenodd" d="M19.5303 2.34835C18.0659 0.883883 15.6915 0.883883 14.227 2.34835C13.4949 3.08044 13.1287 4.04145 13.1287 5C13.1287 5.95855 13.4949 6.91956 14.227 7.65165C15.6915 9.11612 18.0659 9.11612 19.5303 7.65165C20.2624 6.91956 20.6287 5.95855 20.6287 5C20.6287 4.04145 20.2624 3.08044 19.5303 2.34835ZM15.2877 3.40901C16.1664 2.53033 17.591 2.53033 18.4697 3.40901C18.9092 3.8485 19.1287 4.42301 19.1287 5C19.1287 5.57699 18.9092 6.1515 18.4697 6.59099C17.591 7.46967 16.1664 7.46967 15.2877 6.59099C14.8482 6.1515 14.6287 5.57699 14.6287 5C14.6287 4.42301 14.8482 3.8485 15.2877 3.40901Z" fill="#1C274C"/>
<path fill-rule="evenodd" clip-rule="evenodd" d="M10.2123 5.78745C8.16206 3.73719 4.83794 3.73719 2.78769 5.78745C1.76271 6.81242 1.25 8.15732 1.25 9.49976C1.25 10.8422 1.76271 12.1871 2.78769 13.2121C4.83794 15.2623 8.16206 15.2623 10.2123 13.2121C11.2373 12.1871 11.75 10.8422 11.75 9.49976C11.75 8.15732 11.2373 6.81242 10.2123 5.78745ZM3.84835 6.84811C5.31282 5.38364 7.68718 5.38364 9.15165 6.84811C9.69233 7.38879 10.0333 8.05265 10.1748 8.74976H2.82523C2.96669 8.05265 3.30767 7.38879 3.84835 6.84811ZM2.82523 10.2498H10.1748C10.0333 10.9469 9.69233 11.6107 9.15165 12.1514C7.68718 13.6159 5.31282 13.6159 3.84835 12.1514C3.30767 11.6107 2.96669 10.9469 2.82523 10.2498Z" fill="#1C274C"/>
<path fill-rule="evenodd" clip-rule="evenodd" d="M21.4355 11.5642C19.6829 9.81159 16.8413 9.81159 15.0886 11.5642L11.5645 15.0884C9.81184 16.841 9.81184 19.6826 11.5645 21.4353C13.3171 23.1879 16.1587 23.1879 17.9114 21.4353L21.4355 17.9111C23.1882 16.1585 23.1882 13.3169 21.4355 11.5642ZM16.1493 12.6249C17.3162 11.458 19.208 11.458 20.3749 12.6249C21.5417 13.7918 21.5417 15.6836 20.3749 16.8505L19.0011 18.2242C18.9926 18.2216 18.9838 18.2188 18.9747 18.2159C18.8431 18.1739 18.6426 18.1005 18.3922 17.9799C17.8924 17.739 17.1912 17.3085 16.4413 16.5587C15.6915 15.8088 15.2609 15.1075 15.02 14.6076C14.8993 14.3572 14.8259 14.1566 14.7839 14.0251C14.7809 14.0159 14.7782 14.0071 14.7755 13.9986L16.1493 12.6249ZM13.6196 15.1546C13.6353 15.1887 13.6517 15.2235 13.6688 15.2589C13.9759 15.8962 14.5008 16.7395 15.3807 17.6193C16.2605 18.4992 17.1038 19.024 17.741 19.3311C17.7764 19.3482 17.8111 19.3645 17.8451 19.3802L16.8507 20.3746C15.6839 21.5415 13.792 21.5415 12.6251 20.3746C11.4583 19.2078 11.4583 17.3159 12.6251 16.149L13.6196 15.1546Z" fill="#1C274C"/>
</g>
</g>
</svg>
