<svg width="24" height="24" viewBox="0 0 24 24" fill="none" xmlns="http://www.w3.org/2000/svg">
<g id="Broken / Essentional, UI / Pin">
<path id="Vector" d="M20 10.1219C20.7633 10.9874 21.1056 11.6152 20.9716 12.279C20.7628 13.3127 19.5232 13.8177 17.044 14.8277L14.7188 15.775C14.0351 16.0536 13.6932 16.1929 13.4322 16.433C13.3433 16.5147 13.2622 16.6045 13.1898 16.7011C12.9772 16.9849 12.8731 17.3391 12.6647 18.0475C12.1722 19.7219 11.926 20.5591 11.35 20.8458C11.1626 20.9392 10.9574 20.9915 10.7481 20.9993C10.1052 21.0234 9.4881 20.4063 8.25394 19.1722L4.82783 15.7461C3.59367 14.5119 2.97659 13.8948 3.00068 13.2519C3.00852 13.0426 3.06084 12.8374 3.15416 12.65C3.44088 12.074 4.2781 11.8278 5.95255 11.3353C6.66091 11.1269 7.01509 11.0228 7.2989 10.8102C7.39552 10.7378 7.48527 10.6567 7.56701 10.5678C7.80711 10.3068 7.9464 9.96495 8.22498 9.28115L9.17226 6.95602C10.1823 4.4768 10.6873 3.23719 11.721 3.02845C12.7547 2.8197 13.7012 3.76619 15.5942 5.65917L16.9675 7.03248" stroke="#1C274C" stroke-width="1.5" stroke-linecap="round"/>
<path id="Vector_2" d="M3.00008 20.9336L6.55908 17.3721" stroke="#1C274C" stroke-width="1.5" stroke-linecap="round"/>
</g>
</svg>
