<svg width="24" height="24" viewBox="0 0 24 24" fill="none" xmlns="http://www.w3.org/2000/svg">
<g id="Broken / Essentional, UI / Pin Circle">
<path id="Vector" d="M14.2452 7.82424L14.7755 7.29391V7.29391L14.2452 7.82424ZM16.1758 9.75488L15.6454 10.2852L16.1758 9.75488ZM10.6081 15.4741L10.0777 16.0044L10.6081 15.4741ZM8.52599 13.392L9.05633 12.8617H9.05633L8.52599 13.392ZM15.5124 12.9728L15.7897 13.6696L15.5124 12.9728ZM14.1176 13.5279L13.8402 12.8311H13.8402L14.1176 13.5279ZM10.4721 9.88247L9.7753 9.60513L10.4721 9.88247ZM11.0273 8.48765L11.7241 8.76498H11.7241L11.0273 8.48765ZM9.12166 11.1015L8.91688 10.38H8.91688L9.12166 11.1015ZM9.64707 10.9273L9.31572 10.2545L9.31572 10.2545L9.64707 10.9273ZM10.2453 10.3874L9.60974 9.98909L10.2453 10.3874ZM13.6127 13.7548L14.011 14.3903L14.011 14.3903L13.6127 13.7548ZM12.8985 14.8784L13.62 15.0832L12.8985 14.8784ZM13.0727 14.353L13.7456 14.6844L13.7456 14.6844L13.0727 14.353ZM7.83764 12.5877L7.13952 12.8618L7.13952 12.8618L7.83764 12.5877ZM8.12867 11.4686L8.60483 12.0481L8.60483 12.0481L8.12867 11.4686ZM11.4124 16.1625L11.1383 16.8606H11.1383L11.4124 16.1625ZM12.5315 15.8714L13.1109 16.3476L12.5315 15.8714ZM17.5 11.7052L16.7654 11.5538L16.7654 11.5538L17.5 11.7052ZM12.2948 6.5L12.1434 5.76545H12.1434L12.2948 6.5ZM6.98446 15.9549C6.69156 16.2478 6.69157 16.7227 6.98446 17.0155C7.27736 17.3084 7.75223 17.3084 8.04512 17.0155L6.98446 15.9549ZM10.0973 14.9634C10.3902 14.6705 10.3902 14.1956 10.0973 13.9027C9.80438 13.6098 9.32951 13.6098 9.03662 13.9027L10.0973 14.9634ZM13.7148 8.35456L15.6454 10.2852L16.7061 9.22455L14.7755 7.29391L13.7148 8.35456ZM11.1384 14.9438L9.05633 12.8617L7.99566 13.9223L10.0777 16.0044L11.1384 14.9438ZM15.235 12.276L13.8402 12.8311L14.3949 14.2248L15.7897 13.6696L15.235 12.276ZM11.169 10.1598L11.7241 8.76498L10.3304 8.21031L9.7753 9.60513L11.169 10.1598ZM9.32644 11.823C9.56981 11.7539 9.78288 11.6965 9.97842 11.6002L9.31572 10.2545C9.27102 10.2765 9.2139 10.2957 8.91688 10.38L9.32644 11.823ZM9.7753 9.60513C9.66113 9.892 9.6362 9.94687 9.60974 9.98909L10.8808 10.7856C10.9965 10.601 11.0754 10.3949 11.169 10.1598L9.7753 9.60513ZM9.97842 11.6002C10.349 11.4177 10.6614 11.1356 10.8808 10.7856L9.60974 9.98909C9.53827 10.1031 9.43646 10.195 9.31572 10.2545L9.97842 11.6002ZM13.8402 12.8311C13.6052 12.9247 13.3991 13.0036 13.2144 13.1193L14.011 14.3903C14.0532 14.3639 14.108 14.339 14.3949 14.2248L13.8402 12.8311ZM13.62 15.0832C13.7043 14.7862 13.7235 14.7291 13.7456 14.6844L12.3999 14.0217C12.3036 14.2172 12.2461 14.4303 12.177 14.6737L13.62 15.0832ZM13.2144 13.1193C12.8644 13.3387 12.5824 13.6511 12.3999 14.0217L13.7456 14.6844C13.805 14.5636 13.8969 14.4618 14.011 14.3903L13.2144 13.1193ZM9.05633 12.8617C8.84506 12.6504 8.71106 12.516 8.61821 12.411C8.52305 12.3035 8.52421 12.2842 8.53577 12.3136L7.13952 12.8618C7.22603 13.0821 7.36691 13.2605 7.49495 13.4052C7.6253 13.5525 7.798 13.7247 7.99566 13.9223L9.05633 12.8617ZM8.91688 10.38C8.64797 10.4563 8.41324 10.5226 8.22765 10.5877C8.04535 10.6517 7.83543 10.7388 7.65252 10.8891L8.60483 12.0481C8.58039 12.0681 8.5888 12.0507 8.72429 12.0031C8.85649 11.9567 9.03901 11.9046 9.32644 11.823L8.91688 10.38ZM8.53577 12.3136C8.49881 12.2195 8.5267 12.1123 8.60483 12.0481L7.65252 10.8891C7.07213 11.366 6.865 12.1625 7.13952 12.8618L8.53577 12.3136ZM10.0777 16.0044C10.2754 16.2021 10.4476 16.3748 10.5949 16.5052C10.7396 16.6332 10.9179 16.7741 11.1383 16.8606L11.6865 15.4643C11.7159 15.4759 11.6966 15.4771 11.589 15.3819C11.4841 15.2891 11.3497 15.1551 11.1384 14.9438L10.0777 16.0044ZM12.177 14.6737C12.0955 14.9611 12.0433 15.1436 11.9969 15.2758C11.9494 15.4113 11.9319 15.4197 11.952 15.3953L13.1109 16.3476C13.2612 16.1647 13.3484 15.9548 13.4123 15.7725C13.4774 15.5869 13.5437 15.3521 13.62 15.0832L12.177 14.6737ZM11.1383 16.8606C11.8375 17.1351 12.634 16.928 13.1109 16.3476L11.952 15.3953C11.8878 15.4734 11.7806 15.5013 11.6865 15.4643L11.1383 16.8606ZM15.6454 10.2852C16.1401 10.7798 16.4493 11.0919 16.6335 11.3401C16.8093 11.577 16.7551 11.6041 16.7654 11.5538L18.2346 11.8567C18.3519 11.2873 18.1127 10.8163 17.8381 10.4463C17.572 10.0877 17.1657 9.6841 16.7061 9.22455L15.6454 10.2852ZM15.7897 13.6696C16.3935 13.4293 16.9264 13.2194 17.3126 12.9953C17.7112 12.764 18.1172 12.4261 18.2346 11.8567L16.7654 11.5538C16.7758 11.5035 16.8149 11.5499 16.5598 11.6979C16.2924 11.853 15.885 12.0173 15.235 12.276L15.7897 13.6696ZM14.7755 7.29391C14.3159 6.83436 13.9124 6.428 13.5538 6.16189C13.1838 5.88731 12.7128 5.64805 12.1434 5.76545L12.4463 7.23455C12.3959 7.24493 12.4231 7.19071 12.6599 7.36646C12.9082 7.55068 13.2202 7.85994 13.7148 8.35456L14.7755 7.29391ZM11.7241 8.76498C11.9828 8.11506 12.1471 7.70759 12.3022 7.4402C12.4502 7.18511 12.4966 7.22418 12.4463 7.23455L12.1434 5.76545C11.574 5.88284 11.236 6.28885 11.0048 6.68739C10.7807 7.07363 10.5707 7.60648 10.3304 8.21031L11.7241 8.76498ZM8.04512 17.0155L10.0973 14.9634L9.03662 13.9027L6.98446 15.9549L8.04512 17.0155Z" fill="#1C274C"/>
<path id="Vector_2" d="M7 3.33782C8.47087 2.48697 10.1786 2 12 2C17.5228 2 22 6.47715 22 12C22 17.5228 17.5228 22 12 22C6.47715 22 2 17.5228 2 12C2 10.1786 2.48697 8.47087 3.33782 7" stroke="#1C274C" stroke-width="1.5" stroke-linecap="round"/>
</g>
</svg>
