<svg width="24" height="24" viewBox="0 0 24 24" fill="none" xmlns="http://www.w3.org/2000/svg">
<g id="Linear / Essentional, UI / Pin List">
<path id="Vector" d="M13.6318 8.22382L13.2654 7.85744C11.7353 6.32736 10.9703 5.56232 10.1409 5.56299C9.86995 5.56321 9.60189 5.61847 9.35297 5.72542C8.59095 6.05283 8.19087 7.05807 7.39072 9.06855L7.33281 9.21406C7.10596 9.78403 6.99254 10.069 6.8104 10.2989C6.67221 10.4733 6.50589 10.6235 6.31829 10.7431C6.071 10.9009 5.77593 10.9846 5.18578 11.1521C4.27067 11.4118 3.81311 11.5417 3.61005 11.8186C3.45915 12.0244 3.39264 12.2802 3.42416 12.5334C3.46657 12.8742 3.80289 13.2105 4.47554 13.8832L7.60603 17.0137C8.27867 17.6863 8.61499 18.0226 8.95577 18.065C9.20903 18.0966 9.46475 18.03 9.67057 17.8791C9.94751 17.6761 10.0774 17.2185 10.3371 16.3034C10.5046 15.7133 10.5883 15.4182 10.7461 15.1709C10.8657 14.9833 11.0159 14.817 11.1903 14.6788C11.4202 14.4967 11.7052 14.3832 12.2751 14.1564L12.4206 14.0985C14.4311 13.2983 15.4364 12.8982 15.7638 12.1362C15.8707 11.8873 15.926 11.6192 15.9262 11.3483C15.9269 10.5189 15.1618 9.7539 13.6318 8.22382Z" stroke="#1C274C" stroke-width="1.5"/>
<path id="Vector_2" d="M3.34679 18.142L6.04053 15.4482" stroke="#1C274C" stroke-width="1.5" stroke-linecap="round"/>
<path id="Vector_3" d="M22 8H17" stroke="#1C274C" stroke-width="1.5" stroke-linecap="round"/>
<path id="Vector_4" d="M22 12.5H18" stroke="#1C274C" stroke-width="1.5" stroke-linecap="round"/>
<path id="Vector_5" d="M22 17H13" stroke="#1C274C" stroke-width="1.5" stroke-linecap="round"/>
</g>
</svg>
