<svg width="24" height="24" viewBox="0 0 24 24" fill="none" xmlns="http://www.w3.org/2000/svg">
<g id="Outline / Essentional, UI / Pin">
<path id="Vector" fill-rule="evenodd" clip-rule="evenodd" d="M18.9156 7.91971L16.0802 5.08431C15.1714 4.17555 14.4295 3.43354 13.7824 2.95327C13.1131 2.45649 12.3976 2.12654 11.5726 2.29314C10.7476 2.45974 10.2162 3.04149 9.79212 3.75907C9.38212 4.45281 8.98624 5.42458 8.50139 6.61475L7.53042 8.99803C7.23062 9.73392 7.14211 9.92179 7.01508 10.0599C6.96452 10.1148 6.90901 10.165 6.84925 10.2098C6.69909 10.3223 6.50326 10.3914 5.74093 10.6156L5.69426 10.6293C4.89682 10.8639 4.2331 11.0591 3.73708 11.272C3.23092 11.4893 2.74637 11.7861 2.48277 12.3156C2.34198 12.5984 2.26305 12.908 2.25122 13.2237C2.22907 13.8148 2.51236 14.3073 2.85265 14.7404C3.18613 15.1649 3.67532 15.6541 4.26312 16.2419L5.4459 17.4246L2.46981 20.403C2.17703 20.696 2.17703 21.171 2.46981 21.464C2.7626 21.757 3.23731 21.757 3.53009 21.464L6.50656 18.4853L7.75803 19.7368C8.34577 20.3245 8.83495 20.8137 9.25942 21.1472C9.69258 21.4875 10.1851 21.7708 10.7762 21.7486C11.0919 21.7368 11.4015 21.6579 11.6843 21.5171C12.2138 21.2535 12.5105 20.7689 12.7278 20.2628C12.9408 19.7668 13.136 19.1031 13.3705 18.3056L13.3842 18.2589C13.6085 17.4966 13.6776 17.3008 13.7901 17.1506C13.8349 17.0909 13.885 17.0353 13.94 16.9848C14.0781 16.8577 14.2659 16.7692 15.0018 16.4694L17.3851 15.4985C18.5753 15.0136 19.547 14.6177 20.2408 14.2077C20.9584 13.7837 21.5401 13.2523 21.7067 12.4273C21.8733 11.6023 21.5434 10.8868 21.0466 10.2175C20.5663 9.57039 19.8243 8.82842 18.9156 7.91971ZM11.8695 3.76346C12.0782 3.72131 12.3528 3.76023 12.8884 4.15776C13.4357 4.56399 14.0999 5.22536 15.0639 6.18935L17.8105 8.93598C18.7745 9.89997 19.4359 10.5641 19.8421 11.1115C20.2396 11.6471 20.2785 11.9217 20.2364 12.1304C20.1943 12.3391 20.0518 12.577 19.4776 12.9164C18.8908 13.2632 18.0235 13.6187 16.761 14.133L14.3332 15.1221C13.7501 15.359 13.2872 15.5471 12.9244 15.8809C12.8017 15.9938 12.6896 16.1178 12.5896 16.2513C12.294 16.6458 12.1535 17.1253 11.9764 17.7293L11.9452 17.8357C11.6934 18.6919 11.5226 19.2678 11.3495 19.671C11.1766 20.0737 11.0622 20.1512 11.0158 20.1743C10.9237 20.2201 10.8229 20.2458 10.72 20.2497C10.6682 20.2516 10.5307 20.2384 10.1861 19.9677C9.841 19.6966 9.41533 19.2728 8.78428 18.6417L5.35817 15.2156C4.72711 14.5845 4.30328 14.1589 4.03219 13.8138C3.76142 13.4691 3.74822 13.3316 3.75016 13.2798C3.75402 13.177 3.77973 13.0762 3.82558 12.9841C3.84869 12.9376 3.92612 12.8233 4.32886 12.6503C4.73209 12.4772 5.308 12.3065 6.16418 12.0547L6.27058 12.0234C6.87451 11.8464 7.35402 11.7058 7.74858 11.4103C7.88206 11.3103 8.00605 11.1982 8.11897 11.0755C8.45275 10.7127 8.64086 10.2497 8.87778 9.6667L9.86684 7.23885C10.3812 5.97631 10.7367 5.10904 11.0835 4.52225C11.4228 3.94803 11.6608 3.8056 11.8695 3.76346Z" fill="#1C274C"/>
</g>
</svg>
