<svg width="24" height="24" viewBox="0 0 24 24" fill="none" xmlns="http://www.w3.org/2000/svg">
<g id="Linear / Map &#38; Location / Radar 2">
<path id="Vector" d="M21.6593 14.5877L20.9349 14.3936L21.6593 14.5877ZM9.41185 21.6588L9.21774 22.3833L9.41185 21.6588ZM2.34078 9.41136L1.61634 9.21725L2.34078 9.41136ZM14.5882 2.34029L14.3941 3.06474L14.5882 2.34029ZM11.5282 12.5825C11.8502 12.8431 12.3224 12.7934 12.583 12.4714C12.8436 12.1494 12.7939 11.6772 12.4719 11.4166L11.5282 12.5825ZM5.00197 6.33546L5.47382 5.75248H5.47382L5.00197 6.33546ZM3.63599 6.5135L3.00878 6.10226L3.63599 6.5135ZM6.71837 2.63651C6.35761 2.84004 6.23015 3.29749 6.43368 3.65825C6.63722 4.01901 7.09467 4.14647 7.45543 3.94294L6.71837 2.63651ZM9.86587 5.5941C9.47288 5.72498 9.2604 6.14967 9.39128 6.54266C9.52216 6.93565 9.94684 7.14813 10.3398 7.01725L9.86587 5.5941ZM20.9349 14.3936C19.6126 19.3282 14.5405 22.2566 9.60596 20.9344L9.21774 22.3833C14.9525 23.9199 20.8471 20.5166 22.3837 14.7819L20.9349 14.3936ZM9.60596 20.9344C4.6714 19.6122 1.74301 14.54 3.06523 9.60548L1.61634 9.21725C0.0797132 14.952 3.48298 20.8466 9.21774 22.3833L9.60596 20.9344ZM14.3941 3.06474C19.3287 4.38695 22.2571 9.45907 20.9349 14.3936L22.3837 14.7819C23.9204 9.0471 20.5171 3.15247 14.7823 1.61585L14.3941 3.06474ZM12.4719 11.4166L5.47382 5.75248L4.53012 6.91843L11.5282 12.5825L12.4719 11.4166ZM3.06523 9.60548C3.32766 8.62605 3.73719 7.72696 4.26319 6.92474L3.00878 6.10226C2.39636 7.0363 1.9206 8.08173 1.61634 9.21725L3.06523 9.60548ZM7.45543 3.94294C9.49131 2.79434 11.9587 2.41218 14.3941 3.06474L14.7823 1.61585C11.9526 0.857612 9.08238 1.3028 6.71837 2.63651L7.45543 3.94294ZM5.47382 5.75248C4.74057 5.159 3.58279 5.22681 3.00878 6.10226L4.26319 6.92474C4.28537 6.8909 4.31614 6.87118 4.36156 6.86569C4.41144 6.85966 4.47428 6.87323 4.53012 6.91843L5.47382 5.75248ZM17.25 11.9996C17.25 14.899 14.8995 17.2496 12 17.2496V18.7496C15.728 18.7496 18.75 15.7275 18.75 11.9996H17.25ZM12 17.2496C9.10054 17.2496 6.75004 14.899 6.75004 11.9996H5.25004C5.25004 15.7275 8.27212 18.7496 12 18.7496V17.2496ZM12 6.74955C14.8995 6.74955 17.25 9.10006 17.25 11.9996H18.75C18.75 8.27163 15.728 5.24955 12 5.24955V6.74955ZM6.75004 11.9996C6.75004 10.7308 7.19913 9.569 7.94776 8.6614L6.79061 7.70693C5.82853 8.8733 5.25004 10.3699 5.25004 11.9996H6.75004ZM10.3398 7.01725C10.8607 6.84379 11.4186 6.74955 12 6.74955V5.24955C11.2555 5.24955 10.5376 5.37039 9.86587 5.5941L10.3398 7.01725Z" fill="#1C274C"/>
</g>
</svg>
