<svg width="24" height="24" viewBox="0 0 24 24" fill="none" xmlns="http://www.w3.org/2000/svg">
<g id="Bold Duotone / Map &#38; Location / Radar">
<path id="Vector" opacity="0.5" d="M12 22C17.5228 22 22 17.5228 22 12C22 6.47715 17.5228 2 12 2C6.47715 2 2 6.47715 2 12C2 17.5228 6.47715 22 12 22Z" fill="#1C274C"/>
<path id="Vector_2" d="M11.1256 6.82338C11.846 6.70116 12.6041 6.72817 13.3586 6.93033C16.1585 7.68056 17.8201 10.5585 17.0699 13.3584C16.3196 16.1583 13.4417 17.8199 10.6418 17.0697C7.84187 16.3194 6.18028 13.4415 6.93051 10.6416C7.05879 10.1629 7.24878 9.7184 7.48934 9.31389L11.5283 12.583C11.8503 12.8436 12.3226 12.7938 12.5832 12.4718C12.8438 12.1499 12.794 11.6776 12.472 11.417L8.27423 8.01941C7.7127 7.56491 6.80868 7.60723 6.3558 8.29795C5.97114 8.8846 5.67251 9.54098 5.48162 10.2534C4.51698 13.8535 6.65344 17.5539 10.2535 18.5186C13.8536 19.4832 17.5541 17.3467 18.5187 13.7466C19.4834 10.1465 17.3469 6.44608 13.7468 5.48144C12.7798 5.22232 11.8035 5.18693 10.8747 5.34452C10.4664 5.41381 10.1915 5.80103 10.2608 6.20941C10.33 6.61779 10.7173 6.89267 11.1256 6.82338Z" fill="#1C274C"/>
</g>
</svg>
