<svg width="24" height="24" viewBox="0 0 24 24" fill="none" xmlns="http://www.w3.org/2000/svg">
<g id="Bold Duotone / Video, Audio, Sound / Rewind Forward">
<path id="Vector" opacity="0.5" fill-rule="evenodd" clip-rule="evenodd" d="M8.75382 6.27659L8.69634 6.25028C7.61922 5.75727 6.73008 5.3503 5.98342 5.14843C5.18663 4.933 4.4408 4.91934 3.71702 5.32826C2.99435 5.73654 2.63812 6.36916 2.43843 7.14473C2.25171 7.86995 2.17919 8.81408 2.0915 9.95591L2.08674 10.0178C2.03405 10.7035 2 11.3838 2 12C2 12.6162 2.03405 13.2965 2.08674 13.9822L2.0915 14.0441C2.17919 15.1859 2.25171 16.13 2.43843 16.8553C2.63812 17.6308 2.99435 18.2635 3.71702 18.6717C4.4408 19.0807 5.18663 19.067 5.98342 18.8516C6.73007 18.6497 7.61921 18.2427 8.69632 17.7497L8.75382 17.7234C9.34568 17.4525 9.92291 17.1741 10.4368 16.9025C10.8225 16.6986 11.2282 16.4693 11.6405 16.2257L11.6405 7.77426C11.2282 7.53075 10.8225 7.30136 10.4368 7.09754C9.92291 6.82593 9.34568 6.54747 8.75382 6.27659Z" fill="#1C274C"/>
<path id="Vector_2" d="M12.6211 6.2219C12.055 6.59325 11.7888 7.14489 11.6406 7.77425L11.6406 16.2257C11.7888 16.8551 12.055 17.4067 12.6211 17.7781C13.2302 18.1777 13.8674 18.1573 14.5022 17.958C15.0743 17.7783 15.7464 17.4211 16.5265 17.0065L16.5862 16.9748C17.0256 16.7413 17.4557 16.5004 17.8397 16.2647C18.2773 15.9962 18.7477 15.6776 19.2155 15.3441L19.2658 15.3083C20.0561 14.7449 20.7229 14.2697 21.1823 13.8021C21.6822 13.2934 22.0002 12.7319 22.0002 12C22.0002 11.2681 21.6822 10.7065 21.1823 10.1979C20.7229 9.73031 20.0561 9.25505 19.2658 8.69169L19.2155 8.65587C18.7477 8.32234 18.2773 8.00375 17.8397 7.73523C17.4557 7.49955 17.0256 7.25869 16.5862 7.02519L16.5265 6.9935C15.7464 6.57883 15.0743 6.22163 14.5022 6.04201C13.8674 5.84273 13.2302 5.8223 12.6211 6.2219Z" fill="#1C274C"/>
</g>
</svg>
