<svg width="24" height="24" viewBox="0 0 24 24" fill="none" xmlns="http://www.w3.org/2000/svg">
<g id="Outline / Astronomy / Rocket">
<path id="Vector (Stroke)" fill-rule="evenodd" clip-rule="evenodd" d="M17.4056 1.25004C17.4519 1.25007 17.4989 1.25009 17.5465 1.25009L18.167 1.25009C19.0386 1.25006 19.7673 1.25004 20.3462 1.32763C20.9578 1.40962 21.5134 1.59037 21.9605 2.03612C22.4079 2.48218 22.5896 3.03701 22.672 3.64789C22.7499 4.22551 22.7498 4.95241 22.7498 5.82101V6.44002C22.7498 6.4877 22.7498 6.53475 22.7499 6.58119C22.7504 7.63124 22.7508 8.36819 22.4707 9.04242C22.1906 9.71642 21.668 10.2369 20.9229 10.9791C20.89 11.0119 20.8566 11.0451 20.8228 11.0788L18.153 13.7406L18.2461 13.8843C18.6397 14.4923 18.9586 14.9848 19.1889 15.4095C19.4273 15.8494 19.5968 16.262 19.6646 16.7185C19.7737 17.4523 19.6751 18.2066 19.3858 18.8996C19.2785 19.1566 19.0929 19.4259 18.9026 19.6714C18.7031 19.9286 18.4593 20.2088 18.1974 20.4941C17.6762 21.0621 17.0504 21.686 16.495 22.2397L16.404 22.3305C15.684 23.0483 14.4361 22.8156 14.0522 21.8525C13.8245 21.2814 13.7324 21.0538 13.6171 20.8435C13.5102 20.6486 13.3875 20.4627 13.2503 20.2876C13.1042 20.1012 12.9335 19.9287 12.5102 19.5066L12.0054 19.064C11.9983 19.0578 11.9914 19.0515 11.9846 19.0451C11.8911 19.0572 11.7962 19.0634 11.6997 19.0634C11.0682 19.0634 10.5472 18.7998 10.0561 18.4262C9.59158 18.0729 9.0762 17.559 8.46002 16.9446L7.0134 15.5024C6.39726 14.8881 5.88183 14.3743 5.52735 13.911C5.15269 13.4215 4.88741 12.901 4.88741 12.2693C4.88741 12.1547 4.8962 12.0425 4.91329 11.9325L4.08287 11.1046C4.03445 11.0563 4.01506 11.037 3.99593 11.0185C3.62227 10.6559 3.18262 10.3675 2.70047 10.1689C2.67577 10.1587 2.6503 10.1486 2.58667 10.1234L2.20802 9.97334C1.19447 9.57173 0.92164 8.26365 1.69543 7.4922L1.70249 7.48516C2.25792 6.93141 2.88366 6.30756 3.4533 5.78791C3.73952 5.5268 4.02052 5.28373 4.27845 5.08494C4.52476 4.89509 4.79455 4.71029 5.05179 4.60356C5.74601 4.31552 6.50143 4.21738 7.2361 4.32595C7.693 4.39347 8.10622 4.56205 8.54733 4.79974C8.9732 5.02923 9.46709 5.34711 10.077 5.73965L10.2247 5.8347L12.8969 3.17043C12.9306 3.13686 12.9638 3.10371 12.9966 3.071C13.7414 2.32769 14.2632 1.80689 14.9386 1.52798C15.6138 1.24915 16.3517 1.24952 17.4056 1.25004ZM9.13735 6.91875C8.57734 6.55864 8.17425 6.30262 7.83578 6.12024C7.4767 5.92675 7.23621 5.84226 7.01681 5.80984C6.55867 5.74213 6.07732 5.80205 5.62665 5.98904C5.55933 6.01697 5.41759 6.10078 5.19416 6.27299C4.98234 6.43625 4.73539 6.6487 4.46422 6.89608C3.92148 7.39119 3.31755 7.9931 2.75448 8.55446C2.7513 8.55763 2.75029 8.55938 2.7502 8.55953C2.7501 8.5597 2.7502 8.55952 2.7502 8.55953C2.7501 8.55988 2.74939 8.56283 2.75033 8.56737C2.75127 8.57191 2.75297 8.5744 2.75343 8.57497C2.75371 8.57517 2.75614 8.57707 2.76059 8.57883L3.14432 8.73088C3.20135 8.75348 3.23668 8.76748 3.27188 8.78198C3.92982 9.05306 4.53008 9.44669 5.04048 9.94193C5.06779 9.96843 5.09469 9.99525 5.1381 10.0385L5.61586 10.5149C5.68125 10.4336 5.74953 10.353 5.82004 10.2725C6.14181 9.90528 6.55522 9.49312 7.03378 9.016L9.13735 6.91875ZM13.4544 18.3396L13.5352 18.4104L13.5868 18.4619C13.9774 18.8513 14.2195 19.0926 14.4309 19.3624C14.6184 19.6016 14.7861 19.8557 14.9322 20.1222C15.0919 20.4133 15.2156 20.7203 15.4087 21.2047L15.4289 21.1845C15.992 20.6231 16.5957 20.021 17.0923 19.4799C17.3404 19.2096 17.5535 18.9634 17.7172 18.7522C17.8899 18.5294 17.9738 18.3884 18.0016 18.3218C18.1888 17.8733 18.2487 17.3946 18.1809 16.9391C18.1486 16.7214 18.0641 16.4822 17.8702 16.1244C17.6869 15.7863 17.4295 15.3835 17.067 14.8233L14.9584 16.9256C14.4685 17.414 14.0465 17.8348 13.6707 18.1594C13.5989 18.2214 13.5269 18.2816 13.4544 18.3396ZM17.5465 2.75009C16.2947 2.75009 15.8771 2.7633 15.5112 2.9144C15.1455 3.06541 14.8413 3.35009 13.956 4.23268L8.10915 10.062C7.61071 10.5589 7.23286 10.9362 6.9482 11.2611C6.6622 11.5874 6.5162 11.8109 6.44522 11.9874C6.40383 12.0903 6.38741 12.1792 6.38741 12.2693C6.38741 12.4398 6.44582 12.643 6.71857 12.9994C7.00448 13.3731 7.44672 13.8162 8.10915 14.4767L8.26629 14.6333L9.79679 13.1074C10.0901 12.815 10.565 12.8157 10.8574 13.109C11.1499 13.4024 11.1492 13.8772 10.8559 14.1697L9.32855 15.6924L9.4825 15.8459C10.1449 16.5063 10.5894 16.9473 10.9643 17.2324C11.3217 17.5043 11.5267 17.5634 11.6997 17.5634C11.7845 17.5634 11.867 17.5491 11.9594 17.5151C12.1348 17.4505 12.3584 17.3107 12.6902 17.0241C13.0208 16.7387 13.4055 16.3557 13.9168 15.8459L19.7637 10.0166C20.6492 9.13374 20.9343 8.83068 21.0854 8.46692C21.2365 8.10341 21.2498 7.68861 21.2498 6.44002V5.87287C21.2498 4.93878 21.2482 4.31389 21.1854 3.84835C21.1256 3.40463 21.0229 3.21946 20.9014 3.09837C20.7797 2.97697 20.593 2.87414 20.1469 2.81434C19.6794 2.75167 19.0521 2.75009 18.1154 2.75009H17.5465ZM16.6635 7.32353C16.1978 6.85916 15.4417 6.85916 14.9759 7.32353C14.5114 7.78666 14.5114 8.53661 14.9759 8.99974C15.4417 9.46412 16.1978 9.46412 16.6635 8.99974C17.1281 8.53661 17.1281 7.78666 16.6635 7.32353ZM13.9168 6.26128C14.968 5.21324 16.6714 5.21324 17.7226 6.26128C18.7751 7.31056 18.7751 9.01271 17.7226 10.062C16.6714 11.11 14.968 11.11 13.9168 10.062C12.8644 9.01271 12.8644 7.31056 13.9168 6.26128Z" fill="#1C274C"/>
</g>
</svg>
