<svg width="24" height="24" viewBox="0 0 24 24" fill="none" xmlns="http://www.w3.org/2000/svg">
<g id="Bold Duotone / Security / Scanner ">
<path id="Vector" opacity="0.5" d="M3.46447 3.46447C2 4.92893 2 7.28595 2 12C2 16.714 2 19.0711 3.46447 20.5355C4.92893 22 7.28595 22 12 22C16.714 22 19.0711 22 20.5355 20.5355C22 19.0711 22 16.714 22 12C22 7.28595 22 4.92893 20.5355 3.46447C19.0711 2 16.714 2 12 2C7.28595 2 4.92893 2 3.46447 3.46447Z" fill="#1C274C"/>
<g id="Vector_2">
<path d="M10.004 5.75194C10.4182 5.74975 10.7522 5.41219 10.75 4.99798C10.7478 4.58377 10.4102 4.24977 9.99602 4.25196C8.91427 4.2577 8.01583 4.2824 7.28261 4.41067C6.53075 4.5422 5.88786 4.79268 5.36144 5.29403C4.90634 5.72746 4.60191 6.16641 4.43626 6.797C4.28612 7.36858 4.25937 8.07179 4.25231 8.9945C4.24914 9.40871 4.58234 9.74705 4.99654 9.75022C5.41074 9.75339 5.74909 9.42019 5.75226 9.00599C5.75952 8.05721 5.79204 7.53976 5.88704 7.1781C5.96654 6.87546 6.09314 6.6686 6.39592 6.38024C6.63788 6.1498 6.96814 5.98846 7.54109 5.88823C8.13268 5.78473 8.91071 5.75774 10.004 5.75194Z" fill="#1C274C"/>
<path d="M14.0041 4.25196C13.5899 4.24977 13.2523 4.58377 13.2501 4.99798C13.2479 5.41218 13.5819 5.74975 13.9961 5.75194C15.0894 5.75774 15.8674 5.78474 16.4589 5.88823C17.0319 5.98846 17.3621 6.1498 17.6041 6.38024C17.9069 6.6686 18.0335 6.87546 18.113 7.1781C18.208 7.53976 18.2405 8.05721 18.2477 9.00599C18.2509 9.42019 18.5893 9.75339 19.0035 9.75022C19.4177 9.74705 19.7509 9.40871 19.7477 8.9945C19.7406 8.07179 19.7139 7.36858 19.5637 6.797C19.3981 6.16641 19.0937 5.72746 18.6386 5.29403C18.1121 4.79269 17.4693 4.5422 16.7174 4.41067C15.9842 4.2824 15.0858 4.2577 14.0041 4.25196Z" fill="#1C274C"/>
<path d="M5 11.2503C4.58579 11.2503 4.25 11.5861 4.25 12.0003C4.25 12.4145 4.58579 12.7503 5 12.7503H19C19.4142 12.7503 19.75 12.4145 19.75 12.0003C19.75 11.5861 19.4142 11.2503 19 11.2503H5Z" fill="#1C274C"/>
<path d="M5.75226 14.9946C5.74909 14.5804 5.41074 14.2472 4.99654 14.2504C4.58234 14.2535 4.24914 14.5919 4.25231 15.0061C4.25937 15.9288 4.28612 16.632 4.43626 17.2036C4.60191 17.8342 4.90634 18.2731 5.36144 18.7066C5.88785 19.2079 6.53073 19.4584 7.28258 19.5899C8.01578 19.7182 8.91421 19.7429 9.99593 19.7486C10.4101 19.7508 10.7477 19.4168 10.7499 19.0026C10.7521 18.5884 10.4181 18.2508 10.0039 18.2487C8.91065 18.2429 8.13264 18.2159 7.54107 18.1124C6.96814 18.0121 6.63788 17.8508 6.39592 17.6204C6.09314 17.332 5.96654 17.1251 5.88704 16.8225C5.79204 16.4608 5.75952 15.9434 5.75226 14.9946Z" fill="#1C274C"/>
<path d="M19.7477 15.0061C19.7509 14.5919 19.4177 14.2535 19.0035 14.2504C18.5893 14.2472 18.2509 14.5804 18.2477 14.9946C18.2405 15.9434 18.208 16.4608 18.113 16.8225C18.0335 17.1251 17.9069 17.332 17.6041 17.6204C17.3621 17.8508 17.0319 18.0121 16.4589 18.1124C15.8674 18.2159 15.0894 18.2429 13.9961 18.2487C13.5819 18.2508 13.2479 18.5884 13.2501 19.0026C13.2523 19.4168 13.5899 19.7508 14.0041 19.7486C15.0858 19.7429 15.9842 19.7182 16.7174 19.5899C17.4693 19.4584 18.1121 19.2079 18.6386 18.7066C19.0937 18.2731 19.3981 17.8342 19.5637 17.2036C19.7139 16.632 19.7406 15.9288 19.7477 15.0061Z" fill="#1C274C"/>
</g>
</g>
</svg>
