<svg width="24" height="24" viewBox="0 0 24 24" fill="none" xmlns="http://www.w3.org/2000/svg">
<g id="Bold Duotone / Security / Shield Up">
<path id="Vector" opacity="0.5" d="M3 10.4167C3 7.21907 3 5.62028 3.37752 5.08241C3.75503 4.54454 5.25832 4.02996 8.26491 3.00079L8.83772 2.80472C10.405 2.26824 11.1886 2 12 2C12.8114 2 13.595 2.26824 15.1623 2.80472L15.7351 3.00079C18.7417 4.02996 20.245 4.54454 20.6225 5.08241C21 5.62028 21 7.21907 21 10.4167C21 10.8996 21 11.4234 21 11.9914C21 17.6294 16.761 20.3655 14.1014 21.5273C13.38 21.8424 13.0193 22 12 22C10.9807 22 10.62 21.8424 9.89856 21.5273C7.23896 20.3655 3 17.6294 3 11.9914C3 11.4234 3 10.8996 3 10.4167Z" fill="#1C274C"/>
<path id="Vector (Stroke)" fill-rule="evenodd" clip-rule="evenodd" d="M10.95 8.40029C11.5723 7.93363 12.4278 7.93363 13.05 8.40029L16.45 10.9503C16.7814 11.1988 16.8486 11.6689 16.6 12.0003C16.3515 12.3317 15.8814 12.3988 15.55 12.1503L12.15 9.60029C12.0612 9.53363 11.9389 9.53363 11.85 9.60029L8.45004 12.1503C8.11867 12.3988 7.64857 12.3317 7.40004 12.0003C7.15152 11.6689 7.21867 11.1988 7.55004 10.9503L10.95 8.40029ZM11.55 11.9503C11.8167 11.7503 12.1834 11.7503 12.45 11.9503L14.45 13.4503C14.7814 13.6988 14.8486 14.1689 14.6 14.5003C14.3515 14.8317 13.8814 14.8988 13.55 14.6503L12 13.4878L10.45 14.6503C10.1187 14.8988 9.64857 14.8317 9.40004 14.5003C9.15152 14.1689 9.21867 13.6988 9.55004 13.4503L11.55 11.9503Z" fill="#1C274C"/>
</g>
</svg>
