<svg width="24" height="24" viewBox="0 0 24 24" fill="none" xmlns="http://www.w3.org/2000/svg">
<g id="Bold Duotone / Map &#38; Location / Signpost">
<path id="Vector" opacity="0.5" fill-rule="evenodd" clip-rule="evenodd" d="M12.75 10.5H11.25V12.5H12.75V10.5ZM11.25 3.5H12.75V2C12.75 1.58579 12.4142 1.25 12 1.25C11.5858 1.25 11.25 1.58579 11.25 2V3.5ZM11.25 21.25V19.5H12.75V21.25H14C14.4142 21.25 14.75 21.5858 14.75 22C14.75 22.4142 14.4142 22.75 14 22.75H10C9.58579 22.75 9.25 22.4142 9.25 22C9.25 21.5858 9.58579 21.25 10 21.25H11.25Z" fill="#1C274C"/>
<g id="Vector_2">
<path d="M15.4995 10.5C16.904 10.5 17.6062 10.5 18.1106 10.1629C18.329 10.017 18.5165 9.82952 18.6624 9.61114C18.9995 9.10669 18.9995 8.40446 18.9995 7C18.9995 5.59554 18.9995 4.89331 18.6624 4.38886C18.5165 4.17048 18.329 3.98298 18.1106 3.83706C17.6062 3.5 16.904 3.5 15.4995 3.5H12.7495H11.2495H8.7035C8.04593 3.5 7.71715 3.5 7.41544 3.5982C7.28233 3.64152 7.15414 3.6987 7.03298 3.76879C6.75833 3.92767 6.53866 4.1723 6.09933 4.66156C5.24862 5.60893 4.82327 6.08262 4.72087 6.63619C4.67638 6.87669 4.67638 7.12331 4.72087 7.36381C4.82327 7.91738 5.24863 8.39107 6.09933 9.33844C6.53866 9.8277 6.75833 10.0723 7.03298 10.2312C7.15414 10.3013 7.28233 10.3585 7.41544 10.4018C7.71715 10.5 8.04593 10.5 8.7035 10.5H11.2495H12.7495H15.4995Z" fill="#1C274C"/>
<path d="M8.4995 19.5C7.09504 19.5 6.39281 19.5 5.88836 19.1629C5.66998 19.017 5.48248 18.8295 5.33657 18.6111C4.9995 18.1067 4.9995 17.4045 4.9995 16C4.9995 14.5955 4.9995 13.8933 5.33657 13.3889C5.48248 13.1705 5.66998 12.983 5.88836 12.8371C6.39281 12.5 7.09504 12.5 8.4995 12.5H11.2495H12.7495H15.2955C15.9531 12.5 16.2819 12.5 16.5836 12.5982C16.7167 12.6415 16.8449 12.6987 16.966 12.7688C17.2407 12.9277 17.4603 13.1723 17.8997 13.6616C18.7504 14.6089 19.1757 15.0826 19.2781 15.6362C19.3226 15.8767 19.3226 16.1233 19.2781 16.3638C19.1757 16.9174 18.7504 17.3911 17.8997 18.3384C17.4603 18.8277 17.2407 19.0723 16.966 19.2312C16.8449 19.3013 16.7167 19.3585 16.5836 19.4018C16.2819 19.5 15.9531 19.5 15.2955 19.5H12.7495H11.2495H8.4995Z" fill="#1C274C"/>
</g>
</g>
</svg>
