<svg width="24" height="24" viewBox="0 0 24 24" fill="none" xmlns="http://www.w3.org/2000/svg">
<g id="Outline / Electronic, Devices / Smartphone Vibration">
<path id="Vector (Stroke)" fill-rule="evenodd" clip-rule="evenodd" d="M10.9453 1.25H13.055C14.4226 1.24998 15.5249 1.24996 16.3919 1.36652C17.292 1.48754 18.0499 1.74643 18.6518 2.34835C19.2537 2.95027 19.5126 3.70814 19.6336 4.60825C19.7502 5.47522 19.7502 6.57754 19.7502 7.94513V16.0549C19.7502 17.4225 19.7502 18.5248 19.6336 19.3918C19.5126 20.2919 19.2537 21.0497 18.6518 21.6517C18.0499 22.2536 17.292 22.5125 16.3919 22.6335C15.5249 22.75 14.4226 22.75 13.055 22.75H10.9453C9.5777 22.75 8.47538 22.75 7.60841 22.6335C6.70831 22.5125 5.95043 22.2536 5.34851 21.6517C4.7466 21.0497 4.4877 20.2919 4.36669 19.3918C4.25013 18.5248 4.25014 17.4225 4.25016 16.0549V7.94512C4.25014 6.57754 4.25013 5.47522 4.36669 4.60825C4.4877 3.70814 4.7466 2.95027 5.34851 2.34835C5.95043 1.74643 6.70831 1.48754 7.60841 1.36652C8.47538 1.24996 9.5777 1.24998 10.9453 1.25ZM7.80828 2.85315C7.07451 2.9518 6.68594 3.13225 6.40917 3.40901C6.13241 3.68577 5.95197 4.07435 5.85331 4.80812C5.75176 5.56347 5.75016 6.56459 5.75016 8V16C5.75016 17.4354 5.75176 18.4365 5.85331 19.1919C5.95197 19.9257 6.13241 20.3142 6.40917 20.591C6.68594 20.8678 7.07451 21.0482 7.80828 21.1469C8.56364 21.2484 9.56475 21.25 11.0002 21.25H13.0002C14.4356 21.25 15.4367 21.2484 16.192 21.1469C16.9258 21.0482 17.3144 20.8678 17.5912 20.591C17.8679 20.3142 18.0484 19.9257 18.147 19.1919C18.2486 18.4365 18.2502 17.4354 18.2502 16V8C18.2502 6.56458 18.2486 5.56347 18.147 4.80812C18.0484 4.07435 17.8679 3.68577 17.5912 3.40901C17.3144 3.13225 16.9258 2.9518 16.192 2.85315C15.4367 2.75159 14.4356 2.75 13.0002 2.75H11.0002C9.56475 2.75 8.56364 2.75159 7.80828 2.85315ZM1.66475 5.32918C2.03524 5.14394 2.48574 5.29411 2.67098 5.66459L3.44738 7.21738C3.69371 7.71005 3.69371 8.28995 3.44738 8.78262L2.89459 9.8882C2.8594 9.95858 2.8594 10.0414 2.89459 10.1118L3.44738 11.2174C3.69371 11.71 3.69371 12.29 3.44738 12.7826L2.89459 13.8882C2.8594 13.9586 2.8594 14.0414 2.89459 14.1118L3.44738 15.2174C3.69371 15.7101 3.69371 16.29 3.44738 16.7826L2.67098 18.3354C2.48574 18.7059 2.03524 18.8561 1.66475 18.6708C1.29427 18.4856 1.1441 18.0351 1.32934 17.6646L2.10574 16.1118C2.14093 16.0414 2.14093 15.9586 2.10574 15.8882L1.55295 14.7826C1.30661 14.29 1.30661 13.71 1.55295 13.2174L2.10574 12.1118C2.14093 12.0414 2.14093 11.9586 2.10574 11.8882L1.55295 10.7826C1.30661 10.29 1.30661 9.71005 1.55295 9.21738L2.10574 8.1118C2.14093 8.04142 2.14093 7.95858 2.10574 7.8882L1.32934 6.33541C1.1441 5.96493 1.29427 5.51442 1.66475 5.32918ZM22.3356 5.32918C22.7061 5.51442 22.8562 5.96493 22.671 6.33541L21.8946 7.8882C21.8594 7.95858 21.8594 8.04142 21.8946 8.1118L22.4474 9.21738C22.6937 9.71005 22.6937 10.29 22.4474 10.7826L21.8946 11.8882C21.8594 11.9586 21.8594 12.0414 21.8946 12.1118L22.4474 13.2174C22.6937 13.71 22.6937 14.29 22.4474 14.7826L21.8946 15.8882C21.8594 15.9586 21.8594 16.0414 21.8946 16.1118L22.671 17.6646C22.8562 18.0351 22.7061 18.4856 22.3356 18.6708C21.9651 18.8561 21.5146 18.7059 21.3293 18.3354L20.553 16.7826C20.3066 16.29 20.3066 15.7101 20.553 15.2174L21.1057 14.1118C21.1409 14.0414 21.1409 13.9586 21.1057 13.8882L20.553 12.7826C20.3066 12.29 20.3066 11.71 20.553 11.2174L21.1057 10.1118C21.1409 10.0414 21.1409 9.95858 21.1057 9.8882L20.553 8.78262C20.3066 8.28995 20.3066 7.71005 20.553 7.21738L21.3293 5.66459C21.5146 5.29411 21.9651 5.14394 22.3356 5.32918ZM8.75016 19C8.75016 18.5858 9.08595 18.25 9.50016 18.25H14.5002C14.9144 18.25 15.2502 18.5858 15.2502 19C15.2502 19.4142 14.9144 19.75 14.5002 19.75H9.50016C9.08595 19.75 8.75016 19.4142 8.75016 19Z" fill="#1C274C"/>
</g>
</svg>
