<svg width="24" height="24" viewBox="0 0 24 24" fill="none" xmlns="http://www.w3.org/2000/svg">
<g id="Outline / Transport, Parts, Service / Spedometer Middle">
<path id="Vector" fill-rule="evenodd" clip-rule="evenodd" d="M2.77997 11.25H4C4.41421 11.25 4.75 11.5858 4.75 12C4.75 12.4142 4.41421 12.75 4 12.75H2.77997C2.9397 14.7407 3.72972 16.5536 4.95034 17.989L5.96967 16.9697C6.26256 16.6768 6.73744 16.6768 7.03033 16.9697C7.32322 17.2626 7.32322 17.7374 7.03033 18.0303L6.011 19.0497C7.62475 20.422 9.71567 21.25 12 21.25C14.2843 21.25 16.3753 20.422 17.989 19.0497L16.9697 18.0303C16.6768 17.7374 16.6768 17.2626 16.9697 16.9697C17.2626 16.6768 17.7374 16.6768 18.0303 16.9697L19.0497 17.989C20.2703 16.5536 21.0603 14.7407 21.22 12.75H19.9998C19.5856 12.75 19.2498 12.4142 19.2498 12C19.2498 11.5858 19.5856 11.25 19.9998 11.25H21.22C21.0603 9.25928 20.2703 7.44638 19.0497 6.011L18.0303 7.03033C17.7374 7.32322 17.2626 7.32322 16.9697 7.03033C16.6768 6.73744 16.6768 6.26256 16.9697 5.96967L17.989 4.95034C16.5536 3.72972 14.7407 2.9397 12.75 2.77997V4.00021C12.75 4.41443 12.4142 4.75021 12 4.75021C11.5858 4.75021 11.25 4.41443 11.25 4.00021V2.77997C9.25928 2.9397 7.44638 3.72972 6.011 4.95034L7.03033 5.96967C7.32322 6.26256 7.32322 6.73744 7.03033 7.03033C6.73744 7.32322 6.26256 7.32322 5.96967 7.03033L4.95034 6.011C3.72972 7.44638 2.9397 9.25928 2.77997 11.25ZM1.25 12C1.25 6.06294 6.06294 1.25 12 1.25C17.9371 1.25 22.75 6.06294 22.75 12C22.75 17.9371 17.9371 22.75 12 22.75C6.06294 22.75 1.25 17.9371 1.25 12ZM11.5191 8.75956C11.2798 9.00743 11.0231 9.40232 10.6039 10.0581C10.347 10.46 10.1261 10.8526 9.97161 11.2064C9.81161 11.5728 9.75 11.8371 9.75 12C9.75 13.2426 10.7574 14.25 12 14.25C13.2426 14.25 14.25 13.2426 14.25 12C14.25 11.8371 14.1884 11.5728 14.0284 11.2064C13.8739 10.8526 13.653 10.46 13.3961 10.0581C12.9769 9.40232 12.7202 9.00743 12.4809 8.75956C12.2856 8.55733 12.1644 8.51672 12 8.51672C11.8356 8.51672 11.7144 8.55733 11.5191 8.75956ZM10.4401 7.71757C10.8524 7.29066 11.343 7.01672 12 7.01672C12.657 7.01672 13.1476 7.29066 13.5599 7.71757C13.9164 8.08679 14.2528 8.61315 14.6235 9.19323C14.6356 9.21214 14.6477 9.23111 14.6599 9.25013C14.9409 9.68968 15.206 10.1548 15.4031 10.6061C15.5946 11.0447 15.75 11.5326 15.75 12C15.75 14.0711 14.0711 15.75 12 15.75C9.92893 15.75 8.25 14.0711 8.25 12C8.25 11.5326 8.40543 11.0447 8.59695 10.6061C8.79401 10.1548 9.05909 9.68968 9.3401 9.25013C9.35225 9.23111 9.36438 9.21215 9.37646 9.19324C9.74719 8.61315 10.0836 8.0868 10.4401 7.71757Z" fill="#1C274C"/>
</g>
</svg>
