<svg width="24" height="24" viewBox="0 0 24 24" fill="none" xmlns="http://www.w3.org/2000/svg">
<g id="Outline / Transport, Parts, Service / Spedometer Max">
<path id="Vector" fill-rule="evenodd" clip-rule="evenodd" d="M2.77997 11.25H4C4.41421 11.25 4.75 11.5858 4.75 12C4.75 12.4142 4.41421 12.75 4 12.75H2.77997C2.9397 14.7407 3.72972 16.5536 4.95034 17.989L5.96967 16.9697C6.26256 16.6768 6.73744 16.6768 7.03033 16.9697C7.32322 17.2626 7.32322 17.7374 7.03033 18.0303L6.011 19.0497C7.62475 20.422 9.71567 21.25 12 21.25C14.2843 21.25 16.3753 20.422 17.989 19.0497L16.9697 18.0303C16.6768 17.7374 16.6768 17.2626 16.9697 16.9697C17.2626 16.6768 17.7374 16.6768 18.0303 16.9697L19.0497 17.989C20.2703 16.5536 21.0603 14.7407 21.22 12.75H19.9998C19.5856 12.75 19.2498 12.4142 19.2498 12C19.2498 11.5858 19.5856 11.25 19.9998 11.25H21.22C21.0603 9.25928 20.2703 7.44638 19.0497 6.011L18.0303 7.03033C17.7374 7.32322 17.2626 7.32322 16.9697 7.03033C16.6768 6.73744 16.6768 6.26256 16.9697 5.96967L17.989 4.95034C16.5536 3.72972 14.7407 2.9397 12.75 2.77997V4.00021C12.75 4.41443 12.4142 4.75021 12 4.75021C11.5858 4.75021 11.25 4.41443 11.25 4.00021V2.77997C9.25928 2.9397 7.44638 3.72972 6.011 4.95034L7.03033 5.96967C7.32322 6.26256 7.32322 6.73744 7.03033 7.03033C6.73744 7.32322 6.26256 7.32322 5.96967 7.03033L4.95034 6.011C3.72972 7.44638 2.9397 9.25928 2.77997 11.25ZM1.25 12C1.25 6.06294 6.06294 1.25 12 1.25C17.9371 1.25 22.75 6.06294 22.75 12C22.75 17.9371 17.9371 22.75 12 22.75C6.06294 22.75 1.25 17.9371 1.25 12ZM13.8336 10.6515C12.9549 9.77285 11.5303 9.77285 10.6516 10.6515C9.77289 11.5302 9.77289 12.9548 10.6516 13.8335C10.7667 13.9487 10.9972 14.092 11.3695 14.238C11.7288 14.3789 12.1627 14.5004 12.6285 14.6029C13.3886 14.7701 13.8494 14.8679 14.1939 14.8739C14.475 14.8788 14.5894 14.8218 14.7056 14.7056C14.8218 14.5894 14.8788 14.4749 14.8739 14.1938C14.8679 13.8493 14.7701 13.3886 14.6029 12.6285C14.5004 12.1626 14.3789 11.7288 14.238 11.3694C14.0921 10.9972 13.9487 10.7667 13.8336 10.6515ZM9.59091 9.59087C11.0554 8.12641 13.4297 8.12641 14.8942 9.59087C15.2247 9.92136 15.4598 10.3763 15.6345 10.8218C15.8143 11.2803 15.9557 11.7966 16.0678 12.3061C16.0727 12.3282 16.0775 12.3502 16.0824 12.3721C16.2304 13.0444 16.3647 13.6545 16.3737 14.1677C16.384 14.761 16.2309 15.3017 15.7663 15.7662C15.3017 16.2308 14.7611 16.384 14.1677 16.3737C13.6545 16.3647 13.0445 16.2304 12.3721 16.0823C12.3502 16.0775 12.3282 16.0727 12.3062 16.0678C11.7967 15.9557 11.2803 15.8142 10.8219 15.6345C10.3763 15.4598 9.9214 15.2247 9.59091 14.8942C8.12644 13.4297 8.12644 11.0553 9.59091 9.59087Z" fill="#1C274C"/>
</g>
</svg>
