<svg width="24" height="24" viewBox="0 0 24 24" fill="none" xmlns="http://www.w3.org/2000/svg">
<g id="Bold Duotone / Transport, Parts, Service / Spedometer Low">
<path id="Vector" d="M13.8112 14.3804C14.986 13.2072 14.986 11.305 13.8112 10.1319C12.6364 8.95865 10.7316 8.95865 9.55678 10.1319C9.10989 10.5781 8.79779 11.5045 8.58259 12.4812C8.26078 13.9418 8.09987 14.672 8.68229 15.2537C9.26471 15.8353 9.996 15.6746 11.4586 15.3532C12.4366 15.1383 13.3643 14.8266 13.8112 14.3804Z" fill="#1C274C"/>
<path id="Vector_2" opacity="0.5" d="M22 12C22 17.5228 17.5228 22 12 22C6.47715 22 2 17.5228 2 12C2 6.47715 6.47715 2 12 2C17.5228 2 22 6.47715 22 12Z" fill="#1C274C"/>
<g id="Vector_3">
<path d="M4.42077 5.4763C4.74602 5.09877 5.09899 4.7458 5.47653 4.42057C5.49505 4.43584 5.51301 4.45214 5.53033 4.46946L7.03033 5.96946C7.32322 6.26235 7.32322 6.73722 7.03033 7.03012C6.73744 7.32301 6.26256 7.32301 5.96967 7.03012L4.46967 5.53012C4.45234 5.51279 4.43604 5.49483 4.42077 5.4763Z" fill="#1C274C"/>
<path d="M2.02769 12.7498C2.00934 12.5023 2 12.2522 2 12C2 11.7476 2.00935 11.4975 2.02772 11.2498H4C4.41421 11.2498 4.75 11.5856 4.75 11.9998C4.75 12.414 4.41421 12.7498 4 12.7498H2.02769Z" fill="#1C274C"/>
<path d="M5.47628 19.5792C5.09877 19.254 4.74581 18.901 4.42059 18.5235C4.43591 18.5049 4.45228 18.4869 4.46967 18.4695L5.96967 16.9695C6.26256 16.6766 6.73744 16.6766 7.03033 16.9695C7.32322 17.2623 7.32322 17.7372 7.03033 18.0301L5.53033 19.5301C5.51293 19.5475 5.49489 19.5639 5.47628 19.5792Z" fill="#1C274C"/>
<path d="M19.5794 18.5235C19.2542 18.901 18.9012 19.254 18.5237 19.5792C18.5051 19.5639 18.4871 19.5475 18.4697 19.5301L16.9697 18.0301C16.6768 17.7372 16.6768 17.2623 16.9697 16.9695C17.2626 16.6766 17.7374 16.6766 18.0303 16.9695L19.5303 18.4695C19.5477 18.4869 19.5641 18.5049 19.5794 18.5235Z" fill="#1C274C"/>
<path d="M21.9723 11.2498C21.9907 11.4975 22 11.7476 22 12C22 12.2522 21.9907 12.5023 21.9723 12.7498H19.9998C19.5856 12.7498 19.2498 12.414 19.2498 11.9998C19.2498 11.5856 19.5856 11.2498 19.9998 11.2498H21.9723Z" fill="#1C274C"/>
<path d="M18.5235 4.42057C18.901 4.7458 19.254 5.09877 19.5792 5.4763C19.564 5.49483 19.5477 5.51279 19.5303 5.53012L18.0303 7.03012C17.7374 7.32301 17.2626 7.32301 16.9697 7.03012C16.6768 6.73722 16.6768 6.26235 16.9697 5.96946L18.4697 4.46946C18.487 4.45214 18.5049 4.43584 18.5235 4.42057Z" fill="#1C274C"/>
<path d="M12.75 2.0277V4C12.75 4.41421 12.4142 4.75 12 4.75C11.5858 4.75 11.25 4.41421 11.25 4V2.0277C11.4976 2.00934 11.7477 2 12 2C12.2523 2 12.5024 2.00934 12.75 2.0277Z" fill="#1C274C"/>
</g>
</g>
</svg>
