<svg width="24" height="24" viewBox="0 0 24 24" fill="none" xmlns="http://www.w3.org/2000/svg">
<g id="Broken / Transport, Parts, Service / Spedometer Middle">
<path id="Vector" d="M9 21.5422C4.94289 20.2679 2 16.4776 2 12C2 6.47715 6.47715 2 12 2C17.5228 2 22 6.47715 22 12C22 16.4776 19.0571 20.2679 15 21.5422" stroke="#1C274C" stroke-width="1.5" stroke-linecap="round"/>
<path id="Vector_2" d="M19 19L17.5 17.5" stroke="#1C274C" stroke-width="1.5" stroke-linecap="round"/>
<path id="Vector_3" d="M19 5L17.5 6.5" stroke="#1C274C" stroke-width="1.5" stroke-linecap="round"/>
<path id="Vector_4" d="M5 19L6.5 17.5" stroke="#1C274C" stroke-width="1.5" stroke-linecap="round"/>
<path id="Vector_5" d="M5 5L6.5 6.5" stroke="#1C274C" stroke-width="1.5" stroke-linecap="round"/>
<path id="Vector_6" d="M2 12H4" stroke="#1C274C" stroke-width="1.5" stroke-linecap="round"/>
<path id="Vector_7" d="M19.9998 12L21.9998 12" stroke="#1C274C" stroke-width="1.5" stroke-linecap="round"/>
<path id="Vector_8" d="M12 4.00021L12 2.00021" stroke="#1C274C" stroke-width="1.5" stroke-linecap="round"/>
<path id="Vector_9" d="M15 11.9999C15 13.6567 13.6569 14.9999 12 14.9999C10.3431 14.9999 9 13.6567 9 11.9999C9 11.3696 9.43408 10.4954 9.972 9.65399C10.7764 8.39573 11.1786 7.7666 12 7.7666C12.8214 7.7666 13.2236 8.39573 14.028 9.65399C14.5659 10.4954 15 11.3696 15 11.9999Z" stroke="#1C274C" stroke-width="1.5"/>
</g>
</svg>
