<svg width="24" height="24" viewBox="0 0 24 24" fill="none" xmlns="http://www.w3.org/2000/svg">
<g id="Bold Duotone / Arrows / Square Arrow Left Up">
<path id="Vector" opacity="0.5" d="M3.46447 3.46447C4.92893 2 7.28595 2 12 2C16.714 2 19.0711 2 20.5355 3.46447C22 4.92893 22 7.28595 22 12C22 16.714 22 19.0711 20.5355 20.5355C19.0711 22 16.714 22 12 22C7.28595 22 4.92893 22 3.46447 20.5355C2 19.0711 2 16.714 2 12C2 7.28595 2 4.92893 3.46447 3.46447Z" fill="#1C274C"/>
<path id="Vector_2" d="M8.42139 9.17188C8.42139 8.75766 8.75717 8.42188 9.17139 8.42188L13.414 8.42188C13.8282 8.42187 14.164 8.75766 14.164 9.17188C14.164 9.58609 13.8282 9.92187 13.414 9.92188H10.982L15.3586 14.2984C15.6515 14.5913 15.6515 15.0662 15.3586 15.3591C15.0657 15.652 14.5908 15.652 14.2979 15.3591L9.92139 10.9825L9.92139 13.4145C9.92139 13.8287 9.5856 14.1645 9.17139 14.1645C8.75717 14.1645 8.42139 13.8287 8.42139 13.4145L8.42139 9.17188Z" fill="#1C274C"/>
</g>
</svg>
