<svg width="24" height="24" viewBox="0 0 24 24" fill="none" xmlns="http://www.w3.org/2000/svg">
<g id="Linear / Faces, Emotions, Stickers / Sticker Smile Circle">
<path id="Vector" d="M2 12C2 17.5228 6.47715 22 12 22C12.6477 22 13.2503 21.7004 13.7083 21.2424L21.2424 13.7083C21.7004 13.2503 22 12.6477 22 12C22 6.47715 17.5228 2 12 2C6.47715 2 2 6.47715 2 12Z" stroke="#1C274C" stroke-width="1.5"/>
<path id="Vector_2" d="M8.9126 15.9336C9.94668 16.1928 11.0951 16.2391 12.2688 16.0337" stroke="#1C274C" stroke-width="1.5" stroke-linecap="round"/>
<ellipse id="Vector_3" cx="14.5094" cy="9.77405" rx="1" ry="1.5" transform="rotate(-15 14.5094 9.77405)" fill="#1C274C"/>
<ellipse id="Vector_4" cx="8.71402" cy="11.3278" rx="1" ry="1.5" transform="rotate(-15 8.71402 11.3278)" fill="#1C274C"/>
<path id="Vector_5" d="M12 22C12 19.2071 12 17.8107 12.3928 16.688C13.0964 14.6773 14.6773 13.0964 16.688 12.3928C17.8107 12 19.2071 12 22 12" stroke="#1C274C" stroke-width="1.5"/>
</g>
</svg>
