<svg width="24" height="24" viewBox="0 0 24 24" fill="none" xmlns="http://www.w3.org/2000/svg">
<g id="Line Duotone / Weather / Sunrise">
<path id="Vector" d="M8 22H16" stroke="#1C274C" stroke-width="1.5" stroke-linecap="round" stroke-linejoin="round"/>
<path id="Vector_2" opacity="0.5" d="M5 19H19" stroke="#1C274C" stroke-width="1.5" stroke-linecap="round" stroke-linejoin="round"/>
<path id="Vector_3" d="M2 16H22" stroke="#1C274C" stroke-width="1.5" stroke-linecap="round" stroke-linejoin="round"/>
<path id="Vector_4" opacity="0.5" d="M12 6C8.68629 6 6 8.68629 6 12C6 13.5217 6.56645 14.911 7.5 15.9687H16.5C17.4335 14.911 18 13.5217 18 12C18 8.68629 15.3137 6 12 6Z" stroke="#1C274C" stroke-width="1.5"/>
<path id="Vector_5" d="M12 10L12.5303 9.46967C12.2374 9.17678 11.7626 9.17678 11.4697 9.46967L12 10ZM13.4697 12.5303C13.7626 12.8232 14.2374 12.8232 14.5303 12.5303C14.8232 12.2374 14.8232 11.7626 14.5303 11.4697L13.4697 12.5303ZM9.46967 11.4697C9.17678 11.7626 9.17678 12.2374 9.46967 12.5303C9.76256 12.8232 10.2374 12.8232 10.5303 12.5303L9.46967 11.4697ZM12.75 16V10H11.25V16H12.75ZM11.4697 10.5303L13.4697 12.5303L14.5303 11.4697L12.5303 9.46967L11.4697 10.5303ZM11.4697 9.46967L9.46967 11.4697L10.5303 12.5303L12.5303 10.5303L11.4697 9.46967Z" fill="#1C274C"/>
<path id="Vector_6" opacity="0.5" d="M12 2V3" stroke="#1C274C" stroke-width="1.5" stroke-linecap="round"/>
<path id="Vector_7" opacity="0.5" d="M22 12L21 12" stroke="#1C274C" stroke-width="1.5" stroke-linecap="round"/>
<path id="Vector_8" opacity="0.5" d="M3 12L2 12" stroke="#1C274C" stroke-width="1.5" stroke-linecap="round"/>
<path id="Vector_9" opacity="0.5" d="M19.0708 4.92969L18.678 5.32252" stroke="#1C274C" stroke-width="1.5" stroke-linecap="round"/>
<path id="Vector_10" opacity="0.5" d="M5.32178 5.32227L4.92894 4.92943" stroke="#1C274C" stroke-width="1.5" stroke-linecap="round"/>
</g>
</svg>
