<svg width="24" height="24" viewBox="0 0 24 24" fill="none" xmlns="http://www.w3.org/2000/svg">
<g id="Bold Duotone / Sports / Tennis 2">
<path id="Vector" opacity="0.5" d="M3.33946 16.9997C6.10089 21.7826 12.2168 23.4214 16.9997 20.66C18.9493 19.5344 20.3765 17.8514 21.1962 15.9286C22.3875 13.1341 22.2958 9.83304 20.66 6.99972C19.0242 4.1664 16.2112 2.43642 13.1955 2.07088C11.1204 1.81935 8.94932 2.21386 6.99972 3.33946C2.21679 6.10089 0.578039 12.2168 3.33946 16.9997Z" fill="#1C274C"/>
<g id="Vector_2">
<path d="M13.9407 2.18934C13.6942 2.14048 13.4458 2.10083 13.1959 2.07055C12.9452 2.04015 12.693 2.01919 12.44 2.00781C12.4304 2.05058 12.4191 2.10332 12.4067 2.1655C12.3719 2.33997 12.3287 2.58922 12.2913 2.90165C12.2421 3.31293 12.5355 3.68625 12.9468 3.73549C13.3581 3.78473 13.7314 3.49125 13.7807 3.07997C13.8131 2.80928 13.8499 2.59838 13.8778 2.45847C13.8917 2.38855 13.9034 2.33648 13.9111 2.30366C13.9149 2.28725 13.9178 2.27567 13.9194 2.26909L13.9207 2.26391L13.921 2.26279L13.9407 2.18934Z" fill="#1C274C"/>
<path d="M2.53418 8.77471C2.61522 8.53649 2.70524 8.30121 2.80409 8.06941C2.90305 7.83735 3.01087 7.60879 3.12737 7.38428C3.16926 7.39735 3.22065 7.41393 3.28079 7.43433C3.44926 7.49148 3.68672 7.57868 3.97599 7.70249C4.35679 7.86549 4.53336 8.30632 4.37036 8.68711C4.20737 9.06791 3.76654 9.24447 3.38575 9.08148C3.13511 8.9742 2.93404 8.90066 2.79895 8.85484C2.73144 8.83194 2.68051 8.816 2.64824 8.80626C2.6321 8.80139 2.62064 8.79807 2.61411 8.79621L2.60943 8.79488L2.53418 8.77471Z" fill="#1C274C"/>
<path d="M11.5606 21.991C11.3077 21.9796 11.0556 21.9587 10.805 21.9283C10.555 21.898 10.3065 21.8584 10.0599 21.8095L10.0796 21.7359L10.0799 21.7348L10.0812 21.7296C10.0829 21.723 10.0857 21.7114 10.0896 21.695C10.0973 21.6622 10.1089 21.6101 10.1229 21.5402C10.1507 21.4003 10.1876 21.1894 10.22 20.9187C10.2692 20.5074 10.6425 20.214 11.0538 20.2632C11.4651 20.3124 11.7586 20.6858 11.7093 21.097C11.6719 21.4095 11.6287 21.6587 11.594 21.8332C11.5816 21.8954 11.5702 21.9482 11.5606 21.991Z" fill="#1C274C"/>
<path d="M21.4661 15.2239C21.3852 15.4618 21.2953 15.6967 21.1966 15.9282C21.0976 16.1606 20.9896 16.3895 20.873 16.6143C20.8311 16.6013 20.7798 16.5847 20.7198 16.5644C20.5514 16.5072 20.3139 16.42 20.0246 16.2962C19.6438 16.1332 19.4673 15.6924 19.6303 15.3116C19.7933 14.9308 20.2341 14.7542 20.6149 14.9172C20.8655 15.0245 21.0666 15.098 21.2017 15.1438C21.2692 15.1667 21.3201 15.1827 21.3524 15.1924C21.3685 15.1973 21.38 15.2006 21.3865 15.2025L21.391 15.2038L21.4661 15.2239Z" fill="#1C274C"/>
<path d="M13.754 5.41394C13.7164 5.00143 13.3516 4.69749 12.9391 4.73506C12.5266 4.77263 12.2226 5.13749 12.2602 5.54999C12.3153 6.15522 12.4176 6.81384 12.5895 7.50755C12.6892 7.9096 13.0959 8.15476 13.4979 8.05513C13.9 7.95549 14.1451 7.5488 14.0455 7.14674C13.8935 6.53324 13.8028 5.95021 13.754 5.41394Z" fill="#1C274C"/>
<path d="M6.28509 8.99972C5.94663 8.76092 5.47868 8.84172 5.23989 9.18018C5.0011 9.51863 5.0819 9.98658 5.42035 10.2254C5.86036 10.5358 6.31997 10.9058 6.77525 11.3442C7.07363 11.6315 7.54841 11.6226 7.83573 11.3242C8.12304 11.0258 8.11407 10.551 7.8157 10.2637C7.30089 9.768 6.78167 9.35007 6.28509 8.99972Z" fill="#1C274C"/>
<path d="M14.8373 9.34684C14.6579 8.97349 14.2098 8.81624 13.8365 8.99563C13.4631 9.17501 13.3059 9.6231 13.4853 9.99645C13.6251 10.2875 13.7792 10.5805 13.9489 10.8743C14.1185 11.1682 14.2952 11.4481 14.4774 11.7148C14.711 12.0568 15.1777 12.1447 15.5197 11.911C15.8617 11.6774 15.9496 11.2107 15.7159 10.8687C15.5548 10.6328 15.3983 10.3849 15.2479 10.1243C15.0975 9.8638 14.961 9.60432 14.8373 9.34684Z" fill="#1C274C"/>
<path d="M9.52329 12.2839C9.28965 11.9419 8.82297 11.854 8.48094 12.0877C8.13891 12.3213 8.05105 12.788 8.28469 13.13C8.44582 13.3659 8.6023 13.6138 8.75272 13.8743C8.90315 14.1349 9.03962 14.3944 9.16333 14.6518C9.34271 15.0252 9.7908 15.1824 10.1642 15.0031C10.5375 14.8237 10.6947 14.3756 10.5154 14.0022C10.3755 13.7112 10.2214 13.4182 10.0518 13.1243C9.88212 12.8305 9.70543 12.5506 9.52329 12.2839Z" fill="#1C274C"/>
<path d="M17.2254 12.6545C16.927 12.3671 16.4522 12.3761 16.1649 12.6745C15.8776 12.9729 15.8866 13.4476 16.1849 13.735C16.6998 14.2307 17.219 14.6486 17.7155 14.999C18.054 15.2378 18.522 15.157 18.7607 14.8185C18.9995 14.4801 18.9187 14.0121 18.5803 13.7733C18.1403 13.4629 17.6807 13.0929 17.2254 12.6545Z" fill="#1C274C"/>
<path d="M11.4111 16.4911C11.3115 16.0891 10.9048 15.8439 10.5027 15.9436C10.1007 16.0432 9.8555 16.4499 9.95514 16.8519C10.1072 17.4654 10.1978 18.0485 10.2466 18.5847C10.2842 18.9972 10.6491 19.3012 11.0616 19.2636C11.4741 19.2261 11.778 18.8612 11.7405 18.4487C11.6853 17.8435 11.583 17.1848 11.4111 16.4911Z" fill="#1C274C"/>
</g>
</g>
</svg>
