<svg width="24" height="24" viewBox="0 0 24 24" fill="none" xmlns="http://www.w3.org/2000/svg">
<g id="Bold Duotone / Text Formatting / Text Bold">
<path id="Vector (Stroke)" fill-rule="evenodd" clip-rule="evenodd" d="M4 4.6087C4 2.61567 5.61567 1 7.6087 1H12C15.3137 1 18 3.68629 18 7C18 10.3137 15.3137 13 12 13H4V4.6087ZM7.6087 3C6.72024 3 6 3.72024 6 4.6087V11H12C14.2091 11 16 9.20914 16 7C16 4.79086 14.2091 3 12 3H7.6087Z" fill="#1C274C"/>
<path id="Subtract" opacity="0.5" d="M4 12.9999V19.9411C4 21.6305 5.36948 22.9999 7.05882 22.9999H14C17.3137 22.9999 20 20.3137 20 16.9999C20 14.4259 18.3791 12.2304 16.1022 11.3785C15.0293 12.3842 13.5866 12.9999 12 12.9999H14C16.2091 12.9999 18 14.7908 18 16.9999C18 19.2091 16.2091 20.9999 14 20.9999H7.05882C6.47405 20.9999 6 20.5259 6 19.9411V12.9999H4Z" fill="#1C274C"/>
</g>
</svg>
