<svg width="24" height="24" viewBox="0 0 24 24" fill="none" xmlns="http://www.w3.org/2000/svg">
<g id="Bold Duotone / Text Formatting / Text Italic Circle">
<path id="Subtract" opacity="0.5" d="M12 2C6.47715 2 2 6.47715 2 12C2 17.5228 6.47715 22 12 22C17.5228 22 22 17.5228 22 12C22 6.47715 17.5228 2 12 2Z" fill="#1C274C"/>
<path id="Subtract_2" d="M10.6667 6.24994H13.3162C13.3273 6.24969 13.3384 6.24969 13.3495 6.24994H16C16.4142 6.24994 16.75 6.58573 16.75 6.99994C16.75 7.41416 16.4142 7.74994 16 7.74994H13.9095L11.6429 16.2499H13.3333C13.7475 16.2499 14.0833 16.5857 14.0833 16.9999C14.0833 17.4142 13.7475 17.7499 13.3333 17.7499H10.6838C10.6727 17.7502 10.6616 17.7502 10.6505 17.7499H8C7.58579 17.7499 7.25 17.4142 7.25 16.9999C7.25 16.5857 7.58579 16.2499 8 16.2499H10.0905L12.3571 7.74994H10.6667C10.2525 7.74994 9.91667 7.41416 9.91667 6.99994C9.91667 6.58573 10.2525 6.24994 10.6667 6.24994Z" fill="#1C274C"/>
</g>
</svg>
