<svg width="24" height="24" viewBox="0 0 24 24" fill="none" xmlns="http://www.w3.org/2000/svg">
<g id="Line Duotone / Transport, Parts, Service / Transmission">
<path id="Vector" d="M6 4C6 5.10457 5.10457 6 4 6C2.89543 6 2 5.10457 2 4C2 2.89543 2.89543 2 4 2C5.10457 2 6 2.89543 6 4Z" stroke="#1C274C" stroke-width="1.5"/>
<path id="Vector_2" d="M6 20C6 21.1046 5.10457 22 4 22C2.89543 22 2 21.1046 2 20C2 18.8954 2.89543 18 4 18C5.10457 18 6 18.8954 6 20Z" stroke="#1C274C" stroke-width="1.5"/>
<path id="Vector_3" d="M14 20C14 21.1046 13.1046 22 12 22C10.8954 22 10 21.1046 10 20C10 18.8954 10.8954 18 12 18C13.1046 18 14 18.8954 14 20Z" stroke="#1C274C" stroke-width="1.5"/>
<path id="Vector_4" d="M14 4C14 5.10457 13.1046 6 12 6C10.8954 6 10 5.10457 10 4C10 2.89543 10.8954 2 12 2C13.1046 2 14 2.89543 14 4Z" stroke="#1C274C" stroke-width="1.5"/>
<path id="Vector_5" d="M22 4C22 5.10457 21.1046 6 20 6C18.8954 6 18 5.10457 18 4C18 2.89543 18.8954 2 20 2C21.1046 2 22 2.89543 22 4Z" stroke="#1C274C" stroke-width="1.5"/>
<path id="Vector_6" opacity="0.5" d="M4.75 6C4.75 5.58579 4.41421 5.25 4 5.25C3.58579 5.25 3.25 5.58579 3.25 6H4.75ZM3.25 18C3.25 18.4142 3.58579 18.75 4 18.75C4.41421 18.75 4.75 18.4142 4.75 18H3.25ZM12.75 6C12.75 5.58579 12.4142 5.25 12 5.25C11.5858 5.25 11.25 5.58579 11.25 6H12.75ZM11.25 18C11.25 18.4142 11.5858 18.75 12 18.75C12.4142 18.75 12.75 18.4142 12.75 18H11.25ZM20.75 6C20.75 5.58579 20.4142 5.25 20 5.25C19.5858 5.25 19.25 5.58579 19.25 6H20.75ZM4 11.25C3.58579 11.25 3.25 11.5858 3.25 12C3.25 12.4142 3.58579 12.75 4 12.75V11.25ZM19.4142 11.4142L18.8839 10.8839L18.8839 10.8839L19.4142 11.4142ZM3.25 6V18H4.75V6H3.25ZM11.25 6V18H12.75V6H11.25ZM19.25 6V8H20.75V6H19.25ZM16 11.25H4V12.75H16V11.25ZM19.25 8C19.25 8.96401 19.2484 9.61157 19.1835 10.0946C19.1214 10.5561 19.0142 10.7536 18.8839 10.8839L19.9445 11.9445C20.4 11.4891 20.5857 10.9223 20.6701 10.2945C20.7516 9.68826 20.75 8.92161 20.75 8H19.25ZM16 12.75C16.9216 12.75 17.6883 12.7516 18.2945 12.6701C18.9223 12.5857 19.4891 12.4 19.9445 11.9445L18.8839 10.8839C18.7536 11.0142 18.5561 11.1214 18.0946 11.1835C17.6116 11.2484 16.964 11.25 16 11.25V12.75Z" fill="#1C274C"/>
<path id="Vector_7" d="M18 15V14.25C17.5858 14.25 17.25 14.5858 17.25 15H18ZM17.25 22C17.25 22.4142 17.5858 22.75 18 22.75C18.4142 22.75 18.75 22.4142 18.75 22H17.25ZM21.3604 22.3916C21.5766 22.7449 22.0384 22.8559 22.3916 22.6396C22.7449 22.4234 22.8559 21.9616 22.6396 21.6084L21.3604 22.3916ZM18 15.75H20.2857V14.25H18V15.75ZM18.75 18.5V15H17.25V18.5H18.75ZM21.25 16.75C21.25 17.3169 20.8038 17.75 20.2857 17.75V19.25C21.6612 19.25 22.75 18.1161 22.75 16.75H21.25ZM20.2857 15.75C20.8038 15.75 21.25 16.1831 21.25 16.75H22.75C22.75 15.3839 21.6612 14.25 20.2857 14.25V15.75ZM20.2857 17.75H19.8571V19.25H20.2857V17.75ZM19.8571 17.75H18V19.25H19.8571V17.75ZM19.2175 18.8916L21.3604 22.3916L22.6396 21.6084L20.4968 18.1084L19.2175 18.8916ZM17.25 18.5V22H18.75V18.5H17.25Z" fill="#1C274C"/>
</g>
</svg>
