<svg width="24" height="24" viewBox="0 0 24 24" fill="none" xmlns="http://www.w3.org/2000/svg">
<g id="Line Duotone / Electronic, Devices / Turntable Music Note">
<path id="Vector" d="M12 22C7.28595 22 4.92893 22 3.46447 20.5355C2 19.0711 2 16.714 2 12C2 7.28595 2 4.92893 3.46447 3.46447C4.92893 2 7.28595 2 12 2C16.714 2 19.0711 2 20.5355 3.46447C21.7764 4.70529 21.9658 6.58687 21.9948 10" stroke="#1C274C" stroke-width="1.5" stroke-linecap="round"/>
<path id="Vector_2" d="M19 20V16V12" stroke="#1C274C" stroke-width="1.5" stroke-linecap="round"/>
<circle id="Vector_3" cx="17" cy="20" r="2" stroke="#1C274C" stroke-width="1.5"/>
<path id="Vector_4" d="M22 15C20.3431 15 19 13.6569 19 12" stroke="#1C274C" stroke-width="1.5" stroke-linecap="round"/>
<path id="Vector_5" opacity="0.5" d="M9 12C9 10.3431 10.3431 9 12 9C13.6569 9 15 10.3431 15 12C15 13.6569 13.6569 15 12 15C10.3431 15 9 13.6569 9 12Z" stroke="#1C274C" stroke-width="1.5"/>
</g>
</svg>
