<svg width="24" height="24" viewBox="0 0 24 24" fill="none" xmlns="http://www.w3.org/2000/svg">
<g id="Broken / Astronomy / UFO 3">
<path id="Vector" d="M3.636 20.3635L7.75732 16.2422" stroke="#1C274C" stroke-width="1.5" stroke-linecap="round"/>
<path id="Vector_2" d="M9.99976 21.9995L12.707 19.7781" stroke="#1C274C" stroke-width="1.5" stroke-linecap="round"/>
<path id="Vector_3" d="M2.00024 14L4.22192 11.293" stroke="#1C274C" stroke-width="1.5" stroke-linecap="round"/>
<path id="Vector_4" d="M7.85635 4C9.00545 4.0891 10.4349 4.63632 11.9467 5.56025M5.27368 6.58267C5.4389 8.71337 7.1792 11.8079 9.97569 14.6044C13.8821 18.5108 18.3701 20.3563 20 18.7264C20.8256 17.9008 20.7596 16.3421 19.9858 14.497C19.7357 13.9007 19.4116 13.2745 19.0199 12.6334M14.2184 10.362C11.9622 8.10581 11.4919 6.88372 11.4026 6.38717C11.3713 6.21268 11.4554 6.05189 11.5807 5.92656C13.4274 4.07986 16.4219 4.0803 18.2692 5.92754L18.6529 6.31124C20.5001 8.15848 20.5006 11.153 18.6539 12.9997C18.5285 13.125 18.3674 13.2091 18.1929 13.1777C17.8559 13.1171 17.1854 12.8811 16.0851 12.0319" stroke="#1C274C" stroke-width="1.5" stroke-linecap="round"/>
<g id="Vector_5">
<path d="M13.0285 13.2712C12.6379 13.6617 12.0048 13.6617 11.6142 13.2712C11.2237 12.8807 11.2237 12.2475 11.6142 11.857C12.0048 11.4665 12.6379 11.4665 13.0285 11.857C13.419 12.2475 13.419 12.8807 13.0285 13.2712Z" fill="#1C274C"/>
<path d="M10.2 9.02855C9.8095 9.41907 9.17634 9.41907 8.78581 9.02855C8.39529 8.63802 8.39529 8.00486 8.78581 7.61433C9.17634 7.22381 9.8095 7.22381 10.2 7.61433C10.5906 8.00486 10.5906 8.63802 10.2 9.02855Z" fill="#1C274C"/>
<path d="M17.2711 16.0996C16.8806 16.4901 16.2474 16.4901 15.8569 16.0996C15.4664 15.7091 15.4664 15.0759 15.8569 14.6854C16.2474 14.2949 16.8806 14.2949 17.2711 14.6854C17.6616 15.0759 17.6616 15.7091 17.2711 16.0996Z" fill="#1C274C"/>
</g>
</g>
</svg>
