<svg width="24" height="24" viewBox="0 0 24 24" fill="none" xmlns="http://www.w3.org/2000/svg">
<g id="Bold / Users / User Check">
<g id="Vector">
<path d="M15 6C15 8.20914 13.2091 10 11 10C8.79086 10 7 8.20914 7 6C7 3.79086 8.79086 2 11 2C13.2091 2 15 3.79086 15 6Z" fill="#1C274C"/>
<path d="M19 17.5C19 19.9853 19 22 11 22C3 22 3 19.9853 3 17.5C3 15.0147 6.58172 13 11 13C15.4183 13 19 15.0147 19 17.5Z" fill="#1C274C"/>
<path d="M21.5606 8.99827C21.8357 8.68869 21.8079 8.21463 21.4983 7.93944C21.1887 7.66425 20.7146 7.69214 20.4394 8.00173L18.2741 10.4377L17.5017 9.74253C17.1938 9.46544 16.7196 9.49039 16.4425 9.79828C16.1654 10.1062 16.1904 10.5804 16.4983 10.8575L17.8316 12.0575C17.9801 12.1911 18.1757 12.26 18.3751 12.2488C18.5745 12.2377 18.7612 12.1475 18.8939 11.9983L21.5606 8.99827Z" fill="#1C274C"/>
</g>
</g>
</svg>
