<svg width="24" height="24" viewBox="0 0 24 24" fill="none" xmlns="http://www.w3.org/2000/svg">
<g id="Outline / Users / User Speak">
<g id="Vector">
<path d="M18.357 1.61413C18.5701 1.25895 19.0308 1.14378 19.386 1.35689L19.0001 2.00001C19.386 1.35689 19.3857 1.35668 19.386 1.35689L19.3874 1.35772L19.389 1.35867L19.3927 1.36093L19.4023 1.36684C19.4096 1.37142 19.4189 1.37726 19.4299 1.38438C19.4519 1.39861 19.481 1.41798 19.5162 1.44261C19.5865 1.49183 19.6815 1.56234 19.7928 1.65509C20.0149 1.84018 20.3053 2.11667 20.5946 2.49272C21.1775 3.25046 21.7501 4.40735 21.7501 6.00001C21.7501 7.59266 21.1775 8.74955 20.5946 9.50729C20.3053 9.88334 20.0149 10.1598 19.7928 10.3449C19.6815 10.4377 19.5865 10.5082 19.5162 10.5574C19.481 10.582 19.4519 10.6014 19.4299 10.6156C19.4189 10.6228 19.4096 10.6286 19.4023 10.6332L19.3927 10.6391L19.389 10.6413L19.3874 10.6423C19.3871 10.6425 19.386 10.6431 19.0001 10L19.386 10.6431C19.0308 10.8562 18.5701 10.7411 18.357 10.3859C18.1448 10.0322 18.2581 9.57388 18.6098 9.35959L18.6153 9.35606C18.6226 9.35134 18.6365 9.3422 18.656 9.32855C18.695 9.30121 18.7563 9.25609 18.8325 9.19259C18.9854 9.06518 19.1949 8.86667 19.4057 8.59272C19.8228 8.05046 20.2501 7.20735 20.2501 6.00001C20.2501 4.79266 19.8228 3.94955 19.4057 3.40729C19.1949 3.13334 18.9854 2.93483 18.8325 2.80742C18.7563 2.74393 18.695 2.6988 18.656 2.67146C18.6365 2.65781 18.6226 2.64867 18.6153 2.64396L18.6098 2.64043C18.2581 2.42614 18.1448 1.96783 18.357 1.61413Z" fill="#1C274C"/>
<path fill-rule="evenodd" clip-rule="evenodd" d="M10.0001 1.25001C7.37678 1.25001 5.25013 3.37665 5.25013 6.00001C5.25013 8.62336 7.37678 10.75 10.0001 10.75C12.6235 10.75 14.7501 8.62336 14.7501 6.00001C14.7501 3.37665 12.6235 1.25001 10.0001 1.25001ZM6.75013 6.00001C6.75013 4.20508 8.20521 2.75001 10.0001 2.75001C11.7951 2.75001 13.2501 4.20508 13.2501 6.00001C13.2501 7.79493 11.7951 9.25001 10.0001 9.25001C8.20521 9.25001 6.75013 7.79493 6.75013 6.00001Z" fill="#1C274C"/>
<path fill-rule="evenodd" clip-rule="evenodd" d="M10.0001 12.25C7.68658 12.25 5.55506 12.7759 3.97558 13.6643C2.41962 14.5396 1.25013 15.8661 1.25013 17.5L1.25007 17.602C1.24894 18.7638 1.24752 20.222 2.52655 21.2635C3.15602 21.7761 4.03661 22.1407 5.22634 22.3815C6.4194 22.623 7.97436 22.75 10.0001 22.75C12.0259 22.75 13.5809 22.623 14.7739 22.3815C15.9637 22.1407 16.8443 21.7761 17.4737 21.2635C18.7527 20.222 18.7513 18.7638 18.7502 17.602L18.7501 17.5C18.7501 15.8661 17.5807 14.5396 16.0247 13.6643C14.4452 12.7759 12.3137 12.25 10.0001 12.25ZM2.75013 17.5C2.75013 16.6487 3.37151 15.7252 4.71098 14.9717C6.02693 14.2315 7.89541 13.75 10.0001 13.75C12.1049 13.75 13.9733 14.2315 15.2893 14.9717C16.6288 15.7252 17.2501 16.6487 17.2501 17.5C17.2501 18.8078 17.2098 19.544 16.5265 20.1004C16.156 20.4022 15.5366 20.6967 14.4763 20.9113C13.4194 21.1252 11.9744 21.25 10.0001 21.25C8.02591 21.25 6.58087 21.1252 5.52393 20.9113C4.46366 20.6967 3.84425 20.4022 3.47372 20.1004C2.79045 19.544 2.75013 18.8078 2.75013 17.5Z" fill="#1C274C"/>
<path d="M17.386 3.35689C17.0308 3.14378 16.5701 3.25895 16.357 3.61413L16.6052 4.63763L16.613 4.64295C16.6247 4.65115 16.6469 4.66736 16.6762 4.6918C16.7354 4.74108 16.8199 4.82084 16.9057 4.93229C17.0728 5.14955 17.2501 5.49266 17.2501 6.00001C17.2501 6.50735 17.0728 6.85046 16.9057 7.06772C16.8199 7.17917 16.7354 7.25893 16.6762 7.30822C16.6469 7.33265 16.6247 7.34887 16.613 7.35707L16.6052 7.36238C16.2571 7.57784 16.1457 8.03372 16.357 8.38588C16.5701 8.74106 17.0308 8.85624 17.386 8.64313L17.0001 8.00001C17.386 8.64313 17.3857 8.64333 17.386 8.64313L17.3873 8.64232L17.3888 8.64145L17.3919 8.63953L17.3994 8.63493L17.4186 8.62272C17.4333 8.61322 17.4517 8.60098 17.4732 8.58591C17.5162 8.55584 17.5721 8.51424 17.6365 8.46055C17.7649 8.35358 17.9303 8.19584 18.0946 7.98229C18.4275 7.54955 18.7501 6.89266 18.7501 6.00001C18.7501 5.10735 18.4275 4.45046 18.0946 4.01772C17.9303 3.80417 17.7649 3.64643 17.6365 3.53947C17.5721 3.48577 17.5162 3.44418 17.4732 3.4141C17.4517 3.39904 17.4333 3.38679 17.4186 3.3773L17.3994 3.36508L17.3919 3.36049L17.3888 3.35856L17.3873 3.35769C17.387 3.35749 17.386 3.35689 17.0001 4.00001L17.386 3.35689Z" fill="#1C274C"/>
</g>
</g>
</svg>
