<svg width="24" height="24" viewBox="0 0 24 24" fill="none" xmlns="http://www.w3.org/2000/svg">
<g id="Bold / Users / User Minus Rounded">
<circle id="Vector" cx="12" cy="6" r="4" fill="#1C274C"/>
<path id="Vector_2" fill-rule="evenodd" clip-rule="evenodd" d="M16.8359 18.5C16.8359 18.0858 17.1717 17.75 17.5859 17.75H20.4144C20.8286 17.75 21.1644 18.0858 21.1644 18.5C21.1644 18.9142 20.8286 19.25 20.4144 19.25H17.5859C17.1717 19.25 16.8359 18.9142 16.8359 18.5Z" fill="#1C274C"/>
<path id="Vector_3" d="M18.8768 16.25H17.5859C16.3433 16.25 15.3359 17.2574 15.3359 18.5C15.3359 19.1931 15.6494 19.8131 16.1422 20.2258C14.9824 20.7131 13.55 21.001 12 21.001C8.13401 21.001 5 19.2101 5 17.001C5 14.7918 8.13401 13.001 12 13.001C15.4168 13.001 18.2618 14.3998 18.8768 16.25Z" fill="#1C274C"/>
</g>
</svg>
