<svg width="24" height="24" viewBox="0 0 24 24" fill="none" xmlns="http://www.w3.org/2000/svg">
<g id="Line Duotone / Home, Furniture / Volume Knob">
<circle id="Vector" cx="12" cy="12" r="5" stroke="#1C274C" stroke-width="1.5"/>
<path id="Vector_2" opacity="0.5" d="M12 7V11" stroke="#1C274C" stroke-width="1.5" stroke-linecap="round"/>
<path id="Vector_3" d="M13 3.5C13 4.05228 12.5523 4.5 12 4.5C11.4477 4.5 11 4.05228 11 3.5C11 2.94772 11.4477 2.5 12 2.5C12.5523 2.5 13 2.94772 13 3.5Z" fill="#1C274C"/>
<path id="Vector_4" opacity="0.5" d="M20.5 13C19.9477 13 19.5 12.5523 19.5 12C19.5 11.4477 19.9477 11 20.5 11C21.0523 11 21.5 11.4477 21.5 12C21.5 12.5523 21.0523 13 20.5 13Z" fill="#1C274C"/>
<path id="Vector_5" opacity="0.5" d="M3.5 13C2.94772 13 2.5 12.5523 2.5 12C2.5 11.4477 2.94772 11 3.5 11C4.05228 11 4.5 11.4477 4.5 12C4.5 12.5523 4.05228 13 3.5 13Z" fill="#1C274C"/>
<path id="Vector_6" opacity="0.5" d="M6.69661 5.2824C7.08713 5.67292 7.08713 6.30608 6.69661 6.69661C6.30608 7.08713 5.67292 7.08713 5.2824 6.69661C4.89187 6.30608 4.89187 5.67292 5.2824 5.2824C5.67292 4.89187 6.30608 4.89187 6.69661 5.2824Z" fill="#1C274C"/>
<path id="Vector_7" opacity="0.5" d="M18.7176 17.3034C19.1081 17.6939 19.1081 18.3271 18.7176 18.7176C18.3271 19.1081 17.6939 19.1081 17.3034 18.7176C16.9129 18.3271 16.9129 17.6939 17.3034 17.3034C17.6939 16.9129 18.3271 16.9129 18.7176 17.3034Z" fill="#1C274C"/>
<path id="Vector_8" opacity="0.5" d="M18.7176 6.69661C18.3271 7.08713 17.6939 7.08713 17.3034 6.69661C16.9129 6.30608 16.9129 5.67292 17.3034 5.2824C17.6939 4.89187 18.3271 4.89187 18.7176 5.2824C19.1081 5.67292 19.1081 6.30608 18.7176 6.69661Z" fill="#1C274C"/>
<path id="Vector_9" opacity="0.5" d="M6.69661 18.7176C6.30608 19.1081 5.67292 19.1081 5.2824 18.7176C4.89187 18.3271 4.89187 17.6939 5.2824 17.3034C5.67292 16.9129 6.30608 16.9129 6.69661 17.3034C7.08713 17.6939 7.08713 18.3271 6.69661 18.7176Z" fill="#1C274C"/>
</g>
</svg>
