<svg width="24" height="24" viewBox="0 0 24 24" fill="none" xmlns="http://www.w3.org/2000/svg">
<g id="Bold Duotone / Video, Audio, Sound / Wallpaper">
<g id="Vector">
<path d="M15.7212 7.34884C15.7212 8.37634 14.8883 9.2093 13.8608 9.2093C12.8333 9.2093 12.0003 8.37634 12.0003 7.34884C12.0003 6.32133 12.8333 5.48837 13.8608 5.48837C14.8883 5.48837 15.7212 6.32133 15.7212 7.34884Z" fill="#1C274C"/>
<path fill-rule="evenodd" clip-rule="evenodd" d="M16.0856 2.10839C15.2792 1.99997 14.2538 1.99998 12.9816 2H11.019C9.74685 1.99998 8.72144 1.99997 7.91496 2.10839C7.07765 2.22097 6.37266 2.4618 5.81274 3.02172C5.25281 3.58164 5.01198 4.28664 4.89941 5.12395C4.79098 5.93043 4.791 6.95585 4.79102 8.22802V15.772C4.791 17.0442 4.79098 18.0696 4.89941 18.876C5.01198 19.7134 5.25281 20.4184 5.81274 20.9783C6.37266 21.5382 7.07765 21.779 7.91496 21.8916C8.72144 22 9.74686 22 11.019 22H12.9816C14.2538 22 15.2792 22 16.0856 21.8916C16.923 21.779 17.628 21.5382 18.1879 20.9783C18.7478 20.4184 18.9886 19.7134 19.1012 18.876C19.2096 18.0696 19.2096 17.0441 19.2096 15.772V8.22803C19.2096 6.95585 19.2096 5.93044 19.1012 5.12395C18.9886 4.28664 18.7478 3.58164 18.1879 3.02172C17.628 2.4618 16.923 2.22097 16.0856 2.10839ZM16.8088 16.6302L17.7949 17.6708C17.8137 17.134 17.8142 16.4954 17.8142 15.7209V8.27907C17.8142 6.9438 17.8128 6.01253 17.7183 5.30988C17.6265 4.6273 17.4587 4.26584 17.2012 4.00838C16.9438 3.75093 16.5823 3.58307 15.8997 3.4913C15.1971 3.39683 14.2658 3.39535 12.9305 3.39535H11.0701C9.73481 3.39535 8.80354 3.39683 8.10089 3.4913C7.41831 3.58307 7.05685 3.75093 6.79939 4.00838C6.54194 4.26584 6.37408 4.6273 6.28231 5.30988C6.18784 6.01253 6.18636 6.9438 6.18636 8.27907V12.904L6.18966 12.9007C7.10649 11.96 8.52488 12.0245 9.37301 13.019L12.3133 16.4668C12.5488 16.7429 12.8587 16.7555 13.0964 16.5596L13.3008 16.3912C14.3767 15.5045 15.852 15.6204 16.8088 16.6302Z" fill="#1C274C"/>
</g>
<g id="Vector_2" opacity="0.5">
<path d="M5.01606 4.5H5C4.5355 4.5 4.30325 4.5 4.10891 4.53078C3.03918 4.70021 2.20021 5.53918 2.03078 6.60891C2 6.80325 2 7.0355 2 7.5V16.5C2 16.9645 2 17.1968 2.03078 17.3911C2.20021 18.4608 3.03918 19.2998 4.10891 19.4692C4.30325 19.5 4.5355 19.5 5 19.5H5.01606C4.96635 19.301 4.92858 19.093 4.89941 18.876C4.79098 18.0696 4.791 17.0442 4.79102 15.772V8.22802C4.791 6.95585 4.79098 5.93043 4.89941 5.12395C4.92858 4.90701 4.96635 4.69895 5.01606 4.5Z" fill="#1C274C"/>
<path d="M18.9845 19.5C19.0343 19.301 19.072 19.093 19.1012 18.876C19.2096 18.0696 19.2096 17.0442 19.2096 15.772V8.22803C19.2096 6.95588 19.2096 5.93042 19.1012 5.12395C19.072 4.90701 19.0343 4.69895 18.9845 4.5H19C19.4645 4.5 19.6968 4.5 19.8911 4.53078C20.9608 4.70021 21.7998 5.53918 21.9692 6.60891C22 6.80325 22 7.0355 22 7.5V16.5C22 16.9645 22 17.1968 21.9692 17.3911C21.7998 18.4608 20.9608 19.2998 19.8911 19.4692C19.6968 19.5 19.4645 19.5 19 19.5H18.9845Z" fill="#1C274C"/>
</g>
</g>
</svg>
