<svg width="24" height="24" viewBox="0 0 24 24" fill="none" xmlns="http://www.w3.org/2000/svg">
<g id="Broken / Time / Watch Square Minimalistic">
<path id="Vector" d="M12 9V12.0769L14 14" stroke="#1C274C" stroke-width="1.5" stroke-linecap="round" stroke-linejoin="round"/>
<path id="Vector_2" d="M7 2H17" stroke="#1C274C" stroke-width="1.5" stroke-linecap="round"/>
<path id="Vector_3" d="M7 22H17" stroke="#1C274C" stroke-width="1.5" stroke-linecap="round"/>
<path id="Vector_4" d="M18.9614 9.2C18.8849 7.66459 18.6565 6.70674 17.9749 6.02513C16.9497 5 15.2998 5 12 5C8.70017 5 7.05025 5 6.02513 6.02513C5 7.05025 5 8.70017 5 12C5 15.2998 5 16.9497 6.02513 17.9749C7.05025 19 8.70017 19 12 19C15.2998 19 16.9497 19 17.9749 17.9749C18.7678 17.1819 18.9474 16.0151 18.9881 14" stroke="#1C274C" stroke-width="1.5" stroke-linecap="round"/>
</g>
</svg>
