<svg width="24" height="24" viewBox="0 0 24 24" fill="none" xmlns="http://www.w3.org/2000/svg">
<g id="Linear / Video, Audio, Sound / Microphone 2">
<path id="Vector" d="M7 8C7 5.23858 9.23858 3 12 3C14.7614 3 17 5.23858 17 8V11C17 13.7614 14.7614 16 12 16C9.23858 16 7 13.7614 7 11V8Z" stroke="#1C274C" stroke-width="1.5"/>
<path id="Vector_2" d="M13.5 8L17 8" stroke="#1C274C" stroke-width="1.5" stroke-linecap="round"/>
<path id="Vector_3" d="M13.5 11L17 11" stroke="#1C274C" stroke-width="1.5" stroke-linecap="round"/>
<path id="Vector_4" d="M7 8L9 8" stroke="#1C274C" stroke-width="1.5" stroke-linecap="round"/>
<path id="Vector_5" d="M7 11L9 11" stroke="#1C274C" stroke-width="1.5" stroke-linecap="round"/>
<path id="Vector_6" d="M20 10V11C20 15.4183 16.4183 19 12 19C7.58172 19 4 15.4183 4 11V10" stroke="#1C274C" stroke-width="1.5" stroke-linecap="round"/>
<path id="Vector_7" d="M12 19V22" stroke="#1C274C" stroke-width="1.5" stroke-linecap="round"/>
</g>
</svg>
