<svg width="24" height="24" viewBox="0 0 24 24" fill="none" xmlns="http://www.w3.org/2000/svg">
<g id="Line Duotone / Sports / Bicycling ">
<circle id="Vector" cx="15" cy="4" r="2" stroke="#1C274C" stroke-width="1.5"/>
<circle id="Vector_2" opacity="0.4" cx="6" cy="18" r="3" stroke="#1C274C" stroke-width="1.5"/>
<circle id="Vector_3" opacity="0.4" cx="18" cy="18" r="3" stroke="#1C274C" stroke-width="1.5"/>
<path id="Vector_4" d="M18.5 9.99951H16.4744C15.2534 9.99951 14.6429 9.99951 14.0934 9.77292C13.544 9.54633 13.111 9.11597 12.2449 8.25524L11.6676 7.68145C10.8828 6.90152 10.4904 6.51155 10.0257 6.5539C9.56102 6.59624 9.24559 7.05071 8.61471 7.95964L7.38809 9.72689C6.74573 10.6524 6.42454 11.1151 6.55348 11.5698C6.68242 12.0246 7.1987 12.2498 8.23125 12.7004L9.70695 13.3443C11.0709 13.9394 11.7529 14.237 12.081 14.8369C12.4091 15.4368 12.2918 16.1715 12.0572 17.6411L12 17.9995" stroke="#1C274C" stroke-width="1.5" stroke-linecap="round"/>
</g>
</svg>
