<svg width="24" height="24" viewBox="0 0 24 24" fill="none" xmlns="http://www.w3.org/2000/svg">
<g id="Linear / Sports / Hiking">
<circle id="Vector" cx="11.5" cy="4.5" r="2.5" stroke="#1C274C" stroke-width="1.5"/>
<path id="Vector_2" d="M9 17.5L6 22" stroke="#1C274C" stroke-width="1.5" stroke-linecap="round"/>
<path id="Vector_3" d="M10.3752 11.2459L11.1214 11.3205L10.3752 11.2459ZM10.213 12.8676L10.9593 12.9422L10.213 12.8676ZM14.0028 11.3355L13.5226 11.9117L13.5226 11.9117L14.0028 11.3355ZM14.0841 11.4033L14.5643 10.8272L14.5643 10.8272L14.0841 11.4033ZM17.9154 11.4033L17.4353 10.8272L17.9154 11.4033ZM19.4799 11.0759C19.7981 10.8107 19.8411 10.3378 19.5759 10.0196C19.3108 9.70135 18.8378 9.65836 18.5196 9.92353L19.4799 11.0759ZM14.2279 20.0638L14.975 19.9973L14.2279 20.0638ZM13.6531 22.0662C13.6898 22.4787 14.054 22.7835 14.4666 22.7467C14.8792 22.71 15.1839 22.3458 15.1472 21.9332L13.6531 22.0662ZM15.3139 12.275L15.0567 12.9795L15.0567 12.9795L15.3139 12.275ZM16.6856 12.275L16.9428 12.9795L16.9428 12.9795L16.6856 12.275ZM12.0934 10.2419L11.9133 10.97L11.9133 10.97L12.0934 10.2419ZM12.2421 10.2981L11.9996 11.0078L11.9996 11.0078L12.2421 10.2981ZM13.481 10.9253L13.9094 10.3096L13.9094 10.3096L13.481 10.9253ZM11.8168 16.1354L12.2143 15.4994L11.8168 16.1354ZM13.4809 17.3715L12.8966 17.8417H12.8967L13.4809 17.3715ZM13.8792 18.0204L13.1954 18.3284L13.1954 18.3284L13.8792 18.0204ZM10.2046 14.5592L9.48881 14.783H9.48881L10.2046 14.5592ZM10.4736 15.1071L9.85862 15.5365L9.85862 15.5365L10.4736 15.1071ZM10.4853 10.6836L11.1674 10.9953L10.4853 10.6836ZM11.3085 10.103L11.2438 9.35576L11.3085 10.103ZM9.62888 11.1713L9.46671 12.7929L10.9593 12.9422L11.1214 11.3205L9.62888 11.1713ZM13.5226 11.9117L13.604 11.9795L14.5643 10.8272L14.4829 10.7594L13.5226 11.9117ZM18.3955 11.9795L19.4799 11.0759L18.5196 9.92353L17.4353 10.8272L18.3955 11.9795ZM13.4809 20.1303L13.6531 22.0662L15.1472 21.9332L14.975 19.9973L13.4809 20.1303ZM13.604 11.9795C14.1591 12.4421 14.5768 12.8043 15.0567 12.9795L15.5711 11.5705C15.3969 11.5069 15.2128 11.3676 14.5643 10.8272L13.604 11.9795ZM17.4353 10.8272C16.7867 11.3676 16.6026 11.5069 16.4284 11.5705L16.9428 12.9795C17.4227 12.8043 17.8405 12.4421 18.3955 11.9795L17.4353 10.8272ZM15.0567 12.9795C15.6658 13.2019 16.3338 13.2019 16.9428 12.9795L16.4284 11.5705C16.1516 11.6715 15.8479 11.6715 15.5711 11.5705L15.0567 12.9795ZM11.9133 10.97C11.9146 10.9703 11.9154 10.9705 11.9161 10.9706C11.9167 10.9708 11.9169 10.9708 11.9167 10.9708C11.9166 10.9708 11.9155 10.9705 11.9139 10.9701C11.9125 10.9697 11.9089 10.9688 11.9042 10.9675C11.9003 10.9664 11.8904 10.9637 11.8778 10.9597C11.8713 10.9577 11.8614 10.9545 11.8494 10.9502C11.8382 10.9461 11.8193 10.939 11.7963 10.9287C11.7845 10.9234 11.7692 10.9162 11.7517 10.9068C11.7345 10.8977 11.7113 10.8846 11.685 10.8669C11.6595 10.8497 11.6232 10.823 11.5842 10.7855C11.5459 10.7488 11.4929 10.6901 11.4469 10.6066C11.399 10.5197 11.3578 10.4035 11.354 10.265C11.3522 10.1972 11.3596 10.131 11.3749 10.0681C11.39 10.0055 11.4119 9.95015 11.4365 9.90236C11.4844 9.80887 11.5427 9.74357 11.5851 9.70293C11.6281 9.66179 11.668 9.63343 11.695 9.61589C11.7229 9.59778 11.747 9.58474 11.7636 9.57633C11.7805 9.56769 11.7948 9.56123 11.8045 9.55702C11.8223 9.54929 11.8368 9.54387 11.8377 9.54352C11.8441 9.54111 11.8353 9.54443 11.8308 9.54617C11.8239 9.54887 11.8103 9.55428 11.7935 9.56189C11.7768 9.56946 11.7528 9.58108 11.725 9.59731C11.6975 9.6134 11.6608 9.63712 11.6212 9.67036C11.5815 9.70367 11.5337 9.75071 11.4891 9.81432C11.4435 9.87932 11.4026 9.95965 11.3776 10.0544C11.3525 10.1498 11.3476 10.2447 11.3581 10.3337C11.3684 10.4207 11.3925 10.494 11.4182 10.5515C11.4436 10.6084 11.4724 10.6537 11.4967 10.6872C11.5213 10.7209 11.5452 10.7478 11.5648 10.768C11.6026 10.8071 11.6374 10.8344 11.659 10.8503C11.6819 10.8672 11.702 10.88 11.7162 10.8886C11.7439 10.9054 11.7673 10.9172 11.7806 10.9236C11.7952 10.9307 11.8081 10.9365 11.8178 10.9406C11.837 10.9489 11.8555 10.9562 11.8713 10.9622C11.9034 10.9743 11.945 10.9891 11.9996 11.0078L12.4847 9.58838C12.4365 9.57191 12.4129 9.56331 12.4037 9.55982C12.3989 9.55801 12.4028 9.55939 12.4117 9.56318C12.4162 9.56515 12.4251 9.56903 12.4365 9.5746C12.4465 9.57947 12.4676 9.59 12.4936 9.60574C12.5069 9.61384 12.5263 9.62617 12.5488 9.6427C12.5698 9.6582 12.6042 9.68515 12.6417 9.72392C12.676 9.75926 12.7392 9.831 12.7877 9.93964C12.8133 9.99696 12.8374 10.0703 12.8477 10.1572C12.8582 10.246 12.8533 10.3409 12.8282 10.4362C12.7772 10.6301 12.6634 10.754 12.5849 10.8198C12.5102 10.8824 12.4407 10.9154 12.4131 10.928C12.3856 10.9404 12.3563 10.9511 12.3694 10.9461C12.3704 10.9458 12.3849 10.9403 12.4028 10.9326C12.4173 10.9262 12.4611 10.9069 12.5124 10.8736C12.5394 10.8561 12.5794 10.8277 12.6224 10.7865C12.6648 10.7459 12.7231 10.6806 12.7711 10.5871C12.8216 10.4885 12.8573 10.3646 12.8535 10.2244C12.8497 10.0858 12.8086 9.96966 12.7606 9.88268C12.7147 9.79925 12.6616 9.74052 12.6233 9.70375C12.5842 9.66621 12.548 9.63957 12.5224 9.62236C12.4732 9.58926 12.4308 9.56932 12.4108 9.56037C12.37 9.54205 12.3365 9.53157 12.3284 9.529C12.3153 9.52489 12.3049 9.522 12.3003 9.52074C12.291 9.51819 12.283 9.51621 12.2814 9.51581C12.2786 9.5151 12.2754 9.51432 12.2735 9.51385L11.9133 10.97ZM14.4829 10.7594C14.2564 10.5706 14.1182 10.4549 13.9094 10.3096L13.0527 11.5409C13.2003 11.6436 13.2911 11.7188 13.5226 11.9117L14.4829 10.7594ZM11.9996 11.0078C12.2964 11.1092 12.7952 11.3617 13.0527 11.5409L13.9094 10.3096C13.5374 10.0508 12.9135 9.73494 12.4847 9.58838L11.9996 11.0078ZM11.4193 16.7714C12.3617 17.3604 12.6771 17.569 12.8966 17.8417L14.0652 16.9012C13.6496 16.3849 13.0673 16.0325 12.2143 15.4994L11.4193 16.7714ZM14.975 19.9973C14.8858 18.9954 14.8352 18.3167 14.563 17.7124L13.1954 18.3284C13.3391 18.6476 13.3824 19.0233 13.4809 20.1303L14.975 19.9973ZM12.8967 17.8417C13.0165 17.9906 13.1169 18.1542 13.1954 18.3284L14.563 17.7124C14.4322 17.4219 14.2649 17.1494 14.0652 16.9012L12.8967 17.8417ZM9.46671 12.7929C9.38657 13.5943 9.31037 14.2123 9.48881 14.783L10.9205 14.3353C10.8552 14.1267 10.8658 13.8768 10.9593 12.9422L9.46671 12.7929ZM12.2143 15.4994C11.4179 15.0016 11.2137 14.8571 11.0885 14.6778L9.85862 15.5365C10.2009 16.0267 10.7364 16.3445 11.4193 16.7714L12.2143 15.4994ZM9.48881 14.783C9.5728 15.0516 9.69752 15.3057 9.85862 15.5365L11.0885 14.6778C11.0153 14.5729 10.9586 14.4574 10.9205 14.3353L9.48881 14.783ZM11.1214 11.3205C11.1361 11.1735 11.1437 11.1026 11.1531 11.0493C11.1599 11.011 11.1644 11.002 11.1674 10.9953L9.80309 10.3719C9.67249 10.6578 9.65314 10.9286 9.62888 11.1713L11.1214 11.3205ZM12.2735 9.51385C12.0749 9.46471 11.8974 9.42054 11.7492 9.39215C11.5995 9.36346 11.4278 9.33982 11.2438 9.35576L11.3732 10.8502C11.3546 10.8518 11.3687 10.8465 11.4669 10.8653C11.5666 10.8845 11.6989 10.9169 11.9133 10.97L12.2735 9.51385ZM11.1674 10.9953C11.1604 11.0108 11.1604 11.0044 11.1808 10.9819C11.1999 10.9608 11.2277 10.9356 11.2622 10.9113C11.2967 10.8869 11.3298 10.8692 11.3561 10.8583C11.3842 10.8466 11.3901 10.8487 11.3732 10.8502L11.2438 9.35576C10.9176 9.38401 10.6185 9.52977 10.3976 9.68552C10.1768 9.84127 9.93915 10.0742 9.80309 10.3719L11.1674 10.9953Z" fill="#1C274C"/>
<path id="Vector_4" d="M19 22V8" stroke="#1C274C" stroke-width="1.5" stroke-linecap="round"/>
<path id="Vector_5" d="M8 10L6.328 10.5573C5.53493 10.8217 5 11.5639 5 12.3998C5 12.7677 5.20781 13.1039 5.5368 13.2684L8 14.5" stroke="#1C274C" stroke-width="1.5" stroke-linecap="round"/>
</g>
</svg>
