<svg width="24" height="24" viewBox="0 0 24 24" fill="none" xmlns="http://www.w3.org/2000/svg">
<g id="Bold / Sports / Water Sun">
<g id="Vector">
<path fill-rule="evenodd" clip-rule="evenodd" d="M12.0002 1.25C12.4144 1.25 12.7502 1.58579 12.7502 2V3C12.7502 3.41421 12.4144 3.75 12.0002 3.75C11.586 3.75 11.2502 3.41421 11.2502 3V2C11.2502 1.58579 11.586 1.25 12.0002 1.25ZM4.39927 4.39861C4.69216 4.10572 5.16703 4.10572 5.45993 4.39861L5.85277 4.79145C6.14566 5.08434 6.14566 5.55921 5.85277 5.85211C5.55987 6.145 5.085 6.145 4.7921 5.85211L4.39927 5.45927C4.10637 5.16638 4.10637 4.6915 4.39927 4.39861ZM19.6008 4.39887C19.8937 4.69176 19.8937 5.16664 19.6008 5.45953L19.208 5.85237C18.9151 6.14526 18.4402 6.14526 18.1473 5.85237C17.8544 5.55947 17.8544 5.0846 18.1473 4.79171L18.5402 4.39887C18.833 4.10598 19.3079 4.10598 19.6008 4.39887ZM1.25017 12C1.25017 11.5858 1.58596 11.25 2.00017 11.25H3.00017C3.41438 11.25 3.75017 11.5858 3.75017 12C3.75017 12.4142 3.41438 12.75 3.00017 12.75H2.00017C1.58596 12.75 1.25017 12.4142 1.25017 12ZM20.2502 12C20.2502 11.5858 20.586 11.25 21.0002 11.25H22.0002C22.4144 11.25 22.7502 11.5858 22.7502 12C22.7502 12.4142 22.4144 12.75 22.0002 12.75H21.0002C20.586 12.75 20.2502 12.4142 20.2502 12ZM4.57004 18.8657C5.25688 17.7919 6.72749 17.8271 7.4577 18.7618C8.4477 20.0291 9.82965 21.25 12.0002 21.25C14.2088 21.25 15.5699 20.2712 16.5051 19.0209C17.2251 18.0585 18.7909 17.9013 19.5458 19.0435C20.1708 19.9891 20.8488 20.7306 22.1722 21.0424C22.5754 21.1374 22.8252 21.5412 22.7302 21.9444C22.6352 22.3476 22.2313 22.5974 21.8282 22.5024C19.9762 22.066 19.0206 20.9692 18.2944 19.8705C18.2374 19.7844 18.1519 19.7406 18.0408 19.7427C17.9223 19.7449 17.7936 19.8027 17.7063 19.9195C16.5386 21.4804 14.7604 22.75 12.0002 22.75C9.15759 22.75 7.38876 21.1101 6.27565 19.6853C6.20392 19.5934 6.11032 19.5585 6.02981 19.5602C5.95388 19.5619 5.88442 19.5946 5.83365 19.674C5.09416 20.8301 4.13929 22.0389 2.17218 22.5024C1.76901 22.5974 1.36516 22.3476 1.27016 21.9444C1.17516 21.5412 1.42498 21.1374 1.82816 21.0424C3.2291 20.7123 3.90775 19.9011 4.57004 18.8657Z" fill="#1C274C"/>
<path d="M22.1722 16.0424C20.8488 15.7306 20.1708 14.9891 19.5458 14.0435C19.137 13.425 18.4905 13.1875 17.8692 13.2526C17.955 12.8486 18.0002 12.4296 18.0002 12C18.0002 8.68629 15.3139 6 12.0002 6C8.68646 6 6.00017 8.68629 6.00017 12C6.00017 12.3623 6.03228 12.7171 6.0938 13.0617C5.51698 13.0396 4.93367 13.2972 4.57004 13.8657C3.90775 14.9011 3.2291 15.7123 1.82816 16.0424C1.42498 16.1374 1.17516 16.5412 1.27016 16.9444C1.36516 17.3476 1.76901 17.5974 2.17218 17.5024C4.13929 17.0389 5.09416 15.8301 5.83365 14.674C5.88442 14.5946 5.95388 14.5619 6.02981 14.5602C6.11032 14.5585 6.20392 14.5934 6.27565 14.6853C7.38876 16.1101 9.15759 17.75 12.0002 17.75C14.7604 17.75 16.5386 16.4804 17.7063 14.9195C17.7936 14.8027 17.9223 14.7449 18.0408 14.7427C18.1519 14.7406 18.2374 14.7844 18.2944 14.8705C19.0206 15.9692 19.9762 17.066 21.8282 17.5024C22.2313 17.5974 22.6352 17.3476 22.7302 16.9444C22.8252 16.5412 22.5754 16.1374 22.1722 16.0424Z" fill="#1C274C"/>
</g>
</g>
</svg>
