<svg xmlns="http://www.w3.org/2000/svg" width="24" height="24" fill="none">
  <path fill="#1C274C" fill-rule="evenodd" d="M5.166 2.25h.047c.266 0 .428 0 .57.007a5.75 5.75 0 0 1 5.46 5.46c.007.142.007.304.007.57V18.75a3 3 0 1 1-6 0V12.3a.25.25 0 0 0-.25-.25A3.75 3.75 0 0 1 1.25 8.3V6.166c0-.153 0-.258.005-.35a3.75 3.75 0 0 1 3.561-3.561c.092-.005.197-.005.35-.005Zm.021 1.5c-.183 0-.247 0-.297.003A2.25 2.25 0 0 0 2.753 5.89c-.003.05-.003.115-.003.298V8.3A2.25 2.25 0 0 0 5 10.55c.966 0 1.75.784 1.75 1.75v4.95h3V8.312c0-.299 0-.421-.005-.52a4.25 4.25 0 0 0-4.036-4.037c-.1-.005-.222-.005-.521-.005Zm4.563 15h-3a1.5 1.5 0 0 0 3 0Zm9.36-14.997a7.136 7.136 0 0 0-.297-.003c-.3 0-.422 0-.521.005a4.25 4.25 0 0 0-4.037 4.036c-.005.1-.005.222-.005.521v8.938h3V12.3c0-.966.784-1.75 1.75-1.75a2.25 2.25 0 0 0 2.25-2.25V6.187c0-.183 0-.247-.003-.297a2.25 2.25 0 0 0-2.137-2.137ZM17.25 18.75h-3a1.5 1.5 0 0 0 3 0Zm1.584-16.5c.153 0 .258 0 .35.005a3.75 3.75 0 0 1 3.561 3.561c.005.092.005.197.005.35V8.3A3.75 3.75 0 0 1 19 12.05a.25.25 0 0 0-.25.25v6.45a3 3 0 1 1-6 0V8.287c0-.266 0-.428.007-.57a5.75 5.75 0 0 1 5.46-5.46c.142-.007.304-.007.57-.007h.047ZM4.5 5.25a.75.75 0 0 1 .75.75v2.5a.75.75 0 1 1-1.5 0V6a.75.75 0 0 1 .75-.75Zm15 0a.75.75 0 0 1 .75.75v2.5a.75.75 0 0 1-1.5 0V6a.75.75 0 0 1 .75-.75Z" clip-rule="evenodd"/>
</svg>
