<svg xmlns="http://www.w3.org/2000/svg" width="24" height="24" fill="none">
  <path fill="#1C274C" fill-rule="evenodd" d="M15.376 1.25h.069a6.338 6.338 0 0 1 6.305 6.305V19.52c0 .12 0 .207-.004.285a3.1 3.1 0 0 1-2.94 2.941c-.079.004-.166.004-.286.004h-.04c-.12 0-.207 0-.285-.004a3.1 3.1 0 0 1-2.941-2.94c-.004-.079-.004-.166-.004-.286V12a.25.25 0 0 0-.25-.25A3.75 3.75 0 0 1 11.25 8V5.332a4.103 4.103 0 0 1 4.082-4.082h.043Zm-.037 1.5a2.603 2.603 0 0 0-2.589 2.588V8A2.25 2.25 0 0 0 15 10.25c.966 0 1.75.784 1.75 1.75v5.917h3.5V7.562a4.838 4.838 0 0 0-4.812-4.812h-.099Zm4.911 16.667h-3.5v.083c0 .148 0 .195.002.23a1.6 1.6 0 0 0 1.518 1.518c.035.002.082.002.23.002.148 0 .195 0 .23-.002a1.6 1.6 0 0 0 1.518-1.518c.002-.035.002-.082.002-.23v-.083ZM15 4.25a.75.75 0 0 1 .75.75v3a.75.75 0 0 1-1.5 0V5a.75.75 0 0 1 .75-.75Zm-5.265.7a.75.75 0 0 1-.586.885 4.256 4.256 0 0 0-3.314 3.314.75.75 0 1 1-1.47-.298 5.756 5.756 0 0 1 4.486-4.486.75.75 0 0 1 .884.586ZM7.5 11.75a4.75 4.75 0 1 0 0 9.5 4.75 4.75 0 0 0 0-9.5ZM1.25 16.5a6.25 6.25 0 1 1 12.5 0 6.25 6.25 0 0 1-12.5 0Zm4-2.5a.75.75 0 0 1 .75-.75h1.5c1.109 0 2.25.773 2.25 2 0 .786-.468 1.386-1.096 1.715l.99 1.65a.75.75 0 0 1-1.287.77L7.075 17.25H6.75V19a.75.75 0 0 1-1.5 0v-5Zm1.5.75v1h.75c.548 0 .75-.346.75-.5 0-.154-.202-.5-.75-.5h-.75Z" clip-rule="evenodd"/>
</svg>
