<svg xmlns="http://www.w3.org/2000/svg" width="24" height="24" fill="none">
  <g stroke="#1C274C">
    <path stroke-width="1.5" d="M2 18.667v.833a2.5 2.5 0 0 0 5 0v-.833m-5 0V7.559A5.588 5.588 0 0 1 7.56 2h.104A3.353 3.353 0 0 1 11 5.336V8a3 3 0 0 1-3 3 1 1 0 0 0-1 1v6.667m-5 0h5"/>
    <path stroke-linecap="round" stroke-width="1.676" d="M8 5v3" opacity=".5"/>
    <circle r="5.5" stroke-width="1.5" opacity=".5" transform="matrix(-1 0 0 1 15.5 16.5)"/>
    <path stroke-linecap="round" stroke-linejoin="round" stroke-width="1.5" d="M14 14v5h3"/>
    <path stroke-linecap="round" stroke-width="1.5" d="M14 5.1A5.006 5.006 0 0 1 17.9 9" opacity=".5"/>
  </g>
</svg>
