<svg xmlns="http://www.w3.org/2000/svg" width="24" height="24" fill="none">
  <g fill="#1C274C">
    <path d="M12 22a9 9 0 1 0 0-18 9 9 0 0 0 0 18Z" opacity=".5"/>
    <path d="M15 12.25a.75.75 0 0 1 0 1.5H9a.75.75 0 0 1 0-1.5h6Z"/>
    <path fill-rule="evenodd" d="M8.24 2.34a.719.719 0 0 1-.232.996l-3.891 2.41a.734.734 0 0 1-1.006-.23.719.719 0 0 1 .232-.996l3.892-2.41a.734.734 0 0 1 1.006.23Zm7.52 0a.734.734 0 0 1 1.005-.23l3.892 2.41a.719.719 0 0 1 .232.996.734.734 0 0 1-1.006.23l-3.891-2.41a.719.719 0 0 1-.233-.996Z" clip-rule="evenodd"/>
  </g>
</svg>
