<svg xmlns="http://www.w3.org/2000/svg" width="24" height="24" fill="none">
  <g fill="#1C274C" fill-rule="evenodd" clip-rule="evenodd">
    <path d="M7.898 2.636a.75.75 0 1 0-.795-1.272l-4 2.5a.75.75 0 0 0 .794 1.272l4-2.5Zm9-1.272a.75.75 0 1 0-.796 1.272l4 2.5a.75.75 0 1 0 .796-1.272l-4-2.5ZM3.75 13a8.25 8.25 0 1 1 16.5 0 8.25 8.25 0 0 1-16.5 0ZM12 3.25c-5.385 0-9.75 4.365-9.75 9.75s4.365 9.75 9.75 9.75 9.75-4.365 9.75-9.75S17.385 3.25 12 3.25Zm-2.478 5h-.044c-.214 0-.41 0-.576.011-.178.012-.373.04-.572.122a1.75 1.75 0 0 0-.947.947c-.082.199-.11.394-.122.572-.011.165-.011.362-.011.576v5.044c0 .214 0 .411.011.576.012.178.04.373.122.572.178.429.519.77.947.947.199.082.394.11.572.122.165.011.362.011.576.011h.044c.214 0 .41 0 .576-.011.178-.012.373-.04.572-.122a1.75 1.75 0 0 0 .947-.947c.082-.199.11-.394.122-.572.011-.165.011-.362.011-.576v-5.044c0-.214 0-.41-.011-.576a1.781 1.781 0 0 0-.122-.572 1.75 1.75 0 0 0-.947-.947 1.781 1.781 0 0 0-.572-.122c-.165-.01-.362-.01-.576-.01ZM8.77 9.901a.25.25 0 0 1 .131-.13.64.64 0 0 1 .103-.013c.108-.007.253-.008.496-.008s.388 0 .496.008c.067.004.095.01.103.012a.25.25 0 0 1 .13.131.63.63 0 0 1 .013.103c.008.108.008.253.008.496v5c0 .243 0 .388-.008.496a.632.632 0 0 1-.012.103.25.25 0 0 1-.131.13.632.632 0 0 1-.103.013 8.258 8.258 0 0 1-.496.008c-.243 0-.388 0-.496-.008a.63.63 0 0 1-.103-.012.25.25 0 0 1-.13-.131.644.644 0 0 1-.013-.103 8.29 8.29 0 0 1-.008-.496v-5c0-.243 0-.388.008-.496a.642.642 0 0 1 .012-.103Z"/>
    <path d="M14.559 8.239h-.044c-.214 0-.41 0-.576.011a1.78 1.78 0 0 0-.572.122 1.75 1.75 0 0 0-.947.947c-.082.199-.11.394-.122.572a8.939 8.939 0 0 0-.011.576v5.044c0 .214 0 .41.011.576.012.178.04.373.122.572.178.428.518.77.947.947.199.082.394.11.572.122.165.011.362.011.576.011h.044c.214 0 .41 0 .576-.011.178-.012.373-.04.572-.122a1.75 1.75 0 0 0 .947-.947c.082-.199.11-.394.122-.572.011-.165.011-.362.011-.576v-5.044c0-.214 0-.41-.011-.576a1.779 1.779 0 0 0-.122-.572 1.75 1.75 0 0 0-.947-.947 1.781 1.781 0 0 0-.572-.122c-.165-.011-.362-.011-.576-.011Zm-.62 1.52a.25.25 0 0 0-.132.131.636.636 0 0 0-.012.103 8.37 8.37 0 0 0-.008.496v5c0 .243 0 .388.008.496.004.067.01.095.012.103a.25.25 0 0 0 .131.13.628.628 0 0 0 .103.013c.108.008.253.008.496.008s.388 0 .496-.008a.632.632 0 0 0 .103-.012.25.25 0 0 0 .13-.131.66.66 0 0 0 .013-.103c.008-.108.008-.253.008-.496v-5c0-.243 0-.388-.008-.496a.658.658 0 0 0-.012-.103.25.25 0 0 0-.131-.13.637.637 0 0 0-.103-.013 8.29 8.29 0 0 0-.496-.008c-.243 0-.388 0-.496.008a.637.637 0 0 0-.103.012Z"/>
  </g>
</svg>
