<svg xmlns="http://www.w3.org/2000/svg" width="24" height="24" fill="none">
  <path fill="#1C274C" fill-rule="evenodd" d="M8.7 1.25h6.6c.22 0 .389 0 .536.016A2.75 2.75 0 0 1 18.29 3.87a2.886 2.886 0 0 1 2.052 2.887c.398.18.75.428 1.053.773.616.704.804 1.565.812 2.57.007.972-.157 2.202-.362 3.734l-.414 3.108c-.16 1.198-.289 2.168-.49 2.927-.21.79-.518 1.445-1.097 1.953-.58.507-1.27.726-2.081.83-.78.098-1.757.098-2.966.098H9.202c-1.208 0-2.186 0-2.965-.099-.811-.103-1.501-.322-2.08-.83-.58-.507-.889-1.162-1.098-1.952-.201-.76-.33-1.729-.49-2.927l-.415-3.108c-.204-1.532-.368-2.762-.36-3.733.006-1.006.195-1.867.811-2.571a3.025 3.025 0 0 1 1.053-.773A2.886 2.886 0 0 1 5.71 3.87a2.75 2.75 0 0 1 2.454-2.604c.147-.016.315-.016.535-.016Zm-1.468 2.5h9.536a1.25 1.25 0 0 0-1.092-.993 4.924 4.924 0 0 0-.417-.007H8.74c-.28 0-.361.001-.417.007a1.25 1.25 0 0 0-1.092.993ZM5.181 6.367c.942-.117 2.139-.117 3.613-.117h6.412c1.474 0 2.67 0 3.613.117a1.383 1.383 0 0 0-1.357-1.117H6.538c-.683 0-1.235.49-1.357 1.117Zm.074 1.504c-.824.116-1.241.327-1.521.647-.28.32-.435.76-.44 1.593-.007.854.141 1.979.355 3.583l.057.425.421-.305c1.088-.788 2.694-.749 3.729.107l3.838 3.177c.363.3.988.356 1.439.094l.267-.155c1.276-.743 2.986-.664 4.164.213l2.077 1.548a46.24 46.24 0 0 0 .31-2.104l.4-3c.214-1.604.362-2.729.356-3.583-.006-.832-.16-1.273-.44-1.593-.28-.32-.698-.531-1.522-.647-.846-.12-1.98-.121-3.598-.121H8.853c-1.618 0-2.753.002-3.598.12Zm13.913 12.444-2.5-1.862c-.683-.509-1.743-.568-2.514-.12l-.267.156c-.972.565-2.283.482-3.15-.235L6.9 15.077c-.498-.412-1.349-.441-1.892-.048l-1.076.78.118.885c.168 1.26.286 2.134.46 2.79.168.637.366.973.635 1.209.27.235.63.387 1.282.47.673.086 1.556.087 2.827.087h5.494c1.27 0 2.154-.001 2.827-.087.653-.083 1.012-.235 1.281-.47.117-.102.22-.222.313-.378ZM16.5 10.75a.75.75 0 1 0 0 1.5.75.75 0 0 0 0-1.5Zm-2.25.75a2.25 2.25 0 1 1 4.5 0 2.25 2.25 0 0 1-4.5 0Z" clip-rule="evenodd"/>
</svg>
