<svg xmlns="http://www.w3.org/2000/svg" width="24" height="24" fill="none">
  <g stroke="#1C274C" stroke-width="1.5">
    <path d="M2.906 13.793c-.422-3.164-.633-4.745.263-5.77C4.066 7 5.661 7 8.853 7h6.294c3.191 0 4.787 0 5.684 1.024.896 1.024.685 2.605.263 5.769l-.4 3c-.33 2.48-.496 3.721-1.345 4.464-.848.743-2.1.743-4.602.743H9.253c-2.503 0-3.754 0-4.603-.743-.848-.743-1.014-1.983-1.344-4.464l-.4-3Z"/>
    <path d="M19.562 7a2.132 2.132 0 0 0-2.1-2.5H6.538a2.132 2.132 0 0 0-2.1 2.5M17.5 4.5c.028-.26.043-.389.043-.496a2 2 0 0 0-1.787-1.993C15.65 2 15.52 2 15.26 2H8.74c-.26 0-.39 0-.497.011a2 2 0 0 0-1.787 1.993c0 .107.015.237.043.496" opacity=".5"/>
    <circle cx="16.5" cy="11.5" r="1.5" opacity=".5"/>
    <path stroke-linecap="round" d="m20 20-2.884-2.149c-.93-.692-2.316-.761-3.34-.166l-.266.155c-.712.414-1.68.345-2.294-.164l-3.839-3.177c-.766-.634-1.995-.668-2.81-.078l-1.324.96" opacity=".5"/>
  </g>
</svg>
