<svg xmlns="http://www.w3.org/2000/svg" width="24" height="24" fill="none">
  <path fill="#1C274C" fill-rule="evenodd" d="M7.468 2.25h.064c.44 0 .82 0 1.13.028.33.03.656.096.963.273.342.198.626.482.824.824.177.307.243.633.273.962.028.312.028.691.028 1.13v9.065c0 .44 0 .82-.028 1.13-.03.33-.096.656-.273.963a2.25 2.25 0 0 1-.824.824c-.307.177-.633.243-.962.273-.312.028-.691.028-1.13.028h-.065c-.44 0-.82 0-1.13-.028-.33-.03-.656-.096-.963-.273a2.25 2.25 0 0 1-.824-.824c-.177-.307-.243-.633-.273-.962-.028-.312-.028-.691-.028-1.13V5.467c0-.44 0-.82.028-1.13.03-.33.096-.656.273-.963a2.25 2.25 0 0 1 .824-.824c.307-.177.633-.243.962-.273.312-.028.691-.028 1.13-.028Zm-.995 1.522c-.225.02-.307.055-.348.078a.75.75 0 0 0-.275.275c-.023.04-.058.123-.078.348-.021.235-.022.546-.022 1.027v9c0 .481 0 .792.022 1.027.02.225.055.307.078.348a.75.75 0 0 0 .275.274c.04.024.123.058.348.079.235.021.546.022 1.027.022.481 0 .792 0 1.027-.022.225-.02.307-.055.348-.079a.75.75 0 0 0 .275-.274c.023-.04.058-.123.078-.348.021-.235.022-.546.022-1.027v-9c0-.481 0-.792-.022-1.027-.02-.225-.055-.307-.078-.348a.75.75 0 0 0-.275-.275c-.04-.023-.123-.058-.348-.078A12.807 12.807 0 0 0 7.5 3.75c-.481 0-.792 0-1.027.022Zm9.995 1.478h.064c.44 0 .82 0 1.13.028.33.03.656.096.963.273.342.198.626.482.824.824.177.307.243.633.273.962.028.312.028.691.028 1.13v6.065c0 .44 0 .82-.028 1.13-.03.33-.096.656-.273.963a2.251 2.251 0 0 1-.824.824c-.307.177-.633.243-.962.273-.312.028-.691.028-1.13.028h-.065c-.44 0-.82 0-1.13-.028-.33-.03-.656-.096-.963-.273a2.251 2.251 0 0 1-.824-.824c-.177-.307-.243-.633-.273-.962-.028-.312-.028-.691-.028-1.13V8.467c0-.44 0-.82.028-1.13.03-.33.096-.656.273-.963a2.25 2.25 0 0 1 .824-.824c.307-.177.633-.243.962-.273.312-.028.691-.028 1.13-.028Zm-.995 1.522c-.225.02-.307.055-.348.078a.75.75 0 0 0-.274.275c-.024.04-.059.123-.079.348-.021.235-.022.546-.022 1.027v6c0 .481 0 .792.022 1.027.02.225.055.307.079.348a.75.75 0 0 0 .274.274c.04.024.123.058.348.079.235.021.546.022 1.027.022.481 0 .792 0 1.027-.022.225-.02.307-.055.348-.079a.75.75 0 0 0 .274-.274c.024-.04.058-.123.079-.348.021-.235.022-.546.022-1.027v-6c0-.481 0-.792-.022-1.027-.02-.225-.055-.307-.079-.348a.75.75 0 0 0-.274-.275c-.04-.023-.123-.058-.348-.078A12.81 12.81 0 0 0 16.5 6.75c-.481 0-.792 0-1.027.022ZM1.25 21a.75.75 0 0 1 .75-.75h20a.75.75 0 0 1 0 1.5H2a.75.75 0 0 1-.75-.75Z" clip-rule="evenodd"/>
</svg>
