<svg xmlns="http://www.w3.org/2000/svg" width="24" height="24" fill="none">
  <g stroke="#1C274C" stroke-width="1.5">
    <path stroke-linecap="round" d="M10 21h12M2 21h4M5 9v5.5c0 .935 0 1.402.201 1.75a1.5 1.5 0 0 0 .549.549C6.098 17 6.565 17 7.5 17s1.402 0 1.75-.201a1.5 1.5 0 0 0 .549-.549c.201-.348.201-.815.201-1.75v-9c0-.935 0-1.402-.201-1.75a1.5 1.5 0 0 0-.549-.549C8.902 3 8.435 3 7.5 3s-1.402 0-1.75.201a1.5 1.5 0 0 0-.549.549c-.161.28-.193.636-.2 1.25"/>
    <path d="M16.5 17c-.935 0-1.402 0-1.75-.201a1.5 1.5 0 0 1-.549-.549C14 15.902 14 15.435 14 14.5v-6c0-.935 0-1.402.201-1.75a1.5 1.5 0 0 1 .549-.549C15.098 6 15.565 6 16.5 6s1.402 0 1.75.201a1.5 1.5 0 0 1 .549.549C19 7.098 19 7.565 19 8.5v6c0 .935 0 1.402-.201 1.75a1.5 1.5 0 0 1-.549.549c-.348.201-.815.201-1.75.201Z"/>
  </g>
</svg>
