<svg xmlns="http://www.w3.org/2000/svg" width="24" height="24" fill="none">
  <g fill="#1C274C">
    <path d="M7.375 7.875c0-.935 0-1.402.201-1.75a1.5 1.5 0 0 1 .549-.549c.348-.201.815-.201 1.75-.201h9c.935 0 1.402 0 1.75.201a1.5 1.5 0 0 1 .549.549c.201.348.201.815.201 1.75s0 1.402-.201 1.75a1.5 1.5 0 0 1-.549.549c-.348.201-.815.201-1.75.201h-9c-.935 0-1.402 0-1.75-.201a1.5 1.5 0 0 1-.549-.549c-.201-.348-.201-.815-.201-1.75Zm0 9c0-.935 0-1.402.201-1.75a1.5 1.5 0 0 1 .549-.549c.348-.201.815-.201 1.75-.201h6c.935 0 1.402 0 1.75.201a1.5 1.5 0 0 1 .549.549c.201.348.201.815.201 1.75s0 1.402-.201 1.75a1.5 1.5 0 0 1-.549.549c-.348.201-.815.201-1.75.201h-6c-.935 0-1.402 0-1.75-.201a1.5 1.5 0 0 1-.549-.549c-.201-.348-.201-.815-.201-1.75Z"/>
    <path fill-rule="evenodd" d="M3.375 23.125a.75.75 0 0 0 .75-.75v-20a.75.75 0 0 0-1.5 0v20c0 .414.336.75.75.75Z" clip-rule="evenodd" opacity=".5"/>
  </g>
</svg>
