<svg xmlns="http://www.w3.org/2000/svg" width="24" height="24" fill="none">
  <path fill="#1C274C" fill-rule="evenodd" d="M21 1.25a.75.75 0 0 1 .75.75v20a.75.75 0 0 1-1.5 0V2a.75.75 0 0 1 .75-.75Zm-15.532 3h9.064c.44 0 .82 0 1.13.028.33.03.656.096.963.273.342.198.626.482.824.824.177.307.243.633.273.962.028.312.028.691.028 1.13v.065c0 .44 0 .82-.028 1.13-.03.33-.096.656-.273.963a2.25 2.25 0 0 1-.824.824c-.307.177-.633.243-.962.273-.312.028-.691.028-1.13.028H5.467c-.44 0-.82 0-1.13-.028-.33-.03-.656-.096-.963-.273a2.25 2.25 0 0 1-.824-.824c-.177-.307-.243-.633-.273-.962-.028-.312-.028-.691-.028-1.13v-.065c0-.44 0-.82.028-1.13.03-.33.096-.656.273-.963a2.25 2.25 0 0 1 .824-.824c.307-.177.633-.243.962-.273.312-.028.691-.028 1.13-.028Zm-.995 1.522c-.225.02-.307.055-.348.078a.75.75 0 0 0-.275.275c-.023.04-.058.123-.078.348-.021.235-.022.546-.022 1.027 0 .481 0 .792.022 1.027.02.225.055.307.078.348a.75.75 0 0 0 .275.275c.04.023.123.058.348.078.235.021.546.022 1.027.022h9c.481 0 .792 0 1.027-.022.225-.02.307-.055.348-.078a.75.75 0 0 0 .274-.275c.024-.04.058-.123.079-.348.021-.235.022-.546.022-1.027 0-.481 0-.792-.022-1.027-.02-.225-.055-.307-.079-.348a.75.75 0 0 0-.274-.275c-.04-.023-.123-.058-.348-.078A12.81 12.81 0 0 0 14.5 5.75h-9c-.481 0-.792 0-1.027.022Zm3.995 7.478h6.064c.44 0 .82 0 1.13.028.33.03.656.096.963.273.342.198.626.482.824.824.177.307.243.633.273.962.028.312.028.691.028 1.13v.065c0 .44 0 .82-.028 1.13-.03.33-.096.656-.273.963a2.251 2.251 0 0 1-.824.824c-.307.177-.633.243-.962.273-.312.028-.691.028-1.13.028H8.467c-.44 0-.82 0-1.13-.028-.33-.03-.656-.096-.963-.273a2.25 2.25 0 0 1-.824-.824c-.177-.307-.243-.633-.273-.962-.028-.312-.028-.691-.028-1.13v-.065c0-.44 0-.82.028-1.13.03-.33.096-.656.273-.963a2.25 2.25 0 0 1 .824-.824c.307-.177.633-.243.962-.273.312-.028.691-.028 1.13-.028Zm-.995 1.522c-.225.02-.307.055-.348.079a.75.75 0 0 0-.275.274c-.023.04-.058.123-.078.348A12.81 12.81 0 0 0 6.75 16.5c0 .481 0 .792.022 1.027.02.225.055.307.078.348a.75.75 0 0 0 .275.274c.04.024.123.058.348.079.235.021.546.022 1.027.022h6c.481 0 .792 0 1.027-.022.225-.02.307-.055.348-.079a.75.75 0 0 0 .274-.274c.024-.04.058-.123.079-.348.021-.235.022-.546.022-1.027 0-.481 0-.792-.022-1.027-.02-.225-.055-.307-.079-.348a.75.75 0 0 0-.274-.274c-.04-.024-.123-.059-.348-.079a12.776 12.776 0 0 0-1.027-.022h-6c-.481 0-.792 0-1.027.022Z" clip-rule="evenodd"/>
</svg>
