<svg xmlns="http://www.w3.org/2000/svg" width="24" height="24" fill="none">
  <g fill="#1C274C">
    <path fill-rule="evenodd" d="M11.5 21h1c3.771 0 5.657 0 6.828-1.172C20.5 18.657 20.5 16.771 20.5 13V6.998C20.355 7 20.15 7 20 7H4c-.15 0-.355 0-.5-.002V13c0 3.771 0 5.657 1.172 6.828C5.843 21 7.729 21 11.5 21Zm3.56-9.5a.75.75 0 0 0-1.12-1l-3.011 3.374-.87-.974a.75.75 0 0 0-1.118 1l1.428 1.6a.75.75 0 0 0 1.119 0l3.572-4Z" clip-rule="evenodd"/>
    <path d="M2 5c0-.943 0-1.414.293-1.707C2.586 3 3.057 3 4 3h16c.943 0 1.414 0 1.707.293C22 3.586 22 4.057 22 5c0 .943 0 1.414-.293 1.707C21.414 7 20.943 7 20 7H4c-.943 0-1.414 0-1.707-.293C2 6.414 2 5.943 2 5Z" opacity=".5"/>
  </g>
</svg>
