<svg xmlns="http://www.w3.org/2000/svg" width="24" height="24" fill="none">
  <path fill="#1C274C" fill-rule="evenodd" d="M11.943 1.25h.114c2.309 0 4.118 0 5.53.19 1.444.194 2.584.6 3.479 1.494.895.895 1.3 2.035 1.494 3.48.19 1.411.19 3.22.19 5.529V12h-.01c.01.579.01 1.23.01 1.966v.068c0 1.371 0 2.447-.07 3.311-.072.88-.221 1.607-.557 2.265a5.75 5.75 0 0 1-2.513 2.513c-.658.336-1.385.485-2.265.556-.864.071-1.94.071-3.311.071H9.966c-1.371 0-2.447 0-3.311-.07-.88-.072-1.607-.221-2.265-.557a5.75 5.75 0 0 1-2.513-2.513c-.336-.658-.484-1.385-.556-2.265-.071-.864-.071-1.94-.071-3.311v-.068c0-.736 0-1.387.01-1.966h-.01v-.057c0-2.309 0-4.118.19-5.53.194-1.444.6-2.584 1.494-3.479.895-.895 2.035-1.3 3.48-1.494 1.411-.19 3.22-.19 5.529-.19ZM2.882 6.987a5.75 5.75 0 0 1 1.508-1.11c.658-.336 1.385-.484 2.265-.556.864-.071 1.94-.071 3.311-.071h4.068c1.371 0 2.447 0 3.311.07.88.073 1.607.221 2.265.557a5.75 5.75 0 0 1 1.508 1.11 12.607 12.607 0 0 0-.044-.373c-.172-1.279-.5-2.05-1.069-2.62-.57-.569-1.34-.896-2.619-1.068-1.3-.174-3.008-.176-5.386-.176s-4.086.002-5.386.176c-1.279.172-2.05.5-2.62 1.069-.569.57-.896 1.34-1.068 2.619-.016.12-.03.245-.044.373Zm3.895-.171c-.787.064-1.295.188-1.706.397a4.25 4.25 0 0 0-1.858 1.858c-.21.411-.333.919-.397 1.706-.065.796-.066 1.81-.066 3.223 0 1.412 0 2.427.066 3.223.064.787.188 1.295.397 1.707a4.25 4.25 0 0 0 1.858 1.857c.411.21.919.333 1.706.397.796.065 1.81.066 3.223.066h4c1.412 0 2.427 0 3.223-.066.787-.064 1.295-.188 1.707-.397a4.251 4.251 0 0 0 1.857-1.857c.21-.412.333-.92.397-1.707.065-.796.066-1.81.066-3.223 0-1.412 0-2.427-.066-3.223-.064-.787-.188-1.295-.397-1.706a4.25 4.25 0 0 0-1.857-1.858c-.412-.21-.92-.333-1.707-.397-.796-.065-1.81-.066-3.223-.066h-4c-1.413 0-2.427 0-3.223.066ZM15 11.44a.75.75 0 0 1 .06 1.058l-3.572 4a.75.75 0 0 1-1.119 0l-1.428-1.6a.75.75 0 1 1 1.118-.998l.87.973L13.94 11.5a.75.75 0 0 1 1.06-.06Z" clip-rule="evenodd"/>
</svg>
