<svg xmlns="http://www.w3.org/2000/svg" width="24" height="24" fill="none">
  <g stroke="#1C274C" stroke-linecap="round" stroke-width="1.5">
    <path stroke-linejoin="round" d="m9.5 14.4 1.429 1.6 3.571-4"/>
    <path d="M2 12c0-4.714 0-7.071 1.464-8.536 1.241-1.24 3.123-1.43 6.536-1.46M22 12c0-4.714 0-7.071-1.465-8.536-1.24-1.24-3.122-1.43-6.535-1.46"/>
    <path d="M10 22c-2.8 0-4.2 0-5.27-.545a5 5 0 0 1-2.185-2.185C2 18.2 2 16.8 2 14c0-2.8 0-4.2.545-5.27A5 5 0 0 1 4.73 6.545C5.8 6 7.2 6 10 6h4c2.8 0 4.2 0 5.27.545a5 5 0 0 1 2.185 2.185C22 9.8 22 11.2 22 14c0 2.8 0 4.2-.545 5.27a5 5 0 0 1-2.185 2.185C18.2 22 16.8 22 14 22"/>
  </g>
</svg>
