<svg xmlns="http://www.w3.org/2000/svg" width="24" height="24" fill="none">
  <path fill="#1C274C" fill-rule="evenodd" d="M10.749 3.25h2.502c1.088 0 1.976 0 2.678.09.73.093 1.37.296 1.885.786.52.496.74 1.12.84 1.833.096.675.096 1.527.096 2.557v1.057c.4-.21.857-.323 1.323-.323 1.708 0 3.17 1.557 2.53 3.277l-1.12 3-.023.062c-.173.463-.291.78-.452 1.059-.498.858-1.309 1.497-2.258 1.833V20a.75.75 0 0 1-1.5 0v-1.254c-.188.004-.4.004-.655.004H6.75V20a.75.75 0 0 1-1.5 0v-1.333a.75.75 0 0 1 .021-.179c-1.14-.398-2.086-1.231-2.527-2.354l-.04-.108-1.306-3.5c-.642-1.719.82-3.276 2.529-3.276.466 0 .922.113 1.323.323V8.516c0-1.03 0-1.882.095-2.557.1-.713.32-1.337.84-1.833.516-.49 1.156-.693 1.886-.786.702-.09 1.59-.09 2.678-.09ZM5.25 11.928V12h.03l.86 2.122.02.049c.08.196.162.4.289.577.288.4.724.664 1.199.76.207.043.427.042.666.042h7.139c.46.001.891.002 1.271-.155.207-.085.399-.204.566-.355.316-.286.476-.683.63-1.066l.037-.092.764-1.882h.03v-.072l.207-.512c.147-.362.57-.666 1.115-.666.92 0 1.314.743 1.124 1.252l-1.12 3c-.204.55-.278.74-.367.894-.397.685-1.159 1.193-2.079 1.322-.212.03-.458.032-1.098.032H6.776c-1.237-.018-2.265-.72-2.636-1.665a6.26 6.26 0 0 1-.034-.09l-1.303-3.493c-.19-.509.204-1.252 1.124-1.252.546 0 .968.304 1.115.666l.208.512Zm12-.292V8.57c0-1.1-.002-1.845-.08-2.403-.076-.532-.208-.782-.39-.955-.188-.18-.465-.312-1.042-.385-.595-.077-1.386-.078-2.538-.078h-2.4c-1.152 0-1.943.001-2.538.078-.577.073-.854.206-1.042.385-.182.173-.314.423-.39.955-.078.558-.08 1.304-.08 2.403v3.065l.78 1.922c.053.13.083.203.108.259a.502.502 0 0 0 .028.055c.05.07.145.14.28.167.04.007.095.011.422.011h6.979c.637 0 .738-.014.806-.042a.453.453 0 0 0 .131-.081c.002-.001.022-.017.069-.11a6.79 6.79 0 0 0 .214-.499l.683-1.682Z" clip-rule="evenodd"/>
</svg>
