<svg xmlns="http://www.w3.org/2000/svg" width="24" height="24" fill="none">
  <path fill="#1C274C" d="M17.79 16.333v.75a.75.75 0 0 0 .75-.75h-.75Zm-11.58 0h-.75c0 .415.336.75.75.75v-.75Zm-3.46-.476a.75.75 0 0 0-1.5 0h1.5ZM4.916 20.9l.177-.729-.177.729Zm-2.822-3.01-.733.157.733-.157Zm16.99 3.01.178.728-.178-.728Zm2.822-3.01-.733-.157.733.157ZM12 17.083a.75.75 0 0 0 0-1.5v1.5Zm4-1.5a.75.75 0 0 0 0 1.5v-1.5ZM1.25 12a.75.75 0 0 0 1.5 0h-1.5Zm15.79-.754v5.087h1.5v-5.087h-1.5Zm-11.58 0v5.087h1.5v-5.087h-1.5Zm15.79 0v4.611h1.5v-4.611h-1.5ZM4.105 9.75c.704 0 1.356.623 1.356 1.496h1.5c0-1.608-1.234-2.996-2.856-2.996v1.5Zm15.79-1.5c-1.622 0-2.855 1.388-2.855 2.996h1.5c0-.873.651-1.496 1.355-1.496v-1.5Zm0 1.5c.703 0 1.355.623 1.355 1.496h1.5c0-1.608-1.233-2.996-2.855-2.996v1.5ZM6.82 20.25c-1.04 0-1.426-.005-1.728-.079l-.355 1.457c.521.127 1.131.122 2.083.122v-1.5Zm-5.57-4.393c0 1.024-.004 1.654.11 2.19l1.467-.314c-.073-.342-.077-.775-.077-1.876h-1.5Zm3.843 4.314c-1.104-.269-2-1.2-2.266-2.438l-1.466.314c.376 1.758 1.672 3.166 3.377 3.581l.355-1.457ZM4.105 8.25c-1.622 0-2.855 1.388-2.855 2.996h1.5c0-.873.652-1.496 1.355-1.496v-1.5Zm13.074 13.5c.952 0 1.562.005 2.083-.122l-.355-1.457c-.302.074-.689.079-1.728.079v1.5Zm4.071-5.893c0 1.101-.004 1.534-.077 1.876l1.466.314c.115-.537.111-1.166.111-2.19h-1.5Zm-1.988 5.771c1.704-.415 3.001-1.823 3.377-3.581l-1.466-.314c-.265 1.238-1.162 2.17-2.266 2.438l.355 1.457ZM6.21 17.083H12v-1.5H6.21v1.5Zm9.789 0h1.79v-1.5H16v1.5Zm1.179 3.167H12v1.5h5.179v-1.5Zm-5.179 0H6.821v1.5H12v-1.5ZM1.25 11.246V12h1.5v-.754h-1.5Z"/>
  <path stroke="#1C274C" stroke-width="1.5" d="M6 10V8.154c0-2.3 0-3.451.482-4.308A3.647 3.647 0 0 1 7.8 2.495C8.635 2 9.757 2 12 2c2.243 0 3.365 0 4.2.495.547.324 1.002.79 1.318 1.351C18 4.703 18 5.853 18 8.154V10"/>
  <path stroke="#1C274C" stroke-linecap="round" stroke-width="1.5" d="M19 22v-1M4 22v-1"/>
</svg>
