<svg xmlns="http://www.w3.org/2000/svg" width="24" height="24" fill="none">
  <path fill="#1C274C" fill-rule="evenodd" d="M11.963 1.25h.074c1.09 0 1.96 0 2.66.065.72.067 1.333.207 1.885.534.662.392 1.21.955 1.59 1.63.315.56.45 1.181.515 1.914.063.715.063 1.605.063 2.725v.38a2.742 2.742 0 0 1 1.145-.248c1.622 0 2.855 1.388 2.855 2.996v4.716c0 .962 0 1.567-.11 2.085-.34 1.586-1.428 2.887-2.89 3.432V22a.75.75 0 0 1-1.5 0v-.258c-.278.008-.593.008-.96.008H6.71c-.883 0-1.463 0-1.961-.119V22a.75.75 0 0 1-1.5 0v-1c0-.016 0-.032.002-.049a4.765 4.765 0 0 1-1.891-2.904c-.111-.518-.111-1.123-.111-2.085v-4.716c0-1.608 1.233-2.996 2.855-2.996.411 0 .798.09 1.145.248v-.38c0-1.12 0-2.01.063-2.725.065-.733.2-1.355.516-1.915a4.398 4.398 0 0 1 1.59-1.628c.552-.327 1.166-.467 1.885-.534.7-.065 1.57-.065 2.66-.065ZM6.7 10c.167.383.26.806.26 1.246v4.337h10.08v-4.337c0-.44.092-.863.259-1.246h-.049V8.154c0-1.164 0-1.988-.057-2.63-.056-.631-.162-1.013-.329-1.31a2.897 2.897 0 0 0-1.046-1.074c-.283-.168-.648-.275-1.26-.331-.622-.058-1.422-.059-2.558-.059s-1.936 0-2.558.059c-.612.056-.977.163-1.26.331a2.898 2.898 0 0 0-1.046 1.074c-.167.297-.273.679-.329 1.31-.056.642-.057 1.466-.057 2.63V10h-.049Zm-2.596-.25c-.703 0-1.355.623-1.355 1.496v4.611c0 1.101.004 1.534.077 1.876.265 1.238 1.162 2.17 2.266 2.438.302.074.689.079 1.728.079h10.36c1.04 0 1.426-.005 1.728-.079 1.104-.269 2-1.2 2.266-2.438.073-.342.077-.775.077-1.876v-4.611c0-.873-.652-1.496-1.355-1.496-.704 0-1.355.623-1.355 1.496v5.087a.75.75 0 0 1-.75.75H6.21a.75.75 0 0 1-.75-.75v-5.087c0-.873-.651-1.496-1.355-1.496Z" clip-rule="evenodd"/>
</svg>
