<svg xmlns="http://www.w3.org/2000/svg" width="24" height="24" fill="none">
  <path stroke="#1C274C" stroke-linecap="round" stroke-width="1.5" d="m17.262 13.6 1.001-2.466c.276-.68 1-1.134 1.81-1.134 1.314 0 2.242 1.15 1.827 2.264l-1.12 3c-.195.524-.292.785-.421 1.008-.524.904-1.498 1.53-2.624 1.69-.276.038-.585.038-1.202.038H6.766c-1.5-.021-2.827-.876-3.324-2.14l-.039-.103h0L2.1 12.264C1.685 11.15 2.613 10 3.927 10c.81 0 1.534.453 1.81 1.134l1.098 2.706h0c.1.246.15.37.222.47a1.2 1.2 0 0 0 .74.463c.13.027.277.027.57.027h6.98c.569 0 .853 0 1.091-.098.13-.054.248-.128.349-.219.184-.166.281-.405.475-.883Z"/>
  <path fill="#1C274C" d="m17.297 4.67-.517.543.517-.544Zm-10.594 0-.517-.544.517.543ZM12 3.25a.75.75 0 0 0 0 1.5v-1.5ZM8.118 4.848a.75.75 0 0 0-.236-1.481l.236 1.481ZM6.75 12V8.571h-1.5V12h1.5Zm10.5-3.429V12h1.5V8.571h-1.5ZM13.2 4.75c1.152 0 1.943.001 2.538.078.577.073.854.206 1.042.385l1.034-1.087c-.515-.49-1.155-.693-1.885-.786-.713-.091-1.618-.09-2.729-.09v1.5Zm5.55 3.821c0-1.055.002-1.925-.095-2.612-.1-.713-.32-1.337-.84-1.833L16.78 5.213c.182.173.314.423.39.955.078.558.08 1.304.08 2.403h1.5Zm-12 0c0-1.1.002-1.845.08-2.403.076-.532.208-.782.39-.955L6.186 4.126c-.52.496-.74 1.12-.84 1.833-.098.687-.096 1.557-.096 2.612h1.5ZM12 4.75h1.2v-1.5H12v1.5ZM7.882 3.367c-.653.104-1.227.312-1.696.76L7.22 5.212c.172-.164.418-.288.898-.365l-.236-1.481Z"/>
  <path stroke="#1C274C" stroke-linecap="round" stroke-width="1.5" d="M18 20v-2M6 20v-1.333"/>
</svg>
