<svg xmlns="http://www.w3.org/2000/svg" width="24" height="24" fill="none">
  <g fill="#1C274C">
    <path fill-rule="evenodd" d="M6.47 13.97a.75.75 0 0 0 0 1.06l5 5a.75.75 0 0 0 1.06 0l5-5a.75.75 0 1 0-1.06-1.06L12 18.44l-4.47-4.47a.75.75 0 0 0-1.06 0Z" clip-rule="evenodd"/>
    <path d="M11.25 9.5c0-.953.28-2.367 1.141-3.563.89-1.235 2.365-2.187 4.609-2.187a.75.75 0 0 1 0 1.5c-1.756 0-2.78.715-3.391 1.563-.639.887-.859 1.974-.859 2.687v8.19l-.75.75-.75-.75V9.5Zm.552 10.724Z" opacity=".5"/>
  </g>
</svg>
