<svg xmlns="http://www.w3.org/2000/svg" width="24" height="24" fill="none">
  <g fill="#1C274C">
    <path d="M17.002 6.998a24.933 24.933 0 0 0-3.54-2.952c1.377-.7 2.682-1.122 3.813-1.253 1.427-.165 2.482.139 3.137.794.656.656.96 1.71.794 3.137-.13 1.132-.552 2.436-1.253 3.814a24.927 24.927 0 0 0-2.951-3.54Z"/>
    <path fill-rule="evenodd" d="M15.941 8.059a23.003 23.003 0 0 1 3.179 3.94 22.996 22.996 0 0 1-3.179 3.941 23 23 0 0 1-3.94 3.179 23 23 0 0 1-3.942-3.179A23.004 23.004 0 0 1 4.881 12 22.998 22.998 0 0 1 8.06 8.057 23 23 0 0 1 12 4.88a23 23 0 0 1 3.941 3.179ZM12 14.5a2.5 2.5 0 1 0 0-5 2.5 2.5 0 0 0 0 5Z" clip-rule="evenodd"/>
    <path d="M13.462 19.953A24.937 24.937 0 0 0 17.002 17a24.932 24.932 0 0 0 2.951-3.54c.701 1.378 1.123 2.682 1.253 3.813.165 1.427-.138 2.482-.794 3.137-.655.656-1.71.96-3.137.794-1.131-.13-2.436-.551-3.813-1.252ZM6.999 17a24.929 24.929 0 0 0 3.54 2.953c-1.378.7-2.682 1.122-3.814 1.252-1.427.165-2.48-.138-3.136-.794-.656-.655-.96-1.71-.795-3.137.13-1.131.552-2.435 1.253-3.813A24.934 24.934 0 0 0 7 17.001Zm-2.952-6.462A24.936 24.936 0 0 1 7 6.998a24.932 24.932 0 0 1 3.54-2.952c-1.378-.7-2.682-1.122-3.814-1.253-1.427-.164-2.481.139-3.137.794-.655.656-.959 1.71-.794 3.138.13 1.131.552 2.435 1.253 3.813Z"/>
  </g>
</svg>
