<svg xmlns="http://www.w3.org/2000/svg" width="24" height="24" fill="none">
  <g fill="#1C274C">
    <path d="M4.083 10.894c.439-2.34.658-3.511 1.491-4.203C6.408 6 7.598 6 9.98 6h4.04c2.383 0 3.573 0 4.407.691.833.692 1.052 1.862 1.491 4.203l.75 4c.617 3.292.926 4.938.026 6.022C19.794 22 18.12 22 14.771 22H9.23c-3.349 0-5.024 0-5.923-1.084-.9-1.084-.591-2.73.026-6.022l.75-4Z" opacity=".5"/>
    <path d="M9.75 5a2.25 2.25 0 0 1 4.5 0v1c.566 0 1.062.002 1.5.015V5a3.75 3.75 0 1 0-7.5 0v1.015C8.688 6.002 9.184 6 9.75 6V5Z"/>
    <path fill-rule="evenodd" d="M12.75 17a2.75 2.75 0 1 1-1.5-2.45v-2.72c0-.163 0-.375.031-.541.081-.422.314-.8.656-1.061a2.52 2.52 0 0 1 .433-.251l1.37-.685c.203-.102.38-.19.529-.256.15-.065.33-.133.528-.156a1.75 1.75 0 0 1 1.848 1.142c.068.188.088.378.096.543.009.161.009.36.009.587v.06c0 .162 0 .333-.031.499-.081.422-.315.8-.656 1.061a2.64 2.64 0 0 1-.433.251l-1.37.685c-.203.102-.38.19-.529.255-.15.066-.33.134-.528.157a1.752 1.752 0 0 1-.453-.006V17Zm2.118-6.588c.07-.031.102-.04.11-.043a.25.25 0 0 1 .254.157.963.963 0 0 1 .012.117c.006.118.006.277.006.528a6.627 6.627 0 0 1-.005.259.25.25 0 0 1-.093.15 6.81 6.81 0 0 1-.23.12l-1.316.658a10.21 10.21 0 0 1-.474.23.964.964 0 0 1-.11.043.25.25 0 0 1-.254-.157.957.957 0 0 1-.012-.117 11.441 11.441 0 0 1-.006-.528 6.616 6.616 0 0 1 .005-.259.25.25 0 0 1 .093-.15 6.54 6.54 0 0 1 .23-.12l1.316-.658c.224-.113.366-.183.474-.23ZM10 15.75a1.25 1.25 0 1 1 0 2.5 1.25 1.25 0 0 1 0-2.5Z" clip-rule="evenodd"/>
  </g>
</svg>
