<svg xmlns="http://www.w3.org/2000/svg" width="24" height="24" fill="none">
  <path fill="#1C274C" d="m12 12.191-.519.542a.75.75 0 0 0 1.038 0L12 12.191Zm-.957 3.675-.444.604.444-.604Zm1.914 0-.444-.605.444.605Zm-.957.462v.75-.75Zm-.514-1.067c-.417-.307-.878-.69-1.227-1.093-.368-.426-.509-.757-.509-.971h-1.5c0 .77.441 1.45.875 1.952.453.525 1.014.984 1.474 1.321l.887-1.21ZM9.75 13.197c0-.576.263-.827.492-.907.25-.088.714-.06 1.24.443l1.037-1.083c-.825-.79-1.861-1.096-2.773-.776-.934.327-1.496 1.226-1.496 2.323h1.5Zm3.65 3.273c.46-.337 1.022-.796 1.475-1.32.434-.502.875-1.183.875-1.953h-1.5c0 .214-.141.545-.51.971-.348.403-.809.786-1.226 1.093l.887 1.21Zm2.35-3.273c0-1.097-.563-1.996-1.496-2.323-.912-.32-1.948-.014-2.773.776l1.038 1.083c.525-.503.989-.531 1.24-.443.228.08.491.33.491.907h1.5ZM10.6 16.47c.368.27.782.608 1.4.608v-1.5c-.024 0-.04 0-.094-.03a4 4 0 0 1-.42-.287l-.887 1.21Zm1.914-1.21a4 4 0 0 1-.42.289c-.054.029-.07.029-.094.029v1.5c.618 0 1.032-.337 1.4-.608l-.886-1.21Z"/>
  <path stroke="#1C274C" stroke-linecap="round" stroke-width="1.5" d="M9 6V5a3 3 0 1 1 6 0v1m5.224 6.526c-.586-3.121-.878-4.682-1.99-5.604C17.125 6 15.537 6 12.36 6h-.72c-3.176 0-4.764 0-5.875.922-1.11.922-1.403 2.483-1.989 5.604-.823 4.389-1.234 6.583-.034 8.029C4.942 22 7.174 22 11.639 22h.722c4.465 0 6.698 0 7.897-1.445.696-.84.85-1.93.696-3.555"/>
</svg>
