<svg xmlns="http://www.w3.org/2000/svg" width="24" height="24" fill="none">
  <g fill="#1C274C">
    <path d="M15 11a1 1 0 1 0 0-2 1 1 0 0 0 0 2Zm-5-1a1 1 0 1 1-2 0 1 1 0 0 1 2 0Z"/>
    <path fill-rule="evenodd" d="M8.25 5.276V5a3.75 3.75 0 1 1 7.5 0v.276c.658.02 1.245.057 1.765.122 1.201.152 2.174.47 2.925 1.204.25.245.473.516.664.81.572.88.694 1.896.607 3.104-.086 1.182-.382 2.666-.759 4.549l-.02.095c-.26 1.307-.468 2.347-.726 3.166-.265.842-.604 1.524-1.17 2.076-.195.19-.405.362-.63.516-.652.447-1.387.645-2.265.74-.853.092-1.913.092-3.246.092h-1.79c-1.333 0-2.393 0-3.246-.092-.878-.095-1.613-.293-2.265-.74a4.747 4.747 0 0 1-.63-.516c-.566-.552-.905-1.234-1.17-2.076-.257-.819-.465-1.859-.727-3.166l-.019-.095c-.376-1.883-.673-3.367-.758-4.549-.088-1.208.034-2.224.606-3.104a4.75 4.75 0 0 1 .664-.81c.752-.734 1.724-1.052 2.925-1.204.52-.065 1.107-.102 1.765-.122ZM9.75 5a2.25 2.25 0 0 1 4.5 0v.252c-.424-.002-.872-.002-1.345-.002h-1.81c-.473 0-.92 0-1.345.002V5ZM4.608 7.675c.415-.405 1.008-.655 2.065-.789 1.07-.135 2.49-.136 4.476-.136h1.703c1.986 0 3.404.001 4.475.136 1.057.134 1.65.384 2.065.789.171.167.323.353.454.554.316.486.445 1.117.369 2.18-.078 1.076-.355 2.467-.744 4.415-.272 1.359-.465 2.32-.696 3.051-.225.717-.465 1.14-.786 1.453a3.26 3.26 0 0 1-.43.353c-.37.253-.832.405-1.579.486-.763.082-1.743.083-3.129.083H11.15c-1.386 0-2.366-.001-3.13-.083-.746-.08-1.207-.233-1.577-.486a3.264 3.264 0 0 1-.431-.354c-.321-.313-.56-.735-.786-1.452-.23-.732-.424-1.692-.695-3.051-.39-1.948-.667-3.34-.744-4.416-.077-1.062.052-1.693.368-2.179a3.25 3.25 0 0 1 .454-.554Z" clip-rule="evenodd"/>
  </g>
</svg>
