<svg xmlns="http://www.w3.org/2000/svg" width="24" height="24" fill="none">
  <g fill="#1C274C">
    <path d="M9.276 2.046a6.49 6.49 0 0 1 4.852 3.204c.54.936.822 1.951.866 2.961-.987.168-1.972.45-2.868.9A11.5 11.5 0 0 1 10.751 7.2C9.126 4.385 9.276 2.046 9.276 2.046ZM3.217 12.288l-.028-.04a6.492 6.492 0 0 1-.586-6.486c.66.47 2.362 1.817 3.644 4.038a12.067 12.067 0 0 1 .703 1.43c.057.139.11.276.16.41.692 1.9.614 3.278.612 3.314A6.519 6.519 0 0 1 3.65 12.83a6.484 6.484 0 0 1-.434-.543Z" opacity=".3"/>
    <path d="M16.02 8.076c-2.019.194-4.164.8-5.654 2.29-1.49 1.49-2.096 3.635-2.29 5.653l5.903 5.904c2.019-.195 4.164-.8 5.654-2.29 1.49-1.49 2.095-3.635 2.29-5.654l-5.904-5.903Z" opacity=".5"/>
    <path fill-rule="evenodd" d="M5.249 2.87a6.471 6.471 0 0 1 4.027-.825s-.15 2.34 1.475 5.154c.44.764.916 1.396 1.375 1.913a6.778 6.778 0 0 0-1.76 1.254c-1.24 1.24-1.867 2.932-2.155 4.628a6.502 6.502 0 0 1-.49-.04c.003-.03.082-1.41-.612-3.314a11.313 11.313 0 0 0-.577-1.319 12.057 12.057 0 0 0-.285-.522 13.212 13.212 0 0 0-3.644-4.037A6.47 6.47 0 0 1 5.249 2.87Z" clip-rule="evenodd"/>
    <path d="M19.248 8.061a18.998 18.998 0 0 0-3.228.016l5.903 5.903c.113-1.17.087-2.296.016-3.228a2.895 2.895 0 0 0-2.691-2.69Zm-8.496 13.878c.932.071 2.059.097 3.228-.016L8.077 16.02a18.998 18.998 0 0 0-.016 3.228 2.895 2.895 0 0 0 2.691 2.69Z"/>
    <path fill-rule="evenodd" d="M14.96 12.312a.525.525 0 0 1 .742 0l.622.622.621-.622a.525.525 0 1 1 .743.742l-.622.622.622.622a.525.525 0 1 1-.742.742l-.622-.621-.582.581.622.622a.525.525 0 0 1-.742.742L15 15.742l-.581.582.621.621a.525.525 0 1 1-.742.743l-.622-.622-.622.622a.525.525 0 1 1-.742-.742l.622-.622-.622-.622a.525.525 0 1 1 .742-.742l.622.621.582-.581-.622-.622a.525.525 0 0 1 .742-.742l.622.622.581-.582-.621-.622a.525.525 0 0 1 0-.742Z" clip-rule="evenodd"/>
  </g>
</svg>
