<svg xmlns="http://www.w3.org/2000/svg" width="24" height="24" fill="none">
  <g fill="#1C274C">
    <path d="M12.506 5.25a.75.75 0 0 0-.012 1.5 2.285 2.285 0 0 1 2.256 2.256.75.75 0 0 0 1.5-.012 3.785 3.785 0 0 0-3.744-3.744Z"/>
    <path fill-rule="evenodd" d="M3.81 9.685c-.036-4.671 3.613-8.473 8.196-8.435 4.573.038 8.268 3.885 8.304 8.548.03 3.908-2.625 7.634-6.245 8.67.042.085.077.168.102.247.332 1.062-.356 2.131-1.417 2.347V22.5a.75.75 0 0 1-1.5 0v-1.438c-1.06-.216-1.749-1.285-1.417-2.347.028-.088.068-.181.116-.277-3.592-1.09-6.108-4.871-6.138-8.753Zm8.184-6.935c-3.7-.03-6.714 3.044-6.683 6.923.03 3.969 3.058 7.546 6.695 7.577 3.655.03 6.835-3.511 6.804-7.44-.03-3.888-3.105-7.029-6.816-7.06Zm0 16a7.3 7.3 0 0 0 .514-.014.764.764 0 0 0 .027.052l.164.3.037.077c.05.168-.05.38-.286.427 0 0-.023.004-.096.006L12 19.6c-.165 0-.273 0-.353-.002-.074-.002-.097-.006-.097-.006-.237-.047-.336-.26-.286-.427.002-.005.011-.026.037-.077.036-.069.086-.16.165-.3l.03-.06c.164.013.33.02.498.022Z" clip-rule="evenodd"/>
  </g>
</svg>
