<svg xmlns="http://www.w3.org/2000/svg" width="24" height="24" fill="none">
  <g fill="#1C274C">
    <path fill-rule="evenodd" d="M5.46 6.733a4 4 0 0 1 3.294-4.425l.373-.064a17 17 0 0 1 5.745 0l.373.064a4 4 0 0 1 3.295 4.425l-.017.14a1 1 0 0 1-.992.879H6.469a1 1 0 0 1-.993-.88l-.017-.139Z" clip-rule="evenodd"/>
    <path d="M8.233 7.752 5.267 21.595a.75.75 0 0 0 1.467.314l.944-4.407h8.644l.945 4.407a.75.75 0 0 0 1.466-.314L15.767 7.752H14.25c0 .052.005.104.017.157L16 16.002H7.999l1.735-8.093a.753.753 0 0 0 .016-.157H8.233Z" opacity=".5"/>
  </g>
</svg>
