<svg xmlns="http://www.w3.org/2000/svg" width="24" height="24" fill="none">
  <g fill="#1C274C">
    <path fill-rule="evenodd" d="M6.865 20.583A9.955 9.955 0 0 1 3.339 17 9.955 9.955 0 0 1 2 12.159l.145.028c2.949.581 6.304-.469 9.061-2.162.363-.223.719-.458 1.065-.706.413.516.783 1.04 1.08 1.556.375.647.713 1.417 1.015 2.24-.518.25-1.022.526-1.508.822-2.792 1.699-5.174 4.176-5.992 6.644v.002Zm9.395.465a9.986 9.986 0 0 1-8.04.21l.069-.204c.663-2.002 2.72-4.237 5.348-5.836.394-.24.798-.463 1.206-.667.252.83.471 1.671.655 2.462a50.5 50.5 0 0 1 .699 3.597l.008.053.002.012v.004l.053.369Z" clip-rule="evenodd"/>
    <path d="M16.226 13.943c1.887-.72 3.811-.996 5.477-.63l.204.045a10.06 10.06 0 0 1-.71 2.57 9.949 9.949 0 0 1-3.538 4.317l-.013-.079a52 52 0 0 0-.687-3.494 39.959 39.959 0 0 0-.733-2.73Zm-2.773-5.546c1.728-1.469 3.087-3.21 3.672-4.949l.01-.03A9.955 9.955 0 0 1 20.66 7 9.954 9.954 0 0 1 22 11.842c-1.995-.431-4.186-.1-6.256.68-.32-.864-.685-1.688-1.094-2.397a14.112 14.112 0 0 0-1.197-1.728ZM8.319 3.454a35.28 35.28 0 0 0-.6-.465l-.023-.016a9.949 9.949 0 0 1 5.5-.902c.887.107 1.757.333 2.584.67l-.077.229c-.477 1.418-1.65 2.95-3.228 4.29a32.057 32.057 0 0 0-2.203-2.16A41.738 41.738 0 0 0 8.32 3.453Zm2.101 5.293c-2.586 1.588-5.55 2.449-7.987 1.969l-.342-.068a9.986 9.986 0 0 1 4.19-6.853l.328.239.002.001.01.007.039.029.154.115a40.238 40.238 0 0 1 2.456 2.03c.66.592 1.358 1.26 2.013 1.965-.28.195-.567.385-.863.566Z"/>
  </g>
</svg>
