<svg xmlns="http://www.w3.org/2000/svg" width="24" height="24" fill="none">
  <path fill="#1C274C" fill-rule="evenodd" d="M8.367 3.492c.499.396 1.172.95 1.905 1.607.702.63 1.473 1.366 2.203 2.161 1.403-1.191 2.486-2.535 3.044-3.815a9.307 9.307 0 0 0-2.414-.63 9.198 9.198 0 0 0-4.738.677Zm8.491.634c-.678 1.509-1.901 2.993-3.405 4.271a14.11 14.11 0 0 1 1.197 1.728c.41.71.774 1.533 1.095 2.396 1.812-.683 3.717-1.021 5.502-.805a9.21 9.21 0 0 0-1.236-4.341 9.209 9.209 0 0 0-3.153-3.249Zm4.312 9.093c-1.536-.209-3.255.08-4.944.724.29.937.535 1.876.733 2.729a52.129 52.129 0 0 1 .563 2.75 9.198 9.198 0 0 0 2.984-3.788c.33-.771.553-1.585.664-2.415Zm-5.026 7.05a50.5 50.5 0 0 0-.645-3.257 39.045 39.045 0 0 0-.655-2.461c-.409.204-.812.427-1.207.667-2.412 1.468-4.342 3.47-5.156 5.337a9.236 9.236 0 0 0 7.663-.285Zm-9.002-.395c1.001-2.227 3.19-4.401 5.715-5.937.486-.296.99-.572 1.508-.822-.302-.823-.64-1.593-1.014-2.24a12.654 12.654 0 0 0-1.081-1.556 18.36 18.36 0 0 1-1.064.706c-2.57 1.578-5.658 2.597-8.454 2.259a9.209 9.209 0 0 0 1.237 4.34 9.21 9.21 0 0 0 3.153 3.25ZM2.83 10.78a9.236 9.236 0 0 1 4.092-6.513A40.239 40.239 0 0 1 9.27 6.216c.66.592 1.357 1.26 2.012 1.965-.28.195-.567.385-.862.566C7.973 10.25 5.187 11.1 2.83 10.78Zm3.795-8.09a10.706 10.706 0 0 1 6.66-1.364 10.735 10.735 0 0 1 8.025 5.299 10.735 10.735 0 0 1 .576 9.598 10.706 10.706 0 0 1-4.511 5.087c-5.142 2.968-11.716 1.206-14.685-3.935C-.278 12.233 1.483 5.658 6.625 2.69Z" clip-rule="evenodd"/>
</svg>
