<svg xmlns="http://www.w3.org/2000/svg" width="24" height="24" fill="none">
  <path stroke="#1C274C" stroke-linecap="round" stroke-width="1.5" d="M12 20.5c.65 0 1.364-.017 2.098-.044.258-.01.386-.015.607-.037 3.278-.332 6.072-3.234 6.28-6.521.015-.222.015-.42.015-.815 0-.077 0-.116-.002-.148a1 1 0 0 0-.933-.933c-.033-.002-.07-.002-.148-.002M4.083 12c-.077 0-.115 0-.148.002a1 1 0 0 0-.933.933c-.002.032-.002.07-.002.148 0 .395 0 .593.014.815.18 2.844 2.296 5.4 4.986 6.252M6 20l-1 2m13-2 1 2M2 12h12m8 0h-4"/>
  <path fill="#1C274C" d="M2.25 13a.75.75 0 0 0 1.5 0h-1.5ZM7.6 3.5l.696-.28-.696.28Zm.379.947.328.674-.328-.674ZM6.362 6.192l.695.283-.695-.283Zm4.215-1.814-.295.69.295-.69ZM6.346 8.742l-.698.275a.75.75 0 0 0 .994.413l-.296-.688Zm5.96-2.567.297.69a.75.75 0 0 0 .401-.964l-.698.274ZM3.75 13V4.385h-1.5V13h1.5ZM5.385 2.75c.669 0 1.27.407 1.518 1.028l1.393-.557a3.135 3.135 0 0 0-2.91-1.971v1.5ZM3.75 4.385c0-.903.732-1.635 1.635-1.635v-1.5A3.135 3.135 0 0 0 2.25 4.385h1.5Zm3.153-.607.38.948 1.392-.557-.379-.948-1.393.557Zm.14 4.689a2.679 2.679 0 0 1 .014-1.992l-1.39-.565a4.179 4.179 0 0 0-.02 3.107l1.396-.55Zm4.967-2.98L6.049 8.053l.593 1.377 5.96-2.566-.592-1.377Zm-1.728-.42c.622.266 1.085.77 1.327 1.383l1.395-.55a3.973 3.973 0 0 0-2.132-2.212l-.59 1.38ZM7.057 6.476a2.565 2.565 0 0 1 1.25-1.354l-.656-1.348A4.065 4.065 0 0 0 5.667 5.91l1.39.565Zm1.25-1.354a2.361 2.361 0 0 1 1.975-.053l.59-1.38a3.861 3.861 0 0 0-3.221.085l.656 1.348Z"/>
</svg>
