<svg xmlns="http://www.w3.org/2000/svg" width="24" height="24" fill="none">
  <g stroke="#1C274C" stroke-width="1.5">
    <path d="M20 10c.943 0 1.414 0 1.707.293.293.293.293.764.293 1.707 0 .943 0 1.414-.293 1.707C21.414 14 20.943 14 20 14v-4Z"/>
    <path stroke-linecap="round" stroke-linejoin="round" d="M11.5 9 9 12h3.5L10 15"/>
    <path stroke-linecap="round" d="M2 12c0-3.771 0-5.657 1.172-6.828C4.343 4 6.229 4 10 4h1.5c3.771 0 5.657 0 6.828 1.172C19.5 6.343 19.5 8.229 19.5 12c0 3.771 0 5.657-1.172 6.828C17.157 20 15.271 20 11.5 20H10c-3.771 0-5.657 0-6.828-1.172-.654-.653-.943-1.528-1.07-2.828"/>
  </g>
</svg>
