<svg xmlns="http://www.w3.org/2000/svg" width="24" height="24" fill="none">
  <path fill="#1C274C" fill-rule="evenodd" d="M9.944 1.25h4.112c1.838 0 3.294 0 4.433.153 1.172.158 2.121.49 2.87 1.238.748.749 1.08 1.698 1.238 2.87.153 1.14.153 2.595.153 4.433v2.112c0 1.838 0 3.294-.153 4.433-.158 1.172-.49 2.121-1.238 2.87-.464.464-1.005.768-1.629.97.013.054.02.112.02.171V22a.75.75 0 0 1-1.5 0v-1.374c-1.102.124-2.482.124-4.194.124H9.944c-1.712 0-3.092 0-4.194-.124V22a.75.75 0 0 1-1.5 0v-1.5c0-.06.007-.117.02-.172-.624-.201-1.165-.505-1.629-.97-.748-.748-1.08-1.697-1.238-2.869-.153-1.14-.153-2.595-.153-4.433V9.944c0-1.838 0-3.294.153-4.433.158-1.172.49-2.121 1.238-2.87.749-.748 1.698-1.08 2.87-1.238 1.14-.153 2.595-.153 4.433-.153ZM2.75 11.75V12c0 1.907.002 3.261.14 4.29.135 1.005.389 1.585.812 2.008.423.423 1.003.677 2.009.812 1.028.138 2.382.14 4.289.14h4c1.907 0 3.262-.002 4.29-.14 1.005-.135 1.585-.389 2.008-.812.423-.423.677-1.003.812-2.009.138-1.028.14-2.382.14-4.289v-.25H2.75Zm18.5-1.5H2.75V10c0-1.907.002-3.261.14-4.29.135-1.005.389-1.585.812-2.008.423-.423 1.003-.677 2.009-.812 1.028-.138 2.382-.14 4.289-.14h4c1.907 0 3.262.002 4.29.14 1.005.135 1.585.389 2.008.812.423.423.677 1.003.812 2.009.138 1.028.14 2.382.14 4.289v.25Zm-13-3.75A.75.75 0 0 1 9 5.75h6a.75.75 0 0 1 0 1.5H9a.75.75 0 0 1-.75-.75Zm0 9a.75.75 0 0 1 .75-.75h6a.75.75 0 0 1 0 1.5H9a.75.75 0 0 1-.75-.75Z" clip-rule="evenodd"/>
</svg>
