<svg xmlns="http://www.w3.org/2000/svg" width="24" height="24" fill="none">
  <g fill="#1C274C">
    <path fill-rule="evenodd" d="M2 9.75c0-.442 0-.858.002-1.25h9.248v11.25H10c-1.806 0-3.18 0-4.25-.129v2.129a.75.75 0 0 1-1.5 0v-2.475a3.1 3.1 0 0 1-1.078-.697C2 17.407 2 15.521 2 11.75v-2ZM9 11a.75.75 0 0 1 .75.75v3a.75.75 0 0 1-1.5 0v-3A.75.75 0 0 1 9 11Z" clip-rule="evenodd"/>
    <path d="M21.974 7H2.026c.066-2.021.302-3.235 1.146-4.078C4.343 1.75 6.229 1.75 10 1.75h4c3.771 0 5.657 0 6.828 1.172.844.843 1.08 2.057 1.146 4.078Z"/>
    <path fill-rule="evenodd" d="M12.75 8.5h9.248c.002.392.002.808.002 1.25v2c0 3.771 0 5.657-1.172 6.828a3.1 3.1 0 0 1-1.078.697v2.475a.75.75 0 0 1-1.5 0v-2.129c-1.07.129-2.444.129-4.25.129h-1.25V8.5ZM15 11a.75.75 0 0 1 .75.75v3a.75.75 0 0 1-1.5 0v-3A.75.75 0 0 1 15 11Z" clip-rule="evenodd"/>
  </g>
</svg>
