<svg xmlns="http://www.w3.org/2000/svg" width="24" height="24" fill="none">
  <g fill="#1C274C">
    <path d="M13 11a1 1 0 1 1-2 0 1 1 0 0 1 2 0Zm0-6a1 1 0 1 1-2 0 1 1 0 0 1 2 0Zm0 12a1 1 0 1 1-2 0 1 1 0 0 1 2 0Z"/>
    <path fill-rule="evenodd" d="M9.944 1.25h4.112c1.838 0 3.294 0 4.433.153 1.172.158 2.121.49 2.87 1.238.748.749 1.08 1.698 1.238 2.87.09.673.127 1.456.142 2.363a.755.755 0 0 1 .004.23c.007.566.007 1.178.007 1.84v2.112c0 .662 0 1.274-.007 1.84a.759.759 0 0 1-.003.23c-.016.907-.053 1.69-.143 2.363-.158 1.172-.49 2.121-1.238 2.87-.464.464-1.005.768-1.629.97.013.054.02.112.02.171V22a.75.75 0 0 1-1.5 0v-1.374c-1.102.124-2.482.124-4.194.124H9.944c-1.712 0-3.092 0-4.194-.124V22a.75.75 0 0 1-1.5 0v-1.5c0-.06.007-.117.02-.172-.624-.201-1.165-.505-1.629-.97-.748-.748-1.08-1.697-1.238-2.869-.09-.673-.127-1.456-.143-2.363a.755.755 0 0 1-.003-.23c-.007-.566-.007-1.178-.007-1.84V9.944c0-.662 0-1.274.007-1.84a.756.756 0 0 1 .003-.23c.016-.907.053-1.69.143-2.363.158-1.172.49-2.121 1.238-2.87.749-.748 1.698-1.08 2.87-1.238 1.14-.153 2.595-.153 4.433-.153Zm-7.192 7.5c-.002.388-.002.804-.002 1.25v2c0 .446 0 .862.002 1.25h18.496c.002-.388.002-.804.002-1.25v-2c0-.446 0-.862-.002-1.25H2.752Zm18.472-1.5H2.776c.02-.587.054-1.094.114-1.54.135-1.005.389-1.585.812-2.008.423-.423 1.003-.677 2.009-.812 1.028-.138 2.382-.14 4.289-.14h4c1.907 0 3.262.002 4.29.14 1.005.135 1.585.389 2.008.812.423.423.677 1.003.812 2.009.06.445.094.952.114 1.539Zm0 7.5H2.776c.02.587.054 1.094.114 1.54.135 1.005.389 1.585.812 2.008.423.423 1.003.677 2.009.812 1.028.138 2.382.14 4.289.14h4c1.907 0 3.262-.002 4.29-.14 1.005-.135 1.585-.389 2.008-.812.423-.423.677-1.003.812-2.009.06-.445.094-.952.114-1.539Z" clip-rule="evenodd"/>
  </g>
</svg>
