<svg xmlns="http://www.w3.org/2000/svg" width="24" height="24" fill="none">
  <g stroke="#1C274C" stroke-width="1.5">
    <path d="M9.98 4.88C10.965 4.292 11.458 4 12 4c.541 0 1.034.293 2.02.88l2.96 1.758c.985.586 1.479.88 1.75 1.362.27.483.27 1.069.27 2.241v3.518c0 1.172 0 1.758-.27 2.241-.271.483-.765.776-1.75 1.362l-2.96 1.759c-.986.586-1.479.879-2.02.879-.541 0-1.034-.293-2.02-.88l-2.96-1.758c-.985-.586-1.479-.88-1.75-1.362C5 15.517 5 14.931 5 13.759V10.24C5 9.07 5 8.483 5.27 8c.271-.483.765-.776 1.75-1.362l2.96-1.759Z"/>
    <path stroke-linecap="round" stroke-linejoin="round" d="M5 8 2 6m17 2 3-2M5 16l-3 2"/>
    <path stroke-linecap="round" d="m12 16.884 4-2.384"/>
  </g>
</svg>
