<svg xmlns="http://www.w3.org/2000/svg" width="24" height="24" fill="none">
  <g stroke="#1C274C" stroke-width="1.5">
    <circle cx="15" cy="4" r="2"/>
    <circle cx="6" cy="18" r="3"/>
    <circle cx="18" cy="18" r="3"/>
    <path stroke-linecap="round" d="M18.5 10h-2.026c-1.22 0-1.831 0-2.38-.227-.55-.227-.983-.657-1.85-1.518l-.576-.574c-.785-.78-1.178-1.17-1.642-1.127-.465.042-.78.497-1.411 1.406M12 18l.057-.359c.235-1.47.352-2.204.024-2.804-.328-.6-1.01-.898-2.374-1.493L8.23 12.7c-1.032-.45-1.549-.675-1.678-1.13-.05-.18-.031-.36.05-.57"/>
  </g>
</svg>
