<svg xmlns="http://www.w3.org/2000/svg" width="24" height="24" fill="none">
  <g stroke="#1C274C" stroke-linecap="round" stroke-width="1.5">
    <path d="M21 7v-.63c0-1.193 0-1.79-.158-2.27a3.045 3.045 0 0 0-1.881-1.937C18.493 2 17.914 2 16.755 2h-9.51c-1.159 0-1.738 0-2.206.163a3.046 3.046 0 0 0-1.881 1.936C3 4.581 3 5.177 3 6.37V15m18-4v9.374c0 .858-.985 1.314-1.608.744a.946.946 0 0 0-1.284 0l-.483.442a1.657 1.657 0 0 1-2.25 0 1.657 1.657 0 0 0-2.25 0 1.657 1.657 0 0 1-2.25 0 1.657 1.657 0 0 0-2.25 0 1.657 1.657 0 0 1-2.25 0l-.483-.442a.946.946 0 0 0-1.284 0c-.623.57-1.608.114-1.608-.744V19"/>
    <path stroke-linejoin="round" d="m9.5 10.4 1.429 1.6L14.5 8"/>
    <path d="M7.5 15.5H9m7.5 0H12"/>
  </g>
</svg>
