<svg xmlns="http://www.w3.org/2000/svg" width="24" height="24" fill="none">
  <path fill="#1C274C" fill-rule="evenodd" d="M7.099 1.25H16.9c1.017 0 1.717 0 2.306.204a3.796 3.796 0 0 1 2.348 2.412l-.713.234.713-.234c.196.597.195 1.307.195 2.36v14.148c0 1.466-1.727 2.338-2.864 1.297a.196.196 0 0 0-.271 0l-.484.442c-.928.85-2.334.85-3.262 0a.907.907 0 0 0-1.238 0c-.928.85-2.334.85-3.262 0a.907.907 0 0 0-1.238 0c-.928.85-2.334.85-3.262 0l-.483-.442a.196.196 0 0 0-.272 0c-1.137 1.04-2.864.169-2.864-1.297V6.227c0-1.054 0-1.764.195-2.361a3.795 3.795 0 0 1 2.348-2.412c.59-.205 1.289-.204 2.306-.204Zm.146 1.5c-1.221 0-1.642.01-1.96.121a2.297 2.297 0 0 0-1.414 1.462c-.111.339-.12.785-.12 2.037v14.004c0 .12.059.192.134.227a.2.2 0 0 0 .11.018.194.194 0 0 0 .107-.055 1.695 1.695 0 0 1 2.296 0l.483.442a.907.907 0 0 0 1.238 0 2.407 2.407 0 0 1 3.262 0 .907.907 0 0 0 1.238 0 2.407 2.407 0 0 1 3.262 0 .907.907 0 0 0 1.238 0l.483-.442a1.695 1.695 0 0 1 2.296 0c.043.04.08.052.108.055a.2.2 0 0 0 .109-.018c.075-.035.135-.108.135-.227V6.37c0-1.252-.01-1.698-.12-2.037a2.296 2.296 0 0 0-1.416-1.462c-.317-.11-.738-.12-1.959-.12h-9.51ZM6.25 7.5A.75.75 0 0 1 7 6.75h.5a.75.75 0 0 1 0 1.5H7a.75.75 0 0 1-.75-.75Zm3.5 0a.75.75 0 0 1 .75-.75H17a.75.75 0 0 1 0 1.5h-6.5a.75.75 0 0 1-.75-.75ZM6.25 11a.75.75 0 0 1 .75-.75h.5a.75.75 0 0 1 0 1.5H7a.75.75 0 0 1-.75-.75Zm3.5 0a.75.75 0 0 1 .75-.75H17a.75.75 0 0 1 0 1.5h-6.5a.75.75 0 0 1-.75-.75Zm-3.5 3.5a.75.75 0 0 1 .75-.75h.5a.75.75 0 0 1 0 1.5H7a.75.75 0 0 1-.75-.75Zm3.5 0a.75.75 0 0 1 .75-.75H17a.75.75 0 0 1 0 1.5h-6.5a.75.75 0 0 1-.75-.75Z" clip-rule="evenodd"/>
</svg>
