<svg xmlns="http://www.w3.org/2000/svg" width="24" height="24" fill="none">
  <path fill="#1C274C" fill-rule="evenodd" d="M1.25 2A.75.75 0 0 1 2 1.25h20a.75.75 0 0 1 0 1.5h-1.25v9.676c0 1.187.001 2.013-.335 2.753-.337.74-.958 1.284-1.852 2.065l-.118.103-2.038 1.782c-.91.795-1.645 1.438-2.296 1.876-.678.456-1.341.745-2.111.745-.77 0-1.433-.289-2.111-.745-.651-.438-1.387-1.081-2.296-1.876l-2.038-1.782-.118-.103c-.894-.781-1.516-1.324-1.852-2.065-.336-.74-.336-1.566-.335-2.753V2.75H2A.75.75 0 0 1 1.25 2Zm3.5.75v9.52c0 1.407.016 1.88.201 2.289.185.408.532.732 1.592 1.659l2 1.748c.956.836 1.62 1.416 2.184 1.794.545.367.915.49 1.273.49.357 0 .728-.122 1.274-.49.563-.378 1.227-.958 2.183-1.794l2-1.748c1.06-.927 1.407-1.25 1.592-1.659.185-.408.201-.882.201-2.289V2.75H4.75Zm3 5.25a.75.75 0 0 1 .75-.75h7a.75.75 0 0 1 0 1.5h-7A.75.75 0 0 1 7.75 8Zm0 5a.75.75 0 0 1 .75-.75h7a.75.75 0 0 1 0 1.5h-7a.75.75 0 0 1-.75-.75Z" clip-rule="evenodd"/>
</svg>
