<svg xmlns="http://www.w3.org/2000/svg" width="24" height="24" fill="none">
  <path fill="#1C274C" fill-rule="evenodd" d="m11.91 2.774 1.833 1.301c.54.384 1.012.719 1.341 1.034.351.335.666.764.666 1.35 0 .584-.315 1.013-.666 1.349-.33.315-.801.65-1.341 1.033L9.295 12l4.448 3.158c.54.383 1.012.718 1.341 1.034.351.335.666.764.666 1.349s-.315 1.014-.666 1.35c-.33.314-.801.65-1.341 1.033l-1.833 1.302c-.73.518-1.345.955-1.856 1.216-.52.265-1.156.465-1.79.14-.638-.326-.845-.96-.93-1.536-.084-.566-.084-1.319-.084-2.21V13.44l-3.82 2.674a.75.75 0 1 1-.86-1.229L6.692 12 2.57 9.114a.75.75 0 1 1 .86-1.229l3.82 2.674V5.163c0-.891 0-1.644.084-2.21.085-.576.292-1.21.93-1.535.634-.325 1.27-.126 1.79.14.51.26 1.126.698 1.856 1.216ZM8.75 13.452v5.323c0 .969.002 1.609.068 2.051.031.214.071.327.1.383a.226.226 0 0 0 .023.034l.005.003.007.003c.002 0 .015.002.044-.002.064-.009.181-.043.375-.142.4-.204.926-.575 1.72-1.138l1.737-1.234c.599-.425.978-.697 1.218-.927a1 1 0 0 0 .187-.22c.016-.029.016-.039.016-.044v-.002c0-.006 0-.016-.016-.044a.998.998 0 0 0-.187-.22c-.24-.23-.62-.502-1.218-.927L8.75 13.452Zm0-2.905V5.224c0-.969.002-1.609.068-2.05.031-.215.071-.327.1-.384a.16.16 0 0 1 .023-.034l.005-.003.007-.003a.16.16 0 0 1 .044.002c.064.01.181.043.375.142.4.204.926.575 1.72 1.138l1.737 1.234c.599.425.978.697 1.218.927a1 1 0 0 1 .187.22c.016.029.016.039.016.044v.002c0 .006 0 .016-.016.045a1 1 0 0 1-.187.22c-.24.23-.62.501-1.218.926L8.75 10.547Zm9.733-6.09a.75.75 0 0 1 1.06.025l-.518.494.518-.494.001.002.002.001.003.004.01.01.025.029a5.322 5.322 0 0 1 .347.452c.212.31.486.766.756 1.38.54 1.232 1.063 3.084 1.063 5.64 0 2.555-.522 4.408-1.063 5.639a8.482 8.482 0 0 1-.756 1.38 5.345 5.345 0 0 1-.373.482l-.009.01-.003.003-.002.002-.52-.493.52.494a.75.75 0 0 1-1.09-1.03l.002-.003h-.001l-.002.002.008-.008.044-.053a3.71 3.71 0 0 0 .189-.254c.163-.238.39-.613.62-1.136.458-1.043.936-2.69.936-5.035s-.478-3.992-.936-5.036a6.985 6.985 0 0 0-.62-1.136 3.806 3.806 0 0 0-.233-.307l-.007-.008.001.002m.028-1.059a.75.75 0 0 0-.03 1.057l.03-1.057Zm-1.832 2.88a.75.75 0 0 1 1.013.314L17 8l.664-.35v.002l.002.002.003.007.011.021a6.503 6.503 0 0 1 .162.343c.101.228.235.552.368.946.265.782.54 1.867.54 3.029 0 1.16-.275 2.247-.54 3.028a11.236 11.236 0 0 1-.493 1.215 6.262 6.262 0 0 1-.037.074l-.01.022-.004.006-.001.002-.001.002-.664-.35.664.35a.75.75 0 0 1-1.328-.698m0 0 .007-.013.026-.053a9.74 9.74 0 0 0 .42-1.039c.236-.693.461-1.608.461-2.546 0-.94-.225-1.853-.46-2.547a9.737 9.737 0 0 0-.447-1.092l-.006-.011v-.001a.75.75 0 0 1 .314-1.013" clip-rule="evenodd"/>
</svg>
