<svg xmlns="http://www.w3.org/2000/svg" width="24" height="24" fill="none">
  <g fill="#1C274C">
    <path d="m9.51 12.004 4.099 2.934c.498.356.934.668 1.238.961.324.312.614.711.614 1.255 0 .544-.29.944-.614 1.256-.304.293-.74.604-1.239.961l-1.691 1.21c-.674.483-1.242.89-1.714 1.132-.48.247-1.066.433-1.652.13-.588-.303-.78-.892-.858-1.428-.078-.526-.078-1.227-.078-2.055v-5.02L4.09 15.828a.689.689 0 0 1-.964-.172.701.701 0 0 1 .17-.972L7.101 12 3.295 9.316a.701.701 0 0 1-.17-.971.689.689 0 0 1 .964-.172l3.526 2.488V5.64c0-.83 0-1.53.078-2.056.079-.536.27-1.125.858-1.428.586-.303 1.172-.117 1.652.13.472.242 1.04.65 1.714 1.131l1.691 1.21c.5.358.935.67 1.239.962.324.313.614.712.614 1.256s-.29.943-.614 1.255c-.304.293-.74.605-1.239.961l-4.1 2.934.007.004-.006.004Zm8.474-7.02a.689.689 0 0 1 .979.024l.001.001.001.002.004.003.008.01a2.066 2.066 0 0 1 .1.117c.062.076.146.186.244.33.196.288.448.712.697 1.284C20.518 7.9 21 9.623 21 12c0 2.377-.482 4.1-.982 5.246a7.904 7.904 0 0 1-.697 1.284 4.986 4.986 0 0 1-.344.448l-.008.009-.004.003-.001.002-.479-.458.478.459a.689.689 0 0 1-.979.024.701.701 0 0 1-.027-.983l.006-.007a3.54 3.54 0 0 0 .215-.286c.151-.221.36-.57.573-1.056.423-.971.864-2.504.864-4.685 0-2.18-.44-3.713-.864-4.684a6.503 6.503 0 0 0-.572-1.056 3.555 3.555 0 0 0-.215-.286l-.007-.007a.701.701 0 0 1 .027-.983Z"/>
    <path d="M16.306 7.656a.69.69 0 0 1 .929.312v.001l.001.002.003.006.01.02a6.749 6.749 0 0 1 .147.328c.093.218.215.527.338.897.242.732.497 1.743.497 2.779 0 1.035-.255 2.046-.497 2.778a11.74 11.74 0 0 1-.485 1.225l-.01.02-.003.006v.002l-.001.001a.69.69 0 0 1-.93.312.7.7 0 0 1-.309-.935l.001-.002.006-.012a4.502 4.502 0 0 0 .12-.27c.08-.188.189-.46.297-.788.22-.663.426-1.513.426-2.337 0-.825-.206-1.675-.426-2.338a10.31 10.31 0 0 0-.417-1.058l-.006-.012v-.001a.7.7 0 0 1 .309-.936Z"/>
  </g>
</svg>
