<svg xmlns="http://www.w3.org/2000/svg" width="24" height="24" fill="none">
  <g fill="#1C274C">
    <path d="m9.51 12.004 4.099 2.934c.498.356.934.668 1.238.961.324.312.614.711.614 1.255 0 .544-.29.944-.614 1.256-.304.293-.74.604-1.239.961l-1.691 1.21c-.674.483-1.242.89-1.714 1.132-.48.247-1.066.433-1.652.13-.588-.303-.78-.892-.858-1.428-.078-.526-.078-1.227-.078-2.055v-5.02L4.09 15.828a.689.689 0 0 1-.964-.172.701.701 0 0 1 .17-.972L7.101 12 3.295 9.316a.701.701 0 0 1-.17-.971.689.689 0 0 1 .964-.172l3.526 2.488V5.64c0-.83 0-1.53.078-2.056.079-.536.27-1.125.858-1.428.586-.303 1.172-.117 1.652.13.472.242 1.04.65 1.714 1.131l1.691 1.21c.5.358.935.67 1.239.962.324.313.614.712.614 1.256s-.29.943-.614 1.255c-.304.293-.74.605-1.239.961l-4.1 2.934.007.004-.006.004Z"/>
    <path d="M17.984 4.983a.689.689 0 0 1 .979.025l.002.002.003.004.009.009a2.066 2.066 0 0 1 .1.117c.062.077.146.187.244.33.196.288.448.713.697 1.284C20.518 7.9 21 9.623 21 12c0 2.377-.482 4.1-.982 5.245-.25.572-.501.996-.697 1.284a4.959 4.959 0 0 1-.344.448l-.009.01-.003.003-.001.001s-.001.001-.48-.457l.479.458a.689.689 0 0 1-.98.024.701.701 0 0 1-.026-.982l.006-.008a3.548 3.548 0 0 0 .215-.286c.151-.22.36-.57.573-1.056.423-.97.864-2.503.864-4.684 0-2.18-.44-3.713-.864-4.684a6.503 6.503 0 0 0-.572-1.056 3.555 3.555 0 0 0-.216-.286l-.006-.008a.701.701 0 0 1 .027-.983Z" opacity=".4"/>
    <path d="M16.306 7.656a.69.69 0 0 1 .928.312l.001.001.001.002.003.006.01.02.033.071a11.717 11.717 0 0 1 .451 1.154c.243.732.498 1.743.498 2.779 0 1.035-.255 2.046-.497 2.778a11.715 11.715 0 0 1-.485 1.225l-.01.02-.003.006v.002l-.001.001a.69.69 0 0 1-.93.312.7.7 0 0 1-.31-.935l.002-.002.006-.012a4.71 4.71 0 0 0 .12-.27c.08-.188.189-.46.297-.788.22-.663.426-1.513.426-2.337 0-.825-.207-1.675-.426-2.338a10.311 10.311 0 0 0-.418-1.058l-.005-.012-.001-.001a.7.7 0 0 1 .31-.936Z" opacity=".7"/>
  </g>
</svg>
