<svg xmlns="http://www.w3.org/2000/svg" width="24" height="24" fill="none">
  <path fill="#1C274C" d="m16.743 15.158-4.441-3.154.006-.004-.007-.005 4.442-3.154c.54-.383 1.012-.718 1.341-1.033.351-.336.666-.765.666-1.35 0-.585-.315-1.014-.666-1.349-.33-.315-.801-.65-1.341-1.034L14.91 2.774c-.73-.518-1.346-.956-1.857-1.216-.52-.266-1.155-.465-1.79-.14-.637.325-.844.959-.93 1.535-.083.566-.083 1.319-.083 2.21v5.396L6.43 7.886a.75.75 0 1 0-.86 1.228L9.692 12 5.57 14.886a.75.75 0 0 0 .86 1.229l3.82-2.674v5.396c0 .89 0 1.643.084 2.209.085.577.292 1.21.93 1.536.634.325 1.27.125 1.79-.14.51-.261 1.126-.698 1.856-1.216l1.832-1.302c.54-.384 1.013-.719 1.342-1.034.351-.335.666-.764.666-1.35 0-.584-.315-1.013-.666-1.348-.33-.316-.801-.65-1.341-1.034Z"/>
</svg>
