<svg xmlns="http://www.w3.org/2000/svg" width="24" height="24" fill="none">
  <g stroke="#1C274C" stroke-width="1.5">
    <circle cx="9.5" cy="14.5" r="7.5"/>
    <path stroke-linecap="round" d="m17 7-2 2"/>
    <path d="M17.981 2.353a.558.558 0 0 1 1.038 0l.654 1.66c.057.143.17.257.315.314l1.659.654c.47.186.47.852 0 1.038l-1.66.654a.558.558 0 0 0-.314.315l-.654 1.659a.558.558 0 0 1-1.038 0l-.654-1.66a.558.558 0 0 0-.315-.314l-1.659-.654a.558.558 0 0 1 0-1.038l1.66-.654a.558.558 0 0 0 .314-.315l.654-1.659Z"/>
  </g>
</svg>
