<svg xmlns="http://www.w3.org/2000/svg" width="24" height="24" fill="none">
  <g fill="#1C274C">
    <path fill-rule="evenodd" d="M19.173 4.827a3.27 3.27 0 0 0-5.566-2.62c-.919.92-1.398 2.489-1.04 3.783.058.21.083.414.068.577-.014.16-.06.234-.097.272l-1.28 1.279a.89.89 0 0 0 .28 1.446 5.518 5.518 0 0 1 2.898 2.899.89.89 0 0 0 1.446.278l1.28-1.28c.037-.037.111-.082.271-.096.163-.015.366.01.577.068 1.294.358 2.864-.121 3.782-1.04a3.269 3.269 0 0 0-2.619-5.566ZM17.17 3.268a1.77 1.77 0 0 0-2.502 0c-.568.568-.858 1.59-.656 2.322.09.325.152.715.117 1.109-.035.397-.174.844-.53 1.2l-.684.684a7.02 7.02 0 0 1 2.502 2.502l.684-.684c.356-.356.803-.495 1.2-.53a3.18 3.18 0 0 1 1.11.117c.732.202 1.753-.088 2.32-.656a1.77 1.77 0 0 0-2.5-2.501.75.75 0 0 1-1.062-1.061 1.769 1.769 0 0 0 0-2.502Z" clip-rule="evenodd"/>
    <path d="M17.127 17.126a.75.75 0 0 1 1.06 0l1.415 1.415a.75.75 0 0 1-1.06 1.06l-1.415-1.414a.75.75 0 0 1 0-1.06ZM6.874 5.813a.75.75 0 0 1-1.061 1.06L4.399 5.46a.75.75 0 1 1 1.06-1.06l1.415 1.414ZM15 18.25a.75.75 0 0 1 .75.75v1a.75.75 0 0 1-1.5 0v-1a.75.75 0 0 1 .75-.75ZM5 9.75a.75.75 0 0 0 0-1.5H4a.75.75 0 0 0 0 1.5h1ZM18.25 15a.75.75 0 0 1 .75-.75h1a.75.75 0 0 1 0 1.5h-1a.75.75 0 0 1-.75-.75Zm-10-10a.75.75 0 0 0 1.5 0V4a.75.75 0 0 0-1.5 0v1Z"/>
    <path fill-rule="evenodd" d="M12.463 14.436a5.518 5.518 0 0 1-2.899-2.899.89.89 0 0 0-1.446-.278l-1.28 1.28c-.037.037-.111.082-.271.096a1.693 1.693 0 0 1-.577-.068c-1.294-.358-2.864.121-3.783 1.04a3.27 3.27 0 0 0 2.62 5.566 3.269 3.269 0 0 0 5.566 2.62c.919-.92 1.398-2.489 1.04-3.783a1.694 1.694 0 0 1-.068-.577c.014-.16.06-.234.097-.272l1.28-1.279a.89.89 0 0 0-.28-1.446Zm-3.88-1.52-.68.68-.004.003-.023.022c-.352.34-.788.474-1.177.508a3.178 3.178 0 0 1-1.11-.117c-.732-.202-1.753.088-2.32.656a1.769 1.769 0 1 0 2.5 2.502.748.748 0 0 1 .249-.165l.006-.003a.75.75 0 0 1 .807 1.228 1.769 1.769 0 1 0 2.501 2.502c.568-.568.858-1.59.656-2.322a3.178 3.178 0 0 1-.117-1.109c.035-.397.174-.844.53-1.2l.684-.684a7.02 7.02 0 0 1-2.502-2.502Z" clip-rule="evenodd"/>
  </g>
</svg>
