<svg xmlns="http://www.w3.org/2000/svg" width="24" height="24" fill="none">
  <path fill="#1C274C" fill-rule="evenodd" d="M17.17 3.268a1.77 1.77 0 0 0-2.502 0c-.568.568-.858 1.59-.656 2.322.09.325.152.715.117 1.109-.035.397-.174.844-.53 1.2l-5.7 5.7c-.356.356-.803.495-1.2.53a3.178 3.178 0 0 1-1.11-.117c-.732-.202-1.753.088-2.32.656a1.769 1.769 0 1 0 2.5 2.502.75.75 0 1 1 1.062 1.06 1.769 1.769 0 1 0 2.501 2.502c.568-.568.858-1.59.656-2.322a3.178 3.178 0 0 1-.117-1.109c.035-.397.174-.844.53-1.2l5.7-5.7c.356-.356.803-.495 1.2-.53a3.18 3.18 0 0 1 1.11.117c.732.202 1.753-.088 2.32-.656a1.77 1.77 0 0 0-2.5-2.501.75.75 0 0 1-1.062-1.061 1.769 1.769 0 0 0 0-2.502Zm2.003 1.559a3.27 3.27 0 0 0-5.566-2.62c-.919.92-1.398 2.489-1.04 3.783.058.21.083.414.068.577-.014.16-.06.234-.097.272l-5.7 5.7c-.037.037-.111.082-.271.096a1.693 1.693 0 0 1-.577-.068c-1.294-.358-2.864.121-3.783 1.04a3.27 3.27 0 0 0 2.62 5.566 3.269 3.269 0 0 0 5.566 2.62c.919-.92 1.398-2.489 1.04-3.783a1.694 1.694 0 0 1-.068-.577c.014-.16.06-.234.097-.272l5.7-5.7c.037-.037.111-.082.271-.096.163-.015.366.01.577.068 1.294.358 2.864-.121 3.782-1.04a3.269 3.269 0 0 0-2.619-5.566Z" clip-rule="evenodd"/>
</svg>
