<svg xmlns="http://www.w3.org/2000/svg" width="24" height="24" fill="none">
  <path fill="#1C274C" fill-rule="evenodd" d="M12.669 1.51a1.962 1.962 0 0 1 2.182.155c1.848 1.385 3.9 3.78 3.9 7.142 0 2.732-1.196 4.506-2.722 5.57-1.487 1.036-3.247 1.373-4.429 1.373a6.594 6.594 0 0 1-3.967-1.402c-1.356-1.08-2.383-2.85-2.383-5.54 0-2.424 1.406-3.982 2.594-4.778.92-.618 2.292-.216 2.472 1.04.065.46.302.787.472.898.02.013.034.02.045.025a.498.498 0 0 0 .095-.116c.482-.757.675-1.838.675-2.488 0-.82.433-1.517 1.066-1.879Zm-1.856 4.496.005-.002-.005.002Zm.036-.008a.01.01 0 0 1 .003.001h-.003Zm2.563-3.184a.647.647 0 0 0-.309.575c0 .835-.228 2.223-.91 3.294-.248.388-.598.687-1.049.784-.447.096-.86-.036-1.176-.243-.61-.398-1.025-1.156-1.137-1.941a.106.106 0 0 0-.007-.027L8.82 5.25s-.002-.003-.01-.006c-.013-.005-.061-.016-.132.032-.917.615-1.929 1.76-1.929 3.531 0 2.263.84 3.59 1.817 4.368A5.097 5.097 0 0 0 11.6 14.25c.952 0 2.392-.282 3.572-1.104 1.14-.794 2.078-2.117 2.078-4.339 0-2.7-1.646-4.703-3.299-5.942-.2-.15-.387-.138-.54-.051Zm1.804 6.468a.75.75 0 0 1 .503.934c-.27.896-1.384 2.534-3.719 2.534a.75.75 0 0 1 0-1.5c1.506 0 2.15-1.028 2.282-1.466a.75.75 0 0 1 .934-.502ZM3.313 14.699a.75.75 0 0 1 .988-.386l5 2.187a.75.75 0 1 1-.601 1.375l-5-2.188a.75.75 0 0 1-.387-.988Zm17.374 0a.75.75 0 0 1-.386.988l-16 7a.75.75 0 0 1-.601-1.374l16-7a.75.75 0 0 1 .987.386Zm-6.874 4.594a.75.75 0 0 1 .988-.386l5.5 2.406a.75.75 0 1 1-.601 1.374l-5.5-2.406a.75.75 0 0 1-.387-.988Z" clip-rule="evenodd"/>
</svg>
