<svg xmlns="http://www.w3.org/2000/svg" width="24" height="24" fill="none">
  <path fill="#1C274D" fill-rule="evenodd" d="M9.945 1.25h4.11c1.367 0 2.47 0 3.337.117.9.12 1.658.38 2.26.981.602.602.86 1.36.982 2.26.116.867.116 1.97.116 3.337v8.11c0 1.367 0 2.47-.116 3.337-.122.9-.38 1.658-.982 2.26-.602.602-1.36.86-2.26.982-.867.116-1.97.116-3.337.116h-4.11c-1.367 0-2.47 0-3.337-.116-.9-.122-1.658-.38-2.26-.982-.602-.602-.86-1.36-.981-2.26-.117-.867-.117-1.97-.117-3.337v-8.11c0-1.367 0-2.47.117-3.337.12-.9.38-1.658.981-2.26.602-.602 1.36-.86 2.26-.981.867-.117 1.97-.117 3.337-.117ZM6.25 2.96c-.392.105-.645.253-.841.449-.277.277-.457.665-.556 1.4C4.752 5.562 4.75 6.564 4.75 8v7.926c.352-.246.75-.434 1.177-.548.104-.028.21-.05.323-.067V2.961Zm1.5-.183V15.25h11.5V8c0-1.435-.002-2.437-.103-3.192-.099-.734-.28-1.122-.556-1.399-.277-.277-.665-.457-1.4-.556-.755-.101-1.756-.103-3.191-.103h-4c-.908 0-1.642 0-2.25.027Zm11.5 13.973h-5.5v2.808c0 .111 0 .27-.02.406a.936.936 0 0 1-.445.683.958.958 0 0 1-.783.072c-.13-.04-.272-.109-.378-.159l-.025-.012L11 20.026l-1.1.522-.024.012c-.106.05-.248.118-.378.159a.957.957 0 0 1-.783-.072.937.937 0 0 1-.444-.683c-.021-.136-.021-.295-.021-.406V16.75h-.352c-.978 0-1.32.006-1.583.077a2.25 2.25 0 0 0-1.538 1.422c.015.354.039.665.076.943.099.734.28 1.122.556 1.399.277.277.665.457 1.4.556.754.101 1.756.103 3.191.103h4c1.435 0 2.436-.002 3.192-.103.734-.099 1.122-.28 1.399-.556.277-.277.457-.665.556-1.4.083-.615.099-1.395.102-2.441Zm-9.5 0v2.21l.75-.357.008-.004a1.13 1.13 0 0 1 .492-.13 1.13 1.13 0 0 1 .5.134l.75.356V16.75h-2.5Z" clip-rule="evenodd"/>
</svg>
