<svg xmlns="http://www.w3.org/2000/svg" width="24" height="24" fill="none">
  <g fill="#1C274D">
    <path d="M12 20.028V18H8v2.028c0 .277 0 .416.095.472.095.056.224-.006.484-.13l1.242-.593c.088-.042.132-.063.179-.063.047 0 .091.02.179.063l1.242.593c.26.124.39.186.484.13.095-.056.095-.195.095-.472Z" opacity=".5"/>
    <path d="M8 18h-.574c-1.084 0-1.462.006-1.753.068-.513.11-.96.347-1.285.667-.11.108-.164.161-.291.505-.127.343-.107.489-.066.78l.022.15c.11.653.31.998.616 1.244.307.246.737.407 1.55.494.837.09 1.946.092 3.536.092h4.43c1.59 0 2.7-.001 3.536-.092.813-.087 1.243-.248 1.55-.494.306-.246.506-.591.616-1.243.091-.548.11-1.241.113-2.171h-8v2.028c0 .277 0 .416-.095.472-.095.056-.224-.006-.484-.13l-1.242-.593c-.088-.042-.132-.063-.179-.063-.047 0-.091.02-.179.063l-1.242.593c-.26.124-.39.186-.484.13C8 20.444 8 20.305 8 20.028V18Z"/>
    <path d="M4.727 2.733c.306-.308.734-.508 1.544-.618C7.105 2.002 8.209 2 9.793 2h4.414c1.584 0 2.688.002 3.522.115.81.11 1.238.31 1.544.618.305.308.504.74.613 1.557.112.84.114 1.955.114 3.552V18H7.426c-1.084 0-1.462.006-1.753.068-.513.11-.96.347-1.285.667-.11.108-.164.161-.291.505A1.273 1.273 0 0 0 4 19.7V7.842c0-1.597.002-2.711.114-3.552.109-.816.308-1.249.613-1.557Z" opacity=".5"/>
    <path d="M7.25 7A.75.75 0 0 1 8 6.25h8a.75.75 0 0 1 0 1.5H8A.75.75 0 0 1 7.25 7ZM8 9.75a.75.75 0 0 0 0 1.5h5a.75.75 0 0 0 0-1.5H8Z"/>
  </g>
</svg>
