<svg xmlns="http://www.w3.org/2000/svg" width="24" height="24" fill="none">
  <g fill="#1C274D">
    <path d="M9 5.25a.75.75 0 0 0 0 1.5h6a.75.75 0 0 0 0-1.5H9Z"/>
    <path fill-rule="evenodd" d="M11.943 1.25c-2.073 0-3.706 0-4.982.173-1.31.178-2.355.552-3.176 1.382-.82.829-1.188 1.882-1.364 3.202-.171 1.289-.171 2.938-.171 5.034v5.098c0 1.508 0 2.701.096 3.6.095.888.298 1.689.88 2.225.466.43 1.056.7 1.686.773.787.09 1.522-.286 2.247-.8.733-.518 1.622-1.305 2.744-2.297l.036-.032c.52-.46.872-.77 1.166-.986.284-.207.457-.282.603-.312a1.51 1.51 0 0 1 .584 0c.146.03.32.105.603.312.294.215.646.526 1.166.986l.037.032c1.121.992 2.01 1.779 2.743 2.298.725.513 1.46.889 2.247.799a2.99 2.99 0 0 0 1.686-.773c.581-.536.785-1.337.88-2.225.096-.899.096-2.092.096-3.6v-5.098c0-2.096 0-3.746-.171-5.034-.176-1.32-.544-2.373-1.364-3.202-.821-.83-1.866-1.204-3.176-1.382-1.276-.173-2.909-.173-4.982-.173h-.114ZM4.85 3.86c.497-.502 1.172-.795 2.312-.95 1.163-.158 2.694-.16 4.837-.16s3.674.002 4.837.16c1.14.155 1.815.448 2.312.95.498.503.789 1.188.943 2.345.156 1.178.158 2.727.158 4.893v4.993c0 1.566-.001 2.68-.087 3.488-.09.83-.253 1.141-.405 1.282-.234.215-.528.35-.84.385-.2.023-.534-.054-1.21-.532-.658-.467-1.487-1.198-2.653-2.23l-.026-.023c-.488-.431-.892-.788-1.249-1.05-.373-.272-.749-.482-1.192-.571a2.979 2.979 0 0 0-1.176 0c-.443.09-.82.299-1.192.572-.357.26-.761.618-1.249 1.049l-.026.023c-1.166 1.032-1.995 1.763-2.653 2.23-.676.478-1.01.555-1.21.532a1.489 1.489 0 0 1-.84-.385c-.152-.141-.316-.452-.404-1.282-.087-.809-.088-1.922-.088-3.488v-4.994c0-2.165.002-3.714.158-4.892.154-1.157.445-1.842.943-2.345Z" clip-rule="evenodd"/>
  </g>
</svg>
