<svg xmlns="http://www.w3.org/2000/svg" width="24" height="24" fill="none">
  <path fill="#1C274D" fill-rule="evenodd" d="M9.945 1.25h4.11c1.368 0 2.47 0 3.337.117.9.12 1.658.38 2.26.981.602.602.86 1.36.982 2.26.116.867.116 1.97.116 3.337v8.11c0 1.367 0 2.47-.116 3.337-.121.9-.38 1.658-.982 2.26-.602.602-1.36.86-2.26.982-.867.116-1.97.116-3.337.116h-4.11c-1.367 0-2.47 0-3.337-.116-.9-.122-1.658-.38-2.26-.982-.601-.602-.86-1.36-.981-2.26a11.487 11.487 0 0 1-.082-.943.746.746 0 0 1-.016-.392 65.809 65.809 0 0 1-.019-2.002v-8.11c0-1.367 0-2.47.117-3.337.12-.9.38-1.658.982-2.26.601-.602 1.36-.86 2.26-.981.866-.117 1.969-.117 3.336-.117Zm-5.168 17c.015.353.039.664.076.942.099.734.28 1.122.556 1.399.277.277.666.457 1.4.556.755.101 1.756.103 3.191.103h4c1.436 0 2.437-.002 3.192-.103.734-.099 1.122-.28 1.4-.556.276-.277.456-.665.555-1.4.083-.615.1-1.395.102-2.441H13.75v2.808c0 .111 0 .27-.02.406a.937.937 0 0 1-.445.683.958.958 0 0 1-.783.072c-.13-.04-.272-.109-.378-.159l-.024-.012-1.1-.522-1.1.522-.024.012c-.106.05-.248.118-.378.159a.957.957 0 0 1-.783-.072.937.937 0 0 1-.444-.683 2.653 2.653 0 0 1-.02-.406V16.75h-.353c-.978 0-1.32.006-1.582.077a2.25 2.25 0 0 0-1.54 1.422Zm4.973-1.5v2.21l.75-.357.008-.004a1.13 1.13 0 0 1 .492-.13c.236 0 .443.105.492.13l.009.004.75.356V16.75h-2.5Zm-1.852-1.5h-.116c-.818 0-1.376 0-1.855.128a3.748 3.748 0 0 0-1.177.548V8c0-1.435.002-2.437.103-3.192.099-.734.28-1.122.556-1.399.277-.277.666-.457 1.4-.556.755-.101 1.756-.103 3.191-.103h4c1.436 0 2.437.002 3.192.103.734.099 1.122.28 1.4.556.276.277.456.665.555 1.4.102.754.103 1.756.103 3.191v7.25H7.898ZM7.25 7A.75.75 0 0 1 8 6.25h8a.75.75 0 0 1 0 1.5H8A.75.75 0 0 1 7.25 7Zm0 3.5A.75.75 0 0 1 8 9.75h5a.75.75 0 0 1 0 1.5H8a.75.75 0 0 1-.75-.75Z" clip-rule="evenodd"/>
</svg>
