<svg xmlns="http://www.w3.org/2000/svg" width="24" height="24" fill="none">
  <g fill="#1C274D">
    <path d="M7.765 9.898a21.482 21.482 0 0 1-.015-1.09v-6.74C8.906 2 10.3 2 12 2c1.7 0 3.094 0 4.25.069v6.739c0 .496 0 .836-.015 1.09-.015.262-.043.343-.05.358a.75.75 0 0 1-.862.425c-.016-.004-.097-.032-.315-.18a20.93 20.93 0 0 1-.872-.653l-.067-.052c-.37-.285-.659-.507-.973-.644a2.75 2.75 0 0 0-2.192 0c-.314.137-.603.359-.973.644l-.067.052c-.393.303-.663.51-.873.653-.217.148-.298.176-.314.18a.75.75 0 0 1-.862-.425c-.007-.015-.035-.096-.05-.358Z"/>
    <path d="M12 22c-4.714 0-7.071 0-8.536-1.465C2 19.072 2 16.714 2 12s0-7.071 1.464-8.536C4.15 2.78 5.027 2.416 6.25 2.222V8.83c0 .468 0 .851.017 1.153.018.298.054.606.177.881a2.25 2.25 0 0 0 2.587 1.273c.293-.07.56-.23.806-.398.25-.17.553-.404.924-.69l.018-.014c.47-.36.602-.456.723-.508a1.25 1.25 0 0 1 .996 0c.121.052.253.147.723.508l.018.015c.37.285.675.519.924.69.247.167.513.326.806.397a2.25 2.25 0 0 0 2.587-1.273c.123-.275.16-.583.177-.881.017-.302.017-.685.017-1.153V2.22c1.223.195 2.102.56 2.785 1.243C22 4.93 22 7.286 22 12s0 7.071-1.465 8.535C19.072 22 16.714 22 12 22Z"/>
  </g>
</svg>
