<svg xmlns="http://www.w3.org/2000/svg" width="24" height="24" fill="none">
  <path fill="#1C274C" fill-rule="evenodd" d="M17.386 2.643a.75.75 0 1 0-.772-1.286L14.27 2.764A5.23 5.23 0 0 0 12 2.25a5.23 5.23 0 0 0-2.269.514L7.386 1.357a.75.75 0 0 0-.772 1.286l1.763 1.058A5.235 5.235 0 0 0 6.75 7.5v.29c-.257.135-.5.294-.725.473a.748.748 0 0 0-.246-.16l-2-.8a.75.75 0 0 0-.558 1.392l1.772.709c-.47.73-.743 1.6-.743 2.533v1.312H2a.75.75 0 0 0 0 1.5h2.25V15c0 1.28.31 2.486.859 3.55l-1.888.754a.75.75 0 1 0 .558 1.393l2-.8a.75.75 0 0 0 .149-.08A7.736 7.736 0 0 0 12 22.75a7.736 7.736 0 0 0 6.072-2.934.748.748 0 0 0 .15.08l2 .8a.75.75 0 0 0 .556-1.392l-1.886-.755A7.717 7.717 0 0 0 19.75 15v-.25H22a.75.75 0 0 0 0-1.5h-2.25v-1.312c0-.934-.273-1.803-.743-2.533l1.771-.709a.75.75 0 0 0-.556-1.392l-2 .8a.748.748 0 0 0-.247.16 4.692 4.692 0 0 0-.725-.473V7.5a5.235 5.235 0 0 0-1.627-3.8l1.763-1.058ZM5.75 15v-3.062A3.187 3.187 0 0 1 8.938 8.75h6.124a3.188 3.188 0 0 1 3.188 3.188V15a6.251 6.251 0 0 1-5.5 6.206V15a.75.75 0 0 0-1.5 0v6.206A6.251 6.251 0 0 1 5.75 15ZM12 3.75a3.75 3.75 0 0 1 3.745 3.55 4.727 4.727 0 0 0-.682-.05H8.936a4.66 4.66 0 0 0-.682.05A3.75 3.75 0 0 1 12 3.75Z" clip-rule="evenodd"/>
</svg>
