<svg xmlns="http://www.w3.org/2000/svg" width="24" height="24" fill="none">
  <g fill="#1C274C">
    <path d="M5 10a7 7 0 0 1 14 0v5a7 7 0 1 1-14 0v-5Z" opacity=".5"/>
    <path d="M9.75 15.5a.75.75 0 0 1 .75-.75h3a.75.75 0 0 1 0 1.5h-3a.75.75 0 0 1-.75-.75Zm.75-5.75a.75.75 0 0 0 0 1.5h3a.75.75 0 0 0 0-1.5h-3Zm6.916-7.126a.75.75 0 1 0-.832-1.248l-2.786 1.857a6.97 6.97 0 0 1 1.674.687l1.944-1.296Zm1.414 5.834a6.954 6.954 0 0 0-.477-1.402.755.755 0 0 1 .07-.033l1.798-.72a.75.75 0 1 1 .557 1.393l-1.797.72c-.05.02-.1.034-.151.042ZM19 13.75h3a.75.75 0 0 0 0-1.5h-3v1.5Zm-1.058 4.952c.245-.392.452-.81.616-1.25a.747.747 0 0 1 .22.052l2 .8a.75.75 0 0 1-.556 1.393l-2-.8a.746.746 0 0 1-.28-.195Zm-12.5-1.25c.164.44.37.858.616 1.25a.746.746 0 0 1-.28.195l-2 .8a.75.75 0 1 1-.557-1.393l2-.8a.747.747 0 0 1 .22-.052ZM5 12.25H2a.75.75 0 0 0 0 1.5h3v-1.5Zm.648-5.194a6.948 6.948 0 0 0-.478 1.402.754.754 0 0 1-.15-.042l-1.798-.72a.75.75 0 0 1 .557-1.392l1.797.719c.025.01.049.02.072.033Zm2.88-3.136L6.584 2.624a.75.75 0 0 1 .832-1.248l2.786 1.857a6.957 6.957 0 0 0-1.674.687Z"/>
  </g>
</svg>
