<svg xmlns="http://www.w3.org/2000/svg" width="24" height="24" fill="none">
  <path fill="#1C274C" fill-rule="evenodd" d="M20.913 5.889c.337.504.337 1.207.337 2.611v12.75h.5a.75.75 0 0 1 0 1.5h-20a.75.75 0 0 1 0-1.5h.5V8.5c0-1.404 0-2.107.337-2.611a2 2 0 0 1 .552-.552c.441-.295 1.034-.332 2.115-.336-.004.291-.004.596-.004.91V7.25h-1a.75.75 0 0 0 0 1.5h1v1.5h-1a.75.75 0 0 0 0 1.5h1v1.5h-1a.75.75 0 0 0 0 1.5h1v6.5h1.5V6c0-1.886 0-2.828.586-3.414C7.922 2 8.864 2 10.75 2h2c1.886 0 2.828 0 3.414.586.586.586.586 1.528.586 3.414v15.25h1.5v-6.5h1a.75.75 0 0 0 0-1.5h-1v-1.5h1a.75.75 0 0 0 0-1.5h-1v-1.5h1a.75.75 0 0 0 0-1.5h-1V5.91c0-.313 0-.618-.004-.91 1.081.005 1.674.042 2.115.337a2 2 0 0 1 .552.552ZM12.5 19a.75.75 0 0 0-1.5 0v2.25h1.5V19ZM9 15a.75.75 0 0 1 .75-.75h4a.75.75 0 0 1 0 1.5h-4A.75.75 0 0 1 9 15Zm.75-3.75a.75.75 0 0 0 0 1.5h4a.75.75 0 0 0 0-1.5h-4ZM9.25 7a2.75 2.75 0 1 1 5.5 0 2.75 2.75 0 0 1-5.5 0Zm1.5 0a1.25 1.25 0 1 1 2.5 0 1.25 1.25 0 0 1-2.5 0Z" clip-rule="evenodd"/>
</svg>
