<svg xmlns="http://www.w3.org/2000/svg" width="24" height="24" fill="none">
  <g stroke="#1C274C" stroke-width="1.5">
    <path stroke-linecap="round" d="M22 22H2"/>
    <path d="M17 22V6c0-1.886 0-2.828-.586-3.414C15.828 2 14.886 2 13 2h-2c-1.886 0-2.828 0-3.414.586C7 3.172 7 4.114 7 6v16m14 0V11.5c0-1.405 0-2.107-.337-2.611a2 2 0 0 0-.552-.552C19.607 8 18.904 8 17.5 8M3 22V11.5c0-1.405 0-2.107.337-2.611a2 2 0 0 1 .552-.552C4.393 8 5.096 8 6.5 8"/>
    <path stroke-linecap="round" d="M12 22v-3M10 5h4m-4 3h4m-4 3h4m-4 3h4"/>
  </g>
</svg>
