<svg xmlns="http://www.w3.org/2000/svg" width="24" height="24" fill="none">
  <path fill="#1C274C" fill-rule="evenodd" d="M10.948 1.25h2.104c.899 0 1.648 0 2.242.08.628.084 1.195.27 1.65.725.456.456.642 1.023.726 1.65.08.595.08 1.345.08 2.243V7.25c.577 0 1.065.005 1.469.046.473.048.913.153 1.309.417.3.201.558.459.759.76.264.395.369.835.417 1.308.046.452.046 1.011.046 1.68v9.789H22a.75.75 0 0 1 0 1.5H2a.75.75 0 0 1 0-1.5h.25v-9.788c0-.67 0-1.229.046-1.681.048-.473.153-.913.417-1.309.201-.3.459-.558.76-.759.395-.264.835-.369 1.308-.417.404-.041.892-.045 1.469-.046V5.948c0-.898 0-1.648.08-2.242.084-.628.27-1.195.725-1.65.456-.456 1.023-.642 1.65-.726.595-.08 1.345-.08 2.243-.08ZM6.25 8.75c-.583 0-.994.005-1.317.038-.355.036-.519.1-.627.173a1.25 1.25 0 0 0-.345.345c-.073.108-.137.272-.173.627-.037.367-.038.85-.038 1.567v9.75h2.5V8.75Zm1.5 12.5h3.5V19a.75.75 0 0 1 1.5 0v2.25h3.5V6c0-.964-.002-1.612-.067-2.095-.062-.461-.169-.659-.3-.789-.13-.13-.327-.237-.788-.3-.483-.064-1.131-.066-2.095-.066h-2c-.964 0-1.612.002-2.095.067-.461.062-.659.169-.789.3-.13.13-.237.327-.3.788C7.753 4.388 7.75 5.036 7.75 6v15.25Zm10 0h2.5V11.5c0-.718 0-1.2-.038-1.567-.036-.355-.1-.519-.173-.627a1.25 1.25 0 0 0-.345-.345c-.108-.073-.272-.137-.627-.173-.323-.033-.734-.037-1.317-.038v12.5ZM9.25 5a.75.75 0 0 1 .75-.75h4a.75.75 0 0 1 0 1.5h-4A.75.75 0 0 1 9.25 5Zm0 3a.75.75 0 0 1 .75-.75h4a.75.75 0 0 1 0 1.5h-4A.75.75 0 0 1 9.25 8Zm0 3a.75.75 0 0 1 .75-.75h4a.75.75 0 0 1 0 1.5h-4a.75.75 0 0 1-.75-.75Zm0 3a.75.75 0 0 1 .75-.75h4a.75.75 0 0 1 0 1.5h-4a.75.75 0 0 1-.75-.75Z" clip-rule="evenodd"/>
</svg>
