<svg xmlns="http://www.w3.org/2000/svg" width="24" height="24" fill="none">
  <g fill="#1C274C">
    <path fill-rule="evenodd" d="M7 5h4c1.886 0 2.828 0 3.414.586C15 6.172 15 7.114 15 9v12.25h7a.75.75 0 0 1 0 1.5H2a.75.75 0 0 1 0-1.5h1V9c0-1.886 0-2.828.586-3.414C4.172 5 5.114 5 7 5ZM5.25 8A.75.75 0 0 1 6 7.25h6a.75.75 0 0 1 0 1.5H6A.75.75 0 0 1 5.25 8Zm0 3a.75.75 0 0 1 .75-.75h6a.75.75 0 0 1 0 1.5H6a.75.75 0 0 1-.75-.75Zm0 3a.75.75 0 0 1 .75-.75h6a.75.75 0 0 1 0 1.5H6a.75.75 0 0 1-.75-.75ZM9 18.25a.75.75 0 0 1 .75.75v2.25h-1.5V19a.75.75 0 0 1 .75-.75Z" clip-rule="evenodd"/>
    <path d="M15 2h2c1.886 0 2.828 0 3.414.586C21 3.172 21 4.114 21 6v15.25h-6V9c0-1.886 0-2.828-.586-3.414C13.842 5.013 12.928 5 11.126 5V3.5c.084-.387.225-.68.46-.914C12.17 2 13.114 2 15 2Z" opacity=".5"/>
  </g>
</svg>
