<svg xmlns="http://www.w3.org/2000/svg" width="24" height="24" fill="none">
  <path stroke="#1C274C" stroke-linecap="round" stroke-width="1.5" d="M22 22H2"/>
  <path stroke="#1C274C" stroke-width="1.5" d="M17 22V6c0-1.886 0-2.828-.586-3.414C15.828 2 14.886 2 13 2h-2c-1.886 0-2.828 0-3.414.586C7 3.172 7 4.114 7 6v16"/>
  <path fill="#1C274C" d="M20.25 11.5a.75.75 0 0 0 1.5 0h-1.5Zm-.139-3.163-.416.624.416-.624Zm.552.552-.624.417.624-.417ZM21.75 15.5a.75.75 0 0 0-1.5 0h1.5ZM17.5 8.75c.718 0 1.2 0 1.567.038.355.036.519.1.628.173l.833-1.248c-.396-.264-.835-.369-1.309-.417-.461-.047-1.032-.046-1.719-.046v1.5Zm4.25 2.75c0-.687 0-1.258-.046-1.719-.048-.473-.153-.913-.418-1.309l-1.247.834c.073.108.137.272.173.627.037.367.038.85.038 1.567h1.5Zm-2.055-2.54c.136.092.253.209.344.346l1.247-.834c-.2-.3-.458-.558-.758-.759l-.833 1.248Zm.555 6.54V22h1.5v-6.5h-1.5ZM3.889 8.337l.417.624-.417-.624Zm-.552.552.624.417-.624-.417ZM3.75 20a.75.75 0 0 0-1.5 0h1.5Zm-1.5-4a.75.75 0 0 0 1.5 0h-1.5ZM6.5 7.25c-.687 0-1.258 0-1.719.046-.473.048-.913.153-1.309.417l.834 1.248c.108-.073.272-.137.627-.173.367-.037.85-.038 1.567-.038v-1.5ZM3.75 11.5c0-.718 0-1.2.038-1.567.036-.355.1-.519.173-.627l-1.248-.834c-.264.396-.369.836-.417 1.309-.047.461-.046 1.032-.046 1.719h1.5Zm-.278-3.787a2.76 2.76 0 0 0-.759.76l1.248.833a1.25 1.25 0 0 1 .345-.345l-.834-1.248ZM2.25 20v2h1.5v-2h-1.5Zm0-8.5V16h1.5v-4.5h-1.5Z"/>
  <path stroke="#1C274C" stroke-linecap="round" stroke-width="1.5" d="M12 22v-3M10 5h4m-4 9h.5m3.5 0h-1.5M14 8h-.5M10 8h1.5M10 11h4"/>
</svg>
