<svg xmlns="http://www.w3.org/2000/svg" width="24" height="24" fill="none">
  <g stroke="#1C274C" stroke-width="1.5">
    <path stroke-linecap="round" d="M22 14v-2c0-3.771 0-5.657-1.172-6.828C19.657 4 17.771 4 14 4h-4C6.229 4 4.343 4 3.172 5.172 2 6.343 2 8.229 2 12v2c0 3.771 0 5.657 1.172 6.828C4.343 22 6.229 22 10 22h4"/>
    <path stroke-linecap="round" d="M7 4V2.5M17 4V2.5M2 9h20" opacity=".5"/>
    <circle cx="18" cy="18" r="3"/>
    <path stroke-linecap="round" d="M20.5 20.5 22 22"/>
  </g>
</svg>
