<svg xmlns="http://www.w3.org/2000/svg" width="24" height="24" fill="none">
  <path fill="#1C274C" fill-rule="evenodd" d="M8.75 3.5a.75.75 0 0 1 .75-.75h5a.75.75 0 0 1 0 1.5h-5a.75.75 0 0 1-.75-.75Zm1.208 1.75h4.083c1.37 0 2.454 0 3.32.088.889.09 1.63.28 2.278.713.518.346.964.792 1.31 1.31.433.648.622 1.39.713 2.277.088.867.088 1.952.088 3.322v.082c0 1.369 0 2.454-.088 3.32-.09.888-.28 1.629-.712 2.277a4.753 4.753 0 0 1-1.311 1.31c-.648.434-1.39.623-2.277.713-.866.088-1.951.088-3.32.088H9.958c-1.369 0-2.454 0-3.32-.088-.888-.09-1.629-.28-2.277-.712a4.751 4.751 0 0 1-1.31-1.311c-.434-.648-.623-1.39-.713-2.277-.088-.866-.088-1.951-.088-3.32v-.085c0-1.369 0-2.454.088-3.32.09-.887.28-1.628.712-2.276a4.75 4.75 0 0 1 1.31-1.31c.65-.433 1.39-.622 2.278-.713.866-.088 1.951-.088 3.32-.088ZM6.79 6.83c-.77.079-1.235.227-1.596.468a3.25 3.25 0 0 0-.896.897c-.241.36-.39.826-.468 1.594-.08.782-.08 1.79-.08 3.21V13c0 1.42 0 2.429.08 3.21.079.77.227 1.235.468 1.596.237.354.542.66.896.896.361.241.827.39 1.596.468.781.08 1.79.08 3.21.08h4c1.42 0 2.429 0 3.21-.08.77-.079 1.235-.227 1.596-.468.354-.237.66-.542.896-.896.241-.361.39-.827.468-1.596.08-.781.08-1.79.08-3.21s0-2.429-.08-3.21c-.079-.77-.227-1.235-.468-1.595a3.25 3.25 0 0 0-.897-.897c-.36-.241-.826-.39-1.595-.467-.782-.08-1.79-.08-3.21-.08h-4c-1.42 0-2.429 0-3.21.08ZM12 10.75a2.25 2.25 0 1 0 0 4.5 2.25 2.25 0 0 0 0-4.5ZM8.25 13a3.75 3.75 0 1 1 7.5 0 3.75 3.75 0 0 1-7.5 0Zm8.5-3a.75.75 0 0 1 .75-.75h.5a.75.75 0 0 1 0 1.5h-.5a.75.75 0 0 1-.75-.75Z" clip-rule="evenodd"/>
</svg>
