<svg xmlns="http://www.w3.org/2000/svg" width="24" height="24" fill="none">
  <path fill="#1C274C" fill-rule="evenodd" d="M7.598 4.487c.267-1.31 1.433-2.237 2.768-2.237h3.268c1.335 0 2.5.927 2.768 2.237a.656.656 0 0 0 .62.524h.033c1.403.062 2.481.234 3.381.825.567.372 1.055.85 1.435 1.409.473.694.681 1.492.781 2.456.098.943.098 2.124.098 3.62v.085c0 1.496 0 2.678-.098 3.62-.1.964-.308 1.762-.781 2.457a5.155 5.155 0 0 1-1.435 1.409c-.703.461-1.51.665-2.488.762-.958.096-2.159.096-3.685.096H9.737c-1.526 0-2.727 0-3.685-.096-.978-.097-1.785-.3-2.488-.762a5.155 5.155 0 0 1-1.435-1.41c-.473-.694-.681-1.492-.781-2.456-.098-.942-.098-2.124-.098-3.62v-.085c0-1.496 0-2.677.098-3.62.1-.964.308-1.762.781-2.456a5.155 5.155 0 0 1 1.435-1.41c.9-.59 1.978-.762 3.381-.823l.017-.001h.016a.656.656 0 0 0 .62-.524Zm2.768-.737c-.64 0-1.177.443-1.298 1.036-.195.96-1.047 1.716-2.072 1.725-1.348.06-2.07.225-2.61.579a3.665 3.665 0 0 0-1.017.999c-.276.405-.442.924-.53 1.767-.088.856-.089 1.96-.089 3.508s0 2.651.09 3.507c.087.843.253 1.362.53 1.768.268.394.613.734 1.017.998.417.274.951.439 1.814.525.874.087 2 .088 3.577.088h4.444c1.576 0 2.702 0 3.577-.088.863-.086 1.397-.25 1.814-.524.404-.265.75-.605 1.018-1 .276-.405.442-.924.53-1.767.088-.856.089-1.96.089-3.507 0-1.548 0-2.652-.09-3.508-.087-.843-.253-1.362-.53-1.767a3.655 3.655 0 0 0-1.017-1c-.538-.353-1.26-.518-2.61-.578-1.024-.01-1.876-.764-2.071-1.725a1.314 1.314 0 0 0-1.298-1.036h-3.268Zm1.634 7a2.25 2.25 0 1 0 0 4.5 2.25 2.25 0 0 0 0-4.5ZM8.25 13a3.75 3.75 0 1 1 7.5 0 3.75 3.75 0 0 1-7.5 0Zm9-3a.75.75 0 0 1 .75-.75h1a.75.75 0 0 1 0 1.5h-1a.75.75 0 0 1-.75-.75Z" clip-rule="evenodd"/>
</svg>
