<svg xmlns="http://www.w3.org/2000/svg" width="24" height="24" fill="none">
  <path fill="#1C274C" fill-rule="evenodd" d="M9.944 3.25h4.112c1.838 0 3.294 0 4.433.153 1.172.158 2.121.49 2.87 1.238.748.749 1.08 1.698 1.238 2.87.09.673.127 1.456.142 2.363a.755.755 0 0 1 .004.23c.007.566.007 1.178.007 1.84v.112c0 1.838 0 3.294-.153 4.433-.158 1.172-.49 2.121-1.238 2.87-.749.748-1.698 1.08-2.87 1.238-1.14.153-2.595.153-4.433.153H9.944c-1.838 0-3.294 0-4.433-.153-1.172-.158-2.121-.49-2.87-1.238-.748-.749-1.08-1.698-1.238-2.87-.153-1.14-.153-2.595-.153-4.433v-.112c0-.662 0-1.274.007-1.84a.757.757 0 0 1 .003-.23c.016-.907.053-1.69.143-2.363.158-1.172.49-2.121 1.238-2.87.749-.748 1.698-1.08 2.87-1.238 1.14-.153 2.595-.153 4.433-.153Zm-7.192 7.5c-.002.388-.002.804-.002 1.25 0 1.907.002 3.261.14 4.29.135 1.005.389 1.585.812 2.008.423.423 1.003.677 2.009.812 1.028.138 2.382.14 4.289.14h4c1.907 0 3.262-.002 4.29-.14 1.005-.135 1.585-.389 2.008-.812.423-.423.677-1.003.812-2.009.138-1.028.14-2.382.14-4.289 0-.446 0-.862-.002-1.25H2.752Zm18.472-1.5H2.776c.02-.587.054-1.094.114-1.54.135-1.005.389-1.585.812-2.008.423-.423 1.003-.677 2.009-.812 1.028-.138 2.382-.14 4.289-.14h4c1.907 0 3.262.002 4.29.14 1.005.135 1.585.389 2.008.812.423.423.677 1.003.812 2.009.06.445.094.952.114 1.539Zm-5.269 3h.09c.433 0 .83 0 1.152.043.356.048.731.16 1.04.47.31.309.422.684.47 1.04.043.323.043.72.043 1.152v.09c0 .433 0 .83-.043 1.152-.048.356-.16.731-.47 1.04-.309.31-.684.422-1.04.47-.323.043-.72.043-1.152.043h-.09c-.433 0-.83 0-1.152-.043-.356-.048-.731-.16-1.04-.47-.31-.309-.422-.684-.47-1.04-.043-.323-.043-.72-.043-1.152v-.09c0-.433 0-.83.043-1.152.048-.356.16-.731.47-1.04.309-.31.684-.422 1.04-.47.323-.043.72-.043 1.152-.043Zm-1.13 1.572-.002.001-.001.003a.702.702 0 0 0-.042.177c-.028.21-.03.504-.03.997s.002.787.03.997a.702.702 0 0 0 .042.177l.001.003.003.001a.702.702 0 0 0 .177.042c.21.028.504.03.997.03s.787-.002.997-.03a.702.702 0 0 0 .177-.042l.003-.001.001-.003a.702.702 0 0 0 .042-.177c.028-.21.03-.504.03-.997s-.002-.787-.03-.997a.702.702 0 0 0-.042-.177l-.001-.003-.003-.001a.702.702 0 0 0-.177-.042c-.21-.028-.504-.03-.997-.03s-.787.002-.997.03a.702.702 0 0 0-.177.042ZM5.25 13.5a.75.75 0 0 1 .75-.75h2a.75.75 0 0 1 0 1.5H6a.75.75 0 0 1-.75-.75Zm9.573 2.677Zm2.354 0ZM5.25 16.5a.75.75 0 0 1 .75-.75h4a.75.75 0 0 1 0 1.5H6a.75.75 0 0 1-.75-.75Z" clip-rule="evenodd"/>
</svg>
