<svg xmlns="http://www.w3.org/2000/svg" width="24" height="24" fill="none">
  <g fill="#1C274C">
    <path fill-rule="evenodd" d="M18.47 13.47a.75.75 0 0 1 1.06 0l2 2a.75.75 0 1 1-1.06 1.06l-.72-.72V20a.75.75 0 0 1-1.5 0v-4.19l-.72.72a.75.75 0 1 1-1.06-1.06l2-2Z" clip-rule="evenodd"/>
    <path d="M10 4h4c3.771 0 5.657 0 6.828 1.172.844.843 1.08 2.057 1.146 4.078H2.026c.066-2.021.302-3.235 1.146-4.078C4.343 4 6.229 4 10 4Z"/>
    <path fill-rule="evenodd" d="M10 20h4c1.056 0 1.964 0 2.75-.026v-1.738a2.25 2.25 0 0 1-1.341-3.827l2-2a2.25 2.25 0 0 1 3.182 0l1.403 1.403C22 13.262 22 12.66 22 12c0-.442 0-.858-.002-1.25H2.002C2 11.142 2 11.558 2 12c0 3.771 0 5.657 1.172 6.828C4.343 20 6.229 20 10 20Zm-4.75-4a.75.75 0 0 1 .75-.75h4a.75.75 0 0 1 0 1.5H6a.75.75 0 0 1-.75-.75Zm7.25-.75a.75.75 0 0 0 0 1.5H14a.75.75 0 0 0 0-1.5h-1.5Z" clip-rule="evenodd"/>
  </g>
</svg>
