<svg xmlns="http://www.w3.org/2000/svg" width="24" height="24" fill="none">
  <g fill="#1C274C">
    <path d="M14 4h-4C6.229 4 4.343 4 3.172 5.172c-.844.843-1.08 2.057-1.146 4.078h19.948c-.066-2.021-.302-3.235-1.146-4.078C19.657 4 17.771 4 14 4Z"/>
    <path fill-rule="evenodd" d="M14 20h-4c-3.771 0-5.657 0-6.828-1.172C2 17.657 2 15.771 2 12c0-.442 0-.858.002-1.25h19.996c.002.392.002.808.002 1.25 0 3.771 0 5.657-1.172 6.828C19.657 20 17.771 20 14 20Zm2.045-7.75c.433 0 .83 0 1.152.043.356.048.731.16 1.04.47.31.309.422.684.47 1.04.043.323.043.72.043 1.152v.09c0 .433 0 .83-.043 1.152-.048.356-.16.731-.47 1.04-.309.31-.684.422-1.04.47-.323.043-.72.043-1.152.043h-.09c-.433 0-.83 0-1.152-.043-.356-.048-.731-.16-1.04-.47-.31-.309-.422-.684-.47-1.04-.043-.323-.043-.72-.043-1.152v-.09c0-.433 0-.83.043-1.152.048-.356.16-.731.47-1.04.309-.31.684-.422 1.04-.47.323-.043.72-.043 1.152-.043h.09ZM5.25 13.5a.75.75 0 0 1 .75-.75h2a.75.75 0 0 1 0 1.5H6a.75.75 0 0 1-.75-.75Zm0 3a.75.75 0 0 1 .75-.75h4a.75.75 0 0 1 0 1.5H6a.75.75 0 0 1-.75-.75Z" clip-rule="evenodd"/>
    <path d="m14.823 13.823.003-.001a.702.702 0 0 1 .177-.042c.21-.028.504-.03.997-.03s.787.002.997.03a.702.702 0 0 1 .177.042l.003.001.001.003a.702.702 0 0 1 .042.177c.028.21.03.504.03.997s-.002.787-.03.997a.702.702 0 0 1-.042.177l-.001.003-.003.001a.702.702 0 0 1-.177.042c-.21.028-.504.03-.997.03s-.787-.002-.997-.03a.702.702 0 0 1-.177-.042l-.003-.001-.001-.003a.702.702 0 0 1-.042-.177c-.028-.21-.03-.504-.03-.997s.002-.787.03-.997a.702.702 0 0 1 .042-.177l.001-.003Z"/>
  </g>
</svg>
