<svg xmlns="http://www.w3.org/2000/svg" width="24" height="24" fill="none">
  <g fill="#1C274C">
    <path d="m22 12.818-.409-.409a2.25 2.25 0 0 0-3.182 0l-.801.801a2.251 2.251 0 0 0-4.358.79v1.764a2.25 2.25 0 0 0-1.341 3.827l.409.409H10c-3.771 0-5.657 0-6.828-1.172C2 17.657 2 15.771 2 12c0-.442.002-1.608.004-2H22c.002.392 0 1.558 0 2v.818Z" opacity=".5"/>
    <path d="M5.25 16a.75.75 0 0 1 .75-.75h4a.75.75 0 0 1 0 1.5H6a.75.75 0 0 1-.75-.75ZM9.995 4h4.01c3.781 0 5.672 0 6.846 1.116.846.803 1.083 1.96 1.149 3.884v1H2V9c.066-1.925.303-3.08 1.149-3.884C4.323 4 6.214 4 9.995 4Zm9.475 9.47a.75.75 0 0 1 1.06 0l2 2a.75.75 0 1 1-1.06 1.06l-.72-.72V20a.75.75 0 0 1-1.5 0v-4.19l-.72.72a.75.75 0 1 1-1.06-1.06l2-2Z"/>
    <path fill-rule="evenodd" d="M15.5 13.25a.75.75 0 0 1 .75.75v4.19l.72-.72a.75.75 0 1 1 1.06 1.06l-2 2a.75.75 0 0 1-1.06 0l-2-2a.75.75 0 1 1 1.06-1.06l.72.72V14a.75.75 0 0 1 .75-.75Z" clip-rule="evenodd"/>
  </g>
</svg>
