<svg xmlns="http://www.w3.org/2000/svg" width="24" height="24" fill="none">
  <g stroke="#1C274C" stroke-linecap="round" stroke-width="1.5">
    <path d="M22 11c-.01-3.114-.108-4.765-1.172-5.828C19.657 4 17.771 4 14 4h-4C6.229 4 4.343 4 3.172 5.172 2 6.343 2 8.229 2 12c0 3.771 0 5.657 1.172 6.828C4.343 20 6.229 20 10 20h1.5"/>
    <path stroke-linejoin="round" d="M20 20v-6m0 0 2 2m-2-2-2 2" opacity=".5"/>
    <path stroke-linejoin="round" d="M15.5 14v6m0 0 2-2m-2 2-2-2"/>
    <path d="M10 16H6" opacity=".5"/>
    <path d="M2 10h20" opacity=".4"/>
  </g>
</svg>
