<svg xmlns="http://www.w3.org/2000/svg" width="24" height="24" fill="none">
  <g fill="#1C274C">
    <path fill-rule="evenodd" d="M1.289 2.763a.75.75 0 0 1 .948-.475l.265.089.04.013c.626.209 1.155.385 1.572.579.442.206.826.46 1.117.865.291.403.412.848.467 1.333.052.456.052 1.014.052 1.674V9.5c0 1.435.002 2.437.103 3.192.099.734.28 1.122.556 1.399.277.277.666.457 1.4.556.755.101 1.756.103 3.191.103h7a.75.75 0 1 1 0 1.5h-7.055c-1.367 0-2.47 0-3.337-.117-.9-.12-1.658-.38-2.26-.981-.601-.602-.86-1.36-.981-2.26-.117-.867-.117-1.97-.117-3.337V6.883c0-.713 0-1.185-.042-1.546-.04-.342-.107-.507-.194-.626-.086-.12-.221-.237-.533-.382-.33-.153-.777-.304-1.453-.53l-.265-.088a.75.75 0 0 1-.474-.948Z" clip-rule="evenodd"/>
    <path d="M5.745 6c.005.26.005.54.005.841V9.5c0 1.435.002 2.437.103 3.192.015.11.032.213.05.308h10.12c.959 0 1.438 0 1.814-.248.376-.248.565-.688.942-1.57l.43-1c.809-1.89 1.213-2.833.769-3.508C19.533 6 18.506 6 16.45 6H5.745Z" opacity=".5"/>
    <path d="M7.5 18a1.5 1.5 0 1 1 0 3 1.5 1.5 0 0 1 0-3ZM18 19.5a1.5 1.5 0 1 0-3 0 1.5 1.5 0 0 0 3 0Z"/>
  </g>
</svg>
