<svg xmlns="http://www.w3.org/2000/svg" width="24" height="24" fill="none">
  <path fill="#1C274C" fill-rule="evenodd" d="M14.665 2.33a.75.75 0 0 1 1.006.335l2.201 4.402c1.353.104 2.202.37 2.75 1.047.9 1.114.541 2.79-.177 6.143l-.429 2c-.487 2.273-.73 3.409-1.555 4.076-.825.667-1.987.667-4.311.667h-4.3c-2.324 0-3.486 0-4.31-.667-.826-.667-1.07-1.803-1.556-4.076l-.429-2c-.718-3.353-1.078-5.029-.177-6.143.548-.678 1.397-.943 2.75-1.047l2.201-4.402a.75.75 0 0 1 1.342.67l-1.835 3.67C8.319 7 8.846 7 9.422 7h5.156c.576 0 1.103 0 1.586.005l-1.835-3.67a.75.75 0 0 1 .336-1.006ZM7.25 12a.75.75 0 0 1 .75-.75h8a.75.75 0 0 1 0 1.5H8a.75.75 0 0 1-.75-.75ZM10 14.25a.75.75 0 0 0 0 1.5h4a.75.75 0 0 0 0-1.5h-4Z" clip-rule="evenodd"/>
</svg>
