<svg xmlns="http://www.w3.org/2000/svg" width="24" height="24" fill="none">
  <g fill="#1C274C">
    <path fill-rule="evenodd" d="M1.289 2.763a.75.75 0 0 1 .948-.475l.305.102c.626.209 1.155.385 1.572.579.442.206.826.46 1.117.865.291.403.412.848.467 1.333.028.248.041.525.047.833h10.706c2.055 0 3.082 0 3.527.674.444.674.04 1.619-.77 3.508l-.428 1c-.378.882-.567 1.322-.943 1.57s-.855.248-1.815.248H5.903c.105.54.271.856.506 1.091.277.277.666.457 1.4.556.755.101 1.756.103 3.191.103h7a.75.75 0 1 1 0 1.5h-7.055c-1.367 0-2.47 0-3.337-.117-.9-.12-1.658-.38-2.26-.981-.601-.602-.86-1.36-.981-2.26-.117-.867-.117-1.97-.117-3.337V6.883c0-.713 0-1.185-.042-1.546-.04-.342-.107-.507-.194-.626-.086-.12-.221-.237-.533-.382-.33-.153-.777-.304-1.453-.53l-.265-.088a.75.75 0 0 1-.474-.948ZM8 8.25a.75.75 0 0 0 0 1.5h3a.75.75 0 0 0 0-1.5H8Z" clip-rule="evenodd"/>
    <path d="M7.5 18a1.5 1.5 0 1 1 0 3 1.5 1.5 0 0 1 0-3Zm9 0a1.5 1.5 0 1 1 0 3 1.5 1.5 0 0 1 0-3Z"/>
  </g>
</svg>
