<svg xmlns="http://www.w3.org/2000/svg" width="24" height="24" fill="none">
  <g stroke="#1C274C" stroke-width="1.5">
    <path d="M3.864 16.455c-.858-3.432-1.287-5.147-.386-6.301C4.378 9 6.148 9 9.685 9h4.63c3.538 0 5.306 0 6.207 1.154.901 1.153.472 2.87-.386 6.301-.546 2.183-.818 3.274-1.632 3.91-.814.635-1.939.635-4.189.635h-4.63c-2.25 0-3.375 0-4.189-.635-.814-.636-1.087-1.727-1.632-3.91Z"/>
    <path d="m19.5 9.5-.71-2.605c-.274-1.005-.411-1.507-.692-1.886A2.5 2.5 0 0 0 17 4.172C16.56 4 16.04 4 15 4M4.5 9.5l.71-2.605c.274-1.005.411-1.507.692-1.886A2.5 2.5 0 0 1 7 4.172C7.44 4 7.96 4 9 4" opacity=".5"/>
    <path d="M9 4a1 1 0 0 1 1-1h4a1 1 0 1 1 0 2h-4a1 1 0 0 1-1-1Z"/>
    <path stroke-linecap="round" stroke-linejoin="round" d="M8 13v4m8-4v4m-4-4v4" opacity=".5"/>
  </g>
</svg>
