<svg xmlns="http://www.w3.org/2000/svg" width="24" height="24" fill="none">
  <g fill="#1C274C">
    <path d="M13.75 9a.75.75 0 0 0-1.5 0v1.25H11a.75.75 0 0 0 0 1.5h1.25V13a.75.75 0 0 0 1.5 0v-1.25H15a.75.75 0 0 0 0-1.5h-1.25V9Z"/>
    <path fill-rule="evenodd" d="M1.293 2.751a.75.75 0 0 1 .956-.459l.301.106c.617.217 1.14.401 1.553.603.44.217.818.483 1.102.899.282.412.399.865.452 1.362l.011.108H17.12c.819 0 1.653 0 2.34.077.35.039.697.101 1.003.209.3.105.631.278.866.584.382.496.449 1.074.413 1.66-.035.558-.173 1.252-.338 2.077l-.01.053-.002.004-.508 2.47c-.15.726-.276 1.337-.439 1.82-.172.51-.41.96-.837 1.308-.427.347-.916.49-1.451.556-.505.062-1.13.062-1.87.062H10.88c-1.345 0-2.435 0-3.293-.122-.897-.127-1.65-.4-2.243-1.026-.547-.576-.839-1.188-.985-2.042-.137-.8-.15-1.848-.15-3.3V7.038c0-.74-.002-1.235-.043-1.615-.04-.363-.109-.545-.2-.677-.087-.129-.22-.25-.524-.398-.323-.158-.762-.314-1.43-.549l-.26-.091a.75.75 0 0 1-.46-.957ZM5.708 6.87v2.89c0 1.489.018 2.398.13 3.047.101.595.274.925.594 1.263.273.288.65.472 1.365.573.74.105 1.724.107 3.14.107h5.304c.799 0 1.33-.001 1.734-.05.382-.047.56-.129.685-.231.125-.102.24-.26.364-.625.13-.385.238-.905.4-1.688l.498-2.42v-.002c.178-.89.295-1.482.322-1.926.026-.421-.04-.569-.101-.65a.561.561 0 0 0-.177-.087 3.17 3.17 0 0 0-.672-.134c-.595-.066-1.349-.067-2.205-.067H5.709ZM5.25 19.5a2.25 2.25 0 1 0 4.5 0 2.25 2.25 0 0 0-4.5 0Zm2.25.75a.75.75 0 1 1 0-1.5.75.75 0 0 1 0 1.5Zm6.75-.75a2.25 2.25 0 1 0 4.5 0 2.25 2.25 0 0 0-4.5 0Zm2.25.75a.75.75 0 1 1 0-1.5.75.75 0 0 1 0 1.5Z" clip-rule="evenodd"/>
  </g>
</svg>
