<svg xmlns="http://www.w3.org/2000/svg" width="24" height="24" fill="none">
  <g fill="#1C274C">
    <path d="M7.25 9A.75.75 0 0 1 8 8.25h3a.75.75 0 0 1 0 1.5H8A.75.75 0 0 1 7.25 9Z"/>
    <path fill-rule="evenodd" d="M1.289 2.763a.75.75 0 0 1 .948-.475l.305.102c.626.209 1.155.385 1.572.579.442.206.826.46 1.117.865.291.403.412.848.467 1.333l.009.083h10.804c.976 0 1.792 0 2.417.092.651.097 1.28.318 1.676.92.396.6.352 1.265.184 1.902-.16.61-.482 1.36-.867 2.258l-.467 1.089c-.176.412-.332.775-.493 1.062-.175.31-.388.592-.711.805-.323.213-.667.298-1.021.337-.328.035-.722.035-1.17.035H6.154c.074.134.159.244.255.341.277.277.666.457 1.4.556.755.101 1.756.103 3.191.103h8a.75.75 0 0 1 0 1.5h-8.055c-1.367 0-2.47 0-3.337-.116-.9-.122-1.658-.38-2.26-.982-.601-.602-.86-1.36-.981-2.26-.117-.867-.117-1.97-.117-3.337V6.883c0-.713 0-1.185-.042-1.546-.04-.342-.107-.506-.194-.626-.086-.12-.221-.237-.533-.382-.33-.153-.777-.304-1.453-.53l-.265-.087a.75.75 0 0 1-.474-.95Zm4.518 9.487h10.215c.496 0 .809-.001 1.046-.027.219-.023.303-.062.356-.097.053-.035.122-.097.23-.289.117-.208.24-.495.436-.95l.429-1c.414-.968.69-1.616.819-2.106.126-.476.062-.62.014-.694-.049-.073-.157-.189-.644-.26-.501-.075-1.205-.077-2.257-.077H5.75V9.5c0 1.172 0 2.054.056 2.75Zm1.693 9.5a2.25 2.25 0 1 1 0-4.5 2.25 2.25 0 0 1 0 4.5Zm-.75-2.25a.75.75 0 1 0 1.5 0 .75.75 0 0 0-1.5 0Zm7.5 0a2.25 2.25 0 1 0 4.5 0 2.25 2.25 0 0 0-4.5 0Zm2.25.75a.75.75 0 1 1 0-1.5.75.75 0 0 1 0 1.5Z" clip-rule="evenodd"/>
  </g>
</svg>
