<svg xmlns="http://www.w3.org/2000/svg" width="24" height="24" fill="none">
  <path stroke="#1C274D" stroke-linecap="round" stroke-width="1.5" d="M9.17 4a3.001 3.001 0 0 1 5.66 0"/>
  <path fill="#1C274D" d="M12 22.25a.75.75 0 0 0 0 1.5v-1.5Zm-7.682-.422.498-.56-.498.56Zm15.364 0-.498-.56.498.56ZM7.955 23.684a.75.75 0 1 0 .09-1.498l-.09 1.498ZM2.25 13c0 1.874 0 3.83.169 5.466.085.82.215 1.589.422 2.244.203.646.503 1.256.979 1.679l.996-1.121c-.183-.163-.377-.478-.545-1.008-.164-.52-.28-1.178-.36-1.948-.16-1.543-.161-3.415-.161-5.312h-1.5ZM12 23.75c2.102 0 3.746.001 5.027-.152 1.293-.154 2.33-.477 3.153-1.209l-.996-1.121c-.495.44-1.178.703-2.335.84-1.17.14-2.709.142-4.849.142v1.5Zm-3.955-1.564c-1.714-.103-2.614-.371-3.229-.918l-.996 1.121c1.016.903 2.363 1.188 4.135 1.295l.09-1.498Zm12.205-8.799c0 1.832-.013 3.616-.178 5.08-.082.731-.2 1.353-.36 1.845-.164.5-.352.799-.528.956l.996 1.121c.46-.409.755-.993.957-1.61.206-.628.338-1.362.426-2.144.176-1.562.186-3.432.187-5.247h-1.5Z"/>
  <path stroke="#1C274D" stroke-linecap="round" stroke-width="1.5" d="m14.66 15 3.004-.783M9.34 15l-6.008-1.567c-.595-.155-.893-.233-1.082-.419a.891.891 0 0 1-.1-.116C2 12.688 2 12.417 2 11.876c0-2.13 0-3.195.673-3.914.13-.138.275-.264.434-.377C3.934 7 5.159 7 7.609 7h8.782c2.45 0 3.675 0 4.502.585.16.113.305.239.434.377.673.72.673 1.784.673 3.914 0 .54 0 .811-.15 1.022a.885.885 0 0 1-.1.116c-.15.148-.369.227-.75.331"/>
  <path stroke="#1C274D" stroke-linecap="round" stroke-width="1.5" d="M14 13.5h-4a.5.5 0 0 0-.5.5v2.162a.5.5 0 0 0 .314.464l.7.28a4 4 0 0 0 2.972 0l.7-.28a.5.5 0 0 0 .314-.465V14a.5.5 0 0 0-.5-.5Z"/>
</svg>
