<svg xmlns="http://www.w3.org/2000/svg" width="24" height="24" fill="none">
  <g fill="#1C274D">
    <path fill-rule="evenodd" d="M10.581 2.25h-.02c-.114 0-.202 0-.286.005a2.75 2.75 0 0 0-2.385 1.72 7.913 7.913 0 0 0-.12.343l-.004.012a1.63 1.63 0 0 1-.505.695c-.227.008-.444.017-.652.03-1.644.096-2.687.366-3.438 1.117-.244.244-.438.52-.59.838a.75.75 0 0 1 .166.081c2.1 1.365 3.42 2.22 4.516 2.767A.75.75 0 0 1 8.75 10v.458c2.12.64 4.38.64 6.5 0V10a.75.75 0 0 1 1.486-.142c1.097-.548 2.417-1.402 4.517-2.767a.754.754 0 0 1 .167-.081 3.022 3.022 0 0 0-.592-.838c-.75-.75-1.793-1.02-3.437-1.118-.197-.011-.403-.02-.618-.028a1.881 1.881 0 0 1-.564-.774l-.004-.009c-.036-.107-.064-.191-.095-.269a2.75 2.75 0 0 0-2.385-1.719 4.816 4.816 0 0 0-.286-.005h-2.858Zm4.237 2.566-.005-.011-.005-.012-.005-.012-.003-.01-.002-.005-.004-.012-.004-.012-.002-.006-.003-.008-.002-.007-.002-.006a3.782 3.782 0 0 0-.063-.181 1.25 1.25 0 0 0-1.084-.782 4.194 4.194 0 0 0-.215-.002h-2.838c-.143 0-.183 0-.215.002a1.25 1.25 0 0 0-1.084.782l-.003.007-.008.021a5.52 5.52 0 0 0-.078.23l-.001.006-.003.007-.002.008-.002.006-.004.012-.005.012-.001.005-.004.01-.005.012-.004.012-.005.01v.001a2.859 2.859 0 0 1-.044.108L10 5h4.896a3.024 3.024 0 0 1-.079-.184Z" clip-rule="evenodd"/>
    <path d="M2.162 8.5C2 9.603 2 11.05 2 13c0 3.771 0 5.657 1.172 6.828C4.343 21 6.229 21 10 21h4c3.771 0 5.657 0 6.828-1.172C22 18.657 22 16.771 22 13c0-1.95 0-3.397-.162-4.5-2.277 1.48-3.736 2.423-5.088 3.005V12a.75.75 0 0 1-1.5.016 12.75 12.75 0 0 1-6.5 0A.75.75 0 0 1 7.25 12v-.496C5.898 10.924 4.44 9.98 2.162 8.5Z" opacity=".5"/>
  </g>
</svg>
