<svg xmlns="http://www.w3.org/2000/svg" width="24" height="24" fill="none">
  <path fill="#1C274D" fill-rule="evenodd" d="M10.581 1.25h-.02c-.114 0-.202 0-.286.005a2.75 2.75 0 0 0-2.385 1.72c-.031.077-.059.16-.095.269l-.006.019-.026.077a4.113 4.113 0 0 1-.029.085c-.16.442-.691.811-1.253.825l-1.82.09c-.786.092-1.459.288-2.028.751a3.75 3.75 0 0 0-.542.542c-.463.57-.66 1.242-.752 2.029-.089.76-.089 1.715-.089 2.9v.078c0 .284 0 .55.023.774.025.248.083.512.24.766a1.661 1.661 0 0 0 .737.64c.003 1.616.024 3.248.169 4.646.085.82.215 1.589.422 2.245.203.645.503 1.256.979 1.678.823.732 1.86 1.055 3.153 1.21 1.27.151 2.898.151 4.976.151h.102c2.078 0 3.706 0 4.976-.152 1.293-.154 2.33-.477 3.153-1.209.476-.422.776-1.033.98-1.678.206-.656.336-1.425.421-2.245.145-1.398.166-3.03.169-4.646a1.661 1.661 0 0 0 .736-.64c.158-.254.216-.518.241-.766.023-.224.023-.49.023-.774v-.078c0-1.185 0-2.14-.09-2.9-.092-.787-.288-1.46-.751-2.029a3.751 3.751 0 0 0-.542-.542c-.57-.463-1.242-.66-2.029-.752L17.52 4.25c-.562-.014-1.093-.383-1.253-.825a4 4 0 0 1-.029-.085l-.032-.097c-.036-.107-.063-.191-.095-.269a2.75 2.75 0 0 0-2.385-1.719 4.82 4.82 0 0 0-.285-.005H10.58Zm-3.01 4.5h8.859c1.222 0 2.078.002 2.733.079.646.076.999.216 1.257.426.12.097.228.206.325.325.21.258.35.611.426 1.257.078.662.079 1.529.079 2.772 0 .326 0 .515-.015.654a.517.517 0 0 1-.023.125.248.248 0 0 1-.024.033.513.513 0 0 1-.114.058c-.129.054-.31.109-.622.202l-5.202 1.561V13c0-.69-.56-1.25-1.25-1.25h-4c-.69 0-1.25.56-1.25 1.25v.242l-5.202-1.56a7.357 7.357 0 0 1-.622-.203.515.515 0 0 1-.114-.058l5.938 1.821-5.962-1.854a.51.51 0 0 1-.023-.125 7.401 7.401 0 0 1-.015-.654c0-1.243.001-2.11.079-2.772.076-.646.216-.999.426-1.257a2.25 2.25 0 0 1 .325-.325c.258-.21.611-.35 1.257-.426.655-.077 1.51-.079 2.733-.079Zm3.01-3c-.143 0-.183 0-.215.002a1.25 1.25 0 0 0-1.084.782 3.89 3.89 0 0 0-.07.203l-.029.085-.038.113c-.04.11-.086.214-.14.315h5.99a2.486 2.486 0 0 1-.178-.428l-.028-.085a4.228 4.228 0 0 0-.07-.203 1.25 1.25 0 0 0-1.085-.782 4.191 4.191 0 0 0-.215-.002h-2.838ZM3.752 13.309c.007 1.437.036 2.817.159 4.003.08.77.196 1.427.36 1.948.168.53.362.845.545 1.008.495.44 1.178.703 2.335.84 1.17.14 2.709.142 4.849.142s3.678-.001 4.849-.141c1.157-.138 1.84-.402 2.335-.841.183-.163.377-.478.545-1.008.164-.52.28-1.178.36-1.948.123-1.186.152-2.567.159-4.003l-4.998 1.499v.354c0 .51-.311.97-.786 1.16l-.7.28a4.75 4.75 0 0 1-3.528 0l-.7-.28a1.25 1.25 0 0 1-.786-1.16v-.354l-4.998-1.5Zm6.498-.059v1.742l.543.217c.775.31 1.64.31 2.414 0l.543-.217V13.25h-3.5Z" clip-rule="evenodd"/>
</svg>
