<svg xmlns="http://www.w3.org/2000/svg" width="24" height="24" fill="none">
  <g fill="#1C274D">
    <path d="M10.561 2.25c-.113 0-.201 0-.285.005a2.75 2.75 0 0 0-2.385 1.72c-.032.079-.06.164-.099.278-.083.224-.274.479-.542.683-.03.023-.06.044-.09.064h1.942c.029-.06.056-.12.08-.182l.001-.003.004-.01.005-.012.005-.012.004-.01.001-.005.005-.012.003-.012.003-.006.002-.008.002-.007.002-.006c.04-.116.052-.153.063-.181a1.25 1.25 0 0 1 1.085-.782c.032-.002.071-.002.215-.002h2.837c.144 0 .183 0 .216.002.482.03.904.334 1.084.782.011.028.023.063.063.181l.002.006.002.007.003.008.002.006.003.012.005.012.001.005.004.01.005.012.004.012.005.01.001.003c.024.062.05.122.08.182h1.942c-.03-.02-.06-.041-.09-.064-.268-.204-.459-.46-.542-.683l-.003-.01c-.036-.107-.064-.191-.095-.269a2.75 2.75 0 0 0-2.386-1.719 4.814 4.814 0 0 0-.285-.005h-2.88Z" opacity=".5"/>
    <path fill-rule="evenodd" d="M17.192 5H6.808c-1.688 0-2.531 0-3.175.33A3 3 0 0 0 2.33 6.633C2 7.277 2 8.12 2 9.808c0 .429 0 .643.073.824a1 1 0 0 0 .3.404c.153.122.358.183.77.307L8.5 12.95v1.213c0 .765.46 1.471 1.187 1.767l.56.227a4.654 4.654 0 0 0 3.506 0l.56-.227a1.906 1.906 0 0 0 1.187-1.767V12.95l5.358-1.607c.41-.124.616-.185.768-.307a1 1 0 0 0 .3-.404c.074-.18.074-.395.074-.824 0-1.688 0-2.531-.33-3.175a3 3 0 0 0-1.303-1.303C19.723 5 18.88 5 17.192 5ZM13.6 12h-3.2c-.22 0-.4.182-.4.406v1.757c0 .166.1.315.251.377l.56.228c.764.31 1.614.31 2.377 0l.56-.228a.407.407 0 0 0 .252-.377v-1.757a.403.403 0 0 0-.4-.406Z" clip-rule="evenodd"/>
    <path d="m3 11.3.142.043L8.5 12.95v1.213c0 .765.46 1.471 1.187 1.767l.56.227a4.654 4.654 0 0 0 3.506 0l.56-.227a1.906 1.906 0 0 0 1.187-1.767V12.95l5.358-1.607L21 11.3v1c0 3.675-.035 7.388-1.318 8.528C18.364 22 16.242 22 12 22c-4.243 0-6.364 0-7.682-1.172C3.035 19.688 3.001 15.975 3 12.3v-1Z" opacity=".5"/>
  </g>
</svg>
