<svg xmlns="http://www.w3.org/2000/svg" width="24" height="24" fill="none">
  <g fill="#1C274C">
    <path d="M6.75 13.75a1.5 1.5 0 1 1 3 0 1.5 1.5 0 0 1-3 0Zm4.099 1.5h2.302a2.987 2.987 0 0 1-.401-1.5c0-.546.146-1.059.401-1.5H10.85c.255.441.401.954.401 1.5s-.146 1.059-.401 1.5Zm4.901 0a1.5 1.5 0 1 0 0-3 1.5 1.5 0 0 0 0 3Z"/>
    <path fill-rule="evenodd" d="m18.431 4.152-.77 2.053c-.223.596-.412 1.1-.613 1.496-.214.42-.472.785-.868 1.06-.396.274-.827.387-1.296.44-.442.049-.98.049-1.616.049h-2.537c-.636 0-1.174 0-1.615-.05-.47-.052-.9-.165-1.297-.44-.396-.274-.654-.638-.867-1.06-.201-.395-.39-.9-.614-1.495l-.77-2.053c-1.066.149-1.818.441-2.396 1.02C2 6.343 2 8.229 2 12c0 3.771 0 5.657 1.172 6.828C4.343 20 6.229 20 10 20h4c3.771 0 5.657 0 6.828-1.172C22 17.657 22 15.771 22 12c0-3.771 0-5.657-1.172-6.828-.578-.579-1.33-.871-2.397-1.02ZM5.25 13.75a3 3 0 0 1 3.167-2.995.737.737 0 0 1 .083-.005H16a.75.75 0 0 1 .243.04 3 3 0 0 1 0 5.92.748.748 0 0 1-.243.04H8.5a.737.737 0 0 1-.083-.005A3 3 0 0 1 5.25 13.75Z" clip-rule="evenodd"/>
    <path d="m16.875 4.03-.604 1.61c-.242.644-.402 1.07-.56 1.382-.15.295-.267.423-.385.505-.118.082-.279.146-.609.183-.348.039-.802.04-1.49.04h-2.455c-.687 0-1.141-.001-1.49-.04-.33-.037-.49-.101-.608-.183-.118-.082-.235-.21-.385-.505-.159-.313-.319-.738-.56-1.381l-.604-1.61C7.939 4 8.887 4 10 4h4c1.112 0 2.06 0 2.875.03Z"/>
  </g>
</svg>
