<svg xmlns="http://www.w3.org/2000/svg" width="24" height="24" fill="none">
  <path fill="#1C274C" fill-rule="evenodd" d="M9.944 3.25h4.112c1.838 0 3.294 0 4.433.153 1.172.158 2.121.49 2.87 1.238.748.749 1.08 1.698 1.238 2.87.153 1.14.153 2.595.153 4.433v.112c0 1.838 0 3.294-.153 4.433-.158 1.172-.49 2.121-1.238 2.87-.749.748-1.698 1.08-2.87 1.238-1.14.153-2.595.153-4.433.153H9.944c-1.838 0-3.294 0-4.433-.153-1.172-.158-2.121-.49-2.87-1.238-.748-.749-1.08-1.698-1.238-2.87-.153-1.14-.153-2.595-.153-4.433v-.112c0-1.838 0-3.294.153-4.433.158-1.172.49-2.121 1.238-2.87.749-.748 1.698-1.08 2.87-1.238 1.14-.153 2.595-.153 4.433-.153ZM5.71 4.89c-1.006.135-1.586.389-2.01.812-.422.423-.676 1.003-.811 2.009-.138 1.028-.14 2.382-.14 4.289 0 1.907.002 3.261.14 4.29.135 1.005.389 1.585.812 2.008.423.423 1.003.677 2.009.812 1.028.138 2.382.14 4.289.14h4c1.907 0 3.262-.002 4.29-.14 1.005-.135 1.585-.389 2.008-.812.423-.423.677-1.003.812-2.009.138-1.028.14-2.382.14-4.289 0-1.907-.002-3.261-.14-4.29-.135-1.005-.389-1.585-.812-2.008-.423-.423-1.003-.677-2.009-.812a9.51 9.51 0 0 0-.128-.017l-.5 1.333c-.223.595-.412 1.099-.613 1.495-.213.42-.472.785-.868 1.06-.396.274-.827.388-1.296.44-.441.049-.98.049-1.616.049h-2.536c-.636 0-1.175 0-1.616-.05-.469-.051-.9-.165-1.296-.44-.396-.274-.654-.638-.868-1.06-.201-.395-.39-.899-.613-1.494l-.5-1.333-.128.017Zm1.692-.119.326.87c.241.644.402 1.068.56 1.38.15.297.267.425.385.506.118.082.279.146.608.183.349.039.803.04 1.49.04h2.456c.687 0 1.141-.001 1.49-.04.33-.037.49-.1.608-.183.118-.081.234-.21.385-.505.158-.313.319-.737.56-1.38l.326-.87A96.4 96.4 0 0 0 14 4.75h-4c-1.01 0-1.864 0-2.597.021ZM5.25 13.75a3 3 0 0 1 3.167-2.995.737.737 0 0 1 .083-.005H16a.75.75 0 0 1 .243.04 3 3 0 0 1 0 5.92.748.748 0 0 1-.243.04H8.5a.737.737 0 0 1-.083-.005A3 3 0 0 1 5.25 13.75Zm5.599 1.5h2.302a2.987 2.987 0 0 1-.401-1.5c0-.546.146-1.059.401-1.5H10.85c.255.441.401.954.401 1.5s-.146 1.059-.401 1.5Zm4.901 0a1.5 1.5 0 1 0 0-3 1.5 1.5 0 0 0 0 3Zm-7.5-3a1.5 1.5 0 1 0 0 3 1.5 1.5 0 0 0 0-3Z" clip-rule="evenodd"/>
</svg>
