<svg xmlns="http://www.w3.org/2000/svg" width="24" height="24" fill="none">
  <path fill="#1C274C" fill-rule="evenodd" d="M11.96 1.25h.08c.979 0 1.771 0 2.41.066.662.068 1.237.213 1.753.554.298.196.567.434.798.707.399.472.611 1.025.758 1.675.142.626.236 1.413.353 2.384l.102.853c.12.997.219 1.823.206 2.482-.014.692-.151 1.329-.617 1.854-.466.526-1.082.738-1.768.834-.652.091-1.484.091-2.488.091h-.797v1H17c.321 0 .622.086.88.237l.28-.837a4.69 4.69 0 0 1 .205-.543c.086-.185.13-.258.198-.371.285-.469.657-.876 1.258-1.14.566-.25 1.274-.346 2.179-.346a.75.75 0 0 1 0 1.5c-.827 0-1.29.092-1.574.218-.249.11-.41.265-.581.547-.03.05-.043.071-.056.096a2.24 2.24 0 0 0-.063.127c-.05.11-.075.18-.15.404l-.864 2.595a.747.747 0 0 1-.147.256A2.751 2.751 0 0 1 16 18.25h-3.25v1.166a3.63 3.63 0 0 1 2.461 2.347.75.75 0 0 1-1.422.474 2.13 2.13 0 0 0-1.039-1.216V22a.75.75 0 0 1-1.5 0v-.98a2.13 2.13 0 0 0-1.039 1.217.75.75 0 0 1-1.423-.474 3.63 3.63 0 0 1 2.462-2.347V18.25H8a2.751 2.751 0 0 1-2.565-1.757.748.748 0 0 1-.147-.256l-.865-2.595a3.433 3.433 0 0 0-.15-.404 2.24 2.24 0 0 0-.118-.223c-.171-.282-.332-.437-.581-.547-.285-.126-.747-.218-1.574-.218a.75.75 0 0 1 0-1.5c.905 0 1.613.095 2.18.345.6.265.972.672 1.257 1.14.068.114.112.187.198.372.088.192.137.337.206.543l.279.837c.258-.15.559-.237.88-.237h4.25v-1h-.797c-1.004 0-1.836 0-2.488-.091-.686-.096-1.302-.309-1.768-.834-.466-.525-.603-1.162-.617-1.854-.013-.659.086-1.485.206-2.482l.102-.853c.117-.971.211-1.758.353-2.384.147-.65.359-1.203.758-1.675.231-.273.5-.51.798-.707.516-.34 1.09-.486 1.753-.554.639-.066 1.431-.066 2.41-.066ZM16 16.75c.69 0 1.25-.56 1.25-1.25a.25.25 0 0 0-.25-.25H7a.25.25 0 0 0-.25.25c0 .69.56 1.25 1.25 1.25h8ZM9.704 2.808c-.539.056-.846.158-1.081.314a2.25 2.25 0 0 0-.479.424c-.182.216-.32.508-.44 1.036-.123.543-.209 1.252-.331 2.273l-.091.758C7.154 8.679 7.069 9.4 7.08 9.94c.01.52.109.741.24.889.13.147.338.271.853.343.536.075 1.262.077 2.336.077h2.982c1.074 0 1.8-.002 2.336-.077.515-.072.723-.196.854-.343.13-.148.229-.37.24-.889.01-.541-.075-1.262-.203-2.328l-.09-.758c-.123-1.021-.21-1.73-.332-2.273-.12-.528-.258-.82-.44-1.036a2.248 2.248 0 0 0-.479-.424c-.235-.156-.542-.258-1.081-.314-.553-.057-1.267-.058-2.296-.058s-1.743 0-2.296.058Z" clip-rule="evenodd"/>
</svg>
