<svg xmlns="http://www.w3.org/2000/svg" width="24" height="24" fill="none">
  <g stroke="#1C274C" stroke-width="1.5">
    <path stroke-linecap="round" d="M17 21v-5M7 21v-5m5 0H7c-.985 0-1.477 0-1.775-.324-.297-.324-.258-.774-.18-1.675.055-.65.182-1.088.468-1.415C6.025 12 6.85 12 8.5 12h7c1.65 0 2.475 0 2.987.586.286.326.413.764.469 1.415.077.9.116 1.351-.181 1.675C18.477 16 17.985 16 17 16h-1"/>
    <path d="M7 8c0-1.87 0-2.804.402-3.5A3 3 0 0 1 8.5 3.402C9.196 3 10.13 3 12 3s2.804 0 3.5.402A3 3 0 0 1 16.598 4.5C17 5.196 17 6.13 17 8v4H7V8Z"/>
  </g>
</svg>
