<svg xmlns="http://www.w3.org/2000/svg" width="24" height="24" fill="none">
  <g stroke="#1C274C" stroke-width="1.5">
    <path stroke-linecap="round" d="M22 22H2"/>
    <path d="M21 22v-7.5a1.5 1.5 0 0 0-1.5-1.5h-3a1.5 1.5 0 0 0-1.5 1.5V22"/>
    <path stroke-linecap="round" stroke-linejoin="round" d="M15 22V9M9 22V5c0-1.414 0-2.121.44-2.56C9.878 2 10.585 2 12 2c1.414 0 2.121 0 2.56.44C15 2.878 15 3.585 15 5v0"/>
    <path stroke-linecap="round" d="M9 22V9.5A1.5 1.5 0 0 0 7.5 8h-3A1.5 1.5 0 0 0 3 9.5V16m0 6v-2.25"/>
  </g>
</svg>
