<svg xmlns="http://www.w3.org/2000/svg" width="24" height="24" fill="none">
  <path fill="#1C274C" fill-rule="evenodd" d="m13.087 21.388.542-.916c.42-.71.63-1.066.968-1.262.338-.197.763-.204 1.613-.219 1.256-.021 2.043-.098 2.703-.372a5 5 0 0 0 2.706-2.706C22 14.995 22 13.83 22 11.5v-1c0-3.273 0-4.91-.737-6.112a5 5 0 0 0-1.65-1.651C18.41 2 16.773 2 13.5 2h-3c-3.273 0-4.91 0-6.112.737a5 5 0 0 0-1.651 1.65C2 5.59 2 7.228 2 10.5v1c0 2.33 0 3.495.38 4.413a5 5 0 0 0 2.707 2.706c.66.274 1.447.35 2.703.372.85.015 1.275.022 1.613.219.337.196.548.551.968 1.262l.542.916c.483.816 1.69.816 2.174 0ZM12 6.25a.75.75 0 0 1 .75.75v8a.75.75 0 0 1-1.5 0V7a.75.75 0 0 1 .75-.75ZM8.75 9a.75.75 0 0 0-1.5 0v4a.75.75 0 0 0 1.5 0V9ZM16 8.25a.75.75 0 0 1 .75.75v4a.75.75 0 0 1-1.5 0V9a.75.75 0 0 1 .75-.75Z" clip-rule="evenodd"/>
</svg>
