<svg xmlns="http://www.w3.org/2000/svg" width="24" height="24" fill="none">
  <g fill="#1C274C">
    <path d="M7.456 3.09A10 10 0 0 0 2 12c0 1.6.376 3.112 1.043 4.453.178.356.237.764.134 1.148l-.595 2.226a1.3 1.3 0 0 0 1.591 1.592l2.226-.596a1.633 1.633 0 0 1 1.149.134A9.96 9.96 0 0 0 12 22c4.885 0 8.952-3.503 9.826-8.134A9 9 0 0 1 7.456 3.09Z"/>
    <path d="M21.826 13.866A10.08 10.08 0 0 0 22 12c0-5.523-4.477-10-10-10a9.96 9.96 0 0 0-4.544 1.09 9 9 0 0 0 14.37 10.776Z" opacity=".5"/>
  </g>
</svg>
