<svg xmlns="http://www.w3.org/2000/svg" width="24" height="24" fill="none">
  <path fill="#1C274C" d="m12.978 21.456.643.385-.643-.385Zm.488-.814-.643-.386.643.386Zm-2.932 0-.643.385.643-.385Zm.488.814.643-.386-.643.386ZM12 4.222l-.527-.533a.75.75 0 0 0 0 1.067L12 4.222Zm8.25 7.556a.75.75 0 0 0 1.5 0h-1.5Zm-18 0a.75.75 0 0 0 1.5 0h-1.5ZM4.034 16.3a.75.75 0 1 0-1.383.58l1.383-.58Zm4.177 3.026-.013.75.013-.75Zm-2.433-.33-.284.693.284-.694Zm14.88-2.406.691.29-.692-.29Zm-4.869 2.736-.012-.75.012.75Zm2.433-.33.284.693-.284-.694Zm.63-14.119-.39.642.39-.642Zm1.485 1.467.637-.395-.637.395ZM5.149 4.877l-.389-.642.389.642ZM3.663 6.344l-.637-.395.637.395Zm6 13.176.373-.65-.373.65Zm5.114-16.986a.75.75 0 1 0-1.054-1.068l1.054 1.068Zm-1.054 4.444a.75.75 0 1 0 1.054-1.067l-1.054 1.067Zm-4.42-2.005a.75.75 0 1 0-.005-1.5l.004 1.5Zm12.433 9.492a.75.75 0 0 0-1.499-.04l1.5.04Zm-8.115 7.376.488-.814-1.286-.77-.488.813 1.286.771Zm-3.73-.814.488.814 1.286-.77-.488-.815-1.286.771Zm2.444.043a.378.378 0 0 1-.335.18.378.378 0 0 1-.335-.18l-1.286.771c.726 1.212 2.516 1.212 3.242 0l-1.286-.77Zm-4.112-2.494c-1.13-.02-1.71-.09-2.161-.275l-.568 1.388c.738.302 1.574.367 2.704.387l.025-1.5ZM2.651 16.88a5.222 5.222 0 0 0 2.843 2.81l.568-1.39a3.722 3.722 0 0 1-2.028-2l-1.383.58Zm13.151 3.196c1.13-.02 1.966-.085 2.704-.387l-.568-1.388c-.45.184-1.031.256-2.161.275l.025 1.5Zm4.164-3.776a3.722 3.722 0 0 1-2.028 2l.568 1.39a5.222 5.222 0 0 0 2.843-2.81l-1.383-.58ZM12 4.972c1.48 0 2.895 0 4.074.08.588.04 1.1.099 1.518.182.43.085.71.187.87.285l.778-1.284c-.38-.23-.859-.373-1.355-.472a13.669 13.669 0 0 0-1.71-.207c-1.24-.084-2.71-.084-4.175-.084v1.5Zm9.75 6.806c0-1.44 0-2.574-.086-3.48-.089-.916-.273-1.676-.69-2.349l-1.274.79c.245.397.393.898.47 1.704.08.816.08 1.865.08 3.335h1.5Zm-3.287-6.26c.505.306.928.725 1.237 1.222l1.274-.791a5.223 5.223 0 0 0-1.734-1.714l-.777 1.284ZM3.75 11.779c0-1.47 0-2.519.08-3.335.077-.806.225-1.307.47-1.703L3.026 5.95c-.418.673-.601 1.433-.69 2.35-.087.905-.086 2.039-.086 3.479h1.5Zm1.01-7.543A5.223 5.223 0 0 0 3.026 5.95l1.274.79a3.723 3.723 0 0 1 1.237-1.22L4.76 4.235Zm6.417 16.021c-.181-.303-.344-.576-.503-.792a2.07 2.07 0 0 0-.638-.594l-.747 1.3c.03.018.081.054.178.185.106.144.227.344.424.672l1.286-.77Zm-2.98-.18c.397.006.644.011.831.032.174.019.232.046.26.062l.748-1.3a2.107 2.107 0 0 0-.845-.253c-.271-.03-.599-.035-.968-.041l-.025 1.5Zm5.912.951a9.32 9.32 0 0 1 .424-.672c.097-.131.147-.167.178-.185l-.747-1.3a2.07 2.07 0 0 0-.638.594c-.159.216-.322.489-.503.792l1.286.771Zm1.668-2.451c-.37.006-.697.011-.968.04-.285.032-.57.096-.845.254l.747 1.3c.029-.016.087-.043.26-.062.188-.02.435-.026.831-.032l-.025-1.5Zm-3.25-13.82 2.25-2.222-1.054-1.068-2.25 2.223 1.054 1.067Zm-1.054 0 2.25 2.222 1.054-1.067-2.25-2.222-1.054 1.067ZM9.298 3.473c-2.236.007-3.368.054-4.538.762l.777 1.284c.758-.459 1.46-.539 3.765-.546l-.004-1.5Zm10.939 10.951c-.026.957-.102 1.472-.271 1.876l1.383.58c.284-.678.361-1.434.387-2.415l-1.499-.04Z"/>
</svg>
