<svg xmlns="http://www.w3.org/2000/svg" width="24" height="24" fill="none">
  <g fill="#1C274C">
    <path d="M12 22c5.523 0 10-4.477 10-10 0-.906-.12-1.784-.346-2.618-.086-.316-.455-.441-.751-.303a4.5 4.5 0 0 1-5.982-5.982c.138-.296.013-.665-.303-.75A10.012 10.012 0 0 0 12 2C6.477 2 2 6.477 2 12c0 1.6.376 3.112 1.043 4.453.178.356.237.763.134 1.148l-.595 2.226a1.3 1.3 0 0 0 1.591 1.591l2.226-.595a1.634 1.634 0 0 1 1.149.133A9.958 9.958 0 0 0 12 22Z"/>
    <circle cx="19" cy="5" r="3"/>
  </g>
</svg>
