<svg xmlns="http://www.w3.org/2000/svg" width="24" height="24" fill="none">
  <g fill="#1C274C">
    <path d="m12.978 21.455.643.386-.643-.386Zm.488-.814-.643-.385.643.385Zm-2.932 0-.643.386.643-.386Zm.488.814.643-.385-.643.385Zm-7.68-4.866.692-.29-.691.29Zm4.869 2.736-.013.75.013-.75Zm-2.433-.33-.284.694.284-.694Zm14.88-2.406.691.29-.692-.29Zm-4.869 2.736-.012-.75.012.75Zm2.433-.33.284.694-.284-.694ZM5.15 4.877l-.389-.642.389.642ZM3.663 6.344l-.637-.395.637.395Zm6 13.176.373-.65-.373.65Zm-.36-14.547a.75.75 0 1 0-.005-1.5l.004 1.5Zm12.433 9.491a.75.75 0 0 0-1.499-.04l1.5.04Zm-8.115 7.377.488-.814-1.286-.771-.488.814 1.286.77Zm-3.73-.814.488.814 1.286-.771-.488-.814-1.286.77Zm2.444.043a.378.378 0 0 1-.335.18.378.378 0 0 1-.335-.18l-1.286.77c.726 1.212 2.516 1.212 3.242 0l-1.286-.77ZM3.75 12.666v-.889h-1.5v.89h1.5Zm-1.5 0c0 1.025 0 1.832.045 2.484.045.658.14 1.213.356 1.73l1.383-.58c-.126-.302-.203-.673-.243-1.254-.04-.588-.041-1.334-.041-2.38h-1.5Zm5.973 5.91c-1.13-.02-1.71-.091-2.161-.276l-.568 1.389c.738.302 1.574.367 2.704.386l.025-1.5Zm-5.572-1.697a5.223 5.223 0 0 0 2.843 2.81l.568-1.389a3.723 3.723 0 0 1-2.028-2l-1.383.58Zm13.151 3.196c1.13-.019 1.966-.084 2.704-.386l-.568-1.389c-.45.185-1.031.256-2.161.276l.025 1.5Zm4.164-3.776a3.722 3.722 0 0 1-2.028 2.002l.568 1.388a5.223 5.223 0 0 0 2.843-2.81l-1.383-.58ZM3.75 11.777c0-1.47 0-2.518.08-3.335.077-.805.225-1.307.47-1.703l-1.274-.79c-.418.672-.601 1.433-.69 2.35-.087.905-.086 2.038-.086 3.478h1.5Zm1.01-7.542a5.223 5.223 0 0 0-1.734 1.714l1.274.79a3.723 3.723 0 0 1 1.237-1.22L4.76 4.234Zm6.417 16.02c-.181-.303-.344-.576-.503-.791a2.072 2.072 0 0 0-.638-.595l-.747 1.3c.03.018.081.054.178.185.106.144.227.345.424.673l1.286-.771Zm-2.98-.18c.397.007.644.012.831.032.174.02.232.046.26.063l.748-1.3a2.106 2.106 0 0 0-.845-.254c-.271-.03-.599-.034-.968-.04l-.025 1.5Zm5.912.952a9.32 9.32 0 0 1 .424-.673c.097-.13.147-.167.178-.184l-.747-1.3a2.05 2.05 0 0 0-.638.594c-.159.215-.322.488-.503.792l1.286.77Zm1.668-2.451c-.37.006-.697.01-.968.04a2.12 2.12 0 0 0-.845.253l.747 1.3c.029-.016.087-.043.26-.062a10.6 10.6 0 0 1 .831-.032l-.025-1.5ZM9.297 3.473c-2.235.007-3.367.054-4.537.762l.777 1.283c.758-.458 1.46-.538 3.765-.545l-.004-1.5Zm10.94 10.951c-.026.956-.102 1.472-.271 1.875l1.383.58c.284-.677.361-1.434.387-2.415l-1.499-.04Z" opacity=".5"/>
    <path d="m12 4.222-.527-.533a.75.75 0 0 0 0 1.067L12 4.222Zm8.25 7.556a.75.75 0 0 0 1.5 0h-1.5Zm-1.399-6.9-.388.64.388-.64Zm1.486 1.466.637-.395-.637.395Zm-5.56-3.81a.75.75 0 1 0-1.054-1.068l1.054 1.068Zm-1.054 4.444a.75.75 0 1 0 1.054-1.067l-1.054 1.067ZM12 4.972c1.48 0 2.895 0 4.074.08.588.04 1.1.099 1.518.182.43.085.71.187.87.285l.778-1.284c-.38-.23-.859-.373-1.355-.472a13.669 13.669 0 0 0-1.71-.207c-1.24-.084-2.71-.084-4.175-.084v1.5Zm9.75 6.806c0-1.44 0-2.574-.086-3.48-.089-.916-.273-1.676-.69-2.349l-1.274.79c.245.397.393.898.47 1.704.08.816.08 1.865.08 3.335h1.5Zm-3.287-6.26c.505.306.928.725 1.237 1.222l1.274-.791a5.223 5.223 0 0 0-1.734-1.714l-.777 1.284Zm-5.936-.762 2.25-2.222-1.054-1.068-2.25 2.223 1.054 1.067Zm-1.054 0 2.25 2.222 1.054-1.067-2.25-2.222-1.054 1.067Z"/>
  </g>
</svg>
