<svg xmlns="http://www.w3.org/2000/svg" width="24" height="24" fill="none">
  <path fill="#1C274C" fill-rule="evenodd" d="M22 12c0 5.523-4.477 10-10 10-1.6 0-3.112-.376-4.452-1.044a1.634 1.634 0 0 0-1.149-.133l-2.226.596a1.3 1.3 0 0 1-1.591-1.592l.595-2.226a1.633 1.633 0 0 0-.134-1.148A9.96 9.96 0 0 1 2 12C2 6.477 6.477 2 12 2s10 4.477 10 10Zm-6.47-2.53a.75.75 0 0 1 0 1.06l-4 4a.75.75 0 0 1-1.05.011l-2-1.92a.75.75 0 1 1 1.04-1.082l1.47 1.411 3.48-3.48a.75.75 0 0 1 1.06 0Z" clip-rule="evenodd"/>
</svg>
