<svg xmlns="http://www.w3.org/2000/svg" width="24" height="24" fill="none">
  <g fill="#1C274C">
    <path d="M2 12c0-4.714 0-7.071 1.464-8.536C4.93 2 7.286 2 12 2c4.714 0 7.071 0 8.535 1.464C22 4.93 22 7.286 22 12c0 4.714 0 7.071-1.465 8.535C19.072 22 16.714 22 12 22s-7.071 0-8.536-1.465C2 19.072 2 16.714 2 12Z" opacity=".5"/>
    <path d="M10.543 7.517a.75.75 0 1 0-1.086-1.034l-2.314 2.43-.6-.63a.75.75 0 1 0-1.086 1.034l1.143 1.2a.75.75 0 0 0 1.086 0l2.857-3ZM13 8.25a.75.75 0 0 0 0 1.5h5a.75.75 0 0 0 0-1.5h-5Zm-2.457 6.267a.75.75 0 1 0-1.086-1.034l-2.314 2.43-.6-.63a.75.75 0 1 0-1.086 1.034l1.143 1.2a.75.75 0 0 0 1.086 0l2.857-3ZM13 15.25a.75.75 0 0 0 0 1.5h5a.75.75 0 0 0 0-1.5h-5Z"/>
  </g>
</svg>
