<svg xmlns="http://www.w3.org/2000/svg" width="24" height="24" fill="none">
  <path fill="#1C274C" fill-rule="evenodd" d="M7.253 4.255a5.25 5.25 0 0 1 9.494 0A5.75 5.75 0 0 1 19.75 15.05v3.002c0 .899 0 1.648-.08 2.242-.084.628-.27 1.195-.726 1.65-.455.456-1.022.642-1.65.726-.594.08-1.344.08-2.242.08H8.948c-.898 0-1.648 0-2.242-.08-.628-.084-1.195-.27-1.65-.726-.456-.455-.642-1.022-.726-1.65-.08-.594-.08-1.343-.08-2.242v-3.001A5.75 5.75 0 0 1 7.253 4.256Zm-.45 1.5A4.25 4.25 0 0 0 5.3 13.896a.75.75 0 0 1 .45.687v2.666h12.5v-2.666a.75.75 0 0 1 .45-.687 4.251 4.251 0 0 0-1.503-8.143c.035.244.053.493.053.746V7a.75.75 0 0 1-1.5 0v-.5A3.746 3.746 0 0 0 12 2.75 3.752 3.752 0 0 0 8.25 6.5V7a.75.75 0 0 1-1.5 0v-.5c0-.253.018-.502.053-.745ZM18.248 18.75H5.752c.004.57.018 1 .065 1.345.062.461.169.659.3.789.13.13.327.237.788.3.483.064 1.131.066 2.095.066h6c.964 0 1.612-.002 2.095-.067.461-.062.659-.169.789-.3.13-.13.237-.327.3-.788.046-.346.06-.776.064-1.345Z" clip-rule="evenodd"/>
</svg>
