<svg xmlns="http://www.w3.org/2000/svg" width="24" height="24" fill="none">
  <path fill="#1C274C" fill-rule="evenodd" d="M11.943 1.25h.114c2.309 0 4.118 0 5.53.19 1.444.194 2.584.6 3.479 1.494.895.895 1.3 2.035 1.494 3.48.19 1.411.19 3.22.19 5.529v.114c0 2.309 0 4.118-.19 5.53-.194 1.444-.6 2.584-1.494 3.479-.895.895-2.035 1.3-3.48 1.494-1.411.19-3.22.19-5.529.19h-.114c-2.309 0-4.118 0-5.53-.19-1.444-.194-2.584-.6-3.479-1.494-.895-.895-1.3-2.035-1.494-3.48-.19-1.411-.19-3.22-.19-5.529v-.114c0-2.309 0-4.118.19-5.53.194-1.444.6-2.584 1.494-3.479.895-.895 2.035-1.3 3.48-1.494 1.411-.19 3.22-.19 5.529-.19Zm-5.33 1.676c-1.278.172-2.049.5-2.618 1.069-.57.57-.897 1.34-1.069 2.619-.027.202-.05.413-.07.636h3.732l2.856-4.488c-1.127.017-2.052.06-2.83.164Zm4.594-.176a.753.753 0 0 1-.074.153L8.366 7.25h4.722l2.83-4.448C14.857 2.75 13.576 2.75 12 2.75h-.793Zm6.391.207L14.866 7.25h6.277c-.02-.223-.042-.434-.07-.636-.171-1.279-.498-2.05-1.068-2.62-.537-.537-1.254-.858-2.407-1.037Zm3.625 5.793H7.011a.73.73 0 0 1-.024 0h-4.21A120.56 120.56 0 0 0 2.75 12c0 2.378.002 4.086.176 5.386.172 1.279.5 2.05 1.069 2.62.57.569 1.34.896 2.619 1.068 1.3.174 3.008.176 5.386.176s4.086-.002 5.386-.176c1.279-.172 2.05-.5 2.62-1.069.569-.57.896-1.34 1.068-2.619.174-1.3.176-3.008.176-5.386 0-1.258 0-2.328-.027-3.25Zm-7.855 3.171.102.066c.62.4 1.156.746 1.53 1.077.398.352.75.805.75 1.436 0 .631-.352 1.084-.75 1.436-.374.331-.91.677-1.53 1.077l-.102.066c-.626.404-1.17.755-1.622.956-.47.209-1.073.359-1.648-.006-.544-.346-.71-.937-.779-1.457-.07-.519-.069-1.205-.069-2.017v-.11c0-.812 0-1.498.07-2.017.068-.52.234-1.11.778-1.457.575-.365 1.178-.214 1.648-.006.452.201.996.552 1.622.956Zm-2.51.33h.016c-.01.002-.016.002-.016 0Zm.04.002c.04.007.114.028.24.083.33.147.775.432 1.47.88.683.44 1.12.725 1.399.971.256.227.244.306.243.313.001.006.013.086-.243.313-.278.246-.716.53-1.4.972-.694.447-1.138.732-1.47.879-.125.055-.2.076-.24.083-.022-.043-.06-.146-.091-.373-.054-.408-.056-.992-.056-1.874 0-.882.002-1.466.056-1.874.03-.227.069-.33.091-.373Zm-.04 4.495.016.002c-.012 0-.017 0-.016-.002Zm.052.02a.019.019 0 0 1 .005.005s-.002 0-.005-.005Zm0-4.536.005-.005-.005.005Z" clip-rule="evenodd"/>
</svg>
