<svg xmlns="http://www.w3.org/2000/svg" width="24" height="24" fill="none">
  <path fill="#1C274C" fill-rule="evenodd" d="M18.059 4.708a2.25 2.25 0 0 0-2.166-1.25 2.952 2.952 0 0 0-.51.096l-.446 3.74 3.118-.836a8.175 8.175 0 0 0 .289-.083.25.25 0 0 0 .137-.238 8.315 8.315 0 0 0-.073-.292c-.19-.708-.26-.955-.35-1.137Zm-4.683 3.003.447-3.743-4.719 1.264-.446 3.743 4.718-1.264ZM7.098 9.394l.446-3.743c-.817.219-1.401.379-1.85.544-.474.174-.728.33-.904.505-.279.28-.48.628-.582 1.009-.064.24-.072.537.014 1.034.063.362.167.79.31 1.338l2.566-.687ZM3.25 11.093c-.226-.843-.408-1.526-.506-2.094-.104-.6-.129-1.141.015-1.678a3.75 3.75 0 0 1 .97-1.681c.394-.393.875-.643 1.447-.853.554-.203 1.259-.392 2.132-.626l.78-.21a.746.746 0 0 1 .286-.076l5.972-1.6.021-.006a.746.746 0 0 1 .286-.076c.474-.126.821-.21 1.142-.232a3.75 3.75 0 0 1 3.609 2.084c.164.332.272.736.43 1.328l.023.084.012.046c.048.176.097.359.109.534a1.75 1.75 0 0 1-.973 1.684 2.826 2.826 0 0 1-.562.186L9.697 10.25h6.355c.898 0 1.648 0 2.242.08.628.084 1.195.27 1.65.725.456.456.642 1.023.726 1.65.08.595.08 1.345.08 2.243v1.107c0 1.367 0 2.47-.117 3.337-.12.9-.38 1.658-.982 2.26-.602.601-1.36.86-2.26.981-.866.117-1.969.117-3.336.117h-4.11c-1.368 0-2.47 0-3.337-.117-.9-.12-1.658-.38-2.26-.981-.602-.602-.86-1.36-.982-2.26-.116-.867-.116-1.97-.116-3.337v-4.962Zm1.5.657V16c0 1.435.001 2.436.103 3.192.099.734.28 1.122.556 1.399.277.277.665.457 1.399.556.755.101 1.756.103 3.192.103h4c1.435 0 2.436-.002 3.192-.103.733-.099 1.122-.28 1.399-.556.277-.277.457-.665.556-1.4.101-.755.103-1.756.103-3.191v-1c0-.964-.002-1.612-.067-2.095-.062-.461-.169-.659-.3-.789-.13-.13-.327-.237-.789-.3-.483-.065-1.13-.066-2.094-.066H4.75Zm8.448 2.83.047.034.042.03c.361.259.7.501.94.738.27.265.523.623.523 1.118 0 .495-.252.852-.522 1.118-.241.237-.58.48-.94.738l-.043.03-.047.034c-.361.26-.706.506-1.001.652-.315.155-.834.321-1.33-.029-.43-.304-.533-.795-.574-1.138-.043-.358-.043-.826-.043-1.358v-.094c0-.533 0-1 .043-1.358.04-.343.144-.834.575-1.138.495-.35 1.014-.185 1.329-.03.295.146.64.394 1.001.653Zm-1.429.832c-.018.25-.02.593-.02 1.088 0 .495.002.838.02 1.088.149-.097.34-.234.602-.421.418-.3.658-.474.805-.619a.62.62 0 0 0 .046-.048 1.009 1.009 0 0 0-.046-.048c-.147-.145-.387-.32-.805-.619a18.297 18.297 0 0 0-.602-.421Z" clip-rule="evenodd"/>
</svg>
