<svg xmlns="http://www.w3.org/2000/svg" width="24" height="24" fill="none">
  <g fill="#1C274C">
    <path d="M12 2c1.845 0 3.33 0 4.54.088L13.1 7.25H8.4L11.9 2h.1ZM3.464 3.464c1.253-1.252 3.158-1.433 6.632-1.46L6.599 7.25H2.104c.147-1.764.503-2.928 1.36-3.786ZM2 12c0-1.237 0-2.311.026-3.25h19.948C22 9.689 22 10.763 22 12v.258c-.567-.405-1.205-.578-1.831-.662-.714-.096-1.595-.096-2.577-.096h-.184c-.982 0-1.863 0-2.577.096-.779.104-1.578.348-2.233 1.002-.654.655-.898 1.454-1.002 2.233-.096.714-.096 1.595-.096 2.577v.184c0 .982 0 1.863.096 2.577.084.626.257 1.264.662 1.831H12c-4.714 0-7.071 0-8.536-1.465C2 19.072 2 16.714 2 12Zm19.896-4.75c-.147-1.764-.503-2.928-1.36-3.786-.598-.597-1.344-.95-2.337-1.16L14.9 7.25h6.995Z"/>
    <path fill-rule="evenodd" d="M17.5 22c-2.121 0-3.182 0-3.841-.659C13 20.682 13 19.621 13 17.5c0-2.121 0-3.182.659-3.841C14.318 13 15.379 13 17.5 13c2.121 0 3.182 0 3.841.659.659.659.659 1.72.659 3.841 0 2.121 0 3.182-.659 3.841-.659.659-1.72.659-3.841.659Zm2.212-6.712a.983.983 0 0 1 0 1.39l-.058.058a.238.238 0 0 1-.211.067 1.594 1.594 0 0 1-.81-.436 1.594 1.594 0 0 1-.436-.81.238.238 0 0 1 .067-.211l.058-.058a.983.983 0 0 1 1.39 0ZM17.35 19.04a3.419 3.419 0 0 1-.296.279 1.634 1.634 0 0 1-.303.187 3.404 3.404 0 0 1-.381.14l-1.021.34a.265.265 0 0 1-.335-.335l.34-1.02c.064-.194.097-.291.14-.382.051-.108.114-.21.187-.303.062-.08.134-.152.279-.296l1.799-1.799c.043-.043.118-.023.138.035a1.984 1.984 0 0 0 1.217 1.217c.058.02.078.095.035.138l-1.799 1.8Z" clip-rule="evenodd"/>
  </g>
</svg>
