<svg xmlns="http://www.w3.org/2000/svg" width="24" height="24" fill="none">
  <g stroke="#1C274C" stroke-width="1.5">
    <path d="M16 4c2.175.012 3.353.109 4.121.877C21 5.756 21 7.17 21 9.998v6c0 2.829 0 4.243-.879 5.122-.878.878-2.293.878-5.121.878H9c-2.828 0-4.243 0-5.121-.878C3 20.24 3 18.827 3 15.998v-6c0-2.828 0-4.242.879-5.121C4.647 4.109 5.825 4.012 8 4"/>
    <path stroke-linecap="round" stroke-linejoin="round" d="m9 13.4 1.714 1.6L15 11"/>
    <path d="M8 3.5A1.5 1.5 0 0 1 9.5 2h5A1.5 1.5 0 0 1 16 3.5v1A1.5 1.5 0 0 1 14.5 6h-5A1.5 1.5 0 0 1 8 4.5v-1Z"/>
  </g>
</svg>
