<svg xmlns="http://www.w3.org/2000/svg" width="24" height="24" fill="none">
  <g fill="#1C274C">
    <path d="M3.464 20.535C4.93 22 7.286 22 12 22c4.714 0 7.071 0 8.535-1.465C22 19.072 22 16.714 22 12s0-7.071-1.465-8.536C19.072 2 16.714 2 12 2S4.929 2 3.464 3.464C2 4.93 2 7.286 2 12c0 4.714 0 7.071 1.464 8.535Z" opacity=".5"/>
    <path fill-rule="evenodd" d="M12 7.25a.75.75 0 0 1 .75.75v3.69l2.28 2.28a.75.75 0 1 1-1.06 1.06l-2.5-2.5a.75.75 0 0 1-.22-.53V8a.75.75 0 0 1 .75-.75Z" clip-rule="evenodd"/>
  </g>
</svg>
