<svg xmlns="http://www.w3.org/2000/svg" width="24" height="24" fill="none">
  <path stroke="#1C274C" stroke-linecap="round" stroke-width="1.5" d="M22 14.353C22 17.472 19.442 20 16.286 20H11m3.381-10.973a5.765 5.765 0 0 1 1.905-.321c.654 0 1.283.109 1.87.309m-11.04 2.594a4.351 4.351 0 0 0-.83-.08C3.919 11.53 2 13.426 2 15.765 2 18.104 3.919 20 6.286 20H7m.116-8.391a5.577 5.577 0 0 1-.354-1.962C6.762 6.528 9.32 4 12.476 4c2.94 0 5.361 2.194 5.68 5.015m-11.04 2.594a4.29 4.29 0 0 1 1.55.634m9.49-3.228A5.724 5.724 0 0 1 20 10.061"/>
</svg>
