<svg xmlns="http://www.w3.org/2000/svg" width="24" height="24" fill="none">
  <g fill="#1C274C">
    <path fill-rule="evenodd" d="M10 22h4c3.771 0 5.657 0 6.828-1.172C22 19.657 22 17.771 22 14v-.437c0-.873 0-1.529-.043-2.063h-4.052c-1.097 0-2.067 0-2.848-.105-.847-.114-1.694-.375-2.385-1.066-.692-.692-.953-1.539-1.067-2.386-.105-.781-.105-1.75-.105-2.848l.01-2.834c0-.083.007-.164.02-.244C11.121 2 10.636 2 10.03 2 6.239 2 4.343 2 3.172 3.172 2 4.343 2 6.229 2 10v4c0 3.771 0 5.657 1.172 6.828C4.343 22 6.229 22 10 22Z" clip-rule="evenodd" opacity=".5"/>
    <path d="M13 16.235C13 17.21 12.105 18 11 18H7.5c-.828 0-1.5-.593-1.5-1.323 0-.732.672-1.324 1.5-1.324.1 0 .197.008.29.025a1.578 1.578 0 0 1-.123-.613c0-.975.895-1.765 2-1.765 1.029 0 1.876.685 1.987 1.567.784.24 1.346.896 1.346 1.668ZM11.51 2.26l-.01 2.835c0 1.097 0 2.066.105 2.848.114.847.375 1.694 1.067 2.385.69.691 1.538.953 2.385 1.067.781.105 1.751.105 2.848.105h4.052c.013.155.022.321.028.5H22c0-.268 0-.402-.01-.56a5.322 5.322 0 0 0-.958-2.641c-.094-.128-.158-.204-.285-.357C19.954 7.494 18.91 6.312 18 5.5c-.81-.724-1.921-1.515-2.89-2.162-.832-.555-1.248-.833-1.819-1.04a5.488 5.488 0 0 0-.506-.153c-.384-.095-.758-.128-1.285-.14l.01.255Z"/>
  </g>
</svg>
