<svg xmlns="http://www.w3.org/2000/svg" width="24" height="24" fill="none">
  <path fill="#1C274C" fill-rule="evenodd" d="M11.017 2.802A9.25 9.25 0 0 0 2.75 12c0 .968.148 1.9.423 2.775a.75.75 0 1 1-1.43.45A10.745 10.745 0 0 1 1.25 12C1.25 6.063 6.063 1.25 12 1.25c.717 0 1.075.571 1.137 1.026.059.438-.103.995-.606 1.299A5.747 5.747 0 0 0 9.75 8.5a.75.75 0 0 1-1.5 0 7.238 7.238 0 0 1 2.767-5.698Zm10.181 10.18a9.252 9.252 0 0 1-4.573 7.031.75.75 0 1 0 .75 1.298A10.746 10.746 0 0 0 22.75 12c0-.717-.571-1.075-1.026-1.137-.438-.059-.995.103-1.299.606A5.746 5.746 0 0 1 15.5 14.25a.75.75 0 0 0 0 1.5 7.238 7.238 0 0 0 5.698-2.767ZM8.81 12.75c-1.674 0-2.965 1.28-2.965 2.78 0 .207.024.409.07.603.292.095.568.225.82.386a.75.75 0 0 1-.804 1.266 2.1 2.1 0 0 0-1.145-.33c-1.161 0-2.036.886-2.036 1.898s.875 1.897 2.036 1.897h6.5c1.673 0 2.964-1.28 2.964-2.78 0-1.19-.807-2.236-1.983-2.623a3.136 3.136 0 0 0-.981-.156c-.352 0-.689.058-1 .162a.75.75 0 1 1-.477-1.422 4.633 4.633 0 0 1 1.599-.238c-.499-.85-1.462-1.443-2.598-1.443Zm4.356 1.838c-.452-1.934-2.254-3.338-4.356-3.338-2.43 0-4.465 1.88-4.465 4.28 0 .151.009.301.025.45-1.73.196-3.12 1.601-3.12 3.373 0 1.912 1.62 3.397 3.536 3.397h6.5c2.429 0 4.464-1.88 4.464-4.28 0-1.737-1.074-3.208-2.584-3.882Z" clip-rule="evenodd"/>
</svg>
