<svg xmlns="http://www.w3.org/2000/svg" width="24" height="24" fill="none">
  <g fill="#1C274C">
    <path d="M16.286 18C19.442 18 22 15.472 22 12.353c0-2.472-1.607-4.573-3.845-5.338C17.837 4.194 15.415 2 12.476 2 9.32 2 6.762 4.528 6.762 7.647c0 .69.125 1.35.354 1.962a4.356 4.356 0 0 0-.83-.08C3.919 9.53 2 11.426 2 13.765 2 16.104 3.919 18 6.286 18h10Z" opacity=".5"/>
    <path d="M18.286 22C20.337 22 22 20.42 22 18.47c0-1.544-1.045-2.857-2.5-3.336C19.295 13.371 17.72 12 15.81 12c-2.052 0-3.715 1.58-3.715 3.53 0 .43.082.844.23 1.226a2.948 2.948 0 0 0-.54-.05C10.248 16.706 9 17.89 9 19.353 9 20.815 10.247 22 11.786 22h6.5Z"/>
  </g>
</svg>
