<svg xmlns="http://www.w3.org/2000/svg" width="24" height="24" fill="none">
  <path stroke="#1C274C" stroke-linecap="round" stroke-width="1.5" d="M22 13.353c0 1.94-.99 3.653-2.5 4.67m-5.119-9.996a5.765 5.765 0 0 1 1.905-.321c.654 0 1.283.109 1.87.309m-11.04 2.594a4.351 4.351 0 0 0-.83-.08C3.919 10.53 2 12.426 2 14.765c0 1.31.602 2.48 1.547 3.258m3.57-7.414a5.577 5.577 0 0 1-.355-1.962C6.762 5.528 9.32 3 12.476 3c2.94 0 5.361 2.194 5.68 5.015m-11.04 2.594a4.29 4.29 0 0 1 1.55.634m9.49-3.228A5.724 5.724 0 0 1 20 9.061M17 19l-2 2m1-5.5-2 2M12 20l-2 2m1.5-6.5-2 2m-2 1.5-2 2"/>
</svg>
