<svg xmlns="http://www.w3.org/2000/svg" width="24" height="24" fill="none">
  <g fill="#1C274C">
    <path fill-rule="evenodd" d="M8.94 14.44c-.44.439-.44 1.146-.44 2.56v2c0 1.414 0 2.121.44 2.56.439.44 1.146.44 2.56.44h1c1.414 0 2.121 0 2.56-.44.44-.439.44-1.146.44-2.56v-2c0-1.414 0-2.121-.44-2.56-.439-.44-1.146-.44-2.56-.44h-1c-1.414 0-2.121 0-2.56.44ZM10.25 18a.75.75 0 0 1 .75-.75h2a.75.75 0 0 1 0 1.5h-2a.75.75 0 0 1-.75-.75Z" clip-rule="evenodd"/>
    <path d="M22 12.353c0 2.88-2.181 5.256-5 5.603l-1.5.007V17c0-1.414 0-2.121-.44-2.56-.439-.44-1.146-.44-2.56-.44h-1c-1.414 0-2.121 0-2.56.44-.44.439-.44 1.146-.44 2.56v.993L7 18h-.714C3.919 18 2 16.104 2 13.765c0-2.34 1.919-4.236 4.286-4.236.284 0 .562.028.83.08a5.576 5.576 0 0 1-.354-1.962C6.762 4.528 9.32 2 12.476 2c2.94 0 5.361 2.194 5.68 5.015C20.392 7.78 22 9.881 22 12.353Z" opacity=".5"/>
  </g>
</svg>
