<svg xmlns="http://www.w3.org/2000/svg" width="24" height="24" fill="none">
  <g fill="#1C274C">
    <path d="M16.286 18C19.442 18 22 15.472 22 12.353c0-2.472-1.607-4.573-3.845-5.338C17.837 4.194 15.415 2 12.476 2 9.32 2 6.762 4.528 6.762 7.647c0 .69.125 1.35.354 1.962a4.356 4.356 0 0 0-.83-.08C3.919 9.53 2 11.426 2 13.765 2 16.104 3.919 18 6.286 18h10Z" opacity=".5"/>
    <path d="m9.626 17.465 1.148-1.555c.743-1.005 1.114-1.507 1.46-1.4.346.105.346.722.346 1.954v.116c0 .445 0 .667.142.807l.008.007c.145.136.376.136.838.136.832 0 1.248 0 1.39.253a.777.777 0 0 1 .006.012c.133.257-.108.583-.59 1.235l-1.148 1.555c-.743 1.005-1.114 1.508-1.46 1.401-.346-.106-.346-.722-.346-1.955v-.116c0-.444 0-.667-.142-.806l-.008-.007c-.145-.137-.376-.137-.838-.137-.832 0-1.248 0-1.39-.252a.427.427 0 0 1-.006-.013c-.133-.256.108-.583.59-1.235Z"/>
  </g>
</svg>
