<svg xmlns="http://www.w3.org/2000/svg" width="24" height="24" fill="none">
  <path fill="#1C274C" fill-rule="evenodd" d="M12.476 3.75c-2.75 0-4.964 2.2-4.964 4.897 0 .462.065.909.185 1.331.497.144.963.36 1.383.64a.75.75 0 1 1-.827 1.25 3.54 3.54 0 0 0-1.967-.589c-1.961 0-3.536 1.57-3.536 3.486 0 1.916 1.575 3.485 3.536 3.485a.75.75 0 0 1 0 1.5c-2.773 0-5.036-2.224-5.036-4.985 0-2.705 2.17-4.893 4.864-4.983a6.366 6.366 0 0 1-.102-1.135c0-3.541 2.902-6.397 6.464-6.397 3.158 0 5.796 2.244 6.355 5.221 2.3.977 3.919 3.238 3.919 5.882 0 3.074-2.188 5.631-5.093 6.253a.75.75 0 0 1-.314-1.467c2.24-.48 3.907-2.446 3.907-4.786 0-2.137-1.39-3.962-3.338-4.628a5.018 5.018 0 0 0-1.626-.27c-.583 0-1.14.1-1.658.28a.75.75 0 0 1-.494-1.416 6.517 6.517 0 0 1 3.024-.305 4.962 4.962 0 0 0-4.682-3.264Zm.19 12.896a.916.916 0 0 0-1.332 0c-.402.414-.816.889-1.124 1.353-.326.49-.46.859-.46 1.084 0 1.177.987 2.167 2.25 2.167s2.25-.99 2.25-2.167c0-.225-.134-.594-.46-1.084-.308-.464-.722-.939-1.124-1.352Zm-2.408-1.044a2.415 2.415 0 0 1 3.484 0c.433.445.917.994 1.298 1.567.363.547.71 1.228.71 1.914 0 2.045-1.699 3.667-3.75 3.667s-3.75-1.622-3.75-3.667c0-.686.347-1.367.71-1.914.38-.573.865-1.122 1.298-1.567Z" clip-rule="evenodd"/>
</svg>
