<svg xmlns="http://www.w3.org/2000/svg" width="24" height="24" fill="none">
  <g fill="#1C274C">
    <path fill-rule="evenodd" d="M11.47 15.47a.75.75 0 0 1 1.06 0l2 2a.75.75 0 1 1-1.06 1.06l-.72-.72V22a.75.75 0 0 1-1.5 0v-4.19l-.72.72a.75.75 0 1 1-1.06-1.06l2-2Z" clip-rule="evenodd"/>
    <path d="M12.476 3.75c-2.75 0-4.964 2.2-4.964 4.897 0 .462.065.909.185 1.331.497.144.963.36 1.383.64a.75.75 0 1 1-.827 1.25 3.54 3.54 0 0 0-1.967-.589c-1.961 0-3.536 1.57-3.536 3.486 0 1.916 1.575 3.485 3.536 3.485a.75.75 0 0 1 0 1.5c-2.773 0-5.036-2.224-5.036-4.985 0-2.705 2.17-4.893 4.864-4.983a6.366 6.366 0 0 1-.102-1.135c0-3.541 2.902-6.397 6.464-6.397 3.158 0 5.796 2.244 6.355 5.221 2.3.977 3.919 3.238 3.919 5.882 0 3.074-2.188 5.631-5.093 6.253a.75.75 0 0 1-.314-1.467c2.24-.48 3.907-2.446 3.907-4.786 0-2.137-1.39-3.962-3.338-4.628a5.018 5.018 0 0 0-1.626-.27c-.583 0-1.14.1-1.658.28a.75.75 0 0 1-.494-1.416 6.517 6.517 0 0 1 3.024-.305 4.962 4.962 0 0 0-4.682-3.264Z"/>
  </g>
</svg>
