<svg xmlns="http://www.w3.org/2000/svg" width="24" height="24" fill="none">
  <g fill="#1C274C" fill-rule="evenodd" clip-rule="evenodd">
    <path d="M12.476 2.75c-2.75 0-4.964 2.2-4.964 4.897 0 .462.065.909.185 1.331.497.144.963.36 1.383.64a.75.75 0 1 1-.827 1.25 3.54 3.54 0 0 0-1.967-.589c-1.961 0-3.536 1.57-3.536 3.486 0 1.916 1.575 3.485 3.536 3.485a.75.75 0 0 1 0 1.5c-2.773 0-5.036-2.224-5.036-4.985 0-2.705 2.17-4.893 4.864-4.983a6.366 6.366 0 0 1-.102-1.135c0-3.541 2.902-6.397 6.464-6.397 3.158 0 5.796 2.244 6.355 5.221 2.3.977 3.919 3.238 3.919 5.882 0 3.074-2.188 5.631-5.093 6.253a.75.75 0 0 1-.314-1.467c2.24-.48 3.907-2.446 3.907-4.786 0-2.137-1.39-3.962-3.338-4.628a5.018 5.018 0 0 0-1.626-.27c-.583 0-1.14.1-1.658.28a.75.75 0 0 1-.494-1.416 6.517 6.517 0 0 1 3.024-.305 4.962 4.962 0 0 0-4.682-3.264Z"/>
    <path d="M12.454 13.783c-.64-.196-1.118.249-1.342.48l-.91 1.149-.03.042-1.15 1.554-.028.04-.555.819c-.135.252-.312.696-.069 1.166l.018.033c.25.45.706.559.986.598.278.039.635.039 1.01.039h.285v.37c0 .569 0 1.073.05 1.444.043.316.171.971.827 1.172.64.196 1.118-.249 1.342-.48.263-.274.565-.683.91-1.149l1.18-1.596.028-.04.04-.054c.202-.272.393-.535.515-.765.135-.252.312-.696.069-1.166l-.018-.033c-.25-.45-.706-.559-.986-.598-.278-.039-.635-.039-1.01-.039h-.285v-.37c0-.569 0-1.073-.05-1.444-.043-.316-.172-.971-.827-1.172Zm-.627 1.962a45.15 45.15 0 0 0-.45.601L10.23 17.9l-.221.301c.118.002.257.002.424.002h.033c.202 0 .418 0 .6.023.21.027.484.096.72.317l.005.005.013.013c.235.23.312.506.342.721.025.181.025.395.025.586v.15c0 .28 0 .513.003.709.126-.163.273-.362.45-.601l1.148-1.554c.084-.113.157-.212.221-.301a32.812 32.812 0 0 0-.424-.002h-.033c-.202 0-.418 0-.6-.023a1.247 1.247 0 0 1-.72-.317l-.005-.005-.013-.013a1.21 1.21 0 0 1-.342-.721 4.492 4.492 0 0 1-.025-.586v-.15c0-.28 0-.513-.003-.709Z"/>
  </g>
</svg>
