<svg xmlns="http://www.w3.org/2000/svg" width="24" height="24" fill="none">
  <g stroke="#1C274C" stroke-width="1.5">
    <path d="M5.5 15.5c0-.943 0-1.414.293-1.707.293-.293.764-.293 1.707-.293h1c.943 0 1.414 0 1.707.293.293.293.293.764.293 1.707v1c0 .943 0 1.414-.293 1.707-.293.293-.764.293-1.707.293-1.414 0-2.121 0-2.56-.44-.44-.439-.44-1.146-.44-2.56Zm0-7c0-1.414 0-2.121.44-2.56.439-.44 1.146-.44 2.56-.44.943 0 1.414 0 1.707.293.293.293.293.764.293 1.707v1c0 .943 0 1.414-.293 1.707-.293.293-.764.293-1.707.293h-1c-.943 0-1.414 0-1.707-.293C5.5 9.914 5.5 9.443 5.5 8.5Zm8 7c0-.943 0-1.414.293-1.707.293-.293.764-.293 1.707-.293h1c.943 0 1.414 0 1.707.293.293.293.293.764.293 1.707 0 1.414 0 2.121-.44 2.56-.439.44-1.146.44-2.56.44-.943 0-1.414 0-1.707-.293-.293-.293-.293-.764-.293-1.707v-1Zm0-8c0-.943 0-1.414.293-1.707.293-.293.764-.293 1.707-.293 1.414 0 2.121 0 2.56.44.44.439.44 1.146.44 2.56 0 .943 0 1.414-.293 1.707-.293.293-.764.293-1.707.293h-1c-.943 0-1.414 0-1.707-.293-.293-.293-.293-.764-.293-1.707v-1Z"/>
    <path stroke-linecap="round" d="M22 14c0 3.771 0 5.657-1.172 6.828C19.657 22 17.771 22 14 22m-4 0c-3.771 0-5.657 0-6.828-1.172C2 19.657 2 17.771 2 14m8-12C6.229 2 4.343 2 3.172 3.172 2 4.343 2 6.229 2 10m12-8c3.771 0 5.657 0 6.828 1.172C22 4.343 22 6.229 22 10" opacity=".5"/>
  </g>
</svg>
