<svg xmlns="http://www.w3.org/2000/svg" width="24" height="24" fill="none">
  <g stroke="#1C274C" stroke-width="1.5">
    <path d="M13.024 14.56c-2.31.924-3.465 1.386-4.124.938a1.5 1.5 0 0 1-.398-.398c-.448-.66.014-1.814.938-4.124.197-.493.295-.74.465-.933.043-.049.09-.095.139-.138.193-.17.44-.268.932-.465 2.31-.924 3.464-1.386 4.124-.938a1.5 1.5 0 0 1 .398.398c.448.66-.014 1.814-.938 4.124-.197.493-.296.739-.465.932a1.49 1.49 0 0 1-.139.139c-.193.17-.44.268-.932.465Z"/>
    <path stroke-linecap="round" d="M22 12c0 4.714 0 7.071-1.465 8.535C19.072 22 16.714 22 12 22s-7.071 0-8.536-1.465C2 19.072 2 16.714 2 12s0-7.071 1.464-8.536C4.93 2 7.286 2 12 2c4.714 0 7.071 0 8.535 1.464.974.974 1.3 2.343 1.41 4.536"/>
  </g>
</svg>
