<svg xmlns="http://www.w3.org/2000/svg" width="24" height="24" fill="none">
  <g fill="#1C274C">
    <path d="M12 22c5.523 0 10-4.477 10-10S17.523 2 12 2 2 6.477 2 12s4.477 10 10 10Z" opacity=".5"/>
    <path d="M13.024 14.56c.493-.197.739-.296.932-.465.05-.043.096-.09.139-.139.17-.193.268-.44.465-.932.924-2.31 1.386-3.465.938-4.124a1.5 1.5 0 0 0-.398-.398c-.66-.448-1.814.014-4.124.938-.493.197-.74.295-.933.465-.049.043-.095.09-.138.139-.17.193-.268.44-.465.932-.924 2.31-1.386 3.464-.938 4.124a1.5 1.5 0 0 0 .398.398c.66.448 1.814-.014 4.124-.938Z"/>
  </g>
</svg>
