<svg xmlns="http://www.w3.org/2000/svg" width="24" height="24" fill="none">
  <path fill="#1C274C" fill-rule="evenodd" d="M16.706 3.071c-1.743.462-4.052 1.384-7.217 2.65-1.391.557-1.917.778-2.324 1.135-.11.096-.213.2-.309.309-.357.407-.578.933-1.134 2.324-1.267 3.165-2.189 5.474-2.65 7.217-.47 1.768-.393 2.71.02 3.318.236.348.536.648.884.884.607.413 1.55.49 3.318.02 1.743-.462 4.052-1.384 7.217-2.65 1.391-.556 1.917-.777 2.324-1.134l.459.523-.459-.523c.11-.096.213-.2.309-.309l.529.464-.53-.464c.358-.407.579-.933 1.135-2.324 1.267-3.165 2.189-5.474 2.65-7.217.47-1.768.393-2.71-.02-3.318a3.336 3.336 0 0 0-.884-.885c-.607-.412-1.55-.488-3.318-.02Zm-.384-1.45c1.827-.484 3.356-.579 4.545.23.505.343.94.777 1.282 1.282.809 1.19.714 2.718.23 4.545-.489 1.842-1.446 4.236-2.686 7.336l-.022.054-.05.127c-.488 1.22-.802 2.005-1.35 2.629a4.715 4.715 0 0 1-.447.447c-.624.548-1.409.861-2.63 1.35l-.126.05-.054.022c-3.1 1.24-5.494 2.197-7.335 2.685-1.828.485-3.357.58-4.546-.229a4.835 4.835 0 0 1-1.282-1.282l.62-.421-.62.421c-.809-1.19-.714-2.718-.23-4.546.489-1.841 1.446-4.235 2.686-7.335l.022-.054.05-.127c.489-1.22.802-2.005 1.35-2.629.139-.159.288-.308.447-.448.624-.547 1.409-.86 2.63-1.348l.126-.051.054-.022c3.1-1.24 5.494-2.197 7.335-2.685ZM12 9.75a2.25 2.25 0 1 0 0 4.5 2.25 2.25 0 0 0 0-4.5ZM8.25 12a3.75 3.75 0 1 1 7.5 0 3.75 3.75 0 0 1-7.5 0Z" clip-rule="evenodd"/>
</svg>
