<svg xmlns="http://www.w3.org/2000/svg" width="24" height="24" fill="none">
  <g stroke="#1C274C" stroke-linecap="round" stroke-width="1.5">
    <path d="M16.429 2c2.414 0 3.62 0 4.442.655.175.14.334.299.475.475C22 3.95 22 5.157 22 7.57c0 3.22 0 4.829-.873 5.923a3.948 3.948 0 0 1-.633.633C19.4 15 17.79 15 14.571 15H9.43c-3.22 0-4.829 0-5.923-.873a4 4 0 0 1-.633-.633C2 12.4 2 10.79 2 7.571c0-2.414 0-3.62.655-4.441.14-.176.299-.335.475-.475C3.95 2 5.157 2 7.57 2H12M7 17.5l-.307.46A1.321 1.321 0 0 0 7 19.75c.561.42.696 1.206.307 1.79L7 22m5-4.5-.306.46A1.32 1.32 0 0 0 12 19.75c.561.42.696 1.206.307 1.79L12 22m5-4.5-.306.46A1.32 1.32 0 0 0 17 19.75c.561.42.696 1.206.307 1.79L17 22"/>
    <path d="M18 14.5c0-.465 0-.697-.038-.89a2 2 0 0 0-1.572-1.572C16.197 12 15.965 12 15.5 12H9c-.932 0-1.398 0-1.765.152a2 2 0 0 0-1.083 1.083c-.122.295-.146.653-.15 1.265M6 8.5h2m10 0h-6M6 6h6m6 0h-2"/>
  </g>
</svg>
