<svg xmlns="http://www.w3.org/2000/svg" width="24" height="24" fill="none">
  <path fill="#1C274C" fill-rule="evenodd" d="M7.945 4.25h8.11c1.367 0 2.47 0 3.337.117.9.12 1.658.38 2.26.981.602.602.86 1.36.982 2.26.116.867.116 1.97.116 3.337v.111c0 1.838 0 3.294-.153 4.433-.158 1.172-.49 2.121-1.238 2.87-.749.748-1.698 1.08-2.87 1.238-1.14.153-2.595.153-4.433.153H9.944c-1.838 0-3.294 0-4.433-.153-1.172-.158-2.121-.49-2.87-1.238-.748-.749-1.08-1.698-1.238-2.87-.153-1.14-.153-2.595-.153-4.433v-.11c0-1.368 0-2.47.117-3.338.12-.9.38-1.658.981-2.26.602-.602 1.36-.86 2.26-.981.867-.117 1.97-.117 3.337-.117ZM4.808 5.853c-.734.099-1.122.28-1.399.556-.277.277-.457.665-.556 1.4-.101.754-.103 1.756-.103 3.191 0 1.907.002 3.261.14 4.29.135 1.005.389 1.585.812 2.008.354.354.817.59 1.548.736.002-.483.01-.9.046-1.253.048-.473.153-.913.417-1.309.201-.3.459-.558.76-.758.395-.265.835-.37 1.308-.418.452-.046 1.011-.046 1.68-.046h5.077c.67 0 1.229 0 1.681.046.473.048.913.153 1.309.418.3.2.558.458.759.758.264.396.369.836.417 1.309.036.353.044.77.046 1.253.73-.146 1.194-.382 1.548-.736.423-.423.677-1.003.812-2.009.138-1.027.14-2.382.14-4.289 0-1.435-.002-2.437-.103-3.192-.099-.734-.28-1.122-.556-1.399-.277-.277-.665-.457-1.4-.556-.755-.101-1.756-.103-3.191-.103H8c-1.435 0-2.437.002-3.192.103Zm12.442 12.35c-.001-.558-.006-.956-.038-1.27-.036-.355-.1-.519-.173-.628a1.25 1.25 0 0 0-.345-.344c-.108-.073-.272-.137-.627-.173-.367-.037-.85-.038-1.567-.038h-5c-.718 0-1.2 0-1.567.038-.355.036-.519.1-.627.173a1.251 1.251 0 0 0-.345.344c-.073.109-.137.273-.173.628-.032.314-.037.712-.038 1.27.867.046 1.925.047 3.25.047h4c1.325 0 2.383 0 3.25-.047ZM5.25 9A.75.75 0 0 1 6 8.25h12a.75.75 0 0 1 0 1.5H6A.75.75 0 0 1 5.25 9Zm0 2.5a.75.75 0 0 1 .75-.75h12a.75.75 0 0 1 0 1.5H6a.75.75 0 0 1-.75-.75Z" clip-rule="evenodd"/>
</svg>
