<svg xmlns="http://www.w3.org/2000/svg" width="24" height="24" fill="none">
  <path stroke="#1C274C" stroke-linecap="round" stroke-width="1.5" d="m13.306 18.297-5.069 1.69c-2.765.922-4.148 1.383-4.878.653-.73-.73-.269-2.113.653-4.878l1.69-5.069c.766-2.298 1.149-3.447 2.055-3.66.906-.215 1.763.642 3.475 2.355l3.38 3.379c1.712 1.713 2.569 2.569 2.355 3.475"/>
  <path stroke="#1C274C" stroke-linecap="round" stroke-width="1.5" d="M12.235 18.346s-.758-2.281-.758-3.79c0-1.51.758-3.792.758-3.792m-4.17 8.72s-.64-2.753-.758-4.55c-.195-2.969.758-7.581.758-7.581m6.445 2.653.143-.72c.146-.727.67-1.32 1.373-1.554a2.066 2.066 0 0 0 1.372-1.555l.144-.72m.028 6.796.212.123a1.76 1.76 0 0 0 2.05-.207 1.763 1.763 0 0 1 1.877-.297L22 12M10.535 3a1.4 1.4 0 0 0 .205 1.721l.098.098c.393.393.538.97.377 1.503"/>
  <path fill="#1C274C" d="M13.561 4.396c.201-.2.302-.301.418-.338a.5.5 0 0 1 .302 0c.116.037.217.137.418.338.2.202.301.302.338.418a.5.5 0 0 1 0 .302c-.037.117-.137.217-.338.418-.201.201-.302.302-.418.339a.5.5 0 0 1-.302 0c-.116-.037-.217-.138-.418-.339-.201-.2-.302-.301-.338-.418a.5.5 0 0 1 0-.302c.036-.116.137-.216.338-.418Zm5.907 3.072c.246-.245.368-.368.507-.421a.7.7 0 0 1 .503 0c.138.053.261.176.507.421.245.246.368.368.421.507a.7.7 0 0 1 0 .503c-.053.138-.176.261-.421.507-.246.245-.369.368-.507.421a.7.7 0 0 1-.503 0c-.139-.053-.261-.176-.507-.421-.245-.246-.368-.369-.421-.507a.7.7 0 0 1 0-.503c.053-.139.176-.261.421-.507ZM6.927 3.94a.536.536 0 1 1 .759.76.536.536 0 0 1-.759-.76Zm12.131 11.373a.536.536 0 1 1 .759.759.536.536 0 0 1-.759-.759ZM17.5 9.741a.536.536 0 1 1 .759.76.536.536 0 0 1-.759-.76Z"/>
</svg>
