<svg xmlns="http://www.w3.org/2000/svg" width="24" height="24" fill="none">
  <g fill="#1C274C">
    <path d="M10.927 2.36a.75.75 0 0 1 .248 1.031.65.65 0 0 0 .095.8l.098.098c.589.588.806 1.453.565 2.25a.75.75 0 1 1-1.436-.434.758.758 0 0 0-.19-.756l-.097-.098a2.15 2.15 0 0 1-.315-2.642.75.75 0 0 1 1.032-.249Zm6.763 2.362a.75.75 0 0 1 .588.882l-.144.72a2.82 2.82 0 0 1-1.871 2.12 1.31 1.31 0 0 0-.874.99l-.144.72a.75.75 0 0 1-1.471-.295l.144-.72c.198-.99.912-1.8 1.87-2.119.448-.15.782-.527.875-.99l.144-.72a.75.75 0 0 1 .882-.588Z"/>
    <path fill-rule="evenodd" d="M11.719 8.813c-.82-.819-1.494-1.493-2.08-1.928-.606-.45-1.279-.766-2.054-.583-.776.183-1.236.768-1.577 1.44-.33.651-.632 1.556-.998 2.655l-1.73 5.19c-.443 1.33-.803 2.409-.952 3.246-.15.844-.135 1.701.501 2.337.636.636 1.493.651 2.337.501.837-.149 1.916-.508 3.246-.952l5.19-1.73c1.099-.366 2.004-.668 2.655-.998.673-.34 1.257-.801 1.44-1.576.183-.776-.134-1.449-.583-2.055-.434-.586-1.11-1.26-1.928-2.08L11.72 8.814Zm-3.025-.76.052.037c.486.36 1.082.954 1.956 1.828l.76.76-.05.133c-.077.211-.178.512-.279.88a11 11 0 0 0-.406 2.864c0 1.063.206 2.08.405 2.82.083.308.166.573.235.778l-2.635.879a44.1 44.1 0 0 1-.265-1.29c-.174-.907-.356-2.007-.411-2.857-.092-1.403.087-3.235.3-4.75a49.66 49.66 0 0 1 .338-2.082Zm-1.74 1.3c-.158.431-.332.95-.54 1.578l-1.69 5.068c-.47 1.407-.792 2.381-.92 3.097-.127.72-.008.92.086 1.014.093.093.293.213 1.014.085.59-.106 1.357-.344 2.398-.687l-.072-.324c-.062-.29-.147-.697-.236-1.16-.176-.918-.373-2.093-.435-3.04-.103-1.566.096-3.525.312-5.058.027-.197.055-.389.083-.572Zm5.836 8.326.279-.093c1.172-.39 1.97-.659 2.51-.932.53-.269.627-.453.658-.584.03-.131.026-.34-.328-.816-.36-.486-.954-1.083-1.828-1.957l-1.436-1.437a9.506 9.506 0 0 0-.417 2.695c0 .62.084 1.236.197 1.78a11.522 11.522 0 0 0 .365 1.344Z" clip-rule="evenodd"/>
    <path d="M20.33 12.73a1.013 1.013 0 0 1 1.078-.17l.292.127a.75.75 0 1 0 .6-1.374l-.29-.128a2.513 2.513 0 0 0-2.675.423c-.326.289-.8.337-1.178.119l-.213-.123a.75.75 0 1 0-.75 1.3l.213.122c.937.54 2.114.422 2.924-.296Zm-6.351-8.672c-.116.037-.217.137-.418.338-.201.201-.302.302-.338.418a.5.5 0 0 0 0 .302c.036.117.137.217.338.418.201.201.302.302.418.339a.5.5 0 0 0 .302 0c.116-.037.217-.138.418-.339.201-.2.302-.301.338-.418a.501.501 0 0 0 0-.302c-.037-.116-.137-.217-.338-.418-.201-.2-.302-.301-.418-.338a.5.5 0 0 0-.302 0Zm5.489 3.41c.246-.245.368-.368.507-.421a.7.7 0 0 1 .503 0c.139.053.261.176.507.421.245.246.368.368.421.507a.7.7 0 0 1 0 .503c-.053.139-.176.261-.421.507-.246.245-.368.368-.507.421a.7.7 0 0 1-.503 0c-.139-.053-.261-.176-.507-.421-.245-.246-.368-.368-.421-.507a.7.7 0 0 1 0-.503c.053-.139.176-.261.421-.507ZM7.686 3.94a.536.536 0 1 0-.759.76.536.536 0 0 0 .759-.76Zm11.372 11.373a.536.536 0 1 1 .759.759.536.536 0 0 1-.759-.758Zm-.799-5.571a.536.536 0 1 0-.759.758.536.536 0 0 0 .759-.758Z"/>
  </g>
</svg>
