<svg xmlns="http://www.w3.org/2000/svg" width="24" height="24" fill="none">
  <g fill="#1C274C">
    <path d="M7.55 9.6a.75.75 0 0 1 .9-1.2l2 1.5a.75.75 0 0 1 0 1.2l-2 1.5a.75.75 0 1 1-.9-1.2l1.2-.9-1.2-.9Zm9.05-1.05a.75.75 0 0 1-.15 1.05l-1.2.9 1.2.9a.75.75 0 1 1-.9 1.2l-2-1.5a.75.75 0 0 1 0-1.2l2-1.5a.75.75 0 0 1 1.05.15Zm-1.07 7.98a.75.75 0 0 1-1.06 0l-.47-.47c-.561.53-1.44.53-2 0-.56.53-1.439.53-2 0l-.47.47a.75.75 0 1 1-1.06-1.06l.5-.5a1.457 1.457 0 0 1 2.03-.03c.56-.53 1.44-.53 2 0a1.457 1.457 0 0 1 2.03.03l.5.5a.75.75 0 0 1 0 1.06Z"/>
    <path d="M12 22c5.523 0 10-4.477 10-10S17.523 2 12 2 2 6.477 2 12s4.477 10 10 10Z" opacity=".5"/>
  </g>
</svg>
