<svg xmlns="http://www.w3.org/2000/svg" width="24" height="24" fill="none">
  <g fill="#1C274C">
    <path fill-rule="evenodd" d="M15.602 2.422c-.22-.22-.496-.21-.648-.19-.143.02-.315.068-.479.115l-.125.035-.103-.064a3.389 3.389 0 0 0-.42-.24c-.15-.064-.401-.138-.666.001-.26.137-.346.381-.38.537a3.598 3.598 0 0 0-.06.487l-.01.127v.01l-.112.093c-.134.11-.272.223-.37.33-.104.114-.264.327-.223.625.042.307.264.466.403.544.126.07.292.13.447.188l.108.04.04.109c.058.154.119.32.189.446.077.14.236.362.544.404.297.04.51-.12.624-.224.107-.098.221-.236.33-.37l.092-.111h.011l.128-.01c.168-.014.345-.028.486-.06.156-.035.4-.12.537-.38.14-.265.066-.518 0-.667a3.393 3.393 0 0 0-.239-.42l-.064-.102.036-.126c.046-.164.095-.336.114-.479.02-.152.03-.428-.19-.648Z" clip-rule="evenodd"/>
    <path d="M10.187 2.16a.75.75 0 0 1 .248 1.032.65.65 0 0 0 .095.8l.098.097c.589.589.806 1.454.565 2.25a.75.75 0 1 1-1.436-.433.758.758 0 0 0-.19-.756l-.097-.098a2.15 2.15 0 0 1-.314-2.642.75.75 0 0 1 1.03-.25ZM21.41 13.581a1.013 1.013 0 0 0-1.079.17 2.513 2.513 0 0 1-2.923.296l-.213-.122a.75.75 0 1 1 .75-1.3l.213.123c.377.218.852.17 1.178-.119a2.513 2.513 0 0 1 2.674-.422l.291.127a.75.75 0 1 1-.6 1.375l-.292-.128Zm-8.494-6.402a.536.536 0 1 0-.758.759.536.536 0 0 0 .758-.76Z"/>
    <path fill-rule="evenodd" d="M22.524 8.864c.256.554.083 1.183-.384 1.65-.27.27-.634.394-.957.451-.33.059-.68.06-.986.04a7.197 7.197 0 0 1-1.116-.163l-.02-.005-.005-.001h-.003a.5.5 0 0 1-.365-.366l.485-.12-.485.119-.001-.002-.001-.006-.005-.02a6.863 6.863 0 0 1-.065-.317 7.199 7.199 0 0 1-.099-.798 4.21 4.21 0 0 1 .04-.986c.058-.324.18-.687.452-.957.467-.468 1.096-.64 1.65-.384.42.194.693.586.796 1.069.482.103.875.376 1.07.796Z" clip-rule="evenodd"/>
    <path d="M17.69 4.744a.75.75 0 0 1 .588.882l-.144.72c-.198.99-.912 1.8-1.87 2.119-.448.15-.782.527-.874.99l-.144.72a.75.75 0 0 1-1.471-.294l.144-.72c.198-.99.912-1.8 1.87-2.119.448-.15.782-.527.874-.99l.145-.72a.75.75 0 0 1 .882-.588ZM6.929 3.963a.536.536 0 1 1 .758.758.536.536 0 0 1-.758-.758Z" opacity=".5"/>
    <path d="M19.817 15.335a.536.536 0 1 0-.759.76.536.536 0 0 0 .759-.76Z" opacity=".7"/>
    <path d="M17.158 10.18a.536.536 0 1 1 .759.757.536.536 0 0 1-.759-.758Z" opacity=".2"/>
    <path d="m4.012 15.762 1.69-5.069c.766-2.298 1.149-3.447 2.055-3.66.906-.215 1.763.642 3.475 2.355l3.38 3.379c1.712 1.713 2.569 2.569 2.355 3.475-.214.906-1.363 1.29-3.661 2.055l-5.069 1.69c-2.765.922-4.148 1.383-4.878.653-.73-.73-.269-2.113.653-4.878Z" opacity=".5"/>
    <path d="m8.8 7.504.05-.245c-.392-.23-.739-.31-1.093-.227a1.182 1.182 0 0 0-.397.175l.696.144c-.478-.1-.641-.133-.696-.144a1.29 1.29 0 0 0-.035.024l-.005.026a26.408 26.408 0 0 0-.138.73 51.15 51.15 0 0 0-.311 1.939c-.215 1.533-.415 3.492-.312 5.057.062.948.26 2.123.435 3.04a50.537 50.537 0 0 0 .312 1.503l.021.093.006.025.002.009.73-.17-.73.17.137.588.765-.254.664-.221-.106-.46-.006-.021-.02-.088-.072-.33a48.475 48.475 0 0 1-.23-1.125c-.173-.907-.355-2.007-.411-2.857-.092-1.404.088-3.236.3-4.75a49.647 49.647 0 0 1 .434-2.582l.008-.037.002-.01v-.002Zm4.24 10.882-1.424.475-.092-.278.712-.237-.712.237-.001-.003-.002-.006-.007-.022a9.929 9.929 0 0 1-.115-.37c-.074-.247-.172-.59-.27-.983-.192-.77-.402-1.792-.402-2.644 0-.852.21-1.874.402-2.643a22.305 22.305 0 0 1 .385-1.354l.007-.021.002-.007v-.001l.713.235-.712-.236.212-.637 1.186 1.187-.004.014-.082.267c-.069.23-.16.55-.252.916-.187.75-.357 1.622-.357 2.28 0 .658.17 1.531.357 2.28a20.952 20.952 0 0 0 .356 1.253l.006.017.001.004.092.277Z"/>
  </g>
</svg>
