<svg xmlns="http://www.w3.org/2000/svg" width="24" height="24" fill="none">
  <path fill="#1C274C" d="m13.039 18.386.267-.088c2.298-.767 3.447-1.15 3.66-2.056.215-.906-.642-1.763-2.355-3.475l-1.689-1.69-.005.015-.082.267c-.068.23-.16.55-.251.916-.187.75-.357 1.622-.357 2.28 0 .658.17 1.531.357 2.28a20.952 20.952 0 0 0 .356 1.253l.005.017.002.004.092.277Zm-5.567 1.855c-2.262.746-3.454 1.058-4.113.399-.73-.73-.269-2.113.653-4.878l1.69-5.069c.632-1.896 1.003-3.01 1.622-3.461l-.005.025a26.244 26.244 0 0 0-.138.73 51.15 51.15 0 0 0-.31 1.939c-.216 1.533-.415 3.492-.312 5.057.062.948.259 2.123.435 3.04a50.537 50.537 0 0 0 .312 1.503l.02.093.146.622ZM8.85 7.259l-.05.245v.003l-.003.009-.007.037a24.51 24.51 0 0 0-.133.7 49.64 49.64 0 0 0-.301 1.881c-.213 1.515-.393 3.347-.3 4.751.055.85.237 1.95.41 2.857a48.913 48.913 0 0 0 .303 1.455l.02.088.005.022.107.459 2.715-.905-.103-.309a9.929 9.929 0 0 1-.115-.37c-.073-.247-.171-.59-.27-.983-.192-.77-.401-1.792-.401-2.644 0-.852.21-1.874.401-2.643a22.305 22.305 0 0 1 .385-1.354l.01-.027.212-.64-.503-.503C10.19 8.344 9.463 7.618 8.85 7.259Zm2.076-4.899a.75.75 0 0 1 .25 1.031.65.65 0 0 0 .094.8l.098.098c.589.588.806 1.453.565 2.25a.75.75 0 1 1-1.436-.434.758.758 0 0 0-.19-.756l-.098-.098a2.15 2.15 0 0 1-.314-2.642.75.75 0 0 1 1.031-.249Zm2.635 2.037c.201-.201.302-.302.418-.339a.5.5 0 0 1 .302 0c.116.037.217.138.418.339.2.2.301.301.338.417a.5.5 0 0 1 0 .303c-.037.116-.137.216-.338.417-.201.201-.302.302-.418.339a.5.5 0 0 1-.302 0c-.116-.037-.217-.138-.418-.339-.201-.2-.302-.301-.338-.417a.5.5 0 0 1 0-.303c.036-.116.137-.216.338-.417ZM6.927 3.94a.536.536 0 1 1 .759.76.536.536 0 0 1-.759-.76Zm13.048 3.107c-.139.053-.261.176-.507.421-.245.246-.368.368-.421.507a.7.7 0 0 0 0 .503c.053.138.176.261.421.507.246.245.368.368.507.421a.7.7 0 0 0 .503 0c.138-.053.261-.176.507-.421.245-.246.368-.369.421-.507a.7.7 0 0 0 0-.503c-.053-.139-.176-.261-.421-.507-.246-.245-.369-.368-.507-.421a.7.7 0 0 0-.503 0Zm-.917 8.266a.536.536 0 1 1 .759.759.536.536 0 0 1-.759-.759ZM17.69 4.722a.75.75 0 0 1 .588.882l-.144.72a2.82 2.82 0 0 1-1.871 2.12 1.312 1.312 0 0 0-.874.99l-.144.72a.75.75 0 0 1-1.471-.295l.144-.72c.198-.99.912-1.8 1.87-2.119.448-.15.782-.527.875-.99l.144-.72a.75.75 0 0 1 .882-.588Zm3.718 7.838a1.013 1.013 0 0 0-1.078.17 2.513 2.513 0 0 1-2.923.296l-.213-.123a.75.75 0 0 1 .75-1.299l.213.123c.377.218.852.17 1.178-.12a2.513 2.513 0 0 1 2.674-.422l.292.128a.75.75 0 0 1-.601 1.374l-.292-.127ZM17.5 9.742a.536.536 0 1 1 .759.758.536.536 0 0 1-.759-.758Z"/>
</svg>
