<svg xmlns="http://www.w3.org/2000/svg" width="24" height="24" fill="none">
  <g fill="#1C274C">
    <path fill-rule="evenodd" d="M15.601 2.4c-.22-.22-.496-.21-.647-.19-.144.02-.316.068-.48.115l-.125.035-.103-.064a3.38 3.38 0 0 0-.42-.24c-.149-.064-.4-.138-.666.001-.26.137-.345.381-.38.537a3.598 3.598 0 0 0-.06.487l-.01.127v.01l-.112.093c-.133.11-.272.223-.37.33-.104.114-.264.327-.223.625.042.307.265.466.404.544.126.07.291.13.446.188l.109.04.04.109c.057.154.118.32.188.446.077.14.237.362.544.404.297.04.51-.12.624-.224.108-.098.221-.236.331-.37l.092-.111h.01l.128-.01c.168-.014.345-.028.487-.06.155-.035.4-.12.537-.38.139-.265.065-.518 0-.667a3.393 3.393 0 0 0-.24-.42l-.064-.102.036-.126a3.46 3.46 0 0 0 .114-.479c.02-.152.03-.428-.19-.648Zm-.899.9-.078.022-.02.006a.955.955 0 0 1-.397.047.922.922 0 0 1-.37-.155l-.018-.011-.1-.064-.011.141-.002.022a.96.96 0 0 1-.092.384.98.98 0 0 1-.263.294L13.334 4l-.09.075.076.029.02.006c.071.026.23.082.35.202.12.12.176.278.201.35l.007.02.029.077.075-.091.013-.017c.051-.063.151-.188.295-.263a.96.96 0 0 1 .384-.092l.022-.002.14-.01-.063-.102-.011-.017a.928.928 0 0 1-.155-.37.956.956 0 0 1 .047-.397l.006-.02.022-.078Z" clip-rule="evenodd"/>
    <path d="M10.435 3.17a.75.75 0 1 0-1.28-.782A2.15 2.15 0 0 0 9.47 5.03l.097.098a.758.758 0 0 1 .19.756.75.75 0 0 0 1.436.434 2.258 2.258 0 0 0-.565-2.25l-.098-.098a.65.65 0 0 1-.095-.8Zm-2.749.77a.536.536 0 1 0-.758.76.536.536 0 0 0 .758-.76Zm10.592 1.664a.75.75 0 0 0-1.471-.294l-.144.72c-.093.463-.427.84-.874.99a2.816 2.816 0 0 0-1.871 2.119l-.144.72a.75.75 0 0 0 1.47.294l.145-.72c.092-.463.426-.84.874-.99a2.816 2.816 0 0 0 1.87-2.12l.145-.72Z"/>
    <path fill-rule="evenodd" d="M22.524 8.842c.255.554.083 1.183-.384 1.65-.271.27-.634.393-.957.451-.331.059-.68.06-.987.04a7.178 7.178 0 0 1-1.045-.147l-.046-.01-.024-.006-.02-.005-.006-.001h-.002l.12-.486-.12.485a.5.5 0 0 1-.366-.365v-.003l-.002-.006-.005-.02a4.979 4.979 0 0 1-.064-.317 7.175 7.175 0 0 1-.1-.798 4.214 4.214 0 0 1 .041-.986c.058-.324.18-.687.451-.958.467-.467 1.096-.64 1.65-.383.42.194.694.586.796 1.069.483.103.875.376 1.07.796Zm-2.928 1.062c.178.031.413.065.664.081.263.017.525.013.747-.027.23-.04.361-.109.425-.173.243-.243.225-.435.184-.524-.045-.096-.204-.262-.614-.261a.5.5 0 0 1-.502-.502c.002-.41-.165-.57-.261-.614-.089-.04-.281-.06-.524.184-.064.064-.133.195-.173.425a3.23 3.23 0 0 0-.027.747c.016.25.05.486.081.664Z" clip-rule="evenodd"/>
    <path d="M20.33 13.73a1.013 1.013 0 0 1 1.079-.17l.291.127a.75.75 0 0 0 .601-1.375l-.291-.127a2.513 2.513 0 0 0-2.674.422c-.326.29-.801.338-1.179.12l-.212-.123a.75.75 0 0 0-.75 1.299l.212.122a2.512 2.512 0 0 0 2.924-.296Zm-1.272 1.583a.537.537 0 1 1 .759.76.537.537 0 0 1-.759-.76Zm-6.142-8.156a.536.536 0 1 0-.759.759.536.536 0 0 0 .759-.76Zm4.241 3a.536.536 0 1 1 .759.759.536.536 0 0 1-.759-.76Z"/>
    <path fill-rule="evenodd" d="M9.639 6.885c.586.434 1.26 1.11 2.08 1.928l3.467 3.467c.819.82 1.494 1.494 1.928 2.08.45.606.766 1.279.583 2.054-.183.776-.767 1.236-1.44 1.577-.651.33-1.556.632-2.654.998l-5.19 1.73c-1.33.443-2.41.803-3.247.952-.844.15-1.7.135-2.337-.501-.636-.636-.651-1.493-.501-2.338.149-.836.509-1.916.952-3.246l1.73-5.19c.366-1.098.668-2.003.998-2.654.34-.673.801-1.257 1.577-1.44.775-.183 1.448.134 2.054.583ZM8.746 8.09a4.261 4.261 0 0 0-.052-.038l-.036.2a49.656 49.656 0 0 0-.302 1.882c-.213 1.515-.392 3.347-.3 4.751.055.85.237 1.95.411 2.857a49.017 49.017 0 0 0 .265 1.29l2.635-.88c-.07-.205-.152-.47-.235-.777-.199-.74-.405-1.758-.405-2.82a11 11 0 0 1 .406-2.864 11.3 11.3 0 0 1 .329-1.014l-.76-.76c-.874-.873-1.47-1.467-1.956-1.827Zm-2.333 2.84a57.82 57.82 0 0 1 .541-1.577 49.29 49.29 0 0 0-.083.573c-.216 1.533-.415 3.492-.312 5.057.062.948.259 2.123.435 3.04a50.483 50.483 0 0 0 .308 1.484c-1.041.344-1.808.582-2.398.687-.721.128-.92.009-1.014-.085-.094-.094-.213-.293-.085-1.014.127-.715.45-1.69.919-3.096l1.69-5.069Zm6.656 6.656-.279.093a11.674 11.674 0 0 1-.365-1.345 8.88 8.88 0 0 1-.198-1.779 9.506 9.506 0 0 1 .418-2.695l1.436 1.437c.874.874 1.468 1.47 1.828 1.956.354.478.359.686.328.817-.031.13-.128.315-.658.583-.54.274-1.338.542-2.51.933Z" clip-rule="evenodd"/>
  </g>
</svg>
