<svg xmlns="http://www.w3.org/2000/svg" width="24" height="24" fill="none">
  <path fill="#1C274C" fill-rule="evenodd" d="M9.987 2.111a2.94 2.94 0 0 1 4.158 0l7.744 7.744A2.931 2.931 0 0 1 22.75 12a2.9 2.9 0 0 1-4.268 2.558 2.937 2.937 0 0 1-.751-.545l-3.342-3.342-.793.794a.345.345 0 0 0-.05.425l.646 1.05c.737 1.198-.693 2.549-1.847 1.744l-4.618-3.218 4.944 7.094c.81 1.162-.563 2.597-1.76 1.837l-6.116-3.884.65 1.371c.333.704.19 1.542-.362 2.094L2.53 22.53a.75.75 0 0 1-1.06-1.06l2.552-2.553a.344.344 0 0 0 .067-.39l-.95-2.005.662-.313-.661.313c-.557-1.175.77-2.348 1.868-1.65l5.856 3.718-5.016-7.197c-.828-1.188.618-2.634 1.807-1.806l4.75 3.31-.137-.22a1.845 1.845 0 0 1 .267-2.272l.794-.794-3.342-3.342a2.94 2.94 0 0 1 0-4.158ZM14.92 9.08h.001l2.137 2.137a2.906 2.906 0 0 1 2.052-2.021l-6.024-6.024a1.44 1.44 0 0 0-2.037 2.037l3.871 3.87Zm6.33 2.883a1.4 1.4 0 1 0-2.076 1.263 1.44 1.44 0 0 0 2.077-1.263ZM4.205 16.138Z" clip-rule="evenodd"/>
</svg>
