<svg xmlns="http://www.w3.org/2000/svg" width="24" height="24" fill="none">
  <path fill="#1C274C" d="m18.261 13.482-.53.53.53-.53ZM10.518 5.74l.53-.53-.53.53Zm3.097-3.098-.53.53.001.002.53-.532Zm7.743 7.744-.532.528.002.002.53-.53ZM1.47 21.47a.75.75 0 1 0 1.06 1.06l-1.06-1.06Zm3.082-2.022-.53-.53.53.53Zm.215-1.243-.678.321.678-.32Zm-.95-2.004-.677.321.678-.32Zm.79-.696-.403.633.402-.633Zm6.706 4.259.402-.633-.402.633Zm.743-.775-.615.428.615-.428Zm-5.593-8.024-.615.428.615-.428Zm.763-.763.429-.615-.43.615Zm5.548 3.867-.43.615.43-.615Zm.779-.736-.639.393.639-.393Zm-.646-1.05.639-.393-.64.393Zm2.013-2.142a.75.75 0 1 0-1.06-1.06l1.06 1.06Zm-6.96 7.493-.402.633.402-.633Zm.684-2.229a.75.75 0 0 0 1.231-.857l-1.23.857Zm3.338 2.166a.75.75 0 1 0-1.23.858l1.23-.858Zm-3.423-3.6.615-.428-.615.428Zm9.973-7.5a.75.75 0 0 0-1.064 1.057l1.064-1.056Zm-4.06-1.921a.75.75 0 1 0 1.057-1.064L14.47 4.55ZM9.986 6.27l7.744 7.743 1.06-1.061-7.743-7.743-1.06 1.06Zm7.744 7.743a2.94 2.94 0 0 0 4.158 0l-1.06-1.061a1.44 1.44 0 0 1-2.038 0l-1.06 1.06ZM9.987 2.11a2.94 2.94 0 0 0 0 4.158l1.061-1.06a1.44 1.44 0 0 1 0-2.037l-1.06-1.06Zm4.158 0a2.94 2.94 0 0 0-4.158 0l1.061 1.06a1.44 1.44 0 0 1 2.037 0l1.06-1.06Zm6.683 8.804a1.44 1.44 0 0 1 0 2.037l1.06 1.06a2.94 2.94 0 0 0 0-4.157l-1.06 1.06ZM2.53 22.53l2.553-2.552-1.061-1.06L1.47 21.47l1.06 1.06Zm2.915-4.646-.95-2.004-1.355.642.95 2.004 1.355-.642Zm1.352-7.066 5.548 3.866.857-1.23-5.547-3.867-.858 1.23Zm7.395 2.122-.646-1.05-1.278.786.646 1.05 1.278-.786Zm-.597-1.475 1.325-1.324-1.06-1.06-1.325 1.324 1.06 1.06Zm-.05.425a.345.345 0 0 1 .05-.425l-1.06-1.06a1.845 1.845 0 0 0-.267 2.271l1.278-.786Zm-1.2 2.794c1.154.805 2.584-.546 1.847-1.744l-1.278.786a.218.218 0 0 1-.022-.144.193.193 0 0 1 .056-.11.193.193 0 0 1 .112-.049.217.217 0 0 1 .142.03l-.857 1.231Zm-5.266-4.148a.22.22 0 0 1 .03.146.193.193 0 0 1-.053.113.193.193 0 0 1-.113.052.22.22 0 0 1-.146-.03l.858-1.23c-1.189-.828-2.635.618-1.807 1.806l1.23-.857Zm3.832 9.861c1.197.76 2.57-.675 1.76-1.837l-1.23.857a.218.218 0 0 1-.03-.143.193.193 0 0 1 .05-.112.193.193 0 0 1 .11-.055.218.218 0 0 1 .144.024l-.804 1.266ZM4.496 15.88a.214.214 0 0 1-.05.239.214.214 0 0 1-.243.02l.805-1.268c-1.098-.697-2.425.476-1.868 1.651l1.356-.642Zm.587 4.098c.551-.552.695-1.39.362-2.094l-1.356.642a.344.344 0 0 1-.067.391l1.06 1.061Zm-.879-3.84 3.354 2.13L8.362 17l-3.354-2.13-.804 1.267Zm3.354 2.13 3.353 2.129.804-1.266L8.362 17l-.804 1.266Zm5.113.292-.689-.989-1.23.858.689.988 1.23-.857Zm-2.796-4.012-.7-1.005-1.231.857.7 1.005 1.231-.857Zm-.7-1.005-2.096-3.007-1.23.857L7.943 14.4l1.23-.857ZM21.89 9.857l-3.359-3.385-1.064 1.056 3.358 3.385 1.065-1.056Zm-6.362-6.37L14.144 2.11l-1.058 1.063 1.385 1.377 1.058-1.064Z"/>
  <path stroke="#1C274C" stroke-width="1.5" d="M22 12a2.15 2.15 0 1 1-4.3 0 2.15 2.15 0 0 1 4.3 0Z"/>
</svg>
