<svg xmlns="http://www.w3.org/2000/svg" width="24" height="24" fill="none">
  <path fill="#1C274C" fill-rule="evenodd" d="M2 12c0-4.714 0-7.071 1.464-8.536C4.93 2 7.286 2 12 2c4.714 0 7.071 0 8.535 1.464C22 4.93 22 7.286 22 12c0 4.714 0 7.071-1.465 8.535C19.072 22 16.714 22 12 22s-7.071 0-8.536-1.465C2 19.072 2 16.714 2 12Zm11.75 0c0-1.747 1.533-3.25 3.536-3.25.511 0 .995.1 1.43.277a.75.75 0 0 0 .567-1.389 5.284 5.284 0 0 0-1.997-.388c-2.732 0-5.036 2.079-5.036 4.75s2.304 4.75 5.036 4.75a5.29 5.29 0 0 0 1.997-.388.75.75 0 1 0-.566-1.39c-.436.178-.92.278-1.431.278-2.003 0-3.536-1.503-3.536-3.25ZM9.286 8.75C7.283 8.75 5.75 10.253 5.75 12s1.533 3.25 3.536 3.25c.511 0 .995-.1 1.43-.277a.75.75 0 0 1 .567 1.389 5.29 5.29 0 0 1-1.997.388c-2.732 0-5.036-2.079-5.036-4.75s2.304-4.75 5.036-4.75a5.29 5.29 0 0 1 1.997.388.75.75 0 0 1-.566 1.39 3.784 3.784 0 0 0-1.431-.278Z" clip-rule="evenodd"/>
</svg>
