<svg xmlns="http://www.w3.org/2000/svg" width="24" height="24" fill="none">
  <path fill="#1C274C" fill-rule="evenodd" d="M5 1.25a.75.75 0 0 1 .75.75v9c0 1.907.002 3.261.14 4.29.135 1.005.389 1.585.812 2.008.423.423 1.003.677 2.009.812 1.028.138 2.382.14 4.289.14h9a.75.75 0 0 1 0 1.5h-2.25V22a.75.75 0 0 1-1.5 0v-2.25h-5.306c-1.838 0-3.294 0-4.433-.153-1.172-.158-2.121-.49-2.87-1.238-.748-.749-1.08-1.698-1.238-2.87-.153-1.14-.153-2.595-.153-4.433V5.75H2a.75.75 0 0 1 0-1.5h2.25V2A.75.75 0 0 1 5 1.25Zm10.29 4.64c-1.028-.138-2.383-.14-4.29-.14H8a.75.75 0 0 1 0-1.5h3.056c1.838 0 3.294 0 4.433.153 1.172.158 2.121.49 2.87 1.238.748.749 1.08 1.698 1.238 2.87.153 1.14.153 2.595.153 4.433V16a.75.75 0 0 1-1.5 0v-3c0-1.907-.002-3.261-.14-4.29-.135-1.005-.389-1.585-.812-2.008-.423-.423-1.003-.677-2.009-.812Zm-3.84 1.86h1.1c.664 0 1.237 0 1.696.062.492.066.963.215 1.345.597s.531.854.597 1.345c.062.459.062 1.032.062 1.697v1.098c0 .665 0 1.238-.062 1.697-.066.492-.215.963-.597 1.345s-.853.531-1.345.597c-.459.062-1.032.062-1.697.062h-1.098c-.665 0-1.238 0-1.697-.062-.491-.066-.963-.215-1.345-.597s-.531-.853-.597-1.345c-.062-.459-.062-1.032-.062-1.697v-1.098c0-.665 0-1.238.062-1.697.066-.491.215-.963.597-1.345s.854-.531 1.345-.597c.459-.062 1.032-.062 1.697-.062ZM9.955 9.298c-.325.044-.427.115-.484.172-.057.057-.128.159-.172.484-.046.347-.048.818-.048 1.546v1c0 .728.002 1.2.048 1.546.044.325.115.427.172.484.057.057.159.128.484.172.347.046.818.048 1.546.048h1c.728 0 1.2-.002 1.546-.048.325-.044.427-.115.484-.172.057-.057.128-.159.172-.484.046-.347.048-.818.048-1.546v-1c0-.728-.002-1.2-.048-1.546-.044-.325-.115-.427-.172-.484-.057-.057-.159-.128-.484-.172-.347-.046-.818-.048-1.546-.048h-1c-.728 0-1.2.002-1.546.048Z" clip-rule="evenodd"/>
</svg>
