<svg xmlns="http://www.w3.org/2000/svg" width="24" height="24" fill="none">
  <g fill="#1C274C">
    <path fill-rule="evenodd" d="M5 1.25a.75.75 0 0 1 .75.75v9c0 1.907.002 3.261.14 4.29.135 1.005.389 1.585.812 2.008.423.423 1.003.677 2.009.812 1.028.138 2.382.14 4.289.14h9a.75.75 0 0 1 0 1.5h-2.25V22a.75.75 0 0 1-1.5 0v-2.25h-5.306c-1.838 0-3.294 0-4.433-.153-1.172-.158-2.121-.49-2.87-1.238-.748-.749-1.08-1.698-1.238-2.87-.153-1.14-.153-2.595-.153-4.433V5.75H2a.75.75 0 0 1 0-1.5h2.25V2A.75.75 0 0 1 5 1.25Zm10.29 4.64c-1.028-.138-2.383-.14-4.29-.14H8a.75.75 0 0 1 0-1.5h3.056c1.838 0 3.294 0 4.433.153 1.172.158 2.121.49 2.87 1.238.748.749 1.08 1.698 1.238 2.87.153 1.14.153 2.595.153 4.433V16a.75.75 0 0 1-1.5 0v-3c0-1.907-.002-3.261-.14-4.29-.135-1.005-.389-1.585-.812-2.008-.423-.423-1.003-.677-2.009-.812Z" clip-rule="evenodd"/>
    <path d="M8.5 11.5c0-1.414 0-2.121.44-2.56.439-.44 1.146-.44 2.56-.44h1c1.414 0 2.121 0 2.56.44.44.439.44 1.146.44 2.56v1c0 1.414 0 2.121-.44 2.56-.439.44-1.146.44-2.56.44h-1c-1.414 0-2.121 0-2.56-.44-.44-.439-.44-1.146-.44-2.56v-1Z"/>
  </g>
</svg>
