<svg xmlns="http://www.w3.org/2000/svg" width="24" height="24" fill="none">
  <g stroke="#1C274C" stroke-width="1.5">
    <path d="m21.609 13.562.23-2.436c.18-1.912.27-2.869-.058-3.264a.992.992 0 0 0-.675-.367c-.476-.042-1.073.638-2.268 1.998-.618.704-.927 1.055-1.271 1.11a.923.923 0 0 1-.562-.09c-.319-.16-.53-.595-.955-1.464l-2.237-4.584C13.011 2.822 12.61 2 12 2c-.61 0-1.011.822-1.813 2.465L7.95 9.049c-.424.87-.636 1.304-.955 1.464a.925.925 0 0 1-.562.09c-.344-.055-.653-.406-1.271-1.11-1.195-1.36-1.792-2.04-2.268-1.998a.992.992 0 0 0-.675.367c-.327.395-.237 1.352-.057 3.264l.229 2.436c.378 4.012.566 6.019 1.75 7.228C5.322 22 7.094 22 10.64 22h2.719c3.545 0 5.317 0 6.5-1.21 1.183-1.21 1.371-3.216 1.749-7.228Z"/>
    <path d="M11.146 12.523c.38-.682.57-1.023.854-1.023.284 0 .474.34.854 1.023l.098.176c.108.194.162.29.246.354.085.064.19.088.4.135l.19.044c.738.167 1.107.25 1.195.532.088.283-.164.577-.667 1.165l-.13.152c-.143.167-.215.25-.247.354-.032.104-.021.215 0 .438l.02.203c.076.785.114 1.178-.115 1.352-.23.174-.576.015-1.267-.303l-.178-.082c-.197-.09-.295-.136-.399-.136-.104 0-.202.046-.399.136l-.178.082c-.691.319-1.037.477-1.267.303-.23-.174-.191-.567-.115-1.352l.02-.203c.021-.223.032-.334 0-.438-.032-.103-.104-.187-.247-.354l-.13-.152c-.503-.588-.755-.882-.667-1.165.088-.282.457-.365 1.195-.532l.19-.044c.21-.047.315-.07.4-.135.084-.064.138-.16.246-.354l.098-.176Z" opacity=".5"/>
  </g>
</svg>
