<svg xmlns="http://www.w3.org/2000/svg" width="24" height="24" fill="none">
  <path fill="#1C274C" d="m20.173 5.86.711-.237-.711.238Zm.036.108-.712.237.712-.237Zm-16.418 0 .712.237-.712-.237Zm.036-.107-.711-.238.711.238ZM7 18.58l-.742.108L7 18.58Zm10.002 0 .742.108L17 18.58ZM3.48 7.761l.68-.317-.68.317Zm.22.303.515-.544-.516.544Zm16.818-.303.68.317-.68-.317Zm-.22.303-.515-.544.516.544Zm-2.005-5.62.393-.64-.393.64Zm.356.256-.482.575.482-.575ZM7.92 21.513l-.49.568.49-.568ZM5.707 2.444l-.393-.639.393.64Zm-.356.257.482.575L5.35 2.7Zm3.835.049h5.63v-1.5h-5.63v1.5Zm10.277 3.348.035.107 1.423-.474-.036-.108-1.422.475Zm-14.96.107.037-.107-1.423-.475-.036.108 1.423.474Zm6.455 16.545h2.086v-1.5h-2.086v1.5ZM18.5 7.59h-13v1.5h13v-1.5Zm-13.742.858 1.5 10.24 1.483-.217L6.242 8.23l-1.484.217Zm12.985 10.24 1.5-10.24-1.485-.217-1.5 10.24 1.485.217Zm-4.7 4.062c.805 0 1.479.001 2.019-.067.561-.07 1.072-.226 1.508-.602l-.981-1.135c-.127.11-.31.198-.715.249-.424.054-.987.055-1.831.055v1.5Zm3.216-4.28c-.122.836-.205 1.392-.32 1.805-.109.392-.223.56-.35.67l.98 1.136c.437-.377.664-.86.815-1.405.146-.525.242-1.192.359-1.988l-1.484-.217ZM3.08 5.73c-.153.46-.29.868-.36 1.206-.072.347-.103.747.082 1.143l1.36-.634c.015.034-.02.016.026-.206.048-.23.15-.538.315-1.034L3.08 5.731ZM5.5 7.59c-.523 0-.847-.002-1.08-.03-.225-.026-.232-.065-.204-.04L3.184 8.61c.317.3.707.398 1.058.44.343.04.774.04 1.258.04v-1.5Zm-2.698.489c.093.2.223.38.382.53l1.032-1.088a.25.25 0 0 1-.055-.076l-1.36.634Zm16.695-1.874c.166.496.267.804.315 1.034.046.222.01.24.027.206l1.36.634c.184-.396.153-.796.082-1.143-.07-.338-.207-.746-.36-1.205l-1.424.474ZM18.5 9.09c.485 0 .915.002 1.258-.04.351-.04.74-.139 1.058-.44l-1.032-1.088c.028-.026.021.013-.203.04-.234.027-.558.028-1.08.028v1.5Zm1.339-1.644a.25.25 0 0 1-.055.076l1.032 1.089c.16-.152.29-.332.382-.531l-1.36-.634ZM14.815 2.75c.934 0 1.579 0 2.082.052.488.049.775.14 1.005.281l.785-1.278c-.493-.303-1.027-.434-1.639-.496-.596-.06-1.33-.059-2.233-.059v1.5Zm6.07 2.873c-.287-.857-.518-1.553-.764-2.1-.252-.56-.545-1.025-.99-1.397l-.963 1.15c.207.173.384.416.585.863.208.461.413 1.073.709 1.959l1.422-.475ZM17.9 3.083c.094.058.183.122.267.193l.964-1.15a3.751 3.751 0 0 0-.445-.32L17.9 3.083ZM10.957 21.25c-.844 0-1.406-.001-1.831-.055-.404-.05-.588-.14-.715-.25l-.98 1.136c.435.377.946.532 1.507.602.54.068 1.214.067 2.02.067v-1.5Zm-4.7-2.562c.117.796.213 1.463.359 1.988.151.545.378 1.028.814 1.405l.981-1.135c-.127-.11-.241-.279-.35-.671-.115-.413-.197-.97-.32-1.804l-1.484.217ZM9.185 1.25c-.903 0-1.637 0-2.233.06-.612.061-1.146.192-1.639.495L6.1 3.083c.23-.14.516-.232 1.004-.281.503-.051 1.148-.052 2.082-.052v-1.5ZM4.54 6.098c.295-.886.5-1.498.708-1.959.201-.447.378-.69.585-.863l-.964-1.15c-.443.372-.737.837-.989 1.398-.246.546-.477 1.242-.763 2.1l1.423.474Zm.774-4.293a3.75 3.75 0 0 0-.445.32l.964 1.15a2.25 2.25 0 0 1 .267-.192l-.786-1.278Z"/>
  <path stroke="#1C274C" stroke-linecap="round" stroke-width="1.5" d="M6.5 12h11M7 17h10" opacity=".4"/>
</svg>
