<svg xmlns="http://www.w3.org/2000/svg" width="24" height="24" fill="none">
  <path fill="#1C274C" fill-rule="evenodd" d="M9.147 1.25h5.707c.886 0 1.607 0 2.194.06.612.061 1.146.192 1.64.495.155.096.304.203.444.32.444.373.737.838.99 1.399.241.538.47 1.222.75 2.062l.012.037.05.148c.147.443.279.837.347 1.165.071.347.102.747-.083 1.143-.093.2-.223.38-.382.53-.317.301-.707.4-1.058.44-.18.022-.385.032-.61.037l-1.412 9.649c-.114.776-.209 1.427-.352 1.941-.15.545-.378 1.028-.814 1.405-.436.377-.947.532-1.508.602-.53.067-1.188.067-1.972.067h-2.18c-.784 0-1.442 0-1.972-.067-.561-.07-1.072-.226-1.508-.602-.436-.377-.663-.86-.814-1.405-.143-.514-.238-1.165-.352-1.941l-1.413-9.65a6.346 6.346 0 0 1-.609-.035c-.351-.042-.74-.14-1.058-.44a1.75 1.75 0 0 1-.382-.531c-.185-.396-.154-.796-.083-1.143.068-.328.2-.722.348-1.165l.013-.04.048-.145c.28-.84.509-1.524.751-2.062.252-.561.546-1.026.99-1.398a3.57 3.57 0 0 1 .444-.32c.493-.304 1.027-.435 1.639-.497.588-.059 1.309-.059 2.195-.059Zm-2.78 7.84.317 2.16h10.632l.316-2.16H6.368Zm10.73 3.66H6.903l.512 3.5h9.168l.512-3.5Zm-.733 5H7.636l.105.72c.123.836.205 1.392.32 1.805.109.392.223.56.35.67.127.11.31.2.715.25.425.054.987.055 1.831.055h2.086c.844 0 1.407-.001 1.831-.055.404-.05.588-.14.715-.25.127-.11.241-.278.35-.67.115-.413.198-.97.32-1.804l.105-.721ZM7.103 2.802c-.488.049-.775.14-1.004.281a2.251 2.251 0 0 0-.267.193c-.207.173-.384.416-.585.863-.208.461-.413 1.073-.708 1.959l-.036.107c-.166.496-.267.804-.315 1.034a.748.748 0 0 0-.023.213.25.25 0 0 0 .046.064.748.748 0 0 0 .209.044c.233.028.557.03 1.08.03h13c.523 0 .847-.002 1.08-.03a.749.749 0 0 0 .21-.044.25.25 0 0 0 .045-.064.749.749 0 0 0-.023-.213c-.048-.23-.15-.538-.315-1.034l-.035-.107c-.296-.886-.501-1.498-.709-1.959-.2-.447-.378-.69-.585-.863a2.248 2.248 0 0 0-.267-.193c-.23-.14-.516-.232-1.004-.281-.503-.051-1.148-.052-2.082-.052h-5.63c-.934 0-1.579 0-2.082.052Z" clip-rule="evenodd"/>
</svg>
