<svg xmlns="http://www.w3.org/2000/svg" width="24" height="24" fill="none">
  <g fill="#1C274C">
    <path d="M12 16c-5.76 0-6.78-5.74-6.96-10.294-.05-1.266-.076-1.9.4-2.485.476-.586 1.045-.682 2.184-.874A26.374 26.374 0 0 1 12 2c1.783 0 3.253.157 4.377.347 1.138.192 1.708.288 2.183.874.476.586.451 1.219.4 2.485C18.78 10.259 17.76 16 12 16Z" opacity=".5"/>
    <path d="m17.64 12.422 2.817-1.565c.752-.418 1.128-.627 1.336-.979C22 9.526 22 9.096 22 8.235v-.073c0-1.043 0-1.565-.283-1.958s-.778-.558-1.768-.888L19 5l-.017.085c-.005.189-.013.395-.022.621-.088 2.225-.377 4.733-1.32 6.716ZM5.04 5.706c.087 2.225.376 4.733 1.32 6.716l-2.817-1.565c-.752-.418-1.129-.627-1.336-.979C2 9.526 2 9.096 2 8.235v-.073c0-1.043 0-1.565.283-1.958s.778-.558 1.768-.888L5 5l.017.087c.005.188.013.394.022.62Z"/>
    <path fill-rule="evenodd" d="M5.25 22a.75.75 0 0 1 .75-.75h12a.75.75 0 0 1 0 1.5H6a.75.75 0 0 1-.75-.75Z" clip-rule="evenodd"/>
    <path d="M15.458 21.25H8.543l.297-1.75a1 1 0 0 1 .98-.804h4.36a1 1 0 0 1 .981.804l.297 1.75Z" opacity=".5"/>
    <path d="M12 16c-.26 0-.51-.011-.75-.034v2.73h1.5v-2.73A7.98 7.98 0 0 1 12 16Z"/>
    <path fill-rule="evenodd" d="M13 4.25a.75.75 0 0 1 .75.75c0 .69.56 1.25 1.25 1.25a.75.75 0 0 1 0 1.5c-.45 0-.875-.108-1.25-.3v3.05a2.25 2.25 0 1 1-1.5-2.122V5a.75.75 0 0 1 .75-.75Zm-1.5 5.5a.75.75 0 1 1 0 1.5.75.75 0 0 1 0-1.5Z" clip-rule="evenodd"/>
  </g>
</svg>
