<svg xmlns="http://www.w3.org/2000/svg" width="24" height="24" fill="none">
  <g fill="#1C274C" fill-rule="evenodd" clip-rule="evenodd">
    <path d="M13 4.25a.75.75 0 0 1 .75.75c0 .69.56 1.25 1.25 1.25a.75.75 0 0 1 0 1.5c-.45 0-.875-.108-1.25-.3v3.05a2.25 2.25 0 1 1-1.5-2.122V5a.75.75 0 0 1 .75-.75Zm-.75 6.25a.75.75 0 1 0-1.5 0 .75.75 0 0 0 1.5 0Z"/>
    <path d="M7.498 1.607A27.123 27.123 0 0 1 12 1.25c1.828 0 3.339.161 4.502.357l.135.023c1.01.169 1.85.31 2.506 1.118.421.519.557 1.08.588 1.705l.492.164c.463.154.87.29 1.191.44.348.162.667.37.911.709.244.338.341.707.385 1.088.04.353.04.78.04 1.27v.144c0 .402 0 .757-.03 1.054-.032.321-.103.634-.28.936-.179.303-.418.517-.683.701-.245.17-.555.343-.907.538l-2.64 1.467c-.54 1.061-1.28 2.007-2.3 2.69-.875.587-1.922.959-3.16 1.065v2.031h1.43a1.75 1.75 0 0 1 1.716 1.407l.219 1.093H18a.75.75 0 0 1 0 1.5H6a.75.75 0 0 1 0-1.5h1.885l.219-1.093A1.75 1.75 0 0 1 9.82 18.75h1.43v-2.031c-1.238-.106-2.285-.478-3.16-1.064-1.019-.684-1.76-1.63-2.3-2.691l-2.64-1.467a11.148 11.148 0 0 1-.907-.538 2.217 2.217 0 0 1-.682-.7 2.212 2.212 0 0 1-.281-.937c-.03-.297-.03-.652-.03-1.054v-.145c0-.488 0-.916.04-1.269.044-.381.14-.75.385-1.088.244-.339.563-.547.91-.71.323-.15.729-.285 1.192-.439l.492-.164c.031-.626.167-1.186.588-1.705.657-.809 1.496-.95 2.507-1.118l.134-.023ZM9.415 21.25h5.17l-.16-.799a.25.25 0 0 0-.245-.201H9.82a.25.25 0 0 0-.245.201l-.16.799ZM4.302 6.023c.072 1.52.243 3.2.671 4.77l-1.066-.591c-.389-.217-.633-.353-.809-.475-.162-.113-.215-.18-.244-.23-.03-.05-.062-.128-.082-.324a10.58 10.58 0 0 1-.022-.938v-.073c0-.539.001-.88.03-1.138.028-.238.072-.327.112-.381.039-.055.109-.125.326-.226.236-.11.56-.219 1.07-.39l.014-.004Zm14.725 4.77 1.066-.591c.389-.217.633-.353.809-.475.162-.113.215-.18.244-.23.03-.05.062-.128.082-.324.021-.214.022-.493.022-.938v-.073c0-.539-.001-.88-.03-1.138-.028-.238-.072-.327-.112-.381-.039-.055-.109-.125-.326-.226-.236-.11-.56-.219-1.07-.39l-.014-.004c-.071 1.52-.243 3.2-.67 4.77ZM12 2.75c-1.74 0-3.167.153-4.252.336-1.207.204-1.46.28-1.726.608-.262.322-.287.628-.234 1.983.09 2.258.388 4.696 1.31 6.55.456.914 1.052 1.662 1.828 2.182.77.517 1.765.841 3.074.841 1.31 0 2.304-.324 3.075-.841.776-.52 1.371-1.268 1.826-2.183.923-1.853 1.221-4.29 1.31-6.55.055-1.354.03-1.66-.232-1.982-.266-.328-.52-.404-1.727-.608A25.627 25.627 0 0 0 12 2.75Z"/>
  </g>
</svg>
