<svg xmlns="http://www.w3.org/2000/svg" width="24" height="24" fill="none">
  <path fill="#1C274C" fill-rule="evenodd" d="M12 1.25c-1.828 0-3.339.161-4.502.357l-.134.023c-1.01.169-1.85.31-2.507 1.118-.42.519-.557 1.08-.588 1.705l-.492.164c-.463.154-.87.29-1.191.44-.348.162-.667.37-.911.709-.244.338-.341.707-.385 1.088-.04.353-.04.78-.04 1.269v.145c0 .402 0 .757.03 1.054.032.321.103.634.28.936.179.303.417.517.683.701.245.17.555.343.907.538l2.64 1.467c.54 1.061 1.281 2.007 2.3 2.69.887.596 1.952.97 3.213 1.069a.748.748 0 0 0-.053.277v1.75H9.82a1.75 1.75 0 0 0-1.716 1.407l-.219 1.093H6a.75.75 0 0 0 0 1.5h12a.75.75 0 0 0 0-1.5h-1.885l-.219-1.093a1.75 1.75 0 0 0-1.716-1.407h-1.43V17a.748.748 0 0 0-.053-.277c1.261-.1 2.326-.473 3.213-1.068 1.02-.684 1.76-1.63 2.3-2.691l2.64-1.467c.352-.195.662-.368.907-.538.265-.184.504-.398.682-.7.178-.303.25-.616.281-.937.03-.297.03-.652.03-1.054v-.145c0-.488 0-.916-.04-1.269-.044-.381-.14-.75-.385-1.088-.244-.339-.563-.547-.91-.71-.323-.15-.729-.285-1.192-.439l-.492-.164c-.03-.626-.167-1.186-.588-1.705-.656-.809-1.496-.95-2.506-1.118l-.135-.023A27.122 27.122 0 0 0 12 1.25Zm2.585 20-.16-.799a.25.25 0 0 0-.245-.201H9.82a.25.25 0 0 0-.245.201l-.16.799h5.17ZM4.288 6.028l.014-.005c.072 1.52.243 3.2.671 4.77l-1.066-.591c-.389-.217-.633-.353-.809-.475-.162-.113-.215-.18-.244-.23-.03-.05-.062-.128-.082-.324a10.58 10.58 0 0 1-.022-.938v-.073c0-.539.001-.88.03-1.138.028-.238.072-.327.112-.381.039-.055.109-.125.326-.226.236-.11.56-.219 1.07-.39Zm15.41-.005c-.071 1.52-.243 3.2-.67 4.77l1.065-.591c.389-.217.633-.353.809-.475.162-.113.215-.18.244-.23.03-.05.062-.128.082-.324.021-.214.022-.493.022-.938v-.073c0-.539-.001-.88-.03-1.138-.028-.238-.072-.327-.112-.381-.039-.055-.109-.125-.326-.226-.236-.11-.56-.219-1.07-.39l-.014-.004ZM7.748 3.086A25.626 25.626 0 0 1 12 2.75c1.74 0 3.167.153 4.252.336 1.207.204 1.46.28 1.727.608.262.322.287.628.233 1.983-.09 2.258-.388 4.696-1.31 6.55-.456.914-1.052 1.662-1.827 2.182-.771.517-1.766.841-3.075.841-1.309 0-2.303-.324-3.074-.841-.776-.52-1.372-1.268-1.827-2.183-.923-1.853-1.22-4.29-1.31-6.55-.054-1.354-.03-1.66.233-1.982.266-.328.519-.404 1.726-.608Z" clip-rule="evenodd"/>
</svg>
