<svg xmlns="http://www.w3.org/2000/svg" width="24" height="24" fill="none">
  <g fill="#1C274C">
    <path fill-rule="evenodd" d="M3.284 11.266c-.133-2-.2-2.999.393-3.632C4.27 7 5.272 7 7.276 7h5.449c2.003 0 3.005 0 3.598.634.162.173.275.374.35.616H17c2.526 0 4.75 1.812 4.75 4.25 0 2.438-2.224 4.25-4.75 4.25h-.65l-.035.5H3.685c-.02-.267-.038-.55-.058-.85l-.343-5.134ZM16.45 15.25H17c1.892 0 3.25-1.322 3.25-2.75S18.892 9.75 17 9.75h-.2c-.012.43-.045.93-.084 1.516l-.266 3.984Z" clip-rule="evenodd"/>
    <path d="M3.819 18.75h12.362c-.144 1.177-.378 1.917-.938 2.44-.865.81-2.196.81-4.856.81h-.774c-2.66 0-3.99 0-4.856-.81-.56-.523-.794-1.263-.938-2.44Z"/>
    <path fill-rule="evenodd" d="M6.977 1.327a.75.75 0 0 1 .175 1.046l-.386.541c.626.474.765 1.364.306 2.007l-.41.576a.75.75 0 0 1-1.222-.871l.386-.542a1.457 1.457 0 0 1-.306-2.007l.411-.575a.75.75 0 0 1 1.046-.175Zm4 0a.75.75 0 0 1 .175 1.046l-.386.541c.626.474.765 1.364.306 2.007l-.41.576a.75.75 0 1 1-1.222-.871l.386-.542a1.457 1.457 0 0 1-.306-2.007l.411-.575a.75.75 0 0 1 1.046-.175Zm4 0a.75.75 0 0 1 .175 1.046l-.386.541c.626.474.765 1.364.306 2.007l-.41.576a.75.75 0 1 1-1.222-.871l.386-.542a1.457 1.457 0 0 1-.306-2.007l.411-.575a.75.75 0 0 1 1.046-.175Z" clip-rule="evenodd"/>
  </g>
</svg>
