<svg xmlns="http://www.w3.org/2000/svg" width="24" height="24" fill="none">
  <g fill="#1C274C">
    <path d="M12 6.25a.75.75 0 0 1 .75.75v6a.75.75 0 0 1-1.5 0V7a.75.75 0 0 1 .75-.75ZM13 16a1 1 0 1 1-2 0 1 1 0 0 1 2 0Z"/>
    <path fill-rule="evenodd" d="M12 1.25c-.705 0-1.348.194-2.051.52-.68.317-1.469.783-2.454 1.367l-.754.446c-.986.584-1.773 1.05-2.38 1.496-.628.462-1.11.934-1.458 1.553-.348.618-.505 1.279-.58 2.063-.073.76-.073 1.691-.073 2.861v.888c0 1.17 0 2.1.073 2.86.075.785.232 1.446.58 2.064.349.619.83 1.091 1.458 1.553.607.446 1.394.912 2.38 1.496l.754.446c.985.584 1.773 1.05 2.454 1.367.703.326 1.346.52 2.051.52.705 0 1.348-.194 2.051-.52.68-.317 1.469-.783 2.454-1.367l.754-.446c.986-.584 1.773-1.05 2.38-1.496.628-.462 1.11-.934 1.458-1.553.348-.618.505-1.279.58-2.063.073-.76.073-1.691.073-2.86v-.889c0-1.17 0-2.1-.073-2.86-.075-.785-.232-1.446-.58-2.064-.349-.619-.83-1.091-1.458-1.553-.607-.446-1.394-.912-2.38-1.496l-.754-.446c-.985-.584-1.773-1.05-2.454-1.367-.703-.326-1.346-.52-2.051-.52ZM8.225 4.447c1.027-.608 1.751-1.035 2.356-1.316.59-.274 1.01-.381 1.419-.381.41 0 .83.107 1.42.38.604.282 1.328.71 2.355 1.317l.686.407c1.027.608 1.75 1.037 2.29 1.434.526.387.83.71 1.038 1.08.21.371.33.806.395 1.47.065.68.066 1.54.066 2.756v.812c0 1.216 0 2.075-.066 2.755-.064.665-.185 1.1-.395 1.471-.208.37-.512.693-1.038 1.08-.54.397-1.263.826-2.29 1.434l-.686.407c-1.027.608-1.751 1.035-2.356 1.316-.59.274-1.01.381-1.419.381-.41 0-.83-.107-1.42-.38-.604-.282-1.328-.71-2.355-1.317l-.686-.407c-1.027-.608-1.75-1.037-2.29-1.434-.526-.387-.83-.71-1.038-1.08-.21-.371-.331-.806-.395-1.47-.065-.68-.066-1.54-.066-2.756v-.812c0-1.216 0-2.075.066-2.755.064-.665.185-1.1.394-1.471.209-.37.513-.693 1.04-1.08.54-.397 1.262-.826 2.29-1.434l.685-.407Z" clip-rule="evenodd"/>
  </g>
</svg>
