<svg xmlns="http://www.w3.org/2000/svg" width="24" height="24" fill="none">
  <path stroke="#1C274C" stroke-linecap="round" stroke-width="1.5" d="M12 7v6"/>
  <circle cx="12" cy="16" r="1" fill="#1C274C"/>
  <path stroke="#1C274C" stroke-linecap="round" stroke-width="1.5" d="M9.216 3c1.18-.667 1.954-1 2.784-1 1.114 0 2.128.6 4.157 1.802l.686.406c2.029 1.202 3.043 1.803 3.6 2.792.557.99.557 2.19.557 4.594v.812c0 2.403 0 3.605-.557 4.594-.557.99-1.571 1.59-3.6 2.791l-.686.407C14.128 21.399 13.114 22 12 22c-1.114 0-2.128-.6-4.157-1.802l-.686-.407c-2.029-1.2-3.043-1.802-3.6-2.791C3 16.01 3 14.81 3 12.406v-.812C3 9.19 3 7.989 3.557 7 3.996 6.22 4.719 5.682 6 4.9"/>
</svg>
