<svg xmlns="http://www.w3.org/2000/svg" width="24" height="24" fill="none">
  <path fill="#1C274C" fill-rule="evenodd" d="M3.25 6c0-1.542 1.23-2.736 2.758-3.5C7.58 1.716 9.7 1.25 12 1.25s4.42.465 5.992 1.25c1.528.764 2.758 1.958 2.758 3.5v12c0 1.542-1.23 2.735-2.758 3.5-1.572.785-3.692 1.25-5.992 1.25s-4.42-.465-5.992-1.25C4.48 20.734 3.25 19.541 3.25 18V6Zm1.5 0c0-.667.56-1.474 1.929-2.158C8.002 3.181 9.882 2.75 12 2.75s3.998.43 5.321 1.092C18.69 4.526 19.25 5.332 19.25 6c0 .667-.56 1.474-1.929 2.158C15.998 8.819 14.118 9.25 12 9.25s-3.998-.43-5.321-1.092C5.31 7.474 4.75 6.668 4.75 6Zm0 12c0 .667.56 1.474 1.929 2.158 1.323.661 3.203 1.092 5.321 1.092s3.998-.43 5.321-1.092c1.368-.684 1.929-1.49 1.929-2.158v-3.293c-.377.3-.804.565-1.258.792C16.42 16.285 14.3 16.75 12 16.75s-4.42-.465-5.992-1.25a7.146 7.146 0 0 1-1.258-.793V18Zm14.5-9.293V12c0 .667-.56 1.474-1.929 2.158-1.323.661-3.203 1.092-5.321 1.092s-3.998-.43-5.321-1.092C5.31 13.474 4.75 12.668 4.75 12V8.707c.377.3.804.565 1.258.792C7.58 10.285 9.7 10.75 12 10.75s4.42-.465 5.992-1.25a7.144 7.144 0 0 0 1.258-.793Z" clip-rule="evenodd"/>
</svg>
