<svg xmlns="http://www.w3.org/2000/svg" width="24" height="24" fill="none">
  <g fill="#1C274C">
    <path d="M14.052 2c1.68 0 3.01 0 4.052.142 1.072.147 1.94.456 2.624 1.152.684.696.988 1.58 1.132 2.67.14 1.06.14 2.414.14 4.123v3.826c0 1.71 0 3.064-.14 4.123-.144 1.09-.448 1.974-1.132 2.67-.684.696-1.552 1.005-2.624 1.152-1.041.142-2.372.142-4.052.142h-.104c-1.68 0-3.01 0-4.052-.142-1.072-.147-1.94-.456-2.624-1.152-.684-.696-.988-1.58-1.132-2.67C6 16.976 6 15.622 6 13.913v-3.826c0-1.71 0-3.064.14-4.123.144-1.09.448-1.974 1.132-2.67.684-.696 1.552-1.005 2.624-1.152C10.937 2 12.268 2 13.948 2h.104Z" opacity=".5"/>
    <path d="M12 18.25a.75.75 0 0 0 0 1.5h5a.75.75 0 0 0 0-1.5h-5ZM2 14.5c0-1.405 0-2.107.337-2.611a2 2 0 0 1 .552-.552C3.393 11 4.096 11 5.5 11c1.404 0 2.107 0 2.611.337a2 2 0 0 1 .552.552C9 12.393 9 13.096 9 14.5v4c0 1.404 0 2.107-.337 2.611a2 2 0 0 1-.552.552C7.607 22 6.904 22 5.5 22c-1.404 0-2.107 0-2.611-.337a2 2 0 0 1-.552-.552C2 20.607 2 19.904 2 18.5v-4Z"/>
  </g>
</svg>
