<svg xmlns="http://www.w3.org/2000/svg" width="24" height="24" fill="none">
  <path fill="#1C274C" fill-rule="evenodd" d="M13.944 1.25h.112c1.838 0 3.294 0 4.433.153 1.172.158 2.121.49 2.87 1.238.748.749 1.08 1.698 1.238 2.87.153 1.14.153 2.595.153 4.433v4.112c0 1.838 0 3.294-.153 4.433-.158 1.172-.49 2.121-1.238 2.87-.749.748-1.698 1.08-2.87 1.238-1.14.153-2.595.153-4.433.153H12a.75.75 0 0 1 0-1.5h2c1.907 0 3.262-.002 4.29-.14 1.005-.135 1.585-.389 2.008-.812.423-.423.677-1.003.812-2.009.139-1.027.14-2.382.14-4.289v-4c0-1.907-.002-3.261-.14-4.29-.135-1.005-.389-1.585-.812-2.008-.423-.423-1.003-.677-2.009-.812-1.027-.138-2.382-.14-4.289-.14-1.907 0-3.261.002-4.289.14-1.006.135-1.586.389-2.009.812-.696.696-.907 1.777-.943 4.309a.75.75 0 1 1-1.5-.022c.035-2.427.192-4.158 1.382-5.348.749-.748 1.698-1.08 2.87-1.238 1.14-.153 2.595-.153 4.433-.153Zm-8.482 9h.076c.67 0 1.229 0 1.681.046.473.048.913.153 1.309.418.3.2.558.458.759.758.264.396.369.835.417 1.309.046.452.046 1.011.046 1.68v4.077c0 .67 0 1.229-.046 1.681-.048.473-.153.913-.417 1.309a2.76 2.76 0 0 1-.76.759c-.395.264-.835.369-1.308.417-.452.046-1.011.046-1.68.046h-.077c-.67 0-1.229 0-1.681-.046-.473-.048-.913-.153-1.309-.418a2.75 2.75 0 0 1-.759-.758c-.264-.396-.369-.835-.417-1.309-.046-.452-.046-1.011-.046-1.68v-4.077c0-.67 0-1.229.046-1.681.048-.474.153-.913.417-1.309.201-.3.459-.558.76-.758.395-.265.835-.37 1.308-.418.452-.046 1.011-.046 1.68-.046Zm-1.53 1.538c-.354.036-.518.1-.626.173a1.251 1.251 0 0 0-.345.345c-.073.108-.137.272-.173.627-.037.367-.038.85-.038 1.567v4c0 .718 0 1.2.038 1.567.036.355.1.519.173.628.09.136.208.253.345.344.108.073.272.137.627.173.367.037.85.038 1.567.038.718 0 1.2 0 1.567-.038.355-.036.519-.1.627-.173.137-.09.254-.208.345-.345.073-.108.137-.272.173-.627.037-.367.038-.85.038-1.567v-4c0-.718 0-1.2-.038-1.567-.036-.355-.1-.519-.173-.627a1.251 1.251 0 0 0-.345-.345c-.108-.073-.272-.137-.627-.173-.367-.037-.85-.038-1.567-.038-.718 0-1.2 0-1.567.038ZM11.25 19a.75.75 0 0 1 .75-.75h5a.75.75 0 0 1 0 1.5h-5a.75.75 0 0 1-.75-.75Z" clip-rule="evenodd"/>
</svg>
