<svg xmlns="http://www.w3.org/2000/svg" width="24" height="24" fill="none">
  <g fill="#1C274C">
    <path d="M2.75 2a.75.75 0 0 0-1.5 0v10.057c0 2.309 0 4.118.19 5.53.194 1.444.6 2.584 1.494 3.479.895.895 2.035 1.3 3.48 1.494 1.411.19 3.22.19 5.529.19H22a.75.75 0 0 0 0-1.5H12c-2.378 0-4.086-.002-5.386-.176-1.279-.172-2.05-.5-2.62-1.069-.569-.57-.896-1.34-1.068-2.619-.174-1.3-.176-3.008-.176-5.386V2Z"/>
    <path d="M19.587 7.466a.75.75 0 1 0-1.174-.932l-3.118 3.926c-.245.309-.406.51-.539.656-.13.143-.19.183-.218.198a.75.75 0 0 1-.678.014c-.028-.013-.09-.05-.227-.187-.138-.14-.308-.335-.566-.633l-.017-.018c-.237-.274-.44-.508-.62-.688a2.337 2.337 0 0 0-.64-.483 2.25 2.25 0 0 0-2.035.044 2.337 2.337 0 0 0-.62.51c-.17.188-.363.43-.589.715l-3.133 3.946a.75.75 0 1 0 1.174.932l3.119-3.926c.245-.309.406-.51.538-.656.13-.143.19-.183.218-.198a.75.75 0 0 1 .678-.014c.029.013.091.05.227.187.139.14.308.335.567.633l.016.018c.238.274.44.508.62.688.185.187.389.362.64.483a2.25 2.25 0 0 0 2.035-.044 2.36 2.36 0 0 0 .62-.51c.17-.188.363-.43.59-.715l3.133-3.946Z"/>
  </g>
</svg>
