<svg xmlns="http://www.w3.org/2000/svg" width="24" height="24" fill="none">
  <g fill="#1C274C">
    <path fill-rule="evenodd" d="M13.336 1.25h2.327c1.195 0 2.146 0 2.908.072.781.075 1.442.23 2.03.591A4.5 4.5 0 0 1 22.087 3.4c.36.588.516 1.249.59 2.03.073.762.073 1.713.073 2.908v.815c0 .85 0 1.527-.038 2.076-.038.561-.118 1.043-.305 1.494a4.5 4.5 0 0 1-2.435 2.436c-.38.157-.783.239-1.241.284-.006.14-.012.272-.02.398-.041.596-.126 1.104-.323 1.578a4.75 4.75 0 0 1-2.57 2.57c-.597.248-1.255.32-2.083.347-.446.014-.73.024-.947.05-.204.025-.281.058-.323.083-.046.027-.11.077-.22.23-.12.165-.256.393-.47.756l-.26.438c-.677 1.144-2.353 1.144-3.03 0l-.26-.438c-.214-.363-.35-.591-.47-.756-.11-.153-.174-.203-.22-.23-.042-.025-.119-.058-.323-.083a11.93 11.93 0 0 0-.947-.05c-.828-.027-1.486-.1-2.083-.347a4.75 4.75 0 0 1-2.57-2.57c-.197-.474-.282-.982-.322-1.578-.04-.584-.04-1.304-.04-2.213v-.866c0-1.276 0-2.288.077-3.098.079-.83.244-1.526.623-2.145A4.75 4.75 0 0 1 3.518 5.95c.619-.38 1.315-.544 2.145-.623.21-.02.435-.035.675-.046.08-.72.24-1.334.575-1.882A4.5 4.5 0 0 1 8.4 1.913c.588-.36 1.249-.516 2.03-.59.762-.073 1.713-.073 2.907-.073ZM7.853 5.251l.908-.001h2.478c1.276 0 2.288 0 3.098.077.83.079 1.526.244 2.145.623a4.75 4.75 0 0 1 1.568 1.568c.38.619.544 1.315.623 2.145.077.81.077 1.822.077 3.098v1.169a2.5 2.5 0 0 0 .648-.158 3 3 0 0 0 1.624-1.624c.098-.238.16-.537.194-1.022.034-.492.034-1.117.034-2.001v-.75c0-1.242 0-2.12-.066-2.804-.064-.671-.184-1.075-.376-1.388a3 3 0 0 0-.99-.99c-.314-.193-.718-.313-1.39-.377-.682-.065-1.561-.066-2.803-.066h-2.25c-1.242 0-2.121 0-2.804.066-.671.064-1.075.184-1.389.376a3 3 0 0 0-.99.99c-.16.263-.27.585-.339 1.07Zm-2.048 1.57c-.72.068-1.16.198-1.503.408a3.25 3.25 0 0 0-1.073 1.073c-.21.343-.34.783-.409 1.503-.07.73-.07 1.671-.07 2.995v.8c0 .942 0 1.611.036 2.138.036.52.103.845.211 1.106a3.25 3.25 0 0 0 1.76 1.759c.333.138.764.207 1.556.232l.031.001c.406.013.758.025 1.05.06.31.038.615.11.904.28.285.17.491.393.67.64.167.23.338.519.533.847l.275.465a.25.25 0 0 0 .224.122.25.25 0 0 0 .224-.122l.275-.465c.194-.328.366-.618.532-.847a2.23 2.23 0 0 1 .67-.64c.29-.17.595-.242.905-.28a12.59 12.59 0 0 1 1.05-.06h.03c.793-.026 1.223-.095 1.558-.233a3.25 3.25 0 0 0 1.759-1.76c.108-.26.175-.586.21-1.105.037-.527.037-1.196.037-2.138v-.8c0-1.324 0-2.264-.07-2.995-.069-.72-.199-1.16-.409-1.503a3.25 3.25 0 0 0-1.073-1.073c-.343-.21-.783-.34-1.503-.409-.73-.07-1.671-.07-2.995-.07H8.8c-1.324 0-2.264 0-2.995.07Z" clip-rule="evenodd"/>
    <path d="M7.5 13a1 1 0 1 1-2 0 1 1 0 0 1 2 0Zm3.5 0a1 1 0 1 1-2 0 1 1 0 0 1 2 0Zm3.5 0a1 1 0 1 1-2 0 1 1 0 0 1 2 0Z"/>
  </g>
</svg>
