<svg xmlns="http://www.w3.org/2000/svg" width="24" height="24" fill="none">
  <path stroke="#1C274C" stroke-width="1.5" d="M10 22a8 8 0 1 0-7.22-4.55c.172.36.232.766.13 1.15l-.328 1.227a1.3 1.3 0 0 0 1.591 1.591L5.4 21.09a1.671 1.671 0 0 1 1.15.13c1.045.5 2.215.78 3.451.78Z"/>
  <path stroke="#1C274C" stroke-width="1.5" d="M18 14.502a6.45 6.45 0 0 0 .198-.087c.362-.165.768-.227 1.153-.124l.476.127a1.3 1.3 0 0 0 1.591-1.591l-.127-.476c-.103-.385-.04-.791.125-1.153A6.5 6.5 0 1 0 9.5 5.996"/>
  <path fill="#1C274C" d="M7.5 14a1 1 0 1 1-2 0 1 1 0 0 1 2 0Zm3.5 0a1 1 0 1 1-2 0 1 1 0 0 1 2 0Zm3.5 0a1 1 0 1 1-2 0 1 1 0 0 1 2 0Z"/>
</svg>
