<svg xmlns="http://www.w3.org/2000/svg" width="24" height="24" fill="none">
  <g stroke="#1C274D" stroke-width="1.5">
    <path stroke-linecap="round" d="M7 17.998c-2.175-.012-3.353-.108-4.121-.877C2 16.243 2 14.828 2 12V8c0-2.828 0-4.243.879-5.121C3.757 2 5.172 2 8 2h8c2.828 0 4.243 0 5.121.879.49.49.707 1.146.803 2.121M16.5 17.998l.82-.002c1.972-.021 3.072-.145 3.801-.875C22 16.243 22 14.828 22 12V9M9 6h6M7 9.5h2m8 0h-4.5"/>
    <path d="M10.89 13.945a1.71 1.71 0 0 1 2.22 0c.273.234.614.375.973.404a1.71 1.71 0 0 1 1.569 1.568c.028.36.17.7.403.974a1.71 1.71 0 0 1 0 2.218 1.71 1.71 0 0 0-.403.974 1.71 1.71 0 0 1-1.57 1.569 1.71 1.71 0 0 0-.973.403 1.71 1.71 0 0 1-2.218 0 1.71 1.71 0 0 0-.974-.404 1.71 1.71 0 0 1-1.568-1.568 1.71 1.71 0 0 0-.404-.974 1.71 1.71 0 0 1 0-2.218 1.71 1.71 0 0 0 .404-.974 1.71 1.71 0 0 1 1.568-1.568c.36-.029.7-.17.974-.404Z"/>
    <path stroke-linecap="round" stroke-linejoin="round" d="m10.5 18.2.857.8 2.143-2"/>
  </g>
</svg>
