<svg xmlns="http://www.w3.org/2000/svg" width="24" height="24" fill="none">
  <path fill="#1C274C" d="m20.975 11.815-.739.128.74-.128Zm-.705-4.08-.74.128.74-.128ZM6.938 3.523l-.747-.065.747.065Zm-.812 9.393.747.064-.747-.064Zm7.869 5.863.74-.122-.74.122Zm-.663-4.045.74-.121-.74.121Zm-6.634-.412-.49.569.49-.569Zm1.439 1.24.49-.568-.49.568Zm2.381 3.654-.726.189.726-.189Zm.476 1.834.726-.188-.726.188Zm1.674.886-.23-.714.23.714Zm.145-.047.229.714-.23-.714Zm-2.951-4.352.662-.353-.662.353Zm4.043 3.216-.726-.189.726.189Zm-2.23 1.115-.326.675.325-.675ZM3.971 2.529l-.748-.064.748.064ZM3 13.766l.747.064a.75.75 0 0 1-1.497-.064H3Zm17.236-1.823-.705-4.08 1.478-.256.705 4.08-1.478.256ZM13.245 2.75H8.596v-1.5h4.649v1.5Zm-5.56.838-.812 9.392-1.495-.129.813-9.393 1.494.13Zm11.846 4.275c-.507-2.93-3.15-5.113-6.286-5.113v-1.5c3.826 0 7.126 2.669 7.764 6.357l-1.478.256ZM13.255 18.9l-.663-4.045 1.48-.242.663 4.044-1.48.243Zm-6.067-5.146 1.438 1.24-.979 1.137-1.438-1.24.979-1.137Zm4.056 5.274.476 1.834-1.452.376-.476-1.833 1.452-.377Zm1.194 2.194.145-.047.459 1.428-.145.047-.459-1.428Zm-1.915-4.038c.312.584.555 1.203.721 1.844l-1.452.377A6.877 6.877 0 0 0 9.2 17.89l1.324-.707Zm2.06 3.991a.885.885 0 0 0 .596-.61l1.452.376a2.385 2.385 0 0 1-1.589 1.662l-.459-1.428Zm-.863-.313a.513.513 0 0 0 .28.33l-.651 1.351a2.014 2.014 0 0 1-1.081-1.305l1.452-.376Zm.28.33a.596.596 0 0 0 .438.03l.459 1.428a2.096 2.096 0 0 1-1.548-.107l.65-1.351Zm2.154-8.176h5.18v1.5h-5.18v-1.5ZM4.719 2.594 3.747 13.83l-1.494-.129.971-11.236 1.495.129Zm-.969-.107v11.279h-1.5V2.487h1.5Zm-.526-.022a.263.263 0 0 0 .263.285v-1.5c.726 0 1.294.622 1.232 1.344l-1.495-.13Zm11.511 16.192c.125.76.09 1.538-.104 2.284l-1.452-.377c.14-.543.167-1.11.076-1.664l1.48-.243ZM8.596 2.75a.916.916 0 0 0-.911.838l-1.494-.13A2.416 2.416 0 0 1 8.596 1.25v1.5Zm.03 12.244c.68.586 1.413 1.283 1.898 2.19l-1.324.707c-.346-.649-.897-1.196-1.553-1.76l.98-1.137Zm13.088-3.307a2.416 2.416 0 0 1-2.38 2.829v-1.5a.916.916 0 0 0 .902-1.073l1.478-.256ZM3.487 2.75a.263.263 0 0 0 .263-.263h-1.5c0-.682.553-1.237 1.237-1.237v1.5Zm9.105 12.105a1.583 1.583 0 0 1 1.562-1.84v1.5c-.05 0-.09.046-.082.098l-1.48.242Zm-5.72-1.875a.918.918 0 0 0 .316.774l-.98 1.137a2.418 2.418 0 0 1-.83-2.04l1.495.13Z"/>
</svg>
