<svg xmlns="http://www.w3.org/2000/svg" width="24" height="24" fill="none">
  <path fill="#1C274C" fill-rule="evenodd" d="M10.945 1.25h2.11c1.367 0 2.47 0 3.337.117.9.12 1.658.38 2.26.981.298.299.512.636.667 1.01.932.116 1.715.372 2.333.99.602.602.86 1.36.982 2.26.116.867.116 1.97.116 3.337v4.11c0 1.367 0 2.47-.116 3.337-.122.9-.38 1.658-.982 2.26-.618.618-1.4.874-2.333.991-.155.373-.369.71-.667 1.009-.602.602-1.36.86-2.26.982-.867.116-1.97.116-3.337.116h-2.11c-1.367 0-2.47 0-3.337-.116-.9-.122-1.658-.38-2.26-.982a3.056 3.056 0 0 1-.667-1.009c-.932-.117-1.715-.373-2.333-.991-.602-.602-.86-1.36-.981-2.26-.117-.867-.117-1.97-.117-3.337v-4.11c0-1.367 0-2.47.117-3.337.12-.9.38-1.658.981-2.26.618-.618 1.4-.874 2.333-.99a3.07 3.07 0 0 1 .667-1.01c.602-.602 1.36-.86 2.26-.981.867-.117 1.97-.117 3.337-.117ZM4.328 4.94c-.437.106-.71.26-.919.47-.277.276-.457.664-.556 1.398-.101.756-.103 1.757-.103 3.192v4c0 1.435.002 2.437.103 3.192.099.734.28 1.122.556 1.399.209.209.482.363.92.469-.079-.812-.079-1.806-.079-3.005v-8.11c0-1.198 0-2.193.078-3.005Zm15.344 14.12c.437-.106.71-.26.919-.469.277-.277.457-.665.556-1.4.101-.754.103-1.755.103-3.19v-4c0-1.436-.002-2.437-.103-3.193-.099-.734-.28-1.122-.556-1.399-.209-.209-.482-.363-.92-.469.079.812.079 1.807.079 3.005v8.11c0 1.198 0 2.193-.078 3.005ZM7.808 2.853c-.734.099-1.122.28-1.399.556-.277.277-.457.665-.556 1.4C5.752 5.562 5.75 6.564 5.75 8v8c0 1.435.002 2.436.103 3.192.099.734.28 1.122.556 1.399.277.277.665.457 1.4.556.754.101 1.756.103 3.191.103h2c1.435 0 2.437-.002 3.192-.103.734-.099 1.122-.28 1.399-.556.277-.277.457-.665.556-1.4.101-.755.103-1.756.103-3.191V8c0-1.435-.002-2.437-.103-3.192-.099-.734-.28-1.122-.556-1.399-.277-.277-.665-.457-1.4-.556-.754-.101-1.756-.103-3.191-.103h-2c-1.435 0-2.437.002-3.192.103ZM8.25 9A.75.75 0 0 1 9 8.25h6a.75.75 0 0 1 0 1.5H9A.75.75 0 0 1 8.25 9Zm0 4a.75.75 0 0 1 .75-.75h6a.75.75 0 0 1 0 1.5H9a.75.75 0 0 1-.75-.75Zm0 4a.75.75 0 0 1 .75-.75h3a.75.75 0 0 1 0 1.5H9a.75.75 0 0 1-.75-.75Z" clip-rule="evenodd"/>
</svg>
