<svg xmlns="http://www.w3.org/2000/svg" width="24" height="24" fill="none">
  <g stroke="#1C274C" stroke-width="1.5">
    <path stroke-linecap="round" d="M19 16c0 2.828 0 4.243-.879 5.121C17.243 22 15.828 22 13 22h-2c-2.828 0-4.243 0-5.121-.879C5 20.243 5 18.828 5 16v-4m0-4c0-2.828 0-4.243.879-5.121C6.757 2 8.172 2 11 2h2c2.828 0 4.243 0 5.121.879C19 3.757 19 5.172 19 8v4"/>
    <path d="M5 4.076c-.975.096-1.631.313-2.121.803C2 5.757 2 7.172 2 10v4c0 2.828 0 4.243.879 5.121.49.49 1.146.707 2.121.803M19 4.076c.975.096 1.631.313 2.121.803C22 5.757 22 7.172 22 10v4c0 2.828 0 4.243-.879 5.121-.49.49-1.146.707-2.121.803"/>
    <path stroke-linecap="round" d="M9 13h6M9 9h6m-6 8h3"/>
  </g>
</svg>
