<svg xmlns="http://www.w3.org/2000/svg" width="24" height="24" fill="none">
  <g fill="#1C274C">
    <path d="M3 10c0-3.771 0-5.657 1.172-6.828C5.343 2 7.229 2 11 2h2c3.771 0 5.657 0 6.828 1.172C21 4.343 21 6.229 21 10v4c0 3.771 0 5.657-1.172 6.828C18.657 22 16.771 22 13 22h-2c-3.771 0-5.657 0-6.828-1.172C3 19.657 3 17.771 3 14v-4Z" opacity=".5"/>
    <path d="M16.519 16.501c.175-.136.334-.295.651-.612l3.957-3.958c.096-.095.052-.26-.075-.305a4.332 4.332 0 0 1-1.644-1.034 4.332 4.332 0 0 1-1.034-1.644c-.045-.127-.21-.171-.305-.075L14.11 12.83c-.317.317-.476.476-.612.651-.161.207-.3.43-.412.666-.095.2-.166.414-.308.84l-.184.55-.292.875-.273.82a.584.584 0 0 0 .738.738l.82-.273.875-.292.55-.184c.426-.142.64-.212.84-.308.236-.113.46-.25.666-.412Zm5.847-5.809a2.163 2.163 0 1 0-3.058-3.059l-.127.128a.524.524 0 0 0-.148.465c.02.107.055.265.12.452.13.375.376.867.839 1.33a3.5 3.5 0 0 0 1.33.839c.188.065.345.1.452.12a.525.525 0 0 0 .465-.148l.127-.127Z"/>
    <path fill-rule="evenodd" d="M7.25 9A.75.75 0 0 1 8 8.25h6.5a.75.75 0 0 1 0 1.5H8A.75.75 0 0 1 7.25 9Zm0 4a.75.75 0 0 1 .75-.75h3a.75.75 0 0 1 0 1.5H8a.75.75 0 0 1-.75-.75Zm0 4a.75.75 0 0 1 .75-.75h1.5a.75.75 0 0 1 0 1.5H8a.75.75 0 0 1-.75-.75Z" clip-rule="evenodd"/>
  </g>
</svg>
