<svg xmlns="http://www.w3.org/2000/svg" width="24" height="24" fill="none">
  <g fill="#1C274D">
    <path fill-rule="evenodd" d="M4 4.694v14a3 3 0 0 0 3 3h10a3 3 0 0 0 3-3v-10a3 3 0 0 0-3-3H5a1 1 0 0 1-1-1Zm3.25 7a.75.75 0 0 1 .75-.75h8a.75.75 0 0 1 0 1.5H8a.75.75 0 0 1-.75-.75Zm0 3.5a.75.75 0 0 1 .75-.75h5.5a.75.75 0 0 1 0 1.5H8a.75.75 0 0 1-.75-.75Z" clip-rule="evenodd"/>
    <path d="M18 4v1.865c-.313-.11-.65-.17-1-.17H5a1 1 0 0 1-1-1v-.072c0-.533.392-.985.92-1.06L15.717 2.02A2 2 0 0 1 18 4Z" opacity=".5"/>
  </g>
</svg>
