<svg xmlns="http://www.w3.org/2000/svg" width="24" height="24" fill="none">
  <path fill="#1C274C" fill-rule="evenodd" d="M2.924 10.207a9.295 9.295 0 0 0-.15 2.466l.066.054c.22.176.53.41.892.643.757.488 1.6.88 2.268.88.436 0 .964-.169 1.518-.448.337-.17.659-.367.943-.56a3.75 3.75 0 1 1 6.658.841c.222.107.452.167.686.167.463 0 .682-.22 1.117-.734l.032-.038c.361-.428.889-1.054 1.826-1.198a.75.75 0 0 1-.276-1.28l1.678-1.478a.75.75 0 0 1 .686-.163 9.204 9.204 0 0 0-.977-2.189l-.36.36a.75.75 0 1 1-1.061-1.06l.524-.524A9.229 9.229 0 0 0 12 2.75c-1.77 0-3.424.497-4.83 1.36l.36.36a.75.75 0 0 1-1.06 1.06l-.524-.524a9.279 9.279 0 0 0-2.377 3.182.75.75 0 0 1 .784.708l.079 1.412a.75.75 0 1 1-1.498.083l-.01-.184Zm18.23.458-1.659 1.46a.749.749 0 0 1-.2.127c.757.029 1.398.347 1.904.728a9.356 9.356 0 0 0-.045-2.315Zm-.303 4.032c-.442-.499-1.032-.947-1.667-.947-.463 0-.681.22-1.116.734l-.032.038c-.41.487-1.036 1.228-2.23 1.228-.708 0-1.316-.257-1.803-.58-.58.367-1.266.58-2.003.58a3.74 3.74 0 0 1-2.767-1.22c-.31.208-.664.423-1.04.612-.642.323-1.417.608-2.193.608-1.013 0-2.047-.488-2.82-.957a9.254 9.254 0 0 0 17.67-.096ZM1.25 12C1.25 6.063 6.063 1.25 12 1.25S22.75 6.063 22.75 12 17.937 22.75 12 22.75 1.25 17.937 1.25 12Zm9.22-8.53a.75.75 0 0 1 1.06 0l1 1a.75.75 0 0 1-1.06 1.06l-1-1a.75.75 0 0 1 0-1.06Zm5.98.93a.75.75 0 0 1 .15 1.05l-1.5 2a.75.75 0 1 1-1.2-.9l1.5-2a.75.75 0 0 1 1.05-.15Zm-5.226 2.406a.75.75 0 0 1-.53.918l-1.366.366a.75.75 0 1 1-.388-1.448l1.366-.366a.75.75 0 0 1 .918.53Zm-5.327.368a.75.75 0 0 1 .993.372l.585 1.287a.75.75 0 0 1-1.365.621l-.586-1.287a.75.75 0 0 1 .373-.993Zm10.718 1.053a.75.75 0 0 1 .784.714l.066 1.413a.75.75 0 1 1-1.498.07l-.066-1.412a.75.75 0 0 1 .714-.785ZM12 9.75a2.25 2.25 0 1 0 0 4.5 2.25 2.25 0 0 0 0-4.5Zm-5.057 1.145a.75.75 0 0 1 .162 1.048l-.835 1.141a.75.75 0 1 1-1.21-.886l.835-1.14a.75.75 0 0 1 1.048-.163Z" clip-rule="evenodd"/>
</svg>
