<svg xmlns="http://www.w3.org/2000/svg" width="24" height="24" fill="none">
  <path fill="#1C274C" fill-rule="evenodd" d="M2.924 10.206a9.295 9.295 0 0 0-.15 2.467l.066.054c.22.176.53.41.892.643.757.488 1.6.88 2.268.88.436 0 .964-.169 1.518-.448.337-.17.659-.367.943-.56a3.75 3.75 0 1 1 6.675.815c.048.026.097.053.15.08l.06.033c.292.158.667.363.98.617.66-.109 1.336-.008 1.89.343.193-.36.473-.684.817-.938.602-.446 1.367-.644 2.066-.52a9.3 9.3 0 0 0 .055-3.007l-1.659 1.46A.75.75 0 1 1 18.504 11l1.678-1.478a.75.75 0 0 1 .686-.163 9.204 9.204 0 0 0-.977-2.189l-.36.36a.75.75 0 1 1-1.061-1.06l.524-.524A9.229 9.229 0 0 0 12 2.75c-1.77 0-3.424.497-4.83 1.36l.36.36a.75.75 0 0 1-1.06 1.06l-.524-.524A9.279 9.279 0 0 0 3.569 8.19a.75.75 0 0 1 .784.707l.079 1.412a.75.75 0 0 1-1.498.084l-.01-.186Zm11.786 5.326a20.244 20.244 0 0 0-.185-.1c-.153-.082-.327-.175-.497-.277A3.732 3.732 0 0 1 12 15.75a3.74 3.74 0 0 1-2.767-1.22c-.31.208-.664.423-1.04.612-.642.323-1.417.608-2.193.608-1.013 0-2.047-.488-2.82-.957a9.256 9.256 0 0 0 8.286 6.442 2.567 2.567 0 0 1 1.032-2.21 2.846 2.846 0 0 1 1.136-.507c-.29-1.06.192-2.243 1.075-2.986ZM1.25 12C1.25 6.063 6.063 1.25 12 1.25S22.75 6.063 22.75 12c0 1.011-.14 1.99-.402 2.92a.75.75 0 0 1-1.208.368c-.214-.183-.719-.257-1.215.11-.413.305-.546.725-.5 1a.75.75 0 0 1-.21.654l-.1.101a.75.75 0 0 1-1.134-.084l-.335-.453c-.295-.4-1.102-.584-1.88-.008-.78.576-.84 1.402-.544 1.801l.185.25a.75.75 0 0 1-.072.977l-.186.185a.75.75 0 0 1-.755.185c-.259-.081-.647-.04-1.004.225-.487.36-.52 1.008-.287 1.323a.75.75 0 0 1-.569 1.195 7.26 7.26 0 0 1-.417.002L12 22.75C6.063 22.75 1.25 17.937 1.25 12Zm9.22-8.53a.75.75 0 0 1 1.06 0l1 1a.75.75 0 0 1-1.06 1.06l-1-1a.75.75 0 0 1 0-1.06Zm5.98.93a.75.75 0 0 1 .15 1.05l-1.5 2a.75.75 0 1 1-1.2-.9l1.5-2a.75.75 0 0 1 1.05-.15Zm-5.226 2.406a.75.75 0 0 1-.53.918l-1.366.366a.75.75 0 1 1-.388-1.448l1.366-.366a.75.75 0 0 1 .918.53Zm-5.327.368a.75.75 0 0 1 .993.372l.585 1.287a.75.75 0 0 1-1.365.621l-.586-1.287a.75.75 0 0 1 .373-.993Zm10.717 1.053a.75.75 0 0 1 .785.714l.066 1.413a.75.75 0 0 1-1.498.07l-.066-1.412a.75.75 0 0 1 .713-.785ZM12 9.75a2.25 2.25 0 1 0 0 4.5 2.25 2.25 0 0 0 0-4.5Zm-5.057 1.145a.75.75 0 0 1 .162 1.048l-.835 1.141a.75.75 0 0 1-1.21-.886l.835-1.14a.75.75 0 0 1 1.048-.163Z" clip-rule="evenodd"/>
</svg>
