<svg xmlns="http://www.w3.org/2000/svg" width="24" height="24" fill="none">
  <g stroke="#1C274C" stroke-width="1.5">
    <circle cx="12" cy="12" r="10"/>
    <circle cx="12" cy="12" r="3"/>
    <path d="M2 13s2.2 2 4 2c1.212 0 2.606-.908 3.387-1.5m4.613.724c.471.415 1.088.776 1.805.776 1.69 0 1.69-2 3.38-2 1.077 0 1.925.814 2.399 1.403" opacity=".5"/>
    <path stroke-linecap="round" d="M14.5 7 16 5"/>
    <path stroke-linecap="round" d="m19 7 1-1" opacity=".5"/>
    <path stroke-linecap="round" d="m12 5-1-1"/>
    <path stroke-linecap="round" d="m10.5 7-1.366.366m7.516 1.611.066 1.412" opacity=".5"/>
    <path stroke-linecap="round" d="M20.678 10.085 19 11.563"/>
    <path stroke-linecap="round" d="M7 5 6 4" opacity=".5"/>
    <path stroke-linecap="round" d="m6.792 9.144-.585-1.288m-.542 4.786L6.5 11.5"/>
    <path stroke-linecap="round" d="m3.683 10.35-.079-1.412" opacity=".5"/>
  </g>
</svg>
