<svg xmlns="http://www.w3.org/2000/svg" width="24" height="24" fill="none">
  <g stroke="#1C274C" stroke-width="1.5">
    <circle cx="12" cy="12" r="3"/>
    <path d="M2 13s2.2 2 4 2c1.212 0 2.606-.908 3.387-1.5m4.613.724c.471.415 1.088.776 1.805.776 1.69 0 1.69-2 3.38-2 1.077 0 1.925.814 2.399 1.403"/>
    <path stroke-linecap="round" d="M14.5 7 16 5m3 2 1-1m-8-1-1-1m-.5 3-1.366.366m7.516 1.611.066 1.412m3.962-.304L19 11.563M7 5 6 4m.792 5.144-.585-1.288m-.542 4.786L6.5 11.5m-2.817-1.15-.079-1.412M7 20.662A9.955 9.955 0 0 0 12 22c5.523 0 10-4.477 10-10S17.523 2 12 2 2 6.477 2 12c0 1.821.487 3.53 1.338 5"/>
  </g>
</svg>
