<svg xmlns="http://www.w3.org/2000/svg" width="24" height="24" fill="none">
  <g fill="#1C274C">
    <path d="M12 2C6.477 2 2 6.477 2 12c0 .354.018.704.054 1.048C2.404 13.352 4.367 15 6 15c1.212 0 2.606-.908 3.387-1.5l.01-.009a3 3 0 1 1 4.61.739c.47.412 1.084.77 1.798.77 1.69 0 1.69-2 3.38-2 1.077 0 1.925.814 2.399 1.403l.092.132c.211-.81.324-1.659.324-2.535 0-5.523-4.477-10-10-10Z" opacity=".5"/>
    <path d="M9.388 13.5C8.607 14.092 7.212 15 6 15c-1.633 0-3.596-1.648-3.945-1.952C2.579 18.078 6.832 22 12 22c4.647 0 8.554-3.17 9.676-7.465l-.092-.132c-.473-.59-1.322-1.403-2.4-1.403-1.689 0-1.689 2-3.378 2-.714 0-1.328-.357-1.798-.77a2.999 2.999 0 0 1-4.61-.739l-.01.009Zm10.14-8.083a.777.777 0 0 0-.058.053l-1 1a.75.75 0 1 0 1.06 1.06l.905-.904c-.272-.426-.575-.83-.907-1.209ZM5.417 4.472c.017.02.034.04.053.058l1 1a.75.75 0 0 0 1.06-1.06l-.904-.905c-.426.272-.83.576-1.209.907Zm5.053.058a.75.75 0 1 1 1.06-1.06l1 1a.75.75 0 1 1-1.06 1.06l-1-1Zm6.13.92a.75.75 0 1 0-1.2-.9l-1.5 2a.75.75 0 0 0 1.2.9l1.5-2ZM8.41 7.56a.75.75 0 0 0 .918.53l1.366-.366a.75.75 0 1 0-.388-1.448l-1.366.366a.75.75 0 0 0-.53.918Zm9.055 2.794a.75.75 0 1 1-1.498.07l-.066-1.412a.75.75 0 0 1 1.498-.07l.066 1.412Zm.972 1.705a.75.75 0 0 0 1.059.067l1.678-1.478a.75.75 0 1 0-.992-1.126L18.504 11a.75.75 0 0 0-.067 1.059ZM5.525 8.167a.75.75 0 1 1 1.365-.62l.585 1.286a.75.75 0 1 1-1.365.621l-.585-1.287Z"/>
    <path d="M6.943 10.895a.75.75 0 0 1 .162 1.048l-.835 1.141a.75.75 0 1 1-1.21-.886l.835-1.14a.75.75 0 0 1 1.048-.163ZM2.856 8.98a.75.75 0 0 1 1.497-.084l.079 1.412a.75.75 0 0 1-1.498.083L2.856 8.98Z"/>
  </g>
</svg>
