<svg xmlns="http://www.w3.org/2000/svg" width="24" height="24" fill="none">
  <g fill="#1C274C">
    <path fill-rule="evenodd" d="M19 11.75v1.5h-2a.75.75 0 0 0 0 1.5h2v1.133c0 .76-.32 1.487-.88 2.001a9.024 9.024 0 0 1-5.37 2.352v1.014a.75.75 0 0 1-1.5 0v-1.014a9.024 9.024 0 0 1-5.37-2.352 2.716 2.716 0 0 1-.88-2V8c0-1.886 0-2.828.586-3.414C6.172 4 7.114 4 9 4h6c1.886 0 2.828 0 3.414.586.503.502.574 1.267.584 2.664H17a.75.75 0 0 0 0 1.5h2v1.5h-2a.75.75 0 0 0 0 1.5h2ZM12 14c1.105 0 2-.933 2-2.083 0-.72-.783-1.681-1.37-2.3a.862.862 0 0 0-1.26 0c-.587.619-1.37 1.58-1.37 2.3 0 1.15.895 2.083 2 2.083Z" clip-rule="evenodd"/>
    <path d="M13.732 3a2 2 0 0 0-3.464 0h3.464Z"/>
  </g>
</svg>
