<svg xmlns="http://www.w3.org/2000/svg" width="24" height="24" fill="none">
  <path fill="#1C274C" fill-rule="evenodd" d="M17.31 2.775c-.162.031-.371.085-.697.169l-2.711.699c-.326.084-.534.138-.691.19a.8.8 0 0 0-.22.095.591.591 0 0 0-.24.394.676.676 0 0 0 .024.21c.031.153.086.351.173.666.088.314.143.512.196.66.05.141.08.184.092.199a.67.67 0 0 0 .43.239c.003 0 .031 0 .095-.008.08-.01.185-.028.313-.055.258-.054.561-.132.882-.215a.75.75 0 0 1 .91.525l1.68 6.036a.75.75 0 0 1-.535.927c-.32.083-.625.162-.875.239a3.793 3.793 0 0 0-.3.102c-.055.023-.08.036-.084.038a.59.59 0 0 0-.23.388.684.684 0 0 0 .023.21c.031.153.086.351.173.665.088.315.143.513.196.661.05.14.08.183.092.198a.666.666 0 0 0 .438.24.83.83 0 0 0 .246-.022c.162-.031.371-.085.697-.169l2.711-.699c.326-.084.535-.138.691-.19.151-.05.2-.08.22-.095a.592.592 0 0 0 .24-.394.68.68 0 0 0-.024-.21 11.034 11.034 0 0 0-.173-.666 11.043 11.043 0 0 0-.196-.66.699.699 0 0 0-.092-.199.665.665 0 0 0-.43-.239c-.003 0-.031 0-.095.008-.08.01-.185.028-.313.055-.257.054-.561.132-.882.215a.75.75 0 0 1-.91-.525l-1.68-6.036a.75.75 0 0 1 .535-.927c.32-.083.625-.162.875-.239.125-.038.225-.072.3-.102.055-.023.08-.036.084-.038a.59.59 0 0 0 .23-.388.676.676 0 0 0-.023-.21 10.96 10.96 0 0 0-.173-.666 11.037 11.037 0 0 0-.196-.66.705.705 0 0 0-.092-.198.667.667 0 0 0-.438-.24.827.827 0 0 0-.246.022Zm-.278-1.474c.229-.043.464-.069.712-.037.558.07 1.072.353 1.423.794.158.198.255.414.332.63.073.204.142.454.222.738l.012.046c.08.285.149.534.192.746a2.1 2.1 0 0 1 .04.713 2.091 2.091 0 0 1-.835 1.397 1.863 1.863 0 0 1-.404.215c-.13.053-.276.102-.421.146l-.202.06 1.28 4.602a9.35 9.35 0 0 1 .235-.052c.259-.054.613-.12.896-.084.558.07 1.071.352 1.423.793.158.199.255.415.332.631.073.204.142.454.221.738l.013.046c.08.284.149.534.192.746.046.224.074.46.04.712a2.091 2.091 0 0 1-.835 1.398 2.24 2.24 0 0 1-.641.313c-.21.069-.467.135-.764.212l-2.756.71c-.297.077-.554.143-.771.184a2.257 2.257 0 0 1-.712.038 2.166 2.166 0 0 1-1.423-.794 2.128 2.128 0 0 1-.332-.63c-.073-.204-.142-.454-.221-.738l-.013-.046c-.08-.285-.149-.535-.192-.746a2.097 2.097 0 0 1-.04-.713 2.09 2.09 0 0 1 .835-1.397 1.82 1.82 0 0 1 .405-.215 5.26 5.26 0 0 1 .42-.146l.203-.06-1.281-4.602c-.08.019-.159.036-.234.052-.26.054-.614.12-.897.084a2.166 2.166 0 0 1-1.423-.793 2.126 2.126 0 0 1-.332-.631 11.718 11.718 0 0 1-.221-.738l-.013-.046c-.08-.284-.149-.534-.192-.746a2.094 2.094 0 0 1-.04-.712 2.096 2.096 0 0 1 .835-1.398 2.24 2.24 0 0 1 .641-.313c.21-.069.467-.135.764-.212l2.756-.71c.297-.077.554-.144.771-.185Zm-10.92 5.04 2.985.36c.323.039.6.072.827.114.238.044.472.106.697.226.508.27.897.727 1.06 1.284.073.251.077.495.062.728-.015.22-.051.481-.093.777l-.007.05c-.041.296-.078.557-.124.772a2.1 2.1 0 0 1-.258.683c-.305.49-.797.834-1.355.973-.279.07-.648.05-.928.03a12.885 12.885 0 0 1-.292-.027l-.677 4.823c.09.012.177.026.26.04.276.045.641.114.895.25.509.27.898.727 1.06 1.285.073.25.078.494.062.727-.014.22-.05.481-.092.777l-.007.05c-.042.296-.078.557-.125.772-.05.23-.12.462-.258.683-.305.49-.797.834-1.354.973a2.4 2.4 0 0 1-.73.053c-.231-.013-.508-.047-.832-.086L3.903 22.3c-.323-.039-.6-.072-.827-.114a2.143 2.143 0 0 1-1.756-1.51 2.068 2.068 0 0 1-.063-.728c.015-.22.051-.481.093-.777l.007-.05c.041-.296.078-.557.124-.772.05-.23.121-.462.258-.683.305-.49.797-.834 1.355-.973.279-.07.648-.05.929-.03l.291.027.677-4.823a7.583 7.583 0 0 1-.26-.04c-.276-.045-.641-.114-.895-.25a2.143 2.143 0 0 1-1.06-1.285 2.068 2.068 0 0 1-.062-.727c.014-.22.05-.481.092-.777l.007-.05c.042-.296.078-.557.125-.772.05-.23.12-.462.258-.683.305-.49.797-.834 1.354-.973.247-.062.489-.066.73-.053.231.013.508.047.832.086Zm-.916 1.413a.97.97 0 0 0-.282.01.724.724 0 0 0-.444.31.673.673 0 0 0-.066.207c-.033.155-.063.361-.109.69a11.25 11.25 0 0 0-.085.691.65.65 0 0 0 .006.21c.042.144.15.285.32.377 0 0 .029.012.104.031.086.022.197.044.335.067.275.045.607.085.954.127a.75.75 0 0 1 .653.848l-.884 6.299a.75.75 0 0 1-.832.64 23.286 23.286 0 0 0-.957-.103 4.359 4.359 0 0 0-.343-.015c-.08 0-.113.006-.113.005a.722.722 0 0 0-.44.308.674.674 0 0 0-.065.208c-.034.155-.063.361-.11.69-.045.328-.074.534-.084.691-.01.15.002.197.005.21a.644.644 0 0 0 .325.38.937.937 0 0 0 .265.075c.174.032.404.06.756.103l2.94.353c.352.043.582.07.76.08a.97.97 0 0 0 .281-.01.724.724 0 0 0 .444-.31.674.674 0 0 0 .066-.207c.033-.155.063-.361.109-.69.046-.328.074-.534.085-.691a.65.65 0 0 0-.006-.21.642.642 0 0 0-.319-.377s-.03-.012-.105-.031a4.28 4.28 0 0 0-.335-.066 23.306 23.306 0 0 0-.954-.128.75.75 0 0 1-.653-.849l.884-6.297a.75.75 0 0 1 .832-.64c.347.04.678.08.958.102.138.01.253.015.342.015.08 0 .113-.006.113-.005a.722.722 0 0 0 .44-.308.675.675 0 0 0 .065-.208c.034-.155.063-.361.11-.69.045-.328.074-.534.084-.691a.653.653 0 0 0-.005-.21.644.644 0 0 0-.325-.38.94.94 0 0 0-.265-.075c-.174-.032-.404-.06-.756-.103l-2.94-.353a13.53 13.53 0 0 0-.76-.08Zm4.347 3.099.004-.001h-.004Z" clip-rule="evenodd"/>
</svg>
