<svg xmlns="http://www.w3.org/2000/svg" width="24" height="24" fill="none">
  <g fill="#1C274C">
    <path fill-rule="evenodd" d="m3.432 15.62 4.949 4.948c.904.905 1.356 1.357 1.908 1.421.123.015.248.015.371 0 .552-.064 1.004-.516 1.908-1.42.905-.905 1.357-1.357 1.421-1.909a1.598 1.598 0 0 0 0-.37c-.064-.553-.516-1.005-1.42-1.91l-1.113-1.111-3.103-3.104-.734-.733c-.904-.905-1.356-1.357-1.908-1.421a1.598 1.598 0 0 0-.371 0c-.552.064-1.004.516-1.908 1.42-.905.905-1.357 1.357-1.421 1.909a1.598 1.598 0 0 0 0 .37c.064.553.516 1.005 1.42 1.91Zm8.733-7.267 3.104 3.104 1.112 1.111c.904.905 1.356 1.357 1.908 1.421.123.015.248.015.371 0 .552-.064 1.004-.516 1.908-1.42.905-.905 1.357-1.357 1.421-1.909a1.598 1.598 0 0 0 0-.37c-.064-.553-.516-1.005-1.42-1.91l-4.95-4.948c-.904-.905-1.356-1.357-1.908-1.421a1.598 1.598 0 0 0-.371 0c-.552.064-1.004.516-1.908 1.42-.905.905-1.357 1.357-1.421 1.909a1.598 1.598 0 0 0 0 .37c.064.553.516 1.005 1.42 1.91l.734.733Z" clip-rule="evenodd"/>
    <path d="m11.457 15.269 3.812-3.813-3.104-3.103-3.812 3.812 3.104 3.104Z" opacity=".5"/>
    <path fill-rule="evenodd" d="M17.489 1.968a.75.75 0 0 1 1.06 0l3.105 3.104a.75.75 0 0 1-1.061 1.06l-3.104-3.104a.75.75 0 0 1 0-1.06ZM1.968 17.488a.75.75 0 0 1 1.06 0l3.104 3.104a.75.75 0 0 1-1.06 1.06l-3.104-3.104a.75.75 0 0 1 0-1.06Z" clip-rule="evenodd" opacity=".5"/>
  </g>
</svg>
