<svg xmlns="http://www.w3.org/2000/svg" width="24" height="24" fill="none">
  <path fill="#1C274C" d="m3.924 18.607.53-.53-.53.53Zm1.469 1.469-.53.53.53-.53Zm3.67 0-.53.53.53-.53Zm.735.734.53-.53-.53.53Zm4.807-1.433-.724-.194.724.194Zm0-.806-.724.194.724-.194Zm-2.569 3.376-.194-.724.194.724Zm-.806 0 .194-.724-.194.724Zm-9.177-9.983.725.194-.725-.194Zm1.137 2.238-.53.53.53-.53ZM2.053 12.77l-.724.194.724-.194Zm2.57-3.375.194.724-.194-.724Zm.806 0 .194-.725-.194.725Zm14.647-.332-.53.53.53-.53Zm.734.735.53-.53-.53.53Zm-1.433 4.807-.194-.724.194.724Zm-.806 0 .194-.724-.194.724Zm3.376-2.569-.724-.194.724.194Zm0-.806-.724.194.724-.194Zm-9.983-9.177-.194-.724.194.724Zm2.238 1.137-.53.53.53-.53ZM12.77 2.053l-.194.725.194-.725Zm-3.375 2.57-.725-.195.725.195Zm0 .806.724-.194-.724.194Zm-2.37 11.547a.75.75 0 0 1-1.061 1.06l1.06-1.06Zm11.01-11.012a.75.75 0 1 1-1.06 1.06l1.06-1.06Zm-6.403 1.998.53-.53-.53.53ZM4.455 18.077l1.468 1.468-1.06 1.06-1.469-1.467 1.06-1.061Zm15.09-12.154-1.468-1.468 1.06-1.06 1.469 1.467-1.06 1.061Zm0 1.876c.361-.361.578-.58.713-.757a.76.76 0 0 0 .099-.156c.008-.02.007-.024.007-.025h1.5c0 .445-.19.797-.413 1.09-.211.277-.514.578-.845.909l-1.06-1.061Zm1.06-2.937c.332.331.635.632.846.908.223.294.413.646.413 1.091h-1.5s0-.005-.007-.025a.76.76 0 0 0-.099-.156c-.135-.177-.352-.396-.713-.757l1.06-1.06ZM5.924 19.545c.361.361.58.578.757.713a.76.76 0 0 0 .156.099c.02.008.024.007.025.007v1.5c-.445 0-.797-.19-1.09-.413-.277-.211-.578-.514-.909-.845l1.061-1.06Zm2.937 1.06c-.331.332-.632.635-.908.846-.294.223-.646.413-1.091.413v-1.5s.005 0 .025-.007a.759.759 0 0 0 .156-.099c.177-.135.396-.352.757-.713l1.06 1.06Zm-4.405-4.404c-.361.361-.578.58-.713.757a.756.756 0 0 0-.099.156c-.008.02-.007.024-.007.025h-1.5c0-.445.19-.797.413-1.09.211-.277.514-.577.845-.909l1.06 1.061Zm-1.06 2.937c-.332-.332-.635-.632-.846-.908-.223-.294-.413-.646-.413-1.091h1.5s0 .005.007.025a.827.827 0 0 0 .099.156c.135.177.352.396.713.757l-1.06 1.06ZM15.14 3.394c.332-.331.632-.634.908-.845.294-.223.646-.413 1.091-.413v1.5s-.005 0-.025.007a.756.756 0 0 0-.156.099c-.177.135-.396.352-.757.713l-1.06-1.06Zm2.937 1.06c-.361-.36-.58-.577-.757-.712a.756.756 0 0 0-.156-.099c-.02-.008-.024-.007-.025-.007v-1.5c.445 0 .797.19 1.09.413.277.211.578.514.909.845l-1.061 1.06ZM9.594 19.546l.734.734-1.06 1.061-.735-.734 1.06-1.06Zm3.344.734c.353-.352.581-.582.74-.772.151-.182.189-.27.203-.324l1.449.389c-.094.35-.282.634-.5.896-.212.254-.498.539-.831.872l-1.061-1.06Zm1.06-3.67c.334.333.62.618.832.872.218.262.406.546.5.896l-1.449.388c-.014-.053-.052-.142-.203-.323-.159-.19-.387-.42-.74-.773l1.06-1.06Zm-.117 2.574a.809.809 0 0 0 0-.418l1.449-.388c.105.391.105.803 0 1.195l-1.449-.389ZM14 21.34c-.334.333-.619.62-.873.831-.262.219-.546.407-.896.5l-.388-1.448c.053-.015.142-.052.324-.204.19-.158.42-.387.772-.74l1.06 1.061Zm-3.671-1.06c.353.352.582.58.772.74.182.15.271.188.324.203l-.388 1.448c-.35-.093-.634-.281-.896-.5-.255-.212-.54-.498-.873-.831l1.06-1.06Zm1.902 2.391a2.308 2.308 0 0 1-1.194 0l.388-1.448a.807.807 0 0 0 .418 0l.388 1.448ZM3.72 11.062a13.32 13.32 0 0 0-.74.772c-.15.182-.188.271-.202.324l-1.45-.388c.094-.35.282-.634.5-.896.213-.254.499-.54.832-.873l1.06 1.061Zm-1.06 3.67c-.333-.333-.62-.617-.831-.872-.219-.262-.407-.546-.5-.896l1.449-.388c.014.053.051.142.203.324.158.19.387.42.74.772l-1.061 1.06Zm.118-2.574a.807.807 0 0 0 0 .418l-1.45.388a2.307 2.307 0 0 1 0-1.194l1.45.388Zm-.118-2.157c.333-.333.618-.619.872-.83.262-.22.546-.407.896-.5l.389 1.448c-.053.014-.142.052-.324.203-.19.159-.42.387-.772.74l-1.061-1.06Zm3.67 1.061a13.357 13.357 0 0 0-.772-.74c-.181-.151-.27-.189-.323-.203l.388-1.449c.35.094.634.282.896.5.254.212.539.498.872.831l-1.06 1.061ZM4.429 8.67a2.307 2.307 0 0 1 1.195 0l-.388 1.449a.81.81 0 0 0-.418 0l-.39-1.449Zm16.178-.137.734.734-1.06 1.06-.735-.733 1.06-1.06ZM21.34 14c-.333.333-.618.619-.872.83-.262.22-.546.407-.896.5l-.389-1.448c.053-.014.142-.052.324-.203.19-.159.42-.387.772-.74l1.061 1.06Zm-3.67-1.061c.352.353.582.581.772.74.181.151.27.189.323.203l-.388 1.449c-.35-.094-.634-.282-.896-.5-.254-.212-.539-.498-.872-.831l1.06-1.061Zm1.901 2.392a2.306 2.306 0 0 1-1.194 0l.388-1.449a.809.809 0 0 0 .418 0l.389 1.449Zm.708-2.392c.353-.353.582-.583.74-.772.152-.182.19-.271.204-.324l1.448.388c-.093.35-.281.634-.5.896-.212.254-.498.54-.831.873l-1.06-1.061Zm1.061-3.67c.333.333.62.617.831.872.219.262.407.546.5.896l-1.448.388c-.015-.053-.052-.142-.204-.324-.158-.19-.387-.42-.74-.772l1.061-1.06Zm-.117 2.574a.807.807 0 0 0 0-.418l1.448-.388c.105.391.105.803 0 1.194l-1.448-.388ZM10 2.66c.334-.333.619-.62.873-.831.262-.219.546-.407.896-.5l.388 1.449c-.053.014-.142.051-.324.203-.19.158-.42.387-.772.74l-1.06-1.061Zm3.671 1.06a13.286 13.286 0 0 0-.772-.74c-.182-.15-.271-.188-.324-.202l.388-1.45c.35.094.634.282.896.5.255.213.54.499.873.832l-1.06 1.06ZM11.77 1.33a2.307 2.307 0 0 1 1.194 0l-.388 1.449a.807.807 0 0 0-.418 0l-.388-1.45Zm-.708 2.392c-.353.352-.581.582-.74.772-.151.182-.189.27-.203.324l-1.449-.39c.094-.35.282-.634.5-.896.212-.254.498-.539.831-.872l1.061 1.06Zm-1.06 3.67c-.334-.333-.62-.618-.832-.872-.218-.262-.406-.546-.5-.896l1.449-.388c.014.053.052.142.203.323.159.19.387.42.74.773l-1.06 1.06Zm.117-2.574a.81.81 0 0 0 0 .418l-1.449.388a2.307 2.307 0 0 1 0-1.195l1.449.389ZM3.72 13.672l3.303 3.304-1.06 1.06-3.304-3.303 1.06-1.06ZM14.733 2.66l3.303 3.304-1.06 1.06-3.304-3.303 1.06-1.061Zm-1.795 15.01-1.101-1.102 1.06-1.06 1.102 1.1-1.061 1.061Zm-1.101-2.163 3.67-3.67 1.061 1.06-3.67 3.671-1.061-1.06ZM16.609 14l-1.102-1.102 1.061-1.06 1.101 1.101-1.06 1.06Zm-4.772 2.57-4.405-4.406 1.06-1.06 4.405 4.405-1.06 1.06Zm-4.405-4.406L6.33 11.062l1.06-1.06 1.102 1.1-1.061 1.061Zm4.731-3.67-3.67 3.67-1.061-1.06 3.67-3.671 1.061 1.06Zm3.345 4.404-4.405-4.404 1.06-1.061 4.405 4.405-1.06 1.06Zm-4.405-4.404L10 7.39l1.061-1.06 1.101 1.1-1.06 1.062Zm8.442 1.1a1.27 1.27 0 0 1 0-1.794l1.06 1.06a.23.23 0 0 0 0-.326l-1.06 1.06ZM8.533 20.607c.09.09.236.09.327 0l-1.061-1.06a1.27 1.27 0 0 1 1.795 0l-1.06 1.06Z"/>
</svg>
