<svg xmlns="http://www.w3.org/2000/svg" width="24" height="24" fill="none">
  <g fill="#1C274C">
    <path d="M8.38 20.568 3.433 15.62c-.905-.904-1.357-1.356-1.421-1.908a1.598 1.598 0 0 1 0-.371c.064-.552.516-1.005 1.42-1.909.905-.904 1.357-1.356 1.909-1.42.123-.015.248-.015.37 0 .553.064 1.005.516 1.91 1.42l.733.734 3.812-3.813-.733-.733c-.905-.904-1.357-1.356-1.421-1.908a1.598 1.598 0 0 1 0-.371c.064-.552.516-1.004 1.42-1.909.905-.904 1.357-1.356 1.909-1.42a1.6 1.6 0 0 1 .37 0c.553.064 1.005.516 1.91 1.42l4.948 4.95c.905.904 1.357 1.356 1.421 1.908.015.123.015.248 0 .37-.064.553-.516 1.005-1.42 1.91-.905.903-1.357 1.355-1.909 1.42a1.598 1.598 0 0 1-.37 0c-.553-.065-1.005-.517-1.91-1.42l-1.111-1.113-3.813 3.813 1.112 1.112c.905.904 1.357 1.356 1.421 1.908.015.123.015.248 0 .37-.064.553-.516 1.005-1.42 1.91-.905.903-1.357 1.355-1.909 1.42a1.598 1.598 0 0 1-.37 0c-.553-.065-1.005-.517-1.91-1.42Z"/>
    <path fill-rule="evenodd" d="M17.488 1.968a.75.75 0 0 1 1.061 0l3.104 3.104a.75.75 0 0 1-1.06 1.06l-3.105-3.104a.75.75 0 0 1 0-1.06Zm-15.52 15.52a.75.75 0 0 1 1.06 0l3.104 3.104a.75.75 0 0 1-1.06 1.06l-3.105-3.104a.75.75 0 0 1 0-1.06Z" clip-rule="evenodd"/>
  </g>
</svg>
