<svg xmlns="http://www.w3.org/2000/svg" width="24" height="24" fill="none">
  <path fill="#1C274C" fill-rule="evenodd" d="M13.624 2.756a.85.85 0 0 0-.197 0c-.081.01-.202.047-.443.238-.253.2-.557.503-1.022.968-.465.465-.767.769-.968 1.022-.191.24-.229.362-.238.443a.854.854 0 0 0 0 .197c.01.081.047.202.238.443.2.253.503.557.968 1.022l4.949 4.95c.465.464.769.766 1.022.967.241.191.362.229.443.238a.854.854 0 0 0 .197 0c.081-.01.202-.047.443-.238.253-.2.557-.503 1.022-.968.465-.465.767-.769.968-1.022.191-.24.229-.362.238-.443a.854.854 0 0 0 0-.197c-.01-.081-.047-.202-.238-.443-.2-.253-.503-.557-.968-1.022l-4.949-4.95c-.465-.464-.769-.766-1.022-.967-.241-.191-.362-.229-.443-.238Zm-.371-1.49c.181-.021.364-.021.545 0 .47.055.852.276 1.201.553.33.26.694.626 1.12 1.052l5.01 5.01c.426.426.791.79 1.052 1.12.277.349.498.73.553 1.201.021.181.021.364 0 .545-.055.471-.276.852-.553 1.201-.26.33-.626.694-1.052 1.121l-.06.06c-.427.426-.791.791-1.12 1.052-.35.277-.731.498-1.202.553a2.343 2.343 0 0 1-.545 0c-.47-.055-.852-.276-1.201-.553-.33-.26-.694-.626-1.12-1.052l-.612-.612-2.752 2.752.612.611c.426.427.791.792 1.052 1.12.277.35.498.731.553 1.202.021.181.021.364 0 .545-.055.471-.276.852-.553 1.201-.26.33-.626.694-1.052 1.121l-.06.06c-.427.426-.792.791-1.12 1.052-.35.277-.731.498-1.202.553a2.343 2.343 0 0 1-.545 0c-.47-.055-.852-.276-1.201-.553-.33-.26-.694-.626-1.12-1.052l-5.01-5.01c-.426-.426-.791-.79-1.052-1.12-.277-.349-.498-.73-.553-1.201a2.349 2.349 0 0 1 0-.545c.055-.471.276-.852.553-1.201.26-.33.626-.694 1.052-1.121l.06-.06c.427-.426.792-.791 1.12-1.052.35-.277.731-.498 1.202-.553.181-.021.364-.021.545 0 .47.055.852.276 1.201.553.33.26.694.626 1.12 1.052l.234.233 2.751-2.751-.233-.233c-.426-.427-.791-.792-1.052-1.12-.277-.35-.498-.731-.553-1.202a2.348 2.348 0 0 1 0-.545c.055-.471.276-.852.553-1.201.26-.33.626-.694 1.052-1.12l.06-.06c.427-.427.792-.792 1.12-1.053.35-.277.731-.498 1.202-.553Zm-1.088 8.147-2.752 2.752 2.043 2.043 2.752-2.752-2.043-2.043Zm5.323-7.445a.75.75 0 0 1 1.061 0l3.104 3.104a.75.75 0 0 1-1.06 1.06L17.488 3.03a.75.75 0 0 1 0-1.061ZM5.624 10.756a.854.854 0 0 0-.197 0c-.081.01-.202.047-.443.238-.253.2-.557.503-1.022.968-.465.465-.767.769-.968 1.022-.191.24-.229.362-.238.443a.85.85 0 0 0 0 .197c.01.081.047.202.238.443.2.253.503.557.968 1.022l4.949 4.95c.465.464.769.766 1.022.967.241.191.362.229.443.238a.854.854 0 0 0 .197 0c.081-.01.202-.047.443-.238.253-.2.557-.503 1.022-.968.465-.465.767-.769.968-1.022.191-.24.229-.362.238-.443a.854.854 0 0 0 0-.197c-.01-.081-.047-.202-.238-.443-.2-.253-.503-.557-.968-1.022l-4.949-4.95c-.465-.464-.769-.766-1.022-.967-.241-.191-.362-.229-.443-.238Zm-3.657 6.732a.75.75 0 0 1 1.06 0l3.105 3.104a.75.75 0 1 1-1.06 1.06l-3.105-3.104a.75.75 0 0 1 0-1.06Z" clip-rule="evenodd"/>
</svg>
