<svg xmlns="http://www.w3.org/2000/svg" width="24" height="24" fill="none">
  <path fill="#1C274C" d="m12.94 10.513-.383.639.383-.64Zm-.53-2.491.743.103a.766.766 0 0 0-.652-.848l-.09.745Zm-.094 1.622-.725.173.725-.173Zm3.775.526.66.365-.66-.365Zm-.81.668.218.723-.218-.723Zm.835-6.884.383-.639-.383.64Zm.624.869.725-.173-.725.173Zm-2.965-1.194-.218-.723.218.723ZM12.67 5.892l-.09.744c.41.057.783-.23.832-.64l-.742-.104Zm.296-1.595-.66-.365.66.365ZM2.832 9.106l-.384.639.384-.639Zm-.625-.868-.725.172.725-.172Zm4.072-1.07.09-.744a.734.734 0 0 0-.833.641l.743.104Zm-.296 1.595.66.365-.66-.365Zm-.81.669.217.722-.218-.722Zm.834-6.884.383-.64-.383.64Zm.53 2.49-.743-.103a.767.767 0 0 0 .653.848l.09-.744Zm.094-1.622.726-.173-.726.173ZM3.667 2.222l-.218-.723.218.723Zm-.811.669-.66-.366.66.366Zm13.09 3.096-.344 2.84 1.485.207.345-2.84-1.486-.207Zm-1.758 4.052a10.48 10.48 0 0 1-.67-.105.644.644 0 0 1-.194-.06l-.767 1.278c.22.135.449.204.673.252.216.046.48.083.777.124l.18-1.489Zm-2.52-2.12c-.04.326-.083.68-.107.989-.02.27-.04.632.03.909l1.45-.345c.006.02-.002-.001-.002-.096 0-.084.004-.194.014-.327.02-.27.06-.588.1-.924l-1.486-.207Zm1.656 1.955a.655.655 0 0 1-.283-.402l-1.45.345c.138.55.48 1.035.966 1.335l.767-1.278Zm2.278-1.047c-.042.34-.069.56-.1.728a.88.88 0 0 1-.07.25l1.32.73c.117-.219.178-.448.221-.679.042-.225.075-.501.114-.822l-1.485-.207Zm-1.595 2.701c.298.042.561.079.782.093.227.015.465.01.71-.06l-.436-1.445a.634.634 0 0 1-.202.005c-.153-.01-.353-.037-.673-.082l-.18 1.49Zm1.425-1.724a.623.623 0 0 1-.37.312l.437 1.445a2.085 2.085 0 0 0 1.252-1.026l-1.32-.73Zm-.564-5.376c.32.044.52.073.67.105.143.03.184.054.194.06l.767-1.278a2.08 2.08 0 0 0-.672-.252c-.217-.047-.48-.083-.778-.124l-.18 1.489Zm2.564 1.766c.039-.322.073-.598.086-.827a2.338 2.338 0 0 0-.053-.717l-1.45.345a.897.897 0 0 1 .008.26c-.01.171-.036.391-.077.732l1.486.207Zm-1.7-1.6a.655.655 0 0 1 .283.401l1.45-.345a2.191 2.191 0 0 0-.966-1.335l-.766 1.278Zm-.683-1.655a11.035 11.035 0 0 0-.781-.093 2.035 2.035 0 0 0-.71.06l.435 1.445a.631.631 0 0 1 .203-.005c.153.01.353.037.672.082l.181-1.49Zm-1.637 3.056c.04-.335.08-.654.123-.92.022-.132.044-.24.064-.32.023-.092.036-.111.026-.092l-1.32-.731c-.134.248-.202.605-.246.87-.05.306-.094.66-.133.986l1.486.207Zm.145-3.089a2.084 2.084 0 0 0-1.252 1.026l1.32.73a.623.623 0 0 1 .368-.31l-.436-1.446ZM3.001 7.074l.345-2.84-1.486-.207-.344 2.84L3 7.074ZM4.08 8.632a9.575 9.575 0 0 1-.67-.105.644.644 0 0 1-.194-.06l-.767 1.278c.22.135.45.205.673.253.216.046.48.082.777.123l.181-1.489ZM1.516 6.867c-.04.321-.073.597-.086.826-.014.235-.01.473.052.717l1.45-.345a.898.898 0 0 1-.008-.26c.01-.17.036-.391.077-.731l-1.485-.207Zm1.699 1.6a.655.655 0 0 1-.282-.402l-1.45.345c.138.55.479 1.035.965 1.335l.767-1.278Zm2.321-1.402c-.04.336-.08.655-.124.92a4.09 4.09 0 0 1-.064.32c-.023.092-.035.111-.025.093l1.32.73c.133-.248.201-.604.246-.87.05-.305.093-.66.133-.986l-1.486-.207Zm-1.638 3.056c.298.042.562.079.782.093.228.015.466.011.71-.06L4.954 8.71a.632.632 0 0 1-.202.005 10.5 10.5 0 0 1-.673-.082l-.18 1.49Zm1.425-1.723a.623.623 0 0 1-.369.311l.436 1.445a2.085 2.085 0 0 0 1.253-1.026l-1.32-.73ZM4.76 3.02c.32.045.52.073.67.105.142.03.183.054.194.06L6.39 1.91a2.08 2.08 0 0 0-.672-.253c-.216-.046-.48-.082-.778-.124l-.18 1.49Zm2.52 2.12c.04-.325.083-.68.106-.988.021-.27.04-.633-.03-.91l-1.45.346c-.005-.021.002 0 .003.095 0 .085-.005.194-.015.328a22.5 22.5 0 0 1-.1.923l1.486.207ZM5.624 3.188a.655.655 0 0 1 .282.402l1.45-.346A2.192 2.192 0 0 0 6.39 1.91l-.766 1.278ZM4.94 1.532c-.298-.041-.561-.078-.781-.093a2.035 2.035 0 0 0-.71.06l.436 1.446a.632.632 0 0 1 .202-.006c.153.01.353.038.673.082l.18-1.489ZM3.346 4.233c.041-.34.068-.56.1-.728a.882.882 0 0 1 .07-.249l-1.32-.73a2.266 2.266 0 0 0-.222.678c-.042.225-.075.501-.114.823l1.486.206ZM3.449 1.5a2.085 2.085 0 0 0-1.253 1.026l1.32.731a.623.623 0 0 1 .369-.311L3.449 1.5Zm2.998 4.284 6.131.853.181-1.489-6.132-.853-.18 1.49ZM12.5 7.277l-6.132-.853-.18 1.49 6.131.852.18-1.489Zm-1.17 13.735.457.583-.456-.583Zm.219-2.544-.721.207c-.1-.402.14-.82.539-.935l.182.728Zm.293 1.595.738.072-.738-.072Zm-3.677 1.055-.605.458.605-.458Zm.886.548-.123.75.123-.75Zm-1.677-6.705-.457-.583.457.583Zm-.512.949-.738-.072.738.072Zm2.791-1.603.124-.75-.124.75Zm1.377 2.086.182.728a.72.72 0 0 1-.903-.521l.72-.207Zm-.49-1.538.605-.458-.605.458Zm10.637 3.33.457.584-.457-.583Zm.512-.948.737.072-.737-.072Zm-4.168-.483-.182-.728a.72.72 0 0 1 .903.52l-.72.208Zm.49 1.538-.605.457.605-.457Zm.886.548-.123.75.123-.75Zm-1.677-6.705-.457-.583.457.583Zm-.218 2.544.72-.207a.78.78 0 0 1-.538.934l-.182-.727Zm-.294-1.595-.737-.072.737.072Zm2.792-1.603.123-.75-.123.75Zm.886.548.605-.458-.605.458ZM7.79 16.952l.692 2.767-1.442.413-.692-2.766 1.442-.414Zm2.245 3.765c.312-.09.507-.146.652-.2a.664.664 0 0 0 .187-.088l.913 1.166c-.2.164-.417.265-.633.344-.208.076-.464.15-.755.233l-.364-1.455Zm2.235-2.456c.08.318.166.663.227.966.054.264.118.622.083.907l-1.475-.143c-.003.022.002 0-.01-.094a4.054 4.054 0 0 0-.054-.321 22.349 22.349 0 0 0-.213-.901l1.442-.414Zm-1.396 2.168a.67.67 0 0 0 .23-.438l1.476.143a2.244 2.244 0 0 1-.793 1.46l-.913-1.165Zm-2.392-.71c.083.331.137.546.189.707a.86.86 0 0 0 .1.235l-1.211.915a2.26 2.26 0 0 1-.305-.644c-.07-.218-.136-.487-.215-.8l1.442-.413Zm1.917 2.453c-.29.083-.546.157-.762.203-.224.047-.46.076-.71.04l.248-1.498c.013.002.06.006.203-.024.15-.031.346-.087.657-.176l.364 1.455ZM8.77 20.66c.107.15.256.235.405.256l-.247 1.498a2.035 2.035 0 0 1-1.368-.84l1.21-.914Zm-.1-5.405c-.312.09-.507.146-.652.2a.663.663 0 0 0-.188.088l-.913-1.166c.2-.165.418-.265.633-.344.209-.077.465-.15.755-.233l.364 1.455Zm-2.322 2.11c-.078-.313-.146-.582-.187-.807a2.35 2.35 0 0 1-.037-.72l1.476.143a.891.891 0 0 0 .023.257c.03.167.084.382.167.713l-1.442.414Zm1.482-1.822a.67.67 0 0 0-.23.438l-1.476-.144c.07-.566.349-1.095.793-1.46l.913 1.166Zm.475-1.743c.29-.084.547-.158.763-.203.223-.047.459-.076.709-.04l-.247 1.498a.637.637 0 0 0-.204.023c-.15.032-.346.088-.657.177L8.305 13.8Zm2.005 2.8c-.082-.327-.16-.638-.236-.894a4.043 4.043 0 0 0-.103-.308c-.034-.088-.049-.104-.036-.086l1.21-.915c.165.229.276.573.353.83.088.296.174.641.254.96l-1.442.413Zm-.532-3.043a2.035 2.035 0 0 1 1.368.84l-1.21.915a.607.607 0 0 0-.405-.256l.247-1.499Zm10.984 2.638-.692-2.767 1.441-.414.692 2.767-1.441.414Zm-.88 1.696c.312-.09.507-.146.652-.2a.662.662 0 0 0 .187-.088l.914 1.166a2.12 2.12 0 0 1-.634.344c-.208.076-.464.15-.754.233l-.364-1.455Zm2.321-2.11c.079.313.146.582.188.807.042.232.067.469.036.72l-1.475-.143a.891.891 0 0 0-.024-.257 12.78 12.78 0 0 0-.166-.713l1.441-.414Zm-1.482 1.822a.67.67 0 0 0 .23-.438l1.476.143a2.244 2.244 0 0 1-.792 1.46l-.914-1.165Zm-2.478-1.056c.082.326.16.637.236.894.038.128.072.23.103.308.034.087.049.104.036.086l-1.211.915c-.164-.229-.275-.573-.352-.831-.088-.295-.174-.64-.254-.958l1.442-.414Zm2.004 2.799c-.29.083-.547.157-.763.203a2.01 2.01 0 0 1-.71.04l.248-1.498c.013.002.06.006.203-.024.151-.031.346-.087.658-.176l.364 1.455Zm-1.63-1.511a.61.61 0 0 0 .405.256l-.247 1.498a2.034 2.034 0 0 1-1.368-.84l1.21-.914Zm-.1-5.405c-.312.09-.507.146-.652.2a.665.665 0 0 0-.187.088l-.914-1.166c.2-.165.418-.265.634-.344.208-.077.464-.15.755-.233l.363 1.455Zm-2.235 2.456c-.08-.318-.166-.663-.227-.966-.054-.264-.118-.622-.083-.908l1.475.144c.003-.023-.002 0 .01.093.01.084.027.191.054.322.054.264.131.574.213.901l-1.442.414Zm1.396-2.168a.67.67 0 0 0-.23.438l-1.476-.144c.07-.566.348-1.095.792-1.46l.914 1.166Zm.474-1.743c.29-.083.547-.157.763-.203a2.01 2.01 0 0 1 .71-.04l-.248 1.498a.637.637 0 0 0-.203.023c-.15.032-.346.088-.657.177l-.364-1.455Zm1.918 2.453a12.758 12.758 0 0 0-.189-.707.861.861 0 0 0-.1-.235l1.211-.915c.144.202.233.42.305.644.07.217.136.486.214.8l-1.441.413Zm-.446-2.697a2.035 2.035 0 0 1 1.368.84l-1.21.915a.607.607 0 0 0-.405-.256l.247-1.499Zm-2.439 4.675-5.972 1.715-.364-1.455 5.972-1.715.364 1.455Zm-5.817 2.334 5.972-1.714.364 1.455-5.972 1.714-.364-1.455Z"/>
</svg>
