<svg xmlns="http://www.w3.org/2000/svg" width="24" height="24" fill="none">
  <path fill="#1C274C" d="M8 12.862h-.75H8Zm0 .616h.75H8ZM6.58 15.33l-.211-.72.211.72Zm-2 .587-.211-.72.211.72ZM2 14.064h.75H2Zm0-1.923h.75H2Zm.44-1.352-.577-.479.578.479ZM12 7v.75V7Zm9.37 2.856.5-.56-.5.56ZM16 13.25h-.75.75Zm1.7 1.912-.108.743.108-.742Zm2 .294.11-.742-.11.742Zm2.3-1.913h-.75.75Zm0-2.125h.75H22Zm-10-.022v-.75.75Zm-4.75 1.466v.616h1.5v-.616h-1.5Zm-.881 1.748-2 .586.422 1.44 2-.587-.422-1.44Zm-3.619-.546v-1.923h-1.5v1.923h1.5Zm.268-2.797C3.902 10.201 6.513 7.75 12 7.75v-1.5c-6.01 0-9.021 2.714-10.137 4.06l1.155.957ZM12 7.75c5.233 0 7.865 1.767 8.87 2.665l1-1.118C20.594 8.157 17.609 6.25 12 6.25v1.5Zm3.25 5.112v.388h1.5v-.388h-1.5Zm2.342 3.043 2 .293.217-1.485-2-.293-.217 1.485Zm5.158-2.362v-2.125h-1.5v2.125h1.5ZM16 12.862c.75 0 .75-.001.75-.002v-.016a.764.764 0 0 0-.004-.067 1.498 1.498 0 0 0-.126-.455 2.055 2.055 0 0 0-.677-.798c-.686-.503-1.874-.878-3.943-.878v1.5c1.93 0 2.743.358 3.057.588.149.11.19.192.198.21.005.01.004.011.001-.002a.304.304 0 0 1-.006-.065v-.013c0-.001 0-.002.75-.002Zm-4-2.216c-2.07 0-3.257.375-3.943.878-.351.257-.56.54-.677.798a1.499 1.499 0 0 0-.126.455 1.005 1.005 0 0 0-.004.067v.016s0 .002.75.002.75 0 .75.002v.006a.844.844 0 0 1-.006.072c-.003.013-.004.012.001.001a.6.6 0 0 1 .198-.209c.314-.23 1.126-.588 3.057-.588v-1.5Zm7.592 5.552c1.634.24 3.158-.985 3.158-2.655h-1.5c0 .698-.655 1.286-1.44 1.17l-.218 1.485Zm1.279-5.783c.242.217.379.563.379 1.003h1.5c0-.733-.23-1.542-.88-2.121l-1 1.118ZM2.75 12.141c0-.367.093-.662.268-.874l-1.155-.957c-.457.552-.613 1.22-.613 1.831h1.5Zm12.5 1.109c0 1.347 1.014 2.46 2.342 2.655l.217-1.485c-.628-.092-1.059-.604-1.059-1.17h-1.5ZM4.37 15.196c-.838.245-1.62-.368-1.62-1.132h-1.5c0 1.833 1.81 3.079 3.54 2.571l-.421-1.44Zm2.88-1.718c0 .505-.343.974-.881 1.132l.422 1.44c1.149-.338 1.959-1.372 1.959-2.572h-1.5Z"/>
</svg>
