<svg xmlns="http://www.w3.org/2000/svg" width="24" height="24" fill="none">
  <path fill="#1C274C" d="m8.008 12.895-.75.02.75-.02Zm.016.63.75-.018-.75.019Zm-1.37 1.857-.2-.723.2.723Zm-1.981.546.2.723-.2-.723Zm-2.623-1.96-.75.018.75-.019ZM2 12l.75-.019L2 12Zm9.85-4.995.02-.75-.02.75Zm8.918 3.72a.75.75 0 1 0 1.016-1.104l-1.016 1.103Zm-4.775 2.38.75-.019-.75.019Zm.01.397.75-.019-.75.019Zm1.746 2 .13-.738-.13.738Zm2.004.353.13-.739-.13.739Zm-7.79-4.354.02-.75-.02.75Zm10.786 2.44a.75.75 0 1 0-1.5.037l1.5-.037ZM2.406 10.628l-.585-.468.585.469Zm5.357-3.985a.75.75 0 1 0 .342 1.46l-.342-1.46ZM4.724 9.536a.75.75 0 1 0-.835-1.247l.835 1.247Zm2.534 3.378.016.63 1.5-.037-.016-.63-1.5.037Zm-.803 1.745-1.982.546.4 1.446 1.98-.546-.398-1.446Zm-3.655-.71-.05-1.967-1.499.038.05 1.966 1.5-.038Zm9.03-6.193c5.22.138 7.9 2.013 8.938 2.97l1.016-1.104c-1.29-1.188-4.312-3.218-9.914-3.365l-.04 1.5Zm3.413 5.369.01.397 1.5-.038-.01-.397-1.5.038Zm2.376 3.117 2.004.352.26-1.477-2.004-.352-.26 1.477Zm-1.626-3.136.75-.02v-.016l-.002-.02a1.044 1.044 0 0 0-.024-.166 1.569 1.569 0 0 0-.112-.33 2.18 2.18 0 0 0-.675-.807c-.686-.523-1.876-.94-3.947-.995l-.04 1.5c1.921.05 2.747.436 3.077.688.16.121.21.216.225.246.007.016.007.022.005.012a.26.26 0 0 1-.005-.046l-.001-.013v-.012c0-.001 0-.002.75-.021Zm-4.01-2.354c-2.065-.054-3.254.297-3.94.804-.352.26-.557.55-.669.814a1.497 1.497 0 0 0-.114.46 1.033 1.033 0 0 0-.002.076v.006c0 .001 0 .002.75-.017.75-.018.75-.018.75-.016v.005a.58.58 0 0 1-.004.07c-.002.012-.003.012.001.002a.507.507 0 0 1 .179-.193c.293-.217 1.082-.562 3.01-.511l.039-1.5Zm7.64 5.842c1.664.293 3.169-.953 3.126-2.653l-1.5.038c.019.721-.605 1.272-1.366 1.138l-.26 1.477ZM2.751 11.982c-.01-.385.079-.681.24-.884l-1.17-.937c-.45.561-.585 1.244-.57 1.859l1.5-.038Zm12.502 1.54c.034 1.343 1.044 2.487 2.366 2.72l.26-1.477c-.636-.112-1.11-.668-1.126-1.28l-1.5.037Zm-10.78 1.683c-.796.22-1.652-.41-1.673-1.257l-1.5.038c.046 1.809 1.824 3.148 3.572 2.665l-.399-1.446Zm2.801-1.66c.014.53-.319.976-.82 1.114l.4 1.446a2.607 2.607 0 0 0 1.92-2.598l-1.5.038Zm.83-5.44c1.05-.245 2.283-.387 3.726-.349l.04-1.5c-1.565-.04-2.927.112-4.107.388l.342 1.46Zm-5.112 2.993a7.715 7.715 0 0 1 1.732-1.562L3.89 8.289a9.217 9.217 0 0 0-2.068 1.872l1.17.937Z"/>
</svg>
