<svg xmlns="http://www.w3.org/2000/svg" width="24" height="24" fill="none">
  <path fill="#1C274C" d="m5.505 11.41.53.53-.53-.53ZM3 14.952h-.75H3ZM9.048 21v.75V21ZM11.41 5.505l-.53-.53.53.53Zm6.555 6.555-5.905 5.905 1.06 1.06 5.905-5.904-1.06-1.06Zm-11.93-.12 5.905-5.905-1.06-1.06-5.905 5.904 1.06 1.06Zm0 6.025c-.85-.85-1.433-1.436-1.812-1.933-.367-.481-.473-.79-.473-1.08h-1.5c0 .749.312 1.375.78 1.99.455.596 1.125 1.263 1.945 2.083l1.06-1.06Zm-1.06-7.086c-.82.82-1.49 1.488-1.945 2.084-.468.614-.78 1.24-.78 1.99h1.5c0-.29.106-.6.473-1.08.38-.498.962-1.083 1.812-1.933l-1.06-1.06Zm7.085 7.086c-.85.85-1.435 1.433-1.933 1.813-.48.366-.79.472-1.08.472v1.5c.75 0 1.376-.312 1.99-.78.596-.455 1.264-1.125 2.084-1.945l-1.06-1.06Zm-7.085 1.06c.82.82 1.487 1.49 2.084 1.945.614.468 1.24.78 1.989.78v-1.5c-.29 0-.599-.106-1.08-.473-.497-.38-1.083-.962-1.933-1.812l-1.06 1.06Zm12.99-12.99c.85.85 1.433 1.436 1.813 1.933.366.481.472.79.472 1.08h1.5c0-.749-.312-1.375-.78-1.99-.455-.596-1.125-1.263-1.945-2.083l-1.06 1.06Zm1.06 7.086c.82-.82 1.49-1.488 1.945-2.084.468-.614.78-1.24.78-1.99h-1.5c0 .29-.106.6-.473 1.08-.38.498-.962 1.083-1.812 1.933l1.06 1.06Zm0-8.146c-.82-.82-1.487-1.49-2.084-1.945-.614-.468-1.24-.78-1.989-.78v1.5c.29 0 .599.106 1.08.473.497.38 1.083.962 1.933 1.812l1.06-1.06Zm-7.085 1.06c.85-.85 1.435-1.433 1.933-1.812.48-.367.79-.473 1.08-.473v-1.5c-.75 0-1.376.312-1.99.78-.596.455-1.264 1.125-2.084 1.945l1.06 1.06Z"/>
  <path fill="#1C274C" d="M13.241 17.844a.75.75 0 0 0 1.06-1.06l-1.06 1.06ZM7.216 9.698a.75.75 0 1 0-1.06 1.061l1.06-1.06Zm7.086 7.086L7.216 9.698l-1.06 1.061 7.085 7.085 1.06-1.06Z" opacity=".5"/>
  <path stroke="#1C274C" stroke-linecap="round" stroke-width="1.5" d="M9 21h12" opacity=".5"/>
</svg>
