<svg xmlns="http://www.w3.org/2000/svg" width="24" height="24" fill="none">
  <g fill="#1C274C" fill-rule="evenodd" clip-rule="evenodd">
    <path d="M12.888 16.896c-.526.526-.973.974-1.378 1.283-.432.329-.902.571-1.478.571s-1.046-.242-1.478-.571c-.405-.31-.852-.757-1.379-1.283l-.07-.071c-.527-.527-.975-.974-1.284-1.38-.329-.43-.571-.901-.571-1.477 0-.576.242-1.046.571-1.478.31-.405.757-.852 1.283-1.378l4.008-4.008c.526-.526.973-.974 1.378-1.283.432-.329.902-.571 1.478-.571s1.046.242 1.478.571c.405.31.852.757 1.379 1.283l.07.071c.527.527.975.974 1.284 1.38.329.43.571.901.571 1.477 0 .576-.242 1.046-.571 1.478-.31.405-.757.852-1.283 1.378l-4.008 4.008ZM12.137 8.2c.571-.571.948-.946 1.263-1.186.298-.228.452-.264.568-.264.116 0 .27.036.568.264.315.24.692.615 1.264 1.186.571.572.946.949 1.186 1.264.228.298.264.452.264.568 0 .116-.036.27-.264.568-.24.315-.615.692-1.186 1.263l-2.62 2.619-3.662-3.663L12.137 8.2Zm-3.68 3.68 3.663 3.663-.257.257c-.571.571-.948.946-1.263 1.186-.298.228-.452.264-.568.264-.116 0-.27-.036-.568-.264-.315-.24-.692-.615-1.264-1.186-.571-.572-.946-.949-1.186-1.264-.228-.298-.264-.452-.264-.568 0-.116.036-.27.264-.568.24-.315.615-.692 1.186-1.263l.257-.257Z"/>
    <path d="M11.943 1.25c-2.309 0-4.118 0-5.53.19-1.444.194-2.584.6-3.479 1.494-.895.895-1.3 2.035-1.494 3.48-.19 1.411-.19 3.22-.19 5.529v.114c0 2.309 0 4.118.19 5.53.194 1.444.6 2.584 1.494 3.479.895.895 2.035 1.3 3.48 1.494 1.411.19 3.22.19 5.529.19h.114c2.309 0 4.118 0 5.53-.19 1.444-.194 2.584-.6 3.479-1.494.895-.895 1.3-2.035 1.494-3.48.19-1.411.19-3.22.19-5.529v-.114c0-2.309 0-4.118-.19-5.53-.194-1.444-.6-2.584-1.494-3.479-.895-.895-2.035-1.3-3.48-1.494-1.411-.19-3.22-.19-5.529-.19h-.114ZM3.995 3.995c.57-.57 1.34-.897 2.619-1.069 1.3-.174 3.008-.176 5.386-.176s4.086.002 5.386.176c1.279.172 2.05.5 2.62 1.069.569.57.896 1.34 1.068 2.619.174 1.3.176 3.008.176 5.386s-.002 4.086-.176 5.386c-.172 1.279-.5 2.05-1.069 2.62-.57.569-1.34.896-2.619 1.068-1.3.174-3.008.176-5.386.176s-4.086-.002-5.386-.176c-1.279-.172-2.05-.5-2.62-1.069-.569-.57-.896-1.34-1.068-2.619-.174-1.3-.176-3.008-.176-5.386s.002-4.086.176-5.386c.172-1.279.5-2.05 1.069-2.62Z"/>
  </g>
</svg>
