<svg xmlns="http://www.w3.org/2000/svg" width="24" height="24" fill="none">
  <path fill="#1C274C" fill-rule="evenodd" d="M13.083 19.063c-.444.444-.843.843-1.21 1.187H21a.75.75 0 0 1 0 1.5H9c-.018 0-.037 0-.055-.002-.703-.027-1.3-.331-1.886-.778-.588-.448-1.244-1.104-2.046-1.907l-.076-.076c-.803-.802-1.459-1.458-1.907-2.046-.468-.614-.78-1.24-.78-1.989 0-.748.312-1.375.78-1.989.448-.587 1.104-1.243 1.907-2.046l5.98-5.98c.803-.803 1.459-1.459 2.046-1.907.614-.468 1.24-.78 1.99-.78.748 0 1.374.312 1.988.78.588.448 1.244 1.104 2.046 1.907l.076.076c.803.802 1.459 1.458 1.907 2.046.468.614.78 1.24.78 1.989 0 .748-.312 1.375-.78 1.989-.448.587-1.104 1.243-1.907 2.046l-5.98 5.98ZM11.94 6.035c.85-.85 1.435-1.433 1.933-1.812.48-.367.79-.473 1.08-.473.288 0 .598.106 1.079.473.497.38 1.083.962 1.933 1.812.85.85 1.433 1.436 1.813 1.933.366.481.472.79.472 1.08 0 .289-.106.599-.473 1.079-.38.498-.962 1.083-1.812 1.933l-4.194 4.193-6.024-6.024 4.193-4.194ZM9.048 20.25c.289 0 .599-.106 1.079-.473.498-.38 1.083-.962 1.933-1.812l.65-.651-6.024-6.025-.65.65c-.85.85-1.434 1.436-1.813 1.934-.367.48-.473.79-.473 1.08 0 .288.106.598.473 1.079.38.497.962 1.083 1.812 1.933.85.85 1.436 1.433 1.933 1.813.481.366.79.472 1.08.472Z" clip-rule="evenodd"/>
</svg>
