<svg xmlns="http://www.w3.org/2000/svg" width="24" height="24" fill="none">
  <path fill="#1C274C" fill-rule="evenodd" d="M12 2C6.477 2 2 6.477 2 12s4.477 10 10 10 10-4.477 10-10S17.523 2 12 2Zm-.394 5.67C12.72 6.557 13.276 6 13.968 6c.692 0 1.249.557 2.362 1.67S18 9.34 18 10.032c0 .692-.557 1.248-1.67 2.362l-2.619 2.618-4.723-4.723 2.618-2.619Zm-3.679 3.68 4.724 4.723-.257.257C11.28 17.443 10.724 18 10.032 18c-.692 0-1.249-.557-2.362-1.67S6 14.66 6 13.968c0-.692.557-1.248 1.67-2.362l.257-.257Z" clip-rule="evenodd"/>
</svg>
