<svg xmlns="http://www.w3.org/2000/svg" width="24" height="24" fill="none">
  <path fill="#1C274C" fill-rule="evenodd" d="M12 22c5.523 0 10-4.477 10-10S17.523 2 12 2 2 6.477 2 12s4.477 10 10 10ZM6.75 12c0-.255.018-.505.053-.75H10a.75.75 0 0 0 0-1.5H7.255a5.25 5.25 0 0 1 7.37-2.298.75.75 0 1 0 .75-1.299 6.753 6.753 0 0 0-9.74 3.597H5a.75.75 0 0 0 0 1.5h.291a6.823 6.823 0 0 0 0 1.5H5a.75.75 0 0 0 0 1.5h.634a6.753 6.753 0 0 0 9.742 3.596.75.75 0 1 0-.752-1.298 5.25 5.25 0 0 1-7.37-2.298H10a.75.75 0 0 0 0-1.5H6.803A5.295 5.295 0 0 1 6.75 12Z" clip-rule="evenodd"/>
</svg>
