<svg xmlns="http://www.w3.org/2000/svg" width="24" height="24" fill="none">
  <path fill="#1C274C" fill-rule="evenodd" d="M12 22c-4.714 0-7.071 0-8.536-1.465C2 19.072 2 16.714 2 12s0-7.071 1.464-8.536C4.93 2 7.286 2 12 2c4.714 0 7.071 0 8.535 1.464C22 4.93 22 7.286 22 12c0 4.714 0 7.071-1.465 8.535C19.072 22 16.714 22 12 22Zm-3-5.25a.75.75 0 0 1 0-1.5h6a.75.75 0 0 1 0 1.5H9Zm1-6.25c0 .828-.448 1.5-1 1.5s-1-.672-1-1.5S8.448 9 9 9s1 .672 1 1.5Zm5 1.5c.552 0 1-.672 1-1.5S15.552 9 15 9s-1 .672-1 1.5.448 1.5 1 1.5Z" clip-rule="evenodd"/>
</svg>
