<svg xmlns="http://www.w3.org/2000/svg" width="24" height="24" fill="none">
  <path fill="#1C274C" fill-rule="evenodd" d="M22.295 6.31a.75.75 0 0 1 .394.986L22 7l.69.296v.001l-.002.003-.003.007-.01.024-.039.084a13.858 13.858 0 0 1-.727 1.321 15.053 15.053 0 0 1-1.846 2.394l.968.969a.75.75 0 0 1-1.06 1.06l-1.001-1a11.548 11.548 0 0 1-2.274 1.497l.934 1.435a.75.75 0 1 1-1.258.818l-1.089-1.674c-.78.255-1.623.428-2.532.49V16.5a.75.75 0 0 1-1.5 0v-1.775a10.46 10.46 0 0 1-2.46-.466l-1.074 1.65a.75.75 0 1 1-1.258-.818l.913-1.402a11.503 11.503 0 0 1-2.293-1.49l-.96.96a.75.75 0 0 1-1.061-1.06l.924-.924A15.03 15.03 0 0 1 1.514 7.72a9.524 9.524 0 0 1-.188-.388l-.01-.025-.004-.007v-.003H1.31L2 7l-.69.296a.75.75 0 0 1 1.379-.592v.002l.007.014.029.063a12.39 12.39 0 0 0 .65 1.177c.475.76 1.197 1.747 2.18 2.662.867.805 1.928 1.546 3.197 2.034A8.97 8.97 0 0 0 12 13.25a8.963 8.963 0 0 0 3.312-.619c1.262-.497 2.316-1.243 3.175-2.049a13.303 13.303 0 0 0 2.789-3.8l.028-.063.006-.013v-.001m.985-.394a.75.75 0 0 0-.984.394l.984-.394ZM2.69 6.704Z" clip-rule="evenodd"/>
</svg>
