<svg xmlns="http://www.w3.org/2000/svg" width="24" height="24" fill="none">
  <g fill="#1C274C">
    <path d="M9.75 12a2.25 2.25 0 1 1 4.5 0 2.25 2.25 0 0 1-4.5 0Z"/>
    <path fill-rule="evenodd" d="M2 12c0 1.64.425 2.191 1.275 3.296C4.972 17.5 7.818 20 12 20c4.182 0 7.028-2.5 8.725-4.704C21.575 14.192 22 13.639 22 12c0-1.64-.425-2.191-1.275-3.296C19.028 6.5 16.182 4 12 4 7.818 4 4.972 6.5 3.275 8.704 2.425 9.81 2 10.361 2 12Zm10-3.75a3.75 3.75 0 1 0 0 7.5 3.75 3.75 0 0 0 0-7.5Z" clip-rule="evenodd"/>
  </g>
</svg>
