<svg xmlns="http://www.w3.org/2000/svg" width="24" height="24" fill="none">
  <g fill="#1C274C">
    <path d="M16 10.5c0 .829-.448 1.5-1 1.5-.553 0-1-.671-1-1.5 0-.828.447-1.5 1-1.5.552 0 1 .672 1 1.5Zm-6 0c0 .829-.448 1.5-1 1.5s-1-.671-1-1.5C8 9.672 8.448 9 9 9s1 .672 1 1.5Z"/>
    <path fill-rule="evenodd" d="M13.265 2.051a.75.75 0 0 1 .884-.586 10.762 10.762 0 0 1 8.386 8.386.75.75 0 0 1-1.47.298 9.262 9.262 0 0 0-7.214-7.214.75.75 0 0 1-.586-.884Zm-2.53 0a.75.75 0 0 1-.586.884 9.262 9.262 0 0 0-7.214 7.215.75.75 0 0 1-1.47-.299A10.762 10.762 0 0 1 9.85 1.465a.75.75 0 0 1 .884.586ZM2.051 13.265a.75.75 0 0 1 .884.586 9.262 9.262 0 0 0 7.214 7.214.75.75 0 1 1-.298 1.47 10.762 10.762 0 0 1-8.386-8.385.75.75 0 0 1 .586-.885Zm19.898 0a.75.75 0 0 1 .586.885 10.762 10.762 0 0 1-8.386 8.385.75.75 0 0 1-.298-1.47 9.262 9.262 0 0 0 7.214-7.214.75.75 0 0 1 .884-.586ZM8.397 15.554a.75.75 0 0 1 1.05-.156c.728.54 1.607.852 2.553.852s1.825-.312 2.553-.852a.75.75 0 1 1 .893 1.205A5.766 5.766 0 0 1 12 17.75a5.766 5.766 0 0 1-3.447-1.147.75.75 0 0 1-.156-1.05Z" clip-rule="evenodd"/>
  </g>
</svg>
