<svg xmlns="http://www.w3.org/2000/svg" width="24" height="24" fill="none">
  <g fill="#1C274C">
    <path fill-rule="evenodd" d="M8.95 8.25h6.1c.664 0 1.237 0 1.696.062.492.066.963.215 1.345.597s.531.854.597 1.345c.062.459.062 1.032.062 1.697v4.098c0 .665 0 1.238-.062 1.697-.066.492-.215.963-.597 1.345s-.854.531-1.345.597c-.459.062-1.032.062-1.696.062h-6.1c-.664 0-1.237 0-1.696-.062-.491-.066-.963-.215-1.345-.597s-.531-.854-.597-1.345c-.062-.459-.062-1.032-.062-1.697v-4.098c0-.665 0-1.238.062-1.697.066-.491.215-.963.597-1.345s.854-.531 1.345-.597c.459-.062 1.032-.062 1.697-.062ZM7.455 9.798c-.325.044-.427.115-.484.172-.057.057-.128.159-.172.484-.046.347-.048.818-.048 1.546v4c0 .728.002 1.2.048 1.546.044.325.115.427.172.484.057.057.159.128.484.172.347.046.818.048 1.546.048h6c.728 0 1.2-.002 1.546-.048.325-.044.427-.115.484-.172.057-.057.128-.159.172-.484.046-.347.048-.818.048-1.546v-4c0-.728-.002-1.2-.048-1.546-.044-.325-.115-.427-.172-.484-.057-.057-.159-.128-.484-.172-.347-.046-.818-.048-1.546-.048H9c-.728 0-1.2.002-1.546.048Z" clip-rule="evenodd"/>
    <path d="M7 5.25a.75.75 0 0 0 0 1.5h5a.75.75 0 0 0 0-1.5H7Z"/>
    <path fill-rule="evenodd" d="M10.944 1.25h2.112c1.838 0 3.294 0 4.433.153 1.172.158 2.121.49 2.87 1.238.748.749 1.08 1.698 1.238 2.87.153 1.14.153 2.595.153 4.433v4.112c0 1.838 0 3.294-.153 4.433-.158 1.172-.49 2.121-1.238 2.87-.749.748-1.698 1.08-2.87 1.238-1.14.153-2.595.153-4.433.153h-2.112c-1.838 0-3.294 0-4.433-.153-1.172-.158-2.121-.49-2.87-1.238-.748-.749-1.08-1.698-1.238-2.87-.153-1.14-.153-2.595-.153-4.433V9.944c0-1.838 0-3.294.153-4.433.158-1.172.49-2.121 1.238-2.87.749-.748 1.698-1.08 2.87-1.238 1.14-.153 2.595-.153 4.433-.153ZM6.71 2.89c-1.006.135-1.586.389-2.01.812-.422.423-.676 1.003-.811 2.009-.138 1.028-.14 2.382-.14 4.289v4c0 1.907.002 3.262.14 4.29.135 1.005.389 1.585.812 2.008.423.423 1.003.677 2.009.812 1.028.138 2.382.14 4.289.14h2c1.907 0 3.262-.002 4.29-.14 1.005-.135 1.585-.389 2.008-.812.423-.423.677-1.003.812-2.009.138-1.027.14-2.382.14-4.289v-4c0-1.907-.002-3.261-.14-4.29-.135-1.005-.389-1.585-.812-2.008-.423-.423-1.003-.677-2.009-.812-1.027-.138-2.382-.14-4.289-.14h-2c-1.907 0-3.261.002-4.29.14Z" clip-rule="evenodd"/>
  </g>
</svg>
