<svg xmlns="http://www.w3.org/2000/svg" width="24" height="24" fill="none">
  <path fill="#1C274C" fill-rule="evenodd" d="M13.698 3.073a1.75 1.75 0 0 0-3.396 0 3.725 3.725 0 0 0-.097.052L5.41 5.739a3.753 3.753 0 0 0-.242.143 1.75 1.75 0 0 0-1.711 3.024 3.777 3.777 0 0 0-.002.125v4.938c0 .2.016.398.047.593a1.75 1.75 0 1 0 2.095 2.801l1.243.678-1.997 3.595a.75.75 0 1 0 1.312.728l2.002-3.605 2.047 1.116.097.052a1.75 1.75 0 0 0 3.396 0 4.34 4.34 0 0 0 .097-.052l2.047-1.116 2.002 3.605a.75.75 0 1 0 1.312-.728l-1.997-3.595 1.244-.678a1.75 1.75 0 1 0 2.095-2.801c.03-.195.046-.393.046-.593V9.03c0-.042 0-.083-.002-.125a1.75 1.75 0 0 0-1.711-3.024 3.783 3.783 0 0 0-.241-.143l-4.795-2.614a3.725 3.725 0 0 0-.097-.052Zm-3.061 1.525a1.747 1.747 0 0 0 2.726 0l4.452 2.427a1.75 1.75 0 0 0 1.23 2.165v4.779c0 .118-.01.234-.028.349A1.75 1.75 0 0 0 17.75 16v.01l-1.32.72-2.251-4.052a2.75 2.75 0 1 0-4.358 0L7.57 16.73l-1.32-.72V16a1.75 1.75 0 0 0-1.267-1.682 2.252 2.252 0 0 1-.027-.35V9.19a1.75 1.75 0 0 0 1.229-2.165l4.452-2.427Zm4.476 12.85-2.15-3.871a2.745 2.745 0 0 1-1.925 0l-2.151 3.871 1.75.954a1.747 1.747 0 0 1 2.726 0l1.75-.954ZM10.75 11a1.25 1.25 0 1 1 2.5 0 1.25 1.25 0 0 1-2.5 0Z" clip-rule="evenodd"/>
</svg>
