<svg xmlns="http://www.w3.org/2000/svg" width="24" height="24" fill="none">
  <g stroke="#1C274C" stroke-width="1.5">
    <path stroke-linecap="round" d="M14 11a2 2 0 1 1-2-2"/>
    <path d="M20.5 7.5a1 1 0 1 1-2 0 1 1 0 0 1 2 0Zm0 8.5a1 1 0 1 1-2 0 1 1 0 0 1 2 0Zm-15-8.5a1 1 0 1 1-2 0 1 1 0 0 1 2 0Zm0 8.5a1 1 0 1 1-2 0 1 1 0 0 1 2 0ZM12 2.5a1 1 0 1 1 0 2 1 1 0 0 1 0-2Zm0 16a1 1 0 1 1 0 2 1 1 0 0 1 0-2Z"/>
    <path stroke-linecap="round" d="m18.5 22-3.333-6M10.5 13l-5 9"/>
    <path d="M10.564 3.783a3 3 0 0 1 2.872 0l4.794 2.614a3 3 0 0 1 1.564 2.634v4.938a3 3 0 0 1-1.564 2.634l-4.794 2.614a3 3 0 0 1-2.872 0L5.77 16.603a3 3 0 0 1-1.564-2.634V9.03A3 3 0 0 1 5.77 6.397l4.794-2.614Z"/>
  </g>
</svg>
