<svg xmlns="http://www.w3.org/2000/svg" width="24" height="24" fill="none">
  <g fill="#1C274C">
    <path d="m19.352 7.617-3.96-3.563c-1.127-1.015-1.69-1.523-2.383-1.788L13 5c0 2.357 0 3.536.732 4.268C14.464 10 15.643 10 18 10h3.58c-.362-.704-1.012-1.288-2.228-2.383Z"/>
    <path fill-rule="evenodd" d="M14 22h-4c-3.771 0-5.657 0-6.828-1.172C2 19.657 2 17.771 2 14v-4c0-3.771 0-5.657 1.172-6.828C4.343 2 6.239 2 10.03 2c.606 0 1.091 0 1.5.017-.013.08-.02.161-.02.244l-.01 2.834c0 1.097 0 2.067.105 2.848.114.847.375 1.694 1.067 2.386.69.69 1.538.952 2.385 1.066.781.105 1.751.105 2.848.105h4.052c.043.534.043 1.19.043 2.063V14c0 3.771 0 5.657-1.172 6.828C19.657 22 17.771 22 14 22ZM4.25 11.5A2.25 2.25 0 0 1 6.5 9.25h3A2.25 2.25 0 0 1 11.177 13a2.25 2.25 0 0 1-2.427 3.622v.878A2.25 2.25 0 1 1 4.823 16a2.242 2.242 0 0 1-.573-1.5c0-.576.217-1.102.573-1.5a2.242 2.242 0 0 1-.573-1.5Zm1.5 3a.75.75 0 0 1 .75-.75h.75v1.5H6.5a.75.75 0 0 1-.75-.75Zm1.5-2.25H6.5a.75.75 0 0 1 0-1.5h.75v1.5Zm3-.75a.75.75 0 0 1-.75.75h-.75v-1.5h.75a.75.75 0 0 1 .75.75Zm-1.5 3a.75.75 0 1 1 1.5 0 .75.75 0 0 1-1.5 0ZM6.5 16.75h.75v.75a.75.75 0 1 1-.75-.75Z" clip-rule="evenodd"/>
  </g>
</svg>
