<svg xmlns="http://www.w3.org/2000/svg" width="24" height="24" fill="none">
  <g fill="#1C274C">
    <path d="m19.352 7.617-3.96-3.563c-1.127-1.015-1.69-1.523-2.383-1.788L13 5c0 2.357 0 3.536.732 4.268C14.464 10 15.643 10 18 10h3.58c-.362-.704-1.012-1.288-2.228-2.383ZM14 22h-4c-3.771 0-5.657 0-6.828-1.172-.447-.446-.723-.995-.894-1.713-.119-.5-.179-.75-.064-1.042.115-.292.368-.461.874-.799l.626-.417a2.318 2.318 0 0 1 2.572 0 3.09 3.09 0 0 0 3.428 0 2.318 2.318 0 0 1 2.572 0 3.09 3.09 0 0 0 3.428 0 2.318 2.318 0 0 1 2.572 0 3.09 3.09 0 0 0 3.428 0 .162.162 0 0 1 .251.143c-.078 1.872-.328 3.02-1.137 3.828C19.657 22 17.771 22 14 22Z"/>
    <path d="M2 10c0-3.771 0-5.657 1.172-6.828C4.343 2 6.239 2 10.03 2c.606 0 1.091 0 1.5.017-.013.08-.02.161-.02.244l-.01 2.834c0 1.097 0 2.067.105 2.848.114.847.375 1.694 1.067 2.386.69.69 1.538.952 2.385 1.066.781.105 1.751.105 2.848.105h4.088v.827a.624.624 0 0 1-.279.53 3.09 3.09 0 0 1-3.428 0 2.318 2.318 0 0 0-2.572 0 3.09 3.09 0 0 1-3.428 0 2.318 2.318 0 0 0-2.572 0 3.09 3.09 0 0 1-3.428 0 2.318 2.318 0 0 0-2.572 0l-.16.107c-.684.456-1.026.684-1.29.543C2 13.365 2 12.954 2 12.132V10Z"/>
  </g>
</svg>
