<svg xmlns="http://www.w3.org/2000/svg" width="24" height="24" fill="none">
  <g fill="#1C274C">
    <path fill-rule="evenodd" d="M14 22h-4c-3.771 0-5.657 0-6.828-1.172C2 19.657 2 17.771 2 14v-4c0-3.771 0-5.657 1.172-6.828C4.343 2 6.239 2 10.03 2c.606 0 1.091 0 1.5.017-.013.08-.02.161-.02.244l-.01 2.834c0 1.097 0 2.067.105 2.848.114.847.375 1.694 1.067 2.386.69.69 1.538.952 2.385 1.066.781.105 1.751.105 2.848.105h4.052c.043.534.043 1.19.043 2.063V14c0 3.771 0 5.657-1.172 6.828C19.657 22 17.771 22 14 22Z" clip-rule="evenodd" opacity=".5"/>
    <path d="M6 13.75a.75.75 0 0 0 0 1.5h8a.75.75 0 0 0 0-1.5H6Zm0 3.5a.75.75 0 0 0 0 1.5h5.5a.75.75 0 0 0 0-1.5H6Zm5.51-14.99-.01 2.835c0 1.097 0 2.066.105 2.848.114.847.375 1.694 1.067 2.385.69.691 1.538.953 2.385 1.067.781.105 1.751.105 2.848.105h4.052c.013.155.022.321.028.5H22c0-.268 0-.402-.01-.56a5.322 5.322 0 0 0-.958-2.641c-.094-.128-.158-.204-.285-.357C19.954 7.494 18.91 6.312 18 5.5c-.81-.724-1.921-1.515-2.89-2.162-.832-.555-1.248-.833-1.819-1.04a5.488 5.488 0 0 0-.506-.153c-.384-.095-.758-.128-1.285-.14l.01.255Z"/>
  </g>
</svg>
