<svg xmlns="http://www.w3.org/2000/svg" width="24" height="24" fill="none">
  <path fill="#1C274C" fill-rule="evenodd" d="M12.25 2.834c-.46-.078-1.088-.084-2.217-.084-1.918 0-3.28.002-4.314.14-1.012.135-1.594.39-2.017.812-.423.423-.677 1.003-.812 2.009-.138 1.028-.14 2.382-.14 4.29v2.119l.002.042a.25.25 0 0 0 .36.193l.036-.022c.035-.022.08-.053.15-.1a3.07 3.07 0 0 1 3.405 0 2.342 2.342 0 0 0 2.598 0 3.07 3.07 0 0 1 3.404 0 2.342 2.342 0 0 0 2.598 0 3.07 3.07 0 0 1 3.404 0 2.342 2.342 0 0 0 2.542.036c-.016-.715-.062-1.163-.167-1.519h-3.136c-1.133 0-2.058 0-2.79-.098-.763-.103-1.425-.325-1.954-.854-.529-.529-.751-1.19-.854-1.955-.098-.73-.098-1.656-.098-2.79v-2.22Zm1.5.772V5c0 1.2.002 2.024.085 2.643.08.598.224.891.428 1.094.203.204.496.348 1.094.428.619.083 1.443.085 2.643.085h2.026a45.892 45.892 0 0 0-1.17-1.076l-3.96-3.563c-.488-.439-.85-.762-1.146-1.005ZM10.178 1.25c1.385 0 2.28 0 3.103.315.824.316 1.486.912 2.51 1.835l.108.096 3.96 3.563.125.112c1.184 1.065 1.95 1.753 2.362 2.678.319.717.385 1.472.404 2.464.009.473-.227.911-.613 1.168-1.29.86-2.971.86-4.262 0a1.57 1.57 0 0 0-1.74 0c-1.29.86-2.972.86-4.262 0a1.57 1.57 0 0 0-1.74 0c-1.29.86-2.971.86-4.262 0a1.57 1.57 0 0 0-1.74 0l-.03.02c-.106.07-.209.14-.297.185a1.75 1.75 0 0 1-2.543-1.36c-.011-.1-.011-.223-.011-.35V9.944c0-1.838 0-3.294.153-4.433.158-1.172.49-2.121 1.239-2.87.749-.749 1.701-1.08 2.878-1.238 1.144-.153 2.608-.153 4.456-.153h.202ZM5.871 17.481a1.57 1.57 0 0 0-1.74 0l-.626.418a5.946 5.946 0 0 0-.512.36.496.496 0 0 0-.07.07.061.061 0 0 0-.01.018l-.001.002c-.007.017-.013.032-.007.096a4.4 4.4 0 0 0 .103.496c.147.618.369 1.032.694 1.357.424.423 1.004.677 2.01.812 1.028.139 2.383.14 4.29.14h4.002c1.907 0 3.263-.002 4.29-.14 1.007-.135 1.587-.389 2.01-.812.474-.473.73-1.135.852-2.348a3.843 3.843 0 0 1-3.28-.469 1.57 1.57 0 0 0-1.741 0c-1.29.86-2.972.86-4.262 0a1.57 1.57 0 0 0-1.74 0c-1.29.86-2.971.86-4.262 0ZM3.3 16.233a3.07 3.07 0 0 1 3.404 0 2.342 2.342 0 0 0 2.598 0 3.07 3.07 0 0 1 3.404 0 2.342 2.342 0 0 0 2.598 0 3.07 3.07 0 0 1 3.404 0 2.342 2.342 0 0 0 2.598 0 .911.911 0 0 1 1.416.796c-.078 1.883-.327 3.3-1.356 4.33-.749.748-1.698 1.08-2.87 1.238-1.14.153-2.596.153-4.435.153H9.946c-1.838 0-3.294 0-4.434-.153-1.172-.158-2.122-.49-2.87-1.238-.567-.567-.898-1.252-1.093-2.07l-.021-.086c-.1-.416-.215-.887-.012-1.405.116-.293.298-.503.5-.677.177-.15.4-.3.628-.452l.655-.436Z" clip-rule="evenodd"/>
</svg>
