<svg xmlns="http://www.w3.org/2000/svg" width="24" height="24" fill="none">
  <g fill="#1C274C">
    <path d="m19.352 7.617-3.96-3.563c-1.127-1.015-1.69-1.523-2.383-1.788L13 5c0 2.357 0 3.536.732 4.268C14.464 10 15.643 10 18 10h3.58c-.362-.704-1.012-1.288-2.228-2.383Z"/>
    <path fill-rule="evenodd" d="M10 22h4c3.771 0 5.657 0 6.828-1.172C22 19.657 22 17.771 22 14v-.437c0-.873 0-1.529-.043-2.063h-4.052c-1.097 0-2.067 0-2.848-.105-.847-.114-1.694-.375-2.385-1.066-.692-.692-.953-1.539-1.067-2.386-.105-.781-.105-1.75-.105-2.848l.01-2.834c0-.083.007-.164.02-.244C11.121 2 10.636 2 10.03 2 6.239 2 4.343 2 3.172 3.172 2 4.343 2 6.229 2 10v4c0 3.771 0 5.657 1.172 6.828C4.343 22 6.229 22 10 22Zm-4.547-5.487a.75.75 0 0 1 0-1.026l1.875-2a.75.75 0 0 1 1.094 1.026l-.69.737H11a.75.75 0 0 1 0 1.5H7.731l.691.737a.75.75 0 0 1-1.094 1.026l-1.875-2Z" clip-rule="evenodd"/>
  </g>
</svg>
