<svg xmlns="http://www.w3.org/2000/svg" width="24" height="24" fill="none">
  <g fill="#1C274C">
    <path fill-rule="evenodd" d="M14 22h-4c-3.771 0-5.657 0-6.828-1.172C2 19.657 2 17.771 2 14v-4c0-3.771 0-5.657 1.172-6.828C4.343 2 6.239 2 10.03 2c.606 0 1.091 0 1.5.017-.013.08-.02.161-.02.244l-.01 2.834c0 1.097 0 2.067.105 2.848.114.847.375 1.694 1.067 2.386.69.69 1.538.952 2.385 1.066.781.105 1.751.105 2.848.105h4.052c.043.534.043 1.19.043 2.063V14c0 3.771 0 5.657-1.172 6.828C19.657 22 17.771 22 14 22Z" clip-rule="evenodd" opacity=".5"/>
    <path d="m8.854 14.023.098.176c.108.194.162.29.247.354.084.064.189.088.398.135l.191.044c.738.167 1.107.25 1.195.532.088.283-.164.577-.667 1.165l-.13.152c-.143.167-.215.25-.247.354-.032.104-.021.215 0 .438l.02.203c.076.785.114 1.178-.116 1.352-.23.174-.575.015-1.266-.303l-.178-.082c-.197-.09-.295-.136-.399-.136-.104 0-.202.046-.399.136l-.178.082c-.691.319-1.037.477-1.266.303-.23-.174-.192-.567-.116-1.352l.02-.203c.021-.223.032-.334 0-.438-.032-.103-.104-.187-.247-.354l-.13-.152c-.503-.588-.755-.882-.667-1.165.088-.282.457-.365 1.195-.532l.19-.044c.21-.047.315-.07.4-.135.084-.064.138-.16.246-.354l.098-.176C7.526 13.34 7.716 13 8 13c.284 0 .474.34.854 1.023ZM11.51 2.26l-.01 2.835c0 1.097 0 2.066.105 2.848.114.847.375 1.694 1.067 2.385.69.691 1.538.953 2.385 1.067.781.105 1.751.105 2.848.105h4.052c.013.155.022.321.028.5H22c0-.268 0-.402-.01-.56a5.322 5.322 0 0 0-.958-2.641c-.094-.128-.158-.204-.285-.357C19.954 7.494 18.91 6.312 18 5.5c-.81-.724-1.921-1.515-2.89-2.162-.832-.555-1.248-.833-1.819-1.04a5.488 5.488 0 0 0-.506-.153c-.384-.095-.758-.128-1.285-.14l.01.255Z"/>
  </g>
</svg>
