<svg xmlns="http://www.w3.org/2000/svg" width="24" height="24" fill="none">
  <g fill="#1C274C">
    <path fill-rule="evenodd" d="M5 3h14L8.816 13.184a2.705 2.705 0 0 0-.778-1.086c-.228-.198-.547-.377-1.183-.736l-2.913-1.64c-.949-.533-1.423-.8-1.682-1.23C2 8.061 2 7.541 2 6.503v-.69c0-1.326 0-1.99.44-2.402C2.878 3 3.585 3 5 3Z" clip-rule="evenodd"/>
    <path d="M22 6.504v-.69c0-1.326 0-1.99-.44-2.402C21.122 3 20.415 3 19 3L8.815 13.184c.05.129.09.263.121.403.064.285.064.619.064 1.286v2.67c0 .909 0 1.364.252 1.718.252.355.7.53 1.594.88 1.879.734 2.818 1.101 3.486.683.668-.417.668-1.372.668-3.282v-2.67c0-.666 0-1 .063-1.285a2.68 2.68 0 0 1 .9-1.49c.227-.197.545-.376 1.182-.735l2.913-1.64c.948-.533 1.423-.8 1.682-1.23.26-.43.26-.95.26-1.988Z" opacity=".5"/>
  </g>
</svg>
