<svg xmlns="http://www.w3.org/2000/svg" width="24" height="24" fill="none">
  <path fill="#1C274C" fill-rule="evenodd" d="M12.48 2.76c.752-.451 1.728-.473 2.562.13 2.66 1.924 5.708 5.355 5.708 10.221 0 3.806-1.635 6.254-3.718 7.724-1.279.903-2.709 1.426-3.999 1.69a4.128 4.128 0 0 1-1.3.225 4.21 4.21 0 0 1-.327-.013 9.018 9.018 0 0 1-.473.013c-1.46 0-3.62-.484-5.429-1.944-1.841-1.486-3.254-3.929-3.254-7.695 0-3.077 1.625-5.146 3.155-6.313a1.813 1.813 0 0 1 2.004-.164c.584.319.993.934 1.067 1.656l.086.837c.033.322.198.59.37.72a.37.37 0 0 0 .19.083c.036.003.094-.002.179-.057.653-.425 1.149-1.188 1.482-2.086.33-.89.467-1.82.467-2.454V5.01c0-.973.494-1.807 1.23-2.25Zm.151 18.317a9.496 9.496 0 0 1-1.204.157c-.484-.05-1.093-.214-1.603-.564-.585-.4-1.074-1.064-1.074-2.226 0-1.402.868-2.467 1.79-3.149a.16.16 0 0 1 .004.038v.011c0 .228 0 .573.043.931.043.357.134.795.36 1.18.158.269.4.496.729.593.323.095.63.035.87-.078.457-.215.783-.665.92-1.14.412.336.784.86.784 1.615 0 1.203-.447 1.87-.938 2.254-.214.168-.45.291-.68.378Zm2.887-1.055a8.33 8.33 0 0 0 .65-.412c1.695-1.197 3.082-3.194 3.082-6.499 0-4.187-2.622-7.223-5.087-9.006-.325-.234-.65-.215-.91-.059-.276.166-.503.507-.503.964v.323c0 .809-.167 1.916-.56 2.976-.391 1.052-1.04 2.151-2.072 2.822-.734.477-1.526.34-2.091-.088-.534-.403-.886-1.064-.957-1.763l-.086-.838c-.026-.252-.162-.42-.294-.491-.112-.061-.234-.068-.375.04-1.267.967-2.565 2.634-2.565 5.12 0 3.345 1.232 5.346 2.696 6.527.397.321.817.585 1.241.8-.273-.55-.437-1.21-.437-1.993 0-2.104 1.32-3.573 2.448-4.393a1.428 1.428 0 0 1 1.6-.076c.454.274.746.783.746 1.357 0 .235 0 .5.032.764.005.043.011.084.018.124.16-.369.454-.654.803-.806.418-.18.95-.177 1.394.157.7.526 1.459 1.47 1.459 2.873 0 .593-.084 1.118-.232 1.578Z" clip-rule="evenodd"/>
</svg>
