<svg xmlns="http://www.w3.org/2000/svg" width="24" height="24" fill="none">
  <g fill="#1C274C">
    <path fill-rule="evenodd" d="M8.25 22a.75.75 0 0 1 .75-.75h6a.75.75 0 0 1 0 1.5H9a.75.75 0 0 1-.75-.75Z" clip-rule="evenodd"/>
    <path d="M12 8c2.337 0 4.3-1.282 4.848-3.016C17.014 4.458 16.552 4 16 4H8c-.552 0-1.014.458-.847.984C7.7 6.718 9.663 8 12 8Z"/>
    <path d="M12 2c1.657 0 3 .895 3 2H9c0-1.105 1.343-2 3-2Z" opacity=".5"/>
    <path d="M6.455 11.98a3.12 3.12 0 0 0 .174-3.587c-.305-.48-.968-.398-1.318.05L2.78 11.684c-.35.448-.274 1.118.26 1.305 1.2.42 2.585.055 3.416-1.01Z"/>
    <path d="M12 8c.255 0 .505-.015.75-.045V21.25h-1.5v-3.347a3.39 3.39 0 0 0-1.295-2.636l-3.9-2.864a3.093 3.093 0 0 0 .856-1.232l3.94 2.893.012.009c.136.105.265.217.387.334V7.955c.245.03.495.045.75.045Zm-9.561.786a2.033 2.033 0 0 1 2.872-.343L2.78 11.684a2.076 2.076 0 0 1-.34-2.898Z" opacity=".5"/>
  </g>
</svg>
