<svg xmlns="http://www.w3.org/2000/svg" width="24" height="24" fill="none">
  <path fill="#1C274C" fill-rule="evenodd" d="M6.86 1.25h.127c.351 0 .577 0 .798.02a4.75 4.75 0 0 1 2.59 1.073c.17.142.33.302.579.55l.576.577c.846.845 1.171 1.161 1.547 1.37.218.121.449.217.689.286.413.117.866.124 2.062.124h.425c1.273 0 2.3 0 3.111.102.841.106 1.556.332 2.144.86.098.088.192.182.28.28.529.588.754 1.303.86 2.144.102.812.102 1.838.102 3.111v2.31c0 1.837 0 3.293-.153 4.432-.158 1.172-.49 2.121-1.238 2.87-.749.748-1.698 1.08-2.87 1.238-1.14.153-2.595.153-4.433.153H9.944c-1.838 0-3.294 0-4.433-.153-1.172-.158-2.121-.49-2.87-1.238-.748-.749-1.08-1.698-1.238-2.87-.153-1.14-.153-2.595-.153-4.433V6.86c0-.797 0-1.303.082-1.74A4.75 4.75 0 0 1 5.12 1.331c.438-.082.944-.082 1.74-.082Zm.09 1.5c-.917 0-1.271.003-1.553.056a3.25 3.25 0 0 0-2.59 2.591c-.054.282-.057.636-.057 1.553V14c0 1.907.002 3.262.14 4.29.135 1.005.389 1.585.812 2.008.423.423 1.003.677 2.009.812 1.028.138 2.382.14 4.289.14h4c1.907 0 3.262-.002 4.29-.14 1.005-.135 1.585-.389 2.008-.812.423-.423.677-1.003.812-2.009.138-1.027.14-2.382.14-4.289v-2.202c0-1.336-.001-2.268-.09-2.975-.087-.689-.246-1.06-.487-1.328a2.238 2.238 0 0 0-.168-.168c-.268-.241-.64-.4-1.328-.487a8.356 8.356 0 0 0-.427-.041v4.081c0 .119 0 .28-.02.417a.948.948 0 0 1-.43.688.948.948 0 0 1-.808.077 2.964 2.964 0 0 1-.382-.168l-.024-.013L16 11.338l-1.086.543-.024.013c-.106.053-.25.125-.382.168a.948.948 0 0 1-.807-.077.948.948 0 0 1-.431-.688c-.02-.137-.02-.298-.02-.417V6.537a4.75 4.75 0 0 1-.902-.386c-.582-.324-1.06-.801-1.8-1.543l-.078-.078-.55-.55a8.03 8.03 0 0 0-.503-.482 3.25 3.25 0 0 0-1.771-.734 8.029 8.029 0 0 0-.696-.014Zm7.8 3.993v3.543l.736-.367.007-.004c.046-.025.26-.141.507-.141s.46.116.507.14a.234.234 0 0 0 .007.005l.736.367V6.753c-.32-.002-.667-.002-1.048-.002h-.484c-.363 0-.68 0-.968-.007Z" clip-rule="evenodd"/>
</svg>
