<svg xmlns="http://www.w3.org/2000/svg" width="24" height="24" fill="none">
  <path fill="#1C274C" fill-rule="evenodd" d="M2.07 5.258C2 5.626 2 6.068 2 6.95V14c0 3.771 0 5.657 1.172 6.828C4.343 22 6.229 22 10 22h4c3.771 0 5.657 0 6.828-1.172C22 19.657 22 17.771 22 14v-2.202c0-2.632 0-3.949-.77-4.804a2.984 2.984 0 0 0-.224-.225C20.151 6 18.834 6 16.202 6h-.374c-1.153 0-1.73 0-2.268-.153a4 4 0 0 1-.848-.352C12.224 5.224 11.816 4.815 11 4l-.55-.55c-.274-.274-.41-.41-.554-.53a4 4 0 0 0-2.18-.903C7.53 2 7.336 2 6.95 2c-.883 0-1.324 0-1.692.07A4 4 0 0 0 2.07 5.257Zm10.882 5.94-.098-.175C12.474 10.34 12.284 10 12 10c-.284 0-.474.34-.854 1.023l-.098.176c-.108.194-.162.29-.246.354-.085.064-.19.088-.4.135l-.19.044c-.738.167-1.107.25-1.195.532-.088.283.164.577.667 1.165l.13.152c.143.167.215.25.247.354.032.104.021.215 0 .438l-.02.203c-.076.785-.114 1.178.115 1.352.23.174.576.015 1.267-.303l.178-.082c.197-.09.295-.135.399-.135.104 0 .202.045.399.135l.178.082c.691.319 1.037.477 1.267.303.23-.174.191-.567.115-1.352l-.02-.203c-.021-.223-.032-.334 0-.438.032-.103.104-.187.247-.354l.13-.152c.503-.588.755-.882.667-1.165-.088-.282-.457-.365-1.195-.532l-.19-.044c-.21-.047-.315-.07-.4-.135-.084-.064-.138-.16-.246-.354Z" clip-rule="evenodd"/>
</svg>
