<svg xmlns="http://www.w3.org/2000/svg" width="24" height="24" fill="none">
  <path fill="#1C274C" fill-rule="evenodd" d="M2.07 5.258C2 5.626 2 6.068 2 6.95V14c0 3.771 0 5.657 1.172 6.828C4.343 22 6.229 22 10 22h4c3.771 0 5.657 0 6.828-1.172C22 19.657 22 17.771 22 14v-2.202c0-2.632 0-3.949-.77-4.804a2.984 2.984 0 0 0-.224-.225C20.151 6 18.834 6 16.202 6h-.374c-1.153 0-1.73 0-2.268-.153a4 4 0 0 1-.848-.352C12.224 5.224 11.816 4.815 11 4l-.55-.55c-.274-.274-.41-.41-.554-.53a4 4 0 0 0-2.18-.903C7.53 2 7.336 2 6.95 2c-.883 0-1.324 0-1.692.07A4 4 0 0 0 2.07 5.257ZM13.713 16C14.977 16 16 15.052 16 13.882c0-.927-.643-1.714-1.538-2.001C14.335 10.823 13.366 10 12.191 10c-1.263 0-2.286.948-2.286 2.118 0 .258.05.506.142.735a1.86 1.86 0 0 0-.333-.03c-.946 0-1.714.712-1.714 1.589S8.768 16 9.714 16h4Z" clip-rule="evenodd"/>
</svg>
