<svg xmlns="http://www.w3.org/2000/svg" width="24" height="24" fill="none">
  <g fill="#1C274C">
    <path d="M16.07 9.952c1.329 0 2.462 0 3.366.102.154.017.306.038.458.064.532.09 1.05.235 1.53.488v-.85c0-.91 0-1.663-.085-2.264-.09-.635-.286-1.197-.756-1.66a3.082 3.082 0 0 0-.241-.214c-.512-.408-1.126-.575-1.82-.652-.67-.074-1.512-.074-2.545-.074h-.353c-.982 0-1.335-.006-1.653-.087a2.717 2.717 0 0 1-.536-.196c-.285-.14-.532-.351-1.228-.968l-.474-.42a6.91 6.91 0 0 0-.48-.403 4.289 4.289 0 0 0-2.182-.803A8.075 8.075 0 0 0 8.413 2h-.116c-.641 0-1.064 0-1.431.061-1.605.268-2.903 1.39-3.219 2.875-.072.337-.071.724-.071 1.283v4.387c.48-.253.998-.399 1.53-.488.151-.026.304-.047.458-.064.904-.102 2.037-.102 3.367-.102h7.138Z"/>
    <path fill-rule="evenodd" d="M3.358 12.779c-.61.941-.358 2.25.145 4.868.363 1.885.544 2.827 1.172 3.452.163.163.346.306.544.429C5.982 22 6.995 22 9.022 22h6.956c2.027 0 3.04 0 3.803-.472.199-.123.38-.266.544-.429.628-.625.81-1.567 1.172-3.452.503-2.618.755-3.927.145-4.868a2.937 2.937 0 0 0-.57-.646c-.87-.735-2.279-.735-5.094-.735H9.022c-2.815 0-4.223 0-5.094.735a2.936 2.936 0 0 0-.57.646Zm6.337 4.402c0-.4.343-.723.765-.723h4.08c.422 0 .765.324.765.723 0 .399-.343.723-.765.723h-4.08c-.422 0-.765-.324-.765-.723Z" clip-rule="evenodd"/>
  </g>
</svg>
