<svg xmlns="http://www.w3.org/2000/svg" width="24" height="24" fill="none">
  <g stroke="#1C274C" stroke-width="1.5">
    <path d="M2 6.95c0-.883 0-1.324.07-1.692A4 4 0 0 1 5.257 2.07C5.626 2 6.068 2 6.95 2c.386 0 .58 0 .766.017a4 4 0 0 1 2.18.904c.144.119.28.255.554.529L11 4c.816.816 1.224 1.224 1.712 1.495a4 4 0 0 0 .848.352C14.098 6 14.675 6 15.828 6h.374c2.632 0 3.949 0 4.804.77.079.07.154.145.224.224.77.855.77 2.172.77 4.804V14c0 3.771 0 5.657-1.172 6.828C19.657 22 17.771 22 14 22h-4c-3.771 0-5.657 0-6.828-1.172C2 19.657 2 17.771 2 14V6.95Z"/>
    <path stroke-linecap="round" d="M12.952 11.885a2.447 2.447 0 0 1 1.51-.004m-4.415.972a1.86 1.86 0 0 0-.333-.03c-.946 0-1.714.712-1.714 1.589S8.768 16 9.714 16h4C14.977 16 16 15.052 16 13.882c0-.927-.643-1.714-1.538-2.001m-4.415.972a1.974 1.974 0 0 1-.142-.735c0-1.17 1.023-2.118 2.286-2.118 1.175 0 2.144.823 2.271 1.88m-4.415.973c.225.041.435.123.62.238" opacity=".5"/>
  </g>
</svg>
