<svg xmlns="http://www.w3.org/2000/svg" width="24" height="24" fill="none">
  <path fill="#1C274C" fill-rule="evenodd" d="m2.782 11.225.396-.262c.594-.393.987-.654 1.265-.887.264-.221.364-.369.416-.507.052-.138.076-.315.025-.656-.054-.36-.175-.815-.359-1.504l-.167-.625a9.205 9.205 0 0 0-1.576 4.44Zm2.75-5.84a.76.76 0 0 1 .024.074l.429 1.602c.17.638.315 1.177.382 1.631.035.233.053.46.042.687l2.5 1.053a1.75 1.75 0 0 1 .18-.16l1.838-1.404c.098-.075.203-.139.312-.19v-2.71a3.527 3.527 0 0 1-.608-.284c-.398-.229-.847-.56-1.377-.952L7.876 3.715a9.263 9.263 0 0 0-2.344 1.67Zm4.007-2.306.572.422c.573.423.953.702 1.268.883.298.171.47.214.618.216.147.001.32-.038.622-.203.318-.174.704-.445 1.286-.855l.622-.438a9.233 9.233 0 0 0-2.538-.354 9.21 9.21 0 0 0-2.45.329Zm6.646.678a.756.756 0 0 1-.095.08l-1.354.954c-.54.38-.995.702-1.397.922-.197.108-.396.2-.6.267v2.697c.108.052.213.116.311.191l1.837 1.405c.066.05.127.104.184.162l2.56-1.06c-.01-.225.008-.451.043-.683.067-.454.212-.993.382-1.63l.429-1.602a.653.653 0 0 1 .008-.029 9.266 9.266 0 0 0-2.308-1.674Zm3.48 3.095-.149.557c-.184.689-.305 1.145-.359 1.504-.05.34-.027.518.025.656.052.138.152.286.416.507.278.233.67.494 1.265.887l.328.217a9.203 9.203 0 0 0-1.526-4.328Zm3.055 5.55c.004-.133.007-.267.007-.402 0-5.936-4.807-10.75-10.739-10.75C6.058 1.25 1.25 6.064 1.25 12s4.807 10.75 10.739 10.75c5.625 0 10.238-4.33 10.7-9.84a.749.749 0 0 0 .03-.508Zm-1.543.567L20 12.19c-.55-.363-1.016-.67-1.367-.966a3.56 3.56 0 0 1-.458-.452l-2.613 1.082a1.75 1.75 0 0 1-.067.324l-.721 2.337c-.026.082-.056.16-.092.236l1.468 1.698c.225-.075.46-.12.704-.148.456-.052 1.014-.052 1.673-.052h1.668a9.17 9.17 0 0 0 .98-3.281Zm-1.951 4.781h-.656c-.713 0-1.184.001-1.544.042-.341.04-.506.107-.625.194-.12.086-.237.22-.382.533-.153.33-.303.777-.528 1.453l-.226.68a9.263 9.263 0 0 0 3.96-2.902Zm-5.7 3.372.555-1.663c.208-.627.385-1.156.578-1.572.087-.188.183-.364.295-.528l-1.434-1.66a1.693 1.693 0 0 1-.416.051h-2.23c-.133 0-.263-.015-.388-.043L9.21 17.332c.12.171.222.357.313.555.194.416.37.945.579 1.572l.565 1.697a9.294 9.294 0 0 0 2.86-.034Zm-4.58-.385-.254-.765c-.226-.676-.376-1.124-.529-1.453-.145-.312-.262-.447-.381-.533-.12-.087-.284-.155-.625-.194-.36-.04-.832-.042-1.544-.042H4.75a9.258 9.258 0 0 0 4.195 2.987Zm-5.15-4.46a.752.752 0 0 1 .202-.027h1.656c.66 0 1.217 0 1.673.052.235.027.46.069.676.139l1.304-1.662a1.754 1.754 0 0 1-.105-.263l-.721-2.337a1.75 1.75 0 0 1-.068-.328l-2.55-1.075a3.58 3.58 0 0 1-.456.45c-.352.294-.817.601-1.367.965l-1.236.817c.127 1.17.47 2.273.991 3.27Zm8.192-6.269a.247.247 0 0 0-.15.052L10 11.463a.249.249 0 0 0-.087.273l.722 2.337a.248.248 0 0 0 .237.176h2.23a.246.246 0 0 0 .238-.176l.722-2.337a.25.25 0 0 0-.087-.273l-1.837-1.405a.246.246 0 0 0-.15-.05Z" clip-rule="evenodd"/>
</svg>
