<svg xmlns="http://www.w3.org/2000/svg" width="24" height="24" fill="none">
  <path fill="#1C274C" d="M6.014 8.665c-.07-.486-.221-1.065-.402-1.757l-.54-2.076-.01-.037A10.015 10.015 0 0 1 7.47 3.08l1.632 1.238c.56.424 1.03.781 1.447 1.027.218.13.437.238.666.316v3.022c-.123.057-.24.13-.351.216l-1.932 1.519a1.814 1.814 0 0 0-.2.183L6.053 9.44a3.73 3.73 0 0 0-.04-.774Zm-1.969 1.538c-.295.254-.71.537-1.335.961l-.704.479a9.957 9.957 0 0 1 1.865-5.47l.28 1.073c.193.743.321 1.24.378 1.635.055.376.032.582-.03.748-.06.165-.174.333-.454.574Zm1.256 6.682c.695 0 1.28 0 1.759.056.252.03.493.077.723.154l1.415-1.852a1.848 1.848 0 0 1-.127-.316L8.31 12.4a1.859 1.859 0 0 1-.071-.379l-2.727-1.18a3.732 3.732 0 0 1-.489.498c-.368.317-.856.648-1.436 1.043l-1.492 1.013a9.94 9.94 0 0 0 1.175 3.49H5.3Zm6.491-6.807a.281.281 0 0 1 .174-.062c.06 0 .12.02.175.062l1.932 1.518c.052.04.091.098.111.166a.36.36 0 0 1 0 .207l-.758 2.526a.33.33 0 0 1-.108.164.282.282 0 0 1-.178.064h-2.347a.282.282 0 0 1-.178-.065.33.33 0 0 1-.108-.163l-.759-2.526a.36.36 0 0 1 0-.207.331.331 0 0 1 .112-.166l1.932-1.518Zm1.584-4.702c.421-.237.9-.584 1.468-.995l1.74-1.262a10.04 10.04 0 0 1 2.35 1.694l-.546 2.095c-.18.692-.331 1.271-.402 1.758a3.74 3.74 0 0 0-.04.77l-2.743 1.167a1.817 1.817 0 0 0-.203-.186l-1.932-1.519a1.797 1.797 0 0 0-.352-.216v-3.01c.226-.072.444-.175.66-.296Zm-2.063-1.323c-.333-.197-.735-.5-1.337-.957l-.883-.67A9.977 9.977 0 0 1 11.99 2c1.032 0 2.028.157 2.965.448l-.956.693c-.612.443-1.02.738-1.357.927-.32.18-.507.224-.666.222-.16-.002-.345-.05-.662-.237Zm7.663 7.287c.368.316.856.648 1.436 1.042l1.47.998a9.94 9.94 0 0 1-1.176 3.505h-1.858c-.695 0-1.28 0-1.759.056a3.49 3.49 0 0 0-.751.164l-1.59-1.89a1.85 1.85 0 0 0 .114-.288l.76-2.527c.036-.123.06-.25.07-.375l2.792-1.188c.143.18.309.345.492.502Zm-4.168 7.287c-.201.446-.386 1.014-.606 1.694l-.496 1.532a10.04 10.04 0 0 1-3.253.03l-.506-1.562c-.22-.68-.405-1.248-.606-1.695a3.75 3.75 0 0 0-.356-.634l1.39-1.819c.135.033.275.05.418.05h2.347c.153 0 .303-.02.447-.057l1.559 1.852a3.81 3.81 0 0 0-.338.608Zm-6.275 2.196c-.237-.73-.396-1.218-.56-1.578-.155-.345-.283-.5-.418-.6-.132-.098-.31-.172-.67-.214-.381-.045-.878-.046-1.627-.046h-.957a10.005 10.005 0 0 0 4.438 3.074l-.206-.636Zm8.731-2.392c.381-.045.878-.046 1.627-.046h.785a10.01 10.01 0 0 1-4.243 3.005l.183-.567c.237-.73.396-1.218.56-1.578.155-.345.283-.5.418-.6.132-.098.31-.172.67-.214ZM19.47 8.88c.058-.393.187-.891.38-1.634l.273-1.05a9.957 9.957 0 0 1 1.847 5.43l-.68-.461c-.625-.425-1.04-.708-1.335-.962-.28-.241-.393-.409-.454-.573-.062-.167-.085-.373-.03-.75Z"/>
</svg>
