<svg xmlns="http://www.w3.org/2000/svg" width="24" height="24" fill="none">
  <g fill="#1C274C">
    <path d="M20.185 17.75a.75.75 0 0 0 0-1.5v1.5Zm-5.406 1.985-.711-.237.711.237Zm-1.299 1.528a.75.75 0 0 0 1.423.474l-1.423-.474ZM3.998 16.25a.75.75 0 0 0 0 1.5v-1.5Zm5.405 3.485.712-.237-.712.237Zm-.124 2.002a.75.75 0 0 0 1.423-.474l-1.423.474Zm-1.058-4.36-.44.609.44-.608ZM5.556 5.46a.75.75 0 1 0-1.449.388l1.449-.388ZM5.25 7.215l-.725.194.725-.194Zm-1.658 4.373-.414-.625.414.626Zm-1.965.4a.75.75 0 1 0 .828 1.251l-.828-1.251Zm18.307-6.14a.75.75 0 1 0-1.449-.388l1.449.387Zm-1.143 1.367-.724-.194.724.194Zm1.658 4.374-.413.625.413-.625Zm1.137 1.65a.75.75 0 1 0 .828-1.251l-.828 1.251ZM16.09 3.836a.75.75 0 1 0-.864-1.226l.864 1.226Zm-1.752.319.432.612-.432-.612Zm-4.672-.051-.446.603.446-.603Zm-1.05-1.707a.75.75 0 1 0-.891 1.206l.89-1.206Zm5.876 8.278a.75.75 0 1 0 .574 1.386l-.574-1.386Zm-3.254-1.417a.75.75 0 0 0 1.5 0h-1.5Zm3.05 5.037a.75.75 0 0 0-1.134.982l1.135-.982Zm-3.442.954a.75.75 0 1 0-1.18-.926l1.18.926Zm-1.94-3.19a.75.75 0 1 0 .583-1.382l-.583 1.382Zm11.279 4.191H18.57v1.5h1.615v-1.5Zm-6.117 3.248-.588 1.765 1.423.474.588-1.765-1.423-.474Zm4.502-3.248c-.678 0-1.25-.001-1.714.052-.485.055-.93.176-1.333.467l.878 1.217c.12-.087.284-.155.625-.194.36-.04.832-.042 1.544-.042v-1.5Zm-3.08 3.722c.226-.676.376-1.124.53-1.453.144-.312.261-.447.38-.533l-.877-1.217c-.404.292-.658.675-.864 1.118-.197.425-.377.968-.591 1.611l1.423.474ZM3.999 17.75h1.615v-1.5H3.998v1.5Zm4.694 2.222.587 1.765 1.423-.474-.587-1.765-1.423.474Zm-3.08-2.222c.713 0 1.184.001 1.545.042.34.04.505.107.625.194l.878-1.217c-.404-.29-.849-.412-1.333-.467-.465-.053-1.037-.052-1.714-.052v1.5Zm4.503 1.748c-.215-.643-.394-1.186-.591-1.611-.206-.442-.46-.826-.864-1.118l-.878 1.217c.12.086.236.22.381.533.153.33.303.777.529 1.453l1.423-.474ZM4.107 5.848l.418 1.561 1.45-.388-.419-1.562-1.449.388Zm-.929 5.115-1.55 1.025.827 1.251 1.55-1.025-.827-1.251Zm1.347-3.554c.184.689.305 1.145.359 1.504.05.34.027.518-.025.656l1.403.532c.176-.466.177-.926.105-1.409-.069-.463-.218-1.015-.393-1.67l-1.449.387Zm-.52 4.805c.566-.374 1.043-.688 1.402-.989.374-.313.678-.659.855-1.124l-1.403-.532c-.052.138-.152.286-.416.507-.278.233-.67.494-1.265.887l.827 1.251Zm14.48-6.754-.418 1.561 1.449.388.418-1.562-1.449-.387Zm1.55 6.754 1.552 1.025.827-1.251-1.551-1.025-.827 1.251Zm-1.968-5.193c-.175.656-.324 1.208-.393 1.671-.072.483-.07.944.105 1.409l1.403-.532c-.052-.138-.075-.315-.025-.656.054-.36.175-.815.359-1.504l-1.449-.388Zm2.796 3.942c-.594-.393-.987-.654-1.265-.887-.264-.22-.363-.369-.416-.507l-1.402.532c.176.465.48.811.854 1.124.359.301.836.616 1.402.99l.827-1.252ZM15.226 2.61l-1.32.932.864 1.225 1.32-.93-.864-1.227Zm-5.115.89L8.615 2.398l-.89 1.206L9.22 4.707l.891-1.206Zm3.794.042c-.582.41-.968.681-1.286.855-.302.165-.475.204-.622.203l-.017 1.5c.498.005.93-.153 1.359-.387.41-.225.877-.555 1.43-.946l-.864-1.225ZM9.22 4.707c.546.403 1.005.743 1.41.977.423.243.853.41 1.35.416l.017-1.5c-.148-.002-.32-.045-.618-.216-.315-.181-.695-.46-1.268-.883l-.89 1.206Zm8.974 4.435-3.702 1.533.574 1.386 3.702-1.533-.574-1.386Zm-5.455.116V5.35h-1.5v3.908h1.5Zm3.79 7.629-2.24-2.592-1.135.982 2.24 2.591 1.135-.981Zm-7.718.954 2.035-2.592-1.18-.926-2.035 2.591 1.18.927Zm.678-7.164L5.852 9.144l-.583 1.382 3.637 1.533.583-1.382Z" opacity=".5"/>
    <path d="m9.198 11.959.716-.222-.716.222Zm.348-1.09-.456-.596.456.596Zm.373 3.427-.717.22.717-.22Zm4.139 0-.717-.222.717.222Zm.373-3.427-.455.595.455-.595Zm.348 1.09.717.22-.717-.22Zm-2.184-2.495.455-.596-.455.596Zm-1.213 0 .456.596-.456-.596Zm3.397 1.904-.716.221.716-.22Zm-1.058 3.418.464.59-.464-.59Zm-3.465 0-.464.59.464-.59Zm-1.058-3.418.716.221-.716-.22Zm2.941-1.308 1.837 1.404.911-1.191-1.837-1.405-.91 1.192Zm1.924 1.677-.722 2.337 1.434.443.721-2.337-1.433-.443Zm-.96 2.513h-2.23v1.5h2.23v-1.5Zm-2.467-.176-.722-2.337-1.433.443.721 2.337 1.434-.443ZM10 11.464l1.837-1.404-.911-1.192-1.837 1.405.911 1.191Zm3.975 0a.249.249 0 0 1 .087.125l1.433-.442a1.749 1.749 0 0 0-.609-.874l-.911 1.191Zm.087.125a.25.25 0 0 1 0 .148l1.433.443a1.75 1.75 0 0 0 0-1.033l-1.433.442ZM13.05 8.87a1.747 1.747 0 0 0-1.062-.36v1.5c.054 0 .107.017.151.05l.912-1.19Zm-1.062-.36c-.373 0-.748.12-1.061.36l.91 1.19a.246.246 0 0 1 .152-.05v-1.5Zm1.353 5.565a.247.247 0 0 1-.084.123l.928 1.179c.272-.215.482-.511.59-.86l-1.434-.442Zm-.084.123a.247.247 0 0 1-.153.053v1.5c.402 0 .78-.138 1.081-.374l-.928-1.179Zm-2.384.053a.248.248 0 0 1-.153-.053l-.928 1.179c.3.236.679.374 1.081.374v-1.5Zm-.153-.053a.249.249 0 0 1-.084-.123l-1.434.443c.108.348.317.644.59.859l.928-1.179Zm-.806-2.46a.25.25 0 0 1 0-.148l-1.433-.442a1.75 1.75 0 0 0 0 1.033l1.433-.443Zm0-.148a.249.249 0 0 1 .087-.125l-.911-1.191a1.75 1.75 0 0 0-.609.874l1.433.442Zm11.313.41c0 5.11-4.137 9.25-9.239 9.25v1.5c5.932 0 10.739-4.814 10.739-10.75h-1.5Zm-9.239 9.25c-5.101 0-9.238-4.14-9.238-9.25h-1.5c0 5.936 4.807 10.75 10.739 10.75v-1.5ZM2.75 12c0-5.11 4.137-9.25 9.239-9.25v-1.5C6.056 1.25 1.25 6.064 1.25 12h1.5Zm9.239-9.25c5.1 0 9.238 4.14 9.238 9.25h1.5c0-5.936-4.807-10.75-10.739-10.75v1.5Z"/>
  </g>
</svg>
