<svg xmlns="http://www.w3.org/2000/svg" width="24" height="24" fill="none">
  <path fill="#1C274C" fill-rule="evenodd" d="m15.124 4.885.039.034 4.014 3.568c.748.666 1.37 1.218 1.796 1.719.448.526.767 1.093.767 1.795 0 .7-.32 1.268-.767 1.794-.427.501-1.048 1.053-1.796 1.719l-4.014 3.568-.039.034c-.324.288-.627.558-.889.73-.257.17-.724.416-1.247.181-.523-.235-.65-.747-.693-1.052-.045-.31-.045-.716-.045-1.15v-1.62c-1.451.1-2.922.486-4.209 1.113-1.513.737-2.721 1.782-3.377 3.031A.75.75 0 0 1 3.25 20c0-4.72 1.381-7.794 3.356-9.684 1.722-1.648 3.82-2.323 5.644-2.465V6.176c0-.435 0-.84.045-1.15.043-.305.17-.817.693-1.052.523-.235.99.01 1.247.18.262.173.565.442.889.731Zm-1.37.792c.112.097.247.217.412.363l3.972 3.531c.801.713 1.342 1.195 1.692 1.607.337.395.41.626.41.822 0 .197-.073.428-.41.823-.35.412-.89.894-1.692 1.607l-3.972 3.53c-.165.147-.3.267-.413.363-.003-.148-.003-.329-.003-.55V15.43a.75.75 0 0 0-.75-.75c-1.913 0-3.9.454-5.616 1.29a10.27 10.27 0 0 0-2.5 1.688c.369-3.047 1.458-5.013 2.76-6.258C9.264 9.85 11.31 9.322 13 9.322a.75.75 0 0 0 .75-.75V6.227c0-.22 0-.4.003-.55Z" clip-rule="evenodd"/>
</svg>
