<svg xmlns="http://www.w3.org/2000/svg" width="24" height="24" fill="none">
  <g fill="#1C274C">
    <path d="M17.75 7a.75.75 0 0 0-1.5 0v2a.75.75 0 0 0 1.5 0V7Zm0 7a.75.75 0 0 0-1.5 0v2a.75.75 0 0 0 1.5 0v-2Z"/>
    <path fill-rule="evenodd" d="M12.056 1.25h-.112c-1.838 0-3.294 0-4.433.153-1.172.158-2.121.49-2.87 1.238-.748.749-1.08 1.698-1.238 2.87-.153 1.14-.153 2.595-.153 4.433v3.112c0 1.838 0 3.294.153 4.433.158 1.172.49 2.121 1.238 2.87.46.459.994.761 1.609.963V22c0 .414.336.75.75.75h1a.75.75 0 0 0 .75-.75v-.296c.907.046 1.965.046 3.194.046h.112c1.23 0 2.287 0 3.194-.046V22c0 .414.336.75.75.75h1a.75.75 0 0 0 .75-.75v-.678c.615-.202 1.15-.504 1.609-.963.748-.749 1.08-1.698 1.238-2.87.153-1.14.153-2.595.153-4.433V9.944c0-1.838 0-3.294-.153-4.433-.158-1.172-.49-2.121-1.238-2.87-.749-.748-1.698-1.08-2.87-1.238-1.14-.153-2.595-.153-4.433-.153ZM5.702 3.702c.423-.423 1.003-.677 2.009-.812 1.028-.138 2.382-.14 4.289-.14 1.907 0 3.261.002 4.29.14 1.005.135 1.585.389 2.008.812.423.423.677 1.003.812 2.009.138 1.028.14 2.382.14 4.289v.75H4.75V10c0-1.907.002-3.261.14-4.29.135-1.005.389-1.585.812-2.008ZM4.75 12.25h14.5V13c0 1.907-.002 3.262-.14 4.29-.135 1.005-.389 1.585-.812 2.008-.423.423-1.003.677-2.009.812-1.028.138-2.382.14-4.289.14-1.907 0-3.261-.002-4.29-.14-1.005-.135-1.585-.389-2.008-.812-.423-.423-.677-1.003-.812-2.009-.138-1.027-.14-2.382-.14-4.289v-.75Z" clip-rule="evenodd"/>
  </g>
</svg>
