<svg xmlns="http://www.w3.org/2000/svg" width="24" height="24" fill="none">
  <g fill="#1C274C" fill-rule="evenodd" clip-rule="evenodd">
    <path d="M17.5 8.937a.75.75 0 1 0 0 1.5.75.75 0 0 0 0-1.5Zm-2.25.75a2.25 2.25 0 1 1 4.5 0 2.25 2.25 0 0 1-4.5 0Z"/>
    <path d="M10.252 2h3.321c1.467 0 2.644 0 3.568.124.958.128 1.756.401 2.388 1.032.556.553.835 1.234.983 2.037.306.169.589.377.847.636.748.748 1.08 1.697 1.238 2.87.153 1.138.153 2.594.153 4.432v.113c0 1.837 0 3.293-.153 4.432-.158 1.173-.49 2.122-1.238 2.87-.749.748-1.698 1.08-2.87 1.238-1.14.153-2.595.153-4.433.153H9.944c-1.838 0-3.294 0-4.433-.153-1.172-.157-2.121-.49-2.87-1.238-.748-.748-1.08-1.697-1.238-2.87-.153-1.139-.153-2.595-.153-4.432v-.113c0-1.838 0-3.294.153-4.433.158-1.172.49-2.121 1.238-2.87.203-.202.42-.374.652-.52.142-.853.42-1.572 1.003-2.152.633-.63 1.43-.904 2.388-1.032C7.608 2 8.784 2 10.252 2Zm6.69 1.61c.792.107 1.221.302 1.529.609.116.116.217.25.303.414a9.512 9.512 0 0 0-.285-.043c-1.14-.153-2.595-.153-4.433-.153H9.944c-1.838 0-3.294 0-4.433.153a8.943 8.943 0 0 0-.477.077c.09-.18.196-.324.32-.448.308-.307.737-.502 1.529-.608.813-.11 1.889-.111 3.424-.111h3.211c1.535 0 2.611.002 3.424.11ZM2.89 17.477c.135 1.007.389 1.586.812 2.01.423.423 1.003.676 2.009.811 1.028.139 2.382.14 4.289.14h4c1.907 0 3.262-.001 4.29-.14.763-.102 1.282-.273 1.672-.535l-2.687-2.419a2.25 2.25 0 0 0-2.8-.168l-.297.21a2.75 2.75 0 0 1-3.526-.306l-4.29-4.29a1.55 1.55 0 0 0-2.117-.07l-1.494 1.308c.003 1.475.022 2.58.139 3.45ZM3.702 6.89c.423-.423 1.003-.677 2.009-.812 1.028-.138 2.382-.14 4.289-.14h4c1.907 0 3.262.002 4.29.14 1.005.135 1.585.389 2.008.812.423.423.677 1.003.812 2.01.138 1.027.14 2.381.14 4.288 0 1.907-.002 3.262-.14 4.29a5.34 5.34 0 0 1-.244 1.08l-2.588-2.328a3.75 3.75 0 0 0-4.665-.281l-.298.21a1.25 1.25 0 0 1-1.602-.14l-4.29-4.29a3.05 3.05 0 0 0-4.165-.138l-.506.443c.005-1.32.03-2.328.138-3.135.135-1.006.389-1.586.812-2.009ZM15.25 9.687a2.25 2.25 0 1 1 4.5 0 2.25 2.25 0 0 1-4.5 0Zm2.25-.75a.75.75 0 1 0 0 1.5.75.75 0 0 0 0-1.5Z"/>
  </g>
</svg>
