<svg xmlns="http://www.w3.org/2000/svg" width="24" height="24" fill="none">
  <g fill="#1C274C">
    <path d="M22 12.698c-.002 1.47-.013 2.718-.096 3.743-.097 1.19-.296 2.184-.74 3.009a4.18 4.18 0 0 1-.73.983c-.833.833-1.893 1.21-3.237 1.39C15.884 22 14.2 22 12.053 22h-.106c-2.148 0-3.83 0-5.144-.177-1.343-.18-2.404-.557-3.236-1.39-.738-.738-1.12-1.656-1.322-2.795-.2-1.12-.236-2.512-.243-4.241C2 12.957 2 12.492 2 12v-.054c0-2.148 0-3.83.177-5.144.18-1.343.557-2.404 1.39-3.236.832-.833 1.893-1.21 3.236-1.39 1.168-.157 2.67-.175 4.499-.177a.697.697 0 1 1 0 1.396c-1.855.002-3.234.018-4.313.163-1.189.16-1.906.464-2.436.994S3.72 5.8 3.56 6.99C3.397 8.2 3.395 9.788 3.395 12v.784l.932-.814a2.14 2.14 0 0 1 2.922.097l3.99 3.99a1.86 1.86 0 0 0 2.385.207l.278-.195a2.79 2.79 0 0 1 3.471.209l2.633 2.37c.265-.557.423-1.288.507-2.32.079-.972.09-2.152.091-3.63a.698.698 0 0 1 1.396 0Z" opacity=".5"/>
    <path fill-rule="evenodd" d="M17.5 11c-2.121 0-3.182 0-3.841-.659C13 9.682 13 8.621 13 6.5c0-2.121 0-3.182.659-3.841C14.318 2 15.379 2 17.5 2c2.121 0 3.182 0 3.841.659C22 3.318 22 4.379 22 6.5c0 2.121 0 3.182-.659 3.841-.659.659-1.72.659-3.841.659Zm2.212-6.712a.983.983 0 0 1 0 1.39l-.058.058a.238.238 0 0 1-.211.067 1.595 1.595 0 0 1-.81-.436 1.594 1.594 0 0 1-.436-.81.238.238 0 0 1 .067-.211l.058-.058a.983.983 0 0 1 1.39 0ZM17.35 8.04a3.224 3.224 0 0 1-.296.279 1.635 1.635 0 0 1-.303.187c-.09.043-.188.076-.381.14l-1.021.34a.265.265 0 0 1-.335-.335l.34-1.02c.064-.194.097-.291.14-.382.051-.108.114-.21.187-.303.062-.08.134-.152.279-.296l1.799-1.799c.043-.043.118-.023.138.035a1.984 1.984 0 0 0 1.217 1.217c.058.02.078.095.035.138l-1.799 1.8Z" clip-rule="evenodd"/>
  </g>
</svg>
