<svg xmlns="http://www.w3.org/2000/svg" width="24" height="24" fill="none">
  <g fill="#1C274C">
    <path fill-rule="evenodd" d="M17.5 11c-2.121 0-3.182 0-3.841-.659C13 9.682 13 8.621 13 6.5c0-2.121 0-3.182.659-3.841C14.318 2 15.379 2 17.5 2c2.121 0 3.182 0 3.841.659C22 3.318 22 4.379 22 6.5c0 2.121 0 3.182-.659 3.841-.659.659-1.72.659-3.841.659Zm-1.455-2.784c-.765-.67-1.545-1.564-1.545-2.418 0-1.773 1.65-2.435 3-1.065 1.35-1.37 3-.708 3 1.065 0 .854-.78 1.747-1.545 2.418-.596.523-.894.784-1.455.784-.56 0-.859-.261-1.455-.784Z" clip-rule="evenodd"/>
    <path d="M21.904 16.441c.083-1.024.094-2.274.096-3.743a.697.697 0 1 0-1.396 0c-.001 1.477-.012 2.658-.091 3.63-.084 1.032-.242 1.763-.507 2.32l-2.633-2.37a2.79 2.79 0 0 0-3.471-.21l-.277.196a1.86 1.86 0 0 1-2.386-.207l-3.99-3.99a2.14 2.14 0 0 0-2.922-.097l-.931.814V12c0-2.212 0-3.801.163-5.01.16-1.19.464-1.907.994-2.437.53-.53 1.247-.834 2.436-.994 1.079-.145 2.458-.161 4.313-.163a.699.699 0 0 0 0-1.396c-1.829.002-3.33.02-4.499.177-1.343.18-2.404.557-3.236 1.39-.833.832-1.21 1.893-1.39 3.236C2 8.116 2 9.8 2 11.947V12c0 .49 0 .956.002 1.396.007 1.729.044 3.121.243 4.24.203 1.14.584 2.058 1.322 2.796.832.833 1.893 1.21 3.236 1.39C8.116 22 9.8 22 11.947 22h.106c2.148 0 3.83 0 5.144-.177 1.344-.18 2.404-.557 3.236-1.39a4.18 4.18 0 0 0 .73-.983c.445-.825.644-1.82.74-3.009Z"/>
  </g>
</svg>
