<svg xmlns="http://www.w3.org/2000/svg" width="24" height="24" fill="none">
  <g fill="#1C274C">
    <path fill-rule="evenodd" d="M11.938 1.25h.124c2.069 0 3.706 0 4.987.191 1.323.198 2.373.614 3.19 1.522.807.896 1.168 2.03 1.34 3.46.171 1.407.171 3.212.171 5.525v.104c0 2.313 0 4.118-.17 5.524-.173 1.432-.534 2.565-1.34 3.461-.818.908-1.867 1.324-3.191 1.522-1.281.191-2.918.191-4.986.191h-.126c-2.068 0-3.705 0-4.986-.191-1.324-.198-2.373-.614-3.19-1.522-.807-.896-1.168-2.03-1.34-3.46-.171-1.407-.171-3.212-.171-5.525v-.104c0-2.313 0-4.118.17-5.524.173-1.432.534-2.565 1.34-3.461.818-.908 1.867-1.324 3.191-1.522 1.281-.191 2.918-.191 4.987-.191ZM7.173 2.925c-1.127.168-1.797.485-2.298 1.041-.51.568-.81 1.346-.966 2.638C3.751 7.91 3.75 9.624 3.75 12s.001 4.09.16 5.396c.156 1.292.454 2.07.965 2.638.501.556 1.171.873 2.298 1.041 1.157.173 2.682.175 4.827.175s3.67-.002 4.827-.175c1.127-.168 1.797-.485 2.297-1.041.512-.568.81-1.346.967-2.638.158-1.306.159-3.02.159-5.396s-.001-4.09-.16-5.396c-.156-1.292-.454-2.07-.965-2.638-.501-.556-1.171-.873-2.298-1.041C15.67 2.752 14.145 2.75 12 2.75s-3.67.002-4.827.175ZM8.916 5.25h6.168c.38 0 .71 0 .998.077a2.25 2.25 0 0 1 1.591 1.59c.078.29.078.618.077 1v.167c0 .38 0 .71-.077.998a2.25 2.25 0 0 1-1.59 1.591c-.29.078-.618.078-1 .077H8.917c-.38 0-.71 0-.998-.077a2.25 2.25 0 0 1-1.591-1.59c-.078-.29-.077-.618-.077-1a77.18 77.18 0 0 0 0-.167c0-.38 0-.71.077-.998a2.25 2.25 0 0 1 1.59-1.591c.29-.078.618-.077 1-.077ZM9 6.75c-.513 0-.623.006-.694.026a.75.75 0 0 0-.53.53c-.02.071-.026.18-.026.694 0 .513.006.623.026.694a.75.75 0 0 0 .53.53c.071.02.18.026.694.026h6c.513 0 .623-.006.694-.026a.75.75 0 0 0 .53-.53c.02-.071.026-.18.026-.694 0-.513-.006-.623-.026-.694a.75.75 0 0 0-.53-.53c-.071-.02-.18-.026-.694-.026H9Zm-.5 6.5a.75.75 0 0 1 .75.75v.75H10a.75.75 0 0 1 0 1.5h-.75V17a.75.75 0 0 1-1.5 0v-.75H7a.75.75 0 0 1 0-1.5h.75V14a.75.75 0 0 1 .75-.75Z" clip-rule="evenodd"/>
    <path d="M16.333 13.833a.833.833 0 1 1-1.666 0 .833.833 0 0 1 1.666 0Zm0 3.334a.833.833 0 1 1-1.666 0 .833.833 0 0 1 1.666 0ZM14.667 15.5a.833.833 0 1 1-1.667 0 .833.833 0 0 1 1.667 0Zm3.333 0a.833.833 0 1 1-1.667 0 .833.833 0 0 1 1.667 0Z"/>
  </g>
</svg>
