<svg xmlns="http://www.w3.org/2000/svg" width="24" height="24" fill="none">
  <g fill="#1C274C">
    <path d="m10.165 4.78.502.354a2.308 2.308 0 0 0 2.666 0l.502-.355A4.24 4.24 0 0 1 16.285 4h.612c.405 0 .813.025 1.194.16 2.383.846 4.021 3.935 3.903 10.943-.024 1.412-.354 2.972-1.628 3.581a3.2 3.2 0 0 1-1.393.316 2.74 2.74 0 0 1-1.53-.437c-.41-.268-.77-.616-1.13-.964-.444-.43-.888-.86-1.424-1.138a4.106 4.106 0 0 0-1.89-.461H11c-.658 0-1.306.158-1.89.46-.536.279-.98.709-1.425 1.139-.36.348-.72.696-1.128.964a2.74 2.74 0 0 1-1.53.437 3.2 3.2 0 0 1-1.393-.316c-1.274-.609-1.604-2.17-1.628-3.581C1.887 8.095 3.526 5.006 5.909 4.16 6.29 4.025 6.7 4 7.103 4h.612c.878 0 1.734.272 2.45.78Z" opacity=".5"/>
    <path fill-rule="evenodd" d="M10.47 17.47a.75.75 0 0 1 1.06 0l.47.47.47-.47a.75.75 0 1 1 1.06 1.06l-.47.47.47.47a.75.75 0 1 1-1.06 1.06l-.47-.47-.47.47a.75.75 0 1 1-1.06-1.06l.47-.47-.47-.47a.75.75 0 0 1 0-1.06Z" clip-rule="evenodd"/>
    <path d="M16.75 8a.75.75 0 1 1 0 1.5.75.75 0 0 1 0-1.5Zm-9.25.25a.75.75 0 0 1 .75.75v.75H9a.75.75 0 0 1 0 1.5h-.75V12a.75.75 0 0 1-1.5 0v-.75H6a.75.75 0 0 1 0-1.5h.75V9a.75.75 0 0 1 .75-.75Zm11.5 2a.75.75 0 1 1-1.5 0 .75.75 0 0 1 1.5 0Zm-3.75.75a.75.75 0 1 0 0-1.5.75.75 0 0 0 0 1.5Zm2.25.75a.75.75 0 1 0-1.5 0 .75.75 0 0 0 1.5 0Z"/>
  </g>
</svg>
