<svg xmlns="http://www.w3.org/2000/svg" width="24" height="24" fill="none">
  <path fill="#1C274C" fill-rule="evenodd" d="M22 19.206V12c0-5.523-4.477-10-10-10S2 6.477 2 12v7.206a1.727 1.727 0 0 0 2.5 1.544 2.891 2.891 0 0 1 2.896.18 2.892 2.892 0 0 0 3.208 0l.353-.234a1.881 1.881 0 0 1 2.086 0l.353.235a2.892 2.892 0 0 0 3.208 0 2.891 2.891 0 0 1 2.897-.18A1.727 1.727 0 0 0 22 19.206ZM16 10.5c0 .828-.448 1.5-1 1.5s-1-.672-1-1.5.448-1.5 1-1.5 1 .672 1 1.5ZM9 12c.552 0 1-.672 1-1.5S9.552 9 9 9s-1 .672-1 1.5.448 1.5 1 1.5Z" clip-rule="evenodd"/>
</svg>
