<svg xmlns="http://www.w3.org/2000/svg" width="24" height="24" fill="none">
  <path fill="#1C274C" fill-rule="evenodd" d="M6.237 4.712a.75.75 0 0 0-.474-1.423l-.555.185c-.57.19-1.055.351-1.439.527-.409.187-.767.416-1.051.776-.285.36-.426.76-.515 1.2-.083.415-.129.923-.183 1.522l-.698 7.67a4.777 4.777 0 0 0-.072.823C1.255 18.611 3.38 20.75 6 20.75a4.751 4.751 0 0 0 4.689-3.986l.219-.078a3.251 3.251 0 0 1 2.184 0l.22.078A4.751 4.751 0 0 0 18 20.75c2.62 0 4.744-2.14 4.75-4.758 0-.28-.025-.556-.073-.823L21.98 7.5c-.054-.6-.1-1.107-.183-1.521-.089-.441-.23-.842-.515-1.201-.285-.36-.642-.59-1.051-.776-.384-.176-.868-.337-1.439-.527l-.555-.185a.75.75 0 0 0-.474 1.423l.518.172c.617.206 1.024.343 1.326.481.286.13.414.235.5.343.085.107.157.256.219.564.065.326.105.753.164 1.401l.415 4.569a4.751 4.751 0 0 0-7.585 2.942 4.75 4.75 0 0 0-2.64 0 4.751 4.751 0 0 0-7.585-2.942l.048-.532.367-4.037c.059-.648.099-1.075.164-1.4.062-.309.134-.458.22-.565.085-.108.213-.212.499-.343.302-.138.709-.275 1.326-.48l.518-.173ZM21.19 15.376l.06.656a3.25 3.25 0 1 1-.06-.656Zm-18.38 0-.06.656a3.25 3.25 0 1 0 .06-.656Z" clip-rule="evenodd"/>
</svg>
