<svg xmlns="http://www.w3.org/2000/svg" width="24" height="24" fill="none">
  <g fill="#1C274C">
    <path fill-rule="evenodd" d="M6.712 3.763a.75.75 0 0 1-.475.949l-.518.172c-.617.206-1.024.343-1.326.481-.286.13-.414.235-.5.343-.085.107-.157.256-.219.564-.065.326-.105.753-.164 1.401l-.367 4.037-.048.532a4.751 4.751 0 0 1 7.585 2.942 4.749 4.749 0 0 1 1.32-.187v1.5c-.37 0-.739.063-1.092.19l-.22.077A4.751 4.751 0 0 1 6 20.75c-2.62 0-4.745-2.14-4.75-4.758 0-.28.025-.556.072-.823L2.02 7.5c.054-.6.1-1.107.183-1.521.089-.441.23-.842.515-1.201.284-.36.642-.59 1.051-.776.384-.176.868-.337 1.439-.527l.555-.185a.75.75 0 0 1 .949.474Z" clip-rule="evenodd"/>
    <path d="M20.905 12.242a4.751 4.751 0 0 0-7.585 2.942 4.752 4.752 0 0 0-1.32-.187v1.5c.37 0 .739.063 1.092.19l.22.077A4.751 4.751 0 0 0 18 20.75c2.62 0 4.744-2.14 4.75-4.758 0-.28-.025-.556-.073-.823L21.98 7.5c-.054-.6-.1-1.107-.183-1.521-.089-.441-.23-.842-.515-1.201-.285-.36-.642-.59-1.051-.776-.384-.176-.868-.337-1.439-.527l-.555-.185a.75.75 0 0 0-.474 1.423l.518.172c.617.206 1.024.343 1.326.481.286.13.414.235.5.343.085.107.157.256.219.564.065.326.105.753.164 1.401l.415 4.569Z" opacity=".5"/>
  </g>
</svg>
