<svg xmlns="http://www.w3.org/2000/svg" width="24" height="24" fill="none">
  <path fill="#1C274C" fill-rule="evenodd" d="M18.003 1.5a.75.75 0 0 1 1.06-.059 11.037 11.037 0 0 1 3.687 8.246c0 5.751-4.389 10.478-10 11.013v.55H14a.75.75 0 0 1 0 1.5h-4a.75.75 0 0 1 0-1.5h1.25v-.509a11.037 11.037 0 0 1-7.809-3.678.75.75 0 1 1 1.118-1 9.537 9.537 0 0 0 7.128 3.187 9.563 9.563 0 0 0 9.563-9.563 9.537 9.537 0 0 0-3.188-7.128.75.75 0 0 1-.059-1.06ZM7.222 5.97a6.25 6.25 0 0 0 5.065 10.273 3.38 3.38 0 0 1 .341-2.078c.488-.919 1.481-1.297 2.158-1.463a6.374 6.374 0 0 1 1.32-.177h.032c.75-.008 1.17-.183 1.418-.361.249-.18.395-.415.502-.68a.764.764 0 0 1 .03-.067 6.264 6.264 0 0 0-1.587-5.754 4.619 4.619 0 0 1-.441.949c-.211.332-.61.654-.917.883a7.29 7.29 0 0 1-.692.447c-.172.102-.32.191-.463.289-.307.21-.531.427-.684.752a.39.39 0 0 0-.016.281c.058.221.099.471.1.728.002 1.121-1.038 1.767-1.896 1.757-1.985-.023-3.156-1.689-3.308-3.448-.072-.836-.503-1.68-.962-2.331Zm1.106-1.03c.59.797 1.24 1.96 1.35 3.231.11 1.27.869 2.067 1.83 2.078a.473.473 0 0 0 .293-.105c.073-.062.086-.115.086-.148a1.34 1.34 0 0 0-.05-.348 1.886 1.886 0 0 1 .109-1.3c.305-.653.759-1.056 1.194-1.355.185-.126.377-.24.544-.34l.066-.04a6.11 6.11 0 0 0 .497-.32c.324-.242.503-.417.547-.486a3.59 3.59 0 0 0 .428-1.165A6.22 6.22 0 0 0 12 3.75c-1.372 0-2.64.442-3.672 1.192Zm8.49 9.04c-.208.027-.43.042-.665.045h-.018c-.012 0-.03 0-.056.002a4.856 4.856 0 0 0-.935.132c-.585.143-1.02.386-1.19.709-.201.378-.228.787-.187 1.128a6.255 6.255 0 0 0 3.052-2.016ZM4.25 10a7.75 7.75 0 1 1 15.5 0 7.75 7.75 0 0 1-15.5 0Z" clip-rule="evenodd"/>
</svg>
