<svg xmlns="http://www.w3.org/2000/svg" width="24" height="24" fill="none">
  <g fill="#1C274C">
    <path fill-rule="evenodd" d="M2.028 11.25A10 10 0 0 1 12 2c-.83 0-1.57.364-2.18.921-.605.554-1.116 1.328-1.53 2.242-.416.92-.74 1.996-.959 3.163a19.753 19.753 0 0 0-.318 2.924H2.028Zm0 1.5h4.985c.036 1.002.143 1.988.318 2.924.22 1.167.543 2.243.959 3.163.414.914.925 1.688 1.53 2.242.61.557 1.35.921 2.18.921-5.27 0-9.589-4.077-9.972-9.25Z" clip-rule="evenodd"/>
    <path d="M12 2c.831 0 1.57.364 2.18.921.605.554 1.117 1.328 1.53 2.242.417.92.74 1.996.959 3.163.175.936.282 1.922.318 2.924h4.985A9.999 9.999 0 0 0 12 2Zm4.669 13.674c-.219 1.167-.542 2.243-.959 3.163-.413.914-.925 1.688-1.53 2.242-.61.557-1.349.921-2.18.921 5.27 0 9.589-4.077 9.972-9.25h-4.985a19.75 19.75 0 0 1-.318 2.924Z"/>
    <path d="M12 3.396c-.275 0-.63.117-1.043.495-.416.38-.833.977-1.201 1.79-.366.808-.663 1.784-.867 2.873-.16.859-.26 1.768-.296 2.696h6.814a18.476 18.476 0 0 0-.296-2.696c-.204-1.09-.5-2.065-.867-2.872-.368-.814-.784-1.41-1.2-1.791-.414-.378-.769-.495-1.044-.495Zm-3.111 12.05c.204 1.09.501 2.065.867 2.873.368.813.785 1.41 1.2 1.79.414.379.77.496 1.044.496.275 0 .63-.117 1.044-.495.416-.381.832-.978 1.2-1.791.366-.808.663-1.783.867-2.873.161-.858.261-1.768.296-2.696H8.593c.035.928.135 1.838.296 2.696Z" opacity=".5"/>
  </g>
</svg>
