<svg xmlns="http://www.w3.org/2000/svg" width="24" height="24" fill="none">
  <path fill="#1C274C" fill-rule="evenodd" d="M12 1.25a.75.75 0 0 1 .75.75v1.037l5.062 2.53c.734.367 1.36.68 1.796.984.441.309.906.756.906 1.449 0 .693-.465 1.14-.906 1.449-.436.304-1.062.617-1.796.984l-5.062 2.53v1.296c2.53.064 4.83.45 6.569 1.058.95.333 1.774.747 2.373 1.243.595.492 1.058 1.144 1.058 1.94s-.463 1.448-1.058 1.94c-.6.496-1.422.91-2.373 1.243-1.909.668-4.496 1.067-7.319 1.067-2.823 0-5.41-.4-7.319-1.067-.95-.333-1.773-.747-2.373-1.243-.595-.492-1.058-1.144-1.058-1.94s.463-1.448 1.058-1.94c.6-.496 1.422-.91 2.373-1.243 1.738-.608 4.04-.994 6.569-1.058V2a.75.75 0 0 1 .75-.75Zm.75 3.464v6.572l4.337-2.168c.803-.402 1.328-.666 1.662-.9A1.12 1.12 0 0 0 19.003 8a1.143 1.143 0 0 0-.254-.218c-.334-.234-.859-.498-1.662-.9L12.75 4.714Zm6.27 3.317s-.003-.005-.004-.013c.005.009.005.013.005.013Zm-.004-.05c.001-.007.004-.012.005-.012 0 0 0 .004-.005.013ZM11.25 15.76c-2.395.064-4.523.43-6.073.973-.86.3-1.5.641-1.913.982-.417.346-.514.614-.514.785 0 .17.097.44.514.785.412.34 1.054.681 1.913.982 1.71.599 4.123.983 6.823.983s5.113-.384 6.823-.983c.86-.3 1.5-.641 1.913-.982.417-.346.514-.614.514-.785 0-.17-.097-.44-.514-.785-.412-.34-1.054-.681-1.913-.982-1.55-.543-3.678-.91-6.073-.973V18a.75.75 0 0 1-1.5 0v-2.24Z" clip-rule="evenodd"/>
</svg>
