<svg xmlns="http://www.w3.org/2000/svg" width="24" height="24" fill="none">
  <g stroke="#1C274C" stroke-linecap="round" stroke-width="1.5">
    <path stroke-linejoin="round" d="m7 10 2.293 2.293a1 1 0 0 0 1.414 0l1.586-1.586a1 1 0 0 1 1.414 0L17 14m0 0v-2.5m0 2.5h-2.5"/>
    <path d="M22 12c0 4.714 0 7.071-1.465 8.535C19.072 22 16.714 22 12 22s-7.071 0-8.536-1.465C2 19.072 2 16.714 2 12s0-7.071 1.464-8.536C4.93 2 7.286 2 12 2c4.714 0 7.071 0 8.535 1.464.974.974 1.3 2.343 1.41 4.536"/>
  </g>
</svg>
