<svg xmlns="http://www.w3.org/2000/svg" width="24" height="24" fill="none">
  <g stroke="#1C274C" stroke-width="1.5">
    <path stroke-linecap="round" d="M22 10.5V12c0 4.714 0 7.071-1.465 8.535C19.072 22 16.714 22 12 22s-7.071 0-8.536-1.465C2 19.072 2 16.714 2 12c0-1.128 0-2.122.02-3M13.5 2H12C7.286 2 4.929 2 3.464 3.464c-.44.441-.749.963-.964 1.606"/>
    <path stroke-linecap="round" d="m7 14 1.797-2.156c.712-.855 1.068-1.282 1.536-1.282.469 0 .825.427 1.537 1.282l.26.312c.712.855 1.068 1.282 1.537 1.282.468 0 .824-.427 1.536-1.282L17 10"/>
    <circle cx="19" cy="5" r="3"/>
  </g>
</svg>
