<svg xmlns="http://www.w3.org/2000/svg" width="24" height="24" fill="none">
  <path fill="#1C274C" fill-rule="evenodd" d="M3.464 3.464C2 4.93 2 7.286 2 12c0 4.714 0 7.071 1.464 8.535C4.93 22 7.286 22 12 22c4.714 0 7.071 0 8.535-1.465C22 19.072 22 16.714 22 12s0-7.071-1.465-8.536C19.072 2 16.714 2 12 2S4.929 2 3.464 3.464ZM13.75 10c0 .414.336.75.75.75h.69l-2.013 2.013a.25.25 0 0 1-.354 0l-1.586-1.586a1.75 1.75 0 0 0-2.474 0L6.47 13.47a.75.75 0 1 0 1.06 1.06l2.293-2.293a.25.25 0 0 1 .354 0l1.586 1.586a1.75 1.75 0 0 0 2.474 0l2.013-2.012v.689a.75.75 0 0 0 1.5 0V10a.75.75 0 0 0-.75-.75h-2.5a.75.75 0 0 0-.75.75Z" clip-rule="evenodd"/>
</svg>
