<svg xmlns="http://www.w3.org/2000/svg" width="24" height="24" fill="none">
  <path fill="#1C274C" fill-rule="evenodd" d="M3.464 3.464C2 4.93 2 7.286 2 12c0 4.714 0 7.071 1.464 8.535C4.93 22 7.286 22 12 22c4.714 0 7.071 0 8.535-1.465C22 19.072 22 16.714 22 12s0-7.071-1.465-8.536C19.072 2 16.714 2 12 2S4.929 2 3.464 3.464Zm14.112 7.016a.75.75 0 0 0-1.152-.96l-1.797 2.156c-.37.445-.599.716-.786.885a.764.764 0 0 1-.163.122l-.011.005-.008-.004-.003-.001a.767.767 0 0 1-.164-.122c-.187-.17-.415-.44-.786-.885l-.292-.35c-.329-.395-.625-.75-.901-1-.301-.272-.68-.514-1.18-.514-.5 0-.878.242-1.18.514-.276.25-.572.605-.9 1l-1.83 2.194a.75.75 0 1 0 1.153.96l1.797-2.156c.37-.445.599-.716.786-.885a.764.764 0 0 1 .163-.122l.007-.003.004-.002.011.005a.767.767 0 0 1 .164.122c.187.17.415.44.786.885l.292.35c.329.395.625.75.901 1 .301.272.68.514 1.18.514.5 0 .878-.242 1.18-.514.276-.25.572-.605.9-1l1.83-2.194Z" clip-rule="evenodd"/>
</svg>
