<svg xmlns="http://www.w3.org/2000/svg" width="24" height="24" fill="none">
  <path fill="#1C274C" fill-rule="evenodd" d="M12.11 3.327A1.968 1.968 0 0 0 9.328 6.11l.988.988c.034-.015.07-.031.106-.049.386-.186.933-.521 1.52-1.108.587-.587.922-1.134 1.108-1.52l.05-.106-.989-.988Zm2.103 2.102a7.374 7.374 0 0 1-1.211 1.573 7.37 7.37 0 0 1-1.573 1.211l.46.46a1.969 1.969 0 0 0 2.785-2.783l-.46-.46ZM8.266 2.266a3.468 3.468 0 0 1 4.905 0l2.563 2.563a3.469 3.469 0 0 1-4.905 4.905L8.266 7.171a3.468 3.468 0 0 1 0-4.905Zm.418 12.182c1.866-.361 3.863-.28 5.48.684.226.135.44.304.625.512.376.423.57.947.579 1.473.191-.123.383-.26.577-.407l1.808-1.365a2.637 2.637 0 0 1 3.123 0c.836.63 1.17 1.763.571 2.723-.425.681-1.066 1.624-1.717 2.228-.66.61-1.597 1.124-2.306 1.466-.862.416-1.792.646-2.697.792-1.85.3-3.774.254-5.602-.123a14.275 14.275 0 0 0-2.865-.293H4a.75.75 0 0 1 0-1.5h2.26c1.062 0 2.135.111 3.168.324a14.1 14.1 0 0 0 5.06.111c.828-.134 1.602-.333 2.284-.662.683-.33 1.451-.764 1.938-1.215.493-.457 1.044-1.248 1.465-1.922.127-.204.109-.497-.202-.732-.37-.28-.947-.28-1.316 0l-1.807 1.365c-.722.545-1.61 1.128-2.711 1.304a8.907 8.907 0 0 1-.347.048 10.03 10.03 0 0 1-2.11.02.75.75 0 1 1 .14-1.493 8.47 8.47 0 0 0 1.668-.003l.03-.003a.742.742 0 0 0 .15-1.138 1.15 1.15 0 0 0-.275-.222c-1.181-.705-2.759-.822-4.426-.5a12.124 12.124 0 0 0-4.535 1.935.75.75 0 0 1-.868-1.224 13.623 13.623 0 0 1 5.118-2.183Z" clip-rule="evenodd"/>
</svg>
