<svg xmlns="http://www.w3.org/2000/svg" width="24" height="24" fill="none">
  <path fill="#1C274C" d="m10.15 8.802-.442.606.442-.606ZM12 3.106l-.508.552a.75.75 0 0 0 1.015 0L12 3.106Zm1.85 5.696.442.606-.442-.606ZM12 9.676v.75-.75Zm-1.409-1.48c-.69-.503-1.426-1.115-1.982-1.76-.574-.665-.859-1.254-.859-1.721h-1.5c0 1.017.578 1.954 1.223 2.701.663.768 1.501 1.457 2.235 1.992l.883-1.212ZM7.75 4.715c0-1.059.52-1.663 1.146-1.873.652-.22 1.624-.078 2.596.816l1.015-1.104C11.23 1.38 9.704.988 8.418 1.42 7.105 1.862 6.25 3.096 6.25 4.715h1.5Zm6.542 4.693c.734-.534 1.572-1.224 2.235-1.992.645-.747 1.223-1.684 1.223-2.701h-1.5c0 .467-.284 1.056-.859 1.721-.556.645-1.292 1.257-1.982 1.76l.883 1.212Zm3.458-4.693c0-1.619-.855-2.853-2.167-3.295-1.286-.432-2.813-.04-4.09 1.134l1.014 1.104c.973-.894 1.946-1.036 2.598-.816.625.21 1.145.814 1.145 1.873h1.5ZM9.708 9.408c.755.55 1.354 1.018 2.292 1.018v-1.5c-.365 0-.565-.115-1.409-.73l-.883 1.212Zm3.7-1.212c-.843.615-1.043.73-1.408.73v1.5c.938 0 1.537-.467 2.292-1.018l-.883-1.212Z"/>
  <path stroke="#1C274C" stroke-linecap="round" stroke-width="1.5" d="M4 21.388h2.26c1.01 0 2.033.106 3.016.308a14.85 14.85 0 0 0 5.33.118c.868-.14 1.72-.355 2.492-.727.696-.337 1.549-.81 2.122-1.341.572-.53 1.168-1.397 1.59-2.075.364-.582.188-1.295-.386-1.728a1.887 1.887 0 0 0-2.22 0l-1.807 1.365c-.7.53-1.465 1.017-2.376 1.162-.11.017-.225.033-.345.047m0 0a8.176 8.176 0 0 1-.11.012m.11-.012a.998.998 0 0 0 .427-.24 1.492 1.492 0 0 0 .126-2.134 1.9 1.9 0 0 0-.45-.367c-2.797-1.669-7.15-.398-9.779 1.467m9.676 1.274a.524.524 0 0 1-.11.012m0 0a9.274 9.274 0 0 1-1.814.004" opacity=".5"/>
</svg>
