<svg xmlns="http://www.w3.org/2000/svg" width="24" height="24" fill="none">
  <g stroke="#1C274C" stroke-width="1.5">
    <path d="M17.414 10.414C18 9.828 18 8.886 18 7c0-1.886 0-2.828-.586-3.414m0 6.828C16.828 11 15.886 11 14 11h-4c-1.886 0-2.828 0-3.414-.586m10.828 0Zm0-6.828C16.828 3 15.886 3 14 3h-4c-1.886 0-2.828 0-3.414.586m10.828 0Zm-10.828 0C6 4.172 6 5.114 6 7c0 1.886 0 2.828.586 3.414m0-6.828Zm0 6.828ZM13 7a1 1 0 1 1-2 0 1 1 0 0 1 2 0Z"/>
    <path stroke-linecap="round" d="M18 6a3 3 0 0 1-3-3m3 5a3 3 0 0 0-3 3M6 6a3 3 0 0 0 3-3M6 8a3 3 0 0 1 3 3M4 21.388h2.26c1.01 0 2.033.106 3.016.308a14.85 14.85 0 0 0 5.33.118m-.93-3.297c.12-.014.235-.03.345-.047.911-.145 1.676-.633 2.376-1.162l1.808-1.365a1.887 1.887 0 0 1 2.22 0c.573.433.749 1.146.386 1.728-.423.678-1.019 1.545-1.591 2.075m-5.544-1.229a8.176 8.176 0 0 1-.11.012m.11-.012a.998.998 0 0 0 .427-.24 1.492 1.492 0 0 0 .126-2.134 1.9 1.9 0 0 0-.45-.367c-2.797-1.669-7.15-.398-9.779 1.467m9.676 1.274a.524.524 0 0 1-.11.012m0 0a9.274 9.274 0 0 1-1.814.004"/>
  </g>
</svg>
