<svg xmlns="http://www.w3.org/2000/svg" width="24" height="24" fill="none">
  <path fill="#1C274C" fill-rule="evenodd" d="M10.723 3.2a.75.75 0 1 0-1.446-.4L7.763 8.25H4a.75.75 0 1 0 0 1.5h3.347l-1.528 5.5H2a.75.75 0 0 0 0 1.5h3.402L4.277 20.8a.75.75 0 0 0 1.446.4l1.236-4.45h7.443l-1.125 4.05a.75.75 0 0 0 1.446.4l1.236-4.45H20a.75.75 0 1 0 0-1.5h-3.624l1.527-5.5H22a.75.75 0 0 0 0-1.5h-3.68l1.403-5.05a.75.75 0 1 0-1.446-.4l-1.514 5.45H9.32l1.403-5.05Zm4.096 12.05 1.528-5.5H8.903l-1.527 5.5h7.443Z" clip-rule="evenodd"/>
</svg>
