<svg xmlns="http://www.w3.org/2000/svg" width="24" height="24" fill="none">
  <g fill="#1C274C">
    <path d="M19.723 3.2a.75.75 0 1 0-1.446-.4l-1.514 5.45H9.32l1.403-5.05a.75.75 0 1 0-1.446-.4L7.763 8.25H4a.75.75 0 1 0 0 1.5h3.347l-1.528 5.5H2a.75.75 0 0 0 0 1.5h3.402L4.277 20.8a.75.75 0 0 0 1.446.4l1.236-4.45H9a.75.75 0 1 0 0-1.5H7.376l1.527-5.5h7.584a.749.749 0 0 0 1.415 0H22a.75.75 0 0 0 0-1.5h-3.68l1.402-5.05Z"/>
    <path fill-rule="evenodd" d="M16.213 11.25h1.574c.787 0 1.43 0 1.95.05.54.05 1.023.16 1.461.429a3.25 3.25 0 0 1 1.073 1.073c.269.438.378.921.43 1.46.049.52.049 1.164.049 1.951v.563c0 .56 0 1.019-.026 1.393-.026.387-.082.738-.221 1.075a3.25 3.25 0 0 1-1.76 1.759c-.474.196-.997.232-1.625.243a5.36 5.36 0 0 0-.43.016h-.008l-.002.004a5.032 5.032 0 0 0-.218.352l-.271.458c-.532.899-1.846.899-2.378 0l-.27-.458a5.032 5.032 0 0 0-.22-.352l-.002-.003-.007-.001a5.36 5.36 0 0 0-.43-.016c-.628-.011-1.15-.047-1.626-.243a3.25 3.25 0 0 1-1.759-1.76c-.139-.336-.195-.687-.222-1.074-.025-.374-.025-.833-.025-1.393v-.563c0-.787 0-1.43.05-1.95.05-.54.16-1.023.429-1.461a3.25 3.25 0 0 1 1.073-1.073c.438-.269.921-.378 1.46-.43.52-.05 1.164-.05 1.951-.05Zm-1.809 1.543c-.429.04-.655.115-.818.215a1.75 1.75 0 0 0-.578.578c-.1.162-.174.39-.215.819-.042.44-.043 1.012-.043 1.845v.5c0 .593 0 1 .022 1.317.021.31.06.48.111.603.178.428.519.77.947.947.186.077.45.118 1.078.129h.026c.19.004.38.007.543.025.184.02.393.064.601.186.206.12.347.276.456.425.095.13.19.291.284.45l.182.307.182-.307c.094-.159.189-.32.284-.45.109-.15.25-.306.456-.425.208-.122.417-.166.601-.186.163-.018.353-.021.543-.025h.026c.628-.011.892-.052 1.078-.13a1.75 1.75 0 0 0 .947-.946c.05-.123.09-.293.111-.603.022-.317.022-.724.022-1.317v-.5c0-.833 0-1.405-.043-1.845-.04-.43-.115-.656-.215-.82a1.75 1.75 0 0 0-.578-.577c-.163-.1-.39-.174-.819-.215-.44-.042-1.012-.043-1.845-.043h-1.5c-.833 0-1.405 0-1.845.043Z" clip-rule="evenodd"/>
  </g>
</svg>
