<svg xmlns="http://www.w3.org/2000/svg" width="24" height="24" fill="none">
  <g fill="#1C274C">
    <path d="M2 12C2 6.477 6.477 2 12 2s10 4.477 10 10-4.477 10-10 10S2 17.523 2 12Z" opacity=".5"/>
    <path fill-rule="evenodd" d="M11.718 7.215a.75.75 0 0 0-1.436-.43l-.74 2.465H7a.75.75 0 0 0 0 1.5h2.092l-.75 2.5H6a.75.75 0 1 0 0 1.5h1.892l-.61 2.034a.75.75 0 0 0 1.436.431l.74-2.465h3.434l-.61 2.034a.75.75 0 0 0 1.436.431l.74-2.465H17a.75.75 0 0 0 0-1.5h-2.092l.75-2.5H18a.75.75 0 0 0 0-1.5h-1.892l.61-2.035a.75.75 0 0 0-1.436-.43l-.74 2.465h-3.434l.61-2.035Zm2.374 3.535-.75 2.5H9.908l.75-2.5h3.434Z" clip-rule="evenodd"/>
  </g>
</svg>
