<svg xmlns="http://www.w3.org/2000/svg" width="24" height="24" fill="none">
  <g fill="#1C274C">
    <path fill-rule="evenodd" d="M11.955 2.25h.09c1.837 0 3.276 0 4.418.124 1.166.126 2.11.388 2.917.974a5.75 5.75 0 0 1 1.272 1.272c.586.807.848 1.75.974 2.916.124 1.143.124 2.582.124 4.419v2.838a.75.75 0 0 1 1 .707v2a.75.75 0 0 1-1.309.5H20.25v-6c0-1.892-.001-3.25-.115-4.302-.113-1.038-.328-1.688-.697-2.196a4.25 4.25 0 0 0-.94-.94c-.508-.37-1.158-.585-2.196-.697-1.052-.114-2.41-.115-4.302-.115-1.892 0-3.25.001-4.302.115-1.038.112-1.688.328-2.196.697a4.25 4.25 0 0 0-.94.94c-.37.508-.585 1.158-.697 2.196C3.751 8.75 3.75 10.108 3.75 12v6H2.559a.75.75 0 0 1-1.309-.5v-2a.75.75 0 0 1 1-.707v-2.838c0-1.837 0-3.276.124-4.419.126-1.165.388-2.11.974-2.916A5.75 5.75 0 0 1 4.62 3.348c.807-.586 1.75-.848 2.916-.974 1.143-.124 2.582-.124 4.419-.124Z" clip-rule="evenodd" opacity=".5"/>
    <path d="M8 14.05c0-.85 0-1.274-.21-1.57a1.185 1.185 0 0 0-.409-.358c-.325-.174-.763-.134-1.64-.053-1.48.134-2.218.202-2.748.571a2.346 2.346 0 0 0-.661.7C2 13.885 2 14.6 2 16.03v1.74c0 1.417 0 2.126.338 2.673.127.205.286.39.471.547.495.423 1.217.555 2.662.818 1.016.186 1.525.279 1.9.083.138-.072.26-.17.36-.287C8 21.285 8 20.786 8 19.789v-5.74Zm8 0c0-.85 0-1.274.21-1.57.105-.148.245-.271.409-.358.325-.174.763-.134 1.64-.053 1.48.134 2.218.202 2.748.571.268.188.493.426.661.7.332.544.332 1.26.332 2.69v1.74c0 1.417 0 2.126-.338 2.673-.127.205-.286.39-.471.547-.495.423-1.217.555-2.662.818-1.016.186-1.525.279-1.9.083a1.193 1.193 0 0 1-.36-.287C16 21.285 16 20.786 16 19.789v-5.74Z"/>
  </g>
</svg>
