<svg xmlns="http://www.w3.org/2000/svg" width="24" height="24" fill="none">
  <path fill="#1C274C" fill-rule="evenodd" d="M11.943 1.25h.114c2.309 0 4.118 0 5.53.19 1.444.194 2.584.6 3.479 1.494.895.895 1.3 2.035 1.494 3.48.19 1.411.19 3.22.19 5.529v5.691c0 .913 0 1.526-.151 2.063a3.852 3.852 0 0 1-1.976 2.412c-.495.246-1.086.343-1.941.484l-.121.02-.022.003c-.304.05-.565.094-.782.116a2.27 2.27 0 0 1-.698-.019 2.271 2.271 0 0 1-1.675-1.486 2.474 2.474 0 0 1-.121-.69c-.013-.225-.013-.5-.013-.823v-4.628c0-.477 0-.873.1-1.212a2.278 2.278 0 0 1 1.64-1.572c.344-.083.737-.05 1.185-.012l.102.008.12.01c.84.07 1.421.117 1.914.308.341.132.656.312.939.532V12c0-2.378-.002-4.086-.176-5.386-.172-1.279-.5-2.05-1.069-2.62-.57-.569-1.34-.896-2.618-1.068-1.3-.174-3.009-.176-5.387-.176-2.378 0-4.086.002-5.386.176-1.279.172-2.05.5-2.62 1.069-.569.57-.896 1.34-1.068 2.619-.174 1.3-.176 3.008-.176 5.386v1.148c.283-.22.598-.4.939-.532.493-.191 1.073-.239 1.913-.308l.12-.01.103-.008c.448-.038.84-.07 1.186.012.79.19 1.406.798 1.638 1.572.102.338.102.735.101 1.212v4.628c0 .324 0 .598-.013.823a2.48 2.48 0 0 1-.12.69 2.271 2.271 0 0 1-1.676 1.486 2.27 2.27 0 0 1-.698.019 13.83 13.83 0 0 1-.782-.116l-.022-.003a45.79 45.79 0 0 0-.12-.02c-.856-.141-1.447-.238-1.942-.485a3.852 3.852 0 0 1-1.976-2.411c-.151-.537-.151-1.15-.151-2.064v-5.69c0-2.309 0-4.118.19-5.53.194-1.444.6-2.584 1.494-3.479.895-.895 2.035-1.3 3.48-1.494 1.411-.19 3.22-.19 5.529-.19ZM12 5.75a.75.75 0 0 1 .75.75v5a.75.75 0 1 1-1.5 0v-5a.75.75 0 0 1 .75-.75Zm-3 1.5a.75.75 0 0 1 .75.75v2a.75.75 0 0 1-1.5 0V8A.75.75 0 0 1 9 7.25Zm6 0a.75.75 0 0 1 .75.75v2a.75.75 0 1 1-1.5 0V8a.75.75 0 0 1 .75-.75Zm-8.34 6.51c-.077-.018-.202-.017-.814.033-1.008.083-1.352.12-1.616.222A2.335 2.335 0 0 0 2.837 15.6c-.08.299-.087.677-.087 1.728v.186c0 1.078.007 1.465.095 1.775a2.353 2.353 0 0 0 1.2 1.476c.267.133.615.199 1.639.368.331.055.547.09.712.107.162.016.22.009.243.004a.772.772 0 0 0 .562-.513c.012-.034.029-.105.039-.279.01-.177.01-.409.01-.759v-4.506c0-.634-.008-.784-.037-.881a.78.78 0 0 0-.552-.545Zm11.494.033c-.612-.05-.737-.051-.815-.032a.78.78 0 0 0-.552.545c-.029.097-.037.247-.037.881v4.506c0 .35 0 .582.01.76.01.173.027.244.04.278a.772.772 0 0 0 .561.513.863.863 0 0 0 .243-.004c.166-.017.38-.052.713-.107 1.023-.17 1.371-.235 1.638-.367a2.353 2.353 0 0 0 1.2-1.477c.088-.31.095-.697.095-1.775v-.186c0-1.05-.006-1.43-.087-1.728a2.337 2.337 0 0 0-1.393-1.585c-.264-.103-.608-.139-1.616-.222Z" clip-rule="evenodd"/>
</svg>
