<svg xmlns="http://www.w3.org/2000/svg" width="24" height="24" fill="none">
  <g fill="#1C274C">
    <path d="M2.346 11.25A6.291 6.291 0 0 1 2 9.26C2 3.35 7.5.663 12 5.5 16.5.663 22 3.349 22 9.26a6.3 6.3 0 0 1-.346 1.99h-3.13c-.546 0-1.03-.002-1.471.195-.441.196-.765.557-1.13.963l-.075.084-1.029 1.143c-.076.085-.139.155-.194.214a17.683 17.683 0 0 1-.185-.221l-3.55-4.305c-.14-.17-.289-.35-.435-.485a1.24 1.24 0 0 0-.773-.353 1.24 1.24 0 0 0-.81.258c-.16.116-.33.278-.49.43l-1.53 1.456c-.471.45-.57.526-.672.567-.103.042-.228.054-.879.054H2.346Z"/>
    <path d="M3.004 12.75c1.381 2.562 3.926 4.964 5.958 6.62C10.294 20.458 10.96 21 12 21c1.04 0 1.706-.543 3.038-1.63 2.032-1.656 4.577-4.058 5.958-6.62h-2.36c-.724 0-.861.015-.973.065-.112.05-.215.142-.7.68l-1.054 1.172a5.214 5.214 0 0 1-.486.496c-.185.155-.46.33-.833.321-.373-.008-.641-.194-.82-.357a5.244 5.244 0 0 1-.463-.515l-3.552-4.306-.171-.205c-.055.05-.118.11-.194.183l-1.577 1.501c-.356.34-.671.642-1.077.804-.406.163-.843.162-1.335.161H3.004Z"/>
  </g>
</svg>
