<svg xmlns="http://www.w3.org/2000/svg" width="24" height="24" fill="none">
  <path fill="#1C274C" d="m12 5.5-.54.52a.75.75 0 0 0 1.08 0L12 5.5ZM8.962 18.91l-.465.59.465-.59ZM7 16.42a.75.75 0 0 0-.954 1.16L7 16.42Zm-4.659-3.009a.75.75 0 1 0 1.316-.72l-1.316.72Zm15.829 6.758-.45-.6.45.6Zm2.976-7.251.543-.518-.543.518Zm-4.647.24-.527.534a.75.75 0 0 0 1.054 0l-.527-.534Zm-1.67 7.011.449-.6-.45.6Zm-2.977-7.251.542.518-.542-.518Zm7.594 7.243a.75.75 0 0 0-.893-1.205l.893 1.205Zm1.402-3.517a.75.75 0 1 0 1.32.712l-1.32-.712Zm.249-3.777-.53.53.53-.53ZM2.75 9.137c0-2.15 1.215-3.954 2.874-4.713 1.612-.737 3.778-.541 5.836 1.597l1.08-1.04C10.1 2.444 7.264 2.025 5 3.06 2.786 4.073 1.25 6.425 1.25 9.137h1.5ZM8.497 19.5c.513.404 1.063.834 1.62 1.16.557.325 1.193.59 1.883.59v-1.5c-.31 0-.674-.12-1.126-.385-.453-.264-.922-.628-1.448-1.043L8.497 19.5ZM22.75 9.137c0-2.712-1.535-5.064-3.75-6.077-2.264-1.035-5.098-.616-7.54 1.92l1.08 1.04c2.058-2.137 4.224-2.333 5.836-1.596 1.659.759 2.874 2.562 2.874 4.713h1.5ZM9.426 18.322c-.796-.627-1.605-1.226-2.425-1.901l-.954 1.158c.83.683 1.708 1.335 2.45 1.92l.93-1.177Zm-5.768-5.63a7.252 7.252 0 0 1-.908-3.555h-1.5c0 1.638.42 3.046 1.092 4.274l1.316-.72Zm14.063 6.877a7.087 7.087 0 0 1-.758.52c-.225.125-.369.161-.463.161v1.5c.456 0 .861-.166 1.192-.35.33-.182.65-.422.929-.63l-.9-1.201Zm5.029-4.51a3.843 3.843 0 0 0-1.06-2.66l-1.085 1.037c.397.415.645.987.645 1.623h1.5Zm-8.37 5.71c.278.21.599.449.928.632.33.183.736.349 1.192.349v-1.5c-.094 0-.238-.036-.463-.16a7.097 7.097 0 0 1-.758-.521l-.9 1.2Zm-2.63-5.71c0-.636.248-1.207.645-1.623L11.31 12.4a3.843 3.843 0 0 0-1.06 2.66h1.5Zm.645-1.623a2.176 2.176 0 0 1 1.565-.686c.595-.003 1.304.242 2.013.942l1.054-1.067c-.953-.941-2.03-1.38-3.074-1.375a3.675 3.675 0 0 0-2.643 1.15l1.085 1.035Zm6.226 7.333c.267-.2.527-.386.826-.608l-.893-1.205c-.27.199-.57.416-.833.613l.9 1.2Zm3.548-3.413a4.76 4.76 0 0 0 .581-2.297h-1.5c0 .605-.15 1.122-.4 1.585l1.32.712Zm-6.89 2.213c-.238-.178-.496-.365-.74-.544l-.89 1.207c.26.191.498.363.73.537l.9-1.2Zm-.74-.544c-1.512-1.115-2.789-2.214-2.789-3.965h-1.5c0 2.594 1.953 4.106 3.4 5.172l.89-1.207Zm-.878-.009c-.691.49-1.218.734-1.661.734v1.5c.945 0 1.806-.498 2.528-1.01l-.867-1.224ZM21.69 12.4a4.56 4.56 0 0 0-.062-.063l-1.06 1.06.037.038L21.69 12.4Zm-.062-.063A3.67 3.67 0 0 0 19 11.25c-1.03.008-2.089.448-3.027 1.375l1.054 1.067c.699-.69 1.396-.937 1.985-.942a2.17 2.17 0 0 1 1.556.648l1.06-1.061Zm.137.874a8.739 8.739 0 0 0 .985-4.074h-1.5c0 1.293-.31 2.402-.818 3.386l1.333.688Z"/>
</svg>
