<svg xmlns="http://www.w3.org/2000/svg" width="24" height="24" fill="none">
  <g fill="#1C274C">
    <path d="M16.5 13.287c-2.475-2.716-5.5-.712-5.5 2.112 0 2.56 1.814 4.035 3.358 5.292l.044.036.427.35c.571.475 1.121.923 1.671.923s1.1-.448 1.671-.923C19.789 19.73 22 18.224 22 15.399c0-.927-.326-1.767-.853-2.38-1.075-1.251-2.985-1.556-4.647.268Z"/>
    <path d="M8.106 18.247C5.298 16.083 2 13.542 2 9.137 2 4.274 7.5.825 12 5.501 16.5.825 22 4.274 22 9.137c0 .834-.118 1.6-.329 2.31a4.203 4.203 0 0 0-2.619-.947c-.89-.005-1.758.274-2.553.81-1.39-.933-2.956-1.058-4.33-.395-1.635.79-2.669 2.556-2.669 4.484 0 2.306 1.149 3.923 2.341 5.095-.947-.076-1.896-.808-2.88-1.583a66.6 66.6 0 0 0-.855-.664Z"/>
  </g>
</svg>
