<svg xmlns="http://www.w3.org/2000/svg" width="24" height="24" fill="none">
  <g fill="#1C274C">
    <path d="M2.346 11.25A6.291 6.291 0 0 1 2 9.26C2 3.35 7.5.663 12 5.5 16.5.663 22 3.349 22 9.26a6.3 6.3 0 0 1-.346 1.99h-3.13c-.546 0-1.03-.002-1.471.195-.441.196-.765.557-1.13.963l-.075.084-1.029 1.143a.25.25 0 0 1-.379-.007l-3.55-4.305c-.14-.17-.289-.35-.435-.485a1.24 1.24 0 0 0-.773-.353 1.24 1.24 0 0 0-.81.258c-.16.116-.33.278-.49.43l-1.53 1.456c-.471.45-.57.526-.672.567-.103.042-.228.054-.879.054H2.346Z" opacity=".5"/>
    <path d="M21.654 11.25h-3.13c-.546-.001-1.03-.002-1.472.194-.44.197-.764.558-1.129.964l-.075.084-1.029 1.143a.25.25 0 0 1-.38-.008l-3.55-4.304c-.14-.17-.29-.35-.435-.485a1.24 1.24 0 0 0-.773-.354 1.24 1.24 0 0 0-.81.26c-.161.115-.331.277-.49.428l-1.53 1.457c-.471.45-.57.526-.673.567-.103.041-.227.054-.878.054H2.346c1.036 3.105 4.191 6.144 6.615 8.12C10.293 20.457 10.96 21 12 21s1.706-.543 3.038-1.63c2.424-1.976 5.58-5.015 6.616-8.12Z"/>
  </g>
</svg>
