<svg xmlns="http://www.w3.org/2000/svg" width="24" height="24" fill="none">
  <g fill="#1C274C">
    <path d="M15.038 18.91C17.981 16.592 22 14 22 9.138c0-4.863-5.5-8.312-10-3.636l-1.118 2.235c-.182.364-.273.547-.229.726.044.18.21.298.542.535l1.916 1.368c.416.297.624.445.65.664.027.219-.14.413-.472.8l-1.686 1.968c-.286.333-.43.5-.422.696.008.196.163.351.474.662l.945.945c.195.195.293.293.328.42.035.127.002.261-.065.53L12 20.5c1 0 2-.77 3.038-1.59Z"/>
    <path d="M8.106 18.247C5.298 16.083 2 13.542 2 9.137 2 4.274 7.5.825 12 5.501l-1.118 2.235c-.182.364-.273.547-.229.726.044.18.21.298.542.535l1.916 1.368c.416.297.624.445.65.664.027.219-.14.413-.472.8l-1.686 1.968c-.286.333-.43.5-.422.696.008.196.163.351.474.662l.945.945c.195.195.293.293.328.42.035.127.002.261-.065.53L12 20.5c-1 0-2-.77-3.038-1.59-.277-.218-.564-.438-.856-.663Z" opacity=".5"/>
  </g>
</svg>
