<svg xmlns="http://www.w3.org/2000/svg" width="24" height="24" fill="none">
  <path fill="#1C274C" d="M19.582 18.52A9.96 9.96 0 0 0 22 12a9.96 9.96 0 0 0-2.418-6.52l-4.273 4.272A3.98 3.98 0 0 1 16 12c0 .834-.255 1.607-.691 2.248l4.273 4.273Zm-1.062 1.062A9.96 9.96 0 0 1 12 22a9.96 9.96 0 0 1-6.52-2.418l4.272-4.273A3.98 3.98 0 0 0 12 16c.834 0 1.607-.255 2.248-.691l4.273 4.273ZM4.418 18.52l4.273-4.272A3.981 3.981 0 0 1 8 12c0-.834.255-1.607.691-2.248L4.418 5.479A9.96 9.96 0 0 0 2 12a9.96 9.96 0 0 0 2.418 6.52ZM12 8c-.834 0-1.607.255-2.248.691L5.479 4.418A9.96 9.96 0 0 1 12 2a9.96 9.96 0 0 1 6.52 2.418l-4.272 4.273A3.981 3.981 0 0 0 12 8Z"/>
</svg>
