<svg xmlns="http://www.w3.org/2000/svg" width="24" height="24" fill="none">
  <g fill="#1C274C" fill-rule="evenodd" clip-rule="evenodd">
    <path d="M11.943 1.25h.114c2.309 0 4.118 0 5.53.19 1.444.194 2.584.6 3.479 1.494.895.895 1.3 2.035 1.494 3.48.19 1.411.19 3.22.19 5.529v.114c0 2.309 0 4.118-.19 5.53-.194 1.444-.6 2.584-1.494 3.479-.895.895-2.035 1.3-3.48 1.494-1.411.19-3.22.19-5.529.19h-.114c-2.309 0-4.118 0-5.53-.19-1.444-.194-2.584-.6-3.479-1.494-.895-.895-1.3-2.035-1.494-3.48-.19-1.411-.19-3.22-.19-5.529v-.114c0-2.309 0-4.118.19-5.53.194-1.444.6-2.584 1.494-3.479.895-.895 2.035-1.3 3.48-1.494 1.411-.19 3.22-.19 5.529-.19Zm-5.33 1.676c-1.278.172-2.049.5-2.618 1.069-.57.57-.897 1.34-1.069 2.619-.174 1.3-.176 3.008-.176 5.386s.002 4.086.176 5.386c.172 1.279.5 2.05 1.069 2.62.57.569 1.34.896 2.619 1.068 1.3.174 3.008.176 5.386.176s4.086-.002 5.386-.176c1.279-.172 2.05-.5 2.62-1.069.569-.57.896-1.34 1.068-2.619.174-1.3.176-3.008.176-5.386s-.002-4.086-.176-5.386c-.172-1.279-.5-2.05-1.069-2.62-.57-.569-1.34-.896-2.619-1.068-1.3-.174-3.008-.176-5.386-.176s-4.086.002-5.386.176Z"/>
    <path d="M5.5 7.25a.75.75 0 0 1 .75.75v3.25h3.315V8a.75.75 0 1 1 1.5 0v8a.75.75 0 0 1-1.5 0v-3.25H6.25V16a.75.75 0 0 1-1.5 0V8a.75.75 0 0 1 .75-.75Zm6.472 1.55c0-.98.903-1.55 1.713-1.55 2.937 0 5.565 2.002 5.565 4.75s-2.628 4.75-5.565 4.75c-.81 0-1.713-.57-1.713-1.55V8.8Zm1.5.022a.321.321 0 0 1 .213-.072c2.381 0 4.065 1.58 4.065 3.25s-1.684 3.25-4.065 3.25a.321.321 0 0 1-.213-.072V8.822Z"/>
  </g>
</svg>
