<svg xmlns="http://www.w3.org/2000/svg" width="24" height="24" fill="none">
  <g fill="#1C274C">
    <path d="M14 4.5a2.5 2.5 0 1 1-5 0 2.5 2.5 0 0 1 5 0Z"/>
    <path fill-rule="evenodd" d="M19 7.25a.75.75 0 0 1 .75.75v14a.75.75 0 0 1-1.5 0v-9.899c-.485.405-.87.72-1.307.879a2.75 2.75 0 0 1-1.886 0c-.453-.165-.85-.497-1.36-.923l-.093-.077-.081-.068a6.174 6.174 0 0 0-.47-.37 5.344 5.344 0 0 0-1.2-.587 8.37 8.37 0 0 0-.386-.09.96.96 0 0 0-.092-.014.501.501 0 0 0-.21.15.255.255 0 0 0-.012.049c-.01.053-.017.124-.031.27l-.162 1.623c-.094.934-.105 1.184-.04 1.393.039.122.096.237.169.342.125.18.33.324 1.126.822l.105.066c.796.496 1.347.84 1.745 1.335.2.249.367.521.498.812.261.579.318 1.226.401 2.16l.011.125.172 1.935a.75.75 0 0 1-1.494.134l-.172-1.936c-.098-1.107-.142-1.483-.285-1.802a2.253 2.253 0 0 0-.3-.487c-.219-.273-.534-.481-1.476-1.07a49.208 49.208 0 0 0-.112-.07c-.63-.393-1.126-.702-1.45-1.165a2.75 2.75 0 0 1-.369-.754c-.169-.539-.11-1.12-.035-1.859l.013-.13.162-1.622.005-.048c.022-.23.047-.485.17-.752.135-.297.373-.53.594-.686.22-.156.52-.302.846-.33.184-.016.356.008.505.036.144.028.316.07.507.118l.026.006.018.005a.762.762 0 0 1 .029.008c.008.003.042.014.082.032a6.778 6.778 0 0 1 1.498.75c.206.142.343.256.562.439l.012.01.082.068c.648.54.832.68 1.006.743.277.1.58.1.858 0 .174-.064.358-.203 1.007-.743l.814-.68V8a.75.75 0 0 1 .75-.75Zm-6.63 3.697.005-.003-.005.002Zm-.541-1.4h.002l.007-.003-.009.003Z" clip-rule="evenodd"/>
    <path d="M8.712 9.763a.75.75 0 0 1-.475.949l-1.672.557A1.192 1.192 0 0 0 5.75 12.4c0 .084.047.16.122.198l2.463 1.231a.75.75 0 1 1-.67 1.342L5.2 13.939a1.721 1.721 0 0 1-.95-1.539c0-1.159.742-2.188 1.84-2.554l1.673-.557a.75.75 0 0 1 .949.474Zm.704 7.113a.75.75 0 0 1 .208 1.04l-3 4.5a.75.75 0 1 1-1.248-.832l3-4.5a.75.75 0 0 1 1.04-.208Z" opacity=".5"/>
  </g>
</svg>
