<svg xmlns="http://www.w3.org/2000/svg" width="24" height="24" fill="none">
  <circle cx="11.5" cy="4.5" r="2.5" stroke="#1C274C" stroke-width="1.5"/>
  <path stroke="#1C274C" stroke-linecap="round" stroke-width="1.5" d="M9 17.5 6 22" opacity=".5"/>
  <path fill="#1C274C" d="m10.375 11.246.747.074-.747-.074Zm-.162 1.622.747.074-.747-.074Zm3.79-1.533-.48.577.48-.577Zm.081.068.48-.576-.48.576Zm3.832 0-.48-.576.48.576Zm1.564-.327a.75.75 0 0 0-.96-1.152l.96 1.152Zm-5.252 8.988.747-.067-.747.067Zm-.575 2.002a.75.75 0 1 0 1.495-.133l-1.495.133Zm1.661-9.791-.257.704.257-.704Zm1.372 0 .257.704-.257-.704Zm-4.592-2.033-.18.728.18-.728Zm.148.056-.242.71.242-.71Zm1.24.627.428-.615-.429.615Zm-1.665 5.21.398-.636-.398.636Zm1.664 1.236-.584.47.584-.47Zm.398.65-.683.307.683-.308Zm-3.674-3.462-.716.224.716-.224Zm.269.548-.615.43.615-.43Zm.011-4.423.683.311-.682-.311Zm.824-.581-.065-.747.065.747Zm-1.68 1.068-.162 1.622 1.492.15.163-1.623-1.493-.149Zm3.894.74.081.069.96-1.153-.08-.068-.961 1.153Zm4.873.069 1.084-.904-.96-1.152-1.084.903.96 1.152Zm-4.915 8.15.172 1.936 1.495-.133-.173-1.936-1.494.133Zm.123-8.15c.555.462.973.824 1.453 1l.514-1.41c-.174-.063-.358-.202-1.006-.743l-.96 1.152Zm3.832-1.153c-.649.54-.833.68-1.007.743l.514 1.41c.48-.176.898-.538 1.453-1l-.96-1.153Zm-2.379 2.152a2.75 2.75 0 0 0 1.886 0l-.514-1.409a1.25 1.25 0 0 1-.858 0l-.514 1.41Zm-3.143-2.009h.002c.001 0 .001 0 0 0h-.002l-.01-.003-.026-.007a.62.62 0 0 1-.126-.053.762.762 0 0 1-.305-.3.75.75 0 0 1 .391-1.063.729.729 0 0 0-.217.127.753.753 0 0 0-.124 1.016.758.758 0 0 0 .375.275l.128.046.485-1.42a2.75 2.75 0 0 1-.081-.028l.008.003a.558.558 0 0 1 .082.043.723.723 0 0 1 .148.118.75.75 0 0 1-.229 1.204l-.043.018a.654.654 0 0 0 .033-.013c.014-.007.058-.026.11-.06a.745.745 0 0 0 .34-.649.75.75 0 0 0-.442-.664c-.04-.018-.074-.028-.082-.031a.742.742 0 0 0-.029-.008l-.018-.005-.008-.002-.36 1.456Zm2.57-.21a7.475 7.475 0 0 0-.574-.45l-.857 1.23c.148.104.238.179.47.372l.96-1.153ZM12 11.007a5.34 5.34 0 0 1 1.053.533l.857-1.231a6.781 6.781 0 0 0-1.425-.722L12 11.008Zm-.58 5.763c.942.59 1.257.798 1.477 1.07l1.168-.94c-.415-.516-.997-.869-1.85-1.402l-.795 1.272Zm3.555 3.226c-.089-1.002-.14-1.68-.412-2.285l-1.367.616c.143.32.187.695.285 1.802l1.494-.133Zm-2.078-2.155c.12.149.22.312.299.486l1.367-.616a3.754 3.754 0 0 0-.498-.81l-1.168.94Zm-3.43-5.05c-.08.802-.156 1.42.022 1.991l1.432-.448c-.066-.208-.055-.458.039-1.393l-1.493-.15Zm2.748 2.707c-.797-.497-1.001-.642-1.126-.821l-1.23.858c.342.49.878.809 1.56 1.235l.796-1.272Zm-2.726-.716c.084.269.209.523.37.754l1.23-.86a1.252 1.252 0 0 1-.168-.342l-1.432.448Zm1.633-3.463c.014-.146.022-.217.031-.27.007-.039.012-.048.015-.055l-1.365-.623c-.13.286-.15.557-.174.8l1.493.148Zm1.152-1.806c-.199-.05-.376-.093-.524-.122a1.828 1.828 0 0 0-.506-.036l.13 1.494c-.02.002-.005-.003.093.015.1.02.232.052.447.105l.36-1.456Zm-1.106 1.481c-.007.016-.007.01.013-.013a.497.497 0 0 1 .175-.124c.028-.011.034-.01.018-.008l-.13-1.494a1.776 1.776 0 0 0-.846.33c-.22.155-.459.388-.595.686l1.365.623Z"/>
  <path stroke="#1C274C" stroke-linecap="round" stroke-width="1.5" d="M19 22V8"/>
  <path stroke="#1C274C" stroke-linecap="round" stroke-width="1.5" d="m8 10-1.672.557A1.942 1.942 0 0 0 5 12.4a.97.97 0 0 0 .537.868L8 14.5" opacity=".5"/>
</svg>
