<svg xmlns="http://www.w3.org/2000/svg" width="24" height="24" fill="none">
  <path fill="#1C274C" fill-rule="evenodd" d="M9.1 2.398a.75.75 0 0 1-.43.97 9.187 9.187 0 0 0-.42.173.75.75 0 1 1-.608-1.37c.16-.072.323-.14.488-.203a.75.75 0 0 1 .97.43ZM5.648 4.24a.75.75 0 0 1-.026 1.06 9.31 9.31 0 0 0-.321.322.75.75 0 1 1-1.087-1.035c.122-.127.246-.251.373-.373a.75.75 0 0 1 1.06.026ZM3.16 7.261a.75.75 0 0 1 .381.99c-.061.138-.12.278-.174.419a.75.75 0 0 1-1.399-.54c.063-.165.13-.327.202-.488a.75.75 0 0 1 .99-.381Zm-1.139 3.743a.75.75 0 0 1 .732.768 9.448 9.448 0 0 0 0 .456.75.75 0 0 1-1.5.036 10.961 10.961 0 0 1 0-.528.75.75 0 0 1 .768-.732ZM21.602 14.9a.75.75 0 0 1 .43.97c-.064.165-.13.327-.202.488a.75.75 0 1 1-1.371-.609 9.28 9.28 0 0 0 .174-.419.75.75 0 0 1 .97-.43Zm-19.204 0a.75.75 0 0 1 .97.43c.054.141.112.281.173.42a.75.75 0 1 1-1.37.608 9.104 9.104 0 0 1-.203-.488.75.75 0 0 1 .43-.97Zm17.362 3.452c.3.286.311.76.026 1.06a11.96 11.96 0 0 1-.373.374.75.75 0 1 1-1.035-1.087c.11-.104.217-.211.321-.32a.75.75 0 0 1 1.06-.027Zm-15.52 0a.75.75 0 0 1 1.06.026c.105.11.212.217.322.321a.75.75 0 1 1-1.035 1.087 10.788 10.788 0 0 1-.373-.373.75.75 0 0 1 .026-1.06Zm3.021 2.488a.75.75 0 0 1 .99-.381c.138.061.278.12.419.174a.75.75 0 0 1-.54 1.399 10.61 10.61 0 0 1-.488-.202.75.75 0 0 1-.381-.99Zm9.478 0a.75.75 0 0 1-.381.99c-.16.071-.323.139-.488.202a.75.75 0 1 1-.54-1.4 9.28 9.28 0 0 0 .42-.173.75.75 0 0 1 .989.381Zm-5.735 1.139a.75.75 0 0 1 .768-.732 9.101 9.101 0 0 0 .456 0 .75.75 0 0 1 .036 1.5 11.065 11.065 0 0 1-.528 0 .75.75 0 0 1-.732-.768ZM11.25 2a.75.75 0 0 1 .75-.75c5.937 0 10.75 4.813 10.75 10.75a.75.75 0 0 1-1.5 0A9.25 9.25 0 0 0 12 2.75a.75.75 0 0 1-.75-.75ZM12 8.25a.75.75 0 0 1 .75.75v3.25H16a.75.75 0 0 1 0 1.5h-4a.75.75 0 0 1-.75-.75V9a.75.75 0 0 1 .75-.75Z" clip-rule="evenodd"/>
</svg>
