<svg xmlns="http://www.w3.org/2000/svg" width="24" height="24" fill="none">
  <path fill="#1C274C" fill-rule="evenodd" d="M14 22h-4c-3.771 0-5.657 0-6.828-1.212C2 19.576 2 17.626 2 13.725v-1.521c0-2.289 0-3.433.52-4.381.518-.949 1.467-1.537 3.364-2.715l2-1.241C9.889 2.622 10.892 2 12 2c1.108 0 2.11.622 4.116 1.867l2 1.241c1.897 1.178 2.846 1.766 3.365 2.715.519.948.519 2.092.519 4.38v1.522c0 3.9 0 5.851-1.172 7.063C19.657 22 17.771 22 14 22Zm3.45-9.808c-3.017-3.256-7.883-3.256-10.9 0a.75.75 0 1 1-1.1-1.02c3.61-3.896 9.49-3.896 13.1 0a.75.75 0 1 1-1.1 1.02Zm-2 2.159c-1.912-2.065-4.987-2.065-6.9 0a.75.75 0 1 1-1.1-1.02c2.506-2.705 6.594-2.705 9.1 0a.75.75 0 1 1-1.1 1.02Zm-2 2.158c-.808-.871-2.092-.871-2.9 0a.75.75 0 1 1-1.1-1.019c1.401-1.513 3.699-1.513 5.1 0a.75.75 0 0 1-1.1 1.02Z" clip-rule="evenodd"/>
</svg>
