<svg xmlns="http://www.w3.org/2000/svg" width="24" height="24" fill="none">
  <g fill="#1C274C">
    <path d="M13.106 22h-2.212c-3.447 0-5.17 0-6.345-1.012-1.175-1.012-1.419-2.705-1.906-6.093l-.279-1.937c-.38-2.637-.57-3.956-.029-5.083.54-1.127 1.691-1.813 3.992-3.183l1.385-.825C9.8 2.622 10.846 2 12 2c1.154 0 2.199.622 4.288 1.867l1.385.825c2.3 1.37 3.451 2.056 3.992 3.183.54 1.127.35 2.446-.03 5.083l-.278 1.937c-.487 3.388-.731 5.081-1.906 6.093C18.276 22 16.553 22 13.106 22Z" opacity=".5"/>
    <path d="M17.45 12.192c-3.017-3.256-7.883-3.256-10.9 0a.75.75 0 1 1-1.1-1.02c3.61-3.896 9.49-3.896 13.1 0a.75.75 0 1 1-1.1 1.02Z"/>
    <path d="M15.45 14.35c-1.912-2.063-4.987-2.063-6.9 0a.75.75 0 1 1-1.1-1.019c2.506-2.704 6.594-2.704 9.1 0a.75.75 0 0 1-1.1 1.02Z"/>
    <path d="M13.45 16.51c-.808-.872-2.092-.872-2.9 0a.75.75 0 1 1-1.1-1.02c1.401-1.512 3.699-1.512 5.1 0a.75.75 0 0 1-1.1 1.02Z"/>
  </g>
</svg>
