<svg xmlns="http://www.w3.org/2000/svg" xmlns:xlink="http://www.w3.org/1999/xlink" width="24" height="24" fill="none">
  <defs>
    <path id="home_bold_svg__a" fill-rule="evenodd" d="M10.75 9.5a1.25 1.25 0 1 1 2.5 0 1.25 1.25 0 0 1-2.5 0Z" clip-rule="evenodd"/>
  </defs>
  <g fill="#1C274C">
    <path d="M18.5 3H16a.5.5 0 0 0-.5.5v.059l3.5 2.8V3.5a.5.5 0 0 0-.5-.5Z"/>
    <use xlink:href="#home_bold_svg__a" fill-rule="evenodd" clip-rule="evenodd"/>
    <path fill-rule="evenodd" d="m20.75 10.96.782.626a.75.75 0 0 0 .936-1.172l-8.125-6.5a3.75 3.75 0 0 0-4.686 0l-8.125 6.5a.75.75 0 0 0 .937 1.172l.781-.626v10.29H2a.75.75 0 0 0 0 1.5h20a.75.75 0 0 0 0-1.5h-1.25V10.96ZM9.25 9.5a2.75 2.75 0 1 1 5.5 0 2.75 2.75 0 0 1-5.5 0Zm2.8 3.75c.664 0 1.237 0 1.696.062.492.066.963.215 1.345.597s.531.853.597 1.345c.058.43.062.96.062 1.573v4.423h-1.5V17c0-.728-.002-1.2-.048-1.546-.044-.325-.114-.427-.172-.484-.057-.057-.159-.128-.484-.172-.347-.046-.818-.048-1.546-.048-.728 0-1.2.002-1.546.048-.325.044-.427.115-.484.172-.057.057-.128.159-.172.484-.046.347-.048.818-.048 1.546v4.25h-1.5v-4.3c0-.664 0-1.237.062-1.696.066-.492.215-.963.597-1.345s.854-.531 1.345-.597c.459-.062 1.032-.062 1.697-.062h.098Z" clip-rule="evenodd"/>
    <use xlink:href="#home_bold_svg__a" fill-rule="evenodd" clip-rule="evenodd"/>
  </g>
</svg>
