<svg xmlns="http://www.w3.org/2000/svg" width="24" height="24" fill="none">
  <path fill="#1C274C" fill-rule="evenodd" d="M2.335 7.875c-.54 1.127-.35 2.446.03 5.083l.278 1.937c.487 3.388.731 5.081 1.906 6.093C5.724 22 7.447 22 10.894 22h2.212c3.447 0 5.17 0 6.345-1.012 1.175-1.012 1.419-2.705 1.906-6.093l.279-1.937c.38-2.637.57-3.956.029-5.083-.54-1.127-1.691-1.813-3.992-3.183l-1.385-.825C14.2 2.622 13.154 2 12 2c-1.154 0-2.199.622-4.288 1.867l-1.385.825c-2.3 1.37-3.451 2.056-3.992 3.183ZM12 18.75a.75.75 0 0 1-.75-.75v-3a.75.75 0 0 1 1.5 0v3a.75.75 0 0 1-.75.75Z" clip-rule="evenodd"/>
</svg>
