<svg xmlns="http://www.w3.org/2000/svg" width="24" height="24" fill="none">
  <g fill="#1C274C">
    <path d="M3.464 20.535C4.93 22 7.286 22 12 22c4.714 0 7.071 0 8.535-1.465 1.271-1.27 1.44-3.213 1.462-6.785H18.84c-.974 0-1.229.016-1.442.114-.214.099-.392.282-1.026 1.02l-.693.81c-.502.586-.9 1.051-1.45 1.304-.55.253-1.162.253-1.934.252h-.59c-.772 0-1.384.002-1.934-.252-.55-.253-.948-.718-1.45-1.305l-.693-.808c-.634-.74-.812-.922-1.026-1.02-.213-.099-.468-.115-1.442-.115H2.003c.023 3.572.19 5.515 1.461 6.785Z"/>
    <path fill-rule="evenodd" d="M7.25 7A.75.75 0 0 1 8 6.25h8a.75.75 0 0 1 0 1.5H8A.75.75 0 0 1 7.25 7Z" clip-rule="evenodd"/>
    <path fill-rule="evenodd" d="M12 2c4.714 0 7.071 0 8.535 1.464C22 4.93 22 7.286 22 12v.25h-3.294c-.773 0-1.385-.002-1.935.252-.55.253-.948.718-1.45 1.305l-.693.808c-.634.74-.812.922-1.026 1.02-.213.099-.468.115-1.442.115h-.32c-.974 0-1.229-.016-1.442-.114-.214-.099-.392-.282-1.026-1.02l-.693-.81c-.502-.586-.9-1.051-1.45-1.304-.55-.254-1.162-.253-1.934-.252H2V12c0-4.714 0-7.071 1.464-8.536C4.93 2 7.286 2 12 2Zm-2.75 8.5a.75.75 0 0 1 .75-.75h4a.75.75 0 0 1 0 1.5h-4a.75.75 0 0 1-.75-.75Z" clip-rule="evenodd"/>
  </g>
</svg>
