<svg xmlns="http://www.w3.org/2000/svg" width="24" height="24" fill="none">
  <g stroke="#1C274C" stroke-linecap="round" stroke-width="1.5">
    <path d="M4 15h2.301c.809 0 1.213 0 1.576.148.033.013.065.027.098.043.354.167.628.464 1.175 1.059l.035.038c.513.557.769.835 1.096 1 .061.03.124.058.188.082.343.13.72.13 1.477.13.715 0 1.073 0 1.4-.117a2.01 2.01 0 0 0 .18-.075c.314-.148.567-.401 1.073-.907l.23-.23c.577-.577.866-.866 1.234-1.019.368-.152.776-.152 1.594-.152H20M5 15v-1.5A1.5 1.5 0 0 1 6.5 12h8.25m2.75 0a1.5 1.5 0 0 1 1.5 1.5V15"/>
    <path d="M5 14v-3.5A1.5 1.5 0 0 1 6.5 9H10m9 5v-3.5A1.5 1.5 0 0 0 17.5 9H14"/>
    <path d="M5 11V7.5A1.5 1.5 0 0 1 6.5 6M19 11V7.5A1.5 1.5 0 0 0 17.5 6H9.25"/>
    <path d="M22 12c0 4.714 0 7.071-1.465 8.535C19.072 22 16.714 22 12 22s-7.071 0-8.536-1.465C2 19.072 2 16.714 2 12s0-7.071 1.464-8.536C4.93 2 7.286 2 12 2c4.714 0 7.071 0 8.535 1.464.974.974 1.3 2.343 1.41 4.536"/>
  </g>
</svg>
