<svg xmlns="http://www.w3.org/2000/svg" width="24" height="24" fill="none">
  <path stroke="#1C274C" stroke-width="1.5" d="M2 12c0-4.714 0-7.071 1.464-8.536C4.93 2 7.286 2 12 2c4.714 0 7.071 0 8.535 1.464C22 4.93 22 7.286 22 12c0 4.714 0 7.071-1.465 8.535C19.072 22 16.714 22 12 22s-7.071 0-8.536-1.465C2 19.072 2 16.714 2 12Z"/>
  <path fill="#1C274C" d="M4 14.25a.75.75 0 0 0 0 1.5v-1.5Zm16 1.5a.75.75 0 0 0 0-1.5v1.5Zm-5.401.651-.53-.53.53.53Zm.23-.23-.53-.53.53.53Zm-5.679.079-.552.508.552-.508Zm.035.038.552-.507-.552.507Zm1.096 1-.336.67.336-.67Zm.188.082.266-.701-.266.701Zm3.057-.062-.32-.678.32.678Zm-.18.075.253.706-.253-.706Zm2.717-2.23-.287-.694.287.693Zm-8.186-.005.283-.695-.283.695Zm.098.043-.32.678.32-.678ZM4.25 15a.75.75 0 0 0 1.5 0h-1.5Zm14 0a.75.75 0 0 0 1.5 0h-1.5ZM4 15.75h2.301v-1.5H4v1.5Zm13.657 0H20v-1.5h-2.343v1.5Zm-2.528 1.182.23-.23-1.06-1.06-.23.229 1.06 1.06Zm-6.53-.174.035.038 1.103-1.015-.035-.039-1.104 1.016Zm.035.038c.473.515.832.922 1.31 1.162l.673-1.34c-.176-.089-.33-.24-.88-.837l-1.103 1.015Zm3.312-.046c-.813 0-1.027-.011-1.211-.081l-.531 1.403c.5.19 1.042.178 1.742.178v-1.5Zm-2.001 1.208c.084.042.17.08.258.114l.532-1.403a1.24 1.24 0 0 1-.118-.052l-.672 1.341Zm4.123-2.087c-.543.543-.693.68-.862.76l.64 1.355c.46-.217.815-.586 1.283-1.054l-1.06-1.061Zm-2.122 2.379c.662 0 1.175.01 1.653-.161l-.506-1.412c-.176.063-.379.073-1.147.073v1.5Zm1.26-1.62a1.243 1.243 0 0 1-.113.047l.506 1.412c.084-.03.167-.064.248-.103l-.641-1.356Zm4.45-2.38c-.755 0-1.342-.013-1.88.21l.574 1.385c.198-.082.428-.095 1.307-.095v-1.5Zm-2.297 2.452c.621-.621.793-.775.991-.857l-.574-1.386c-.537.223-.943.648-1.478 1.182l1.06 1.06ZM6.3 15.75c.87 0 1.098.013 1.293.092l.566-1.389c-.53-.216-1.11-.203-1.859-.203v1.5Zm3.401-.008c-.506-.55-.89-.986-1.408-1.23l-.639 1.357c.19.09.355.25.943.889l1.104-1.016Zm-2.108.1.061.027.64-1.357a2.75 2.75 0 0 0-.135-.059l-.566 1.39ZM6.5 12.75h11v-1.5h-11v1.5Zm11 0a.75.75 0 0 1 .75.75h1.5a2.25 2.25 0 0 0-2.25-2.25v1.5Zm-11.75.75a.75.75 0 0 1 .75-.75v-1.5a2.25 2.25 0 0 0-2.25 2.25h1.5Zm.75-3.75h11v-1.5h-11v1.5Zm11 0a.75.75 0 0 1 .75.75h1.5a2.25 2.25 0 0 0-2.25-2.25v1.5Zm-11.75.75a.75.75 0 0 1 .75-.75v-1.5a2.25 2.25 0 0 0-2.25 2.25h1.5Zm0 0v-3h-1.5v3h1.5Zm.75-3.75h11v-1.5h-11v1.5Zm11.75.75v3h1.5v-3h-1.5Zm-.75-.75a.75.75 0 0 1 .75.75h1.5a2.25 2.25 0 0 0-2.25-2.25v1.5ZM5.75 7.5a.75.75 0 0 1 .75-.75v-1.5A2.25 2.25 0 0 0 4.25 7.5h1.5Zm0 7.5v-1.5h-1.5V15h1.5Zm12.5-1.5V15h1.5v-1.5h-1.5Zm-12.5 0v-3h-1.5v3h1.5Zm12.5-3v3h1.5v-3h-1.5Z" opacity=".5"/>
</svg>
