<svg xmlns="http://www.w3.org/2000/svg" width="24" height="24" fill="none">
  <path fill="#1C274C" fill-rule="evenodd" d="M11.943 1.25h.114c2.309 0 4.118 0 5.53.19 1.444.194 2.584.6 3.479 1.494.895.895 1.3 2.035 1.494 3.48.19 1.411.19 3.22.19 5.529v.114c0 2.309 0 4.118-.19 5.53-.194 1.444-.6 2.584-1.494 3.479-.895.895-2.035 1.3-3.48 1.494-1.411.19-3.22.19-5.529.19h-.114c-2.309 0-4.118 0-5.53-.19-1.444-.194-2.584-.6-3.479-1.494-.895-.895-1.3-2.035-1.494-3.48-.19-1.411-.19-3.22-.19-5.529v-.114c0-2.309 0-4.118.19-5.53.194-1.444.6-2.584 1.494-3.479.895-.895 2.035-1.3 3.48-1.494 1.411-.19 3.22-.19 5.529-.19Zm-5.33 1.676c-1.278.172-2.049.5-2.618 1.069-.57.57-.897 1.34-1.069 2.619-.174 1.3-.176 3.008-.176 5.386s.002 4.086.176 5.386c.172 1.279.5 2.05 1.069 2.62.57.569 1.34.896 2.619 1.068 1.3.174 3.008.176 5.386.176s4.086-.002 5.386-.176c1.279-.172 2.05-.5 2.62-1.069.569-.57.896-1.34 1.068-2.619.174-1.3.176-3.008.176-5.386s-.002-4.086-.176-5.386c-.172-1.279-.5-2.05-1.069-2.62-.57-.569-1.34-.896-2.619-1.068-1.3-.174-3.008-.176-5.386-.176s-4.086.002-5.386.176ZM6.5 6.75a.75.75 0 0 0-.75.75v.878c.235-.083.487-.128.75-.128h11c.263 0 .515.045.75.128V7.5a.75.75 0 0 0-.75-.75h-11Zm13.25.75a2.25 2.25 0 0 0-2.25-2.25h-11A2.25 2.25 0 0 0 4.25 7.5v6.75H4a.75.75 0 0 0 0 1.5h2.301c.87 0 1.098.013 1.293.092l.061.027c.19.09.355.25.943.889l.036.038.075.083c.438.476.783.852 1.236 1.08.084.041.17.08.258.113.474.18.985.179 1.631.178h.218c.611 0 1.094.001 1.547-.161.084-.03.167-.064.248-.103.434-.205.775-.547 1.207-.98l.075-.074.23-.23c.621-.621.793-.775.991-.857.198-.082.428-.095 1.307-.095H20a.75.75 0 0 0 0-1.5h-.25V7.5Zm-1.5 3a.75.75 0 0 0-.75-.75h-11a.75.75 0 0 0-.75.75v.878c.235-.083.487-.128.75-.128h11c.263 0 .515.045.75.128V10.5Zm0 3a.75.75 0 0 0-.75-.75h-11a.75.75 0 0 0-.75.75v.75h.671c.69 0 1.237-.001 1.739.203.045.019.09.038.134.06.49.23.86.632 1.327 1.141l.08.088.036.039c.55.598.704.748.88.836.038.02.078.037.118.052.184.07.398.081 1.211.081.768 0 .971-.01 1.147-.073.038-.014.076-.03.113-.047.169-.08.32-.216.862-.76l.23-.229.085-.085c.494-.495.885-.886 1.393-1.097.509-.21 1.061-.21 1.76-.21l.12.001h.594v-.75Z" clip-rule="evenodd"/>
</svg>
