<svg xmlns="http://www.w3.org/2000/svg" width="24" height="24" fill="none">
  <g fill="#1C274C">
    <path d="M6 3.5c0-.466 0-.699.076-.883a1 1 0 0 1 .541-.54C6.801 2 7.034 2 7.5 2h9c.466 0 .699 0 .883.076a1 1 0 0 1 .54.541c.077.184.077.417.077.883s0 .699-.076.883a1 1 0 0 1-.541.54C17.199 5 16.966 5 16.5 5h-9c-.466 0-.699 0-.883-.076a1 1 0 0 1-.54-.541C6 4.199 6 3.966 6 3.5Z" opacity=".5"/>
    <path fill-rule="evenodd" d="M12 11.25a.75.75 0 0 1 .75.75v1.25H14a.75.75 0 0 1 0 1.5h-1.25V16a.75.75 0 0 1-1.5 0v-1.25H10a.75.75 0 0 1 0-1.5h1.25V12a.75.75 0 0 1 .75-.75Z" clip-rule="evenodd"/>
    <path d="m15.878 15.667-2.21 2.211c-.917.916-.886 2.432.068 3.386.954.954 2.47.985 3.386.069l2.21-2.211c.917-.916.886-2.432-.068-3.386-.954-.954-2.47-.985-3.386-.069Z" opacity=".5"/>
    <path d="M9 5 5.501 7.799A4 4 0 0 0 4.108 10h15.788a4 4 0 0 0-1.379-2.2L16.16 5.89 15.018 5H9ZM4.927 20.113A4 4 0 0 1 4.025 18h7.78c-.56 1.31-.336 2.86.58 4H8.957c-.571 0-.857 0-1.127-.037a4 4 0 0 1-2.152-1.008c-.202-.184-.385-.404-.75-.842Z"/>
    <path d="M4 17.552v-6.63c0-.313.037-.623.108-.922h15.787c.07.295.105.6.105.908v3.476c-1.511-1.215-3.747-1.213-5.182.222l-2.211 2.211c-.354.354-.62.756-.803 1.183H4.025A4 4 0 0 1 4 17.552Z" opacity=".5"/>
    <path d="M18.82 19.634a4.792 4.792 0 0 0-.168-.377 6.46 6.46 0 0 0-1.231-1.678 6.464 6.464 0 0 0-1.678-1.232 4.77 4.77 0 0 0-.377-.168l-1.226 1.226.47.1.01.003a2.99 2.99 0 0 1 .454.183c.324.16.786.448 1.286.949.5.5.789.962.95 1.285a2.995 2.995 0 0 1 .182.454l.003.011.1.47 1.226-1.226Z"/>
  </g>
</svg>
