<svg xmlns="http://www.w3.org/2000/svg" width="24" height="24" fill="none">
  <g stroke="#1C274C" stroke-width="1.5">
    <path d="M4 3.5c0-.466 0-.699.076-.883a1 1 0 0 1 .541-.54C4.801 2 5.034 2 5.5 2h9c.466 0 .699 0 .883.076a1 1 0 0 1 .54.541c.077.184.077.417.077.883s0 .699-.076.883a1 1 0 0 1-.541.54C15.199 5 14.966 5 14.5 5h-9c-.466 0-.699 0-.883-.076a1 1 0 0 1-.54-.541C4 4.199 4 3.966 4 3.5Z"/>
    <path stroke-linecap="round" d="M2.5 18h8m0 4H6.957c-.571 0-.857 0-1.127-.037a4 4 0 0 1-2.153-1.008c-.201-.184-.384-.404-.75-.842A4 4 0 0 1 2 17.552V17m16-4.5v-1.592A4 4 0 0 0 16.517 7.8L14.16 5.891c-.545-.441-.818-.662-1.142-.776C12.694 5 12.344 5 11.643 5h-3.24c-.695 0-1.042 0-1.363.113-.322.112-.593.33-1.136.764L3.501 7.799A4 4 0 0 0 2 10.922V13m8-1v4m-2-2h4"/>
    <path d="M14.773 16.773s.992.21 2.118 1.336c1.126 1.126 1.336 2.118 1.336 2.118m1.037-4.49c.954.953.985 2.469.069 3.385l-2.211 2.21c-.916.917-2.432.886-3.386-.068-.954-.954-.985-2.47-.069-3.386l2.211-2.21c.916-.917 2.432-.886 3.386.068Z"/>
    <path stroke-linecap="round" d="M2.5 10h3.75m11.25 0H10"/>
  </g>
</svg>
