<svg xmlns="http://www.w3.org/2000/svg" width="24" height="24" fill="none">
  <g fill="#1C274C">
    <path d="m16.366 16.179.512-.512c.916-.916 2.432-.885 3.386.07.954.953.985 2.469.069 3.385l-.512.512a4.813 4.813 0 0 0-.168-.377 6.466 6.466 0 0 0-1.232-1.678 6.464 6.464 0 0 0-1.678-1.232 4.791 4.791 0 0 0-.377-.168Zm-1.226 1.226-.473.473c-.916.916-.885 2.432.07 3.386.953.954 2.469.985 3.385.069l.473-.473-.1-.47-.003-.011a2.995 2.995 0 0 0-.182-.454 4.97 4.97 0 0 0-.95-1.285c-.5-.501-.962-.79-1.285-.95a2.996 2.996 0 0 0-.454-.182l-.011-.003-.47-.1ZM6.076 2.617C6 2.801 6 3.034 6 3.5s0 .699.076.883a1 1 0 0 0 .541.54C6.801 5 7.034 5 7.5 5h9c.466 0 .699 0 .883-.076a1 1 0 0 0 .54-.541C18 4.199 18 3.966 18 3.5s0-.699-.076-.883a1 1 0 0 0-.541-.54C17.199 2 16.966 2 16.5 2h-9c-.466 0-.699 0-.883.076a1 1 0 0 0-.54.541ZM7.75 6 5.501 7.799a3.999 3.999 0 0 0-1.135 1.45H19.64a4 4 0 0 0-1.123-1.45L16.294 6H7.75Z"/>
    <path fill-rule="evenodd" d="M20 10.908c0-.053-.001-.105-.003-.158H4.004a4.012 4.012 0 0 0-.004.172v6.328h9.234c.111-.15.235-.295.373-.433l2.21-2.21c1.144-1.144 2.795-1.377 4.183-.812v-2.887Zm-7.25 2.342V12a.75.75 0 0 0-1.5 0v1.25H10a.75.75 0 0 0 0 1.5h1.25V16a.75.75 0 0 0 1.5 0v-1.25H14a.75.75 0 0 0 0-1.5h-1.25Z" clip-rule="evenodd"/>
    <path d="M12.573 18.75a3.98 3.98 0 0 0 .812 3.25H8.957c-.571 0-.857 0-1.127-.037a4 4 0 0 1-2.153-1.008c-.201-.184-.384-.404-.75-.842a4 4 0 0 1-.743-1.363h8.389Z"/>
  </g>
</svg>
