<svg xmlns="http://www.w3.org/2000/svg" width="24" height="24" fill="none">
  <path fill="#1C274C" d="m20.314 3.686.53-.53-.53.53Zm0 8.14.53.53-.53-.53Zm-9.86-1.769-.53-.53.53.53ZM7.362 13.15l.53.53-.53-.53Zm3.489 3.489-.53-.53.53.53Zm3.093-3.094-.53-.53.53.53Zm-6.935.614-.746.082.746-.082Zm.193 1.74-.745.083.745-.083Zm.9.9-.083.745.083-.745Zm1.74.193.083-.745-.083.745Zm-2.404-.602.53-.53-.53.53Zm.173.173-.53.53.53-.53Zm3.06-7.37-.726.186.726-.186Zm4.137 4.137-.186.726.186-.726Zm-3.854.3a.75.75 0 0 0-1.055 1.067l1.055-1.067Zm4.566-5.148a.917.917 0 0 1 0-1.297l-1.061-1.06a2.417 2.417 0 0 0 0 3.417l1.06-1.06Zm1.296 0a.917.917 0 0 1-1.297 0l-1.06 1.06a2.417 2.417 0 0 0 3.417 0l-1.06-1.06Zm0-1.297a.917.917 0 0 1 0 1.297l1.06 1.06a2.417 2.417 0 0 0 0-3.418l-1.06 1.061Zm1.06-1.06a2.417 2.417 0 0 0-3.417 0l1.06 1.06a.917.917 0 0 1 1.297 0l1.06-1.06Zm1.909-1.909a5.006 5.006 0 0 1 0 7.079l1.06 1.06a6.506 6.506 0 0 0 0-9.2l-1.06 1.061Zm1.06-1.06a6.506 6.506 0 0 0-9.2 0l1.061 1.06a5.006 5.006 0 0 1 7.079 0l1.06-1.06Zm-10.92 6.37L6.831 12.62l1.06 1.06 3.094-3.093-1.06-1.06Zm1.456 7.643 1.034-1.034-1.061-1.06-1.034 1.033 1.061 1.061Zm1.034-1.034 2.06-2.06-1.061-1.06-2.06 2.06 1.06 1.06Zm-6.152-1.894.194 1.741 1.49-.166-.193-1.74-1.49.165Zm1.756 3.303 1.74.194.166-1.491-1.74-.193-.166 1.49Zm-1.112-.624.174.174 1.06-1.061-.173-.174-1.06 1.061Zm1.278-.866a.072.072 0 0 1-.043-.021l-1.061 1.06c.252.253.583.412.938.451l.166-1.49Zm-1.728-.072c.039.355.198.686.45.938l1.061-1.06a.072.072 0 0 1-.02-.044l-1.491.166Zm3.863.126a.483.483 0 0 1-.395.139l-.165 1.49a1.984 1.984 0 0 0 1.621-.568l-1.06-1.06ZM6.831 12.62a1.984 1.984 0 0 0-.569 1.622l1.491-.166a.483.483 0 0 1 .139-.395L6.83 12.62Zm4.566-3.614a5.003 5.003 0 0 1 1.308-4.79l-1.06-1.06a6.503 6.503 0 0 0-1.701 6.223l1.453-.373Zm8.387 2.289a5.003 5.003 0 0 1-4.79 1.308l-.373 1.453a6.503 6.503 0 0 0 6.224-1.7l-1.061-1.061Zm-5.31 2.78a.09.09 0 0 1 .044-.022.218.218 0 0 1 .103.003l.373-1.453c-.527-.135-1.143-.026-1.581.412l1.06 1.06Zm-3.489-3.488c.438-.438.547-1.054.412-1.58l-1.453.372c.01.04.009.076.003.103a.09.09 0 0 1-.023.045l1.061 1.06Zm1.426 4.485-1.458-1.442-1.055 1.067 1.458 1.441 1.055-1.066Z"/>
  <path stroke="#1C274C" stroke-linecap="round" stroke-width="1.5" d="M22 14.993c-.064 2.794-.33 4.426-1.446 5.541C19.088 22 16.73 22 12.01 22s-7.078 0-8.544-1.466C2 19.068 2 16.71 2 11.99s0-7.078 1.466-8.544C4.58 2.33 6.213 2.064 9.007 2"/>
</svg>
