<svg xmlns="http://www.w3.org/2000/svg" width="24" height="24" fill="none">
  <path fill="#1C274C" d="m18.977 5.023.53-.53-.53.53Zm0 9.767.53.53-.53-.53ZM7.146 12.668l-.53-.53.53.53ZM3.433 16.38l.53.53-.53-.53Zm4.187 4.187-.53-.53.53.53Zm3.712-3.713-.53-.53.53.53Zm-8.323.736-.745.083.745-.083Zm.232 2.089-.745.083.745-.083Zm1.08 1.08-.083.745.083-.745Zm2.089.232.082-.745-.082.745Zm-2.886-.723.53-.53-.53.53Zm.208.208-.53.53.53-.53Zm3.672-8.845-.726.187.726-.187Zm4.965 4.965-.187.726.187-.726Zm-4.73.467a.75.75 0 1 0-1.055 1.066l1.054-1.066Zm5.477-6.18a1.25 1.25 0 0 1 0-1.767l-1.06-1.06a2.75 2.75 0 0 0 0 3.889l1.06-1.061Zm1.768 0a1.25 1.25 0 0 1-1.768 0l-1.06 1.062a2.75 2.75 0 0 0 3.889 0l-1.061-1.061Zm0-1.767a1.25 1.25 0 0 1 0 1.768l1.06 1.06a2.75 2.75 0 0 0 0-3.889l-1.06 1.061Zm1.06-1.06a2.75 2.75 0 0 0-3.889 0l1.061 1.06a1.25 1.25 0 0 1 1.768 0l1.06-1.06Zm2.503-2.503a6.157 6.157 0 0 1 0 8.707l1.06 1.06a7.657 7.657 0 0 0 0-10.827l-1.06 1.06Zm1.06-1.06a7.657 7.657 0 0 0-10.828 0l1.06 1.06a6.157 6.157 0 0 1 8.708 0l1.06-1.06ZM6.615 12.138 2.903 15.85l1.06 1.06 3.714-3.71-1.06-1.061Zm1.535 8.959 1.24-1.24-1.06-1.061-1.24 1.24 1.06 1.06Zm1.24-1.24 2.472-2.473-1.06-1.06-2.472 2.472 1.06 1.06Zm-7.126-2.184.232 2.089 1.49-.166-.232-2.088-1.49.165Zm1.974 3.831 2.089.232.165-1.49-2.088-.232-.166 1.49Zm-1.244-.706.208.208 1.06-1.06-.208-.209-1.06 1.061Zm1.41-.784a.237.237 0 0 1-.141-.068l-1.061 1.06c.279.28.644.455 1.036.498l.166-1.49Zm-1.908-.252c.043.392.219.757.498 1.036l1.06-1.06a.237.237 0 0 1-.067-.142l-1.491.166Zm4.593.274a.73.73 0 0 1-.597.21l-.165 1.49a2.23 2.23 0 0 0 1.823-.64l-1.06-1.06ZM2.903 15.85a2.23 2.23 0 0 0-.64 1.823l1.491-.165a.73.73 0 0 1 .21-.597l-1.06-1.06Zm5.228-4.405A6.153 6.153 0 0 1 9.74 5.553l-1.06-1.06a7.653 7.653 0 0 0-2.002 7.325l1.453-.373Zm10.316 2.815a6.154 6.154 0 0 1-5.892 1.61l-.373 1.452a7.653 7.653 0 0 0 7.325-2.001l-1.06-1.06Zm-6.585 3.124c.056-.055.17-.1.32-.062l.373-1.453c-.588-.15-1.27-.028-1.753.455l1.06 1.06ZM7.676 13.2c.483-.483.606-1.166.455-1.754l-1.453.373c.038.15-.007.264-.063.32l1.06 1.06Zm1.711 5.594-1.749-1.73-1.054 1.066 1.749 1.73 1.054-1.066Z"/>
</svg>
