<svg xmlns="http://www.w3.org/2000/svg" width="24" height="24" fill="none">
  <path fill="#1C274C" d="m16.651 7.349.53-.53-.53.53Zm0 6.511.53.53-.53-.53Zm-7.887-1.414-.53-.53.53.53ZM6.289 14.92l.53.53-.53-.53Zm2.79 2.791-.53-.53.53.53Zm2.476-2.475-.53-.53.53.53Zm-5.549.49-.745.084.745-.083Zm.155 1.393-.746.083.746-.083Zm.72.72-.083.746.083-.746Zm1.392.155.083-.745-.083.745Zm-1.924-.482.53-.53-.53.53Zm.14.139-.531.53.53-.53Zm2.447-5.897-.726.187.726-.187Zm3.31 3.31-.187.726.187-.726Zm-2.978.134a.75.75 0 1 0-1.055 1.066l1.055-1.066Zm3.653-4.119a.583.583 0 0 1 0-.825l-1.06-1.06a2.083 2.083 0 0 0 0 2.946l1.06-1.06Zm.825 0a.583.583 0 0 1-.825 0l-1.06 1.06a2.083 2.083 0 0 0 2.945 0l-1.06-1.06Zm0-.825a.583.583 0 0 1 0 .825l1.06 1.06a2.083 2.083 0 0 0 0-2.945l-1.06 1.06Zm1.06-1.06a2.083 2.083 0 0 0-2.946 0l1.06 1.06a.583.583 0 0 1 .826 0l1.06-1.06Zm1.315-1.315a3.854 3.854 0 0 1 0 5.45l1.06 1.062a5.354 5.354 0 0 0 0-7.573l-1.06 1.06Zm1.06-1.06a5.354 5.354 0 0 0-7.572 0l1.061 1.06a3.854 3.854 0 0 1 5.451 0l1.06-1.06Zm-8.948 5.096L5.76 14.39l1.06 1.06 2.475-2.474-1.06-1.06Zm1.377 6.326.827-.827-1.06-1.06-.828.827 1.061 1.06Zm.827-.827 1.648-1.648-1.06-1.06-1.649 1.648 1.061 1.06ZM5.261 15.81l.154 1.392 1.491-.166-.155-1.392-1.49.166Zm1.537 2.775 1.392.154.166-1.49-1.393-.155-.165 1.49Zm-.979-.543.139.139 1.06-1.06-.138-.14-1.061 1.061Zm1.144-.948c.021.002.04.011.056.026l-1.061 1.06c.226.227.522.37.84.405l.165-1.491Zm-1.548.108c.036.318.178.614.404.84l1.06-1.06a.092.092 0 0 1 .027.055l-1.49.165Zm3.134-.021a.237.237 0 0 1-.193.067L8.19 18.74a1.737 1.737 0 0 0 1.42-.498l-1.06-1.06ZM5.76 14.39a1.737 1.737 0 0 0-.498 1.42l1.49-.166a.237.237 0 0 1 .068-.193L5.76 14.39Zm3.904-2.822a3.852 3.852 0 0 1 1.007-3.69l-1.06-1.06a5.352 5.352 0 0 0-1.4 5.123l1.453-.373Zm6.458 1.762a3.852 3.852 0 0 1-3.688 1.007l-.374 1.453a5.352 5.352 0 0 0 5.123-1.4l-1.06-1.06Zm-4.036 2.436a.09.09 0 0 1-.036.023l.01.001.373-1.453a1.47 1.47 0 0 0-1.408.369l1.06 1.06Zm-2.791-2.79a1.47 1.47 0 0 0 .369-1.409l-1.453.374c.002.009 0 .013.001.01l.006-.014a.098.098 0 0 1 .016-.022l1.061 1.06Zm1.14 3.375-1.166-1.153-1.055 1.066 1.166 1.153 1.055-1.066Z"/>
  <path stroke="#1C274C" stroke-linecap="round" stroke-width="1.5" d="M22 12c0 4.714 0 7.071-1.465 8.535C19.072 22 16.714 22 12 22s-7.071 0-8.536-1.465C2 19.072 2 16.714 2 12s0-7.071 1.464-8.536C4.93 2 7.286 2 12 2c4.714 0 7.071 0 8.535 1.464.974.974 1.3 2.343 1.41 4.536"/>
</svg>
