<svg xmlns="http://www.w3.org/2000/svg" width="24" height="24" fill="none">
  <g stroke="#1C274C" stroke-width="1.5">
    <path stroke-linejoin="round" d="M17.26 11.44c2.618 0 4.74-2.113 4.74-4.72C22 4.113 19.878 2 17.26 2c-2.617 0-4.739 2.113-4.739 4.72 0 1.208.551 2.086.551 2.086l-5.731 5.708c-.257.256-.617.922 0 1.537l.661.658c.257.22.904.527 1.433 0l.771-.768c.772.768 1.654.329 1.984-.11.552-.768-.11-1.537-.11-1.537l.22-.22c1.059 1.054 1.985.44 2.315 0 .551-.768 0-1.536 0-1.536-.22-.44-.661-.44-.11-.988l.661-.659c.53.44 1.617.55 2.095.55Z"/>
    <path d="M17.26 8.366a1.65 1.65 0 0 0 1.654-1.646c0-.91-.74-1.647-1.654-1.647a1.65 1.65 0 0 0-1.653 1.647c0 .91.74 1.646 1.654 1.646Z" opacity=".5"/>
    <path stroke-linecap="round" d="M22 14.993c-.064 2.794-.33 4.426-1.446 5.541C19.088 22 16.73 22 12.01 22s-7.078 0-8.544-1.466C2 19.068 2 16.71 2 11.99s0-7.078 1.466-8.544C4.58 2.33 6.213 2.064 9.007 2" opacity=".5"/>
  </g>
</svg>
