<svg xmlns="http://www.w3.org/2000/svg" width="24" height="24" fill="none">
  <path fill="#1C274C" d="M14.381 17.647v.75a.75.75 0 0 0 .75-.75h-.75Zm5.238-5.176v.75a.75.75 0 0 0 .74-.875l-.74.125Zm-1.004-5.954-.74.124.74-.124ZM14.38 3.25a.75.75 0 1 0 0 1.5v-1.5Zm3.782 1.59-.622.419.622-.419Zm-.806-.675.303-.686-.303.686Zm3.893 13.482c0 .877-.722 1.603-1.631 1.603v1.5c1.72 0 3.131-1.38 3.131-3.103h-1.5Zm-1.631 1.603c-.91 0-1.63-.726-1.63-1.603h-1.5c0 1.722 1.41 3.103 3.13 3.103v-1.5Zm-1.63-1.603c0-.877.72-1.603 1.63-1.603v-1.5c-1.72 0-3.13 1.381-3.13 3.103h1.5Zm1.63-1.603c.91 0 1.631.726 1.631 1.603h1.5c0-1.722-1.41-3.103-3.131-3.103v1.5Zm-4.488 1.603c0-2.436 2-4.426 4.488-4.426v-1.5c-3.299 0-5.988 2.645-5.988 5.926h1.5Zm-.75-.75H6.76v1.5h7.62v-1.5Zm5.978-4.551-1.005-5.954-1.479.25 1.005 5.953 1.479-.25Zm-4.75-9.096H14.38v1.5h1.228v-1.5Zm3.746 3.142c-.074-.436-.136-.804-.21-1.104a2.65 2.65 0 0 0-.36-.867l-1.244.838c.045.067.093.169.148.39.058.232.11.534.186.992l1.48-.25ZM15.609 4.75c.47 0 .78 0 1.022.019.232.017.345.048.422.082l.607-1.372a2.706 2.706 0 0 0-.917-.206c-.31-.023-.687-.023-1.134-.023v1.5Zm3.176-.329a2.649 2.649 0 0 0-1.125-.942l-.607 1.372c.2.088.368.23.488.408l1.244-.838ZM6.012 17.647c0 .877-.722 1.603-1.631 1.603v1.5c1.72 0 3.13-1.38 3.13-3.103h-1.5ZM4.38 19.25c-.91 0-1.631-.726-1.631-1.603h-1.5c0 1.722 1.41 3.103 3.131 3.103v-1.5Zm-1.63-1.603c0-.877.722-1.603 1.631-1.603v-1.5c-1.72 0-3.131 1.381-3.131 3.103h1.5Zm1.631-1.603c.91 0 1.63.726 1.63 1.603h1.5c0-1.722-1.41-3.103-3.13-3.103v1.5Z"/>
</svg>
