<svg xmlns="http://www.w3.org/2000/svg" width="24" height="24" fill="none">
  <path fill="#1C274C" d="M6.667 3.151c-.786.775-1.09 1.948-1.699 4.294l-.084.324c-.828 3.189-1.242 4.783-.49 5.903.075.112.157.218.247.319C5.536 15 7.183 15 10.477 15h.779v6.25h-2.25a.75.75 0 0 0 0 1.5h6a.75.75 0 0 0 0-1.5h-2.25V15h.78c1.32 0 2.374 0 3.223-.065a.771.771 0 0 0-.003.065v2a.75.75 0 1 0 1.5 0v-2.318c.468-.15.83-.369 1.116-.691.09-.1.172-.207.247-.32.752-1.12.338-2.713-.49-5.902l-.084-.324c-.609-2.346-.913-3.519-1.7-4.294a4 4 0 0 0-.756-.585C15.64 2 14.429 2 12.007 2c-2.424 0-3.635 0-4.583.566a4 4 0 0 0-.757.585Z"/>
</svg>
