<svg xmlns="http://www.w3.org/2000/svg" width="24" height="24" fill="none">
  <path fill="#1C274C" fill-rule="evenodd" d="M11.961 1.25h.078c1.179 0 2.118 0 2.879.074.783.077 1.444.237 2.05.598.325.195.627.429.898.695.501.495.822 1.095 1.093 1.834.264.718.5 1.627.796 2.767l.108.418c.402 1.547.723 2.783.842 3.77.122 1.015.051 1.908-.47 2.684a3.74 3.74 0 0 1-.308.399c-.448.505-1.015.798-1.677.973V17a.75.75 0 0 1-1.5 0v-1.313c-.869.063-1.919.063-3.163.063h-.837v5.5H15a.75.75 0 0 1 0 1.5H9a.75.75 0 0 1 0-1.5h2.25v-5.5h-.836c-1.599 0-2.876 0-3.861-.133-1.013-.137-1.86-.43-2.48-1.128a3.745 3.745 0 0 1-.308-.4c-.521-.775-.592-1.668-.47-2.683.12-.987.44-2.223.842-3.77l.108-.417c.297-1.141.533-2.05.796-2.768.27-.74.592-1.34 1.094-1.834.27-.266.572-.5.898-.695.605-.36 1.266-.521 2.05-.598.76-.074 1.7-.074 2.878-.074Zm1.568 13c1.67 0 2.845-.002 3.718-.12.858-.115 1.283-.327 1.558-.637.067-.075.129-.155.185-.239.23-.344.33-.809.226-1.668-.106-.875-.4-2.013-.82-3.629l-.083-.324c-.308-1.187-.527-2.025-.762-2.666-.23-.627-.454-1.001-.738-1.281a3.252 3.252 0 0 0-.615-.476c-.343-.205-.761-.328-1.426-.393-.68-.066-1.546-.067-2.772-.067-1.226 0-2.092 0-2.771.067-.665.065-1.084.188-1.427.393a3.25 3.25 0 0 0-.614.476c-.285.28-.509.654-.739 1.281-.235.641-.453 1.48-.761 2.666l-.085.324c-.42 1.616-.713 2.754-.818 3.629-.104.86-.006 1.324.225 1.668.056.084.118.164.185.24.275.31.7.52 1.558.637.874.117 2.049.119 3.718.119h3.058Z" clip-rule="evenodd"/>
</svg>
