<svg xmlns="http://www.w3.org/2000/svg" width="24" height="24" fill="none">
  <g stroke="#1C274C" stroke-width="1.5">
    <path d="M2 12c0-3.771 0-5.657 1.172-6.828C4.343 4 6.229 4 10 4h4c3.771 0 5.657 0 6.828 1.172C22 6.343 22 8.229 22 12c0 3.771 0 5.657-1.172 6.828C19.657 20 17.771 20 14 20h-4c-3.771 0-5.657 0-6.828-1.172C2 17.657 2 15.771 2 12Z" opacity=".5"/>
    <path stroke-linecap="round" d="m6 8 2.159 1.8c1.837 1.53 2.755 2.295 3.841 2.295 1.086 0 2.005-.765 3.841-2.296L18 8"/>
  </g>
</svg>
