<svg xmlns="http://www.w3.org/2000/svg" width="24" height="24" fill="none">
  <path fill="#1C274C" fill-rule="evenodd" d="M10.946 1.25h2.108c1.133 0 2.058 0 2.79.098.763.103 1.425.325 1.954.854.529.529.751 1.19.854 1.955.05.376.075.803.087 1.283 1.058.17 1.925.507 2.62 1.201.748.749 1.08 1.698 1.238 2.87.153 1.14.153 2.595.153 4.433v.113c0 1.837 0 3.293-.153 4.432-.158 1.173-.49 2.122-1.238 2.87-.749.748-1.698 1.08-2.87 1.238-1.14.153-2.595.153-4.433.153H9.944c-1.838 0-3.294 0-4.433-.153-1.172-.158-2.121-.49-2.87-1.238-.748-.748-1.08-1.697-1.238-2.87-.153-1.139-.153-2.595-.153-4.432v-.113c0-1.838 0-3.294.153-4.433.158-1.172.49-2.121 1.238-2.87.695-.694 1.562-1.03 2.62-1.2.012-.481.037-.908.087-1.284.103-.764.325-1.426.854-1.955.529-.529 1.19-.751 1.955-.854.73-.098 1.656-.098 2.79-.098ZM5.25 6.966c-.731.147-1.194.382-1.548.736-.423.423-.677 1.003-.812 2.009-.138 1.028-.14 2.382-.14 4.29 0 1.906.002 3.26.14 4.288.135 1.006.389 1.586.812 2.01.423.422 1.003.676 2.009.811 1.028.139 2.382.14 4.289.14h4c1.907 0 3.262-.001 4.29-.14 1.005-.135 1.585-.389 2.008-.812.423-.423.677-1.003.812-2.009.138-1.027.14-2.382.14-4.289 0-1.907-.002-3.261-.14-4.289-.135-1.006-.389-1.586-.812-2.009-.354-.354-.817-.59-1.548-.736v1.297c0 .786.002 1.409-.26 1.967-.26.557-.74.955-1.344 1.458l-.105.088-.757.63c-.887.74-1.605 1.338-2.24 1.746-.66.425-1.303.693-2.044.693-.741 0-1.384-.269-2.045-.693-.634-.408-1.352-1.007-2.239-1.745l-.757-.631c-.035-.03-.07-.06-.105-.088-.604-.503-1.083-.9-1.344-1.458-.262-.558-.26-1.18-.26-1.967V6.967Zm3.107-4.131c-.598.08-.89.224-1.094.428-.204.203-.348.496-.428 1.094C6.752 4.976 6.75 5.8 6.75 7v1.127c0 .99.017 1.25.118 1.466.101.217.29.396 1.051 1.03l.72.6c.933.777 1.58 1.315 2.128 1.667.529.34.888.455 1.233.455.345 0 .704-.114 1.233-.455.547-.352 1.195-.89 2.128-1.667l.72-.6c.761-.634.95-.813 1.051-1.03.101-.216.118-.475.118-1.466V7c0-1.2-.002-2.024-.085-2.643-.08-.598-.224-.89-.428-1.094-.203-.204-.496-.348-1.094-.428C15.024 2.752 14.2 2.75 13 2.75h-2c-1.2 0-2.024.002-2.643.085ZM9.25 6a.75.75 0 0 1 .75-.75h4a.75.75 0 0 1 0 1.5h-4A.75.75 0 0 1 9.25 6Zm1 3a.75.75 0 0 1 .75-.75h2a.75.75 0 0 1 0 1.5h-2a.75.75 0 0 1-.75-.75Z" clip-rule="evenodd"/>
</svg>
