<svg xmlns="http://www.w3.org/2000/svg" width="24" height="24" fill="none">
  <g fill="#1C274C">
    <path fill-rule="evenodd" d="m6.72 10.6 1.439 1.2c1.836 1.53 2.755 2.295 3.84 2.295 1.087 0 2.005-.765 3.842-2.296l1.44-1.2c.353-.294.53-.442.624-.643.095-.202.095-.432.095-.893V7c0-.32 0-.62-.002-.898-.012-1.771-.098-2.737-.73-3.37C16.535 2 15.357 2 13 2h-2c-2.357 0-3.536 0-4.268.732-.633.633-.72 1.599-.732 3.37-.002.279 0 .577 0 .898v2.063c0 .46 0 .691.094.893.095.201.272.349.625.644ZM9.25 6a.75.75 0 0 1 .75-.75h4a.75.75 0 0 1 0 1.5h-4A.75.75 0 0 1 9.25 6Zm1 3a.75.75 0 0 1 .75-.75h2a.75.75 0 0 1 0 1.5h-2a.75.75 0 0 1-.75-.75Z" clip-rule="evenodd"/>
    <path d="m8.159 11.8-1.44-1.2c-.353-.295-.53-.442-.625-.644C6 9.754 6 9.524 6 9.064V6.102c-1.3.128-2.175.417-2.828 1.07C2 8.343 2 10.23 2 14.002c0 3.77 0 5.656 1.172 6.827 1.171 1.172 3.057 1.172 6.828 1.172h4c3.771 0 5.657 0 6.828-1.172C22 19.659 22 17.773 22 14.002s0-5.658-1.172-6.83c-.653-.653-1.529-.942-2.83-1.07.002.28.002.579.002.9v2.063c0 .46 0 .69-.095.892-.094.202-.27.35-.625.644l-1.44 1.2c-1.836 1.53-2.754 2.295-3.84 2.295-1.086 0-2.005-.765-3.841-2.296Z" opacity=".5"/>
  </g>
</svg>
