<svg xmlns="http://www.w3.org/2000/svg" width="24" height="24" fill="none">
  <g stroke="#1C274C" stroke-width="1.5">
    <path stroke-linecap="round" d="m21.094 13.793-.027.207-.373 2.793c-.33 2.48-.496 3.721-1.344 4.464-.849.743-2.1.743-4.603.743H9.253C6.75 22 5.5 22 4.65 21.257c-.848-.743-1.013-1.983-1.344-4.464l-.4-3c-.422-3.164-.633-4.745.263-5.77C4.066 7 5.662 7 8.853 7h6.294c3.191 0 4.787 0 5.684 1.024.43.492.605 1.113.624 1.976"/>
    <path d="M19.562 7a2.132 2.132 0 0 0-2.1-2.5H6.538a2.132 2.132 0 0 0-2.1 2.5M17.5 4.5c.028-.26.043-.389.043-.496a2 2 0 0 0-1.787-1.993C15.65 2 15.52 2 15.26 2H8.74c-.26 0-.391 0-.497.011a2 2 0 0 0-1.787 1.993c0 .107.014.237.043.496"/>
    <path stroke-linecap="round" d="M15 18H9"/>
  </g>
</svg>
