<svg xmlns="http://www.w3.org/2000/svg" width="24" height="24" fill="none">
  <g fill="#1C274C">
    <path d="M10.25 5a.75.75 0 0 1 .75-.75h2a.75.75 0 0 1 0 1.5h-2a.75.75 0 0 1-.75-.75Zm2.35 7.45a.75.75 0 1 0-1.2-.9l-1.5 2a.75.75 0 0 0 .6 1.2H12l-.6.8a.75.75 0 1 0 1.2.9l1.5-2a.75.75 0 0 0-.6-1.2H12l.6-.8Z"/>
    <path fill-rule="evenodd" d="M11.962 1.25c-.67 0-1.229 0-1.681.046-.473.048-.913.153-1.309.417a2.76 2.76 0 0 0-.759.76c-.264.395-.369.835-.417 1.308-.046.452-.046 1.011-.046 1.68v1.933c-.603.115-1.135.332-1.573.764-.516.508-.733 1.145-.832 1.874-.095.695-.095 1.573-.095 2.641v2.654c0 1.068 0 1.946.095 2.64.1.73.316 1.367.832 1.875.514.507 1.156.718 1.891.815.703.093 1.593.093 2.68.093h.502V22a.75.75 0 0 0 1.5 0v-1.25h.503c1.086 0 1.976 0 2.679-.093.735-.097 1.377-.308 1.891-.815.516-.508.733-1.145.832-1.874.095-.695.095-1.573.095-2.641v-2.654c0-1.068 0-1.946-.095-2.64-.1-.73-.316-1.367-.832-1.875-.439-.432-.97-.65-1.573-.764V5.462c0-.67 0-1.229-.046-1.681-.048-.473-.153-.913-.418-1.309a2.75 2.75 0 0 0-.758-.759c-.396-.264-.835-.369-1.309-.417-.452-.046-1.011-.046-1.68-.046h-.077Zm2.788 6.012V5.5c0-.718 0-1.2-.038-1.567-.036-.355-.1-.519-.173-.627a1.25 1.25 0 0 0-.345-.345c-.108-.073-.272-.137-.627-.173-.367-.037-.85-.038-1.567-.038-.718 0-1.2 0-1.567.038-.355.036-.519.1-.627.173a1.25 1.25 0 0 0-.345.345c-.073.108-.137.272-.173.627-.037.367-.038.85-.038 1.567v1.762c.45-.012.948-.012 1.497-.012h2.506c.549 0 1.047 0 1.497.012Zm.985 11.908c-.593.078-1.383.08-2.535.08h-2.4c-1.152 0-1.942-.002-2.535-.08-.572-.076-.847-.211-1.036-.397-.187-.184-.322-.45-.398-1.008-.08-.581-.081-1.357-.081-2.492v-2.546c0-1.136.002-1.91.081-2.492.076-.558.211-.824.398-1.008.189-.186.464-.321 1.036-.397.593-.078 1.383-.08 2.535-.08h2.4c1.152 0 1.942.002 2.535.08.573.076.847.211 1.036.397.187.184.322.45.398 1.008.08.581.081 1.357.081 2.492v2.546c0 1.136-.002 1.91-.081 2.492-.076.558-.211.824-.398 1.008-.189.186-.463.321-1.036.397Z" clip-rule="evenodd"/>
  </g>
</svg>
