<svg xmlns="http://www.w3.org/2000/svg" width="24" height="24" fill="none">
  <g stroke="#1C274C" stroke-width="1.5">
    <path stroke-linecap="round" d="M13.2 8h-2.4c-2.263 0-3.394 0-4.097.692C6 9.385 6 10.5 6 12.727v2.546c0 2.228 0 3.342.703 4.035C7.406 20 8.537 20 10.8 20h2.4M10.8 8h2.4c2.263 0 3.394 0 4.097.692C18 9.385 18 10.5 18 12.727v2.546c0 2.228 0 3.342-.703 4.035C16.594 20 15.463 20 13.2 20h-2.4m1.2 0v2"/>
    <path stroke-linecap="round" stroke-linejoin="round" d="m12 12-1.5 2h3L12 16"/>
    <path stroke-linecap="round" d="M11 5h2"/>
    <path d="M15.5 8V5.5c0-1.404 0-2.107-.337-2.611a2 2 0 0 0-.552-.552C14.107 2 13.404 2 12 2c-1.405 0-2.107 0-2.611.337a2 2 0 0 0-.552.552C8.5 3.393 8.5 4.096 8.5 5.5V8"/>
  </g>
</svg>
