<svg xmlns="http://www.w3.org/2000/svg" width="24" height="24" fill="none">
  <g fill="#1C274C">
    <path d="M4 9.674C4 5.436 7.358 2 11.5 2 15.642 2 19 5.436 19 9.674a7.736 7.736 0 0 1-2.499 5.72c-.51.467-.889.814-1.157 1.066a14.926 14.926 0 0 0-.4.39l-.025.027-.008.01c-.237.298-.288.375-.318.445-.03.07-.053.16-.113.54-.023.15-.026.406-.026 1.105v.03c0 .409 0 .762-.025 1.051-.027.306-.087.61-.248.895a2.07 2.07 0 0 1-.75.767c-.278.165-.575.226-.874.254-.283.026-.628.026-1.028.026h-.058c-.4 0-.745 0-1.028-.026-.3-.028-.596-.09-.875-.254a2.07 2.07 0 0 1-.749-.767c-.16-.285-.22-.588-.248-.895-.026-.29-.026-.642-.026-1.051v-.03c0-.699-.002-.955-.026-1.105-.06-.38-.081-.47-.112-.54-.03-.07-.081-.147-.318-.446l-.008-.01a14.896 14.896 0 0 0-.425-.417c-.268-.25-.647-.598-1.157-1.066A7.736 7.736 0 0 1 4 9.674Z" opacity=".5"/>
    <path d="M13.085 19.675h-3.17c.003.097.007.181.014.258.018.21.05.285.071.323a.69.69 0 0 0 .25.256c.037.021.111.054.316.072.214.02.496.021.934.021.437 0 .72 0 .934-.02.204-.02.279-.052.316-.073a.69.69 0 0 0 .25-.256c.02-.038.052-.114.07-.323.007-.076.012-.161.015-.258ZM12.61 8.177c.307.224.378.66.159.973l-1.178 1.688h1.402a.68.68 0 0 1 .606.378.711.711 0 0 1-.051.725L11.6 14.73a.672.672 0 0 1-.951.163.708.708 0 0 1-.159-.973l1.178-1.688h-1.402a.68.68 0 0 1-.606-.379.711.711 0 0 1 .051-.724l1.948-2.79a.672.672 0 0 1 .951-.163Z"/>
  </g>
</svg>
