<svg xmlns="http://www.w3.org/2000/svg" width="24" height="24" fill="none">
  <path fill="#1C274C" fill-rule="evenodd" d="M2.25 6A.75.75 0 0 1 3 5.25h17a.75.75 0 0 1 0 1.5H3A.75.75 0 0 1 2.25 6Zm0 5a.75.75 0 0 1 .75-.75h8a.75.75 0 0 1 0 1.5H3a.75.75 0 0 1-.75-.75Zm12.22-.53a.75.75 0 0 1 1.06 0l1.97 1.97 1.97-1.97a.75.75 0 1 1 1.06 1.06l-1.97 1.97 1.97 1.97a.75.75 0 1 1-1.06 1.06l-1.97-1.97-1.97 1.97a.75.75 0 1 1-1.06-1.06l1.97-1.97-1.97-1.97a.75.75 0 0 1 0-1.06ZM2.25 16a.75.75 0 0 1 .75-.75h8a.75.75 0 0 1 0 1.5H3a.75.75 0 0 1-.75-.75Z" clip-rule="evenodd"/>
</svg>
