<svg xmlns="http://www.w3.org/2000/svg" width="24" height="24" fill="none">
  <path fill="#1C274C" fill-rule="evenodd" d="M6.75 8a5.25 5.25 0 0 1 10.335-1.313.75.75 0 0 0 1.452-.374A6.75 6.75 0 0 0 5.25 8v2.055c-1.115.083-1.84.293-2.371.824C2 11.757 2 13.172 2 16c0 2.828 0 4.243.879 5.121C3.757 22 5.172 22 8 22h8c2.828 0 4.243 0 5.121-.879C22 20.243 22 18.828 22 16c0-2.828 0-4.243-.879-5.121C20.243 10 18.828 10 16 10H8c-.452 0-.867 0-1.25.004V8ZM8 17a1 1 0 1 0 0-2 1 1 0 0 0 0 2Zm4 0a1 1 0 1 0 0-2 1 1 0 0 0 0 2Zm5-1a1 1 0 1 1-2 0 1 1 0 0 1 2 0Z" clip-rule="evenodd"/>
</svg>
