<svg xmlns="http://www.w3.org/2000/svg" width="24" height="24" fill="none">
  <g fill="#1C274C">
    <path d="M12.75 14a.75.75 0 0 0-1.5 0v4a.75.75 0 0 0 1.5 0v-4Z"/>
    <path fill-rule="evenodd" d="M12 2.75A5.25 5.25 0 0 0 6.75 8v1.253c.373-.003.772-.003 1.195-.003h8.11c1.367 0 2.47 0 3.337.117.9.12 1.658.38 2.26.981.602.602.86 1.36.982 2.26.116.867.116 1.97.116 3.337v.11c0 1.367 0 2.47-.116 3.337-.122.9-.38 1.658-.982 2.26-.602.602-1.36.86-2.26.982-.867.116-1.97.116-3.337.116h-8.11c-1.367 0-2.47 0-3.337-.116-.9-.122-1.658-.38-2.26-.982-.602-.602-.86-1.36-.981-2.26-.117-.867-.117-1.97-.117-3.337v-.11c0-1.367 0-2.47.117-3.337.12-.9.38-1.658.981-2.26.602-.602 1.36-.86 2.26-.981a9.55 9.55 0 0 1 .642-.064V8a6.75 6.75 0 0 1 13.287-1.687.75.75 0 1 1-1.452.374A5.252 5.252 0 0 0 12 2.75Zm-7.192 8.103c-.734.099-1.122.28-1.399.556-.277.277-.457.665-.556 1.4-.101.755-.103 1.756-.103 3.191 0 1.435.002 2.436.103 3.192.099.734.28 1.122.556 1.399.277.277.665.457 1.4.556.754.101 1.756.103 3.191.103h8c1.435 0 2.436-.002 3.192-.103.734-.099 1.122-.28 1.399-.556.277-.277.457-.665.556-1.4.101-.755.103-1.756.103-3.191 0-1.435-.002-2.437-.103-3.192-.099-.734-.28-1.122-.556-1.399-.277-.277-.665-.457-1.4-.556-.755-.101-1.756-.103-3.191-.103H8c-1.435 0-2.437.002-3.192.103Z" clip-rule="evenodd"/>
  </g>
</svg>
