<svg xmlns="http://www.w3.org/2000/svg" width="24" height="24" fill="none">
  <path fill="#1C274C" fill-rule="evenodd" d="M17.544 1.499c-.716-.41-1.482-.254-2.2.042-.706.29-1.575.805-2.636 1.433l-.628.372c-.686.406-.846.484-1.002.504-.15.018-.31-.015-1.05-.243l-.68-.21c-1.142-.35-2.083-.64-2.827-.75-.771-.114-1.533-.068-2.14.488-.603.552-.726 1.307-.696 2.092.03.761.213 1.74.437 2.935l.133.707c.145.77.163.944.126 1.104-.037.163-.134.321-.601.97l-.429.594c-.727 1.009-1.32 1.832-1.678 2.515-.364.694-.59 1.438-.27 2.192.324.765 1.023 1.098 1.772 1.283.728.18 1.713.27 2.91.38l.713.065c.78.072.938.102 1.061.173.123.07.227.188.68.822l.413.58c.694.972 1.266 1.773 1.788 2.308.54.553 1.179.983 2.003.88.81-.101 1.345-.663 1.77-1.323.418-.648.84-1.57 1.359-2.698l.305-.665c.11-.24.193-.417.26-.553l.033.035 4 4a.75.75 0 1 0 1.06-1.061l-3.844-3.845.072-.025.683-.239c1.157-.405 2.104-.737 2.782-1.091.698-.365 1.296-.846 1.477-1.642.184-.805-.16-1.488-.646-2.094-.469-.584-1.193-1.247-2.07-2.05l-.524-.48c-.57-.523-.677-.642-.734-.776-.06-.14-.072-.311-.06-1.105l.011-.725c.02-1.224.034-2.228-.065-2.98-.101-.768-.35-1.508-1.068-1.92Zm-4.126 2.798c1.129-.668 1.904-1.125 2.497-1.37.592-.243.787-.182.884-.126.095.054.243.185.326.813.083.63.072 1.521.052 2.825l-.012.78c-.01.608-.019 1.126.18 1.595.2.473.58.819 1.016 1.218l.086.078.476.436c.937.859 1.573 1.444 1.96 1.927.38.472.387.682.355.822-.034.149-.147.351-.71.645-.57.298-1.412.595-2.641 1.026l-.733.256c-.579.202-1.063.371-1.442.718-.377.346-.592.814-.85 1.378l-.328.714c-.55 1.198-.93 2.02-1.282 2.567-.35.545-.559.63-.695.648-.123.015-.32-.004-.743-.439-.431-.442-.937-1.147-1.679-2.186l-.376-.526-.069-.097c-.342-.482-.641-.902-1.086-1.156-.443-.254-.958-.3-1.55-.354l-.12-.01-.647-.06c-1.278-.117-2.148-.198-2.752-.348-.595-.147-.707-.307-.752-.413-.05-.118-.083-.335.219-.91.302-.576.83-1.313 1.602-2.384l.461-.639c.363-.503.665-.92.779-1.42.114-.5.02-1.004-.093-1.6l-.143-.758c-.238-1.271-.4-2.141-.424-2.778-.024-.626.094-.822.21-.928.11-.101.305-.2.908-.11.616.09 1.447.344 2.666.72l.729.224c.568.176 1.057.327 1.568.263.505-.063.95-.328 1.477-.64l.676-.4Z" clip-rule="evenodd"/>
</svg>
