<svg xmlns="http://www.w3.org/2000/svg" width="24" height="24" fill="none">
  <path fill="#1C274C" d="M3.845 3.845a2.883 2.883 0 0 0 0 4.077L5.432 9.51a.762.762 0 0 1 .038-.04l4-4a.766.766 0 0 1 .04-.038L7.922 3.845a2.883 2.883 0 0 0-4.077 0Zm6.723 2.645a.748.748 0 0 1-.038.04l-4 4a.746.746 0 0 1-.04.038l9.588 9.588a2.884 2.884 0 0 0 4.078-4.078L10.568 6.49ZM16.1 2.307a.483.483 0 0 1 .9 0l.43 1.095a.482.482 0 0 0 .272.274l1.091.432a.486.486 0 0 1 0 .903l-1.09.432a.485.485 0 0 0-.273.273L17 6.81a.483.483 0 0 1-.9 0l-.43-1.095a.485.485 0 0 0-.273-.273l-1.09-.432a.486.486 0 0 1 0-.903l1.09-.432a.485.485 0 0 0 .273-.274l.43-1.095Zm3.867 6.823a.483.483 0 0 1 .9 0l.156.399c.05.125.148.224.273.273l.398.158a.486.486 0 0 1 0 .902l-.398.158a.485.485 0 0 0-.273.273l-.156.4a.483.483 0 0 1-.9 0l-.157-.4a.485.485 0 0 0-.272-.273l-.398-.158a.486.486 0 0 1 0-.902l.398-.158a.485.485 0 0 0 .272-.273l.157-.4ZM5.133 15.307a.483.483 0 0 1 .9 0l.157.4a.48.48 0 0 0 .272.273l.398.157a.486.486 0 0 1 0 .903l-.398.158a.484.484 0 0 0-.272.273l-.157.4a.483.483 0 0 1-.9 0l-.157-.4a.484.484 0 0 0-.272-.273l-.398-.158a.486.486 0 0 1 0-.903l.398-.157a.484.484 0 0 0 .272-.274l.157-.399Z"/>
</svg>
