<svg xmlns="http://www.w3.org/2000/svg" width="24" height="24" fill="none">
  <path fill="#1C274C" fill-rule="evenodd" d="M13.022 4.41c1.108-.707 1.868-1.19 2.455-1.456.586-.265.789-.214.893-.16.099.05.252.173.359.789.108.62.131 1.504.163 2.798l.016.657.003.12c.013.601.025 1.118.245 1.578.22.463.615.791 1.069 1.17l.09.074.494.414c.976.815 1.638 1.371 2.046 1.835.4.454.412.659.387.792-.028.144-.13.348-.686.664-.562.318-1.396.645-2.614 1.12l-.619.242-.107.041c-.573.223-1.052.409-1.418.768-.367.358-.564.832-.8 1.401l-.045.107-.257.614c-.505 1.21-.854 2.04-1.186 2.596-.33.551-.535.647-.676.67-.129.02-.33.006-.772-.408-.45-.422-.986-1.101-1.772-2.103l-.398-.507-.073-.093c-.364-.465-.68-.87-1.136-1.105-.454-.233-.97-.259-1.568-.289l-.119-.006-.653-.033c-1.288-.067-2.167-.114-2.78-.239-.607-.123-.726-.28-.774-.38-.052-.11-.096-.319.184-.9.28-.582.782-1.334 1.515-2.426l.372-.555.066-.098c.344-.512.633-.94.727-1.441.096-.505-.02-1.003-.157-1.59L5.47 8.96l-.147-.635c-.29-1.252-.485-2.107-.535-2.736-.049-.618.062-.813.172-.92.109-.107.303-.213.915-.147.624.066 1.47.285 2.708.61l.629.165.111.029c.58.152 1.074.283 1.581.2.503-.082.938-.36 1.456-.692l.1-.064.562-.36Zm4.035-2.95c-.731-.377-1.489-.194-2.198.127-.697.316-1.55.86-2.591 1.525l-.615.393c-.673.429-.832.514-.99.54-.154.024-.319-.003-1.071-.2l-.69-.181c-1.162-.305-2.117-.555-2.868-.635-.777-.083-1.536-.008-2.123.566-.585.572-.68 1.33-.618 2.11.06.755.283 1.72.555 2.896l.161.697c.176.76.2.928.17 1.084-.03.16-.12.32-.564.982l-.407.606c-.69 1.03-1.255 1.87-1.588 2.56-.338.704-.539 1.456-.186 2.197.358.749 1.073 1.05 1.83 1.204.736.15 1.729.201 2.936.263l.718.037c.786.04.949.065 1.077.13.127.066.236.18.716.79l.438.56c.735.937 1.342 1.71 1.887 2.22.564.529 1.22.927 2.038.793.805-.131 1.32-.707 1.723-1.381.394-.66.783-1.59 1.258-2.73l.28-.671c.307-.733.39-.896.51-1.014.12-.117.285-.196 1.022-.484l.619-.241.057-.023c1.146-.447 2.084-.812 2.751-1.19.684-.388 1.269-.89 1.42-1.69.154-.813-.222-1.48-.733-2.062-.494-.56-1.247-1.19-2.16-1.953l-.545-.455c-.595-.498-.706-.61-.768-.74-.063-.133-.082-.3-.102-1.089l-.017-.72c-.03-1.215-.054-2.212-.183-2.955-.133-.761-.413-1.487-1.15-1.866Zm2.473 17.01a.75.75 0 0 0-1.06 1.06l2 2a.75.75 0 0 0 1.06-1.06l-2-2Z" clip-rule="evenodd"/>
</svg>
