<svg xmlns="http://www.w3.org/2000/svg" width="24" height="24" fill="none">
  <g stroke="#1C274C" stroke-linecap="round" stroke-width="1.5">
    <path stroke-linejoin="round" d="M18 18v1.5a1.5 1.5 0 0 1-1.5 1.5H11a9 9 0 1 1 0-18h5.5A1.5 1.5 0 0 1 18 4.5V6a1.5 1.5 0 0 1-1.5 1.5h-5.556a4.5 4.5 0 0 0 0 9H16.5A1.5 1.5 0 0 1 18 18Z"/>
    <path stroke-linejoin="round" d="M14.444 3v4.5m0 9V21" opacity=".5"/>
    <path d="M21.5 6S23 7.8 23 12s-1.5 6-1.5 6" opacity=".7"/>
    <path d="M19.5 9s.5.9.5 3-.5 3-.5 3" opacity=".4"/>
  </g>
</svg>
