<svg xmlns="http://www.w3.org/2000/svg" width="24" height="24" fill="none">
  <g fill="#1C274C">
    <path d="M11.157 20.313a9.157 9.157 0 1 0 0-18.313 9.157 9.157 0 0 0 0 18.313Z" opacity=".5"/>
    <path fill-rule="evenodd" d="M11.156 8.024c.4 0 .723.324.723.723v1.687h1.687a.723.723 0 1 1 0 1.446H11.88v1.687a.723.723 0 1 1-1.445 0V11.88H8.747a.723.723 0 1 1 0-1.446h1.687V8.747c0-.399.323-.723.723-.723Z" clip-rule="evenodd"/>
    <path d="m17.1 18.122 3.666 3.666a.723.723 0 0 0 1.023-1.022L18.122 17.1a9.206 9.206 0 0 1-1.022 1.022Z"/>
  </g>
</svg>
