<svg xmlns="http://www.w3.org/2000/svg" width="24" height="24" fill="none">
  <g fill="#1C274C">
    <path d="M19.716 20.362C21.143 19.585 22 18.587 22 17.5c0-1.152-.963-2.204-2.546-3C17.623 13.58 14.962 13 12 13c-2.962 0-5.623.58-7.454 1.5C2.963 15.296 2 16.348 2 17.5s.963 2.204 2.546 3C6.377 21.42 9.038 22 12 22c3.107 0 5.882-.637 7.716-1.638Z" opacity=".5"/>
    <path fill-rule="evenodd" d="M5 8.515C5 4.917 8.134 2 12 2s7 2.917 7 6.515c0 3.57-2.234 7.735-5.72 9.225a3.277 3.277 0 0 1-2.56 0C7.234 16.25 5 12.084 5 8.515ZM12 11a2 2 0 1 0 0-4 2 2 0 0 0 0 4Z" clip-rule="evenodd"/>
  </g>
</svg>
