<svg xmlns="http://www.w3.org/2000/svg" width="24" height="24" fill="none">
  <path fill="#1C274C" fill-rule="evenodd" d="M4.25 8.515C4.25 4.453 7.771 1.25 12 1.25s7.75 3.203 7.75 7.265c0 3.81-2.363 8.285-6.175 9.914a4.024 4.024 0 0 1-3.15 0C6.613 16.8 4.25 12.326 4.25 8.515ZM12 2.75c-3.503 0-6.25 2.63-6.25 5.765 0 3.328 2.105 7.185 5.265 8.535a2.526 2.526 0 0 0 1.97 0c3.16-1.35 5.265-5.207 5.265-8.535 0-3.134-2.747-5.765-6.25-5.765Zm0 5a1.25 1.25 0 1 0 0 2.5 1.25 1.25 0 0 0 0-2.5ZM9.25 9a2.75 2.75 0 1 1 5.5 0 2.75 2.75 0 0 1-5.5 0Zm-5.655 5.997a.75.75 0 0 1-.052 1.059c-.568.514-.793 1.006-.793 1.444 0 .764.724 1.705 2.487 2.498C6.929 20.76 9.32 21.25 12 21.25c2.68 0 5.071-.49 6.763-1.252 1.763-.793 2.487-1.734 2.487-2.498 0-.438-.225-.93-.793-1.444a.75.75 0 0 1 1.007-1.112c.763.691 1.286 1.557 1.286 2.556 0 1.722-1.515 3.03-3.371 3.866-1.927.867-4.537 1.384-7.379 1.384-2.842 0-5.452-.517-7.379-1.384C2.765 20.53 1.25 19.222 1.25 17.5c0-.999.523-1.865 1.286-2.556a.75.75 0 0 1 1.06.053Z" clip-rule="evenodd"/>
</svg>
