<svg xmlns="http://www.w3.org/2000/svg" width="24" height="24" fill="none">
  <path fill="#1C274C" fill-rule="evenodd" d="M3.25 10.143C3.25 5.244 7.155 1.25 12 1.25c4.845 0 8.75 3.994 8.75 8.893 0 2.365-.674 4.905-1.866 7.099-1.19 2.191-2.928 4.095-5.104 5.112a4.2 4.2 0 0 1-3.56 0c-2.176-1.017-3.914-2.92-5.104-5.112-1.192-2.194-1.866-4.734-1.866-7.099ZM12 2.75c-3.992 0-7.25 3.297-7.25 7.393 0 2.097.603 4.392 1.684 6.383 1.082 1.993 2.612 3.624 4.42 4.469a2.7 2.7 0 0 0 2.291 0c1.809-.845 3.339-2.476 4.421-4.469 1.081-1.99 1.684-4.286 1.684-6.383 0-4.096-3.258-7.393-7.25-7.393Zm2.262 3.63c.94.341 1.488 1.267 1.488 2.377 0 .779-.432 1.475-.867 1.995-.452.542-1.012 1.017-1.472 1.367l-.072.055c-.349.267-.752.576-1.339.576s-.99-.31-1.34-.576a17.586 17.586 0 0 0-.07-.055c-.461-.35-1.021-.825-1.474-1.367-.434-.52-.866-1.216-.866-1.995 0-1.11.548-2.036 1.488-2.377.736-.267 1.547-.116 2.262.367.715-.483 1.526-.634 2.262-.367Zm-.512 1.41c-.237-.087-.693-.066-1.222.459a.75.75 0 0 1-1.056 0c-.529-.525-.985-.546-1.222-.46-.223.082-.5.346-.5.968 0 .242.15.594.518 1.034.35.419.81.816 1.229 1.133.226.172.333.252.419.298.05.028.064.028.081.028h.006c.017 0 .03 0 .081-.028.086-.046.193-.126.42-.298.417-.317.878-.714 1.228-1.133.367-.44.518-.792.518-1.034 0-.622-.277-.886-.5-.967Z" clip-rule="evenodd"/>
</svg>
