<svg xmlns="http://www.w3.org/2000/svg" width="24" height="24" fill="none">
  <g fill="#1C274C" fill-rule="evenodd" clip-rule="evenodd">
    <path d="M12 7.75a.75.75 0 0 1 .75.75v.75h.75a.75.75 0 0 1 0 1.5h-.75v.75a.75.75 0 0 1-1.5 0v-.75h-.75a.75.75 0 0 1 0-1.5h.75V8.5a.75.75 0 0 1 .75-.75Z"/>
    <path d="M12 2c-4.418 0-8 3.646-8 8.143 0 4.462 2.553 9.67 6.537 11.531a3.45 3.45 0 0 0 2.926 0C17.447 19.812 20 14.605 20 10.144 20 5.645 16.418 2 12 2Zm0 12a4 4 0 1 0 0-8 4 4 0 0 0 0 8Zm.75-5.5a.75.75 0 0 0-1.5 0v.75h-.75a.75.75 0 0 0 0 1.5h.75v.75a.75.75 0 0 0 1.5 0v-.75h.75a.75.75 0 0 0 0-1.5h-.75V8.5Z"/>
  </g>
</svg>
