<svg xmlns="http://www.w3.org/2000/svg" width="24" height="24" fill="none">
  <path fill="#1C274C" d="M2.436 5.147C2 5.643 2 6.495 2 8.197v9.394c0 1.206 0 1.809.315 2.263.314.454.864.645 1.964 1.026l1.294.449c.701.243 1.24.43 1.693.55.296.079.567-.153.567-.459V6.27a.55.55 0 0 0-.425-.52c-.389-.099-.857-.261-1.498-.483-1.553-.539-2.33-.808-2.92-.535a1.67 1.67 0 0 0-.554.415ZM12.62 3.481l-1.536 1.065c-.555.385-.963.668-1.31.869a.535.535 0 0 0-.274.458V20.92c0 .37.384.602.696.402.335-.214.719-.48 1.184-.802l1.536-1.065c.555-.385.963-.668 1.31-.869a.535.535 0 0 0 .274-.458V3.08c0-.371-.384-.602-.696-.403-.335.215-.719.48-1.184.803Zm7.1-.361-1.293-.448c-.701-.243-1.24-.43-1.693-.55-.296-.079-.567.153-.567.459v15.15a.55.55 0 0 0 .425.52c.389.099.857.26 1.498.483 1.553.539 2.33.808 2.92.535a1.67 1.67 0 0 0 .554-.415c.436-.496.436-1.348.436-3.05V6.41c0-1.206 0-1.81-.315-2.263-.314-.454-.864-.645-1.964-1.026Z"/>
</svg>
