<svg xmlns="http://www.w3.org/2000/svg" width="24" height="24" fill="none">
  <g fill="#1C274C" fill-rule="evenodd" clip-rule="evenodd">
    <path d="M17.386 2.926c-1.3-.174-3.008-.176-5.386-.176s-4.086.002-5.386.176c-1.279.172-2.05.5-2.62 1.069-.569.57-.896 1.34-1.068 2.619-.174 1.3-.176 3.008-.176 5.386s.002 4.086.176 5.386c.172 1.279.5 2.05 1.069 2.62.57.569 1.34.896 2.619 1.068 1.3.174 3.008.176 5.386.176s4.086-.002 5.386-.176c1.279-.172 2.05-.5 2.62-1.069.569-.57.896-1.34 1.068-2.619.174-1.3.176-3.008.176-5.386s-.002-4.086-.176-5.386c-.172-1.279-.5-2.05-1.069-2.62-.57-.569-1.34-.896-2.619-1.068Zm.2-1.486c1.445.194 2.585.6 3.48 1.494.895.895 1.3 2.035 1.494 3.48.19 1.411.19 3.22.19 5.529v.114c0 2.309 0 4.118-.19 5.53-.194 1.444-.6 2.584-1.494 3.479-.895.895-2.035 1.3-3.48 1.494-1.411.19-3.22.19-5.529.19h-.114c-2.309 0-4.118 0-5.53-.19-1.444-.194-2.584-.6-3.479-1.494-.895-.895-1.3-2.035-1.494-3.48-.19-1.411-.19-3.22-.19-5.529v-.114c0-2.309 0-4.118.19-5.53.194-1.444.6-2.584 1.494-3.479.895-.895 2.035-1.3 3.48-1.494 1.411-.19 3.22-.19 5.529-.19h.114c2.309 0 4.118 0 5.53.19Z"/>
    <path d="m15.804 7.065-.268-.7a1.612 1.612 0 0 1 2.1 2.1l-3.513 9.165a1.725 1.725 0 0 1-1.575 1.12c-.65.014-1.338-.355-1.574-1.13l-1.056-3.477.665-.203-.665.203a.09.09 0 0 0-.023-.039.09.09 0 0 0-.038-.022L6.38 13.026c-.775-.236-1.145-.925-1.13-1.575a1.725 1.725 0 0 1 1.12-1.574l9.166-3.512.268.7Zm.367.687a.17.17 0 0 0-.099.013l-9.165 3.512a.226.226 0 0 0-.157.21.133.133 0 0 0 .017.074c.003.005.011.018.05.03l3.476 1.056-.218.718.218-.718c.51.155.905.55 1.06 1.06l1.056 3.477c.012.037.025.046.029.049.01.006.034.018.076.017a.226.226 0 0 0 .208-.157l3.512-9.166a.169.169 0 0 0 .013-.098.1.1 0 0 0-.076-.077Z"/>
  </g>
</svg>
