<svg xmlns="http://www.w3.org/2000/svg" width="24" height="24" fill="none">
  <path fill="#1C274C" fill-rule="evenodd" d="M22.013 2.953a2.546 2.546 0 0 0-2.816-.473L2.687 9.843a2.338 2.338 0 0 0 0 4.315l16.51 7.362a2.544 2.544 0 0 0 2.816-.473c.69-.659 1.009-1.735.458-2.767l-3.152-5.904-.662.354.662-.354a.789.789 0 0 1 0-.752L22.47 5.72c.55-1.031.232-2.108-.458-2.767Zm-1.036 1.085c.274.262.36.62.17.976l.662.353-.662-.353-3.151 5.904a2.289 2.289 0 0 0 0 2.165l3.152 5.904c.19.356.103.714-.171.976-.28.267-.72.387-1.169.187l-16.51-7.362c-.73-.326-.73-1.25 0-1.575l16.51-7.363c.448-.2.889-.079 1.169.188Z" clip-rule="evenodd"/>
</svg>
