<svg xmlns="http://www.w3.org/2000/svg" width="24" height="24" fill="none">
  <g fill="#1C274C">
    <path d="M21 6.208v5.198c0 5.405-4.239 8.027-6.899 9.14C13.38 20.85 13.02 21 12 21s-1.38-.151-2.101-.453C7.239 19.433 3 16.81 3 11.407v-5.2c0-2.155 0-3.233.707-3.823.708-.59 1.789-.412 3.95-.057l1.055.173c1.64.269 2.46.403 3.288.403.828 0 1.648-.134 3.288-.403l1.054-.173c2.163-.355 3.244-.532 3.95.057.708.59.708 1.668.708 3.824Z" opacity=".5"/>
    <path d="M7.171 8.783c.124-.243.586-.576 1.33-.576.742 0 1.205.333 1.328.576a.756.756 0 0 0 1.006.33.733.733 0 0 0 .336-.99c-.459-.904-1.567-1.393-2.67-1.393-1.104 0-2.213.49-2.672 1.393a.733.733 0 0 0 .336.99.756.756 0 0 0 1.006-.33Zm8.329-.576c-.743 0-1.206.333-1.329.576a.756.756 0 0 1-1.006.33.733.733 0 0 1-.336-.99c.459-.904 1.568-1.393 2.671-1.393 1.104 0 2.212.49 2.671 1.393a.733.733 0 0 1-.336.99.756.756 0 0 1-1.006-.33c-.123-.243-.586-.576-1.329-.576Zm-7.504 5.606a.745.745 0 0 0-.04 1.055.758.758 0 0 0 1.054.033l.005-.005.01-.007a1.318 1.318 0 0 1 .101-.075c.101-.068.268-.168.507-.271.475-.206 1.247-.43 2.367-.43 1.12 0 1.892.224 2.367.43.239.103.406.203.506.271.05.034.085.06.103.075l.01.008.005.004c.3.274.769.26 1.052-.033a.73.73 0 0 0-.026-1.043l-.001-.002h-.001l-.003-.004-.008-.007-.02-.017a3.044 3.044 0 0 0-.262-.198 4.627 4.627 0 0 0-.751-.406c-.663-.287-1.64-.554-2.971-.554-1.33 0-2.308.268-2.97.554a4.68 4.68 0 0 0-.752.405 3.035 3.035 0 0 0-.262.199l-.02.018Z"/>
  </g>
</svg>
