<svg xmlns="http://www.w3.org/2000/svg" width="24" height="24" fill="none">
  <path stroke="#1C274C" stroke-width="1.5" d="m16.758 12.677-.845-3.298c-.44-1.719-.66-2.578-1.236-3.01a1.947 1.947 0 0 0-.638-.317c-.684-.194-1.46.17-3.015.897-1.15.54-1.726.809-2.326 1a9.57 9.57 0 0 1-.632.176c-.611.149-1.238.216-2.493.351-1.694.182-2.54.273-3.04.798a2.079 2.079 0 0 0-.4.609c-.292.675-.072 1.534.369 3.253l.845 3.297c.993 3.876 4.296 5.096 6.516 5.473.677.115 1.016.172 2.044-.116s1.294-.514 1.825-.968c1.742-1.487 4.02-4.27 3.026-8.145Z"/>
  <path stroke="#1C274C" stroke-width="1.5" d="M16.5 17.221c1.74-.75 3.479-2.157 4.153-4.788l.845-3.297c.44-1.719.661-2.578.37-3.253a2.078 2.078 0 0 0-.401-.609c-.5-.525-1.347-.616-3.04-.798-1.255-.135-1.882-.202-2.493-.35a9.576 9.576 0 0 1-.632-.178c-.6-.19-1.176-.46-2.326-.999-1.554-.727-2.331-1.091-3.015-.897-.23.065-.445.172-.638.317-.575.432-.796 1.291-1.236 3.01l-.7 2.73"/>
  <path stroke="#1C274C" stroke-linecap="round" stroke-width="1.5" d="M5.259 13.296c.06-.62.521-1.175 1.19-1.355.669-.179 1.346.072 1.708.578M19.18 8.936c-.06-.62-.521-1.175-1.19-1.354-.67-.18-1.346.071-1.708.577m-5.227 3.583c.06-.619.52-1.175 1.19-1.354.669-.18 1.346.072 1.708.578"/>
  <path fill="#1C274C" d="M11.096 7.042a.75.75 0 1 1-1.22-.872l1.22.872Zm.903-.29c-.378-.1-.73.048-.903.29l-1.22-.872c.55-.77 1.553-1.123 2.512-.866l-.389 1.449Zm.479.313a.894.894 0 0 0-.479-.312l.389-1.45a2.4 2.4 0 0 1 1.275.843l-1.185.92Z"/>
  <path stroke="#1C274C" stroke-linecap="round" stroke-width="1.5" d="M13.2 16.231s-1.024-.76-2.812-.282c-1.787.48-2.294 1.65-2.294 1.65"/>
</svg>
