<svg xmlns="http://www.w3.org/2000/svg" width="24" height="24" fill="none">
  <path fill="#1C274C" fill-rule="evenodd" d="M12 2.75a6.25 6.25 0 1 0 0 12.5 6.25 6.25 0 0 0 0-12.5ZM4.25 9a7.75 7.75 0 1 1 15.025 2.677l2.288 2.368c.257.267.471.489.631.674.158.182.32.39.415.632.334.845.066 1.845-.739 2.337-.23.142-.494.2-.72.238-.232.04-.526.07-.873.107l-.024.002c-.459.049-.546.064-.605.087a.683.683 0 0 0-.397.417c-.026.07-.041.173-.088.644l-.002.022c-.036.361-.066.664-.103.902-.036.23-.09.494-.223.725-.47.822-1.459 1.13-2.317.767-.241-.102-.446-.273-.62-.435-.18-.166-.393-.388-.65-.655l-.02-.02L12 17.09l-3.232 3.405-.015.015c-.257.267-.471.489-.65.655-.175.162-.38.333-.62.435-.86.363-1.848.055-2.318-.767-.132-.231-.187-.494-.223-.726-.037-.237-.067-.54-.102-.9l-.003-.023c-.046-.471-.062-.573-.087-.644a.683.683 0 0 0-.397-.417c-.06-.023-.147-.038-.606-.087l-.023-.002c-.347-.037-.641-.068-.873-.107-.226-.037-.49-.096-.721-.238-.804-.492-1.072-1.492-.739-2.337.096-.242.257-.45.415-.632.16-.185.374-.407.632-.674l2.287-2.368A7.735 7.735 0 0 1 4.25 9Zm1.178 4.109-1.896 1.963c-.276.286-.462.478-.592.629a1.21 1.21 0 0 0-.154.2c-.09.23 0 .424.119.503.009.003.06.02.194.043.18.03.43.057.806.097l.075.008c.34.035.641.067.91.17.599.23 1.057.71 1.272 1.312.096.269.126.573.16.927l.008.075c.038.389.064.649.094.84.026.162.046.214.047.217.08.135.244.201.425.125 0 0 .05-.027.186-.154.145-.134.33-.325.605-.61l.002-.002 2.72-2.866a7.758 7.758 0 0 1-4.981-3.477Zm8.163 3.478a7.758 7.758 0 0 0 4.982-3.478l1.896 1.963c.276.286.461.478.591.629.123.14.151.195.154.2.09.23 0 .424-.118.503-.01.003-.06.02-.194.043-.181.03-.43.057-.807.097l-.075.008c-.339.035-.641.067-.91.17-.598.23-1.057.71-1.272 1.312-.096.269-.126.573-.16.927l-.008.075c-.038.389-.064.649-.094.84-.025.162-.046.214-.046.217-.08.135-.245.202-.427.125h.002s-.05-.027-.187-.154a17.01 17.01 0 0 1-.605-.61l-.002-.002-2.72-2.866Zm-1.59-9.553c-.059.101-.124.217-.2.354l-.098.176a4.966 4.966 0 0 0-.022.04c-.079.144-.209.382-.426.547-.221.168-.488.226-.643.26l-.043.009-.191.043c-.176.04-.318.072-.44.103.079.097.182.219.316.376l.13.152.03.034c.108.125.283.325.363.585.08.256.052.52.035.686a3.802 3.802 0 0 0-.005.047l-.02.203a22.63 22.63 0 0 0-.041.46c.104-.046.222-.1.363-.165l.179-.082.04-.02c.144-.067.394-.184.672-.184.279 0 .528.117.672.185l.04.019.18.082c.14.065.258.12.363.165a35.76 35.76 0 0 0-.042-.46l-.02-.203a3.802 3.802 0 0 0-.005-.047c-.017-.167-.044-.43.035-.686.08-.26.255-.46.363-.585l.03-.034.13-.152c.134-.157.237-.279.317-.376-.122-.03-.265-.063-.44-.103l-.191-.043-.043-.01c-.156-.033-.422-.091-.644-.26-.217-.164-.347-.402-.425-.545l-.023-.041-.098-.176c-.076-.137-.14-.253-.199-.354ZM11.013 5.8c.172-.225.485-.55.986-.55.502 0 .815.325.987.55.164.214.33.511.5.816l.022.041.099.177.056.1.099.023.19.043.048.01c.328.075.653.148.903.247.277.109.65.32.795.785.142.455-.037.841-.193 1.09-.145.23-.364.486-.59.749l-.03.035-.13.153-.082.097.012.135.02.203.004.046c.035.352.068.692.055.964-.012.286-.08.718-.468 1.011-.4.304-.84.238-1.12.157-.258-.073-.562-.214-.87-.355l-.043-.02-.179-.083a31.303 31.303 0 0 0-.085-.039l-.085.04-.178.082-.044.02c-.307.141-.612.282-.87.355-.28.08-.72.147-1.12-.157-.387-.293-.455-.725-.468-1.01-.012-.273.02-.613.055-.965l.005-.046.02-.203.012-.135a9.946 9.946 0 0 0-.083-.097l-.13-.153-.03-.035c-.225-.263-.445-.52-.59-.75-.156-.248-.334-.634-.193-1.09.145-.463.519-.675.795-.784.25-.099.576-.172.904-.246l.046-.01.191-.044.1-.023.056-.1.098-.177.023-.041c.17-.305.335-.602.5-.816Z" clip-rule="evenodd"/>
</svg>
