<svg xmlns="http://www.w3.org/2000/svg" width="24" height="24" fill="none">
  <path fill="#1C274C" fill-rule="evenodd" d="M12 2.75a6.25 6.25 0 1 0 0 12.5 6.25 6.25 0 0 0 0-12.5ZM4.25 9a7.75 7.75 0 1 1 13.06 5.645.75.75 0 0 1 .062.157l.65 2.369c.303 1.107.548 1.998.659 2.69.109.678.131 1.376-.248 1.944-.216.323-.51.588-.856.764-.63.32-1.317.163-1.932-.07-.628-.236-1.416-.647-2.384-1.152l-.047-.024c-.724-.377-.913-.462-1.095-.481a1.116 1.116 0 0 0-.238 0c-.182.019-.37.104-1.095.481l-.047.024c-.968.505-1.756.915-2.384 1.152-.615.233-1.302.39-1.932.07a2.271 2.271 0 0 1-.856-.764c-.379-.568-.357-1.266-.248-1.944.111-.692.356-1.583.66-2.69l.649-2.37a.754.754 0 0 1 .062-.156A7.728 7.728 0 0 1 4.25 9Zm3.71 6.615-.522 1.906c-.32 1.164-.541 1.976-.638 2.578-.1.625-.025.813.015.872a.772.772 0 0 0 .289.262c.023.011.166.073.722-.137.533-.201 1.24-.569 2.267-1.103l.103-.054c.568-.297 1.025-.535 1.526-.589.185-.02.371-.02.556 0 .5.053.958.292 1.526.589l.103.054c1.026.534 1.734.902 2.267 1.103.556.21.7.148.722.137a.773.773 0 0 0 .29-.262c.04-.06.114-.247.014-.872-.097-.602-.319-1.414-.637-2.578l-.523-1.906A7.714 7.714 0 0 1 12 16.75a7.714 7.714 0 0 1-4.04-1.135Z" clip-rule="evenodd"/>
</svg>
