<svg xmlns="http://www.w3.org/2000/svg" width="24" height="24" fill="none">
  <g stroke="#1C274C" stroke-width="1.5">
    <path d="M2 14c0-3.771 0-5.657 1.172-6.828C4.343 6 6.229 6 10 6h4c3.771 0 5.657 0 6.828 1.172C22 8.343 22 10.229 22 14c0 3.771 0 5.657-1.172 6.828C19.657 22 17.771 22 14 22h-4c-3.771 0-5.657 0-6.828-1.172C2 19.657 2 17.771 2 14Z"/>
    <path d="M16 6c0-1.886 0-2.828-.586-3.414C14.828 2 13.886 2 12 2c-1.886 0-2.828 0-3.414.586C8 3.172 8 4.114 8 6" opacity=".5"/>
    <path stroke-linecap="round" d="M13.5 14h-3m1.5-1.5v3"/>
    <circle cx="12" cy="14" r="4" opacity=".5"/>
  </g>
</svg>
