<svg xmlns="http://www.w3.org/2000/svg" width="24" height="24" fill="none">
  <g stroke="#1C274C" stroke-width="1.5">
    <path d="M14.5 4.5a2.5 2.5 0 1 1-5 0 2.5 2.5 0 0 1 5 0Z"/>
    <path stroke-linecap="round" stroke-linejoin="round" d="m3 17 2.589-1.308A.752.752 0 0 0 6 15.02c0-2.94 2.138-5.454 5.007-5.938a6.02 6.02 0 0 1 1.986 0C15.863 9.566 18 12.08 18 15.02c0 .284.16.545.411.672L21 17" opacity=".5"/>
    <path stroke-linecap="round" stroke-linejoin="round" d="m9.5 16-1.042 1.389-.063.084a2 2 0 0 1-1.034.686l-.102.026-1.485.371A2.342 2.342 0 0 0 4 20.83c0 .646.524 1.17 1.171 1.17h1.556c.6 0 .9 0 1.19-.034a5 5 0 0 0 1.929-.643c.253-.147.493-.327.972-.687L11 20.5m0 0 2-1.5m-2 1.5 2.54.952c.61.229.914.343 1.229.417.163.038.328.068.493.09.321.041.647.041 1.298.041h2.269A1.17 1.17 0 0 0 20 20.829a2.342 2.342 0 0 0-1.774-2.273l-1.485-.37-.102-.027a2 2 0 0 1-1.034-.686l-.063-.084L14.5 16"/>
  </g>
</svg>
