<svg xmlns="http://www.w3.org/2000/svg" width="24" height="24" fill="none">
  <g fill="#1C274C">
    <path d="M14.5 4.5a2.5 2.5 0 1 1-5 0 2.5 2.5 0 0 1 5 0Z"/>
    <path fill-rule="evenodd" d="M12 9.77a5.9 5.9 0 0 0-.86.052l-.892.15c-2.013.339-3.498 2.102-3.498 4.178a3.25 3.25 0 0 1-1.43 2.696l-.1.069a3.43 3.43 0 0 1-.823.406l-1.157.39a.75.75 0 0 1-.48-1.422l1.159-.39c.163-.055.319-.132.462-.228l.102-.069a1.75 1.75 0 0 0 .767-1.452c0-2.797 2.003-5.195 4.748-5.657l.89-.15A7.274 7.274 0 0 1 12 8.271c.387 0 .807.02 1.112.072l.89.15c2.746.462 4.748 2.86 4.748 5.657 0 .586.29 1.13.768 1.452l.101.069c.144.096.3.173.463.228l1.158.39a.75.75 0 0 1-.48 1.422l-1.157-.39a3.429 3.429 0 0 1-.822-.406l-.101-.069a3.25 3.25 0 0 1-1.43-2.696c0-2.076-1.485-3.839-3.497-4.178l-.892-.15a5.887 5.887 0 0 0-.86-.051Zm-3.1 5.78a.75.75 0 1 1 1.2.9l-.924 1.233-.022.029a4.531 4.531 0 0 1-.34.42 2.75 2.75 0 0 1-1.007.67c-.155.058-.316.098-.52.15l-.035.008-1.794.449a.935.935 0 0 0 .227 1.841h.684c1.546 0 3.05-.501 4.287-1.429L12.55 18.4a.75.75 0 1 1 .9 1.2l-.904.678.491.185c.534.2.775.29 1.017.366a9.252 9.252 0 0 0 2.243.407c.253.014.51.014 1.08.014h.939a.935.935 0 0 0 .226-1.841l-1.473-.369-.082-.02c-.476-.119-.851-.212-1.186-.406a2.73 2.73 0 0 1-.29-.192c-.308-.234-.54-.543-.833-.936l-.051-.067-.727-.969a.75.75 0 1 1 1.2-.9l.727.969c.368.491.471.618.591.709.042.031.086.06.132.087.13.075.287.121.883.27l1.473.368a2.435 2.435 0 0 1-.59 4.797h-.963c-.539 0-.84 0-1.14-.017a10.753 10.753 0 0 1-2.607-.473c-.286-.09-.568-.195-1.072-.384l-1.432-.537a8.645 8.645 0 0 1-4.733 1.411h-.684a2.435 2.435 0 0 1-.59-4.797l1.793-.448c.255-.064.324-.082.384-.105.173-.066.33-.17.458-.304.044-.047.088-.102.246-.313L8.9 15.55Z" clip-rule="evenodd"/>
  </g>
</svg>
