<svg xmlns="http://www.w3.org/2000/svg" width="24" height="24" fill="none">
  <g stroke="#1C274C" stroke-width="1.5">
    <path stroke-linecap="round" d="M12 18a6 6 0 1 1 5.64-3.946 1.54 1.54 0 0 1-.413.599l-.08.074a1.637 1.637 0 0 1-2.747-1.203V12m0 0a2.4 2.4 0 1 1-4.8 0 2.4 2.4 0 0 1 4.8 0Z"/>
    <path d="M2 12c0-4.714 0-7.071 1.464-8.536C4.93 2 7.286 2 12 2c4.714 0 7.071 0 8.535 1.464C22 4.93 22 7.286 22 12c0 4.714 0 7.071-1.465 8.535C19.072 22 16.714 22 12 22s-7.071 0-8.536-1.465C2 19.072 2 16.714 2 12Z" opacity=".5"/>
  </g>
</svg>
