<svg xmlns="http://www.w3.org/2000/svg" width="24" height="24" fill="none">
  <g fill="#1C274C" fill-rule="evenodd" clip-rule="evenodd">
    <path d="M6.75 12a5.25 5.25 0 1 1 10.184 1.797.796.796 0 0 1-.216.304l-.08.075a.887.887 0 0 1-1.488-.652V12a3.15 3.15 0 1 0-1.277 2.533 2.386 2.386 0 0 0 3.782.745l.08-.074c.25-.23.476-.528.609-.893A6.75 6.75 0 1 0 12 18.75a.75.75 0 0 0 0-1.501A5.25 5.25 0 0 1 6.75 12ZM12 10.35a1.65 1.65 0 1 1 0 3.3 1.65 1.65 0 0 1 0-3.3Z"/>
    <path d="M12 1.25C6.063 1.25 1.25 6.063 1.25 12S6.063 22.75 12 22.75 22.75 17.937 22.75 12 17.937 1.25 12 1.25ZM2.75 12a9.25 9.25 0 1 1 18.5 0 9.25 9.25 0 0 1-18.5 0Z"/>
  </g>
</svg>
