<svg xmlns="http://www.w3.org/2000/svg" width="24" height="24" fill="none">
  <g fill="#1C274C">
    <path fill-rule="evenodd" d="M12 2C8.56 2 5.77 4.811 5.77 8.28v4.65c0 3.468 2.79 6.28 6.23 6.28 3.441 0 6.231-2.812 6.231-6.28V8.28c0-3.469-2.79-6.28-6.23-6.28ZM9.68 7.39a.701.701 0 0 1-.028-.986l.503.48-.502-.48v-.001l.002-.002.003-.003.008-.008a.9.9 0 0 1 .06-.055 1.5 1.5 0 0 1 .127-.099 2.27 2.27 0 0 1 .437-.232c.379-.154.93-.283 1.711-.283s1.333.129 1.712.283c.189.077.332.16.437.232a1.51 1.51 0 0 1 .187.154l.007.008.003.003.002.002s.002.001-.492.471l.494-.47c.262.28.25.722-.028.987a.688.688 0 0 1-.95 0l-.008-.005a.907.907 0 0 0-.171-.088C13 7.22 12.629 7.116 12 7.116c-.628 0-1 .104-1.192.182a.907.907 0 0 0-.171.088l-.008.005a.688.688 0 0 1-.95 0Zm0 2.791a.702.702 0 0 1-.028-.986l.503.48-.502-.48v-.002l.002-.001.003-.004.008-.007a.9.9 0 0 1 .06-.056 1.5 1.5 0 0 1 .127-.098 2.27 2.27 0 0 1 .437-.232c.379-.154.93-.283 1.711-.283s1.333.129 1.712.283c.189.077.332.16.437.232a1.51 1.51 0 0 1 .187.154l.007.007.003.004.002.001v.001s.002.001-.492.47l.494-.469c.262.28.25.722-.028.986a.689.689 0 0 1-.95 0l-.008-.004a.904.904 0 0 0-.171-.088C13 10.01 12.629 9.907 12 9.907c-.628 0-1 .104-1.192.182a.904.904 0 0 0-.171.088l-.008.005a.689.689 0 0 1-.95 0Z" clip-rule="evenodd" opacity=".5"/>
    <path d="M9.651 9.195a.702.702 0 0 0 .028.986.689.689 0 0 0 .95 0l.008-.005a.918.918 0 0 1 .171-.088c.192-.078.564-.181 1.192-.181.63 0 1 .103 1.193.181a1 1 0 0 1 .171.088l.007.006a.689.689 0 0 0 .951 0 .702.702 0 0 0 .028-.987l-.493.47.492-.47v-.002l-.002-.001-.004-.004-.007-.007-.017-.017a1.13 1.13 0 0 0-.17-.137 2.267 2.267 0 0 0-.437-.232c-.38-.155-.93-.284-1.712-.284-.78 0-1.332.13-1.71.284a2.27 2.27 0 0 0-.438.232 1.501 1.501 0 0 0-.187.154l-.007.007-.004.004-.001.001-.001.001.502.48-.503-.48Zm0-2.791a.702.702 0 0 0 .028.986.688.688 0 0 0 .95 0l.008-.004a.913.913 0 0 1 .171-.088c.192-.078.564-.182 1.192-.182.63 0 1 .104 1.193.182.096.039.15.073.171.088l.007.005a.689.689 0 0 0 .951 0 .702.702 0 0 0 .028-.987l-.493.47.492-.47v-.001l-.002-.002-.004-.004-.007-.007a1.192 1.192 0 0 0-.188-.154 2.267 2.267 0 0 0-.436-.232c-.38-.154-.93-.283-1.712-.283-.78 0-1.332.129-1.71.283a2.29 2.29 0 0 0-.438.232 1.499 1.499 0 0 0-.187.154l-.007.007-.004.004-.001.002h-.001l.502.48-.503-.479Z"/>
    <path fill-rule="evenodd" d="M3.692 10.372c.383 0 .693.312.693.698v1.86c0 4.239 3.41 7.675 7.615 7.675 4.206 0 7.615-3.436 7.615-7.675v-1.86c0-.386.31-.698.693-.698.382 0 .692.312.692.698v1.86c0 5.01-4.03 9.07-9 9.07s-9-4.06-9-9.07v-1.86c0-.386.31-.698.692-.698Z" clip-rule="evenodd"/>
  </g>
</svg>
