<svg xmlns="http://www.w3.org/2000/svg" width="24" height="24" fill="none">
  <path fill="#1C274C" fill-rule="evenodd" d="M2 12c0-4.714 0-7.071 1.464-8.536C4.93 2 7.286 2 12 2c4.714 0 7.071 0 8.535 1.464C22 4.93 22 7.286 22 12c0 4.714 0 7.071-1.465 8.535C19.072 22 16.714 22 12 22s-7.071 0-8.536-1.465C2 19.072 2 16.714 2 12Zm4.47 5.53a.75.75 0 0 1 0-1.06l2.22-2.22H7.5a.75.75 0 0 1 0-1.5h3a.75.75 0 0 1 .75.75v3a.75.75 0 0 1-1.5 0v-1.19l-2.22 2.22a.75.75 0 0 1-1.06 0Zm10.03-6.28a.75.75 0 0 0 0-1.5h-1.19l2.22-2.22a.75.75 0 0 0-1.06-1.06l-2.22 2.22V7.5a.75.75 0 0 0-1.5 0v3c0 .414.336.75.75.75h3Z" clip-rule="evenodd"/>
</svg>
