<svg xmlns="http://www.w3.org/2000/svg" width="24" height="24" fill="none">
  <g fill="#1C274C">
    <path d="M3.172 7.172c.843-.844 2.058-1.08 4.08-1.146l1.5-.024C9.143 6 9.56 6 10 6h4c.441 0 .857 0 1.248.002l1.5.024c2.022.066 3.237.302 4.08 1.146C22 8.343 22 10.229 22 14c0 3.771 0 5.657-1.172 6.828C19.657 22 17.771 22 14 22h-4c-3.771 0-5.657 0-6.828-1.172C2 19.657 2 17.771 2 14c0-3.771 0-5.657 1.172-6.828Z" opacity=".5"/>
    <path d="M12.75 10a.75.75 0 0 0-1.5 0v.01c-1.089.274-2 1.133-2 2.323 0 1.457 1.365 2.417 2.75 2.417.824 0 1.25.533 1.25.917s-.426.916-1.25.916c-.824 0-1.25-.532-1.25-.916a.75.75 0 0 0-1.5 0c0 1.19.911 2.048 2 2.323V18a.75.75 0 0 0 1.5 0v-.01c1.089-.274 2-1.133 2-2.323 0-1.457-1.365-2.417-2.75-2.417-.824 0-1.25-.533-1.25-.917s.426-.916 1.25-.916c.824 0 1.25.532 1.25.916a.75.75 0 0 0 1.5 0c0-1.19-.911-2.049-2-2.323V10Zm-.698-8.75h-.104c-.898 0-1.648 0-2.242.08-.628.084-1.195.27-1.65.725-.456.456-.642 1.023-.726 1.65-.057.427-.073 1.446-.078 2.32l1.5-.023c.005-.847.02-1.758.065-2.097.062-.461.169-.659.3-.789.13-.13.327-.237.789-.3.483-.064 1.13-.066 2.094-.066s1.612.002 2.095.067c.461.062.659.169.789.3.13.13.238.327.3.788.045.34.06 1.25.064 2.097l1.5.024c-.004-.875-.02-1.894-.078-2.32-.084-.628-.27-1.195-.725-1.65-.456-.456-1.023-.642-1.65-.726-.595-.08-1.344-.08-2.243-.08Z"/>
  </g>
</svg>
