<svg xmlns="http://www.w3.org/2000/svg" width="24" height="24" fill="none">
  <g fill="#1C274C" fill-rule="evenodd" clip-rule="evenodd">
    <path d="M20.366 2.124c-.328-.832-1.504-.832-1.83 0l-.429 1.09-1.084.429c-.83.328-.83 1.504 0 1.832l1.084.43.428 1.089c.327.832 1.503.832 1.83 0l.429-1.09 1.084-.429c.83-.328.83-1.504 0-1.832l-1.084-.43-.428-1.089Zm-.916.406.415 1.055c.1.254.3.455.554.556l1.057.418-1.057.419a.984.984 0 0 0-.554.555l-.415 1.055-.414-1.055a.984.984 0 0 0-.554-.555l-1.057-.419 1.057-.418a.984.984 0 0 0 .554-.556l.414-1.055Zm-2.952 5.417c-.327-.833-1.503-.833-1.83 0l-.155.393-.39.155c-.83.328-.83 1.504 0 1.833l.39.154.155.394c.327.832 1.503.832 1.83 0l.155-.394.39-.154c.83-.329.83-1.505 0-1.833l-.39-.155-.155-.393Zm-.915.405.141.36c.1.253.3.455.554.555l.364.144-.364.144a.984.984 0 0 0-.554.556l-.141.36-.141-.36a.984.984 0 0 0-.554-.556l-.364-.144.364-.144a.984.984 0 0 0 .554-.555l.141-.36Z"/>
    <path d="M11.017 2.802a9.25 9.25 0 1 0 10.181 10.181A7.25 7.25 0 1 1 11.017 2.802ZM1.25 12C1.25 6.063 6.063 1.25 12 1.25c.717 0 1.075.571 1.137 1.026.059.438-.103.995-.606 1.299a5.75 5.75 0 1 0 7.894 7.894c.304-.503.861-.665 1.299-.606.455.062 1.026.42 1.026 1.137 0 5.937-4.813 10.75-10.75 10.75S1.25 17.937 1.25 12Z"/>
  </g>
</svg>
