<svg xmlns="http://www.w3.org/2000/svg" width="24" height="24" fill="none">
  <g stroke="#1C274C" stroke-linecap="round" stroke-width="1.5">
    <path d="M2 12V6.95c0-.883 0-1.324.07-1.692A4 4 0 0 1 5.257 2.07C5.626 2 6.068 2 6.95 2c.386 0 .58 0 .766.017a4 4 0 0 1 2.18.904c.144.119.28.255.554.529L11 4c.816.816 1.224 1.224 1.712 1.495a4 4 0 0 0 .848.352C14.098 6 14.675 6 15.828 6h.374c2.632 0 3.949 0 4.804.77.079.07.154.145.224.224.77.855.77 2.172.77 4.804V14c0 3.771 0 5.657-1.172 6.828C19.657 22 17.771 22 14 22h-4c-3.771 0-5.657 0-6.828-1.172-.654-.653-.943-1.528-1.07-2.828"/>
    <path stroke-linejoin="round" d="M2 15h11m0 0-4.125-3M13 15l-4.125 3"/>
  </g>
</svg>
