<svg xmlns="http://www.w3.org/2000/svg" width="24" height="24" fill="none">
  <path fill="#1C274C" fill-rule="evenodd" d="M9.011 3.99a.75.75 0 0 1-.04 1.06L3.757 9.893a3.147 3.147 0 0 0 .101 4.703l5.09 4.333a.75.75 0 1 1-.972 1.142l-5.09-4.333a4.647 4.647 0 0 1-.15-6.944L7.951 3.95a.75.75 0 0 1 1.06.04Zm3.236 1.687c-.113.097-.248.216-.413.363L7.862 9.57c-.801.713-1.342 1.196-1.692 1.607-.336.396-.41.626-.41.823 0 .197.074.428.41.823.35.411.89.894 1.692 1.606l3.972 3.531c.165.147.3.266.413.363.003-.149.003-.33.003-.55V15.43a.75.75 0 0 1 .75-.75c1.913 0 3.9.454 5.616 1.29a10.267 10.267 0 0 1 2.5 1.688c-.369-3.047-1.458-5.013-2.76-6.258C16.736 9.85 14.69 9.322 13 9.322a.75.75 0 0 1-.75-.75V6.227c0-.22 0-.401-.003-.55Zm-.482-1.523c.257-.17.724-.416 1.247-.18.524.234.65.747.694 1.052.044.31.044.715.044 1.15V7.85c1.824.141 3.922.817 5.644 2.464 1.975 1.89 3.356 4.964 3.356 9.685a.75.75 0 0 1-1.414.349c-.656-1.25-1.864-2.295-3.377-3.032a11.56 11.56 0 0 0-4.209-1.112v1.62c0 .434 0 .84-.044 1.15-.044.304-.17.817-.694 1.052-.523.235-.99-.012-1.247-.181-.261-.173-.564-.442-.889-.73a109.7 109.7 0 0 1-.038-.035l-4.014-3.568c-.75-.665-1.37-1.217-1.796-1.718C4.58 13.268 4.26 12.7 4.26 12c0-.701.319-1.268.767-1.795.426-.5 1.047-1.053 1.796-1.718l4.014-3.568.038-.034c.325-.289.628-.558.889-.73Z" clip-rule="evenodd"/>
</svg>
