<svg xmlns="http://www.w3.org/2000/svg" width="24" height="24" fill="none">
  <g fill="#1C274C">
    <path d="M12.475 5.184 7.497 9.608c-.93.827-1.396 1.241-1.567 1.73a2 2 0 0 0 0 1.325c.171.488.637.902 1.567 1.729l4.978 4.425c.422.375.634.563.813.57a.5.5 0 0 0 .405-.182c.114-.139.114-.421.114-.986v-2.79c2.428 0 4.992.78 6.865 2.164.975.72 1.462 1.08 1.648 1.067a.451.451 0 0 0 .39-.24c.096-.16.01-.658-.16-1.653-1.104-6.466-5.554-8.196-8.743-8.196v-2.79c0-.565 0-.847-.114-.986a.5.5 0 0 0-.405-.181c-.18.006-.39.194-.813.57Z"/>
    <path fill-rule="evenodd" d="M9.818 3.99a.75.75 0 0 0-1.06-.04L3.542 8.794a4.647 4.647 0 0 0 .15 6.944l5.09 4.333a.75.75 0 1 0 .972-1.142l-5.09-4.333a3.147 3.147 0 0 1-.102-4.703L9.78 5.05a.75.75 0 0 0 .039-1.06Z" clip-rule="evenodd"/>
  </g>
</svg>
