<svg xmlns="http://www.w3.org/2000/svg" width="24" height="24" fill="none">
  <g stroke="#1C274C" stroke-width="1.5">
    <path d="M12 18a4 4 0 1 1-8 0 4 4 0 0 1 8 0Zm0 0V8"/>
    <path stroke-linecap="round" d="m16.117 3.942-2.634 1.317c-.365.182-.547.273-.698.389a2 2 0 0 0-.75 1.212c-.035.187-.035.39-.035.8 0 .97 0 1.456.12 1.786a2 2 0 0 0 2.112 1.306c.348-.04.783-.258 1.651-.692l2.634-1.317c.365-.182.547-.274.698-.389a2 2 0 0 0 .75-1.213C20 6.954 20 6.75 20 6.342c0-.971 0-1.457-.12-1.787a2 2 0 0 0-2.112-1.305c-.348.04-.783.258-1.651.692Z"/>
  </g>
</svg>
