<svg xmlns="http://www.w3.org/2000/svg" width="24" height="24" fill="none">
  <g stroke="#1C274C" stroke-width="1.5">
    <path d="M5 8c0-2.828 0-4.243.879-5.121C6.757 2 8.172 2 11 2h2c2.828 0 4.243 0 5.121.879C19 3.757 19 5.172 19 8v8c0 2.828 0 4.243-.879 5.121C17.243 22 15.828 22 13 22h-2c-2.828 0-4.243 0-5.121-.879C5 20.243 5 18.828 5 16V8Zm14 11.5c.465 0 .697 0 .891-.03a2.5 2.5 0 0 0 2.078-2.079c.031-.194.031-.426.031-.891v-9c0-.465 0-.697-.03-.891a2.5 2.5 0 0 0-2.08-2.079c-.193-.03-.425-.03-.89-.03m-14 15c-.465 0-.697 0-.891-.03a2.5 2.5 0 0 1-2.079-2.08C2 17.197 2 16.965 2 16.5v-9c0-.465 0-.697.03-.891A2.5 2.5 0 0 1 4.11 4.53c.193-.03.425-.03.89-.03"/>
    <path d="M12 15a2 2 0 1 1-4 0 2 2 0 0 1 4 0Zm0 0v-5"/>
    <path stroke-linecap="round" d="m14.058 7.971-1.316.658a2.247 2.247 0 0 0-.35.195 1 1 0 0 0-.374.606c-.018.093-.018.195-.018.4 0 .485 0 .728.06.893a1 1 0 0 0 1.056.652c.174-.02.391-.129.826-.346l1.316-.658c.183-.091.274-.137.35-.194a1 1 0 0 0 .374-.607C16 9.477 16 9.375 16 9.171c0-.486 0-.728-.06-.893a1 1 0 0 0-1.056-.653c-.174.02-.391.129-.826.346Z"/>
  </g>
</svg>
