<svg xmlns="http://www.w3.org/2000/svg" width="24" height="24" fill="none">
  <path fill="#1C274C" fill-rule="evenodd" d="M8.512 3.698A2.443 2.443 0 0 0 10 4.25a.75.75 0 0 1 0 1.5c-.72 0-1.551-.24-2.25-.745V11c0 .16-.05.307-.135.429A3.252 3.252 0 0 1 1.25 10.5a3.25 3.25 0 0 1 5-2.74V2h1.5c0 .798.328 1.34.762 1.698ZM6.25 10.5a1.75 1.75 0 1 0-3.5 0 1.75 1.75 0 0 0 3.5 0Zm13.323-6.559c-.672.171-1.552.537-2.828 1.071l-2 .838c-.61.255-1.012.424-1.308.588-.28.154-.4.27-.478.386-.077.116-.137.272-.171.59-.037.336-.038.772-.038 1.434v2.044l8.5-3.4c-.002-1.108-.015-1.907-.103-2.503-.1-.672-.27-.901-.454-1.024-.185-.123-.463-.191-1.12-.024Zm3.177 4.042v-.035c0-1.306 0-2.37-.12-3.179-.123-.836-.4-1.582-1.106-2.053-.708-.47-1.503-.437-2.322-.228-.792.201-1.774.612-2.978 1.116l-2.094.877c-.565.236-1.043.436-1.418.644-.4.22-.743.48-1.001.868-.258.388-.366.805-.415 1.259-.046.426-.046.944-.046 1.556v7.953A3.25 3.25 0 1 0 12.712 19h.038v-6.493l8.5-3.4v5.653a3.25 3.25 0 1 0 1.482 2.393h.018v-9.17ZM19.5 15.75a1.75 1.75 0 1 0 0 3.5 1.75 1.75 0 0 0 0-3.5Zm-10 2a1.75 1.75 0 1 0 0 3.5 1.75 1.75 0 0 0 0-3.5Z" clip-rule="evenodd"/>
</svg>
