<svg xmlns="http://www.w3.org/2000/svg" width="24" height="24" fill="none">
  <g fill="#1C274C">
    <path d="M14.869 8.412c.07-.03.102-.04.11-.043a.25.25 0 0 1 .254.157.96.96 0 0 1 .01.118c.007.117.007.276.007.527a7.03 7.03 0 0 1-.004.259.25.25 0 0 1-.093.15 6.783 6.783 0 0 1-.23.12l-1.316.659c-.225.112-.367.183-.475.23a.994.994 0 0 1-.11.042.25.25 0 0 1-.254-.157.963.963 0 0 1-.011-.117 11.407 11.407 0 0 1-.007-.528 6.622 6.622 0 0 1 .005-.258.25.25 0 0 1 .093-.151 7.008 7.008 0 0 1 .23-.12l1.316-.658c.225-.112.367-.183.475-.23ZM10 13.75a1.25 1.25 0 1 1 0 2.5 1.25 1.25 0 0 1 0-2.5Z"/>
    <path fill-rule="evenodd" d="M7.236 2.879C6.42 3.757 6.42 5.172 6.42 8v8c0 2.828 0 4.243.817 5.121C8.054 22 9.37 22 12 22c2.631 0 3.947 0 4.764-.879.818-.878.818-2.293.818-5.121V8c0-2.828 0-4.243-.818-5.121C15.947 2 14.631 2 12 2c-2.63 0-3.946 0-4.764.879Zm9.41 5.143a1.75 1.75 0 0 0-1.848-1.142c-.199.023-.378.09-.529.157-.148.064-.326.153-.529.255l-1.37.685a2.659 2.659 0 0 0-.433.251 1.75 1.75 0 0 0-.655 1.061c-.032.166-.032.338-.032.5v2.761a2.75 2.75 0 1 0 1.5 2.45v-2.886c.148.022.3.024.453.006.199-.023.377-.09.528-.156.149-.065.327-.154.53-.255l1.37-.685c.144-.073.298-.15.432-.252a1.75 1.75 0 0 0 .656-1.06 2.57 2.57 0 0 0 .031-.5v-.06c0-.226 0-.425-.008-.587a1.863 1.863 0 0 0-.096-.543Z" clip-rule="evenodd"/>
    <path d="M6.724 3.762H5.268a8.29 8.29 0 0 0-.434.025c-.43.038-.82.119-1.183.318a3.146 3.146 0 0 0-1.321 1.42c-.186.39-.26.809-.296 1.272C2 7.245 2 7.796 2 8.47v7.063c0 .673 0 1.224.034 1.671.035.464.11.882.296 1.273.29.611.752 1.108 1.32 1.42.364.2.753.28 1.184.318.135.012.279.02.434.025h1.456c-.304-.899-.304-2.203-.304-4.24V8c0-2.037 0-3.34.305-4.238Zm10.552 16.477c.306-.898.306-2.202.306-4.239V8c0-2.037 0-3.34-.305-4.238h1.455c.155.005.3.013.434.025.43.038.82.119 1.183.318a3.147 3.147 0 0 1 1.322 1.42c.185.39.26.809.295 1.272.034.448.034.999.034 1.672v7.063c0 .673 0 1.224-.034 1.671-.035.464-.11.882-.296 1.273a3.146 3.146 0 0 1-1.32 1.42c-.364.2-.753.28-1.184.318a8.28 8.28 0 0 1-.434.025h-1.456Z" opacity=".5"/>
  </g>
</svg>
