<svg xmlns="http://www.w3.org/2000/svg" width="24" height="24" fill="none">
  <path stroke="#1C274C" stroke-width="1.5" d="M5 8c0-2.828 0-4.243.879-5.121C6.757 2 8.172 2 11 2h2c2.828 0 4.243 0 5.121.879C19 3.757 19 5.172 19 8v8c0 2.828 0 4.243-.879 5.121C17.243 22 15.828 22 13 22h-2c-2.828 0-4.243 0-5.121-.879C5 20.243 5 18.828 5 16V8Z"/>
  <path stroke="#1C274C" stroke-width="1.5" d="M19 19.5c.465 0 .697 0 .891-.03a2.5 2.5 0 0 0 2.078-2.079c.031-.194.031-.426.031-.891v-9c0-.465 0-.697-.03-.891a2.5 2.5 0 0 0-2.08-2.079c-.193-.03-.425-.03-.89-.03m-14 15c-.465 0-.697 0-.891-.03a2.5 2.5 0 0 1-2.079-2.08C2 17.197 2 16.965 2 16.5v-9c0-.465 0-.697.03-.891A2.5 2.5 0 0 1 4.11 4.53c.193-.03.425-.03.89-.03" opacity=".5"/>
  <path fill="#1C274C" d="m12.742 8.63-.336-.671.336.67Zm1.316-.659-.335-.67.335.67Zm-.116 3.058-.336-.67.336.67Zm-1.882-.306.705-.256-.705.256Zm1.056.652-.087-.745.087.745Zm2.866-1.805.737.141-.737-.14Zm-.375.607.456.595-.456-.595Zm-.723-2.552.087.745-.087-.745Zm1.056.653-.705.255.705-.255Zm-3.547.546.455.596-.455-.596Zm-.375.606-.737-.14.737.14ZM11.25 15c0 .69-.56 1.25-1.25 1.25v1.5A2.75 2.75 0 0 0 12.75 15h-1.5ZM10 16.25c-.69 0-1.25-.56-1.25-1.25h-1.5A2.75 2.75 0 0 0 10 17.75v-1.5ZM8.75 15c0-.69.56-1.25 1.25-1.25v-1.5A2.75 2.75 0 0 0 7.25 15h1.5ZM10 13.75c.69 0 1.25.56 1.25 1.25h1.5A2.75 2.75 0 0 0 10 12.25v1.5ZM12.75 15v-5h-1.5v5h1.5Zm.327-5.7 1.317-.658-.671-1.342-1.317.659.671 1.341Zm1.846.4-1.317.659.671 1.341 1.317-.658-.671-1.342Zm-3.673.13c0 .234 0 .44.008.606.01.164.029.354.097.542l1.41-.51c.008.022-.002.008-.009-.111a11.437 11.437 0 0 1-.006-.528h-1.5Zm2.356.528a9.254 9.254 0 0 1-.474.23c-.11.049-.127.045-.103.043l.174 1.49c.198-.024.377-.091.528-.157.153-.067.336-.159.546-.264l-.67-1.341Zm-2.251.62a1.75 1.75 0 0 0 1.848 1.142l-.174-1.49a.25.25 0 0 1-.264-.163l-1.41.511Zm3.895-1.807c0 .107 0 .168-.002.214l-.002.044 1.473.282c.034-.18.031-.366.031-.54h-1.5Zm.344 1.87c.155-.077.324-.158.469-.269l-.911-1.191-.038.022a6.68 6.68 0 0 1-.191.097l.67 1.342Zm-.348-1.612a.25.25 0 0 1-.094.152l.91 1.191a1.75 1.75 0 0 0 .657-1.06l-1.474-.283Zm-.852-.787c.224-.112.366-.183.474-.23.11-.048.127-.045.103-.042l-.174-1.49c-.198.023-.377.09-.528.157-.153.066-.336.158-.546.263l.67 1.342Zm2.356.529c0-.235 0-.44-.009-.606a1.87 1.87 0 0 0-.096-.543l-1.41.511c-.008-.023.002-.01.009.11.006.118.006.277.006.528h1.5Zm-1.779-.801a.25.25 0 0 1 .264.163l1.41-.51a1.75 1.75 0 0 0-1.848-1.143l.174 1.49Zm-2.565-.411c-.155.077-.324.158-.469.269l.911 1.192.038-.022c.04-.022.095-.05.191-.098l-.67-1.341Zm.344 1.87c0-.107 0-.168.002-.214l.002-.044-1.473-.282c-.034.18-.031.367-.031.54h1.5Zm-.813-1.601a1.75 1.75 0 0 0-.656 1.061l1.473.282a.25.25 0 0 1 .094-.151l-.91-1.192Z" opacity=".5"/>
</svg>
