<svg xmlns="http://www.w3.org/2000/svg" width="24" height="24" fill="none">
  <g fill="#1C274C">
    <path d="M2.003 11.716c.04-1.843.06-2.764.718-3.552.12-.144.296-.315.444-.431.809-.636 1.876-.636 4.012-.636.763 0 1.144 0 1.508-.092.076-.02.15-.042.224-.067.355-.121.674-.33 1.31-.746 2.514-1.645 3.771-2.467 4.826-2.11.202.069.398.168.573.29.911.635.98 2.115 1.12 5.073.05 1.096.085 2.034.085 2.555 0 .521-.034 1.46-.086 2.555-.138 2.958-.208 4.438-1.12 5.073-.174.122-.37.221-.572.29-1.055.357-2.312-.465-4.825-2.11-.637-.416-.956-.625-1.31-.746a2.962 2.962 0 0 0-.225-.067c-.364-.092-.745-.092-1.508-.092-2.136 0-3.203 0-4.012-.636a3.259 3.259 0 0 1-.444-.43c-.658-.79-.678-1.71-.718-3.553a13.124 13.124 0 0 1 0-.569Z"/>
    <path fill-rule="evenodd" d="M17.782 9.52a.745.745 0 0 1 1.048 0l1.452 1.44 1.453-1.44a.745.745 0 0 1 1.048 0 .73.73 0 0 1 0 1.04L21.33 12l1.453 1.441a.73.73 0 0 1 0 1.04.745.745 0 0 1-1.048 0l-1.453-1.44-1.452 1.44a.745.745 0 0 1-1.048 0 .731.731 0 0 1 0-1.04l1.452-1.44-1.452-1.442a.731.731 0 0 1 0-1.04Z" clip-rule="evenodd"/>
  </g>
</svg>
