<svg xmlns="http://www.w3.org/2000/svg" width="24" height="24" fill="none">
  <g fill="#1C274D">
    <path d="M18.818 8.272a.75.75 0 0 1 .364 1.456l-4 1a.75.75 0 1 1-.364-1.456l4-1Zm0 4a.75.75 0 0 1 .364 1.456l-4 1a.75.75 0 1 1-.364-1.456l4-1ZM4.272 8.818a.75.75 0 0 1 .91-.546l4 1a.75.75 0 1 1-.364 1.456l-4-1a.75.75 0 0 1-.546-.91Zm0 4a.75.75 0 0 1 .91-.546l4 1a.75.75 0 0 1-.364 1.456l-4-1a.75.75 0 0 1-.546-.91Z"/>
    <path fill-rule="evenodd" d="M22.75 4.933c0-1.463-1.165-2.718-2.694-2.665-1.139.04-2.626.158-3.771.501-.995.298-2.114.88-2.987 1.385a2.77 2.77 0 0 1-2.665.058c-.996-.526-2.305-1.15-3.442-1.45-.96-.253-2.176-.375-3.163-.436C2.47 2.231 1.25 3.5 1.25 4.998v11.146c0 1.536 1.244 2.735 2.718 2.827.959.06 2.038.176 2.84.388.993.261 2.22.844 3.212 1.372a4.224 4.224 0 0 0 3.96 0c.991-.528 2.219-1.11 3.211-1.372.803-.212 1.882-.328 2.841-.388 1.474-.092 2.718-1.291 2.718-2.827V4.934Zm-2.642-1.166c.615-.021 1.142.485 1.142 1.166v11.21c0 .686-.568 1.285-1.312 1.331-.98.062-2.179.183-3.13.434-1.17.31-2.525.962-3.533 1.5-.168.09-.345.16-.525.211V5.942c.452-.09.892-.254 1.3-.49.85-.492 1.845-1 2.665-1.246.95-.284 2.274-.4 3.393-.439ZM11.25 5.975a4.199 4.199 0 0 1-1.318-.436c-.977-.517-2.161-1.072-3.123-1.326-.813-.215-1.907-.33-2.873-.39-.634-.038-1.186.478-1.186 1.175v11.146c0 .685.568 1.284 1.312 1.33.98.062 2.179.183 3.13.434 1.17.31 2.525.962 3.533 1.5.168.09.345.16.525.211V5.975Z" clip-rule="evenodd"/>
  </g>
</svg>
