<svg xmlns="http://www.w3.org/2000/svg" width="24" height="24" fill="none">
  <g fill="#1C274D">
    <path d="M2 9c0-3.771 0-5.657 1.172-6.828C4.343 1 6.229 1 10 1h4c3.771 0 5.657 0 6.828 1.172C22 3.343 22 5.229 22 9v4c0 3.771 0 5.657-1.172 6.828C19.657 21 17.771 21 14 21h-4c-3.771 0-5.657 0-6.828-1.172C2 18.657 2 16.771 2 13V9Z" opacity=".5"/>
    <path d="M6 12.91V7.497c0-.823.665-1.495 1.487-1.435.513.037 1.069.101 1.513.21.824.201 1.851.7 2.465 1.022l.035.018v8.415l-.007-.004c-.61-.321-1.656-.832-2.493-1.037-.438-.107-.984-.17-1.49-.208-.83-.062-1.51-.733-1.51-1.566Zm6.5 2.816.007-.004c.61-.321 1.656-.832 2.493-1.037.438-.107.984-.17 1.49-.208.83-.062 1.51-.733 1.51-1.566V7.45c0-.806-.638-1.469-1.443-1.43-.616.031-1.317.1-1.857.25-.731.203-1.625.68-2.178 1a1.069 1.069 0 0 1-.022.012v8.443Z"/>
  </g>
</svg>
