<svg xmlns="http://www.w3.org/2000/svg" width="24" height="24" fill="none">
  <g stroke="#1C274C" stroke-linecap="round" stroke-width="1.5">
    <path d="M20.312 12.647c-.605 2.255-.907 3.383-1.592 4.114a4 4 0 0 1-2.01 1.161c-.097.023-.195.04-.295.052-.915.113-2.032-.186-4.064-.73-2.255-.605-3.383-.907-4.114-1.592a4 4 0 0 1-1.161-2.011c-.228-.976.074-2.103.679-4.358l.517-1.932.244-.905c.455-1.666.761-2.583 1.348-3.21a4 4 0 0 1 2.01-1.16c.976-.228 2.104.074 4.36.679 2.254.604 3.382.906 4.113 1.59a4 4 0 0 1 1.161 2.012c.161.69.057 1.456-.231 2.643"/>
    <path stroke-linejoin="round" d="M3.272 16.647c.604 2.255.907 3.383 1.592 4.114a4 4 0 0 0 2.01 1.161c.976.227 2.104-.075 4.36-.679 2.254-.604 3.382-.906 4.113-1.591a4 4 0 0 0 1.068-1.678M8.516 6.445c-.352.091-.739.195-1.165.31-2.255.604-3.383.906-4.114 1.59a4 4 0 0 0-1.161 2.012c-.161.69-.057 1.456.231 2.643"/>
  </g>
</svg>
