<svg xmlns="http://www.w3.org/2000/svg" width="24" height="24" fill="none">
  <g fill="#1C274C">
    <path d="M22 5a3 3 0 1 1-6 0 3 3 0 0 1 6 0Z"/>
    <path fill-rule="evenodd" d="M6.25 14a.75.75 0 0 1 .75-.75h9a.75.75 0 0 1 0 1.5H7a.75.75 0 0 1-.75-.75Z" clip-rule="evenodd"/>
    <path fill-rule="evenodd" d="M3.464 20.535C4.93 22 7.286 22 12 22c4.714 0 7.071 0 8.535-1.465C22 19.072 22 16.714 22 12c0-1.399 0-2.59-.038-3.612a4.5 4.5 0 0 1-6.35-6.35C14.59 2 13.399 2 12 2 7.286 2 4.929 2 3.464 3.464 2 4.93 2 7.286 2 12c0 4.714 0 7.071 1.464 8.535ZM6.25 17.5a.75.75 0 0 1 .75-.75h6a.75.75 0 0 1 0 1.5H7a.75.75 0 0 1-.75-.75Z" clip-rule="evenodd"/>
  </g>
</svg>
