<svg xmlns="http://www.w3.org/2000/svg" width="24" height="24" fill="none">
  <g fill="#1C274C">
    <path d="M7 13.25a.75.75 0 0 0 0 1.5h4a.75.75 0 0 0 0-1.5H7Zm0 3.5a.75.75 0 0 0 0 1.5h6a.75.75 0 0 0 0-1.5H7Z"/>
    <path fill-rule="evenodd" d="M17.5 11c-2.121 0-3.182 0-3.841-.659C13 9.682 13 8.621 13 6.5c0-2.121 0-3.182.659-3.841C14.318 2 15.379 2 17.5 2c2.121 0 3.182 0 3.841.659C22 3.318 22 4.379 22 6.5c0 2.121 0 3.182-.659 3.841-.659.659-1.72.659-3.841.659Zm-2.53-7.03a.75.75 0 0 1 1.06 0l1.47 1.47 1.47-1.47a.75.75 0 1 1 1.06 1.06L18.56 6.5l1.47 1.47a.75.75 0 0 1-1.06 1.06L17.5 7.56l-1.47 1.47a.75.75 0 1 1-1.06-1.06l1.47-1.47-1.47-1.47a.75.75 0 0 1 0-1.06Z" clip-rule="evenodd"/>
    <path d="M20.535 20.535C22 19.072 22 16.714 22 12c0-1.358 0-2.52-.035-3.522-.058.884-.213 1.452-.624 1.863-.659.659-1.72.659-3.841.659-2.121 0-3.182 0-3.841-.659C13 9.682 13 8.621 13 6.5c0-2.121 0-3.182.659-3.841.411-.411.979-.566 1.863-.624C14.52 2 13.358 2 12 2 7.286 2 4.929 2 3.464 3.464 2 4.93 2 7.286 2 12c0 4.714 0 7.071 1.464 8.535C4.93 22 7.286 22 12 22c4.714 0 7.071 0 8.535-1.465Z" opacity=".5"/>
  </g>
</svg>
