<svg xmlns="http://www.w3.org/2000/svg" width="24" height="24" fill="none">
  <path fill="#1C274C" fill-rule="evenodd" d="M9.944 1.25H10a.75.75 0 0 1 0 1.5c-1.907 0-3.261.002-4.29.14-1.005.135-1.585.389-2.008.812-.423.423-.677 1.003-.812 2.009-.138 1.028-.14 2.382-.14 4.289a.75.75 0 0 1-1.5 0v-.056c0-1.838 0-3.294.153-4.433.158-1.172.49-2.121 1.238-2.87.749-.748 1.698-1.08 2.87-1.238 1.14-.153 2.595-.153 4.433-.153Zm8.345 1.64c-1.027-.138-2.382-.14-4.289-.14a.75.75 0 0 1 0-1.5h.056c1.838 0 3.294 0 4.433.153 1.172.158 2.121.49 2.87 1.238.748.749 1.08 1.698 1.238 2.87.153 1.14.153 2.595.153 4.433V10a.75.75 0 0 1-1.5 0c0-1.907-.002-3.261-.14-4.29-.135-1.005-.389-1.585-.812-2.008-.423-.423-1.003-.677-2.009-.812ZM9.948 4.75h4.104c.899 0 1.648 0 2.242.08.628.084 1.195.27 1.65.725.456.456.642 1.023.726 1.65.08.595.08 1.345.08 2.243v.506a9.58 9.58 0 0 1 1.173.59 5.991 5.991 0 0 1 .54.365l.01.01.004.002.002.002L20 11.5l.48-.576a.75.75 0 0 1-.957 1.155l-.01-.008a4.493 4.493 0 0 0-.361-.24 8.524 8.524 0 0 0-1.321-.631c-1.214-.467-3.123-.95-5.831-.95s-4.617.483-5.83.95a8.527 8.527 0 0 0-1.322.63 4.508 4.508 0 0 0-.36.24l-.011.009a.75.75 0 0 1-.957-1.155L4 11.5l-.48-.576.001-.001.002-.002.004-.003.01-.008a2.888 2.888 0 0 1 .141-.106c.092-.066.225-.155.399-.26a9.52 9.52 0 0 1 1.173-.59v-.506c0-.898 0-1.648.08-2.242.084-.628.27-1.195.725-1.65.456-.456 1.023-.642 1.65-.726.595-.08 1.345-.08 2.243-.08ZM6.75 9.426C8.065 9.05 9.801 8.75 12 8.75s3.935.299 5.25.676c0-.923-.003-1.55-.067-2.02-.062-.462-.169-.66-.3-.79-.13-.13-.327-.237-.788-.3-.483-.064-1.131-.066-2.095-.066h-4c-.964 0-1.612.002-2.095.067-.461.062-.659.169-.789.3-.13.13-.237.327-.3.788-.063.471-.066 1.098-.066 2.021ZM2 13.25a.75.75 0 0 1 .75.75c0 1.907.002 3.262.14 4.29.135 1.005.389 1.585.812 2.008.423.423 1.003.677 2.009.812 1.028.138 2.382.14 4.289.14a.75.75 0 0 1 0 1.5h-.056c-1.838 0-3.294 0-4.433-.153-1.172-.158-2.121-.49-2.87-1.238-.748-.749-1.08-1.698-1.238-2.87-.153-1.14-.153-2.595-.153-4.433V14a.75.75 0 0 1 .75-.75Zm4 0a.75.75 0 0 1 .75.75v.5c0 .964.002 1.612.067 2.095.062.461.169.659.3.789.13.13.327.237.788.3.483.064 1.131.066 2.095.066h4c.964 0 1.612-.002 2.095-.067.461-.062.659-.169.789-.3.13-.13.237-.327.3-.788.064-.483.066-1.131.066-2.095V14a.75.75 0 0 1 1.5 0v.552c0 .899 0 1.648-.08 2.242-.084.628-.27 1.195-.726 1.65-.455.456-1.022.642-1.65.726-.594.08-1.344.08-2.242.08H9.948c-.898 0-1.648 0-2.242-.08-.628-.084-1.195-.27-1.65-.726-.456-.455-.642-1.022-.726-1.65-.08-.594-.08-1.344-.08-2.242V14a.75.75 0 0 1 .75-.75Zm16 0a.75.75 0 0 1 .75.75v.056c0 1.838 0 3.294-.153 4.433-.158 1.172-.49 2.121-1.238 2.87-.749.748-1.698 1.08-2.87 1.238-1.14.153-2.595.153-4.433.153H14a.75.75 0 0 1 0-1.5c1.907 0 3.262-.002 4.29-.14 1.005-.135 1.585-.389 2.008-.812.423-.423.677-1.003.812-2.009.138-1.027.14-2.382.14-4.289a.75.75 0 0 1 .75-.75Z" clip-rule="evenodd"/>
</svg>
