<svg xmlns="http://www.w3.org/2000/svg" width="24" height="24" fill="none">
  <g stroke="#1C274C" stroke-width="1.5">
    <path stroke-linecap="round" d="M10.334 4.78C9.914 3.151 8.668 1.977 7.214 2c-1.773.027-3.182 1.817-3.148 4l-.032 3.34c-.007.757-.01 1.135-.144 1.47-.134.337-.43.659-1.02 1.301-.58.63-.87 1.098-.87 1.634 0 .818.673 1.476 2.019 2.792l3.569 3.49C8.933 21.341 9.606 22 10.443 22c.836 0 1.509-.658 2.855-1.974l6.78-6.63a6.314 6.314 0 0 0 0-9.072c-2.562-2.505-6.716-2.505-9.278 0l-.466.455Zm0 0-.962.94"/>
    <path d="M13.297 20.026 4.02 10.954"/>
  </g>
</svg>
