<svg xmlns="http://www.w3.org/2000/svg" width="24" height="24" fill="none">
  <g fill="#1C274C">
    <path d="M6 4.5c0-.935 0-1.402.201-1.75a1.5 1.5 0 0 1 .549-.549C7.098 2 7.565 2 8.5 2h7c.935 0 1.402 0 1.75.201a1.5 1.5 0 0 1 .549.549C18 3.098 18 3.565 18 4.5s0 1.402-.201 1.75a1.5 1.5 0 0 1-.549.549C16.902 7 16.435 7 15.5 7h-7c-.935 0-1.402 0-1.75-.201a1.5 1.5 0 0 1-.549-.549C6 5.902 6 5.435 6 4.5ZM10 16v4c0 .943 0 1.414.293 1.707.293.293.764.293 1.707.293.943 0 1.414 0 1.707-.293C14 21.414 14 20.943 14 20v-4c0-.943 0-1.414-.293-1.707C13.414 14 12.943 14 12 14c-.943 0-1.414 0-1.707.293C10 14.586 10 15.057 10 16Z"/>
    <path d="M19.045 5.25c.455 0 .76 0 .996.016.23.015.343.042.417.07.323.128.578.383.705.706.03.074.056.187.071.417.016.236.016.541.016.996 0 .837-.01 1.067-.071 1.239a1.25 1.25 0 0 1-.592.687c-.161.086-.387.13-1.215.255l-4.123.618c-.773.116-1.421.213-1.934.358-.543.152-1.024.38-1.399.816-.58.674-.644 1.55-.661 2.56v.02C11.465 14 11.71 14 12 14c.295 0 .543 0 .755.009.018-1.063.117-1.392.298-1.602.11-.127.277-.242.668-.351.411-.116.965-.2 1.797-.325l4.196-.63c.65-.097 1.158-.172 1.577-.395a2.75 2.75 0 0 0 1.302-1.513c.158-.447.158-.96.157-1.617V7.43c0-.424 0-.779-.019-1.07a2.825 2.825 0 0 0-.172-.868 2.75 2.75 0 0 0-1.551-1.552 2.826 2.826 0 0 0-.869-.172 17.724 17.724 0 0 0-1.07-.019H18v1.5h1.045Z" opacity=".5"/>
    <path fill-rule="evenodd" d="M4.75 4.5a.75.75 0 0 1 .75-.75H6v1.5h-.5a.75.75 0 0 1-.75-.75Z" clip-rule="evenodd" opacity=".5"/>
  </g>
</svg>
