<svg xmlns="http://www.w3.org/2000/svg" width="24" height="24" fill="none">
  <g fill="#1C274C">
    <path d="M6 4.5c0-.935 0-1.402.201-1.75a1.5 1.5 0 0 1 .549-.549C7.098 2 7.565 2 8.5 2h7c.935 0 1.402 0 1.75.201a1.5 1.5 0 0 1 .549.549C18 3.098 18 3.565 18 4.5s0 1.402-.201 1.75a1.5 1.5 0 0 1-.549.549C16.902 7 16.435 7 15.5 7h-7c-.935 0-1.402 0-1.75-.201a1.5 1.5 0 0 1-.549-.549C6 5.902 6 5.435 6 4.5Zm-.998-.56a.748.748 0 0 0 0 1.121C5 4.896 5 4.722 5 4.541V4.46c0-.182 0-.356.002-.52ZM10 16v4c0 .943 0 1.414.293 1.707.293.293.764.293 1.707.293.943 0 1.414 0 1.707-.293C14 21.414 14 20.943 14 20v-4c0-.943 0-1.414-.293-1.707C13.414 14 12.943 14 12 14c-.943 0-1.414 0-1.707.293C10 14.586 10 15.057 10 16Z"/>
    <path d="M18.994 5.25h.051c.455 0 .76 0 .997.016.23.015.342.042.416.07.323.128.578.383.706.706.029.074.056.187.07.417.016.236.016.541.016.996 0 .837-.01 1.067-.071 1.239a1.25 1.25 0 0 1-.592.687c-.161.086-.387.13-1.215.255l-4.123.618c-.773.116-1.421.213-1.934.358-.543.152-1.023.38-1.398.816-.384.445-.542.977-.61 1.578.204-.006.42-.006.639-.006h.109c.265 0 .525 0 .766.011.05-.32.127-.482.232-.604.11-.127.278-.242.668-.351.411-.116.966-.2 1.797-.325l4.196-.63c.65-.097 1.158-.172 1.577-.395a2.75 2.75 0 0 0 1.302-1.513c.158-.447.158-.96.157-1.617V7.43c0-.424 0-.779-.019-1.07a2.827 2.827 0 0 0-.172-.868 2.75 2.75 0 0 0-1.551-1.552 2.827 2.827 0 0 0-.869-.172 17.726 17.726 0 0 0-1.07-.019h-.075c.006.219.006.457.006.71v.08c0 .253 0 .491-.006.71Z"/>
  </g>
</svg>
