<svg xmlns="http://www.w3.org/2000/svg" width="24" height="24" fill="none">
  <path fill="#1C274C" fill-rule="evenodd" d="M5.969 1.25h.062c.674 0 1.225 0 1.672.037.463.037.882.118 1.272.317a3.25 3.25 0 0 1 1.42 1.42c.2.391.28.81.318 1.273.037.447.037.998.037 1.672v.463l2.056-2.056c.476-.476.865-.865 1.207-1.156.355-.3.708-.54 1.125-.675a3.25 3.25 0 0 1 2.008 0c.418.136.77.374 1.125.675.342.29.732.68 1.208 1.156l.044.045c.476.476.866.865 1.156 1.208.301.354.54.707.675 1.124a3.25 3.25 0 0 1 0 2.009c-.135.417-.374.77-.675 1.124-.29.342-.68.732-1.156 1.208l-2.156 2.156h.664c.674 0 1.225 0 1.672.037.463.037.882.118 1.273.317a3.25 3.25 0 0 1 1.42 1.42c.199.391.28.81.317 1.273.037.447.037.998.037 1.672v.062c0 .674 0 1.225-.037 1.672-.037.463-.118.882-.317 1.273a3.25 3.25 0 0 1-1.42 1.42c-.391.199-.81.28-1.273.317-.447.037-.998.037-1.672.037H5.97c-.674 0-1.225 0-1.672-.037-.463-.037-.882-.118-1.272-.317a3.25 3.25 0 0 1-1.42-1.42c-.2-.391-.28-.81-.318-1.273-.037-.447-.037-.998-.037-1.672V5.97c0-.674 0-1.224.037-1.672.037-.463.118-.882.317-1.272a3.25 3.25 0 0 1 1.42-1.42c.391-.2.81-.28 1.273-.318.448-.037.998-.037 1.672-.037Zm4.27 20H18c.712 0 1.202 0 1.58-.032.371-.03.57-.085.715-.159a1.75 1.75 0 0 0 .764-.765c.074-.144.13-.343.16-.713.03-.38.031-.869.031-1.581s0-1.202-.032-1.58c-.03-.371-.085-.57-.159-.715a1.75 1.75 0 0 0-.765-.764c-.144-.074-.343-.13-.713-.16-.38-.03-.869-.031-1.581-.031h-2.133l-5.176 5.176a3.065 3.065 0 0 1-.295 1.05 3.27 3.27 0 0 1-.157.274Zm.511-3.504 7.69-7.69c.504-.504.85-.85 1.096-1.14.24-.284.342-.464.392-.618a1.75 1.75 0 0 0 0-1.081c-.05-.154-.152-.334-.392-.617-.247-.29-.592-.637-1.096-1.14-.504-.504-.85-.85-1.14-1.096-.283-.24-.463-.342-.617-.392a1.75 1.75 0 0 0-1.082 0c-.153.05-.333.151-.617.392-.29.246-.636.592-1.14 1.095l-2.142 2.142c-.621.622-.775.794-.857.992-.081.196-.095.426-.095 1.294v7.859Zm-1.5.295c0 .69-.001 1.168-.032 1.54-.03.37-.085.57-.159.713a1.75 1.75 0 0 1-.765.765c-.144.074-.343.13-.713.16-.38.03-.869.031-1.581.031s-1.202 0-1.58-.032c-.371-.03-.57-.085-.714-.159a1.75 1.75 0 0 1-.765-.765c-.074-.144-.13-.343-.16-.713-.03-.38-.031-.869-.031-1.581V6c0-.712 0-1.202.032-1.58.03-.371.085-.57.159-.714a1.75 1.75 0 0 1 .765-.765c.144-.074.343-.13.713-.16.38-.03.869-.031 1.581-.031s1.202 0 1.58.032c.371.03.57.085.714.159.33.168.597.435.765.765.074.144.13.343.16.713.03.38.031.869.031 1.581v12.041Zm-5 .959a.75.75 0 0 1 .75-.75h2a.75.75 0 0 1 0 1.5H5a.75.75 0 0 1-.75-.75Z" clip-rule="evenodd"/>
</svg>
