<svg xmlns="http://www.w3.org/2000/svg" width="24" height="24" fill="none">
  <path fill="#1C274C" fill-rule="evenodd" d="M17.797 3.357a2.338 2.338 0 0 1 2.387-.291c.71.311 1.328.683 1.779 1.124.453.442.787 1.005.787 1.67v12.716c0 .793-.47 1.436-1.064 1.916-.6.486-1.422.89-2.372 1.215-1.907.653-4.493 1.043-7.314 1.043-2.821 0-5.407-.39-7.314-1.043-.95-.325-1.772-.73-2.372-1.215-.594-.48-1.064-1.123-1.064-1.916V5.86c0-.665.334-1.228.787-1.67.451-.44 1.069-.813 1.78-1.124a2.338 2.338 0 0 1 2.386.29A2.694 2.694 0 0 1 7.25 5.503V8.11c1.394.268 3.015.424 4.75.424 1.735 0 3.356-.156 4.75-.424V5.502c0-.877.413-1.663 1.047-2.145Zm.453 4.396c.884-.256 1.601-.558 2.12-.881.723-.45.88-.816.88-1.012 0-.13-.061-.33-.335-.597-.276-.27-.717-.553-1.333-.823a.84.84 0 0 0-.877.11 1.198 1.198 0 0 0-.455.952v2.251Zm3 .337a5.844 5.844 0 0 1-.087.055c-.884.55-2.098.99-3.498 1.306-1.639.37-3.585.583-5.665.583S7.974 9.82 6.335 9.45c-1.4-.316-2.614-.756-3.498-1.306a5.843 5.843 0 0 1-.087-.055v9.753l3.043-2.848 1.372-1.149a2.59 2.59 0 0 1 3.432.111l3.32 3.177a.851.851 0 0 0 1.049.084l.23-.155a3.155 3.155 0 0 1 3.798.22l2.043 1.76c.17-.202.213-.36.213-.467V8.09Zm-1.495 11.828-1.74-1.498a1.655 1.655 0 0 0-1.981-.112l-.231.155a2.351 2.351 0 0 1-2.922-.245L9.56 15.04a1.09 1.09 0 0 0-1.432-.044l-1.34 1.121-3.475 3.252c.413.319 1.037.636 1.859.918 1.712.586 4.126.962 6.828.962 2.701 0 5.116-.376 6.828-.962.344-.118.654-.242.927-.37ZM2.75 5.86c0 .196.157.562.88 1.012.519.323 1.236.625 2.12.881v-2.25c0-.406-.191-.751-.455-.952a.84.84 0 0 0-.877-.111c-.616.27-1.057.554-1.333.823-.274.267-.335.467-.335.597ZM18 12.25a.75.75 0 1 0 0 1.5.75.75 0 0 0 0-1.5Zm-2.25.75a2.25 2.25 0 1 1 4.5 0 2.25 2.25 0 0 1-4.5 0Z" clip-rule="evenodd"/>
</svg>
