<svg xmlns="http://www.w3.org/2000/svg" width="24" height="24" fill="none">
  <g stroke="#1C274C" stroke-width="1.5">
    <path stroke-linecap="round" d="M22 5.86c0-.795-.79-1.526-2.117-2.107-1.175-.515-2.383.467-2.383 1.749v3.217M22 5.86c0 1.196-1.789 2.248-4.5 2.86M22 5.86V9M2 5.86c0-.794.79-1.525 2.117-2.106C5.292 3.238 6.5 4.22 6.5 5.502v3.217M2 5.86v12.717C2 20.467 6.477 22 12 22s10-1.533 10-3.424V13M2 5.86c0 1.195 1.789 2.247 4.5 2.86m0 0c1.578.356 3.468.563 5.5.563s3.922-.207 5.5-.564"/>
    <path d="M19.5 13a1.5 1.5 0 1 1-3 0 1.5 1.5 0 0 1 3 0Z"/>
    <path stroke-linecap="round" d="m21 20-2.496-2.149a2.405 2.405 0 0 0-2.889-.166l-.23.155a1.601 1.601 0 0 1-1.986-.164l-3.32-3.177a1.84 1.84 0 0 0-2.433-.078L6.29 15.557 2.5 19.102"/>
  </g>
</svg>
