<svg xmlns="http://www.w3.org/2000/svg" width="24" height="24" fill="none">
  <path stroke="#1C274C" stroke-linecap="round" stroke-width="1.5" d="m8.107 17.417 7.38-7.066c.448-.429.672-.643.789-.876.21-.417.21-.903 0-1.32-.117-.233-.341-.447-.79-.876M3.509 10.146l5.99-5.735c1.044-1 1.566-1.5 2.109-1.8a4.948 4.948 0 0 1 4.765 0c.543.3 1.065.8 2.11 1.8"/>
  <path fill="#1C274C" d="m18.482 13.014-.52-.541.52.541Zm-7.434 7.118-.518-.542.518.542Zm-6.096-5.838-.519-.541.519.541Zm7.326-7.014-.519-.542.52.542Zm2.293-.756-.313.681.314-.681Zm-1.378 0-.314-.681.314.68ZM4.952 20.132l-.519.541.519-.541Zm-1.84-2.19.715-.224-.715.224Zm0-1.458-.716-.224.716.224Zm5.65 5.41.206.72-.207-.72Zm-1.523 0 .207-.721-.207.72ZM19 3.87a.75.75 0 1 0-1.037 1.084L19 3.87Zm1.362 2.562.642-.387-.642.387Zm0 4.562.642.388-.642-.388Zm-2.4 1.479L10.53 19.59l1.037 1.084L19 13.556l-1.037-1.083ZM5.47 14.836l7.327-7.015-1.038-1.083-7.326 7.015 1.037 1.083Zm10.536-8.098c-.405-.387-.735-.717-1.12-.895l-.628 1.362c.1.046.218.145.71.616l1.038-1.083Zm-3.21 1.083c.493-.47.61-.57.711-.616l-.628-1.362c-.385.178-.715.508-1.12.895l1.038 1.083Zm2.09-1.978a2.402 2.402 0 0 0-2.007 0l.628 1.362a.902.902 0 0 1 .75 0l.629-1.362ZM5.47 19.59c-.558-.535-.943-.904-1.215-1.214-.267-.303-.376-.495-.428-.658l-1.43.448c.14.449.401.826.732 1.201.324.37.764.79 1.304 1.306L5.47 19.59Zm-1.037-5.837c-.54.517-.98.937-1.304 1.306-.33.376-.592.752-.733 1.2l1.431.45c.052-.163.16-.356.428-.66.272-.309.657-.678 1.215-1.213l-1.037-1.083Zm-.606 3.965a1.681 1.681 0 0 1 0-1.01l-1.43-.448a3.181 3.181 0 0 0 0 1.906l1.43-.448Zm6.703 1.872c-.56.535-.945.903-1.269 1.165-.316.254-.523.365-.707.418l.414 1.441c.455-.13.842-.375 1.235-.692.385-.31.824-.731 1.364-1.248L10.53 19.59Zm-6.097 1.084c.54.517.979.937 1.364 1.248.393.317.78.562 1.234.692l.415-1.441c-.184-.053-.391-.164-.707-.418-.324-.262-.71-.63-1.269-1.165l-1.037 1.084Zm4.121.499a2.008 2.008 0 0 1-1.108 0l-.415 1.441a3.509 3.509 0 0 0 1.937 0l-.414-1.441Zm9.409-16.22c1.08 1.035 1.507 1.453 1.756 1.867l1.285-.775c-.378-.627-.995-1.209-2.004-2.175l-1.037 1.084ZM19 13.557c1.009-.966 1.626-1.547 2.004-2.174l-1.285-.775c-.249.413-.676.832-1.756 1.866L19 13.556Zm.72-6.736a3.645 3.645 0 0 1 0 3.787l1.284.775a5.144 5.144 0 0 0 0-5.337l-1.285.775Z" opacity=".5"/>
</svg>
