<svg xmlns="http://www.w3.org/2000/svg" width="24" height="24" fill="none">
  <g stroke="#1C274C" stroke-width="1.5">
    <path d="M3.034 8.89c-.48-3.204-.721-4.805.176-5.848C4.108 2 5.728 2 8.967 2h6.066c3.24 0 4.86 0 5.757 1.042.897 1.043.657 2.644.177 5.848l-1.2 8c-.366 2.438-.549 3.656-1.393 4.383-.844.727-2.076.727-4.541.727h-3.666c-2.465 0-3.697 0-4.541-.727-.844-.727-1.027-1.945-1.392-4.383l-1.2-8Z"/>
    <path stroke-linejoin="round" d="m8 6-4.5 5 7.5 8m3-13L4 16M20 6 7 19m6 0 7.5-8L16 6m-6 0 10 10M4 6l13 13"/>
    <path stroke-linecap="round" d="M21 6H3m16 13H5"/>
  </g>
</svg>
