<svg xmlns="http://www.w3.org/2000/svg" width="24" height="24" fill="none">
  <path fill="#1C274C" fill-rule="evenodd" d="M10.731 1.928a6.117 6.117 0 0 1 5.598 0c.87.447 1.66 1.245 2.972 2.569l.117.118.116.116c1.313 1.325 2.103 2.122 2.546 2.999a6.252 6.252 0 0 1 0 5.632c-.443.877-1.233 1.674-2.546 2.999l-.116.116-3.714 3.748c-.315.318-.525.53-.733.691a3.973 3.973 0 0 1-4.87 0c-.209-.161-.419-.373-.734-.69l-.084-.085c-.315-.318-.525-.53-.685-.74a4.048 4.048 0 0 1 0-4.896c.16-.21.37-.421.685-.74l.042-.042 2.83-2.856a.75.75 0 0 1 1.066 1.056l-2.83 2.856c-.373.376-.506.513-.599.634a2.548 2.548 0 0 0 0 3.08c.093.121.226.259.599.634.372.375.508.51.628.603a2.473 2.473 0 0 0 3.033 0c.12-.093.256-.228.629-.603l3.672-3.705c1.464-1.478 2.066-2.098 2.388-2.736a4.752 4.752 0 0 0 0-4.28c-.322-.638-.924-1.258-2.388-2.735-1.466-1.479-2.08-2.085-2.71-2.41a4.617 4.617 0 0 0-4.226 0c-.63.325-1.244.931-2.71 2.41l-3.73 3.763c-.822.83-1.162 1.177-1.388 1.505a4.749 4.749 0 0 0 0 5.39c.226.328.566.675 1.389 1.505a.75.75 0 1 1-1.066 1.056l-.065-.066c-.737-.744-1.18-1.191-1.493-1.643a6.249 6.249 0 0 1 0-7.095c.313-.451.756-.898 1.493-1.643l.065-.065 3.73-3.763.117-.118C9.07 3.173 9.86 2.375 10.73 1.927Z" clip-rule="evenodd"/>
</svg>
