<svg xmlns="http://www.w3.org/2000/svg" width="24" height="24" fill="none">
  <path fill="#1C274C" d="M9 12a1 1 0 1 1-2 0 1 1 0 0 1 2 0Zm4 0a1 1 0 1 1-2 0 1 1 0 0 1 2 0Z"/>
  <path stroke="#1C274C" stroke-linecap="round" stroke-width="1.5" d="M15 2v20m7-10c0 3.771 0 5.657-1.172 6.828C19.765 19.892 18.114 19.99 15 20M12 4h-2C6.229 4 4.343 4 3.172 5.172 2 6.343 2 8.229 2 12c0 3.771 0 5.657 1.172 6.828C4.343 20 6.229 20 10 20h2m3-16c3.114.01 4.765.108 5.828 1.172.654.653.943 1.528 1.07 2.828"/>
</svg>
