<svg xmlns="http://www.w3.org/2000/svg" width="24" height="24" fill="none">
  <g fill="#1C274C">
    <path d="M12.75 10a.75.75 0 0 0-1.5 0v.701l-.607-.35a.75.75 0 0 0-.75 1.298l.607.35-.607.351a.75.75 0 1 0 .75 1.3l.607-.351V14a.75.75 0 0 0 1.5 0v-.7l.607.35a.75.75 0 0 0 .75-1.3L13.5 12l.607-.35a.75.75 0 0 0-.75-1.3l-.607.35V10Zm-6.017-.75a.75.75 0 0 1 .75.75v.7l.606-.35a.75.75 0 0 1 .75 1.3l-.607.35.607.35a.75.75 0 1 1-.75 1.3l-.606-.35v.7a.75.75 0 0 1-1.5 0v-.701l-.608.35a.75.75 0 0 1-.75-1.298L5.232 12l-.607-.35a.75.75 0 1 1 .75-1.3l.608.351V10a.75.75 0 0 1 .75-.75Zm11.285.75a.75.75 0 0 0-1.5 0v.701l-.607-.35a.75.75 0 0 0-.75 1.298l.607.35-.608.351a.75.75 0 0 0 .75 1.3l.608-.351V14a.75.75 0 0 0 1.5 0v-.7l.607.35a.75.75 0 0 0 .75-1.3l-.607-.35.607-.35a.75.75 0 0 0-.75-1.3l-.607.35V10Z"/>
    <path fill-rule="evenodd" d="M9.944 3.25c-1.838 0-3.294 0-4.433.153-1.172.158-2.121.49-2.87 1.238-.748.749-1.08 1.698-1.238 2.87-.153 1.14-.153 2.595-.153 4.433v.112c0 1.838 0 3.294.153 4.433.158 1.172.49 2.121 1.238 2.87.749.748 1.698 1.08 2.87 1.238 1.14.153 2.595.153 4.433.153h4.112c1.838 0 3.294 0 4.433-.153 1.172-.158 2.121-.49 2.87-1.238.748-.749 1.08-1.698 1.238-2.87.153-1.14.153-2.595.153-4.433v-.112c0-1.838 0-3.294-.153-4.433-.158-1.172-.49-2.121-1.238-2.87-.749-.748-1.698-1.08-2.87-1.238-1.14-.153-2.595-.153-4.433-.153H9.944ZM3.702 5.702c.423-.423 1.003-.677 2.009-.812 1.028-.138 2.382-.14 4.289-.14h4c1.907 0 3.262.002 4.29.14 1.005.135 1.585.389 2.008.812.423.423.677 1.003.812 2.009.138 1.028.14 2.382.14 4.289 0 1.907-.002 3.261-.14 4.29-.135 1.005-.389 1.585-.812 2.008-.423.423-1.003.677-2.009.812-1.027.138-2.382.14-4.289.14h-4c-1.907 0-3.261-.002-4.29-.14-1.005-.135-1.585-.389-2.008-.812-.423-.423-.677-1.003-.812-2.009-.138-1.028-.14-2.382-.14-4.289 0-1.907.002-3.261.14-4.29.135-1.005.389-1.585.812-2.008Z" clip-rule="evenodd"/>
  </g>
</svg>
