<svg xmlns="http://www.w3.org/2000/svg" width="24" height="24" fill="none">
  <g fill="#1C274C">
    <path d="M22 12c0 5.523-4.477 10-10 10S2 17.523 2 12 6.477 2 12 2s10 4.477 10 10Z" opacity=".5"/>
    <path d="M8.076 8.617C8 8.801 8 9.034 8 9.5v5c0 .466 0 .699.076.883a1 1 0 0 0 .541.54c.184.077.417.077.883.077s.699 0 .883-.076a1 1 0 0 0 .54-.541c.077-.184.077-.417.077-.883v-5c0-.466 0-.699-.076-.883a1 1 0 0 0-.541-.54C10.199 8 9.966 8 9.5 8s-.699 0-.883.076a1 1 0 0 0-.54.541Zm5 0C13 8.801 13 9.034 13 9.5v5c0 .466 0 .699.076.883a1 1 0 0 0 .541.54c.184.077.417.077.883.077s.699 0 .883-.076a1 1 0 0 0 .54-.541c.077-.184.077-.417.077-.883v-5c0-.466 0-.699-.076-.883a1 1 0 0 0-.541-.54C15.199 8 14.966 8 14.5 8s-.699 0-.883.076a1 1 0 0 0-.54.541Z"/>
  </g>
</svg>
