<svg xmlns="http://www.w3.org/2000/svg" width="24" height="24" fill="none">
  <path stroke="#1C274C" stroke-linecap="round" stroke-width="1.5" d="M4 22h4m12 0h-8m1.888-18.337.742-.742a3.146 3.146 0 1 1 4.449 4.45l-.742.74m-4.449-4.448s.093 1.576 1.483 2.966c1.39 1.39 2.966 1.483 2.966 1.483m-4.449-4.45L7.071 10.48c-.462.462-.693.692-.891.947a5.24 5.24 0 0 0-.599.969c-.139.291-.242.601-.449 1.22l-.875 2.626m14.08-8.13L14.93 11.52m-3.41 3.41c-.462.462-.692.692-.947.891-.3.234-.625.435-.969.599-.291.139-.601.242-1.22.448l-2.626.876m0 0-.641.213a.848.848 0 0 1-1.073-1.073l.213-.641m1.501 1.5-1.5-1.5"/>
</svg>
