<svg xmlns="http://www.w3.org/2000/svg" width="24" height="24" fill="none">
  <path fill="#1C274C" fill-rule="evenodd" d="M9.95 1.25h.1c.664 0 1.237 0 1.696.062.492.066.963.215 1.345.597s.531.854.597 1.345c.04.289.054.623.059.996h.573a5.75 5.75 0 0 1 2.571.607l.118.06c.944-1.02 2.614-1.04 3.866-.317 1.412.815 2.273 2.564 1.44 4.007-.834 1.443-2.778 1.571-4.19.756-1.12-.647-1.895-1.882-1.749-3.086l-.156-.078a4.25 4.25 0 0 0-1.9-.449h-.57V7l-.001.044c2.777 1.243 4.768 3.826 4.982 6.9.02.084.024.172.014.26.003.096.005.193.005.291 0 2.121-.85 4.05-2.234 5.504l-.018.018a5.143 5.143 0 0 1-.707.652c-.294.216-.644.402-1.142.616-1.085.465-1.874.465-3.132.465H8.483c-1.258 0-2.047 0-3.132-.465-.498-.214-.848-.4-1.142-.616a5.146 5.146 0 0 1-.707-.652L3.484 20C2.1 18.545 1.25 16.616 1.25 14.495c0-3.315 2.06-6.134 5.001-7.45A.759.759 0 0 1 6.25 7V5.5l.001-.04a.758.758 0 0 1-.001-.038V4.95c0-.665 0-1.238.062-1.697.066-.491.215-.963.597-1.345s.854-.531 1.345-.597c.459-.062 1.032-.062 1.697-.062Zm7.103 11.68c-.755-2.942-3.59-5.177-7.045-5.18h-.016c-3.26.003-5.968 1.992-6.897 4.688.286.126.576.266.865.407l.12.059c.362.177.727.355 1.11.524.849.376 1.752.694 2.755.807 1.259.142 2.216-.295 3.37-.822l.011-.005c1.134-.518 2.46-1.118 4.195-.83.529.088 1.054.208 1.532.352ZM2.774 13.94c.168.078.344.163.528.253l.121.06c.36.175.75.365 1.16.547.919.407 1.979.789 3.194.926 1.676.188 2.968-.403 4.063-.904l.109-.05c1.142-.52 2.087-.92 3.326-.715.775.13 1.477.326 1.974.529-.023 1.673-.702 3.204-1.82 4.379-.231.242-.356.371-.524.494-.166.122-.401.256-.847.447-.785.337-1.29.344-2.6.344H8.542c-1.31 0-1.815-.007-2.6-.344-.446-.19-.68-.325-.847-.447-.168-.123-.293-.252-.524-.494-1.138-1.196-1.821-2.761-1.821-4.47 0-.187.008-.372.024-.555Zm9.476-7.69h-4.5v-.533c.059-.01.119-.025.179-.043.202-.063.437-.188.608-.435.166-.238.213-.505.213-.739 0-.234-.047-.501-.213-.74a1.135 1.135 0 0 0-.609-.434 1.44 1.44 0 0 0-.104-.027c.043-.206.099-.283.146-.33.057-.056.159-.127.484-.17.347-.047.818-.049 1.546-.049.728 0 1.2.002 1.546.048.325.044.427.115.484.172.057.057.128.159.172.484.046.347.048.818.048 1.546v1.25Zm6.625 1.814c-.98-.565-1.162-1.487-.89-1.957.27-.47 1.16-.773 2.14-.208.98.566 1.162 1.488.89 1.958-.27.47-1.16.773-2.14.207Z" clip-rule="evenodd"/>
</svg>
