<svg xmlns="http://www.w3.org/2000/svg" width="24" height="24" fill="none">
  <g fill="#1C274C">
    <path d="M19.716 20.362C21.143 19.585 22 18.587 22 17.5c0-1.152-.963-2.204-2.546-3C17.623 13.58 14.962 13 12 13c-2.962 0-5.623.58-7.454 1.5C2.963 15.296 2 16.348 2 17.5s.963 2.204 2.546 3C6.377 21.42 9.038 22 12 22c3.107 0 5.882-.637 7.716-1.638Z" opacity=".6"/>
    <path fill-rule="evenodd" d="M9.25 4a2.75 2.75 0 1 1 5.5 0 2.75 2.75 0 0 1-5.5 0Z" clip-rule="evenodd"/>
    <path d="m8.223 11.574-2.175-.725a1.532 1.532 0 0 1 .805-2.952l1.898.407.21.044a15 15 0 0 0 6.288-.044l1.897-.407a1.532 1.532 0 0 1 .806 2.952l-2.175.725c-.263.088-.394.132-.493.193a1 1 0 0 0-.466.986c.016.115.066.244.165.503l1.247 3.242a1.473 1.473 0 0 1-2.654 1.26L12 15l-1.576 2.757a1.473 1.473 0 0 1-2.654-1.26l1.247-3.241c.1-.259.149-.388.165-.503a1 1 0 0 0-.466-.986c-.099-.061-.23-.105-.493-.193Z"/>
  </g>
</svg>
