<svg xmlns="http://www.w3.org/2000/svg" width="24" height="24" fill="none">
  <g fill="#1C274C">
    <path d="m15.556 14.548-.455.48s-1.083 1.139-4.038-1.972c-2.955-3.111-1.872-4.25-1.872-4.25l.287-.303c.706-.744.773-1.938.156-2.81L8.374 3.91C7.61 2.83 6.135 2.688 5.26 3.609L3.691 5.26c-.433.457-.723 1.048-.688 1.705.09 1.68.808 5.293 4.812 9.51 4.247 4.47 8.232 4.648 9.861 4.487.516-.05.964-.329 1.325-.709l1.42-1.496c.96-1.01.69-2.74-.538-3.446l-1.91-1.1c-.806-.463-1.787-.327-2.417.336ZM13.26 1.88a.751.751 0 0 1 .861-.62c.025.005.107.02.15.03.085.018.204.048.352.09.297.087.712.23 1.21.458.996.457 2.321 1.256 3.697 2.631 1.376 1.376 2.175 2.702 2.632 3.698.228.498.37.912.457 1.21a5.727 5.727 0 0 1 .113.454l.005.031a.765.765 0 0 1-.617.878.75.75 0 0 1-.86-.617 2.82 2.82 0 0 0-.081-.327 7.395 7.395 0 0 0-.38-1.004c-.39-.85-1.092-2.024-2.33-3.262-1.237-1.238-2.412-1.939-3.262-2.329a7.394 7.394 0 0 0-1.003-.38 5.749 5.749 0 0 0-.318-.08.759.759 0 0 1-.627-.861Z"/>
    <path fill-rule="evenodd" d="M13.486 5.33a.75.75 0 0 1 .927-.516l-.206.721.206-.72h.003l.003.001.008.002.02.006.056.02a5.028 5.028 0 0 1 .767.373c.489.29 1.157.77 1.942 1.556.785.785 1.266 1.453 1.556 1.942.145.245.241.444.303.59a2.969 2.969 0 0 1 .09.233l.005.02.003.008v.003l.001.001s0 .002-.72.208l.72-.206a.75.75 0 0 1-1.439.422l-.003-.01a3.67 3.67 0 0 0-.25-.504c-.224-.377-.627-.947-1.327-1.647-.7-.7-1.269-1.102-1.646-1.325a3.662 3.662 0 0 0-.504-.25l-.01-.004a.75.75 0 0 1-.505-.925Z" clip-rule="evenodd"/>
  </g>
</svg>
