<svg xmlns="http://www.w3.org/2000/svg" width="24" height="24" fill="none">
  <path fill="#1C274C" fill-rule="evenodd" d="M18.916 7.92 16.08 5.084c-.909-.908-1.65-1.65-2.298-2.13-.669-.498-1.384-.827-2.21-.66-.824.166-1.356.747-1.78 1.465-.41.694-.806 1.666-1.29 2.856L7.53 8.998c-.3.736-.388.924-.515 1.062-.05.055-.106.105-.166.15-.15.112-.346.181-1.108.406l-.047.013c-.797.235-1.46.43-1.957.643-.506.217-.99.514-1.254 1.044a2.22 2.22 0 0 0-.232.908c-.022.59.261 1.083.602 1.516.333.425.822.914 1.41 1.502l1.183 1.183-2.976 2.978a.75.75 0 0 0 1.06 1.061l2.977-2.979 1.251 1.252c.588.588 1.077 1.077 1.501 1.41.434.34.926.624 1.517.602a2.22 2.22 0 0 0 .908-.232c.53-.264.827-.748 1.044-1.254.213-.496.408-1.16.643-1.957l.013-.047c.224-.762.294-.958.406-1.108.045-.06.095-.116.15-.166.138-.127.326-.216 1.062-.516l2.383-.97c1.19-.485 2.162-.881 2.856-1.291.717-.424 1.3-.956 1.466-1.78.166-.826-.164-1.541-.66-2.21-.48-.648-1.223-1.39-2.131-2.298ZM11.87 3.763c.208-.042.483-.003 1.018.395.548.406 1.212 1.067 2.176 2.031l2.747 2.747c.963.964 1.625 1.628 2.031 2.175.398.536.437.81.394 1.02-.042.208-.184.446-.758.785-.587.347-1.455.703-2.717 1.217l-2.428.99c-.583.236-1.046.424-1.409.758a2.717 2.717 0 0 0-.334.37c-.296.395-.437.874-.614 1.478l-.03.107c-.253.856-.423 1.432-.596 1.835s-.288.48-.334.503a.726.726 0 0 1-.296.076c-.052.002-.19-.012-.534-.282-.345-.271-.77-.695-1.402-1.326l-3.426-3.426c-.63-.631-1.055-1.057-1.326-1.402-.27-.345-.284-.482-.282-.534a.725.725 0 0 1 .076-.296c.023-.046.1-.16.503-.334.403-.173.979-.344 1.835-.595l.107-.032c.604-.177 1.083-.317 1.478-.613.133-.1.257-.212.37-.335.334-.362.522-.825.759-1.408l.989-2.428c.514-1.263.87-2.13 1.216-2.717.34-.574.578-.716.787-.759Z" clip-rule="evenodd"/>
</svg>
