<svg xmlns="http://www.w3.org/2000/svg" width="24" height="24" fill="none">
  <path fill="#1C274C" fill-rule="evenodd" d="M12 22c5.523 0 10-4.477 10-10S17.523 2 12 2 2 6.477 2 12s4.477 10 10 10Zm4.558-12.57c.453.453.832.832 1.08 1.165.257.348.448.745.352 1.211-.096.466-.428.756-.803.973-.359.208-.857.407-1.452.643l-1.432.57c-.279.111-.359.145-.425.186a.974.974 0 0 0-.357.396c-.034.07-.06.153-.142.441l-.004.015c-.075.265-.138.486-.199.66-.06.174-.136.35-.258.499a1.483 1.483 0 0 1-1.688.439 1.612 1.612 0 0 1-.47-.31c-.137-.122-.3-.284-.494-.48l-.699-.698-1.699 1.699a.5.5 0 0 1-.707-.707l1.699-1.699-.699-.699a12.214 12.214 0 0 1-.479-.495 1.612 1.612 0 0 1-.31-.469 1.483 1.483 0 0 1 .44-1.688c.148-.122.324-.197.498-.258s.395-.124.66-.2l.015-.004c.288-.081.371-.107.441-.141.163-.08.3-.204.396-.357.04-.066.075-.146.186-.424l.57-1.433c.236-.595.435-1.093.643-1.452.217-.375.507-.707.973-.803.466-.096.863.095 1.21.353.334.247.713.626 1.166 1.08l1.988 1.987Z" clip-rule="evenodd"/>
</svg>
