<svg xmlns="http://www.w3.org/2000/svg" width="24" height="24" fill="none">
  <g fill="#1C274C" fill-rule="evenodd" clip-rule="evenodd">
    <path d="M14.736 7.255c-.443-.444-.834-.835-1.182-1.093-.37-.275-.841-.514-1.41-.397-.57.118-.908.524-1.14.922-.217.376-.421.89-.653 1.472l-.576 1.446c-.114.287-.139.342-.165.384a.724.724 0 0 1-.294.265c-.045.022-.102.042-.4.126l-.02.006c-.26.074-.488.138-.668.202a1.854 1.854 0 0 0-.575.301 1.733 1.733 0 0 0-.513 1.973c.086.22.227.398.355.543.127.144.294.31.485.502l.526.526-1.521 1.522a.75.75 0 0 0 1.06 1.06l1.522-1.521.526.526c.191.191.359.358.502.485.145.128.323.269.543.355.7.275 1.496.068 1.973-.512.15-.183.237-.393.301-.576.064-.18.128-.408.202-.668l.006-.02c.084-.298.104-.355.126-.4a.725.725 0 0 1 .265-.294c.042-.026.097-.051.384-.165l1.446-.576c.583-.232 1.097-.436 1.472-.654.398-.231.804-.569.922-1.138.117-.57-.122-1.04-.397-1.41-.258-.35-.65-.74-1.093-1.183l-2.009-2.01Zm-2.076.111a.857.857 0 0 0-.213-.127.855.855 0 0 0-.145.201c-.155.268-.32.675-.578 1.325l-.573 1.44a3.533 3.533 0 0 1-.27.58c-.22.35-.532.633-.903.815-.182.09-.38.146-.605.21l-.046.013c-.288.082-.47.134-.603.18a.992.992 0 0 0-.127.052.233.233 0 0 0-.065.249.99.99 0 0 0 .086.107c.093.105.227.24.438.45l2.083 2.083c.21.211.345.345.45.438.065.057.098.08.107.086.089.03.187.005.25-.065.005-.01.022-.045.051-.127.046-.132.098-.315.18-.602l.013-.047c.064-.224.12-.423.21-.605a2.23 2.23 0 0 1 .814-.903c.173-.108.365-.184.581-.27l1.44-.573c.65-.259 1.058-.423 1.325-.578a.859.859 0 0 0 .201-.145.855.855 0 0 0-.127-.213c-.185-.248-.494-.56-.989-1.055l-1.93-1.93c-.495-.495-.807-.804-1.055-.989Zm-.235-.131h.011-.01Zm4.34 4.34v-.011.01Zm.003-.03c.002-.008.005-.01.006-.01 0 0 0 .002-.006.01Zm-4.312-4.313.01-.006s-.003.003-.01.006Z"/>
    <path d="M12 1.25C6.063 1.25 1.25 6.063 1.25 12S6.063 22.75 12 22.75 22.75 17.937 22.75 12 17.937 1.25 12 1.25ZM2.75 12a9.25 9.25 0 1 1 18.5 0 9.25 9.25 0 0 1-18.5 0Z"/>
  </g>
</svg>
