<svg xmlns="http://www.w3.org/2000/svg" width="24" height="24" fill="none">
  <path stroke="#1C274C" stroke-linecap="round" stroke-width="1.5" d="M20 10.122c.763.865 1.106 1.493.972 2.157-.21 1.034-1.449 1.539-3.928 2.549l-2.325.947c-.684.279-1.026.418-1.287.658a1.98 1.98 0 0 0-.242.268c-.213.284-.317.638-.525 1.346-.493 1.675-.739 2.512-1.315 2.799a1.472 1.472 0 0 1-.602.153c-.643.024-1.26-.593-2.494-1.827l-3.426-3.426C3.594 14.512 2.977 13.895 3 13.252c.008-.21.06-.415.153-.602.287-.576 1.124-.822 2.799-1.315.708-.208 1.062-.312 1.346-.525.097-.072.186-.153.268-.242.24-.261.38-.603.658-1.287l.947-2.325c1.01-2.48 1.515-3.719 2.549-3.928 1.034-.208 1.98.738 3.873 2.631l1.374 1.373M3 20.934l3.56-3.562"/>
</svg>
