<svg xmlns="http://www.w3.org/2000/svg" width="24" height="24" fill="none">
  <path fill="#1C274C" d="m14.245 7.824.53-.53-.53.53Zm1.93 1.93-.53.531.53-.53Zm-5.567 5.72-.53.53.53-.53Zm-2.082-2.082.53-.53-.53.53Zm6.986-.42.278.698-.278-.697Zm-1.394.556-.278-.697.278.697Zm-3.646-3.646-.697-.277.697.277Zm.555-1.394.697.277-.697-.277Zm-1.905 2.614-.205-.722.205.721Zm.525-.175-.331-.672.331.672Zm.598-.54L9.61 9.99l.635.398Zm3.368 3.368.398.635-.398-.635Zm-.714 1.123.721.205-.721-.205Zm.174-.525.673.331-.673-.331Zm-5.235-1.765-.698.274.698-.274Zm.29-1.12.477.58-.476-.58Zm3.284 4.695-.274.698.274-.698Zm1.12-.292.579.477-.58-.477Zm4.968-4.166-.735-.151.735.151ZM12.295 6.5l-.152-.735.152.735Zm-5.31 9.455a.75.75 0 1 0 1.06 1.06l-1.06-1.06Zm3.112-.992a.75.75 0 0 0-1.06-1.06l1.06 1.06Zm3.618-6.608 1.93 1.93 1.061-1.06-1.93-1.931-1.061 1.06Zm-2.577 6.589-2.082-2.082-1.06 1.06 2.082 2.082 1.06-1.06Zm4.097-2.668-1.395.555.555 1.394 1.395-.555-.555-1.394Zm-4.066-2.116.555-1.395-1.394-.555-.555 1.395 1.394.555Zm-1.843 1.663c.244-.07.457-.127.652-.223l-.662-1.345c-.045.021-.102.04-.4.125l.41 1.443Zm.45-2.218c-.115.287-.14.342-.166.384l1.27.797c.116-.185.195-.391.289-.626l-1.394-.555Zm.202 1.995c.371-.182.683-.464.903-.814L9.61 9.989a.726.726 0 0 1-.294.265l.662 1.346Zm3.862 1.231c-.235.094-.44.173-.626.288l.797 1.271c.042-.026.097-.051.384-.165l-.555-1.394Zm-.22 2.252c.084-.297.104-.354.126-.399l-1.346-.662c-.096.195-.154.408-.223.652l1.443.41Zm-.406-1.964c-.35.22-.632.532-.814.903l1.346.662a.724.724 0 0 1 .265-.294l-.797-1.27Zm-4.158-.257a11.739 11.739 0 0 1-.438-.451c-.095-.107-.094-.127-.082-.097l-1.396.548c.086.22.227.399.355.543.13.148.303.32.5.517l1.061-1.06Zm-.14-2.482c-.268.076-.503.143-.688.208a1.856 1.856 0 0 0-.575.301l.952 1.16c-.025.02-.016.002.12-.046.131-.046.314-.098.601-.18l-.41-1.443Zm-.38 1.934a.233.233 0 0 1 .069-.266l-.952-1.159a1.733 1.733 0 0 0-.513 1.973l1.396-.548Zm1.542 3.69c.197.198.37.37.517.501.145.128.323.27.543.356l.549-1.397c.029.012.01.013-.098-.082-.105-.093-.24-.227-.45-.438l-1.061 1.06Zm2.099-1.33c-.082.287-.134.47-.18.602-.048.135-.065.144-.045.12l1.159.952c.15-.183.237-.393.301-.575.065-.186.132-.42.208-.69l-1.443-.41Zm-1.039 2.187c.7.274 1.496.067 1.973-.513l-1.159-.953a.233.233 0 0 1-.265.07l-.549 1.396Zm4.507-6.576c.495.495.804.807.989 1.055.175.237.121.264.131.214l1.47.303c.117-.57-.122-1.04-.397-1.41-.266-.36-.672-.763-1.132-1.222l-1.06 1.06Zm.145 3.385c.604-.24 1.136-.45 1.523-.675.398-.231.804-.569.922-1.138l-1.47-.303c.01-.05.05-.004-.205.144-.268.155-.675.32-1.325.578l.555 1.394Zm-1.014-6.376c-.46-.46-.864-.866-1.222-1.132-.37-.275-.841-.514-1.41-.397l.302 1.47c-.05.01-.023-.044.214.131.248.185.56.494 1.055.989l1.06-1.061Zm-3.052 1.471c.259-.65.423-1.057.578-1.325.148-.255.195-.216.144-.205l-.303-1.47c-.569.118-.907.524-1.138.922-.224.387-.434.92-.675 1.523l1.394.555Zm-3.679 8.25 2.052-2.052-1.06-1.06-2.053 2.052 1.061 1.06Z"/>
  <circle cx="12" cy="12" r="10" stroke="#1C274C" stroke-width="1.5"/>
</svg>
