<svg xmlns="http://www.w3.org/2000/svg" width="24" height="24" fill="none">
  <g fill="#1C274C">
    <path d="m10.241 5.753 1.092 1.092 5.822 5.822 1.092 1.092a1.544 1.544 0 0 0 2.183-2.184l-1.091-1.091 1.455-1.456a4.117 4.117 0 1 0-5.822-5.822L13.516 4.66l-1.091-1.09a1.544 1.544 0 1 0-2.184 2.183Z"/>
    <path d="M4.709 13.469c-.456.456-.684.684-.829.957a2.058 2.058 0 0 0-.203.58c-.058.304-.022.624.049 1.265l.053.476c.02.175.029.262.031.346a2.059 2.059 0 0 1-.488 1.392 4.506 4.506 0 0 1-.241.25l-.629.63a1.544 1.544 0 1 0 2.184 2.183l.628-.629c.125-.124.187-.187.25-.24.389-.33.885-.504 1.393-.49.084.003.171.013.346.032l.476.053c.64.071.961.107 1.265.05a2.13 2.13 0 0 0 .58-.204c.273-.145.501-.373.957-.829l1.439-1.439 1.06-1.06.94-.94 1.06-1.06 2.125-2.125-5.822-5.822-6.624 6.624Z" opacity=".5"/>
    <path d="m12.116 14 1.854 1.852 1.06-1.06-1.853-1.854A.75.75 0 1 0 12.117 14Zm-2 2 1.854 1.852 1.06-1.06-1.853-1.854A.75.75 0 1 0 10.117 16Z"/>
  </g>
</svg>
