<svg xmlns="http://www.w3.org/2000/svg" width="24" height="24" fill="none">
  <path stroke="#1C274C" stroke-linecap="round" stroke-width="1.5" d="M20.628 9.094c1.248-3.745 1.873-5.618.884-6.606-.988-.989-2.86-.364-6.606.884L10.24 4.927M5.575 6.482c-2.082.694-3.123 1.041-3.439 1.804a1.8 1.8 0 0 0-.133.564c-.059.824.717 1.6 2.269 3.151l.283.283c.254.254.382.382.478.523.19.28.297.607.31.945.008.171-.019.35-.072.705-.196 1.304-.294 1.956-.179 2.458.23 1 1.004 1.785 2 2.028.5.123 1.154.034 2.46-.143l.072-.01c.368-.05.552-.075.729-.064.32.019.63.124.898.303.147.098.279.23.541.492l.252.252c1.51 1.51 2.265 2.265 3.066 2.226.22-.011.438-.063.64-.152.734-.323 1.072-1.336 1.747-3.362l1.566-4.696M6 18l3.75-3.75M21 3l-8.5 8.5"/>
</svg>
