<svg xmlns="http://www.w3.org/2000/svg" width="24" height="24" fill="none">
  <path fill="#1C274C" d="m17.497 18.485 3.131-9.391c.791-2.373 1.331-3.994 1.37-5.115.013-.377-.414-.503-.68-.236l-14.46 14.46c-.233.233-.177.626.14.716.031.008.063.017.095.024.5.123 1.153.034 2.46-.143l.07-.01c.369-.05.553-.075.73-.064.32.02.63.124.898.303.147.098.279.23.541.492l.252.252c1.51 1.51 2.265 2.265 3.066 2.226.22-.011.438-.063.64-.151.734-.324 1.072-1.337 1.747-3.363ZM14.906 3.372l-9.331 3.11c-2.082.694-3.123 1.041-3.439 1.804a1.8 1.8 0 0 0-.133.564c-.059.824.717 1.6 2.269 3.151l.283.283c.254.255.382.382.478.524.19.28.297.606.31.944.008.171-.019.35-.072.705-.196 1.304-.294 1.956-.179 2.458l.013.052c.081.325.48.387.717.15L20.257 2.683c.267-.267.141-.694-.236-.68-1.121.038-2.742.578-5.115 1.369Z"/>
</svg>
