<svg xmlns="http://www.w3.org/2000/svg" width="24" height="24" fill="none">
  <g fill="#1C274C">
    <path fill-rule="evenodd" d="m16.245 7.76 5.172-5.171-.003-.003c-1.187-1.187-3.436-.438-7.935 1.062L8.33 5.364C4.7 6.574 2.885 7.18 2.37 8.067a2.717 2.717 0 0 0 0 2.73c.515.888 2.33 1.493 5.96 2.704.45.15.957.042 1.294-.291l5.506-5.455a.79.79 0 0 1 1.116.005Z" clip-rule="evenodd"/>
    <path d="m18.635 15.67 1.717-5.15c1.498-4.495 2.248-6.744 1.064-7.932l-5.172 5.171a.79.79 0 0 1-.005 1.117l-5.416 5.367a1.397 1.397 0 0 0-.324 1.426c1.21 3.631 1.815 5.446 2.703 5.962a2.714 2.714 0 0 0 2.73 0c.888-.516 1.493-2.33 2.703-5.962Z" opacity=".5"/>
  </g>
</svg>
