<svg xmlns="http://www.w3.org/2000/svg" width="24" height="24" fill="none">
  <path fill="#1C274C" fill-rule="evenodd" d="M18.144 3.63c-1.17.209-2.748.733-4.961 1.47L8.17 6.77c-1.78.594-3.069 1.025-3.98 1.412-.952.405-1.29.687-1.4.876a1.876 1.876 0 0 0 0 1.886c.11.189.448.471 1.4.876.911.387 2.2.818 3.98 1.411l.084.028c.486.162.864.287 1.189.505.313.21.582.479.792.792.218.325.343.703.505 1.19l.028.083c.593 1.78 1.024 3.069 1.41 3.98.406.952.688 1.29.877 1.4a1.876 1.876 0 0 0 1.886 0c.189-.11.471-.448.876-1.4.387-.911.818-2.2 1.411-3.98l1.67-5.012c.738-2.213 1.262-3.79 1.47-4.96.21-1.176.05-1.676-.25-1.976-.3-.3-.8-.46-1.975-.25Zm-.27-1.512c1.303-.232 2.476-.179 3.331.677.856.855.909 2.028.677 3.33-.23 1.295-.792 2.98-1.503 5.112l-1.705 5.115c-.578 1.735-1.027 3.083-1.442 4.058-.4.94-.844 1.736-1.518 2.128a3.412 3.412 0 0 1-3.43 0c-.674-.392-1.118-1.188-1.518-2.128-.415-.975-.864-2.323-1.443-4.058l-.012-.038c-.203-.607-.264-.772-.352-.903a1.348 1.348 0 0 0-.37-.37c-.13-.088-.296-.15-.904-.352l-.037-.012c-1.735-.579-3.083-1.028-4.058-1.443-.94-.4-1.736-.844-2.128-1.518a3.412 3.412 0 0 1 0-3.43c.392-.674 1.188-1.118 2.128-1.518.975-.415 2.323-.864 4.059-1.442l5.114-1.705c2.133-.711 3.817-1.273 5.112-1.503Zm-.193 4.207a.768.768 0 0 1-.006 1.087l-4.098 4.052a.768.768 0 0 1-1.08-1.092l4.097-4.053a.768.768 0 0 1 1.087.006Z" clip-rule="evenodd"/>
</svg>
