<svg xmlns="http://www.w3.org/2000/svg" width="24" height="24" fill="none">
  <path fill="#1C274C" fill-rule="evenodd" d="M3.192 9.166a9.244 9.244 0 0 0-.355 4.11.754.754 0 0 1 .114-.017l.049.748-.05-.748h.014l.024-.002a5.372 5.372 0 0 1 .386-.007c.259.001.629.012 1.088.053.919.08 2.2.275 3.667.737.451.142.9.374 1.327.606l.299.163c.346.19.697.383 1.087.57.98.47 2.144.871 3.668.871 2.824 0 5.055-1.06 6.36-1.884a.764.764 0 0 1 .088-.048c.191-.74.293-1.517.293-2.318a9.232 9.232 0 0 0-.587-3.25c-.2 0-.497.01-.873.046a13.38 13.38 0 0 0-3.047.67c-.263.09-.563.252-.958.485l-.248.148c-.323.193-.69.413-1.088.62-1.03.539-2.323 1.031-4.012 1.031-2.418 0-4.406-.804-5.78-1.597a12.447 12.447 0 0 1-1.465-.987Zm.605-1.445a10.847 10.847 0 0 0 1.609 1.133c1.22.704 2.95 1.396 5.031 1.396 1.374 0 2.425-.394 3.317-.86.356-.186.675-.377.993-.567l.275-.164c.392-.231.81-.467 1.235-.613a14.872 14.872 0 0 1 3.698-.768A9.245 9.245 0 0 0 12 2.75a9.249 9.249 0 0 0-8.203 4.971Zm16.288 8.776a13.246 13.246 0 0 1-5.576 1.253c-1.813 0-3.202-.485-4.317-1.02-.43-.206-.828-.424-1.18-.617l-.272-.149c-.429-.232-.764-.399-1.062-.493a15.836 15.836 0 0 0-3.347-.674 11.668 11.668 0 0 0-1.165-.045 9.254 9.254 0 0 0 16.92 1.745ZM1.25 12C1.25 6.063 6.063 1.25 12 1.25S22.75 6.063 22.75 12 17.937 22.75 12 22.75 1.25 17.937 1.25 12Z" clip-rule="evenodd"/>
</svg>
