<svg xmlns="http://www.w3.org/2000/svg" width="24" height="24" fill="none">
  <g fill="#1C274C">
    <path d="M21.206 15.912a40.5 40.5 0 0 0-.711.3l-.01.005c-.487.21-1.045.45-1.654.674-1.226.454-2.693.86-4.322.86-1.813 0-3.203-.486-4.317-1.02-.43-.206-.829-.425-1.18-.617a59.682 59.682 0 0 0-.272-.15c-.43-.232-.764-.399-1.062-.493a16.416 16.416 0 0 0-3.59-.677 15.935 15.935 0 0 0-1.453-.048l-.077.003h-.021l-.152.008a10.005 10.005 0 0 0 18.821 1.155ZM3.237 7.179l.297.302.003.004.019.018.086.081c.079.072.2.18.36.31.32.26.795.61 1.404.96 1.219.704 2.949 1.396 5.03 1.396 1.374 0 2.426-.394 3.318-.86.355-.186.675-.377.993-.567l.275-.163c.392-.232.81-.468 1.234-.614a14.872 14.872 0 0 1 3.391-.743 11.243 11.243 0 0 1 1.155-.052A9.998 9.998 0 0 0 12 2a9.998 9.998 0 0 0-8.763 5.179Z"/>
    <path d="M21.775 14.118A9.988 9.988 0 0 0 22 12a9.99 9.99 0 0 0-.525-3.206l-.527-.038h-.011l-.051-.003a9.753 9.753 0 0 0-1.096.043 13.38 13.38 0 0 0-3.047.67c-.263.09-.563.252-.958.485l-.248.148c-.322.193-.69.413-1.088.62-1.03.539-2.323 1.031-4.012 1.031-2.418 0-4.407-.803-5.78-1.596a12.342 12.342 0 0 1-1.6-1.096 9.329 9.329 0 0 1-.48-.415 10.098 10.098 0 0 0-.498 4.628l.385-.02h.011l.027-.001a8.595 8.595 0 0 1 .45-.006c.303.002.733.014 1.253.055 1.037.08 2.447.277 3.923.742.45.141.899.373 1.327.605l.299.163c.346.19.697.383 1.087.57.98.47 2.144.871 3.668.871 1.383 0 2.662-.344 3.802-.766.571-.21 1.099-.438 1.591-.65l.018-.007c.475-.204.937-.403 1.343-.538l.512-.171Z" opacity=".5"/>
  </g>
</svg>
