<svg xmlns="http://www.w3.org/2000/svg" width="24" height="24" fill="none">
  <g fill="#1C274C">
    <path d="M21.775 14.118A9.988 9.988 0 0 0 22 12a9.99 9.99 0 0 0-.525-3.206l-.527-.038h-.011l-.051-.003a9.753 9.753 0 0 0-1.096.043 13.38 13.38 0 0 0-3.047.67c-.263.09-.563.252-.958.485l-.248.148c-.322.192-.69.413-1.088.62-1.03.539-2.323 1.031-4.012 1.031-2.418 0-4.407-.804-5.78-1.596a12.35 12.35 0 0 1-1.6-1.096 9.329 9.329 0 0 1-.48-.415 10.098 10.098 0 0 0-.498 4.628l.385-.02h.011l.027-.001a8.595 8.595 0 0 1 .45-.006c.303.002.733.014 1.253.054 1.037.082 2.447.278 3.923.742.45.142.899.374 1.327.606l.299.163c.346.19.697.383 1.087.57.98.47 2.144.871 3.668.871 1.383 0 2.662-.344 3.802-.766.571-.21 1.099-.438 1.591-.65l.018-.007c.475-.204.937-.403 1.343-.538l.512-.171Z"/>
    <path d="M21.206 15.912c-.214.087-.45.188-.711.3l-.01.005c-.487.21-1.045.45-1.654.674-1.226.454-2.693.86-4.322.86-1.813 0-3.203-.486-4.317-1.02a23.92 23.92 0 0 1-1.18-.617l-.272-.15c-.43-.232-.764-.399-1.062-.493a16.416 16.416 0 0 0-3.59-.677 15.935 15.935 0 0 0-1.453-.048l-.077.003h-.02l-.153.008C3.582 18.94 7.433 22 12 22c4.135 0 7.683-2.51 9.206-6.088ZM2.71 8.293l.285-.28-.285.28Zm.527-1.114.297.302.003.004.019.018.086.081c.079.072.2.18.36.31.32.26.795.61 1.404.96 1.219.704 2.95 1.396 5.031 1.396 1.374 0 2.425-.394 3.317-.86.355-.186.675-.377.993-.567l.275-.163c.392-.232.81-.468 1.235-.614a14.872 14.872 0 0 1 3.39-.743 11.247 11.247 0 0 1 1.155-.052A9.998 9.998 0 0 0 12 2a9.998 9.998 0 0 0-8.763 5.179Zm17.786.504L21 8.006l.023-.323Z"/>
  </g>
</svg>
