<svg xmlns="http://www.w3.org/2000/svg" width="24" height="24" fill="none">
  <path fill="#1C274C" fill-rule="evenodd" d="M12 2.75a9.25 9.25 0 1 0 0 18.5 9.25 9.25 0 0 0 0-18.5ZM1.25 12C1.25 6.063 6.063 1.25 12 1.25S22.75 6.063 22.75 12 17.937 22.75 12 22.75 1.25 17.937 1.25 12Zm11.323-3.91.059.036c.287.175.57.356.825.535.29.204.6.444.905.693l.046.037c.498.406.945.771 1.258 1.136.354.412.584.876.584 1.473 0 .597-.23 1.06-.584 1.474-.313.364-.76.729-1.258 1.135l-.046.037c-.305.25-.615.49-.905.693-.255.179-.538.36-.825.535l-.06.036c-.484.295-.942.574-1.343.718-.223.08-.478.138-.754.118a1.452 1.452 0 0 1-.773-.296c-.459-.344-.643-.843-.74-1.34-.091-.472-.126-1.081-.167-1.793l-.003-.052c-.026-.436-.042-.87-.042-1.265 0-.395.016-.83.042-1.265l.003-.052c.04-.712.076-1.32.168-1.793.096-.497.28-.996.74-1.34.225-.17.483-.274.772-.296.276-.02.531.038.754.118.4.144.859.423 1.344.718Zm-1.973.661c-.024.019-.1.086-.165.424-.07.362-.1.868-.146 1.646-.024.419-.039.823-.039 1.179 0 .357.015.76.04 1.179.044.778.075 1.284.145 1.646.066.339.14.405.165.424a.601.601 0 0 0 .122-.033c.24-.086.565-.28 1.13-.624.27-.163.524-.326.743-.48.25-.177.53-.393.819-.628.558-.456.899-.737 1.114-.988.183-.213.222-.343.222-.496 0-.153-.04-.283-.222-.496-.215-.25-.556-.532-1.114-.988a14.718 14.718 0 0 0-.819-.627c-.22-.154-.474-.318-.743-.481-.566-.344-.89-.538-1.13-.624a.6.6 0 0 0-.122-.033Z" clip-rule="evenodd"/>
</svg>
