<svg xmlns="http://www.w3.org/2000/svg" width="24" height="24" fill="none">
  <path fill="#1C274C" fill-rule="evenodd" d="M2.25 6A.75.75 0 0 1 3 5.25h18a.75.75 0 0 1 0 1.5H3A.75.75 0 0 1 2.25 6Zm0 4A.75.75 0 0 1 3 9.25h18a.75.75 0 0 1 0 1.5H3a.75.75 0 0 1-.75-.75Zm16.955 3.443.09.052c.789.455 1.442.833 1.909 1.186.475.36.901.8 1.012 1.428.045.259.045.523 0 .782-.111.628-.537 1.068-1.012 1.428-.467.353-1.12.73-1.91 1.186l-.089.052c-.788.455-1.442.833-1.981 1.06-.55.232-1.144.38-1.744.162a2.25 2.25 0 0 1-.676-.39c-.49-.41-.657-1-.731-1.591C14 18.218 14 17.463 14 16.552v-.104c0-.91 0-1.665.073-2.246.074-.591.242-1.18.73-1.59.202-.17.43-.302.677-.391.6-.219 1.194-.07 1.744.162.539.227 1.192.605 1.981 1.06Zm-2.564.322c-.442-.186-.59-.156-.647-.135a.75.75 0 0 0-.226.13c-.047.04-.147.153-.207.629S15.5 15.524 15.5 16.5c0 .976.001 1.635.061 2.111.06.476.16.59.207.629a.75.75 0 0 0 .225.13c.058.02.206.05.648-.135.442-.186 1.014-.515 1.859-1.003.845-.488 1.416-.819 1.798-1.108.382-.29.43-.433.44-.494a.75.75 0 0 0 0-.26c-.01-.06-.058-.204-.44-.494-.382-.29-.953-.62-1.798-1.108-.845-.488-1.417-.817-1.859-1.003ZM2.25 14a.75.75 0 0 1 .75-.75h8a.75.75 0 0 1 0 1.5H3a.75.75 0 0 1-.75-.75Zm0 4a.75.75 0 0 1 .75-.75h8a.75.75 0 0 1 0 1.5H3a.75.75 0 0 1-.75-.75Z" clip-rule="evenodd"/>
</svg>
