<svg xmlns="http://www.w3.org/2000/svg" width="24" height="24" fill="none">
  <g fill="#1C274C">
    <path fill-rule="evenodd" d="M2.25 4A.75.75 0 0 1 3 3.25h17a.75.75 0 0 1 0 1.5H3A.75.75 0 0 1 2.25 4Zm0 5A.75.75 0 0 1 3 8.25h9a.75.75 0 0 1 0 1.5H3A.75.75 0 0 1 2.25 9Zm0 5a.75.75 0 0 1 .75-.75h5a.75.75 0 0 1 0 1.5H3a.75.75 0 0 1-.75-.75Z" clip-rule="evenodd" opacity=".5"/>
    <path d="M19.345 6.993c.278-.103.61-.19.97-.125.442.08.836.329 1.1.692.215.296.28.634.308.93.027.287.027.646.027 1.055v.11c0 .3.002.62-.106.915a1.749 1.749 0 0 1-.392.623c-.22.225-.509.363-.78.492l-.068.033-1.785.857c-.369.177-.692.332-.964.432-.261.097-.57.18-.905.136v4.286c0 1.814-1.435 3.321-3.25 3.321s-3.25-1.507-3.25-3.321c0-1.815 1.435-3.322 3.25-3.322a3.18 3.18 0 0 1 1.75.522V11h.003c-.003-.169-.003-.351-.003-.544v-.11c0-.3-.002-.621.106-.916.085-.233.219-.446.392-.623.22-.225.509-.363.78-.492l.068-.033 1.785-.857c.369-.177.692-.332.964-.432Z"/>
  </g>
</svg>
