<svg xmlns="http://www.w3.org/2000/svg" width="24" height="24" fill="none">
  <path fill="#1C274C" fill-rule="evenodd" d="m11.498 3.214.067.034c.843.427 1.663.865 2.392 1.292a47.05 47.05 0 0 1 2.627 1.677l.06.04C18.207 7.32 19.46 8.172 20.314 9c.896.87 1.437 1.795 1.437 3 0 1.207-.54 2.131-1.437 3.002-.853.828-2.107 1.68-3.668 2.741l-.06.041c-.9.611-1.797 1.19-2.628 1.677-.729.426-1.55.865-2.392 1.292l-.067.034c-1.552.786-2.808 1.423-3.857 1.737-1.11.332-2.115.343-3.082-.261-.953-.597-1.423-1.51-1.693-2.673-.26-1.116-.361-2.582-.488-4.414l-.005-.068A45.89 45.89 0 0 1 2.25 12c0-.962.048-2.028.123-3.107l.005-.068c.127-1.832.228-3.298.488-4.414.27-1.163.74-2.077 1.693-2.673.967-.604 1.973-.593 3.082-.261 1.05.314 2.305.95 3.857 1.737Zm-4.287-.3c-.86-.257-1.38-.203-1.856.096-.49.306-.806.788-1.028 1.74-.23.986-.325 2.331-.458 4.246A44.42 44.42 0 0 0 3.75 12c0 .916.046 1.945.12 3.003.132 1.916.228 3.261.457 4.246.222.953.539 1.435 1.028 1.741.477.298.996.353 1.856.096.905-.271 2.041-.844 3.676-1.672a44.418 44.418 0 0 0 2.313-1.249 45.658 45.658 0 0 0 2.541-1.622c1.636-1.112 2.78-1.893 3.527-2.619.716-.695.982-1.256.982-1.924 0-.669-.266-1.23-.982-1.924-.748-.726-1.891-1.507-3.527-2.619-.882-.6-1.75-1.16-2.541-1.623a44.404 44.404 0 0 0-2.313-1.248C9.252 3.757 8.116 3.185 7.21 2.914Z" clip-rule="evenodd"/>
</svg>
