<svg xmlns="http://www.w3.org/2000/svg" width="24" height="24" fill="none">
  <path fill="#1C274C" fill-rule="evenodd" d="M2.25 5A.75.75 0 0 1 3 4.25h12a.75.75 0 0 1 0 1.5H3A.75.75 0 0 1 2.25 5Zm17.613 2.4c-.196.073-.455.196-.863.392l-1.755.842c-.18.086-.282.136-.356.178a.509.509 0 0 0-.068.043.249.249 0 0 0-.056.088.494.494 0 0 0-.009.08 6.897 6.897 0 0 0-.006.398c0 .453 0 .74.02.948a.897.897 0 0 0 .034.197.25.25 0 0 0 .14.088.893.893 0 0 0 .193-.054c.196-.073.455-.196.863-.392l1.755-.842c.18-.086.282-.136.356-.178a.493.493 0 0 0 .068-.043.249.249 0 0 0 .056-.088.495.495 0 0 0 .009-.08c.006-.085.006-.199.006-.398 0-.453 0-.74-.02-.948a.896.896 0 0 0-.034-.197.25.25 0 0 0-.14-.088.887.887 0 0 0-.193.054Zm-3.097 1.541v.002-.002Zm.053-.085.002-.001-.002.001Zm2.526-2.863c.278-.103.61-.19.97-.125.442.08.836.329 1.1.692.215.296.28.634.308.93.027.287.027.646.027 1.055v.11c0 .3.002.62-.106.915a1.749 1.749 0 0 1-.392.623c-.22.225-.509.363-.78.492l-.068.033-1.785.857c-.369.177-.692.332-.964.432-.261.097-.57.18-.905.136v4.286c0 1.814-1.435 3.321-3.25 3.321s-3.25-1.507-3.25-3.321c0-1.815 1.435-3.322 3.25-3.322a3.18 3.18 0 0 1 1.75.522V10h.003c-.003-.169-.003-.351-.003-.545v-.11c0-.3-.002-.62.106-.915.085-.234.219-.446.392-.623.22-.225.509-.363.78-.492l.068-.033 1.785-.857c.369-.177.692-.332.964-.432ZM15.25 16.429c0-1.026-.803-1.822-1.75-1.822s-1.75.796-1.75 1.822.803 1.821 1.75 1.821 1.75-.795 1.75-1.821ZM2.25 9A.75.75 0 0 1 3 8.25h10a.75.75 0 0 1 0 1.5H3A.75.75 0 0 1 2.25 9Zm0 4a.75.75 0 0 1 .75-.75h6a.75.75 0 0 1 0 1.5H3a.75.75 0 0 1-.75-.75Zm0 4a.75.75 0 0 1 .75-.75h5a.75.75 0 0 1 0 1.5H3a.75.75 0 0 1-.75-.75Z" clip-rule="evenodd"/>
</svg>
