<svg xmlns="http://www.w3.org/2000/svg" width="24" height="24" fill="none">
  <path stroke="#1C274C" stroke-linecap="round" stroke-width="1.5" d="M3.121 8.945A45.155 45.155 0 0 0 3 12c0 .94.047 1.987.121 3.055.262 3.78.393 5.669 1.836 6.571 1.443.902 3.052.087 6.269-1.543.834-.423 1.64-.854 2.352-1.27a46.373 46.373 0 0 0 2.585-1.65C19.388 14.971 21 13.875 21 12c0-1.875-1.612-2.97-4.837-5.163a46.385 46.385 0 0 0-2.585-1.65 45.172 45.172 0 0 0-2.352-1.27C8.009 2.287 6.4 1.471 4.957 2.374 4.145 2.882 3.748 3.704 3.51 5"/>
</svg>
