<svg xmlns="http://www.w3.org/2000/svg" width="24" height="24" fill="none">
  <path fill="#1C274D" fill-rule="evenodd" d="M22 12c0 4.714 0 7.071-1.465 8.535C19.072 22 16.714 22 12 22c-4.134 0-6.455 0-7.952-.988L21.012 4.048C22 5.545 22 7.866 22 12Zm-3.25 5a.75.75 0 0 1-.75.75h-5a.75.75 0 0 1 0-1.5h5a.75.75 0 0 1 .75.75ZM12 2C7.286 2 4.929 2 3.464 3.464 2 4.93 2 7.286 2 12c0 4.134 0 6.455.988 7.952L19.952 2.988C18.455 2 16.134 2 12 2ZM8 4.75a.75.75 0 0 1 .75.75v1.75h1.75a.75.75 0 0 1 0 1.5H8.75v1.75a.75.75 0 0 1-1.5 0V8.75H5.5a.75.75 0 0 1 0-1.5h1.75V5.5A.75.75 0 0 1 8 4.75Z" clip-rule="evenodd"/>
</svg>
