<svg xmlns="http://www.w3.org/2000/svg" width="24" height="24" fill="none">
  <path fill="#1C274C" fill-rule="evenodd" d="M17 2.75a2.25 2.25 0 1 0 0 4.5 2.25 2.25 0 0 0 0-4.5ZM13.25 5a3.75 3.75 0 1 1 4.5 3.675v.586a14.96 14.96 0 0 1 1.642.106c.9.12 1.658.38 2.26.981.602.602.86 1.36.982 2.26.116.867.116 1.97.116 3.337v.11c0 1.367 0 2.47-.116 3.337-.122.9-.38 1.658-.982 2.26-.602.602-1.36.86-2.26.982-.867.116-1.97.116-3.337.116h-8.11c-1.367 0-2.47 0-3.337-.116-.9-.122-1.658-.38-2.26-.982-.602-.602-.86-1.36-.981-2.26-.117-.867-.117-1.97-.117-3.337v-.11c0-1.367 0-2.47.117-3.337.12-.9.38-1.658.981-2.26.602-.602 1.36-.86 2.26-.981.867-.117 1.97-.117 3.337-.117h8.305v-.575a3.751 3.751 0 0 1-3-3.675Zm3 5.75H8c-1.435 0-2.437.002-3.192.103-.147.02-.281.043-.403.07l7.948 4.415a.764.764 0 0 1 .024.013l8.544 4.747c.1-.229.174-.52.226-.906.101-.756.103-1.757.103-3.192 0-1.435-.002-2.437-.103-3.192-.099-.734-.28-1.122-.556-1.399-.277-.277-.665-.457-1.4-.556-.4-.054-.872-.08-1.441-.092V13a.75.75 0 0 1-1.5 0v-2.25Zm3.345 10.327-7.584-4.213-7.266 4.274.063.009c.755.101 1.757.103 3.192.103h8c1.435 0 2.436-.002 3.192-.103.148-.02.281-.043.403-.07ZM3.19 20.312l7.3-4.293-7.41-4.117c-.1.229-.175.52-.227.906-.101.755-.103 1.757-.103 3.192 0 1.435.002 2.436.103 3.192.07.518.18.864.337 1.12Z" clip-rule="evenodd"/>
</svg>
