<svg xmlns="http://www.w3.org/2000/svg" width="24" height="24" fill="none">
  <g fill="#1C274C">
    <path fill-rule="evenodd" d="M11.448 4.25h1.104c.899 0 1.648 0 2.242.08.628.084 1.195.27 1.65.725.456.456.642 1.023.726 1.65.08.595.08 1.344.08 2.243v6.104c0 .899 0 1.648-.08 2.242-.084.628-.27 1.195-.726 1.65-.455.456-1.022.642-1.65.726-.594.08-1.344.08-2.242.08h-1.104c-.899 0-1.648 0-2.242-.08-.628-.084-1.195-.27-1.65-.726-.456-.455-.642-1.022-.726-1.65-.08-.594-.08-1.344-.08-2.242V8.948c0-.898 0-1.648.08-2.242.084-.628.27-1.195.725-1.65.456-.456 1.023-.642 1.65-.726.595-.08 1.345-.08 2.243-.08ZM9.405 5.817c-.461.062-.659.169-.789.3-.13.13-.237.327-.3.788C8.253 7.388 8.25 8.036 8.25 9v6c0 .964.002 1.612.067 2.095.062.461.169.659.3.789.13.13.327.237.788.3.483.064 1.131.066 2.095.066h1c.964 0 1.612-.002 2.095-.067.461-.062.659-.169.789-.3.13-.13.237-.327.3-.788.064-.483.066-1.131.066-2.095V9c0-.964-.002-1.612-.066-2.095-.063-.461-.17-.659-.3-.789-.13-.13-.328-.237-.79-.3-.482-.064-1.13-.066-2.094-.066h-1c-.964 0-1.612.002-2.095.067Z" clip-rule="evenodd"/>
    <path d="M21.5 5.75a1.75 1.75 0 0 0-1.75 1.75v9c0 .966.784 1.75 1.75 1.75h.5a.75.75 0 0 1 0 1.5h-.5a3.25 3.25 0 0 1-3.25-3.25v-9a3.25 3.25 0 0 1 3.25-3.25h.5a.75.75 0 0 1 0 1.5h-.5ZM2 4.25a.75.75 0 0 0 0 1.5h.5c.966 0 1.75.784 1.75 1.75v9a1.75 1.75 0 0 1-1.75 1.75H2a.75.75 0 0 0 0 1.5h.5a3.25 3.25 0 0 0 3.25-3.25v-9A3.25 3.25 0 0 0 2.5 4.25H2Z"/>
  </g>
</svg>
