<svg xmlns="http://www.w3.org/2000/svg" width="24" height="24" fill="none">
  <path fill="#1C274C" fill-rule="evenodd" d="M10.588 6.465a4.25 4.25 0 1 0 6.888.088.752.752 0 0 1-.14-.186A4.243 4.243 0 0 0 14 4.75a4.243 4.243 0 0 0-3.412 1.715Zm-1.881.285a5.75 5.75 0 1 0 10.638.126c.63.101.984.271 1.246.533.277.277.457.665.556 1.4.101.754.103 1.756.103 3.191 0 1.435-.002 2.437-.103 3.192-.099.734-.28 1.122-.556 1.399-.277.277-.665.457-1.4.556-.755.101-1.756.103-3.191.103H8c-1.435 0-2.437-.002-3.192-.103-.734-.099-1.122-.28-1.399-.556-.277-.277-.457-.665-.556-1.4-.101-.755-.103-1.756-.103-3.191 0-1.435.002-2.437.103-3.192.099-.734.28-1.122.556-1.399.277-.277.665-.457 1.4-.556C5.562 6.752 6.564 6.75 8 6.75h.707Zm.934-1.5H7.945c-1.367 0-2.47 0-3.337.117-.9.12-1.658.38-2.26.981-.602.602-.86 1.36-.981 2.26-.117.867-.117 1.97-.117 3.337v.11c0 1.367 0 2.47.117 3.337.12.9.38 1.658.981 2.26.602.602 1.36.86 2.26.982.073.01.147.018.223.026l-.502 1.005a.75.75 0 1 0 1.342.67l.796-1.592c.454.007.946.007 1.478.007h8.11c.532 0 1.024 0 1.478-.007l.796 1.592a.75.75 0 1 0 1.342-.67l-.502-1.005.223-.026c.9-.122 1.658-.38 2.26-.982.602-.602.86-1.36.982-2.26.116-.867.116-1.97.116-3.337v-.11c0-1.367 0-2.47-.116-3.337-.122-.9-.38-1.658-.982-2.26-.803-.802-1.895-1.003-3.266-1.067A5.737 5.737 0 0 0 14 3.25a5.737 5.737 0 0 0-4.359 2ZM13.25 7a.75.75 0 0 1 .75-.75A2.75 2.75 0 1 1 11.25 9a.75.75 0 0 1 1.5 0A1.25 1.25 0 1 0 14 7.75a.75.75 0 0 1-.75-.75ZM5.5 8.75a.75.75 0 0 1 .75.75V11a.75.75 0 0 1-1.5 0V9.5a.75.75 0 0 1 .75-.75Z" clip-rule="evenodd"/>
</svg>
