<svg xmlns="http://www.w3.org/2000/svg" width="24" height="24" fill="none">
  <path fill="#1C274C" fill-rule="evenodd" d="M11.943 1.25c-2.309 0-4.118 0-5.53.19-1.444.194-2.584.6-3.479 1.494-.895.895-1.3 2.035-1.494 3.48-.19 1.411-.19 3.22-.19 5.529v.114c0 1.024 0 1.95.017 2.786a.754.754 0 0 0 .008.348c.024.904.071 1.698.165 2.395.194 1.445.6 2.585 1.494 3.48.895.895 2.035 1.3 3.48 1.494 1.411.19 3.22.19 5.529.19h.114c2.309 0 4.118 0 5.53-.19 1.444-.194 2.584-.6 3.479-1.494.895-.895 1.3-2.035 1.494-3.48.094-.697.141-1.491.165-2.395a.748.748 0 0 0 .008-.348c.017-.836.017-1.762.017-2.786v-.114c0-2.309 0-4.118-.19-5.53-.194-1.444-.6-2.584-1.494-3.479-.895-.895-2.035-1.3-3.48-1.494-1.411-.19-3.22-.19-5.529-.19h-.114Zm9.3 13c.007-.676.007-1.423.007-2.25 0-2.378-.002-4.086-.176-5.386-.172-1.279-.5-2.05-1.069-2.62-.57-.569-1.34-.896-2.619-1.068-1.3-.174-3.008-.176-5.386-.176s-4.086.002-5.386.176c-1.279.172-2.05.5-2.62 1.069-.569.57-.896 1.34-1.068 2.619-.174 1.3-.176 3.008-.176 5.386 0 .827 0 1.574.008 2.25h2.35c.526 0 .993-.002 1.421.182.429.184.75.522 1.112.904l.075.078 1.141 1.199.207.215.177-.241 3.653-5.043c.15-.206.304-.42.458-.579.175-.18.447-.394.842-.412.394-.018.685.17.876.333.167.144.341.343.508.534l1.804 2.062c.486.555.59.65.703.701.113.051.253.067.99.067h2.167Zm-18.449 1.5c.026.611.067 1.152.132 1.636.172 1.279.5 2.05 1.069 2.62.57.569 1.34.896 2.619 1.068 1.3.174 3.008.176 5.386.176s4.086-.002 5.386-.176c1.279-.172 2.05-.5 2.62-1.069.569-.57.896-1.34 1.068-2.619a18.18 18.18 0 0 0 .132-1.636h-2.244c-.556.001-1.05.002-1.497-.201-.447-.203-.771-.575-1.137-.994l-.075-.086-1.777-2.03a18.336 18.336 0 0 0-.206-.234c-.053.07-.112.151-.184.251l-3.654 5.042a5.351 5.351 0 0 1-.442.56c-.17.177-.434.384-.816.41-.382.025-.67-.145-.863-.298a5.35 5.35 0 0 1-.513-.495l-1.169-1.227c-.48-.505-.582-.59-.69-.637-.11-.047-.242-.061-.939-.061H2.794Z" clip-rule="evenodd"/>
</svg>
