<svg xmlns="http://www.w3.org/2000/svg" width="24" height="24" fill="none">
  <g stroke="#1C274C" stroke-width="1.5">
    <path stroke-linecap="round" d="M2 15h3c.634 0 .95 0 1.234.121.283.122.501.351.938.81l1.142 1.199c.384.403.576.605.81.59.234-.017.397-.242.724-.693l3.63-5.01c.34-.47.51-.704.75-.715.24-.01.431.207.813.643l1.777 2.03c.441.505.662.757.957.891.296.134.63.134 1.3.134H22"/>
    <path d="M2 12c0-4.714 0-7.071 1.464-8.536C4.93 2 7.286 2 12 2c4.714 0 7.071 0 8.535 1.464C22 4.93 22 7.286 22 12c0 4.714 0 7.071-1.465 8.535C19.072 22 16.714 22 12 22s-7.071 0-8.536-1.465C2 19.072 2 16.714 2 12Z" opacity=".5"/>
  </g>
</svg>
