<svg xmlns="http://www.w3.org/2000/svg" width="24" height="24" fill="none">
  <path fill="#1C274C" fill-rule="evenodd" d="M3.464 3.464C2 4.93 2 7.286 2 12c0 4.714 0 7.071 1.464 8.535C4.93 22 7.286 22 12 22c4.714 0 7.071 0 8.535-1.465C22 19.072 22 16.714 22 12s0-7.071-1.465-8.536C19.072 2 16.714 2 12 2S4.929 2 3.464 3.464Zm11.635 8.63c-.184-.302-.365-.597-.541-.807-.187-.224-.515-.532-1.017-.512-.502.02-.804.353-.973.591-.159.225-.315.532-.475.848l-1.988 3.92c-.075.148-.137.271-.193.377a23.575 23.575 0 0 1-.238-.351l-.176-.266a11.045 11.045 0 0 0-.557-.788 2.224 2.224 0 0 0-.682-.59 2.226 2.226 0 0 0-.87-.24c-.272-.026-.597-.026-.964-.026H5a.75.75 0 0 0 0 1.5h1.394c.407 0 .661 0 .856.019.18.017.254.044.301.07.047.025.111.07.225.211.123.152.265.363.49.702l.187.279c.188.283.373.56.553.759.192.213.522.497 1.01.468.486-.029.78-.35.947-.584.154-.219.305-.517.459-.82l1.987-3.918c.079-.155.144-.284.203-.395.067.106.143.23.233.377l.654 1.068c.2.327.378.616.55.844.186.247.399.469.692.633.293.164.593.23.901.26.284.027.623.027 1.006.027H19a.75.75 0 0 0 0-1.5h-1.32c-.424 0-.69 0-.894-.02-.188-.019-.264-.049-.312-.076-.049-.027-.114-.076-.227-.227-.124-.163-.263-.39-.485-.752l-.663-1.082Z" clip-rule="evenodd"/>
</svg>
