<svg xmlns="http://www.w3.org/2000/svg" width="24" height="24" fill="none">
  <g fill="#1C274C">
    <path d="M15.1 12.094c-.185-.302-.366-.597-.542-.807-.187-.224-.515-.532-1.017-.512-.502.02-.804.353-.973.591-.159.225-.315.532-.475.848l-1.988 3.92c-.075.148-.137.271-.193.377a23.575 23.575 0 0 1-.238-.351l-.176-.266a11.045 11.045 0 0 0-.557-.788 2.224 2.224 0 0 0-.682-.59 2.226 2.226 0 0 0-.87-.24c-.272-.026-.597-.026-.964-.026H5a.75.75 0 0 0 0 1.5h1.394c.407 0 .661 0 .856.019.18.017.254.044.301.07.047.025.111.07.225.211.123.152.265.363.49.702l.187.279c.188.283.373.56.553.759.192.213.522.497 1.01.468.486-.029.78-.35.947-.584.154-.219.305-.517.459-.82l1.987-3.918c.079-.155.144-.284.203-.395.067.106.143.23.233.377l.654 1.068c.2.327.378.616.55.844.186.247.399.469.692.633.293.164.593.23.901.26.284.027.623.027 1.006.027H19a.75.75 0 0 0 0-1.5h-1.32c-.424 0-.69 0-.894-.02-.188-.019-.264-.049-.312-.076-.049-.027-.114-.076-.227-.227-.124-.163-.263-.39-.485-.752l-.663-1.082Z"/>
    <path fill-rule="evenodd" d="M11.943 1.25c-2.309 0-4.118 0-5.53.19-1.444.194-2.584.6-3.479 1.494-.895.895-1.3 2.035-1.494 3.48-.19 1.411-.19 3.22-.19 5.529v.114c0 2.309 0 4.118.19 5.53.194 1.444.6 2.584 1.494 3.479.895.895 2.035 1.3 3.48 1.494 1.411.19 3.22.19 5.529.19h.114c2.309 0 4.118 0 5.53-.19 1.444-.194 2.584-.6 3.479-1.494.895-.895 1.3-2.035 1.494-3.48.19-1.411.19-3.22.19-5.529v-.114c0-2.309 0-4.118-.19-5.53-.194-1.444-.6-2.584-1.494-3.479-.895-.895-2.035-1.3-3.48-1.494-1.411-.19-3.22-.19-5.529-.19h-.114ZM3.995 3.995c.57-.57 1.34-.897 2.619-1.069 1.3-.174 3.008-.176 5.386-.176s4.086.002 5.386.176c1.279.172 2.05.5 2.62 1.069.569.57.896 1.34 1.068 2.619.174 1.3.176 3.008.176 5.386s-.002 4.086-.176 5.386c-.172 1.279-.5 2.05-1.069 2.62-.57.569-1.34.896-2.619 1.068-1.3.174-3.008.176-5.386.176s-4.086-.002-5.386-.176c-1.279-.172-2.05-.5-2.62-1.069-.569-.57-.896-1.34-1.068-2.619-.174-1.3-.176-3.008-.176-5.386s.002-4.086.176-5.386c.172-1.279.5-2.05 1.069-2.62Z" clip-rule="evenodd"/>
  </g>
</svg>
