<svg xmlns="http://www.w3.org/2000/svg" width="24" height="24" fill="none">
  <g fill="#1C274C">
    <path d="M10.553 13.447c-.424-.424-.95-.596-1.535-.675-.553-.074-1.25-.074-2.086-.074H5.827c-.58 0-1.065 0-1.459.037-.411.04-.795.124-1.146.34-.345.21-.634.5-.845.844-.216.352-.3.735-.34 1.147C2 15.459 2 15.944 2 16.525v.068c0 .884 0 1.597.055 2.17.056.592.175 1.108.459 1.571.288.47.682.864 1.152 1.152.463.284.979.403 1.57.46C5.81 22 6.524 22 7.407 22h.07c.58 0 1.064 0 1.458-.037.412-.04.795-.124 1.147-.34.344-.21.633-.5.844-.845.216-.351.3-.735.34-1.146.037-.394.037-.879.037-1.46v-1.104c0-.836 0-1.533-.074-2.086-.079-.584-.251-1.111-.675-1.535ZM8.934 2.037c.412.04.795.124 1.147.34.344.21.633.5.844.845.216.351.3.735.34 1.146.037.394.037.879.037 1.46v1.104c0 .836 0 1.533-.074 2.086-.079.584-.251 1.111-.675 1.535-.424.424-.95.596-1.535.675-.553.074-1.25.074-2.086.074H5.827c-.58 0-1.065 0-1.459-.037-.411-.04-.795-.124-1.146-.34a2.559 2.559 0 0 1-.845-.844c-.216-.352-.3-.735-.34-1.147C2 8.54 2 8.056 2 7.475v-.068c0-.884 0-1.597.055-2.17.056-.592.175-1.108.459-1.571.288-.47.682-.864 1.152-1.152.463-.284.979-.403 1.57-.46C5.81 2 6.524 2 7.407 2h.07c.58 0 1.064 0 1.458.037ZM16.593 2h-.068c-.58 0-1.065 0-1.46.037-.41.04-.794.124-1.146.34-.344.21-.633.5-.844.845-.216.351-.3.735-.34 1.146-.037.394-.037.879-.037 1.46v1.104c0 .836 0 1.533.074 2.086.079.584.251 1.111.675 1.535.424.424.95.596 1.535.675.553.074 1.25.074 2.086.074h1.105c.58 0 1.065 0 1.459-.037.411-.04.795-.124 1.146-.34.345-.21.634-.5.845-.844.216-.352.3-.735.34-1.147C22 8.54 22 8.056 22 7.475v-.068c0-.884 0-1.597-.055-2.17-.056-.592-.175-1.108-.459-1.571a3.489 3.489 0 0 0-1.152-1.152c-.463-.284-.979-.403-1.57-.46C18.19 2 17.477 2 16.593 2Z" opacity=".5"/>
    <path d="M14.093 21.302a.698.698 0 1 1-1.396 0v-2.79h1.396v2.79Z" opacity=".4"/>
    <path d="M21.302 12.698a.698.698 0 0 0-.697.697v3.256H22v-3.256a.698.698 0 0 0-.698-.697Z" opacity=".5"/>
    <path d="M16.076 16.617c-.076.184-.076.417-.076.883s0 .699.076.883a1 1 0 0 0 .541.54c.184.077.417.077.883.077s.699 0 .883-.076a1 1 0 0 0 .54-.541c.077-.184.077-.417.077-.883s0-.699-.076-.883a1 1 0 0 0-.541-.54C18.199 16 17.966 16 17.5 16s-.699 0-.883.076a1 1 0 0 0-.54.541Z"/>
    <path d="M22 18.535v-.023h-1.396c0 .443 0 .74-.016.97-.015.224-.043.333-.073.405a1.163 1.163 0 0 1-.629.63c-.072.029-.18.056-.405.072-.23.015-.527.016-.97.016h-1.86V22h1.883c.414 0 .759 0 1.042-.02a2.62 2.62 0 0 0 .844-.175 2.558 2.558 0 0 0 1.384-1.384c.112-.27.156-.549.176-.844.02-.283.02-.628.02-1.042Z" opacity=".7"/>
    <path d="M12.697 16.616v.035h1.396c0-.668 0-1.116.035-1.458.034-.33.093-.482.16-.583a1.16 1.16 0 0 1 .321-.32c.101-.068.254-.128.584-.161.342-.035.79-.036 1.458-.036h1.86v-1.395h-1.896c-.623 0-1.142 0-1.563.043-.44.044-.85.142-1.218.388-.28.187-.519.426-.706.706-.246.368-.343.777-.388 1.217-.043.421-.043.94-.043 1.564Z" opacity=".6"/>
    <path d="M5.508 18.69c.219.155.528.155 1.146.155.619 0 .928 0 1.146-.155a.842.842 0 0 0 .2-.199c.154-.218.154-.527.154-1.146 0-.618 0-.927-.155-1.146A.842.842 0 0 0 7.8 16c-.218-.155-.527-.155-1.146-.155-.618 0-.927 0-1.146.155a.841.841 0 0 0-.199.2c-.155.218-.155.527-.155 1.145 0 .619 0 .928.155 1.146a.841.841 0 0 0 .2.2ZM6.654 8.155c-.618 0-.927 0-1.146-.155a.84.84 0 0 1-.199-.2c-.155-.217-.155-.527-.155-1.145 0-.619 0-.928.155-1.146a.84.84 0 0 1 .2-.2c.218-.154.527-.154 1.145-.154.619 0 .928 0 1.146.155a.84.84 0 0 1 .2.199c.154.218.154.527.154 1.146 0 .618 0 .928-.155 1.146A.84.84 0 0 1 7.8 8c-.218.155-.527.155-1.146.155ZM16.2 8c.218.155.527.155 1.146.155.618 0 .927 0 1.146-.155a.842.842 0 0 0 .199-.199c.155-.218.155-.528.155-1.146 0-.619 0-.928-.155-1.146a.842.842 0 0 0-.2-.2c-.218-.154-.527-.154-1.145-.154-.619 0-.928 0-1.146.155a.842.842 0 0 0-.2.199c-.154.218-.154.527-.154 1.146 0 .618 0 .928.155 1.146A.842.842 0 0 0 16.2 8Z"/>
  </g>
</svg>
