<svg xmlns="http://www.w3.org/2000/svg" width="24" height="24" fill="none">
  <g fill="#1C274C">
    <path fill-rule="evenodd" d="M16.525 2h.068c.884 0 1.597 0 2.17.055.592.056 1.108.175 1.571.459.47.288.864.682 1.152 1.152.284.463.403.979.46 1.57C22 5.81 22 6.524 22 7.407v.07c0 .58 0 1.064-.037 1.458-.04.412-.124.795-.34 1.147-.21.344-.5.633-.845.844-.351.216-.735.3-1.146.34-.394.037-.879.037-1.46.037h-1.104c-.836 0-1.533 0-2.086-.074-.584-.079-1.111-.251-1.535-.675-.424-.424-.596-.95-.675-1.535-.074-.553-.074-1.25-.074-2.086V5.827c0-.58 0-1.065.037-1.459.04-.411.124-.795.34-1.146.21-.345.5-.634.844-.845.352-.216.735-.3 1.147-.34C15.459 2 15.944 2 16.525 2Zm.824 5.814c-.48 0-.72 0-.889-.12a.652.652 0 0 1-.154-.154c-.12-.17-.12-.41-.12-.889 0-.48 0-.719.12-.888a.652.652 0 0 1 .154-.155c.17-.12.41-.12.889-.12.48 0 .719 0 .888.12a.67.67 0 0 1 .155.155c.12.169.12.409.12.888 0 .48 0 .72-.12.889a.652.652 0 0 1-.155.154c-.169.12-.409.12-.888.12ZM10.08 2.377c-.35-.216-.734-.3-1.146-.34C8.54 2 8.056 2 7.475 2h-.068c-.884 0-1.597 0-2.17.055-.592.056-1.108.175-1.571.459-.47.288-.864.682-1.152 1.152-.284.463-.403.979-.46 1.57C2 5.81 2 6.524 2 7.407v.07c0 .58 0 1.064.037 1.458.04.412.124.795.34 1.147.21.344.5.633.845.844.351.216.735.3 1.146.34.394.037.878.037 1.46.037h1.104c.836 0 1.533 0 2.086-.074.584-.079 1.111-.251 1.535-.675.424-.424.596-.95.675-1.535.074-.553.074-1.25.074-2.086V5.827c0-.58 0-1.065-.037-1.459-.04-.411-.124-.795-.34-1.146a2.559 2.559 0 0 0-.844-.845ZM5.764 7.694c.169.12.409.12.888.12.48 0 .72 0 .889-.12a.65.65 0 0 0 .154-.154c.12-.17.12-.41.12-.889 0-.48 0-.719-.12-.888a.65.65 0 0 0-.154-.155c-.17-.12-.41-.12-.889-.12-.48 0-.719 0-.888.12a.651.651 0 0 0-.155.155c-.12.169-.12.409-.12.888 0 .48 0 .72.12.889a.65.65 0 0 0 .155.154Zm3.254 5.078c.584.079 1.111.251 1.535.675.424.424.596.95.675 1.535.074.553.074 1.25.074 2.086v1.105c0 .58 0 1.065-.037 1.459-.04.411-.124.795-.34 1.146-.21.345-.5.634-.844.845-.352.216-.735.3-1.147.34C8.54 22 8.056 22 7.475 22h-.068c-.884 0-1.597 0-2.17-.055-.592-.056-1.108-.175-1.571-.459a3.489 3.489 0 0 1-1.152-1.152c-.284-.463-.403-.979-.46-1.57C2 18.19 2 17.477 2 16.593v-.07c0-.58 0-1.065.037-1.458.04-.412.124-.795.34-1.147.21-.344.5-.633.845-.844.351-.216.735-.3 1.146-.34.394-.037.878-.037 1.46-.037h1.104c.836 0 1.533 0 2.086.074Zm-2.367 5.74c-.48 0-.719 0-.888-.12a.652.652 0 0 1-.155-.155c-.12-.169-.12-.409-.12-.888 0-.48 0-.72.12-.889a.652.652 0 0 1 .155-.154c.169-.12.409-.12.888-.12.48 0 .72 0 .889.12.06.043.111.095.154.154.12.17.12.41.12.889 0 .48 0 .719-.12.888a.652.652 0 0 1-.154.155c-.17.12-.41.12-.889.12Z" clip-rule="evenodd"/>
    <path d="M12.698 16.616v.035h1.395c0-.668 0-1.116.036-1.458.033-.33.093-.482.16-.583a1.16 1.16 0 0 1 .32-.321c.102-.067.254-.127.584-.16.342-.035.79-.036 1.458-.036h1.86v-1.395h-1.895c-.623 0-1.143 0-1.564.042-.44.045-.849.143-1.217.389-.28.186-.52.426-.706.706-.246.368-.344.777-.389 1.217-.042.42-.042.94-.042 1.564ZM22 18.535v-.023h-1.395c0 .443 0 .74-.016.97-.016.224-.043.333-.073.405a1.162 1.162 0 0 1-.63.63c-.07.029-.18.056-.404.072-.23.015-.527.016-.97.016h-1.86V22h1.883c.414 0 .759 0 1.042-.02a2.62 2.62 0 0 0 .844-.175 2.559 2.559 0 0 0 1.384-1.384c.112-.27.156-.549.176-.844.019-.283.019-.628.019-1.042Zm-7.907 2.767a.698.698 0 1 1-1.395 0v-2.79h1.395v2.79Zm7.209-8.604a.698.698 0 0 0-.697.697v3.256H22v-3.256a.698.698 0 0 0-.698-.697Zm-5.226 3.919c-.076.184-.076.417-.076.883s0 .699.076.883a1 1 0 0 0 .541.54c.184.077.417.077.883.077s.699 0 .883-.076a1 1 0 0 0 .54-.541c.077-.184.077-.417.077-.883s0-.699-.076-.883a1 1 0 0 0-.541-.54C18.199 16 17.966 16 17.5 16s-.699 0-.883.076a1 1 0 0 0-.54.541Z"/>
  </g>
</svg>
