<svg xmlns="http://www.w3.org/2000/svg" width="24" height="24" fill="none">
  <path stroke="#1C274C" stroke-width="1.5" d="M2 16.9c0-1.31 0-1.964.295-2.445a2 2 0 0 1 .66-.66c.48-.295 1.136-.295 2.445-.295h1.1c1.886 0 2.828 0 3.414.586.586.586.586 1.528.586 3.414v1.1c0 1.31 0 1.964-.295 2.445a2 2 0 0 1-.66.66C9.065 22 8.409 22 7.1 22c-1.964 0-2.946 0-3.667-.442a3 3 0 0 1-.99-.99C2 19.845 2 18.863 2 16.9ZM13.5 5.4c0-1.31 0-1.964.295-2.445a2 2 0 0 1 .66-.66C14.935 2 15.591 2 16.9 2c1.964 0 2.946 0 3.668.442a3 3 0 0 1 .99.99C22 4.155 22 5.136 22 7.1c0 1.31 0 1.964-.295 2.445a2 2 0 0 1-.66.66c-.48.295-1.136.295-2.445.295h-1.1c-1.886 0-2.828 0-3.414-.586C13.5 9.328 13.5 8.386 13.5 6.5V5.4Z"/>
  <path fill="#1C274C" d="M16.5 6.25c0-.515 0-.773.13-.955a.7.7 0 0 1 .165-.166C16.977 5 17.235 5 17.75 5c.515 0 .773 0 .955.13a.7.7 0 0 1 .166.165c.129.182.129.44.129.955 0 .515 0 .773-.13.955a.7.7 0 0 1-.165.166c-.182.129-.44.129-.955.129-.515 0-.773 0-.955-.13a.7.7 0 0 1-.166-.165c-.129-.182-.129-.44-.129-.955Z" opacity=".5"/>
  <path stroke="#1C274C" stroke-width="1.5" d="M19 13.5h-2c-1.405 0-2.107 0-2.611.337a1.999 1.999 0 0 0-.552.552c-.337.504-.337 1.207-.337 2.611"/>
  <path fill="#1C274C" d="M12.75 22a.75.75 0 0 0 1.5 0h-1.5Zm0-3v3h1.5v-3h-1.5Z" opacity=".5"/>
  <path stroke="#1C274C" stroke-linejoin="round" stroke-width="1.5" d="M17 22h2c.932 0 1.398 0 1.765-.152a2 2 0 0 0 1.083-1.083C22 20.398 22 19.932 22 19"/>
  <path fill="#1C274C" d="M22.75 13.5a.75.75 0 0 0-1.5 0h1.5Zm0 3.5v-3.5h-1.5V17h1.5Z" opacity=".5"/>
  <path stroke="#1C274C" stroke-width="1.5" d="M2 7.1c0-1.964 0-2.946.442-3.667a3 3 0 0 1 .99-.99C4.155 2 5.136 2 7.1 2c1.31 0 1.964 0 2.445.295a2 2 0 0 1 .66.66c.295.48.295 1.136.295 2.445v1.1c0 1.886 0 2.828-.586 3.414-.586.586-1.528.586-3.414.586H5.4c-1.31 0-1.964 0-2.445-.295a2 2 0 0 1-.66-.66C2 9.065 2 8.409 2 7.1Z"/>
  <path fill="#1C274C" d="M5 6.25c0-.515 0-.773.13-.955a.7.7 0 0 1 .165-.166C5.477 5 5.735 5 6.25 5c.515 0 .773 0 .955.13a.7.7 0 0 1 .166.165c.129.182.129.44.129.955 0 .515 0 .773-.13.955a.7.7 0 0 1-.165.166c-.182.129-.44.129-.955.129-.515 0-.773 0-.955-.13a.7.7 0 0 1-.166-.165C5 7.023 5 6.765 5 6.25Zm0 11.5c0-.515 0-.773.13-.955a.7.7 0 0 1 .165-.166c.182-.129.44-.129.955-.129.515 0 .773 0 .955.13a.7.7 0 0 1 .166.165c.129.182.129.44.129.955 0 .515 0 .773-.13.955a.7.7 0 0 1-.165.166C7.023 19 6.765 19 6.25 19c-.515 0-.773 0-.955-.13a.7.7 0 0 1-.166-.165C5 18.523 5 18.265 5 17.75Zm11 0c0-.702 0-1.053.169-1.306a1 1 0 0 1 .275-.275C16.697 16 17.048 16 17.75 16c.702 0 1.053 0 1.306.169a1 1 0 0 1 .275.275c.169.253.169.604.169 1.306 0 .702 0 1.053-.169 1.306a1 1 0 0 1-.275.275c-.253.169-.604.169-1.306.169-.702 0-1.053 0-1.306-.169a1 1 0 0 1-.275-.275C16 18.803 16 18.452 16 17.75Z" opacity=".5"/>
</svg>
