<svg xmlns="http://www.w3.org/2000/svg" width="24" height="24" fill="none">
  <g fill="#1C274C">
    <path d="M5.13 5.295C5 5.477 5 5.735 5 6.25c0 .515 0 .773.13.955a.7.7 0 0 0 .165.166c.182.129.44.129.955.129.515 0 .773 0 .955-.13a.7.7 0 0 0 .166-.165c.129-.182.129-.44.129-.955 0-.515 0-.773-.13-.955a.7.7 0 0 0-.165-.166C7.023 5 6.765 5 6.25 5c-.515 0-.773 0-.955.13a.7.7 0 0 0-.166.165Z"/>
    <path fill-rule="evenodd" d="M8.704 1.29c.443.042.855.134 1.233.365.37.227.681.538.908.908.231.378.323.79.365 1.233.04.423.04.944.04 1.568v1.188c0 .898 0 1.648-.08 2.242-.084.628-.27 1.195-.726 1.65-.455.456-1.022.642-1.65.726-.594.08-1.344.08-2.242.08H5.364c-.624 0-1.145 0-1.568-.04-.443-.042-.855-.134-1.233-.365a2.75 2.75 0 0 1-.908-.908c-.231-.378-.323-.79-.365-1.233-.04-.423-.04-.944-.04-1.568v-.074c0-.95 0-1.716.059-2.333.06-.636.188-1.19.494-1.688A3.75 3.75 0 0 1 3.04 1.803c.498-.306 1.052-.434 1.688-.494.617-.059 1.383-.059 2.333-.059h.074c.624 0 1.145 0 1.568.04Zm-.142 1.493C8.218 2.751 7.77 2.75 7.1 2.75c-.997 0-1.691 0-2.229.052-.526.05-.824.143-1.047.28a2.25 2.25 0 0 0-.742.742c-.137.223-.23.521-.28 1.047C2.75 5.41 2.75 6.103 2.75 7.1c0 .67 0 1.118.033 1.462.032.333.088.488.151.591.103.168.245.31.413.413.103.063.258.119.59.15.345.033.794.034 1.463.034h1.1c.964 0 1.612-.002 2.095-.067.461-.062.659-.169.789-.3.13-.13.237-.327.3-.788.064-.483.066-1.131.066-2.095V5.4c0-.67 0-1.118-.033-1.462-.032-.333-.088-.488-.151-.591a1.25 1.25 0 0 0-.413-.413c-.103-.063-.258-.119-.59-.15Z" clip-rule="evenodd"/>
    <path d="M16.63 5.295c-.13.182-.13.44-.13.955 0 .515 0 .773.13.955a.7.7 0 0 0 .165.166c.182.129.44.129.955.129.515 0 .773 0 .955-.13a.7.7 0 0 0 .166-.165C19 7.023 19 6.765 19 6.25c0-.515 0-.773-.13-.955a.701.701 0 0 0-.165-.166C18.523 5 18.265 5 17.75 5c-.515 0-.773 0-.955.13a.701.701 0 0 0-.166.165Z"/>
    <path fill-rule="evenodd" d="M16.864 1.25h.074c.95 0 1.716 0 2.333.059.636.06 1.19.188 1.688.494.505.309.93.733 1.238 1.238.306.498.434 1.052.494 1.688.059.617.059 1.383.059 2.333v.074c0 .624 0 1.145-.04 1.568-.042.443-.134.855-.365 1.233-.227.37-.538.681-.908.908-.378.231-.79.323-1.233.365-.423.04-.944.04-1.568.04h-1.188c-.899 0-1.648 0-2.242-.08-.628-.084-1.195-.27-1.65-.726-.456-.455-.642-1.022-.726-1.65-.08-.594-.08-1.344-.08-2.242V5.364c0-.624 0-1.145.04-1.568.042-.443.134-.855.365-1.233a2.75 2.75 0 0 1 .908-.908c.378-.231.79-.323 1.233-.365.423-.04.944-.04 1.568-.04Zm-1.426 1.533c-.333.032-.488.088-.591.151a1.25 1.25 0 0 0-.413.413c-.063.103-.119.258-.15.59-.033.345-.034.794-.034 1.463v1.1c0 .964.002 1.612.066 2.095.063.461.17.659.3.789.13.13.328.237.79.3.482.064 1.13.066 2.094.066h1.1c.67 0 1.118 0 1.462-.033.333-.032.488-.088.591-.151a1.25 1.25 0 0 0 .413-.413c.063-.103.119-.258.15-.59.033-.345.034-.794.034-1.463 0-.997 0-1.691-.052-2.229-.05-.526-.143-.824-.28-1.047a2.25 2.25 0 0 0-.742-.742c-.223-.137-.521-.23-1.047-.28-.538-.051-1.232-.052-2.229-.052-.67 0-1.118 0-1.462.033Z" clip-rule="evenodd"/>
    <path d="M5 17.75c0-.515 0-.773.13-.955a.701.701 0 0 1 .165-.166c.182-.129.44-.129.955-.129.515 0 .773 0 .955.13a.7.7 0 0 1 .166.165c.129.182.129.44.129.955 0 .515 0 .773-.13.955a.7.7 0 0 1-.165.166C7.023 19 6.765 19 6.25 19c-.515 0-.773 0-.955-.13a.701.701 0 0 1-.166-.165C5 18.523 5 18.265 5 17.75Z"/>
    <path fill-rule="evenodd" d="M8.794 12.83c.628.084 1.195.27 1.65.726.456.455.642 1.022.726 1.65.08.594.08 1.343.08 2.242v1.188c0 .624 0 1.145-.04 1.568-.042.442-.134.855-.365 1.233-.227.37-.538.681-.908.908-.378.232-.79.323-1.233.365-.423.04-.944.04-1.568.04h-.074c-.95 0-1.716 0-2.333-.059-.636-.06-1.19-.188-1.688-.494a3.75 3.75 0 0 1-1.238-1.238c-.306-.498-.434-1.052-.494-1.688-.059-.617-.059-1.383-.059-2.333v-.074c0-.624 0-1.145.04-1.568.042-.442.134-.855.365-1.233a2.75 2.75 0 0 1 .908-.908c.378-.231.79-.323 1.233-.365.423-.04.944-.04 1.568-.04h1.188c.898 0 1.648 0 2.242.08Zm-.2 1.486c-.482-.064-1.13-.066-2.094-.066H5.4c-.67 0-1.118 0-1.462.034-.333.031-.488.087-.591.15a1.25 1.25 0 0 0-.413.413c-.063.103-.119.258-.15.59-.033.345-.034.794-.034 1.463 0 .997 0 1.691.052 2.229.05.526.143.824.28 1.047.185.302.44.557.742.742.223.137.521.23 1.047.28.538.051 1.232.052 2.229.052.67 0 1.118 0 1.462-.034.333-.031.488-.087.591-.15a1.25 1.25 0 0 0 .413-.413c.063-.103.119-.258.15-.59.033-.345.034-.794.034-1.463v-1.1c0-.964-.002-1.612-.067-2.095-.062-.461-.169-.659-.3-.789-.13-.13-.327-.237-.788-.3Z" clip-rule="evenodd"/>
    <path d="M16.962 12.75H19v1.5h-2c-.718 0-1.2 0-1.567.038-.355.036-.519.1-.627.173a1.252 1.252 0 0 0-.345.345c-.073.108-.137.272-.173.627-.037.367-.038.85-.038 1.567h-1.5v-.038c0-.67 0-1.229.046-1.681.048-.474.153-.913.418-1.309.2-.3.458-.558.758-.758.396-.265.835-.37 1.309-.418.452-.046 1.011-.046 1.68-.046ZM12.75 22v-3h1.5v3a.75.75 0 0 1-1.5 0Zm10-8.5a.75.75 0 0 0-1.5 0V17h1.5v-3.5Zm-1.5 5.5c0 .476 0 .796-.017 1.043-.017.241-.046.358-.078.435a1.25 1.25 0 0 1-.677.677c-.077.032-.194.061-.435.078-.247.017-.567.017-1.043.017h-2v1.5h2.025c.445 0 .816 0 1.12-.02.317-.022.617-.069.907-.19a2.75 2.75 0 0 0 1.489-1.488c.12-.29.167-.59.188-.907.021-.304.021-.675.021-1.12V19h-1.5Zm-5.081-2.556C16 16.697 16 17.048 16 17.75c0 .702 0 1.053.169 1.306a1 1 0 0 0 .275.275c.253.169.604.169 1.306.169.702 0 1.053 0 1.306-.169a1 1 0 0 0 .275-.275c.169-.253.169-.604.169-1.306 0-.702 0-1.053-.169-1.306a1 1 0 0 0-.275-.275C18.803 16 18.452 16 17.75 16c-.702 0-1.053 0-1.306.169a1 1 0 0 0-.275.275Z"/>
  </g>
</svg>
