<svg xmlns="http://www.w3.org/2000/svg" width="24" height="24" fill="none">
  <path stroke="#1C274C" stroke-linecap="round" stroke-width="1.5" d="M10.125 8.875a1.875 1.875 0 1 1 2.828 1.615c-.475.281-.953.708-.953 1.26V13"/>
  <circle cx="12" cy="16" r="1" fill="#1C274C"/>
  <path stroke="#1C274C" stroke-linecap="round" stroke-width="1.5" d="M22 12c0 4.714 0 7.071-1.465 8.535C19.072 22 16.714 22 12 22s-7.071 0-8.536-1.465C2 19.072 2 16.714 2 12s0-7.071 1.464-8.536C4.93 2 7.286 2 12 2c4.714 0 7.071 0 8.535 1.464.974.974 1.3 2.343 1.41 4.536"/>
</svg>
