<svg xmlns="http://www.w3.org/2000/svg" width="24" height="24" fill="none">
  <path fill="#1C274C" fill-rule="evenodd" d="M3.464 3.464C2 4.93 2 7.286 2 12c0 4.714 0 7.071 1.464 8.535C4.93 22 7.286 22 12 22c4.714 0 7.071 0 8.535-1.465C22 19.072 22 16.714 22 12s0-7.071-1.465-8.536C19.072 2 16.714 2 12 2S4.929 2 3.464 3.464Zm6.54 1.787a.75.75 0 0 1 .743.756c-.007.851-.033 1.577-.151 2.18-.122.623-.352 1.166-.798 1.612-.446.446-.99.676-1.613.798-.602.118-1.328.144-2.179.151a.75.75 0 1 1-.012-1.5c.856-.007 1.453-.035 1.903-.123.429-.084.666-.212.84-.387.175-.174.303-.411.387-.84.088-.45.116-1.048.123-1.903a.75.75 0 0 1 .757-.744Zm3.99 0a.75.75 0 0 1 .756.744c.007.855.035 1.453.123 1.903.084.429.213.666.387.84.174.175.411.303.84.387.45.088 1.048.116 1.904.123a.75.75 0 0 1-.013 1.5c-.85-.007-1.577-.033-2.18-.151-.623-.122-1.166-.352-1.612-.798-.446-.446-.675-.99-.798-1.613-.118-.602-.144-1.328-.151-2.179a.75.75 0 0 1 .743-.756Zm-7.988 8a.75.75 0 0 0-.012 1.5c.856.007 1.453.035 1.903.123.429.084.666.212.84.386.175.175.303.412.387.84.088.45.116 1.048.123 1.904a.75.75 0 0 0 1.5-.013c-.007-.85-.033-1.576-.151-2.179-.122-.623-.352-1.166-.798-1.612-.446-.446-.99-.676-1.613-.798-.602-.118-1.328-.144-2.179-.152Zm12.741.743a.75.75 0 0 1-.743.756c-.856.008-1.454.036-1.904.124-.429.084-.666.212-.84.386-.175.175-.303.412-.387.84-.088.45-.116 1.048-.123 1.904a.75.75 0 1 1-1.5-.013c.007-.85.033-1.576.151-2.179.123-.623.352-1.166.798-1.612.446-.446.99-.676 1.613-.798.602-.118 1.328-.144 2.179-.152a.75.75 0 0 1 .756.744Z" clip-rule="evenodd"/>
</svg>
