<svg xmlns="http://www.w3.org/2000/svg" width="24" height="24" fill="none">
  <path fill="#1C274C" fill-rule="evenodd" d="M12 2.75a9.25 9.25 0 1 0 0 18.5 9.25 9.25 0 0 0 0-18.5ZM1.25 12C1.25 6.063 6.063 1.25 12 1.25S22.75 6.063 22.75 12 17.937 22.75 12 22.75 1.25 17.937 1.25 12Zm8.754-6.75a.75.75 0 0 1 .744.757c-.008.85-.034 1.576-.152 2.179-.122.623-.352 1.166-.798 1.612-.446.446-.99.676-1.612.798-.603.118-1.329.144-2.18.152a.75.75 0 1 1-.012-1.5c.856-.008 1.453-.036 1.903-.124.429-.084.666-.212.84-.386.175-.175.303-.412.387-.84.088-.45.116-1.048.124-1.904a.75.75 0 0 1 .756-.744Zm3.99 0a.75.75 0 0 1 .756.744c.007.856.036 1.453.124 1.903.084.429.212.666.386.84.174.175.412.303.84.387.45.088 1.048.116 1.904.124a.75.75 0 0 1-.013 1.5c-.85-.008-1.577-.034-2.179-.152-.623-.122-1.167-.352-1.613-.798-.446-.446-.675-.99-.797-1.612-.118-.603-.145-1.329-.152-2.18a.75.75 0 0 1 .744-.756ZM5.25 13.994a.75.75 0 0 1 .757-.744c.85.007 1.576.034 2.179.152.623.122 1.166.351 1.612.797.446.446.676.99.798 1.613.118.602.144 1.328.152 2.179a.75.75 0 0 1-1.5.013c-.008-.856-.036-1.454-.124-1.904-.084-.428-.212-.666-.386-.84-.175-.174-.412-.302-.84-.386-.45-.088-1.048-.117-1.904-.124a.75.75 0 0 1-.744-.756Zm13.497 0a.75.75 0 0 1-.743.756c-.856.007-1.454.036-1.904.124-.428.084-.666.212-.84.386-.174.174-.302.412-.386.84-.088.45-.117 1.048-.124 1.904a.75.75 0 0 1-1.5-.013c.007-.85.034-1.577.152-2.179.122-.623.351-1.167.797-1.613.446-.446.99-.675 1.613-.797.602-.118 1.328-.145 2.179-.152a.75.75 0 0 1 .756.744Z" clip-rule="evenodd"/>
</svg>
