<svg xmlns="http://www.w3.org/2000/svg" width="24" height="24" fill="none">
  <path fill="#1C274C" fill-rule="evenodd" d="M11.943 1.25h.114c2.309 0 4.118 0 5.53.19 1.444.194 2.584.6 3.479 1.494.895.895 1.3 2.035 1.494 3.48.19 1.411.19 3.22.19 5.529v.114c0 2.309 0 4.118-.19 5.53-.194 1.444-.6 2.584-1.494 3.479-.895.895-2.035 1.3-3.48 1.494-1.411.19-3.22.19-5.529.19h-.114c-2.309 0-4.118 0-5.53-.19-1.444-.194-2.584-.6-3.479-1.494-.895-.895-1.3-2.035-1.494-3.48-.19-1.411-.19-3.22-.19-5.529v-.114c0-2.309 0-4.118.19-5.53.194-1.444.6-2.584 1.494-3.479.895-.895 2.035-1.3 3.48-1.494 1.411-.19 3.22-.19 5.529-.19Zm-5.33 1.676c-1.278.172-2.049.5-2.618 1.069-.57.57-.897 1.34-1.069 2.619-.174 1.3-.176 3.008-.176 5.386s.002 4.086.176 5.386c.172 1.279.5 2.05 1.069 2.62.57.569 1.34.896 2.619 1.068 1.3.174 3.008.176 5.386.176s4.086-.002 5.386-.176c1.279-.172 2.05-.5 2.62-1.069.569-.57.896-1.34 1.068-2.619.174-1.3.176-3.008.176-5.386s-.002-4.086-.176-5.386c-.172-1.279-.5-2.05-1.069-2.62-.57-.569-1.34-.896-2.619-1.068-1.3-.174-3.008-.176-5.386-.176s-4.086.002-5.386.176Zm3.39 2.324a.75.75 0 0 1 .745.757c-.008.85-.034 1.576-.152 2.179-.122.623-.352 1.166-.798 1.612-.446.446-.99.676-1.612.798-.603.118-1.329.144-2.18.152a.75.75 0 1 1-.012-1.5c.856-.008 1.453-.036 1.903-.124.429-.084.666-.212.84-.386.175-.175.303-.412.387-.84.088-.45.116-1.048.124-1.904a.75.75 0 0 1 .756-.744Zm3.99 0a.75.75 0 0 1 .757.744c.007.856.036 1.453.124 1.903.084.429.212.666.386.84.174.175.412.303.84.387.45.088 1.048.116 1.904.124a.75.75 0 0 1-.013 1.5c-.85-.008-1.577-.034-2.179-.152-.623-.122-1.167-.352-1.613-.798-.446-.446-.675-.99-.797-1.612-.118-.603-.145-1.329-.152-2.18a.75.75 0 0 1 .744-.756ZM5.25 13.994a.75.75 0 0 1 .757-.744c.85.007 1.576.034 2.179.152.623.122 1.166.351 1.612.797.446.446.676.99.798 1.613.118.602.144 1.328.152 2.179a.75.75 0 0 1-1.5.013c-.008-.856-.036-1.454-.124-1.904-.084-.428-.212-.666-.386-.84-.175-.174-.412-.302-.84-.386-.45-.088-1.048-.117-1.904-.124a.75.75 0 0 1-.744-.756Zm13.497 0a.75.75 0 0 1-.743.756c-.856.007-1.454.036-1.904.124-.428.084-.666.212-.84.386-.174.174-.302.412-.386.84-.088.45-.117 1.048-.124 1.904a.75.75 0 0 1-1.5-.013c.007-.85.034-1.577.152-2.179.122-.623.351-1.167.797-1.613.446-.446.99-.675 1.613-.797.602-.118 1.328-.145 2.179-.152a.75.75 0 0 1 .756.744Z" clip-rule="evenodd"/>
</svg>
