<svg xmlns="http://www.w3.org/2000/svg" width="24" height="24" fill="none">
  <path fill="#1C274C" fill-rule="evenodd" d="M14.394 3.065a9.218 9.218 0 0 0-6.938.878.75.75 0 1 1-.737-1.306 10.718 10.718 0 0 1 8.064-1.021c5.734 1.537 9.138 7.431 7.6 13.166-1.536 5.735-7.43 9.138-13.165 7.601C3.483 20.847.08 14.952 1.617 9.217a10.74 10.74 0 0 1 1.392-3.115c.574-.875 1.732-.943 2.465-.35l6.998 5.665a.75.75 0 0 1-.944 1.166L4.53 6.918a.228.228 0 0 0-.168-.052.128.128 0 0 0-.099.059 9.24 9.24 0 0 0-1.198 2.68 9.25 9.25 0 1 0 11.33-6.54Z" clip-rule="evenodd"/>
</svg>
