<svg xmlns="http://www.w3.org/2000/svg" width="24" height="24" fill="none">
  <g fill="#1C274C">
    <circle cx="12" cy="12" r="10" opacity=".5"/>
    <path d="M15.5 9.75a1.25 1.25 0 1 1-2.5 0 1.25 1.25 0 0 1 2.5 0Zm-4.5 0a1.25 1.25 0 1 1-2.5 0 1.25 1.25 0 0 1 2.5 0ZM5.75 9a.75.75 0 1 1 0 1.5.75.75 0 0 1 0-1.5Zm4.75-3.25a.75.75 0 1 1-1.5 0 .75.75 0 0 1 1.5 0Zm4.5 0a.75.75 0 1 1-1.5 0 .75.75 0 0 1 1.5 0Zm4 4a.75.75 0 1 0-1.5 0 .75.75 0 0 0 1.5 0Zm0 4.5a.75.75 0 1 0-1.5 0 .75.75 0 0 0 1.5 0Zm-3.5 0a1.25 1.25 0 1 1-2.5 0 1.25 1.25 0 0 1 2.5 0ZM9.75 15.5a1.25 1.25 0 1 0 0-2.5 1.25 1.25 0 0 0 0 2.5Zm-4-2a.75.75 0 1 1 0 1.5.75.75 0 0 1 0-1.5Zm4.75 4.75a.75.75 0 1 1-1.5 0 .75.75 0 0 1 1.5 0Zm3.75.75a.75.75 0 1 0 0-1.5.75.75 0 0 0 0 1.5Z"/>
  </g>
</svg>
