<svg xmlns="http://www.w3.org/2000/svg" width="24" height="24" fill="none">
  <g fill="#1C274C">
    <path d="M5.75 14a2.25 2.25 0 1 1 4.5 0 2.25 2.25 0 0 1-4.5 0Z"/>
    <path fill-rule="evenodd" d="M15.32 3.679a.75.75 0 1 0-.64-1.357L6.768 6.046c-1.736.089-2.821.351-3.595 1.126C2 8.343 2 10.229 2 14c0 3.771 0 5.657 1.172 6.828C4.343 22 6.229 22 10 22h4c3.771 0 5.657 0 6.828-1.172C22 19.657 22 17.771 22 14c0-3.771 0-5.657-1.172-6.828C19.657 6 17.771 6 14 6h-3.613l4.932-2.321ZM8 10.25a3.75 3.75 0 1 0 0 7.5 3.75 3.75 0 0 0 0-7.5Zm4.75.75a.75.75 0 0 1 .75-.75H19a.75.75 0 0 1 0 1.5h-5.5a.75.75 0 0 1-.75-.75Zm.75 2.25a.75.75 0 0 0 0 1.5H19a.75.75 0 0 0 0-1.5h-5.5ZM12.75 17a.75.75 0 0 1 .75-.75H19a.75.75 0 0 1 0 1.5h-5.5a.75.75 0 0 1-.75-.75Z" clip-rule="evenodd"/>
  </g>
</svg>
