<svg xmlns="http://www.w3.org/2000/svg" width="24" height="24" fill="none">
  <g stroke="#1C274C" stroke-width="1.5">
    <path stroke-linecap="round" d="M12 9h5a2 2 0 1 1 0 4H7a2 2 0 1 1 0-4h1"/>
    <path d="M9 17a1.5 1.5 0 1 1-3 0 1.5 1.5 0 0 1 3 0Z"/>
    <path stroke-linecap="round" d="M15 11.5V13m-2 4h5M6.5 6 15 2m7 12c0 3.771 0 5.657-1.172 6.828C19.657 22 17.771 22 14 22h-4c-3.771 0-5.657 0-6.828-1.172C2 19.657 2 17.771 2 14c0-3.771 0-5.657 1.172-6.828C4.343 6 6.229 6 10 6h4c3.771 0 5.657 0 6.828 1.172.654.653.943 1.528 1.07 2.828"/>
  </g>
</svg>
