<svg xmlns="http://www.w3.org/2000/svg" width="24" height="24" fill="none">
  <path stroke="#1C274C" d="M15.5 14.25a1.25 1.25 0 1 1-2.5 0 1.25 1.25 0 0 1 2.5 0Zm0-4.5a1.25 1.25 0 1 1-2.5 0 1.25 1.25 0 0 1 2.5 0Zm-4.5 4.5a1.25 1.25 0 1 1-2.5 0 1.25 1.25 0 0 1 2.5 0Zm0-4.5a1.25 1.25 0 1 1-2.5 0 1.25 1.25 0 0 1 2.5 0Z"/>
  <path fill="#1C274C" d="M15 18.25a.75.75 0 1 1-1.5 0 .75.75 0 0 1 1.5 0Zm-4.5 0a.75.75 0 1 1-1.5 0 .75.75 0 0 1 1.5 0Z"/>
  <path fill="#1C274C" d="M15 18.25a.75.75 0 1 1-1.5 0 .75.75 0 0 1 1.5 0Zm0-12.5a.75.75 0 1 1-1.5 0 .75.75 0 0 1 1.5 0Zm-4.5 12.5a.75.75 0 1 1-1.5 0 .75.75 0 0 1 1.5 0Zm0-12.5a.75.75 0 1 1-1.5 0 .75.75 0 0 1 1.5 0ZM18.25 9a.75.75 0 1 1 0 1.5.75.75 0 0 1 0-1.5ZM5.75 9a.75.75 0 1 1 0 1.5.75.75 0 0 1 0-1.5Zm12.5 4.5a.75.75 0 1 1 0 1.5.75.75 0 0 1 0-1.5Zm-12.5 0a.75.75 0 1 1 0 1.5.75.75 0 0 1 0-1.5Z"/>
  <path stroke="#1C274C" stroke-linecap="round" stroke-width="1.5" d="M7 3.338A9.954 9.954 0 0 1 12 2c5.523 0 10 4.477 10 10s-4.477 10-10 10S2 17.523 2 12c0-1.821.487-3.53 1.338-5"/>
</svg>
