<svg xmlns="http://www.w3.org/2000/svg" width="24" height="24" fill="none">
  <path fill="#1C274C" fill-rule="evenodd" d="M12 3.034c-.058.101-.123.217-.199.354l-.098.176-.023.04c-.078.144-.208.382-.425.547-.221.168-.488.226-.643.26l-.044.009-.19.043c-.176.04-.319.072-.44.103.079.097.182.219.316.376l.13.152.03.034c.108.125.282.325.363.585.08.256.052.52.035.686a3.903 3.903 0 0 0-.005.047l-.02.203a35.76 35.76 0 0 0-.042.46c.105-.046.223-.1.364-.165l.179-.082.04-.02c.144-.067.393-.185.672-.185s.528.118.672.186l.04.019.179.082c.14.065.26.12.364.165a35.76 35.76 0 0 0-.042-.46l-.02-.203a3.903 3.903 0 0 0-.005-.047c-.017-.167-.045-.43.035-.686.08-.26.255-.46.363-.585l.03-.034.13-.152c.134-.157.237-.279.316-.376-.121-.03-.264-.063-.44-.103l-.19-.043-.044-.01c-.155-.033-.422-.091-.643-.26-.217-.164-.347-.402-.425-.545l-.023-.041-.098-.176c-.076-.137-.14-.253-.199-.354ZM11.014 1.8c.172-.225.484-.55.986-.55s.814.325.986.55c.165.214.33.511.5.816l.023.041.098.177.057.1.099.023.19.043.048.01c.327.075.653.148.903.247.276.109.65.32.795.785.142.455-.037.841-.193 1.09-.145.23-.365.486-.59.749l-.03.035-.13.153-.082.097c.002.036.007.078.012.135l.02.203.004.046c.034.352.067.692.055.964-.012.286-.08.718-.468 1.011-.4.304-.84.238-1.12.157-.258-.073-.563-.214-.87-.355l-.043-.02-.18-.083L12 8.185l-.085.04-.179.082-.044.02c-.306.141-.61.282-.869.355-.28.08-.72.147-1.12-.157-.387-.293-.456-.725-.468-1.01-.012-.273.02-.613.055-.965l.004-.046.02-.203.013-.135a9.85 9.85 0 0 0-.083-.097l-.13-.153-.03-.035c-.225-.263-.445-.52-.59-.75-.156-.248-.335-.634-.193-1.09.144-.463.519-.675.795-.784.25-.099.576-.172.903-.246l.047-.01.191-.044.1-.023.056-.1.098-.177.023-.041c.17-.305.335-.602.5-.816Zm-.063 7.45h2.098c.665 0 1.238 0 1.697.062.492.066.963.215 1.345.597s.531.853.597 1.345c.062.459.062 1.032.062 1.697v2.466c.164-.05.333-.082.504-.105.459-.062 1.032-.062 1.697-.062h.098c.665 0 1.238 0 1.697.062.492.066.963.215 1.345.597s.531.853.597 1.345c.062.459.062 1.032.062 1.697V22a.75.75 0 0 1-1.5 0v-3c0-.728-.002-1.2-.048-1.546-.044-.325-.115-.427-.172-.484-.057-.057-.159-.128-.484-.172-.347-.046-.818-.048-1.546-.048-.728 0-1.2.002-1.546.048-.325.044-.427.115-.484.172-.057.057-.128.159-.172.484-.046.347-.048.818-.048 1.546v3a.75.75 0 0 1-1.5 0v-9c0-.728-.002-1.2-.048-1.546-.044-.325-.115-.427-.172-.484-.057-.057-.159-.128-.484-.172-.347-.046-.818-.048-1.546-.048h-2c-.728 0-1.2.002-1.546.048-.325.044-.427.115-.484.172-.057.057-.128.159-.172.484-.046.347-.048.818-.048 1.546v9a.75.75 0 0 1-1.5 0c0-.728-.002-1.2-.048-1.546-.044-.325-.115-.427-.172-.484-.057-.057-.159-.128-.484-.172-.347-.046-.818-.048-1.546-.048-.728 0-1.2.002-1.546.048-.325.044-.427.115-.484.172-.057.057-.128.159-.172.484-.046.347-.048.818-.048 1.546a.75.75 0 0 1-1.5 0v-.05c0-.664 0-1.237.062-1.696.066-.492.215-.963.597-1.345s.854-.531 1.345-.597c.459-.062 1.032-.062 1.697-.062h.098c.665 0 1.238 0 1.697.062.171.023.34.056.504.105v-5.466c0-.665 0-1.238.062-1.697.066-.492.215-.963.597-1.345s.854-.531 1.345-.597c.459-.062 1.032-.062 1.697-.062Z" clip-rule="evenodd"/>
</svg>
