<svg xmlns="http://www.w3.org/2000/svg" width="24" height="24" fill="none">
  <g stroke="#1C274C" stroke-width="1.5">
    <path stroke-linecap="round" d="M12 22h10"/>
    <path d="M13.5 7.5a1.5 1.5 0 1 1-3 0 1.5 1.5 0 0 1 3 0Zm0 9a1.5 1.5 0 1 1-3 0 1.5 1.5 0 0 1 3 0Zm-6-6a1.5 1.5 0 1 1 0 3 1.5 1.5 0 0 1 0-3Zm9 0a1.5 1.5 0 1 1 0 3 1.5 1.5 0 0 1 0-3Z"/>
    <path stroke-linecap="round" d="M7 3.338A9.954 9.954 0 0 1 12 2c5.523 0 10 4.477 10 10s-4.477 10-10 10S2 17.523 2 12c0-1.821.487-3.53 1.338-5"/>
  </g>
</svg>
