<svg xmlns="http://www.w3.org/2000/svg" width="24" height="24" fill="none">
  <path fill="#1C274C" d="M3.68 11.333h-.75.75Zm0 1.667-.528.532a.75.75 0 0 0 1.056 0L3.68 13Zm2.208-1.134A.75.75 0 1 0 4.83 10.8l1.057 1.065ZM2.528 10.8a.75.75 0 0 0-1.056 1.065L2.528 10.8Zm16.088-3.408a.75.75 0 1 0 1.277-.786l-1.277.786Zm-1.723-3.785a.75.75 0 1 0-.786 1.277l.786-1.277Zm-4.43.151a.75.75 0 0 0 .074-1.498l-.074 1.498ZM12.08 2.25c-5.047 0-9.15 4.061-9.15 9.083h1.5c0-4.182 3.42-7.583 7.65-7.583v-1.5Zm-9.15 9.083V13h1.5v-1.667h-1.5Zm1.28 2.2 1.679-1.667L4.83 10.8l-1.68 1.667 1.057 1.064Zm0-1.065L2.528 10.8l-1.057 1.065 1.68 1.666 1.056-1.064Zm15.684-5.86a9.159 9.159 0 0 0-3-3l-.786 1.277a7.66 7.66 0 0 1 2.509 2.508l1.277-.786ZM12.537 2.26a9.36 9.36 0 0 0-.458-.011v1.5c.129 0 .257.003.384.01l.074-1.499ZM11.883 21v.75V21Zm8.43-8.333h.75-.75Zm0-1.667.528-.533a.75.75 0 0 0-1.055 0l.528.533ZM18.1 12.133a.75.75 0 1 0 1.055 1.067L18.1 12.133Zm3.373 1.067a.75.75 0 1 0 1.054-1.067L21.473 13.2ZM5.318 16.606a.75.75 0 1 0-1.277.788l1.277-.788Zm6.215 3.636a.75.75 0 0 0-.066 1.499l.066-1.499Zm-4.42.188a.75.75 0 0 0 .774-1.285l-.774 1.285Zm4.77 1.32c5.062 0 9.18-4.058 9.18-9.083h-1.5c0 4.18-3.43 7.583-7.68 7.583v1.5Zm9.18-9.083V11h-1.5v1.667h1.5Zm-1.277-2.2L18.1 12.133l1.055 1.067 1.686-1.667-1.055-1.066Zm0 1.066 1.687 1.667 1.054-1.067-1.686-1.666-1.055 1.066Zm-8.32 10.208c.139.006.277.009.417.009v-1.5a8.1 8.1 0 0 1-.35-.008l-.066 1.499Zm-7.425-4.347a9.177 9.177 0 0 0 3.072 3.036l.774-1.285a7.676 7.676 0 0 1-2.57-2.539l-1.276.788Z"/>
</svg>
