<svg xmlns="http://www.w3.org/2000/svg" width="24" height="24" fill="none">
  <path fill="#1C274C" fill-rule="evenodd" d="M2.93 11.2c.072-4.96 4.146-8.95 9.149-8.95a9.158 9.158 0 0 1 7.814 4.357.75.75 0 0 1-1.277.786 7.658 7.658 0 0 0-6.537-3.643c-4.185 0-7.575 3.328-7.648 7.448l.4-.397a.75.75 0 0 1 1.057 1.065l-1.68 1.666a.75.75 0 0 1-1.056 0l-1.68-1.666A.75.75 0 1 1 2.528 10.8l.403.4Zm16.856-.733a.75.75 0 0 1 1.055 0l1.686 1.666a.75.75 0 1 1-1.054 1.067l-.41-.405c-.07 4.965-4.161 8.955-9.18 8.955a9.197 9.197 0 0 1-7.842-4.356.75.75 0 1 1 1.277-.788 7.697 7.697 0 0 0 6.565 3.644c4.206 0 7.61-3.333 7.68-7.453l-.408.403a.75.75 0 1 1-1.055-1.067l1.686-1.666Z" clip-rule="evenodd"/>
</svg>
