<svg xmlns="http://www.w3.org/2000/svg" width="24" height="24" fill="none">
  <g fill="#1C274C">
    <path d="M12 22C6.477 22 2 17.523 2 12S6.477 2 12 2s10 4.477 10 10-4.477 10-10 10Z" opacity=".5"/>
    <path d="M10.564 7.461a.75.75 0 1 1 .871 1.22l-3.221 2.302a1.25 1.25 0 0 0 0 2.034l3.221 2.301a.75.75 0 1 1-.871 1.22l-3.222-2.3a2.75 2.75 0 0 1 0-4.476l3.222-2.301Z"/>
    <path d="M16.5 15.132V8.869a1 1 0 0 0-1.555-.832l-4.697 3.131a1 1 0 0 0 0 1.664l4.697 3.132a1 1 0 0 0 1.555-.832Z"/>
  </g>
</svg>
