<svg xmlns="http://www.w3.org/2000/svg" width="24" height="24" fill="none">
  <path fill="#1C274C" fill-rule="evenodd" d="m8.449 5.634.061.03c.637.3 1.257.608 1.81.908.414.226.85.48 1.293.75.16-.697.446-1.308 1.055-1.72.654-.442 1.34-.419 2.022-.198.615.199 1.337.594 2.176 1.053l.064.035a25.8 25.8 0 0 1 1.348.786c.47.298.976.65 1.479 1.02l.053.04c.85.623 1.567 1.15 2.06 1.667.538.563.88 1.184.88 1.995 0 .81-.342 1.432-.88 1.995-.493.518-1.21 1.044-2.06 1.668l-.053.04a26.32 26.32 0 0 1-1.48 1.018c-.412.261-.875.528-1.347.787l-.064.035c-.839.459-1.561.854-2.176 1.053-.683.22-1.368.243-2.022-.2-.609-.41-.895-1.02-1.054-1.718-.444.27-.88.524-1.294.75-.553.3-1.173.608-1.81.908l-.061.03c-1.158.545-2.114.996-2.917 1.22-.856.238-1.658.253-2.436-.2-.777-.452-1.16-1.152-1.375-2.01-.2-.804-.278-1.849-.373-3.113l-.005-.069A30.143 30.143 0 0 1 1.25 12c0-.682.037-1.435.093-2.195l.005-.068c.095-1.264.173-2.31.373-3.113.215-.858.598-1.559 1.375-2.01.778-.453 1.58-.438 2.436-.2.803.224 1.759.674 2.917 1.22Zm2.95 9.413a74.513 74.513 0 0 1-.076-1.106l-.004-.06A30 30 0 0 1 11.25 12c0-.585.027-1.23.069-1.881l.004-.06c.025-.394.049-.763.076-1.106A33.842 33.842 0 0 0 9.603 7.89a34.153 34.153 0 0 0-1.732-.87c-1.236-.582-2.076-.975-2.741-1.16-.626-.175-.972-.13-1.28.05-.309.18-.518.456-.673 1.078-.166.663-.237 1.579-.338 2.929-.055.737-.089 1.45-.089 2.083 0 .633.034 1.346.09 2.083.1 1.35.17 2.265.337 2.929.155.621.364.898.673 1.078.308.179.654.225 1.28.05.665-.185 1.505-.578 2.74-1.16.62-.293 1.214-.588 1.732-.87.56-.305 1.172-.67 1.797-1.063Zm2.83-8.216c-.412-.133-.575-.084-.722.015-.173.117-.325.317-.442.86-.122.567-.175 1.35-.25 2.509A28.5 28.5 0 0 0 12.75 12c0 .542.025 1.153.066 1.785.074 1.158.127 1.941.249 2.509.117.543.27.743.442.86.147.1.31.148.721.015.464-.15 1.06-.473 1.982-.977.455-.25.888-.5 1.266-.739.431-.272.907-.603 1.393-.96.918-.674 1.525-1.123 1.916-1.533.359-.376.465-.646.465-.96 0-.315-.106-.584-.465-.96-.39-.41-.998-.86-1.916-1.533a24.857 24.857 0 0 0-1.393-.96 23.82 23.82 0 0 0-1.266-.739c-.921-.504-1.518-.827-1.982-.977Z" clip-rule="evenodd"/>
</svg>
