<svg xmlns="http://www.w3.org/2000/svg" width="24" height="24" fill="none">
  <path fill="#1C274C" fill-rule="evenodd" d="M1.25 12C1.25 6.063 6.063 1.25 12 1.25a.75.75 0 0 1 .586 1.219l-2 2.5a.75.75 0 0 1-1.172-.938l.903-1.128A9.251 9.251 0 0 0 2.75 12 9.25 9.25 0 1 0 15.7 3.52a.75.75 0 0 1 .6-1.375A10.752 10.752 0 0 1 22.75 12c0 5.937-4.813 10.75-10.75 10.75S1.25 17.937 1.25 12Zm8.925-3.395a1.25 1.25 0 0 1 1.185-.855H14a.75.75 0 0 1 0 1.5h-2.46l-.5 1.5H12a2.75 2.75 0 1 1 0 5.5h-2a.75.75 0 0 1 0-1.5h2a1.25 1.25 0 1 0 0-2.5h-1.306a1.25 1.25 0 0 1-1.186-1.645l.667-2Zm.756 2.474Z" clip-rule="evenodd"/>
</svg>
