<svg xmlns="http://www.w3.org/2000/svg" width="24" height="24" fill="none">
  <g fill="#1C274C">
    <path fill-rule="evenodd" d="m8.754 6.277-.058-.027c-1.077-.493-1.966-.9-2.713-1.102-.796-.215-1.542-.229-2.266.18-.723.409-1.079 1.041-1.279 1.817-.186.725-.259 1.67-.347 2.81l-.004.063A26.445 26.445 0 0 0 2 12c0 .616.034 1.296.087 1.982l.004.062c.088 1.142.16 2.086.347 2.811.2.776.556 1.409 1.279 1.817.724.409 1.47.395 2.266.18.747-.202 1.636-.61 2.713-1.102l.058-.027a33.3 33.3 0 0 0 1.683-.82 29.46 29.46 0 0 0 1.204-.677V7.774a29.467 29.467 0 0 0-1.204-.676 33.528 33.528 0 0 0-1.683-.821Z" clip-rule="evenodd" opacity=".5"/>
    <path d="M12.621 6.222c-.566.371-.832.923-.98 1.552v8.452c.148.63.414 1.18.98 1.552.61.4 1.246.38 1.881.18.572-.18 1.244-.537 2.024-.951l.06-.032c.44-.234.87-.475 1.254-.71.437-.269.908-.587 1.375-.92l.05-.037c.791-.563 1.458-1.038 1.917-1.506.5-.509.818-1.07.818-1.802s-.318-1.293-.818-1.802c-.46-.468-1.126-.943-1.916-1.506l-.05-.036a24.521 24.521 0 0 0-1.376-.92 23.682 23.682 0 0 0-1.254-.71l-.06-.032c-.78-.415-1.452-.772-2.024-.952-.635-.2-1.272-.22-1.88.18Z"/>
  </g>
</svg>
