<svg xmlns="http://www.w3.org/2000/svg" width="24" height="24" fill="none">
  <path fill="#1C274C" d="m8.696 6.25.058.027a33.3 33.3 0 0 1 1.683.82c.386.204.791.434 1.204.677.148-.63.414-1.18.98-1.552.61-.4 1.246-.38 1.881-.18.572.18 1.244.537 2.024.952l.06.031c.44.234.87.475 1.254.71.437.269.907.587 1.375.92l.05.037c.791.563 1.458 1.038 1.917 1.506.5.509.818 1.07.818 1.802s-.318 1.293-.818 1.802c-.46.468-1.126.943-1.916 1.506l-.05.036c-.469.334-.939.652-1.376.92-.384.236-.815.477-1.254.71l-.06.032c-.78.415-1.452.772-2.024.952-.635.2-1.272.22-1.881-.18-.566-.371-.832-.923-.98-1.552a29.46 29.46 0 0 1-1.204.677 33.3 33.3 0 0 1-1.683.82l-.058.027c-1.077.493-1.966.9-2.713 1.102-.796.215-1.542.229-2.266-.18-.723-.409-1.079-1.041-1.279-1.817-.186-.725-.259-1.67-.347-2.81l-.004-.063A26.445 26.445 0 0 1 2 12c0-.616.034-1.296.087-1.982l.004-.062c.088-1.142.16-2.086.347-2.811.2-.776.556-1.408 1.279-1.817.724-.409 1.47-.395 2.266-.18.747.202 1.636.61 2.713 1.102Z"/>
</svg>
