<svg xmlns="http://www.w3.org/2000/svg" width="24" height="24" fill="none">
  <g fill="#1C274C">
    <path d="M10.175 8.605a1.25 1.25 0 0 1 1.185-.855H14a.75.75 0 0 1 0 1.5h-2.46l-.5 1.5H12a2.75 2.75 0 1 1 0 5.5h-2a.75.75 0 0 1 0-1.5h2a1.25 1.25 0 1 0 0-2.5h-1.306a1.25 1.25 0 0 1-1.186-1.645l.667-2Z"/>
    <path fill-rule="evenodd" d="M11.324 1.675A.75.75 0 0 1 12 1.25c.735 0 1.454.074 2.15.215 4.906.996 8.6 5.333 8.6 10.535 0 5.937-4.813 10.75-10.75 10.75S1.25 17.937 1.25 12c0-4.41 2.655-8.197 6.45-9.855a.75.75 0 1 1 .6 1.374A9.25 9.25 0 1 0 21.25 12a9.255 9.255 0 0 0-6.5-8.834V4.5a.75.75 0 0 1-1.336.469l-2-2.5a.75.75 0 0 1-.09-.794Z" clip-rule="evenodd" opacity=".5"/>
  </g>
</svg>
