<svg xmlns="http://www.w3.org/2000/svg" width="24" height="24" fill="none">
  <g fill="#1C274C">
    <path d="m7.58 15.008.53-.531-.53.53Zm0-5.477L7.05 9l.53.53Zm6.867 6.846-.53-.531.53.53Zm-5.494 0-.53.531.53-.531Zm2.747 1.936v.75-.75Zm8.594-7.765.53.53-.53-.53ZM13.427 3.7l.53.532-.53-.532Zm-1.208 14.52.26.704-.26-.704Zm-6.47-6.512.697.28-.696-.28Zm14.015-1.69-5.847 5.829 1.06 1.062 5.846-5.83-1.059-1.061ZM9.483 15.846l-1.374-1.37L7.05 15.54l1.374 1.37 1.059-1.063Zm-1.374-5.784 5.847-5.83-1.059-1.062L7.05 9l1.06 1.062Zm9.438-7.312h.569v-1.5h-.57v1.5Zm3.703 3.123v.567h1.5v-.567h-1.5ZM18.116 2.75c.936 0 1.564.002 2.031.064.446.06.633.163.755.284l1.059-1.062c-.447-.446-1.003-.626-1.614-.708-.59-.08-1.337-.078-2.231-.078v1.5Zm4.634 3.123c0-.892.002-1.636-.078-2.225-.082-.611-.264-1.166-.711-1.612L20.9 3.098c.122.121.225.307.285.75.063.466.064 1.09.064 2.025h1.5ZM8.11 14.477c-.663-.66-1.105-1.104-1.391-1.478-.273-.356-.331-.56-.331-.73h-1.5c0 .632.265 1.152.64 1.642.361.472.89.997 1.522 1.628l1.06-1.062Zm.314 2.431c.632.63 1.159 1.158 1.632 1.518.492.374 1.013.637 1.644.637v-1.5c-.173 0-.378-.059-.735-.33-.375-.286-.82-.727-1.482-1.387l-1.06 1.062Zm12.4-5.83c.798-.795 1.354-1.332 1.647-2.036l-1.385-.575c-.151.364-.436.667-1.322 1.55l1.06 1.062Zm.426-4.638c0 1.249-.013 1.663-.164 2.027l1.385.575c.292-.704.28-1.476.28-2.602h-1.5Zm-7.294-2.207c.886-.883 1.19-1.168 1.556-1.319l-.573-1.386c-.705.291-1.243.846-2.042 1.642l1.06 1.063Zm3.59-2.983c-1.129 0-1.902-.013-2.607.278l.572 1.386c.366-.15.784-.164 2.036-.164v-1.5Zm-3.629 14.596c-.511.51-.896.893-1.226 1.178-.332.287-.556.426-.731.491l.518 1.408c.428-.158.814-.436 1.193-.764.38-.328.808-.755 1.305-1.25l-1.059-1.063Zm-1.957 1.669a.729.729 0 0 1-.26.048v1.5c.27 0 .528-.048.778-.14l-.518-1.408ZM7.05 9c-.485.484-.904.901-1.23 1.272-.324.37-.6.745-.766 1.156l1.392.56c.07-.177.216-.4.502-.727.285-.325.663-.702 1.161-1.2L7.05 9Zm-1.996 2.428a2.23 2.23 0 0 0-.166.841h1.5c0-.09.016-.179.058-.282l-1.392-.56Z"/>
    <path d="m5.573 11.532.53-.53V11l-.53.532Zm4.347-4.11a.75.75 0 0 0 .811-1.261L9.92 7.422Zm-.224-1.035.406-.63-.406.63Zm-2.57-1.319.11-.742-.11.742Zm-4.9 2.956.529.53-.53-.53Zm3.113-2.727.288.692-.288-.692Zm-2.476 4.13-.276.697.276-.698Zm.123.049.286-.694-.286.694Zm1.627 1.098.53-.531-.53.53Zm-.095-.094-.522.539.522-.539ZM2.484 9.276l.277-.697-.277.697ZM12.5 18.5l-.53.53a.764.764 0 0 0 .036.034l.494-.564Zm5.324-5.268a.75.75 0 1 0-1.26.816l1.26-.816Zm-.224 1.035-.63.408.63-.408Zm1.323 2.562.742-.11-.742.11Zm-2.964 4.887.53.531-.53-.531Zm2.735-3.105.692.289-.692-.289Zm-3.945 2.964.697-.278-.697.278Zm-.474-1.092.657-.36-.657.36Zm-1.252-1.524.53-.531-.018-.017-.018-.016-.494.564Zm.818.866.59-.462-.59.462Zm2.034 1.975-.53-.531.53.53ZM10.73 6.16l-.629-.405-.812 1.261.63.405.811-1.261Zm-.629-.405c-.621-.4-1.123-.723-1.554-.956-.442-.238-.855-.406-1.312-.474L7.017 5.81c.22.033.46.117.819.31.368.2.814.485 1.454.897l.812-1.26Zm-7.346 2.8a56.608 56.608 0 0 1 1.71-1.659c.27-.247.518-.46.73-.623.223-.172.365-.256.432-.284l-.575-1.385c-.257.107-.527.291-.773.481-.258.2-.54.442-.826.703-.572.522-1.2 1.149-1.757 1.705l1.059 1.062Zm4.481-4.229a4.13 4.13 0 0 0-2.184.278l.575 1.385a2.63 2.63 0 0 1 1.39-.179l.22-1.484ZM2.208 9.974l.379.15.552-1.395-.378-.15-.553 1.395Zm1.875 1.13.96.959L6.104 11l-.96-.957-1.06 1.062Zm-1.496-.98.114.045.571-1.387-.133-.053-.552 1.395Zm2.555-.081-.101-.1-1.045 1.076c.02.018.039.038.087.086l1.06-1.062Zm-2.441.126a4.11 4.11 0 0 1 1.295.85l1.045-1.077a5.607 5.607 0 0 0-1.769-1.16l-.571 1.387ZM1.696 7.493a1.514 1.514 0 0 0 .512 2.48l.553-1.394a.03.03 0 0 1-.007-.004s-.003-.003-.003-.007V8.56s0-.002.004-.005l-1.06-1.062Zm14.869 6.554.406.628 1.259-.815-.406-.628-1.26.816Zm-1.136 7.138-.084.084 1.06 1.062.083-.084-1.059-1.062Zm1.542-6.51c.414.639.7 1.082.9 1.45.193.358.278.597.31.814l1.484-.22c-.068-.457-.238-.87-.476-1.31-.233-.43-.558-.93-.959-1.55l-1.26.816Zm-.483 7.572a57.458 57.458 0 0 0 1.71-1.753c.261-.285.505-.565.705-.822.19-.246.376-.515.483-.772l-1.384-.578a2.32 2.32 0 0 1-.285.43c-.163.212-.376.458-.624.728-.497.541-1.1 1.143-1.664 1.705l1.06 1.062Zm1.693-5.308c.068.456.008.935-.18 1.383l1.385.578a4.1 4.1 0 0 0 .279-2.181l-1.484.22Zm-4.664 1.456-.523-.459-.988 1.128.522.459.99-1.128Zm1.929 2.902c-.215-.538-.344-.865-.514-1.175l-1.315.722c.116.21.208.438.435 1.009l1.394-.556Zm-2.953-1.807c.436.434.61.61.758.798l1.18-.925c-.217-.278-.467-.526-.879-.935l-1.059 1.062Zm2.44.633a5.585 5.585 0 0 0-.502-.76l-1.18.925c.137.175.26.361.366.556l1.315-.722Zm.412 1.146a.067.067 0 0 1 .028-.016.046.046 0 0 1 .023-.002.058.058 0 0 1 .024.012.1.1 0 0 1 .026.034l-1.394.556c.384.963 1.632 1.196 2.352.478l-1.059-1.062ZM13.03 17.97l-.28-.281-1.062 1.06.282.282 1.06-1.06Zm-7.987-5.908.176.176 1.06-1.06L6.105 11l-1.061 1.061Zm5.813 2.108a.75.75 0 0 0-1.059-1.062l1.06 1.062Zm-2.06 2.054 2.06-2.054-1.059-1.062-2.06 2.054 1.06 1.062ZM16.664 9a1.196 1.196 0 0 1-1.688 0l-1.059 1.062a2.696 2.696 0 0 0 3.806 0L16.663 9Zm-1.688 0a1.182 1.182 0 0 1 0-1.676l-1.059-1.062a2.682 2.682 0 0 0 0 3.8L14.977 9Zm0-1.676a1.196 1.196 0 0 1 1.688 0l1.059-1.062a2.696 2.696 0 0 0-3.806 0l1.06 1.062Zm1.688 0a1.182 1.182 0 0 1 0 1.676l1.059 1.062a2.682 2.682 0 0 0 0-3.8l-1.06 1.062Z" opacity=".5"/>
  </g>
</svg>
