<svg xmlns="http://www.w3.org/2000/svg" width="24" height="24" fill="none">
  <g stroke="#1C274C" stroke-width="1.5">
    <path d="m13.157 17.013 3.856-3.856c1.454-1.454 2.18-2.181 2.18-3.085 0-.605-.326-1.131-.978-1.85-.322-.354-.723-.755-1.202-1.234-.48-.48-.881-.881-1.235-1.203-.719-.652-1.245-.979-1.85-.979-.904 0-1.63.727-3.085 2.182l-3.855 3.855c-1.455 1.454-2.182 2.181-2.182 3.085 0 .605.327 1.131.98 1.85.321.354.722.755 1.202 1.235.48.48.88.88 1.234 1.202.719.652 1.245.979 1.85.979.904 0 1.63-.727 3.085-2.181Z"/>
    <path d="m8.222 18.215-1.963 2.748a4.17 4.17 0 0 1-.156.213 2.181 2.181 0 0 1-3.169.262 5.75 5.75 0 0 1-.188-.184c-.098-.098-.147-.147-.184-.188a2.181 2.181 0 0 1 .262-3.17c.044-.034.1-.075.213-.155l2.748-1.963m12.43-7.556 2.748-1.963c.113-.08.169-.12.213-.156a2.181 2.181 0 0 0 .262-3.169 5.75 5.75 0 0 0-.184-.188c-.098-.098-.147-.147-.188-.184a2.181 2.181 0 0 0-3.17.262 5.84 5.84 0 0 0-.155.213l-1.963 2.748" opacity=".5"/>
  </g>
</svg>
