<svg xmlns="http://www.w3.org/2000/svg" width="24" height="24" fill="none">
  <g stroke="#1C274C" stroke-width="1.5">
    <circle cx="11" cy="11" r="9"/>
    <path stroke-linecap="round" d="M11 15a3 3 0 0 1-3-3v-2m3 5a3 3 0 0 0 3-3v-2m-3 5v-5m3 0a3 3 0 1 0-6 0m6 0H8m6.072 1H15.5m-9 0H8m6 2.5 1 .5m-7-.5L7 14m7-5.5 1-.5m-7 .5L7 8m14.812 12.975c-.063.095-.176.208-.403.434-.226.227-.34.34-.434.403a1.13 1.13 0 0 1-1.62-.408c-.053-.1-.099-.254-.19-.561-.101-.335-.151-.503-.161-.621a1.13 1.13 0 0 1 1.218-1.218c.118.01.285.06.621.16.307.092.46.138.56.192a1.13 1.13 0 0 1 .409 1.619Z"/>
  </g>
</svg>
