<svg xmlns="http://www.w3.org/2000/svg" width="24" height="24" fill="none">
  <g fill="#1C274C">
    <path d="M12 22c5.523 0 10-4.477 10-10S17.523 2 12 2 2 6.477 2 12s4.477 10 10 10Z" opacity=".5"/>
    <path d="M13.755 11.445a.75.75 0 1 0-1.01 1.11l1.315 1.195H8a.75.75 0 0 0 0 1.5h6.06l-1.315 1.195a.75.75 0 1 0 1.01 1.11l2.75-2.5a.75.75 0 0 0 0-1.11l-2.75-2.5Z"/>
    <path d="M11.255 7.555a.75.75 0 1 0-1.01-1.11l-2.75 2.5a.75.75 0 0 0 0 1.11l2.75 2.5a.75.75 0 0 0 1.01-1.11L9.94 10.25H16a.75.75 0 0 0 0-1.5H9.94l1.315-1.195Z"/>
  </g>
</svg>
