<svg xmlns="http://www.w3.org/2000/svg" width="24" height="24" fill="none">
  <path fill="#1C274C" d="M20.313 11.157a9.157 9.157 0 1 1-18.313 0 9.157 9.157 0 0 1 18.313 0Z"/>
  <path fill="#fff" fill-rule="evenodd" d="M8.024 11.157c0-.4.324-.723.723-.723h4.82a.723.723 0 0 1 0 1.446h-4.82a.723.723 0 0 1-.723-.723Z" clip-rule="evenodd"/>
  <path fill="#1C274C" fill-rule="evenodd" d="M18.838 18.838a.723.723 0 0 1 1.023 0l1.927 1.928a.723.723 0 0 1-1.022 1.022l-1.928-1.927a.723.723 0 0 1 0-1.023Z" clip-rule="evenodd"/>
</svg>
