<svg xmlns="http://www.w3.org/2000/svg" width="24" height="24" fill="none">
  <path fill="#1C274C" fill-rule="evenodd" d="M11 2.75a8.25 8.25 0 1 0 0 16.5 8.25 8.25 0 0 0 0-16.5ZM1.25 11c0-5.385 4.365-9.75 9.75-9.75s9.75 4.365 9.75 9.75-4.365 9.75-9.75 9.75S1.25 16.385 1.25 11Zm6.799-3.314A3.743 3.743 0 0 1 11 6.25c1.198 0 2.264.562 2.951 1.436l.714-.357a.75.75 0 1 1 .67 1.342l-.712.356c.083.31.127.637.127.973v.25h.75a.75.75 0 0 1 0 1.5h-.75V12c0 .336-.044.662-.127.973l.712.356a.75.75 0 1 1-.67 1.342l-.714-.357A3.743 3.743 0 0 1 11 15.75a3.743 3.743 0 0 1-2.951-1.436l-.714.357a.75.75 0 1 1-.67-1.342l.712-.356A3.756 3.756 0 0 1 7.25 12v-.25H6.5a.75.75 0 0 1 0-1.5h.75V10c0-.336.044-.663.127-.973l-.712-.356a.75.75 0 0 1 .67-1.342l.714.357Zm.701 3.064V12c0 .98.626 1.813 1.5 2.122V10.75h-1.5Zm3 0v3.372A2.251 2.251 0 0 0 13.25 12v-1.25h-1.5Zm1.372-1.5H8.878a2.25 2.25 0 0 1 4.244 0Zm7.036 10.501a.38.38 0 0 0-.407.407c0 .001.004.027.024.1.022.084.056.197.108.37.047.158.078.26.103.336.026.078.035.093.031.086a.38.38 0 0 0 .544.137c-.007.004.008-.005.067-.06.059-.056.134-.131.251-.248.117-.117.192-.192.247-.25.047-.05.06-.069.062-.07a.38.38 0 0 0-.137-.541c-.001 0-.022-.01-.087-.032a13.038 13.038 0 0 0-.336-.103 15.046 15.046 0 0 0-.37-.108.938.938 0 0 0-.1-.024Zm-1.902.532a1.88 1.88 0 0 1 2.027-2.027c.2.017.442.09.703.168l.072.022.065.02c.24.07.465.138.635.229a1.88 1.88 0 0 1 .68 2.694c-.107.16-.273.326-.45.503l-.048.048-.048.048c-.177.177-.343.343-.503.45a1.88 1.88 0 0 1-2.694-.68c-.091-.17-.158-.395-.23-.635a26.824 26.824 0 0 1-.02-.065l-.02-.072c-.08-.26-.152-.503-.169-.703Z" clip-rule="evenodd"/>
</svg>
