<svg xmlns="http://www.w3.org/2000/svg" width="24" height="24" fill="none">
  <circle cx="5" cy="5" r="3" stroke="#1C274C" stroke-width="1.5"/>
  <circle cx="19" cy="19" r="3" stroke="#1C274C" stroke-width="1.5"/>
  <path fill="#1C274C" d="M11 4.25a.75.75 0 0 0 0 1.5v-1.5ZM13 19l.53.53a.75.75 0 0 0 0-1.06L13 19Zm4.206-10.313.402.633-.402-.633ZM6.794 15.313l.403.632-.403-.632Zm5.236 1.657a.75.75 0 0 0-1.06 1.06l1.06-1.06Zm-1.06 3a.75.75 0 0 0 1.06 1.06l-1.06-1.06Zm-.567-6.064a.75.75 0 0 0-.806-1.266l.806 1.265Zm2.797-3.559a.75.75 0 0 0 .806 1.266l-.806-1.266Zm2.932-6.097H11v1.5h5.132v-1.5ZM13 18.25H7.868v1.5H13v-1.5Zm.53.22-1.5-1.5-1.06 1.06 1.5 1.5 1.06-1.06Zm-1.06 0-1.5 1.5 1.06 1.06 1.5-1.5-1.06-1.06Zm-4.602-.22c-1.25 0-1.726-1.633-.671-2.305l-.805-1.265c-2.321 1.477-1.275 5.07 1.476 5.07v-1.5Zm8.264-12.5c1.25 0 1.726 1.633.671 2.305l.805 1.265c2.321-1.477 1.275-5.07-1.476-5.07v1.5Zm-6.535 6.89-3.205 2.04.805 1.265 3.206-2.04-.806-1.265Zm7.206-4.585L13.2 10.347l.806 1.266 3.602-2.293-.805-1.265Z"/>
</svg>
