<svg xmlns="http://www.w3.org/2000/svg" width="24" height="24" fill="none">
  <g fill="#1C274C" fill-rule="evenodd" clip-rule="evenodd">
    <path d="M9.918 3.632c-.855.652-1.85 1.645-3.246 3.04-1.395 1.396-2.388 2.39-3.04 3.246-.64.838-.882 1.454-.882 2.082 0 .628.242 1.244.882 2.082.652.855 1.645 1.85 3.04 3.245 1.396 1.396 2.39 2.388 3.246 3.041.838.64 1.454.882 2.082.882.628 0 1.244-.242 2.082-.882.855-.652 1.85-1.645 3.245-3.04 1.396-1.396 2.388-2.39 3.041-3.246.64-.838.882-1.454.882-2.082 0-.628-.242-1.244-.882-2.082-.652-.855-1.645-1.85-3.04-3.246-1.396-1.395-2.39-2.388-3.246-3.04-.838-.64-1.454-.882-2.082-.882-.628 0-1.244.242-2.082.882Zm-.91-1.193C9.98 1.698 10.912 1.25 12 1.25s2.02.448 2.992 1.19c.945.72 2.01 1.785 3.356 3.132l.08.08c1.347 1.347 2.412 2.411 3.133 3.356.741.972 1.189 1.904 1.189 2.992s-.448 2.02-1.19 2.992c-.72.945-1.785 2.01-3.132 3.356l-.08.08c-1.347 1.347-2.411 2.412-3.356 3.133-.972.741-1.904 1.189-2.992 1.189s-2.02-.448-2.992-1.19c-.945-.72-2.01-1.785-3.356-3.132l-.08-.08c-1.347-1.347-2.412-2.411-3.133-3.356C1.698 14.02 1.25 13.088 1.25 12s.448-2.02 1.19-2.992c.72-.945 1.785-2.01 3.132-3.356l.08-.08C6.999 4.225 8.063 3.16 9.008 2.439Z"/>
    <path d="M12.786 8.487a.75.75 0 0 1 1.06-.034l2.667 2.5a.75.75 0 0 1 0 1.094l-2.667 2.5a.75.75 0 0 1-1.026-1.094l1.283-1.203h-3.436c-.334 0-.845.1-1.247.372-.363.245-.67.643-.67 1.378a.75.75 0 0 1-1.5 0c0-1.265.582-2.117 1.33-2.622.709-.478 1.532-.628 2.087-.628h3.436L12.82 9.547a.75.75 0 0 1-.034-1.06Z"/>
  </g>
</svg>
