<svg xmlns="http://www.w3.org/2000/svg" width="24" height="24" fill="none">
  <path fill="#1C274C" fill-rule="evenodd" d="M15.948 1.25h2.104c.899 0 1.648 0 2.242.08.628.084 1.195.27 1.65.725.456.456.642 1.023.726 1.65.08.595.08 1.345.08 2.243v12.104c0 .899 0 1.648-.08 2.242-.084.628-.27 1.195-.725 1.65-.456.456-1.023.642-1.65.726-.595.08-1.345.08-2.243.08h-2.104c-.899 0-1.648 0-2.242-.08-.628-.084-1.195-.27-1.65-.726-.456-.455-.642-1.022-.726-1.65-.08-.594-.08-1.343-.08-2.242V5.948c0-.898 0-1.648.08-2.242.084-.628.27-1.195.726-1.65.455-.456 1.022-.642 1.65-.726.594-.08 1.344-.08 2.242-.08Zm-3.198 8.5H15a.75.75 0 0 0 0-1.5h-2.25v-1.5H14a.75.75 0 0 0 0-1.5h-1.248c.004-.57.018-1 .064-1.345.063-.461.17-.659.3-.789.13-.13.328-.237.79-.3.482-.064 1.13-.066 2.094-.066h2c.964 0 1.612.002 2.095.067.461.062.659.169.789.3.13.13.237.327.3.788.064.483.066 1.131.066 2.095v12c0 .964-.002 1.612-.067 2.095-.062.461-.169.659-.3.789-.13.13-.327.237-.788.3-.483.064-1.131.066-2.095.066h-2c-.964 0-1.612-.002-2.095-.067-.461-.062-.659-.169-.789-.3-.13-.13-.237-.327-.3-.788-.046-.346-.06-.776-.064-1.345H14a.75.75 0 0 0 0-1.5h-1.25v-1.5H15a.75.75 0 0 0 0-1.5h-2.25v-1.5H14a.75.75 0 0 0 0-1.5h-1.25v-1.5Zm-11.5-4.9c0-2.024 1.716-3.6 3.75-3.6s3.75 1.576 3.75 3.6v10.735c0 .543 0 .884-.044 1.223-.052.4-.15.792-.29 1.17-.12.32-.28.625-.537 1.111l-1.492 2.835c-.273.52-.817.826-1.387.826-.57 0-1.114-.306-1.387-.826L2.12 19.09c-.256-.486-.417-.79-.536-1.111a5.302 5.302 0 0 1-.291-1.17c-.044-.339-.044-.68-.044-1.223V4.85ZM5 2.75c-1.28 0-2.25.976-2.25 2.1v.555c.096.057.217.123.36.189A4.53 4.53 0 0 0 5 6c.809 0 1.452-.205 1.89-.406.143-.066.264-.132.36-.189V4.85c0-1.124-.97-2.1-2.25-2.1Zm2.25 4.321A6.036 6.036 0 0 1 5 7.5c-.916 0-1.677-.2-2.25-.429v8.463c0 .61.001.85.031 1.08.038.286.107.567.209.84.082.22.195.436.482.982l.969 1.841h1.118l.97-1.841c.286-.546.399-.762.481-.983a3.81 3.81 0 0 0 .209-.838c.03-.231.031-.471.031-1.081V7.07ZM2.48 5.223l.001.002-.001-.002Zm5.038.002.002-.002-.002.002Z" clip-rule="evenodd"/>
</svg>
