<svg xmlns="http://www.w3.org/2000/svg" width="24" height="24" fill="none">
  <path fill="#1C274C" d="M13.254 19.424a.75.75 0 0 0-1.061 1.061l1.06-1.06Zm5.254.53.53.531-.53-.53ZM4.045 5.493l.53.53-.53-.53Zm-.53 6.315a.75.75 0 1 0 1.06-1.06l-1.06 1.06Zm7.762-7.762.53.53a.75.75 0 0 0 0-1.06l-.53.53Zm-5.785 0-.53-.53.53.53Zm14.463 8.678.53-.53a.75.75 0 0 0-1.06 0l.53.53Zm0 5.785-.53-.53.53.53ZM8.336 5.926a.75.75 0 0 0 1.06 1.06l-1.06-1.06Zm8.678 8.677a.75.75 0 0 0 1.06 1.061l-1.06-1.06ZM4.96 3.515 3.515 4.961l1.06 1.061 1.447-1.446-1.06-1.061Zm14.078 16.97 1.446-1.446-1.06-1.061-1.447 1.446 1.06 1.061Zm-6.846 0c.667.667 1.219 1.221 1.715 1.6.514.392 1.054.665 1.708.665v-1.5c-.194 0-.418-.068-.798-.358-.397-.303-.868-.77-1.564-1.468l-1.061 1.061Zm5.785-1.06c-.697.696-1.167 1.164-1.565 1.467-.38.29-.604.358-.797.358v1.5c.653 0 1.194-.273 1.707-.665.497-.379 1.049-.933 1.716-1.6l-1.061-1.06ZM3.515 4.96c-.667.667-1.221 1.22-1.6 1.716-.392.513-.665 1.054-.665 1.707h1.5c0-.193.068-.417.358-.797.303-.398.77-.868 1.468-1.565l-1.061-1.06Zm1.06 5.785C3.88 10.05 3.412 9.58 3.109 9.182c-.29-.38-.358-.604-.358-.798h-1.5c0 .654.273 1.194.665 1.708.379.496.933 1.048 1.6 1.715l1.06-1.06Zm7.232-7.231c-.667-.667-1.219-1.221-1.715-1.6-.514-.392-1.054-.665-1.708-.665v1.5c.194 0 .418.068.798.358.397.303.868.77 1.564 1.468l1.061-1.061Zm-5.785 1.06c.697-.696 1.167-1.164 1.565-1.467.38-.29.604-.358.797-.358v-1.5c-.653 0-1.194.273-1.707.665-.497.379-1.049.933-1.716 1.6l1.061 1.06Zm13.402 8.679c.697.696 1.165 1.167 1.468 1.564.29.38.358.604.358.798h1.5c0-.654-.273-1.194-.665-1.708-.379-.496-.933-1.048-1.6-1.715l-1.06 1.06Zm1.061 5.785c.667-.667 1.221-1.22 1.6-1.716.392-.513.665-1.054.665-1.707h-1.5c0 .193-.068.417-.358.797-.303.398-.77.868-1.468 1.565l1.061 1.06ZM10.746 3.515l-2.41 2.41 1.06 1.061 2.411-2.41-1.06-1.061Zm8.678 8.678-2.41 2.41 1.06 1.061 2.411-2.41-1.06-1.061Z" opacity=".5"/>
  <path stroke="#1C274C" stroke-width="1.5" d="M4.198 21.678 5 21.411l2.48-.827c.774-.258 1.16-.387 1.525-.56.43-.205.836-.456 1.211-.749.318-.248.607-.537 1.184-1.114l8.521-8.521.927-.927a3.932 3.932 0 0 0-5.561-5.561l-.927.927-8.521 8.52c-.577.578-.866.867-1.114 1.185a6.556 6.556 0 0 0-.749 1.211c-.173.364-.302.752-.56 1.526L2.589 19l-.267.802m1.876 1.876-.802.268a1.06 1.06 0 0 1-1.342-1.342l.268-.802m1.876 1.876-1.876-1.876"/>
  <path stroke="#1C274C" stroke-width="1.5" d="M14.36 4.079s.116 1.97 1.854 3.707C17.952 9.524 19.92 9.64 19.92 9.64" opacity=".5"/>
</svg>
