<svg xmlns="http://www.w3.org/2000/svg" width="24" height="24" fill="none">
  <g stroke="#1C274C" stroke-width="1.5">
    <path d="M4.045 18.508C2.682 17.145 2 16.463 2 15.616c0-.848.682-1.53 2.045-2.893l8.678-8.678C14.087 2.682 14.768 2 15.616 2c.847 0 1.529.682 2.892 2.045l1.447 1.447C21.318 6.855 22 7.537 22 8.384s-.682 1.53-2.045 2.893l-8.678 8.678C9.913 21.318 9.23 22 8.384 22s-1.529-.682-2.892-2.045l-1.447-1.447Z"/>
    <path stroke-linecap="round" d="M8.464 8.464 9.88 9.88m2.827-5.658 1.414 1.414m-9.899 7.071 1.414 1.414m.707-3.535 2.122 2.121m2.121-6.364 2.121 2.121" opacity=".5"/>
  </g>
</svg>
