<svg xmlns="http://www.w3.org/2000/svg" width="24" height="24" fill="none">
  <g fill="#1C274C">
    <path d="M3.464 20.535C4.93 22 7.286 22 12 22c4.714 0 7.071 0 8.535-1.465C22 19.072 22 16.714 22 12s0-7.071-1.465-8.536C19.072 2 16.714 2 12 2S4.929 2 3.464 3.464C2 4.93 2 7.286 2 12c0 4.714 0 7.071 1.464 8.535Z" opacity=".5"/>
    <path d="M8.397 17.447a.75.75 0 0 0 1.05.155A4.267 4.267 0 0 1 12 16.75a4.27 4.27 0 0 1 2.553.852.75.75 0 1 0 .894-1.204A5.766 5.766 0 0 0 12 15.25a5.766 5.766 0 0 0-3.447 1.148.75.75 0 0 0-.156 1.049ZM15 12c.552 0 1-.672 1-1.5S15.552 9 15 9s-1 .672-1 1.5.448 1.5 1 1.5Zm-6 0c.552 0 1-.672 1-1.5S9.552 9 9 9s-1 .672-1 1.5.448 1.5 1 1.5Z"/>
  </g>
</svg>
