<svg xmlns="http://www.w3.org/2000/svg" width="24" height="24" fill="none">
  <path fill="#1C274C" fill-rule="evenodd" d="M12.057 1.25h-.114c-2.309 0-4.118 0-5.53.19-1.444.194-2.584.6-3.479 1.494-.895.895-1.3 2.035-1.494 3.48-.19 1.411-.19 3.22-.19 5.529v.114c0 2.309 0 4.118.19 5.53.194 1.444.6 2.584 1.494 3.479.895.895 2.035 1.3 3.48 1.494 1.411.19 3.22.19 5.529.19h.114c2.309 0 4.118 0 5.53-.19 1.444-.194 2.584-.6 3.479-1.494.895-.895 1.3-2.035 1.494-3.48.19-1.411.19-3.22.19-5.529v-.114c0-2.309 0-4.118-.19-5.53-.194-1.444-.6-2.584-1.494-3.479-.895-.895-2.035-1.3-3.48-1.494-1.411-.19-3.22-.19-5.529-.19ZM3.995 3.995c.57-.57 1.34-.897 2.619-1.069 1.3-.174 3.008-.176 5.386-.176s4.086.002 5.386.176c1.279.172 2.05.5 2.62 1.069.569.57.896 1.34 1.068 2.619.174 1.3.176 3.008.176 5.386s-.002 4.086-.176 5.386c-.172 1.279-.5 2.05-1.069 2.62-.57.569-1.34.896-2.619 1.068-1.3.174-3.008.176-5.386.176s-4.086-.002-5.386-.176c-1.279-.172-2.05-.5-2.62-1.069-.569-.57-.896-1.34-1.068-2.619-.174-1.3-.176-3.008-.176-5.386s.002-4.086.176-5.386c.172-1.279.5-2.05 1.069-2.62Zm12.397.372c-.867-.117-1.97-.117-3.337-.117h-2.11c-1.367 0-2.47 0-3.337.117-.9.12-1.658.38-2.26.981a3.04 3.04 0 0 0-.634.933A.75.75 0 0 0 3.75 7v3a.75.75 0 0 0 .5.707v2.586a.75.75 0 0 0-.5.707v3a.75.75 0 0 0 .964.72c.151.342.356.654.634.932.602.602 1.36.86 2.26.982.867.116 1.97.116 3.337.116h2.11c1.367 0 2.47 0 3.337-.116.9-.122 1.658-.38 2.26-.982.602-.602.86-1.36.982-2.26.116-.867.116-1.97.116-3.337v-2.11c0-1.367 0-2.47-.116-3.337-.122-.9-.38-1.658-.982-2.26-.602-.602-1.36-.86-2.26-.981ZM6.409 6.409c.277-.277.665-.457 1.4-.556.754-.101 1.756-.103 3.191-.103h2c1.435 0 2.437.002 3.192.103.734.099 1.122.28 1.399.556.277.277.457.665.556 1.4.101.754.103 1.756.103 3.191v2c0 1.435-.002 2.437-.103 3.192-.099.734-.28 1.122-.556 1.399-.277.277-.665.457-1.4.556-.754.101-1.756.103-3.191.103h-2c-1.435 0-2.437-.002-3.192-.103-.734-.099-1.122-.28-1.399-.556-.277-.277-.457-.665-.556-1.4-.101-.754-.103-1.756-.103-3.191v-2c0-1.435.002-2.437.103-3.192.099-.734.28-1.122.556-1.399ZM12 7.25a4.75 4.75 0 1 0 0 9.5 4.75 4.75 0 0 0 0-9.5Zm0 8c-1.07 0-2.02-.517-2.611-1.315l1.712-.734c.25.188.562.299.899.299.337 0 .648-.111.899-.299l1.712.734A3.245 3.245 0 0 1 12 15.25Zm-.75-6.413a3.251 3.251 0 0 0-2.453 3.72l1.713-.735a1.5 1.5 0 0 1 .74-1.121V8.837Zm4 3.163c0 .19-.016.376-.047.556l-1.713-.734a1.5 1.5 0 0 0-.74-1.121V8.837A3.251 3.251 0 0 1 15.25 12Z" clip-rule="evenodd"/>
</svg>
