<svg xmlns="http://www.w3.org/2000/svg" width="24" height="24" fill="none">
  <path stroke="#1C274C" stroke-width="1.5" d="M2 12c0-4.714 0-7.071 1.464-8.536C4.93 2 7.286 2 12 2c4.714 0 7.071 0 8.535 1.464C22 4.93 22 7.286 22 12c0 4.714 0 7.071-1.465 8.535C19.072 22 16.714 22 12 22s-7.071 0-8.536-1.465C2 19.072 2 16.714 2 12Z"/>
  <path fill="#1C274C" d="M13.5 12a1.5 1.5 0 1 1-3 0 1.5 1.5 0 0 1 3 0Z"/>
  <path fill="#1C274C" d="M12 15.25A3.25 3.25 0 0 1 8.75 12h-1.5A4.75 4.75 0 0 0 12 16.75v-1.5ZM15.25 12A3.25 3.25 0 0 1 12 15.25v1.5A4.75 4.75 0 0 0 16.75 12h-1.5ZM12 8.75A3.25 3.25 0 0 1 15.25 12h1.5A4.75 4.75 0 0 0 12 7.25v1.5Zm0-1.5A4.75 4.75 0 0 0 7.25 12h1.5A3.25 3.25 0 0 1 12 8.75v-1.5Zm.75 4.75V8h-1.5v4h1.5Zm-1.045.69 3.5 1.5.59-1.38-3.5-1.5-.59 1.38Zm0-1.38-3.5 1.5.59 1.38 3.5-1.5-.59-1.38ZM5.25 7a.75.75 0 0 0-1.5 0h1.5Zm-1.5 3a.75.75 0 0 0 1.5 0h-1.5Zm1.5 4a.75.75 0 0 0-1.5 0h1.5Zm-1.5 3a.75.75 0 0 0 1.5 0h-1.5ZM11 5.75h2v-1.5h-2v1.5ZM18.25 11v2h1.5v-2h-1.5ZM13 18.25h-2v1.5h2v-1.5ZM5.75 13v-2h-1.5v2h1.5ZM11 18.25c-1.435 0-2.437-.002-3.192-.103-.734-.099-1.122-.28-1.399-.556l-1.06 1.06c.601.603 1.36.861 2.26.983.878.118 1.998.116 3.391.116v-1.5ZM4.25 13c0 1.393-.002 2.513.117 3.392.12.9.38 1.658.981 2.26L6.41 17.59c-.277-.277-.457-.665-.556-1.4-.101-.754-.103-1.756-.103-3.191h-1.5Zm14 0c0 1.435-.002 2.437-.103 3.192-.099.734-.28 1.122-.556 1.399l1.06 1.06c.603-.601.861-1.36.983-2.26.118-.878.116-1.998.116-3.391h-1.5ZM13 19.75c1.393 0 2.513.002 3.392-.116.9-.122 1.658-.38 2.26-.982L17.59 17.59c-.277.277-.665.457-1.4.556-.754.101-1.756.103-3.191.103v1.5Zm0-14c1.435 0 2.437.002 3.192.103.734.099 1.122.28 1.399.556l1.06-1.06c-.601-.603-1.36-.861-2.26-.982-.878-.119-1.998-.117-3.391-.117v1.5ZM19.75 11c0-1.393.002-2.513-.116-3.392-.122-.9-.38-1.658-.982-2.26L17.59 6.41c.277.277.457.665.556 1.4.101.754.103 1.756.103 3.191h1.5ZM11 4.25c-1.393 0-2.513-.002-3.392.117-.9.12-1.658.38-2.26.981L6.41 6.41c.277-.277.665-.457 1.4-.556.754-.101 1.756-.103 3.191-.103v-1.5ZM5.75 11c0-1.435.002-2.437.103-3.192.099-.734.28-1.122.556-1.399l-1.06-1.06c-.603.601-.861 1.36-.982 2.26-.119.878-.117 1.998-.117 3.391h1.5Zm-2-4v3h1.5V7h-1.5Zm0 7v3h1.5v-3h-1.5Z" opacity=".5"/>
</svg>
