<svg xmlns="http://www.w3.org/2000/svg" width="24" height="24" fill="none">
  <path fill="#1C274C" d="M13.864 5.783c-.313-.032-.72-.033-1.336-.033H12a.75.75 0 0 1 0-1.5h.565c.57 0 1.054 0 1.454.041.425.044.819.14 1.19.37.373.23.634.539.864.9.202.318.405.72.64 1.189h1.155c.284 0 .545 0 .762.02.235.02.49.069.738.21.272.155.497.38.652.652.141.248.19.503.21.738.02.217.02.478.02.762v.093c0 .26.001.538-.083.802a1.75 1.75 0 0 1-.25.494c-.162.224-.386.389-.596.542l-.052.039-.277.204.487.974a3.75 3.75 0 1 1-4.154 4.47h-5.15a3.751 3.751 0 0 1-7.352-.009A1.75 1.75 0 0 1 1.25 14.92v-.058c0-.335 0-.548.015-.735a4.75 4.75 0 0 1 4.362-4.362c.187-.015.4-.015.735-.015h.69c.898 0 1.648 0 2.242.08.628.084 1.195.27 1.65.726.456.455.642 1.022.726 1.65.08.594.08 1.344.08 2.242v.802h3.575a3.756 3.756 0 0 1 2.548-2.828l-2.438-4.875c-.276-.552-.458-.915-.628-1.18-.16-.252-.274-.361-.386-.43-.111-.07-.26-.123-.557-.154Z"/>
</svg>
