<svg xmlns="http://www.w3.org/2000/svg" width="24" height="24" fill="none">
  <g fill="#1C274C">
    <path d="M6.452 3.25c-.418 0-.685 0-.918.023a4.75 4.75 0 0 0-4.261 4.261c-.023.233-.023.5-.023.918V8.5a.75.75 0 1 0 1.5 0c0-.482 0-.669.016-.819A3.25 3.25 0 0 1 5.68 4.766c.15-.015.337-.016.819-.016H14c1.907 0 3.262.002 4.29.14 1.005.135 1.585.389 2.008.812.423.423.677 1.003.812 2.009.138 1.028.14 2.382.14 4.289 0 1.907-.002 3.261-.14 4.29-.135 1.005-.389 1.585-.812 2.008-.423.423-1.003.677-2.009.812-1.027.138-2.382.14-4.289.14a.75.75 0 0 0 0 1.5h.056c1.838 0 3.294 0 4.433-.153 1.172-.158 2.121-.49 2.87-1.238.748-.749 1.08-1.698 1.238-2.87.153-1.14.153-2.595.153-4.433v-.112c0-1.838 0-3.294-.153-4.433-.158-1.172-.49-2.121-1.238-2.87-.749-.748-1.698-1.08-2.87-1.238-1.14-.153-2.595-.153-4.433-.153H6.452Z"/>
    <path d="M2 10.25a.75.75 0 0 0 0 1.5A8.25 8.25 0 0 1 10.25 20a.75.75 0 0 0 1.5 0A9.75 9.75 0 0 0 2 10.25Z"/>
    <path d="M1.25 14a.75.75 0 0 1 .75-.75A6.75 6.75 0 0 1 8.75 20a.75.75 0 0 1-1.5 0c0-2.9-2.35-5.25-5.25-5.25a.75.75 0 0 1-.75-.75Z"/>
    <path d="M2 16.25a.75.75 0 0 0 0 1.5A2.25 2.25 0 0 1 4.25 20a.75.75 0 0 0 1.5 0A3.75 3.75 0 0 0 2 16.25Z"/>
  </g>
</svg>
