<svg xmlns="http://www.w3.org/2000/svg" width="24" height="24" fill="none">
  <g fill="#1C274C">
    <path d="M14 21h-4c-3.771 0-5.657 0-6.828-1.172C2 18.657 2 16.771 2 13v-.25h20V13c0 3.771 0 5.657-1.172 6.828C19.657 21 17.771 21 14 21ZM10 3h4c3.771 0 5.657 0 6.828 1.172C22 5.343 22 7.229 22 11v.25H2V11c0-3.771 0-5.657 1.172-6.828C4.343 3 6.229 3 10 3Z" opacity=".5"/>
    <path fill-rule="evenodd" d="M22 12.75H2v-1.5h20v1.5Z" clip-rule="evenodd"/>
    <path d="M12.75 16.5a.75.75 0 0 1 .75-.75H18a.75.75 0 0 1 0 1.5h-4.5a.75.75 0 0 1-.75-.75Zm0-9a.75.75 0 0 1 .75-.75H18a.75.75 0 0 1 0 1.5h-4.5a.75.75 0 0 1-.75-.75ZM6 18.25a.75.75 0 0 1-.75-.75v-2a.75.75 0 0 1 1.5 0v2a.75.75 0 0 1-.75.75Zm0-9a.75.75 0 0 1-.75-.75v-2a.75.75 0 0 1 1.5 0v2a.75.75 0 0 1-.75.75Zm3 9a.75.75 0 0 1-.75-.75v-2a.75.75 0 0 1 1.5 0v2a.75.75 0 0 1-.75.75Zm0-9a.75.75 0 0 1-.75-.75v-2a.75.75 0 0 1 1.5 0v2a.75.75 0 0 1-.75.75Z"/>
  </g>
</svg>
