<svg xmlns="http://www.w3.org/2000/svg" width="24" height="24" fill="none">
  <path fill="#1C274C" fill-rule="evenodd" d="M3.515 15.725c.272-.019.619-.02 1.117-.02h14.736c.498 0 .845.001 1.117.02.266.018.422.052.54.102.387.161.695.47.855.86.049.119.083.275.101.543.019.273.019.622.019 1.123 0 .5 0 .85-.019 1.123-.018.268-.052.424-.101.544-.16.389-.468.698-.855.86-.118.049-.274.083-.54.101-.272.019-.619.019-1.117.019H4.632c-.498 0-.845 0-1.116-.019-.267-.018-.423-.053-.541-.102a1.584 1.584 0 0 1-.855-.86c-.049-.119-.083-.275-.101-.543A18.385 18.385 0 0 1 2 18.353c0-.5 0-.85.019-1.123.018-.268.052-.424.101-.544.16-.389.468-.698.855-.86.118-.049.274-.083.54-.101Zm1.117 3.687c.58 0 1.052-.474 1.052-1.06 0-.584-.471-1.058-1.052-1.058-.582 0-1.053.474-1.053 1.059s.471 1.059 1.053 1.059Zm0-11.118c-.498 0-.845 0-1.116-.019-.267-.018-.423-.052-.541-.102a1.584 1.584 0 0 1-.855-.86c-.049-.119-.083-.275-.101-.543A18.383 18.383 0 0 1 2 5.647c0-.5 0-.85.019-1.123.018-.268.052-.424.101-.544.16-.389.468-.698.855-.86.118-.049.274-.083.54-.101A18.07 18.07 0 0 1 4.633 3h14.736c.498 0 .845 0 1.117.019.266.018.422.052.54.102.387.161.695.47.855.86.049.119.083.275.101.543.019.274.019.622.019 1.123 0 .5 0 .85-.019 1.123-.018.268-.052.424-.101.544-.16.389-.468.698-.855.86-.118.049-.274.083-.54.101a18.07 18.07 0 0 1-1.117.02H4.632Zm0 1.059c-.498 0-.845 0-1.116.019-.267.018-.423.052-.541.102a1.58 1.58 0 0 0-.855.86c-.049.119-.083.275-.101.543C2 11.15 2 11.5 2 12s0 .85.019 1.123c.018.268.052.424.101.544.16.389.468.698.855.86.118.049.274.083.54.101.272.019.619.02 1.117.02h14.736c.498 0 .845-.001 1.117-.02.266-.018.422-.052.54-.102a1.58 1.58 0 0 0 .855-.86c.049-.119.083-.275.101-.543C22 12.85 22 12.5 22 12s0-.85-.019-1.123c-.018-.268-.052-.424-.101-.544a1.583 1.583 0 0 0-.855-.86c-.118-.049-.274-.083-.54-.101a18.07 18.07 0 0 0-1.117-.02H4.632ZM5.684 12c0 .585-.471 1.059-1.052 1.059A1.056 1.056 0 0 1 3.579 12c0-.585.471-1.059 1.053-1.059.58 0 1.052.474 1.052 1.059ZM4.632 6.706c.58 0 1.052-.474 1.052-1.059s-.471-1.059-1.052-1.059c-.582 0-1.053.474-1.053 1.06 0 .584.471 1.058 1.053 1.058Z" clip-rule="evenodd"/>
</svg>
