<svg xmlns="http://www.w3.org/2000/svg" width="24" height="24" fill="none">
  <path fill="#1C274C" fill-rule="evenodd" d="M3.172 4.172C2 5.343 2 7.229 2 11v.25h20V11c0-3.771 0-5.657-1.172-6.828C19.657 3 17.771 3 14 3h-4C6.229 3 4.343 3 3.172 4.172ZM22 12.75H2V13c0 3.771 0 5.657 1.172 6.828C4.343 21 6.229 21 10 21h4c3.771 0 5.657 0 6.828-1.172C22 18.657 22 16.771 22 13v-.25ZM5.25 17.5a.75.75 0 0 0 1.5 0v-2a.75.75 0 0 0-1.5 0v2Zm3.75.75a.75.75 0 0 1-.75-.75v-2a.75.75 0 0 1 1.5 0v2a.75.75 0 0 1-.75.75Zm4.5-2.5a.75.75 0 0 0 0 1.5H18a.75.75 0 0 0 0-1.5h-4.5ZM9 9.25a.75.75 0 0 1-.75-.75v-2a.75.75 0 0 1 1.5 0v2a.75.75 0 0 1-.75.75ZM5.25 8.5a.75.75 0 0 0 1.5 0v-2a.75.75 0 0 0-1.5 0v2Zm7.5-1a.75.75 0 0 1 .75-.75H18a.75.75 0 0 1 0 1.5h-4.5a.75.75 0 0 1-.75-.75Z" clip-rule="evenodd"/>
</svg>
