<svg xmlns="http://www.w3.org/2000/svg" width="24" height="24" fill="none">
  <path stroke="#1C274C" stroke-linecap="round" stroke-width="1.5" d="M14 3c3.771 0 5.657 0 6.828 1.172C22 5.343 22 7.229 22 11v2c0 3.771 0 5.657-1.172 6.828C19.657 21 17.771 21 14 21h-4c-3.771 0-5.657 0-6.828-1.172C2 18.657 2 16.771 2 13v-2c0-3.771 0-5.657 1.172-6.828C4.343 3 6.229 3 10 3"/>
  <path fill="#1C274C" d="M14 12.75a.75.75 0 0 0 0-1.5v1.5Zm4-1.5a.75.75 0 0 0 0 1.5v-1.5Zm-16 1.5h12v-1.5H2v1.5Zm16 0h4v-1.5h-4v1.5Z"/>
  <path stroke="#1C274C" stroke-linecap="round" stroke-width="1.5" d="M13.5 16.5H18m-4.5-9H18m-12 10v-2m0-7v-2m3 11v-2m0-7v-2"/>
</svg>
