<svg xmlns="http://www.w3.org/2000/svg" width="24" height="24" fill="none">
  <g fill="#1C274C">
    <path fill-rule="evenodd" d="M11.302 13.737h7.209c1.541 0 2.79-1.202 2.79-2.684 0-1.483-1.248-2.685-2.79-2.685 1.541 0 2.79-1.201 2.79-2.684 0-1.482-1.248-2.684-2.79-2.684H5.488c-1.541 0-2.79 1.202-2.79 2.684 0 1.483 1.249 2.684 2.79 2.684-1.541 0-2.79 1.202-2.79 2.685 0 1.482 1.249 2.684 2.79 2.684h5.814Zm1.628-8.724c-.386 0-.698.3-.698.671 0 .37.313.671.698.671h5.581c.386 0 .698-.3.698-.67a.685.685 0 0 0-.698-.672H12.93Zm0 5.369c-.386 0-.698.3-.698.67 0 .371.313.672.698.672h5.581c.386 0 .698-.3.698-.671a.685.685 0 0 0-.698-.671H12.93ZM7.348 5.684c0 .494-.416.895-.93.895s-.93-.4-.93-.895c0-.494.416-.895.93-.895s.93.401.93.895Zm0 5.369c0 .494-.416.894-.93.894s-.93-.4-.93-.894c0-.495.416-.895.93-.895s.93.4.93.895Z" clip-rule="evenodd"/>
    <path d="M22 18.211a.685.685 0 0 0-.698-.671h-7.577a1.833 1.833 0 0 0-1.027-.988v-2.815h-1.396v2.815c-.466.181-.838.54-1.027.988H2.698c-.386 0-.698.3-.698.671 0 .37.312.671.698.671h7.577A1.862 1.862 0 0 0 12 20c.78 0 1.45-.462 1.725-1.118h7.577c.386 0 .698-.3.698-.671Z" opacity=".6"/>
  </g>
</svg>
