<svg xmlns="http://www.w3.org/2000/svg" width="24" height="24" fill="none">
  <path stroke="#1C274C" stroke-linecap="round" stroke-width="1.5" d="M22 19h-8M2 19h8m2-2v-3" opacity=".5"/>
  <circle cx="12" cy="19" r="2" stroke="#1C274C" stroke-width="1.5"/>
  <path stroke="#1C274C" stroke-width="1.5" d="M2 11a3 3 0 0 1 3-3h14a3 3 0 1 1 0 6H5a3 3 0 0 1-3-3Zm0-6a3 3 0 0 1 3-3h14a3 3 0 1 1 0 6H5a3 3 0 0 1-3-3Z"/>
  <path stroke="#1C274C" stroke-linecap="round" stroke-width="1.5" d="M13 5h6m-6 6h6" opacity=".5"/>
  <circle cx="6" cy="5" r="1" fill="#1C274C" opacity=".5"/>
  <circle cx="6" cy="11" r="1" fill="#1C274C" opacity=".5"/>
</svg>
