<svg xmlns="http://www.w3.org/2000/svg" width="24" height="24" fill="none">
  <g fill="#1C274C">
    <path d="M6 13h12c1.886 0 2.828 0 3.414.586C22 14.172 22 15.114 22 17c0 1.886 0 2.828-.586 3.414C20.828 21 19.886 21 18 21H6c-1.886 0-2.828 0-3.414-.586C2 19.828 2 18.886 2 17c0-1.886 0-2.828.586-3.414C3.172 13 4.114 13 6 13ZM6 3h12c1.886 0 2.828 0 3.414.586C22 4.172 22 5.114 22 7c0 1.886 0 2.828-.586 3.414C20.828 11 19.886 11 18 11H6c-1.886 0-2.828 0-3.414-.586C2 9.828 2 8.886 2 7c0-1.886 0-2.828.586-3.414C3.172 3 4.114 3 6 3Z" opacity=".5"/>
    <path d="M12.75 7a.75.75 0 0 1 .75-.75H18a.75.75 0 0 1 0 1.5h-4.5a.75.75 0 0 1-.75-.75ZM6 8.75A.75.75 0 0 1 5.25 8V6a.75.75 0 0 1 1.5 0v2a.75.75 0 0 1-.75.75Zm3 0A.75.75 0 0 1 8.25 8V6a.75.75 0 0 1 1.5 0v2a.75.75 0 0 1-.75.75ZM12.75 17a.75.75 0 0 1 .75-.75H18a.75.75 0 0 1 0 1.5h-4.5a.75.75 0 0 1-.75-.75ZM6 18.75a.75.75 0 0 1-.75-.75v-2a.75.75 0 0 1 1.5 0v2a.75.75 0 0 1-.75.75Zm3 0a.75.75 0 0 1-.75-.75v-2a.75.75 0 0 1 1.5 0v2a.75.75 0 0 1-.75.75Z"/>
  </g>
</svg>
