<svg xmlns="http://www.w3.org/2000/svg" width="24" height="24" fill="none">
  <g stroke="#1C274C" stroke-width="1.5">
    <path stroke-linecap="round" d="M7.843 20.198C9.872 21.399 10.886 22 12 22c1.114 0 2.128-.6 4.157-1.802l.686-.407c2.029-1.2 3.043-1.802 3.6-2.791.557-.99.557-2.19.557-4.594M20.815 8a3.556 3.556 0 0 0-.372-1c-.557-.99-1.571-1.59-3.6-2.792l-.686-.406C14.128 2.601 13.114 2 12 2c-1.114 0-2.128.6-4.157 1.802l-.686.406C5.128 5.41 4.114 6.011 3.557 7 3 7.99 3 9.19 3 11.594v.812c0 2.403 0 3.605.557 4.594.226.402.528.74.943 1.08"/>
    <circle cx="12" cy="12" r="3"/>
  </g>
</svg>
