<svg xmlns="http://www.w3.org/2000/svg" width="24" height="24" fill="none">
  <g fill="#1C274C">
    <path fill-rule="evenodd" d="M15.75 6a3.75 3.75 0 1 0-7.5 0 3.75 3.75 0 0 0 7.5 0ZM12 3.75a2.25 2.25 0 1 1 0 4.5 2.25 2.25 0 0 1 0-4.5ZM9.25 18a3.75 3.75 0 1 0-7.5 0 3.75 3.75 0 0 0 7.5 0ZM5.5 15.75a2.25 2.25 0 1 1 0 4.5 2.25 2.25 0 0 1 0-4.5Zm13-1.5a3.75 3.75 0 1 1 0 7.5 3.75 3.75 0 0 1 0-7.5ZM20.75 18a2.25 2.25 0 1 0-4.5 0 2.25 2.25 0 0 0 4.5 0Z" clip-rule="evenodd"/>
    <path d="M7.205 7.562a.75.75 0 0 0-.993-1.124A8.73 8.73 0 0 0 3.25 13a.75.75 0 0 0 1.5 0 7.23 7.23 0 0 1 2.455-5.438Zm10.583-1.124a.75.75 0 0 0-.993 1.124A7.23 7.23 0 0 1 19.25 13a.75.75 0 0 0 1.5 0 8.73 8.73 0 0 0-2.962-6.562Zm-7.601 13.584a.75.75 0 1 0-.374 1.452 8.773 8.773 0 0 0 4.374 0 .75.75 0 1 0-.374-1.452A7.267 7.267 0 0 1 12 20.25a7.31 7.31 0 0 1-1.813-.228Z"/>
  </g>
</svg>
