<svg xmlns="http://www.w3.org/2000/svg" width="24" height="24" fill="none">
  <g fill="#1C274C" fill-rule="evenodd" clip-rule="evenodd">
    <path d="M6.25 12a5.75 5.75 0 1 1 11.5 0 5.75 5.75 0 0 1-11.5 0Zm5.694-4.232A.128.128 0 0 1 12 7.75c.004 0 .021 0 .056.018a.652.652 0 0 1 .17.134c.153.158.328.431.492.841.162.404.296.901.39 1.466.055.334.095.683.118 1.041h-2.452c.023-.358.063-.707.118-1.04a7.148 7.148 0 0 1 .39-1.467c.164-.41.34-.683.492-.841a.652.652 0 0 1 .17-.134ZM9.27 11.25c.025-.439.073-.871.141-1.286a8.9 8.9 0 0 1 .415-1.617 4.25 4.25 0 0 0-2.01 2.903H9.27Zm-1.454 1.5H9.27c.025.439.073.871.141 1.286a8.9 8.9 0 0 0 .415 1.617 4.25 4.25 0 0 1-2.01-2.903Zm8.366-1.5a4.247 4.247 0 0 0-2.01-2.903c.18.486.318 1.034.415 1.617.068.415.116.847.14 1.286h1.455Zm-1.454 1.5h1.454a4.247 4.247 0 0 1-2.01 2.903c.18-.486.318-1.034.415-1.617.068-.415.116-.847.14-1.286Zm-1.503 0a10.56 10.56 0 0 1-.118 1.04 7.148 7.148 0 0 1-.39 1.467c-.164.41-.34.683-.492.841a.652.652 0 0 1-.17.134.128.128 0 0 1-.056.018c-.004 0-.021 0-.056-.018a.652.652 0 0 1-.17-.134c-.153-.158-.328-.431-.492-.841a7.148 7.148 0 0 1-.39-1.466 10.56 10.56 0 0 1-.118-1.041h2.452Z"/>
    <path d="M12 1.25c-.938 0-1.833.307-3.277.801l-.727.25c-1.481.506-2.625.898-3.443 1.23-.412.167-.767.33-1.052.495-.275.16-.55.359-.737.626-.185.263-.281.587-.341.9-.063.324-.1.713-.125 1.16-.048.886-.048 2.102-.048 3.678v1.601c0 6.101 4.608 9.026 7.348 10.224l.027.011c.34.149.66.288 1.027.382.387.1.799.142 1.348.142.55 0 .96-.042 1.348-.142.367-.094.687-.233 1.026-.382l.028-.011c2.74-1.198 7.348-4.123 7.348-10.224V10.39c0-1.576 0-2.792-.048-3.679a8.85 8.85 0 0 0-.125-1.16c-.06-.312-.156-.636-.34-.9-.188-.266-.463-.465-.738-.625a8.554 8.554 0 0 0-1.052-.495c-.818-.332-1.962-.724-3.443-1.23l-.727-.25c-1.444-.494-2.34-.801-3.277-.801ZM9.08 3.514c1.615-.552 2.262-.764 2.92-.764.658 0 1.305.212 2.92.764l.572.196c1.513.518 2.616.896 3.39 1.21.387.158.667.29.864.404.097.056.164.102.208.139.038.03.053.048.055.05a.408.408 0 0 1 .032.074c.02.056.042.136.063.248a7.4 7.4 0 0 1 .1.958c.046.841.046 2.015.046 3.624v1.574c0 5.175-3.87 7.723-6.449 8.849-.371.162-.586.254-.825.315-.228.059-.506.095-.976.095s-.748-.036-.976-.095c-.24-.06-.454-.153-.825-.315-2.58-1.127-6.449-3.674-6.449-8.849v-1.574c0-1.609 0-2.783.046-3.624a7.4 7.4 0 0 1 .1-.958c.021-.112.043-.192.063-.248.018-.05.03-.07.032-.074a.386.386 0 0 1 .055-.05 1.57 1.57 0 0 1 .208-.14c.197-.114.477-.245.864-.402.774-.315 1.877-.693 3.39-1.21l.573-.197Z"/>
  </g>
</svg>
