<svg xmlns="http://www.w3.org/2000/svg" width="24" height="24" fill="none">
  <path fill="#1C274C" d="M11.25 2.073c-.606.113-1.318.357-2.412.732L8.265 3c-3.007 1.03-4.51 1.544-4.887 2.082C3.008 5.608 3 7.15 3 10.21l8.25-2.75V2.073Zm0 6.967L3 11.79v.201c0 5.638 4.239 8.374 6.899 9.536.51.223.84.367 1.351.432V9.04Zm1.5 12.92V9.04L21 11.79v.201c0 5.638-4.239 8.374-6.899 9.536-.51.223-.84.367-1.351.432Zm0-14.5V2.072c.606.113 1.318.357 2.412.732l.573.196c3.007 1.029 4.51 1.543 4.887 2.081.37.526.378 2.068.378 5.127l-8.25-2.75Z"/>
</svg>
