<svg xmlns="http://www.w3.org/2000/svg" width="24" height="24" fill="none">
  <g fill="#1C274C">
    <path d="M11.944 7.768A.128.128 0 0 1 12 7.75c.004 0 .021 0 .056.018a.652.652 0 0 1 .17.134c.153.158.328.431.492.841.162.404.296.901.39 1.466.055.334.095.683.118 1.041h-2.452c.023-.358.063-.707.118-1.04a7.148 7.148 0 0 1 .39-1.467c.164-.41.34-.683.492-.841a.652.652 0 0 1 .17-.134ZM9.271 11.25c.025-.439.073-.871.141-1.286a8.9 8.9 0 0 1 .415-1.617 4.25 4.25 0 0 0-2.01 2.903H9.27Zm-1.454 1.5H9.27c.025.439.073.871.141 1.286a8.9 8.9 0 0 0 .415 1.617 4.25 4.25 0 0 1-2.01-2.903Zm8.366-1.5a4.247 4.247 0 0 0-2.01-2.903c.18.486.318 1.034.415 1.617.068.415.116.847.14 1.286h1.455Zm-1.454 1.5h1.454a4.247 4.247 0 0 1-2.01 2.903c.18-.486.318-1.034.415-1.617.068-.415.116-.847.14-1.286Zm-1.503 0a10.56 10.56 0 0 1-.118 1.04 7.148 7.148 0 0 1-.39 1.467c-.164.41-.34.683-.492.841a.652.652 0 0 1-.17.134.128.128 0 0 1-.056.018c-.004 0-.021 0-.056-.018a.652.652 0 0 1-.17-.134c-.153-.158-.328-.431-.492-.841a7.148 7.148 0 0 1-.39-1.466 10.56 10.56 0 0 1-.118-1.041h2.452Z"/>
    <path fill-rule="evenodd" d="M3.378 5.082C3 5.62 3 7.22 3 10.417v1.574c0 5.638 4.239 8.375 6.899 9.536.721.315 1.082.473 2.101.473 1.02 0 1.38-.158 2.101-.473C16.761 20.365 21 17.63 21 11.991v-1.574c0-3.198 0-4.797-.378-5.335-.377-.537-1.88-1.052-4.887-2.081l-.573-.196C13.595 2.268 12.812 2 12 2c-.811 0-1.595.268-3.162.805L8.265 3c-3.007 1.03-4.51 1.545-4.887 2.082ZM6.25 12a5.75 5.75 0 1 1 11.5 0 5.75 5.75 0 0 1-11.5 0Z" clip-rule="evenodd"/>
  </g>
</svg>
