<svg xmlns="http://www.w3.org/2000/svg" width="24" height="24" fill="none">
  <g fill="#1C274C">
    <path d="M3.378 5.082C3 5.62 3 7.22 3 10.417v1.574c0 5.638 4.239 8.375 6.899 9.536.721.315 1.082.473 2.101.473 1.02 0 1.38-.158 2.101-.473C16.761 20.365 21 17.63 21 11.991v-1.574c0-3.198 0-4.797-.378-5.335-.377-.537-1.88-1.052-4.887-2.081l-.573-.196C13.595 2.268 12.812 2 12 2c-.811 0-1.595.268-3.162.805L8.265 3c-3.007 1.03-4.51 1.545-4.887 2.082Z" opacity=".5"/>
    <path d="m10.861 8.363-.13.235c-.145.259-.217.388-.329.473-.112.085-.252.117-.532.18l-.254.058c-.984.222-1.476.334-1.593.71-.117.377.218.769.889 1.553l.174.203c.19.223.285.334.328.472.043.138.029.287 0 .584l-.026.27c-.102 1.047-.152 1.57.154 1.803.306.233.767.02 1.688-.403l.239-.11c.261-.12.392-.181.531-.181s.27.06.531.18l.239.11c.92.425 1.382.637 1.688.404.306-.232.256-.756.154-1.802l-.026-.271c-.029-.297-.043-.446 0-.584.043-.138.138-.25.328-.472l.174-.203c.67-.784 1.006-1.176.889-1.553-.117-.376-.609-.488-1.593-.71l-.254-.058c-.28-.063-.42-.095-.532-.18-.112-.085-.184-.214-.328-.472l-.131-.236C12.632 7.454 12.379 7 12 7s-.632.454-1.139 1.363Z"/>
  </g>
</svg>
