<svg xmlns="http://www.w3.org/2000/svg" width="24" height="24" fill="none">
  <g fill="#1C274C">
    <path d="M16.528 2H7.472c-1.203 0-1.804 0-2.288.299-.483.298-.752.836-1.29 1.912L2.491 7.76c-.325.82-.608 1.786-.062 2.479A2 2 0 0 0 6 9a2 2 0 1 0 4 0 2 2 0 1 0 4 0 2 2 0 1 0 4 0 2 2 0 0 0 3.571 1.238c.546-.693.262-1.659-.062-2.479l-1.404-3.548c-.538-1.076-.806-1.614-1.29-1.912C18.332 2 17.73 2 16.528 2Z"/>
    <path fill-rule="evenodd" d="M20 21.25h2a.75.75 0 0 1 0 1.5H2a.75.75 0 0 1 0-1.5h2V12.5c.744 0 1.433-.232 2-.627a3.484 3.484 0 0 0 2 .627c.744 0 1.433-.232 2-.627a3.484 3.484 0 0 0 2 .627c.744 0 1.433-.232 2-.627a3.484 3.484 0 0 0 2 .627c.744 0 1.433-.232 2-.627a3.484 3.484 0 0 0 2 .627v8.75Zm-10.5 0h5V18.5c0-.935 0-1.402-.201-1.75a1.5 1.5 0 0 0-.549-.55c-.348-.2-.815-.2-1.75-.2s-1.402 0-1.75.2a1.5 1.5 0 0 0-.549.55c-.201.348-.201.815-.201 1.75v2.75Z" clip-rule="evenodd"/>
  </g>
</svg>
