<svg xmlns="http://www.w3.org/2000/svg" width="24" height="24" fill="none">
  <path fill="#1C274C" d="M2 16.25a.75.75 0 0 0 0 1.5v-1.5Zm3.603 1.5a.75.75 0 0 0 0-1.5v1.5Zm5.145-3.663-.643-.386.643.386Zm2.504-4.174.643.386-.643-.386ZM22 7l.53.53a.75.75 0 0 0 0-1.06L22 7Zm-2.53 1.47a.75.75 0 0 0 1.06 1.06l-1.06-1.06Zm1.06-4a.75.75 0 1 0-1.06 1.06l1.06-1.06Zm-5.31 2.92-.369-.653.37.652Zm-6.5 8.338a.75.75 0 1 0 1.024 1.096L8.72 15.728ZM2 17.75h3.603v-1.5H2v1.5Zm9.39-3.277 2.505-4.174-1.286-.772-2.504 4.174 1.286.772Zm7.007-6.723H22v-1.5h-3.603v1.5Zm3.073-1.28-2 2 1.06 1.06 2-2-1.06-1.06Zm1.06 0-2-2-1.06 1.06 2 2 1.06-1.06Zm-8.635 3.829c.434-.724.734-1.22 1.006-1.589.263-.355.468-.543.689-.668l-.739-1.305c-.467.264-.82.627-1.155 1.08-.326.44-.668 1.011-1.087 1.71l1.286.772Zm4.502-4.049c-.815 0-1.48 0-2.025.052-.562.055-1.054.17-1.521.435l.739 1.305c.22-.125.487-.204.927-.247.456-.044 1.036-.045 1.88-.045v-1.5Zm-8.292 7.451c-.677 1.128-1.02 1.686-1.385 2.027l1.024 1.096c.557-.52 1.02-1.306 1.647-2.351l-1.286-.772ZM2 6.25a.75.75 0 0 0 0 1.5v-1.5ZM22 17l.53.53a.75.75 0 0 0 0-1.06L22 17Zm-1.47-2.53a.75.75 0 1 0-1.06 1.06l1.06-1.06Zm-1.06 4a.75.75 0 1 0 1.06 1.06l-1.06-1.06Zm-3.345-1.525.144-.736-.144.736Zm-1.682-2.33a.75.75 0 1 0-1.286.77l1.286-.77Zm.025 1.391.558-.501-.558.501Zm-6.593-8.95.143-.737-.143.736Zm1.682 2.33a.75.75 0 0 0 1.286-.772l-1.286.772Zm-.025-1.393-.558.502.558-.502ZM2 7.75h4.668v-1.5H2v1.5Zm15.332 10H22v-1.5h-4.668v1.5Zm5.198-1.28-2-2-1.06 1.06 2 2 1.06-1.06Zm-1.06 0-2 2 1.06 1.06 2-2-1.06-1.06Zm-4.138-.22c-.645 0-.867-.003-1.063-.041l-.287 1.472c.372.072.765.069 1.35.069v-1.5Zm-4.175-.864c.3.502.5.84.754 1.122l1.115-1.003c-.134-.149-.25-.337-.583-.89l-1.286.77Zm3.112.823a2.25 2.25 0 0 1-1.243-.704l-1.115 1.003a3.75 3.75 0 0 0 2.071 1.173l.287-1.472ZM6.668 7.75c.645 0 .867.003 1.063.041l.287-1.472c-.372-.072-.765-.069-1.35-.069v1.5Zm4.175.864c-.3-.502-.5-.84-.754-1.122L8.974 8.495c.134.149.25.337.583.89l1.286-.77Zm-3.112-.823c.48.094.916.34 1.243.704l1.115-1.003a3.75 3.75 0 0 0-2.071-1.173L7.73 7.791Z"/>
</svg>
