<svg xmlns="http://www.w3.org/2000/svg" width="24" height="24" fill="none">
  <g fill="#1C274C">
    <path d="M2 16.25a.75.75 0 0 0 0 1.5v-1.5Zm8.748-2.163-.643-.386.643.386Zm2.504-4.174.643.386-.643-.386ZM22 7l.53.53a.75.75 0 0 0 0-1.06L22 7Zm-2.53 1.47a.75.75 0 0 0 1.06 1.06l-1.06-1.06Zm1.06-4a.75.75 0 1 0-1.06 1.06l1.06-1.06Zm-5.31 2.92-.369-.653.37.652ZM2 17.75h3.603v-1.5H2v1.5Zm9.39-3.277 2.505-4.174-1.286-.772-2.504 4.174 1.286.772Zm7.007-6.723H22v-1.5h-3.603v1.5Zm3.073-1.28-2 2 1.06 1.06 2-2-1.06-1.06Zm1.06 0-2-2-1.06 1.06 2 2 1.06-1.06Zm-8.635 3.829c.434-.724.734-1.22 1.006-1.589.263-.355.468-.543.689-.668l-.739-1.305c-.467.264-.82.627-1.155 1.08-.326.44-.668 1.011-1.087 1.71l1.286.772Zm4.502-4.049c-.815 0-1.48 0-2.025.052-.562.055-1.054.17-1.521.435l.739 1.305c.22-.125.487-.204.927-.247.456-.044 1.036-.045 1.88-.045v-1.5ZM5.603 17.75c.815 0 1.48 0 2.025-.052.562-.055 1.054-.17 1.521-.435l-.739-1.305c-.22.125-.487.204-.927.247-.456.044-1.036.045-1.88.045v1.5Zm4.502-4.049c-.435.724-.734 1.22-1.006 1.589-.263.355-.468.543-.689.668l.74 1.305c.466-.264.819-.627 1.154-1.08.326-.44.668-1.011 1.087-1.71l-1.286-.772Z"/>
    <path d="M2 7.75a.75.75 0 0 1 0-1.5v1.5Zm8.748 2.163-.643.386.643-.386Zm2.504 4.174.643-.386-.643.386ZM22 17l.53-.53a.75.75 0 0 1 0 1.06L22 17Zm-2.53-1.47a.75.75 0 1 1 1.06-1.06l-1.06 1.06Zm1.06 4a.75.75 0 1 1-1.06-1.06l1.06 1.06Zm-5.31-2.92-.369.653.37-.652ZM2 6.25h3.603v1.5H2v-1.5Zm9.39 3.277 2.505 4.174-1.286.772-2.504-4.174 1.286-.772Zm7.007 6.723H22v1.5h-3.603v-1.5Zm3.073 1.28-2-2 1.06-1.06 2 2-1.06 1.06Zm1.06 0-2 2-1.06-1.06 2-2 1.06 1.06Zm-8.635-3.829c.434.724.734 1.22 1.006 1.589.263.355.468.543.689.668l-.739 1.305c-.467-.264-.82-.627-1.155-1.08-.326-.44-.668-1.011-1.087-1.71l1.286-.772Zm4.502 4.049c-.815 0-1.48 0-2.025-.052-.562-.055-1.054-.17-1.521-.435l.739-1.305c.22.125.487.204.927.247.456.044 1.036.045 1.88.045v1.5ZM5.603 6.25c.815 0 1.48 0 2.025.052.562.055 1.054.17 1.521.435L8.41 8.042c-.22-.125-.487-.204-.927-.247-.456-.044-1.036-.045-1.88-.045v-1.5Zm4.502 4.049c-.435-.724-.734-1.22-1.006-1.589-.263-.355-.468-.543-.689-.668l.74-1.305c.466.264.819.627 1.154 1.08.326.44.668 1.011 1.087 1.71l-1.286.772Z" opacity=".5"/>
  </g>
</svg>
