<svg xmlns="http://www.w3.org/2000/svg" width="24" height="24" fill="none">
  <g fill="#1C274C">
    <path d="M5.5 9.25a.75.75 0 0 0 0 1.5h6a.75.75 0 0 0 0-1.5h-6ZM5.75 14a.75.75 0 0 1 .75-.75h4a.75.75 0 0 1 0 1.5h-4a.75.75 0 0 1-.75-.75Z"/>
    <path fill-rule="evenodd" d="M9.944 2.25c-1.838 0-3.294 0-4.433.153-1.172.158-2.121.49-2.87 1.238-.748.749-1.08 1.698-1.238 2.87-.153 1.14-.153 2.595-.153 4.433v2.112c0 1.838 0 3.294.153 4.433.158 1.172.49 2.121 1.238 2.87.749.748 1.698 1.08 2.87 1.238 1.14.153 2.595.153 4.433.153h5.022a.768.768 0 0 0 .072-.001c1.384-.004 2.523-.027 3.451-.152 1.172-.158 2.121-.49 2.87-1.238.748-.749 1.08-1.698 1.238-2.87.153-1.14.153-2.595.153-4.433v-2.112c0-1.838 0-3.294-.153-4.433-.158-1.172-.49-2.121-1.238-2.87-.749-.748-1.698-1.08-2.87-1.238-.928-.125-2.067-.148-3.45-.152a.763.763 0 0 0-.073 0l-.91-.001H9.944Zm4.306 1.5H10c-1.907 0-3.261.002-4.29.14-1.005.135-1.585.389-2.008.812-.423.423-.677 1.003-.812 2.009-.138 1.028-.14 2.382-.14 4.289v2c0 1.907.002 3.262.14 4.29.135 1.005.389 1.585.812 2.008.423.423 1.003.677 2.009.812 1.028.138 2.382.14 4.289.14h4.25V3.75Zm1.5 16.494c1.034-.01 1.858-.042 2.54-.134 1.005-.135 1.585-.389 2.008-.812.423-.423.677-1.003.812-2.009.138-1.027.14-2.382.14-4.289v-2c0-1.907-.002-3.261-.14-4.29-.135-1.005-.389-1.585-.812-2.008-.423-.423-1.003-.677-2.009-.812-.68-.092-1.505-.123-2.539-.134v16.488Z" clip-rule="evenodd"/>
  </g>
</svg>
