<svg xmlns="http://www.w3.org/2000/svg" width="24" height="24" fill="none">
  <g fill="#1C274C">
    <path fill-rule="evenodd" d="M12.75 10.5h-1.5v2h1.5v-2Zm-1.5-7h1.5V2a.75.75 0 0 0-1.5 0v1.5Zm0 17.75V19.5h1.5v1.75H14a.75.75 0 0 1 0 1.5h-4a.75.75 0 0 1 0-1.5h1.25Z" clip-rule="evenodd" opacity=".5"/>
    <path d="M15.5 10.5c1.404 0 2.106 0 2.61-.337a2 2 0 0 0 .552-.552C19 9.107 19 8.404 19 7c0-1.404 0-2.107-.338-2.611a2 2 0 0 0-.551-.552c-.505-.337-1.207-.337-2.612-.337H8.704c-.657 0-.986 0-1.288.098a2 2 0 0 0-.382.17c-.275.16-.494.404-.934.894-.85.947-1.276 1.42-1.378 1.974a2 2 0 0 0 0 .728c.102.553.528 1.027 1.378 1.974.44.49.66.734.934.893.121.07.25.127.382.17.302.099.63.099 1.288.099H15.5Zm-7 9c-1.405 0-2.107 0-2.612-.337a2 2 0 0 1-.551-.552C5 18.107 5 17.404 5 16c0-1.405 0-2.107.337-2.611a2 2 0 0 1 .551-.552C6.393 12.5 7.095 12.5 8.5 12.5h6.795c.658 0 .987 0 1.289.098.133.043.26.1.382.17.275.16.494.404.934.894.85.947 1.276 1.42 1.378 1.974a2 2 0 0 1 0 .728c-.102.553-.528 1.027-1.378 1.974-.44.49-.66.734-.934.893-.121.07-.25.127-.382.17-.302.099-.63.099-1.288.099H8.5Z"/>
  </g>
</svg>
