<svg xmlns="http://www.w3.org/2000/svg" width="24" height="24" fill="none">
  <path fill="#1C274C" fill-rule="evenodd" d="M18.111 10.163c-.504.337-1.207.337-2.611.337h-2.75v2h2.546c.658 0 .986 0 1.288.098.133.043.261.1.383.17.274.16.494.404.933.894.85.947 1.276 1.42 1.379 1.974a2 2 0 0 1 0 .728c-.103.553-.528 1.027-1.379 1.974-.44.49-.659.734-.933.893-.122.07-.25.127-.383.17-.302.099-.63.099-1.288.099H12.75v1.75H14a.75.75 0 0 1 0 1.5h-4a.75.75 0 0 1 0-1.5h1.25V19.5H8.5c-1.404 0-2.107 0-2.611-.337a2 2 0 0 1-.552-.552C5 18.107 5 17.404 5 16c0-1.405 0-2.107.337-2.611a2 2 0 0 1 .552-.552C6.393 12.5 7.096 12.5 8.5 12.5h2.75v-2H8.704c-.658 0-.986 0-1.288-.098a1.998 1.998 0 0 1-.383-.17c-.274-.16-.494-.404-.933-.894-.85-.947-1.276-1.42-1.379-1.974a2 2 0 0 1 0-.728c.103-.553.528-1.027 1.379-1.974.44-.49.659-.734.933-.893a2 2 0 0 1 .383-.17c.302-.099.63-.099 1.288-.099h2.546V2a.75.75 0 0 1 1.5 0v1.5h2.75c1.404 0 2.107 0 2.611.337a2 2 0 0 1 .552.552C19 4.893 19 5.596 19 7c0 1.404 0 2.107-.337 2.611a2 2 0 0 1-.552.552ZM9 6.25a.75.75 0 0 0 0 1.5h6a.75.75 0 0 0 0-1.5H9ZM8.25 16a.75.75 0 0 1 .75-.75h6a.75.75 0 0 1 0 1.5H9a.75.75 0 0 1-.75-.75Z" clip-rule="evenodd"/>
</svg>
