<svg xmlns="http://www.w3.org/2000/svg" width="24" height="24" fill="none">
  <path fill="#1C274C" d="M12.75 2a.75.75 0 0 0-1.5 0h1.5Zm-1.5 0v1h1.5V2h-1.5Zm1.5 9a.75.75 0 0 0-1.5 0h1.5Zm-1.5 0v1h1.5v-1h-1.5Zm1.5 9a.75.75 0 0 0-1.5 0h1.5Zm-1.5 0v2h1.5v-2h-1.5Z"/>
  <path stroke="#1C274C" stroke-linecap="round" stroke-width="1.5" d="M5.337 18.611a2 2 0 0 0 .552.552c.504.337 1.207.337 2.611.337h6.796c.658 0 .986 0 1.288-.098a2 2 0 0 0 .383-.17c.274-.16.494-.404.933-.894.85-.947 1.276-1.42 1.379-1.974a2 2 0 0 0 0-.728c-.103-.553-.528-1.027-1.379-1.974-.44-.49-.659-.734-.933-.893a2 2 0 0 0-.383-.17c-.302-.099-.63-.099-1.288-.099H8.5c-1.404 0-2.107 0-2.611.337a2 2 0 0 0-.552.552c-.245.367-.312.84-.33 1.611m13.658-5.389a2 2 0 0 1-.552.552c-.504.337-1.207.337-2.611.337H8.706c-.658 0-.986 0-1.288-.098a1.998 1.998 0 0 1-.383-.17c-.274-.16-.494-.404-.933-.894-.851-.947-1.276-1.42-1.379-1.974a2 2 0 0 1 0-.728c.103-.553.528-1.027 1.379-1.974.439-.49.659-.734.933-.893a2 2 0 0 1 .383-.17c.302-.099.63-.099 1.288-.099h6.796c1.404 0 2.107 0 2.611.337a2 2 0 0 1 .552.552c.245.367.312.84.33 1.611M14 22h-4M9 7h6m-6 9h6"/>
</svg>
