<svg xmlns="http://www.w3.org/2000/svg" width="24" height="24" fill="none">
  <path stroke="#1C274C" stroke-width="1.5" d="M8.704 3.5H15.5c1.404 0 2.107 0 2.611.337a2 2 0 0 1 .552.552C19 4.893 19 5.596 19 7c0 1.404 0 2.107-.337 2.611a2 2 0 0 1-.552.552c-.504.337-1.207.337-2.611.337H8.704c-.658 0-.986 0-1.288-.098a1.998 1.998 0 0 1-.383-.17c-.274-.16-.494-.404-.933-.894-.85-.947-1.276-1.42-1.379-1.974a2 2 0 0 1 0-.728c.103-.553.528-1.027 1.379-1.974.44-.49.659-.734.933-.893a2 2 0 0 1 .383-.17c.302-.099.63-.099 1.288-.099Zm6.592 9H8.5c-1.404 0-2.107 0-2.611.337a2 2 0 0 0-.552.552C5 13.893 5 14.596 5 16c0 1.404 0 2.107.337 2.611a2 2 0 0 0 .552.552c.504.337 1.207.337 2.611.337h6.796c.658 0 .986 0 1.288-.098.133-.044.261-.1.383-.17.274-.16.494-.404.933-.894.85-.947 1.276-1.42 1.379-1.974a2 2 0 0 0 0-.728c-.103-.553-.528-1.027-1.379-1.974-.44-.49-.659-.734-.933-.893a1.996 1.996 0 0 0-.383-.17c-.302-.099-.63-.099-1.288-.099Z"/>
  <path fill="#1C274C" d="M12.75 2a.75.75 0 0 0-1.5 0h1.5Zm0 9a.75.75 0 0 0-1.5 0h1.5Zm0 9a.75.75 0 0 0-1.5 0h1.5ZM14 22.75a.75.75 0 0 0 0-1.5v1.5Zm-4-1.5a.75.75 0 0 0 0 1.5v-1.5ZM11.25 2v1h1.5V2h-1.5Zm0 9v1h1.5v-1h-1.5Zm0 9v2h1.5v-2h-1.5ZM14 21.25h-4v1.5h4v-1.5Z" opacity=".5"/>
</svg>
