<svg xmlns="http://www.w3.org/2000/svg" width="24" height="24" fill="none">
  <path fill="#1C274C" fill-rule="evenodd" d="M12 22c-4.714 0-7.071 0-8.536-1.465C2 19.072 2 16.714 2 12s0-7.071 1.464-8.536C4.93 2 7.286 2 12 2c.341 0 .512 0 .686.015a4.04 4.04 0 0 1 2.224.921c.133.112.257.236.504.483l5.167 5.167c.247.247.37.37.483.504.522.623.85 1.415.92 2.224.016.174.016.345.016.686 0 4.714 0 7.071-1.465 8.535C19.072 22 16.714 22 12 22Zm-3.39-8.962C8.803 13 9.035 13 9.5 13h5c.465 0 .697 0 .89.038a2 2 0 0 1 1.572 1.572c.038.193.038.425.038.89s0 .697-.038.89a2 2 0 0 1-1.572 1.572c-.193.038-.425.038-.89.038h-5c-.465 0-.697 0-.89-.038a2 2 0 0 1-1.572-1.572C7 16.197 7 15.965 7 15.5s0-.697.038-.89a2 2 0 0 1 1.572-1.572Z" clip-rule="evenodd"/>
</svg>
