<svg xmlns="http://www.w3.org/2000/svg" width="24" height="24" fill="none">
  <path stroke="#1C274C" stroke-linecap="round" stroke-width="1.5" d="M2.108 8.945A50.772 50.772 0 0 0 2 12c0 .94.042 1.987.108 3.055.233 3.78.35 5.669 1.632 6.571 1.282.902 2.712.087 5.572-1.543a38.941 38.941 0 0 0 2.091-1.27 40.963 40.963 0 0 0 2.297-1.65C16.567 14.971 18 13.875 18 12c0-1.875-1.433-2.97-4.3-5.163a40.974 40.974 0 0 0-2.297-1.65 38.947 38.947 0 0 0-2.091-1.27c-2.86-1.63-4.29-2.446-5.572-1.543-.723.508-1.075 1.33-1.287 2.626M22 5v8m0 7v-3"/>
</svg>
