<svg xmlns="http://www.w3.org/2000/svg" width="24" height="24" fill="none">
  <g fill="#1C274C">
    <path d="M13.7 6.837C16.567 9.029 18 10.125 18 12c0 1.875-1.433 2.97-4.3 5.163a40.963 40.963 0 0 1-2.297 1.65c-.633.416-1.35.847-2.091 1.27-2.86 1.63-4.29 2.446-5.572 1.543-1.283-.902-1.4-2.792-1.632-6.57A50.77 50.77 0 0 1 2 12c0-.94.042-1.987.108-3.055.233-3.78.35-5.668 1.632-6.571 1.282-.903 2.712-.087 5.572 1.543.742.423 1.458.854 2.091 1.27a40.974 40.974 0 0 1 2.297 1.65Z"/>
    <path fill-rule="evenodd" d="M22 4.25a.75.75 0 0 1 .75.75v15a.75.75 0 0 1-1.5 0V5a.75.75 0 0 1 .75-.75Z" clip-rule="evenodd" opacity=".5"/>
  </g>
</svg>
