<svg xmlns="http://www.w3.org/2000/svg" width="24" height="24" fill="none">
  <path fill="#1C274C" d="m2.08 17.953-.717-.217.718.217Zm19.84 0 .717-.217-.718.217ZM2.733 19.829l.386-.643-.385.643Zm18.532 0-.386-.643.386.643Zm-10.7-13.736a.75.75 0 1 0-1.489-.186l1.489.186ZM7.147 21.407a.75.75 0 0 0 1.489.186l-1.489-.186Zm7.776-15.5a.75.75 0 0 0-1.489.186l1.489-.186Zm.441 15.686a.75.75 0 0 0 1.488-.186l-1.488.186Zm4.572-12.81a.75.75 0 0 0-1.436.434l1.436-.434Zm-16.85 8.434a.75.75 0 1 0-1.436-.434l1.436.434Zm-.23-4.434a.75.75 0 1 0 1.437.434l-1.436-.434ZM7.893 2.75h8.216v-1.5H7.892v1.5ZM17.412 4v1h1.5V4h-1.5Zm.25.75H5.838v1.5h11.824v-1.5ZM6.588 5.5V4h-1.5v1.5h1.5Zm9.52-2.75c.505 0 .81.002 1.03.03a.773.773 0 0 1 .198.048l.002.002 1.047-1.074c-.314-.306-.693-.416-1.052-.463-.34-.045-.761-.043-1.225-.043v1.5ZM18.912 4c0-.45.002-.864-.044-1.2-.05-.36-.167-.736-.483-1.044L17.338 2.83h.001l.001.003.005.01a.68.68 0 0 1 .037.162c.029.21.03.502.03.995h1.5ZM7.892 1.25c-.464 0-.885-.002-1.225.043-.359.047-.738.157-1.052.463L6.662 2.83a.775.775 0 0 1 .2-.05c.22-.028.525-.03 1.03-.03v-1.5ZM6.588 4c0-.493.001-.786.03-.995a.676.676 0 0 1 .043-.174L5.616 1.755c-.316.308-.433.685-.483 1.044-.046.336-.044.75-.044 1.2h1.5Zm-4.24 16.472c1.533.92 4.649 2.278 9.652 2.278v-1.5c-4.717 0-7.567-1.276-8.88-2.064l-.771 1.286ZM12 22.75c5.003 0 8.119-1.358 9.651-2.278l-.771-1.286c-1.313.788-4.163 2.064-8.88 2.064v1.5Zm9.201-4.58c.136.45-.017.833-.321 1.016l.771 1.286c1-.6 1.282-1.755.986-2.736l-1.436.433Zm-19.838-.434c-.296.982-.014 2.136.986 2.736l.771-1.286c-.304-.183-.457-.566-.321-1.017l-1.436-.433ZM9.077 5.907l-1.93 15.5 1.489.186 1.93-15.5-1.489-.186Zm4.357.186 1.93 15.5 1.488-.186-1.93-15.5-1.488.186Zm9.203 11.643-2.7-8.953-1.437.434 2.701 8.952 1.436-.433ZM1.65 16.783l-.287.953 1.436.433.287-.952-1.436-.434Zm3.47-11.5-2.263 7.5 1.436.434 2.263-7.5-1.436-.434ZM17.412 5a.25.25 0 0 1 .25-.25v1.5c.69 0 1.25-.56 1.25-1.25h-1.5Z"/>
</svg>
