<svg xmlns="http://www.w3.org/2000/svg" width="24" height="24" fill="none">
  <g fill="#1C274C">
    <path d="M7.604 4.604C9.34 2.868 10.208 2 11.286 2c1.079 0 1.947.868 3.682 2.604l4.42 4.419c1.735 1.735 2.603 2.603 2.603 3.682 0 1.078-.868 1.946-2.604 3.682-1.736 1.736-2.604 2.604-3.682 2.604-1.079 0-1.947-.868-3.682-2.604l-4.42-4.419C5.869 10.233 5 9.365 5 8.286c0-1.078.868-1.946 2.604-3.682Zm-.32 9.166-4.458 4.458c-.343.343-.514.514-.617.692a1.562 1.562 0 0 0 0 1.562c.103.178.274.35.617.692.342.342.513.514.692.617a1.562 1.562 0 0 0 1.562 0c.178-.103.35-.275.692-.617l4.458-4.458-2.946-2.946Z"/>
    <path d="m8.345 12.71.004-.005 2.946 2.946-.005.004-2.945-2.946Zm11.324-5.527a1.562 1.562 0 0 0-.024-1.52c-.103-.178-.275-.349-.617-.691-.342-.343-.514-.514-.692-.617a1.562 1.562 0 0 0-1.519-.024l2.852 2.852Z"/>
  </g>
</svg>
