<svg xmlns="http://www.w3.org/2000/svg" width="24" height="24" fill="none">
  <g fill="#1C274C">
    <path d="M2.464 21.535C3.93 23 6.286 23 11 23c4.714 0 7.071 0 8.535-1.465C21 20.072 21 17.714 21 13s0-7.071-1.465-8.536C18.072 3 15.714 3 11 3S3.929 3 2.464 4.464C1 5.93 1 8.286 1 13c0 4.714 0 7.071 1.464 8.535Z" opacity=".5"/>
    <path fill-rule="evenodd" d="M16.375 4.65a.75.75 0 1 1-.75-1.3l3.464-2a.75.75 0 0 1 1.1.844l-.996 3.715 1.896-1.094a.75.75 0 1 1 .75 1.299l-3.464 2a.75.75 0 0 1-1.1-.844l.996-3.715-1.896 1.095Zm-3.702 1.5a.75.75 0 1 1 .75-1.3l1.732 1a.75.75 0 0 1-.181 1.374l-.983.264.164.095a.75.75 0 1 1-.75 1.299l-1.732-1a.75.75 0 0 1 .18-1.374l.984-.264-.164-.094Z" clip-rule="evenodd"/>
    <path d="M11 18a1 1 0 1 0 0-2 1 1 0 0 0 0 2Zm.998-6.558a.75.75 0 0 1 1.06.056c.465.517.965.752 1.442.752s.977-.235 1.442-.752a.75.75 0 1 1 1.116 1.004c-.67.743-1.548 1.248-2.558 1.248-1.01 0-1.889-.505-2.558-1.248a.75.75 0 0 1 .056-1.06Zm-5.94.056a.75.75 0 1 0-1.116 1.004c.67.743 1.548 1.248 2.558 1.248 1.01 0 1.889-.505 2.558-1.248a.75.75 0 1 0-1.116-1.004c-.464.517-.965.752-1.442.752s-.978-.235-1.442-.752Z"/>
  </g>
</svg>
