<svg xmlns="http://www.w3.org/2000/svg" width="24" height="24" fill="none">
  <g stroke="#1C274C" stroke-width="1.5">
    <path d="M19.5 6c0-1.4 0-2.1-.273-2.635a2.5 2.5 0 0 0-1.092-1.093C17.6 2 16.9 2 15.5 2h-7c-1.4 0-2.1 0-2.635.272a2.5 2.5 0 0 0-1.093 1.093C4.5 3.9 4.5 4.6 4.5 6m15 12c0 1.4 0 2.1-.273 2.635a2.5 2.5 0 0 1-1.092 1.092C17.6 22 16.9 22 15.5 22h-7c-1.4 0-2.1 0-2.635-.273a2.5 2.5 0 0 1-1.093-1.092C4.5 20.1 4.5 19.4 4.5 18"/>
    <path stroke-linecap="round" d="M8 6c-2.828 0-4.243 0-5.121.879C2 7.757 2 9.172 2 12c0 2.828 0 4.243.879 5.121C3.757 18 5.172 18 8 18h8c2.828 0 4.243 0 5.121-.879C22 16.243 22 14.828 22 12c0-2.828 0-4.243-.879-5.121C20.243 6 18.828 6 16 6h-4"/>
  </g>
</svg>
