<svg xmlns="http://www.w3.org/2000/svg" width="24" height="24" fill="none">
  <g fill="#1C274C">
    <path d="M9.75 9a2.25 2.25 0 1 1 4.5 0 2.25 2.25 0 0 1-4.5 0Z"/>
    <path fill-rule="evenodd" d="M21.21 15.904A9.99 9.99 0 0 0 22 12c0-5.523-4.477-10-10-10S2 6.477 2 12a9.99 9.99 0 0 0 .79 3.904L2.706 16A3.75 3.75 0 0 0 8 21.295l.096-.086c1.2.51 2.519.791 3.904.791a9.967 9.967 0 0 0 3.904-.79l.096.085A3.75 3.75 0 0 0 21.295 16l-.086-.096Zm-.768 1.459a10.054 10.054 0 0 1-3.08 3.079 2.25 2.25 0 0 0 3.08-3.08ZM6.637 20.442a10.053 10.053 0 0 1-3.08-3.08 2.25 2.25 0 0 0 3.08 3.08ZM12 5.25a3.75 3.75 0 1 0 0 7.5 3.75 3.75 0 0 0 0-7.5Zm0 10a.75.75 0 0 1 .75.75v2a.75.75 0 0 1-1.5 0v-2a.75.75 0 0 1 .75-.75Z" clip-rule="evenodd"/>
  </g>
</svg>
