<svg xmlns="http://www.w3.org/2000/svg" width="24" height="24" fill="none">
  <g stroke="#1C274C" stroke-linecap="round" stroke-width="1.5">
    <path d="M19 10V8c0-2.828 0-4.243-.879-5.121C17.243 2 15.828 2 13 2h-2c-2.828 0-4.243 0-5.121.879C5 3.757 5 5.172 5 8v8c0 2.828 0 4.243.879 5.121C6.757 22 8.172 22 11 22h2c2.828 0 4.243 0 5.121-.879C19 20.243 19 18.828 19 16v-2m-4.5 5h-5"/>
    <path stroke-linejoin="round" d="m22 6-.776 1.553a1 1 0 0 0 0 .894l.552 1.106a1 1 0 0 1 0 .894l-.552 1.106a1 1 0 0 0 0 .894l.552 1.106a1 1 0 0 1 0 .894l-.552 1.106a1 1 0 0 0 0 .894L22 18M2 6l.776 1.553a1 1 0 0 1 0 .894l-.552 1.106a1 1 0 0 0 0 .894l.552 1.106a1 1 0 0 1 0 .894l-.552 1.106a1 1 0 0 0 0 .894l.552 1.106a1 1 0 0 1 0 .894L2 18"/>
  </g>
</svg>
