<svg xmlns="http://www.w3.org/2000/svg" width="24" height="24" fill="none">
  <g fill="#1C274C">
    <path d="M5.879 2.879C5 3.757 5 5.172 5 8v8c0 2.828 0 4.243.879 5.121C6.757 22 8.172 22 11 22h2c2.828 0 4.243 0 5.121-.879C19 20.243 19 18.828 19 16V8c0-2.828 0-4.243-.879-5.121C17.243 2 15.828 2 13 2h-2c-2.828 0-4.243 0-5.121.879Z" opacity=".5"/>
    <path d="M9.5 18.25a.75.75 0 0 0 0 1.5h5a.75.75 0 0 0 0-1.5h-5Z"/>
    <path fill-rule="evenodd" d="M1.665 5.33a.75.75 0 0 1 1.006.335l.776 1.553a1.75 1.75 0 0 1 0 1.565l-.552 1.105a.25.25 0 0 0 0 .224l.552 1.105a1.75 1.75 0 0 1 0 1.566l-.552 1.105a.25.25 0 0 0 0 .224l.552 1.105a1.75 1.75 0 0 1 0 1.566l-.776 1.553a.75.75 0 0 1-1.342-.671l.777-1.553a.25.25 0 0 0 0-.224l-.553-1.105a1.75 1.75 0 0 1 0-1.566l.553-1.105a.25.25 0 0 0 0-.224l-.553-1.105a1.75 1.75 0 0 1 0-1.565l.553-1.106a.25.25 0 0 0 0-.224l-.777-1.552a.75.75 0 0 1 .336-1.007Zm20.67 0a.75.75 0 0 1 .336 1.006l-.776 1.552a.25.25 0 0 0 0 .224l.552 1.106a1.75 1.75 0 0 1 0 1.565l-.552 1.105a.25.25 0 0 0 0 .224l.552 1.105a1.75 1.75 0 0 1 0 1.566l-.552 1.105a.25.25 0 0 0 0 .224l.776 1.553a.75.75 0 0 1-1.342.67l-.776-1.552a1.75 1.75 0 0 1 0-1.566l.553-1.105a.25.25 0 0 0 0-.224l-.553-1.105a1.75 1.75 0 0 1 0-1.566l.553-1.105a.25.25 0 0 0 0-.224l-.553-1.105a1.75 1.75 0 0 1 0-1.565l.776-1.553a.75.75 0 0 1 1.007-.336Z" clip-rule="evenodd"/>
  </g>
</svg>
