<svg xmlns="http://www.w3.org/2000/svg" width="24" height="24" fill="none">
  <path fill="#1C274C" d="m18.444 19.122.53.53-.53-.53Zm-8.14 0 .53-.53-.53.53Zm8.818-8.818-.53.53.53-.53Zm0 8.14-.53-.53.53.53ZM22 14.374h.75H22ZM5.556 4.878l.53.53-.53-.53Zm8.14 0 .53-.53-.53.53ZM9.626 2v.75V2ZM4.878 5.556l-.53-.53.53.53Zm0 8.14-.53.53.53-.53ZM2 9.626h-.75H2Zm7.478-3.54a.75.75 0 0 0-1.06-1.06l1.06 1.06ZM5.026 8.418a.75.75 0 1 0 1.06 1.061l-1.06-1.06Zm13.27 0a.75.75 0 1 0-1.06 1.061l1.06-1.06Zm-3.774-1.652a.75.75 0 0 0 1.06-1.06l-1.06 1.06Zm-9.114-.679.678-.678-1.06-1.06-.679.678 1.061 1.06Zm13.184 11.828-.678.678 1.06 1.06.678-.678-1.06-1.06Zm-7.757.678-5.427-5.427-1.06 1.061 5.426 5.426 1.06-1.06Zm7.079 0c-.975.974-1.653 1.65-2.232 2.092-.562.429-.942.566-1.308.566v1.5c.826 0 1.522-.343 2.217-.873.678-.517 1.439-1.28 2.383-2.224l-1.06-1.061Zm-8.14 1.06c.944.945 1.705 1.707 2.383 2.225.695.53 1.391.873 2.217.873v-1.5c-.366 0-.745-.137-1.308-.566-.579-.442-1.257-1.118-2.231-2.092l-1.061 1.06Zm8.818-8.817c.974.974 1.65 1.652 2.092 2.231.429.563.566.942.566 1.308h1.5c0-.826-.343-1.522-.873-2.217-.517-.678-1.28-1.439-2.224-2.383l-1.061 1.06Zm1.06 8.14c.945-.945 1.707-1.706 2.225-2.384.53-.695.873-1.391.873-2.217h-1.5c0 .366-.137.746-.566 1.308-.442.579-1.118 1.257-2.092 2.232l1.06 1.06ZM6.086 5.407c.975-.974 1.653-1.65 2.232-2.092.562-.429.942-.566 1.308-.566v-1.5c-.826 0-1.522.343-2.217.873-.679.518-1.439 1.28-2.383 2.224l1.06 1.061Zm8.14-1.06c-.944-.945-1.705-1.707-2.383-2.225-.695-.53-1.391-.873-2.217-.873v1.5c.366 0 .745.137 1.308.566.579.442 1.257 1.118 2.231 2.092l1.061-1.06Zm-9.879.678c-.944.944-1.706 1.704-2.224 2.383-.53.695-.873 1.391-.873 2.217h1.5c0-.366.137-.746.566-1.308.442-.579 1.118-1.257 2.092-2.232l-1.06-1.06Zm1.061 8.14c-.974-.975-1.65-1.653-2.092-2.232-.429-.563-.566-.942-.566-1.308h-1.5c0 .826.343 1.522.873 2.217.518.678 1.28 1.439 2.224 2.383l1.061-1.06Zm3.01-8.14L5.025 8.417l1.06 1.061 3.392-3.391-1.06-1.061Zm7.8 10.218a.689.689 0 0 1 0 .974l1.06 1.06a2.189 2.189 0 0 0 0-3.095l-1.06 1.06Zm0 .974a.689.689 0 0 1-.974 0l-1.061 1.06c.855.856 2.24.856 3.096 0l-1.061-1.06Zm-.974 0a.689.689 0 0 1 0-.974l-1.061-1.06a2.189 2.189 0 0 0 0 3.095l1.06-1.06Zm0-.974a.689.689 0 0 1 .974 0l1.06-1.06a2.189 2.189 0 0 0-3.095 0l1.06 1.06Zm1.991-5.766 1.357 1.357 1.06-1.061-1.356-1.357-1.06 1.061Zm-4.07-4.07 1.357 1.357 1.06-1.06-1.356-1.358-1.06 1.061Z"/>
  <path stroke="#1C274C" stroke-linecap="round" stroke-linejoin="round" stroke-width="1.5" d="M20.5 6.986 22 8c0-3.015-2.162-5.517-5-6M3.5 17.014 2 16c0 3.015 2.162 5.517 5 6"/>
</svg>
