<svg xmlns="http://www.w3.org/2000/svg" width="24" height="24" fill="none">
  <g fill="#1C274C">
    <path d="m18.883 14.44.748-.042v-.013l-.748.055Zm-13.729-.089-.747-.066v.007l-.001.008.748.051Zm1.876 7.062-.387.643.387-.643Zm-1.667-1.858-.679.319.68-.32Zm13.253.033.676.325-.676-.325Zm-1.665 1.834.384.644-.384-.644Zm-4.935-.172c-1.351 0-2.313 0-3.06-.07-.738-.069-1.189-.199-1.54-.41l-.773 1.286c.625.376 1.33.54 2.174.617.833.078 1.876.077 3.199.077v-1.5Zm-7.61-6.95c-.094 1.37-.169 2.446-.154 3.31.015.87.12 1.6.432 2.264l1.358-.638c-.183-.389-.277-.877-.29-1.653-.014-.783.054-1.783.15-3.18l-1.496-.104Zm3.01 6.47a3.545 3.545 0 0 1-1.374-1.534l-1.358.638a5.044 5.044 0 0 0 1.96 2.182l.772-1.286Zm10.718-6.287c.078 1.383.133 2.372.111 3.147-.022.767-.12 1.25-.305 1.634l1.352.649c.315-.655.427-1.377.452-2.24.025-.854-.036-1.919-.113-3.275l-1.497.085Zm-6.118 8.267c1.307 0 2.339 0 3.164-.076.834-.077 1.533-.238 2.155-.608l-.768-1.288c-.35.207-.796.335-1.526.403-.74.068-1.69.069-3.025.069v1.5Zm5.924-3.486a3.541 3.541 0 0 1-1.373 1.514l.768 1.288a5.04 5.04 0 0 0 1.957-2.153l-1.352-.65Zm-.619-15.641c.031.12.023.311-.14.6-.164.29-.46.627-.902.98-.882.706-2.228 1.383-3.832 1.83l.402 1.444c1.753-.487 3.294-1.244 4.367-2.102.535-.428.983-.905 1.27-1.414.29-.512.444-1.107.288-1.713l-1.453.375Zm-4.874 3.41c-1.604.446-3.094.557-4.193.404-.55-.076-.964-.214-1.24-.376-.272-.16-.366-.315-.397-.432l-1.452.375c.157.609.581 1.051 1.087 1.35.502.294 1.124.476 1.796.57 1.347.186 3.049.04 4.801-.447l-.402-1.445Zm-5.83-.404c-.03-.12-.022-.311.14-.6.165-.29.461-.628.903-.98.881-.706 2.228-1.383 3.832-1.83l-.402-1.445c-1.753.488-3.294 1.244-4.367 2.103-.535.428-.983.905-1.271 1.414-.29.512-.444 1.107-.287 1.713l1.452-.375Zm4.875-3.41c1.604-.446 3.094-.557 4.192-.405.55.077.965.214 1.241.377.271.16.366.315.396.432l1.453-.375c-.157-.609-.581-1.051-1.088-1.35-.5-.295-1.123-.476-1.795-.57-1.348-.186-3.049-.04-4.801.446l.402 1.446Zm-5.59 11.198.707-7.996-1.494-.132-.708 7.996 1.494.132ZM17.336 3.745l.797 10.75 1.496-.11-.797-10.75-1.496.11Z"/>
    <path d="M4.715 13.838c.75.753 2.66 1.912 7.285 1.912v-1.5c-4.394 0-5.854-1.1-6.222-1.47l-1.063 1.058ZM12 15.75c4.747 0 6.634-1.222 7.34-1.97l-1.09-1.03c-.322.341-1.742 1.5-6.25 1.5v1.5Z"/>
  </g>
</svg>
