<svg xmlns="http://www.w3.org/2000/svg" width="24" height="24" fill="none">
  <path fill="#1C274C" fill-rule="evenodd" d="M15.684 2.814c-1.098-.152-2.588-.04-4.192.406S8.542 4.343 7.66 5.048c-.442.353-.738.691-.903.982-.094.166-.136.3-.15.407l-.003.044a.488.488 0 0 0 .013.148c.03.117.125.272.397.432.276.162.69.3 1.24.376 1.099.153 2.588.042 4.193-.405 1.604-.446 2.95-1.123 3.832-1.828.441-.354.738-.691.902-.982.163-.288.171-.48.14-.6-.03-.116-.125-.271-.396-.43-.276-.164-.69-.301-1.24-.378ZM5.106 6.384a2.56 2.56 0 0 1 .346-1.093c.288-.51.736-.986 1.271-1.414 1.073-.859 2.614-1.615 4.367-2.103 1.752-.487 3.453-.632 4.8-.445.673.093 1.295.274 1.796.57.507.298.93.74 1.088 1.349.035.136.054.271.06.405l.797 10.745.002.035c.076 1.34.136 2.394.111 3.24-.025.863-.137 1.585-.452 2.24a5.041 5.041 0 0 1-1.957 2.153c-.622.37-1.32.531-2.155.608-.817.076-1.837.076-3.127.076h-.076c-1.304 0-2.335 0-3.16-.077-.843-.078-1.549-.241-2.174-.617a5.044 5.044 0 0 1-1.959-2.182c-.311-.663-.417-1.393-.432-2.265-.015-.856.058-1.92.152-3.274l.003-.043.7-7.907Zm12.407-.26a7.403 7.403 0 0 1-.297.251c-1.073.858-2.614 1.615-4.367 2.102-1.752.488-3.454.633-4.8.446-.596-.082-1.152-.234-1.62-.473l-.402 4.543c.63.466 2.246 1.257 5.973 1.257 3.824 0 5.426-.833 6.02-1.294l-.507-6.832Zm.63 8.518C17.018 15.22 15.13 15.75 12 15.75c-3.105 0-4.987-.522-6.115-1.093-.087 1.265-.146 2.191-.133 2.926.013.776.107 1.264.29 1.653a3.545 3.545 0 0 0 1.374 1.534c.351.211.802.341 1.54.41.747.07 1.709.07 3.06.07 1.335 0 2.286 0 3.025-.07.73-.067 1.177-.195 1.526-.402a3.542 3.542 0 0 0 1.373-1.514c.185-.385.283-.867.305-1.634.022-.745-.029-1.688-.102-2.988Z" clip-rule="evenodd"/>
</svg>
