<svg xmlns="http://www.w3.org/2000/svg" width="24" height="24" fill="none">
  <path fill="#1C274C" fill-rule="evenodd" d="M16.26 1.874a.75.75 0 0 1 .866-.613c3.2.544 5.624 3.36 5.624 6.74a.75.75 0 0 1-1.17.62l-1.5-1.014a.75.75 0 1 1 .84-1.242l.1.067c-.577-1.91-2.18-3.358-4.146-3.693a.75.75 0 0 1-.613-.865ZM8.319 3.316c-.579.442-1.257 1.118-2.232 2.092l-.678.679c-.974.974-1.65 1.652-2.092 2.232-.429.561-.566.941-.566 1.307s.137.746.566 1.308c.442.579 1.118 1.257 2.092 2.232l5.427 5.426c.974.974 1.652 1.65 2.231 2.092.563.43.942.566 1.308.566.366 0 .746-.137 1.308-.566.579-.442 1.257-1.118 2.232-2.092l.678-.678c.974-.975 1.65-1.653 2.092-2.232.429-.562.566-.942.566-1.308 0-.366-.137-.745-.566-1.307-.442-.58-1.118-1.258-2.092-2.232l-5.427-5.427c-.974-.974-1.652-1.65-2.231-2.092-.563-.429-.942-.566-1.308-.566-.366 0-.746.137-1.308.566Zm-.91-1.193c.696-.53 1.392-.873 2.218-.873.826 0 1.522.343 2.217.873.67.51 1.418 1.26 2.345 2.186l5.503 5.504c.927.926 1.676 1.675 2.186 2.344.53.695.873 1.391.873 2.217 0 .826-.343 1.522-.873 2.218-.51.668-1.26 1.417-2.186 2.344l-.755.755c-.927.927-1.676 1.676-2.345 2.186-.695.53-1.391.873-2.217.873-.826 0-1.522-.343-2.217-.873-.67-.51-1.418-1.26-2.344-2.186L4.31 14.188c-.927-.927-1.676-1.676-2.186-2.345-.53-.695-.873-1.391-.873-2.217 0-.826.343-1.522.873-2.217.51-.67 1.26-1.418 2.186-2.344l.755-.756c.927-.926 1.676-1.675 2.345-2.186Zm2.07 2.903a.75.75 0 0 1 0 1.06L6.086 9.479a.75.75 0 1 1-1.06-1.06l3.391-3.392a.75.75 0 0 1 1.06 0Zm6.74 10.218a.689.689 0 1 0-.974.974.689.689 0 0 0 .974-.974Zm-2.035-1.06a2.189 2.189 0 1 1 3.096 3.095 2.189 2.189 0 0 1-3.096-3.096ZM1.648 15.337a.75.75 0 0 1 .772.04l1.5 1.015a.75.75 0 0 1-.84 1.242l-.1-.067c.577 1.91 2.18 3.358 4.146 3.693a.75.75 0 0 1-.252 1.479c-3.2-.545-5.624-3.361-5.624-6.74a.75.75 0 0 1 .398-.662Z" clip-rule="evenodd"/>
</svg>
