<svg xmlns="http://www.w3.org/2000/svg" width="24" height="24" fill="none">
  <g fill="#1C274C">
    <path d="M8.28 4.504c1.015-.63 1.73-1.072 2.327-1.363.581-.283.993-.391 1.393-.391s.812.108 1.393.391c.598.29 1.312.733 2.327 1.363l2 1.241c.961.597 1.636 1.016 2.14 1.402.489.375.77.684.963 1.036.193.353.306.766.365 1.398.061.648.062 1.465.062 2.623v1.521c0 1.97-.002 3.376-.14 4.443-.136 1.048-.393 1.656-.82 2.099-.425.439-1.003.7-2.004.839-1.026.142-2.379.144-4.286.144a.75.75 0 0 0 0 1.5h.058c1.836 0 3.294 0 4.434-.159 1.177-.163 2.128-.509 2.876-1.282.743-.769 1.073-1.742 1.23-2.947.152-1.175.152-2.678.152-4.582v-1.613c0-1.113 0-2-.068-2.726-.07-.75-.217-1.383-.543-1.978-.327-.597-.78-1.056-1.368-1.507-.568-.436-1.306-.893-2.227-1.465l-2.067-1.283c-.973-.604-1.753-1.088-2.428-1.416-.697-.34-1.34-.542-2.049-.542-.708 0-1.351.203-2.05.542-.674.328-1.454.812-2.427 1.416L5.456 4.491c-.92.572-1.659 1.03-2.227 1.465-.589.45-1.041.91-1.368 1.507-.398.728-.53 1.516-.58 2.499a.75.75 0 1 0 1.498.076c.046-.904.161-1.423.398-1.855.193-.352.474-.661.964-1.036.503-.386 1.178-.805 2.139-1.402l2-1.24Z"/>
    <path d="M2 12.25a.75.75 0 0 0 0 1.5A8.25 8.25 0 0 1 10.25 22a.75.75 0 0 0 1.5 0A9.75 9.75 0 0 0 2 12.25Z"/>
    <path d="M1.25 16a.75.75 0 0 1 .75-.75A6.75 6.75 0 0 1 8.75 22a.75.75 0 0 1-1.5 0c0-2.9-2.35-5.25-5.25-5.25a.75.75 0 0 1-.75-.75Z"/>
    <path d="M2 18.25a.75.75 0 0 0 0 1.5A2.25 2.25 0 0 1 4.25 22a.75.75 0 0 0 1.5 0A3.75 3.75 0 0 0 2 18.25Z"/>
  </g>
</svg>
