<svg xmlns="http://www.w3.org/2000/svg" width="24" height="24" fill="none">
  <g fill="#1C274C">
    <path d="M8.096 4.511c1.057-.63 1.803-1.073 2.428-1.365.609-.284 1.047-.396 1.476-.396.43 0 .867.112 1.476.396.625.292 1.37.735 2.428 1.365l1.385.825c1.165.694 1.986 1.184 2.59 1.638.587.443.91.809 1.11 1.225.199.416.282.894.257 1.626-.026.75-.16 1.691-.352 3.026l-.28 1.937c-.246 1.714-.422 2.928-.675 3.845-.247.896-.545 1.415-.977 1.787-.395.34-.895.552-1.681.675-.806.127-1.844.15-3.283.154a.75.75 0 1 0 .004 1.5c1.421-.003 2.574-.025 3.511-.172.958-.15 1.753-.44 2.427-1.02.743-.64 1.155-1.474 1.445-2.525.281-1.02.47-2.328.707-3.978l.292-2.032c.185-1.282.332-2.305.36-3.146.03-.87-.062-1.614-.403-2.325C22 6.84 21.477 6.3 20.78 5.775c-.675-.508-1.567-1.039-2.686-1.706l-1.456-.867c-1.016-.605-1.826-1.088-2.527-1.415-.724-.338-1.386-.537-2.111-.537-.725 0-1.387.2-2.11.537-.702.327-1.512.81-2.528 1.415l-1.456.867c-1.119.667-2.01 1.198-2.686 1.706C2.523 6.3 2 6.84 1.66 7.551c-.363.755-.445 1.548-.398 2.486a.75.75 0 0 0 1.498-.074c-.04-.811.04-1.323.252-1.764.2-.416.521-.782 1.11-1.225.603-.454 1.424-.944 2.589-1.638l1.385-.825Z"/>
    <path d="M2 12.25a.75.75 0 0 0 0 1.5A8.25 8.25 0 0 1 10.25 22a.75.75 0 0 0 1.5 0A9.75 9.75 0 0 0 2 12.25Z"/>
    <path d="M1.25 16a.75.75 0 0 1 .75-.75A6.75 6.75 0 0 1 8.75 22a.75.75 0 0 1-1.5 0c0-2.9-2.35-5.25-5.25-5.25a.75.75 0 0 1-.75-.75Z"/>
    <path d="M2 18.25a.75.75 0 0 0 0 1.5A2.25 2.25 0 0 1 4.25 22a.75.75 0 0 0 1.5 0A3.75 3.75 0 0 0 2 18.25Z"/>
  </g>
</svg>
