<svg xmlns="http://www.w3.org/2000/svg" width="24" height="24" fill="none">
  <g fill="#1C274C">
    <path d="M11.445 1.25c-1.367 0-2.47 0-3.337.117-.9.12-1.658.38-2.26.981-.602.602-.86 1.36-.981 2.26-.117.867-.117 1.97-.117 3.337v8.056c0 .354 0 .689.002 1.003a.75.75 0 1 0 1.5-.008c-.002-.31-.002-.64-.002-.996V8c0-1.435.002-2.437.103-3.192.099-.734.28-1.122.556-1.399.277-.277.665-.457 1.4-.556.754-.101 1.756-.103 3.191-.103h1c1.435 0 2.437.002 3.192.103.734.099 1.122.28 1.399.556.277.277.457.665.556 1.4.101.754.103 1.756.103 3.191v8c0 .355 0 .686-.002.996a.75.75 0 0 0 1.5.008c.002-.314.002-.648.002-1.002V7.945c0-1.367 0-2.47-.116-3.337-.122-.9-.38-1.658-.982-2.26-.602-.602-1.36-.86-2.26-.981-.867-.117-1.97-.117-3.337-.117h-1.11Z"/>
    <path d="M8.25 5A.75.75 0 0 1 9 4.25h6a.75.75 0 0 1 0 1.5H9A.75.75 0 0 1 8.25 5Zm-4.623 9.534a.75.75 0 0 1-.122 1.054c-.573.454-.755.855-.755 1.162 0 .243.11.538.44.88.334.345.856.695 1.566 1.017 1.254.569 2.988 1 4.994 1.187v-.459a.75.75 0 0 1 1.244-.564l1.5 1.312a.75.75 0 0 1 0 1.129l-1.5 1.312A.75.75 0 0 1 9.75 22v-.66c-2.185-.191-4.14-.659-5.614-1.327-.814-.369-1.515-.815-2.024-1.34-.511-.53-.862-1.179-.862-1.923 0-.95.567-1.738 1.324-2.338a.75.75 0 0 1 1.053.122Zm16.746 0a.75.75 0 0 1 1.053-.122c.757.6 1.324 1.388 1.324 2.338 0 1.378-1.168 2.41-2.547 3.101-1.441.723-3.412 1.234-5.627 1.459a.75.75 0 1 1-.152-1.493c2.098-.212 3.877-.69 5.107-1.307 1.294-.648 1.719-1.303 1.719-1.76 0-.307-.182-.708-.755-1.162a.75.75 0 0 1-.122-1.054Z"/>
  </g>
</svg>
