<svg xmlns="http://www.w3.org/2000/svg" width="24" height="24" fill="none">
  <g fill="#1C274C">
    <path d="M3.464 20.535C4.93 22 7.286 22 12 22c4.714 0 7.071 0 8.535-1.465C22 19.072 22 16.714 22 12s0-7.071-1.465-8.536C19.072 2 16.714 2 12 2S4.929 2 3.464 3.464C2 4.93 2 7.286 2 12c0 4.714 0 7.071 1.464 8.535Z" opacity=".5"/>
    <path d="M9.447 15.398a.75.75 0 1 0-.894 1.204A5.766 5.766 0 0 0 12 17.75a5.766 5.766 0 0 0 3.447-1.148.75.75 0 1 0-.894-1.204A4.267 4.267 0 0 1 12 16.25a4.267 4.267 0 0 1-2.553-.852ZM16 10.5c0 .828-.448 1.5-1 1.5s-1-.672-1-1.5.448-1.5 1-1.5 1 .672 1 1.5Zm-6 0c0 .828-.448 1.5-1 1.5s-1-.672-1-1.5S8.448 9 9 9s1 .672 1 1.5Z"/>
  </g>
</svg>
