<svg xmlns="http://www.w3.org/2000/svg" width="24" height="24" fill="none">
  <path fill="#1C274C" fill-rule="evenodd" d="M8.905 4.25h6.19c.838 0 1.372 0 1.832.091a4.75 4.75 0 0 1 3.732 3.732l-.736.147.736-.147c.07.35.086.743.09 1.28A2.751 2.751 0 0 1 22.75 12v2.444c0 1.53-.798 2.874-2 3.637V19a.75.75 0 0 1-1.5 0v-.325c-.261.05-.53.075-.806.075H5.556c-.276 0-.545-.026-.806-.075V19a.75.75 0 0 1-1.5 0v-.919a4.302 4.302 0 0 1-2-3.636V12c0-1.26.846-2.32 2.001-2.647.004-.537.02-.93.09-1.28a4.75 4.75 0 0 1 3.732-3.732c.46-.091.994-.091 1.832-.091ZM4.752 9.354A2.751 2.751 0 0 1 6.75 12v1.2c0 .028.022.05.05.05h10.4a.05.05 0 0 0 .05-.05V12c0-1.258.845-2.319 1.998-2.646-.004-.51-.017-.77-.06-.988a3.25 3.25 0 0 0-2.554-2.554c-.296-.058-.669-.062-1.634-.062H9c-.965 0-1.338.004-1.634.062a3.25 3.25 0 0 0-2.554 2.554c-.043.218-.056.479-.06.988ZM4 10.75c-.69 0-1.25.56-1.25 1.25v2.444a2.806 2.806 0 0 0 2.806 2.806h12.888a2.806 2.806 0 0 0 2.806-2.806V12a1.25 1.25 0 0 0-2.5 0v1.2a1.55 1.55 0 0 1-1.55 1.55H6.8a1.55 1.55 0 0 1-1.55-1.55V12c0-.69-.56-1.25-1.25-1.25Z" clip-rule="evenodd"/>
</svg>
