<svg xmlns="http://www.w3.org/2000/svg" width="24" height="24" fill="none">
  <path stroke="#1C274C" stroke-width="1.5" d="M5.556 18h12.888A3.556 3.556 0 0 0 22 14.444V12a2 2 0 1 0-4 0v1.2a.8.8 0 0 1-.8.8H6.8a.8.8 0 0 1-.8-.8V12a2 2 0 1 0-4 0v2.444A3.556 3.556 0 0 0 5.556 18Z"/>
  <path fill="#1C274C" d="m16.78 5.077-.146.735.146-.735Zm3.143 3.143.736-.147-.736.147ZM7.22 5.077l.146.735-.146-.735ZM4.077 8.22l.735.146-.735-.146ZM9 5.75h6v-1.5H9v1.5Zm6 0c.965 0 1.338.004 1.634.062l.293-1.47C16.45 4.245 15.893 4.25 15 4.25v1.5ZM20.75 10c0-.893.004-1.45-.091-1.927l-1.471.293c.058.296.062.669.062 1.634h1.5Zm-4.116-4.188a3.25 3.25 0 0 1 2.554 2.554l1.47-.293a4.75 4.75 0 0 0-3.731-3.732l-.293 1.471ZM9 4.25c-.893 0-1.45-.004-1.927.091l.293 1.471c.296-.058.669-.062 1.634-.062v-1.5ZM4.75 10c0-.965.004-1.338.062-1.634l-1.47-.293C3.245 8.55 3.25 9.107 3.25 10h1.5Zm2.323-5.659a4.75 4.75 0 0 0-3.732 3.732l1.471.293a3.25 3.25 0 0 1 2.554-2.554l-.293-1.47ZM11.25 5v9h1.5V5h-1.5Z" opacity=".5"/>
  <path stroke="#1C274C" stroke-linecap="round" stroke-width="1.5" d="M20 19v-1M4 19v-1" opacity=".5"/>
</svg>
