<svg xmlns="http://www.w3.org/2000/svg" width="24" height="24" fill="none">
  <path stroke="#1C274C" stroke-linecap="round" stroke-width="1.5" d="M8 18H5.556A3.556 3.556 0 0 1 2 14.444V12a2 2 0 1 1 4 0v1.2a.8.8 0 0 0 .8.8h10.4a.8.8 0 0 0 .8-.8V12a2 2 0 1 1 4 0v2.444A3.556 3.556 0 0 1 18.444 18H12"/>
  <path stroke="#1C274C" stroke-width="1.5" d="M20 10c0-.93 0-1.394-.077-1.78a4 4 0 0 0-3.143-3.143C16.394 5 15.93 5 15 5H9c-.93 0-1.394 0-1.78.077A4 4 0 0 0 4.077 8.22C4 8.606 4 9.07 4 10"/>
  <path fill="#1C274C" d="M12.75 11a.75.75 0 0 0-1.5 0h1.5Zm-1.5-4a.75.75 0 0 0 1.5 0h-1.5Zm0 4v3h1.5v-3h-1.5Zm0-6v2h1.5V5h-1.5Z"/>
  <path stroke="#1C274C" stroke-linecap="round" stroke-width="1.5" d="M20 19v-1M4 19v-1"/>
</svg>
