<svg xmlns="http://www.w3.org/2000/svg" width="24" height="24" fill="none">
  <g stroke="#1C274C" stroke-width="1.5">
    <path d="M5.556 18h12.888A3.556 3.556 0 0 0 22 14.444V12a2 2 0 1 0-4 0v1.2a.8.8 0 0 1-.8.8H6.8a.8.8 0 0 1-.8-.8V12a2 2 0 1 0-4 0v2.444A3.556 3.556 0 0 0 5.556 18Z"/>
    <path d="M20 10c0-.93 0-1.394-.077-1.78a4 4 0 0 0-3.143-3.143C16.394 5 15.93 5 15 5H9c-.93 0-1.394 0-1.78.077A4 4 0 0 0 4.077 8.22C4 8.606 4 9.07 4 10m8-5v9"/>
    <path stroke-linecap="round" d="M20 19v-1M4 19v-1"/>
  </g>
</svg>
