<svg xmlns="http://www.w3.org/2000/svg" width="24" height="24" fill="none">
  <path fill="#1C274C" fill-rule="evenodd" d="M1.25 7A.75.75 0 0 1 2 6.25h8a.75.75 0 0 1 0 1.5H2A.75.75 0 0 1 1.25 7ZM17 7.75a4.25 4.25 0 1 0 0 8.5 4.25 4.25 0 0 0 0-8.5ZM11.25 12a5.75 5.75 0 1 1 11.5 0 5.75 5.75 0 0 1-11.5 0ZM17 9.25a.75.75 0 0 1 .75.75v1.566l.817.943a.75.75 0 0 1-1.134.982l-1-1.154a.75.75 0 0 1-.183-.49V10a.75.75 0 0 1 .75-.75ZM1.25 12a.75.75 0 0 1 .75-.75h6a.75.75 0 0 1 0 1.5H2a.75.75 0 0 1-.75-.75Zm0 5a.75.75 0 0 1 .75-.75h8a.75.75 0 0 1 0 1.5H2a.75.75 0 0 1-.75-.75Z" clip-rule="evenodd"/>
</svg>
