<svg xmlns="http://www.w3.org/2000/svg" width="24" height="24" fill="none">
  <g fill="#1C274C">
    <path fill-rule="evenodd" d="M17 3.25a.75.75 0 0 1 .75.75v13.75l1.65-2.2a.75.75 0 1 1 1.2.9l-3 4a.75.75 0 0 1-1.35-.45V4a.75.75 0 0 1 .75-.75Z" clip-rule="evenodd"/>
    <path d="M3.25 16a.75.75 0 0 1 .75-.75h9a.75.75 0 0 1 0 1.5H4a.75.75 0 0 1-.75-.75Z"/>
    <path d="M5.25 11a.75.75 0 0 1 .75-.75h7a.75.75 0 0 1 0 1.5H6a.75.75 0 0 1-.75-.75Z" opacity=".7"/>
    <path d="M7.25 6A.75.75 0 0 1 8 5.25h5a.75.75 0 0 1 0 1.5H8A.75.75 0 0 1 7.25 6Z" opacity=".4"/>
  </g>
</svg>
