<svg xmlns="http://www.w3.org/2000/svg" width="24" height="24" fill="none">
  <path fill="#1C274C" fill-rule="evenodd" d="M2 12c0-4.714 0-7.071 1.464-8.536C4.93 2 7.286 2 12 2c4.714 0 7.071 0 8.535 1.464C22 4.93 22 7.286 22 12c0 4.714 0 7.071-1.465 8.535C19.072 22 16.714 22 12 22s-7.071 0-8.536-1.465C2 19.072 2 16.714 2 12Zm5.555.745a.75.75 0 1 0-1.11 1.01l2.5 2.75a.75.75 0 0 0 1.11 0l2.5-2.75a.75.75 0 0 0-1.11-1.01L10.25 14.06V8a.75.75 0 0 0-1.5 0v6.06l-1.195-1.315Zm3.94-1.44a.75.75 0 0 0 1.06-.05L13.75 9.94V16a.75.75 0 0 0 1.5 0V9.94l1.195 1.315a.75.75 0 0 0 1.11-1.01l-2.5-2.75a.75.75 0 0 0-1.11 0l-2.5 2.75a.75.75 0 0 0 .05 1.06Z" clip-rule="evenodd"/>
</svg>
