<svg xmlns="http://www.w3.org/2000/svg" width="24" height="24" fill="none">
  <g fill="#1C274C">
    <path d="M20.535 20.535C22 19.072 22 16.714 22 12s0-7.071-1.465-8.536C19.072 2 16.714 2 12 2S4.929 2 3.464 3.464C2 4.93 2 7.286 2 12c0 4.714 0 7.071 1.464 8.535C4.93 22 7.286 22 12 22c4.714 0 7.071 0 8.535-1.465Z" opacity=".5"/>
    <path d="M11.255 11.445a.75.75 0 0 1-1.01 1.11l-2.75-2.5a.75.75 0 0 1 0-1.11l2.75-2.5a.75.75 0 0 1 1.01 1.11L9.94 8.75H16a.75.75 0 0 1 0 1.5H9.94l1.315 1.195Z"/>
    <path d="M12.745 16.445a.75.75 0 1 0 1.01 1.11l2.75-2.5a.75.75 0 0 0 0-1.11l-2.75-2.5a.75.75 0 1 0-1.01 1.11l1.315 1.195H8a.75.75 0 0 0 0 1.5h6.06l-1.315 1.195Z"/>
  </g>
</svg>
