<svg xmlns="http://www.w3.org/2000/svg" width="24" height="24" fill="none">
  <path fill="#1C274C" fill-rule="evenodd" d="M3.464 3.464C2 4.93 2 7.286 2 12c0 4.714 0 7.071 1.464 8.535C4.93 22 7.286 22 12 22c4.714 0 7.071 0 8.535-1.465C22 19.072 22 16.714 22 12s0-7.071-1.465-8.536C19.072 2 16.714 2 12 2S4.929 2 3.464 3.464Zm5.708 12.114a.75.75 0 0 1-.75-.75v-4.242a.75.75 0 0 1 1.5 0v2.432l4.376-4.377a.75.75 0 0 1 1.06 1.06l-4.376 4.377h2.432a.75.75 0 0 1 0 1.5H9.172Z" clip-rule="evenodd"/>
</svg>
