<svg xmlns="http://www.w3.org/2000/svg" width="24" height="24" fill="none">
  <g stroke="#1C274D" stroke-width="1.5">
    <path d="M9.783 3.5a5.17 5.17 0 0 1 4.434 0l6.691 3.137c1.456.682 1.456 3.044 0 3.726l-6.69 3.137a5.17 5.17 0 0 1-4.435 0l-6.691-3.137c-1.456-.682-1.456-3.044 0-3.726L9.782 3.5Z"/>
    <path stroke-linecap="round" d="M2 8.5V14m17-2.5v5.125c0 1.008-.503 1.952-1.385 2.44C16.146 19.88 13.796 21 12 21c-1.796 0-4.146-1.121-5.615-1.934C5.504 18.577 5 17.633 5 16.626V11.5"/>
  </g>
</svg>
