<svg xmlns="http://www.w3.org/2000/svg" width="24" height="24" fill="none">
  <g fill="#1C274C">
    <path d="M7.5 3h9c1.105 0 2 .53 2.5 2.118l2.25 7.764a3.397 3.397 0 0 0-1-.244c-.468-.05-1.04-.05-1.7-.05H5.45c-.66 0-1.232 0-1.7.05a3.398 3.398 0 0 0-1 .244L5 5.118C5.5 3.529 6.395 3 7.5 3Z"/>
    <path fill-rule="evenodd" d="M21.663 14.529c.077.122.136.255.182.406l.006.02c.149.507.149 1.208.149 2.34 0 1.03 0 1.702-.112 2.196l-.03.12c-.048.168-.11.314-.195.447a2.07 2.07 0 0 1-.552.585C20.607 21 19.904 21 18.5 21h-13c-1.404 0-2.107 0-2.611-.357a2.063 2.063 0 0 1-.552-.585C2 19.524 2 18.781 2 17.294c0-1.074 0-1.76.127-2.26l.008-.03.013-.049.001-.002c.047-.158.108-.297.188-.424.146-.231.333-.43.552-.584.504-.357 1.207-.357 2.611-.357h13c1.404 0 2.107 0 2.611.357.218.154.406.353.552.584ZM12.25 17a.75.75 0 0 0-1.5 0v1a.75.75 0 0 0 1.5 0v-1Zm1.75-.75a.75.75 0 0 1 .75.75v1a.75.75 0 0 1-1.5 0v-1a.75.75 0 0 1 .75-.75Zm3.25.75a.75.75 0 0 0-1.5 0v1a.75.75 0 0 0 1.5 0v-1Zm2.5 0a.75.75 0 0 0-1.5 0v1a.75.75 0 0 0 1.5 0v-1Z" clip-rule="evenodd"/>
  </g>
</svg>
