<svg xmlns="http://www.w3.org/2000/svg" width="24" height="24" fill="none">
  <path fill="#1C274C" fill-rule="evenodd" d="M8.97 1.97a.75.75 0 0 1 1.06 0l2 2a.75.75 0 0 1-1.06 1.06l-2-2a.75.75 0 0 1 0-1.06Zm-5.5 1.5a.75.75 0 0 1 1.06 0l2.5 2.5a.75.75 0 0 1-1.06 1.06l-2.5-2.5a.75.75 0 0 1 0-1.06Zm9 2a.75.75 0 0 1 1.06 0l.5.5a.75.75 0 0 1-1.06 1.06l-.5-.5a.75.75 0 0 1 0-1.06Zm4.356 2.387c-.396.164-.922.473-1.719.944l-.401.238a36.1 36.1 0 0 0-.083.05c-.355.21-.707.42-1.11.47-.408.052-.796-.069-1.18-.188l-.089-.028-.433-.133c-.86-.265-1.422-.435-1.833-.496-.382-.057-.443.012-.45.02l-.002.002c-.012.01-.088.074-.072.474.016.425.124 1.014.293 1.911l.085.452.017.091c.076.403.152.8.061 1.2-.09.395-.329.725-.574 1.064l-.056.077-.274.381c-.545.756-.903 1.256-1.106 1.642a1.339 1.339 0 0 0-.146.371c-.008.052-.002.067 0 .073h.001v.002c.002.004.005.012.035.032.048.031.146.078.339.125.401.1.99.156 1.892.238l.454.042.095.008c.4.036.81.072 1.165.275.356.204.594.54.825.864l.055.078.263.368c.523.734.866 1.21 1.153 1.505.138.14.227.201.277.226.034.017.044.016.052.015h.002c.01-.002.029-.004.073-.04.055-.045.139-.136.252-.313.236-.366.495-.924.883-1.769l.195-.426.04-.086c.173-.38.342-.75.642-1.024.3-.276.683-.409 1.074-.545l.088-.03.437-.153c.868-.304 1.439-.506 1.82-.705.361-.19.379-.289.381-.302.004-.017.007-.033-.009-.076a1.16 1.16 0 0 0-.195-.31c-.258-.32-.687-.717-1.35-1.323l-.332-.305-.07-.063c-.294-.27-.596-.544-.757-.923-.158-.374-.151-.785-.144-1.194l.002-.096.007-.463c.014-.92.02-1.525-.035-1.945a1.217 1.217 0 0 0-.089-.365.15.15 0 0 0-.021-.034l-.006-.005a.025.025 0 0 0-.009-.003.17.17 0 0 0-.044-.001 1.26 1.26 0 0 0-.37.106Zm-.571-1.387c.522-.214 1.143-.356 1.738-.016.596.341.785.95.859 1.509.071.543.06 1.26.047 2.103l-.008.523c-.008.576.006.64.024.682.017.04.045.086.46.466l.377.346c.604.553 1.122 1.027 1.461 1.45.357.444.648.993.497 1.656-.15.654-.641 1.033-1.15 1.299-.49.256-1.165.493-1.962.772l-.493.172c-.539.189-.601.226-.646.266-.046.043-.09.105-.33.63l-.22.48c-.358.777-.66 1.435-.96 1.902-.31.48-.733.944-1.4 1.028-.683.085-1.197-.278-1.592-.682-.378-.388-.787-.96-1.264-1.63l-.3-.418c-.328-.461-.37-.493-.403-.512-.034-.019-.085-.04-.652-.091l-.515-.048c-.824-.075-1.528-.14-2.054-.27-.548-.135-1.125-.394-1.395-1.029-.264-.622-.066-1.223.198-1.726.258-.492.681-1.08 1.183-1.775l.308-.429c.339-.47.371-.538.385-.597.012-.056.014-.124-.09-.681l-.096-.51c-.155-.823-.286-1.523-.307-2.073-.022-.573.064-1.185.56-1.639.499-.457 1.117-.482 1.683-.398.537.08 1.21.287 1.996.529l.491.15c.538.166.596.168.642.162.051-.006.117-.028.615-.323l.452-.268c.731-.433 1.352-.8 1.861-1.01Zm-14.785 1a.75.75 0 0 1 1.06 0l.5.5a.75.75 0 0 1-1.06 1.06l-.5-.5a.75.75 0 0 1 0-1.06Zm2.5 2.5a.75.75 0 0 1 1.06 0l1.5 1.5a.75.75 0 1 1-1.06 1.06l-1.5-1.5a.75.75 0 0 1 0-1.06Z" clip-rule="evenodd"/>
</svg>
