<svg xmlns="http://www.w3.org/2000/svg" width="24" height="24" fill="none">
  <g fill="#1C274C">
    <path fill-rule="evenodd" d="M15.698 3.754c.931-.455 1.967-.71 2.83-.292.46.222.779.595.971 1.038.175.403.247.862.25 1.336.004.398-.04.829-.124 1.282a12.846 12.846 0 0 1-.643 2.205.75.75 0 0 1-.128.217c.185.062.366.126.542.192l.002.001a17.797 17.797 0 0 1 .535.212c.326.136.632.279.917.427.292.152.566.311.816.478.862.574 1.604 1.34 1.68 2.296.04.51-.122.972-.408 1.363-.26.354-.62.647-1.027.89a6.77 6.77 0 0 1-1.17.539c-.655.235-1.409.42-2.228.556a.75.75 0 1 1-.245-1.48 12.55 12.55 0 0 0 1.507-.338l.005-.002c.566-.168 1.022-.36 1.363-.564.295-.175.48-.344.585-.488.106-.144.13-.257.122-.358-.019-.236-.247-.653-1.016-1.166a7.225 7.225 0 0 0-.676-.395l-1.296-.569c-1.753-.656-4.1-1.158-6.685-1.338-.321-.023-.637-.04-.949-.051a29.295 29.295 0 0 0-1.226 1.67 26.557 26.557 0 0 0-1.866 3.17.75.75 0 0 1-.612 1.361 13.443 13.443 0 0 0-.571 1.735l-.003.01c-.195.798-.238 1.424-.17 1.86.027.17.067.296.113.39.07.142.155.21.228.246l.004.002a.59.59 0 0 0 .163.05c.123.02.29.017.512-.03.4-.087.907-.306 1.501-.678a10.964 10.964 0 0 0 1.162-.842l1.176-.955a.75.75 0 0 1 .945 1.164l-1.174.954c-.279.227-.555.437-.827.627-.163.115-.325.222-.486.323-.677.425-1.35.737-1.981.873-.356.077-.72.101-1.07.044a2.09 2.09 0 0 1-.574-.18l-.017-.008c-.73-.36-1.065-1.073-1.167-1.82-.101-.741.006-1.623.253-2.564.14-.534.33-1.104.568-1.7l-.507-.18a14.416 14.416 0 0 1-.959-.397 11.412 11.412 0 0 1-.523-.257c-.708-.37-1.318-.794-1.753-1.27a2.879 2.879 0 0 1-.578-.902 2.091 2.091 0 0 1-.135-.587l-.001-.018c-.056-.812.389-1.46.983-1.926.589-.461 1.404-.814 2.341-1.075 1.488-.414 3.41-.632 5.552-.607 1.013-1.215 2.059-2.263 3.06-3.078v-.002a18.49 18.49 0 0 1 .454-.355c.282-.212.56-.405.831-.576.279-.176.554-.332.824-.463ZM12.446 8.31c1.826.137 3.564.43 5.09.834a.746.746 0 0 1 .044-.357c.203-.532.359-1.025.468-1.472l.002-.005c.14-.574.203-1.064.2-1.462-.003-.343-.055-.588-.127-.751-.07-.164-.156-.242-.248-.286-.213-.103-.688-.116-1.518.29a7.232 7.232 0 0 0-.682.383l-1.146.833a19.905 19.905 0 0 0-2.083 1.993ZM9.348 9.74c-1.548.052-2.905.244-3.968.54a5.503 5.503 0 0 0-.152.044l-.009.002c-.788.234-1.35.513-1.693.793a1.359 1.359 0 0 0-.279.293.508.508 0 0 0-.098.32v.005a.593.593 0 0 0 .04.166c.045.116.132.26.284.427.276.302.721.63 1.343.954a12.193 12.193 0 0 0 1.313.579l.588.208a27.866 27.866 0 0 1 2.045-3.5c.193-.283.388-.56.586-.831Z" clip-rule="evenodd"/>
    <path d="M11.765 14.281c-.014-.91-.02-1.365.266-1.531.287-.166.678.068 1.46.535l.202.12c.222.134.333.2.455.215.123.016.242-.021.482-.096l.218-.067c.843-.262 1.264-.393 1.518-.16.253.235.17.679.005 1.566l-.042.23c-.047.252-.07.379-.043.502.028.123.104.23.256.442l.138.194c.535.748.802 1.123.672 1.433-.13.31-.573.351-1.456.433l-.229.021c-.25.023-.376.035-.482.096-.105.06-.178.163-.323.369l-.133.187c-.512.725-.768 1.087-1.102 1.045-.334-.042-.525-.461-.906-1.298l-.098-.217c-.109-.238-.163-.357-.256-.443-.093-.085-.213-.128-.455-.214l-.22-.078c-.852-.3-1.278-.45-1.354-.787-.076-.337.248-.636.897-1.235l.167-.155c.184-.17.277-.256.324-.37.048-.113.046-.243.042-.501l-.003-.236Z"/>
  </g>
</svg>
