<svg xmlns="http://www.w3.org/2000/svg" width="24" height="24" fill="none">
  <g fill="#1C274C">
    <path d="M16.273 19.45c.63.246 1.215.434 1.748.566l.007.001c.954.235 1.711.282 2.25.186.151-.027.28-.064.388-.109.263-.11.408-.268.484-.43.088-.187.129-.458.078-.827a3.729 3.729 0 0 0-.21-.8 7.473 7.473 0 0 0-.488-1.043l-.01-.02a14.113 14.113 0 0 0-1.113-1.663l-.005-.006c-1.397-1.811-3.49-3.809-6.005-5.595C10.73 7.816 8.15 6.557 6.153 6.029l-.17-.044-.01-.002c-.954-.235-1.712-.282-2.25-.186a1.666 1.666 0 0 0-.513.168.813.813 0 0 0-.36.371c-.113.24-.142.608-.024 1.111.037.157.088.329.157.516a6.714 6.714 0 0 0 .33.75l.03.057.106.199c.293.534.676 1.112 1.145 1.72l.003.004a22.467 22.467 0 0 0 1.783 2.028l.432.434.024-.308c.1-1.286.15-1.929.587-2.158.436-.23.97.107 2.036.78l.276.174c.303.191.454.287.629.31.174.025.352-.026.707-.127l.324-.092c1.251-.355 1.877-.533 2.212-.198.335.334.157.96-.199 2.211l-.092.324c-.1.355-.151.533-.127.708.024.174.12.326.31.629l.174.276c.673 1.066 1.01 1.6.78 2.035-.229.436-.872.487-2.158.587l-.333.026c-.365.029-.548.043-.708.127-.16.084-.278.228-.515.516l-.216.263c-.836 1.014-1.254 1.522-1.73 1.456-.476-.065-.696-.66-1.135-1.848l-.114-.308c-.125-.338-.187-.507-.31-.63-.123-.122-.292-.185-.63-.31l-.307-.113c-1.19-.44-1.784-.66-1.849-1.136-.065-.476.442-.894 1.457-1.729l.139-.115a60.931 60.931 0 0 1-.732-.732 23.16 23.16 0 0 1-2.169-2.517 16.748 16.748 0 0 1-.689-1.018 12.816 12.816 0 0 1-.443-.779 8.197 8.197 0 0 1-.436-.98 5.965 5.965 0 0 1-.208-.684c-.176-.746-.17-1.467.125-2.096A2.31 2.31 0 0 1 2.63 4.58c.28-.133.588-.221.908-.272.86-.136 1.89-.02 2.997.272 2.222.587 4.966 1.945 7.73 3.908 2.765 1.964 5.08 4.2 6.583 6.247.498.677.916 1.345 1.231 1.986a8.532 8.532 0 0 1 .4.954c.306.902.4 1.835.028 2.627-.272.58-.726.956-1.27 1.179-.22.09-.454.156-.696.2a4.597 4.597 0 0 1-.752.07 6.908 6.908 0 0 1-.45-.01 8.148 8.148 0 0 1-.942-.112c-.824-.144-1.727-.412-2.671-.781a.75.75 0 1 1 .546-1.397Z"/>
    <path fill-rule="evenodd" d="M19.665 2.409a.75.75 0 0 1 .13 1.053l-.111.142a3.59 3.59 0 0 0 .87 1.756.75.75 0 0 1-1.108 1.01 5.069 5.069 0 0 1-1.021-1.697 3.713 3.713 0 0 1-.687.32c.326.591.532 1.247.605 1.927a.75.75 0 0 1-1.492.16 3.614 3.614 0 0 0-.718-1.811l-.158-.006a.75.75 0 0 1 .05-1.499l.408.014c.526-.104.797-.18 1.031-.29.235-.112.47-.275.891-.62l.258-.33a.75.75 0 0 1 1.052-.13Z" clip-rule="evenodd"/>
  </g>
</svg>
