<svg xmlns="http://www.w3.org/2000/svg" width="24" height="24" fill="none">
  <g fill="#1C274C">
    <path d="M11.58 4.776c.695-1.77 1.042-2.656 1.769-2.765.726-.11 1.35.63 2.6 2.109l.322.382c.355.42.533.63.774.75s.519.137 1.075.17l.505.029c1.955.114 2.933.172 3.272.81.34.64-.184 1.438-1.232 3.033l-.27.413c-.299.453-.447.68-.488.939-.04.258.033.52.18 1.043l.132.477c.514 1.842.77 2.762.253 3.266-.516.505-1.464.258-3.36-.235l-.491-.127c-.539-.14-.808-.21-1.075-.17-.266.04-.498.185-.964.476l-.423.265c-1.638 1.024-2.457 1.536-3.115 1.208-.659-.327-.721-1.277-.846-3.177l-.032-.492c-.035-.54-.053-.81-.177-1.044-.125-.234-.341-.406-.775-.75l-.395-.312C7.294 9.865 6.531 9.26 6.641 8.554c.11-.707 1.02-1.047 2.838-1.729l.471-.176c.517-.194.776-.29.965-.475.19-.185.288-.437.485-.94l.18-.458ZM5.31 9.593C2.873 11.92 1.275 15.806 2.331 22c.943-2.603 3.526-4.76 6.581-6.047-.106-.593-.154-1.317-.204-2.08l-.039-.595a21.92 21.92 0 0 0-.032-.43 24.53 24.53 0 0 0-.355-.287l-.474-.375c-.694-.55-1.34-1.06-1.783-1.532-.253-.269-.536-.624-.715-1.061Z"/>
    <path d="m10.347 15.423-.015-.114.056.101-.041.013Z"/>
  </g>
</svg>
