<svg xmlns="http://www.w3.org/2000/svg" width="24" height="24" fill="none">
  <path fill="#1C274C" fill-rule="evenodd" d="m16.483 3.59.362.429c.395.468.464.527.534.562.072.036.166.056.785.092l.565.033c.927.054 1.704.1 2.288.219.6.123 1.213.364 1.543.985.335.632.176 1.27-.077 1.822-.243.53-.662 1.169-1.157 1.922l-.305.465c-.335.51-.363.582-.372.642-.01.061-.004.139.16.727l.133.477.016.06c.243.87.448 1.605.519 2.185.073.602.031 1.26-.48 1.76-.505.492-1.163.532-1.77.464-.593-.066-1.348-.262-2.246-.495l-.058-.015-.49-.128c-.601-.156-.696-.166-.775-.154-.076.011-.159.046-.678.37l-.475.297c-.775.485-1.428.893-1.97 1.13-.563.247-1.197.395-1.825.082-.493-.245-.757-.66-.913-1.114-3.202 1.203-5.857 3.352-6.76 5.849a.75.75 0 0 1-1.445-.13c-.634-3.717-.348-6.685.54-9.027.862-2.273 2.275-3.914 3.882-5.057.207-.473.62-.785 1.043-1.018.517-.286 1.241-.557 2.102-.88l.528-.197c.58-.217.655-.261.704-.31.047-.046.09-.112.311-.676l.18-.459.023-.057c.328-.836.605-1.545.899-2.05.306-.53.733-1.02 1.433-1.126.694-.104 1.252.232 1.712.639.445.393.942.982 1.534 1.682ZM6.252 9.754c-1.12.946-2.086 2.21-2.717 3.877-.598 1.575-.906 3.536-.74 5.964 1.549-2.098 4.053-3.727 6.74-4.69-.03-.343-.055-.718-.081-1.122l-.036-.554c-.04-.605-.06-.682-.092-.741-.033-.063-.092-.128-.577-.513l-.443-.35c-.722-.573-1.33-1.054-1.735-1.485a3.563 3.563 0 0 1-.32-.386Zm4.807 5.322c-.041-.38-.073-.854-.112-1.453l-.032-.492a17.45 17.45 0 0 1-.007-.098c-.028-.44-.055-.867-.257-1.248-.2-.377-.538-.644-.891-.923a41.31 41.31 0 0 1-.08-.063l-.395-.313c-.782-.62-1.3-1.033-1.622-1.374-.31-.33-.283-.434-.281-.442 0-.007.003-.114.4-.333.408-.226 1.027-.46 1.96-.81l.471-.175.095-.036c.421-.156.825-.307 1.13-.605.31-.301.465-.7.625-1.11l.036-.093.18-.458c.356-.91.594-1.508.822-1.903.217-.374.327-.39.357-.394h.002c.034-.006.154-.024.496.279.352.31.779.813 1.42 1.572l.323.382c.02.026.042.05.063.076.29.345.565.671.95.862.382.19.81.215 1.264.24.033.003.067.004.1.006l.506.03c1.002.059 1.67.1 2.135.195.452.092.506.196.517.217v.002h.001c.009.014.063.103-.116.493-.19.414-.543.956-1.08 1.776l-.272.413-.055.083c-.242.367-.48.727-.545 1.152-.066.424.05.84.17 1.263l.027.097.133.477c.264.945.436 1.57.49 2.024.053.428-.027.495-.037.503h-.001l-.001.002c-.015.015-.098.098-.555.047-.473-.053-1.12-.22-2.093-.472l-.49-.128-.097-.025c-.44-.115-.855-.224-1.278-.16-.425.063-.786.29-1.167.53l-.083.052-.424.264c-.84.526-1.398.872-1.827 1.06-.417.182-.524.129-.555.113h-.003c-.028-.015-.13-.064-.223-.489a3.85 3.85 0 0 1-.028-.141.745.745 0 0 0-.066-.472Z" clip-rule="evenodd"/>
</svg>
