<svg xmlns="http://www.w3.org/2000/svg" width="24" height="24" fill="none">
  <g fill="#1C274C">
    <path d="M11.812 6.727C12.825 4.909 13.332 4 14.088 4c.758 0 1.264.909 2.277 2.727l.263.47c.288.517.431.775.656.945.224.17.504.234 1.063.36l.51.116c1.967.445 2.951.668 3.185 1.42.234.753-.437 1.537-1.778 3.106l-.347.406c-.381.446-.572.669-.658.944-.085.276-.057.573.001 1.168l.053.542c.202 2.093.304 3.14-.31 3.604-.612.465-1.533.041-3.376-.807l-.476-.22c-.524-.24-.785-.361-1.063-.361-.277 0-.54.12-1.063.362l-.476.22c-1.843.847-2.764 1.271-3.377.806-.613-.465-.511-1.511-.308-3.604l.052-.542c.058-.595.086-.892 0-1.168-.085-.275-.276-.498-.657-.944l-.347-.406c-1.341-1.569-2.012-2.353-1.778-3.106.234-.752 1.218-.975 3.186-1.42l.509-.115c.559-.127.838-.19 1.063-.36.224-.171.368-.43.656-.946l.263-.47Z"/>
    <path fill-rule="evenodd" d="M8.745 5.202c-1.981-.57-4.107-.269-6.158.932l-.208.122a.75.75 0 0 1-.758-1.294l.208-.122C4.19 3.457 6.737 3.063 9.161 3.76l.208.06a.75.75 0 0 1-.416 1.441l-.208-.06ZM4.836 9.936a.75.75 0 0 1-.683.811c-.154.014-.27.02-.37.027a3.244 3.244 0 0 0-.444.048c-.196.038-.452.117-.915.349a.75.75 0 1 1-.67-1.342c.537-.268.926-.408 1.302-.48.247-.048.502-.064.731-.08l.238-.016a.75.75 0 0 1 .811.683Zm1.082 5.92a3.985 3.985 0 0 0-3.365.733.75.75 0 1 1-.928-1.178 5.485 5.485 0 0 1 4.635-1.015.75.75 0 0 1-.342 1.46Z" clip-rule="evenodd"/>
  </g>
</svg>
