<svg xmlns="http://www.w3.org/2000/svg" width="24" height="24" fill="none">
  <g fill="#1C274C">
    <path fill-rule="evenodd" d="M15.699 3.754c.93-.455 1.967-.71 2.83-.292.46.222.778.595.97 1.038.176.403.247.862.251 1.336.004.398-.04.829-.124 1.282a12.855 12.855 0 0 1-.644 2.205.75.75 0 0 1-.128.217c.186.062.366.126.542.192l.002.001a17.797 17.797 0 0 1 .535.212c.326.136.633.279.917.427.293.152.566.311.816.478.862.574 1.605 1.34 1.68 2.296.04.51-.122.972-.407 1.363-.26.354-.62.647-1.027.89a6.773 6.773 0 0 1-1.17.539c-.655.235-1.41.42-2.229.556a.75.75 0 0 1-.245-1.48 12.548 12.548 0 0 0 1.507-.338l.006-.002c.566-.168 1.021-.36 1.363-.564.294-.175.48-.344.585-.488.105-.144.13-.257.121-.358-.018-.236-.247-.653-1.016-1.166a7.225 7.225 0 0 0-.675-.395l-1.296-.569c-1.753-.656-4.101-1.158-6.686-1.338-.32-.023-.637-.04-.948-.051a29.247 29.247 0 0 0-1.227 1.67 26.557 26.557 0 0 0-1.865 3.17.75.75 0 0 1-.612 1.361 13.443 13.443 0 0 0-.572 1.735l-.002.01c-.196.798-.239 1.424-.17 1.86.027.17.067.296.113.39.07.142.155.21.227.246l.004.002a.59.59 0 0 0 .164.05c.122.02.29.017.512-.03.4-.087.906-.306 1.5-.678a9.96 9.96 0 0 0 .422-.28c.24-.168.487-.356.74-.562l1.176-.955a.75.75 0 0 1 .946 1.164l-1.174.954c-.28.227-.555.437-.827.627-.164.115-.326.222-.486.323-.678.425-1.35.737-1.982.873a2.885 2.885 0 0 1-1.07.044 2.09 2.09 0 0 1-.574-.18l-.016-.008c-.73-.36-1.066-1.073-1.168-1.82-.1-.741.006-1.623.253-2.564.14-.534.331-1.104.568-1.7l-.507-.18a14.417 14.417 0 0 1-.958-.397 11.417 11.417 0 0 1-.524-.257c-.708-.37-1.317-.794-1.753-1.27a2.879 2.879 0 0 1-.578-.902 2.091 2.091 0 0 1-.134-.587l-.002-.018c-.056-.812.39-1.46.983-1.926.59-.461 1.405-.814 2.341-1.075 1.488-.414 3.41-.632 5.552-.607 1.014-1.215 2.059-2.263 3.06-3.078l.001-.002a18.49 18.49 0 0 1 .453-.355c.283-.212.56-.405.832-.576.278-.176.554-.332.824-.463ZM12.446 8.31c1.826.137 3.564.43 5.09.834a.746.746 0 0 1 .045-.357c.203-.532.358-1.025.468-1.472l.001-.005c.14-.574.204-1.064.2-1.462-.003-.343-.055-.588-.126-.751-.071-.164-.157-.242-.248-.286-.213-.103-.689-.116-1.519.29a7.232 7.232 0 0 0-.682.383l-1.145.833a19.914 19.914 0 0 0-2.084 1.993ZM9.35 9.74c-1.548.052-2.906.244-3.969.54l-.151.044-.01.002c-.788.234-1.35.513-1.692.793a1.36 1.36 0 0 0-.28.293.508.508 0 0 0-.097.32v.005a.593.593 0 0 0 .04.166c.044.116.131.26.284.427.276.302.72.63 1.342.954a11.967 11.967 0 0 0 1.313.579l.589.208a27.866 27.866 0 0 1 2.045-3.5c.192-.283.388-.56.586-.831Z" clip-rule="evenodd" opacity=".5"/>
    <path d="M11.765 14.281c-.014-.91-.02-1.365.266-1.531.287-.166.678.068 1.46.535l.202.12c.222.134.333.2.455.215.123.016.242-.021.482-.096l.218-.067c.843-.262 1.264-.393 1.518-.16.253.235.17.679.005 1.566l-.042.23c-.047.252-.07.379-.043.502.028.123.104.23.256.442l.138.194c.535.748.802 1.123.672 1.433-.13.31-.573.351-1.456.433l-.229.021c-.25.023-.376.035-.482.096-.105.06-.178.163-.323.369l-.133.187c-.512.725-.768 1.087-1.102 1.045-.334-.042-.525-.461-.906-1.298l-.098-.217c-.109-.238-.163-.357-.256-.443-.093-.085-.213-.128-.455-.214l-.22-.078c-.852-.3-1.278-.45-1.354-.787-.076-.337.248-.636.897-1.235l.167-.155c.184-.17.277-.256.324-.37.048-.113.046-.243.042-.501l-.003-.236Z"/>
  </g>
</svg>
