<svg xmlns="http://www.w3.org/2000/svg" width="24" height="24" fill="none">
  <g fill="#1C274C">
    <path d="M10.277 16.515c.005-.11.186-.154.24-.058.254.45.686 1.111 1.176 1.412.49.3 1.276.386 1.792.408.11.005.153.186.057.24-.45.254-1.11.686-1.411 1.176-.301.49-.386 1.276-.408 1.792-.005.11-.187.153-.24.057-.254-.45-.686-1.11-1.177-1.411-.49-.301-1.276-.386-1.791-.408-.11-.005-.154-.187-.058-.24.45-.254 1.111-.686 1.412-1.177.3-.49.386-1.276.408-1.791Z"/>
    <path d="M18.492 15.515c-.009-.11-.2-.156-.258-.062-.172.283-.42.623-.697.793-.276.17-.692.236-1.022.262-.11.008-.156.2-.062.257.282.172.623.42.793.697.17.276.236.693.262 1.023.008.11.2.155.257.061.172-.282.42-.623.697-.792.276-.17.693-.237 1.023-.262.11-.009.155-.2.061-.258-.282-.172-.623-.42-.792-.697-.17-.276-.237-.692-.262-1.022Z" opacity=".5"/>
    <path d="m14.703 4.002-.242-.306c-.937-1.183-1.405-1.775-1.95-1.688-.544.088-.805.796-1.326 2.213l-.135.366c-.148.403-.222.604-.364.752-.142.148-.336.225-.724.38l-.353.141-.247.1c-1.2.48-1.804.753-1.882 1.283-.082.565.49 1.049 1.634 2.016l.296.25c.326.275.488.413.581.6.094.187.107.403.133.835l.024.393c.094 1.52.14 2.28.635 2.542.494.262 1.108-.147 2.336-.966l.318-.212c.349-.233.523-.35.723-.381.2-.032.401.024.806.136l.367.102c1.423.394 2.134.591 2.521.188.388-.403.195-1.14-.19-2.613l-.1-.381c-.109-.419-.164-.628-.134-.835.03-.207.142-.389.366-.752l.203-.33c.785-1.276 1.178-1.914.924-2.426-.255-.51-.988-.557-2.454-.648l-.38-.024c-.416-.026-.624-.039-.805-.135-.181-.096-.314-.264-.58-.6Z"/>
    <path d="M8.835 13.326C6.698 14.37 4.919 16.024 4.248 18c-.752-4.707.292-7.747 1.965-9.637.144.295.332.539.5.73.35.396.852.82 1.362 1.251l.367.31.17.145c.005.064.01.14.015.237l.03.485c.04.655.08 1.294.178 1.805Z" opacity=".5"/>
  </g>
</svg>
