<svg xmlns="http://www.w3.org/2000/svg" width="24" height="24" fill="none">
  <g fill="#1C274C">
    <path d="M16.946 2.847c1.408-.697 2.112-1.046 2.588-.73.476.317.409 1.09.273 2.634l-.035.4c-.038.439-.057.659.011.857.069.2.218.355.515.667l.271.284c1.048 1.097 1.571 1.646 1.399 2.208-.173.562-.927.765-2.436 1.172l-.39.105c-.43.116-.644.173-.815.308-.171.134-.28.33-.496.72l-.197.356c-.761 1.376-1.142 2.064-1.724 2.094-.583.031-.982-.616-1.779-1.909l-.206-.335c-.227-.367-.34-.55-.514-.667-.175-.116-.39-.151-.822-.221l-.392-.064c-1.518-.247-2.277-.37-2.464-.914-.188-.543.32-1.146 1.337-2.352l.262-.312c.29-.343.434-.514.497-.72.063-.206.038-.423-.012-.857l-.046-.396c-.177-1.528-.265-2.292.202-2.658.467-.367 1.18-.093 2.605.455l.368.142c.405.156.608.234.821.222.214-.01.414-.11.814-.308l.365-.18Z"/>
    <path d="M9.045 11.32C5.99 13.27 3.27 16.797 2.09 20.032c-.383 1.05.5 1.969 1.626 1.969H4.75c0-.351.082-.787.204-1.245.125-.47.305-1.013.53-1.594a25.771 25.771 0 0 1 1.852-3.797c.763-1.28 1.67-2.528 2.665-3.466l.074-.069a3.106 3.106 0 0 1-1.03-.51Zm2.975.897c-.319.195-.65.453-.99.774-.857.807-1.682 1.928-2.405 3.142a24.272 24.272 0 0 0-1.742 3.569c-.21.543-.372 1.033-.48 1.44-.11.418-.153.704-.153.859h2.833c0-1.124.39-3.206 1.094-5.292.517-1.53 1.233-3.153 2.155-4.44l-.312-.052Zm1.278 1.296c-.675 1.044-1.25 2.346-1.7 3.676-.678 2.007-1.015 3.915-1.015 4.812h1.289c1.126 0 2.032-.907 2.107-2.02.13-1.915.425-3.64.762-4.867a3.12 3.12 0 0 1-.782-.677 8.67 8.67 0 0 1-.66-.924Z" opacity=".5"/>
  </g>
</svg>
