<svg xmlns="http://www.w3.org/2000/svg" width="24" height="24" fill="none">
  <g fill="#1C274C">
    <path d="m14.946 3.114-.269.7.27-.7Zm1.635-.086-.333-.672.333.672Zm-4.81 2.147-.745.087.745-.087Zm2.807-2.203.269-.7-.27.7Zm-3.245 4.176.573.483-.574-.483Zm.484-1.577.745-.086-.745.086Zm.38 5.155-.12.74.12-.74ZM11.07 7.46l-.574-.483.574.483Zm2.855 4.218.638-.393-.638.393Zm-1.336-.888.121-.74-.12.74Zm5.045 1.038.657.363-.657-.363Zm-3.503.185-.638.393.638-.393Zm5.01-1.569-.195-.724.195.724Zm-1.31 1.028-.656-.363.656.363ZM20.57 6.96l-.542.518.542-.518Zm-1.037 3.38.195.724-.195-.724Zm.24-5.188.748.066-.748-.066Zm.526 1.524.543-.518-.543.518Zm-.49-1.924-.748-.065.747.065Zm-2.862-1.904.332.672-.332-.672Zm2.114 1.839-.035.4 1.495.13.035-.4-1.495-.13Zm.696 2.507.27.284 1.086-1.036-.271-.284-1.085 1.036Zm-.42 2.422-.39.105.39 1.448.39-.105-.39-1.448Zm-2.16 1.494-.198.356 1.313.726.197-.356-1.313-.726Zm-2.406.51-.207-.334-1.277.787.207.335 1.277-.788Zm-2.06-1.57-.393-.063-.24 1.48.392.064.241-1.48Zm-1.067-2.106.263-.312-1.147-.966-.263.312 1.147.966Zm.919-2.458-.046-.396-1.49.173.046.395 1.49-.172Zm1.747-1.813.368.142.539-1.4-.37-.142-.537 1.4Zm2.605.028.364-.18-.665-1.345-.365.18.666 1.345Zm-2.237.114c.345.133.72.293 1.13.271l-.08-1.498h-.012a.585.585 0 0 1-.075-.019 6.298 6.298 0 0 1-.425-.154l-.538 1.4Zm1.571-1.458a6.87 6.87 0 0 1-.424.2.663.663 0 0 1-.096.031l.079 1.498c.404-.021.765-.216 1.107-.385l-.666-1.344ZM12.517 5.09c-.091-.789-.148-1.295-.136-1.654a1.018 1.018 0 0 1 .051-.322l.003-.005.002-.001-.926-1.18c-.494.388-.612.95-.629 1.458-.016.498.06 1.137.145 1.877l1.49-.173Zm2.33-2.817c-.688-.265-1.286-.497-1.77-.603-.496-.11-1.07-.132-1.566.258l.926 1.18c.003-.003.002-.002 0-.001 0 0 .005-.002.024-.004a.975.975 0 0 1 .295.032c.346.076.817.255 1.553.538l.539-1.4Zm-2.94 5.36c.247-.294.521-.597.64-.984l-1.434-.44a.675.675 0 0 1-.056.091c-.06.083-.145.186-.297.366l1.147.966Zm-.834-1.975c.026.229.04.357.044.454a.626.626 0 0 1-.004.097l1.434.44c.12-.39.059-.792.016-1.163l-1.49.172Zm1.245 4.329c-.784-.128-1.285-.212-1.621-.32-.33-.106-.278-.167-.254-.098l-1.418.489c.21.611.736.884 1.212 1.037.47.151 1.107.253 1.84.372l.241-1.48Zm-1.82-3.01c-.493.585-.918 1.086-1.183 1.512-.267.426-.498.968-.29 1.569l1.418-.49c.02.058-.051.028.144-.285.195-.313.533-.717 1.057-1.339l-1.147-.966Zm4.066 4.309c-.19-.31-.394-.67-.737-.898l-.83 1.248c-.01-.006.001-.004.049.06.055.076.122.183.242.377l1.276-.787Zm-2.094.245c.227.037.354.058.447.081.081.02.089.03.08.024l.83-1.248c-.34-.227-.753-.278-1.116-.338l-.241 1.481Zm4.51-.065c-.393.709-.649 1.167-.872 1.462a1.088 1.088 0 0 1-.218.233.096.096 0 0 1-.024.014h.005l.08 1.497c.627-.033 1.047-.435 1.353-.839.303-.4.619-.974.988-1.64l-1.313-.727Zm-3.486.941c.385.625.718 1.17 1.037 1.544.327.384.778.755 1.42.721l-.08-1.498h.004a.06.06 0 0 1 .009.002c.006.002.004.002-.008-.005a.898.898 0 0 1-.203-.192c-.226-.265-.49-.69-.902-1.359l-1.277.787Zm5.453-2.686c-.369.1-.763.191-1.082.442l.926 1.18s.016-.015.098-.044a6.69 6.69 0 0 1 .448-.13l-.39-1.448Zm-.458 2.115c.246-.445.278-.475.302-.493l-.926-1.18c-.319.25-.503.61-.689.947l1.313.726Zm1.539-4.358c.542.567.884.93 1.084 1.215a.915.915 0 0 1 .136.248l.003.014v-.007l1.434.44c.188-.61-.054-1.138-.343-1.552-.281-.404-.724-.864-1.23-1.394l-1.084 1.036Zm-.3 3.586c.73-.197 1.36-.365 1.82-.563.467-.201.954-.514 1.137-1.113l-1.433-.44c0 .001 0 0 0 0v-.001l-.004.005a1.08 1.08 0 0 1-.293.171c-.337.146-.84.283-1.618.493l.39 1.448Zm-.702-5.977c-.032.37-.084.782.05 1.167l1.417-.49c.003.01-.005-.002-.004-.087 0-.098.011-.228.032-.46l-1.495-.13Zm1.816 1.071a6.109 6.109 0 0 1-.302-.329c-.05-.062-.05-.074-.047-.064l-1.418.49c.135.389.43.676.682.939l1.085-1.036Zm-.287-1.34c.066-.747.125-1.393.095-1.888-.03-.498-.161-1.078-.7-1.436l-.83 1.25c-.062-.042.011-.077.032.276.022.357-.02.87-.09 1.667l1.494.13ZM17.279 3.52c.727-.36 1.197-.59 1.545-.704.348-.114.353-.035.296-.073l.83-1.249c-.532-.354-1.117-.26-1.593-.104-.475.156-1.061.448-1.743.786l.665 1.344Z"/>
    <path d="m13.98 19.98.748.05-.749-.05Zm-11.89.052.705.257-.704-.257Zm12.766-7.093c-.22.273-.402.666-.556 1.084-.16.436-.313.967-.452 1.565-.278 1.198-.507 2.706-.617 4.342l1.497.1c.105-1.563.324-2.99.581-4.103.13-.557.266-1.025.399-1.387.14-.38.254-.582.315-.659l-1.167-.942Zm-12.06 7.35c.658-1.805 1.832-3.73 3.295-5.396 1.465-1.667 3.18-3.03 4.891-3.759l-.587-1.38c-1.977.841-3.866 2.368-5.431 4.15-1.567 1.784-2.847 3.868-3.578 5.87l1.41.515Zm9.076.961H9.833v1.5h2.039v-1.5Zm-2.039 0H5.5v1.5h4.333v-1.5Zm-4.333 0H3.717v1.5H5.5v-1.5Zm5.083.75c0-.896.337-2.805 1.015-4.812.681-2.016 1.652-3.967 2.823-5.053l-1.02-1.1c-1.454 1.348-2.522 3.595-3.224 5.673-.705 2.086-1.094 4.168-1.094 5.292h1.5Zm-9.197-2.225a2.088 2.088 0 0 0 .386 2.127c.467.538 1.183.848 1.945.848v-1.5c-.365 0-.653-.149-.813-.332a.59.59 0 0 1-.109-.63l-1.409-.513Zm11.845.155c-.05.746-.653 1.32-1.36 1.32v1.5c1.547 0 2.757-1.238 2.857-2.72l-1.497-.1ZM6.25 22c0-.154.042-.44.153-.86.108-.406.27-.895.48-1.439a24.267 24.267 0 0 1 1.742-3.569c.723-1.214 1.548-2.335 2.405-3.142.872-.821 1.68-1.229 2.38-1.229v-1.5c-1.265 0-2.428.714-3.409 1.637-.995.938-1.902 2.186-2.665 3.466a25.767 25.767 0 0 0-1.853 3.797 15.751 15.751 0 0 0-.53 1.595c-.12.457-.203.893-.203 1.244h1.5Z" opacity=".5"/>
  </g>
</svg>
