<svg xmlns="http://www.w3.org/2000/svg" width="24" height="24" fill="none">
  <g fill="#1C274C">
    <path d="M12.55 3.44c-.432-.931-.648-1.396-1.029-1.435-.38-.04-.674.373-1.262 1.198l-.152.214c-.166.234-.25.351-.37.422-.12.07-.263.087-.55.119l-.26.03c-1.01.112-1.514.168-1.664.52-.15.351.154.765.761 1.592l.158.214c.172.235.258.352.29.49.031.138.004.28-.05.564l-.05.259c-.192 1-.288 1.5 0 1.757.289.256.77.099 1.733-.215l.249-.081c.274-.09.41-.134.55-.12.14.015.266.086.519.23l.23.13c.89.506 1.335.759 1.663.566.328-.193.322-.704.31-1.725l-.004-.264c-.003-.29-.005-.436.05-.564.055-.129.16-.227.371-.422l.192-.178c.742-.688 1.113-1.032 1.027-1.408-.085-.375-.57-.534-1.54-.851L13.47 4.4c-.276-.09-.414-.135-.52-.23-.105-.093-.166-.225-.289-.49l-.111-.24Z"/>
    <path fill-rule="evenodd" d="M11.205 11.279a.75.75 0 0 1 .515.927c-.366 1.283-.454 3.144-.396 5.008a41.29 41.29 0 0 0 .417 4.672.75.75 0 0 1-1.483.228c-.17-1.11-.374-2.94-.433-4.853-.059-1.894.02-3.95.453-5.467a.75.75 0 0 1 .927-.515Zm11.442-2.157a.75.75 0 0 1-.27 1.026C16.666 13.48 15.25 18.859 15.25 22a.75.75 0 0 1-1.5 0c0-3.525 1.583-9.48 7.872-13.148a.75.75 0 0 1 1.025.27Z" clip-rule="evenodd" opacity=".5"/>
    <path d="M5.133 13.765c-.023-.108.149-.207.23-.133.238.213.56.457.86.537.3.08.699.03 1.011-.036.108-.023.207.149.133.23-.213.238-.456.56-.537.86-.08.299-.03.698.036 1.011.023.108-.149.207-.23.133-.238-.213-.56-.456-.859-.537-.3-.08-.7-.03-1.012.036-.108.023-.207-.149-.133-.23.213-.238.457-.56.537-.859.08-.3.03-.7-.036-1.012Z"/>
  </g>
</svg>
