<svg xmlns="http://www.w3.org/2000/svg" width="24" height="24" fill="none">
  <g stroke="#1C274C" stroke-width="1.5">
    <path d="M13.25 8.75a1.25 1.25 0 1 1-2.5 0 1.25 1.25 0 0 1 2.5 0Z"/>
    <path stroke-linecap="round" d="M7.008 14A7.06 7.06 0 0 1 5 9.055C5 5.159 8.134 2 12 2s7 3.159 7 7.055a7.06 7.06 0 0 1-1.977 4.913m-8.035-1.963A4.236 4.236 0 0 1 7.8 9.055c0-2.338 1.88-4.233 4.2-4.233 2.32 0 4.2 1.895 4.2 4.233 0 1.13-.44 2.158-1.157 2.917"/>
    <path stroke-linecap="round" stroke-linejoin="round" d="m16 22-4-12-4 12"/>
    <path stroke-linecap="round" d="M14.5 17.5h-5"/>
  </g>
</svg>
