<svg xmlns="http://www.w3.org/2000/svg" width="24" height="24" fill="none">
  <g fill="#1C274C">
    <path fill-rule="evenodd" d="M11.285 9.775A1.249 1.249 0 0 1 12 7.5a1.25 1.25 0 0 1 .716 2.275l2.49 7.471a.75.75 0 0 1 .011.033l1.495 4.484a.75.75 0 0 1-1.423.474l-1.33-3.987h-3.918l-1.33 3.987a.75.75 0 0 1-1.422-.474l1.494-4.484a.764.764 0 0 1 .011-.033l2.49-7.471ZM12 12.372l1.46 4.378h-2.92L12 12.372Z" clip-rule="evenodd"/>
    <path d="M12 2.75c-3.446 0-6.25 2.817-6.25 6.305a6.31 6.31 0 0 0 1.795 4.421.75.75 0 0 1-1.074 1.048 7.81 7.81 0 0 1-2.221-5.47C4.25 4.75 7.714 1.25 12 1.25s7.75 3.5 7.75 7.805a7.81 7.81 0 0 1-2.186 5.433.75.75 0 1 1-1.08-1.04 6.31 6.31 0 0 0 1.766-4.393c0-3.488-2.804-6.305-6.25-6.305Z" opacity=".4"/>
    <path d="M12 5.572c-1.9 0-3.45 1.554-3.45 3.483 0 .946.372 1.801.977 2.429a.75.75 0 0 1-1.08 1.041 4.986 4.986 0 0 1-1.397-3.47c0-2.747 2.21-4.983 4.95-4.983s4.95 2.236 4.95 4.983a4.986 4.986 0 0 1-1.362 3.432.75.75 0 1 1-1.09-1.03c.59-.625.952-1.47.952-2.402 0-1.93-1.55-3.483-3.45-3.483Z" opacity=".7"/>
  </g>
</svg>
