<svg xmlns="http://www.w3.org/2000/svg" width="24" height="24" fill="none">
  <g stroke="#1C274C" stroke-width="1.5">
    <path stroke-linecap="round" d="M9 14.235V17a5.001 5.001 0 0 0 3 4.584m2.882.416a4.12 4.12 0 0 0 3.964-3"/>
    <path stroke-linecap="round" d="M12.286 3h.091c.313 0 .47 0 .601.012a3 3 0 0 1 2.725 2.724c.011.132.011.288.011.6v.9c0 .981-.202 1.916-.567 2.764M5.43 3h-.092c-.313 0-.47 0-.601.012a3 3 0 0 0-2.724 2.724C2 5.868 2 6.024 2 6.336v1.185a6.714 6.714 0 0 0 6.714 6.714 6.97 6.97 0 0 0 3-.673"/>
    <circle cx="19" cy="16" r="3"/>
    <path stroke-linecap="round" d="M12 2v2M6 2v2"/>
  </g>
</svg>
