<svg xmlns="http://www.w3.org/2000/svg" width="24" height="24" fill="none">
  <g fill="#1C274C">
    <path d="M20.071 13.01C20.616 13 21.25 13 22 13v-1c0-4.714 0-7.071-1.465-8.536C19.072 2 16.714 2 12 2S4.929 2 3.464 3.464C2 4.93 2 7.286 2 12c0 4.714 0 7.071 1.464 8.535C4.93 22 7.286 22 12 22h1c0-.75 0-1.384.01-1.929.02-1.094.078-1.834.254-2.462l.003-.01.041-.137.007-.02a6.427 6.427 0 0 1 4.127-4.127c.665-.216 1.437-.284 2.63-.305Z" opacity=".5"/>
    <path d="M22 13c-.75 0-1.384 0-1.929.01-1.192.021-1.964.089-2.629.305a6.429 6.429 0 0 0-4.127 4.127c-.216.665-.284 1.437-.305 2.63C13 20.615 13 21.248 13 22a9.09 9.09 0 0 0 1.812-.182h.002l.06-.014h.005l.05-.011a9.012 9.012 0 0 0 6.864-6.864A9.037 9.037 0 0 0 22 13Zm-7-1c.552 0 1-.672 1-1.5S15.552 9 15 9s-1 .672-1 1.5.448 1.5 1 1.5Zm-6 0c.552 0 1-.672 1-1.5S9.552 9 9 9s-1 .672-1 1.5.448 1.5 1 1.5Z"/>
    <path d="M13.315 17.442a6.427 6.427 0 0 1 .957-1.852 4.244 4.244 0 0 1-4.825-.192.75.75 0 0 0-.894 1.205 5.766 5.766 0 0 0 4.711 1.006l.003-.01.041-.137.007-.02Z"/>
  </g>
</svg>
