<svg xmlns="http://www.w3.org/2000/svg" width="24" height="24" fill="none">
  <path stroke="#1C274C" stroke-linecap="round" stroke-width="1.5" d="M8.913 15.934a8.102 8.102 0 0 0 3.356.1"/>
  <ellipse cx="14.509" cy="9.774" fill="#1C274C" rx="1" ry="1.5" transform="rotate(-15 14.51 9.774)"/>
  <ellipse cx="8.714" cy="11.328" fill="#1C274C" rx="1" ry="1.5" transform="rotate(-15 8.714 11.328)"/>
  <path stroke="#1C274C" stroke-linecap="round" stroke-width="1.5" d="M7 3.338A9.954 9.954 0 0 1 12 2c5.523 0 10 4.477 10 10 0 .648-.3 1.25-.758 1.708l-7.534 7.534C13.25 21.7 12.648 22 12 22 6.477 22 2 17.523 2 12c0-1.821.487-3.53 1.338-5"/>
  <path stroke="#1C274C" stroke-width="1.5" d="M12 22c0-2.793 0-4.19.393-5.312a7 7 0 0 1 4.295-4.295C17.811 12 19.208 12 22 12"/>
</svg>
