<svg xmlns="http://www.w3.org/2000/svg" width="24" height="24" fill="none">
  <g fill="#1C274C">
    <path d="M16 10.5c0 .828-.448 1.5-1 1.5s-1-.672-1-1.5.448-1.5 1-1.5 1 .672 1 1.5Zm-6 0c0 .828-.448 1.5-1 1.5s-1-.672-1-1.5S8.448 9 9 9s1 .672 1 1.5Z"/>
    <path fill-rule="evenodd" d="M11.943 1.25h.114c2.309 0 4.118 0 5.53.19 1.444.194 2.584.6 3.479 1.494.895.895 1.3 2.035 1.494 3.48.19 1.411.19 3.22.19 5.529V15A7.75 7.75 0 0 1 15 22.75h-3.057c-2.309 0-4.118 0-5.53-.19-1.444-.194-2.584-.6-3.479-1.494-.895-.895-1.3-2.035-1.494-3.48-.19-1.411-.19-3.22-.19-5.529v-.114c0-2.309 0-4.118.19-5.53.194-1.444.6-2.584 1.494-3.479.895-.895 2.035-1.3 3.48-1.494 1.411-.19 3.22-.19 5.529-.19Zm-5.33 1.676c-1.278.172-2.049.5-2.618 1.069-.57.57-.897 1.34-1.069 2.619-.174 1.3-.176 3.008-.176 5.386s.002 4.086.176 5.386c.172 1.279.5 2.05 1.069 2.62.57.569 1.34.896 2.619 1.068 1.3.174 3.008.176 5.386.176h2.25c.004-1.366.034-2.264.281-3.027a5.75 5.75 0 0 1 .741-1.496A5.755 5.755 0 0 1 12 17.75a5.766 5.766 0 0 1-3.447-1.148.75.75 0 1 1 .894-1.204c.728.54 1.607.852 2.553.852s1.825-.313 2.553-.852a.75.75 0 0 1 1.183.744 5.749 5.749 0 0 1 2.487-1.61c.763-.248 1.66-.278 3.027-.282V12c0-2.378-.002-4.086-.176-5.386-.172-1.279-.5-2.05-1.069-2.62-.57-.569-1.34-.896-2.619-1.068-1.3-.174-3.008-.176-5.386-.176s-4.086.002-5.386.176Zm14.592 12.825c-1.357.006-1.999.038-2.518.207a4.25 4.25 0 0 0-2.729 2.729c-.169.52-.2 1.161-.207 2.518a6.253 6.253 0 0 0 5.454-5.454Z" clip-rule="evenodd"/>
  </g>
</svg>
