<svg xmlns="http://www.w3.org/2000/svg" width="24" height="24" fill="none">
  <g fill="#1C274C">
    <path d="M15.475 9.516c.215.8-.044 1.565-.577 1.707-.534.143-1.14-.39-1.354-1.19-.215-.8.044-1.564.577-1.707.534-.143 1.14.39 1.354 1.19ZM9.68 11.069c.214.8-.044 1.564-.578 1.707-.533.143-1.14-.39-1.354-1.19-.214-.8.044-1.564.578-1.707.533-.143 1.14.39 1.354 1.19Z"/>
    <path fill-rule="evenodd" d="M12 2.75a9.25 9.25 0 0 0-.75 18.47c.002-1.976.026-3.276.302-4.34a8.632 8.632 0 0 1-2.822-.22.75.75 0 1 1 .365-1.454c.928.232 1.97.276 3.045.088a.766.766 0 0 1 .057-.007 7.75 7.75 0 0 1 4.243-3.602c1.147-.401 2.523-.433 4.78-.435A9.25 9.25 0 0 0 12 2.75Zm9.14 10c-2.257.006-3.336.047-4.204.35a6.25 6.25 0 0 0-3.835 3.836c-.304.868-.345 1.947-.35 4.203l8.388-8.388ZM1.25 12C1.25 6.063 6.063 1.25 12 1.25S22.75 6.063 22.75 12c0 .362-.018.72-.053 1.074l-.026.267-9.33 9.33-.267.026c-.353.035-.712.053-1.074.053-5.937 0-10.75-4.813-10.75-10.75Z" clip-rule="evenodd"/>
  </g>
</svg>
