<svg xmlns="http://www.w3.org/2000/svg" width="24" height="24" fill="none">
  <path fill="#1C274C" fill-rule="evenodd" d="M9.25 2a.75.75 0 0 1 .75-.75h4a.75.75 0 0 1 0 1.5h-4A.75.75 0 0 1 9.25 2ZM12 4.75a8.25 8.25 0 1 0 0 16.5 8.25 8.25 0 0 0 0-16.5ZM2.25 13c0-5.385 4.365-9.75 9.75-9.75s9.75 4.365 9.75 9.75-4.365 9.75-9.75 9.75S2.25 18.385 2.25 13Zm10.323-3.91.059.036c.287.175.57.356.825.535.29.204.6.444.905.693l.046.037c.498.406.945.771 1.258 1.135.354.413.584.877.584 1.474s-.23 1.06-.584 1.474c-.313.364-.76.729-1.258 1.135l-.046.037c-.305.25-.615.49-.905.693-.255.179-.538.36-.825.535l-.06.036c-.484.295-.942.574-1.343.718-.223.08-.478.138-.754.118a1.451 1.451 0 0 1-.773-.296c-.459-.344-.643-.843-.74-1.34-.091-.472-.126-1.081-.167-1.793l-.003-.052c-.026-.436-.042-.87-.042-1.265 0-.395.016-.83.042-1.265l.003-.052c.04-.712.076-1.32.168-1.793.096-.497.28-.996.74-1.34.225-.17.483-.274.772-.296.276-.02.531.038.754.118.4.144.859.423 1.344.718Zm-1.973.661c-.024.019-.1.086-.165.424-.07.362-.1.868-.146 1.646-.024.419-.039.823-.039 1.179 0 .356.015.76.04 1.179.044.777.075 1.284.145 1.646.066.338.14.405.165.424a.601.601 0 0 0 .122-.033c.24-.086.565-.28 1.13-.624.27-.163.524-.327.743-.48.25-.177.53-.393.819-.628.558-.456.899-.737 1.114-.988.183-.213.222-.343.222-.496 0-.153-.04-.283-.222-.496-.215-.251-.556-.532-1.114-.988a14.648 14.648 0 0 0-.819-.627 13.73 13.73 0 0 0-.743-.481c-.566-.344-.89-.538-1.13-.624a.601.601 0 0 0-.122-.033Z" clip-rule="evenodd"/>
</svg>
