<svg xmlns="http://www.w3.org/2000/svg" width="24" height="24" fill="none">
  <path fill="#1C274C" fill-rule="evenodd" d="M9.451 1.25h5.098c1.602 0 2.872 0 3.876.119 1.03.122 1.88.377 2.588.96.24.197.461.417.659.658.582.709.837 1.557.96 2.588.118 1.004.118 2.274.118 3.876v.098c0 1.602 0 2.872-.119 3.876-.122 1.03-.377 1.88-.96 2.588-.197.24-.417.461-.658.659-.789.647-1.752.892-2.948.996a.75.75 0 1 1-.13-1.494c.776-.068 1.304-.192 1.704-.39l-6.086-4.681-10.052-7.18-.013.015c-.326.398-.525.924-.63 1.813-.107.906-.108 2.087-.108 3.749s.001 2.843.108 3.749c.105.889.304 1.415.63 1.813a3.3 3.3 0 0 0 .45.45c.443.364 1.044.567 2.127.662a.75.75 0 1 1-.13 1.494c-1.196-.104-2.16-.349-2.948-.996a4.751 4.751 0 0 1-.659-.659c-.582-.709-.837-1.557-.96-2.588-.118-1.005-.118-2.274-.118-3.876V9.45c0-1.602 0-2.872.119-3.876.122-1.03.377-1.88.96-2.588a4.75 4.75 0 0 1 .658-.659c.709-.582 1.557-.837 2.588-.96C6.58 1.25 7.85 1.25 9.451 1.25ZM4.837 3.033l9.062 6.473 5.809-6.255c-.354-.19-.81-.316-1.46-.393-.905-.107-2.086-.108-3.748-.108h-5c-1.662 0-2.843.001-3.749.108a5.61 5.61 0 0 0-.914.175ZM20.763 4.32l-5.653 6.088 5.624 4.327c.198-.357.329-.82.408-1.485.107-.906.108-2.087.108-3.749s-.001-2.843-.108-3.749c-.075-.633-.197-1.082-.38-1.432Zm-8.79 10.448c-.05.036-.134.117-.258.295-.255.365-.543.937-.976 1.803l-1.335 2.671c-.262.522-.439.878-.55 1.145-.087.21-.1.293-.103.304a.33.33 0 0 0 .246.265c.012-.002.096-.01.311-.082a20.189 20.189 0 0 0 1.236-.49c.338-.14.596-.247.867-.303.389-.08.79-.08 1.178 0 .271.056.53.163.867.303l.055.023c.54.224.908.376 1.18.467.216.072.3.08.312.082a.33.33 0 0 0 .246-.265c-.003-.011-.016-.094-.103-.304a20.9 20.9 0 0 0-.55-1.145l-1.335-2.671c-.433-.866-.72-1.438-.976-1.803a1.249 1.249 0 0 0-.258-.295.173.173 0 0 0-.027-.017.173.173 0 0 0-.027.017ZM12 14.75h-.003H12Zm-1.515-.547c.33-.473.798-.953 1.515-.953.717 0 1.185.48 1.515.953.326.467.662 1.14 1.06 1.936l1.376 2.753c.245.49.447.892.58 1.213.125.3.255.67.21 1.044a1.83 1.83 0 0 1-1.47 1.577c-.368.072-.747-.032-1.055-.135-.33-.11-.746-.283-1.252-.493l-.027-.01c-.417-.174-.537-.22-.652-.244a1.41 1.41 0 0 0-.57 0c-.115.024-.235.07-.652.243l-.027.011c-.506.21-.922.383-1.252.493-.308.103-.687.206-1.056.135A1.83 1.83 0 0 1 7.26 21.15c-.045-.373.085-.743.21-1.044.133-.32.335-.724.58-1.213l1.376-2.753c.398-.796.734-1.469 1.06-1.936Z" clip-rule="evenodd"/>
</svg>
