<svg xmlns="http://www.w3.org/2000/svg" width="24" height="24" fill="none">
  <g fill="#1C274C">
    <path d="M14.5 2h-5c-2.616 0-4.191 0-5.283.458l9.689 7.046 6.366-6.79C19.168 2 17.534 2 14.5 2Zm6.823 1.786-6.216 6.63 6.18 4.855C22 14.168 22 12.534 22 9.5c0-2.982 0-4.611-.677-5.714ZM2 9.5c0 3.287 0 4.931.908 6.038a4 4 0 0 0 .554.554c.616.505 1.398.73 2.538.829.608.053 1.317.07 2.157.076l.57-1.138.045-.092c.382-.764.74-1.48 1.098-1.993.366-.524 1.03-1.274 2.13-1.274 1.1 0 1.764.75 2.13 1.274.358.513.716 1.23 1.098 1.993l.046.092.569 1.138c.84-.006 1.55-.023 2.157-.076.944-.082 1.642-.25 2.204-.592l-6.656-5.23-10.587-7.7-.053.063C2 4.57 2 6.212 2 9.5Z"/>
    <path d="m15.267 19.2-1.335-2.67C13.089 14.842 12.668 14 12 14c-.668 0-1.089.843-1.932 2.53L8.733 19.2c-.512 1.024-.768 1.537-.73 1.859.057.465.407.842.868.93.318.062.847-.157 1.905-.595.39-.162.587-.243.787-.284.288-.06.586-.06.874 0 .2.041.396.122.787.284 1.058.438 1.586.657 1.905.596.46-.09.81-.465.867-.931.04-.323-.217-.835-.729-1.858Z"/>
  </g>
</svg>
