<svg xmlns="http://www.w3.org/2000/svg" width="24" height="24" fill="none">
  <g fill="#1C274C">
    <path fill-rule="evenodd" d="M17.386 2.926c-1.3-.174-3.008-.176-5.386-.176s-4.086.002-5.386.176c-1.279.172-2.05.5-2.62 1.069-.569.57-.896 1.34-1.068 2.619-.174 1.3-.176 3.008-.176 5.386s.002 4.086.176 5.386c.172 1.279.5 2.05 1.069 2.62.467.467 1.07.77 1.979.96L20.966 5.974c-.19-.908-.493-1.512-.96-1.98-.57-.569-1.341-.896-2.62-1.068Zm3.801 4.948L15.061 14l5.407 5.407c.295-.5.487-1.14.606-2.02.174-1.3.176-3.009.176-5.387 0-1.678 0-3.023-.063-4.126Zm-1.78 12.594L14 15.06l-6.126 6.127c1.103.062 2.448.063 4.126.063 2.378 0 4.086-.002 5.386-.176.882-.119 1.523-.311 2.022-.606ZM17.588 1.44c1.444.194 2.584.6 3.479 1.494.895.895 1.3 2.035 1.494 3.48.19 1.411.19 3.22.19 5.529v.114c0 2.309 0 4.118-.19 5.53-.194 1.444-.6 2.584-1.494 3.479-.895.895-2.035 1.3-3.48 1.494-1.411.19-3.22.19-5.529.19h-.114c-2.309 0-4.118 0-5.53-.19-1.444-.194-2.584-.6-3.479-1.494-.895-.895-1.3-2.035-1.494-3.48-.19-1.411-.19-3.22-.19-5.529v-.114c0-2.309 0-4.118.19-5.53.194-1.444.6-2.584 1.494-3.479.895-.895 2.035-1.3 3.48-1.494 1.411-.19 3.22-.19 5.529-.19h.114c2.309 0 4.118 0 5.53.19ZM4.75 8.757C4.75 6.494 6.704 4.75 9 4.75c2.296 0 4.25 1.744 4.25 4.007 0 2.027-1.246 4.418-3.315 5.302a2.388 2.388 0 0 1-1.87 0c-2.07-.884-3.315-3.275-3.315-5.302ZM9 6.25c-1.57 0-2.75 1.172-2.75 2.507 0 1.544.988 3.318 2.405 3.923a.888.888 0 0 0 .69 0c1.417-.605 2.405-2.38 2.405-3.923 0-1.335-1.18-2.507-2.75-2.507Z" clip-rule="evenodd"/>
    <path d="M10 9a1 1 0 1 1-2 0 1 1 0 0 1 2 0Z"/>
  </g>
</svg>
