<svg xmlns="http://www.w3.org/2000/svg" width="24" height="24" fill="none">
  <g fill="#1C274C">
    <path d="M5.25 16a.75.75 0 0 1 .75-.75h4a.75.75 0 0 1 0 1.5H6a.75.75 0 0 1-.75-.75ZM18 12.25a.75.75 0 0 1 0 1.5h-4a.75.75 0 0 1 0-1.5h4ZM11.75 16a.75.75 0 0 1 .75-.75H14a.75.75 0 0 1 0 1.5h-1.5a.75.75 0 0 1-.75-.75Zm-.25-3.75a.75.75 0 0 1 0 1.5h-2a.75.75 0 0 1 0-1.5h2ZM15.75 16a.75.75 0 0 1 .75-.75H18a.75.75 0 0 1 0 1.5h-1.5a.75.75 0 0 1-.75-.75ZM7 12.25a.75.75 0 0 1 0 1.5H6a.75.75 0 0 1 0-1.5h1Z"/>
    <path fill-rule="evenodd" d="M9.944 3.25h4.112c1.838 0 3.294 0 4.433.153 1.172.158 2.121.49 2.87 1.238.748.749 1.08 1.698 1.238 2.87.153 1.14.153 2.595.153 4.433v.112c0 1.838 0 3.294-.153 4.433-.158 1.172-.49 2.121-1.238 2.87-.749.748-1.698 1.08-2.87 1.238-1.14.153-2.595.153-4.433.153H9.944c-1.838 0-3.294 0-4.433-.153-1.172-.158-2.121-.49-2.87-1.238-.748-.749-1.08-1.698-1.238-2.87-.153-1.14-.153-2.595-.153-4.433v-.112c0-1.838 0-3.294.153-4.433.158-1.172.49-2.121 1.238-2.87.749-.748 1.698-1.08 2.87-1.238 1.14-.153 2.595-.153 4.433-.153ZM5.71 4.89c-1.006.135-1.586.389-2.01.812-.422.423-.676 1.003-.811 2.009-.138 1.028-.14 2.382-.14 4.289 0 1.907.002 3.261.14 4.29.135 1.005.389 1.585.812 2.008.423.423 1.003.677 2.009.812 1.028.138 2.382.14 4.289.14h4c1.907 0 3.262-.002 4.29-.14 1.005-.135 1.585-.389 2.008-.812.423-.423.677-1.003.812-2.009.138-1.028.14-2.382.14-4.289 0-1.907-.002-3.261-.14-4.29-.135-1.005-.389-1.585-.812-2.008-.423-.423-1.003-.677-2.009-.812-1.027-.138-2.382-.14-4.289-.14h-4c-1.907 0-3.261.002-4.29.14Z" clip-rule="evenodd"/>
  </g>
</svg>
