<svg xmlns="http://www.w3.org/2000/svg" width="24" height="24" fill="none">
  <path fill="#1C274C" fill-rule="evenodd" d="M11.948 1.25h.104c.899 0 1.648 0 2.242.08.628.084 1.195.27 1.65.725.456.456.642 1.023.726 1.65.06.44.075.964.079 1.57.648.021 1.226.06 1.74.128 1.172.158 2.121.49 2.87 1.238.748.749 1.08 1.698 1.238 2.87.05.375.084.784.107 1.23a.747.747 0 0 1 .019.46c.027.801.027 1.712.027 2.743v.112c0 1.031 0 1.942-.027 2.744a.752.752 0 0 1-.02.46 15.07 15.07 0 0 1-.106 1.229c-.158 1.172-.49 2.121-1.238 2.87-.749.748-1.698 1.08-2.87 1.238-1.14.153-2.595.153-4.433.153H9.944c-1.838 0-3.294 0-4.433-.153-1.172-.158-2.121-.49-2.87-1.238-.748-.749-1.08-1.698-1.238-2.87-.05-.375-.084-.784-.107-1.23a.748.748 0 0 1-.019-.46c-.027-.801-.027-1.712-.027-2.743v-.112c0-1.031 0-1.942.027-2.744a.752.752 0 0 1 .02-.46c.022-.445.056-.854.106-1.229.158-1.172.49-2.121 1.238-2.87.749-.748 1.698-1.08 2.87-1.238a17.54 17.54 0 0 1 1.74-.128c.004-.606.02-1.13.079-1.57.084-.627.27-1.194.725-1.65.456-.455 1.023-.64 1.65-.725.595-.08 1.345-.08 2.243-.08ZM8.752 5.252c.378-.002.775-.002 1.192-.002h4.112c.417 0 .814 0 1.192.002-.004-.57-.018-1-.064-1.347-.063-.461-.17-.659-.3-.789-.13-.13-.328-.237-.79-.3-.482-.064-1.13-.066-2.094-.066s-1.612.002-2.095.067c-.461.062-.659.169-.789.3-.13.13-.237.327-.3.788-.046.346-.06.776-.064 1.347ZM2.763 11.75c-.013.653-.013 1.396-.013 2.25 0 .854 0 1.597.013 2.25h18.474c.013-.653.013-1.396.013-2.25 0-.854 0-1.597-.013-2.25H2.763Zm18.405-1.5H2.832c.016-.19.035-.369.058-.54.135-1.005.389-1.585.812-2.008.423-.423 1.003-.677 2.009-.812 1.028-.138 2.382-.14 4.289-.14h4c1.907 0 3.262.002 4.29.14 1.005.135 1.585.389 2.008.812.423.423.677 1.003.812 2.009.023.17.042.35.058.539Zm0 7.5H2.832c.016.19.035.369.058.54.135 1.005.389 1.585.812 2.008.423.423 1.003.677 2.009.812 1.028.138 2.382.14 4.289.14h4c1.907 0 3.262-.002 4.29-.14 1.005-.135 1.585-.389 2.008-.812.423-.423.677-1.003.812-2.009.023-.17.042-.35.058-.539Z" clip-rule="evenodd"/>
</svg>
