<svg xmlns="http://www.w3.org/2000/svg" width="24" height="24" fill="none">
  <path fill="#1C274C" fill-rule="evenodd" d="M12.052 1.25h-.104c-.899 0-1.648 0-2.242.08-.628.084-1.195.27-1.65.725-.456.456-.642 1.023-.726 1.65-.08.595-.08 1.345-.08 2.243v.078c-2.021.066-3.235.302-4.078 1.146C2 8.343 2 10.229 2 14c0 3.771 0 5.657 1.172 6.828C4.343 22 6.229 22 10 22h4c3.771 0 5.657 0 6.828-1.172C22 19.657 22 17.771 22 14c0-3.771 0-5.657-1.172-6.828-.843-.844-2.057-1.08-4.078-1.146v-.078c0-.898 0-1.648-.08-2.242-.084-.628-.27-1.195-.726-1.65-.455-.456-1.022-.642-1.65-.726-.594-.08-1.344-.08-2.242-.08Zm3.198 4.752V6c0-.964-.002-1.612-.066-2.095-.063-.461-.17-.659-.3-.789-.13-.13-.328-.237-.79-.3-.482-.064-1.13-.066-2.094-.066s-1.612.002-2.095.067c-.461.062-.659.169-.789.3-.13.13-.237.327-.3.788C8.753 4.388 8.75 5.036 8.75 6v.002C9.142 6 9.558 6 10 6h4c.442 0 .858 0 1.25.002ZM17 9a1 1 0 1 1-2 0 1 1 0 0 1 2 0Zm-9 1a1 1 0 1 0 0-2 1 1 0 0 0 0 2Z" clip-rule="evenodd"/>
</svg>
