<svg xmlns="http://www.w3.org/2000/svg" width="24" height="24" fill="none">
  <path fill="#1C274C" fill-rule="evenodd" d="M12 1.25a.75.75 0 0 1 .75.75v2a.75.75 0 0 1-1.5 0V2a.75.75 0 0 1 .75-.75ZM3.669 3.716a.75.75 0 0 1 1.06-.047L6.95 5.7a.75.75 0 1 1-1.012 1.107L3.716 4.776a.75.75 0 0 1-.047-1.06Zm16.662 0a.75.75 0 0 1-.047 1.06l-2.222 2.031A.75.75 0 0 1 17.05 5.7l2.222-2.031a.75.75 0 0 1 1.06.047ZM12 7.75a4.25 4.25 0 1 0 0 8.5 4.25 4.25 0 0 0 0-8.5ZM6.25 12a5.75 5.75 0 1 1 11.5 0 5.75 5.75 0 0 1-11.5 0Zm-5 0a.75.75 0 0 1 .75-.75h2a.75.75 0 0 1 0 1.5H2a.75.75 0 0 1-.75-.75Zm18 0a.75.75 0 0 1 .75-.75h2a.75.75 0 0 1 0 1.5h-2a.75.75 0 0 1-.75-.75Zm-2.224 5.025a.75.75 0 0 1 1.06 0l2.222 2.223a.75.75 0 0 1-1.06 1.06l-2.223-2.222a.75.75 0 0 1 0-1.06Zm-10.051 0a.75.75 0 0 1 0 1.061l-2.223 2.222a.75.75 0 0 1-1.06-1.06l2.222-2.223a.75.75 0 0 1 1.06 0ZM12 19.25a.75.75 0 0 1 .75.75v2a.75.75 0 0 1-1.5 0v-2a.75.75 0 0 1 .75-.75Z" clip-rule="evenodd"/>
</svg>
