<svg xmlns="http://www.w3.org/2000/svg" width="24" height="24" fill="none">
  <path fill="#1C274C" fill-rule="evenodd" d="M12 1.25a.75.75 0 0 1 .75.75v1a.75.75 0 0 1-1.5 0V2a.75.75 0 0 1 .75-.75ZM4.399 4.399a.75.75 0 0 1 1.06 0l.393.392a.75.75 0 0 1-1.06 1.061l-.393-.393a.75.75 0 0 1 0-1.06Zm15.202 0a.75.75 0 0 1 0 1.06l-.393.393a.75.75 0 0 1-1.06-1.06l.393-.393a.75.75 0 0 1 1.06 0ZM11.25 6.803a5.251 5.251 0 0 0-3.398 8.416h8.296a5.251 5.251 0 0 0-3.398-8.416v3.386l.72-.72a.75.75 0 1 1 1.06 1.061l-2 2a.75.75 0 0 1-1.06 0l-2-2a.75.75 0 1 1 1.06-1.06l.72.72V6.802ZM6.083 15.25a6.75 6.75 0 1 1 11.835 0H22a.75.75 0 0 1 0 1.5H2a.75.75 0 0 1 0-1.5h4.083ZM1.25 12a.75.75 0 0 1 .75-.75h1a.75.75 0 0 1 0 1.5H2a.75.75 0 0 1-.75-.75Zm19 0a.75.75 0 0 1 .75-.75h1a.75.75 0 0 1 0 1.5h-1a.75.75 0 0 1-.75-.75Zm-16 7a.75.75 0 0 1 .75-.75h14a.75.75 0 0 1 0 1.5H5a.75.75 0 0 1-.75-.75Zm3 3a.75.75 0 0 1 .75-.75h8a.75.75 0 0 1 0 1.5H8a.75.75 0 0 1-.75-.75Z" clip-rule="evenodd"/>
</svg>
