<svg xmlns="http://www.w3.org/2000/svg" width="24" height="24" fill="none">
  <g fill="#1C274C">
    <path fill-rule="evenodd" d="M7.25 22a.75.75 0 0 1 .75-.75h8a.75.75 0 0 1 0 1.5H8a.75.75 0 0 1-.75-.75ZM12 1.25a.75.75 0 0 1 .75.75v1a.75.75 0 0 1-1.5 0V2a.75.75 0 0 1 .75-.75ZM1.25 12a.75.75 0 0 1 .75-.75h1a.75.75 0 0 1 0 1.5H2a.75.75 0 0 1-.75-.75Zm19 0a.75.75 0 0 1 .75-.75h1a.75.75 0 0 1 0 1.5h-1a.75.75 0 0 1-.75-.75Zm-2.333 3.25H2a.75.75 0 0 0 0 1.5h20a.75.75 0 0 0 0-1.5h-4.083Z" clip-rule="evenodd"/>
    <path d="M4.25 19a.75.75 0 0 1 .75-.75h14a.75.75 0 0 1 0 1.5H5a.75.75 0 0 1-.75-.75Zm1-7c0 1.178.302 2.286.833 3.25h11.834a6.751 6.751 0 0 0-5.167-9.96h-1.5a6.751 6.751 0 0 0-6 6.709Z" opacity=".5"/>
    <path d="M11.47 12.841a.75.75 0 0 0 1.06 0l2-2a.75.75 0 0 0-1.06-1.06l-.72.719V5.29c-.447-.068-1.186-.028-1.5 0v5.21l-.72-.72a.75.75 0 1 0-1.06 1.061l2 2Z"/>
    <path d="M4.398 4.398a.75.75 0 0 1 1.061 0l.393.393a.75.75 0 0 1-1.06 1.06l-.394-.392a.75.75 0 0 1 0-1.06Zm15.202.001a.75.75 0 0 1 0 1.06l-.392.393a.75.75 0 0 1-1.06-1.06l.392-.393a.75.75 0 0 1 1.06 0Z" opacity=".5"/>
  </g>
</svg>
