<svg xmlns="http://www.w3.org/2000/svg" width="24" height="24" fill="none">
  <g fill="#1C274C">
    <path d="M8 6.5v-2c0-.465 0-.697-.038-.89A2 2 0 0 0 6.39 2.038C6.197 2 5.965 2 5.5 2s-.697 0-.89.038A2 2 0 0 0 3.038 3.61C3 3.803 3 4.035 3 4.5v2c0 .465 0 .697.038.89A2 2 0 0 0 4.61 8.962C4.803 9 5.035 9 5.5 9s.697 0 .89-.038A2 2 0 0 0 7.962 7.39C8 7.197 8 6.965 8 6.5Zm13 0v-2c0-.465 0-.697-.038-.89a2 2 0 0 0-1.572-1.572C19.197 2 18.965 2 18.5 2s-.697 0-.89.038a2 2 0 0 0-1.572 1.572C16 3.803 16 4.035 16 4.5v2c0 .465 0 .697.038.89a2 2 0 0 0 1.572 1.572c.193.038.425.038.89.038s.697 0 .89-.038a2 2 0 0 0 1.572-1.572C21 7.197 21 6.965 21 6.5Zm-13 13v-2c0-.465 0-.697-.038-.89a2 2 0 0 0-1.572-1.572C6.197 15 5.965 15 5.5 15s-.697 0-.89.038a2 2 0 0 0-1.572 1.572C3 16.803 3 17.035 3 17.5v2c0 .465 0 .697.038.89a2 2 0 0 0 1.572 1.572c.193.038.425.038.89.038s.697 0 .89-.038a2 2 0 0 0 1.572-1.572C8 20.197 8 19.965 8 19.5Zm13 0v-2c0-.465 0-.697-.038-.89a2 2 0 0 0-1.572-1.572C19.197 15 18.965 15 18.5 15s-.697 0-.89.038a2 2 0 0 0-1.572 1.572c-.038.193-.038.425-.038.89v2c0 .465 0 .697.038.89a2 2 0 0 0 1.572 1.572c.193.038.425.038.89.038s.697 0 .89-.038a2 2 0 0 0 1.572-1.572c.038-.193.038-.425.038-.89Z"/>
    <path d="M8 6.25v-1.5h8v1.5h-3.25V8a.75.75 0 0 1-1.5 0V6.25H8Zm0 13h8v-1.5h-3.25V16a.75.75 0 0 0-1.5 0v1.75H8v1.5Z" opacity=".5"/>
    <path fill-rule="evenodd" d="M9.47 9.47a.75.75 0 0 1 1.06 0L12 10.94l1.47-1.47a.75.75 0 1 1 1.06 1.06L13.06 12l1.47 1.47a.75.75 0 1 1-1.06 1.06L12 13.06l-1.47 1.47a.75.75 0 1 1-1.06-1.06L10.94 12l-1.47-1.47a.75.75 0 0 1 0-1.06Z" clip-rule="evenodd"/>
  </g>
</svg>
