<svg xmlns="http://www.w3.org/2000/svg" width="24" height="24" fill="none">
  <path fill="#1C274C" fill-rule="evenodd" d="M17 3.75a1.75 1.75 0 1 0 0 3.5 1.75 1.75 0 0 0 0-3.5ZM13.75 5.5a3.25 3.25 0 1 1 6.5 0 3.25 3.25 0 0 1-6.5 0Zm-5.31-.87a.671.671 0 0 0-1.013.881l.988 1.152a2.25 2.25 0 0 1-.551 3.394l-3.477 2.086a.75.75 0 1 1-.772-1.286L7.091 8.77a.75.75 0 0 0 .184-1.131l-.988-1.153a2.171 2.171 0 0 1 3.276-2.849l6.5 7.366a.75.75 0 1 1-1.125.992l-6.5-7.366Zm-3.87 8.236c.687-1.074 2.157-1.039 2.888-.104.99 1.267 2.372 2.488 4.542 2.488 2.209 0 3.57-.979 4.505-2.23.72-.961 2.286-1.119 3.04.024.626.945 1.304 1.687 2.627 1.998a.75.75 0 1 1-.344 1.46c-1.852-.436-2.807-1.533-3.534-2.631a.28.28 0 0 0-.253-.128.432.432 0 0 0-.335.176C16.54 15.48 14.76 16.75 12 16.75c-2.842 0-4.611-1.64-5.724-3.065a.304.304 0 0 0-.246-.125.23.23 0 0 0-.196.114c-.74 1.156-1.695 2.365-3.662 2.828a.75.75 0 1 1-.344-1.46c1.401-.33 2.08-1.14 2.742-2.176Zm0 5c.687-1.074 2.157-1.039 2.888-.104.99 1.267 2.372 2.488 4.542 2.488 2.209 0 3.57-.979 4.505-2.23.72-.962 2.286-1.119 3.04.024.626.945 1.304 1.687 2.627 1.998a.75.75 0 1 1-.344 1.46c-1.852-.436-2.807-1.533-3.534-2.631a.28.28 0 0 0-.253-.128.432.432 0 0 0-.335.177C16.54 20.48 14.76 21.75 12 21.75c-2.842 0-4.611-1.64-5.724-3.065a.304.304 0 0 0-.246-.125.23.23 0 0 0-.196.114c-.74 1.156-1.695 2.365-3.662 2.828a.75.75 0 1 1-.344-1.46c1.401-.33 2.08-1.14 2.742-2.176Z" clip-rule="evenodd"/>
</svg>
