<svg xmlns="http://www.w3.org/2000/svg" width="24" height="24" fill="none">
  <path fill="#1C274C" d="m6.182 10.546.53.53-.53-.53Zm7.272 7.272.53.53-.53-.53Zm4.283-8.808-.53.53.53-.53Zm1.287 1.56.705-.257-.705.256Zm-1.287 2.965-.53-.53.53.53Zm1.287-1.559.705.257-.705-.257ZM14.99 6.263l.53-.53-.53.53Zm-1.56-1.287-.256.705.257-.705Zm-2.965 1.287.53.53-.53-.53Zm1.559-1.287.256.705-.256-.705Zm3.81 2.13a.75.75 0 1 0 1.06 1.06l-1.06-1.06Zm3.636.333a.75.75 0 1 0 1.06-1.06l-1.06 1.06ZM17.62 3.47a.75.75 0 1 0-1.06 1.061l1.06-1.06Zm-14.151 16a.75.75 0 1 0 1.06 1.061l-1.06-1.06Zm13.09-4.757a.75.75 0 1 0 1.061-1.06l-1.06 1.06ZM10.35 6.38a.75.75 0 1 0-1.061 1.06l1.06-1.06Zm4.03 10.515a.75.75 0 1 0 1.06-1.06l-1.06 1.06Zm-1.825-3.946a.75.75 0 0 0-1.06 1.06l1.06-1.06Zm.188 5.582a.75.75 0 0 0 1.061-1.06l-1.06 1.06Zm-.585-2.706a.75.75 0 1 0-1.06 1.06l1.06-1.06Zm2.303-9.031 2.747 2.747 1.06-1.06-2.747-2.748-1.06 1.061Zm2.747 6.212-4.283 4.283 1.06 1.06 4.284-4.282-1.061-1.061Zm-10.495-1.93 4.283-4.282-1.06-1.06-4.284 4.282 1.061 1.06Zm0 6.213a4.393 4.393 0 0 1 0-6.212l-1.06-1.06a5.893 5.893 0 0 0 0 8.333l1.06-1.061Zm6.212 0a4.393 4.393 0 0 1-6.212 0l-1.06 1.06a5.893 5.893 0 0 0 8.333 0l-1.06-1.06Zm4.283-7.748c.385.385.644.645.829.86.18.21.249.332.283.426l1.41-.513c-.122-.335-.32-.616-.555-.89-.231-.269-.537-.574-.906-.943l-1.061 1.06Zm1.06 4.526c.37-.37.676-.675.907-.943.236-.275.433-.555.555-.89l-1.41-.513c-.034.094-.103.216-.283.425-.185.216-.444.475-.829.86l1.06 1.06Zm.052-3.24c.105.288.105.605 0 .894l1.41.513c.225-.62.225-1.3 0-1.92l-1.41.513Zm-2.8-5.095c-.368-.368-.674-.675-.943-.906-.274-.235-.555-.433-.89-.555l-.513 1.41c.094.034.216.103.426.283.215.185.475.444.86.829l1.06-1.06Zm-4.525 1.061a17.6 17.6 0 0 1 .86-.829c.21-.18.331-.249.425-.283l-.513-1.41c-.335.122-.615.32-.89.555-.268.231-.574.538-.943.906l1.061 1.061Zm2.692-2.522a2.807 2.807 0 0 0-1.92 0l.513 1.41c.289-.105.606-.105.894 0l.513-1.41Zm3.207 3.896 2.182-2.182-1.06-1.06-2.183 2.181 1.061 1.06Zm1.121-2.182 1.455 1.454 1.06-1.06-1.454-1.455-1.06 1.06Zm1.06-1.06L17.622 3.47l-1.06 1.06 1.454 1.455 1.06-1.06ZM5.652 17.287 3.47 19.47l1.06 1.06 2.182-2.181-1.06-1.061Zm11.97-3.636L10.35 6.379l-1.061 1.06 7.273 7.273 1.06-1.06Zm-2.182 2.181-2.885-2.885-1.06 1.06 2.885 2.886 1.06-1.06Zm-1.636 1.637-1.646-1.646-1.06 1.06 1.645 1.646 1.061-1.06Z"/>
</svg>
