<svg xmlns="http://www.w3.org/2000/svg" width="24" height="24" fill="none">
  <path fill="#1C274C" d="m6.182 10.546.53.53-.53-.53Zm7.273 7.272.53.53-.53-.53Zm4.283-8.808-.53.53.53-.53Zm1.286 1.56.705-.257-.705.256Zm-1.286 2.965-.53-.53.53.53Zm1.286-1.559.705.257-.705-.257ZM14.99 6.263l.53-.53-.53.53Zm-1.559-1.287-.256.705.256-.705Zm-2.966 1.287.53.53-.53-.53Zm1.559-1.287.256.705-.256-.705ZM19.47 7.44a.75.75 0 1 0 1.06-1.06l-1.06 1.06Zm-1.85-3.97a.75.75 0 1 0-1.06 1.061l1.06-1.06Zm-3.16 3.324 2.747 2.747 1.06-1.06-2.747-2.748-1.06 1.061Zm2.747 6.212-4.283 4.283 1.061 1.06 4.283-4.282-1.06-1.061Zm-10.495-1.93 4.283-4.282-1.06-1.06-4.283 4.282 1.06 1.06Zm0 6.213a4.393 4.393 0 0 1 0-6.212l-1.06-1.06a5.893 5.893 0 0 0 0 8.333l1.06-1.061Zm6.212 0a4.393 4.393 0 0 1-6.212 0l-1.06 1.06a5.893 5.893 0 0 0 8.333 0l-1.06-1.06Zm4.283-7.748c.385.385.644.645.83.86.18.21.248.332.282.426l1.41-.513c-.122-.335-.32-.616-.555-.89-.23-.269-.537-.574-.906-.943l-1.06 1.06Zm1.06 4.526c.37-.37.676-.675.907-.943.236-.275.433-.555.555-.89l-1.41-.513c-.034.094-.103.216-.283.425-.185.216-.444.475-.829.86l1.06 1.06Zm.052-3.24c.105.288.105.605 0 .894l1.41.513c.226-.62.226-1.3 0-1.92l-1.41.513ZM15.52 5.732c-.368-.368-.674-.675-.943-.906-.274-.235-.555-.433-.89-.555l-.512 1.41c.093.034.215.103.425.283.215.185.475.444.86.829l1.06-1.06Zm-4.525 1.061a17.6 17.6 0 0 1 .86-.829c.21-.18.332-.249.425-.283l-.513-1.41c-.334.122-.615.32-.89.555-.268.231-.574.538-.942.906l1.06 1.061Zm2.693-2.522a2.807 2.807 0 0 0-1.92 0l.512 1.41a1.31 1.31 0 0 1 .895 0l.512-1.41Zm4.327 1.714 1.455 1.454 1.06-1.06-1.454-1.455-1.06 1.06Zm1.061-1.06L17.621 3.47l-1.06 1.06 1.454 1.455 1.061-1.06Z"/>
  <path stroke="#1C274C" stroke-linecap="round" stroke-width="1.5" d="M17.091 14.182 9.818 6.909"/>
  <path stroke="#1C274C" stroke-linecap="round" stroke-width="1.5" d="M6.182 17.818 4 20" opacity=".5"/>
  <path fill="#1C274C" d="M15.833 7.106a.75.75 0 0 0 1.06 1.06l-1.06-1.06Zm3.242-1.121a.75.75 0 0 0-1.06-1.06l1.06 1.06Zm-2.181 2.182 2.181-2.182-1.06-1.06-2.182 2.181 1.06 1.06Zm-2.515 8.727a.75.75 0 0 0 1.06-1.06l-1.06 1.06Zm-1.825-3.946a.75.75 0 1 0-1.06 1.06l1.06-1.06Zm.189 5.583a.75.75 0 1 0 1.06-1.061l-1.06 1.06Zm-.586-2.707a.75.75 0 0 0-1.06 1.06l1.06-1.06Zm3.283.01-2.886-2.886-1.06 1.06 2.885 2.886 1.06-1.06Zm-1.637 1.636-1.646-1.646-1.06 1.06 1.646 1.647 1.06-1.061Z" opacity=".5"/>
</svg>
