<svg xmlns="http://www.w3.org/2000/svg" width="24" height="24" fill="none">
  <g fill="#1C274C">
    <path d="M4.728 16.137c-1.545-1.546-2.318-2.318-2.605-3.321-.288-1.003-.042-2.068.45-4.197l.283-1.228c.413-1.792.62-2.688 1.233-3.302.614-.613 1.51-.82 3.302-1.233l1.228-.284c2.13-.491 3.194-.737 4.197-.45 1.003.288 1.775 1.061 3.32 2.606l1.83 1.83C20.657 9.248 22 10.592 22 12.262c0 1.671-1.345 3.015-4.034 5.704C15.277 20.657 13.933 22 12.262 22c-1.67 0-3.015-1.345-5.704-4.034l-1.83-1.83Z" opacity=".5"/>
    <path d="M10.123 7.271a2.017 2.017 0 1 1-2.852 2.852 2.017 2.017 0 0 1 2.853-2.852Zm8.928 4.78-6.979 6.98a.75.75 0 1 1-1.06-1.06l6.979-6.98a.75.75 0 1 1 1.06 1.06Z"/>
  </g>
</svg>
