<svg xmlns="http://www.w3.org/2000/svg" width="24" height="24" fill="none">
  <path fill="#1C274C" fill-rule="evenodd" d="M2.123 12.816c.287 1.003 1.06 1.775 2.605 3.32l1.83 1.83C9.248 20.657 10.592 22 12.262 22c1.671 0 3.015-1.345 5.704-4.034C20.657 15.277 22 13.933 22 12.262c0-1.67-1.345-3.015-4.034-5.704l-1.83-1.83c-1.545-1.545-2.317-2.318-3.32-2.605-1.003-.288-2.068-.042-4.197.45l-1.228.283c-1.792.413-2.688.62-3.302 1.233-.613.614-.82 1.51-1.233 3.302l-.284 1.228c-.491 2.13-.737 3.194-.45 4.197Zm8-5.545a2.017 2.017 0 1 1-2.852 2.852 2.017 2.017 0 0 1 2.852-2.852Zm8.928 4.78-6.979 6.98a.75.75 0 0 1-1.06-1.061l6.978-6.98a.75.75 0 0 1 1.061 1.061Z" clip-rule="evenodd"/>
</svg>
