<svg xmlns="http://www.w3.org/2000/svg" width="24" height="24" fill="none">
  <path fill="#1C274C" fill-rule="evenodd" d="M11.238 2.799c-.614.081-1.372.255-2.45.504l-1.229.284c-.91.21-1.538.356-2.017.52-.463.159-.725.315-.922.513-.198.197-.354.459-.513.922-.164.479-.31 1.106-.52 2.017l-.284 1.228c-.249 1.079-.423 1.837-.504 2.451-.08.598-.061 1.003.045 1.371.105.368.304.721.688 1.186.395.478.944 1.029 1.727 1.812l1.83 1.83c1.359 1.359 2.326 2.324 3.158 2.958.814.622 1.41.855 2.015.855.606 0 1.201-.233 2.016-.855.831-.634 1.799-1.6 3.158-2.959 1.36-1.36 2.325-2.327 2.96-3.158.62-.815.854-1.41.854-2.016 0-.605-.233-1.2-.855-2.015-.634-.832-1.6-1.8-2.959-3.159l-1.83-1.83c-.782-.782-1.333-1.331-1.81-1.726-.466-.384-.819-.583-1.187-.688-.368-.106-.773-.124-1.37-.045Zm-.196-1.487c.717-.095 1.346-.092 1.98.09.635.182 1.17.513 1.728.973.54.446 1.14 1.046 1.891 1.797l1.896 1.896c1.31 1.31 2.348 2.348 3.05 3.27.724.947 1.163 1.859 1.163 2.924 0 1.066-.439 1.978-1.162 2.925-.703.922-1.74 1.96-3.051 3.27l-.08.08c-1.31 1.31-2.348 2.348-3.27 3.05-.947.724-1.86 1.163-2.925 1.163-1.065 0-1.977-.439-2.925-1.162-.921-.703-1.959-1.74-3.27-3.051L4.173 16.64c-.75-.75-1.351-1.351-1.797-1.89-.46-.559-.791-1.094-.973-1.728-.182-.635-.185-1.264-.09-1.981.091-.694.283-1.522.521-2.556l.3-1.303c.2-.863.362-1.567.555-2.128.202-.587.455-1.08.871-1.496.416-.416.91-.67 1.496-.87.561-.194 1.265-.356 2.128-.555l1.303-.3c1.034-.24 1.862-.43 2.556-.522ZM9.49 7.995a1.25 1.25 0 1 0-1.768 1.768A1.25 1.25 0 0 0 9.49 7.995Zm-2.828-1.06a2.75 2.75 0 1 1 3.889 3.889 2.75 2.75 0 0 1-3.89-3.89ZM19.05 10.99a.75.75 0 0 1 0 1.06l-6.979 6.98a.75.75 0 0 1-1.06-1.06l6.978-6.98a.75.75 0 0 1 1.061 0Z" clip-rule="evenodd"/>
</svg>
