<svg xmlns="http://www.w3.org/2000/svg" width="24" height="24" fill="none">
  <path fill="#1C274C" fill-rule="evenodd" d="M17.8 3.297c.447-.253.718-.405.927-.49a.791.791 0 0 1 .183-.055.079.079 0 0 1 .033 0c.004 0 .01.002.027.015a.764.764 0 0 1 .127.135c.137.175.294.438.552.877l1.049 1.786c.258.44.411.704.496.908.04.093.051.146.055.171l.001.017v.002l-.001.002-.011.016a.76.76 0 0 1-.137.125c-.18.135-.448.29-.895.543l-3.735 2.12c-.423.24-.675.381-.87.46a.704.704 0 0 1-.16.05h-.015l-.003-.001a.708.708 0 0 1-.124-.13c-.129-.165-.277-.414-.523-.833l-1.12-1.907c-.253-.43-.402-.689-.486-.888a.706.706 0 0 1-.054-.176v-.003l.002-.002.002-.003.004-.006a.708.708 0 0 1 .128-.117c.172-.13.43-.279.865-.525l3.684-2.09Zm1.525-1.996c-.428-.113-.816-.023-1.16.116-.313.126-.671.33-1.066.553l-3.762 2.136c-.381.216-.731.414-.993.614-.287.218-.56.504-.675.927l-3.48 1.975-.04.022c-.38.217-.73.415-.993.615-.287.218-.56.504-.675.928l-3.427 1.945-.04.022c-.394.224-.752.428-1.02.631-.295.223-.573.513-.69.944-.118.432-.024.822.118 1.163.13.309.337.662.564 1.05l.046.078c.228.387.435.74.643 1.005.228.29.522.56.951.674.428.113.817.023 1.16-.115.314-.127.672-.33 1.066-.554l3.455-1.96.019.004c.417.112.795.025 1.124-.108.048-.019.096-.04.145-.063L7.31 21.71a.75.75 0 1 0 1.382.582l3.31-7.858 3.308 7.858a.75.75 0 1 0 1.382-.582l-3.818-9.069 2.145-1.217.02.005c.417.112.795.025 1.124-.108.299-.12.64-.314 1.01-.525l3.814-2.164c.394-.223.753-.427 1.021-.63.294-.223.572-.513.69-.944.118-.432.024-.823-.119-1.163-.13-.31-.337-.663-.564-1.05L20.942 3.02l-.023-.04c-.227-.387-.434-.74-.642-1.004-.229-.292-.522-.562-.952-.675ZM3.794 12.437l2.997-1.702c.106.199.23.41.361.632l.023.04.618 1.052c.116.196.226.384.334.555l-2.976 1.69c-.446.252-.717.404-.927.489a.79.79 0 0 1-.182.056c-.023.002-.03 0-.033 0h-.001c-.004-.002-.01-.003-.027-.016a.757.757 0 0 1-.126-.135c-.138-.175-.294-.438-.552-.877-.258-.44-.412-.704-.497-.908a.73.73 0 0 1-.055-.171v-.022l.011-.016a.767.767 0 0 1 .138-.125c.179-.136.447-.29.894-.543Zm8.185-5.241-3.05 1.73c-.434.247-.692.396-.864.526a.71.71 0 0 0-.135.126l-.001.002v.014a.71.71 0 0 0 .054.165c.083.2.233.457.486.888l.595 1.014c.246.42.395.668.524.833a.7.7 0 0 0 .124.13l.002.001h.003a.702.702 0 0 0 .172-.05c.195-.079.447-.22.87-.46l.774-.44.754-.427 1.551-.88a23.244 23.244 0 0 1-.333-.555L12.34 7.829a18.946 18.946 0 0 1-.361-.633Z" clip-rule="evenodd"/>
</svg>
