<svg xmlns="http://www.w3.org/2000/svg" width="24" height="24" fill="none">
  <g fill="#1C274C">
    <path d="M20.688 16.508a9.057 9.057 0 0 1-.437-.262 13.898 13.898 0 0 1-1.464-1.082c-1.176-.987-2.67-2.535-3.971-4.787-1.3-2.253-1.893-4.32-2.16-5.833a13.89 13.89 0 0 1-.205-1.81 9.146 9.146 0 0 1-.009-.508c.001-.06.008-.182.009-.215A9.953 9.953 0 0 0 7 3.34a9.953 9.953 0 0 0-3.875 4.051l.189.103c.105.06.253.146.437.262.367.234.876.588 1.464 1.082 1.176.988 2.67 2.535 3.97 4.788 1.301 2.252 1.894 4.32 2.162 5.832.133.757.185 1.375.204 1.81.01.217.01.389.009.509v.215a9.953 9.953 0 0 0 5.44-1.33 9.952 9.952 0 0 0 3.874-4.046l-.187-.108Z"/>
    <path d="M10.06 21.811a9.274 9.274 0 0 0-.007-.478 12.4 12.4 0 0 0-.183-1.613c-.241-1.369-.783-3.266-1.982-5.343-1.2-2.078-2.572-3.495-3.637-4.39a12.395 12.395 0 0 0-1.304-.964c-.159-.1-.33-.199-.412-.245a9.976 9.976 0 0 0 .806 8.224 9.976 9.976 0 0 0 6.719 4.81Zm3.883-19.619a9.58 9.58 0 0 0 .006.479c.017.375.063.927.184 1.612.241 1.37.783 3.266 1.982 5.344 1.2 2.077 2.572 3.494 3.637 4.389.532.447.987.762 1.304.964.159.101.33.2.412.245a9.976 9.976 0 0 0-.806-8.223 9.976 9.976 0 0 0-6.719-4.81Z"/>
  </g>
</svg>
