<svg xmlns="http://www.w3.org/2000/svg" width="24" height="24" fill="none">
  <g fill="#1C274C" fill-rule="evenodd" clip-rule="evenodd">
    <path d="M12.939 4.735a.75.75 0 0 1 .815.68c.048.536.139 1.119.291 1.732a.75.75 0 1 1-1.456.36 13.068 13.068 0 0 1-.33-1.957.75.75 0 0 1 .68-.815Zm-7.7 4.446A.75.75 0 0 1 6.285 9c.496.35 1.015.767 1.53 1.263a.75.75 0 0 1-1.04 1.08 11.578 11.578 0 0 0-1.355-1.118.75.75 0 0 1-.18-1.045Zm8.597-.185a.75.75 0 0 1 1 .351 11.618 11.618 0 0 0 .88 1.522.75.75 0 0 1-1.24.846 13.067 13.067 0 0 1-.991-1.718.75.75 0 0 1 .351-1.001ZM8.48 12.088a.75.75 0 0 1 1.043.196 13.116 13.116 0 0 1 .992 1.719.75.75 0 0 1-1.352.65 11.601 11.601 0 0 0-.879-1.523.75.75 0 0 1 .196-1.042Zm7.684.587a.75.75 0 0 1 1.06-.02c.456.438.916.808 1.356 1.119a.75.75 0 1 1-.865 1.225 13.054 13.054 0 0 1-1.53-1.264.75.75 0 0 1-.02-1.06Zm-5.662 3.269a.75.75 0 0 1 .909.547c.171.694.274 1.353.329 1.958a.75.75 0 1 1-1.494.136c-.049-.536-.14-1.12-.291-1.733a.75.75 0 0 1 .547-.908Z"/>
    <path d="M13.286 1.326c-2.23-.27-4.566.154-6.661 1.364C1.483 5.658-.278 12.233 2.69 17.375c2.969 5.141 9.543 6.903 14.685 3.934a10.706 10.706 0 0 0 4.511-5.086 10.735 10.735 0 0 0-.576-9.598 10.735 10.735 0 0 0-8.024-5.299Zm.494 1.754a.75.75 0 0 1-1.49-.178l.02-.148a9.203 9.203 0 0 0-4.935 1.235 9.207 9.207 0 0 0-3.537 3.656l.138.058a.75.75 0 0 1-.59 1.379 9.515 9.515 0 0 0-.144-.06 9.228 9.228 0 0 0 .747 7.603 9.228 9.228 0 0 0 6.21 4.448c.008-.049.014-.1.02-.154a.75.75 0 1 1 1.49.178l-.019.149a9.206 9.206 0 0 0 4.935-1.236 9.202 9.202 0 0 0 3.537-3.655l-.138-.058a.75.75 0 0 1 .59-1.38c.05.022.098.042.144.06a9.227 9.227 0 0 0-.747-7.602A9.226 9.226 0 0 0 13.8 2.926l-.02.154Z"/>
  </g>
</svg>
