<svg xmlns="http://www.w3.org/2000/svg" width="24" height="24" fill="none">
  <path fill="#1C274C" fill-rule="evenodd" d="M13.78 3.082c.033-.27.07-.481.097-.621l.055-.271A9.975 9.975 0 0 1 20.659 7a9.975 9.975 0 0 1 .803 8.232l-.111-.04a8.238 8.238 0 0 1-.737-.275.75.75 0 1 0-.591 1.38 9.66 9.66 0 0 0 .848.317A9.952 9.952 0 0 1 17 20.66a9.952 9.952 0 0 1-5.439 1.33l.034-.157c.035-.174.078-.423.115-.736a.75.75 0 0 0-1.489-.178c-.033.27-.07.481-.097.621l-.07.268A9.975 9.975 0 0 1 3.341 17a9.975 9.975 0 0 1-.803-8.23l.262.087c.135.046.336.12.587.227a.75.75 0 0 0 .59-1.38 9.698 9.698 0 0 0-.848-.317A9.952 9.952 0 0 1 7 3.34a9.952 9.952 0 0 1 5.439-1.33 9.66 9.66 0 0 0-.149.894.75.75 0 0 0 1.489.177Zm-.841 1.655a.75.75 0 0 1 .814.679c.05.536.14 1.119.292 1.732a.75.75 0 1 1-1.456.361 13.063 13.063 0 0 1-.33-1.957.75.75 0 0 1 .68-.815ZM5.24 9.18A.75.75 0 0 1 6.285 9c.496.35 1.015.768 1.53 1.264a.75.75 0 1 1-1.04 1.08 11.563 11.563 0 0 0-1.355-1.119.75.75 0 0 1-.18-1.045Zm8.595-.184a.75.75 0 0 1 1 .35 11.613 11.613 0 0 0 .879 1.523.75.75 0 1 1-1.238.846 13.108 13.108 0 0 1-.992-1.719.75.75 0 0 1 .35-1ZM8.48 12.088a.75.75 0 0 1 1.042.197 13.122 13.122 0 0 1 .992 1.718.75.75 0 0 1-1.352.65 11.602 11.602 0 0 0-.878-1.523.75.75 0 0 1 .196-1.042Zm7.683.587a.75.75 0 0 1 1.06-.02c.455.438.915.808 1.355 1.119a.75.75 0 0 1-.865 1.225 13.06 13.06 0 0 1-1.53-1.264.75.75 0 0 1-.02-1.06Zm-5.661 3.269a.75.75 0 0 1 .908.547c.172.694.274 1.352.33 1.957a.75.75 0 0 1-1.494.136c-.05-.536-.14-1.119-.292-1.732a.75.75 0 0 1 .548-.908Z" clip-rule="evenodd"/>
</svg>
