<svg xmlns="http://www.w3.org/2000/svg" width="24" height="24" fill="none">
  <path fill="#1C274C" fill-rule="evenodd" d="M12.45 2.76a9.203 9.203 0 0 0-5.075 1.229 9.207 9.207 0 0 0-3.602 3.78c.365.234.865.584 1.442 1.068 1.176.988 2.67 2.535 3.97 4.788 1.301 2.252 1.894 4.32 2.161 5.832.131.741.184 1.35.204 1.783a9.205 9.205 0 0 0 5.075-1.23 9.203 9.203 0 0 0 3.603-3.78 13.943 13.943 0 0 1-1.442-1.068c-1.177-.987-2.67-2.535-3.971-4.787-1.3-2.253-1.894-4.32-2.16-5.833a13.664 13.664 0 0 1-.204-1.783Zm1.515.2c.025.35.074.796.166 1.321.242 1.37.783 3.266 1.983 5.344 1.2 2.077 2.571 3.494 3.636 4.389.408.342.77.608 1.06.804a9.224 9.224 0 0 0-.799-7.443 9.225 9.225 0 0 0-6.046-4.414Zm-3.93 18.079c-.024-.35-.073-.796-.166-1.32-.242-1.37-.783-3.267-1.982-5.344-1.2-2.078-2.572-3.495-3.637-4.39-.408-.342-.77-.607-1.06-.803a9.226 9.226 0 0 0 .8 7.443 9.226 9.226 0 0 0 6.045 4.414Zm-3.41-18.35a10.706 10.706 0 0 1 6.661-1.363 10.735 10.735 0 0 1 8.024 5.299 10.735 10.735 0 0 1 .577 9.598 10.706 10.706 0 0 1-4.512 5.087c-5.141 2.968-11.716 1.206-14.684-3.935C-.278 12.233 1.484 5.658 6.625 2.69Z" clip-rule="evenodd"/>
</svg>
