<svg xmlns="http://www.w3.org/2000/svg" width="24" height="24" fill="none">
  <path fill="#1C274C" d="M7.948 2.25c-.898 0-1.648 0-2.242.08-.628.084-1.195.27-1.65.725-.456.456-.642 1.023-.726 1.65-.08.595-.08 1.345-.08 2.243V7.95a.75.75 0 1 0 1.5 0V7c0-.964.002-1.612.067-2.095.062-.461.169-.659.3-.789.13-.13.327-.237.788-.3C6.388 3.753 7.036 3.75 8 3.75h3.25v16.5H7a.75.75 0 0 0 0 1.5h10a.75.75 0 0 0 0-1.5h-4.25V3.75H16c.964 0 1.612.002 2.095.067.461.062.659.169.789.3.13.13.237.327.3.788.064.483.066 1.131.066 2.095v.95a.75.75 0 0 0 1.5 0V6.948c0-.898 0-1.648-.08-2.242-.084-.628-.27-1.195-.726-1.65-.455-.456-1.022-.642-1.65-.726-.594-.08-1.343-.08-2.242-.08H7.948Z"/>
</svg>
