<svg xmlns="http://www.w3.org/2000/svg" width="24" height="24" fill="none">
  <g fill="#1C274C">
    <path fill-rule="evenodd" d="M15 1.25a.75.75 0 0 1 .75.75v1.256c1.21.012 2.22.053 3.059.196 1.028.174 1.872.511 2.55 1.19.748.748 1.08 1.697 1.238 2.869.153 1.14.153 2.595.153 4.433v.112c0 1.838 0 3.294-.153 4.433-.158 1.172-.49 2.121-1.238 2.87-.678.678-1.522 1.015-2.55 1.19-.839.142-1.85.183-3.059.195V22a.75.75 0 0 1-1.5 0V2a.75.75 0 0 1 .75-.75Zm.75 17.994V4.756c1.186.012 2.09.052 2.808.174.842.143 1.355.387 1.74.772.423.423.677 1.003.812 2.009.138 1.028.14 2.382.14 4.289 0 1.907-.002 3.261-.14 4.29-.135 1.005-.389 1.585-.812 2.008-.385.385-.898.629-1.74.772-.719.122-1.622.162-2.808.174Z" clip-rule="evenodd"/>
    <path d="M9.944 3.25H12a.75.75 0 0 1 0 1.5h-2c-1.907 0-3.261.002-4.29.14-1.005.135-1.585.389-2.008.812-.423.423-.677 1.003-.812 2.009-.138 1.028-.14 2.382-.14 4.289 0 1.907.002 3.261.14 4.29.135 1.005.389 1.585.812 2.008.423.423 1.003.677 2.009.812 1.028.138 2.382.14 4.289.14h2a.75.75 0 0 1 0 1.5H9.944c-1.838 0-3.294 0-4.433-.153-1.172-.158-2.121-.49-2.87-1.238-.748-.749-1.08-1.698-1.238-2.87-.153-1.14-.153-2.595-.153-4.433v-.112c0-1.838 0-3.294.153-4.433.158-1.172.49-2.121 1.238-2.87.749-.748 1.698-1.08 2.87-1.238 1.14-.153 2.595-.153 4.433-.153Z"/>
    <path d="M6.818 7.787c.3-.037.666-.037 1.066-.037h2.232c.4 0 .766 0 1.066.037.329.041.68.137.98.405.052.046.1.094.146.146.268.3.364.651.405.98.037.3.037.666.037 1.066v.041a.75.75 0 0 1-1.5 0c0-.455-.001-.726-.026-.922-.024-.195-.228-.227-.228-.227-.195-.025-.466-.026-.921-.026H9.75v5.5H11a.75.75 0 0 1 0 1.5H7a.75.75 0 0 1 0-1.5h1.25v-5.5h-.325c-.455 0-.726.001-.922.026 0 0-.203.032-.227.227-.025.196-.026.467-.026.922a.75.75 0 0 1-1.5 0v-.041c0-.4 0-.766.037-1.066.041-.329.137-.68.405-.98.046-.052.094-.1.146-.146.3-.268.651-.364.98-.405Z"/>
  </g>
</svg>
