<svg xmlns="http://www.w3.org/2000/svg" width="24" height="24" fill="none">
  <path fill="#1C274C" fill-rule="evenodd" d="M7.934 2h8.132c.886 0 1.65 0 2.262.082.655.088 1.284.287 1.793.797.51.51.709 1.138.797 1.793C21 5.284 21 6.048 21 6.934V7.95a1 1 0 1 1-2 0V7c0-.971-.002-1.599-.064-2.061-.059-.434-.153-.57-.229-.646-.076-.076-.212-.17-.646-.229C17.6 4.002 16.971 4 16 4h-3v17a1 1 0 1 1-2 0V4H8c-.971 0-1.599.002-2.061.064-.434.059-.57.153-.646.229-.076.076-.17.212-.229.646C5.002 5.4 5 6.029 5 7v.95a1 1 0 1 1-2 0V6.934c0-.886 0-1.65.082-2.262.088-.655.287-1.284.797-1.793.51-.51 1.138-.709 1.793-.797C6.284 2 7.048 2 7.934 2Z" clip-rule="evenodd"/>
  <path stroke="#1C274C" stroke-linecap="round" stroke-linejoin="round" stroke-width="2" d="M7 21h10"/>
</svg>
