<svg xmlns="http://www.w3.org/2000/svg" width="24" height="24" fill="none">
  <path fill="#1C274C" d="M11.25 17a.75.75 0 0 0 1.5 0h-1.5Zm4-7.25a.75.75 0 0 0 1.5 0h-1.5Zm-8 0a.75.75 0 0 0 1.5 0h-1.5Zm8.457-2.425.558-.501-.558.501ZM9.5 16.25a.75.75 0 0 0 0 1.5v-1.5Zm5.5 1.5a.75.75 0 0 0 0-1.5v1.5Zm-5-10h2v-1.5h-2v1.5Zm2 0h2v-1.5h-2v1.5Zm.75 9.25V7h-1.5v10h1.5Zm2.5-7.778v.528h1.5v-.528h-1.5Zm-8 0v.528h1.5v-.528h-1.5ZM14 7.75c.495 0 .782.002.986.032.092.014.135.03.152.037.01.005.01.006.012.008l1.115-1.003c-.305-.339-.686-.47-1.057-.525-.34-.051-.76-.049-1.208-.049v1.5Zm2.75 1.472c0-.504.001-.95-.042-1.31-.045-.371-.149-.761-.443-1.088L15.15 7.827c.002.003.01.012.023.045.014.038.032.105.046.221.03.247.031.586.031 1.13h1.5ZM10 6.25c-.448 0-.868-.002-1.208.049-.371.055-.752.186-1.057.525L8.85 7.827c.002-.002.002-.003.012-.008a.592.592 0 0 1 .152-.037c.204-.03.491-.032.986-.032v-1.5ZM8.75 9.222c0-.543.001-.882.031-1.129a.976.976 0 0 1 .046-.22c.012-.034.02-.043.023-.046L7.735 6.824c-.294.327-.398.717-.443 1.089-.043.358-.042.805-.042 1.31h1.5Zm.75 8.528H15v-1.5H9.5v1.5Z"/>
  <path stroke="#1C274C" stroke-linecap="round" stroke-width="1.5" d="M7 3.338A9.954 9.954 0 0 1 12 2c5.523 0 10 4.477 10 10s-4.477 10-10 10S2 17.523 2 12c0-1.821.487-3.53 1.338-5"/>
</svg>
