<svg xmlns="http://www.w3.org/2000/svg" width="24" height="24" fill="none">
  <g fill="#1C274C">
    <path d="M12 6c0-1.886 0-2.828.586-3.414C13.172 2 14.114 2 16 2h2c1.886 0 2.828 0 3.414.586C22 3.172 22 4.114 22 6v2c0 1.886 0 2.828-.586 3.414C20.828 12 19.886 12 18 12h-2c-1.886 0-2.828 0-3.414-.586C12 10.828 12 9.886 12 8V6Z"/>
    <path d="M10.5 7c-1.557.005-2.383.054-2.914.586C7 8.172 7 9.114 7 11v2c0 1.437 0 2.327.26 2.928a1.544 1.544 0 0 0 .326.486C8.172 17 9.114 17 11 17h2c1.886 0 2.828 0 3.414-.586.532-.531.581-1.357.585-2.914h-1.088c-.866 0-1.66 0-2.305-.087-.711-.095-1.463-.32-2.08-.938-.619-.618-.844-1.37-.94-2.08-.086-.646-.086-1.44-.086-2.305V7Z"/>
    <path d="M5.5 12c-1.557.005-2.383.054-2.914.586C2 13.172 2 14.114 2 16v2c0 1.886 0 2.828.586 3.414C3.172 22 4.114 22 6 22h2c1.886 0 2.828 0 3.414-.586.532-.531.581-1.357.585-2.914h-1.088c-.866 0-1.66 0-2.305-.087-.711-.095-1.463-.32-2.08-.938-.619-.618-.844-1.37-.94-2.08-.086-.646-.086-1.44-.086-2.306v-1.088Z"/>
  </g>
</svg>
