<svg xmlns="http://www.w3.org/2000/svg" width="24" height="24" fill="none">
  <path fill="#1C274C" fill-rule="evenodd" d="M14.008 19.003 14.014 17a1.001 1.001 0 0 1 2.005 0v1.977c0 .481 0 .722.154.87.155.147.39.137.863.117 1.863-.079 3.008-.33 3.814-1.136.81-.806 1.061-1.951 1.14-3.817.015-.37.023-.556-.046-.679-.07-.123-.345-.277-.897-.586a1.999 1.999 0 0 1 0-3.492c.552-.308.828-.463.897-.586.069-.123.061-.308.045-.679-.078-1.866-.33-3.01-1.139-3.817-.877-.876-2.155-1.097-4.322-1.153a.497.497 0 0 0-.51.497V7a1.001 1.001 0 0 1-2.005 0l-.007-2.501a.5.5 0 0 0-.5-.499H9.994c-3.78 0-5.67 0-6.845 1.172-.81.806-1.061 1.951-1.14 3.817-.015.37-.023.556.046.679.07.123.345.278.897.586a1.999 1.999 0 0 1 0 3.492c-.552.309-.828.463-.897.586-.069.123-.061.308-.045.678.078 1.867.33 3.012 1.139 3.818C4.324 20 6.214 20 9.995 20h3.01c.472 0 .707 0 .854-.146.147-.146.148-.38.149-.851ZM16.018 13v-2a1.001 1.001 0 0 0-2.005 0v2a1.002 1.002 0 0 0 2.006 0Z" clip-rule="evenodd"/>
</svg>
