<svg xmlns="http://www.w3.org/2000/svg" width="24" height="24" fill="none">
  <g fill="#1C274C">
    <path d="M14.004 4H9.996C6.218 4 4.33 4 3.156 5.172c-.88.877-1.1 2.154-1.156 4.322-.007.278.221.5.49.571A2.001 2.001 0 0 1 3.986 12c0 .929-.634 1.71-1.494 1.935-.27.07-.498.292-.49.57.055 2.17.276 3.446 1.154 4.323C4.33 20 6.218 20 9.996 20h4.008c3.778 0 5.667 0 6.84-1.172.88-.877 1.1-2.154 1.156-4.322.007-.279-.221-.5-.49-.571A2.002 2.002 0 0 1 20.014 12c0-.929.634-1.71 1.494-1.935.27-.07.498-.293.49-.57-.055-2.17-.276-3.446-1.154-4.323C19.67 4 17.782 4 14.004 4Z" opacity=".5"/>
    <path d="m12.954 10.199-.099-.176C12.475 9.34 12.285 9 12 9c-.285 0-.475.34-.856 1.023l-.098.176c-.109.194-.163.29-.247.354-.084.064-.19.088-.4.135l-.19.044c-.74.167-1.11.25-1.198.532-.088.283.164.577.668 1.165l.13.152c.144.167.216.25.248.354.032.104.021.215 0 .438l-.02.203c-.076.785-.114 1.178.116 1.352.23.174.576.015 1.268-.303l.18-.082c.196-.09.294-.135.399-.135.104 0 .202.045.399.135l.18.082c.691.319 1.037.477 1.268.303.23-.174.192-.567.116-1.352l-.02-.203c-.022-.223-.033-.334 0-.438.032-.103.103-.187.247-.354l.13-.152c.504-.588.756-.882.668-1.165-.088-.282-.458-.365-1.197-.532l-.191-.044c-.21-.047-.315-.07-.4-.135-.084-.064-.138-.16-.246-.354Z"/>
  </g>
</svg>
