<svg xmlns="http://www.w3.org/2000/svg" width="24" height="24" fill="none">
  <g stroke="#1C274C" stroke-width="1.5">
    <path d="M22 17.5V11c0-3.771 0-5.657-1.172-6.828C19.657 3 17.771 3 14 3h-4C6.229 3 4.343 3 3.172 4.172 2 5.343 2 7.229 2 11v2c0 3.771 0 5.657 1.172 6.828C4.343 21 6.229 21 10 21h8" opacity=".5"/>
    <path d="M13 17c0-1.886 0-2.828.586-3.414C14.172 13 15.114 13 17 13h1c1.886 0 2.828 0 3.414.586C22 14.172 22 15.114 22 17c0 1.886 0 2.828-.586 3.414C20.828 21 19.886 21 18 21h-1c-1.886 0-2.828 0-3.414-.586C13 19.828 13 18.886 13 17Z"/>
    <path stroke-linecap="round" stroke-linejoin="round" d="M11.5 11.5v-3m0 3h-3m3 0-4-4"/>
  </g>
</svg>
