<svg xmlns="http://www.w3.org/2000/svg" width="24" height="24" fill="none">
  <g fill="#1C274C">
    <path fill-rule="evenodd" d="M12 8.035c-2.697 0-4.884 2.151-4.884 4.806a4.75 4.75 0 0 0 1.43 3.398.679.679 0 0 1 0 .97.706.706 0 0 1-.986 0 6.113 6.113 0 0 1-1.84-4.368c0-3.413 2.812-6.18 6.28-6.18 3.468 0 6.28 2.767 6.28 6.18a6.113 6.113 0 0 1-1.84 4.369.706.706 0 0 1-.987 0 .679.679 0 0 1 0-.971 4.75 4.75 0 0 0 1.43-3.398c0-2.655-2.186-4.806-4.883-4.806Z" clip-rule="evenodd"/>
    <path fill-rule="evenodd" d="M12 4.373c-4.752 0-8.605 3.791-8.605 8.468 0 2.338.963 4.454 2.52 5.987a.679.679 0 0 1 0 .97.706.706 0 0 1-.986 0A9.734 9.734 0 0 1 2 12.842C2 7.406 6.477 3 12 3s10 4.406 10 9.84a9.734 9.734 0 0 1-2.929 6.959.706.706 0 0 1-.987 0 .679.679 0 0 1 0-.971 8.372 8.372 0 0 0 2.52-5.987c0-4.677-3.852-8.468-8.604-8.468Z" clip-rule="evenodd"/>
    <path d="M10.31 17.344c.767-.876 1.151-1.314 1.625-1.342a.94.94 0 0 1 .13 0c.474.028.858.466 1.625 1.342 1.67 1.906 2.505 2.858 2.271 3.68-.02.071-.045.14-.074.206-.344.77-1.525.77-3.887.77s-3.543 0-3.887-.77a1.527 1.527 0 0 1-.074-.206c-.234-.822.6-1.774 2.27-3.68ZM14.5 12.5a2.5 2.5 0 1 1-5 0 2.5 2.5 0 0 1 5 0Z"/>
  </g>
</svg>
