<svg xmlns="http://www.w3.org/2000/svg" width="24" height="24" fill="none">
  <g fill="#1C274C">
    <path d="M12 14a2 2 0 1 0 0-4 2 2 0 0 0 0 4Z"/>
    <path d="M5.467 4.392a.75.75 0 0 1-.001 1.06A9.219 9.219 0 0 0 2.75 12a9.22 9.22 0 0 0 2.775 6.606.75.75 0 1 1-1.05 1.071A10.72 10.72 0 0 1 1.25 12c0-2.972 1.207-5.664 3.156-7.609a.75.75 0 0 1 1.06.001Zm13.149.072a.75.75 0 0 1 1.061.011A10.718 10.718 0 0 1 22.75 12c0 2.964-1.2 5.65-3.141 7.594a.75.75 0 1 1-1.062-1.06A9.219 9.219 0 0 0 21.25 12a9.218 9.218 0 0 0-2.644-6.475.75.75 0 0 1 .01-1.06Z" opacity=".4"/>
    <path d="M8.31 7.488a.75.75 0 0 1-.036 1.06c-.949.888-1.524 2.102-1.524 3.434 0 1.348.589 2.575 1.558 3.466a.75.75 0 0 1-1.016 1.104c-1.252-1.151-2.042-2.77-2.042-4.57 0-1.779.771-3.38 2-4.53a.75.75 0 0 1 1.06.036Zm7.433.038a.75.75 0 0 1 1.06-.024c1.197 1.145 1.947 2.727 1.947 4.48 0 1.775-.767 3.373-1.99 4.521a.75.75 0 0 1-1.027-1.093c.945-.887 1.517-2.1 1.517-3.428 0-1.313-.559-2.512-1.484-3.396a.75.75 0 0 1-.023-1.06Z" opacity=".8"/>
  </g>
</svg>
