<svg xmlns="http://www.w3.org/2000/svg" width="24" height="24" fill="none">
  <g fill="#1C274C">
    <path d="M3 6.524c0-.395.327-.714.73-.714h4.788c.006-.842.098-1.995.932-2.793A3.68 3.68 0 0 1 12 2a3.68 3.68 0 0 1 2.55 1.017c.834.798.926 1.951.932 2.793h4.788c.403 0 .73.32.73.714a.722.722 0 0 1-.73.714H3.73A.722.722 0 0 1 3 6.524Z"/>
    <path fill-rule="evenodd" d="M11.596 22h.808c2.783 0 4.174 0 5.08-.886.904-.886.996-2.34 1.181-5.246l.267-4.187c.1-1.577.15-2.366-.303-2.866-.454-.5-1.22-.5-2.753-.5H8.124c-1.533 0-2.3 0-2.753.5-.454.5-.404 1.289-.303 2.866l.267 4.188c.185 2.906.277 4.36 1.182 5.245.905.886 2.296.886 5.079.886Zm-1.35-9.812c-.04-.433-.408-.75-.82-.707-.413.044-.713.43-.672.865l.5 5.263c.04.434.408.75.82.707.413-.044.713-.43.672-.864l-.5-5.264Zm4.329-.707c.412.044.713.43.671.865l-.5 5.263c-.04.434-.409.75-.82.707-.413-.044-.713-.43-.672-.864l.5-5.264c.04-.433.409-.75.82-.707Z" clip-rule="evenodd"/>
  </g>
</svg>
