<svg xmlns="http://www.w3.org/2000/svg" width="24" height="24" fill="none">
  <g fill="#1C274C">
    <path d="M17 4a2 2 0 1 1-4 0 2 2 0 0 1 4 0Z"/>
    <path fill-rule="evenodd" d="M6.21 6.047a5.019 5.019 0 0 1 4.637-.357 1.817 1.817 0 0 1 .569 2.955l-1.654 1.654a.84.84 0 0 0 .056 1.24l.997.83a2.6 2.6 0 0 1 .935 1.998V16a.75.75 0 0 1-1.5 0v-1.633a1.1 1.1 0 0 0-.396-.846l-.996-.83A2.34 2.34 0 0 1 8.7 9.238l1.654-1.654a.317.317 0 0 0-.1-.516 3.518 3.518 0 0 0-3.25.25L4.898 8.637a.75.75 0 0 1-.795-1.272L6.21 6.047ZM11.75 10a.75.75 0 0 1 .75-.75h3a.75.75 0 0 1 0 1.5h-3a.75.75 0 0 1-.75-.75Zm-4.22 3.47a.75.75 0 0 1 0 1.06l-.328.329a68.32 68.32 0 0 0-.085.085c-.494.495-.885.886-1.393 1.097-.509.21-1.061.21-1.76.21l-.12-.001H3a.75.75 0 0 1 0-1.5h.843c.879 0 1.11-.013 1.307-.095.198-.082.37-.236.991-.857l.329-.328a.75.75 0 0 1 1.06 0Z" clip-rule="evenodd"/>
    <path d="M3.087 22h16.402a2.511 2.511 0 1 0-.433-4.985l-.163.029L20.033 9v-.003c.053-.35.085-.553.124-.699a.63.63 0 0 1 .04-.115l.006-.012.002-.001.01-.007a.635.635 0 0 1 .114-.046c.145-.046.346-.087.695-.157l1.123-.225a.75.75 0 1 0-.294-1.47l-1.157.23c-.303.062-.589.119-.823.194a1.73 1.73 0 0 0-.755.447c-.227.238-.34.51-.41.776-.064.237-.107.525-.153.832l-.005.034-1.21 8.538L2.9 19.843A1.087 1.087 0 0 0 3.086 22Z"/>
  </g>
</svg>
