<svg xmlns="http://www.w3.org/2000/svg" width="24" height="24" fill="none">
  <g fill="#1C274C">
    <path d="M16 15.25a1.25 1.25 0 1 0 0-2.5 1.25 1.25 0 0 0 0 2.5ZM9.25 10a1.25 1.25 0 1 0-2.5 0 1.25 1.25 0 0 0 2.5 0Z"/>
    <path fill-rule="evenodd" d="M12 22c-4.714 0-7.071 0-8.536-1.465C2 19.072 2 16.714 2 12s0-7.071 1.464-8.536C4.93 2 7.286 2 12 2c4.714 0 7.071 0 8.535 1.464C22 4.93 22 7.286 22 12c0 4.714 0 7.071-1.465 8.535C19.072 22 16.714 22 12 22Zm6.75-8a2.75 2.75 0 1 1-5.5 0 2.75 2.75 0 0 1 5.5 0ZM8 7.25a2.75 2.75 0 1 1 0 5.5 2.75 2.75 0 0 1 0-5.5Zm8 3.5a.75.75 0 0 1-.75-.75V5a.75.75 0 0 1 1.5 0v5a.75.75 0 0 1-.75.75ZM7.25 14a.75.75 0 0 1 1.5 0v5a.75.75 0 0 1-1.5 0v-5ZM16 19.75a.75.75 0 0 1-.75-.75v-1a.75.75 0 0 1 1.5 0v1a.75.75 0 0 1-.75.75ZM7.25 5a.75.75 0 0 1 1.5 0v1a.75.75 0 0 1-1.5 0V5Z" clip-rule="evenodd"/>
  </g>
</svg>
