<svg xmlns="http://www.w3.org/2000/svg" width="24" height="24" fill="none">
  <path fill="#1C274C" d="M12 4a2 2 0 1 1 4 0 2 2 0 0 1-4 0Zm0 6a2 2 0 1 1 0 4 2 2 0 0 1 0-4Zm-2 8a2 2 0 1 1 0 4 2 2 0 0 1 0-4Zm5.25-6a.75.75 0 0 1 .75-.75h3a.75.75 0 0 1 0 1.5h-3a.75.75 0 0 1-.75-.75ZM14 19.25a.75.75 0 0 0 0 1.5h5a.75.75 0 0 0 0-1.5h-5ZM10.75 4a.75.75 0 0 0-.75-.75H5a.75.75 0 0 0 0 1.5h5a.75.75 0 0 0 .75-.75ZM5 11.25a.75.75 0 0 0 0 1.5h3a.75.75 0 0 0 0-1.5H5ZM4.25 20a.75.75 0 0 1 .75-.75h1a.75.75 0 0 1 0 1.5H5a.75.75 0 0 1-.75-.75ZM19 3.25a.75.75 0 0 1 0 1.5h-1a.75.75 0 0 1 0-1.5h1Z"/>
</svg>
