<svg xmlns="http://www.w3.org/2000/svg" width="24" height="24" fill="none">
  <g fill="#1C274C">
    <path d="M12 2c1.7 0 3.094 0 4.25.069l1.5.153c1.223.194 2.102.558 2.785 1.242C22 4.93 22 7.286 22 12c0 4.714 0 7.071-1.465 8.535C19.072 22 16.714 22 12 22s-7.071 0-8.536-1.465C2 19.072 2 16.714 2 12s0-7.071 1.464-8.536C4.93 2 7.286 2 12 2Z" opacity=".4"/>
    <path d="M12 6.25A5.75 5.75 0 1 0 17.75 12a.75.75 0 0 0-1.5 0 4.25 4.25 0 1 1-2.975-4.056.75.75 0 1 0 .45-1.43A5.748 5.748 0 0 0 12 6.25Z"/>
    <path d="M10.75 12a.75.75 0 0 0-1.5 0A2.75 2.75 0 0 0 12 14.75a.75.75 0 0 0 0-1.5c-.69 0-1.25-.56-1.25-1.25Zm7-4.036V2.221l-1.5-.153v5.896a.25.25 0 0 1-.111.208l-2.555 1.704a.75.75 0 1 0 .832 1.248l2.555-1.703a1.75 1.75 0 0 0 .78-1.457Z"/>
  </g>
</svg>
