<svg xmlns="http://www.w3.org/2000/svg" width="24" height="24" fill="none">
  <g fill="#1C274C">
    <path fill-rule="evenodd" d="M5.675 7.594C3.432 8.359 2 9.523 2 10.826 2 13.133 6.477 15 12 15s10-1.868 10-4.174c0-1.303-1.432-2.467-3.675-3.232-.124.29-.331.584-.668.818C16.869 8.96 15.3 9.5 12 9.5s-4.869-.54-5.657-1.088a1.893 1.893 0 0 1-.668-.818ZM12 13a1 1 0 1 0 0-2 1 1 0 0 0 0 2Zm-4-2a1 1 0 1 1-2 0 1 1 0 0 1 2 0Zm9 1a1 1 0 1 0 0-2 1 1 0 0 0 0 2Z" clip-rule="evenodd"/>
    <path d="M12 17.25a.75.75 0 0 1 .75.75v3a.75.75 0 0 1-1.5 0v-3a.75.75 0 0 1 .75-.75Z"/>
    <path d="M7.055 7.005A4.73 4.73 0 0 1 11.729 3h.542a4.73 4.73 0 0 1 4.674 4.005.429.429 0 0 1-.145.175c-.414.288-1.61.82-4.8.82-3.19 0-4.386-.532-4.8-.82a.429.429 0 0 1-.145-.175ZM6 16.25a.75.75 0 0 1 .75.75v3a.75.75 0 0 1-1.5 0v-3a.75.75 0 0 1 .75-.75Zm12.75.75a.75.75 0 0 0-1.5 0v3a.75.75 0 0 0 1.5 0v-3Z" opacity=".5"/>
  </g>
</svg>
