<svg xmlns="http://www.w3.org/2000/svg" width="24" height="24" fill="none">
  <path fill="#1C274C" d="M2.476 12A.476.476 0 0 1 2 11.524c0-4.446 3.046-8.18 7.165-9.23a6.721 6.721 0 0 0-.424.606c-.736 1.178-1.248 2.705-1.607 4.172a34.412 34.412 0 0 0-.712 4.043c-.039.331-.07.63-.094.885H2.476ZM22 11.524a.476.476 0 0 1-.476.476h-3.852a38.691 38.691 0 0 0-.095-.885 34.4 34.4 0 0 0-.711-4.043c-.36-1.467-.87-2.994-1.607-4.172a6.703 6.703 0 0 0-.424-.606C18.955 3.344 22 7.078 22 11.524ZM11.25 20v-8H7.835c.02-.211.046-.45.077-.709.126-1.06.337-2.465.68-3.863.344-1.408.81-2.756 1.42-3.734C10.63 2.707 11.29 2.25 12 2.25c.711 0 1.37.457 1.987 1.444.611.978 1.077 2.326 1.422 3.734.342 1.398.553 2.803.679 3.863.03.26.056.498.077.709H12.75v8a2.75 2.75 0 1 1-5.5 0v-1a.75.75 0 0 1 1.5 0v1a1.25 1.25 0 1 0 2.5 0Z"/>
</svg>
