<svg xmlns="http://www.w3.org/2000/svg" width="24" height="24" fill="none">
  <g fill="#1C274C">
    <path d="M12.553 2.494a.75.75 0 0 0-1.107 0l-4 4.375A.75.75 0 0 0 8.554 7.88l2.696-2.95V16a.75.75 0 0 0 1.5 0V4.932l2.697 2.95a.75.75 0 1 0 1.107-1.013l-4-4.375Z"/>
    <path d="M3.75 15a.75.75 0 0 0-1.5 0v.055c0 1.367 0 2.47.117 3.337.12.9.38 1.658.981 2.26.602.602 1.36.86 2.26.982.867.116 1.97.116 3.337.116h6.11c1.367 0 2.47 0 3.337-.116.9-.122 1.658-.38 2.26-.982.602-.602.86-1.36.982-2.26.116-.867.116-1.97.116-3.337V15a.75.75 0 0 0-1.5 0c0 1.435-.002 2.436-.103 3.192-.099.734-.28 1.122-.556 1.399-.277.277-.665.457-1.4.556-.755.101-1.756.103-3.191.103H9c-1.435 0-2.437-.002-3.192-.103-.734-.099-1.122-.28-1.399-.556-.277-.277-.457-.665-.556-1.4-.101-.755-.103-1.756-.103-3.191Z"/>
  </g>
</svg>
