<svg xmlns="http://www.w3.org/2000/svg" width="24" height="24" fill="none">
  <path fill="#1C274C" d="M12 1.25a.75.75 0 0 1 .624.334l2 3a.75.75 0 1 1-1.248.832l-.626-.939v10.515c.121-.062.248-.115.38-.16l3.265-1.088c.51-.17.855-.647.855-1.185v-1.85a1.195 1.195 0 0 1-.634-.325 1.239 1.239 0 0 1-.341-.735 4.845 4.845 0 0 1-.025-.615v-.068c0-.206 0-.427.025-.615.03-.219.105-.5.341-.735.236-.236.516-.311.735-.341.188-.025.41-.025.615-.025h.069c.205 0 .426 0 .614.025.219.03.5.105.735.341.236.236.311.516.341.735.025.188.025.41.025.615v.068c0 .206 0 .427-.025.615-.03.219-.105.5-.341.735-.2.2-.434.285-.634.324v1.85a2.75 2.75 0 0 1-1.88 2.61l-3.265 1.088a1.25 1.25 0 0 0-.855 1.186v.703a2 2 0 1 1-1.5 0v-3.704a1.25 1.25 0 0 0-.855-1.185L7.13 12.167a2.75 2.75 0 0 1-1.88-2.609V7.582a1.75 1.75 0 1 1 1.5 0v1.976c0 .539.344 1.016.855 1.186l3.265 1.089c.132.044.259.097.38.159V4.477l-.626.939a.75.75 0 1 1-1.248-.832l2-3A.75.75 0 0 1 12 1.25Z"/>
</svg>
