<svg xmlns="http://www.w3.org/2000/svg" width="24" height="24" fill="none">
  <g fill="#1C274C">
    <circle cx="12" cy="6" r="4"/>
    <path fill-rule="evenodd" d="M18 15.75a2.25 2.25 0 0 0-2.03 3.22l3-3a2.24 2.24 0 0 0-.97-.22Zm2.03 1.28-3 3a2.25 2.25 0 0 0 3-3Zm-5.78.97a3.75 3.75 0 1 1 7.5 0 3.75 3.75 0 0 1-7.5 0Z" clip-rule="evenodd"/>
    <path d="M15.327 13.48A5.247 5.247 0 0 0 12.75 18c0 1.07.32 2.064.869 2.893-.52.07-1.062.108-1.619.108-3.866 0-7-1.79-7-4s3.134-4 7-4c1.204 0 2.337.174 3.327.48Z"/>
  </g>
</svg>
