<svg xmlns="http://www.w3.org/2000/svg" width="24" height="24" fill="none">
  <g fill="#1C274C">
    <path d="M18.357 1.614a.75.75 0 0 1 1.029-.257L19 2l.386-.643h.001l.002.002.003.002.01.006a1.586 1.586 0 0 1 .114.076c.07.049.165.12.277.212.222.185.512.462.802.838.582.757 1.155 1.914 1.155 3.507 0 1.593-.573 2.75-1.155 3.507-.29.376-.58.653-.802.838a4.16 4.16 0 0 1-.39.288l-.01.006-.004.002-.002.001s-.001.001-.387-.642l.386.643a.75.75 0 0 1-.776-1.283l.005-.004.04-.027c.04-.028.101-.073.177-.136.153-.128.363-.326.573-.6.418-.543.845-1.386.845-2.593s-.427-2.05-.845-2.593a3.804 3.804 0 0 0-.573-.6 2.67 2.67 0 0 0-.217-.163l-.005-.004a.75.75 0 0 1-.253-1.026Z"/>
    <path fill-rule="evenodd" d="M10 1.25a4.75 4.75 0 1 0 0 9.5 4.75 4.75 0 0 0 0-9.5ZM6.75 6a3.25 3.25 0 1 1 6.5 0 3.25 3.25 0 0 1-6.5 0ZM10 12.25c-2.04 0-3.922.47-5.322 1.27C3.3 14.308 2.25 15.51 2.25 17s1.05 2.692 2.428 3.48c1.4.8 3.283 1.27 5.322 1.27 2.04 0 3.922-.47 5.322-1.27 1.378-.788 2.428-1.99 2.428-3.48s-1.05-2.692-2.428-3.48c-1.4-.8-3.283-1.27-5.322-1.27ZM3.75 17c0-.72.517-1.517 1.672-2.177C6.556 14.175 8.173 13.75 10 13.75c1.827 0 3.444.425 4.578 1.073 1.155.66 1.672 1.458 1.672 2.177 0 .72-.517 1.517-1.672 2.177-1.134.648-2.751 1.073-4.578 1.073-1.827 0-3.444-.425-4.578-1.073C4.267 18.517 3.75 17.72 3.75 17Z" clip-rule="evenodd"/>
    <path d="M17.386 3.357a.75.75 0 0 0-1.03.257l.25 1.024.007.005a1.525 1.525 0 0 1 .293.29A1.7 1.7 0 0 1 17.25 6a1.7 1.7 0 0 1-.345 1.068 1.525 1.525 0 0 1-.292.29l-.008.004a.75.75 0 0 0 .78 1.281L17 8l.386.643h.001l.002-.002.003-.001.007-.005.02-.012a1.876 1.876 0 0 0 .217-.162c.129-.107.294-.265.459-.479A3.2 3.2 0 0 0 18.75 6a3.2 3.2 0 0 0-.655-1.982 3.031 3.031 0 0 0-.622-.604 1.897 1.897 0 0 0-.054-.037l-.02-.012-.007-.005-.003-.001-.002-.001S17.386 3.357 17 4l.386-.643Z"/>
  </g>
</svg>
