<svg xmlns="http://www.w3.org/2000/svg" width="24" height="24" fill="none">
  <g fill="#1C274C">
    <circle cx="12" cy="6" r="4"/>
    <path fill-rule="evenodd" d="M21.468 16.414a.75.75 0 0 1 .118 1.054l-2 2.5a.75.75 0 0 1-1.116.062l-1-1a.75.75 0 1 1 1.06-1.06l.407.407 1.477-1.845a.75.75 0 0 1 1.054-.118Z" clip-rule="evenodd"/>
    <path d="m18.827 16.114-.184.23a2.25 2.25 0 0 0-2.234 3.747l.012.012C15.215 20.664 13.677 21 12 21c-3.866 0-7-1.79-7-4s3.134-4 7-4c3.332 0 6.12 1.33 6.827 3.113Z"/>
  </g>
</svg>
