<svg xmlns="http://www.w3.org/2000/svg" width="24" height="24" fill="none">
  <g fill="#1C274C">
    <circle cx="12" cy="6" r="4"/>
    <path d="M18.095 15.031C17.67 15 17.149 15 16.5 15c-1.65 0-2.475 0-2.987.513C13 16.025 13 16.85 13 18.5c0 1.166 0 1.92.181 2.443-.384.038-.778.057-1.181.057-3.866 0-7-1.79-7-4s3.134-4 7-4c2.613 0 4.892.818 6.095 2.031Z" opacity=".5"/>
    <path fill-rule="evenodd" d="M16.5 22c-1.65 0-2.475 0-2.987-.513C13 20.975 13 20.15 13 18.5c0-1.65 0-2.475.513-2.987C14.025 15 14.85 15 16.5 15c1.65 0 2.475 0 2.987.513C20 16.025 20 16.85 20 18.5c0 1.65 0 2.475-.513 2.987C18.975 22 18.15 22 16.5 22Zm.583-5.056a.583.583 0 1 0-1.166 0v.973h-.973a.583.583 0 1 0 0 1.166h.973v.973a.583.583 0 1 0 1.166 0v-.973h.973a.583.583 0 1 0 0-1.166h-.973v-.973Z" clip-rule="evenodd"/>
  </g>
</svg>
