<svg xmlns="http://www.w3.org/2000/svg" width="24" height="24" fill="none">
  <g fill="#1C274C">
    <path d="M16 6a4 4 0 1 1-8 0 4 4 0 0 1 8 0Z"/>
    <path d="M14.477 21.92c-.726.053-1.547.08-2.477.08-8 0-8-2.015-8-4.5S7.582 13 12 13c2.88 0 5.406.856 6.814 2.141C18.298 15 17.574 15 16.5 15c-1.65 0-2.475 0-2.987.513C13 16.025 13 16.85 13 18.5c0 1.65 0 2.475.513 2.987.237.238.542.365.964.434Z" opacity=".5"/>
    <path fill-rule="evenodd" d="M16.5 22c-1.65 0-2.475 0-2.987-.513C13 20.975 13 20.15 13 18.5c0-1.65 0-2.475.513-2.987C14.025 15 14.85 15 16.5 15c1.65 0 2.475 0 2.987.513C20 16.025 20 16.85 20 18.5c0 1.65 0 2.475-.513 2.987C18.975 22 18.15 22 16.5 22Zm-1.143-5.468a.583.583 0 1 0-.825.825l1.143 1.143-1.143 1.143a.583.583 0 1 0 .825.825l1.143-1.143 1.143 1.143a.583.583 0 1 0 .825-.825L17.325 18.5l1.143-1.143a.583.583 0 1 0-.825-.825L16.5 17.675l-1.143-1.143Z" clip-rule="evenodd"/>
  </g>
</svg>
