<svg xmlns="http://www.w3.org/2000/svg" width="24" height="24" fill="none">
  <g fill="#1C274C">
    <path d="M12 10a4 4 0 1 0 0-8 4 4 0 0 0 0 8Z"/>
    <path fill-rule="evenodd" d="M18 15.75a3.25 3.25 0 1 0 0 6.5 3.25 3.25 0 0 0 0-6.5ZM16.25 19a1.75 1.75 0 0 1 2.338-1.649l-2.237 2.237A1.746 1.746 0 0 1 16.25 19Zm1.162 1.649 2.237-2.237a1.75 1.75 0 0 1-2.237 2.237Z" clip-rule="evenodd"/>
    <path d="M12 22c-8 0-8-2.015-8-4.5S7.582 13 12 13c2.37 0 4.498.58 5.963 1.5a4.5 4.5 0 0 0-3.392 7.414C13.82 21.97 12.97 22 12 22Z"/>
  </g>
</svg>
