<svg xmlns="http://www.w3.org/2000/svg" width="24" height="24" fill="none">
  <g fill="#1C274C">
    <path fill-rule="evenodd" d="M9 6.25a2.75 2.75 0 1 0 0 5.5 2.75 2.75 0 0 0 0-5.5ZM7.75 9a1.25 1.25 0 1 1 2.5 0 1.25 1.25 0 0 1-2.5 0ZM9 12.25c-1.196 0-2.315.24-3.164.665-.803.402-1.586 1.096-1.586 2.085v.063c-.002.51-.004 1.37.81 1.959.378.273.877.448 1.495.559.623.112 1.422.169 2.445.169s1.822-.057 2.445-.169c.618-.111 1.117-.286 1.495-.56.814-.589.812-1.448.81-1.959V15c0-.99-.783-1.683-1.586-2.085-.849-.424-1.968-.665-3.164-.665ZM5.75 15c0-.115.113-.421.757-.743.6-.3 1.48-.507 2.493-.507s1.894.207 2.493.507c.644.322.757.628.757.743 0 .604-.039.697-.19.807-.122.088-.373.206-.88.298-.502.09-1.203.145-2.18.145-.977 0-1.678-.055-2.18-.145-.507-.092-.758-.21-.88-.298-.152-.11-.19-.203-.19-.807Z" clip-rule="evenodd"/>
    <path d="M19 12.75a.75.75 0 0 0 0-1.5h-4a.75.75 0 0 0 0 1.5h4ZM19.75 9a.75.75 0 0 1-.75.75h-5a.75.75 0 0 1 0-1.5h5a.75.75 0 0 1 .75.75ZM19 15.75a.75.75 0 0 0 0-1.5h-3a.75.75 0 0 0 0 1.5h3Z"/>
    <path fill-rule="evenodd" d="M9.944 3.25h4.112c1.838 0 3.294 0 4.433.153 1.172.158 2.121.49 2.87 1.238.748.749 1.08 1.698 1.238 2.87.153 1.14.153 2.595.153 4.433v.112c0 1.838 0 3.294-.153 4.433-.158 1.172-.49 2.121-1.238 2.87-.749.748-1.698 1.08-2.87 1.238-1.14.153-2.595.153-4.433.153H9.944c-1.838 0-3.294 0-4.433-.153-1.172-.158-2.121-.49-2.87-1.238-.748-.749-1.08-1.698-1.238-2.87-.153-1.14-.153-2.595-.153-4.433v-.112c0-1.838 0-3.294.153-4.433.158-1.172.49-2.121 1.238-2.87.749-.748 1.698-1.08 2.87-1.238 1.14-.153 2.595-.153 4.433-.153ZM5.71 4.89c-1.006.135-1.586.389-2.01.812-.422.423-.676 1.003-.811 2.009-.138 1.028-.14 2.382-.14 4.289 0 1.907.002 3.261.14 4.29.135 1.005.389 1.585.812 2.008.423.423 1.003.677 2.009.812 1.028.138 2.382.14 4.289.14h4c1.907 0 3.262-.002 4.29-.14 1.005-.135 1.585-.389 2.008-.812.423-.423.677-1.003.812-2.009.138-1.028.14-2.382.14-4.289 0-1.907-.002-3.261-.14-4.29-.135-1.005-.389-1.585-.812-2.008-.423-.423-1.003-.677-2.009-.812-1.027-.138-2.382-.14-4.289-.14h-4c-1.907 0-3.261.002-4.29.14Z" clip-rule="evenodd"/>
  </g>
</svg>
