<svg xmlns="http://www.w3.org/2000/svg" width="24" height="24" fill="none">
  <path fill="#1C274C" fill-rule="evenodd" d="M9.776 3.12a1.25 1.25 0 0 1 1.086-1.87h2.276a1.25 1.25 0 0 1 1.086 1.87l-1.139 1.992c-.48.84-1.69.84-2.17 0L9.776 3.12Zm1.516-.37L12 3.988l.708-1.238h-1.416Zm-3.347.5H8.5a.75.75 0 0 1 0 1.5h-.75v14.5h.75a.75.75 0 0 1 0 1.5h-.555l-.899-.001a.78.78 0 0 1-.1 0c-.918-.007-1.693-.029-2.338-.115-.9-.122-1.658-.38-2.26-.982-.602-.602-.86-1.36-.981-2.26-.117-.867-.117-1.97-.117-3.337v-4.11c0-1.367 0-2.47.117-3.337.12-.9.38-1.658.981-2.26.602-.602 1.36-.86 2.26-.981.645-.087 1.42-.11 2.338-.115a.76.76 0 0 1 .1 0c.286-.002.586-.002.9-.002ZM6.25 4.761c-.569.012-1.04.038-1.442.092-.734.099-1.122.28-1.399.556-.277.277-.457.665-.556 1.4-.054.4-.08.872-.092 1.441H6.25V4.761Zm0 4.989h-3.5v4.5h3.5v-4.5Zm0 6H2.761c.012.569.038 1.04.092 1.442.099.734.28 1.122.556 1.399.277.277.665.457 1.4.556.4.054.872.08 1.441.092V15.75Zm10-11h-.75a.75.75 0 0 1 0-1.5h.555a185.416 185.416 0 0 1 1 .002c.917.006 1.692.028 2.337.115.9.12 1.658.38 2.26.981.602.602.86 1.36.982 2.26.116.867.116 1.97.116 3.337v4.11c0 1.367 0 2.47-.116 3.337-.122.9-.38 1.658-.982 2.26-.602.602-1.36.86-2.26.982-.645.086-1.42.108-2.338.114a.814.814 0 0 1-.1 0c-.286.002-.586.002-.9.002H15.5a.75.75 0 0 1 0-1.5h.75V4.75Zm1.5.011V8.25h3.489a13.225 13.225 0 0 0-.092-1.442c-.099-.734-.28-1.122-.556-1.399-.277-.277-.665-.457-1.4-.556-.4-.054-.872-.08-1.441-.092Zm3.5 4.989h-3.5v4.5h3.5v-4.5Zm-.011 6H17.75v3.489c.569-.012 1.04-.038 1.442-.092.734-.099 1.122-.28 1.399-.556.277-.277.457-.665.556-1.4.054-.4.08-.872.092-1.441ZM12 6.75a.75.75 0 0 1 .75.75v1a.75.75 0 0 1-1.5 0v-1a.75.75 0 0 1 .75-.75Zm0 4a.75.75 0 0 1 .75.75v1a.75.75 0 0 1-1.5 0v-1a.75.75 0 0 1 .75-.75Zm0 4a.75.75 0 0 1 .75.75v1a.75.75 0 0 1-1.5 0v-1a.75.75 0 0 1 .75-.75Zm-2.224 6.13 1.139-1.992a1.25 1.25 0 0 1 2.17 0l1.139 1.992a1.25 1.25 0 0 1-1.086 1.87h-2.276a1.25 1.25 0 0 1-1.086-1.87ZM12 20.012l-.708 1.238h1.416L12 20.012Z" clip-rule="evenodd"/>
</svg>
