<svg xmlns="http://www.w3.org/2000/svg" width="24" height="24" fill="none">
  <g stroke="#1C274C" stroke-width="1.5">
    <path d="M12 2c4.714 0 7.071 0 8.535 1.464C22 4.93 22 7.286 22 12c0 4.714 0 7.071-1.465 8.535C19.072 22 16.714 22 12 22s-7.071 0-8.536-1.465C2 19.072 2 16.714 2 12s0-7.071 1.464-8.536C4.93 2 7.286 2 12 2Z"/>
    <path stroke-linecap="round" d="M21.5 17h-19m19-10h-19M12 2v5m0 15v-5m5-14.5V7m0 14.5V17M7 2.5V7m0 14.5V17m7-5c0-.528-.53-.884-1.589-1.596-1.073-.721-1.61-1.082-2.01-.817C10 9.852 10 10.567 10 12c0 1.432 0 2.148.4 2.413.4.265.938-.096 2.011-.817C13.471 12.884 14 12.528 14 12Z"/>
  </g>
</svg>
