<svg xmlns="http://www.w3.org/2000/svg" width="24" height="24" fill="none">
  <path fill="#1C274C" d="M6.25 2.222c-1.223.194-2.102.558-2.786 1.242-.684.685-1.048 1.563-1.243 2.786H6.25V2.222ZM2.068 7.75c-.058.981-.067 2.134-.068 3.5h4.25v-3.5H2.069Zm-.068 5c.001 1.366.01 2.519.068 3.5H6.25v-3.5H2Zm.221 5c.195 1.223.56 2.102 1.243 2.785.684.685 1.563 1.05 2.786 1.243V17.75H2.22Zm5.529 4.181C8.906 22 10.3 22 12 22c1.7 0 3.094 0 4.25-.069V12.75h-8.5v9.181Zm10-.153c1.223-.194 2.101-.558 2.785-1.242.684-.684 1.049-1.563 1.243-2.786H17.75v4.028Zm4.181-5.528c.058-.981.067-2.134.069-3.5h-4.25v3.5h4.181Zm.069-5c-.002-1.366-.01-2.519-.069-3.5H17.75v3.5H22Zm-.222-5c-.194-1.223-.559-2.101-1.243-2.786-.684-.684-1.563-1.048-2.785-1.242V6.25h4.028ZM16.25 2.069C15.094 2 13.7 2 12 2c-1.7 0-3.094 0-4.25.069v9.181h8.5V2.069Z"/>
</svg>
