<svg xmlns="http://www.w3.org/2000/svg" width="24" height="24" fill="none">
  <path fill="#1C274C" fill-rule="evenodd" d="M12 1.25a.75.75 0 0 1 .75.75v1.667a.75.75 0 0 1-1.5 0V2a.75.75 0 0 1 .75-.75Zm0 5a.75.75 0 0 1 .75.75v3.333a.75.75 0 0 1-1.5 0V7a.75.75 0 0 1 .75-.75Zm0 6.667a.75.75 0 0 1 .75.75V17a.75.75 0 0 1-1.5 0v-3.333a.75.75 0 0 1 .75-.75Zm0 6.666a.75.75 0 0 1 .75.75V22a.75.75 0 0 1-1.5 0v-1.667a.75.75 0 0 1 .75-.75ZM10.25 2.998a.75.75 0 0 1-.745.755c-.678.005-1.267.018-1.782.046A.75.75 0 0 1 7.75 4v16a.75.75 0 0 1-.027.2c.515.03 1.104.042 1.782.047a.75.75 0 0 1-.01 1.5c-1.394-.01-2.538-.05-3.471-.229-.954-.182-1.743-.52-2.383-1.16-.748-.748-1.08-1.697-1.238-2.869-.153-1.14-.153-2.595-.153-4.433v-2.112c0-1.838 0-3.294.153-4.433.158-1.172.49-2.121 1.238-2.87.64-.64 1.429-.977 2.383-1.16.933-.178 2.077-.217 3.47-.228a.75.75 0 0 1 .756.745Zm-4 17.036V16.25H3.798c.02.381.05.725.092 1.04.135 1.005.389 1.585.812 2.008.356.356.82.59 1.549.736ZM3.757 14.75H6.25v-5.5H3.756c-.006.526-.006 1.107-.006 1.75v2c0 .643 0 1.224.006 1.75Zm.042-7H6.25V3.966c-.728.146-1.192.38-1.548.736-.423.423-.677 1.003-.812 2.009-.042.314-.072.658-.092 1.039Zm9.952-4.752a.75.75 0 0 1 .755-.745c1.393.01 2.538.05 3.471.229.954.182 1.743.52 2.383 1.16.748.748 1.08 1.697 1.238 2.869.153 1.14.153 2.595.153 4.433v2.112c0 1.838 0 3.294-.153 4.433-.158 1.172-.49 2.121-1.238 2.87-.64.64-1.429.977-2.383 1.16-.933.178-2.077.217-3.47.228a.75.75 0 0 1-.011-1.5 37.977 37.977 0 0 0 1.782-.046.751.751 0 0 1-.027-.201V4c0-.07.01-.137.027-.2a38.111 38.111 0 0 0-1.783-.047.75.75 0 0 1-.744-.755Zm4 .968V7.75h2.452a13.08 13.08 0 0 0-.092-1.04c-.135-1.005-.389-1.585-.812-2.008-.356-.356-.82-.59-1.549-.736Zm2.494 5.284H17.75v5.5h2.494c.006-.526.006-1.107.006-1.75v-2c0-.643 0-1.224-.006-1.75Zm-.042 7H17.75v3.784c.728-.146 1.192-.38 1.548-.736.423-.423.677-1.003.812-2.009.042-.314.072-.658.092-1.039Z" clip-rule="evenodd"/>
</svg>
