<svg xmlns="http://www.w3.org/2000/svg" width="24" height="24" fill="none">
  <path stroke="#1C274C" stroke-width="1.5" d="M2 12c0-4.714 0-7.071 1.464-8.536C4.93 2 7.286 2 12 2c4.714 0 7.071 0 8.535 1.464C22 4.93 22 7.286 22 12c0 4.714 0 7.071-1.465 8.535C19.072 22 16.714 22 12 22s-7.071 0-8.536-1.465C2 19.072 2 16.714 2 12Z"/>
  <path fill="#1C274C" d="M17.75 2.5a.75.75 0 0 0-1.5 0h1.5Zm-1.5 19a.75.75 0 0 0 1.5 0h-1.5Zm-8.5-19a.75.75 0 0 0-1.5 0h1.5Zm-1.5 19a.75.75 0 0 0 1.5 0h-1.5ZM17 11.25a.75.75 0 0 0 0 1.5v-1.5Zm5 1.5a.75.75 0 0 0 0-1.5v1.5Zm-20-1.5a.75.75 0 0 0 0 1.5v-1.5Zm5 1.5a.75.75 0 0 0 0-1.5v1.5Zm-4.5-6.5a.75.75 0 0 0 0 1.5v-1.5ZM7 7.75a.75.75 0 0 0 0-1.5v1.5Zm10-1.5a.75.75 0 0 0 0 1.5v-1.5Zm4.5 1.5a.75.75 0 0 0 0-1.5v1.5Zm-4.5 8.5a.75.75 0 0 0 0 1.5v-1.5Zm4.5 1.5a.75.75 0 0 0 0-1.5v1.5Zm-19-1.5a.75.75 0 0 0 0 1.5v-1.5Zm4.5 1.5a.75.75 0 0 0 0-1.5v1.5ZM16.25 2.5v19h1.5v-19h-1.5Zm-10 0v19h1.5v-19h-1.5ZM17 12.75h5v-1.5h-5v1.5Zm-15 0h5v-1.5H2v1.5Zm.5-5H7v-1.5H2.5v1.5Zm14.5 0h4.5v-1.5H17v1.5Zm0 10h4.5v-1.5H17v1.5Zm-14.5 0H7v-1.5H2.5v1.5Z" opacity=".5"/>
  <path fill="#1C274C" d="m12.411 10.404.418-.622-.418.622Zm0 3.192.418.622-.418-.622Zm-.418-2.57c.55.371.89.601 1.102.797a.748.748 0 0 1 .15.17c.006.01.007.014.006.01L13.25 12h1.5c0-.566-.305-.973-.639-1.28-.317-.293-.773-.596-1.282-.938l-.836 1.245Zm.836 3.192c.509-.342.965-.645 1.282-.938.334-.307.639-.714.639-1.28h-1.5v-.004l-.004.01a.775.775 0 0 1-.151.171c-.213.196-.551.426-1.102.796l.836 1.245ZM10.75 12c0-.738.002-1.217.044-1.55.045-.348.11-.297.02-.238l-.828-1.25c-.49.323-.624.865-.68 1.299-.057.45-.056 1.045-.056 1.739h1.5Zm2.08-2.218c-.514-.345-.976-.659-1.362-.837-.392-.182-.949-.336-1.482.016l.828 1.251c-.133.088-.22-.019.024.094.251.116.595.344 1.155.72l.836-1.244ZM9.25 12c0 .694-.001 1.29.056 1.74.056.433.19.975.68 1.299l.828-1.251c.09.059.025.11-.02-.239-.043-.332-.044-.811-.044-1.549h-1.5Zm2.743.973c-.56.377-.904.605-1.155.72-.244.114-.156.007-.024.095l-.828 1.25c.533.353 1.09.198 1.482.017.386-.178.848-.492 1.361-.837l-.836-1.245Z"/>
</svg>
