<svg xmlns="http://www.w3.org/2000/svg" width="24" height="24" fill="none">
  <path fill="#1C274C" fill-rule="evenodd" d="M6.89 1.258c-.991.015-1.827.058-2.525.193-.737.143-1.366.398-1.89.87-.578.52-.878 1.169-1.036 1.94-.15.733-.18 1.623-.187 2.68a.763.763 0 0 0 0 .109c-.002.298-.002.615-.002.949v6.011c0 .683 0 1.297.014 1.842a.754.754 0 0 0 .012.345c.06 1.472.266 2.643 1.199 3.482.524.472 1.153.727 1.89.87.698.136 1.534.178 2.525.193a.75.75 0 0 0 .2.003c.479.005 1.003.005 1.573.005h2.587V21c0 .966.784 1.75 1.75 1.75h2.337c.57 0 1.094 0 1.573-.005a.747.747 0 0 0 .2-.003c.991-.015 1.827-.058 2.525-.193.737-.143 1.366-.398 1.89-.87.933-.84 1.139-2.01 1.199-3.482a.754.754 0 0 0 .011-.345c.015-.545.015-1.159.015-1.842V9.998c0-.333 0-.65-.002-.948a.748.748 0 0 0 0-.11c-.008-1.056-.038-1.946-.187-2.678-.158-.772-.458-1.42-1.036-1.94-.524-.473-1.153-.728-1.89-.87-.698-.136-1.534-.18-2.525-.194a.755.755 0 0 0-.2-.003c-.479-.005-1.003-.005-1.573-.005H12.75V3A1.75 1.75 0 0 0 11 1.25H8.663c-.57 0-1.094 0-1.573.005a.757.757 0 0 0-.2.003Zm5.86 3.492v3.5h3.5v-3.5h-3.5ZM11.25 3a.25.25 0 0 0-.25-.25H8.667l-.917.001V6.25h3.5V3Zm0 4.75v7.5H2.754c-.004-.379-.004-.793-.004-1.25V7.75h8.5Zm-8.488-1.5H6.25V2.774c-.655.023-1.174.067-1.599.15-.562.109-.911.277-1.173.512-.276.249-.456.573-.57 1.126-.088.437-.128.98-.146 1.688Zm.052 10.5H6.25v2.476c-.655-.023-1.174-.067-1.599-.15-.562-.109-.911-.277-1.173-.512-.372-.335-.574-.81-.664-1.814Zm8.436 0v2.5h-3.5v-2.5h3.5Zm6.5-11.976V8.25h3.488c-.018-.708-.058-1.251-.147-1.688-.113-.553-.293-.877-.569-1.126-.262-.235-.61-.403-1.173-.512-.425-.083-.944-.127-1.599-.15Zm3.5 4.976h-8.5v7.5h8.496c.004-.379.004-.793.004-1.25V9.75Zm-5 9h-3.5V21c0 .138.112.25.25.25h3.25v-2.5Zm4.936 0H17.75v2.476c.655-.023 1.174-.067 1.599-.15.562-.109.911-.277 1.173-.512.372-.335.574-.81.664-1.814Z" clip-rule="evenodd"/>
</svg>
