<svg xmlns="http://www.w3.org/2000/svg" width="24" height="24" fill="none">
  <path fill="#1C274C" fill-rule="evenodd" d="M5.948 1.25h5.104c.899 0 1.648 0 2.242.08.628.084 1.195.27 1.65.725.456.456.642 1.023.726 1.65.08.595.08 1.345.08 2.243v.104c0 .898 0 1.648-.08 2.242-.084.628-.27 1.195-.726 1.65-.455.456-1.022.642-1.65.726-.594.08-1.344.08-2.242.08H5.948c-.898 0-1.648 0-2.242-.08-.628-.084-1.195-.27-1.65-.725-.456-.456-.642-1.023-.726-1.65-.08-.595-.08-1.345-.08-2.243v-.104c0-.898 0-1.648.08-2.242.084-.628.27-1.195.725-1.65.456-.456 1.023-.642 1.65-.726.595-.08 1.345-.08 2.243-.08ZM3.905 2.817c-.461.062-.659.169-.789.3-.13.13-.237.327-.3.788-.046.346-.06.776-.064 1.345H5.25V2.752c-.57.004-1 .018-1.345.065ZM6.75 2.75v6.5h3.5v-6.5h-3.5Zm5 .002V5.25h2.498c-.004-.57-.018-1-.064-1.345-.063-.461-.17-.659-.3-.789-.13-.13-.328-.237-.79-.3-.345-.046-.775-.06-1.344-.064Zm2.498 3.998H11.75v2.498c.57-.004 1-.018 1.345-.065.461-.062.659-.169.789-.3.13-.13.237-.327.3-.788.046-.346.06-.776.064-1.345ZM5.25 9.248V6.75H2.752c.004.57.018 1 .065 1.345.062.461.169.659.3.789.13.13.327.237.788.3.346.046.776.06 1.345.064Zm13.793-2.48A17.091 17.091 0 0 0 18 6.75a.75.75 0 0 1 0-1.5h.025c.445 0 .816 0 1.12.02.317.022.617.07.907.19a2.75 2.75 0 0 1 1.489 1.488c.084.204.12.464.14.664.025.229.04.495.05.767.01.296.015.613.017.914a.75.75 0 0 1 .782 1.237l-1 1a.75.75 0 0 1-1.06 0l-1-1a.75.75 0 0 1 .778-1.238 30.628 30.628 0 0 0-.017-.86 10.19 10.19 0 0 0-.041-.663c-.015-.142-.03-.215-.035-.24-.002-.012-.003-.014 0-.007a1.25 1.25 0 0 0-.677-.677c-.077-.032-.194-.061-.435-.078ZM2.47 12.47a.75.75 0 0 1 1.06 0l1 1a.75.75 0 0 1-.778 1.238c.002.288.007.584.017.86.009.256.022.484.041.663a2.41 2.41 0 0 0 .035.247c.127.307.37.55.677.677.077.032.194.061.435.078.247.017.567.017 1.043.017a.75.75 0 0 1 0 1.5h-.025c-.445 0-.816 0-1.12-.02a2.822 2.822 0 0 1-.907-.19 2.75 2.75 0 0 1-1.489-1.488c-.084-.203-.12-.464-.14-.664a11.575 11.575 0 0 1-.05-.767 32.59 32.59 0 0 1-.017-.914.75.75 0 0 1-.782-1.237l1-1Zm11.478.78h3.104c.899 0 1.648 0 2.242.08.628.084 1.195.27 1.65.726.456.455.642 1.022.726 1.65.08.594.08 1.343.08 2.242v.104c0 .899 0 1.648-.08 2.242-.084.628-.27 1.195-.726 1.65-.455.456-1.022.642-1.65.726-.486.065-1.077.077-1.767.08a.782.782 0 0 1-.05 0h-3.955a.837.837 0 0 1-.049 0c-.69-.003-1.28-.015-1.768-.08-.627-.084-1.194-.27-1.65-.726-.455-.455-.64-1.022-.725-1.65-.08-.594-.08-1.343-.08-2.242v-.104c0-.899 0-1.648.08-2.242.084-.628.27-1.195.726-1.65.455-.456 1.022-.642 1.65-.726.594-.08 1.344-.08 2.242-.08Zm.302 8h2.5v-6.5h-2.5v6.5Zm-1.5-2.5v2.49a8.06 8.06 0 0 1-.845-.056c-.461-.063-.659-.17-.789-.3-.13-.13-.237-.328-.3-.79-.047-.353-.06-.796-.065-1.386a.749.749 0 0 0 .249.042h1.75Zm0-1.5v-2.49a8.06 8.06 0 0 0-.845.056c-.461.063-.659.17-.789.3-.13.13-.237.328-.3.79-.047.353-.06.796-.065 1.386A.752.752 0 0 1 11 17.25h1.75Zm5.5-2.49v2.49h1.998c-.004-.57-.018-1-.065-1.345-.062-.461-.169-.659-.3-.789-.13-.13-.327-.237-.788-.3a8.06 8.06 0 0 0-.845-.057Zm1.998 3.99H18.25v2.49a8.06 8.06 0 0 0 .845-.056c.461-.063.659-.17.789-.3.13-.13.237-.328.3-.79.046-.345.06-.775.064-1.344Z" clip-rule="evenodd"/>
</svg>
