<svg xmlns="http://www.w3.org/2000/svg" width="24" height="24" fill="none">
  <path fill="#1C274C" fill-rule="evenodd" d="M18.54 5.46A9.25 9.25 0 1 0 5.46 18.54 9.25 9.25 0 0 0 18.54 5.46ZM4.4 4.398C8.597.2 15.403.2 19.6 4.399c4.198 4.198 4.198 11.004 0 15.202s-11.003 4.199-15.2 0C.2 15.403.2 8.597 4.399 4.4Zm3.535 2.474a.75.75 0 0 1 0 1.061 5.75 5.75 0 0 0 0 8.132.75.75 0 1 1-1.06 1.06 7.25 7.25 0 0 1 0-10.253.75.75 0 0 1 1.06 0Zm8.132 0a.75.75 0 0 1 1.06 0 7.25 7.25 0 0 1 0 10.253.75.75 0 1 1-1.06-1.06 5.75 5.75 0 0 0 0-8.132.75.75 0 0 1 0-1.06ZM12 9.75a2.25 2.25 0 1 0 0 4.5 2.25 2.25 0 0 0 0-4.5ZM8.25 12a3.75 3.75 0 1 1 7.5 0 3.75 3.75 0 0 1-7.5 0Z" clip-rule="evenodd"/>
</svg>
