<svg xmlns="http://www.w3.org/2000/svg" width="24" height="24" fill="none">
  <path fill="#1C274C" d="M12.017 12.993c1.923.046 3.769.6 5.363 1.57-2.889 3.035-6.988 5.14-11.165 5.595a10.055 10.055 0 0 1-2.29-2.259c3.077-.48 5.887-2.1 7.831-4.573l.261-.333Zm8.423 4.372A9.992 9.992 0 0 1 12 22a9.973 9.973 0 0 1-3.635-.681c3.903-.871 7.577-3.006 10.25-5.88a10.66 10.66 0 0 1 1.825 1.926Zm1.184-6.007.002.002.37.373a9.97 9.97 0 0 1-.79 4.178 12.274 12.274 0 0 0-9.125-4.416 9.432 9.432 0 0 1-1.253-4.684 15.79 15.79 0 0 1 10.796 4.547ZM10.946 5.313a9.434 9.434 0 0 1 .621-2.172L12.047 2c4.584.021 8.44 3.127 9.598 7.348a17.305 17.305 0 0 0-10.7-4.035Zm-.369 7.086A10.828 10.828 0 0 1 7.2 15.238a16.416 16.416 0 0 1-.32-11.83 9.935 9.935 0 0 1 3.484-1.275l-.18.426a10.922 10.922 0 0 0 .563 9.623l-.17.217ZM4.859 5A9.968 9.968 0 0 0 2 12c0 1.617.384 3.145 1.066 4.497.954-.093 1.883-.31 2.767-.64a17.918 17.918 0 0 1-.969-10.863L4.86 5Z"/>
</svg>
