<svg xmlns="http://www.w3.org/2000/svg" width="24" height="24" fill="none">
  <path fill="#1C274C" d="m11.57 12.553.592.46-.592-.46Zm-.256-8.907.693.288-.693-.288Zm9.929 7.097.534-.526-.004-.005-.53.53Zm.21 1.283a.75.75 0 1 0 1.07-1.052l-1.07 1.052Zm-15.72 7.017a.75.75 0 0 0 0 1.5v-1.5ZM3.5 15.75a.75.75 0 0 0 0 1.5v-1.5ZM8.192 3.356a.75.75 0 0 0-1.384-.577l1.384.577Zm11.684 13.56a.75.75 0 1 0 1.248-.832l-1.248.832ZM5.853 12.145a.75.75 0 1 0 1.472-.29l-1.472.29Zm9.58 5.178a.75.75 0 1 0-.866-1.225l.866 1.225ZM14.155 6.08a.75.75 0 1 0-.31 1.468l.31-1.468ZM12 12.75h.092v-1.5H12v1.5Zm-.592-1.21-.43.553 1.184.92.43-.553-1.184-.92Zm-.1-9.828-.686 1.645 1.385.577.685-1.646-1.384-.576Zm9.4 9.557.745.757 1.07-1.052-.746-.757-1.069 1.052ZM10.622 3.357a9.884 9.884 0 0 0 .742 9.04l1.272-.795a8.384 8.384 0 0 1-.63-7.668l-1.384-.577Zm.356 8.736A9.473 9.473 0 0 1 3.5 15.75v1.5c3.386 0 6.583-1.563 8.662-4.236l-1.184-.921Zm1.114.657a9.356 9.356 0 0 1 7.784 4.166l1.248-.832a10.855 10.855 0 0 0-9.032-4.834v1.5ZM6.808 2.779a16.177 16.177 0 0 0-.955 9.366l1.472-.29a14.677 14.677 0 0 1 .867-8.5L6.808 2.78Zm7.759 13.32c-2.598 1.839-5.745 2.944-8.834 2.944v1.5c3.436 0 6.881-1.224 9.7-3.22l-.866-1.225Zm-.722-8.551a13.735 13.735 0 0 1 6.867 3.725l1.061-1.06a15.236 15.236 0 0 0-7.618-4.133l-.31 1.468Z"/>
  <path stroke="#1C274C" stroke-linecap="round" stroke-width="1.5" d="M3.339 6.998A9.954 9.954 0 0 1 7 3.34C11.783.578 17.899 2.217 20.66 7c2.762 4.784 1.123 10.9-3.66 13.661C12.217 23.421 6.101 21.783 3.34 17a9.954 9.954 0 0 1-1.342-5"/>
</svg>
