<svg xmlns="http://www.w3.org/2000/svg" width="24" height="24" fill="none">
  <path fill="#1C274C" d="M5.003 11.716c.038-1.843.057-2.764.678-3.552.113-.144.28-.315.42-.431.763-.636 1.771-.636 3.788-.636.72 0 1.081 0 1.425-.092.071-.02.142-.042.211-.067.336-.121.637-.33 1.238-.746 2.374-1.645 3.56-2.467 4.557-2.11.191.069.376.168.541.29.861.635.927 2.115 1.058 5.073A73.66 73.66 0 0 1 19 12c0 .521-.033 1.46-.081 2.555-.131 2.958-.197 4.438-1.058 5.073a2.15 2.15 0 0 1-.54.29c-.997.357-2.184-.465-4.558-2.11-.601-.416-.902-.625-1.238-.746a2.687 2.687 0 0 0-.211-.067c-.344-.092-.704-.092-1.425-.092-2.017 0-3.025 0-3.789-.636a3.167 3.167 0 0 1-.419-.43c-.621-.79-.64-1.71-.678-3.553a13.778 13.778 0 0 1 0-.569Z"/>
</svg>
