<svg xmlns="http://www.w3.org/2000/svg" width="24" height="24" fill="none">
  <circle cx="12.5" cy="4.5" r="2.5" stroke="#1C274C" stroke-width="1.5"/>
  <path stroke="#1C274C" stroke-linecap="round" stroke-width="1.5" d="m7 22 .51-.407A6.999 6.999 0 0 0 10 17.5"/>
  <path fill="#1C274C" d="m11.158 13.418.747.074-.747-.074Zm.813 2.841.594-.458-.594.458Zm3.836 6.2a.75.75 0 1 0 1.187-.917l-1.187.916ZM10.97 10.015l-.04-.749.04.75Zm2.117.116-.107.742.107-.742Zm4.11 3.168-.123-.74.123.74Zm1.926.44a.75.75 0 1 0-.246-1.48l.246 1.48Zm-3.507-1.391.712-.237-.712.237ZM6.25 14.5a.75.75 0 0 0 1.5 0h-1.5Zm4.504-4.575-.342 3.418 1.492.15.342-3.418-1.492-.15Zm.623 6.792 4.43 5.741 1.187-.916-4.429-5.741-1.188.916ZM11.5 9.25c-.178 0-.371.006-.57.017l.08 1.498a9.01 9.01 0 0 1 .49-.015v-1.5Zm0 1.5c.454 0 .976.051 1.48.124l.214-1.485c-.54-.077-1.14-.139-1.694-.139v1.5Zm5.82 3.29 1.803-.3-.246-1.48-1.803.3.246 1.48Zm-4.34-3.166c.882.127 1.617.79 1.925 1.712l1.423-.474c-.46-1.382-1.613-2.504-3.134-2.723l-.214 1.485Zm-2.05-1.607c-2.766.15-4.68 2.592-4.68 5.233h1.5c0-1.976 1.416-3.635 3.26-3.735l-.08-1.498Zm3.975 3.319a2.17 2.17 0 0 0 2.415 1.454l-.246-1.48a.67.67 0 0 1-.746-.448l-1.423.474Zm-4.493.757c-.072.723-.14 1.283.013 1.822l1.442-.413c-.056-.198-.047-.42.037-1.26l-1.492-.149Zm2.153 2.458c-.515-.668-.64-.851-.698-1.05l-1.442.414c.154.538.508.977.952 1.552l1.188-.916Z"/>
</svg>
