<svg xmlns="http://www.w3.org/2000/svg" width="24" height="24" fill="none">
  <circle cx="11.5" cy="4.5" r="2.5" stroke="#1C274C" stroke-width="1.5" opacity=".5"/>
  <path fill="#1C274C" d="m10.341 11.587.747.075-.747-.075Zm1.485 6.317-.635.4.634-.4Zm1.94 4.495a.75.75 0 0 0 1.27-.798l-1.27.798Zm-7.462-9.267.732.163-.732-.163Zm-1.036 1.205a.75.75 0 1 0 1.464.326l-1.464-.326Zm12.002-1.094-.237-.711.237.711Zm.967.468a.75.75 0 0 0-.474-1.422l.474 1.422Zm-5.655-3.706-.054.748.053-.748Zm1.838 1.673-.728.182.728-.181Zm-.08-.3-.714.233.713-.234Zm-6.987-.938.47.585-.47-.585Zm7.174 1.635.709-.246-.71.246Zm2.35 1.29-.172-.73.173.73Zm-7.123-3.44-.159 1.587 1.493.15.158-1.587-1.492-.15Zm1.437 8.378 2.574 4.096 1.27-.798-2.575-4.096-1.27.798ZM10.5 9.25h-.291v1.5h.291v-1.5Zm-4.928 3.72-.304 1.367 1.464.326.304-1.368-1.464-.325Zm4.928-2.22h1.77v-1.5H10.5v1.5Zm7.007 3.205.73-.244-.474-1.422-.73.243.474 1.423ZM12.27 10.75c.172 0 .22 0 .258.003l.107-1.496c-.105-.007-.217-.007-.365-.007v1.5Zm2.877.747c-.036-.144-.063-.253-.095-.353l-1.426.467c.012.036.024.082.066.25l1.455-.364Zm-2.62-.744c.507.037.941.375 1.1.858l1.425-.467a2.75 2.75 0 0 0-2.417-1.887l-.107 1.496ZM10.21 9.25c-.75 0-1.381-.001-1.89.06-.529.065-1.012.205-1.435.545l.938 1.17c.125-.1.3-.18.678-.226.397-.048.921-.049 1.709-.049v-1.5Zm-3.173 4.045c.171-.769.286-1.28.42-1.657.126-.359.242-.513.366-.613l-.938-1.17c-.424.34-.666.78-.843 1.283-.17.483-.306 1.099-.47 1.832l1.465.325Zm6.656-1.435c.048.193.083.337.126.461l1.418-.492a4.916 4.916 0 0 1-.089-.332l-1.455.363Zm3.341.672c-.22.073-.282.093-.328.104l.346 1.46c.127-.03.268-.079.456-.141l-.474-1.423Zm-3.215-.211a2.75 2.75 0 0 0 3.233 1.774l-.346-1.46a1.25 1.25 0 0 1-1.47-.806l-1.417.492Zm-4.223-.809c-.164 1.641-.273 2.633-.047 3.594l1.46-.343c-.155-.662-.094-1.361.08-3.101l-1.493-.15Zm2.865 5.993c-.93-1.481-1.296-2.08-1.452-2.742l-1.46.343c.226.962.765 1.8 1.643 3.197l1.27-.798Z"/>
  <path stroke="#1C274C" stroke-linecap="round" stroke-width="1.5" d="M9 17.5 6 22" opacity=".5"/>
</svg>
