<svg xmlns="http://www.w3.org/2000/svg" xmlns:xlink="http://www.w3.org/1999/xlink" width="24" height="24" fill="none">
  <defs>
    <path id="wallet_money_outline_svg__a" d="M19 14a1 1 0 1 1-2 0 1 1 0 0 1 2 0Z"/>
  </defs>
  <g fill="#1C274C">
    <path fill-rule="evenodd" d="M20.924 11.75H18.23c-1.424 0-2.481 1.059-2.481 2.25s1.057 2.25 2.48 2.25h2.718c.206-.013.295-.152.302-.236v-4.028c-.007-.084-.096-.223-.302-.235h-.024Zm-.074-1.5c.066 0 .13 0 .19.004.87.053 1.641.71 1.706 1.628.004.06.004.125.004.185v3.866c0 .06 0 .125-.004.185-.065.918-.836 1.575-1.707 1.629-.059.003-.123.003-.19.003h-2.618c-2.145 0-3.981-1.628-3.981-3.75s1.836-3.75 3.98-3.75h2.62Z" clip-rule="evenodd"/>
    <use xlink:href="#wallet_money_outline_svg__a"/>
    <path fill-rule="evenodd" d="M20.85 10.25a1.888 1.888 0 0 1 .835.16c-.107-1.606-.402-2.844-1.326-3.769-.749-.748-1.698-1.08-2.87-1.238l-.042-.005a.778.778 0 0 0-.032-.023l-3.736-2.477a3.987 3.987 0 0 0-4.358 0L5.586 5.375a.773.773 0 0 0-.033.023l-.042.005c-1.172.158-2.121.49-2.87 1.238-.748.749-1.08 1.698-1.238 2.87-.153 1.14-.153 2.595-.153 4.433v.112c0 1.838 0 3.294.153 4.433.158 1.172.49 2.121 1.238 2.87.749.748 1.698 1.08 2.87 1.238 1.14.153 2.595.153 4.433.153h3.112c1.838 0 3.294 0 4.433-.153 1.172-.158 2.121-.49 2.87-1.238.924-.925 1.219-2.163 1.326-3.77-.202.09-.42.144-.646.158-.059.003-.123.003-.19.003h-.681c-.114 1.341-.371 2.05-.87 2.548-.423.423-1.003.677-2.009.812-1.027.138-2.382.14-4.289.14h-3c-1.907 0-3.261-.002-4.29-.14-1.005-.135-1.585-.389-2.008-.812-.423-.423-.677-1.003-.812-2.009-.138-1.027-.14-2.382-.14-4.289 0-1.907.002-3.261.14-4.29.135-1.005.389-1.585.812-2.008.423-.423 1.003-.677 2.009-.812 1.028-.138 2.382-.14 4.289-.14h3c1.907 0 3.262.002 4.29.14 1.005.135 1.585.389 2.008.812.499.498.756 1.207.87 2.548h.682Zm-10.906-5h3.112c.517 0 1.003 0 1.46.003L12.85 4.148c-.8-.53-1.9-.53-2.7 0L8.483 5.253c.458-.003.944-.003 1.46-.003Z" clip-rule="evenodd"/>
    <path d="M6 9.25a.75.75 0 0 0 0 1.5h4a.75.75 0 0 0 0-1.5H6Z"/>
    <use xlink:href="#wallet_money_outline_svg__a" fill-rule="evenodd" clip-rule="evenodd"/>
  </g>
</svg>
