<svg xmlns="http://www.w3.org/2000/svg" width="24" height="24" fill="none">
  <g fill="#1C274C">
    <path d="M4.892 9.614c0-.402.323-.728.722-.728H9.47c.4 0 .723.326.723.728a.726.726 0 0 1-.723.729H5.614a.726.726 0 0 1-.722-.729Z"/>
    <path fill-rule="evenodd" d="M21.188 10.004c-.062-.004-.13-.004-.2-.004h-2.773C15.944 10 14 11.736 14 14c0 2.264 1.944 4 4.215 4h2.773c.07 0 .138 0 .2-.004.923-.056 1.739-.757 1.808-1.737.004-.064.004-.133.004-.197v-4.124c0-.064 0-.133-.004-.197-.069-.98-.885-1.68-1.808-1.737Zm-3.217 5.063c.584 0 1.058-.478 1.058-1.067 0-.59-.474-1.067-1.058-1.067-.585 0-1.06.478-1.06 1.067 0 .59.475 1.067 1.06 1.067Z" clip-rule="evenodd"/>
    <path d="M21.14 10.002c0-1.181-.044-2.448-.798-3.355a3.773 3.773 0 0 0-.233-.256c-.749-.748-1.698-1.08-2.87-1.238C16.099 5 14.644 5 12.806 5h-2.112C8.856 5 7.4 5 6.26 5.153c-1.172.158-2.121.49-2.87 1.238-.748.749-1.08 1.698-1.238 2.87C2 10.401 2 11.856 2 13.694v.112c0 1.838 0 3.294.153 4.433.158 1.172.49 2.121 1.238 2.87.749.748 1.698 1.08 2.87 1.238 1.14.153 2.595.153 4.433.153h2.112c1.838 0 3.294 0 4.433-.153 1.172-.158 2.121-.49 2.87-1.238a3.81 3.81 0 0 0 .526-.66c.45-.72.504-1.602.504-2.45l-.15.001h-2.774C15.944 18 14 16.264 14 14c0-2.264 1.944-4 4.215-4h2.773c.052 0 .103 0 .151.002Z" opacity=".5"/>
    <path d="M10.101 2.572 8 3.992l-1.733 1.16C7.405 5 8.859 5 10.693 5h2.113c1.838 0 3.294 0 4.433.153.23.03.45.068.662.114L16 4l-2.113-1.428a3.418 3.418 0 0 0-3.786 0Z"/>
  </g>
</svg>
