<svg xmlns="http://www.w3.org/2000/svg" width="24" height="24" fill="none">
  <path fill="#1C274C" fill-rule="evenodd" d="M10.944 1.25h2.112c1.838 0 3.294 0 4.433.153 1.172.158 2.121.49 2.87 1.238.748.749 1.08 1.698 1.238 2.87.153 1.14.153 2.595.153 4.433v4.112c0 1.838 0 3.294-.153 4.433-.158 1.172-.49 2.121-1.238 2.87-.749.748-1.698 1.08-2.87 1.238-1.14.153-2.595.153-4.433.153h-2.112c-1.838 0-3.294 0-4.433-.153-1.172-.158-2.121-.49-2.87-1.238-.748-.749-1.08-1.698-1.238-2.87-.153-1.14-.153-2.595-.153-4.433V9.944c0-1.838 0-3.294.153-4.433.158-1.172.49-2.121 1.238-2.87.749-.748 1.698-1.08 2.87-1.238 1.14-.153 2.595-.153 4.433-.153ZM6.71 2.89c-1.006.135-1.586.389-2.01.812-.422.423-.676 1.003-.811 2.009-.138 1.028-.14 2.382-.14 4.289v4c0 1.907.002 3.262.14 4.29.135 1.005.389 1.585.812 2.008.423.423 1.003.677 2.009.812 1.028.138 2.382.14 4.289.14h2c1.907 0 3.262-.002 4.29-.14 1.005-.135 1.585-.389 2.008-.812.423-.423.677-1.003.812-2.009.138-1.027.14-2.382.14-4.289v-4c0-1.907-.002-3.261-.14-4.29-.135-1.005-.389-1.585-.812-2.008-.423-.423-1.003-.677-2.009-.812-1.027-.138-2.382-.14-4.289-.14h-2c-1.907 0-3.261.002-4.29.14ZM7.25 6A.75.75 0 0 1 8 5.25h8a.75.75 0 0 1 0 1.5H8A.75.75 0 0 1 7.25 6Zm.505 7.787c.168.089.333.18.499.274.713.399 1.453.813 2.603 1.02.48.087.77.038.973-.037.223-.082.403-.215.678-.429l.024-.018c.254-.197.598-.464 1.055-.633.491-.181 1.057-.232 1.758-.106.338.06.638.14.904.235L16.25 14a4.25 4.25 0 0 0-8.495-.213Zm8.19 1.797a3.893 3.893 0 0 0-.866-.25c-.48-.086-.77-.037-.973.037-.223.082-.403.216-.678.43l-.024.018c-.254.197-.598.464-1.055.633-.491.181-1.057.232-1.758.106a8.717 8.717 0 0 1-2.493-.87 4.251 4.251 0 0 0 7.847-.104ZM6.25 14a5.75 5.75 0 1 1 11.5 0 5.75 5.75 0 0 1-11.5 0Z" clip-rule="evenodd"/>
</svg>
