<svg xmlns="http://www.w3.org/2000/svg" width="24" height="24" fill="none">
  <path fill="#1C274C" fill-rule="evenodd" d="M6.25 2A.75.75 0 0 1 7 1.25h10a.75.75 0 0 1 0 1.5H7A.75.75 0 0 1 6.25 2Zm5.708 2.25h.084c1.369 0 2.454 0 3.32.088.888.09 1.629.28 2.277.713.519.346.964.791 1.31 1.31.434.648.623 1.39.713 2.277.088.866.088 1.951.088 3.32v.084c0 1.369 0 2.454-.088 3.32-.09.888-.28 1.629-.712 2.277a4.753 4.753 0 0 1-1.311 1.31c-.648.434-1.39.623-2.277.713-.866.088-1.951.088-3.32.088h-.084c-1.369 0-2.454 0-3.32-.088-.888-.09-1.629-.28-2.277-.712a4.751 4.751 0 0 1-1.31-1.311c-.434-.648-.623-1.39-.713-2.277-.088-.866-.088-1.951-.088-3.32v-.084c0-1.369 0-2.454.088-3.32.09-.888.28-1.629.713-2.277a4.75 4.75 0 0 1 1.31-1.31c.648-.434 1.39-.623 2.277-.713.866-.088 1.951-.088 3.32-.088ZM8.79 5.83c-.77.079-1.235.227-1.596.468a3.25 3.25 0 0 0-.896.896c-.241.361-.39.827-.468 1.596-.08.781-.08 1.79-.08 3.21s0 2.429.08 3.21c.079.77.227 1.235.468 1.596.237.354.542.66.896.896.361.241.827.39 1.596.468.781.08 1.79.08 3.21.08s2.429 0 3.21-.08c.77-.079 1.235-.227 1.596-.468.354-.237.66-.542.896-.896.241-.361.39-.827.468-1.596.08-.781.08-1.79.08-3.21s0-2.429-.08-3.21c-.079-.77-.227-1.235-.468-1.596a3.25 3.25 0 0 0-.896-.896c-.361-.241-.827-.39-1.596-.468-.781-.08-1.79-.08-3.21-.08s-2.429 0-3.21.08Zm4.584 2.627c.3.286.312.76.026 1.06l-1.65 1.733H14a.75.75 0 0 1 .543 1.267l-2.857 3a.75.75 0 1 1-1.086-1.034l1.65-1.733H10a.75.75 0 0 1-.543-1.267l2.857-3a.75.75 0 0 1 1.06-.026ZM6.25 22a.75.75 0 0 1 .75-.75h10a.75.75 0 0 1 0 1.5H7a.75.75 0 0 1-.75-.75Z" clip-rule="evenodd"/>
</svg>
