<svg xmlns="http://www.w3.org/2000/svg" width="24" height="24" fill="none">
  <path fill="#1C274C" fill-rule="evenodd" d="M12.717 3.75a.974.974 0 0 0-1.434 0c-.572.604-1.224 1.358-1.728 2.121-.522.792-.805 1.475-.805 1.962 0 1.916 1.484 3.417 3.25 3.417s3.25-1.5 3.25-3.417c0-.487-.283-1.17-.805-1.962-.504-.763-1.156-1.517-1.728-2.12Zm-2.523-1.03a2.474 2.474 0 0 1 3.612 0c.6.634 1.318 1.46 1.89 2.326.554.838 1.054 1.836 1.054 2.788 0 2.686-2.098 4.917-4.75 4.917s-4.75-2.23-4.75-4.917c0-.952.5-1.95 1.054-2.788.572-.867 1.29-1.692 1.89-2.326ZM6.717 13.75a.974.974 0 0 0-1.434 0c-.572.603-1.224 1.357-1.728 2.12-.522.792-.805 1.475-.805 1.962 0 1.916 1.484 3.417 3.25 3.417s3.25-1.5 3.25-3.417c0-.487-.283-1.17-.805-1.962-.504-.763-1.156-1.517-1.728-2.12Zm-2.523-1.032a2.474 2.474 0 0 1 3.612 0c.6.634 1.318 1.46 1.89 2.326.554.838 1.054 1.836 1.054 2.788 0 2.686-2.098 4.917-4.75 4.917s-4.75-2.23-4.75-4.917c0-.952.5-1.95 1.054-2.788.572-.867 1.29-1.692 1.89-2.326Zm14.523 1.032a.974.974 0 0 0-1.434 0c-.572.603-1.224 1.357-1.728 2.12-.522.792-.805 1.475-.805 1.962 0 1.916 1.484 3.417 3.25 3.417s3.25-1.5 3.25-3.417c0-.487-.283-1.17-.805-1.962-.504-.763-1.156-1.517-1.728-2.12Zm-2.523-1.032a2.474 2.474 0 0 1 3.612 0c.6.634 1.318 1.46 1.89 2.326.554.838 1.054 1.836 1.054 2.788 0 2.686-2.098 4.917-4.75 4.917s-4.75-2.23-4.75-4.917c0-.952.5-1.95 1.054-2.788.572-.867 1.29-1.692 1.89-2.326Z" clip-rule="evenodd"/>
</svg>
