<svg xmlns="http://www.w3.org/2000/svg" width="24" height="24" fill="none">
  <path fill="#1C274C" fill-rule="evenodd" d="M11.233 3.654C13.992.896 18.478.32 21.08 2.92c2.6 2.6 2.026 7.087-.733 9.845-1.848 1.848-4.835 3.113-7.384 3.022a6.644 6.644 0 0 1-.667-.057L6.86 21.166a2.847 2.847 0 0 1-4.026-4.026l5.435-5.435a6.655 6.655 0 0 1-.057-.665c-.091-2.55 1.173-5.538 3.021-7.386Zm1.061 1.06c1.64-1.64 3.846-2.246 5.658-1.84a9.551 9.551 0 0 0-.796.426c-1.308.776-2.665 1.928-3.58 2.842-.912.913-2.257 2.463-3.228 3.956-.228.351-.443.71-.628 1.063a5.519 5.519 0 0 1-.009-.175c-.075-2.098 1.003-4.691 2.583-6.272Zm7.138-.783c.409-.084.54.006.586.05.046.046.135.179.051.587-.082.404-.31.922-.659 1.51-.693 1.17-1.756 2.429-2.612 3.285-.858.857-2.327 2.13-3.713 3.032-.699.454-1.332.784-1.83.936-.248.076-.423.095-.533.087a.31.31 0 0 1-.094-.019.047.047 0 0 1-.017-.01.048.048 0 0 1-.01-.018.31.31 0 0 1-.019-.093c-.008-.11.01-.285.086-.533.153-.498.483-1.131.938-1.83.901-1.385 2.174-2.855 3.031-3.712.857-.856 2.116-1.92 3.285-2.613.589-.35 1.107-.576 1.51-.659Zm-5.53 9.721c-.35.228-.709.443-1.062.628.058.003.116.007.175.009 2.098.075 4.69-1.003 6.27-2.583 1.641-1.641 2.248-3.846 1.841-5.658a9.593 9.593 0 0 1-.426.796c-.776 1.308-1.927 2.665-2.842 3.58-.913.913-2.463 2.257-3.956 3.228Z" clip-rule="evenodd"/>
</svg>
