<svg xmlns="http://www.w3.org/2000/svg" width="24" height="24" fill="none">
  <path fill="#1C274C" d="M7 15a1 1 0 1 1-2 0 1 1 0 0 1 2 0Zm3 0a1 1 0 1 1-2 0 1 1 0 0 1 2 0Z" opacity=".5"/>
  <path stroke="#1C274C" stroke-width="1.5" d="M2 15c0-1.886 0-2.828.586-3.414C3.172 11 4.114 11 6 11h12c1.886 0 2.828 0 3.414.586C22 12.172 22 13.114 22 15c0 1.886 0 2.828-.586 3.414C20.828 19 19.886 19 18 19H6c-1.886 0-2.828 0-3.414-.586C2 17.828 2 16.886 2 15Z"/>
  <path stroke="#1C274C" stroke-linecap="round" stroke-width="1.5" d="M7 11 3 4m14 7 4-7"/>
  <path stroke="#1C274C" stroke-linecap="round" stroke-width="1.5" d="M14 15h4" opacity=".5"/>
  <path stroke="#1C274C" stroke-linecap="round" stroke-width="1.5" d="M17.167 5.397A5.502 5.502 0 0 0 7 5.397" opacity=".4"/>
  <path stroke="#1C274C" stroke-linecap="round" stroke-width="1.5" d="M14.965 6.658a3.001 3.001 0 0 0-5.76 0" opacity=".7"/>
  <path fill="#1C274C" d="M13.084 7a1 1 0 1 1-2 0 1 1 0 0 1 2 0Z"/>
</svg>
