<svg xmlns="http://www.w3.org/2000/svg" width="24" height="24" fill="none">
  <g fill="#1C274C">
    <path d="M16.5 4.75a4.752 4.752 0 0 0-4.391 2.934.75.75 0 1 1-1.386-.574 6.252 6.252 0 0 1 11.553 0 .75.75 0 0 1-1.386.574A4.752 4.752 0 0 0 16.5 4.75Z"/>
    <path d="M16.5 7.25a2.251 2.251 0 0 0-2.16 1.618.75.75 0 1 1-1.44-.42 3.751 3.751 0 0 1 7.2 0 .75.75 0 1 1-1.44.42A2.251 2.251 0 0 0 16.5 7.25ZM6 17a1 1 0 1 0 0-2 1 1 0 0 0 0 2Zm3 0a1 1 0 1 0 0-2 1 1 0 0 0 0 2Z"/>
    <path fill-rule="evenodd" d="M5.948 11.25h9.802V9a.75.75 0 0 1 1.5 0v2.25h.802c.899 0 1.648 0 2.242.08.628.084 1.195.27 1.65.726.456.455.642 1.022.726 1.65.08.594.08 1.344.08 2.242v.104c0 .899 0 1.648-.08 2.242-.084.628-.27 1.195-.726 1.65-.455.456-1.022.642-1.65.726-.594.08-1.343.08-2.242.08H5.948c-.898 0-1.648 0-2.242-.08-.628-.084-1.195-.27-1.65-.726-.456-.455-.642-1.022-.726-1.65-.08-.594-.08-1.343-.08-2.242v-.104c0-.899 0-1.648.08-2.242.084-.628.27-1.195.725-1.65.456-.456 1.023-.642 1.65-.726.595-.08 1.345-.08 2.243-.08ZM18 12.75c.964 0 1.612.002 2.095.066.461.063.659.17.789.3.13.13.237.328.3.79.064.482.066 1.13.066 2.094s-.002 1.612-.067 2.095c-.062.461-.169.659-.3.789-.13.13-.327.237-.788.3-.483.064-1.131.066-2.095.066H6c-.964 0-1.612-.002-2.095-.067-.461-.062-.659-.169-.789-.3-.13-.13-.237-.327-.3-.788-.064-.483-.066-1.131-.066-2.095 0-.964.002-1.612.067-2.095.062-.461.169-.659.3-.789.13-.13.327-.237.788-.3.483-.064 1.131-.066 2.095-.066h12Z" clip-rule="evenodd"/>
  </g>
</svg>
