<svg xmlns="http://www.w3.org/2000/svg" width="24" height="24" fill="none">
  <g fill="#1C274C">
    <path d="M7 6a1 1 0 1 1-2 0 1 1 0 0 1 2 0Zm3 0a1 1 0 1 1-2 0 1 1 0 0 1 2 0Zm2 1a1 1 0 1 0 0-2 1 1 0 0 0 0 2Z"/>
    <path fill-rule="evenodd" d="M11.943 1.25c-2.309 0-4.118 0-5.53.19-1.444.194-2.584.6-3.479 1.494-.895.895-1.3 2.035-1.494 3.48-.113.836-.158 1.811-.177 2.947a.754.754 0 0 0-.004.256c-.009.713-.009 1.486-.009 2.326v.114c0 2.309 0 4.118.19 5.53.194 1.444.6 2.584 1.494 3.479.895.895 2.035 1.3 3.48 1.494 1.411.19 3.22.19 5.529.19h.114c2.309 0 4.118 0 5.53-.19 1.444-.194 2.584-.6 3.479-1.494.895-.895 1.3-2.035 1.494-3.48.19-1.411.19-3.22.19-5.529v-.114c0-.84 0-1.613-.01-2.326a.756.756 0 0 0-.003-.256c-.018-1.136-.064-2.111-.177-2.947-.194-1.445-.6-2.585-1.494-3.48-.895-.895-2.035-1.3-3.48-1.494-1.411-.19-3.22-.19-5.529-.19h-.114ZM2.75 12c0-.629 0-1.21.003-1.75H8.25V21c0 .072.01.141.029.207a18.288 18.288 0 0 1-1.665-.133c-1.279-.172-2.05-.5-2.62-1.069-.569-.57-.896-1.34-1.068-2.619-.174-1.3-.176-3.008-.176-5.386Zm6.96 9.242c.687.008 1.446.008 2.29.008 2.378 0 4.086-.002 5.386-.176 1.279-.172 2.05-.5 2.62-1.069.569-.57.896-1.34 1.068-2.619.174-1.3.176-3.008.176-5.386 0-.629 0-1.21-.003-1.75H9.75V21a.749.749 0 0 1-.04.242ZM2.926 6.614a20.748 20.748 0 0 0-.15 2.136h18.447a20.727 20.727 0 0 0-.15-2.136c-.171-1.279-.498-2.05-1.068-2.62-.57-.569-1.34-.896-2.619-1.068-1.3-.174-3.008-.176-5.386-.176s-4.086.002-5.386.176c-1.279.172-2.05.5-2.62 1.069-.569.57-.896 1.34-1.068 2.619Z" clip-rule="evenodd"/>
  </g>
</svg>
