<svg xmlns="http://www.w3.org/2000/svg" width="24" height="24" fill="none">
  <path fill="#1C274C" fill-rule="evenodd" d="M4.25 4.895A2.645 2.645 0 0 1 6.895 2.25h10.21a2.645 2.645 0 0 1 2.645 2.645V8a7.751 7.751 0 0 1-7 7.714v4.536h3a.75.75 0 0 1 0 1.5h-7.5a.75.75 0 0 1 0-1.5h3v-4.536A7.751 7.751 0 0 1 4.25 8V4.895ZM6.895 3.75c-.632 0-1.145.513-1.145 1.145v3.193c.203-.078.45-.17.725-.265.708-.243 1.663-.521 2.479-.572 1.469-.09 2.528.555 3.389 1.08l.047.028c.898.547 1.594.952 2.564.892.603-.037 1.398-.258 2.085-.493a17.933 17.933 0 0 0 1.14-.437l.016-.006.003-.002a.802.802 0 0 1 .045-.018A6.29 6.29 0 0 0 18.25 8V4.895c0-.632-.512-1.145-1.145-1.145H6.895Zm11.014 6.29a6.253 6.253 0 0 1-11.947-.42l.164-.068c.208-.083.5-.195.835-.31.687-.235 1.482-.456 2.085-.493.97-.06 1.666.345 2.564.892l.047.028c.86.524 1.92 1.17 3.389 1.08.816-.05 1.77-.33 2.48-.572.134-.047.263-.092.383-.137Z" clip-rule="evenodd"/>
</svg>
