<svg xmlns="http://www.w3.org/2000/svg" width="24" height="24" fill="none">
  <g fill="#1C274C">
    <path d="M4.666 9c-.932 0-1.398 0-1.765-.152a2 2 0 0 1-1.083-1.083c-.152-.367-.152-.833-.152-1.765 0-.932 0-1.398.152-1.765a2 2 0 0 1 1.083-1.083C3.268 3 3.734 3 4.666 3h7.268a1.972 1.972 0 0 0-.116.235c-.152.367-.152.833-.152 1.765v4h-7Zm17-3c0 .932 0 1.398-.152 1.765a2 2 0 0 1-1.083 1.083C20.064 9 19.598 9 18.666 9h-1V5c0-.932 0-1.398-.152-1.765A2.003 2.003 0 0 0 17.398 3h1.268c.932 0 1.398 0 1.765.152a2 2 0 0 1 1.083 1.083c.152.367.152.833.152 1.765Z" opacity=".3"/>
    <path d="M17.514 20.765c.152-.367.152-.833.152-1.765v-4h1c.932 0 1.398 0 1.765.152a2 2 0 0 1 1.083 1.083c.152.367.152.833.152 1.765 0 .932 0 1.398-.152 1.765a2 2 0 0 1-1.083 1.083c-.367.152-.833.152-1.765.152h-1.268c.044-.075.082-.154.116-.235Zm-5.58.235H4.666c-.932 0-1.398 0-1.765-.152a2 2 0 0 1-1.083-1.083c-.152-.367-.152-.833-.152-1.765 0-.932 0-1.398.152-1.765a2 2 0 0 1 1.083-1.083C3.268 15 3.734 15 4.666 15h7v4c0 .932 0 1.398.152 1.765.034.081.072.16.116.235Z" opacity=".7"/>
    <path d="M17.666 9h1c.932 0 1.398 0 1.765.152a2 2 0 0 1 1.083 1.083c.152.367.152.833.152 1.765 0 .932 0 1.398-.152 1.765a2 2 0 0 1-1.083 1.083c-.367.152-.833.152-1.765.152h-1V9Zm-6 0v6h-7c-.932 0-1.398 0-1.765-.152a2 2 0 0 1-1.083-1.083c-.152-.367-.152-.833-.152-1.765 0-.932 0-1.398.152-1.765a2 2 0 0 1 1.083-1.083C3.268 9 3.734 9 4.666 9h7Z" opacity=".5"/>
    <path fill-rule="evenodd" d="M17.514 3.235c.152.367.152.833.152 1.765v14c0 .932 0 1.398-.152 1.765a2.003 2.003 0 0 1-1.083 1.083c-.367.152-.833.152-1.765.152-.932 0-1.398 0-1.765-.152a2 2 0 0 1-1.083-1.083c-.152-.367-.152-.833-.152-1.765V5c0-.932 0-1.398.152-1.765A2 2 0 0 1 12.9 2.153C13.269 2 13.735 2 14.667 2s1.398 0 1.765.152a2 2 0 0 1 1.083 1.083ZM15.416 11a.75.75 0 0 0-1.5 0v2a.75.75 0 0 0 1.5 0v-2Z" clip-rule="evenodd"/>
  </g>
</svg>
