<svg xmlns="http://www.w3.org/2000/svg" width="24" height="24" fill="none">
  <g fill="#1C274C">
    <path d="M15.75 11a.75.75 0 0 0-1.5 0v2a.75.75 0 0 0 1.5 0v-2Z"/>
    <path fill-rule="evenodd" d="M15.025 1.25h-.05c-.445 0-.816 0-1.12.02a2.823 2.823 0 0 0-.907.19 2.75 2.75 0 0 0-1.07.79H4.976c-.445 0-.816 0-1.12.02a2.823 2.823 0 0 0-.907.19A2.75 2.75 0 0 0 1.46 3.948c-.12.29-.167.59-.188.907-.021.304-.021.675-.021 1.12v.05c0 .445 0 .816.02 1.12.022.317.07.617.19.907.15.362.373.684.653.948a2.75 2.75 0 0 0-.654.948c-.12.29-.167.59-.188.907-.021.304-.021.675-.021 1.12v.05c0 .445 0 .816.02 1.12.022.318.07.617.19.907.15.362.373.684.653.948a2.75 2.75 0 0 0-.654.948c-.12.29-.167.59-.188.907-.021.304-.021.675-.021 1.12v.05c0 .445 0 .816.02 1.12.022.317.07.617.19.907a2.75 2.75 0 0 0 1.488 1.489c.29.12.59.167.907.188.304.021.675.021 1.12.021h6.904c.283.344.65.617 1.069.79.29.121.59.168.907.19.304.02.675.02 1.12.02h.05c.445 0 .816 0 1.12-.02.317-.022.617-.069.907-.19a2.75 2.75 0 0 0 1.07-.79h.903c.445 0 .816 0 1.12-.02.317-.022.617-.069.907-.19a2.75 2.75 0 0 0 1.489-1.488c.12-.29.167-.59.188-.907.021-.304.021-.675.021-1.12v-.05c0-.445 0-.816-.02-1.12a2.822 2.822 0 0 0-.19-.907 2.75 2.75 0 0 0-.652-.948 2.75 2.75 0 0 0 .653-.948c.12-.29.167-.59.188-.907.021-.304.021-.675.021-1.12v-.05c0-.445 0-.816-.02-1.12a2.821 2.821 0 0 0-.19-.907A2.75 2.75 0 0 0 21.889 9a2.75 2.75 0 0 0 .653-.948c.12-.29.167-.59.188-.907.021-.304.021-.675.021-1.12v-.05c0-.445 0-.816-.02-1.12a2.822 2.822 0 0 0-.19-.907 2.75 2.75 0 0 0-1.488-1.489c-.29-.12-.59-.167-.907-.188-.304-.021-.675-.021-1.12-.021h-.904a2.75 2.75 0 0 0-1.069-.79 2.84 2.84 0 0 0-.907-.19c-.304-.02-.675-.02-1.12-.02ZM5 3.75h6.279l-.008.105c-.021.304-.021.675-.021 1.12V8.25H5c-.476 0-.796 0-1.043-.017-.241-.017-.358-.046-.435-.078a1.25 1.25 0 0 1-.677-.677c-.032-.077-.061-.194-.078-.435A17.089 17.089 0 0 1 2.75 6c0-.476 0-.796.017-1.043.017-.241.046-.358.078-.435.127-.307.37-.55.677-.677.077-.032.194-.061.435-.078A17.09 17.09 0 0 1 5 3.75Zm0 6h6.25v4.5H5c-.476 0-.796 0-1.043-.017-.241-.017-.358-.046-.435-.078a1.25 1.25 0 0 1-.677-.677c-.032-.077-.061-.194-.078-.435A17.091 17.091 0 0 1 2.75 12c0-.476 0-.796.017-1.043.017-.241.046-.358.078-.435.127-.307.37-.55.677-.677.077-.032.194-.061.435-.078A17.09 17.09 0 0 1 5 9.75Zm0 6h6.25v3.275c0 .445 0 .816.02 1.12l.009.105H5c-.476 0-.796 0-1.043-.017-.241-.017-.358-.046-.435-.078a1.25 1.25 0 0 1-.677-.677c-.032-.077-.061-.194-.078-.435A17.091 17.091 0 0 1 2.75 18c0-.476 0-.796.017-1.043.017-.241.046-.358.078-.435.127-.307.37-.55.677-.677.077-.032.194-.061.435-.078A17.07 17.07 0 0 1 5 15.75Zm14 4.5h-.279l.008-.105c.021-.304.021-.675.021-1.12V15.75H19c.476 0 .796 0 1.043.017.241.017.358.046.435.078.307.127.55.37.677.677.032.077.061.194.078.435.017.247.017.567.017 1.043s0 .796-.017 1.043c-.017.241-.046.358-.078.435a1.25 1.25 0 0 1-.677.677c-.077.032-.194.061-.435.078-.247.017-.567.017-1.043.017Zm0-6h-.25v-4.5H19c.476 0 .796 0 1.043.017.241.017.358.046.435.078.307.127.55.37.677.677.032.077.061.194.078.435.017.247.017.567.017 1.043s0 .796-.017 1.043c-.017.241-.046.358-.078.435a1.25 1.25 0 0 1-.677.677c-.077.032-.194.061-.435.078-.247.017-.567.017-1.043.017Zm0-6h-.25V4.975c0-.445 0-.816-.02-1.12a5.822 5.822 0 0 0-.009-.105H19c.476 0 .796 0 1.043.017.241.017.358.046.435.078.307.127.55.37.677.677.032.077.061.194.078.435.017.247.017.567.017 1.043s0 .796-.017 1.043c-.017.241-.046.358-.078.435a1.25 1.25 0 0 1-.677.677c-.077.032-.194.061-.435.078-.247.017-.567.017-1.043.017Zm-2.522 12.905a1.25 1.25 0 0 0 .677-.677c.032-.077.061-.194.078-.435.017-.247.017-.567.017-1.043V5c0-.476 0-.796-.017-1.043-.017-.241-.046-.358-.078-.435a1.251 1.251 0 0 0-.677-.677c-.077-.032-.194-.061-.435-.078A17.091 17.091 0 0 0 15 2.75c-.476 0-.796 0-1.043.017-.241.017-.358.046-.435.078a1.25 1.25 0 0 0-.677.677c-.032.077-.061.194-.078.435A17.07 17.07 0 0 0 12.75 5v14c0 .476 0 .796.017 1.043.017.241.046.358.078.435a1.25 1.25 0 0 0 .676.677c.078.032.195.061.436.078.247.017.567.017 1.043.017s.796 0 1.043-.017c.241-.017.358-.046.435-.078Z" clip-rule="evenodd"/>
  </g>
</svg>
