<svg xmlns="http://www.w3.org/2000/svg" width="24" height="24" fill="none">
  <g fill="#1C274C">
    <path d="M3.464 20.535C4.93 22 7.286 22 12 22c4.714 0 7.071 0 8.535-1.465C22 19.072 22 16.714 22 12s0-7.071-1.465-8.536C19.072 2 16.714 2 12 2S4.929 2 3.464 3.464C2 4.93 2 7.286 2 12c0 4.714 0 7.071 1.464 8.535Z" opacity=".5"/>
    <path fill-rule="evenodd" d="M4.084 8.376a.75.75 0 0 1 1.04.208L6.5 10.648l1.376-2.064a.75.75 0 0 1 1.374.406.75.75 0 0 1 1.374-.406L12 10.648l1.376-2.064a.75.75 0 0 1 1.374.406.749.749 0 0 1 1.374-.406l1.376 2.064 1.376-2.064a.75.75 0 0 1 1.248.832L18.401 12l1.723 2.584a.75.75 0 1 1-1.248.832L17.5 13.352l-1.376 2.064a.75.75 0 0 1-1.374-.406.75.75 0 0 1-1.374.406L12 13.352l-1.376 2.064a.75.75 0 0 1-1.374-.406.75.75 0 0 1-1.374.406L6.5 13.352l-1.376 2.064a.75.75 0 1 1-1.248-.832L5.599 12 3.876 9.416a.75.75 0 0 1 .208-1.04Zm10.54 1.04L12.901 12l1.723 2.584a.746.746 0 0 1 .126.405.746.746 0 0 1 .126-.405L16.599 12l-1.723-2.584a.746.746 0 0 1-.126-.404.746.746 0 0 1-.126.404ZM7.401 12l1.723-2.584a.746.746 0 0 0 .126-.404c.002.139.043.28.126.404L11.099 12l-1.723 2.584a.746.746 0 0 0-.126.405.746.746 0 0 0-.126-.405L7.401 12Z" clip-rule="evenodd"/>
  </g>
</svg>
