<svg width="24" height="24" viewBox="0 0 24 24" fill="none" xmlns="http://www.w3.org/2000/svg">
<g id="Line Duotone / Nature, Travel / Flame">
<path id="Vector" d="M15.3588 21.751C17.3819 21.1215 20 19.2545 20 15C20 10.3781 14.9439 5.41391 11.5727 2.84585C11.0161 2.42181 10.2157 2.72714 9.95605 3.37694C8.31029 7.49484 4 11.8536 4 15C4 18.1069 6.24558 20.3088 8.08142 21.3715" stroke="#1C274C" stroke-width="1.5"/>
<path id="Vector_2" opacity="0.5" d="M15.3588 21.751C14.9274 21.8852 14.6438 21.3823 14.9019 21.0114C15.7823 19.7462 16.8001 17.8163 16.8001 16.0004C16.8001 14.0498 15.156 11.7469 13.8722 10.3265C13.5787 10.0018 13.0667 10.2167 13.0507 10.6541C12.9977 12.1033 12.769 14.0422 11.7829 15.5618C11.6242 15.8064 11.2872 15.8266 11.1064 15.5979C10.7983 15.2083 10.4901 14.7269 10.182 14.3466C10.0161 14.1418 9.71611 14.139 9.52467 14.3202C8.77832 15.0269 7.7334 16.129 7.7334 17.5004C7.7334 18.4897 8.20479 19.7206 8.69077 20.674C8.91147 21.107 8.50204 21.615 8.08142 21.3715" stroke="#1C274C" stroke-width="1.5"/>
</g>
</svg>
