<svg width="24" height="24" viewBox="0 0 24 24" fill="none" xmlns="http://www.w3.org/2000/svg">
<g id="Bold Duotone / Essentional, UI / Forbidden">
<path id="Vector" opacity="0.5" d="M3.75736 17.3937L5.18179 18.8181L6.60647 20.2427C7.47356 21.1098 7.90711 21.5434 8.45842 21.7717C9.00973 22.0001 9.62286 22.0001 10.8491 22.0001H13.1513C14.3775 22.0001 14.9907 22.0001 15.542 21.7717C16.0933 21.5434 16.5268 21.1098 17.3939 20.2427L20.2428 17.3938C21.1099 16.5267 21.5435 16.0932 21.7718 15.5419C22.0002 14.9905 22.0002 14.3774 22.0002 13.1512V10.849C22.0002 9.62275 22.0002 9.00962 21.7718 8.45831C21.5435 7.90699 21.1099 7.47345 20.2428 6.60636L18.8183 5.1819L17.3937 3.75736C16.5266 2.89027 16.0931 2.45672 15.5418 2.22836C14.9905 2 14.3773 2 13.1511 2H10.8489C9.62267 2 9.00954 2 8.45823 2.22836C7.90691 2.45672 7.47337 2.89027 6.60628 3.75736L3.75736 6.60628C2.89027 7.47337 2.45672 7.90691 2.22836 8.45823C2 9.00954 2 9.62267 2 10.8489V13.1511C2 14.3773 2 14.9905 2.22836 15.5418C2.45672 16.0931 2.89027 16.5266 3.75736 17.3937Z" fill="#1C274C"/>
<path id="Vector_2" d="M18.8181 5.18213L5.18164 18.8184" stroke="#1C274C" stroke-width="1.5"/>
</g>
</svg>
