<svg width="24" height="24" viewBox="0 0 24 24" fill="none" xmlns="http://www.w3.org/2000/svg">
<g id="Bold Duotone / Essentional, UI / Pin">
<path id="Vector" fill-rule="evenodd" clip-rule="evenodd" d="M19.1515 7.79024L16.2096 4.84828C14.182 2.82068 13.1682 1.80688 12.061 2.03047C10.9538 2.25406 10.4128 3.58183 9.33093 6.23736L8.31629 8.72784C8.0179 9.46027 7.8687 9.82648 7.61153 10.106C7.52398 10.2012 7.42784 10.2881 7.32435 10.3656C7.02036 10.5933 6.64099 10.7049 5.88225 10.9281C4.08873 11.4556 3.19196 11.7193 2.88485 12.3363C2.7849 12.537 2.72885 12.7568 2.72045 12.981C2.69465 13.6696 3.35561 14.3306 4.67754 15.6525L5.95384 16.9288L7.07066 18.0456L8.34731 19.3223C9.66924 20.6442 10.3302 21.3052 11.0189 21.2794C11.243 21.271 11.4628 21.2149 11.6636 21.115C12.2805 20.8079 12.5443 19.9111 13.0718 18.1176C13.2949 17.3588 13.4065 16.9795 13.6342 16.6755C13.7118 16.572 13.7987 16.4758 13.8938 16.3883C14.1733 16.1311 14.5396 15.9819 15.272 15.6835L17.7625 14.6689C20.418 13.587 21.7458 13.0461 21.9694 11.9389C22.193 10.8316 21.1791 9.81784 19.1515 7.79024Z" fill="#1C274C"/>
<path id="Vector_2" opacity="0.5" d="M3.34811 21.7686L7.07083 18.0455L5.95401 16.9287L2.2313 20.6518C1.9229 20.9602 1.9229 21.4602 2.2313 21.7686C2.5397 22.077 3.03971 22.077 3.34811 21.7686Z" fill="#1C274C"/>
</g>
</svg>
