<svg width="24" height="24" viewBox="0 0 24 24" fill="none" xmlns="http://www.w3.org/2000/svg">
<g id="Bold Duotone / Essentional, UI / Power">
<path id="Vector" opacity="0.5" d="M8.7919 5.14712C9.17345 4.98591 9.35208 4.54591 9.19087 4.16435C9.02966 3.7828 8.58966 3.60417 8.2081 3.76538C4.70832 5.24406 2.25 8.70925 2.25 12.7503C2.25 18.1351 6.61522 22.5003 12 22.5003C17.3848 22.5003 21.75 18.1351 21.75 12.7503C21.75 8.70925 19.2917 5.24406 15.7919 3.76538C15.4103 3.60417 14.9703 3.7828 14.8091 4.16435C14.6479 4.54591 14.8265 4.98591 15.2081 5.14712C18.1722 6.39947 20.25 9.33312 20.25 12.7503C20.25 17.3067 16.5563 21.0003 12 21.0003C7.44365 21.0003 3.75 17.3067 3.75 12.7503C3.75 9.33312 5.82779 6.39947 8.7919 5.14712Z" fill="#1C274C"/>
<path id="Vector_2" d="M12.75 2.75C12.75 2.33579 12.4142 2 12 2C11.5858 2 11.25 2.33579 11.25 2.75V6.75C11.25 7.16421 11.5858 7.5 12 7.5C12.4142 7.5 12.75 7.16421 12.75 6.75V2.75Z" fill="#1C274C"/>
</g>
</svg>
