<svg width="24" height="24" viewBox="0 0 24 24" fill="none" xmlns="http://www.w3.org/2000/svg">
<g id="Outline / Shopping, Ecommerce / Shop Minimalistic">
<g id="Vector">
<path fill-rule="evenodd" clip-rule="evenodd" d="M7.43548 1.25C6.86552 1.24998 6.38157 1.24997 5.98164 1.29132C5.55583 1.33534 5.1623 1.43094 4.79053 1.66071C4.41876 1.89048 4.15726 2.19971 3.92745 2.56088C3.71161 2.90009 3.49521 3.33294 3.24033 3.84274L3.22383 3.87574C3.21411 3.89518 3.20524 3.91504 3.19724 3.93526L1.79362 7.4834C1.62661 7.90559 1.44153 8.43229 1.3874 8.97127C1.33204 9.52257 1.40802 10.1541 1.83998 10.7019C2.34229 11.3389 3.12341 11.75 4.00014 11.75C4.78815 11.75 5.49875 11.4186 6.00014 10.8875C6.50152 11.4186 7.21212 11.75 8.00014 11.75C8.78815 11.75 9.49875 11.4186 10.0001 10.8875C10.5015 11.4186 11.2121 11.75 12.0001 11.75C12.7882 11.75 13.4988 11.4186 14.0001 10.8875C14.5015 11.4186 15.2121 11.75 16.0001 11.75C16.7882 11.75 17.4988 11.4186 18.0001 10.8875C18.5015 11.4186 19.2121 11.75 20.0001 11.75C20.8769 11.75 21.658 11.3389 22.1603 10.7019C22.5923 10.1541 22.6683 9.52258 22.613 8.97128C22.5588 8.4323 22.3737 7.90559 22.2067 7.4834L20.8031 3.93526C20.7951 3.91504 20.7863 3.89518 20.7765 3.87574L20.7601 3.8428C20.5052 3.33297 20.2888 2.9001 20.0729 2.56088C19.8431 2.19971 19.5816 1.89048 19.2098 1.66071C18.8381 1.43094 18.4445 1.33534 18.0187 1.29132C17.6188 1.24997 17.1349 1.24998 16.5649 1.25H7.43548ZM8.00014 10.25C7.30978 10.25 6.75014 9.69036 6.75014 9C6.75014 8.58579 6.41435 8.25 6.00014 8.25C5.58592 8.25 5.25014 8.58579 5.25014 9C5.25014 9.69036 4.69049 10.25 4.00014 10.25C3.60218 10.25 3.24793 10.0649 3.01781 9.77307C2.90389 9.62861 2.84879 9.43095 2.8799 9.12115C2.91224 8.79903 3.03117 8.43275 3.18845 8.03518L4.58006 4.51739C4.84778 3.98204 5.02668 3.62749 5.19299 3.36612C5.35296 3.1147 5.4676 3.00562 5.57913 2.93669C5.69066 2.86776 5.83949 2.81401 6.13591 2.78336C6.44962 2.75093 6.85556 2.75 7.47236 2.75H16.528C17.1448 2.75 17.5507 2.75093 17.8644 2.78336C18.1609 2.81401 18.3097 2.86776 18.4212 2.93669C18.5328 3.00562 18.6474 3.1147 18.8074 3.36612C18.9737 3.62749 19.1526 3.98204 19.4203 4.51739L20.8119 8.03518C20.9692 8.43275 21.0881 8.79903 21.1205 9.12114C21.1516 9.43094 21.0965 9.62859 20.9825 9.77305C20.7524 10.0649 20.3981 10.25 20.0001 10.25C19.3098 10.25 18.7501 9.69036 18.7501 9C18.7501 8.58579 18.4144 8.25 18.0001 8.25C17.5859 8.25 17.2501 8.58579 17.2501 9C17.2501 9.69036 16.6905 10.25 16.0001 10.25C15.3098 10.25 14.7501 9.69036 14.7501 9C14.7501 8.58579 14.4144 8.25 14.0001 8.25C13.5859 8.25 13.2501 8.58579 13.2501 9C13.2501 9.69036 12.6905 10.25 12.0001 10.25C11.3098 10.25 10.7501 9.69036 10.7501 9C10.7501 8.58579 10.4144 8.25 10.0001 8.25C9.58592 8.25 9.25014 8.58579 9.25014 9C9.25014 9.69036 8.69049 10.25 8.00014 10.25Z" fill="#1C274C"/>
<path d="M19.7502 15C19.7502 14.5858 19.4144 14.25 19.0002 14.25C18.586 14.25 18.2502 14.5858 18.2502 15V21.25H5.75022V15C5.75022 14.5858 5.41444 14.25 5.00022 14.25C4.58601 14.25 4.25022 14.5858 4.25022 15V21.25H3.00022C2.58601 21.25 2.25022 21.5858 2.25022 22C2.25022 22.4142 2.58601 22.75 3.00022 22.75H21.0002C21.4144 22.75 21.7502 22.4142 21.7502 22C21.7502 21.5858 21.4144 21.25 21.0002 21.25H19.7502V15Z" fill="#1C274C"/>
</g>
</g>
</svg>
