<svg width="24" height="24" viewBox="0 0 24 24" fill="none" xmlns="http://www.w3.org/2000/svg">
<g id="Bold / Astronomy / Stars Line">
<path id="Vector" d="M12.5497 3.43948C12.118 2.50904 11.9022 2.04382 11.5213 2.00452C11.1405 1.96522 10.8468 2.37786 10.2595 3.20314L10.1075 3.41665C9.9406 3.65117 9.85715 3.76843 9.73698 3.83908C9.61681 3.90973 9.47352 3.92577 9.18695 3.95785L8.92606 3.98706C7.91761 4.09997 7.41339 4.15643 7.26346 4.50779C7.11353 4.85916 7.41719 5.27274 8.0245 6.0999L8.18162 6.31389C8.3542 6.54895 8.44049 6.66647 8.4718 6.80408C8.5031 6.94169 8.47588 7.08381 8.42143 7.36804L8.37186 7.62681C8.18025 8.62703 8.08445 9.12714 8.37265 9.3836C8.66086 9.64006 9.1422 9.48302 10.1049 9.16895L10.3539 9.0877C10.6275 8.99845 10.7643 8.95383 10.9038 8.96823C11.0433 8.98262 11.1698 9.05441 11.4227 9.19799L11.653 9.32871C12.543 9.83397 12.988 10.0866 13.316 9.89374C13.6441 9.70087 13.6379 9.19024 13.6256 8.16897L13.6224 7.90476C13.6189 7.61455 13.6171 7.46944 13.672 7.34073C13.727 7.21202 13.8323 7.11427 14.0431 6.91878L14.235 6.7408C14.9767 6.05285 15.3475 5.70887 15.262 5.33322C15.1766 4.95756 14.6914 4.79901 13.7211 4.4819L13.4701 4.39986C13.1943 4.30975 13.0565 4.26469 12.9509 4.17074C12.8453 4.0768 12.784 3.9446 12.6613 3.6802L12.5497 3.43948Z" fill="#1C274C"/>
<path id="Vector (Stroke)" fill-rule="evenodd" clip-rule="evenodd" d="M22.6479 9.12222C22.8566 9.48001 22.7357 9.93925 22.378 10.148C16.6662 13.4798 15.25 18.859 15.25 22.0001C15.25 22.4143 14.9143 22.7501 14.5 22.7501C14.0858 22.7501 13.75 22.4143 13.75 22.0001C13.75 18.4746 15.3339 12.5204 21.6221 8.85229C21.9799 8.64358 22.4392 8.76443 22.6479 9.12222ZM11.2059 11.279C11.6042 11.3928 11.8348 11.8079 11.721 12.2062C11.3546 13.4888 11.2666 15.3498 11.3245 17.2144C11.3818 19.0601 11.5786 20.8296 11.7412 21.8861C11.8041 22.2955 11.5233 22.6784 11.1139 22.7414C10.7045 22.8044 10.3216 22.5236 10.2586 22.1142C10.0878 21.0039 9.88461 19.1735 9.82524 17.2609C9.76645 15.3671 9.8452 13.3114 10.2787 11.7941C10.3925 11.3958 10.8076 11.1652 11.2059 11.279Z" fill="#1C274C"/>
<path id="Star 7" d="M5.13352 13.7649C5.1108 13.6573 5.28229 13.5583 5.36409 13.6318C5.60184 13.8453 5.92274 14.0885 6.22264 14.1689C6.52254 14.2492 6.92203 14.1991 7.2347 14.133C7.34227 14.1103 7.44128 14.2818 7.36782 14.3636C7.15428 14.6014 6.91111 14.9223 6.83075 15.2221C6.75039 15.522 6.80054 15.9215 6.86659 16.2342C6.88931 16.3418 6.71782 16.4408 6.63602 16.3673C6.39827 16.1538 6.07737 15.9106 5.77747 15.8303C5.47757 15.7499 5.07808 15.8 4.76541 15.8661C4.65783 15.8888 4.55882 15.7173 4.63229 15.6355C4.84583 15.3978 5.089 15.0769 5.16936 14.777C5.24972 14.4771 5.19957 14.0776 5.13352 13.7649Z" fill="#1C274C"/>
</g>
</svg>
