<svg width="24" height="24" viewBox="0 0 24 24" fill="none" xmlns="http://www.w3.org/2000/svg">
<g id="Bold Duotone / Security / Shield Keyhole Minimalistic">
<path id="Vector" opacity="0.5" d="M3.37752 5.08241C3 5.62028 3 7.21907 3 10.4167V11.9914C3 17.6294 7.23896 20.3655 9.89856 21.5273C10.62 21.8424 10.9807 22 12 22C13.0193 22 13.38 21.8424 14.1014 21.5273C16.761 20.3655 21 17.6294 21 11.9914V10.4167C21 7.21907 21 5.62028 20.6225 5.08241C20.245 4.54454 18.7417 4.02996 15.7351 3.00079L15.1623 2.80472C13.595 2.26824 12.8114 2 12 2C11.1886 2 10.405 2.26824 8.83772 2.80472L8.26491 3.00079C5.25832 4.02996 3.75503 4.54454 3.37752 5.08241Z" fill="#1C274C"/>
<path id="Vector_2" fill-rule="evenodd" clip-rule="evenodd" d="M10.1254 7.25283C10.8556 6.83121 11.6709 6.68296 12.4491 6.77728C13.5777 6.91409 14.6337 7.56247 15.2473 8.62524C15.8609 9.68801 15.8944 10.9267 15.4485 11.9726C15.1412 12.6936 14.6051 13.3255 13.8749 13.7472C13.5153 13.9547 13.1357 14.096 12.7501 14.1748V16.5C12.7501 16.9142 12.4143 17.25 12.0001 17.25C11.5859 17.25 11.2501 16.9142 11.2501 16.5V14.1738C10.2357 13.9663 9.3114 13.342 8.75296 12.3747C7.71757 10.5814 8.33202 8.28822 10.1254 7.25283ZM10.8754 8.55187C11.3147 8.29823 11.8018 8.20981 12.2686 8.26639C12.949 8.34887 13.5805 8.7383 13.9482 9.37524C14.316 10.0122 14.3375 10.7538 14.0687 11.3843C13.8843 11.8168 13.5642 12.1945 13.1249 12.4481C12.049 13.0693 10.6732 12.7007 10.052 11.6247C9.43082 10.5488 9.79946 9.17305 10.8754 8.55187Z" fill="#1C274C"/>
</g>
</svg>
