<svg width="24" height="24" viewBox="0 0 24 24" fill="none" xmlns="http://www.w3.org/2000/svg">
<g id="Broken / Faces, Emotions, Stickers / Facemask Circle">
<path id="Vector" d="M16.5 20.4996L17 14.9996L13.857 13.7424C12.6649 13.2656 11.3351 13.2656 10.143 13.7424L7 14.9996L7.5 20.4996" stroke="#1C274C" stroke-width="1.5" stroke-linecap="round"/>
<path id="Vector_2" d="M7 15L2.5 13" stroke="#1C274C" stroke-width="1.5" stroke-linecap="round"/>
<path id="Vector_3" d="M17 15L21.5 13" stroke="#1C274C" stroke-width="1.5" stroke-linecap="round"/>
<ellipse id="Vector_4" cx="15" cy="10.5" rx="1" ry="1.5" fill="#1C274C"/>
<ellipse id="Vector_5" cx="9" cy="10.5" rx="1" ry="1.5" fill="#1C274C"/>
<path id="Vector_6" d="M7 3.33782C8.47087 2.48697 10.1786 2 12 2C17.5228 2 22 6.47715 22 12C22 17.5228 17.5228 22 12 22C6.47715 22 2 17.5228 2 12C2 10.1786 2.48697 8.47087 3.33782 7" stroke="#1C274C" stroke-width="1.5" stroke-linecap="round"/>
</g>
</svg>
