<svg width="24" height="24" viewBox="0 0 24 24" fill="none" xmlns="http://www.w3.org/2000/svg">
<g id="Broken / Map &#38; Location / Signpost">
<path id="Vector" d="M12.75 2C12.75 1.58579 12.4142 1.25 12 1.25C11.5858 1.25 11.25 1.58579 11.25 2H12.75ZM11.25 2V3H12.75V2H11.25Z" fill="#1C274C"/>
<path id="Vector_2" d="M12.75 11C12.75 10.5858 12.4142 10.25 12 10.25C11.5858 10.25 11.25 10.5858 11.25 11H12.75ZM11.25 11V12H12.75V11H11.25Z" fill="#1C274C"/>
<path id="Vector_3" d="M12.75 20C12.75 19.5858 12.4142 19.25 12 19.25C11.5858 19.25 11.25 19.5858 11.25 20H12.75ZM11.25 20V22H12.75V20H11.25Z" fill="#1C274C"/>
<path id="Vector_4" d="M5.33712 18.6111C5.48304 18.8295 5.67054 19.017 5.88892 19.1629C6.39337 19.5 7.0956 19.5 8.50006 19.5H15.2961C15.9536 19.5 16.2824 19.5 16.5841 19.4018C16.7172 19.3585 16.8454 19.3013 16.9666 19.2312C17.2412 19.0723 17.4609 18.8277 17.9002 18.3384C18.7509 17.3911 19.1763 16.9174 19.2787 16.3638C19.3232 16.1233 19.3232 15.8767 19.2787 15.6362C19.1763 15.0826 18.7509 14.6089 17.9002 13.6616C17.4609 13.1723 17.2412 12.9277 16.9666 12.7688C16.8454 12.6987 16.7172 12.6415 16.5841 12.5982C16.2824 12.5 15.9536 12.5 15.2961 12.5H8.50006C7.0956 12.5 6.39337 12.5 5.88892 12.8371C5.67054 12.983 5.48304 13.1705 5.33712 13.3889C5.09171 13.7561 5.02498 14.2283 5.00684 15" stroke="#1C274C" stroke-width="1.5" stroke-linecap="round"/>
<path id="Vector_5" d="M18.6648 9.61114C18.5189 9.82952 18.3314 10.017 18.113 10.1629C17.6086 10.5 16.9064 10.5 15.5019 10.5H8.70588C8.04832 10.5 7.71954 10.5 7.41783 10.4018C7.28472 10.3585 7.15653 10.3013 7.03536 10.2312C6.76072 10.0723 6.54105 9.8277 6.10172 9.33844C5.25101 8.39107 4.82566 7.91738 4.72326 7.36381C4.67877 7.12331 4.67877 6.87669 4.72326 6.63619C4.82566 6.08262 5.25101 5.60894 6.10172 4.66156C6.54105 4.1723 6.76072 3.92767 7.03536 3.76879C7.15653 3.6987 7.28472 3.64152 7.41783 3.5982C7.71954 3.5 8.04832 3.5 8.70588 3.5H15.5019C16.9064 3.5 17.6086 3.5 18.113 3.83706C18.3314 3.98298 18.5189 4.17048 18.6648 4.38886C18.9102 4.75615 18.977 5.22829 18.9951 6" stroke="#1C274C" stroke-width="1.5" stroke-linecap="round"/>
<path id="Vector_6" d="M14 22H10" stroke="#1C274C" stroke-width="1.5" stroke-linecap="round"/>
</g>
</svg>
