<svg width="24" height="24" viewBox="0 0 24 24" fill="none" xmlns="http://www.w3.org/2000/svg">
<g id="Bold Duotone / Video, Audio, Sound / Library">
<path id="Vector" fill-rule="evenodd" clip-rule="evenodd" d="M9.00515 7.54199H14.9948C18.0322 7.54199 19.5509 7.54199 20.4039 8.52881C21.257 9.51563 21.0563 11.0402 20.6548 14.0894L20.2742 16.981C19.9594 19.3722 19.802 20.5678 18.9945 21.2838C18.187 21.9998 16.9961 21.9998 14.6142 21.9998H9.38583C7.00393 21.9998 5.81298 21.9998 5.0055 21.2838C4.19803 20.5678 4.04063 19.3722 3.72583 16.981L3.34516 14.0894C2.94373 11.0402 2.74302 9.51563 3.59609 8.52881C4.44915 7.54199 5.96782 7.54199 9.00515 7.54199ZM8.25 18C8.25 17.5858 8.58579 17.25 9 17.25H15C15.4142 17.25 15.75 17.5858 15.75 18C15.75 18.4142 15.4142 18.75 15 18.75H9C8.58579 18.75 8.25 18.4142 8.25 18Z" fill="#1C274C"/>
<path id="Vector_2" opacity="0.7" d="M6.87957 4.72266C5.62801 4.72266 4.60177 5.5624 4.2593 6.67643C4.25216 6.69965 4.24531 6.723 4.23877 6.74645C4.5971 6.62588 4.97003 6.54712 5.34755 6.49334C6.31989 6.35484 7.54869 6.35491 8.97612 6.35499L9.08272 6.355L15.179 6.35499C16.6064 6.35491 17.8352 6.35484 18.8076 6.49334C19.1851 6.54712 19.558 6.62588 19.9164 6.74645C19.9098 6.723 19.903 6.69966 19.8958 6.67643C19.5534 5.5624 18.5271 4.72266 17.2756 4.72266H6.87957Z" fill="#1C274C"/>
<path id="Vector_3" opacity="0.4" d="M8.85899 2.00001H15.1411C15.3503 1.99995 15.5107 1.99991 15.651 2.01515C16.648 2.12351 17.4641 2.78957 17.8101 3.68676H6.18994C6.53601 2.78957 7.35208 2.12351 8.34912 2.01515C8.48935 1.99991 8.64976 1.99995 8.85899 2.00001Z" fill="#1C274C"/>
</g>
</svg>
