<svg width="24" height="24" viewBox="0 0 24 24" fill="none" xmlns="http://www.w3.org/2000/svg">
<g id="Bold Duotone / Video, Audio, Sound / Microphone Large">
<path id="Vector" opacity="0.5" fill-rule="evenodd" clip-rule="evenodd" d="M12.0003 2C8.55914 2 5.76953 4.81123 5.76953 8.27907V12.9302C5.76953 16.3981 8.55914 19.2093 12.0003 19.2093C15.4415 19.2093 18.2311 16.3981 18.2311 12.9302V8.27907C18.2311 4.81124 15.4415 2 12.0003 2ZM9.67852 7.39068C9.40069 7.12597 9.3884 6.6844 9.65108 6.40441L10.1541 6.88372C9.65108 6.40441 9.65184 6.40361 9.65184 6.40361L9.65261 6.40279L9.65418 6.40114L9.65746 6.3977L9.66461 6.39036C9.66964 6.38527 9.67519 6.37977 9.68129 6.37391C9.69348 6.36218 9.70781 6.349 9.72443 6.33461C9.75769 6.3058 9.79992 6.27232 9.85214 6.23613C9.95688 6.16357 10.1 6.0814 10.289 6.00438C10.6679 5.84997 11.2192 5.72093 12.0003 5.72093C12.7814 5.72093 13.3327 5.84997 13.7116 6.00438C13.9006 6.0814 14.0437 6.16357 14.1485 6.23613C14.2007 6.27232 14.2429 6.3058 14.2762 6.33461C14.2928 6.349 14.3071 6.36218 14.3193 6.37391C14.3254 6.37977 14.331 6.38527 14.336 6.39036L14.3431 6.3977L14.3464 6.40114L14.348 6.40279L14.3488 6.40361C14.3488 6.40361 14.3495 6.40441 13.8565 6.87412L14.3495 6.40441C14.6122 6.6844 14.5999 7.12597 14.3221 7.39068C14.0539 7.64624 13.6362 7.64354 13.3713 7.39112L13.364 7.38596C13.3429 7.37132 13.2888 7.33721 13.1925 7.29795C13.0007 7.2198 12.629 7.11628 12.0003 7.11628C11.3716 7.11628 10.9999 7.2198 10.8081 7.29795C10.7118 7.33721 10.6577 7.37132 10.6366 7.38596L10.6293 7.39112C10.3644 7.64354 9.94675 7.64624 9.67852 7.39068ZM9.67852 10.1814C9.40069 9.91667 9.3884 9.4751 9.65108 9.19511L10.1541 9.67442C9.65108 9.19511 9.65184 9.1943 9.65184 9.1943L9.65261 9.19349L9.65418 9.19183L9.65746 9.1884L9.66461 9.18106C9.66964 9.17597 9.67519 9.17047 9.68129 9.16461C9.69348 9.15288 9.70781 9.13969 9.72443 9.1253C9.75769 9.0965 9.79992 9.06301 9.85214 9.02683C9.95688 8.95427 10.1 8.8721 10.289 8.79507C10.6679 8.64067 11.2192 8.51163 12.0003 8.51163C12.7814 8.51163 13.3327 8.64067 13.7116 8.79507C13.9006 8.8721 14.0437 8.95427 14.1485 9.02683C14.2007 9.06301 14.2429 9.0965 14.2762 9.1253C14.2928 9.13969 14.3071 9.15288 14.3193 9.16461C14.3254 9.17047 14.331 9.17597 14.336 9.18106L14.3431 9.1884L14.3464 9.19183L14.348 9.19349L14.3488 9.1943C14.3488 9.1943 14.3495 9.1951 13.8565 9.66482L14.3495 9.19511C14.6122 9.4751 14.5999 9.91667 14.3221 10.1814C14.0539 10.4369 13.6362 10.4342 13.3713 10.1818L13.364 10.1767C13.3429 10.162 13.2888 10.1279 13.1925 10.0886C13.0007 10.0105 12.629 9.90698 12.0003 9.90698C11.3716 9.90698 10.9999 10.0105 10.8081 10.0886C10.7118 10.1279 10.6577 10.162 10.6366 10.1767L10.6293 10.1818C10.3644 10.4342 9.94675 10.4369 9.67852 10.1814Z" fill="#1C274C"/>
<g id="Vector_2">
<path d="M9.65116 9.19488C9.38848 9.47487 9.40077 9.91644 9.6786 10.1812C9.94683 10.4367 10.3645 10.434 10.6294 10.1816L10.6366 10.1764C10.6578 10.1618 10.7119 10.1277 10.8082 10.0884C10.9999 10.0103 11.3716 9.90675 12.0004 9.90675C12.6291 9.90675 13.0008 10.0103 13.1926 10.0884C13.2889 10.1277 13.343 10.1618 13.3641 10.1764L13.3713 10.1816C13.6363 10.434 14.0539 10.4367 14.3222 10.1812C14.6 9.91644 14.6123 9.47487 14.3496 9.19488L13.8566 9.66459C14.3496 9.19488 14.3488 9.19408 14.3488 9.19408L14.3481 9.19326L14.3465 9.19161L14.3432 9.18817L14.3361 9.18083C14.331 9.17574 14.3255 9.17024 14.3194 9.16438C14.3072 9.15265 14.2929 9.13947 14.2763 9.12508C14.243 9.09627 14.2008 9.06279 14.1485 9.0266C14.0438 8.95404 13.9007 8.87187 13.7117 8.79485C13.3328 8.64044 12.7814 8.5114 12.0004 8.5114C11.2193 8.5114 10.6679 8.64044 10.2891 8.79485C10.1001 8.87187 9.95696 8.95404 9.85222 9.0266C9.8 9.06279 9.75776 9.09627 9.7245 9.12508C9.70789 9.13947 9.69355 9.15265 9.68136 9.16438C9.67527 9.17024 9.66972 9.17574 9.66469 9.18083L9.65754 9.18817L9.65425 9.19161L9.65268 9.19326L9.65192 9.19408C9.65192 9.19408 9.65116 9.19488 10.1542 9.67419L9.65116 9.19488Z" fill="#1C274C"/>
<path d="M9.65116 6.40418C9.38848 6.68417 9.40077 7.12574 9.6786 7.39046C9.94683 7.64602 10.3645 7.64332 10.6294 7.39089L10.6366 7.38573C10.6578 7.37109 10.7119 7.33698 10.8082 7.29772C10.9999 7.21957 11.3716 7.11605 12.0004 7.11605C12.6291 7.11605 13.0008 7.21957 13.1926 7.29772C13.2889 7.33698 13.343 7.37109 13.3641 7.38573L13.3713 7.39089C13.6363 7.64332 14.0539 7.64602 14.3222 7.39046C14.6 7.12574 14.6123 6.68417 14.3496 6.40418L13.8566 6.87389C14.3496 6.40418 14.3488 6.40338 14.3488 6.40338L14.3481 6.40257L14.3465 6.40091L14.3432 6.39747L14.3361 6.39014C14.331 6.38504 14.3255 6.37955 14.3194 6.37368C14.3072 6.36195 14.2929 6.34877 14.2763 6.33438C14.243 6.30557 14.2008 6.27209 14.1485 6.23591C14.0438 6.16334 13.9007 6.08117 13.7117 6.00415C13.3328 5.84974 12.7814 5.7207 12.0004 5.7207C11.2193 5.7207 10.6679 5.84974 10.2891 6.00415C10.1001 6.08117 9.95696 6.16334 9.85222 6.23591C9.8 6.27209 9.75776 6.30557 9.7245 6.33438C9.70789 6.34877 9.69355 6.36195 9.68136 6.37368C9.67527 6.37955 9.66972 6.38504 9.66469 6.39014L9.65754 6.39747L9.65425 6.40091L9.65268 6.40257L9.65192 6.40338C9.65192 6.40338 9.65116 6.40418 10.1542 6.88349L9.65116 6.40418Z" fill="#1C274C"/>
</g>
<path id="Vector_3" fill-rule="evenodd" clip-rule="evenodd" d="M3.69231 10.3721C4.07466 10.3721 4.38462 10.6844 4.38462 11.0697V12.9302C4.38462 17.1687 7.79414 20.6046 12 20.6046C16.2059 20.6046 19.6154 17.1687 19.6154 12.9302V11.0697C19.6154 10.6844 19.9253 10.3721 20.3077 10.3721C20.69 10.3721 21 10.6844 21 11.0697V12.9302C21 17.9393 16.9706 22 12 22C7.02944 22 3 17.9393 3 12.9302V11.0697C3 10.6844 3.30996 10.3721 3.69231 10.3721Z" fill="#1C274C"/>
</g>
</svg>
