<svg width="24" height="24" viewBox="0 0 24 24" fill="none" xmlns="http://www.w3.org/2000/svg">
<g id="Bold Duotone / Video, Audio, Sound / Music Note Slider 2">
<g id="Vector">
<path d="M14.8688 8.41172C14.9386 8.38128 14.9708 8.37152 14.9789 8.36917C15.0888 8.35966 15.1921 8.42348 15.2327 8.52605C15.2342 8.5343 15.2399 8.5675 15.2439 8.64357C15.2501 8.76123 15.2503 8.92003 15.2503 9.17103C15.2503 9.27816 15.2502 9.33925 15.2486 9.3855C15.2476 9.41444 15.2462 9.42668 15.2458 9.42975C15.2342 9.48965 15.201 9.54324 15.1527 9.58042C15.1501 9.58215 15.1398 9.58885 15.1143 9.60273C15.0737 9.62489 15.0191 9.6523 14.9233 9.70021L13.6066 10.3586C13.3821 10.4708 13.2399 10.5416 13.1319 10.5887C13.0621 10.6191 13.0298 10.6289 13.0218 10.6313C12.9119 10.6408 12.8086 10.5769 12.768 10.4744C12.7665 10.4661 12.7608 10.4329 12.7568 10.3569C12.7506 10.2392 12.7503 10.0804 12.7503 9.82939C12.7503 9.72226 12.7504 9.66118 12.7521 9.61492C12.7531 9.58596 12.7545 9.57373 12.7549 9.57067C12.7665 9.51077 12.7996 9.45718 12.848 9.42001C12.8506 9.41827 12.8609 9.41157 12.8863 9.39769C12.927 9.37554 12.9816 9.34812 13.0774 9.30021L14.3941 8.64185C14.6186 8.5296 14.7608 8.4588 14.8688 8.41172Z" fill="#1C274C"/>
<path d="M10.0003 13.75C10.6907 13.75 11.2503 14.3097 11.2503 15C11.2503 15.6904 10.6907 16.25 10.0003 16.25C9.30998 16.25 8.75034 15.6904 8.75034 15C8.75034 14.3097 9.30998 13.75 10.0003 13.75Z" fill="#1C274C"/>
<path fill-rule="evenodd" clip-rule="evenodd" d="M7.23632 2.87868C6.41895 3.75736 6.41895 5.17157 6.41895 8V16C6.41895 18.8284 6.41895 20.2426 7.23632 21.1213C8.0537 22 9.36925 22 12.0003 22C14.6314 22 15.947 22 16.7644 21.1213C17.5817 20.2426 17.5817 18.8284 17.5817 16V8C17.5817 5.17158 17.5817 3.75736 16.7644 2.87868C15.947 2 14.6314 2 12.0003 2C9.36925 2 8.0537 2 7.23632 2.87868ZM16.6457 8.02225C16.3692 7.25889 15.604 6.78596 14.7976 6.88003C14.5992 6.90318 14.4202 6.97092 14.2694 7.03669C14.1207 7.10149 13.9429 7.19042 13.74 7.29184L12.37 7.97679C12.2251 8.04899 12.0714 8.12557 11.9374 8.22804C11.5958 8.48919 11.3624 8.86695 11.2815 9.28925C11.2498 9.45495 11.2501 9.62668 11.2503 9.78859L11.2503 9.8481C11.2503 9.86538 11.2503 9.88251 11.2503 9.89946C11.2503 9.93367 11.2503 9.96721 11.2503 10V12.5499C10.8753 12.3582 10.4505 12.25 10.0003 12.25C8.48156 12.25 7.25034 13.4813 7.25034 15C7.25034 16.5188 8.48156 17.75 10.0003 17.75C11.5191 17.75 12.7503 16.5188 12.7503 15V12.1144C12.8977 12.1357 13.0497 12.1383 13.2031 12.1204C13.4015 12.0972 13.5804 12.0295 13.7313 11.9637C13.88 11.8989 14.0578 11.81 14.2607 11.7086L15.6306 11.0236C15.7755 10.9514 15.9292 10.8749 16.0633 10.7724C16.4048 10.5112 16.6383 10.1335 16.7191 9.71117C16.7509 9.54547 16.7506 9.37374 16.7504 9.21184L16.7503 9.15231C16.7503 8.92555 16.7504 8.72669 16.7418 8.56475C16.7332 8.4004 16.7138 8.21007 16.6457 8.02225Z" fill="#1C274C"/>
</g>
<g id="Vector_2" opacity="0.5">
<path d="M6.72413 3.76172H5.26784C5.11295 3.76713 4.96866 3.77512 4.83435 3.78692C4.40341 3.82477 4.01421 3.9055 3.65073 4.10459C3.08186 4.41618 2.61937 4.91337 2.32952 5.5249C2.14431 5.91564 2.06921 6.33404 2.034 6.7973C1.99999 7.24486 1.99999 7.79557 2 8.46895V15.5318C1.99999 16.2052 1.99999 16.7559 2.034 17.2034C2.06921 17.6667 2.14431 18.0851 2.32952 18.4758C2.61937 19.0874 3.08186 19.5845 3.65073 19.8961C4.01421 20.0952 4.40341 20.176 4.83435 20.2138C4.96866 20.2256 5.11295 20.2336 5.26784 20.239H6.72438C6.41895 19.3408 6.41895 18.0372 6.41895 16V8C6.41895 5.96331 6.41895 4.6599 6.72413 3.76172Z" fill="#1C274C"/>
<path d="M17.2763 20.239C17.5817 19.3408 17.5817 18.0372 17.5817 16V8C17.5817 5.96331 17.5817 4.65991 17.2766 3.76172H18.7322C18.887 3.76713 19.0313 3.77512 19.1656 3.78692C19.5966 3.82477 19.9858 3.9055 20.3493 4.10459C20.9181 4.41618 21.3806 4.91337 21.6705 5.5249C21.8557 5.91564 21.9308 6.33404 21.966 6.7973C22 7.24484 22 7.79553 22 8.46887V15.5318C22 16.2051 22 16.7559 21.966 17.2034C21.9308 17.6667 21.8557 18.0851 21.6705 18.4758C21.3806 19.0874 20.9181 19.5845 20.3493 19.8961C19.9858 20.0952 19.5966 20.176 19.1656 20.2138C19.0313 20.2256 18.887 20.2336 18.7322 20.239H17.2763Z" fill="#1C274C"/>
</g>
</g>
</svg>
