<svg width="24" height="24" viewBox="0 0 24 24" fill="none" xmlns="http://www.w3.org/2000/svg">
<g id="Bold Duotone / Video, Audio, Sound / Muted">
<path id="Vector" fill-rule="evenodd" clip-rule="evenodd" d="M17.7815 9.5191C18.071 9.23191 18.5403 9.23191 18.8297 9.5191L20.2821 10.9601L21.7345 9.51912C22.0239 9.23193 22.4932 9.23193 22.7827 9.51912C23.0721 9.8063 23.0721 10.2719 22.7827 10.5591L21.3303 12.0001L22.7826 13.4412C23.0721 13.7283 23.0721 14.194 22.7826 14.4811C22.4932 14.7683 22.0239 14.7683 21.7345 14.4811L20.2821 13.0401L18.8297 14.4812C18.5403 14.7684 18.071 14.7684 17.7816 14.4812C17.4921 14.194 17.4921 13.7284 17.7816 13.4412L19.2339 12.0001L17.7815 10.5591C17.4921 10.2719 17.4921 9.80629 17.7815 9.5191Z" fill="#1C274C"/>
<path id="Vector_2" opacity="0.5" d="M2.00321 11.7155C2.04334 9.87326 2.0634 8.95215 2.72105 8.16363C2.84109 8.0197 3.01721 7.8487 3.16482 7.73274C3.97358 7.09741 5.04136 7.09741 7.17693 7.09741C7.93991 7.09741 8.3214 7.09741 8.68506 7.00452C8.76062 6.98522 8.83539 6.96296 8.90919 6.93781C9.26433 6.81674 9.58285 6.60837 10.2199 6.19161C12.7333 4.54738 13.99 3.72527 15.0448 4.08241C15.247 4.15088 15.4428 4.24972 15.6176 4.37162C16.5294 5.00744 16.5987 6.48675 16.7373 9.44537C16.7886 10.5409 16.8235 11.4785 16.8235 12C16.8235 12.5215 16.7886 13.4591 16.7373 14.5546C16.5987 17.5132 16.5294 18.9926 15.6176 19.6284C15.4428 19.7503 15.247 19.8491 15.0448 19.9176C13.99 20.2747 12.7333 19.4526 10.2199 17.8084C9.58285 17.3916 9.26433 17.1833 8.90919 17.0622C8.83539 17.037 8.76062 17.0148 8.68506 16.9955C8.3214 16.9026 7.93991 16.9026 7.17693 16.9026C5.04136 16.9026 3.97358 16.9026 3.16482 16.2673C3.01721 16.1513 2.84109 15.9803 2.72105 15.8364C2.0634 15.0478 2.04334 14.1267 2.00321 12.2845C2.00111 12.1878 2 12.0928 2 12C2 11.9072 2.00111 11.8122 2.00321 11.7155Z" fill="#1C274C"/>
</g>
</svg>
