<svg width="24" height="24" viewBox="0 0 24 24" fill="none" xmlns="http://www.w3.org/2000/svg">
<g id="Outline / Sports / Meditation Round">
<path id="Vector" fill-rule="evenodd" clip-rule="evenodd" d="M12.0002 2.75C11.0337 2.75 10.2502 3.5335 10.2502 4.5C10.2502 5.4665 11.0337 6.25 12.0002 6.25C12.9667 6.25 13.7502 5.4665 13.7502 4.5C13.7502 3.5335 12.9667 2.75 12.0002 2.75ZM8.7502 4.5C8.7502 2.70507 10.2053 1.25 12.0002 1.25C13.7951 1.25 15.2502 2.70507 15.2502 4.5C15.2502 6.29493 13.7951 7.75 12.0002 7.75C10.2053 7.75 8.7502 6.29493 8.7502 4.5ZM12.0002 9.7706C11.644 9.77062 11.3211 9.7911 11.1392 9.82194L10.2476 9.97209C8.23506 10.311 6.7502 12.0736 6.7502 14.1502C6.7502 15.231 6.2157 16.2435 5.32068 16.8464L5.21945 16.9146C4.96468 17.0862 4.6882 17.2229 4.3973 17.3208L3.2396 17.7108C2.84706 17.843 2.42165 17.6319 2.28944 17.2394C2.15722 16.8469 2.36826 16.4214 2.76081 16.2892L3.9185 15.8993C4.08198 15.8442 4.23766 15.7673 4.3814 15.6705L4.48263 15.6023C4.96023 15.2806 5.2502 14.7364 5.2502 14.1502C5.2502 11.3526 7.25281 8.95532 9.99849 8.49292L10.8885 8.34304C10.8886 8.34302 10.8884 8.34305 10.8885 8.34304C11.1929 8.29147 11.6133 8.27062 12.0002 8.2706C12.387 8.27058 12.8072 8.29133 13.1118 8.34301C13.1119 8.34303 13.1117 8.34299 13.1118 8.34301L14.0019 8.49292C16.7476 8.95532 18.7502 11.3526 18.7502 14.1502C18.7502 14.7364 19.0402 15.2806 19.5178 15.6023L19.619 15.6705C19.7628 15.7673 19.9184 15.8442 20.0819 15.8993L21.2396 16.2892C21.6321 16.4214 21.8432 16.8469 21.711 17.2394C21.5788 17.6319 21.1534 17.843 20.7608 17.7108L19.6031 17.3208C19.3122 17.2229 19.0357 17.0862 18.781 16.9146L18.6797 16.8464C17.7847 16.2435 17.2502 15.231 17.2502 14.1502C17.2502 12.0736 15.7653 10.311 13.7528 9.97209L12.861 9.82191C12.6793 9.79104 12.3565 9.77058 12.0002 9.7706ZM8.9002 15.55C9.14873 15.2186 9.61883 15.1515 9.9502 15.4C10.2816 15.6485 10.3487 16.1186 10.1002 16.45L9.1757 17.6827C9.16835 17.6925 9.1611 17.7022 9.15393 17.7117C9.0275 17.8804 8.92809 18.013 8.81354 18.1328C8.5317 18.4274 8.18788 18.6557 7.80696 18.8011C7.65212 18.8602 7.4913 18.9004 7.28678 18.9514C7.27519 18.9543 7.26346 18.9573 7.25159 18.9602L5.45817 19.4086C5.0421 19.5126 4.7502 19.8865 4.7502 20.3153C4.7502 20.8315 5.16866 21.25 5.68486 21.25H6.36862C7.91453 21.25 9.41874 20.7486 10.6555 19.8211L12.5502 18.4C12.8816 18.1515 13.3517 18.2186 13.6002 18.55C13.8487 18.8814 13.7816 19.3515 13.4502 19.6L12.5455 20.2785L13.0373 20.4629C13.5712 20.6631 13.812 20.7531 14.0539 20.8288C14.7821 21.0564 15.5357 21.193 16.2975 21.2356C16.5505 21.2497 16.8076 21.25 17.3778 21.25H18.3155C18.8317 21.25 19.2502 20.8315 19.2502 20.3153C19.2502 19.8865 18.9583 19.5126 18.5422 19.4086L17.0686 19.0402C17.041 19.0333 17.0137 19.0265 16.9868 19.0198C16.5112 18.9012 16.1359 18.8076 15.8005 18.6143C15.7002 18.5565 15.6037 18.4924 15.5116 18.4224C15.2032 18.1884 14.9713 17.8788 14.6775 17.4864C14.6608 17.4642 14.644 17.4417 14.6269 17.4189L13.9002 16.45C13.6517 16.1186 13.7188 15.6485 14.0502 15.4C14.3816 15.1515 14.8517 15.2186 15.1002 15.55L15.8269 16.5189C16.1954 17.0103 16.2984 17.1365 16.4184 17.2276C16.4603 17.2594 16.5042 17.2885 16.5498 17.3148C16.6803 17.3901 16.8366 17.436 17.4325 17.585L18.906 17.9534C19.9899 18.2243 20.7502 19.1982 20.7502 20.3153C20.7502 21.66 19.6602 22.75 18.3155 22.75H17.3525C16.8141 22.75 16.5135 22.75 16.2138 22.7333C15.3285 22.6838 14.4527 22.525 13.6064 22.2605C13.3199 22.1709 13.0385 22.0654 12.5344 21.8763L11.1018 21.3391C9.69826 22.2575 8.05392 22.75 6.36862 22.75H5.68486C4.34024 22.75 3.2502 21.66 3.2502 20.3153C3.2502 19.1982 4.01054 18.2243 5.09437 17.9534L6.88778 17.505C7.14347 17.4411 7.21177 17.4227 7.27203 17.3997C7.44517 17.3337 7.60146 17.2299 7.72956 17.096C7.77414 17.0493 7.81756 16.9935 7.9757 16.7827L8.9002 15.55Z" fill="#1C274C"/>
</g>
</svg>
