<svg width="24" height="24" viewBox="0 0 24 24" fill="none" xmlns="http://www.w3.org/2000/svg">
<g id="Outline / Map &#38; Location / Signpost">
<path id="Vector" fill-rule="evenodd" clip-rule="evenodd" d="M12 1.25C12.4142 1.25 12.75 1.58579 12.75 2V2.75L15.5383 2.75C16.2079 2.74998 16.7666 2.74997 17.219 2.79598C17.6924 2.84415 18.1318 2.94886 18.5278 3.21346C18.8281 3.41409 19.0859 3.67191 19.2865 3.97218C19.5511 4.36818 19.6558 4.80755 19.704 5.28102C19.75 5.73335 19.75 6.29207 19.75 6.96164V7.03836C19.75 7.70793 19.75 8.26665 19.704 8.71898C19.6558 9.19245 19.5511 9.63182 19.2865 10.0278C19.0859 10.3281 18.8281 10.5859 18.5278 10.7865C18.1318 11.0511 17.6924 11.1559 17.219 11.204C16.7666 11.25 16.2079 11.25 15.5384 11.25H12.75V11.75H15.296C15.3289 11.75 15.3615 11.75 15.3936 11.75C15.9556 11.7495 16.3988 11.7492 16.8162 11.885C16.9992 11.9446 17.1755 12.0232 17.3421 12.1196C17.722 12.3394 18.0178 12.6693 18.393 13.0878C18.4145 13.1117 18.4362 13.136 18.4582 13.1605L18.4822 13.1872C18.8871 13.6381 19.2266 14.0162 19.4738 14.3517C19.7336 14.7042 19.9361 15.0672 20.0161 15.4998C20.0773 15.8305 20.0773 16.1695 20.0161 16.5002C19.9361 16.9328 19.7336 17.2958 19.4738 17.6483C19.2266 17.9838 18.8871 18.3619 18.4822 18.8128L18.4582 18.8395C18.4362 18.864 18.4145 18.8883 18.393 18.9122C18.0178 19.3307 17.722 19.6606 17.3421 19.8804C17.1755 19.9768 16.9992 20.0554 16.8162 20.115C16.3988 20.2508 15.9556 20.2505 15.3936 20.25C15.3615 20.25 15.3289 20.25 15.296 20.25H12.75V21.25H14C14.4142 21.25 14.75 21.5858 14.75 22C14.75 22.4142 14.4142 22.75 14 22.75H9.99999C9.58578 22.75 9.24999 22.4142 9.24999 22C9.24999 21.5858 9.58578 21.25 9.99999 21.25H11.25V20.25H8.46167C7.79208 20.25 7.23335 20.25 6.78101 20.204C6.30754 20.1559 5.86817 20.0511 5.47218 19.7865C5.1719 19.5859 4.91409 19.3281 4.71345 19.0278C4.44885 18.6318 4.34414 18.1925 4.29598 17.719C4.24996 17.2666 4.24998 16.7079 4.24999 16.0383V15.9617C4.24998 15.2921 4.24996 14.7334 4.29598 14.281C4.34414 13.8075 4.44885 13.3682 4.71345 12.9722C4.91409 12.6719 5.1719 12.4141 5.47217 12.2135C5.86817 11.9489 6.30754 11.8441 6.78101 11.796C7.23334 11.75 7.79206 11.75 8.46163 11.75H11.25V11.25H8.70399C8.67105 11.25 8.63852 11.25 8.60638 11.25C8.04435 11.2505 7.6012 11.2508 7.1838 11.115C7.00078 11.0554 6.82452 10.9768 6.65792 10.8804C6.27796 10.6606 5.98214 10.3307 5.60695 9.91219C5.5855 9.88826 5.56378 9.86404 5.54178 9.83953L5.51778 9.81281C5.11285 9.36189 4.77334 8.98382 4.52616 8.64831C4.26641 8.29576 4.0639 7.93285 3.98387 7.50023C3.9227 7.16955 3.9227 6.83045 3.98387 6.49977C4.0639 6.06715 4.26641 5.70424 4.52616 5.35169C4.77334 5.01618 5.11285 4.63811 5.51779 4.18718L5.54178 4.16047C5.56378 4.13596 5.5855 4.11174 5.60695 4.08781C5.98214 3.66934 6.27796 3.33939 6.65792 3.11959C6.82452 3.02322 7.00078 2.9446 7.1838 2.88503C7.6012 2.74917 8.04435 2.74952 8.60638 2.74995C8.63852 2.74997 8.67105 2.75 8.70399 2.75H11.25V2C11.25 1.58579 11.5858 1.25 12 1.25ZM8.70399 4.25C7.99772 4.25 7.81021 4.2586 7.64805 4.31138C7.56486 4.33845 7.48474 4.37419 7.40901 4.418C7.2614 4.50339 7.12972 4.63716 6.65785 5.16266C6.22267 5.64729 5.93269 5.97145 5.73379 6.24142C5.54258 6.50095 5.48122 6.65166 5.45884 6.77262C5.43104 6.92293 5.43104 7.07707 5.45884 7.22738C5.48122 7.34834 5.54258 7.49905 5.73379 7.75858C5.93269 8.02855 6.22267 8.35271 6.65785 8.83735C7.12972 9.36284 7.2614 9.49661 7.40901 9.582C7.48474 9.62581 7.56486 9.66155 7.64805 9.68862C7.81021 9.7414 7.99772 9.75 8.70399 9.75H15.5C16.2178 9.75 16.6998 9.74909 17.0672 9.71172C17.422 9.67562 17.586 9.6118 17.6945 9.53934C17.8309 9.44814 17.9481 9.33095 18.0393 9.19446C18.1118 9.08601 18.1756 8.92204 18.2117 8.56717C18.2491 8.19977 18.25 7.71784 18.25 7C18.25 6.28216 18.2491 5.80023 18.2117 5.43283C18.1756 5.07796 18.1118 4.91399 18.0393 4.80554C17.9481 4.66905 17.8309 4.55186 17.6945 4.46066C17.586 4.3882 17.422 4.32438 17.0672 4.28828C16.6998 4.25091 16.2178 4.25 15.5 4.25H8.70399ZM16.3519 13.3114C16.1898 13.2586 16.0023 13.25 15.296 13.25H8.49999C7.78215 13.25 7.30023 13.2509 6.93282 13.2883C6.57795 13.3244 6.41398 13.3882 6.30553 13.4607C6.16904 13.5519 6.05185 13.669 5.96066 13.8055C5.88819 13.914 5.82437 14.078 5.78827 14.4328C5.7509 14.8002 5.74999 15.2822 5.74999 16C5.74999 16.7178 5.7509 17.1998 5.78827 17.5672C5.82437 17.922 5.88819 18.086 5.96066 18.1945C6.05185 18.331 6.16904 18.4481 6.30553 18.5393C6.41398 18.6118 6.57795 18.6756 6.93282 18.7117C7.30022 18.7491 7.78215 18.75 8.49999 18.75H15.296C16.0023 18.75 16.1898 18.7414 16.3519 18.6886C16.4351 18.6615 16.5152 18.6258 16.591 18.582C16.7386 18.4966 16.8703 18.3628 17.3421 17.8373C17.7773 17.3527 18.0673 17.0286 18.2662 16.7586C18.4574 16.4991 18.5188 16.3483 18.5411 16.2274C18.5689 16.0771 18.5689 15.9229 18.5411 15.7726C18.5188 15.6517 18.4574 15.5009 18.2662 15.2414C18.0673 14.9714 17.7773 14.6473 17.3421 14.1627C16.8703 13.6372 16.7386 13.5034 16.591 13.418C16.5152 13.3742 16.4351 13.3385 16.3519 13.3114Z" fill="#1C274C"/>
</g>
</svg>
