<svg width="24" height="24" viewBox="0 0 24 24" fill="none" xmlns="http://www.w3.org/2000/svg">
<g id="Outline / Video, Audio, Sound / Play">
<path id="Vector" fill-rule="evenodd" clip-rule="evenodd" d="M11.4976 3.21374L11.5648 3.24781C12.4079 3.67501 13.2282 4.11326 13.9571 4.53981C14.7879 5.02595 15.6858 5.60569 16.5845 6.21659L16.6448 6.25762C18.2059 7.31879 19.4598 8.17115 20.313 8.99918C21.2095 9.86913 21.75 10.7937 21.75 11.9998C21.75 13.2059 21.2095 14.1305 20.313 15.0005C19.4598 15.8285 18.2059 16.6809 16.6449 17.742L16.5845 17.7831C15.6858 18.394 14.7879 18.9737 13.9571 19.4599C13.2282 19.8864 12.4079 20.3247 11.5648 20.7519L11.4976 20.7859C9.94624 21.5721 8.69042 22.2086 7.64119 22.5227C6.53179 22.8548 5.52552 22.866 4.55949 22.2617C3.60608 21.6653 3.13627 20.7513 2.866 19.589C2.60647 18.4729 2.50474 17.0067 2.37764 15.1749L2.37294 15.1071C2.29806 14.0281 2.25 12.962 2.25 11.9998C2.25 11.0376 2.29806 9.97157 2.37294 8.89253L2.37764 8.8248C2.50474 6.99297 2.60647 5.52677 2.866 4.4107C3.13627 3.2484 3.60609 2.3344 4.55949 1.73799C5.52552 1.13368 6.53179 1.14489 7.64119 1.477C8.69041 1.7911 9.94623 2.42753 11.4976 3.21374ZM7.21101 2.91399C6.35111 2.65657 5.83171 2.71146 5.355 3.00967C4.86566 3.31578 4.54855 3.79773 4.32702 4.75043C4.09792 5.73564 4.00226 7.0811 3.86934 8.99638C3.79591 10.0546 3.75 11.0837 3.75 11.9998C3.75 12.9159 3.7959 13.9451 3.86934 15.0033C4.00226 16.9186 4.09792 18.264 4.32702 19.2492C4.54855 20.2019 4.86566 20.6839 5.355 20.99C5.83171 21.2882 6.35111 21.3431 7.21101 21.0857C8.11597 20.8148 9.25196 20.2423 10.8868 19.4139C11.713 18.9952 12.5049 18.5717 13.1995 18.1652C13.9915 17.7018 14.8594 17.142 15.7412 16.5426C17.3768 15.4307 18.5202 14.6502 19.2684 13.9241C19.9844 13.2292 20.25 12.6684 20.25 11.9998C20.25 11.3312 19.9844 10.7704 19.2684 10.0756C18.5202 9.34952 17.3768 8.569 15.7412 7.4571C14.8594 6.85767 13.9915 6.29787 13.1995 5.83444C12.5049 5.42795 11.713 5.00448 10.8868 4.58581C9.25195 3.75736 8.11597 3.18491 7.21101 2.91399Z" fill="#1C274C"/>
</g>
</svg>
