<svg width="24" height="24" viewBox="0 0 24 24" fill="none" xmlns="http://www.w3.org/2000/svg">
<g id="Outline / Video, Audio, Sound / Rewind Back">
<path id="Vector" fill-rule="evenodd" clip-rule="evenodd" d="M18.8702 5.85935C18.205 6.04457 17.3646 6.43784 16.1292 7.02017C15.5092 7.31239 14.9164 7.6073 14.3975 7.88973C13.8377 8.1944 13.2259 8.5597 12.6013 8.95251C12.6283 9.29593 12.652 9.66499 12.6773 10.0587L12.6812 10.1186C12.723 10.7694 12.75 11.415 12.75 11.9999C12.75 12.5847 12.723 13.2304 12.6812 13.8812L12.6773 13.9411C12.652 14.3348 12.6283 14.7038 12.6013 15.0472C13.2259 15.44 13.8377 15.8054 14.3975 16.11C14.9164 16.3925 15.5092 16.6874 16.1292 16.9796C17.3646 17.5619 18.205 17.9552 18.8702 18.1404C19.4957 18.3146 19.8421 18.2689 20.1498 18.0898C20.4587 17.9101 20.668 17.6333 20.8235 17.0115C20.9892 16.3483 21.0602 15.433 21.1609 14.0828C21.2159 13.346 21.25 12.6325 21.25 11.9999C21.25 11.3673 21.2159 10.6538 21.1609 9.91691C21.0602 8.56672 20.9892 7.65142 20.8235 6.98829C20.668 6.36644 20.4587 6.08967 20.1498 5.90992C19.8421 5.73088 19.4957 5.68519 18.8702 5.85935ZM12.3865 16.6783C12.8297 16.9479 13.2658 17.2019 13.6804 17.4275C14.2329 17.7282 14.8534 18.0365 15.4896 18.3364L15.5514 18.3655C16.7093 18.9114 17.6652 19.3619 18.4678 19.5854C19.3244 19.8239 20.1261 19.839 20.9042 19.3863C21.6811 18.9343 22.064 18.2339 22.2787 17.3753C22.4794 16.5724 22.5574 15.5271 22.6516 14.263L22.6567 14.1944C22.7134 13.4352 22.75 12.6821 22.75 11.9999C22.75 11.3177 22.7134 10.5645 22.6567 9.80531L22.6516 9.7368C22.5574 8.47266 22.4794 7.42739 22.2787 6.62449C22.064 5.76584 21.6811 5.06545 20.9042 4.61342C20.1261 4.1607 19.3244 4.17582 18.4678 4.41433C17.6652 4.63782 16.7093 5.08839 15.5514 5.63421L15.4896 5.66334C14.8534 5.96324 14.2329 6.27154 13.6804 6.57224C13.2658 6.7979 12.8297 7.05185 12.3865 7.32145C12.2272 6.62467 11.941 6.01394 11.3325 5.60281C10.6777 5.1604 9.99273 5.18302 9.31033 5.40365C8.69525 5.60251 7.97279 5.99798 7.13413 6.45707C7.11284 6.46872 7.09148 6.48042 7.07004 6.49215C6.59769 6.75066 6.13534 7.01732 5.72247 7.27825C5.25207 7.57554 4.74642 7.92826 4.24346 8.29752C4.22539 8.31079 4.20738 8.32401 4.18944 8.33718C3.33981 8.9609 2.62306 9.48706 2.12919 10.0047C1.59185 10.5679 1.25 11.1895 1.25 11.9999C1.25 12.8102 1.59185 13.4319 2.12919 13.9951C2.62306 14.5127 3.3398 15.0389 4.18943 15.6626L4.24346 15.7022C4.74642 16.0715 5.25207 16.4242 5.72247 16.7215C6.13534 16.9824 6.59769 17.2491 7.07004 17.5076C7.09148 17.5193 7.11285 17.531 7.13414 17.5427C7.97281 18.0018 8.69526 18.3972 9.31033 18.5961C9.99273 18.8167 10.6777 18.8393 11.3325 18.3969C11.941 17.9858 12.2272 17.3751 12.3865 16.6783ZM9.77178 6.8309C9.30842 6.98071 8.71151 7.30374 7.79018 7.80797C7.33519 8.05699 6.90184 8.30735 6.52383 8.54625C6.09273 8.8187 5.61734 9.14971 5.13117 9.50664C4.2129 10.1808 3.60594 10.6298 3.21447 11.0401C2.85603 11.4158 2.75 11.6854 2.75 11.9999C2.75 12.3144 2.85603 12.5839 3.21447 12.9596C3.60594 13.3699 4.2129 13.8189 5.13117 14.4931C5.61734 14.85 6.09273 15.1811 6.52383 15.4535C6.90184 15.6924 7.33519 15.9428 7.79018 16.1918C8.71151 16.696 9.30842 17.019 9.77178 17.1688C10.1834 17.3019 10.3461 17.2531 10.4928 17.154C10.6658 17.0371 10.8184 16.8372 10.9354 16.2936C11.0575 15.7265 11.1098 14.9428 11.1842 13.785C11.2248 13.1535 11.25 12.542 11.25 11.9999C11.25 11.4577 11.2248 10.8463 11.1842 10.2147C11.1098 9.05694 11.0575 8.27325 10.9354 7.70618C10.8184 7.16259 10.6658 6.9626 10.4928 6.84574C10.3461 6.74663 10.1834 6.69781 9.77178 6.8309Z" fill="#1C274C"/>
</g>
</svg>
