<svg width="24" height="24" viewBox="0 0 24 24" fill="none" xmlns="http://www.w3.org/2000/svg">
<g id="Bold / Video, Audio, Sound / Library">
<g id="Vector">
<path d="M8.8589 2.00001H15.141C15.3502 1.99995 15.5106 1.99991 15.6509 2.01515C16.6479 2.12351 17.464 2.78957 17.81 3.68676H6.18985C6.53591 2.78957 7.35199 2.12351 8.34903 2.01515C8.48926 1.99991 8.64967 1.99995 8.8589 2.00001Z" fill="#1C274C"/>
<path d="M6.87946 4.72309C5.6279 4.72309 4.60167 5.56284 4.25919 6.67687C4.25205 6.70009 4.24521 6.72343 4.23866 6.74689C4.597 6.62632 4.96993 6.54755 5.34745 6.49378C6.31978 6.35527 7.54859 6.35534 8.97602 6.35543L9.08261 6.35543L15.1789 6.35543C16.6063 6.35534 17.8351 6.35527 18.8075 6.49378C19.185 6.54755 19.5579 6.62632 19.9163 6.74689C19.9097 6.72343 19.9029 6.70009 19.8957 6.67687C19.5533 5.56284 18.527 4.72309 17.2755 4.72309H6.87946Z" fill="#1C274C"/>
<path fill-rule="evenodd" clip-rule="evenodd" d="M9.00515 7.54199H14.9948C18.0322 7.54199 19.5509 7.54199 20.4039 8.52881C21.257 9.51563 21.0563 11.0402 20.6548 14.0894L20.2742 16.981C19.9594 19.3722 19.802 20.5678 18.9945 21.2838C18.187 21.9998 16.9961 21.9998 14.6142 21.9998H9.38583C7.00393 21.9998 5.81298 21.9998 5.0055 21.2838C4.19803 20.5678 4.04063 19.3722 3.72583 16.981L3.34516 14.0894C2.94373 11.0402 2.74302 9.51563 3.59609 8.52881C4.44915 7.54199 5.96782 7.54199 9.00515 7.54199ZM8.25 18C8.25 17.5858 8.58579 17.25 9 17.25H15C15.4142 17.25 15.75 17.5858 15.75 18C15.75 18.4142 15.4142 18.75 15 18.75H9C8.58579 18.75 8.25 18.4142 8.25 18Z" fill="#1C274C"/>
</g>
</g>
</svg>
