<svg width="24" height="24" viewBox="0 0 24 24" fill="none" xmlns="http://www.w3.org/2000/svg">
<g id="Bold / Video, Audio, Sound / Rewind Forward">
<path id="Vector" d="M8.69634 6.25028L8.75382 6.27659C9.34568 6.54747 9.92291 6.82593 10.4368 7.09754C10.8225 7.30136 11.2282 7.53075 11.6405 7.77426C11.7887 7.1449 12.0548 6.59326 12.6209 6.22191C13.2301 5.82231 13.8672 5.84274 14.502 6.04202C15.0742 6.22164 15.7462 6.57884 16.5264 6.99351L16.586 7.0252C17.0254 7.2587 17.4555 7.49956 17.8396 7.73524C18.2771 8.00376 18.7475 8.32235 19.2154 8.65589L19.2656 8.6917L19.2657 8.69172C20.056 9.25508 20.7227 9.73032 21.1821 10.1979C21.682 10.7066 22 11.2681 22 12C22 12.7319 21.682 13.2934 21.1821 13.8021C20.7227 14.2697 20.056 14.7449 19.2657 15.3083L19.2656 15.3083L19.2154 15.3441C18.7475 15.6777 18.2771 15.9962 17.8396 16.2648C17.4555 16.5004 17.0254 16.7413 16.586 16.9748L16.5264 17.0065C15.7462 17.4212 15.0742 17.7784 14.502 17.958C13.8672 18.1573 13.2301 18.1777 12.6209 17.7781C12.0548 17.4067 11.7887 16.8551 11.6405 16.2257C11.2282 16.4693 10.8225 16.6986 10.4368 16.9025C9.92291 17.1741 9.34568 17.4525 8.75382 17.7234L8.69632 17.7497C7.61921 18.2427 6.73007 18.6497 5.98342 18.8516C5.18663 19.067 4.4408 19.0807 3.71702 18.6717C2.99435 18.2635 2.63812 17.6308 2.43843 16.8553C2.25171 16.13 2.17919 15.1859 2.0915 14.0441L2.08674 13.9822C2.03405 13.2965 2 12.6162 2 12C2 11.3838 2.03405 10.7035 2.08674 10.0178L2.0915 9.95591C2.17919 8.81408 2.25171 7.86995 2.43843 7.14473C2.63812 6.36916 2.99435 5.73654 3.71702 5.32826C4.4408 4.91934 5.18663 4.933 5.98342 5.14843C6.73008 5.3503 7.61922 5.75727 8.69633 6.25028L8.69634 6.25028Z" fill="#1C274C"/>
</g>
</svg>
