<svg width="24" height="24" viewBox="0 0 24 24" fill="none" xmlns="http://www.w3.org/2000/svg">
<g id="Bold / Video, Audio, Sound / Video Library">
<g id="Vector">
<path d="M8.8589 2.00001H15.141C15.3502 1.99995 15.5106 1.99991 15.6509 2.01515C16.6479 2.12351 17.464 2.78957 17.81 3.68676H6.18985C6.53591 2.78957 7.35199 2.12351 8.34903 2.01515C8.48926 1.99991 8.64967 1.99995 8.8589 2.00001Z" fill="#1C274C"/>
<path d="M6.87946 4.72309C5.6279 4.72309 4.60167 5.56284 4.25919 6.67687C4.25205 6.70009 4.24521 6.72343 4.23866 6.74689C4.597 6.62632 4.96993 6.54755 5.34745 6.49378C6.31978 6.35527 7.54859 6.35534 8.97602 6.35543L9.08261 6.35543L15.1789 6.35543C16.6063 6.35534 17.8351 6.35527 18.8075 6.49378C19.185 6.54755 19.5579 6.62632 19.9163 6.74689C19.9097 6.72343 19.9029 6.70009 19.8957 6.67687C19.5533 5.56284 18.527 4.72309 17.2755 4.72309H6.87946Z" fill="#1C274C"/>
<path fill-rule="evenodd" clip-rule="evenodd" d="M3.59609 8.52881C2.74302 9.51563 2.94373 11.0402 3.34516 14.0894L3.72583 16.981C4.04063 19.3722 4.19803 20.5678 5.0055 21.2838C5.81298 21.9998 7.00393 21.9998 9.38583 21.9998H14.6142C16.9961 21.9998 18.187 21.9998 18.9945 21.2838C19.802 20.5678 19.9594 19.3722 20.2742 16.981L20.6548 14.0894C21.0563 11.0402 21.257 9.51563 20.4039 8.52881C19.5509 7.54199 18.0322 7.54199 14.9948 7.54199H9.00515C5.96782 7.54199 4.44915 7.54199 3.59609 8.52881ZM12.5128 11.3775L12.5655 11.406C12.8385 11.553 13.1079 11.706 13.3502 11.8568C13.6262 12.0285 13.9207 12.2309 14.2111 12.4408L14.2575 12.4744C14.729 12.8151 15.1565 13.1241 15.4567 13.4339C15.798 13.7862 16.0446 14.2086 16.0446 14.7709C16.0446 15.3333 15.798 15.7557 15.4567 16.108C15.1565 16.4178 14.729 16.7267 14.2575 17.0675L14.2111 17.101C13.9207 17.311 13.6262 17.5133 13.3502 17.6851C13.1079 17.8359 12.8385 17.9888 12.5655 18.1359L12.5128 18.1643C12.0483 18.4148 11.6153 18.6482 11.2389 18.768C10.8015 18.9073 10.3173 18.9334 9.84983 18.6225C9.4025 18.3249 9.21137 17.8793 9.11315 17.4301C9.02324 17.0189 8.98904 16.4942 8.95048 15.9024L8.94702 15.8493C8.92287 15.4793 8.90704 15.1089 8.90704 14.7709C8.90704 14.4329 8.92287 14.0626 8.94702 13.6925L8.95048 13.6395C8.98904 13.0477 9.02324 12.5229 9.11315 12.1117C9.21137 11.6626 9.4025 11.217 9.84983 10.9194C10.3173 10.6084 10.8015 10.6346 11.2389 10.7738C11.6153 10.8936 12.0483 11.1271 12.5128 11.3775ZM10.6335 12.1278C10.6462 12.1194 10.648 12.1204 10.648 12.1204C10.6595 12.1197 10.7061 12.1197 10.8108 12.1531C11.0449 12.2276 11.3588 12.3934 11.895 12.6823C12.1516 12.8206 12.3936 12.9583 12.6029 13.0886C12.8416 13.2372 13.1073 13.4192 13.3817 13.6176C13.9149 14.003 14.2364 14.2387 14.4378 14.4466C14.608 14.6222 14.6171 14.7009 14.6171 14.7709C14.6171 14.841 14.608 14.9197 14.4378 15.0953C14.2364 15.3032 13.9149 15.5388 13.3817 15.9243C13.1073 16.1226 12.8416 16.3047 12.6029 16.4533C12.3936 16.5835 12.1516 16.7213 11.895 16.8596C11.3588 17.1485 11.0449 17.3143 10.8108 17.3888C10.7061 17.4221 10.6595 17.4222 10.648 17.4214C10.648 17.4214 10.6462 17.4225 10.6335 17.414L10.6319 17.413C10.618 17.4044 10.5621 17.37 10.5069 17.1175C10.4435 16.8274 10.4146 16.4153 10.3714 15.754C10.3485 15.403 10.3346 15.0666 10.3346 14.7709C10.3346 14.4753 10.3485 14.1388 10.3714 13.7879C10.4146 13.1266 10.4435 12.7144 10.5069 12.4243C10.5621 12.1719 10.618 12.1374 10.6319 12.1289L10.6335 12.1278Z" fill="#1C274C"/>
</g>
</g>
</svg>
