<svg width="24" height="24" viewBox="0 0 24 24" fill="none" xmlns="http://www.w3.org/2000/svg">
<g id="Broken / Nature, Travel / Leaf">
<path id="Vector" d="M12 9.00006L16 5.00006M12 14.5001L15 11.5001M18.5 8.00006L16.875 9.62506M12 19.5001L13.875 17.6251M19.5 12.0001L15.75 15.7501" stroke="#1C274C" stroke-width="1.5" stroke-linecap="round"/>
<path id="Vector_2" d="M12 22C16.4183 22 20 18.3541 20 13.8567C20 9.39453 17.4467 4.18759 13.4629 2.32555C12.9986 2.10852 12.4993 2 12 2M12 22C7.58172 22 4 18.3541 4 13.8567C4 12.2707 4.32258 10.5906 4.91731 9M12 22V2M12 2C11.5007 2 11.0014 2.10852 10.5371 2.32555C8.93605 3.07388 7.56606 4.36246 6.5 5.92583" stroke="#1C274C" stroke-width="1.5" stroke-linecap="round"/>
</g>
</svg>
