<svg width="24" height="24" viewBox="0 0 24 24" fill="none" xmlns="http://www.w3.org/2000/svg">
<g id="Broken / Essentional, UI / Revote">
<path id="Vector" d="M19.682 19.6618L20.2163 20.1881L19.682 19.6618ZM19.682 4.06476L19.1477 4.59108L19.682 4.06476ZM4.85233 4.59108C5.14301 4.29599 5.13943 3.82113 4.84434 3.53045C4.54925 3.23977 4.07439 3.24334 3.78371 3.53843L4.85233 4.59108ZM8.4 2.77708L7.86567 2.25078C7.5781 2.54273 7.57811 3.01146 7.86569 3.30341L8.4 2.77708ZM9.6161 5.08037C9.90678 5.37546 10.3816 5.37904 10.6767 5.08836C10.9718 4.79768 10.9754 4.32282 10.6847 4.02773L9.6161 5.08037ZM10.6847 1.5263C10.9754 1.23121 10.9718 0.756345 10.6767 0.465675C10.3816 0.175005 9.90675 0.178596 9.61608 0.473695L10.6847 1.5263ZM21.75 11.9999C21.75 11.5857 21.4142 11.2499 21 11.2498C20.5858 11.2498 20.25 11.5856 20.25 11.9998L21.75 11.9999ZM20.1905 8.04305C20.2144 8.45658 20.569 8.77246 20.9825 8.74859C21.396 8.72473 21.7119 8.37015 21.688 7.95663L20.1905 8.04305ZM12 20.2498C9.85716 20.2498 8.32662 20.2482 7.1637 20.0895C6.02353 19.9339 5.34923 19.6399 4.85233 19.1355L3.78371 20.1881C4.60483 21.0217 5.65019 21.3968 6.96085 21.5757C8.24876 21.7515 9.9002 21.7498 12 21.7498V20.2498ZM2.25 11.8633C2.25 13.9959 2.24845 15.6697 2.42124 16.9744C2.59674 18.2995 2.96414 19.3561 3.78371 20.1881L4.85233 19.1355C4.35388 18.6295 4.06227 17.9403 3.90826 16.7775C3.75155 15.5942 3.75 14.0377 3.75 11.8633H2.25ZM12 21.7498C14.0998 21.7498 15.7512 21.7515 17.0391 21.5757C18.3498 21.3968 19.3952 21.0217 20.2163 20.1881L19.1477 19.1355C18.6508 19.6399 17.9765 19.9339 16.8363 20.0895C15.6734 20.2482 14.1428 20.2498 12 20.2498V21.7498ZM12 3.47674C14.1428 3.47674 15.6734 3.47838 16.8363 3.6371C17.9765 3.79272 18.6508 4.08663 19.1477 4.59108L20.2163 3.53843C19.3952 2.70486 18.3498 2.32977 17.0391 2.15088C15.7512 1.9751 14.0998 1.97674 12 1.97674V3.47674ZM3.75 11.8633C3.75 9.6889 3.75155 8.13243 3.90826 6.94912C4.06227 5.78624 4.35388 5.09709 4.85233 4.59108L3.78371 3.53843C2.96414 4.37044 2.59674 5.42705 2.42124 6.75219C2.24845 8.05689 2.25 9.73068 2.25 11.8633H3.75ZM12 1.97674C10.5848 1.97674 9.38003 1.97653 8.3621 2.02804L8.4379 3.52612C9.40971 3.47695 10.5719 3.47674 12 3.47674V1.97674ZM7.86569 3.30341L9.6161 5.08037L10.6847 4.02773L8.93431 2.25076L7.86569 3.30341ZM8.93432 3.30339L10.6847 1.5263L9.61608 0.473695L7.86567 2.25078L8.93432 3.30339ZM20.25 11.9998C20.2499 14.1275 20.2449 15.6532 20.0868 16.8143C19.9315 17.9548 19.6409 18.6348 19.1477 19.1355L20.2163 20.1881C21.0271 19.3651 21.3954 18.3221 21.5731 17.0166C21.748 15.7317 21.7499 14.0883 21.75 11.9999L20.25 11.9998ZM21.688 7.95663C21.5776 6.0436 21.2662 4.60429 20.2163 3.53843L19.1477 4.59108C19.7888 5.24192 20.0836 6.19051 20.1905 8.04305L21.688 7.95663Z" fill="#1C274C"/>
<path id="Vector_2" d="M8.5 12.5L10.5 14.5L15.5 9.5" stroke="#1C274C" stroke-width="1.5" stroke-linecap="round" stroke-linejoin="round"/>
</g>
</svg>
