<svg width="24" height="24" viewBox="0 0 24 24" fill="none" xmlns="http://www.w3.org/2000/svg">
<g id="Line Duotone / Shopping, Ecommerce / Bag Music">
<path id="Vector" d="M3.74157 20.5545C4.94119 22 7.17389 22 11.6393 22H12.3605C16.8259 22 19.0586 22 20.2582 20.5545M3.74157 20.5545C2.54194 19.1091 2.9534 16.9146 3.77633 12.5257C4.36155 9.40452 4.65416 7.84393 5.76506 6.92196M3.74157 20.5545V20.5545ZM20.2582 20.5545C21.4578 19.1091 21.0464 16.9146 20.2235 12.5257C19.6382 9.40452 19.3456 7.84393 18.2347 6.92196M20.2582 20.5545V20.5545ZM18.2347 6.92196C17.1238 6 15.5361 6 12.3605 6H11.6393C8.46374 6 6.87596 6 5.76506 6.92196M18.2347 6.92196V6.92196ZM5.76506 6.92196V6.92196Z" stroke="#1C274C" stroke-width="1.5"/>
<path id="Vector_2" opacity="0.5" d="M9 6V5C9 3.34315 10.3431 2 12 2C13.6569 2 15 3.34315 15 5V6" stroke="#1C274C" stroke-width="1.5" stroke-linecap="round"/>
<path id="Vector_3" opacity="0.5" d="M12.7416 10.6292L12.4062 9.95835L12.4062 9.95835L12.7416 10.6292ZM14.0584 9.97081L13.7229 9.29999V9.29999L14.0584 9.97081ZM13.9416 13.0292L13.6062 12.3584L13.6062 12.3584L13.9416 13.0292ZM12.0598 12.7225L12.7649 12.4671V12.4671L12.0598 12.7225ZM13.1159 13.3752L13.029 12.6303H13.029L13.1159 13.3752ZM15.9822 11.57L16.7188 11.711V11.711L15.9822 11.57ZM15.6074 12.1764L16.0629 12.7722L16.0629 12.7722L15.6074 12.1764ZM14.8841 9.62476L14.971 10.3697L14.8841 9.62476ZM15.9402 10.2775L15.2351 10.5329V10.5329L15.9402 10.2775ZM12.3926 10.8236L12.8482 11.4194L12.8482 11.4194L12.3926 10.8236ZM12.0178 11.43L11.2812 11.289V11.289L12.0178 11.43ZM11.25 17C11.25 17.6903 10.6904 18.25 10 18.25V19.75C11.5188 19.75 12.75 18.5188 12.75 17H11.25ZM10 18.25C9.30964 18.25 8.75 17.6903 8.75 17H7.25C7.25 18.5188 8.48122 19.75 10 19.75V18.25ZM8.75 17C8.75 16.3096 9.30964 15.75 10 15.75V14.25C8.48122 14.25 7.25 15.4812 7.25 17H8.75ZM10 15.75C10.6904 15.75 11.25 16.3096 11.25 17H12.75C12.75 15.4812 11.5188 14.25 10 14.25V15.75ZM12.75 17V12H11.25V17H12.75ZM13.0771 11.3L14.3938 10.6416L13.7229 9.29999L12.4062 9.95835L13.0771 11.3ZM14.9229 11.7L13.6062 12.3584L14.2771 13.7L15.5938 13.0416L14.9229 11.7ZM11.25 11.8292C11.25 12.0637 11.2498 12.2691 11.2585 12.4355C11.2672 12.5998 11.2866 12.7901 11.3546 12.978L12.7649 12.4671C12.7732 12.4899 12.7627 12.4763 12.7564 12.3566C12.7502 12.239 12.75 12.0802 12.75 11.8292H11.25ZM13.6062 12.3584C13.3817 12.4706 13.2396 12.5414 13.1316 12.5885C13.0217 12.6364 13.0049 12.6331 13.029 12.6303L13.2028 14.1202C13.4012 14.097 13.5801 14.0293 13.731 13.9635C13.8837 13.8969 14.0673 13.8049 14.2771 13.7L13.6062 12.3584ZM11.3546 12.978C11.6311 13.7413 12.3963 14.2142 13.2028 14.1202L13.029 12.6303C12.9138 12.6437 12.8044 12.5762 12.7649 12.4671L11.3546 12.978ZM15.25 11.1708C15.25 11.2779 15.2499 11.339 15.2482 11.3853C15.2468 11.4268 15.2446 11.4339 15.2455 11.429L16.7188 11.711C16.7532 11.5313 16.75 11.3445 16.75 11.1708H15.25ZM15.5938 13.0416C15.7491 12.964 15.9176 12.8833 16.0629 12.7722L15.1518 11.5806C15.1559 11.5775 15.1505 11.5826 15.114 11.6025C15.0734 11.6247 15.0188 11.6521 14.9229 11.7L15.5938 13.0416ZM15.2455 11.429C15.234 11.4893 15.2006 11.5433 15.1518 11.5806L16.0629 12.7722C16.4045 12.511 16.638 12.1333 16.7188 11.711L15.2455 11.429ZM14.3938 10.6416C14.6183 10.5294 14.7604 10.4586 14.8684 10.4115C14.9783 10.3636 14.9951 10.3669 14.971 10.3697L14.7972 8.87981C14.5988 8.90296 14.4199 8.9707 14.269 9.03647C14.1163 9.10304 13.9327 9.1951 13.7229 9.29999L14.3938 10.6416ZM16.75 11.1708C16.75 10.9363 16.7502 10.7309 16.7415 10.5645C16.7328 10.4002 16.7134 10.2099 16.6454 10.022L15.2351 10.5329C15.2268 10.5101 15.2373 10.5237 15.2436 10.6434C15.2498 10.761 15.25 10.9198 15.25 11.1708H16.75ZM14.971 10.3697C15.0862 10.3563 15.1956 10.4238 15.2351 10.5329L16.6454 10.022C16.3689 9.25868 15.6037 8.78575 14.7972 8.87981L14.971 10.3697ZM12.4062 9.95835C12.2509 10.036 12.0824 10.1167 11.9371 10.2278L12.8482 11.4194C12.8441 11.4225 12.8495 11.4174 12.886 11.3975C12.9266 11.3753 12.9812 11.3479 13.0771 11.3L12.4062 9.95835ZM12.75 11.8292C12.75 11.722 12.7501 11.661 12.7518 11.6147C12.7532 11.5732 12.7554 11.566 12.7545 11.571L11.2812 11.289C11.2468 11.4687 11.25 11.6555 11.25 11.8292H12.75ZM11.9371 10.2278C11.5955 10.489 11.362 10.8667 11.2812 11.289L12.7545 11.571C12.766 11.5107 12.7994 11.4567 12.8482 11.4194L11.9371 10.2278Z" fill="#1C274C"/>
</g>
</svg>
