<svg width="24" height="24" viewBox="0 0 24 24" fill="none" xmlns="http://www.w3.org/2000/svg">
<g id="Line Duotone / Shopping, Ecommerce / Bag 3">
<path id="Vector" d="M3.74157 18.5545C4.94119 20 7.17389 20 11.6393 20H12.3605C16.8259 20 19.0586 20 20.2582 18.5545M3.74157 18.5545C2.54194 17.1091 2.9534 14.9146 3.77633 10.5257C4.36155 7.40452 4.65416 5.84393 5.76506 4.92196M3.74157 18.5545C3.74156 18.5545 3.74157 18.5545 3.74157 18.5545ZM20.2582 18.5545C21.4578 17.1091 21.0464 14.9146 20.2235 10.5257C19.6382 7.40452 19.3456 5.84393 18.2347 4.92196M20.2582 18.5545C20.2582 18.5545 20.2582 18.5545 20.2582 18.5545ZM18.2347 4.92196C17.1238 4 15.5361 4 12.3605 4H11.6393C8.46374 4 6.87596 4 5.76506 4.92196M18.2347 4.92196C18.2347 4.92196 18.2347 4.92196 18.2347 4.92196ZM5.76506 4.92196C5.76506 4.92196 5.76506 4.92196 5.76506 4.92196Z" stroke="#1C274C" stroke-width="1.5"/>
<path id="Vector_2" opacity="0.5" d="M9.1709 8C9.58273 9.16519 10.694 10 12.0002 10C13.3064 10 14.4177 9.16519 14.8295 8" stroke="#1C274C" stroke-width="1.5" stroke-linecap="round"/>
</g>
</svg>
