<svg width="24" height="24" viewBox="0 0 24 24" fill="none" xmlns="http://www.w3.org/2000/svg">
<g id="Bold Duotone / Messages, Coversation / Square Forward">
<path id="Vector" opacity="0.5" d="M1 13.5289C1 8.862 1 6.52855 2.44982 5.07873C3.89964 3.62891 6.2331 3.62891 10.9 3.62891C15.5669 3.62891 17.9004 3.62891 19.3502 5.07873C20.8 6.52855 20.8 8.862 20.8 13.5289C20.8 18.1958 20.8 20.5293 19.3502 21.9791C17.9004 23.4289 15.5669 23.4289 10.9 23.4289C6.2331 23.4289 3.89964 23.4289 2.44982 21.9791C1 20.5293 1 18.1958 1 13.5289Z" fill="#1C274C"/>
<path id="Vector_2" d="M17.6703 1.90726L20.2633 4.15452C22.0483 5.70149 22.9408 6.47497 22.9408 7.47955C22.9408 8.48414 22.0483 9.25762 20.2633 10.8046L17.6703 13.0519C16.8855 13.7321 16.493 14.0722 16.1715 13.9254C15.8499 13.7786 15.8499 13.2592 15.8499 12.2206V10.5438C13.1999 10.5438 10.3726 11.5318 8.64962 13.2434C8.12486 13.7646 7.86248 14.0252 7.72286 13.9591C7.58324 13.893 7.61571 13.5563 7.68065 12.883C8.32892 6.1615 12.7424 4.41527 15.8499 4.41527V2.73851C15.8499 1.69987 15.8499 1.18055 16.1715 1.03373C16.493 0.886898 16.8855 1.22702 17.6703 1.90726Z" fill="#1C274C"/>
</g>
</svg>
