<svg width="24" height="24" viewBox="0 0 24 24" fill="none" xmlns="http://www.w3.org/2000/svg">
<g id="Outline / Users / User Block Rounded">
<g id="Vector">
<path fill-rule="evenodd" clip-rule="evenodd" d="M12 1.25C9.37665 1.25 7.25 3.37665 7.25 6C7.25 8.62335 9.37665 10.75 12 10.75C14.6234 10.75 16.75 8.62335 16.75 6C16.75 3.37665 14.6234 1.25 12 1.25ZM8.75 6C8.75 4.20507 10.2051 2.75 12 2.75C13.7949 2.75 15.25 4.20507 15.25 6C15.25 7.79493 13.7949 9.25 12 9.25C10.2051 9.25 8.75 7.79493 8.75 6Z" fill="#1C274C"/>
<path fill-rule="evenodd" clip-rule="evenodd" d="M14.25 18C14.25 15.9289 15.9289 14.25 18 14.25C20.0711 14.25 21.75 15.9289 21.75 18C21.75 20.0711 20.0711 21.75 18 21.75C15.9289 21.75 14.25 20.0711 14.25 18ZM15.9693 18.97L18.9701 15.9693C18.6763 15.8287 18.3474 15.75 18 15.75C16.7574 15.75 15.75 16.7574 15.75 18C15.75 18.3473 15.8287 18.6763 15.9693 18.97ZM18 20.25C17.6526 20.25 17.3236 20.1713 17.0299 20.0307L20.0307 17.0299C20.1713 17.3237 20.25 17.6526 20.25 18C20.25 19.2426 19.2426 20.25 18 20.25Z" fill="#1C274C"/>
<path d="M5.75 17C5.75 16.2807 6.26701 15.483 7.42236 14.8228C8.55649 14.1747 10.1733 13.75 12 13.75C12.8286 13.75 13.6176 13.8375 14.3399 13.9953C14.7445 14.0838 15.1443 13.8274 15.2327 13.4228C15.3211 13.0181 15.0648 12.6184 14.6601 12.5299C13.8296 12.3484 12.933 12.25 12 12.25C9.96067 12.25 8.07752 12.7208 6.67815 13.5204C5.3 14.3079 4.25 15.5101 4.25 17C4.25 18.4899 5.3 19.6921 6.67815 20.4796C8.07752 21.2792 9.96067 21.75 12 21.75C12.3598 21.75 12.7141 21.7354 13.0611 21.707C13.4739 21.6733 13.7813 21.3112 13.7475 20.8984C13.7138 20.4856 13.3517 20.1782 12.9389 20.212C12.6327 20.237 12.3192 20.25 12 20.25C10.1733 20.25 8.55649 19.8253 7.42236 19.1772C6.26701 18.517 5.75 17.7193 5.75 17Z" fill="#1C274C"/>
</g>
</g>
</svg>
