<svg width="24" height="24" viewBox="0 0 24 24" fill="none" xmlns="http://www.w3.org/2000/svg">
<g id="Outline / Users / User Plus">
<g id="Vector">
<path fill-rule="evenodd" clip-rule="evenodd" d="M5.25013 6C5.25013 3.37665 7.37678 1.25 10.0001 1.25C12.6235 1.25 14.7501 3.37665 14.7501 6C14.7501 8.62335 12.6235 10.75 10.0001 10.75C7.37678 10.75 5.25013 8.62335 5.25013 6ZM10.0001 2.75C8.20521 2.75 6.75013 4.20507 6.75013 6C6.75013 7.79493 8.20521 9.25 10.0001 9.25C11.7951 9.25 13.2501 7.79493 13.2501 6C13.2501 4.20507 11.7951 2.75 10.0001 2.75Z" fill="#1C274C"/>
<path fill-rule="evenodd" clip-rule="evenodd" d="M3.97558 13.6643C5.55506 12.7759 7.68658 12.25 10.0001 12.25C12.3137 12.25 14.4452 12.7759 16.0247 13.6643C17.5807 14.5396 18.7501 15.8661 18.7501 17.5L18.7502 17.602C18.7513 18.7638 18.7527 20.222 17.4737 21.2635C16.8443 21.7761 15.9637 22.1406 14.7739 22.3815C13.5809 22.6229 12.0259 22.75 10.0001 22.75C7.97436 22.75 6.4194 22.6229 5.22634 22.3815C4.03661 22.1406 3.15602 21.7761 2.52655 21.2635C1.24752 20.222 1.24894 18.7638 1.25007 17.602L1.25013 17.5C1.25013 15.8661 2.41962 14.5396 3.97558 13.6643ZM4.71098 14.9717C3.37151 15.7251 2.75013 16.6487 2.75013 17.5C2.75013 18.8078 2.79045 19.544 3.47372 20.1004C3.84425 20.4022 4.46366 20.6967 5.52393 20.9113C6.58087 21.1252 8.02591 21.25 10.0001 21.25C11.9744 21.25 13.4194 21.1252 14.4763 20.9113C15.5366 20.6967 16.156 20.4022 16.5265 20.1004C17.2098 19.544 17.2501 18.8078 17.2501 17.5C17.2501 16.6487 16.6288 15.7251 15.2893 14.9717C13.9733 14.2315 12.1049 13.75 10.0001 13.75C7.89541 13.75 6.02693 14.2315 4.71098 14.9717Z" fill="#1C274C"/>
<path d="M19.7501 8C19.7501 7.58579 19.4143 7.25 19.0001 7.25C18.5859 7.25 18.2501 7.58579 18.2501 8V9.25002H17.0001C16.5859 9.25002 16.2501 9.5858 16.2501 10C16.2501 10.4142 16.5859 10.75 17.0001 10.75H18.2501V12C18.2501 12.4142 18.5859 12.75 19.0001 12.75C19.4143 12.75 19.7501 12.4142 19.7501 12V10.75H21.0001C21.4143 10.75 21.7501 10.4142 21.7501 10C21.7501 9.5858 21.4143 9.25002 21.0001 9.25002H19.7501V8Z" fill="#1C274C"/>
</g>
</g>
</svg>
