<svg width="24" height="24" viewBox="0 0 24 24" fill="none" xmlns="http://www.w3.org/2000/svg">
<g id="Outline / Users / User Heart">
<g id="Vector">
<path fill-rule="evenodd" clip-rule="evenodd" d="M5.25013 6C5.25013 3.37665 7.37678 1.25 10.0001 1.25C12.6235 1.25 14.7501 3.37665 14.7501 6C14.7501 8.62335 12.6235 10.75 10.0001 10.75C7.37678 10.75 5.25013 8.62335 5.25013 6ZM10.0001 2.75C8.20521 2.75 6.75013 4.20507 6.75013 6C6.75013 7.79493 8.20521 9.25 10.0001 9.25C11.7951 9.25 13.2501 7.79493 13.2501 6C13.2501 4.20507 11.7951 2.75 10.0001 2.75Z" fill="#1C274C"/>
<path fill-rule="evenodd" clip-rule="evenodd" d="M3.97558 13.6643C5.55506 12.7759 7.68658 12.25 10.0001 12.25C12.3137 12.25 14.4452 12.7759 16.0247 13.6643C17.5807 14.5396 18.7501 15.8661 18.7501 17.5L18.7502 17.602C18.7513 18.7638 18.7527 20.222 17.4737 21.2635C16.8443 21.7761 15.9637 22.1406 14.7739 22.3815C13.5809 22.6229 12.0259 22.75 10.0001 22.75C7.97436 22.75 6.4194 22.6229 5.22634 22.3815C4.03661 22.1406 3.15602 21.7761 2.52655 21.2635C1.24752 20.222 1.24894 18.7638 1.25007 17.602L1.25013 17.5C1.25013 15.8661 2.41962 14.5396 3.97558 13.6643ZM4.71098 14.9717C3.37151 15.7251 2.75013 16.6487 2.75013 17.5C2.75013 18.8078 2.79045 19.544 3.47372 20.1004C3.84425 20.4022 4.46366 20.6967 5.52393 20.9113C6.58087 21.1252 8.02591 21.25 10.0001 21.25C11.9744 21.25 13.4194 21.1252 14.4763 20.9113C15.5366 20.6967 16.156 20.4022 16.5265 20.1004C17.2098 19.544 17.2501 18.8078 17.2501 17.5C17.2501 16.6487 16.6288 15.7251 15.2893 14.9717C13.9733 14.2315 12.1049 13.75 10.0001 13.75C7.89541 13.75 6.02693 14.2315 4.71098 14.9717Z" fill="#1C274C"/>
<path fill-rule="evenodd" clip-rule="evenodd" d="M22.7501 9.69672C22.7501 8.59954 22.1877 7.70123 21.2545 7.37409C20.5252 7.11843 19.7164 7.26275 19.0001 7.73431C18.2838 7.26275 17.4751 7.11843 16.7458 7.3741C15.8126 7.70123 15.2501 8.59955 15.2501 9.69673C15.2501 10.4666 15.6913 11.1479 16.125 11.6493C16.5783 12.1735 17.1393 12.6327 17.5993 12.9703L17.6698 13.0223C18.0211 13.282 18.4208 13.5776 19.0001 13.5776C19.5794 13.5776 19.9792 13.282 20.3305 13.0223L20.401 12.9703C20.861 12.6327 21.4219 12.1735 21.8752 11.6493C22.3089 11.1479 22.7501 10.4666 22.7501 9.69672ZM19.5188 9.23307C20.0444 8.72986 20.508 8.70189 20.7583 8.78964C20.9876 8.87002 21.2501 9.12068 21.2501 9.69672C21.2501 9.91131 21.1089 10.2424 20.7407 10.6681C20.392 11.0713 19.9316 11.4542 19.5136 11.7609C19.2874 11.9269 19.18 12.0034 19.094 12.0488C19.0396 12.0775 19.0246 12.0776 19.0001 12.0776C18.9757 12.0776 18.9606 12.0775 18.9062 12.0488C18.8203 12.0034 18.7129 11.9269 18.4867 11.7609C18.0687 11.4542 17.6082 11.0712 17.2596 10.6681C16.8914 10.2423 16.7501 9.91131 16.7501 9.69673C16.7501 9.12068 17.0127 8.87002 17.242 8.78964C17.4923 8.70189 17.9559 8.72986 18.4814 9.23307C18.7715 9.51077 19.2288 9.51077 19.5188 9.23307Z" fill="#1C274C"/>
</g>
</g>
</svg>
