<svg width="24" height="24" viewBox="0 0 24 24" fill="none" xmlns="http://www.w3.org/2000/svg">
<g id="Outline / Users / User Check Rounded">
<g id="Vector">
<path fill-rule="evenodd" clip-rule="evenodd" d="M7.25 6C7.25 3.37665 9.37665 1.25 12 1.25C14.6234 1.25 16.75 3.37665 16.75 6C16.75 8.62335 14.6234 10.75 12 10.75C9.37665 10.75 7.25 8.62335 7.25 6ZM12 2.75C10.2051 2.75 8.75 4.20507 8.75 6C8.75 7.79493 10.2051 9.25 12 9.25C13.7949 9.25 15.25 7.79493 15.25 6C15.25 4.20507 13.7949 2.75 12 2.75Z" fill="#1C274C"/>
<path d="M7.42236 14.8228C6.26701 15.483 5.75 16.2807 5.75 17C5.75 17.7193 6.26701 18.517 7.42236 19.1772C8.55649 19.8253 10.1733 20.25 12 20.25C13.2336 20.25 14.3771 20.0561 15.3419 19.7268C15.7339 19.593 16.1602 19.8023 16.294 20.1944C16.4277 20.5864 16.2184 21.0126 15.8264 21.1464C14.6944 21.5327 13.3862 21.75 12 21.75C9.96067 21.75 8.07752 21.2792 6.67815 20.4796C5.3 19.6921 4.25 18.4899 4.25 17C4.25 15.5101 5.3 14.3079 6.67815 13.5204C8.07752 12.7208 9.96067 12.25 12 12.25C14.7302 12.25 17.2274 13.0978 18.619 14.4947C18.9113 14.7882 18.9104 15.263 18.617 15.5554C18.3235 15.8477 17.8486 15.8468 17.5563 15.5533C16.5394 14.5326 14.4864 13.75 12 13.75C10.1733 13.75 8.55649 14.1747 7.42236 14.8228Z" fill="#1C274C"/>
<path d="M21.5857 17.4685C21.8444 17.1451 21.792 16.6731 21.4685 16.4143C21.1451 16.1556 20.6731 16.208 20.4143 16.5315L18.9378 18.3772L18.8843 18.3237L18.5303 17.9697C18.2374 17.6768 17.7626 17.6768 17.4697 17.9697C17.1768 18.2626 17.1768 18.7374 17.4697 19.0303L18.4697 20.0303C18.6205 20.1812 18.8285 20.2607 19.0415 20.2489C19.2545 20.2371 19.4524 20.1351 19.5857 19.9685L21.5857 17.4685Z" fill="#1C274C"/>
</g>
</g>
</svg>
