<svg width="24" height="24" viewBox="0 0 24 24" fill="none" xmlns="http://www.w3.org/2000/svg">
<g id="Line Duotone / Astronomy / Rocket 2">
<path id="Vector" d="M22.0001 5.36519L22.7501 5.36519V5.36519H22.0001ZM9.4546 13.3029L9.98381 12.7714L9.4546 13.3029ZM9.4546 8.54376L9.98381 9.07521L9.4546 8.54376ZM15.4286 14.4926L14.8994 13.9612L15.4286 14.4926ZM10.6494 14.4926L10.1202 15.0241L10.6494 14.4926ZM20.5154 9.42733L21.0446 9.95878L20.5154 9.42733ZM22.0001 5.85801L21.2501 5.85801V5.85801H22.0001ZM14.5413 3.47846L14.0121 2.94701V2.94701L14.5413 3.47846ZM13.4905 16.0931L13.2315 15.3892L13.4905 16.0931ZM7.8623 10.4352L8.55803 10.7153L7.8623 10.4352ZM19.9862 8.89589L14.8994 13.9612L15.9578 15.0241L21.0446 9.95878L19.9862 8.89589ZM11.1786 13.9612L9.98381 12.7714L8.92539 13.8343L10.1202 15.0241L11.1786 13.9612ZM9.98381 9.07521L15.0705 4.00991L14.0121 2.94701L8.9254 8.01231L9.98381 9.07521ZM18.1257 2.75H18.6207V1.25H18.1257V2.75ZM21.2501 5.36519L21.2501 5.85801L22.7501 5.85802L22.7501 5.36519L21.2501 5.36519ZM18.6207 2.75C19.4383 2.75 19.9764 2.75158 20.3752 2.80497C20.7527 2.85552 20.8912 2.93987 20.976 3.02427L22.0344 1.96137C21.6242 1.55295 21.117 1.3909 20.5743 1.31824C20.0528 1.24842 19.3961 1.25 18.6207 1.25V2.75ZM22.7501 5.36519C22.7501 4.5933 22.7517 3.93861 22.6815 3.41858C22.6083 2.87664 22.445 2.37023 22.0344 1.96137L20.976 3.02427C21.0603 3.10823 21.1444 3.24483 21.195 3.61928C21.2485 4.01563 21.2501 4.55072 21.2501 5.36519H22.7501ZM9.98381 12.7714C9.40553 12.1956 9.02646 11.8158 8.78266 11.4976C8.55202 11.1966 8.51489 11.0409 8.51489 10.9233H7.01489C7.01489 11.5027 7.25938 11.9759 7.59198 12.4099C7.91142 12.8269 8.3772 13.2884 8.92539 13.8343L9.98381 12.7714ZM10.1202 15.0241C10.6684 15.57 11.1319 16.0338 11.5505 16.3518C11.9865 16.683 12.4601 16.9252 13.039 16.9252V15.4252C12.918 15.4252 12.7601 15.387 12.4579 15.1574C12.1382 14.9145 11.7569 14.537 11.1786 13.9612L10.1202 15.0241ZM21.0446 9.95878C21.7336 9.27266 22.2359 8.79124 22.4996 8.15734L21.1147 7.58125C20.9925 7.87498 20.7623 8.12304 19.9862 8.89589L21.0446 9.95878ZM21.2501 5.85801C21.2501 6.95105 21.2367 7.28785 21.1147 7.58125L22.4996 8.15734C22.7634 7.5231 22.7501 6.82826 22.7501 5.85801H21.2501ZM15.0705 4.00991C15.8463 3.23743 16.0958 3.00759 16.3919 2.88546L15.82 1.49878C15.1845 1.76089 14.7015 2.26053 14.0121 2.94701L15.0705 4.00991ZM18.1257 1.25C17.1507 1.25 16.4551 1.23682 15.82 1.49878L16.3919 2.88546C16.6884 2.76318 17.0287 2.75 18.1257 2.75V1.25ZM14.8994 13.9612C14.4537 14.4051 14.1218 14.735 13.8374 14.9802C13.5518 15.2266 13.3678 15.3391 13.2315 15.3892L13.7494 16.797C14.138 16.654 14.4843 16.4032 14.8172 16.1161C15.1513 15.8279 15.526 15.4541 15.9578 15.0241L14.8994 13.9612ZM13.2315 15.3892C13.1613 15.415 13.1008 15.4252 13.039 15.4252V16.9252C13.2865 16.9252 13.522 16.8806 13.7494 16.797L13.2315 15.3892ZM8.9254 8.01231C8.50388 8.43205 8.13652 8.79732 7.85074 9.12306C7.56633 9.44725 7.31657 9.78252 7.16658 10.1551L8.55803 10.7153C8.61357 10.5773 8.73196 10.3931 8.97831 10.1123C9.2233 9.83306 9.54933 9.50786 9.98381 9.07521L8.9254 8.01231ZM7.16658 10.1551C7.06832 10.3991 7.01489 10.6534 7.01489 10.9233H8.51489C8.51489 10.8585 8.52641 10.7938 8.55803 10.7153L7.16658 10.1551Z" fill="#1C274C"/>
<path id="Vector_2" opacity="0.5" d="M7.70886 10.2825L8.23887 9.75182L8.23807 9.75103L7.70886 10.2825ZM11.4377 6.79466C11.7861 7.01864 12.2501 6.91776 12.4741 6.56932C12.6981 6.22089 12.5972 5.75686 12.2488 5.53288L11.4377 6.79466ZM11.2958 5.81187L10.8902 6.44276L10.8902 6.44276L11.2958 5.81187ZM9.06024 4.66617L9.16976 3.92421L9.06024 4.66617ZM4.79597 7.23425L5.32517 7.76571H5.32517L4.79597 7.23425ZM7.50536 4.86464L7.79249 5.5575L7.50536 4.86464ZM5.35102 8.45319L5.62702 7.75582L5.62702 7.75582L5.35102 8.45319ZM5.45822 8.49603L5.17282 9.1896L5.45822 8.49603ZM6.87303 9.45016L7.40224 8.91872H7.40224L6.87303 9.45016ZM6.79108 9.3691L6.26913 9.90769L6.79108 9.3691ZM5.0216 8.32282L4.74561 9.02019L4.74561 9.02019L5.0216 8.32282ZM13.735 16.3379L13.205 16.8685C13.2166 16.8801 13.2286 16.8913 13.2409 16.9021L13.735 16.3379ZM18.4484 11.7064C18.223 11.3589 17.7586 11.2598 17.4111 11.4851C17.0635 11.7104 16.9644 12.1748 17.1897 12.5224L18.4484 11.7064ZM18.1724 12.6595L17.5431 13.0675V13.0675L18.1724 12.6595ZM19.323 14.8857L20.0648 14.7752L19.323 14.8857ZM16.744 19.132L17.2732 19.6634L17.2732 19.6634L16.744 19.132ZM19.1237 16.434L19.8157 16.7232L19.1237 16.434ZM15.6917 19.0096L16.3882 18.7315L15.6917 19.0096ZM15.2791 18.0608L14.6217 18.4218L15.2791 18.0608ZM14.1899 16.7362L14.7191 16.2048L14.7021 16.1878L14.684 16.172L14.1899 16.7362ZM14.9015 17.4891L15.4915 17.0262L14.9015 17.4891ZM16.6709 19.2048L16.1417 18.6733L16.1417 18.6733L16.6709 19.2048ZM14.0204 15.5629C13.7273 15.2702 13.2524 15.2704 12.9597 15.5635C12.667 15.8566 12.6673 16.3315 12.9604 16.6242L14.0204 15.5629ZM7.33218 10.9663C7.62525 11.259 8.10013 11.2587 8.39284 10.9656C8.68556 10.6726 8.68527 10.1977 8.3922 9.90496L7.33218 10.9663ZM12.2488 5.53288L11.7014 5.18098L10.8902 6.44276L11.4377 6.79466L12.2488 5.53288ZM11.7014 5.18098C11.162 4.83425 10.722 4.55077 10.3423 4.34645C9.95322 4.13704 9.58257 3.98514 9.16976 3.92421L8.95073 5.40813C9.1263 5.43404 9.32436 5.50204 9.63143 5.6673C9.94793 5.83764 10.3315 6.08359 10.8902 6.44276L11.7014 5.18098ZM5.32517 7.76571C5.81542 7.27754 6.33923 6.75615 6.80949 6.32767C7.04443 6.11361 7.25705 5.931 7.43833 5.79144C7.63121 5.64296 7.74622 5.57667 7.79249 5.5575L7.21823 4.17177C6.98214 4.26961 6.73911 4.43673 6.52332 4.60285C6.29593 4.7779 6.04924 4.99111 5.79924 5.21889C5.29965 5.67409 4.75113 6.22049 4.26677 6.70279L5.32517 7.76571ZM9.16976 3.92421C8.5128 3.82724 7.83793 3.91496 7.21823 4.17177L7.79249 5.5575C8.16883 5.40154 8.56995 5.35192 8.95073 5.40813L9.16976 3.92421ZM4.74561 9.02019L5.07503 9.15056L5.62702 7.75582L5.2976 7.62544L4.74561 9.02019ZM6.34382 9.98161L7.17965 10.8139L8.23807 9.75103L7.40224 8.91872L6.34382 9.98161ZM5.07503 9.15056C5.13063 9.17256 5.15208 9.18107 5.17282 9.1896L5.74363 7.80246C5.71136 7.78918 5.67901 7.77639 5.62702 7.75582L5.07503 9.15056ZM7.40224 8.91872C7.36266 8.8793 7.33806 8.85478 7.31302 8.83052L6.26913 9.90769C6.2852 9.92326 6.30154 9.9395 6.34382 9.98161L7.40224 8.91872ZM5.17282 9.1896C5.58092 9.35754 5.95297 9.6013 6.26913 9.90769L7.31302 8.83052C6.86006 8.39155 6.3274 8.04268 5.74363 7.80246L5.17282 9.1896ZM4.26677 6.70279C3.54282 7.42368 3.79893 8.64553 4.74561 9.02019L5.2976 7.62545C5.35173 7.64687 5.36997 7.7211 5.32517 7.76571L4.26677 6.70279ZM17.1897 12.5224L17.5431 13.0675L18.8017 12.2515L18.4484 11.7064L17.1897 12.5224ZM16.2148 18.6005L16.1417 18.6733L17.2001 19.7362L17.2732 19.6634L16.2148 18.6005ZM17.5431 13.0675C17.9038 13.624 18.1507 14.0057 18.3217 14.3207C18.4875 14.6263 18.5553 14.8227 18.5811 14.9961L20.0648 14.7752C20.0034 14.3628 19.8504 13.9928 19.64 13.6052C19.4347 13.2269 19.1499 12.7886 18.8017 12.2515L17.5431 13.0675ZM17.2732 19.6634C17.7576 19.1811 18.3063 18.6349 18.7634 18.1374C18.9922 17.8884 19.2063 17.6428 19.3822 17.4163C19.5489 17.2014 19.7171 16.959 19.8157 16.7232L18.4317 16.1448C18.4127 16.1901 18.3465 16.3043 18.1973 16.4964C18.0572 16.6768 17.8739 16.8885 17.6589 17.1225C17.2286 17.5908 16.705 18.1123 16.2148 18.6005L17.2732 19.6634ZM18.5811 14.9961C18.6373 15.3735 18.5878 15.7712 18.4317 16.1448L19.8157 16.7232C20.074 16.1049 20.1624 15.4312 20.0648 14.7752L18.5811 14.9961ZM14.684 16.172L14.2291 15.7736L13.2409 16.9021L13.6958 17.3005L14.684 16.172ZM16.3882 18.7315C16.2023 18.2657 16.0876 17.9749 15.9365 17.6998L14.6217 18.4218C14.7185 18.598 14.7962 18.7892 14.9951 19.2876L16.3882 18.7315ZM13.6607 17.2677C14.0415 17.6469 14.1872 17.7938 14.3115 17.9521L15.4915 17.0262C15.2977 16.7792 15.0751 16.5593 14.7191 16.2048L13.6607 17.2677ZM15.9365 17.6998C15.8068 17.4635 15.658 17.2383 15.4915 17.0262L14.3115 17.9521C14.4275 18.1001 14.5313 18.2571 14.6217 18.4218L15.9365 17.6998ZM16.1417 18.6733C16.182 18.6332 16.236 18.6242 16.2733 18.6317C16.311 18.6392 16.3638 18.6704 16.3882 18.7315L14.9951 19.2876C15.3559 20.1916 16.5258 20.4077 17.2001 19.7362L16.1417 18.6733ZM14.265 15.8072L14.0204 15.5629L12.9604 16.6242L13.205 16.8685L14.265 15.8072ZM7.17886 10.8131L7.33218 10.9663L8.3922 9.90496L8.23887 9.75182L7.17886 10.8131Z" fill="#1C274C"/>
<path id="Vector_3" d="M5.5482 13L3.85646 14.6897C3.43177 15.1139 2.74321 15.1139 2.31852 14.6897C1.89383 14.2655 1.89383 13.5778 2.31852 13.1536L2.47231 13M11.0757 18.5696L9.38395 20.2593C8.95926 20.6835 8.95926 21.3712 9.38395 21.7954C9.80864 22.2195 10.4972 22.2195 10.9219 21.7954L11.0757 21.6418M6.93603 17.1588L5.22645 18.8308" stroke="#1C274C" stroke-width="1.5" stroke-linecap="round"/>
<path id="Vector_4" opacity="0.5" d="M10.6329 17.1855C10.9258 16.8926 10.9258 16.4177 10.6329 16.1248C10.34 15.8319 9.86514 15.8319 9.57224 16.1248L10.6329 17.1855ZM7.46982 18.2272C7.17692 18.5201 7.17692 18.995 7.46982 19.2879C7.76271 19.5808 8.23758 19.5808 8.53048 19.2879L7.46982 18.2272ZM7.85719 14.4131C8.15009 14.1202 8.15009 13.6454 7.85719 13.3525C7.5643 13.0596 7.08943 13.0596 6.79653 13.3525L7.85719 14.4131ZM4.67963 15.4694C4.38674 15.7623 4.38674 16.2372 4.67963 16.53C4.97252 16.8229 5.4474 16.8229 5.74029 16.53L4.67963 15.4694ZM9.57224 16.1248L7.46982 18.2272L8.53048 19.2879L10.6329 17.1855L9.57224 16.1248ZM6.79653 13.3525L4.67963 15.4694L5.74029 16.53L7.85719 14.4131L6.79653 13.3525Z" fill="#1C274C"/>
<path id="Vector_5" opacity="0.5" d="M12.3732 12.645C12.6667 12.3527 12.6677 11.8779 12.3754 11.5844C12.0831 11.2908 11.6083 11.2898 11.3148 11.5821L12.3732 12.645ZM10.581 14.4297L12.3732 12.645L11.3148 11.5821L9.52255 13.3668L10.581 14.4297ZM17.2888 8.0128C16.9216 8.37849 16.3248 8.37849 15.9576 8.01279L14.8992 9.07569C15.8517 10.0242 17.3947 10.0242 18.3472 9.07569L17.2888 8.0128ZM15.9576 8.01279C15.5921 7.64885 15.5921 7.06009 15.9576 6.69614L14.8992 5.63325C13.9449 6.58349 13.9449 8.12545 14.8992 9.07569L15.9576 8.01279ZM15.9576 6.69614C16.3248 6.33045 16.9216 6.33045 17.2888 6.69614L18.3472 5.63325C17.3947 4.68475 15.8517 4.68475 14.8992 5.63325L15.9576 6.69614ZM17.2888 6.69614C17.6543 7.06009 17.6543 7.64885 17.2888 8.0128L18.3472 9.07569C19.3015 8.12545 19.3015 6.58349 18.3472 5.63325L17.2888 6.69614Z" fill="#1C274C"/>
</g>
</svg>
