<svg width="24" height="24" viewBox="0 0 24 24" fill="none" xmlns="http://www.w3.org/2000/svg">
<g id="Line Duotone / Astronomy / Rocket">
<path id="Vector" d="M7.57991 15.0077L8.10944 14.4766L7.57991 15.0077ZM7.57991 9.53078L7.05038 8.99965H7.05038L7.57991 9.53078ZM14.4467 16.3769L13.9171 15.8458L14.4467 16.3769ZM8.95326 16.3769L8.42373 16.9081L8.95326 16.3769ZM11.7 18.3133V19.0633V18.3133ZM20.2935 10.5476L20.8231 11.0788L20.2935 10.5476ZM13.4268 3.70146L13.9563 4.23259L13.4268 3.70146ZM12.2189 18.2188L12.4781 18.9226L12.2189 18.2188ZM5.74966 11.7075L6.44551 11.9873L5.74966 11.7075ZM19.764 10.0165L13.9171 15.8458L14.9762 16.9081L20.8231 11.0788L19.764 10.0165ZM9.48279 15.8458L8.10944 14.4766L7.05037 15.5388L8.42373 16.9081L9.48279 15.8458ZM8.10944 10.0619L13.9563 4.23259L12.8972 3.17034L7.05038 8.99965L8.10944 10.0619ZM17.5468 2.75H18.1157V1.25H17.5468V2.75ZM21.2501 5.87277V6.43993H22.7501V5.87277H21.2501ZM18.1157 2.75C19.0524 2.75 19.6797 2.75158 20.1472 2.81425C20.5933 2.87405 20.7799 2.97688 20.9017 3.09828L21.9608 2.03603C21.5137 1.59027 20.9581 1.40953 20.3465 1.32754C19.7562 1.24842 19.0101 1.25 18.1157 1.25V2.75ZM22.7501 5.87277C22.7501 4.98122 22.7517 4.23688 22.6723 3.6478C22.5899 3.03692 22.4082 2.48209 21.9608 2.03603L20.9017 3.09828C21.0232 3.21937 21.1259 3.40453 21.1857 3.84826C21.2485 4.3138 21.2501 4.93869 21.2501 5.87277H22.7501ZM8.10944 14.4766C7.44701 13.8161 7.00477 13.373 6.71885 12.9994C6.44611 12.643 6.3877 12.4397 6.3877 12.2692H4.8877C4.8877 12.9009 5.15298 13.4214 5.52764 13.911C5.88913 14.3833 6.418 14.9084 7.05037 15.5388L8.10944 14.4766ZM8.42373 16.9081C9.05613 17.5386 9.58271 18.0658 10.0564 18.4262C10.5475 18.7997 11.0685 19.0633 11.7 19.0633V17.5633C11.5269 17.5633 11.322 17.5042 10.9646 17.2323C10.5897 16.9472 10.1452 16.5062 9.48279 15.8458L8.42373 16.9081ZM20.8231 11.0788C21.6216 10.2826 22.1785 9.74613 22.4709 9.04233L21.0857 8.46683C20.9346 8.83059 20.6495 9.13365 19.764 10.0165L20.8231 11.0788ZM21.2501 6.43993C21.2501 7.68852 21.2368 8.10332 21.0857 8.46683L22.4709 9.04233C22.7634 8.33828 22.7501 7.56584 22.7501 6.43993H21.2501ZM13.9563 4.23259C14.8415 3.35 15.1458 3.06532 15.5115 2.91431L14.9389 1.52788C14.2338 1.81908 13.6961 2.3739 12.8972 3.17034L13.9563 4.23259ZM17.5468 1.25C16.4171 1.25 15.6438 1.23679 14.9389 1.52788L15.5115 2.91431C15.8774 2.76321 16.2949 2.75 17.5468 2.75V1.25ZM13.9171 15.8458C13.4058 16.3556 13.0211 16.7386 12.6905 17.0241C12.3587 17.3106 12.1351 17.4504 11.9597 17.515L12.4781 18.9226C12.906 18.765 13.2919 18.4867 13.6709 18.1593C14.0513 17.8308 14.4788 17.404 14.9762 16.9081L13.9171 15.8458ZM11.9597 17.515C11.8673 17.5491 11.7848 17.5633 11.7 17.5633V19.0633C11.9707 19.0633 12.2283 19.0146 12.4781 18.9226L11.9597 17.515ZM7.05038 8.99965C6.5649 9.48367 6.14575 9.90103 5.82033 10.2724C5.49625 10.6423 5.21908 11.0167 5.05382 11.4277L6.44551 11.9873C6.51649 11.8108 6.66249 11.5874 6.94849 11.261C7.23315 10.9361 7.611 10.5588 8.10944 10.0619L7.05038 8.99965ZM5.05382 11.4277C4.94592 11.696 4.8877 11.9743 4.8877 12.2692H6.3877C6.3877 12.1791 6.40412 12.0902 6.44551 11.9873L5.05382 11.4277Z" fill="#1C274C"/>
<path id="Vector_2" opacity="0.5" d="M5.57332 11.5317L6.10365 11.0013L6.10286 11.0005L5.57332 11.5317ZM9.91958 7.42237C10.2679 7.64655 10.732 7.54592 10.9562 7.19761C11.1803 6.84931 11.0797 6.38522 10.7314 6.16104L9.91958 7.42237ZM9.69627 6.38673L10.1022 5.75607V5.75607L9.69627 6.38673ZM7.12664 5.06822L7.23629 4.32628L7.12664 5.06822ZM2.22514 8.02365L2.75467 8.55479H2.75467L2.22514 8.02365ZM5.33941 5.29662L5.62684 5.98936H5.62684L5.33941 5.29662ZM2.86314 9.42645L2.58685 10.1237H2.58686L2.86314 9.42645ZM2.98636 9.47575L3.27206 8.7823V8.7823L2.98636 9.47575ZM4.61259 10.5738L5.14212 10.0427L4.61259 10.5738ZM4.51839 10.4805L3.99611 11.0188L4.51839 10.4805ZM2.48449 9.27641L2.76078 8.57916L2.76078 8.57916L2.48449 9.27641ZM12.5 18.5004L11.9697 19.0307C11.9813 19.0423 11.9932 19.0535 12.0056 19.0644L12.5 18.5004ZM17.8238 13.2323C17.5987 12.8846 17.1344 12.7852 16.7867 13.0104C16.439 13.2355 16.3396 13.6999 16.5647 14.0475L17.8238 13.2323ZM17.6005 14.2672L16.9709 14.6749L17.6005 14.2672ZM18.923 16.8292L19.6648 16.7189L18.923 16.8292ZM15.9586 21.716L16.4882 22.2471L15.9586 21.716ZM18.6939 18.611L19.386 18.8999L18.6939 18.611ZM14.749 21.5751L15.4457 21.2974L14.749 21.5751ZM14.2748 20.4832L14.9324 20.1225L14.2748 20.4832ZM13.0229 18.9589L13.5524 18.4277L13.5354 18.4108L13.5173 18.3949L13.0229 18.9589ZM13.8408 19.8253L14.4311 19.3627L13.8408 19.8253ZM15.8746 21.7997L15.3451 21.2686L15.8746 21.7997ZM10.7314 6.16104L10.1022 5.75607L9.29036 7.0174L9.91958 7.42237L10.7314 6.16104ZM10.1022 5.75607C9.48075 5.35611 8.97919 5.03268 8.54751 4.80007C8.1064 4.56238 7.69319 4.3938 7.23629 4.32628L7.017 5.81016C7.2364 5.84258 7.47689 5.92707 7.83597 6.12056C8.20447 6.31913 8.64957 6.60498 9.29036 7.0174L10.1022 5.75607ZM2.75467 8.55479C3.31773 7.99343 3.92167 7.39152 4.46441 6.8964C4.73558 6.64902 4.98252 6.43658 5.19434 6.27332C5.41778 6.1011 5.55951 6.01729 5.62684 5.98936L5.05198 4.60388C4.79474 4.71062 4.52494 4.89541 4.27863 5.08526C4.02071 5.28406 3.73971 5.52712 3.45348 5.78823C2.88143 6.31009 2.2528 6.93703 1.69562 7.49252L2.75467 8.55479ZM7.23629 4.32628C6.50162 4.2177 5.7462 4.31584 5.05198 4.60388L5.62684 5.98936C6.07751 5.80237 6.55885 5.74245 7.017 5.81016L7.23629 4.32628ZM2.20821 9.97367L2.58685 10.1237L3.13942 8.72919L2.76078 8.57916L2.20821 9.97367ZM4.08306 11.1049L5.04379 12.0628L6.10286 11.0005L5.14212 10.0427L4.08306 11.1049ZM2.58686 10.1237C2.65049 10.1489 2.67596 10.159 2.70065 10.1692L3.27206 8.7823C3.23583 8.76738 3.19947 8.75298 3.13942 8.72919L2.58686 10.1237ZM5.14212 10.0427C5.09644 9.99713 5.06877 9.96952 5.04066 9.94225L3.99611 11.0188C4.01525 11.0373 4.03464 11.0567 4.08306 11.1049L5.14212 10.0427ZM2.70065 10.1692C3.18281 10.3679 3.62245 10.6562 3.99611 11.0188L5.04066 9.94225C4.53026 9.44702 3.93001 9.05338 3.27206 8.7823L2.70065 10.1692ZM1.69562 7.49252C0.921826 8.26397 1.19466 9.57205 2.20821 9.97367L2.76078 8.57916C2.75633 8.57739 2.75452 8.57607 2.75424 8.57586C2.75386 8.57558 2.75375 8.57546 2.75362 8.57529C2.75315 8.57473 2.75145 8.57223 2.75051 8.56769C2.74957 8.56316 2.75019 8.5604 2.75028 8.56006C2.75029 8.56003 2.75026 8.56007 2.75038 8.55986C2.75044 8.55977 2.75143 8.55801 2.75467 8.55479L1.69562 7.49252ZM16.5647 14.0475L16.9709 14.6749L18.23 13.8596L17.8238 13.2323L16.5647 14.0475ZM15.4291 21.1848L15.3451 21.2686L16.4041 22.3309L16.4882 22.2471L15.4291 21.1848ZM16.9709 14.6749C17.3846 15.3138 17.6713 15.7574 17.8703 16.1247C18.0643 16.4825 18.1488 16.7217 18.1811 16.9395L19.6648 16.7189C19.5969 16.2623 19.4275 15.8498 19.189 15.4098C18.9557 14.9793 18.6312 14.4791 18.23 13.8596L16.9709 14.6749ZM16.4882 22.2471C17.0453 21.6916 17.6742 21.0648 18.1976 20.4945C18.4595 20.2091 18.7033 19.9289 18.9028 19.6717C19.0931 19.4262 19.2787 19.1569 19.386 18.8999L18.0018 18.3221C17.974 18.3887 17.8901 18.5298 17.7174 18.7526C17.5536 18.9637 17.3406 19.2099 17.0925 19.4802C16.5959 20.0213 15.9922 20.6235 15.4291 21.1848L16.4882 22.2471ZM18.1811 16.9395C18.2488 17.3949 18.189 17.8736 18.0018 18.3221L19.386 18.8999C19.6753 18.207 19.7739 17.4526 19.6648 16.7189L18.1811 16.9395ZM13.5173 18.3949L12.9944 17.9365L12.0056 19.0644L12.5284 19.5228L13.5173 18.3949ZM15.4457 21.2974C15.231 20.7588 15.102 20.4317 14.9324 20.1225L13.6173 20.8439C13.7326 21.0541 13.8247 21.2818 14.0523 21.8528L15.4457 21.2974ZM12.4933 19.49C12.9291 19.9245 13.1025 20.0991 13.2505 20.288L14.4311 19.3627C14.2136 19.0851 13.9635 18.8375 13.5524 18.4277L12.4933 19.49ZM14.9324 20.1225C14.7863 19.8561 14.6186 19.6019 14.4311 19.3627L13.2505 20.288C13.3877 20.463 13.5104 20.649 13.6173 20.8439L14.9324 20.1225ZM15.3451 21.2686C15.3514 21.2623 15.3619 21.2558 15.3735 21.2526C15.3833 21.2498 15.3907 21.2501 15.3959 21.2512C15.401 21.2522 15.4096 21.2551 15.4199 21.2632C15.4316 21.2726 15.441 21.2856 15.4457 21.2974L14.0523 21.8528C14.4363 22.8159 15.6842 23.0486 16.4041 22.3309L15.3451 21.2686ZM13.0303 17.9701L12.7491 17.6889L11.6885 18.7495L11.9697 19.0307L13.0303 17.9701ZM5.04299 12.062L5.21923 12.2382L6.27989 11.1776L6.10365 11.0013L5.04299 12.062Z" fill="#1C274C"/>
<path id="Vector_3" opacity="0.5" d="M10.8562 14.17C11.1495 13.8776 11.1502 13.4027 10.8578 13.1094C10.5653 12.816 10.0904 12.8153 9.7971 13.1078L10.8562 14.17ZM8.79613 16.2239L10.8562 14.17L9.7971 13.1078L7.73707 15.1616L8.79613 16.2239ZM16.6639 9.00008C16.1981 9.46445 15.442 9.46445 14.9762 9.00008L13.9172 10.0623C14.9683 11.1104 16.6717 11.1104 17.7229 10.0623L16.6639 9.00008ZM14.9762 9.00008C14.5117 8.53695 14.5117 7.787 14.9762 7.32387L13.9172 6.26161C12.8647 7.31089 12.8647 9.01305 13.9172 10.0623L14.9762 9.00008ZM14.9762 7.32387C15.442 6.85949 16.1981 6.85949 16.6639 7.32387L17.7229 6.26161C16.6717 5.21358 14.9683 5.21358 13.9172 6.26161L14.9762 7.32387ZM16.6639 7.32387C17.1284 7.787 17.1284 8.53695 16.6639 9.00008L17.7229 10.0623C18.7754 9.01305 18.7754 7.31089 17.7229 6.26161L16.6639 7.32387Z" fill="#1C274C"/>
</g>
</svg>
